<?xml version="1.0" encoding="UTF-8" standalone="no"?>
<!DOCTYPE svg PUBLIC "-//W3C//DTD SVG 1.1//EN"
 "http://www.w3.org/Graphics/SVG/1.1/DTD/svg11.dtd">
<!-- Generated by graphviz version 2.43.0 (0)
 -->
<!-- Title: mc_orchestrator/json&#45;3.7.3/include/nlohmann/adl_serializer.hpp Pages: 1 -->
<!--zoomable 441 -->
<svg id="main" version="1.1" xmlns="http://www.w3.org/2000/svg" xmlns:xlink="http://www.w3.org/1999/xlink" xml:space="preserve" onload="init(evt)">
<style type="text/css"><![CDATA[
.edge:hover path { stroke: red; }
.edge:hover polygon { stroke: red; fill: red; }
]]></style>
<script type="text/javascript"><![CDATA[
var edges = document.getElementsByTagName('g');
if (edges && edges.length) {
  for (var i=0;i<edges.length;i++) {
    if (edges[i].id.substr(0,4)=='edge') {
      edges[i].setAttribute('class','edge');
    }
  }
}
]]></script>
        <defs>
                <circle id="rim" cx="0" cy="0" r="7"/>
                <circle id="rim2" cx="0" cy="0" r="3.5"/>
                <g id="zoomPlus">
                        <use xlink:href="#rim" fill="#404040">
                                <set attributeName="fill" to="#808080" begin="zoomplus.mouseover" end="zoomplus.mouseout"/>
                        </use>
                        <path d="M-4,0h8M0,-4v8" fill="none" stroke="white" stroke-width="1.5" pointer-events="none"/>
                </g>
                <g id="zoomMin">
                        <use xlink:href="#rim" fill="#404040">
                                <set attributeName="fill" to="#808080" begin="zoomminus.mouseover" end="zoomminus.mouseout"/>
                        </use>
                        <path d="M-4,0h8" fill="none" stroke="white" stroke-width="1.5" pointer-events="none"/>
                </g>
                <g id="dirArrow">
                        <path fill="none" stroke="white" stroke-width="1.5" d="M0,-3.0v7 M-2.5,-0.5L0,-3.0L2.5,-0.5"/>
                </g>
               <g id="resetDef">
                       <use xlink:href="#rim2" fill="#404040">
                               <set attributeName="fill" to="#808080" begin="reset.mouseover" end="reset.mouseout"/>
                       </use>
               </g>
        </defs>

<script type="text/javascript">
var viewWidth = 1798;
var viewHeight = 441;
var sectionId = 'dynsection-0';
</script>
<script xlink:href="svgpan.js"/>
<svg id="graph" class="graph">
<g id="viewport">
<title>mc_orchestrator/json&#45;3.7.3/include/nlohmann/adl_serializer.hpp</title>
<polygon fill="white" stroke="transparent" points="-4,4 -4,-437 1793.92,-437 1793.92,4 -4,4"/>
<!-- Node1 -->
<g id="node1" class="node">
<title>Node1</title>
<g id="a_node1"><a xlink:title=" ">
<polygon fill="#bfbfbf" stroke="black" points="655.86,-391.5 655.86,-432.5 789.86,-432.5 789.86,-391.5 655.86,-391.5"/>
<text text-anchor="start" x="663.86" y="-420.5" font-family="Helvetica,sans-Serif" font-size="10.00">mc_orchestrator/json</text>
<text text-anchor="start" x="663.86" y="-409.5" font-family="Helvetica,sans-Serif" font-size="10.00">&#45;3.7.3/include/nlohmann</text>
<text text-anchor="middle" x="722.86" y="-398.5" font-family="Helvetica,sans-Serif" font-size="10.00">/adl_serializer.hpp</text>
</a>
</g>
</g>
<!-- Node2 -->
<g id="node2" class="node">
<title>Node2</title>
<g id="a_node2"><a xlink:title=" ">
<polygon fill="white" stroke="#bfbfbf" points="70.36,-62 70.36,-81 115.36,-81 115.36,-62 70.36,-62"/>
<text text-anchor="middle" x="92.86" y="-69" font-family="Helvetica,sans-Serif" font-size="10.00">utility</text>
</a>
</g>
</g>
<!-- Node1&#45;&gt;Node2 -->
<g id="edge1" class="edge">
<title>Node1&#45;&gt;Node2</title>
<path fill="none" stroke="midnightblue" d="M655.8,-404.65C514.56,-390.18 192.2,-351.06 103.86,-288 42.44,-244.16 44.41,-195.91 63.86,-123 67.06,-110.98 73.88,-98.86 80.1,-89.5"/>
<polygon fill="midnightblue" stroke="midnightblue" points="83.07,-91.36 85.97,-81.17 77.35,-87.33 83.07,-91.36"/>
</g>
<!-- Node3 -->
<g id="node3" class="node">
<title>Node3</title>
<g id="a_node3"><a xlink:href="from__json_8hpp.html" target="_top" xlink:title=" ">
<polygon fill="white" stroke="black" points="643.86,-257.5 643.86,-287.5 801.86,-287.5 801.86,-257.5 643.86,-257.5"/>
<text text-anchor="start" x="651.86" y="-275.5" font-family="Helvetica,sans-Serif" font-size="10.00">nlohmann/detail/conversions</text>
<text text-anchor="middle" x="722.86" y="-264.5" font-family="Helvetica,sans-Serif" font-size="10.00">/from_json.hpp</text>
</a>
</g>
</g>
<!-- Node1&#45;&gt;Node3 -->
<g id="edge2" class="edge">
<title>Node1&#45;&gt;Node3</title>
<path fill="none" stroke="midnightblue" d="M722.86,-391.3C722.86,-366.63 722.86,-324.38 722.86,-297.75"/>
<polygon fill="midnightblue" stroke="midnightblue" points="726.36,-297.72 722.86,-287.72 719.36,-297.72 726.36,-297.72"/>
</g>
<!-- Node34 -->
<g id="node34" class="node">
<title>Node34</title>
<g id="a_node34"><a xlink:href="to__json_8hpp.html" target="_top" xlink:title=" ">
<polygon fill="white" stroke="black" points="851.86,-324.5 851.86,-354.5 1009.86,-354.5 1009.86,-324.5 851.86,-324.5"/>
<text text-anchor="start" x="859.86" y="-342.5" font-family="Helvetica,sans-Serif" font-size="10.00">nlohmann/detail/conversions</text>
<text text-anchor="middle" x="930.86" y="-331.5" font-family="Helvetica,sans-Serif" font-size="10.00">/to_json.hpp</text>
</a>
</g>
</g>
<!-- Node1&#45;&gt;Node34 -->
<g id="edge56" class="edge">
<title>Node1&#45;&gt;Node34</title>
<path fill="none" stroke="midnightblue" d="M780.52,-391.46C811.52,-380.95 849.43,-368.1 879.42,-357.93"/>
<polygon fill="midnightblue" stroke="midnightblue" points="880.92,-361.12 889.27,-354.6 878.67,-354.49 880.92,-361.12"/>
</g>
<!-- Node3&#45;&gt;Node2 -->
<g id="edge13" class="edge">
<title>Node3&#45;&gt;Node2</title>
<path fill="none" stroke="midnightblue" d="M643.52,-266.13C547.96,-258.77 393.67,-243.82 340.86,-221 320.85,-212.35 322.68,-199.08 302.86,-190 219.15,-151.66 160.58,-222.31 98.86,-154 83.66,-137.18 85.1,-109.62 88.32,-91.27"/>
<polygon fill="midnightblue" stroke="midnightblue" points="91.75,-91.95 90.37,-81.44 84.9,-90.52 91.75,-91.95"/>
</g>
<!-- Node4 -->
<g id="node4" class="node">
<title>Node4</title>
<g id="a_node4"><a xlink:title=" ">
<polygon fill="white" stroke="#bfbfbf" points="750.86,-196 750.86,-215 814.86,-215 814.86,-196 750.86,-196"/>
<text text-anchor="middle" x="782.86" y="-203" font-family="Helvetica,sans-Serif" font-size="10.00">algorithm</text>
</a>
</g>
</g>
<!-- Node3&#45;&gt;Node4 -->
<g id="edge3" class="edge">
<title>Node3&#45;&gt;Node4</title>
<path fill="none" stroke="midnightblue" d="M735.88,-257.4C745.33,-247.16 758.12,-233.3 767.98,-222.62"/>
<polygon fill="midnightblue" stroke="midnightblue" points="770.62,-224.92 774.83,-215.19 765.48,-220.17 770.62,-224.92"/>
</g>
<!-- Node5 -->
<g id="node5" class="node">
<title>Node5</title>
<g id="a_node5"><a xlink:title=" ">
<polygon fill="white" stroke="#bfbfbf" points="1574.86,-129 1574.86,-148 1616.86,-148 1616.86,-129 1574.86,-129"/>
<text text-anchor="middle" x="1595.86" y="-136" font-family="Helvetica,sans-Serif" font-size="10.00">array</text>
</a>
</g>
</g>
<!-- Node3&#45;&gt;Node5 -->
<g id="edge4" class="edge">
<title>Node3&#45;&gt;Node5</title>
<path fill="none" stroke="midnightblue" d="M802.07,-268.99C929.88,-264.11 1175.52,-251.06 1256.86,-221 1279.3,-212.71 1278.61,-198.78 1300.86,-190 1409.38,-147.2 1448.28,-184.57 1560.86,-154 1563.3,-153.34 1565.8,-152.54 1568.29,-151.68"/>
<polygon fill="midnightblue" stroke="midnightblue" points="1569.56,-154.94 1577.64,-148.08 1567.05,-148.4 1569.56,-154.94"/>
</g>
<!-- Node6 -->
<g id="node6" class="node">
<title>Node6</title>
<g id="a_node6"><a xlink:title=" ">
<polygon fill="white" stroke="#bfbfbf" points="428.86,-0.5 428.86,-19.5 482.86,-19.5 482.86,-0.5 428.86,-0.5"/>
<text text-anchor="middle" x="455.86" y="-7.5" font-family="Helvetica,sans-Serif" font-size="10.00">ciso646</text>
</a>
</g>
</g>
<!-- Node3&#45;&gt;Node6 -->
<g id="edge5" class="edge">
<title>Node3&#45;&gt;Node6</title>
<path fill="none" stroke="midnightblue" d="M643.86,-270.42C483.11,-267.47 129.67,-256.95 88.86,-221 33.04,-171.83 11.33,-111.49 60.86,-56 84.48,-29.54 324.89,-16.56 418.67,-12.47"/>
<polygon fill="midnightblue" stroke="midnightblue" points="419,-15.96 428.84,-12.04 418.7,-8.97 419,-15.96"/>
</g>
<!-- Node7 -->
<g id="node7" class="node">
<title>Node7</title>
<g id="a_node7"><a xlink:title=" ">
<polygon fill="white" stroke="#bfbfbf" points="219.86,-196 219.86,-215 293.86,-215 293.86,-196 219.86,-196"/>
<text text-anchor="middle" x="256.86" y="-203" font-family="Helvetica,sans-Serif" font-size="10.00">forward_list</text>
</a>
</g>
</g>
<!-- Node3&#45;&gt;Node7 -->
<g id="edge6" class="edge">
<title>Node3&#45;&gt;Node7</title>
<path fill="none" stroke="midnightblue" d="M643.49,-265.54C559.53,-258.38 423.47,-244.32 307.86,-221 303.32,-220.08 298.6,-218.97 293.94,-217.77"/>
<polygon fill="midnightblue" stroke="midnightblue" points="294.5,-214.29 283.93,-215.04 292.66,-221.05 294.5,-214.29"/>
</g>
<!-- Node8 -->
<g id="node8" class="node">
<title>Node8</title>
<g id="a_node8"><a xlink:title=" ">
<polygon fill="white" stroke="#bfbfbf" points="1167.36,-62 1167.36,-81 1220.36,-81 1220.36,-62 1167.36,-62"/>
<text text-anchor="middle" x="1193.86" y="-69" font-family="Helvetica,sans-Serif" font-size="10.00">iterator</text>
</a>
</g>
</g>
<!-- Node3&#45;&gt;Node8 -->
<g id="edge7" class="edge">
<title>Node3&#45;&gt;Node8</title>
<path fill="none" stroke="midnightblue" d="M721.67,-257.27C720.98,-238.81 722.9,-206.94 741.86,-190 792.91,-144.37 982.72,-175.09 1047.86,-154 1096.24,-138.33 1146.78,-105.94 1173.86,-87.05"/>
<polygon fill="midnightblue" stroke="midnightblue" points="1175.98,-89.84 1182.11,-81.21 1171.93,-84.13 1175.98,-89.84"/>
</g>
<!-- Node9 -->
<g id="node9" class="node">
<title>Node9</title>
<g id="a_node9"><a xlink:title=" ">
<polygon fill="white" stroke="#bfbfbf" points="1318.86,-62 1318.86,-81 1356.86,-81 1356.86,-62 1318.86,-62"/>
<text text-anchor="middle" x="1337.86" y="-69" font-family="Helvetica,sans-Serif" font-size="10.00">map</text>
</a>
</g>
</g>
<!-- Node3&#45;&gt;Node9 -->
<g id="edge8" class="edge">
<title>Node3&#45;&gt;Node9</title>
<path fill="none" stroke="midnightblue" d="M801.91,-265.16C867.32,-258.45 962.09,-245.35 1041.86,-221 1109.37,-200.39 1122.73,-185.58 1185.86,-154 1231.53,-131.15 1283.81,-102.58 1313.62,-86.04"/>
<polygon fill="midnightblue" stroke="midnightblue" points="1315.43,-89.04 1322.47,-81.12 1312.03,-82.92 1315.43,-89.04"/>
</g>
<!-- Node10 -->
<g id="node10" class="node">
<title>Node10</title>
<g id="a_node10"><a xlink:title=" ">
<polygon fill="white" stroke="#bfbfbf" points="1594.86,-62 1594.86,-81 1638.86,-81 1638.86,-62 1594.86,-62"/>
<text text-anchor="middle" x="1616.86" y="-69" font-family="Helvetica,sans-Serif" font-size="10.00">string</text>
</a>
</g>
</g>
<!-- Node3&#45;&gt;Node10 -->
<g id="edge9" class="edge">
<title>Node3&#45;&gt;Node10</title>
<path fill="none" stroke="midnightblue" d="M801.92,-261.96C877.16,-252.6 993.45,-237.37 1093.86,-221 1166.64,-209.13 1184.07,-201.8 1256.86,-190 1375.49,-170.77 1415.58,-204.02 1524.86,-154 1542.14,-146.09 1579.91,-109.73 1601.3,-88.34"/>
<polygon fill="midnightblue" stroke="midnightblue" points="1603.8,-90.78 1608.36,-81.22 1598.83,-85.85 1603.8,-90.78"/>
</g>
<!-- Node11 -->
<g id="node11" class="node">
<title>Node11</title>
<g id="a_node11"><a xlink:title=" ">
<polygon fill="white" stroke="#bfbfbf" points="1309.36,-196 1309.36,-215 1350.36,-215 1350.36,-196 1309.36,-196"/>
<text text-anchor="middle" x="1329.86" y="-203" font-family="Helvetica,sans-Serif" font-size="10.00">tuple</text>
</a>
</g>
</g>
<!-- Node3&#45;&gt;Node11 -->
<g id="edge10" class="edge">
<title>Node3&#45;&gt;Node11</title>
<path fill="none" stroke="midnightblue" d="M802.27,-272.06C913.88,-271.14 1122.75,-263.19 1294.86,-221 1297.37,-220.38 1299.94,-219.61 1302.49,-218.75"/>
<polygon fill="midnightblue" stroke="midnightblue" points="1303.95,-221.94 1312.05,-215.11 1301.46,-215.4 1303.95,-221.94"/>
</g>
<!-- Node12 -->
<g id="node12" class="node">
<title>Node12</title>
<g id="a_node12"><a xlink:title=" ">
<polygon fill="white" stroke="#bfbfbf" points="550.36,-0.5 550.36,-19.5 619.36,-19.5 619.36,-0.5 550.36,-0.5"/>
<text text-anchor="middle" x="584.86" y="-7.5" font-family="Helvetica,sans-Serif" font-size="10.00">type_traits</text>
</a>
</g>
</g>
<!-- Node3&#45;&gt;Node12 -->
<g id="edge11" class="edge">
<title>Node3&#45;&gt;Node12</title>
<path fill="none" stroke="midnightblue" d="M674.27,-257.4C651.83,-249.25 625.81,-237.32 605.86,-221 549.75,-175.09 534.51,-156.18 512.86,-87 508.74,-73.85 506.18,-68.05 512.86,-56 520.95,-41.41 535.96,-30.92 550.19,-23.76"/>
<polygon fill="midnightblue" stroke="midnightblue" points="551.74,-26.9 559.35,-19.53 548.81,-20.55 551.74,-26.9"/>
</g>
<!-- Node13 -->
<g id="node13" class="node">
<title>Node13</title>
<g id="a_node13"><a xlink:title=" ">
<polygon fill="white" stroke="#bfbfbf" points="108.36,-196 108.36,-215 201.36,-215 201.36,-196 108.36,-196"/>
<text text-anchor="middle" x="154.86" y="-203" font-family="Helvetica,sans-Serif" font-size="10.00">unordered_map</text>
</a>
</g>
</g>
<!-- Node3&#45;&gt;Node13 -->
<g id="edge12" class="edge">
<title>Node3&#45;&gt;Node13</title>
<path fill="none" stroke="midnightblue" d="M643.84,-267.52C542.81,-261.55 362.78,-247.99 210.86,-221 205.42,-220.03 199.73,-218.81 194.16,-217.49"/>
<polygon fill="midnightblue" stroke="midnightblue" points="194.86,-214.06 184.31,-215.04 193.17,-220.85 194.86,-214.06"/>
</g>
<!-- Node14 -->
<g id="node14" class="node">
<title>Node14</title>
<g id="a_node14"><a xlink:title=" ">
<polygon fill="white" stroke="#bfbfbf" points="833.36,-196 833.36,-215 890.36,-215 890.36,-196 833.36,-196"/>
<text text-anchor="middle" x="861.86" y="-203" font-family="Helvetica,sans-Serif" font-size="10.00">valarray</text>
</a>
</g>
</g>
<!-- Node3&#45;&gt;Node14 -->
<g id="edge14" class="edge">
<title>Node3&#45;&gt;Node14</title>
<path fill="none" stroke="midnightblue" d="M753.02,-257.4C777.3,-246.04 811.13,-230.22 834.61,-219.24"/>
<polygon fill="midnightblue" stroke="midnightblue" points="836.09,-222.41 843.67,-215.01 833.13,-216.07 836.09,-222.41"/>
</g>
<!-- Node15 -->
<g id="node15" class="node">
<title>Node15</title>
<g id="a_node15"><a xlink:href="exceptions_8hpp.html" target="_top" xlink:title=" ">
<polygon fill="white" stroke="black" points="350.36,-196 350.36,-215 523.36,-215 523.36,-196 350.36,-196"/>
<text text-anchor="middle" x="436.86" y="-203" font-family="Helvetica,sans-Serif" font-size="10.00">nlohmann/detail/exceptions.hpp</text>
</a>
</g>
</g>
<!-- Node3&#45;&gt;Node15 -->
<g id="edge15" class="edge">
<title>Node3&#45;&gt;Node15</title>
<path fill="none" stroke="midnightblue" d="M661.15,-257.48C608.11,-245.42 532.72,-228.29 484.29,-217.28"/>
<polygon fill="midnightblue" stroke="midnightblue" points="484.91,-213.83 474.38,-215.03 483.36,-220.66 484.91,-213.83"/>
</g>
<!-- Node20 -->
<g id="node20" class="node">
<title>Node20</title>
<g id="a_node20"><a xlink:href="macro__scope_8hpp.html" target="_top" xlink:title=" ">
<polygon fill="white" stroke="black" points="274.86,-123.5 274.86,-153.5 404.86,-153.5 404.86,-123.5 274.86,-123.5"/>
<text text-anchor="start" x="282.86" y="-141.5" font-family="Helvetica,sans-Serif" font-size="10.00">nlohmann/detail/macro</text>
<text text-anchor="middle" x="339.86" y="-130.5" font-family="Helvetica,sans-Serif" font-size="10.00">_scope.hpp</text>
</a>
</g>
</g>
<!-- Node3&#45;&gt;Node20 -->
<g id="edge25" class="edge">
<title>Node3&#45;&gt;Node20</title>
<path fill="none" stroke="midnightblue" d="M643.57,-270.95C483.77,-269.01 135.08,-260.27 98.86,-221 89.52,-210.87 90.17,-200.69 98.86,-190 101.55,-186.68 194.89,-167.81 264.59,-154.11"/>
<polygon fill="midnightblue" stroke="midnightblue" points="265.55,-157.49 274.69,-152.13 264.21,-150.62 265.55,-157.49"/>
</g>
<!-- Node23 -->
<g id="node23" class="node">
<title>Node23</title>
<g id="a_node23"><a xlink:href="cpp__future_8hpp.html" target="_top" xlink:title=" ">
<polygon fill="white" stroke="black" points="522.36,-56.5 522.36,-86.5 647.36,-86.5 647.36,-56.5 522.36,-56.5"/>
<text text-anchor="start" x="530.36" y="-74.5" font-family="Helvetica,sans-Serif" font-size="10.00">nlohmann/detail/meta</text>
<text text-anchor="middle" x="584.86" y="-63.5" font-family="Helvetica,sans-Serif" font-size="10.00">/cpp_future.hpp</text>
</a>
</g>
</g>
<!-- Node3&#45;&gt;Node23 -->
<g id="edge26" class="edge">
<title>Node3&#45;&gt;Node23</title>
<path fill="none" stroke="midnightblue" d="M694.59,-257.45C660.98,-238.97 606.61,-203.01 583.86,-154 575.55,-136.1 576.59,-113.52 579.26,-96.67"/>
<polygon fill="midnightblue" stroke="midnightblue" points="582.76,-97 581.17,-86.53 575.88,-95.71 582.76,-97"/>
</g>
<!-- Node24 -->
<g id="node24" class="node">
<title>Node24</title>
<g id="a_node24"><a xlink:href="type__traits_8hpp.html" target="_top" xlink:title=" ">
<polygon fill="white" stroke="black" points="908.36,-190.5 908.36,-220.5 1033.36,-220.5 1033.36,-190.5 908.36,-190.5"/>
<text text-anchor="start" x="916.36" y="-208.5" font-family="Helvetica,sans-Serif" font-size="10.00">nlohmann/detail/meta</text>
<text text-anchor="middle" x="970.86" y="-197.5" font-family="Helvetica,sans-Serif" font-size="10.00">/type_traits.hpp</text>
</a>
</g>
</g>
<!-- Node3&#45;&gt;Node24 -->
<g id="edge30" class="edge">
<title>Node3&#45;&gt;Node24</title>
<path fill="none" stroke="midnightblue" d="M776.37,-257.48C814.78,-247.41 866.7,-233.8 907.24,-223.17"/>
<polygon fill="midnightblue" stroke="midnightblue" points="908.23,-226.53 917.02,-220.61 906.46,-219.76 908.23,-226.53"/>
</g>
<!-- Node33 -->
<g id="node33" class="node">
<title>Node33</title>
<g id="a_node33"><a xlink:href="value__t_8hpp.html" target="_top" xlink:title=" ">
<polygon fill="white" stroke="black" points="1499.86,-190.5 1499.86,-220.5 1625.86,-220.5 1625.86,-190.5 1499.86,-190.5"/>
<text text-anchor="start" x="1507.86" y="-208.5" font-family="Helvetica,sans-Serif" font-size="10.00">nlohmann/detail/value</text>
<text text-anchor="middle" x="1562.86" y="-197.5" font-family="Helvetica,sans-Serif" font-size="10.00">_t.hpp</text>
</a>
</g>
</g>
<!-- Node3&#45;&gt;Node33 -->
<g id="edge50" class="edge">
<title>Node3&#45;&gt;Node33</title>
<path fill="none" stroke="midnightblue" d="M801.88,-265.38C964.14,-252.83 1332.76,-224.31 1489.8,-212.15"/>
<polygon fill="midnightblue" stroke="midnightblue" points="1490.13,-215.64 1499.83,-211.38 1489.59,-208.66 1490.13,-215.64"/>
</g>
<!-- Node15&#45;&gt;Node10 -->
<g id="edge18" class="edge">
<title>Node15&#45;&gt;Node10</title>
<path fill="none" stroke="midnightblue" d="M523.79,-200.37C775.71,-188.4 1488.44,-154.5 1489.86,-154 1512.1,-146.23 1513.19,-135.97 1532.86,-123 1552.76,-109.88 1576.02,-96 1593.02,-86.12"/>
<polygon fill="midnightblue" stroke="midnightblue" points="1594.85,-89.1 1601.76,-81.07 1591.35,-83.04 1594.85,-89.1"/>
</g>
<!-- Node16 -->
<g id="node16" class="node">
<title>Node16</title>
<g id="a_node16"><a xlink:title=" ">
<polygon fill="white" stroke="#bfbfbf" points="108.36,-129 108.36,-148 173.36,-148 173.36,-129 108.36,-129"/>
<text text-anchor="middle" x="140.86" y="-136" font-family="Helvetica,sans-Serif" font-size="10.00">exception</text>
</a>
</g>
</g>
<!-- Node15&#45;&gt;Node16 -->
<g id="edge16" class="edge">
<title>Node15&#45;&gt;Node16</title>
<path fill="none" stroke="midnightblue" d="M381.61,-195.93C329.59,-187.3 249.75,-172.62 181.86,-154 178.9,-153.19 175.84,-152.27 172.79,-151.29"/>
<polygon fill="midnightblue" stroke="midnightblue" points="173.82,-147.95 163.23,-148.07 171.59,-154.58 173.82,-147.95"/>
</g>
<!-- Node17 -->
<g id="node17" class="node">
<title>Node17</title>
<g id="a_node17"><a xlink:title=" ">
<polygon fill="white" stroke="#bfbfbf" points="191.36,-129 191.36,-148 256.36,-148 256.36,-129 191.36,-129"/>
<text text-anchor="middle" x="223.86" y="-136" font-family="Helvetica,sans-Serif" font-size="10.00">stdexcept</text>
</a>
</g>
</g>
<!-- Node15&#45;&gt;Node17 -->
<g id="edge17" class="edge">
<title>Node15&#45;&gt;Node17</title>
<path fill="none" stroke="midnightblue" d="M406.46,-195.97C372.17,-186.25 314.8,-169.67 265.86,-154 263.26,-153.17 260.58,-152.29 257.89,-151.39"/>
<polygon fill="midnightblue" stroke="midnightblue" points="258.82,-148.01 248.23,-148.12 256.57,-154.64 258.82,-148.01"/>
</g>
<!-- Node18 -->
<g id="node18" class="node">
<title>Node18</title>
<g id="a_node18"><a xlink:href="position__t_8hpp.html" target="_top" xlink:title=" ">
<polygon fill="white" stroke="black" points="914.86,-123.5 914.86,-153.5 1038.86,-153.5 1038.86,-123.5 914.86,-123.5"/>
<text text-anchor="start" x="922.86" y="-141.5" font-family="Helvetica,sans-Serif" font-size="10.00">nlohmann/detail/input</text>
<text text-anchor="middle" x="976.86" y="-130.5" font-family="Helvetica,sans-Serif" font-size="10.00">/position_t.hpp</text>
</a>
</g>
</g>
<!-- Node15&#45;&gt;Node18 -->
<g id="edge19" class="edge">
<title>Node15&#45;&gt;Node18</title>
<path fill="none" stroke="midnightblue" d="M523.42,-197.54C615.38,-189.61 765.18,-175.14 904.47,-153.96"/>
<polygon fill="midnightblue" stroke="midnightblue" points="905.13,-157.4 914.48,-152.42 904.06,-150.48 905.13,-157.4"/>
</g>
<!-- Node15&#45;&gt;Node20 -->
<g id="edge21" class="edge">
<title>Node15&#45;&gt;Node20</title>
<path fill="none" stroke="midnightblue" d="M423.78,-195.73C409.91,-186.44 387.55,-171.46 369.4,-159.3"/>
<polygon fill="midnightblue" stroke="midnightblue" points="371.14,-156.25 360.88,-153.59 367.24,-162.06 371.14,-156.25"/>
</g>
<!-- Node19 -->
<g id="node19" class="node">
<title>Node19</title>
<g id="a_node19"><a xlink:title=" ">
<polygon fill="white" stroke="#bfbfbf" points="1454.36,-0.5 1454.36,-19.5 1507.36,-19.5 1507.36,-0.5 1454.36,-0.5"/>
<text text-anchor="middle" x="1480.86" y="-7.5" font-family="Helvetica,sans-Serif" font-size="10.00">cstddef</text>
</a>
</g>
</g>
<!-- Node18&#45;&gt;Node19 -->
<g id="edge20" class="edge">
<title>Node18&#45;&gt;Node19</title>
<path fill="none" stroke="midnightblue" d="M1002.21,-123.37C1036.6,-104.86 1100.46,-72.79 1158.86,-56 1259.42,-27.09 1383.18,-16.45 1443.82,-12.78"/>
<polygon fill="midnightblue" stroke="midnightblue" points="1444.25,-16.26 1454.04,-12.2 1443.85,-9.28 1444.25,-16.26"/>
</g>
<!-- Node20&#45;&gt;Node2 -->
<g id="edge22" class="edge">
<title>Node20&#45;&gt;Node2</title>
<path fill="none" stroke="midnightblue" d="M286.57,-123.48C237.54,-110.57 166.41,-91.86 125.37,-81.06"/>
<polygon fill="midnightblue" stroke="midnightblue" points="126.18,-77.65 115.62,-78.49 124.4,-84.42 126.18,-77.65"/>
</g>
<!-- Node21 -->
<g id="node21" class="node">
<title>Node21</title>
<g id="a_node21"><a xlink:href="hedley_8hpp.html" target="_top" xlink:title=" ">
<polygon fill="white" stroke="black" points="211.86,-56.5 211.86,-86.5 327.86,-86.5 327.86,-56.5 211.86,-56.5"/>
<text text-anchor="start" x="219.86" y="-74.5" font-family="Helvetica,sans-Serif" font-size="10.00">nlohmann/thirdparty</text>
<text text-anchor="middle" x="269.86" y="-63.5" font-family="Helvetica,sans-Serif" font-size="10.00">/hedley/hedley.hpp</text>
</a>
</g>
</g>
<!-- Node20&#45;&gt;Node21 -->
<g id="edge23" class="edge">
<title>Node20&#45;&gt;Node21</title>
<path fill="none" stroke="midnightblue" d="M324.67,-123.4C315.31,-114.71 303.14,-103.4 292.64,-93.66"/>
<polygon fill="midnightblue" stroke="midnightblue" points="294.73,-90.82 285.02,-86.58 289.96,-95.95 294.73,-90.82"/>
</g>
<!-- Node22 -->
<g id="node22" class="node">
<title>Node22</title>
<g id="a_node22"><a xlink:title=" ">
<polygon fill="white" stroke="#bfbfbf" points="346.36,-62 346.36,-81 395.36,-81 395.36,-62 346.36,-62"/>
<text text-anchor="middle" x="370.86" y="-69" font-family="Helvetica,sans-Serif" font-size="10.00">cstdlib</text>
</a>
</g>
</g>
<!-- Node20&#45;&gt;Node22 -->
<g id="edge24" class="edge">
<title>Node20&#45;&gt;Node22</title>
<path fill="none" stroke="midnightblue" d="M346.59,-123.4C351.18,-113.76 357.31,-100.91 362.26,-90.54"/>
<polygon fill="midnightblue" stroke="midnightblue" points="365.57,-91.73 366.71,-81.19 359.25,-88.71 365.57,-91.73"/>
</g>
<!-- Node23&#45;&gt;Node6 -->
<g id="edge27" class="edge">
<title>Node23&#45;&gt;Node6</title>
<path fill="none" stroke="midnightblue" d="M554.29,-56.4C532.93,-46.55 504.64,-33.5 483.87,-23.92"/>
<polygon fill="midnightblue" stroke="midnightblue" points="485.18,-20.67 474.63,-19.66 482.24,-27.02 485.18,-20.67"/>
</g>
<!-- Node23&#45;&gt;Node12 -->
<g id="edge29" class="edge">
<title>Node23&#45;&gt;Node12</title>
<path fill="none" stroke="midnightblue" d="M584.86,-56.4C584.86,-48.47 584.86,-38.46 584.86,-29.86"/>
<polygon fill="midnightblue" stroke="midnightblue" points="588.36,-29.66 584.86,-19.66 581.36,-29.66 588.36,-29.66"/>
</g>
<!-- Node23&#45;&gt;Node19 -->
<g id="edge28" class="edge">
<title>Node23&#45;&gt;Node19</title>
<path fill="none" stroke="midnightblue" d="M647.37,-57.75C651.59,-57.1 655.78,-56.5 659.86,-56 961.07,-18.8 1328.25,-12.35 1444.06,-11.23"/>
<polygon fill="midnightblue" stroke="midnightblue" points="1444.19,-14.73 1454.16,-11.14 1444.13,-7.73 1444.19,-14.73"/>
</g>
<!-- Node24&#45;&gt;Node2 -->
<g id="edge34" class="edge">
<title>Node24&#45;&gt;Node2</title>
<path fill="none" stroke="midnightblue" d="M908.1,-191.47C904.98,-190.95 901.89,-190.45 898.86,-190 737.2,-165.83 693.77,-182.69 532.86,-154 479.05,-144.41 467.36,-134.15 413.86,-123 309.35,-101.22 183.96,-84.05 125.66,-76.57"/>
<polygon fill="midnightblue" stroke="midnightblue" points="125.93,-73.08 115.57,-75.29 125.05,-80.02 125.93,-73.08"/>
</g>
<!-- Node24&#45;&gt;Node6 -->
<g id="edge31" class="edge">
<title>Node24&#45;&gt;Node6</title>
<path fill="none" stroke="midnightblue" d="M908.09,-191.53C904.97,-190.99 901.88,-190.48 898.86,-190 759.66,-168.07 711.64,-213.4 583.86,-154 526.06,-127.13 483.17,-60.57 465.18,-28.64"/>
<polygon fill="midnightblue" stroke="midnightblue" points="468.09,-26.68 460.23,-19.58 461.95,-30.04 468.09,-26.68"/>
</g>
<!-- Node24&#45;&gt;Node12 -->
<g id="edge33" class="edge">
<title>Node24&#45;&gt;Node12</title>
<path fill="none" stroke="midnightblue" d="M1006.85,-190.35C1022.41,-182.22 1039.05,-170.32 1047.86,-154 1054.41,-141.88 1056.06,-134.07 1047.86,-123 997.89,-55.55 736.06,-24.65 629.77,-14.74"/>
<polygon fill="midnightblue" stroke="midnightblue" points="629.96,-11.25 619.68,-13.82 629.32,-18.22 629.96,-11.25"/>
</g>
<!-- Node24&#45;&gt;Node20 -->
<g id="edge39" class="edge">
<title>Node24&#45;&gt;Node20</title>
<path fill="none" stroke="midnightblue" d="M908.1,-191.44C904.98,-190.92 901.89,-190.44 898.86,-190 720.45,-164.17 674.38,-170.4 494.86,-154 468.96,-151.63 440.62,-149 415.35,-146.63"/>
<polygon fill="midnightblue" stroke="midnightblue" points="415.37,-143.12 405.09,-145.67 414.72,-150.09 415.37,-143.12"/>
</g>
<!-- Node24&#45;&gt;Node23 -->
<g id="edge40" class="edge">
<title>Node24&#45;&gt;Node23</title>
<path fill="none" stroke="midnightblue" d="M908.08,-191.56C904.97,-191.01 901.88,-190.49 898.86,-190 833.66,-179.47 653,-198.12 603.86,-154 588.04,-139.8 584.1,-115.22 583.62,-96.75"/>
<polygon fill="midnightblue" stroke="midnightblue" points="587.12,-96.73 583.68,-86.71 580.12,-96.69 587.12,-96.73"/>
</g>
<!-- Node25 -->
<g id="node25" class="node">
<title>Node25</title>
<g id="a_node25"><a xlink:title=" ">
<polygon fill="white" stroke="#bfbfbf" points="1132.86,-129 1132.86,-148 1176.86,-148 1176.86,-129 1132.86,-129"/>
<text text-anchor="middle" x="1154.86" y="-136" font-family="Helvetica,sans-Serif" font-size="10.00">limits</text>
</a>
</g>
</g>
<!-- Node24&#45;&gt;Node25 -->
<g id="edge32" class="edge">
<title>Node24&#45;&gt;Node25</title>
<path fill="none" stroke="midnightblue" d="M1014.14,-190.42C1043.77,-180.61 1083.87,-167.01 1118.86,-154 1120.71,-153.31 1122.6,-152.59 1124.51,-151.86"/>
<polygon fill="midnightblue" stroke="midnightblue" points="1125.97,-155.05 1133.99,-148.13 1123.41,-148.53 1125.97,-155.05"/>
</g>
<!-- Node26 -->
<g id="node26" class="node">
<title>Node26</title>
<g id="a_node26"><a xlink:href="iterator__traits_8hpp.html" target="_top" xlink:title=" ">
<polygon fill="white" stroke="black" points="612.86,-123.5 612.86,-153.5 752.86,-153.5 752.86,-123.5 612.86,-123.5"/>
<text text-anchor="start" x="620.86" y="-141.5" font-family="Helvetica,sans-Serif" font-size="10.00">nlohmann/detail/iterators</text>
<text text-anchor="middle" x="682.86" y="-130.5" font-family="Helvetica,sans-Serif" font-size="10.00">/iterator_traits.hpp</text>
</a>
</g>
</g>
<!-- Node24&#45;&gt;Node26 -->
<g id="edge35" class="edge">
<title>Node24&#45;&gt;Node26</title>
<path fill="none" stroke="midnightblue" d="M908.72,-190.48C863.64,-180.3 802.54,-166.51 755.25,-155.84"/>
<polygon fill="midnightblue" stroke="midnightblue" points="755.91,-152.4 745.38,-153.61 754.36,-159.23 755.91,-152.4"/>
</g>
<!-- Node28 -->
<g id="node28" class="node">
<title>Node28</title>
<g id="a_node28"><a xlink:href="detected_8hpp.html" target="_top" xlink:title=" ">
<polygon fill="white" stroke="black" points="771.36,-123.5 771.36,-153.5 896.36,-153.5 896.36,-123.5 771.36,-123.5"/>
<text text-anchor="start" x="779.36" y="-141.5" font-family="Helvetica,sans-Serif" font-size="10.00">nlohmann/detail/meta</text>
<text text-anchor="middle" x="833.86" y="-130.5" font-family="Helvetica,sans-Serif" font-size="10.00">/detected.hpp</text>
</a>
</g>
</g>
<!-- Node24&#45;&gt;Node28 -->
<g id="edge41" class="edge">
<title>Node24&#45;&gt;Node28</title>
<path fill="none" stroke="midnightblue" d="M941.13,-190.4C921.11,-180.9 894.51,-168.28 872.8,-157.98"/>
<polygon fill="midnightblue" stroke="midnightblue" points="874.06,-154.7 863.53,-153.58 871.06,-161.03 874.06,-154.7"/>
</g>
<!-- Node29 -->
<g id="node29" class="node">
<title>Node29</title>
<g id="a_node29"><a xlink:href="json__fwd_8hpp.html" target="_top" xlink:title=" ">
<polygon fill="white" stroke="black" points="1347.36,-129 1347.36,-148 1480.36,-148 1480.36,-129 1347.36,-129"/>
<text text-anchor="middle" x="1413.86" y="-136" font-family="Helvetica,sans-Serif" font-size="10.00">nlohmann/json_fwd.hpp</text>
</a>
</g>
</g>
<!-- Node24&#45;&gt;Node29 -->
<g id="edge44" class="edge">
<title>Node24&#45;&gt;Node29</title>
<path fill="none" stroke="midnightblue" d="M1033.39,-195.32C1115.9,-183.22 1260.6,-161.99 1345.79,-149.49"/>
<polygon fill="midnightblue" stroke="midnightblue" points="1346.49,-152.92 1355.87,-148.01 1345.47,-146 1346.49,-152.92"/>
</g>
<!-- Node26&#45;&gt;Node8 -->
<g id="edge36" class="edge">
<title>Node26&#45;&gt;Node8</title>
<path fill="none" stroke="midnightblue" d="M753.03,-124.38C756.01,-123.9 758.96,-123.43 761.86,-123 907.41,-101.16 1081.75,-83.3 1156.67,-76.02"/>
<polygon fill="midnightblue" stroke="midnightblue" points="1157.37,-79.47 1166.98,-75.03 1156.69,-72.5 1157.37,-79.47"/>
</g>
<!-- Node26&#45;&gt;Node23 -->
<g id="edge38" class="edge">
<title>Node26&#45;&gt;Node23</title>
<path fill="none" stroke="midnightblue" d="M661.59,-123.4C647.85,-114.28 629.77,-102.29 614.61,-92.24"/>
<polygon fill="midnightblue" stroke="midnightblue" points="616.35,-89.19 606.08,-86.58 612.48,-95.02 616.35,-89.19"/>
</g>
<!-- Node27 -->
<g id="node27" class="node">
<title>Node27</title>
<g id="a_node27"><a xlink:href="void__t_8hpp.html" target="_top" xlink:title=" ">
<polygon fill="white" stroke="black" points="669.36,-56.5 669.36,-86.5 794.36,-86.5 794.36,-56.5 669.36,-56.5"/>
<text text-anchor="start" x="677.36" y="-74.5" font-family="Helvetica,sans-Serif" font-size="10.00">nlohmann/detail/meta</text>
<text text-anchor="middle" x="731.86" y="-63.5" font-family="Helvetica,sans-Serif" font-size="10.00">/void_t.hpp</text>
</a>
</g>
</g>
<!-- Node26&#45;&gt;Node27 -->
<g id="edge37" class="edge">
<title>Node26&#45;&gt;Node27</title>
<path fill="none" stroke="midnightblue" d="M693.49,-123.4C699.78,-115.05 707.9,-104.29 715.04,-94.81"/>
<polygon fill="midnightblue" stroke="midnightblue" points="718.02,-96.67 721.25,-86.58 712.43,-92.45 718.02,-96.67"/>
</g>
<!-- Node28&#45;&gt;Node12 -->
<g id="edge42" class="edge">
<title>Node28&#45;&gt;Node12</title>
<path fill="none" stroke="midnightblue" d="M832.57,-123.34C830.11,-104.95 823.03,-73.18 802.86,-56 777.24,-34.18 685.58,-21.22 629.6,-15.17"/>
<polygon fill="midnightblue" stroke="midnightblue" points="629.89,-11.68 619.58,-14.12 629.16,-18.64 629.89,-11.68"/>
</g>
<!-- Node28&#45;&gt;Node27 -->
<g id="edge43" class="edge">
<title>Node28&#45;&gt;Node27</title>
<path fill="none" stroke="midnightblue" d="M811.73,-123.4C797.29,-114.2 778.25,-102.07 762.39,-91.95"/>
<polygon fill="midnightblue" stroke="midnightblue" points="764.26,-89 753.95,-86.58 760.5,-94.9 764.26,-89"/>
</g>
<!-- Node29&#45;&gt;Node9 -->
<g id="edge46" class="edge">
<title>Node29&#45;&gt;Node9</title>
<path fill="none" stroke="midnightblue" d="M1403.61,-128.73C1391.42,-118.31 1370.84,-100.71 1355.95,-87.97"/>
<polygon fill="midnightblue" stroke="midnightblue" points="1357.82,-84.97 1347.95,-81.13 1353.27,-90.29 1357.82,-84.97"/>
</g>
<!-- Node29&#45;&gt;Node10 -->
<g id="edge48" class="edge">
<title>Node29&#45;&gt;Node10</title>
<path fill="none" stroke="midnightblue" d="M1440.82,-128.87C1478.12,-116.92 1545.37,-95.39 1585.07,-82.68"/>
<polygon fill="midnightblue" stroke="midnightblue" points="1586.32,-85.95 1594.78,-79.57 1584.19,-79.29 1586.32,-85.95"/>
</g>
<!-- Node30 -->
<g id="node30" class="node">
<title>Node30</title>
<g id="a_node30"><a xlink:title=" ">
<polygon fill="white" stroke="#bfbfbf" points="1493.86,-62 1493.86,-81 1543.86,-81 1543.86,-62 1493.86,-62"/>
<text text-anchor="middle" x="1518.86" y="-69" font-family="Helvetica,sans-Serif" font-size="10.00">cstdint</text>
</a>
</g>
</g>
<!-- Node29&#45;&gt;Node30 -->
<g id="edge45" class="edge">
<title>Node29&#45;&gt;Node30</title>
<path fill="none" stroke="midnightblue" d="M1428.02,-128.73C1445.57,-117.87 1475.7,-99.22 1496.42,-86.39"/>
<polygon fill="midnightblue" stroke="midnightblue" points="1498.26,-89.37 1504.92,-81.13 1494.58,-83.41 1498.26,-89.37"/>
</g>
<!-- Node31 -->
<g id="node31" class="node">
<title>Node31</title>
<g id="a_node31"><a xlink:title=" ">
<polygon fill="white" stroke="#bfbfbf" points="1384.86,-62 1384.86,-81 1442.86,-81 1442.86,-62 1384.86,-62"/>
<text text-anchor="middle" x="1413.86" y="-69" font-family="Helvetica,sans-Serif" font-size="10.00">memory</text>
</a>
</g>
</g>
<!-- Node29&#45;&gt;Node31 -->
<g id="edge47" class="edge">
<title>Node29&#45;&gt;Node31</title>
<path fill="none" stroke="midnightblue" d="M1413.86,-128.73C1413.86,-119.18 1413.86,-103.62 1413.86,-91.28"/>
<polygon fill="midnightblue" stroke="midnightblue" points="1417.36,-91.13 1413.86,-81.13 1410.36,-91.13 1417.36,-91.13"/>
</g>
<!-- Node32 -->
<g id="node32" class="node">
<title>Node32</title>
<g id="a_node32"><a xlink:title=" ">
<polygon fill="white" stroke="#bfbfbf" points="1708.36,-62 1708.36,-81 1755.36,-81 1755.36,-62 1708.36,-62"/>
<text text-anchor="middle" x="1731.86" y="-69" font-family="Helvetica,sans-Serif" font-size="10.00">vector</text>
</a>
</g>
</g>
<!-- Node29&#45;&gt;Node32 -->
<g id="edge49" class="edge">
<title>Node29&#45;&gt;Node32</title>
<path fill="none" stroke="midnightblue" d="M1455.76,-128.94C1519.56,-115.89 1639.8,-91.32 1698.26,-79.37"/>
<polygon fill="midnightblue" stroke="midnightblue" points="1698.99,-82.79 1708.09,-77.36 1697.59,-75.93 1698.99,-82.79"/>
</g>
<!-- Node33&#45;&gt;Node5 -->
<g id="edge51" class="edge">
<title>Node33&#45;&gt;Node5</title>
<path fill="none" stroke="midnightblue" d="M1570.02,-190.4C1574.96,-180.66 1581.57,-167.65 1586.87,-157.21"/>
<polygon fill="midnightblue" stroke="midnightblue" points="1590.04,-158.7 1591.44,-148.19 1583.8,-155.53 1590.04,-158.7"/>
</g>
<!-- Node33&#45;&gt;Node6 -->
<g id="edge52" class="edge">
<title>Node33&#45;&gt;Node6</title>
<path fill="none" stroke="midnightblue" d="M1499.57,-198.9C1453.01,-192.78 1389.32,-180.08 1338.86,-154 1280.99,-124.09 1290.06,-80.9 1229.86,-56 1088.18,2.61 693.7,-32.08 540.86,-20 525.26,-18.77 508.1,-17.02 493.3,-15.4"/>
<polygon fill="midnightblue" stroke="midnightblue" points="493.33,-11.88 483,-14.25 492.55,-18.84 493.33,-11.88"/>
</g>
<!-- Node33&#45;&gt;Node10 -->
<g id="edge55" class="edge">
<title>Node33&#45;&gt;Node10</title>
<path fill="none" stroke="midnightblue" d="M1600.17,-190.36C1616.01,-182.28 1632.87,-170.42 1641.86,-154 1653.25,-133.19 1640.57,-106.48 1629.5,-89.43"/>
<polygon fill="midnightblue" stroke="midnightblue" points="1632.26,-87.26 1623.68,-81.04 1626.51,-91.25 1632.26,-87.26"/>
</g>
<!-- Node33&#45;&gt;Node19 -->
<g id="edge53" class="edge">
<title>Node33&#45;&gt;Node19</title>
<path fill="none" stroke="midnightblue" d="M1613.84,-190.41C1689.42,-167.11 1816.94,-116.98 1764.86,-56 1733.48,-19.26 1587.19,-12.35 1517.7,-11.17"/>
<polygon fill="midnightblue" stroke="midnightblue" points="1517.68,-7.67 1507.63,-11.03 1517.58,-14.67 1517.68,-7.67"/>
</g>
<!-- Node33&#45;&gt;Node30 -->
<g id="edge54" class="edge">
<title>Node33&#45;&gt;Node30</title>
<path fill="none" stroke="midnightblue" d="M1590.16,-190.36C1603.56,-181.81 1618.4,-169.54 1625.86,-154 1631.82,-141.58 1633.23,-134.64 1625.86,-123 1610.1,-98.14 1578.47,-85.29 1553.67,-78.79"/>
<polygon fill="midnightblue" stroke="midnightblue" points="1554.4,-75.37 1543.87,-76.45 1552.78,-82.18 1554.4,-75.37"/>
</g>
<!-- Node34&#45;&gt;Node2 -->
<g id="edge63" class="edge">
<title>Node34&#45;&gt;Node2</title>
<path fill="none" stroke="midnightblue" d="M851.77,-337.9C686.29,-335.87 308.79,-326.98 186.86,-288 132.7,-270.68 105.61,-270.63 77.86,-221 54.43,-179.1 72.76,-120.08 84.69,-90.66"/>
<polygon fill="midnightblue" stroke="midnightblue" points="88,-91.81 88.7,-81.24 81.56,-89.07 88,-91.81"/>
</g>
<!-- Node34&#45;&gt;Node4 -->
<g id="edge57" class="edge">
<title>Node34&#45;&gt;Node4</title>
<path fill="none" stroke="midnightblue" d="M915.02,-324.37C887.06,-299.43 829.16,-247.8 800.18,-221.95"/>
<polygon fill="midnightblue" stroke="midnightblue" points="802.29,-219.14 792.5,-215.1 797.63,-224.37 802.29,-219.14"/>
</g>
<!-- Node34&#45;&gt;Node6 -->
<g id="edge58" class="edge">
<title>Node34&#45;&gt;Node6</title>
<path fill="none" stroke="midnightblue" d="M851.52,-337.88C656.78,-335.75 166.46,-326.58 103.86,-288 12.49,-231.69 -38.36,-132.56 36.86,-56 63.39,-29 320.87,-16.24 418.54,-12.35"/>
<polygon fill="midnightblue" stroke="midnightblue" points="418.71,-15.85 428.56,-11.96 418.43,-8.85 418.71,-15.85"/>
</g>
<!-- Node34&#45;&gt;Node8 -->
<g id="edge59" class="edge">
<title>Node34&#45;&gt;Node8</title>
<path fill="none" stroke="midnightblue" d="M966.28,-324.43C1023.57,-299.6 1135.26,-242.14 1185.86,-154 1196.95,-134.68 1197.46,-108.48 1196.19,-91.06"/>
<polygon fill="midnightblue" stroke="midnightblue" points="1199.66,-90.64 1195.19,-81.04 1192.7,-91.34 1199.66,-90.64"/>
</g>
<!-- Node34&#45;&gt;Node10 -->
<g id="edge60" class="edge">
<title>Node34&#45;&gt;Node10</title>
<path fill="none" stroke="midnightblue" d="M1010.2,-338.76C1120.62,-337.47 1326.2,-329.06 1495.86,-288 1572.79,-269.38 1610.14,-281.76 1660.86,-221 1689.05,-187.22 1693.09,-163.04 1674.86,-123 1667.96,-107.84 1654.01,-95.47 1641.53,-86.76"/>
<polygon fill="midnightblue" stroke="midnightblue" points="1643.1,-83.61 1632.81,-81.08 1639.28,-89.48 1643.1,-83.61"/>
</g>
<!-- Node34&#45;&gt;Node11 -->
<g id="edge61" class="edge">
<title>Node34&#45;&gt;Node11</title>
<path fill="none" stroke="midnightblue" d="M1010.02,-334.38C1069.48,-329 1151.86,-316.6 1218.86,-288 1256.54,-271.91 1293.52,-240.84 1313.85,-222.05"/>
<polygon fill="midnightblue" stroke="midnightblue" points="1316.39,-224.47 1321.26,-215.06 1311.58,-219.38 1316.39,-224.47"/>
</g>
<!-- Node34&#45;&gt;Node12 -->
<g id="edge62" class="edge">
<title>Node34&#45;&gt;Node12</title>
<path fill="none" stroke="midnightblue" d="M851.77,-337.9C686.29,-335.87 308.79,-326.98 186.86,-288 132.7,-270.68 108.68,-268.78 77.86,-221 37.89,-159.05 10.95,-110.26 60.86,-56 93.39,-20.63 444,-24.31 491.86,-20 507.48,-18.59 524.57,-16.96 539.78,-15.48"/>
<polygon fill="midnightblue" stroke="midnightblue" points="540.37,-18.94 549.98,-14.48 539.69,-11.98 540.37,-18.94"/>
</g>
<!-- Node34&#45;&gt;Node14 -->
<g id="edge64" class="edge">
<title>Node34&#45;&gt;Node14</title>
<path fill="none" stroke="midnightblue" d="M923.47,-324.37C910.77,-300.08 884.83,-250.44 871,-224"/>
<polygon fill="midnightblue" stroke="midnightblue" points="874.09,-222.34 866.35,-215.1 867.88,-225.58 874.09,-222.34"/>
</g>
<!-- Node34&#45;&gt;Node23 -->
<g id="edge73" class="edge">
<title>Node34&#45;&gt;Node23</title>
<path fill="none" stroke="midnightblue" d="M851.67,-333.29C651.69,-319.33 138.66,-278.24 88.86,-221 74.11,-204.05 82,-139.12 98.86,-123 106.24,-115.94 377.96,-90.89 511.83,-78.94"/>
<polygon fill="midnightblue" stroke="midnightblue" points="512.35,-82.4 522,-78.03 511.73,-75.43 512.35,-82.4"/>
</g>
<!-- Node34&#45;&gt;Node24 -->
<g id="edge74" class="edge">
<title>Node34&#45;&gt;Node24</title>
<path fill="none" stroke="midnightblue" d="M935.14,-324.37C941.97,-301.85 955.39,-257.53 963.7,-230.12"/>
<polygon fill="midnightblue" stroke="midnightblue" points="967.06,-231.11 966.61,-220.52 960.36,-229.08 967.06,-231.11"/>
</g>
<!-- Node34&#45;&gt;Node32 -->
<g id="edge65" class="edge">
<title>Node34&#45;&gt;Node32</title>
<path fill="none" stroke="midnightblue" d="M1010.01,-336.72C1157.44,-332.67 1468.46,-320.46 1570.86,-288 1626.52,-270.36 1647.41,-266.62 1683.86,-221 1715.2,-181.77 1726.32,-121.52 1730.07,-91.24"/>
<polygon fill="midnightblue" stroke="midnightblue" points="1733.56,-91.53 1731.17,-81.2 1726.6,-90.76 1733.56,-91.53"/>
</g>
<!-- Node34&#45;&gt;Node33 -->
<g id="edge75" class="edge">
<title>Node34&#45;&gt;Node33</title>
<path fill="none" stroke="midnightblue" d="M1009.95,-336.3C1136.53,-331.89 1378.46,-319.51 1457.86,-288 1491.37,-274.7 1523.09,-247.27 1542.72,-227.92"/>
<polygon fill="midnightblue" stroke="midnightblue" points="1545.33,-230.26 1549.88,-220.69 1540.36,-225.33 1545.33,-230.26"/>
</g>
<!-- Node35 -->
<g id="node35" class="node">
<title>Node35</title>
<g id="a_node35"><a xlink:href="iteration__proxy_8hpp.html" target="_top" xlink:title=" ">
<polygon fill="white" stroke="black" points="1308.86,-257.5 1308.86,-287.5 1448.86,-287.5 1448.86,-257.5 1308.86,-257.5"/>
<text text-anchor="start" x="1316.86" y="-275.5" font-family="Helvetica,sans-Serif" font-size="10.00">nlohmann/detail/iterators</text>
<text text-anchor="middle" x="1378.86" y="-264.5" font-family="Helvetica,sans-Serif" font-size="10.00">/iteration_proxy.hpp</text>
</a>
</g>
</g>
<!-- Node34&#45;&gt;Node35 -->
<g id="edge66" class="edge">
<title>Node34&#45;&gt;Node35</title>
<path fill="none" stroke="midnightblue" d="M1009.92,-327.03C1091.1,-315.25 1216.79,-297.01 1298.46,-285.17"/>
<polygon fill="midnightblue" stroke="midnightblue" points="1299.29,-288.58 1308.69,-283.68 1298.29,-281.65 1299.29,-288.58"/>
</g>
<!-- Node35&#45;&gt;Node8 -->
<g id="edge68" class="edge">
<title>Node35&#45;&gt;Node8</title>
<path fill="none" stroke="midnightblue" d="M1379.36,-257.34C1379.22,-239.52 1376.34,-208.97 1359.86,-190 1330.79,-156.54 1303.32,-179.2 1266.86,-154 1241.31,-136.34 1218.62,-107.99 1205.56,-89.81"/>
<polygon fill="midnightblue" stroke="midnightblue" points="1208.24,-87.54 1199.64,-81.35 1202.5,-91.55 1208.24,-87.54"/>
</g>
<!-- Node35&#45;&gt;Node10 -->
<g id="edge69" class="edge">
<title>Node35&#45;&gt;Node10</title>
<path fill="none" stroke="midnightblue" d="M1448.96,-265.51C1514.96,-258.51 1607.64,-244.75 1634.86,-221 1668.57,-191.59 1672.82,-165.16 1657.86,-123 1653.19,-109.83 1643.45,-97.59 1634.64,-88.46"/>
<polygon fill="midnightblue" stroke="midnightblue" points="1636.89,-85.77 1627.28,-81.29 1632,-90.78 1636.89,-85.77"/>
</g>
<!-- Node35&#45;&gt;Node11 -->
<g id="edge70" class="edge">
<title>Node35&#45;&gt;Node11</title>
<path fill="none" stroke="midnightblue" d="M1368.23,-257.4C1360.66,-247.36 1350.47,-233.84 1342.49,-223.25"/>
<polygon fill="midnightblue" stroke="midnightblue" points="1345.23,-221.07 1336.41,-215.19 1339.64,-225.29 1345.23,-221.07"/>
</g>
<!-- Node35&#45;&gt;Node19 -->
<g id="edge67" class="edge">
<title>Node35&#45;&gt;Node19</title>
<path fill="none" stroke="midnightblue" d="M1448.86,-268.43C1507.69,-263.66 1592.81,-251.58 1660.86,-221 1734.87,-187.74 1763.72,-165.34 1784.86,-87 1788.45,-73.7 1793.86,-66.43 1784.86,-56 1750.72,-16.44 1590.86,-11.07 1517.65,-10.73"/>
<polygon fill="midnightblue" stroke="midnightblue" points="1517.51,-7.23 1507.5,-10.72 1517.49,-14.23 1517.51,-7.23"/>
</g>
<!-- Node35&#45;&gt;Node24 -->
<g id="edge71" class="edge">
<title>Node35&#45;&gt;Node24</title>
<path fill="none" stroke="midnightblue" d="M1308.72,-260.33C1234.74,-248.54 1118.69,-230.05 1043.7,-218.1"/>
<polygon fill="midnightblue" stroke="midnightblue" points="1043.83,-214.58 1033.4,-216.46 1042.73,-221.49 1043.83,-214.58"/>
</g>
<!-- Node35&#45;&gt;Node33 -->
<g id="edge72" class="edge">
<title>Node35&#45;&gt;Node33</title>
<path fill="none" stroke="midnightblue" d="M1418.78,-257.4C1446.51,-247.6 1483.65,-234.48 1513.28,-224.02"/>
<polygon fill="midnightblue" stroke="midnightblue" points="1514.75,-227.21 1523.01,-220.58 1512.42,-220.61 1514.75,-227.21"/>
</g>
</g>
</svg>
        <g id="navigator" transform="translate(0 0)" fill="#404254">
                <rect fill="#f2f5e9" fill-opacity="0.5" stroke="#606060" stroke-width=".5" x="0" y="0" width="60" height="60"/>
                <use id="zoomplus" xlink:href="#zoomPlus" x="17" y="9" onmousedown="handleZoom(evt,'in')"/>
                <use id="zoomminus" xlink:href="#zoomMin" x="42" y="9" onmousedown="handleZoom(evt,'out')"/>
                <use id="reset" xlink:href="#resetDef" x="30" y="36" onmousedown="handleReset()"/>
                <g id="arrowUp" xlink:href="#dirArrow" transform="translate(30 24)" onmousedown="handlePan(0,-1)">
                  <use xlink:href="#rim" fill="#404040">
                        <set attributeName="fill" to="#808080" begin="arrowUp.mouseover" end="arrowUp.mouseout"/>
                  </use>
                  <path fill="none" stroke="white" stroke-width="1.5" d="M0,-3.0v7 M-2.5,-0.5L0,-3.0L2.5,-0.5"/>
                </g>
                <g id="arrowRight" xlink:href="#dirArrow" transform="rotate(90) translate(36 -43)" onmousedown="handlePan(1,0)">
                  <use xlink:href="#rim" fill="#404040">
                        <set attributeName="fill" to="#808080" begin="arrowRight.mouseover" end="arrowRight.mouseout"/>
                  </use>
                  <path fill="none" stroke="white" stroke-width="1.5" d="M0,-3.0v7 M-2.5,-0.5L0,-3.0L2.5,-0.5"/>
                </g>
                <g id="arrowDown" xlink:href="#dirArrow" transform="rotate(180) translate(-30 -48)" onmousedown="handlePan(0,1)">
                  <use xlink:href="#rim" fill="#404040">
                        <set attributeName="fill" to="#808080" begin="arrowDown.mouseover" end="arrowDown.mouseout"/>
                  </use>
                  <path fill="none" stroke="white" stroke-width="1.5" d="M0,-3.0v7 M-2.5,-0.5L0,-3.0L2.5,-0.5"/>
                </g>
                <g id="arrowLeft" xlink:href="#dirArrow" transform="rotate(270) translate(-36 17)" onmousedown="handlePan(-1,0)">
                  <use xlink:href="#rim" fill="#404040">
                        <set attributeName="fill" to="#808080" begin="arrowLeft.mouseover" end="arrowLeft.mouseout"/>
                  </use>
                  <path fill="none" stroke="white" stroke-width="1.5" d="M0,-3.0v7 M-2.5,-0.5L0,-3.0L2.5,-0.5"/>
                </g>
        </g>
        <svg viewBox="0 0 15 15" width="100%" height="30px" preserveAspectRatio="xMaxYMin meet">
         <g id="arrow_out" transform="scale(0.3 0.3)">
          <a xlink:href="adl__serializer_8hpp__incl_org.svg" target="_base">
           <rect id="button" ry="5" rx="5" y="6" x="6" height="38" width="38"
                fill="#f2f5e9" fill-opacity="0.5" stroke="#606060" stroke-width="1.0"/>
           <path id="arrow"
             d="M 11.500037,31.436501 C 11.940474,20.09759 22.043105,11.32322 32.158766,21.979434 L 37.068811,17.246167 C 37.068811,17.246167 37.088388,32 37.088388,32 L 22.160133,31.978069 C 22.160133,31.978069 26.997745,27.140456 26.997745,27.140456 C 18.528582,18.264221 13.291696,25.230495 11.500037,31.436501 z"
             style="fill:#404040;"/>
          </a>
         </g>
        </svg>
</svg>
