<?xml version="1.0" encoding="UTF-8" standalone="no"?>
<!DOCTYPE svg PUBLIC "-//W3C//DTD SVG 1.1//EN"
 "http://www.w3.org/Graphics/SVG/1.1/DTD/svg11.dtd">
<!-- Generated by graphviz version 2.43.0 (0)
 -->
<!-- Title: maybe_initialize_extra_stats Pages: 1 -->
<svg width="605pt" height="104pt"
 viewBox="0.00 0.00 605.00 104.00" xmlns="http://www.w3.org/2000/svg" xmlns:xlink="http://www.w3.org/1999/xlink">
<g id="graph0" class="graph" transform="scale(1 1) rotate(0) translate(4 100)">
<title>maybe_initialize_extra_stats</title>
<polygon fill="white" stroke="transparent" points="-4,4 -4,-100 601,-100 601,4 -4,4"/>
<!-- Node1 -->
<g id="node1" class="node">
<title>Node1</title>
<g id="a_node1"><a xlink:title=" ">
<polygon fill="#bfbfbf" stroke="black" points="0,-33 0,-63 128,-63 128,-33 0,-33"/>
<text text-anchor="start" x="8" y="-51" font-family="Helvetica,sans-Serif" font-size="10.00">maybe_initialize_extra</text>
<text text-anchor="middle" x="64" y="-40" font-family="Helvetica,sans-Serif" font-size="10.00">_stats</text>
</a>
</g>
</g>
<!-- Node2 -->
<g id="node2" class="node">
<title>Node2</title>
<g id="a_node2"><a xlink:href="afl__driver_8cpp.html#a8f2b3e866b04241a9534c9dae5a36b39" target="_top" xlink:title=" ">
<polygon fill="white" stroke="black" points="164,-76.5 164,-95.5 249,-95.5 249,-76.5 164,-76.5"/>
<text text-anchor="middle" x="206.5" y="-83.5" font-family="Helvetica,sans-Serif" font-size="10.00">crash_handler</text>
</a>
</g>
</g>
<!-- Node1&#45;&gt;Node2 -->
<g id="edge1" class="edge">
<title>Node1&#45;&gt;Node2</title>
<path fill="none" stroke="midnightblue" d="M120.53,-63.02C133.72,-66.59 147.64,-70.35 160.31,-73.78"/>
<polygon fill="midnightblue" stroke="midnightblue" points="159.6,-77.21 170.16,-76.44 161.43,-70.45 159.6,-77.21"/>
</g>
<!-- Node3 -->
<g id="node3" class="node">
<title>Node3</title>
<g id="a_node3"><a xlink:href="afl__driver_8cpp.html#a18920b5c2b3c0475c58d446c05d72f0b" target="_top" xlink:title=" ">
<polygon fill="white" stroke="black" points="285,-57.5 285,-76.5 386,-76.5 386,-57.5 285,-57.5"/>
<text text-anchor="middle" x="335.5" y="-64.5" font-family="Helvetica,sans-Serif" font-size="10.00">write_extra_stats</text>
</a>
</g>
</g>
<!-- Node1&#45;&gt;Node3 -->
<g id="edge6" class="edge">
<title>Node1&#45;&gt;Node3</title>
<path fill="none" stroke="midnightblue" d="M128.19,-52.45C172.4,-55.57 231.1,-59.71 274.58,-62.78"/>
<polygon fill="midnightblue" stroke="midnightblue" points="274.51,-66.28 284.73,-63.49 275,-59.3 274.51,-66.28"/>
</g>
<!-- Node6 -->
<g id="node6" class="node">
<title>Node6</title>
<g id="a_node6"><a xlink:href="afl__driver_8cpp.html#a3fbb8512a2144f9a67c7f706d3283d7f" target="_top" xlink:title=" ">
<polygon fill="white" stroke="black" points="168,-0.5 168,-19.5 245,-19.5 245,-0.5 168,-0.5"/>
<text text-anchor="middle" x="206.5" y="-7.5" font-family="Helvetica,sans-Serif" font-size="10.00">SetSigaction</text>
</a>
</g>
</g>
<!-- Node1&#45;&gt;Node6 -->
<g id="edge5" class="edge">
<title>Node1&#45;&gt;Node6</title>
<path fill="none" stroke="midnightblue" d="M120.53,-32.98C133.72,-29.41 147.64,-25.65 160.31,-22.22"/>
<polygon fill="midnightblue" stroke="midnightblue" points="161.43,-25.55 170.16,-19.56 159.6,-18.79 161.43,-25.55"/>
</g>
<!-- Node2&#45;&gt;Node3 -->
<g id="edge2" class="edge">
<title>Node2&#45;&gt;Node3</title>
<path fill="none" stroke="midnightblue" d="M249.08,-79.78C257.3,-78.55 266.07,-77.24 274.75,-75.94"/>
<polygon fill="midnightblue" stroke="midnightblue" points="275.49,-79.37 284.86,-74.43 274.45,-72.44 275.49,-79.37"/>
</g>
<!-- Node4 -->
<g id="node4" class="node">
<title>Node4</title>
<g id="a_node4"><a xlink:href="afl__driver_8cpp.html#a6b1c9549462c500839ac0bc8c5bf1c58" target="_top" xlink:title=" ">
<polygon fill="white" stroke="black" points="422,-57.5 422,-76.5 514,-76.5 514,-57.5 422,-57.5"/>
<text text-anchor="middle" x="468" y="-64.5" font-family="Helvetica,sans-Serif" font-size="10.00">GetPeakRSSMb</text>
</a>
</g>
</g>
<!-- Node3&#45;&gt;Node4 -->
<g id="edge3" class="edge">
<title>Node3&#45;&gt;Node4</title>
<path fill="none" stroke="midnightblue" d="M386.21,-67C394.5,-67 403.16,-67 411.58,-67"/>
<polygon fill="midnightblue" stroke="midnightblue" points="411.71,-70.5 421.71,-67 411.71,-63.5 411.71,-70.5"/>
</g>
<!-- Node5 -->
<g id="node5" class="node">
<title>Node5</title>
<g id="a_node5"><a xlink:href="FuzzerTracePC_8cpp.html#a1f10ac78bd11294b612636121065eb5b" target="_top" xlink:title=" ">
<polygon fill="white" stroke="black" points="550,-57.5 550,-76.5 597,-76.5 597,-57.5 550,-57.5"/>
<text text-anchor="middle" x="573.5" y="-64.5" font-family="Helvetica,sans-Serif" font-size="10.00">assert</text>
</a>
</g>
</g>
<!-- Node4&#45;&gt;Node5 -->
<g id="edge4" class="edge">
<title>Node4&#45;&gt;Node5</title>
<path fill="none" stroke="midnightblue" d="M514.1,-67C522.73,-67 531.62,-67 539.77,-67"/>
<polygon fill="midnightblue" stroke="midnightblue" points="539.99,-70.5 549.99,-67 539.99,-63.5 539.99,-70.5"/>
</g>
</g>
</svg>
