<?xml version="1.0" encoding="UTF-8" standalone="no"?>
<!DOCTYPE svg PUBLIC "-//W3C//DTD SVG 1.1//EN"
 "http://www.w3.org/Graphics/SVG/1.1/DTD/svg11.dtd">
<!-- Generated by graphviz version 2.43.0 (0)
 -->
<!-- Title: write_extra_stats Pages: 1 -->
<svg width="471pt" height="53pt"
 viewBox="0.00 0.00 471.00 52.50" xmlns="http://www.w3.org/2000/svg" xmlns:xlink="http://www.w3.org/1999/xlink">
<g id="graph0" class="graph" transform="scale(1 1) rotate(0) translate(4 48.5)">
<title>write_extra_stats</title>
<polygon fill="white" stroke="transparent" points="-4,4 -4,-48.5 467,-48.5 467,4 -4,4"/>
<!-- Node1 -->
<g id="node1" class="node">
<title>Node1</title>
<g id="a_node1"><a xlink:title=" ">
<polygon fill="#bfbfbf" stroke="black" points="362,-6 362,-25 463,-25 463,-6 362,-6"/>
<text text-anchor="middle" x="412.5" y="-13" font-family="Helvetica,sans-Serif" font-size="10.00">write_extra_stats</text>
</a>
</g>
</g>
<!-- Node2 -->
<g id="node2" class="node">
<title>Node2</title>
<g id="a_node2"><a xlink:href="afl__driver_8cpp.html#a8f2b3e866b04241a9534c9dae5a36b39" target="_top" xlink:title=" ">
<polygon fill="white" stroke="black" points="241,-25 241,-44 326,-44 326,-25 241,-25"/>
<text text-anchor="middle" x="283.5" y="-32" font-family="Helvetica,sans-Serif" font-size="10.00">crash_handler</text>
</a>
</g>
</g>
<!-- Node1&#45;&gt;Node2 -->
<g id="edge1" class="edge">
<title>Node1&#45;&gt;Node2</title>
<path fill="none" stroke="midnightblue" d="M351.7,-24.45C343.15,-25.73 334.5,-27.02 326.39,-28.23"/>
<polygon fill="midnightblue" stroke="midnightblue" points="352.3,-27.9 361.67,-22.95 351.26,-20.97 352.3,-27.9"/>
</g>
<!-- Node3 -->
<g id="node3" class="node">
<title>Node3</title>
<g id="a_node3"><a xlink:href="afl__driver_8cpp.html#a3b3641b825bee786b7d6bdd6142f934d" target="_top" xlink:title=" ">
<polygon fill="white" stroke="black" points="77,-0.5 77,-30.5 205,-30.5 205,-0.5 77,-0.5"/>
<text text-anchor="start" x="85" y="-18.5" font-family="Helvetica,sans-Serif" font-size="10.00">maybe_initialize_extra</text>
<text text-anchor="middle" x="141" y="-7.5" font-family="Helvetica,sans-Serif" font-size="10.00">_stats</text>
</a>
</g>
</g>
<!-- Node1&#45;&gt;Node3 -->
<g id="edge4" class="edge">
<title>Node1&#45;&gt;Node3</title>
<path fill="none" stroke="midnightblue" d="M351.61,-15.5C308.15,-15.5 249.46,-15.5 205.24,-15.5"/>
<polygon fill="midnightblue" stroke="midnightblue" points="351.76,-19 361.76,-15.5 351.76,-12 351.76,-19"/>
</g>
<!-- Node2&#45;&gt;Node3 -->
<g id="edge2" class="edge">
<title>Node2&#45;&gt;Node3</title>
<path fill="none" stroke="midnightblue" d="M230.79,-27.51C222.47,-26.38 213.77,-25.2 205.21,-24.05"/>
<polygon fill="midnightblue" stroke="midnightblue" points="230.35,-30.98 240.73,-28.85 231.29,-24.04 230.35,-30.98"/>
</g>
<!-- Node4 -->
<g id="node4" class="node">
<title>Node4</title>
<g id="a_node4"><a xlink:href="afl__driver_8cpp.html#a3c04138a5bfe5d72780bb7e82a18e627" target="_top" xlink:title=" ">
<polygon fill="white" stroke="black" points="0,-6 0,-25 41,-25 41,-6 0,-6"/>
<text text-anchor="middle" x="20.5" y="-13" font-family="Helvetica,sans-Serif" font-size="10.00">main</text>
</a>
</g>
</g>
<!-- Node3&#45;&gt;Node4 -->
<g id="edge3" class="edge">
<title>Node3&#45;&gt;Node4</title>
<path fill="none" stroke="midnightblue" d="M66.64,-15.5C57.29,-15.5 48.43,-15.5 41.09,-15.5"/>
<polygon fill="midnightblue" stroke="midnightblue" points="66.93,-19 76.93,-15.5 66.93,-12 66.93,-19"/>
</g>
</g>
</svg>
