<?xml version="1.0" encoding="UTF-8" standalone="no"?>
<!DOCTYPE svg PUBLIC "-//W3C//DTD SVG 1.1//EN"
 "http://www.w3.org/Graphics/SVG/1.1/DTD/svg11.dtd">
<!-- Generated by graphviz version 2.43.0 (0)
 -->
<!-- Title: main Pages: 1 -->
<svg width="420pt" height="176pt"
 viewBox="0.00 0.00 420.00 176.00" xmlns="http://www.w3.org/2000/svg" xmlns:xlink="http://www.w3.org/1999/xlink">
<g id="graph0" class="graph" transform="scale(1 1) rotate(0) translate(4 172)">
<title>main</title>
<polygon fill="white" stroke="transparent" points="-4,4 -4,-172 416,-172 416,4 -4,4"/>
<!-- Node1 -->
<g id="node1" class="node">
<title>Node1</title>
<g id="a_node1"><a xlink:title=" ">
<polygon fill="#bfbfbf" stroke="black" points="0,-77 0,-96 41,-96 41,-77 0,-77"/>
<text text-anchor="middle" x="20.5" y="-84" font-family="Helvetica,sans-Serif" font-size="10.00">main</text>
</a>
</g>
</g>
<!-- Node2 -->
<g id="node2" class="node">
<title>Node2</title>
<g id="a_node2"><a xlink:href="classnlohmann_1_1basic__json.html#a0ff28dac23f2bdecee9564d07f51dcdc" target="_top" xlink:title="returns an iterator to the first element">
<polygon fill="white" stroke="black" points="92.5,-137.5 92.5,-167.5 214.5,-167.5 214.5,-137.5 92.5,-137.5"/>
<text text-anchor="start" x="100.5" y="-155.5" font-family="Helvetica,sans-Serif" font-size="10.00">nlohmann::basic_json</text>
<text text-anchor="middle" x="153.5" y="-144.5" font-family="Helvetica,sans-Serif" font-size="10.00">::begin</text>
</a>
</g>
</g>
<!-- Node1&#45;&gt;Node2 -->
<g id="edge1" class="edge">
<title>Node1&#45;&gt;Node2</title>
<path fill="none" stroke="midnightblue" d="M34.74,-96.15C45.71,-103.89 61.9,-114.7 77,-122.5 84.57,-126.41 92.76,-130.14 100.87,-133.57"/>
<polygon fill="midnightblue" stroke="midnightblue" points="99.73,-136.88 110.31,-137.43 102.38,-130.4 99.73,-136.88"/>
</g>
<!-- Node3 -->
<g id="node3" class="node">
<title>Node3</title>
<g id="a_node3"><a xlink:href="classnlohmann_1_1basic__json.html#a13e032a02a7fd8a93fdddc2fcbc4763c" target="_top" xlink:title="returns an iterator to one past the last element">
<polygon fill="white" stroke="black" points="266,-99 266,-118 412,-118 412,-99 266,-99"/>
<text text-anchor="middle" x="339" y="-106" font-family="Helvetica,sans-Serif" font-size="10.00">nlohmann::basic_json::end</text>
</a>
</g>
</g>
<!-- Node1&#45;&gt;Node3 -->
<g id="edge2" class="edge">
<title>Node1&#45;&gt;Node3</title>
<path fill="none" stroke="midnightblue" d="M41.3,-87.88C83.31,-90.8 183.43,-97.76 255.76,-102.78"/>
<polygon fill="midnightblue" stroke="midnightblue" points="255.56,-106.28 265.78,-103.48 256.04,-99.29 255.56,-106.28"/>
</g>
<!-- Node4 -->
<g id="node4" class="node">
<title>Node4</title>
<g id="a_node4"><a xlink:href="classnlohmann_1_1basic__json.html#a89eb3928f57903677051c80534be9cb1" target="_top" xlink:title="find an element in a JSON object">
<polygon fill="white" stroke="black" points="92.5,-49.5 92.5,-79.5 214.5,-79.5 214.5,-49.5 92.5,-49.5"/>
<text text-anchor="start" x="100.5" y="-67.5" font-family="Helvetica,sans-Serif" font-size="10.00">nlohmann::basic_json</text>
<text text-anchor="middle" x="153.5" y="-56.5" font-family="Helvetica,sans-Serif" font-size="10.00">::find</text>
</a>
</g>
</g>
<!-- Node1&#45;&gt;Node4 -->
<g id="edge3" class="edge">
<title>Node1&#45;&gt;Node4</title>
<path fill="none" stroke="midnightblue" d="M41.11,-83.21C52.35,-81.32 67.22,-78.82 82.42,-76.27"/>
<polygon fill="midnightblue" stroke="midnightblue" points="83.13,-79.7 92.42,-74.59 81.97,-72.8 83.13,-79.7"/>
</g>
<!-- Node6 -->
<g id="node6" class="node">
<title>Node6</title>
<g id="a_node6"><a xlink:href="classnlohmann_1_1detail_1_1exception.html#a11fe48748e811531614c84883b00ccd5" target="_top" xlink:title="returns the explanatory string">
<polygon fill="white" stroke="black" points="77,-0.5 77,-30.5 230,-30.5 230,-0.5 77,-0.5"/>
<text text-anchor="start" x="85" y="-18.5" font-family="Helvetica,sans-Serif" font-size="10.00">nlohmann::detail::exception</text>
<text text-anchor="middle" x="153.5" y="-7.5" font-family="Helvetica,sans-Serif" font-size="10.00">::what</text>
</a>
</g>
</g>
<!-- Node1&#45;&gt;Node6 -->
<g id="edge6" class="edge">
<title>Node1&#45;&gt;Node6</title>
<path fill="none" stroke="midnightblue" d="M30.45,-76.92C40.77,-66.39 58.66,-49.64 77,-39.5 80.2,-37.73 83.54,-36.07 86.97,-34.52"/>
<polygon fill="midnightblue" stroke="midnightblue" points="88.34,-37.74 96.21,-30.65 85.63,-31.29 88.34,-37.74"/>
</g>
<!-- Node4&#45;&gt;Node3 -->
<g id="edge4" class="edge">
<title>Node4&#45;&gt;Node3</title>
<path fill="none" stroke="midnightblue" d="M214.58,-78.91C238.53,-84.65 265.76,-91.18 288.53,-96.64"/>
<polygon fill="midnightblue" stroke="midnightblue" points="287.79,-100.06 298.33,-98.99 289.42,-93.25 287.79,-100.06"/>
</g>
<!-- Node5 -->
<g id="node5" class="node">
<title>Node5</title>
<g id="a_node5"><a xlink:href="classnlohmann_1_1basic__json.html#af8f511af124e82e4579f444b4175787c" target="_top" xlink:title="return whether value is an object">
<polygon fill="white" stroke="black" points="278,-49.5 278,-79.5 400,-79.5 400,-49.5 278,-49.5"/>
<text text-anchor="start" x="286" y="-67.5" font-family="Helvetica,sans-Serif" font-size="10.00">nlohmann::basic_json</text>
<text text-anchor="middle" x="339" y="-56.5" font-family="Helvetica,sans-Serif" font-size="10.00">::is_object</text>
</a>
</g>
</g>
<!-- Node4&#45;&gt;Node5 -->
<g id="edge5" class="edge">
<title>Node4&#45;&gt;Node5</title>
<path fill="none" stroke="midnightblue" d="M214.58,-64.5C231.54,-64.5 250.13,-64.5 267.63,-64.5"/>
<polygon fill="midnightblue" stroke="midnightblue" points="267.78,-68 277.78,-64.5 267.78,-61 267.78,-68"/>
</g>
</g>
</svg>
