<?xml version="1.0" encoding="UTF-8" standalone="no"?>
<!DOCTYPE svg PUBLIC "-//W3C//DTD SVG 1.1//EN"
 "http://www.w3.org/Graphics/SVG/1.1/DTD/svg11.dtd">
<!-- Generated by graphviz version 2.43.0 (0)
 -->
<!-- Title: main Pages: 1 -->
<svg width="692pt" height="258pt"
 viewBox="0.00 0.00 692.00 258.00" xmlns="http://www.w3.org/2000/svg" xmlns:xlink="http://www.w3.org/1999/xlink">
<g id="graph0" class="graph" transform="scale(1 1) rotate(0) translate(4 254)">
<title>main</title>
<polygon fill="white" stroke="transparent" points="-4,4 -4,-254 688,-254 688,4 -4,4"/>
<!-- Node1 -->
<g id="node1" class="node">
<title>Node1</title>
<g id="a_node1"><a xlink:title=" ">
<polygon fill="#bfbfbf" stroke="black" points="0,-94 0,-113 41,-113 41,-94 0,-94"/>
<text text-anchor="middle" x="20.5" y="-101" font-family="Helvetica,sans-Serif" font-size="10.00">main</text>
</a>
</g>
</g>
<!-- Node2 -->
<g id="node2" class="node">
<title>Node2</title>
<g id="a_node2"><a xlink:href="classnlohmann_1_1basic__json.html#adcf8ca5079f5db993820bf50036bf45d" target="_top" xlink:title="access specified object element with default value">
<polygon fill="white" stroke="black" points="77,-88.5 77,-118.5 199,-118.5 199,-88.5 77,-88.5"/>
<text text-anchor="start" x="85" y="-106.5" font-family="Helvetica,sans-Serif" font-size="10.00">nlohmann::basic_json</text>
<text text-anchor="middle" x="138" y="-95.5" font-family="Helvetica,sans-Serif" font-size="10.00">::value</text>
</a>
</g>
</g>
<!-- Node1&#45;&gt;Node2 -->
<g id="edge1" class="edge">
<title>Node1&#45;&gt;Node2</title>
<path fill="none" stroke="midnightblue" d="M41.09,-103.5C48.47,-103.5 57.34,-103.5 66.68,-103.5"/>
<polygon fill="midnightblue" stroke="midnightblue" points="66.94,-107 76.94,-103.5 66.94,-100 66.94,-107"/>
</g>
<!-- Node3 -->
<g id="node3" class="node">
<title>Node3</title>
<g id="a_node3"><a xlink:href="classnlohmann_1_1detail_1_1type__error.html#aecc083aea4b698c33d042670ba50c10f" target="_top" xlink:title=" ">
<polygon fill="white" stroke="black" points="235,-176.5 235,-206.5 362,-206.5 362,-176.5 235,-176.5"/>
<text text-anchor="start" x="243" y="-194.5" font-family="Helvetica,sans-Serif" font-size="10.00">nlohmann::detail::type</text>
<text text-anchor="middle" x="298.5" y="-183.5" font-family="Helvetica,sans-Serif" font-size="10.00">_error::create</text>
</a>
</g>
</g>
<!-- Node2&#45;&gt;Node3 -->
<g id="edge2" class="edge">
<title>Node2&#45;&gt;Node3</title>
<path fill="none" stroke="midnightblue" d="M162.7,-118.69C181.9,-130.79 209.82,-147.89 235,-161.5 241.48,-165 248.43,-168.54 255.26,-171.91"/>
<polygon fill="midnightblue" stroke="midnightblue" points="253.92,-175.14 264.44,-176.36 256.97,-168.85 253.92,-175.14"/>
</g>
<!-- Node7 -->
<g id="node7" class="node">
<title>Node7</title>
<g id="a_node7"><a xlink:href="classnlohmann_1_1basic__json.html#a13e032a02a7fd8a93fdddc2fcbc4763c" target="_top" xlink:title="returns an iterator to one past the last element">
<polygon fill="white" stroke="black" points="401.5,-127 401.5,-146 547.5,-146 547.5,-127 401.5,-127"/>
<text text-anchor="middle" x="474.5" y="-134" font-family="Helvetica,sans-Serif" font-size="10.00">nlohmann::basic_json::end</text>
</a>
</g>
</g>
<!-- Node2&#45;&gt;Node7 -->
<g id="edge6" class="edge">
<title>Node2&#45;&gt;Node7</title>
<path fill="none" stroke="midnightblue" d="M190.93,-118.57C205.1,-122.11 220.54,-125.44 235,-127.5 286.58,-134.84 345.03,-137.14 391.16,-137.58"/>
<polygon fill="midnightblue" stroke="midnightblue" points="391.38,-141.08 401.4,-137.65 391.43,-134.08 391.38,-141.08"/>
</g>
<!-- Node8 -->
<g id="node8" class="node">
<title>Node8</title>
<g id="a_node8"><a xlink:href="classnlohmann_1_1basic__json.html#a89eb3928f57903677051c80534be9cb1" target="_top" xlink:title="find an element in a JSON object">
<polygon fill="white" stroke="black" points="237.5,-88.5 237.5,-118.5 359.5,-118.5 359.5,-88.5 237.5,-88.5"/>
<text text-anchor="start" x="245.5" y="-106.5" font-family="Helvetica,sans-Serif" font-size="10.00">nlohmann::basic_json</text>
<text text-anchor="middle" x="298.5" y="-95.5" font-family="Helvetica,sans-Serif" font-size="10.00">::find</text>
</a>
</g>
</g>
<!-- Node2&#45;&gt;Node8 -->
<g id="edge7" class="edge">
<title>Node2&#45;&gt;Node8</title>
<path fill="none" stroke="midnightblue" d="M199.37,-103.5C208.5,-103.5 217.97,-103.5 227.28,-103.5"/>
<polygon fill="midnightblue" stroke="midnightblue" points="227.29,-107 237.29,-103.5 227.29,-100 227.29,-107"/>
</g>
<!-- Node9 -->
<g id="node9" class="node">
<title>Node9</title>
<g id="a_node9"><a xlink:href="classnlohmann_1_1basic__json.html#af8f511af124e82e4579f444b4175787c" target="_top" xlink:title="return whether value is an object">
<polygon fill="white" stroke="black" points="413.5,-66.5 413.5,-96.5 535.5,-96.5 535.5,-66.5 413.5,-66.5"/>
<text text-anchor="start" x="421.5" y="-84.5" font-family="Helvetica,sans-Serif" font-size="10.00">nlohmann::basic_json</text>
<text text-anchor="middle" x="474.5" y="-73.5" font-family="Helvetica,sans-Serif" font-size="10.00">::is_object</text>
</a>
</g>
</g>
<!-- Node2&#45;&gt;Node9 -->
<g id="edge10" class="edge">
<title>Node2&#45;&gt;Node9</title>
<path fill="none" stroke="midnightblue" d="M186.87,-88.48C202.1,-84.39 219.11,-80.53 235,-78.5 291.25,-71.3 355.57,-72.66 403.23,-75.48"/>
<polygon fill="midnightblue" stroke="midnightblue" points="403.24,-78.99 413.44,-76.13 403.68,-72 403.24,-78.99"/>
</g>
<!-- Node10 -->
<g id="node10" class="node">
<title>Node10</title>
<g id="a_node10"><a xlink:href="classnlohmann_1_1basic__json.html#ad14563c53cf7ca9189bc164082367bf3" target="_top" xlink:title="return the type as string">
<polygon fill="white" stroke="black" points="237.5,-0.5 237.5,-30.5 359.5,-30.5 359.5,-0.5 237.5,-0.5"/>
<text text-anchor="start" x="245.5" y="-18.5" font-family="Helvetica,sans-Serif" font-size="10.00">nlohmann::basic_json</text>
<text text-anchor="middle" x="298.5" y="-7.5" font-family="Helvetica,sans-Serif" font-size="10.00">::type_name</text>
</a>
</g>
</g>
<!-- Node2&#45;&gt;Node10 -->
<g id="edge11" class="edge">
<title>Node2&#45;&gt;Node10</title>
<path fill="none" stroke="midnightblue" d="M162.7,-88.31C181.9,-76.21 209.82,-59.11 235,-45.5 241.48,-42 248.43,-38.46 255.26,-35.09"/>
<polygon fill="midnightblue" stroke="midnightblue" points="256.97,-38.15 264.44,-30.64 253.92,-31.86 256.97,-38.15"/>
</g>
<!-- Node4 -->
<g id="node4" class="node">
<title>Node4</title>
<g id="a_node4"><a xlink:href="classnlohmann_1_1detail_1_1exception.html#abf41a7e9178356314082284e6cfea278" target="_top" xlink:title=" ">
<polygon fill="white" stroke="black" points="398,-219.5 398,-249.5 551,-249.5 551,-219.5 398,-219.5"/>
<text text-anchor="start" x="406" y="-237.5" font-family="Helvetica,sans-Serif" font-size="10.00">nlohmann::detail::exception</text>
<text text-anchor="middle" x="474.5" y="-226.5" font-family="Helvetica,sans-Serif" font-size="10.00">::name</text>
</a>
</g>
</g>
<!-- Node3&#45;&gt;Node4 -->
<g id="edge3" class="edge">
<title>Node3&#45;&gt;Node4</title>
<path fill="none" stroke="midnightblue" d="M360.36,-206.54C374,-209.91 388.59,-213.52 402.6,-216.98"/>
<polygon fill="midnightblue" stroke="midnightblue" points="402.13,-220.47 412.68,-219.47 403.81,-213.67 402.13,-220.47"/>
</g>
<!-- Node6 -->
<g id="node6" class="node">
<title>Node6</title>
<g id="a_node6"><a xlink:href="classnlohmann_1_1detail_1_1type__error.html#aa01edaa0bf18b853368f0b900e485cd7" target="_top" xlink:title=" ">
<polygon fill="white" stroke="black" points="411,-170.5 411,-200.5 538,-200.5 538,-170.5 411,-170.5"/>
<text text-anchor="start" x="419" y="-188.5" font-family="Helvetica,sans-Serif" font-size="10.00">nlohmann::detail::type</text>
<text text-anchor="middle" x="474.5" y="-177.5" font-family="Helvetica,sans-Serif" font-size="10.00">_error::type_error</text>
</a>
</g>
</g>
<!-- Node3&#45;&gt;Node6 -->
<g id="edge5" class="edge">
<title>Node3&#45;&gt;Node6</title>
<path fill="none" stroke="midnightblue" d="M362.32,-189.33C374.76,-188.9 387.92,-188.45 400.67,-188.01"/>
<polygon fill="midnightblue" stroke="midnightblue" points="400.9,-191.51 410.77,-187.66 400.66,-184.51 400.9,-191.51"/>
</g>
<!-- Node5 -->
<g id="node5" class="node">
<title>Node5</title>
<g id="a_node5"><a xlink:href="namespacehttplib.html#a498c3a79825ecbcb15c52ec5fcfd5c11" target="_top" xlink:title=" ">
<polygon fill="white" stroke="black" points="587,-225 587,-244 684,-244 684,-225 587,-225"/>
<text text-anchor="middle" x="635.5" y="-232" font-family="Helvetica,sans-Serif" font-size="10.00">httplib::to_string</text>
</a>
</g>
</g>
<!-- Node4&#45;&gt;Node5 -->
<g id="edge4" class="edge">
<title>Node4&#45;&gt;Node5</title>
<path fill="none" stroke="midnightblue" d="M551.27,-234.5C559.82,-234.5 568.43,-234.5 576.7,-234.5"/>
<polygon fill="midnightblue" stroke="midnightblue" points="576.96,-238 586.96,-234.5 576.96,-231 576.96,-238"/>
</g>
<!-- Node8&#45;&gt;Node7 -->
<g id="edge8" class="edge">
<title>Node8&#45;&gt;Node7</title>
<path fill="none" stroke="midnightblue" d="M359.87,-114.95C377.18,-118.23 396.05,-121.81 413.35,-125.09"/>
<polygon fill="midnightblue" stroke="midnightblue" points="412.85,-128.56 423.33,-126.99 414.16,-121.68 412.85,-128.56"/>
</g>
<!-- Node8&#45;&gt;Node9 -->
<g id="edge9" class="edge">
<title>Node8&#45;&gt;Node9</title>
<path fill="none" stroke="midnightblue" d="M359.87,-95.87C373.77,-94.11 388.67,-92.23 402.96,-90.42"/>
<polygon fill="midnightblue" stroke="midnightblue" points="403.76,-93.85 413.24,-89.12 402.88,-86.9 403.76,-93.85"/>
</g>
</g>
</svg>
