<?xml version="1.0" encoding="UTF-8" standalone="no"?>
<!DOCTYPE svg PUBLIC "-//W3C//DTD SVG 1.1//EN"
 "http://www.w3.org/Graphics/SVG/1.1/DTD/svg11.dtd">
<!-- Generated by graphviz version 2.43.0 (0)
 -->
<!-- Title: ParseFile Pages: 1 -->
<!--zoomable 259 -->
<svg id="main" version="1.1" xmlns="http://www.w3.org/2000/svg" xmlns:xlink="http://www.w3.org/1999/xlink" xml:space="preserve" onload="init(evt)">
<style type="text/css"><![CDATA[
.edge:hover path { stroke: red; }
.edge:hover polygon { stroke: red; fill: red; }
]]></style>
<script type="text/javascript"><![CDATA[
var edges = document.getElementsByTagName('g');
if (edges && edges.length) {
  for (var i=0;i<edges.length;i++) {
    if (edges[i].id.substr(0,4)=='edge') {
      edges[i].setAttribute('class','edge');
    }
  }
}
]]></script>
        <defs>
                <circle id="rim" cx="0" cy="0" r="7"/>
                <circle id="rim2" cx="0" cy="0" r="3.5"/>
                <g id="zoomPlus">
                        <use xlink:href="#rim" fill="#404040">
                                <set attributeName="fill" to="#808080" begin="zoomplus.mouseover" end="zoomplus.mouseout"/>
                        </use>
                        <path d="M-4,0h8M0,-4v8" fill="none" stroke="white" stroke-width="1.5" pointer-events="none"/>
                </g>
                <g id="zoomMin">
                        <use xlink:href="#rim" fill="#404040">
                                <set attributeName="fill" to="#808080" begin="zoomminus.mouseover" end="zoomminus.mouseout"/>
                        </use>
                        <path d="M-4,0h8" fill="none" stroke="white" stroke-width="1.5" pointer-events="none"/>
                </g>
                <g id="dirArrow">
                        <path fill="none" stroke="white" stroke-width="1.5" d="M0,-3.0v7 M-2.5,-0.5L0,-3.0L2.5,-0.5"/>
                </g>
               <g id="resetDef">
                       <use xlink:href="#rim2" fill="#404040">
                               <set attributeName="fill" to="#808080" begin="reset.mouseover" end="reset.mouseout"/>
                       </use>
               </g>
        </defs>

<script type="text/javascript">
var viewWidth = 678;
var viewHeight = 259;
var sectionId = 'dynsection-2';
</script>
<script xlink:href="svgpan.js"/>
<svg id="graph" class="graph">
<g id="viewport">
<title>ParseFile</title>
<polygon fill="white" stroke="transparent" points="-4,4 -4,-254.5 674,-254.5 674,4 -4,4"/>
<!-- Node1 -->
<g id="node1" class="node">
<title>Node1</title>
<g id="a_node1"><a xlink:title=" ">
<polygon fill="#bfbfbf" stroke="black" points="0,-121 0,-140 60,-140 60,-121 0,-121"/>
<text text-anchor="middle" x="30" y="-128" font-family="Helvetica,sans-Serif" font-size="10.00">ParseFile</text>
</a>
</g>
</g>
<!-- Node2 -->
<g id="node2" class="node">
<title>Node2</title>
<g id="a_node2"><a xlink:href="classbenchmark_1_1State.html#a625bbb5a07f1a68772ab8ad69797c5e4" target="_top" xlink:title=" ">
<polygon fill="white" stroke="black" points="105,-225 105,-244 260,-244 260,-225 105,-225"/>
<text text-anchor="middle" x="182.5" y="-232" font-family="Helvetica,sans-Serif" font-size="10.00">benchmark::State::iterations</text>
</a>
</g>
</g>
<!-- Node1&#45;&gt;Node2 -->
<g id="edge1" class="edge">
<title>Node1&#45;&gt;Node2</title>
<path fill="none" stroke="midnightblue" d="M35.52,-140.18C44.41,-158.09 65.94,-196.3 96,-215.5 99.2,-217.54 102.59,-219.37 106.1,-221"/>
<polygon fill="midnightblue" stroke="midnightblue" points="105.05,-224.35 115.63,-224.88 107.69,-217.87 105.05,-224.35"/>
</g>
<!-- Node3 -->
<g id="node3" class="node">
<title>Node3</title>
<g id="a_node3"><a xlink:href="classbenchmark_1_1State.html#a2188056d2b8b203d0de4166f7eca2648" target="_top" xlink:title=" ">
<polygon fill="white" stroke="black" points="96,-187 96,-206 269,-206 269,-187 96,-187"/>
<text text-anchor="middle" x="182.5" y="-194" font-family="Helvetica,sans-Serif" font-size="10.00">benchmark::State::KeepRunning</text>
</a>
</g>
</g>
<!-- Node1&#45;&gt;Node3 -->
<g id="edge2" class="edge">
<title>Node1&#45;&gt;Node3</title>
<path fill="none" stroke="midnightblue" d="M41.63,-140.33C53.84,-151.08 74.91,-168.02 96,-177.5 101.64,-180.04 107.65,-182.25 113.77,-184.17"/>
<polygon fill="midnightblue" stroke="midnightblue" points="112.85,-187.55 123.43,-186.96 114.8,-180.82 112.85,-187.55"/>
</g>
<!-- Node8 -->
<g id="node8" class="node">
<title>Node8</title>
<g id="a_node8"><a xlink:href="classnlohmann_1_1basic__json.html#a265a473e939184aa42655c9ccdf34e58" target="_top" xlink:title="deserialize from a compatible input">
<polygon fill="white" stroke="black" points="121.5,-137.5 121.5,-167.5 243.5,-167.5 243.5,-137.5 121.5,-137.5"/>
<text text-anchor="start" x="129.5" y="-155.5" font-family="Helvetica,sans-Serif" font-size="10.00">nlohmann::basic_json</text>
<text text-anchor="middle" x="182.5" y="-144.5" font-family="Helvetica,sans-Serif" font-size="10.00">::parse</text>
</a>
</g>
</g>
<!-- Node1&#45;&gt;Node8 -->
<g id="edge7" class="edge">
<title>Node1&#45;&gt;Node8</title>
<path fill="none" stroke="midnightblue" d="M60.02,-134.74C74.72,-136.89 93.27,-139.6 111.41,-142.25"/>
<polygon fill="midnightblue" stroke="midnightblue" points="111.02,-145.73 121.42,-143.72 112.04,-138.81 111.02,-145.73"/>
</g>
<!-- Node9 -->
<g id="node9" class="node">
<title>Node9</title>
<g id="a_node9"><a xlink:href="classbenchmark_1_1State.html#a79b5da5d87a307d04f1402457953c158" target="_top" xlink:title=" ">
<polygon fill="white" stroke="black" points="97,-99 97,-118 268,-118 268,-99 97,-99"/>
<text text-anchor="middle" x="182.5" y="-106" font-family="Helvetica,sans-Serif" font-size="10.00">benchmark::State::PauseTiming</text>
</a>
</g>
</g>
<!-- Node1&#45;&gt;Node9 -->
<g id="edge8" class="edge">
<title>Node1&#45;&gt;Node9</title>
<path fill="none" stroke="midnightblue" d="M60.02,-126.26C73.32,-124.31 89.76,-121.91 106.21,-119.51"/>
<polygon fill="midnightblue" stroke="midnightblue" points="107.03,-122.92 116.42,-118.01 106.02,-116 107.03,-122.92"/>
</g>
<!-- Node10 -->
<g id="node10" class="node">
<title>Node10</title>
<g id="a_node10"><a xlink:href="classbenchmark_1_1State.html#aa5f5b6caec015acde13ad6d8fb9da861" target="_top" xlink:title=" ">
<polygon fill="white" stroke="black" points="108,-49.5 108,-79.5 257,-79.5 257,-49.5 108,-49.5"/>
<text text-anchor="start" x="116" y="-67.5" font-family="Helvetica,sans-Serif" font-size="10.00">benchmark::State::Resume</text>
<text text-anchor="middle" x="182.5" y="-56.5" font-family="Helvetica,sans-Serif" font-size="10.00">Timing</text>
</a>
</g>
</g>
<!-- Node1&#45;&gt;Node10 -->
<g id="edge9" class="edge">
<title>Node1&#45;&gt;Node10</title>
<path fill="none" stroke="midnightblue" d="M43.83,-120.88C56.53,-111.75 76.78,-98.17 96,-89.5 101.24,-87.14 106.76,-84.93 112.37,-82.89"/>
<polygon fill="midnightblue" stroke="midnightblue" points="113.54,-86.19 121.85,-79.61 111.26,-79.57 113.54,-86.19"/>
</g>
<!-- Node11 -->
<g id="node11" class="node">
<title>Node11</title>
<g id="a_node11"><a xlink:href="classbenchmark_1_1State.html#aff3d67d5f61a1e89ddf452d487d698ee" target="_top" xlink:title=" ">
<polygon fill="white" stroke="black" points="106.5,-0.5 106.5,-30.5 258.5,-30.5 258.5,-0.5 106.5,-0.5"/>
<text text-anchor="start" x="114.5" y="-18.5" font-family="Helvetica,sans-Serif" font-size="10.00">benchmark::State::SetBytes</text>
<text text-anchor="middle" x="182.5" y="-7.5" font-family="Helvetica,sans-Serif" font-size="10.00">Processed</text>
</a>
</g>
</g>
<!-- Node1&#45;&gt;Node11 -->
<g id="edge10" class="edge">
<title>Node1&#45;&gt;Node11</title>
<path fill="none" stroke="midnightblue" d="M35.35,-120.73C44.1,-102.22 65.61,-61.96 96,-40.5 98.72,-38.58 101.58,-36.81 104.54,-35.17"/>
<polygon fill="midnightblue" stroke="midnightblue" points="106.29,-38.22 113.71,-30.65 103.19,-31.94 106.29,-38.22"/>
</g>
<!-- Node4 -->
<g id="node4" class="node">
<title>Node4</title>
<g id="a_node4"><a xlink:href="classbenchmark_1_1State.html#a84d9963091449d5ff7bde5a6035d5a45" target="_top" xlink:title=" ">
<polygon fill="white" stroke="black" points="305,-181.5 305,-211.5 478,-211.5 478,-181.5 305,-181.5"/>
<text text-anchor="start" x="313" y="-199.5" font-family="Helvetica,sans-Serif" font-size="10.00">benchmark::State::KeepRunning</text>
<text text-anchor="middle" x="391.5" y="-188.5" font-family="Helvetica,sans-Serif" font-size="10.00">Internal</text>
</a>
</g>
</g>
<!-- Node3&#45;&gt;Node4 -->
<g id="edge3" class="edge">
<title>Node3&#45;&gt;Node4</title>
<path fill="none" stroke="midnightblue" d="M269.19,-196.5C277.66,-196.5 286.3,-196.5 294.87,-196.5"/>
<polygon fill="midnightblue" stroke="midnightblue" points="294.88,-200 304.88,-196.5 294.88,-193 294.88,-200"/>
</g>
<!-- Node5 -->
<g id="node5" class="node">
<title>Node5</title>
<g id="a_node5"><a xlink:href="FuzzerTracePC_8cpp.html#a1f10ac78bd11294b612636121065eb5b" target="_top" xlink:title=" ">
<polygon fill="white" stroke="black" points="568.5,-231 568.5,-250 615.5,-250 615.5,-231 568.5,-231"/>
<text text-anchor="middle" x="592" y="-238" font-family="Helvetica,sans-Serif" font-size="10.00">assert</text>
</a>
</g>
</g>
<!-- Node4&#45;&gt;Node5 -->
<g id="edge4" class="edge">
<title>Node4&#45;&gt;Node5</title>
<path fill="none" stroke="midnightblue" d="M460.26,-211.52C493.37,-218.86 531.71,-227.36 558.27,-233.24"/>
<polygon fill="midnightblue" stroke="midnightblue" points="557.66,-236.7 568.18,-235.44 559.18,-229.86 557.66,-236.7"/>
</g>
<!-- Node6 -->
<g id="node6" class="node">
<title>Node6</title>
<g id="a_node6"><a xlink:href="classbenchmark_1_1State.html#a4fb09efb9288d0004feb90a6f7b34df7" target="_top" xlink:title=" ">
<polygon fill="white" stroke="black" points="523.5,-181.5 523.5,-211.5 660.5,-211.5 660.5,-181.5 523.5,-181.5"/>
<text text-anchor="start" x="531.5" y="-199.5" font-family="Helvetica,sans-Serif" font-size="10.00">benchmark::State::Finish</text>
<text text-anchor="middle" x="592" y="-188.5" font-family="Helvetica,sans-Serif" font-size="10.00">KeepRunning</text>
</a>
</g>
</g>
<!-- Node4&#45;&gt;Node6 -->
<g id="edge5" class="edge">
<title>Node4&#45;&gt;Node6</title>
<path fill="none" stroke="midnightblue" d="M478.12,-196.5C489.81,-196.5 501.75,-196.5 513.29,-196.5"/>
<polygon fill="midnightblue" stroke="midnightblue" points="513.3,-200 523.3,-196.5 513.3,-193 513.3,-200"/>
</g>
<!-- Node7 -->
<g id="node7" class="node">
<title>Node7</title>
<g id="a_node7"><a xlink:href="classbenchmark_1_1State.html#a6d2c1f9ef85c06e960287b615ff39d4e" target="_top" xlink:title=" ">
<polygon fill="white" stroke="black" points="514,-132.5 514,-162.5 670,-162.5 670,-132.5 514,-132.5"/>
<text text-anchor="start" x="522" y="-150.5" font-family="Helvetica,sans-Serif" font-size="10.00">benchmark::State::StartKeep</text>
<text text-anchor="middle" x="592" y="-139.5" font-family="Helvetica,sans-Serif" font-size="10.00">Running</text>
</a>
</g>
</g>
<!-- Node4&#45;&gt;Node7 -->
<g id="edge6" class="edge">
<title>Node4&#45;&gt;Node7</title>
<path fill="none" stroke="midnightblue" d="M453.41,-181.47C474.55,-176.24 498.45,-170.35 520.32,-164.95"/>
<polygon fill="midnightblue" stroke="midnightblue" points="521.34,-168.3 530.21,-162.51 519.66,-161.5 521.34,-168.3"/>
</g>
</g>
</svg>
        <g id="navigator" transform="translate(0 0)" fill="#404254">
                <rect fill="#f2f5e9" fill-opacity="0.5" stroke="#606060" stroke-width=".5" x="0" y="0" width="60" height="60"/>
                <use id="zoomplus" xlink:href="#zoomPlus" x="17" y="9" onmousedown="handleZoom(evt,'in')"/>
                <use id="zoomminus" xlink:href="#zoomMin" x="42" y="9" onmousedown="handleZoom(evt,'out')"/>
                <use id="reset" xlink:href="#resetDef" x="30" y="36" onmousedown="handleReset()"/>
                <g id="arrowUp" xlink:href="#dirArrow" transform="translate(30 24)" onmousedown="handlePan(0,-1)">
                  <use xlink:href="#rim" fill="#404040">
                        <set attributeName="fill" to="#808080" begin="arrowUp.mouseover" end="arrowUp.mouseout"/>
                  </use>
                  <path fill="none" stroke="white" stroke-width="1.5" d="M0,-3.0v7 M-2.5,-0.5L0,-3.0L2.5,-0.5"/>
                </g>
                <g id="arrowRight" xlink:href="#dirArrow" transform="rotate(90) translate(36 -43)" onmousedown="handlePan(1,0)">
                  <use xlink:href="#rim" fill="#404040">
                        <set attributeName="fill" to="#808080" begin="arrowRight.mouseover" end="arrowRight.mouseout"/>
                  </use>
                  <path fill="none" stroke="white" stroke-width="1.5" d="M0,-3.0v7 M-2.5,-0.5L0,-3.0L2.5,-0.5"/>
                </g>
                <g id="arrowDown" xlink:href="#dirArrow" transform="rotate(180) translate(-30 -48)" onmousedown="handlePan(0,1)">
                  <use xlink:href="#rim" fill="#404040">
                        <set attributeName="fill" to="#808080" begin="arrowDown.mouseover" end="arrowDown.mouseout"/>
                  </use>
                  <path fill="none" stroke="white" stroke-width="1.5" d="M0,-3.0v7 M-2.5,-0.5L0,-3.0L2.5,-0.5"/>
                </g>
                <g id="arrowLeft" xlink:href="#dirArrow" transform="rotate(270) translate(-36 17)" onmousedown="handlePan(-1,0)">
                  <use xlink:href="#rim" fill="#404040">
                        <set attributeName="fill" to="#808080" begin="arrowLeft.mouseover" end="arrowLeft.mouseout"/>
                  </use>
                  <path fill="none" stroke="white" stroke-width="1.5" d="M0,-3.0v7 M-2.5,-0.5L0,-3.0L2.5,-0.5"/>
                </g>
        </g>
        <svg viewBox="0 0 15 15" width="100%" height="30px" preserveAspectRatio="xMaxYMin meet">
         <g id="arrow_out" transform="scale(0.3 0.3)">
          <a xlink:href="benchmarks_8cpp_acaf833f136690a0b9eb55539d792d694_cgraph_org.svg" target="_base">
           <rect id="button" ry="5" rx="5" y="6" x="6" height="38" width="38"
                fill="#f2f5e9" fill-opacity="0.5" stroke="#606060" stroke-width="1.0"/>
           <path id="arrow"
             d="M 11.500037,31.436501 C 11.940474,20.09759 22.043105,11.32322 32.158766,21.979434 L 37.068811,17.246167 C 37.068811,17.246167 37.088388,32 37.088388,32 L 22.160133,31.978069 C 22.160133,31.978069 26.997745,27.140456 26.997745,27.140456 C 18.528582,18.264221 13.291696,25.230495 11.500037,31.436501 z"
             style="fill:#404040;"/>
          </a>
         </g>
        </svg>
</svg>
