<?xml version="1.0" encoding="UTF-8" standalone="no"?>
<!DOCTYPE svg PUBLIC "-//W3C//DTD SVG 1.1//EN"
 "http://www.w3.org/Graphics/SVG/1.1/DTD/svg11.dtd">
<!-- Generated by graphviz version 2.43.0 (0)
 -->
<!-- Title: mc_orchestrator/json&#45;3.7.3/benchmarks/thirdparty/benchmark/src/benchmark_api_internal.h Pages: 1 -->
<!--zoomable 173 -->
<svg id="main" version="1.1" xmlns="http://www.w3.org/2000/svg" xmlns:xlink="http://www.w3.org/1999/xlink" xml:space="preserve" onload="init(evt)">
<style type="text/css"><![CDATA[
.edge:hover path { stroke: red; }
.edge:hover polygon { stroke: red; fill: red; }
]]></style>
<script type="text/javascript"><![CDATA[
var edges = document.getElementsByTagName('g');
if (edges && edges.length) {
  for (var i=0;i<edges.length;i++) {
    if (edges[i].id.substr(0,4)=='edge') {
      edges[i].setAttribute('class','edge');
    }
  }
}
]]></script>
        <defs>
                <circle id="rim" cx="0" cy="0" r="7"/>
                <circle id="rim2" cx="0" cy="0" r="3.5"/>
                <g id="zoomPlus">
                        <use xlink:href="#rim" fill="#404040">
                                <set attributeName="fill" to="#808080" begin="zoomplus.mouseover" end="zoomplus.mouseout"/>
                        </use>
                        <path d="M-4,0h8M0,-4v8" fill="none" stroke="white" stroke-width="1.5" pointer-events="none"/>
                </g>
                <g id="zoomMin">
                        <use xlink:href="#rim" fill="#404040">
                                <set attributeName="fill" to="#808080" begin="zoomminus.mouseover" end="zoomminus.mouseout"/>
                        </use>
                        <path d="M-4,0h8" fill="none" stroke="white" stroke-width="1.5" pointer-events="none"/>
                </g>
                <g id="dirArrow">
                        <path fill="none" stroke="white" stroke-width="1.5" d="M0,-3.0v7 M-2.5,-0.5L0,-3.0L2.5,-0.5"/>
                </g>
               <g id="resetDef">
                       <use xlink:href="#rim2" fill="#404040">
                               <set attributeName="fill" to="#808080" begin="reset.mouseover" end="reset.mouseout"/>
                       </use>
               </g>
        </defs>

<script type="text/javascript">
var viewWidth = 669;
var viewHeight = 173;
var sectionId = 'dynsection-0';
</script>
<script xlink:href="svgpan.js"/>
<svg id="graph" class="graph">
<g id="viewport">
<title>mc_orchestrator/json&#45;3.7.3/benchmarks/thirdparty/benchmark/src/benchmark_api_internal.h</title>
<polygon fill="white" stroke="transparent" points="-4,4 -4,-169 664.5,-169 664.5,4 -4,4"/>
<!-- Node1 -->
<g id="node1" class="node">
<title>Node1</title>
<g id="a_node1"><a xlink:title=" ">
<polygon fill="#bfbfbf" stroke="black" points="418.5,-112.5 418.5,-164.5 588.5,-164.5 588.5,-112.5 418.5,-112.5"/>
<text text-anchor="start" x="426.5" y="-152.5" font-family="Helvetica,sans-Serif" font-size="10.00">mc_orchestrator/json</text>
<text text-anchor="start" x="426.5" y="-141.5" font-family="Helvetica,sans-Serif" font-size="10.00">&#45;3.7.3/benchmarks/thirdparty</text>
<text text-anchor="start" x="426.5" y="-130.5" font-family="Helvetica,sans-Serif" font-size="10.00">/benchmark/src/benchmark_api</text>
<text text-anchor="middle" x="503.5" y="-119.5" font-family="Helvetica,sans-Serif" font-size="10.00">_internal.h</text>
</a>
</g>
</g>
<!-- Node2 -->
<g id="node2" class="node">
<title>Node2</title>
<g id="a_node2"><a xlink:href="benchmark_8h.html" target="_top" xlink:title=" ">
<polygon fill="white" stroke="black" points="243.5,-56.5 243.5,-75.5 381.5,-75.5 381.5,-56.5 243.5,-56.5"/>
<text text-anchor="middle" x="312.5" y="-63.5" font-family="Helvetica,sans-Serif" font-size="10.00">benchmark/benchmark.h</text>
</a>
</g>
</g>
<!-- Node1&#45;&gt;Node2 -->
<g id="edge1" class="edge">
<title>Node1&#45;&gt;Node2</title>
<path fill="none" stroke="midnightblue" d="M435.62,-112.45C404.9,-101.11 370.01,-88.23 345.23,-79.08"/>
<polygon fill="midnightblue" stroke="midnightblue" points="346.19,-75.71 335.6,-75.53 343.77,-82.27 346.19,-75.71"/>
</g>
<!-- Node7 -->
<g id="node7" class="node">
<title>Node7</title>
<g id="a_node7"><a xlink:title=" ">
<polygon fill="white" stroke="#bfbfbf" points="402,-0.5 402,-19.5 451,-19.5 451,-0.5 402,-0.5"/>
<text text-anchor="middle" x="426.5" y="-7.5" font-family="Helvetica,sans-Serif" font-size="10.00">iosfwd</text>
</a>
</g>
</g>
<!-- Node1&#45;&gt;Node7 -->
<g id="edge12" class="edge">
<title>Node1&#45;&gt;Node7</title>
<path fill="none" stroke="midnightblue" d="M488.1,-112.2C472.96,-87.32 450.24,-50 437.04,-28.31"/>
<polygon fill="midnightblue" stroke="midnightblue" points="439.89,-26.27 431.7,-19.55 433.91,-29.91 439.89,-26.27"/>
</g>
<!-- Node8 -->
<g id="node8" class="node">
<title>Node8</title>
<g id="a_node8"><a xlink:title=" ">
<polygon fill="white" stroke="#bfbfbf" points="469.5,-0.5 469.5,-19.5 513.5,-19.5 513.5,-0.5 469.5,-0.5"/>
<text text-anchor="middle" x="491.5" y="-7.5" font-family="Helvetica,sans-Serif" font-size="10.00">string</text>
</a>
</g>
</g>
<!-- Node1&#45;&gt;Node8 -->
<g id="edge14" class="edge">
<title>Node1&#45;&gt;Node8</title>
<path fill="none" stroke="midnightblue" d="M501.1,-112.2C498.79,-87.88 495.36,-51.67 493.28,-29.8"/>
<polygon fill="midnightblue" stroke="midnightblue" points="496.74,-29.17 492.31,-19.55 489.77,-29.84 496.74,-29.17"/>
</g>
<!-- Node9 -->
<g id="node9" class="node">
<title>Node9</title>
<g id="a_node9"><a xlink:title=" ">
<polygon fill="white" stroke="#bfbfbf" points="532,-0.5 532,-19.5 579,-19.5 579,-0.5 532,-0.5"/>
<text text-anchor="middle" x="555.5" y="-7.5" font-family="Helvetica,sans-Serif" font-size="10.00">vector</text>
</a>
</g>
</g>
<!-- Node1&#45;&gt;Node9 -->
<g id="edge15" class="edge">
<title>Node1&#45;&gt;Node9</title>
<path fill="none" stroke="midnightblue" d="M513.9,-112.2C524.04,-87.54 539.19,-50.67 548.14,-28.9"/>
<polygon fill="midnightblue" stroke="midnightblue" points="551.42,-30.13 551.99,-19.55 544.95,-27.47 551.42,-30.13"/>
</g>
<!-- Node12 -->
<g id="node12" class="node">
<title>Node12</title>
<g id="a_node12"><a xlink:title=" ">
<polygon fill="white" stroke="#bfbfbf" points="551,-56.5 551,-75.5 598,-75.5 598,-56.5 551,-56.5"/>
<text text-anchor="middle" x="574.5" y="-63.5" font-family="Helvetica,sans-Serif" font-size="10.00">cmath</text>
</a>
</g>
</g>
<!-- Node1&#45;&gt;Node12 -->
<g id="edge11" class="edge">
<title>Node1&#45;&gt;Node12</title>
<path fill="none" stroke="midnightblue" d="M528.73,-112.45C538.62,-102.63 549.67,-91.66 558.43,-82.95"/>
<polygon fill="midnightblue" stroke="midnightblue" points="561.11,-85.23 565.74,-75.7 556.18,-80.26 561.11,-85.23"/>
</g>
<!-- Node13 -->
<g id="node13" class="node">
<title>Node13</title>
<g id="a_node13"><a xlink:title=" ">
<polygon fill="white" stroke="#bfbfbf" points="616.5,-56.5 616.5,-75.5 660.5,-75.5 660.5,-56.5 616.5,-56.5"/>
<text text-anchor="middle" x="638.5" y="-63.5" font-family="Helvetica,sans-Serif" font-size="10.00">limits</text>
</a>
</g>
</g>
<!-- Node1&#45;&gt;Node13 -->
<g id="edge13" class="edge">
<title>Node1&#45;&gt;Node13</title>
<path fill="none" stroke="midnightblue" d="M551.48,-112.45C572.32,-101.56 595.89,-89.25 613.23,-80.2"/>
<polygon fill="midnightblue" stroke="midnightblue" points="614.93,-83.26 622.17,-75.53 611.69,-77.05 614.93,-83.26"/>
</g>
<!-- Node3 -->
<g id="node3" class="node">
<title>Node3</title>
<g id="a_node3"><a xlink:title=" ">
<polygon fill="white" stroke="#bfbfbf" points="178,-0.5 178,-19.5 231,-19.5 231,-0.5 178,-0.5"/>
<text text-anchor="middle" x="204.5" y="-7.5" font-family="Helvetica,sans-Serif" font-size="10.00">stdint.h</text>
</a>
</g>
</g>
<!-- Node2&#45;&gt;Node3 -->
<g id="edge2" class="edge">
<title>Node2&#45;&gt;Node3</title>
<path fill="none" stroke="midnightblue" d="M295.15,-56.32C277.83,-47.66 250.98,-34.24 231,-24.25"/>
<polygon fill="midnightblue" stroke="midnightblue" points="232.32,-21 221.81,-19.65 229.19,-27.26 232.32,-21"/>
</g>
<!-- Node4 -->
<g id="node4" class="node">
<title>Node4</title>
<g id="a_node4"><a xlink:title=" ">
<polygon fill="white" stroke="#bfbfbf" points="249.5,-0.5 249.5,-19.5 313.5,-19.5 313.5,-0.5 249.5,-0.5"/>
<text text-anchor="middle" x="281.5" y="-7.5" font-family="Helvetica,sans-Serif" font-size="10.00">algorithm</text>
</a>
</g>
</g>
<!-- Node2&#45;&gt;Node4 -->
<g id="edge3" class="edge">
<title>Node2&#45;&gt;Node4</title>
<path fill="none" stroke="midnightblue" d="M307.38,-56.08C303.09,-48.61 296.84,-37.72 291.56,-28.52"/>
<polygon fill="midnightblue" stroke="midnightblue" points="294.54,-26.68 286.52,-19.75 288.47,-30.17 294.54,-26.68"/>
</g>
<!-- Node5 -->
<g id="node5" class="node">
<title>Node5</title>
<g id="a_node5"><a xlink:title=" ">
<polygon fill="white" stroke="#bfbfbf" points="331.5,-0.5 331.5,-19.5 383.5,-19.5 383.5,-0.5 331.5,-0.5"/>
<text text-anchor="middle" x="357.5" y="-7.5" font-family="Helvetica,sans-Serif" font-size="10.00">cassert</text>
</a>
</g>
</g>
<!-- Node2&#45;&gt;Node5 -->
<g id="edge4" class="edge">
<title>Node2&#45;&gt;Node5</title>
<path fill="none" stroke="midnightblue" d="M319.93,-56.08C326.35,-48.38 335.81,-37.03 343.62,-27.65"/>
<polygon fill="midnightblue" stroke="midnightblue" points="346.49,-29.67 350.21,-19.75 341.12,-25.19 346.49,-29.67"/>
</g>
<!-- Node6 -->
<g id="node6" class="node">
<title>Node6</title>
<g id="a_node6"><a xlink:title=" ">
<polygon fill="white" stroke="#bfbfbf" points="0,-0.5 0,-19.5 53,-19.5 53,-0.5 0,-0.5"/>
<text text-anchor="middle" x="26.5" y="-7.5" font-family="Helvetica,sans-Serif" font-size="10.00">cstddef</text>
</a>
</g>
</g>
<!-- Node2&#45;&gt;Node6 -->
<g id="edge5" class="edge">
<title>Node2&#45;&gt;Node6</title>
<path fill="none" stroke="midnightblue" d="M259.14,-56.46C210.57,-48.44 136.67,-35.65 63.1,-20.01"/>
<polygon fill="midnightblue" stroke="midnightblue" points="63.7,-16.56 53.19,-17.88 62.23,-23.4 63.7,-16.56"/>
</g>
<!-- Node2&#45;&gt;Node7 -->
<g id="edge6" class="edge">
<title>Node2&#45;&gt;Node7</title>
<path fill="none" stroke="midnightblue" d="M330.56,-56.44C349.07,-47.68 378.08,-33.94 399.36,-23.86"/>
<polygon fill="midnightblue" stroke="midnightblue" points="400.98,-26.96 408.52,-19.52 397.99,-20.63 400.98,-26.96"/>
</g>
<!-- Node2&#45;&gt;Node8 -->
<g id="edge7" class="edge">
<title>Node2&#45;&gt;Node8</title>
<path fill="none" stroke="midnightblue" d="M340.86,-56.44C373.2,-46.69 425.94,-30.78 459.67,-20.6"/>
<polygon fill="midnightblue" stroke="midnightblue" points="460.91,-23.88 469.48,-17.64 458.89,-17.18 460.91,-23.88"/>
</g>
<!-- Node2&#45;&gt;Node9 -->
<g id="edge8" class="edge">
<title>Node2&#45;&gt;Node9</title>
<path fill="none" stroke="midnightblue" d="M355.69,-56.47C396.18,-48.31 458.61,-35.32 521.98,-20.02"/>
<polygon fill="midnightblue" stroke="midnightblue" points="522.86,-23.41 531.75,-17.65 521.2,-16.61 522.86,-23.41"/>
</g>
<!-- Node10 -->
<g id="node10" class="node">
<title>Node10</title>
<g id="a_node10"><a xlink:title=" ">
<polygon fill="white" stroke="#bfbfbf" points="71.5,-0.5 71.5,-19.5 109.5,-19.5 109.5,-0.5 71.5,-0.5"/>
<text text-anchor="middle" x="90.5" y="-7.5" font-family="Helvetica,sans-Serif" font-size="10.00">map</text>
</a>
</g>
</g>
<!-- Node2&#45;&gt;Node10 -->
<g id="edge9" class="edge">
<title>Node2&#45;&gt;Node10</title>
<path fill="none" stroke="midnightblue" d="M271.38,-56.5C234.01,-48.54 177.21,-35.88 119.38,-20.08"/>
<polygon fill="midnightblue" stroke="midnightblue" points="120.29,-16.7 109.72,-17.41 118.42,-23.44 120.29,-16.7"/>
</g>
<!-- Node11 -->
<g id="node11" class="node">
<title>Node11</title>
<g id="a_node11"><a xlink:title=" ">
<polygon fill="white" stroke="#bfbfbf" points="127.5,-0.5 127.5,-19.5 159.5,-19.5 159.5,-0.5 127.5,-0.5"/>
<text text-anchor="middle" x="143.5" y="-7.5" font-family="Helvetica,sans-Serif" font-size="10.00">set</text>
</a>
</g>
</g>
<!-- Node2&#45;&gt;Node11 -->
<g id="edge10" class="edge">
<title>Node2&#45;&gt;Node11</title>
<path fill="none" stroke="midnightblue" d="M283.97,-56.48C256.77,-48.26 214.45,-35.27 169.28,-20.16"/>
<polygon fill="midnightblue" stroke="midnightblue" points="170.2,-16.78 159.6,-16.91 167.97,-23.42 170.2,-16.78"/>
</g>
</g>
</svg>
        <g id="navigator" transform="translate(0 0)" fill="#404254">
                <rect fill="#f2f5e9" fill-opacity="0.5" stroke="#606060" stroke-width=".5" x="0" y="0" width="60" height="60"/>
                <use id="zoomplus" xlink:href="#zoomPlus" x="17" y="9" onmousedown="handleZoom(evt,'in')"/>
                <use id="zoomminus" xlink:href="#zoomMin" x="42" y="9" onmousedown="handleZoom(evt,'out')"/>
                <use id="reset" xlink:href="#resetDef" x="30" y="36" onmousedown="handleReset()"/>
                <g id="arrowUp" xlink:href="#dirArrow" transform="translate(30 24)" onmousedown="handlePan(0,-1)">
                  <use xlink:href="#rim" fill="#404040">
                        <set attributeName="fill" to="#808080" begin="arrowUp.mouseover" end="arrowUp.mouseout"/>
                  </use>
                  <path fill="none" stroke="white" stroke-width="1.5" d="M0,-3.0v7 M-2.5,-0.5L0,-3.0L2.5,-0.5"/>
                </g>
                <g id="arrowRight" xlink:href="#dirArrow" transform="rotate(90) translate(36 -43)" onmousedown="handlePan(1,0)">
                  <use xlink:href="#rim" fill="#404040">
                        <set attributeName="fill" to="#808080" begin="arrowRight.mouseover" end="arrowRight.mouseout"/>
                  </use>
                  <path fill="none" stroke="white" stroke-width="1.5" d="M0,-3.0v7 M-2.5,-0.5L0,-3.0L2.5,-0.5"/>
                </g>
                <g id="arrowDown" xlink:href="#dirArrow" transform="rotate(180) translate(-30 -48)" onmousedown="handlePan(0,1)">
                  <use xlink:href="#rim" fill="#404040">
                        <set attributeName="fill" to="#808080" begin="arrowDown.mouseover" end="arrowDown.mouseout"/>
                  </use>
                  <path fill="none" stroke="white" stroke-width="1.5" d="M0,-3.0v7 M-2.5,-0.5L0,-3.0L2.5,-0.5"/>
                </g>
                <g id="arrowLeft" xlink:href="#dirArrow" transform="rotate(270) translate(-36 17)" onmousedown="handlePan(-1,0)">
                  <use xlink:href="#rim" fill="#404040">
                        <set attributeName="fill" to="#808080" begin="arrowLeft.mouseover" end="arrowLeft.mouseout"/>
                  </use>
                  <path fill="none" stroke="white" stroke-width="1.5" d="M0,-3.0v7 M-2.5,-0.5L0,-3.0L2.5,-0.5"/>
                </g>
        </g>
        <svg viewBox="0 0 15 15" width="100%" height="30px" preserveAspectRatio="xMaxYMin meet">
         <g id="arrow_out" transform="scale(0.3 0.3)">
          <a xlink:href="benchmark__api__internal_8h__incl_org.svg" target="_base">
           <rect id="button" ry="5" rx="5" y="6" x="6" height="38" width="38"
                fill="#f2f5e9" fill-opacity="0.5" stroke="#606060" stroke-width="1.0"/>
           <path id="arrow"
             d="M 11.500037,31.436501 C 11.940474,20.09759 22.043105,11.32322 32.158766,21.979434 L 37.068811,17.246167 C 37.068811,17.246167 37.088388,32 37.088388,32 L 22.160133,31.978069 C 22.160133,31.978069 26.997745,27.140456 26.997745,27.140456 C 18.528582,18.264221 13.291696,25.230495 11.500037,31.436501 z"
             style="fill:#404040;"/>
          </a>
         </g>
        </svg>
</svg>
