<?xml version="1.0" encoding="UTF-8" standalone="no"?>
<!DOCTYPE svg PUBLIC "-//W3C//DTD SVG 1.1//EN"
 "http://www.w3.org/Graphics/SVG/1.1/DTD/svg11.dtd">
<!-- Generated by graphviz version 2.43.0 (0)
 -->
<!-- Title: mc_orchestrator/json&#45;3.7.3/benchmarks/thirdparty/benchmark/include/benchmark/benchmark.h Pages: 1 -->
<svg width="587pt" height="117pt"
 viewBox="0.00 0.00 586.50 117.00" xmlns="http://www.w3.org/2000/svg" xmlns:xlink="http://www.w3.org/1999/xlink">
<g id="graph0" class="graph" transform="scale(1 1) rotate(0) translate(4 113)">
<title>mc_orchestrator/json&#45;3.7.3/benchmarks/thirdparty/benchmark/include/benchmark/benchmark.h</title>
<polygon fill="white" stroke="transparent" points="-4,4 -4,-113 582.5,-113 582.5,4 -4,4"/>
<!-- Node1 -->
<g id="node1" class="node">
<title>Node1</title>
<g id="a_node1"><a xlink:title=" ">
<polygon fill="#bfbfbf" stroke="black" points="234.5,-56.5 234.5,-108.5 404.5,-108.5 404.5,-56.5 234.5,-56.5"/>
<text text-anchor="start" x="242.5" y="-96.5" font-family="Helvetica,sans-Serif" font-size="10.00">mc_orchestrator/json</text>
<text text-anchor="start" x="242.5" y="-85.5" font-family="Helvetica,sans-Serif" font-size="10.00">&#45;3.7.3/benchmarks/thirdparty</text>
<text text-anchor="start" x="242.5" y="-74.5" font-family="Helvetica,sans-Serif" font-size="10.00">/benchmark/include/benchmark</text>
<text text-anchor="middle" x="319.5" y="-63.5" font-family="Helvetica,sans-Serif" font-size="10.00">/benchmark.h</text>
</a>
</g>
</g>
<!-- Node2 -->
<g id="node2" class="node">
<title>Node2</title>
<g id="a_node2"><a xlink:title=" ">
<polygon fill="white" stroke="#bfbfbf" points="0,-0.5 0,-19.5 53,-19.5 53,-0.5 0,-0.5"/>
<text text-anchor="middle" x="26.5" y="-7.5" font-family="Helvetica,sans-Serif" font-size="10.00">stdint.h</text>
</a>
</g>
</g>
<!-- Node1&#45;&gt;Node2 -->
<g id="edge1" class="edge">
<title>Node1&#45;&gt;Node2</title>
<path fill="none" stroke="midnightblue" d="M234.37,-61.36C186.74,-50.03 126.03,-35.51 62.96,-20.09"/>
<polygon fill="midnightblue" stroke="midnightblue" points="63.77,-16.69 53.23,-17.71 62.11,-23.49 63.77,-16.69"/>
</g>
<!-- Node3 -->
<g id="node3" class="node">
<title>Node3</title>
<g id="a_node3"><a xlink:title=" ">
<polygon fill="white" stroke="#bfbfbf" points="71.5,-0.5 71.5,-19.5 135.5,-19.5 135.5,-0.5 71.5,-0.5"/>
<text text-anchor="middle" x="103.5" y="-7.5" font-family="Helvetica,sans-Serif" font-size="10.00">algorithm</text>
</a>
</g>
</g>
<!-- Node1&#45;&gt;Node3 -->
<g id="edge2" class="edge">
<title>Node1&#45;&gt;Node3</title>
<path fill="none" stroke="midnightblue" d="M242.74,-56.45C207.53,-44.95 167.48,-31.88 139.4,-22.72"/>
<polygon fill="midnightblue" stroke="midnightblue" points="140.22,-19.3 129.63,-19.53 138.05,-25.96 140.22,-19.3"/>
</g>
<!-- Node4 -->
<g id="node4" class="node">
<title>Node4</title>
<g id="a_node4"><a xlink:title=" ">
<polygon fill="white" stroke="#bfbfbf" points="153.5,-0.5 153.5,-19.5 205.5,-19.5 205.5,-0.5 153.5,-0.5"/>
<text text-anchor="middle" x="179.5" y="-7.5" font-family="Helvetica,sans-Serif" font-size="10.00">cassert</text>
</a>
</g>
</g>
<!-- Node1&#45;&gt;Node4 -->
<g id="edge3" class="edge">
<title>Node1&#45;&gt;Node4</title>
<path fill="none" stroke="midnightblue" d="M269.75,-56.45C248.13,-45.56 223.69,-33.25 205.7,-24.2"/>
<polygon fill="midnightblue" stroke="midnightblue" points="206.94,-20.9 196.43,-19.53 203.79,-27.15 206.94,-20.9"/>
</g>
<!-- Node5 -->
<g id="node5" class="node">
<title>Node5</title>
<g id="a_node5"><a xlink:title=" ">
<polygon fill="white" stroke="#bfbfbf" points="224,-0.5 224,-19.5 277,-19.5 277,-0.5 224,-0.5"/>
<text text-anchor="middle" x="250.5" y="-7.5" font-family="Helvetica,sans-Serif" font-size="10.00">cstddef</text>
</a>
</g>
</g>
<!-- Node1&#45;&gt;Node5 -->
<g id="edge4" class="edge">
<title>Node1&#45;&gt;Node5</title>
<path fill="none" stroke="midnightblue" d="M294.98,-56.45C285.37,-46.63 274.63,-35.66 266.11,-26.95"/>
<polygon fill="midnightblue" stroke="midnightblue" points="268.51,-24.39 259.01,-19.7 263.5,-29.29 268.51,-24.39"/>
</g>
<!-- Node6 -->
<g id="node6" class="node">
<title>Node6</title>
<g id="a_node6"><a xlink:title=" ">
<polygon fill="white" stroke="#bfbfbf" points="295,-0.5 295,-19.5 344,-19.5 344,-0.5 295,-0.5"/>
<text text-anchor="middle" x="319.5" y="-7.5" font-family="Helvetica,sans-Serif" font-size="10.00">iosfwd</text>
</a>
</g>
</g>
<!-- Node1&#45;&gt;Node6 -->
<g id="edge5" class="edge">
<title>Node1&#45;&gt;Node6</title>
<path fill="none" stroke="midnightblue" d="M319.5,-56.45C319.5,-47.73 319.5,-38.1 319.5,-29.96"/>
<polygon fill="midnightblue" stroke="midnightblue" points="323,-29.7 319.5,-19.7 316,-29.7 323,-29.7"/>
</g>
<!-- Node7 -->
<g id="node7" class="node">
<title>Node7</title>
<g id="a_node7"><a xlink:title=" ">
<polygon fill="white" stroke="#bfbfbf" points="362.5,-0.5 362.5,-19.5 406.5,-19.5 406.5,-0.5 362.5,-0.5"/>
<text text-anchor="middle" x="384.5" y="-7.5" font-family="Helvetica,sans-Serif" font-size="10.00">string</text>
</a>
</g>
</g>
<!-- Node1&#45;&gt;Node7 -->
<g id="edge6" class="edge">
<title>Node1&#45;&gt;Node7</title>
<path fill="none" stroke="midnightblue" d="M342.6,-56.45C351.56,-46.73 361.56,-35.88 369.55,-27.22"/>
<polygon fill="midnightblue" stroke="midnightblue" points="372.28,-29.42 376.48,-19.7 367.13,-24.68 372.28,-29.42"/>
</g>
<!-- Node8 -->
<g id="node8" class="node">
<title>Node8</title>
<g id="a_node8"><a xlink:title=" ">
<polygon fill="white" stroke="#bfbfbf" points="425,-0.5 425,-19.5 472,-19.5 472,-0.5 425,-0.5"/>
<text text-anchor="middle" x="448.5" y="-7.5" font-family="Helvetica,sans-Serif" font-size="10.00">vector</text>
</a>
</g>
</g>
<!-- Node1&#45;&gt;Node8 -->
<g id="edge7" class="edge">
<title>Node1&#45;&gt;Node8</title>
<path fill="none" stroke="midnightblue" d="M365.34,-56.45C385.08,-45.66 407.36,-33.48 423.89,-24.45"/>
<polygon fill="midnightblue" stroke="midnightblue" points="425.8,-27.39 432.9,-19.53 422.44,-21.25 425.8,-27.39"/>
</g>
<!-- Node9 -->
<g id="node9" class="node">
<title>Node9</title>
<g id="a_node9"><a xlink:title=" ">
<polygon fill="white" stroke="#bfbfbf" points="490.5,-0.5 490.5,-19.5 528.5,-19.5 528.5,-0.5 490.5,-0.5"/>
<text text-anchor="middle" x="509.5" y="-7.5" font-family="Helvetica,sans-Serif" font-size="10.00">map</text>
</a>
</g>
</g>
<!-- Node1&#45;&gt;Node9 -->
<g id="edge8" class="edge">
<title>Node1&#45;&gt;Node9</title>
<path fill="none" stroke="midnightblue" d="M387.02,-56.45C419.27,-44.48 456.14,-30.8 480.93,-21.6"/>
<polygon fill="midnightblue" stroke="midnightblue" points="482.29,-24.83 490.45,-18.07 479.85,-18.27 482.29,-24.83"/>
</g>
<!-- Node10 -->
<g id="node10" class="node">
<title>Node10</title>
<g id="a_node10"><a xlink:title=" ">
<polygon fill="white" stroke="#bfbfbf" points="546.5,-0.5 546.5,-19.5 578.5,-19.5 578.5,-0.5 546.5,-0.5"/>
<text text-anchor="middle" x="562.5" y="-7.5" font-family="Helvetica,sans-Serif" font-size="10.00">set</text>
</a>
</g>
</g>
<!-- Node1&#45;&gt;Node10 -->
<g id="edge9" class="edge">
<title>Node1&#45;&gt;Node10</title>
<path fill="none" stroke="midnightblue" d="M404.55,-59.01C442.49,-48.61 487.88,-35.69 536.63,-20.13"/>
<polygon fill="midnightblue" stroke="midnightblue" points="537.97,-23.37 546.42,-16.98 535.83,-16.71 537.97,-23.37"/>
</g>
</g>
</svg>
