<?xml version="1.0" encoding="UTF-8" standalone="no"?>
<!DOCTYPE svg PUBLIC "-//W3C//DTD SVG 1.1//EN"
 "http://www.w3.org/Graphics/SVG/1.1/DTD/svg11.dtd">
<!-- Generated by graphviz version 2.43.0 (0)
 -->
<!-- Title: mc_orchestrator/json&#45;3.7.3/test/thirdparty/Fuzzer/test/CallerCalleeTest.cpp Pages: 1 -->
<svg width="343pt" height="106pt"
 viewBox="0.00 0.00 343.00 106.00" xmlns="http://www.w3.org/2000/svg" xmlns:xlink="http://www.w3.org/1999/xlink">
<g id="graph0" class="graph" transform="scale(1 1) rotate(0) translate(4 102)">
<title>mc_orchestrator/json&#45;3.7.3/test/thirdparty/Fuzzer/test/CallerCalleeTest.cpp</title>
<polygon fill="white" stroke="transparent" points="-4,4 -4,-102 339,-102 339,4 -4,4"/>
<!-- Node1 -->
<g id="node1" class="node">
<title>Node1</title>
<g id="a_node1"><a xlink:title=" ">
<polygon fill="#bfbfbf" stroke="black" points="74.5,-56.5 74.5,-97.5 249.5,-97.5 249.5,-56.5 74.5,-56.5"/>
<text text-anchor="start" x="82.5" y="-85.5" font-family="Helvetica,sans-Serif" font-size="10.00">mc_orchestrator/json</text>
<text text-anchor="start" x="82.5" y="-74.5" font-family="Helvetica,sans-Serif" font-size="10.00">&#45;3.7.3/test/thirdparty</text>
<text text-anchor="middle" x="162" y="-63.5" font-family="Helvetica,sans-Serif" font-size="10.00">/Fuzzer/test/CallerCalleeTest.cpp</text>
</a>
</g>
</g>
<!-- Node2 -->
<g id="node2" class="node">
<title>Node2</title>
<g id="a_node2"><a xlink:title=" ">
<polygon fill="white" stroke="#bfbfbf" points="0,-0.5 0,-19.5 50,-19.5 50,-0.5 0,-0.5"/>
<text text-anchor="middle" x="25" y="-7.5" font-family="Helvetica,sans-Serif" font-size="10.00">cstdint</text>
</a>
</g>
</g>
<!-- Node1&#45;&gt;Node2 -->
<g id="edge1" class="edge">
<title>Node1&#45;&gt;Node2</title>
<path fill="none" stroke="midnightblue" d="M120.9,-56.5C98.78,-46.01 72.1,-33.35 52.51,-24.05"/>
<polygon fill="midnightblue" stroke="midnightblue" points="53.77,-20.78 43.24,-19.65 50.77,-27.1 53.77,-20.78"/>
</g>
<!-- Node3 -->
<g id="node3" class="node">
<title>Node3</title>
<g id="a_node3"><a xlink:title=" ">
<polygon fill="white" stroke="#bfbfbf" points="68.5,-0.5 68.5,-19.5 117.5,-19.5 117.5,-0.5 68.5,-0.5"/>
<text text-anchor="middle" x="93" y="-7.5" font-family="Helvetica,sans-Serif" font-size="10.00">cstdlib</text>
</a>
</g>
</g>
<!-- Node1&#45;&gt;Node3 -->
<g id="edge2" class="edge">
<title>Node1&#45;&gt;Node3</title>
<path fill="none" stroke="midnightblue" d="M141.3,-56.5C131.13,-46.92 119.04,-35.53 109.5,-26.54"/>
<polygon fill="midnightblue" stroke="midnightblue" points="111.86,-23.96 102.18,-19.65 107.06,-29.06 111.86,-23.96"/>
</g>
<!-- Node4 -->
<g id="node4" class="node">
<title>Node4</title>
<g id="a_node4"><a xlink:title=" ">
<polygon fill="white" stroke="#bfbfbf" points="135.5,-0.5 135.5,-19.5 188.5,-19.5 188.5,-0.5 135.5,-0.5"/>
<text text-anchor="middle" x="162" y="-7.5" font-family="Helvetica,sans-Serif" font-size="10.00">cstddef</text>
</a>
</g>
</g>
<!-- Node1&#45;&gt;Node4 -->
<g id="edge3" class="edge">
<title>Node1&#45;&gt;Node4</title>
<path fill="none" stroke="midnightblue" d="M162,-56.5C162,-48.07 162,-38.24 162,-29.87"/>
<polygon fill="midnightblue" stroke="midnightblue" points="165.5,-29.65 162,-19.65 158.5,-29.65 165.5,-29.65"/>
</g>
<!-- Node5 -->
<g id="node5" class="node">
<title>Node5</title>
<g id="a_node5"><a xlink:title=" ">
<polygon fill="white" stroke="#bfbfbf" points="207,-0.5 207,-19.5 257,-19.5 257,-0.5 207,-0.5"/>
<text text-anchor="middle" x="232" y="-7.5" font-family="Helvetica,sans-Serif" font-size="10.00">cstring</text>
</a>
</g>
</g>
<!-- Node1&#45;&gt;Node5 -->
<g id="edge4" class="edge">
<title>Node1&#45;&gt;Node5</title>
<path fill="none" stroke="midnightblue" d="M183,-56.5C193.32,-46.92 205.59,-35.53 215.26,-26.54"/>
<polygon fill="midnightblue" stroke="midnightblue" points="217.74,-29.02 222.68,-19.65 212.97,-23.89 217.74,-29.02"/>
</g>
<!-- Node6 -->
<g id="node6" class="node">
<title>Node6</title>
<g id="a_node6"><a xlink:title=" ">
<polygon fill="white" stroke="#bfbfbf" points="275,-0.5 275,-19.5 335,-19.5 335,-0.5 275,-0.5"/>
<text text-anchor="middle" x="305" y="-7.5" font-family="Helvetica,sans-Serif" font-size="10.00">iostream</text>
</a>
</g>
</g>
<!-- Node1&#45;&gt;Node6 -->
<g id="edge5" class="edge">
<title>Node1&#45;&gt;Node6</title>
<path fill="none" stroke="midnightblue" d="M204.9,-56.5C228.2,-45.91 256.34,-33.12 276.85,-23.8"/>
<polygon fill="midnightblue" stroke="midnightblue" points="278.31,-26.98 285.96,-19.65 275.41,-20.6 278.31,-26.98"/>
</g>
</g>
</svg>
