<?xml version="1.0" encoding="UTF-8" standalone="no"?>
<!DOCTYPE svg PUBLIC "-//W3C//DTD SVG 1.1//EN"
 "http://www.w3.org/Graphics/SVG/1.1/DTD/svg11.dtd">
<!-- Generated by graphviz version 2.43.0 (0)
 -->
<!-- Title: LLVMFuzzerTestOneInput Pages: 1 -->
<svg width="417pt" height="85pt"
 viewBox="0.00 0.00 417.00 85.00" xmlns="http://www.w3.org/2000/svg" xmlns:xlink="http://www.w3.org/1999/xlink">
<g id="graph0" class="graph" transform="scale(1 1) rotate(0) translate(4 81)">
<title>LLVMFuzzerTestOneInput</title>
<polygon fill="white" stroke="transparent" points="-4,4 -4,-81 413,-81 413,4 -4,4"/>
<!-- Node1 -->
<g id="node1" class="node">
<title>Node1</title>
<g id="a_node1"><a xlink:title=" ">
<polygon fill="#bfbfbf" stroke="black" points="0,-19.5 0,-38.5 137,-38.5 137,-19.5 0,-19.5"/>
<text text-anchor="middle" x="68.5" y="-26.5" font-family="Helvetica,sans-Serif" font-size="10.00">LLVMFuzzerTestOneInput</text>
</a>
</g>
</g>
<!-- Node2 -->
<g id="node2" class="node">
<title>Node2</title>
<g id="a_node2"><a xlink:href="CallerCalleeTest_8cpp.html#ad3331d629ae678297530f2d1814544d5" target="_top" xlink:title=" ">
<polygon fill="white" stroke="black" points="173,-57.5 173,-76.5 205,-76.5 205,-57.5 173,-57.5"/>
<text text-anchor="middle" x="189" y="-64.5" font-family="Helvetica,sans-Serif" font-size="10.00">f01</text>
</a>
</g>
</g>
<!-- Node1&#45;&gt;Node2 -->
<g id="edge1" class="edge">
<title>Node1&#45;&gt;Node2</title>
<path fill="none" stroke="midnightblue" d="M99.4,-38.59C119.19,-44.93 144.81,-53.15 163.41,-59.12"/>
<polygon fill="midnightblue" stroke="midnightblue" points="162.35,-62.45 172.94,-62.17 164.49,-55.78 162.35,-62.45"/>
</g>
<!-- Node3 -->
<g id="node3" class="node">
<title>Node3</title>
<g id="a_node3"><a xlink:href="CallerCalleeTest_8cpp.html#a7717ffac7b5850e2d42a62289ee3b498" target="_top" xlink:title=" ">
<polygon fill="white" stroke="black" points="241,-19.5 241,-38.5 273,-38.5 273,-19.5 241,-19.5"/>
<text text-anchor="middle" x="257" y="-26.5" font-family="Helvetica,sans-Serif" font-size="10.00">f12</text>
</a>
</g>
</g>
<!-- Node1&#45;&gt;Node3 -->
<g id="edge5" class="edge">
<title>Node1&#45;&gt;Node3</title>
<path fill="none" stroke="midnightblue" d="M137.09,-29C169.64,-29 206.7,-29 230.68,-29"/>
<polygon fill="midnightblue" stroke="midnightblue" points="230.71,-32.5 240.71,-29 230.71,-25.5 230.71,-32.5"/>
</g>
<!-- Node4 -->
<g id="node4" class="node">
<title>Node4</title>
<g id="a_node4"><a xlink:href="CallerCalleeTest_8cpp.html#ab0e6dd94d25dbc58d96b4b18c2598014" target="_top" xlink:title=" ">
<polygon fill="white" stroke="black" points="309,-0.5 309,-19.5 341,-19.5 341,-0.5 309,-0.5"/>
<text text-anchor="middle" x="325" y="-7.5" font-family="Helvetica,sans-Serif" font-size="10.00">f23</text>
</a>
</g>
</g>
<!-- Node1&#45;&gt;Node4 -->
<g id="edge6" class="edge">
<title>Node1&#45;&gt;Node4</title>
<path fill="none" stroke="midnightblue" d="M137.38,-19.74C168.83,-15.89 206.75,-11.89 241,-10 260.29,-8.93 282.14,-8.99 298.57,-9.27"/>
<polygon fill="midnightblue" stroke="midnightblue" points="298.92,-12.78 308.99,-9.5 299.07,-5.78 298.92,-12.78"/>
</g>
<!-- Node2&#45;&gt;Node3 -->
<g id="edge2" class="edge">
<title>Node2&#45;&gt;Node3</title>
<path fill="none" stroke="midnightblue" d="M205.31,-58.19C213.22,-53.63 223.06,-47.96 231.96,-42.84"/>
<polygon fill="midnightblue" stroke="midnightblue" points="233.86,-45.79 240.78,-37.77 230.36,-39.72 233.86,-45.79"/>
</g>
<!-- Node3&#45;&gt;Node4 -->
<g id="edge3" class="edge">
<title>Node3&#45;&gt;Node4</title>
<path fill="none" stroke="midnightblue" d="M273.31,-24.59C280.97,-22.39 290.44,-19.66 299.12,-17.16"/>
<polygon fill="midnightblue" stroke="midnightblue" points="300.13,-20.51 308.78,-14.38 298.2,-13.79 300.13,-20.51"/>
</g>
<!-- Node5 -->
<g id="node5" class="node">
<title>Node5</title>
<g id="a_node5"><a xlink:href="CallerCalleeTest_8cpp.html#aa018fd54adb9bd1335971321cf4f3177" target="_top" xlink:title=" ">
<polygon fill="white" stroke="black" points="377,-0.5 377,-19.5 409,-19.5 409,-0.5 377,-0.5"/>
<text text-anchor="middle" x="393" y="-7.5" font-family="Helvetica,sans-Serif" font-size="10.00">f34</text>
</a>
</g>
</g>
<!-- Node4&#45;&gt;Node5 -->
<g id="edge4" class="edge">
<title>Node4&#45;&gt;Node5</title>
<path fill="none" stroke="midnightblue" d="M341.31,-10C348.8,-10 358.03,-10 366.55,-10"/>
<polygon fill="midnightblue" stroke="midnightblue" points="366.78,-13.5 376.78,-10 366.78,-6.5 366.78,-13.5"/>
</g>
</g>
</svg>
