<?xml version="1.0" encoding="UTF-8" standalone="no"?>
<!DOCTYPE svg PUBLIC "-//W3C//DTD SVG 1.1//EN"
 "http://www.w3.org/Graphics/SVG/1.1/DTD/svg11.dtd">
<!-- Generated by graphviz version 2.43.0 (0)
 -->
<!-- Title: mc_orchestrator/json&#45;3.7.3/doc/examples/cend.cpp Pages: 1 -->
<svg width="196pt" height="95pt"
 viewBox="0.00 0.00 196.00 95.00" xmlns="http://www.w3.org/2000/svg" xmlns:xlink="http://www.w3.org/1999/xlink">
<g id="graph0" class="graph" transform="scale(1 1) rotate(0) translate(4 91)">
<title>mc_orchestrator/json&#45;3.7.3/doc/examples/cend.cpp</title>
<polygon fill="white" stroke="transparent" points="-4,4 -4,-91 192,-91 192,4 -4,4"/>
<!-- Node1 -->
<g id="node1" class="node">
<title>Node1</title>
<g id="a_node1"><a xlink:title=" ">
<polygon fill="#bfbfbf" stroke="black" points="0,-56.5 0,-86.5 162,-86.5 162,-56.5 0,-56.5"/>
<text text-anchor="start" x="8" y="-74.5" font-family="Helvetica,sans-Serif" font-size="10.00">mc_orchestrator/json</text>
<text text-anchor="middle" x="81" y="-63.5" font-family="Helvetica,sans-Serif" font-size="10.00">&#45;3.7.3/doc/examples/cend.cpp</text>
</a>
</g>
</g>
<!-- Node2 -->
<g id="node2" class="node">
<title>Node2</title>
<g id="a_node2"><a xlink:title=" ">
<polygon fill="white" stroke="#bfbfbf" points="0,-0.5 0,-19.5 60,-19.5 60,-0.5 0,-0.5"/>
<text text-anchor="middle" x="30" y="-7.5" font-family="Helvetica,sans-Serif" font-size="10.00">iostream</text>
</a>
</g>
</g>
<!-- Node1&#45;&gt;Node2 -->
<g id="edge1" class="edge">
<title>Node1&#45;&gt;Node2</title>
<path fill="none" stroke="midnightblue" d="M68.91,-56.4C61.43,-47.66 51.78,-36.41 43.97,-27.3"/>
<polygon fill="midnightblue" stroke="midnightblue" points="46.59,-24.97 37.42,-19.66 41.27,-29.53 46.59,-24.97"/>
</g>
<!-- Node3 -->
<g id="node3" class="node">
<title>Node3</title>
<g id="a_node3"><a xlink:title=" ">
<polygon fill="white" stroke="#bfbfbf" points="78,-0.5 78,-19.5 188,-19.5 188,-0.5 78,-0.5"/>
<text text-anchor="middle" x="133" y="-7.5" font-family="Helvetica,sans-Serif" font-size="10.00">nlohmann/json.hpp</text>
</a>
</g>
</g>
<!-- Node1&#45;&gt;Node3 -->
<g id="edge2" class="edge">
<title>Node1&#45;&gt;Node3</title>
<path fill="none" stroke="midnightblue" d="M93.32,-56.4C100.96,-47.66 110.79,-36.41 118.76,-27.3"/>
<polygon fill="midnightblue" stroke="midnightblue" points="121.49,-29.49 125.43,-19.66 116.22,-24.88 121.49,-29.49"/>
</g>
</g>
</svg>
