<?xml version="1.0" encoding="UTF-8" standalone="no"?>
<!DOCTYPE svg PUBLIC "-//W3C//DTD SVG 1.1//EN"
 "http://www.w3.org/Graphics/SVG/1.1/DTD/svg11.dtd">
<!-- Generated by graphviz version 2.43.0 (0)
 -->
<!-- Title: nlohmann::basic_json::is_number_unsigned Pages: 1 -->
<svg width="289pt" height="116pt"
 viewBox="0.00 0.00 289.00 115.50" xmlns="http://www.w3.org/2000/svg" xmlns:xlink="http://www.w3.org/1999/xlink">
<g id="graph0" class="graph" transform="scale(1 1) rotate(0) translate(4 111.5)">
<title>nlohmann::basic_json::is_number_unsigned</title>
<polygon fill="white" stroke="transparent" points="-4,4 -4,-111.5 285,-111.5 285,4 -4,4"/>
<!-- Node1 -->
<g id="node1" class="node">
<title>Node1</title>
<g id="a_node1"><a xlink:title="return whether value is an unsigned integer number">
<polygon fill="#bfbfbf" stroke="black" points="158,-33 158,-63 281,-63 281,-33 158,-33"/>
<text text-anchor="start" x="166" y="-51" font-family="Helvetica,sans-Serif" font-size="10.00">nlohmann::basic_json</text>
<text text-anchor="middle" x="219.5" y="-40" font-family="Helvetica,sans-Serif" font-size="10.00">::is_number_unsigned</text>
</a>
</g>
</g>
<!-- Node2 -->
<g id="node2" class="node">
<title>Node2</title>
<g id="a_node2"><a xlink:href="classnlohmann_1_1basic__json.html#aa9aaed6b92909b263e04b5d25eba8d67" target="_top" xlink:title="get a pointer to the value (unsigned number)">
<polygon fill="white" stroke="black" points="0,-77 0,-107 122,-107 122,-77 0,-77"/>
<text text-anchor="start" x="8" y="-95" font-family="Helvetica,sans-Serif" font-size="10.00">nlohmann::basic_json</text>
<text text-anchor="middle" x="61" y="-84" font-family="Helvetica,sans-Serif" font-size="10.00">::get_impl_ptr</text>
</a>
</g>
</g>
<!-- Node1&#45;&gt;Node2 -->
<g id="edge1" class="edge">
<title>Node1&#45;&gt;Node2</title>
<path fill="none" stroke="midnightblue" d="M155.15,-65.81C141.97,-69.52 128.22,-73.38 115.45,-76.97"/>
<polygon fill="midnightblue" stroke="midnightblue" points="156.4,-69.1 165.08,-63.02 154.51,-62.36 156.4,-69.1"/>
</g>
<!-- Node3 -->
<g id="node3" class="node">
<title>Node3</title>
<g id="a_node3"><a xlink:href="is__number__unsigned_8cpp.html#ae66f6b31b5ad750f1fe042a706a4e3d4" target="_top" xlink:title=" ">
<polygon fill="white" stroke="black" points="40.5,-38.5 40.5,-57.5 81.5,-57.5 81.5,-38.5 40.5,-38.5"/>
<text text-anchor="middle" x="61" y="-45.5" font-family="Helvetica,sans-Serif" font-size="10.00">main</text>
</a>
</g>
</g>
<!-- Node1&#45;&gt;Node3 -->
<g id="edge2" class="edge">
<title>Node1&#45;&gt;Node3</title>
<path fill="none" stroke="midnightblue" d="M147.75,-48C123.66,-48 98.61,-48 81.85,-48"/>
<polygon fill="midnightblue" stroke="midnightblue" points="147.99,-51.5 157.99,-48 147.99,-44.5 147.99,-51.5"/>
</g>
<!-- Node4 -->
<g id="node4" class="node">
<title>Node4</title>
<g id="a_node4"><a xlink:href="unit-bson_8cpp.html#a4f9ffa47724af1f2b49e0204497d0e07" target="_top" xlink:title=" ">
<polygon fill="white" stroke="black" points="25.5,-0.5 25.5,-19.5 96.5,-19.5 96.5,-0.5 25.5,-0.5"/>
<text text-anchor="middle" x="61" y="-7.5" font-family="Helvetica,sans-Serif" font-size="10.00">TEST_CASE</text>
</a>
</g>
</g>
<!-- Node1&#45;&gt;Node4 -->
<g id="edge3" class="edge">
<title>Node1&#45;&gt;Node4</title>
<path fill="none" stroke="midnightblue" d="M148.13,-30.91C130.23,-26.57 111.78,-22.09 96.56,-18.39"/>
<polygon fill="midnightblue" stroke="midnightblue" points="147.45,-34.35 157.99,-33.31 149.1,-27.55 147.45,-34.35"/>
</g>
</g>
</svg>
