<?xml version="1.0" encoding="UTF-8" standalone="no"?>
<!DOCTYPE svg PUBLIC "-//W3C//DTD SVG 1.1//EN"
 "http://www.w3.org/Graphics/SVG/1.1/DTD/svg11.dtd">
<!-- Generated by graphviz version 2.43.0 (0)
 -->
<!-- Title: httplib::Server::bind_internal Pages: 1 -->
<!--zoomable 171 -->
<svg id="main" version="1.1" xmlns="http://www.w3.org/2000/svg" xmlns:xlink="http://www.w3.org/1999/xlink" xml:space="preserve" onload="init(evt)">
<style type="text/css"><![CDATA[
.edge:hover path { stroke: red; }
.edge:hover polygon { stroke: red; fill: red; }
]]></style>
<script type="text/javascript"><![CDATA[
var edges = document.getElementsByTagName('g');
if (edges && edges.length) {
  for (var i=0;i<edges.length;i++) {
    if (edges[i].id.substr(0,4)=='edge') {
      edges[i].setAttribute('class','edge');
    }
  }
}
]]></script>
        <defs>
                <circle id="rim" cx="0" cy="0" r="7"/>
                <circle id="rim2" cx="0" cy="0" r="3.5"/>
                <g id="zoomPlus">
                        <use xlink:href="#rim" fill="#404040">
                                <set attributeName="fill" to="#808080" begin="zoomplus.mouseover" end="zoomplus.mouseout"/>
                        </use>
                        <path d="M-4,0h8M0,-4v8" fill="none" stroke="white" stroke-width="1.5" pointer-events="none"/>
                </g>
                <g id="zoomMin">
                        <use xlink:href="#rim" fill="#404040">
                                <set attributeName="fill" to="#808080" begin="zoomminus.mouseover" end="zoomminus.mouseout"/>
                        </use>
                        <path d="M-4,0h8" fill="none" stroke="white" stroke-width="1.5" pointer-events="none"/>
                </g>
                <g id="dirArrow">
                        <path fill="none" stroke="white" stroke-width="1.5" d="M0,-3.0v7 M-2.5,-0.5L0,-3.0L2.5,-0.5"/>
                </g>
               <g id="resetDef">
                       <use xlink:href="#rim2" fill="#404040">
                               <set attributeName="fill" to="#808080" begin="reset.mouseover" end="reset.mouseout"/>
                       </use>
               </g>
        </defs>

<script type="text/javascript">
var viewWidth = 926;
var viewHeight = 171;
var sectionId = 'dynsection-3';
</script>
<script xlink:href="svgpan.js"/>
<svg id="graph" class="graph">
<g id="viewport">
<title>httplib::Server::bind_internal</title>
<polygon fill="white" stroke="transparent" points="-4,4 -4,-167 922,-167 922,4 -4,4"/>
<!-- Node1 -->
<g id="node1" class="node">
<title>Node1</title>
<g id="a_node1"><a xlink:title=" ">
<polygon fill="#bfbfbf" stroke="black" points="0,-41.5 0,-71.5 113,-71.5 113,-41.5 0,-41.5"/>
<text text-anchor="start" x="8" y="-59.5" font-family="Helvetica,sans-Serif" font-size="10.00">httplib::Server::bind</text>
<text text-anchor="middle" x="56.5" y="-48.5" font-family="Helvetica,sans-Serif" font-size="10.00">_internal</text>
</a>
</g>
</g>
<!-- Node2 -->
<g id="node2" class="node">
<title>Node2</title>
<g id="a_node2"><a xlink:href="classhttplib_1_1Server.html#a95489183f727c825e8a9ff041d31c35a" target="_top" xlink:title=" ">
<polygon fill="white" stroke="black" points="149,-90.5 149,-120.5 271,-120.5 271,-90.5 149,-90.5"/>
<text text-anchor="start" x="157" y="-108.5" font-family="Helvetica,sans-Serif" font-size="10.00">httplib::Server::create</text>
<text text-anchor="middle" x="210" y="-97.5" font-family="Helvetica,sans-Serif" font-size="10.00">_server_socket</text>
</a>
</g>
</g>
<!-- Node1&#45;&gt;Node2 -->
<g id="edge1" class="edge">
<title>Node1&#45;&gt;Node2</title>
<path fill="none" stroke="midnightblue" d="M104.19,-71.6C119.53,-76.56 136.74,-82.13 152.71,-87.29"/>
<polygon fill="midnightblue" stroke="midnightblue" points="151.87,-90.7 162.46,-90.45 154.03,-84.04 151.87,-90.7"/>
</g>
<!-- Node13 -->
<g id="node13" class="node">
<title>Node13</title>
<g id="a_node13"><a xlink:href="classhttplib_1_1Server.html#a4f02314a47adbae984a7483e8e820c05" target="_top" xlink:title=" ">
<polygon fill="white" stroke="black" points="160,-41.5 160,-71.5 260,-71.5 260,-41.5 160,-41.5"/>
<text text-anchor="start" x="168" y="-59.5" font-family="Helvetica,sans-Serif" font-size="10.00">httplib::Server::is</text>
<text text-anchor="middle" x="210" y="-48.5" font-family="Helvetica,sans-Serif" font-size="10.00">_valid</text>
</a>
</g>
</g>
<!-- Node1&#45;&gt;Node13 -->
<g id="edge14" class="edge">
<title>Node1&#45;&gt;Node13</title>
<path fill="none" stroke="midnightblue" d="M113.05,-56.5C125.06,-56.5 137.8,-56.5 149.94,-56.5"/>
<polygon fill="midnightblue" stroke="midnightblue" points="149.96,-60 159.96,-56.5 149.96,-53 149.96,-60"/>
</g>
<!-- Node3 -->
<g id="node3" class="node">
<title>Node3</title>
<g id="a_node3"><a xlink:href="namespacehttplib_1_1detail.html#ae07e72bdc26c6ad27d8e3051bfe4d912" target="_top" xlink:title=" ">
<polygon fill="white" stroke="black" points="307,-132.5 307,-162.5 426,-162.5 426,-132.5 307,-132.5"/>
<text text-anchor="start" x="315" y="-150.5" font-family="Helvetica,sans-Serif" font-size="10.00">httplib::detail::create</text>
<text text-anchor="middle" x="366.5" y="-139.5" font-family="Helvetica,sans-Serif" font-size="10.00">_socket</text>
</a>
</g>
</g>
<!-- Node2&#45;&gt;Node3 -->
<g id="edge2" class="edge">
<title>Node2&#45;&gt;Node3</title>
<path fill="none" stroke="midnightblue" d="M266.34,-120.54C277.39,-123.55 289.09,-126.73 300.44,-129.81"/>
<polygon fill="midnightblue" stroke="midnightblue" points="299.72,-133.24 310.29,-132.49 301.55,-126.49 299.72,-133.24"/>
</g>
<!-- Node6 -->
<g id="node6" class="node">
<title>Node6</title>
<g id="a_node6"><a xlink:href="FuzzerTracePC_8cpp.html#a04324001136ead9261bb82cc6bceea2f" target="_top" xlink:title=" ">
<polygon fill="white" stroke="black" points="352,-94 352,-113 381,-113 381,-94 352,-94"/>
<text text-anchor="middle" x="366.5" y="-101" font-family="Helvetica,sans-Serif" font-size="10.00">if</text>
</a>
</g>
</g>
<!-- Node2&#45;&gt;Node6 -->
<g id="edge5" class="edge">
<title>Node2&#45;&gt;Node6</title>
<path fill="none" stroke="midnightblue" d="M271.18,-104.72C295.82,-104.4 322.91,-104.05 341.71,-103.81"/>
<polygon fill="midnightblue" stroke="midnightblue" points="341.79,-107.31 351.74,-103.68 341.7,-100.31 341.79,-107.31"/>
</g>
<!-- Node7 -->
<g id="node7" class="node">
<title>Node7</title>
<g id="a_node7"><a xlink:href="classhttplib_1_1Server.html#a319d49f06dc5484b234bcc1f8e637fd3" target="_top" xlink:title=" ">
<polygon fill="white" stroke="black" points="307,-56 307,-75 426,-75 426,-56 307,-56"/>
<text text-anchor="middle" x="366.5" y="-63" font-family="Helvetica,sans-Serif" font-size="10.00">httplib::Server::listen</text>
</a>
</g>
</g>
<!-- Node2&#45;&gt;Node7 -->
<g id="edge6" class="edge">
<title>Node2&#45;&gt;Node7</title>
<path fill="none" stroke="midnightblue" d="M268.97,-90.49C285.41,-86.24 303.09,-81.66 318.77,-77.6"/>
<polygon fill="midnightblue" stroke="midnightblue" points="319.95,-80.91 328.75,-75.01 318.19,-74.13 319.95,-80.91"/>
</g>
<!-- Node4 -->
<g id="node4" class="node">
<title>Node4</title>
<g id="a_node4"><a xlink:href="namespacehttplib_1_1detail.html#ab97ddef67a99aee8ed2aec5e20d90286" target="_top" xlink:title=" ">
<polygon fill="white" stroke="black" points="632.5,-123.5 632.5,-153.5 745.5,-153.5 745.5,-123.5 632.5,-123.5"/>
<text text-anchor="start" x="640.5" y="-141.5" font-family="Helvetica,sans-Serif" font-size="10.00">httplib::detail::close</text>
<text text-anchor="middle" x="689" y="-130.5" font-family="Helvetica,sans-Serif" font-size="10.00">_socket</text>
</a>
</g>
</g>
<!-- Node3&#45;&gt;Node4 -->
<g id="edge3" class="edge">
<title>Node3&#45;&gt;Node4</title>
<path fill="none" stroke="midnightblue" d="M426.28,-145.85C481.69,-144.29 564.59,-141.97 622.18,-140.35"/>
<polygon fill="midnightblue" stroke="midnightblue" points="622.37,-143.84 632.27,-140.06 622.18,-136.85 622.37,-143.84"/>
</g>
<!-- Node5 -->
<g id="node5" class="node">
<title>Node5</title>
<g id="a_node5"><a xlink:href="namespacehttplib.html#a498c3a79825ecbcb15c52ec5fcfd5c11" target="_top" xlink:title=" ">
<polygon fill="white" stroke="black" points="473,-100 473,-119 570,-119 570,-100 473,-100"/>
<text text-anchor="middle" x="521.5" y="-107" font-family="Helvetica,sans-Serif" font-size="10.00">httplib::to_string</text>
</a>
</g>
</g>
<!-- Node3&#45;&gt;Node5 -->
<g id="edge4" class="edge">
<title>Node3&#45;&gt;Node5</title>
<path fill="none" stroke="midnightblue" d="M426.22,-132.92C441.42,-129.14 457.61,-125.12 472.21,-121.49"/>
<polygon fill="midnightblue" stroke="midnightblue" points="473.17,-124.86 482.03,-119.06 471.48,-118.07 473.17,-124.86"/>
</g>
<!-- Node8 -->
<g id="node8" class="node">
<title>Node8</title>
<g id="a_node8"><a xlink:href="classhttplib_1_1Server.html#a5bde755667689ba58fa80eedcc4fd2f3" target="_top" xlink:title=" ">
<polygon fill="white" stroke="black" points="465,-0.5 465,-30.5 578,-30.5 578,-0.5 465,-0.5"/>
<text text-anchor="start" x="473" y="-18.5" font-family="Helvetica,sans-Serif" font-size="10.00">httplib::Server::bind</text>
<text text-anchor="middle" x="521.5" y="-7.5" font-family="Helvetica,sans-Serif" font-size="10.00">_to_port</text>
</a>
</g>
</g>
<!-- Node7&#45;&gt;Node8 -->
<g id="edge7" class="edge">
<title>Node7&#45;&gt;Node8</title>
<path fill="none" stroke="midnightblue" d="M396.64,-55.98C415.83,-49.71 441.58,-41.29 464.63,-33.76"/>
<polygon fill="midnightblue" stroke="midnightblue" points="465.9,-37.02 474.32,-30.59 463.73,-30.37 465.9,-37.02"/>
</g>
<!-- Node9 -->
<g id="node9" class="node">
<title>Node9</title>
<g id="a_node9"><a xlink:href="classhttplib_1_1Server.html#a294f20bcfc35d82236ab92b76c16d862" target="_top" xlink:title=" ">
<polygon fill="white" stroke="black" points="462,-50.5 462,-80.5 581,-80.5 581,-50.5 462,-50.5"/>
<text text-anchor="start" x="470" y="-68.5" font-family="Helvetica,sans-Serif" font-size="10.00">httplib::Server::listen</text>
<text text-anchor="middle" x="521.5" y="-57.5" font-family="Helvetica,sans-Serif" font-size="10.00">_internal</text>
</a>
</g>
</g>
<!-- Node7&#45;&gt;Node9 -->
<g id="edge9" class="edge">
<title>Node7&#45;&gt;Node9</title>
<path fill="none" stroke="midnightblue" d="M426.22,-65.5C434.54,-65.5 443.17,-65.5 451.67,-65.5"/>
<polygon fill="midnightblue" stroke="midnightblue" points="451.94,-69 461.94,-65.5 451.94,-62 451.94,-69"/>
</g>
<!-- Node8&#45;&gt;Node1 -->
<g id="edge8" class="edge">
<title>Node8&#45;&gt;Node1</title>
<path fill="none" stroke="midnightblue" d="M464.73,-14.04C391.72,-13.01 259.98,-14.17 149,-31.5 137.67,-33.27 125.74,-35.92 114.37,-38.85"/>
<polygon fill="midnightblue" stroke="midnightblue" points="113.31,-35.51 104.55,-41.48 115.12,-42.28 113.31,-35.51"/>
</g>
<!-- Node9&#45;&gt;Node4 -->
<g id="edge10" class="edge">
<title>Node9&#45;&gt;Node4</title>
<path fill="none" stroke="midnightblue" d="M558.12,-80.6C565.68,-83.84 573.61,-87.27 581,-90.5 602.32,-99.84 625.93,-110.4 645.54,-119.24"/>
<polygon fill="midnightblue" stroke="midnightblue" points="644.26,-122.5 654.81,-123.43 647.14,-116.12 644.26,-122.5"/>
</g>
<!-- Node10 -->
<g id="node10" class="node">
<title>Node10</title>
<g id="a_node10"><a xlink:href="namespacehttplib_1_1detail.html#ade5583c2e13e0822f2a90227894d92fe" target="_top" xlink:title=" ">
<polygon fill="white" stroke="black" points="617,-66 617,-85 761,-85 761,-66 617,-66"/>
<text text-anchor="middle" x="689" y="-73" font-family="Helvetica,sans-Serif" font-size="10.00">httplib::detail::select_read</text>
</a>
</g>
</g>
<!-- Node9&#45;&gt;Node10 -->
<g id="edge11" class="edge">
<title>Node9&#45;&gt;Node10</title>
<path fill="none" stroke="midnightblue" d="M581.32,-69.05C589.6,-69.55 598.23,-70.08 606.83,-70.6"/>
<polygon fill="midnightblue" stroke="midnightblue" points="606.71,-74.09 616.91,-71.2 607.13,-67.11 606.71,-74.09"/>
</g>
<!-- Node12 -->
<g id="node12" class="node">
<title>Node12</title>
<g id="a_node12"><a xlink:href="namespacehttplib_1_1detail.html#a6fe756f70ad6d331f8269d1504ecc296" target="_top" xlink:title=" ">
<polygon fill="white" stroke="black" points="621.5,-16.5 621.5,-46.5 756.5,-46.5 756.5,-16.5 621.5,-16.5"/>
<text text-anchor="start" x="629.5" y="-34.5" font-family="Helvetica,sans-Serif" font-size="10.00">httplib::detail::shutdown</text>
<text text-anchor="middle" x="689" y="-23.5" font-family="Helvetica,sans-Serif" font-size="10.00">_socket</text>
</a>
</g>
</g>
<!-- Node9&#45;&gt;Node12 -->
<g id="edge13" class="edge">
<title>Node9&#45;&gt;Node12</title>
<path fill="none" stroke="midnightblue" d="M581.32,-53.42C591.07,-51.41 601.31,-49.31 611.43,-47.23"/>
<polygon fill="midnightblue" stroke="midnightblue" points="612.39,-50.61 621.48,-45.17 610.98,-43.75 612.39,-50.61"/>
</g>
<!-- Node11 -->
<g id="node11" class="node">
<title>Node11</title>
<g id="a_node11"><a xlink:href="namespacehttplib_1_1detail.html#a8fbaa8fefb24f6dd249b62f832f64a84" target="_top" xlink:title=" ">
<polygon fill="white" stroke="black" points="797,-60.5 797,-90.5 918,-90.5 918,-60.5 797,-60.5"/>
<text text-anchor="start" x="805" y="-78.5" font-family="Helvetica,sans-Serif" font-size="10.00">httplib::detail::handle</text>
<text text-anchor="middle" x="857.5" y="-67.5" font-family="Helvetica,sans-Serif" font-size="10.00">_EINTR</text>
</a>
</g>
</g>
<!-- Node10&#45;&gt;Node11 -->
<g id="edge12" class="edge">
<title>Node10&#45;&gt;Node11</title>
<path fill="none" stroke="midnightblue" d="M761.09,-75.5C769.58,-75.5 778.23,-75.5 786.7,-75.5"/>
<polygon fill="midnightblue" stroke="midnightblue" points="786.9,-79 796.9,-75.5 786.9,-72 786.9,-79"/>
</g>
</g>
</svg>
        <g id="navigator" transform="translate(0 0)" fill="#404254">
                <rect fill="#f2f5e9" fill-opacity="0.5" stroke="#606060" stroke-width=".5" x="0" y="0" width="60" height="60"/>
                <use id="zoomplus" xlink:href="#zoomPlus" x="17" y="9" onmousedown="handleZoom(evt,'in')"/>
                <use id="zoomminus" xlink:href="#zoomMin" x="42" y="9" onmousedown="handleZoom(evt,'out')"/>
                <use id="reset" xlink:href="#resetDef" x="30" y="36" onmousedown="handleReset()"/>
                <g id="arrowUp" xlink:href="#dirArrow" transform="translate(30 24)" onmousedown="handlePan(0,-1)">
                  <use xlink:href="#rim" fill="#404040">
                        <set attributeName="fill" to="#808080" begin="arrowUp.mouseover" end="arrowUp.mouseout"/>
                  </use>
                  <path fill="none" stroke="white" stroke-width="1.5" d="M0,-3.0v7 M-2.5,-0.5L0,-3.0L2.5,-0.5"/>
                </g>
                <g id="arrowRight" xlink:href="#dirArrow" transform="rotate(90) translate(36 -43)" onmousedown="handlePan(1,0)">
                  <use xlink:href="#rim" fill="#404040">
                        <set attributeName="fill" to="#808080" begin="arrowRight.mouseover" end="arrowRight.mouseout"/>
                  </use>
                  <path fill="none" stroke="white" stroke-width="1.5" d="M0,-3.0v7 M-2.5,-0.5L0,-3.0L2.5,-0.5"/>
                </g>
                <g id="arrowDown" xlink:href="#dirArrow" transform="rotate(180) translate(-30 -48)" onmousedown="handlePan(0,1)">
                  <use xlink:href="#rim" fill="#404040">
                        <set attributeName="fill" to="#808080" begin="arrowDown.mouseover" end="arrowDown.mouseout"/>
                  </use>
                  <path fill="none" stroke="white" stroke-width="1.5" d="M0,-3.0v7 M-2.5,-0.5L0,-3.0L2.5,-0.5"/>
                </g>
                <g id="arrowLeft" xlink:href="#dirArrow" transform="rotate(270) translate(-36 17)" onmousedown="handlePan(-1,0)">
                  <use xlink:href="#rim" fill="#404040">
                        <set attributeName="fill" to="#808080" begin="arrowLeft.mouseover" end="arrowLeft.mouseout"/>
                  </use>
                  <path fill="none" stroke="white" stroke-width="1.5" d="M0,-3.0v7 M-2.5,-0.5L0,-3.0L2.5,-0.5"/>
                </g>
        </g>
        <svg viewBox="0 0 15 15" width="100%" height="30px" preserveAspectRatio="xMaxYMin meet">
         <g id="arrow_out" transform="scale(0.3 0.3)">
          <a xlink:href="classhttplib_1_1Server_a238aa1a28613b9639977816292427208_cgraph_org.svg" target="_base">
           <rect id="button" ry="5" rx="5" y="6" x="6" height="38" width="38"
                fill="#f2f5e9" fill-opacity="0.5" stroke="#606060" stroke-width="1.0"/>
           <path id="arrow"
             d="M 11.500037,31.436501 C 11.940474,20.09759 22.043105,11.32322 32.158766,21.979434 L 37.068811,17.246167 C 37.068811,17.246167 37.088388,32 37.088388,32 L 22.160133,31.978069 C 22.160133,31.978069 26.997745,27.140456 26.997745,27.140456 C 18.528582,18.264221 13.291696,25.230495 11.500037,31.436501 z"
             style="fill:#404040;"/>
          </a>
         </g>
        </svg>
</svg>
