<?xml version="1.0" encoding="UTF-8" standalone="no"?>
<!DOCTYPE svg PUBLIC "-//W3C//DTD SVG 1.1//EN"
 "http://www.w3.org/Graphics/SVG/1.1/DTD/svg11.dtd">
<!-- Generated by graphviz version 2.43.0 (0)
 -->
<!-- Title: httplib::ThreadPool Pages: 1 -->
<svg width="147pt" height="303pt"
 viewBox="0.00 0.00 147.00 303.00" xmlns="http://www.w3.org/2000/svg" xmlns:xlink="http://www.w3.org/1999/xlink">
<g id="graph0" class="graph" transform="scale(1 1) rotate(0) translate(4 299)">
<title>httplib::ThreadPool</title>
<polygon fill="white" stroke="transparent" points="-4,4 -4,-299 143,-299 143,4 -4,4"/>
<!-- Node1 -->
<g id="node1" class="node">
<title>Node1</title>
<g id="a_node1"><a xlink:title=" ">
<polygon fill="#bfbfbf" stroke="black" points="0,-0.5 0,-156.5 139,-156.5 139,-0.5 0,-0.5"/>
<text text-anchor="middle" x="69.5" y="-144.5" font-family="Helvetica,sans-Serif" font-size="10.00">httplib::ThreadPool</text>
<polyline fill="none" stroke="black" points="0,-137.5 139,-137.5 "/>
<text text-anchor="start" x="8" y="-125.5" font-family="Helvetica,sans-Serif" font-size="10.00">&#45; threads_</text>
<text text-anchor="start" x="8" y="-114.5" font-family="Helvetica,sans-Serif" font-size="10.00">&#45; jobs_</text>
<text text-anchor="start" x="8" y="-103.5" font-family="Helvetica,sans-Serif" font-size="10.00">&#45; shutdown_</text>
<text text-anchor="start" x="8" y="-92.5" font-family="Helvetica,sans-Serif" font-size="10.00">&#45; max_queued_requests_</text>
<text text-anchor="start" x="8" y="-81.5" font-family="Helvetica,sans-Serif" font-size="10.00">&#45; cond_</text>
<text text-anchor="start" x="8" y="-70.5" font-family="Helvetica,sans-Serif" font-size="10.00">&#45; mutex_</text>
<polyline fill="none" stroke="black" points="0,-63.5 139,-63.5 "/>
<text text-anchor="start" x="8" y="-51.5" font-family="Helvetica,sans-Serif" font-size="10.00">+ ThreadPool()</text>
<text text-anchor="start" x="8" y="-40.5" font-family="Helvetica,sans-Serif" font-size="10.00">+ ThreadPool()</text>
<text text-anchor="start" x="8" y="-29.5" font-family="Helvetica,sans-Serif" font-size="10.00">+ ~ThreadPool()</text>
<text text-anchor="start" x="8" y="-18.5" font-family="Helvetica,sans-Serif" font-size="10.00">+ enqueue()</text>
<text text-anchor="start" x="8" y="-7.5" font-family="Helvetica,sans-Serif" font-size="10.00">+ shutdown()</text>
</a>
</g>
</g>
<!-- Node2 -->
<g id="node2" class="node">
<title>Node2</title>
<g id="a_node2"><a xlink:href="classhttplib_1_1TaskQueue.html" target="_top" xlink:title=" ">
<polygon fill="white" stroke="black" points="16,-193.5 16,-294.5 123,-294.5 123,-193.5 16,-193.5"/>
<text text-anchor="middle" x="69.5" y="-282.5" font-family="Helvetica,sans-Serif" font-size="10.00">httplib::TaskQueue</text>
<polyline fill="none" stroke="black" points="16,-275.5 123,-275.5 "/>
<text text-anchor="middle" x="69.5" y="-263.5" font-family="Helvetica,sans-Serif" font-size="10.00"> </text>
<polyline fill="none" stroke="black" points="16,-256.5 123,-256.5 "/>
<text text-anchor="start" x="24" y="-244.5" font-family="Helvetica,sans-Serif" font-size="10.00">+ TaskQueue()</text>
<text text-anchor="start" x="24" y="-233.5" font-family="Helvetica,sans-Serif" font-size="10.00">+ ~TaskQueue()</text>
<text text-anchor="start" x="24" y="-222.5" font-family="Helvetica,sans-Serif" font-size="10.00">+ enqueue()</text>
<text text-anchor="start" x="24" y="-211.5" font-family="Helvetica,sans-Serif" font-size="10.00">+ shutdown()</text>
<text text-anchor="start" x="24" y="-200.5" font-family="Helvetica,sans-Serif" font-size="10.00">+ on_idle()</text>
</a>
</g>
</g>
<!-- Node2&#45;&gt;Node1 -->
<g id="edge1" class="edge">
<title>Node2&#45;&gt;Node1</title>
<path fill="none" stroke="midnightblue" d="M69.5,-182.82C69.5,-174.26 69.5,-165.36 69.5,-156.54"/>
<polygon fill="none" stroke="midnightblue" points="66,-183.06 69.5,-193.06 73,-183.06 66,-183.06"/>
</g>
</g>
</svg>
