<?xml version="1.0" encoding="UTF-8" standalone="no"?>
<!DOCTYPE svg PUBLIC "-//W3C//DTD SVG 1.1//EN"
 "http://www.w3.org/Graphics/SVG/1.1/DTD/svg11.dtd">
<!-- Generated by graphviz version 2.43.0 (0)
 -->
<!-- Title: benchmark::State::KeepRunningInternal Pages: 1 -->
<svg width="498pt" height="116pt"
 viewBox="0.00 0.00 498.00 115.50" xmlns="http://www.w3.org/2000/svg" xmlns:xlink="http://www.w3.org/1999/xlink">
<g id="graph0" class="graph" transform="scale(1 1) rotate(0) translate(4 111.5)">
<title>benchmark::State::KeepRunningInternal</title>
<polygon fill="white" stroke="transparent" points="-4,4 -4,-111.5 494,-111.5 494,4 -4,4"/>
<!-- Node1 -->
<g id="node1" class="node">
<title>Node1</title>
<g id="a_node1"><a xlink:title=" ">
<polygon fill="#bfbfbf" stroke="black" points="317,-22.5 317,-52.5 490,-52.5 490,-22.5 317,-22.5"/>
<text text-anchor="start" x="325" y="-40.5" font-family="Helvetica,sans-Serif" font-size="10.00">benchmark::State::KeepRunning</text>
<text text-anchor="middle" x="403.5" y="-29.5" font-family="Helvetica,sans-Serif" font-size="10.00">Internal</text>
</a>
</g>
</g>
<!-- Node2 -->
<g id="node2" class="node">
<title>Node2</title>
<g id="a_node2"><a xlink:href="classbenchmark_1_1State.html#a2188056d2b8b203d0de4166f7eca2648" target="_top" xlink:title=" ">
<polygon fill="white" stroke="black" points="108,-50 108,-69 281,-69 281,-50 108,-50"/>
<text text-anchor="middle" x="194.5" y="-57" font-family="Helvetica,sans-Serif" font-size="10.00">benchmark::State::KeepRunning</text>
</a>
</g>
</g>
<!-- Node1&#45;&gt;Node2 -->
<g id="edge1" class="edge">
<title>Node1&#45;&gt;Node2</title>
<path fill="none" stroke="midnightblue" d="M306.8,-47.67C298.24,-48.58 289.6,-49.5 281.12,-50.4"/>
<polygon fill="midnightblue" stroke="midnightblue" points="307.24,-51.14 316.81,-46.61 306.5,-44.18 307.24,-51.14"/>
</g>
<!-- Node6 -->
<g id="node6" class="node">
<title>Node6</title>
<g id="a_node6"><a xlink:href="classbenchmark_1_1State.html#a226c7db9cdc39a32d41dbb32ae22dc06" target="_top" xlink:title=" ">
<polygon fill="white" stroke="black" points="108,-0.5 108,-30.5 281,-30.5 281,-0.5 108,-0.5"/>
<text text-anchor="start" x="116" y="-18.5" font-family="Helvetica,sans-Serif" font-size="10.00">benchmark::State::KeepRunning</text>
<text text-anchor="middle" x="194.5" y="-7.5" font-family="Helvetica,sans-Serif" font-size="10.00">Batch</text>
</a>
</g>
</g>
<!-- Node1&#45;&gt;Node6 -->
<g id="edge5" class="edge">
<title>Node1&#45;&gt;Node6</title>
<path fill="none" stroke="midnightblue" d="M306.8,-27.33C298.24,-26.42 289.6,-25.5 281.12,-24.6"/>
<polygon fill="midnightblue" stroke="midnightblue" points="306.5,-30.82 316.81,-28.39 307.24,-23.86 306.5,-30.82"/>
</g>
<!-- Node3 -->
<g id="node3" class="node">
<title>Node3</title>
<g id="a_node3"><a xlink:href="benchmarks_8cpp.html#a127b432467f7f5f314bd6455584269e0" target="_top" xlink:title=" ">
<polygon fill="white" stroke="black" points="13,-88 13,-107 59,-107 59,-88 13,-88"/>
<text text-anchor="middle" x="36" y="-95" font-family="Helvetica,sans-Serif" font-size="10.00">Dump</text>
</a>
</g>
</g>
<!-- Node2&#45;&gt;Node3 -->
<g id="edge2" class="edge">
<title>Node2&#45;&gt;Node3</title>
<path fill="none" stroke="midnightblue" d="M144.19,-71.47C115.62,-78.41 81.08,-86.8 59.07,-92.14"/>
<polygon fill="midnightblue" stroke="midnightblue" points="145.12,-74.85 154.01,-69.09 143.46,-68.05 145.12,-74.85"/>
</g>
<!-- Node4 -->
<g id="node4" class="node">
<title>Node4</title>
<g id="a_node4"><a xlink:href="benchmarks_8cpp.html#acaf833f136690a0b9eb55539d792d694" target="_top" xlink:title=" ">
<polygon fill="white" stroke="black" points="6,-50 6,-69 66,-69 66,-50 6,-50"/>
<text text-anchor="middle" x="36" y="-57" font-family="Helvetica,sans-Serif" font-size="10.00">ParseFile</text>
</a>
</g>
</g>
<!-- Node2&#45;&gt;Node4 -->
<g id="edge3" class="edge">
<title>Node2&#45;&gt;Node4</title>
<path fill="none" stroke="midnightblue" d="M97.82,-59.5C86.44,-59.5 75.59,-59.5 66.28,-59.5"/>
<polygon fill="midnightblue" stroke="midnightblue" points="97.92,-63 107.92,-59.5 97.92,-56 97.92,-63"/>
</g>
<!-- Node5 -->
<g id="node5" class="node">
<title>Node5</title>
<g id="a_node5"><a xlink:href="benchmarks_8cpp.html#a57ec848ad2646d54d57787f0afaa8abb" target="_top" xlink:title=" ">
<polygon fill="white" stroke="black" points="0,-12 0,-31 72,-31 72,-12 0,-12"/>
<text text-anchor="middle" x="36" y="-19" font-family="Helvetica,sans-Serif" font-size="10.00">ParseString</text>
</a>
</g>
</g>
<!-- Node2&#45;&gt;Node5 -->
<g id="edge4" class="edge">
<title>Node2&#45;&gt;Node5</title>
<path fill="none" stroke="midnightblue" d="M142.39,-47.71C131.05,-45.05 119.11,-42.21 108,-39.5 96.39,-36.67 83.73,-33.49 72.36,-30.6"/>
<polygon fill="midnightblue" stroke="midnightblue" points="141.62,-51.12 152.15,-49.99 143.21,-44.3 141.62,-51.12"/>
</g>
</g>
</svg>
