<?xml version="1.0" encoding="UTF-8" standalone="no"?>
<!DOCTYPE svg PUBLIC "-//W3C//DTD SVG 1.1//EN"
 "http://www.w3.org/Graphics/SVG/1.1/DTD/svg11.dtd">
<!-- Generated by graphviz version 2.43.0 (0)
 -->
<!-- Title: fuzzer::MutationDispatcher::AddWordToAutoDictionary Pages: 1 -->
<svg width="1078pt" height="88pt"
 viewBox="0.00 0.00 1078.00 88.00" xmlns="http://www.w3.org/2000/svg" xmlns:xlink="http://www.w3.org/1999/xlink">
<g id="graph0" class="graph" transform="scale(1 1) rotate(0) translate(4 84)">
<title>fuzzer::MutationDispatcher::AddWordToAutoDictionary</title>
<polygon fill="white" stroke="transparent" points="-4,4 -4,-84 1074,-84 1074,4 -4,4"/>
<!-- Node1 -->
<g id="node1" class="node">
<title>Node1</title>
<g id="a_node1"><a xlink:title=" ">
<polygon fill="#bfbfbf" stroke="black" points="920,-24.5 920,-54.5 1070,-54.5 1070,-24.5 920,-24.5"/>
<text text-anchor="start" x="928" y="-42.5" font-family="Helvetica,sans-Serif" font-size="10.00">fuzzer::MutationDispatcher</text>
<text text-anchor="middle" x="995" y="-31.5" font-family="Helvetica,sans-Serif" font-size="10.00">::AddWordToAutoDictionary</text>
</a>
</g>
</g>
<!-- Node2 -->
<g id="node2" class="node">
<title>Node2</title>
<g id="a_node2"><a xlink:href="classfuzzer_1_1TraceState.html#a7e610df0349a397e09d67a10c251dc07" target="_top" xlink:title=" ">
<polygon fill="white" stroke="black" points="747,-49.5 747,-79.5 866,-79.5 866,-49.5 747,-49.5"/>
<text text-anchor="start" x="755" y="-67.5" font-family="Helvetica,sans-Serif" font-size="10.00">fuzzer::TraceState</text>
<text text-anchor="middle" x="806.5" y="-56.5" font-family="Helvetica,sans-Serif" font-size="10.00">::StopTraceRecording</text>
</a>
</g>
</g>
<!-- Node1&#45;&gt;Node2 -->
<g id="edge1" class="edge">
<title>Node1&#45;&gt;Node2</title>
<path fill="none" stroke="midnightblue" d="M909.67,-50.8C895.01,-52.77 880.06,-54.77 866.27,-56.62"/>
<polygon fill="midnightblue" stroke="midnightblue" points="910.31,-54.25 919.75,-49.45 909.38,-47.31 910.31,-54.25"/>
</g>
<!-- Node8 -->
<g id="node8" class="node">
<title>Node8</title>
<g id="a_node8"><a xlink:href="FuzzerUnittest_8cpp.html#abaa5673e660442bca4e55dd4b1fa58a6" target="_top" xlink:title=" ">
<polygon fill="white" stroke="black" points="729,-0.5 729,-30.5 884,-30.5 884,-0.5 729,-0.5"/>
<text text-anchor="start" x="737" y="-18.5" font-family="Helvetica,sans-Serif" font-size="10.00">TestAddWordFromDictionary</text>
<text text-anchor="middle" x="806.5" y="-7.5" font-family="Helvetica,sans-Serif" font-size="10.00">WithHint</text>
</a>
</g>
</g>
<!-- Node1&#45;&gt;Node8 -->
<g id="edge7" class="edge">
<title>Node1&#45;&gt;Node8</title>
<path fill="none" stroke="midnightblue" d="M909.82,-28.67C901.3,-27.57 892.67,-26.46 884.24,-25.38"/>
<polygon fill="midnightblue" stroke="midnightblue" points="909.39,-32.14 919.75,-29.95 910.28,-25.2 909.39,-32.14"/>
</g>
<!-- Node3 -->
<g id="node3" class="node">
<title>Node3</title>
<g id="a_node3"><a xlink:href="classfuzzer_1_1Fuzzer.html#a6e90e1017376db8debf0658f03cda9dc" target="_top" xlink:title=" ">
<polygon fill="white" stroke="black" points="555,-49.5 555,-79.5 693,-79.5 693,-49.5 555,-49.5"/>
<text text-anchor="start" x="563" y="-67.5" font-family="Helvetica,sans-Serif" font-size="10.00">fuzzer::Fuzzer::StopTrace</text>
<text text-anchor="middle" x="624" y="-56.5" font-family="Helvetica,sans-Serif" font-size="10.00">Recording</text>
</a>
</g>
</g>
<!-- Node2&#45;&gt;Node3 -->
<g id="edge2" class="edge">
<title>Node2&#45;&gt;Node3</title>
<path fill="none" stroke="midnightblue" d="M736.65,-64.5C722.35,-64.5 707.3,-64.5 693.04,-64.5"/>
<polygon fill="midnightblue" stroke="midnightblue" points="736.9,-68 746.9,-64.5 736.9,-61 736.9,-68"/>
</g>
<!-- Node4 -->
<g id="node4" class="node">
<title>Node4</title>
<g id="a_node4"><a xlink:href="classfuzzer_1_1Fuzzer.html#a9c3b80798ae30570306d7f938961dec3" target="_top" xlink:title=" ">
<polygon fill="white" stroke="black" points="376,-49.5 376,-79.5 519,-79.5 519,-49.5 376,-49.5"/>
<text text-anchor="start" x="384" y="-67.5" font-family="Helvetica,sans-Serif" font-size="10.00">fuzzer::Fuzzer::MutateAnd</text>
<text text-anchor="middle" x="447.5" y="-56.5" font-family="Helvetica,sans-Serif" font-size="10.00">TestOne</text>
</a>
</g>
</g>
<!-- Node3&#45;&gt;Node4 -->
<g id="edge3" class="edge">
<title>Node3&#45;&gt;Node4</title>
<path fill="none" stroke="midnightblue" d="M544.57,-64.5C536.14,-64.5 527.59,-64.5 519.26,-64.5"/>
<polygon fill="midnightblue" stroke="midnightblue" points="544.78,-68 554.78,-64.5 544.78,-61 544.78,-68"/>
</g>
<!-- Node5 -->
<g id="node5" class="node">
<title>Node5</title>
<g id="a_node5"><a xlink:href="classfuzzer_1_1Fuzzer.html#a0306e29f06ced3d24ed0417ea2fef34b" target="_top" xlink:title=" ">
<polygon fill="white" stroke="black" points="227,-55 227,-74 340,-74 340,-55 227,-55"/>
<text text-anchor="middle" x="283.5" y="-62" font-family="Helvetica,sans-Serif" font-size="10.00">fuzzer::Fuzzer::Loop</text>
</a>
</g>
</g>
<!-- Node4&#45;&gt;Node5 -->
<g id="edge4" class="edge">
<title>Node4&#45;&gt;Node5</title>
<path fill="none" stroke="midnightblue" d="M365.79,-64.5C357.15,-64.5 348.5,-64.5 340.24,-64.5"/>
<polygon fill="midnightblue" stroke="midnightblue" points="365.92,-68 375.92,-64.5 365.92,-61 365.92,-68"/>
</g>
<!-- Node6 -->
<g id="node6" class="node">
<title>Node6</title>
<g id="a_node6"><a xlink:href="namespacefuzzer.html#a78f142089de84c6cbf7b5cab5f766af7" target="_top" xlink:title=" ">
<polygon fill="white" stroke="black" points="77,-55 77,-74 191,-74 191,-55 77,-55"/>
<text text-anchor="middle" x="134" y="-62" font-family="Helvetica,sans-Serif" font-size="10.00">fuzzer::FuzzerDriver</text>
</a>
</g>
</g>
<!-- Node5&#45;&gt;Node6 -->
<g id="edge5" class="edge">
<title>Node5&#45;&gt;Node6</title>
<path fill="none" stroke="midnightblue" d="M216.56,-64.5C208.14,-64.5 199.58,-64.5 191.33,-64.5"/>
<polygon fill="midnightblue" stroke="midnightblue" points="216.74,-68 226.74,-64.5 216.74,-61 216.74,-68"/>
</g>
<!-- Node7 -->
<g id="node7" class="node">
<title>Node7</title>
<g id="a_node7"><a xlink:href="FuzzerMain_8cpp.html#a3c04138a5bfe5d72780bb7e82a18e627" target="_top" xlink:title=" ">
<polygon fill="white" stroke="black" points="0,-55 0,-74 41,-74 41,-55 0,-55"/>
<text text-anchor="middle" x="20.5" y="-62" font-family="Helvetica,sans-Serif" font-size="10.00">main</text>
</a>
</g>
</g>
<!-- Node6&#45;&gt;Node7 -->
<g id="edge6" class="edge">
<title>Node6&#45;&gt;Node7</title>
<path fill="none" stroke="midnightblue" d="M66.7,-64.5C57.37,-64.5 48.45,-64.5 41.04,-64.5"/>
<polygon fill="midnightblue" stroke="midnightblue" points="66.92,-68 76.92,-64.5 66.92,-61 66.92,-68"/>
</g>
<!-- Node9 -->
<g id="node9" class="node">
<title>Node9</title>
<g id="a_node9"><a xlink:href="FuzzerUnittest_8cpp.html#adf6154fdc787c7f7c87d1f8d95ddaf9f" target="_top" xlink:title=" ">
<polygon fill="white" stroke="black" points="603.5,-6 603.5,-25 644.5,-25 644.5,-6 603.5,-6"/>
<text text-anchor="middle" x="624" y="-13" font-family="Helvetica,sans-Serif" font-size="10.00">TEST</text>
</a>
</g>
</g>
<!-- Node8&#45;&gt;Node9 -->
<g id="edge8" class="edge">
<title>Node8&#45;&gt;Node9</title>
<path fill="none" stroke="midnightblue" d="M718.74,-15.5C690.92,-15.5 662.65,-15.5 644.54,-15.5"/>
<polygon fill="midnightblue" stroke="midnightblue" points="718.95,-19 728.95,-15.5 718.95,-12 718.95,-19"/>
</g>
</g>
</svg>
