<?xml version="1.0" encoding="UTF-8" standalone="no"?>
<!DOCTYPE svg PUBLIC "-//W3C//DTD SVG 1.1//EN"
 "http://www.w3.org/Graphics/SVG/1.1/DTD/svg11.dtd">
<!-- Generated by graphviz version 2.43.0 (0)
 -->
<!-- Title: fuzzer::Fuzzer::InFuzzingThread Pages: 1 -->
<svg width="1176pt" height="607pt"
 viewBox="0.00 0.00 1176.00 607.00" xmlns="http://www.w3.org/2000/svg" xmlns:xlink="http://www.w3.org/1999/xlink">
<g id="graph0" class="graph" transform="scale(1 1) rotate(0) translate(4 603)">
<title>fuzzer::Fuzzer::InFuzzingThread</title>
<polygon fill="white" stroke="transparent" points="-4,4 -4,-603 1172,-603 1172,4 -4,4"/>
<!-- Node1 -->
<g id="node1" class="node">
<title>Node1</title>
<g id="a_node1"><a xlink:title=" ">
<polygon fill="#bfbfbf" stroke="black" points="1032,-189.5 1032,-219.5 1168,-219.5 1168,-189.5 1032,-189.5"/>
<text text-anchor="start" x="1040" y="-207.5" font-family="Helvetica,sans-Serif" font-size="10.00">fuzzer::Fuzzer::InFuzzing</text>
<text text-anchor="middle" x="1100" y="-196.5" font-family="Helvetica,sans-Serif" font-size="10.00">Thread</text>
</a>
</g>
</g>
<!-- Node2 -->
<g id="node2" class="node">
<title>Node2</title>
<g id="a_node2"><a xlink:href="classfuzzer_1_1TraceState.html#a956f37bcffd013e84d1f014a739b3a23" target="_top" xlink:title=" ">
<polygon fill="white" stroke="black" points="851,-494.5 851,-524.5 970,-524.5 970,-494.5 851,-494.5"/>
<text text-anchor="start" x="859" y="-512.5" font-family="Helvetica,sans-Serif" font-size="10.00">fuzzer::TraceState</text>
<text text-anchor="middle" x="910.5" y="-501.5" font-family="Helvetica,sans-Serif" font-size="10.00">::AddInterestingWord</text>
</a>
</g>
</g>
<!-- Node1&#45;&gt;Node2 -->
<g id="edge1" class="edge">
<title>Node1&#45;&gt;Node2</title>
<path fill="none" stroke="midnightblue" d="M1088.56,-229.03C1071.53,-268.01 1035.66,-345.87 996,-406.5 974.22,-439.79 943.56,-474.84 925.79,-494.26"/>
<polygon fill="midnightblue" stroke="midnightblue" points="1091.91,-230.12 1092.67,-219.55 1085.48,-227.34 1091.91,-230.12"/>
</g>
<!-- Node6 -->
<g id="node6" class="node">
<title>Node6</title>
<g id="a_node6"><a xlink:href="classfuzzer_1_1Fuzzer.html#a88dc9a27d88b016acd54fb8671cc5471" target="_top" xlink:title=" ">
<polygon fill="white" stroke="black" points="830,-378 830,-397 991,-397 991,-378 830,-378"/>
<text text-anchor="middle" x="910.5" y="-385" font-family="Helvetica,sans-Serif" font-size="10.00">fuzzer::Fuzzer::AlarmCallback</text>
</a>
</g>
</g>
<!-- Node1&#45;&gt;Node6 -->
<g id="edge5" class="edge">
<title>Node1&#45;&gt;Node6</title>
<path fill="none" stroke="midnightblue" d="M1080.17,-227.32C1060.2,-251.02 1027.29,-288.73 996,-318.5 972.12,-341.21 941.67,-364.93 924.61,-377.79"/>
<polygon fill="midnightblue" stroke="midnightblue" points="1082.93,-229.47 1086.67,-219.55 1077.56,-224.97 1082.93,-229.47"/>
</g>
<!-- Node8 -->
<g id="node8" class="node">
<title>Node8</title>
<g id="a_node8"><a xlink:href="classfuzzer_1_1Fuzzer.html#a5a299bed53a0c2d2ffd6557c173f7e40" target="_top" xlink:title=" ">
<polygon fill="white" stroke="black" points="825,-290 825,-309 996,-309 996,-290 825,-290"/>
<text text-anchor="middle" x="910.5" y="-297" font-family="Helvetica,sans-Serif" font-size="10.00">fuzzer::Fuzzer::ExecuteCallback</text>
</a>
</g>
</g>
<!-- Node1&#45;&gt;Node8 -->
<g id="edge7" class="edge">
<title>Node1&#45;&gt;Node8</title>
<path fill="none" stroke="midnightblue" d="M1060.18,-224.17C1020.58,-244.23 960.78,-274.53 930.51,-289.87"/>
<polygon fill="midnightblue" stroke="midnightblue" points="1061.95,-227.19 1069.29,-219.55 1058.79,-220.95 1061.95,-227.19"/>
</g>
<!-- Node23 -->
<g id="node23" class="node">
<title>Node23</title>
<g id="a_node23"><a xlink:href="classfuzzer_1_1Fuzzer.html#af1d13fc1411234ad0cb2b10175d71141" target="_top" xlink:title=" ">
<polygon fill="white" stroke="black" points="839,-76.5 839,-106.5 982,-106.5 982,-76.5 839,-76.5"/>
<text text-anchor="start" x="847" y="-94.5" font-family="Helvetica,sans-Serif" font-size="10.00">fuzzer::Fuzzer::GetCurrent</text>
<text text-anchor="middle" x="910.5" y="-83.5" font-family="Helvetica,sans-Serif" font-size="10.00">UnitInFuzzingThead</text>
</a>
</g>
</g>
<!-- Node1&#45;&gt;Node23 -->
<g id="edge33" class="edge">
<title>Node1&#45;&gt;Node23</title>
<path fill="none" stroke="midnightblue" d="M1065.18,-184.12C1028.14,-161.79 969.61,-126.52 936.5,-106.57"/>
<polygon fill="midnightblue" stroke="midnightblue" points="1063.73,-187.33 1074.1,-189.49 1067.34,-181.33 1063.73,-187.33"/>
</g>
<!-- Node25 -->
<g id="node25" class="node">
<title>Node25</title>
<g id="a_node25"><a xlink:href="classfuzzer_1_1TraceState.html#a19ca7e78b3705def9767cef2d55d04ca" target="_top" xlink:title=" ">
<polygon fill="white" stroke="black" points="453.5,-49.5 453.5,-79.5 590.5,-79.5 590.5,-49.5 453.5,-49.5"/>
<text text-anchor="start" x="461.5" y="-67.5" font-family="Helvetica,sans-Serif" font-size="10.00">fuzzer::TraceState</text>
<text text-anchor="middle" x="522" y="-56.5" font-family="Helvetica,sans-Serif" font-size="10.00">::TraceMemcmpCallback</text>
</a>
</g>
</g>
<!-- Node1&#45;&gt;Node25 -->
<g id="edge42" class="edge">
<title>Node1&#45;&gt;Node25</title>
<path fill="none" stroke="midnightblue" d="M1027.05,-187.01C912.97,-159.28 692.52,-105.7 585,-79.57"/>
<polygon fill="midnightblue" stroke="midnightblue" points="1026.54,-190.49 1037.08,-189.45 1028.19,-183.69 1026.54,-190.49"/>
</g>
<!-- Node31 -->
<g id="node31" class="node">
<title>Node31</title>
<g id="a_node31"><a xlink:href="classfuzzer_1_1TraceState.html#a90c1b3e1c63873c2ea8faa00ad29d411" target="_top" xlink:title=" ">
<polygon fill="white" stroke="black" points="460.5,-0.5 460.5,-30.5 583.5,-30.5 583.5,-0.5 460.5,-0.5"/>
<text text-anchor="start" x="468.5" y="-18.5" font-family="Helvetica,sans-Serif" font-size="10.00">fuzzer::TraceState</text>
<text text-anchor="middle" x="522" y="-7.5" font-family="Helvetica,sans-Serif" font-size="10.00">::TraceSwitchCallback</text>
</a>
</g>
</g>
<!-- Node1&#45;&gt;Node31 -->
<g id="edge43" class="edge">
<title>Node1&#45;&gt;Node31</title>
<path fill="none" stroke="midnightblue" d="M1088.36,-180.18C1073,-148.22 1041.36,-93.06 996,-66.5 865.21,10.07 678.89,3.08 583.85,-7.03"/>
<polygon fill="midnightblue" stroke="midnightblue" points="1085.21,-181.71 1092.61,-189.29 1091.56,-178.75 1085.21,-181.71"/>
</g>
<!-- Node3 -->
<g id="node3" class="node">
<title>Node3</title>
<g id="a_node3"><a xlink:href="FuzzerTraceState_8cpp.html#ad23cfacebb288a76b35317abb1a5c85d" target="_top" xlink:title=" ">
<polygon fill="white" stroke="black" points="648,-568.5 648,-598.5 778,-598.5 778,-568.5 648,-568.5"/>
<text text-anchor="start" x="656" y="-586.5" font-family="Helvetica,sans-Serif" font-size="10.00">__sanitizer_weak_hook</text>
<text text-anchor="middle" x="713" y="-575.5" font-family="Helvetica,sans-Serif" font-size="10.00">_memmem</text>
</a>
</g>
</g>
<!-- Node2&#45;&gt;Node3 -->
<g id="edge2" class="edge">
<title>Node2&#45;&gt;Node3</title>
<path fill="none" stroke="midnightblue" d="M865.88,-528.63C843.15,-538.34 814.77,-550.05 789,-559.5 780.66,-562.56 771.72,-565.61 763.02,-568.47"/>
<polygon fill="midnightblue" stroke="midnightblue" points="867.45,-531.77 875.26,-524.6 864.69,-525.33 867.45,-531.77"/>
</g>
<!-- Node4 -->
<g id="node4" class="node">
<title>Node4</title>
<g id="a_node4"><a xlink:href="FuzzerTraceState_8cpp.html#a08388689c8a8dbaaf40f45eb9018366e" target="_top" xlink:title=" ">
<polygon fill="white" stroke="black" points="648,-519.5 648,-549.5 778,-549.5 778,-519.5 648,-519.5"/>
<text text-anchor="start" x="656" y="-537.5" font-family="Helvetica,sans-Serif" font-size="10.00">__sanitizer_weak_hook</text>
<text text-anchor="middle" x="713" y="-526.5" font-family="Helvetica,sans-Serif" font-size="10.00">_strcasestr</text>
</a>
</g>
</g>
<!-- Node2&#45;&gt;Node4 -->
<g id="edge3" class="edge">
<title>Node2&#45;&gt;Node4</title>
<path fill="none" stroke="midnightblue" d="M840.7,-518.3C820.33,-520.9 798.13,-523.74 778.07,-526.31"/>
<polygon fill="midnightblue" stroke="midnightblue" points="841.37,-521.74 850.84,-517 840.48,-514.8 841.37,-521.74"/>
</g>
<!-- Node5 -->
<g id="node5" class="node">
<title>Node5</title>
<g id="a_node5"><a xlink:href="FuzzerTraceState_8cpp.html#aa47ef7f01d1be7ebfd06392bb5f5b0d8" target="_top" xlink:title=" ">
<polygon fill="white" stroke="black" points="648,-470.5 648,-500.5 778,-500.5 778,-470.5 648,-470.5"/>
<text text-anchor="start" x="656" y="-488.5" font-family="Helvetica,sans-Serif" font-size="10.00">__sanitizer_weak_hook</text>
<text text-anchor="middle" x="713" y="-477.5" font-family="Helvetica,sans-Serif" font-size="10.00">_strstr</text>
</a>
</g>
</g>
<!-- Node2&#45;&gt;Node5 -->
<g id="edge4" class="edge">
<title>Node2&#45;&gt;Node5</title>
<path fill="none" stroke="midnightblue" d="M840.7,-501.05C820.33,-498.55 798.13,-495.83 778.07,-493.37"/>
<polygon fill="midnightblue" stroke="midnightblue" points="840.49,-504.55 850.84,-502.3 841.34,-497.61 840.49,-504.55"/>
</g>
<!-- Node7 -->
<g id="node7" class="node">
<title>Node7</title>
<g id="a_node7"><a xlink:href="classfuzzer_1_1Fuzzer.html#a8e5cc850a9e02c0650f196981ced0b78" target="_top" xlink:title=" ">
<polygon fill="white" stroke="black" points="639.5,-421.5 639.5,-451.5 786.5,-451.5 786.5,-421.5 639.5,-421.5"/>
<text text-anchor="start" x="647.5" y="-439.5" font-family="Helvetica,sans-Serif" font-size="10.00">fuzzer::Fuzzer::StaticAlarm</text>
<text text-anchor="middle" x="713" y="-428.5" font-family="Helvetica,sans-Serif" font-size="10.00">Callback</text>
</a>
</g>
</g>
<!-- Node6&#45;&gt;Node7 -->
<g id="edge6" class="edge">
<title>Node6&#45;&gt;Node7</title>
<path fill="none" stroke="midnightblue" d="M861.57,-399.51C835.15,-406.14 802.11,-414.42 773.99,-421.46"/>
<polygon fill="midnightblue" stroke="midnightblue" points="862.49,-402.89 871.34,-397.06 860.79,-396.1 862.49,-402.89"/>
</g>
<!-- Node9 -->
<g id="node9" class="node">
<title>Node9</title>
<g id="a_node9"><a xlink:href="classfuzzer_1_1Fuzzer.html#a960f37bdf1d61e7043609ace07d411e4" target="_top" xlink:title=" ">
<polygon fill="white" stroke="black" points="243,-376.5 243,-406.5 407,-406.5 407,-376.5 243,-376.5"/>
<text text-anchor="start" x="251" y="-394.5" font-family="Helvetica,sans-Serif" font-size="10.00">fuzzer::Fuzzer::CrashResistant</text>
<text text-anchor="middle" x="325" y="-383.5" font-family="Helvetica,sans-Serif" font-size="10.00">MergeInternalStep</text>
</a>
</g>
</g>
<!-- Node8&#45;&gt;Node9 -->
<g id="edge8" class="edge">
<title>Node8&#45;&gt;Node9</title>
<path fill="none" stroke="midnightblue" d="M879.82,-313.29C855.81,-323.89 820.87,-338.11 789,-346.5 658.37,-380.87 500.81,-389.54 407.26,-391.42"/>
<polygon fill="midnightblue" stroke="midnightblue" points="881.39,-316.42 889.08,-309.13 878.53,-310.03 881.39,-316.42"/>
</g>
<!-- Node12 -->
<g id="node12" class="node">
<title>Node12</title>
<g id="a_node12"><a xlink:href="classfuzzer_1_1Fuzzer.html#a89cb175e3dd6b4e14beb716a8a64f10c" target="_top" xlink:title=" ">
<polygon fill="white" stroke="black" points="649,-246 649,-265 777,-265 777,-246 649,-246"/>
<text text-anchor="middle" x="713" y="-253" font-family="Helvetica,sans-Serif" font-size="10.00">fuzzer::Fuzzer::RunOne</text>
</a>
</g>
</g>
<!-- Node8&#45;&gt;Node12 -->
<g id="edge11" class="edge">
<title>Node8&#45;&gt;Node12</title>
<path fill="none" stroke="midnightblue" d="M857.14,-287.72C825.58,-280.61 785.91,-271.68 756.34,-265.03"/>
<polygon fill="midnightblue" stroke="midnightblue" points="856.55,-291.17 867.08,-289.95 858.09,-284.34 856.55,-291.17"/>
</g>
<!-- Node21 -->
<g id="node21" class="node">
<title>Node21</title>
<g id="a_node21"><a xlink:href="classfuzzer_1_1Fuzzer.html#a368fcca328a7e72c500caf081227f7ef" target="_top" xlink:title=" ">
<polygon fill="white" stroke="black" points="450.5,-333.5 450.5,-363.5 593.5,-363.5 593.5,-333.5 450.5,-333.5"/>
<text text-anchor="start" x="458.5" y="-351.5" font-family="Helvetica,sans-Serif" font-size="10.00">fuzzer::Fuzzer::ShuffleAnd</text>
<text text-anchor="middle" x="522" y="-340.5" font-family="Helvetica,sans-Serif" font-size="10.00">Minimize</text>
</a>
</g>
</g>
<!-- Node8&#45;&gt;Node21 -->
<g id="edge27" class="edge">
<title>Node8&#45;&gt;Node21</title>
<path fill="none" stroke="midnightblue" d="M859.35,-311.25C837.8,-315.94 812.26,-321.05 789,-324.5 723.07,-334.28 647.31,-340.64 593.55,-344.35"/>
<polygon fill="midnightblue" stroke="midnightblue" points="860.26,-314.63 869.26,-309.05 858.74,-307.79 860.26,-314.63"/>
</g>
<!-- Node22 -->
<g id="node22" class="node">
<title>Node22</title>
<g id="a_node22"><a xlink:href="classfuzzer_1_1Fuzzer.html#a7b4edc3276350436fe6ed3f4200b0226" target="_top" xlink:title=" ">
<polygon fill="white" stroke="black" points="637,-284.5 637,-314.5 789,-314.5 789,-284.5 637,-284.5"/>
<text text-anchor="start" x="645" y="-302.5" font-family="Helvetica,sans-Serif" font-size="10.00">fuzzer::Fuzzer::TryDetecting</text>
<text text-anchor="middle" x="713" y="-291.5" font-family="Helvetica,sans-Serif" font-size="10.00">AMemoryLeak</text>
</a>
</g>
</g>
<!-- Node8&#45;&gt;Node22 -->
<g id="edge28" class="edge">
<title>Node8&#45;&gt;Node22</title>
<path fill="none" stroke="midnightblue" d="M814.83,-299.5C806.23,-299.5 797.61,-299.5 789.21,-299.5"/>
<polygon fill="midnightblue" stroke="midnightblue" points="814.89,-303 824.89,-299.5 814.89,-296 814.89,-303"/>
</g>
<!-- Node10 -->
<g id="node10" class="node">
<title>Node10</title>
<g id="a_node10"><a xlink:href="namespacefuzzer.html#a78f142089de84c6cbf7b5cab5f766af7" target="_top" xlink:title=" ">
<polygon fill="white" stroke="black" points="85,-268 85,-287 199,-287 199,-268 85,-268"/>
<text text-anchor="middle" x="142" y="-275" font-family="Helvetica,sans-Serif" font-size="10.00">fuzzer::FuzzerDriver</text>
</a>
</g>
</g>
<!-- Node9&#45;&gt;Node10 -->
<g id="edge9" class="edge">
<title>Node9&#45;&gt;Node10</title>
<path fill="none" stroke="midnightblue" d="M269.34,-372.61C260.31,-368.73 251.22,-364.33 243,-359.5 206.61,-338.11 169.74,-303.91 152.72,-287.25"/>
<polygon fill="midnightblue" stroke="midnightblue" points="268.11,-375.89 278.69,-376.46 270.78,-369.41 268.11,-375.89"/>
</g>
<!-- Node11 -->
<g id="node11" class="node">
<title>Node11</title>
<g id="a_node11"><a xlink:href="FuzzerMain_8cpp.html#a3c04138a5bfe5d72780bb7e82a18e627" target="_top" xlink:title=" ">
<polygon fill="white" stroke="black" points="0,-268 0,-287 41,-287 41,-268 0,-268"/>
<text text-anchor="middle" x="20.5" y="-275" font-family="Helvetica,sans-Serif" font-size="10.00">main</text>
</a>
</g>
</g>
<!-- Node10&#45;&gt;Node11 -->
<g id="edge10" class="edge">
<title>Node10&#45;&gt;Node11</title>
<path fill="none" stroke="midnightblue" d="M74.5,-277.5C62.35,-277.5 50.57,-277.5 41.22,-277.5"/>
<polygon fill="midnightblue" stroke="midnightblue" points="74.75,-281 84.75,-277.5 74.75,-274 74.75,-281"/>
</g>
<!-- Node13 -->
<g id="node13" class="node">
<title>Node13</title>
<g id="a_node13"><a xlink:href="classfuzzer_1_1Fuzzer.html#a6a4abd6692ba305867fcb7df7bfe79cc" target="_top" xlink:title=" ">
<polygon fill="white" stroke="black" points="454.5,-98.5 454.5,-128.5 589.5,-128.5 589.5,-98.5 454.5,-98.5"/>
<text text-anchor="start" x="462.5" y="-116.5" font-family="Helvetica,sans-Serif" font-size="10.00">fuzzer::Fuzzer::FindExtra</text>
<text text-anchor="middle" x="522" y="-105.5" font-family="Helvetica,sans-Serif" font-size="10.00">Units</text>
</a>
</g>
</g>
<!-- Node12&#45;&gt;Node13 -->
<g id="edge12" class="edge">
<title>Node12&#45;&gt;Node13</title>
<path fill="none" stroke="midnightblue" d="M695.51,-238.55C680.25,-222.81 656.97,-198.69 637,-177.5 620.82,-160.33 620.89,-151.19 601,-138.5 595.01,-134.68 588.38,-131.39 581.59,-128.58"/>
<polygon fill="midnightblue" stroke="midnightblue" points="693.22,-241.22 702.7,-245.95 698.24,-236.34 693.22,-241.22"/>
</g>
<!-- Node15 -->
<g id="node15" class="node">
<title>Node15</title>
<g id="a_node15"><a xlink:href="classfuzzer_1_1Fuzzer.html#a54326d89b0de8eb858c70dfa78c5cc57" target="_top" xlink:title=" ">
<polygon fill="white" stroke="black" points="454.5,-284.5 454.5,-314.5 589.5,-314.5 589.5,-284.5 454.5,-284.5"/>
<text text-anchor="start" x="462.5" y="-302.5" font-family="Helvetica,sans-Serif" font-size="10.00">fuzzer::Fuzzer::Minimize</text>
<text text-anchor="middle" x="522" y="-291.5" font-family="Helvetica,sans-Serif" font-size="10.00">CrashLoop</text>
</a>
</g>
</g>
<!-- Node12&#45;&gt;Node15 -->
<g id="edge15" class="edge">
<title>Node12&#45;&gt;Node15</title>
<path fill="none" stroke="midnightblue" d="M660.95,-267.38C638.41,-272.63 611.64,-278.86 587.71,-284.43"/>
<polygon fill="midnightblue" stroke="midnightblue" points="662.04,-270.72 670.99,-265.05 660.46,-263.91 662.04,-270.72"/>
</g>
<!-- Node17 -->
<g id="node17" class="node">
<title>Node17</title>
<g id="a_node17"><a xlink:href="classfuzzer_1_1Fuzzer.html#a9c3b80798ae30570306d7f938961dec3" target="_top" xlink:title=" ">
<polygon fill="white" stroke="black" points="450.5,-196.5 450.5,-226.5 593.5,-226.5 593.5,-196.5 450.5,-196.5"/>
<text text-anchor="start" x="458.5" y="-214.5" font-family="Helvetica,sans-Serif" font-size="10.00">fuzzer::Fuzzer::MutateAnd</text>
<text text-anchor="middle" x="522" y="-203.5" font-family="Helvetica,sans-Serif" font-size="10.00">TestOne</text>
</a>
</g>
</g>
<!-- Node12&#45;&gt;Node17 -->
<g id="edge18" class="edge">
<title>Node12&#45;&gt;Node17</title>
<path fill="none" stroke="midnightblue" d="M660.95,-243.62C638.41,-238.37 611.64,-232.14 587.71,-226.57"/>
<polygon fill="midnightblue" stroke="midnightblue" points="660.46,-247.09 670.99,-245.95 662.04,-240.28 660.46,-247.09"/>
</g>
<!-- Node19 -->
<g id="node19" class="node">
<title>Node19</title>
<g id="a_node19"><a xlink:href="classfuzzer_1_1Fuzzer.html#a44506dc46253928eb73397091d6c4c32" target="_top" xlink:title=" ">
<polygon fill="white" stroke="black" points="443,-147.5 443,-177.5 601,-177.5 601,-147.5 443,-147.5"/>
<text text-anchor="start" x="451" y="-165.5" font-family="Helvetica,sans-Serif" font-size="10.00">fuzzer::Fuzzer::RereadOutput</text>
<text text-anchor="middle" x="522" y="-154.5" font-family="Helvetica,sans-Serif" font-size="10.00">Corpus</text>
</a>
</g>
</g>
<!-- Node12&#45;&gt;Node19 -->
<g id="edge21" class="edge">
<title>Node12&#45;&gt;Node19</title>
<path fill="none" stroke="midnightblue" d="M690.37,-240.08C668.61,-225.1 633.68,-202.48 601,-187.5 593.11,-183.88 584.56,-180.57 576.1,-177.63"/>
<polygon fill="midnightblue" stroke="midnightblue" points="688.37,-242.96 698.58,-245.8 692.37,-237.21 688.37,-242.96"/>
</g>
<!-- Node20 -->
<g id="node20" class="node">
<title>Node20</title>
<g id="a_node20"><a xlink:href="namespacefuzzer.html#a1fe190c22f9575ec572ce81d57c7e483" target="_top" xlink:title=" ">
<polygon fill="white" stroke="black" points="467,-246 467,-265 577,-265 577,-246 467,-246"/>
<text text-anchor="middle" x="522" y="-253" font-family="Helvetica,sans-Serif" font-size="10.00">fuzzer::RunOneTest</text>
</a>
</g>
</g>
<!-- Node12&#45;&gt;Node20 -->
<g id="edge23" class="edge">
<title>Node12&#45;&gt;Node20</title>
<path fill="none" stroke="midnightblue" d="M638.59,-255.5C618.18,-255.5 596.38,-255.5 577.28,-255.5"/>
<polygon fill="midnightblue" stroke="midnightblue" points="638.8,-259 648.8,-255.5 638.8,-252 638.8,-259"/>
</g>
<!-- Node12&#45;&gt;Node21 -->
<g id="edge25" class="edge">
<title>Node12&#45;&gt;Node21</title>
<path fill="none" stroke="midnightblue" d="M648.43,-269.05C644.42,-270.93 640.57,-273.06 637,-275.5 614.68,-290.73 623.03,-308.85 601,-324.5 596.15,-327.95 590.79,-330.91 585.22,-333.45"/>
<polygon fill="midnightblue" stroke="midnightblue" points="650.08,-272.15 658,-265.12 647.42,-265.68 650.08,-272.15"/>
</g>
<!-- Node14 -->
<g id="node14" class="node">
<title>Node14</title>
<g id="a_node14"><a xlink:href="classfuzzer_1_1Fuzzer.html#aad1ef6d2a186b7b2462363111398e54e" target="_top" xlink:title=" ">
<polygon fill="white" stroke="black" points="264.5,-156 264.5,-175 385.5,-175 385.5,-156 264.5,-156"/>
<text text-anchor="middle" x="325" y="-163" font-family="Helvetica,sans-Serif" font-size="10.00">fuzzer::Fuzzer::Merge</text>
</a>
</g>
</g>
<!-- Node13&#45;&gt;Node14 -->
<g id="edge13" class="edge">
<title>Node13&#45;&gt;Node14</title>
<path fill="none" stroke="midnightblue" d="M454.67,-131.19C423.53,-139.49 387.65,-149.06 361.7,-155.98"/>
<polygon fill="midnightblue" stroke="midnightblue" points="455.84,-134.5 464.6,-128.54 454.03,-127.74 455.84,-134.5"/>
</g>
<!-- Node14&#45;&gt;Node10 -->
<g id="edge14" class="edge">
<title>Node14&#45;&gt;Node10</title>
<path fill="none" stroke="midnightblue" d="M275.64,-178.26C264.56,-182.09 253.09,-186.82 243,-192.5 205.08,-213.86 168.08,-250.66 151.73,-267.98"/>
<polygon fill="midnightblue" stroke="midnightblue" points="276.8,-181.56 285.22,-175.13 274.63,-174.91 276.8,-181.56"/>
</g>
<!-- Node16 -->
<g id="node16" class="node">
<title>Node16</title>
<g id="a_node16"><a xlink:href="namespacefuzzer.html#a1553a49adb4d4d19b4f4dd52ff54cb68" target="_top" xlink:title=" ">
<polygon fill="white" stroke="black" points="250,-284.5 250,-314.5 400,-314.5 400,-284.5 250,-284.5"/>
<text text-anchor="start" x="258" y="-302.5" font-family="Helvetica,sans-Serif" font-size="10.00">fuzzer::MinimizeCrashInput</text>
<text text-anchor="middle" x="325" y="-291.5" font-family="Helvetica,sans-Serif" font-size="10.00">InternalStep</text>
</a>
</g>
</g>
<!-- Node15&#45;&gt;Node16 -->
<g id="edge16" class="edge">
<title>Node15&#45;&gt;Node16</title>
<path fill="none" stroke="midnightblue" d="M444.07,-299.5C429.66,-299.5 414.62,-299.5 400.29,-299.5"/>
<polygon fill="midnightblue" stroke="midnightblue" points="444.44,-303 454.44,-299.5 444.44,-296 444.44,-303"/>
</g>
<!-- Node16&#45;&gt;Node10 -->
<g id="edge17" class="edge">
<title>Node16&#45;&gt;Node10</title>
<path fill="none" stroke="midnightblue" d="M239.83,-289.27C225.99,-287.59 211.95,-285.88 199.01,-284.31"/>
<polygon fill="midnightblue" stroke="midnightblue" points="239.51,-292.76 249.86,-290.49 240.35,-285.81 239.51,-292.76"/>
</g>
<!-- Node18 -->
<g id="node18" class="node">
<title>Node18</title>
<g id="a_node18"><a xlink:href="classfuzzer_1_1Fuzzer.html#a0306e29f06ced3d24ed0417ea2fef34b" target="_top" xlink:title=" ">
<polygon fill="white" stroke="black" points="268.5,-202 268.5,-221 381.5,-221 381.5,-202 268.5,-202"/>
<text text-anchor="middle" x="325" y="-209" font-family="Helvetica,sans-Serif" font-size="10.00">fuzzer::Fuzzer::Loop</text>
</a>
</g>
</g>
<!-- Node17&#45;&gt;Node18 -->
<g id="edge19" class="edge">
<title>Node17&#45;&gt;Node18</title>
<path fill="none" stroke="midnightblue" d="M440.16,-211.5C420.52,-211.5 399.95,-211.5 381.77,-211.5"/>
<polygon fill="midnightblue" stroke="midnightblue" points="440.32,-215 450.32,-211.5 440.32,-208 440.32,-215"/>
</g>
<!-- Node18&#45;&gt;Node10 -->
<g id="edge20" class="edge">
<title>Node18&#45;&gt;Node10</title>
<path fill="none" stroke="midnightblue" d="M288.28,-224.53C253.16,-237.33 200.4,-256.57 169.06,-268"/>
<polygon fill="midnightblue" stroke="midnightblue" points="289.49,-227.81 297.68,-221.1 287.09,-221.23 289.49,-227.81"/>
</g>
<!-- Node19&#45;&gt;Node18 -->
<g id="edge22" class="edge">
<title>Node19&#45;&gt;Node18</title>
<path fill="none" stroke="midnightblue" d="M451.34,-180C421.88,-187.41 388.73,-195.74 363.92,-201.97"/>
<polygon fill="midnightblue" stroke="midnightblue" points="452.32,-183.37 461.17,-177.53 450.62,-176.58 452.32,-183.37"/>
</g>
<!-- Node20&#45;&gt;Node10 -->
<g id="edge24" class="edge">
<title>Node20&#45;&gt;Node10</title>
<path fill="none" stroke="midnightblue" d="M456.5,-259.25C384.16,-263.46 267.99,-270.23 199.22,-274.23"/>
<polygon fill="midnightblue" stroke="midnightblue" points="457.06,-262.73 466.84,-258.65 456.66,-255.74 457.06,-262.73"/>
</g>
<!-- Node21&#45;&gt;Node10 -->
<g id="edge26" class="edge">
<title>Node21&#45;&gt;Node10</title>
<path fill="none" stroke="midnightblue" d="M440.16,-348.99C383.98,-347.53 307.85,-341.94 243,-324.5 211.69,-316.08 178.14,-298.29 158.95,-287.18"/>
<polygon fill="midnightblue" stroke="midnightblue" points="440.34,-352.5 450.41,-349.22 440.49,-345.5 440.34,-352.5"/>
</g>
<!-- Node22&#45;&gt;Node15 -->
<g id="edge29" class="edge">
<title>Node22&#45;&gt;Node15</title>
<path fill="none" stroke="midnightblue" d="M626.47,-299.5C614.15,-299.5 601.62,-299.5 589.73,-299.5"/>
<polygon fill="midnightblue" stroke="midnightblue" points="626.76,-303 636.76,-299.5 626.76,-296 626.76,-303"/>
</g>
<!-- Node22&#45;&gt;Node17 -->
<g id="edge30" class="edge">
<title>Node22&#45;&gt;Node17</title>
<path fill="none" stroke="midnightblue" d="M647.37,-280.33C643.78,-278.54 640.29,-276.6 637,-274.5 617.38,-262 620.69,-248.88 601,-236.5 594.98,-232.72 588.34,-229.46 581.54,-226.66"/>
<polygon fill="midnightblue" stroke="midnightblue" points="645.94,-283.52 656.49,-284.48 648.84,-277.15 645.94,-283.52"/>
</g>
<!-- Node22&#45;&gt;Node20 -->
<g id="edge31" class="edge">
<title>Node22&#45;&gt;Node20</title>
<path fill="none" stroke="midnightblue" d="M637.61,-282.18C612.5,-276.34 585.4,-270.03 563.86,-265.01"/>
<polygon fill="midnightblue" stroke="midnightblue" points="636.95,-285.62 647.49,-284.48 638.54,-278.8 636.95,-285.62"/>
</g>
<!-- Node22&#45;&gt;Node21 -->
<g id="edge32" class="edge">
<title>Node22&#45;&gt;Node21</title>
<path fill="none" stroke="midnightblue" d="M644.31,-317.05C623.55,-322.43 600.92,-328.3 580.88,-333.49"/>
<polygon fill="midnightblue" stroke="midnightblue" points="645.21,-320.43 654.01,-314.53 643.45,-313.66 645.21,-320.43"/>
</g>
<!-- Node24 -->
<g id="node24" class="node">
<title>Node24</title>
<g id="a_node24"><a xlink:href="classfuzzer_1_1TraceState.html#acf2bff66ee5368a9ca0d44d2926a5d6c" target="_top" xlink:title=" ">
<polygon fill="white" stroke="black" points="649,-49.5 649,-79.5 777,-79.5 777,-49.5 649,-49.5"/>
<text text-anchor="start" x="657" y="-67.5" font-family="Helvetica,sans-Serif" font-size="10.00">fuzzer::TraceState</text>
<text text-anchor="middle" x="713" y="-56.5" font-family="Helvetica,sans-Serif" font-size="10.00">::TryToAddDesiredData</text>
</a>
</g>
</g>
<!-- Node23&#45;&gt;Node24 -->
<g id="edge34" class="edge">
<title>Node23&#45;&gt;Node24</title>
<path fill="none" stroke="midnightblue" d="M828.84,-80.36C811.55,-77.97 793.53,-75.48 777.02,-73.2"/>
<polygon fill="midnightblue" stroke="midnightblue" points="828.54,-83.85 838.92,-81.75 829.49,-76.92 828.54,-83.85"/>
</g>
<!-- Node24&#45;&gt;Node25 -->
<g id="edge35" class="edge">
<title>Node24&#45;&gt;Node25</title>
<path fill="none" stroke="midnightblue" d="M638.58,-64.5C622.81,-64.5 606.22,-64.5 590.68,-64.5"/>
<polygon fill="midnightblue" stroke="midnightblue" points="638.8,-68 648.8,-64.5 638.8,-61 638.8,-68"/>
</g>
<!-- Node24&#45;&gt;Node31 -->
<g id="edge41" class="edge">
<title>Node24&#45;&gt;Node31</title>
<path fill="none" stroke="midnightblue" d="M644.31,-46.95C623.55,-41.57 600.92,-35.7 580.88,-30.51"/>
<polygon fill="midnightblue" stroke="midnightblue" points="643.45,-50.34 654.01,-49.47 645.21,-43.57 643.45,-50.34"/>
</g>
<!-- Node26 -->
<g id="node26" class="node">
<title>Node26</title>
<g id="a_node26"><a xlink:href="FuzzerTraceState_8cpp.html#a43228990e9e44e88d4b3243252e40ad3" target="_top" xlink:title=" ">
<polygon fill="white" stroke="black" points="260,-98.5 260,-128.5 390,-128.5 390,-98.5 260,-98.5"/>
<text text-anchor="start" x="268" y="-116.5" font-family="Helvetica,sans-Serif" font-size="10.00">__sanitizer_weak_hook</text>
<text text-anchor="middle" x="325" y="-105.5" font-family="Helvetica,sans-Serif" font-size="10.00">_memcmp</text>
</a>
</g>
</g>
<!-- Node25&#45;&gt;Node26 -->
<g id="edge36" class="edge">
<title>Node25&#45;&gt;Node26</title>
<path fill="none" stroke="midnightblue" d="M451.45,-81.98C429.96,-87.38 406.49,-93.28 385.72,-98.49"/>
<polygon fill="midnightblue" stroke="midnightblue" points="452.32,-85.37 461.17,-79.53 450.62,-78.58 452.32,-85.37"/>
</g>
<!-- Node27 -->
<g id="node27" class="node">
<title>Node27</title>
<g id="a_node27"><a xlink:href="FuzzerTraceState_8cpp.html#ae558ebb8cef5368c10d9def8c101e865" target="_top" xlink:title=" ">
<polygon fill="white" stroke="black" points="260,-49.5 260,-79.5 390,-79.5 390,-49.5 260,-49.5"/>
<text text-anchor="start" x="268" y="-67.5" font-family="Helvetica,sans-Serif" font-size="10.00">__sanitizer_weak_hook</text>
<text text-anchor="middle" x="325" y="-56.5" font-family="Helvetica,sans-Serif" font-size="10.00">_strcmp</text>
</a>
</g>
</g>
<!-- Node25&#45;&gt;Node27 -->
<g id="edge37" class="edge">
<title>Node25&#45;&gt;Node27</title>
<path fill="none" stroke="midnightblue" d="M443.14,-64.5C425.59,-64.5 407.17,-64.5 390.25,-64.5"/>
<polygon fill="midnightblue" stroke="midnightblue" points="443.35,-68 453.35,-64.5 443.35,-61 443.35,-68"/>
</g>
<!-- Node29 -->
<g id="node29" class="node">
<title>Node29</title>
<g id="a_node29"><a xlink:href="FuzzerTraceState_8cpp.html#a000b7fe9a111a8b501ddef439f95e065" target="_top" xlink:title=" ">
<polygon fill="white" stroke="black" points="260,-0.5 260,-30.5 390,-30.5 390,-0.5 260,-0.5"/>
<text text-anchor="start" x="268" y="-18.5" font-family="Helvetica,sans-Serif" font-size="10.00">__sanitizer_weak_hook</text>
<text text-anchor="middle" x="325" y="-7.5" font-family="Helvetica,sans-Serif" font-size="10.00">_strncmp</text>
</a>
</g>
</g>
<!-- Node25&#45;&gt;Node29 -->
<g id="edge39" class="edge">
<title>Node25&#45;&gt;Node29</title>
<path fill="none" stroke="midnightblue" d="M451.45,-47.02C429.96,-41.62 406.49,-35.72 385.72,-30.51"/>
<polygon fill="midnightblue" stroke="midnightblue" points="450.62,-50.42 461.17,-49.47 452.32,-43.63 450.62,-50.42"/>
</g>
<!-- Node28 -->
<g id="node28" class="node">
<title>Node28</title>
<g id="a_node28"><a xlink:href="FuzzerTraceState_8cpp.html#aaf41cc0658e4eed506755faed029c2a9" target="_top" xlink:title=" ">
<polygon fill="white" stroke="black" points="77,-49.5 77,-79.5 207,-79.5 207,-49.5 77,-49.5"/>
<text text-anchor="start" x="85" y="-67.5" font-family="Helvetica,sans-Serif" font-size="10.00">__sanitizer_weak_hook</text>
<text text-anchor="middle" x="142" y="-56.5" font-family="Helvetica,sans-Serif" font-size="10.00">_strcasecmp</text>
</a>
</g>
</g>
<!-- Node27&#45;&gt;Node28 -->
<g id="edge38" class="edge">
<title>Node27&#45;&gt;Node28</title>
<path fill="none" stroke="midnightblue" d="M249.78,-64.5C235.69,-64.5 221.04,-64.5 207.29,-64.5"/>
<polygon fill="midnightblue" stroke="midnightblue" points="249.93,-68 259.93,-64.5 249.93,-61 249.93,-68"/>
</g>
<!-- Node30 -->
<g id="node30" class="node">
<title>Node30</title>
<g id="a_node30"><a xlink:href="FuzzerTraceState_8cpp.html#a289014feb172a9f61b9b19638cd3795a" target="_top" xlink:title=" ">
<polygon fill="white" stroke="black" points="77,-0.5 77,-30.5 207,-30.5 207,-0.5 77,-0.5"/>
<text text-anchor="start" x="85" y="-18.5" font-family="Helvetica,sans-Serif" font-size="10.00">__sanitizer_weak_hook</text>
<text text-anchor="middle" x="142" y="-7.5" font-family="Helvetica,sans-Serif" font-size="10.00">_strncasecmp</text>
</a>
</g>
</g>
<!-- Node29&#45;&gt;Node30 -->
<g id="edge40" class="edge">
<title>Node29&#45;&gt;Node30</title>
<path fill="none" stroke="midnightblue" d="M249.78,-15.5C235.69,-15.5 221.04,-15.5 207.29,-15.5"/>
<polygon fill="midnightblue" stroke="midnightblue" points="249.93,-19 259.93,-15.5 249.93,-12 249.93,-19"/>
</g>
</g>
</svg>
