<?xml version="1.0" encoding="UTF-8" standalone="no"?>
<!DOCTYPE svg PUBLIC "-//W3C//DTD SVG 1.1//EN"
 "http://www.w3.org/Graphics/SVG/1.1/DTD/svg11.dtd">
<!-- Generated by graphviz version 2.43.0 (0)
 -->
<!-- Title: nlohmann::detail::serializer::dump_float Pages: 1 -->
<!--zoomable 1181 -->
<svg id="main" version="1.1" xmlns="http://www.w3.org/2000/svg" xmlns:xlink="http://www.w3.org/1999/xlink" xml:space="preserve" onload="init(evt)">
<style type="text/css"><![CDATA[
.edge:hover path { stroke: red; }
.edge:hover polygon { stroke: red; fill: red; }
]]></style>
<script type="text/javascript"><![CDATA[
var edges = document.getElementsByTagName('g');
if (edges && edges.length) {
  for (var i=0;i<edges.length;i++) {
    if (edges[i].id.substr(0,4)=='edge') {
      edges[i].setAttribute('class','edge');
    }
  }
}
]]></script>
        <defs>
                <circle id="rim" cx="0" cy="0" r="7"/>
                <circle id="rim2" cx="0" cy="0" r="3.5"/>
                <g id="zoomPlus">
                        <use xlink:href="#rim" fill="#404040">
                                <set attributeName="fill" to="#808080" begin="zoomplus.mouseover" end="zoomplus.mouseout"/>
                        </use>
                        <path d="M-4,0h8M0,-4v8" fill="none" stroke="white" stroke-width="1.5" pointer-events="none"/>
                </g>
                <g id="zoomMin">
                        <use xlink:href="#rim" fill="#404040">
                                <set attributeName="fill" to="#808080" begin="zoomminus.mouseover" end="zoomminus.mouseout"/>
                        </use>
                        <path d="M-4,0h8" fill="none" stroke="white" stroke-width="1.5" pointer-events="none"/>
                </g>
                <g id="dirArrow">
                        <path fill="none" stroke="white" stroke-width="1.5" d="M0,-3.0v7 M-2.5,-0.5L0,-3.0L2.5,-0.5"/>
                </g>
               <g id="resetDef">
                       <use xlink:href="#rim2" fill="#404040">
                               <set attributeName="fill" to="#808080" begin="reset.mouseover" end="reset.mouseout"/>
                       </use>
               </g>
        </defs>

<script type="text/javascript">
var viewWidth = 1467;
var viewHeight = 1181;
var sectionId = 'dynsection-9';
</script>
<script xlink:href="svgpan.js"/>
<svg id="graph" class="graph">
<g id="viewport">
<title>nlohmann::detail::serializer::dump_float</title>
<polygon fill="white" stroke="transparent" points="-4,4 -4,-1176.5 1463,-1176.5 1463,4 -4,4"/>
<!-- Node1 -->
<g id="node1" class="node">
<title>Node1</title>
<g id="a_node1"><a xlink:title="dump a floating&#45;point number">
<polygon fill="#bfbfbf" stroke="black" points="1309,-197 1309,-227 1459,-227 1459,-197 1309,-197"/>
<text text-anchor="start" x="1317" y="-215" font-family="Helvetica,sans-Serif" font-size="10.00">nlohmann::detail::serializer</text>
<text text-anchor="middle" x="1384" y="-204" font-family="Helvetica,sans-Serif" font-size="10.00">::dump_float</text>
</a>
</g>
</g>
<!-- Node1&#45;&gt;Node1 -->
<g id="edge49" class="edge">
<title>Node1&#45;&gt;Node1</title>
<path fill="none" stroke="midnightblue" d="M1417.05,-237.46C1412.95,-242.18 1401.93,-245.5 1384,-245.5 1354.57,-245.5 1343.77,-236.56 1351.59,-227.16"/>
<polygon fill="midnightblue" stroke="midnightblue" points="1420.52,-236.92 1416.41,-227.16 1413.54,-237.36 1420.52,-236.92"/>
</g>
<!-- Node2 -->
<g id="node2" class="node">
<title>Node2</title>
<g id="a_node2"><a xlink:href="classnlohmann_1_1detail_1_1serializer.html#a95460ebd1a535a543e5a0ec52e00f48b" target="_top" xlink:title="internal implementation of the serialization function">
<polygon fill="white" stroke="black" points="1123,-197 1123,-227 1273,-227 1273,-197 1123,-197"/>
<text text-anchor="start" x="1131" y="-215" font-family="Helvetica,sans-Serif" font-size="10.00">nlohmann::detail::serializer</text>
<text text-anchor="middle" x="1198" y="-204" font-family="Helvetica,sans-Serif" font-size="10.00">::dump</text>
</a>
</g>
</g>
<!-- Node1&#45;&gt;Node2 -->
<g id="edge1" class="edge">
<title>Node1&#45;&gt;Node2</title>
<path fill="none" stroke="midnightblue" d="M1298.93,-212C1290.35,-212 1281.66,-212 1273.19,-212"/>
<polygon fill="midnightblue" stroke="midnightblue" points="1298.96,-215.5 1308.96,-212 1298.96,-208.5 1298.96,-215.5"/>
</g>
<!-- Node2&#45;&gt;Node2 -->
<g id="edge48" class="edge">
<title>Node2&#45;&gt;Node2</title>
<path fill="none" stroke="midnightblue" d="M1228.56,-237.46C1224.77,-242.18 1214.58,-245.5 1198,-245.5 1170.79,-245.5 1160.8,-236.56 1168.03,-227.16"/>
<polygon fill="midnightblue" stroke="midnightblue" points="1232.04,-236.94 1227.97,-227.16 1225.05,-237.34 1232.04,-236.94"/>
</g>
<!-- Node3 -->
<g id="node3" class="node">
<title>Node3</title>
<g id="a_node3"><a xlink:href="classnlohmann_1_1basic__json.html#a50ec80b02d0f3f51130d4abb5d1cfdc5" target="_top" xlink:title="serialization">
<polygon fill="white" stroke="black" points="965,-197 965,-227 1087,-227 1087,-197 965,-197"/>
<text text-anchor="start" x="973" y="-215" font-family="Helvetica,sans-Serif" font-size="10.00">nlohmann::basic_json</text>
<text text-anchor="middle" x="1026" y="-204" font-family="Helvetica,sans-Serif" font-size="10.00">::dump</text>
</a>
</g>
</g>
<!-- Node2&#45;&gt;Node3 -->
<g id="edge2" class="edge">
<title>Node2&#45;&gt;Node3</title>
<path fill="none" stroke="midnightblue" d="M1112.77,-212C1104.08,-212 1095.39,-212 1087.05,-212"/>
<polygon fill="midnightblue" stroke="midnightblue" points="1112.93,-215.5 1122.93,-212 1112.93,-208.5 1112.93,-215.5"/>
</g>
<!-- Node4 -->
<g id="node4" class="node">
<title>Node4</title>
<g id="a_node4"><a xlink:href="classDatabaseHandler.html#a7a38f8acc49ef0b1418716fa7ebf824e" target="_top" xlink:title="Read the data from the database.">
<polygon fill="white" stroke="black" points="762,-940.5 762,-959.5 929,-959.5 929,-940.5 762,-940.5"/>
<text text-anchor="middle" x="845.5" y="-947.5" font-family="Helvetica,sans-Serif" font-size="10.00">DatabaseHandler::AppendData</text>
</a>
</g>
</g>
<!-- Node3&#45;&gt;Node4 -->
<g id="edge3" class="edge">
<title>Node3&#45;&gt;Node4</title>
<path fill="none" stroke="midnightblue" d="M1020.43,-236.93C1007.65,-305.78 969.84,-504.22 929,-667 901.85,-775.21 861.11,-904.35 849.62,-940.3"/>
<polygon fill="midnightblue" stroke="midnightblue" points="1023.88,-237.49 1022.26,-227.02 1017,-236.22 1023.88,-237.49"/>
</g>
<!-- Node7 -->
<g id="node7" class="node">
<title>Node7</title>
<g id="a_node7"><a xlink:href="mco__utils_8cpp.html#a38abadf67ee2fe7e5e5919a2714d3561" target="_top" xlink:title=" ">
<polygon fill="white" stroke="black" points="566.5,-719.5 566.5,-738.5 711.5,-738.5 711.5,-719.5 566.5,-719.5"/>
<text text-anchor="middle" x="639" y="-726.5" font-family="Helvetica,sans-Serif" font-size="10.00">checkResourceAvailability</text>
</a>
</g>
</g>
<!-- Node3&#45;&gt;Node7 -->
<g id="edge6" class="edge">
<title>Node3&#45;&gt;Node7</title>
<path fill="none" stroke="midnightblue" d="M1023.75,-237.18C1019.6,-297.85 1002.02,-454.74 929,-558 864.37,-649.39 734.12,-699.88 673.04,-719.42"/>
<polygon fill="midnightblue" stroke="midnightblue" points="1027.25,-237.2 1024.38,-227 1020.27,-236.77 1027.25,-237.2"/>
</g>
<!-- Node10 -->
<g id="node10" class="node">
<title>Node10</title>
<g id="a_node10"><a xlink:href="benchmarks_8cpp.html#a127b432467f7f5f314bd6455584269e0" target="_top" xlink:title=" ">
<polygon fill="white" stroke="black" points="822.5,-240.5 822.5,-259.5 868.5,-259.5 868.5,-240.5 822.5,-240.5"/>
<text text-anchor="middle" x="845.5" y="-247.5" font-family="Helvetica,sans-Serif" font-size="10.00">Dump</text>
</a>
</g>
</g>
<!-- Node3&#45;&gt;Node10 -->
<g id="edge9" class="edge">
<title>Node3&#45;&gt;Node10</title>
<path fill="none" stroke="midnightblue" d="M954.76,-226.95C924.15,-233.47 890.41,-240.65 868.87,-245.24"/>
<polygon fill="midnightblue" stroke="midnightblue" points="955.52,-230.37 964.57,-224.87 954.06,-223.52 955.52,-230.37"/>
</g>
<!-- Node11 -->
<g id="node11" class="node">
<title>Node11</title>
<g id="a_node11"><a xlink:href="fuzzer-parse__json_8cpp.html#a91ce7c16e9840492202299da2b451e60" target="_top" xlink:title=" ">
<polygon fill="white" stroke="black" points="777,-202.5 777,-221.5 914,-221.5 914,-202.5 777,-202.5"/>
<text text-anchor="middle" x="845.5" y="-209.5" font-family="Helvetica,sans-Serif" font-size="10.00">LLVMFuzzerTestOneInput</text>
</a>
</g>
</g>
<!-- Node3&#45;&gt;Node11 -->
<g id="edge10" class="edge">
<title>Node3&#45;&gt;Node11</title>
<path fill="none" stroke="midnightblue" d="M954.55,-212C941.28,-212 927.43,-212 914.24,-212"/>
<polygon fill="midnightblue" stroke="midnightblue" points="954.57,-215.5 964.57,-212 954.57,-208.5 954.57,-215.5"/>
</g>
<!-- Node12 -->
<g id="node12" class="node">
<title>Node12</title>
<g id="a_node12"><a xlink:href="dump_8cpp.html#ae66f6b31b5ad750f1fe042a706a4e3d4" target="_top" xlink:title=" ">
<polygon fill="white" stroke="black" points="825,-164.5 825,-183.5 866,-183.5 866,-164.5 825,-164.5"/>
<text text-anchor="middle" x="845.5" y="-171.5" font-family="Helvetica,sans-Serif" font-size="10.00">main</text>
</a>
</g>
</g>
<!-- Node3&#45;&gt;Node12 -->
<g id="edge11" class="edge">
<title>Node3&#45;&gt;Node12</title>
<path fill="none" stroke="midnightblue" d="M954.39,-196.97C922.63,-190.21 887.57,-182.74 866.3,-178.21"/>
<polygon fill="midnightblue" stroke="midnightblue" points="954.06,-200.48 964.57,-199.13 955.52,-193.63 954.06,-200.48"/>
</g>
<!-- Node13 -->
<g id="node13" class="node">
<title>Node13</title>
<g id="a_node13"><a xlink:href="structstd_1_1hash_3_01nlohmann_1_1json_01_4.html#aec1567d1fa47dbe5b77954dce3a55b64" target="_top" xlink:title="return a hash value for a JSON object">
<polygon fill="white" stroke="black" points="785,-115 785,-145 906,-145 906,-115 785,-115"/>
<text text-anchor="start" x="793" y="-133" font-family="Helvetica,sans-Serif" font-size="10.00">std::hash&lt; nlohmann</text>
<text text-anchor="middle" x="845.5" y="-122" font-family="Helvetica,sans-Serif" font-size="10.00">::json &gt;::operator()</text>
</a>
</g>
</g>
<!-- Node3&#45;&gt;Node13 -->
<g id="edge12" class="edge">
<title>Node3&#45;&gt;Node13</title>
<path fill="none" stroke="midnightblue" d="M994.42,-191.25C976.04,-179.46 951.86,-165.07 929,-155 920.65,-151.32 911.59,-147.97 902.64,-145.01"/>
<polygon fill="midnightblue" stroke="midnightblue" points="992.65,-194.28 1002.94,-196.81 996.47,-188.41 992.65,-194.28"/>
</g>
<!-- Node14 -->
<g id="node14" class="node">
<title>Node14</title>
<g id="a_node14"><a xlink:href="classDatabaseHandler.html#a2ed186b5456e28d67f44b4c8b350a5ce" target="_top" xlink:title="Save the JSON file data to the database.">
<polygon fill="white" stroke="black" points="768,-529.5 768,-548.5 923,-548.5 923,-529.5 768,-529.5"/>
<text text-anchor="middle" x="845.5" y="-536.5" font-family="Helvetica,sans-Serif" font-size="10.00">DatabaseHandler::SaveData</text>
</a>
</g>
</g>
<!-- Node3&#45;&gt;Node14 -->
<g id="edge13" class="edge">
<title>Node3&#45;&gt;Node14</title>
<path fill="none" stroke="midnightblue" d="M1011.77,-236.24C975.57,-302.55 876.03,-484.91 851.85,-529.21"/>
<polygon fill="midnightblue" stroke="midnightblue" points="1014.91,-237.79 1016.63,-227.33 1008.77,-234.43 1014.91,-237.79"/>
</g>
<!-- Node28 -->
<g id="node28" class="node">
<title>Node28</title>
<g id="a_node28"><a xlink:href="classServerHandler.html#af3ecda4d745ef95296198e41ac3cf6e1" target="_top" xlink:title="start LFO server">
<polygon fill="white" stroke="black" points="325,-295 325,-325 516,-325 516,-295 325,-295"/>
<text text-anchor="start" x="333" y="-313" font-family="Helvetica,sans-Serif" font-size="10.00">ServerHandler::StartMcOrchestrator</text>
<text text-anchor="middle" x="420.5" y="-302" font-family="Helvetica,sans-Serif" font-size="10.00">Server</text>
</a>
</g>
</g>
<!-- Node3&#45;&gt;Node28 -->
<g id="edge45" class="edge">
<title>Node3&#45;&gt;Node28</title>
<path fill="none" stroke="midnightblue" d="M997.26,-233.11C978.92,-245.86 953.76,-261.12 929,-269 854.61,-292.68 641.29,-303.2 516.16,-307.45"/>
<polygon fill="midnightblue" stroke="midnightblue" points="999.58,-235.76 1005.69,-227.1 995.51,-230.06 999.58,-235.76"/>
</g>
<!-- Node37 -->
<g id="node37" class="node">
<title>Node37</title>
<g id="a_node37"><a xlink:href="unit-regression_8cpp.html#a80481571a808a2ffb4ea83bcd270af3a" target="_top" xlink:title=" ">
<polygon fill="white" stroke="black" points="816,-76.5 816,-95.5 875,-95.5 875,-76.5 816,-76.5"/>
<text text-anchor="middle" x="845.5" y="-83.5" font-family="Helvetica,sans-Serif" font-size="10.00">SECTION</text>
</a>
</g>
</g>
<!-- Node3&#45;&gt;Node37 -->
<g id="edge44" class="edge">
<title>Node3&#45;&gt;Node37</title>
<path fill="none" stroke="midnightblue" d="M1010.34,-188.48C993.69,-163.8 964.23,-125.78 929,-105 912.67,-95.37 891.85,-90.62 875.21,-88.28"/>
<polygon fill="midnightblue" stroke="midnightblue" points="1007.46,-190.47 1015.88,-196.91 1013.31,-186.63 1007.46,-190.47"/>
</g>
<!-- Node38 -->
<g id="node38" class="node">
<title>Node38</title>
<g id="a_node38"><a xlink:href="unit-alt-string_8cpp.html#acff1c8344829356bc4edb2f463154c53" target="_top" xlink:title=" ">
<polygon fill="white" stroke="black" points="810,-38.5 810,-57.5 881,-57.5 881,-38.5 810,-38.5"/>
<text text-anchor="middle" x="845.5" y="-45.5" font-family="Helvetica,sans-Serif" font-size="10.00">TEST_CASE</text>
</a>
</g>
</g>
<!-- Node3&#45;&gt;Node38 -->
<g id="edge46" class="edge">
<title>Node3&#45;&gt;Node38</title>
<path fill="none" stroke="midnightblue" d="M1015.7,-187.64C1001.9,-154.92 972.85,-97.4 929,-67 915.11,-57.37 897.05,-52.56 881.37,-50.18"/>
<polygon fill="midnightblue" stroke="midnightblue" points="1012.47,-189 1019.49,-196.94 1018.95,-186.36 1012.47,-189"/>
</g>
<!-- Node39 -->
<g id="node39" class="node">
<title>Node39</title>
<g id="a_node39"><a xlink:href="unit-serialization_8cpp.html#aa34f756ed4ed685bc7a977ffe7246b8f" target="_top" xlink:title=" ">
<polygon fill="white" stroke="black" points="781.5,-0.5 781.5,-19.5 909.5,-19.5 909.5,-0.5 781.5,-0.5"/>
<text text-anchor="middle" x="845.5" y="-7.5" font-family="Helvetica,sans-Serif" font-size="10.00">TEST_CASE_TEMPLATE</text>
</a>
</g>
</g>
<!-- Node3&#45;&gt;Node39 -->
<g id="edge47" class="edge">
<title>Node3&#45;&gt;Node39</title>
<path fill="none" stroke="midnightblue" d="M1019.15,-187.21C1008.41,-147.41 981.68,-69.63 929,-29 923.3,-24.6 916.76,-21.19 909.9,-18.55"/>
<polygon fill="midnightblue" stroke="midnightblue" points="1015.76,-188.11 1021.65,-196.92 1022.54,-186.36 1015.76,-188.11"/>
</g>
<!-- Node5 -->
<g id="node5" class="node">
<title>Node5</title>
<g id="a_node5"><a xlink:href="classQmOtaHandler.html#a6ccbedb2878978ac7073ef4e10be6220" target="_top" xlink:title="Check for successful OTA download.">
<polygon fill="white" stroke="black" points="558.5,-979 558.5,-1009 719.5,-1009 719.5,-979 558.5,-979"/>
<text text-anchor="start" x="566.5" y="-997" font-family="Helvetica,sans-Serif" font-size="10.00">QmOtaHandler::OtaDownload</text>
<text text-anchor="middle" x="639" y="-986" font-family="Helvetica,sans-Serif" font-size="10.00">Successful</text>
</a>
</g>
</g>
<!-- Node4&#45;&gt;Node5 -->
<g id="edge4" class="edge">
<title>Node4&#45;&gt;Node5</title>
<path fill="none" stroke="midnightblue" d="M790.25,-961.67C765.65,-966.96 736.26,-973.29 710.02,-978.93"/>
<polygon fill="midnightblue" stroke="midnightblue" points="791.09,-965.07 800.13,-959.55 789.61,-958.23 791.09,-965.07"/>
</g>
<!-- Node6 -->
<g id="node6" class="node">
<title>Node6</title>
<g id="a_node6"><a xlink:href="classConfigHandler.html#a969e3ca03c0a638d455ac8935522aaef" target="_top" xlink:title="Save the initial JSON file content to the database.">
<polygon fill="white" stroke="black" points="552,-940.5 552,-959.5 726,-959.5 726,-940.5 552,-940.5"/>
<text text-anchor="middle" x="639" y="-947.5" font-family="Helvetica,sans-Serif" font-size="10.00">ConfigHandler::UpdateDatabase</text>
</a>
</g>
</g>
<!-- Node4&#45;&gt;Node6 -->
<g id="edge5" class="edge">
<title>Node4&#45;&gt;Node6</title>
<path fill="none" stroke="midnightblue" d="M751.65,-950C743.18,-950 734.63,-950 726.23,-950"/>
<polygon fill="midnightblue" stroke="midnightblue" points="751.91,-953.5 761.91,-950 751.91,-946.5 751.91,-953.5"/>
</g>
<!-- Node8 -->
<g id="node8" class="node">
<title>Node8</title>
<g id="a_node8"><a xlink:href="classUserAppControlHandler.html#aa7090082a9d4cf39d3a6b8a1e1334a3a" target="_top" xlink:title="Unpause ASIL App selected by User from Vehicle State UI.">
<polygon fill="white" stroke="black" points="355,-662 355,-692 486,-692 486,-662 355,-662"/>
<text text-anchor="start" x="363" y="-680" font-family="Helvetica,sans-Serif" font-size="10.00">UserAppControlHandler</text>
<text text-anchor="middle" x="420.5" y="-669" font-family="Helvetica,sans-Serif" font-size="10.00">::PlayAsilApp</text>
</a>
</g>
</g>
<!-- Node7&#45;&gt;Node8 -->
<g id="edge7" class="edge">
<title>Node7&#45;&gt;Node8</title>
<path fill="none" stroke="midnightblue" d="M588.19,-717.04C557.31,-709.62 517.38,-700.03 484.33,-692.09"/>
<polygon fill="midnightblue" stroke="midnightblue" points="587.75,-720.53 598.29,-719.46 589.38,-713.72 587.75,-720.53"/>
</g>
<!-- Node9 -->
<g id="node9" class="node">
<title>Node9</title>
<g id="a_node9"><a xlink:href="classUserAppControlHandler.html#a5bee2fdba62376c62ee8dd29bbb4fb6d" target="_top" xlink:title="Play QM App selected by User from Infotainment UI.">
<polygon fill="white" stroke="black" points="355,-600 355,-630 486,-630 486,-600 355,-600"/>
<text text-anchor="start" x="363" y="-618" font-family="Helvetica,sans-Serif" font-size="10.00">UserAppControlHandler</text>
<text text-anchor="middle" x="420.5" y="-607" font-family="Helvetica,sans-Serif" font-size="10.00">::PlayQmApp</text>
</a>
</g>
</g>
<!-- Node7&#45;&gt;Node9 -->
<g id="edge8" class="edge">
<title>Node7&#45;&gt;Node9</title>
<path fill="none" stroke="midnightblue" d="M614.91,-713.69C585.33,-694.2 535.55,-661.88 516,-652 499.8,-643.81 481.34,-636.22 465.06,-630.08"/>
<polygon fill="midnightblue" stroke="midnightblue" points="613.12,-716.7 623.39,-719.29 616.97,-710.86 613.12,-716.7"/>
</g>
<!-- Node14&#45;&gt;Node8 -->
<g id="edge26" class="edge">
<title>Node14&#45;&gt;Node8</title>
<path fill="none" stroke="midnightblue" d="M830.05,-556.75C801.56,-591.51 739.74,-665.71 726,-672 649.34,-707.13 550,-700.43 486,-690.38"/>
<polygon fill="midnightblue" stroke="midnightblue" points="832.9,-558.79 836.52,-548.83 827.48,-554.36 832.9,-558.79"/>
</g>
<!-- Node14&#45;&gt;Node9 -->
<g id="edge27" class="edge">
<title>Node14&#45;&gt;Node9</title>
<path fill="none" stroke="midnightblue" d="M820.74,-553.83C797.54,-567.48 760.75,-586.93 726,-596 645.28,-617.07 548.63,-619.41 486.2,-618.08"/>
<polygon fill="midnightblue" stroke="midnightblue" points="822.75,-556.71 829.52,-548.57 819.14,-550.71 822.75,-556.71"/>
</g>
<!-- Node15 -->
<g id="node15" class="node">
<title>Node15</title>
<g id="a_node15"><a xlink:href="classBluechiUnitUsageCommand.html#a799838b49eeab56450dd3d47fa68e189" target="_top" xlink:title=" ">
<polygon fill="white" stroke="black" points="562,-366 562,-396 716,-396 716,-366 562,-366"/>
<text text-anchor="start" x="570" y="-384" font-family="Helvetica,sans-Serif" font-size="10.00">BluechiUnitUsageCommand</text>
<text text-anchor="middle" x="639" y="-373" font-family="Helvetica,sans-Serif" font-size="10.00">::Execute</text>
</a>
</g>
</g>
<!-- Node14&#45;&gt;Node15 -->
<g id="edge14" class="edge">
<title>Node14&#45;&gt;Node15</title>
<path fill="none" stroke="midnightblue" d="M832.49,-521.24C813.12,-493.88 772.43,-441.41 726,-411 716.87,-405.02 706.42,-400.09 696.01,-396.07"/>
<polygon fill="midnightblue" stroke="midnightblue" points="829.64,-523.27 838.22,-529.49 835.39,-519.28 829.64,-523.27"/>
</g>
<!-- Node16 -->
<g id="node16" class="node">
<title>Node16</title>
<g id="a_node16"><a xlink:href="classUserAppControlHandler.html#a405532812369082c6893c30bdae67c62" target="_top" xlink:title="Initialize User App Control Handler.">
<polygon fill="white" stroke="black" points="0,-432 0,-462 131,-462 131,-432 0,-432"/>
<text text-anchor="start" x="8" y="-450" font-family="Helvetica,sans-Serif" font-size="10.00">UserAppControlHandler</text>
<text text-anchor="middle" x="65.5" y="-439" font-family="Helvetica,sans-Serif" font-size="10.00">::Init</text>
</a>
</g>
</g>
<!-- Node14&#45;&gt;Node16 -->
<g id="edge15" class="edge">
<title>Node14&#45;&gt;Node16</title>
<path fill="none" stroke="midnightblue" d="M820.3,-524.13C797.05,-510.63 760.44,-491.44 726,-482 514.52,-424.03 250.94,-433.14 131.14,-441.46"/>
<polygon fill="midnightblue" stroke="midnightblue" points="818.73,-527.26 829.12,-529.34 822.29,-521.24 818.73,-527.26"/>
</g>
<!-- Node17 -->
<g id="node17" class="node">
<title>Node17</title>
<g id="a_node17"><a xlink:href="classDatabaseHandler.html#aac7e80ab286a7f5078d6cc715e3cab9b" target="_top" xlink:title="Modify the value of the key in the database.">
<polygon fill="white" stroke="black" points="554.5,-902.5 554.5,-921.5 723.5,-921.5 723.5,-902.5 554.5,-902.5"/>
<text text-anchor="middle" x="639" y="-909.5" font-family="Helvetica,sans-Serif" font-size="10.00">DatabaseHandler::ModifyValue</text>
</a>
</g>
</g>
<!-- Node14&#45;&gt;Node17 -->
<g id="edge16" class="edge">
<title>Node14&#45;&gt;Node17</title>
<path fill="none" stroke="midnightblue" d="M836.56,-558.01C818.72,-600.11 773.31,-703.96 726,-786 699.93,-831.2 663.06,-881.45 647.44,-902.21"/>
<polygon fill="midnightblue" stroke="midnightblue" points="839.83,-559.26 840.48,-548.69 833.38,-556.55 839.83,-559.26"/>
</g>
<!-- Node27 -->
<g id="node27" class="node">
<title>Node27</title>
<g id="a_node27"><a xlink:href="classConfigHandler.html#a5f22a28a3148d66a75d376eaade4fa5b" target="_top" xlink:title="Save app JSON file content to database.">
<polygon fill="white" stroke="black" points="553.5,-317 553.5,-347 724.5,-347 724.5,-317 553.5,-317"/>
<text text-anchor="start" x="561.5" y="-335" font-family="Helvetica,sans-Serif" font-size="10.00">ConfigHandler::SaveFileContent</text>
<text text-anchor="middle" x="639" y="-324" font-family="Helvetica,sans-Serif" font-size="10.00">ToDatabase</text>
</a>
</g>
</g>
<!-- Node14&#45;&gt;Node27 -->
<g id="edge28" class="edge">
<title>Node14&#45;&gt;Node27</title>
<path fill="none" stroke="midnightblue" d="M837.39,-519.57C822.65,-482.05 785.11,-399.48 726,-356 721.38,-352.6 716.3,-349.68 710.99,-347.18"/>
<polygon fill="midnightblue" stroke="midnightblue" points="834.26,-521.19 841.09,-529.29 840.8,-518.7 834.26,-521.19"/>
</g>
<!-- Node29 -->
<g id="node29" class="node">
<title>Node29</title>
<g id="a_node29"><a xlink:href="classUserAppControlHandler.html#a668e04c325692c11f03208ea46483d51" target="_top" xlink:title="Pause ASIL App selected by User from Vehicle State UI.">
<polygon fill="white" stroke="black" points="355,-546 355,-576 486,-576 486,-546 355,-546"/>
<text text-anchor="start" x="363" y="-564" font-family="Helvetica,sans-Serif" font-size="10.00">UserAppControlHandler</text>
<text text-anchor="middle" x="420.5" y="-553" font-family="Helvetica,sans-Serif" font-size="10.00">::StopAsilApp</text>
</a>
</g>
</g>
<!-- Node14&#45;&gt;Node29 -->
<g id="edge30" class="edge">
<title>Node14&#45;&gt;Node29</title>
<path fill="none" stroke="midnightblue" d="M757.76,-543.51C677.1,-547.71 558.76,-553.86 486.11,-557.64"/>
<polygon fill="midnightblue" stroke="midnightblue" points="758.09,-547 767.9,-542.98 757.73,-540.01 758.09,-547"/>
</g>
<!-- Node30 -->
<g id="node30" class="node">
<title>Node30</title>
<g id="a_node30"><a xlink:href="classUserAppControlHandler.html#a032624472da74d1abdf2f4b974965bc8" target="_top" xlink:title="Stop QM App selected by User from Infotainment UI.">
<polygon fill="white" stroke="black" points="355,-492 355,-522 486,-522 486,-492 355,-492"/>
<text text-anchor="start" x="363" y="-510" font-family="Helvetica,sans-Serif" font-size="10.00">UserAppControlHandler</text>
<text text-anchor="middle" x="420.5" y="-499" font-family="Helvetica,sans-Serif" font-size="10.00">::StopQmApp</text>
</a>
</g>
</g>
<!-- Node14&#45;&gt;Node30 -->
<g id="edge31" class="edge">
<title>Node14&#45;&gt;Node30</title>
<path fill="none" stroke="midnightblue" d="M757.76,-532.44C677.1,-526.34 558.76,-517.38 486.11,-511.89"/>
<polygon fill="midnightblue" stroke="midnightblue" points="757.66,-535.94 767.9,-533.21 758.19,-528.96 757.66,-535.94"/>
</g>
<!-- Node31 -->
<g id="node31" class="node">
<title>Node31</title>
<g id="a_node31"><a xlink:href="mco__utils_8cpp.html#abcd741ece666318a44dddecfe1d5db1f" target="_top" xlink:title=" ">
<polygon fill="white" stroke="black" points="167,-454 167,-484 289,-484 289,-454 167,-454"/>
<text text-anchor="start" x="175" y="-472" font-family="Helvetica,sans-Serif" font-size="10.00">update_qm_available</text>
<text text-anchor="middle" x="228" y="-461" font-family="Helvetica,sans-Serif" font-size="10.00">_resource</text>
</a>
</g>
</g>
<!-- Node14&#45;&gt;Node31 -->
<g id="edge34" class="edge">
<title>Node14&#45;&gt;Node31</title>
<path fill="none" stroke="midnightblue" d="M792.29,-527.32C771.68,-522.88 747.78,-517.95 726,-514 633.11,-497.14 609.96,-491.26 516,-482 437.82,-474.29 347.21,-471.15 289.05,-469.87"/>
<polygon fill="midnightblue" stroke="midnightblue" points="791.59,-530.75 802.11,-529.45 793.08,-523.91 791.59,-530.75"/>
</g>
<!-- Node32 -->
<g id="node32" class="node">
<title>Node32</title>
<g id="a_node32"><a xlink:href="classConfigHandler.html#a3e5044accd38f03af3f0f8d77469e1bf" target="_top" xlink:title="Save the initial JSON file content to the database.">
<polygon fill="white" stroke="black" points="552,-643.5 552,-662.5 726,-662.5 726,-643.5 552,-643.5"/>
<text text-anchor="middle" x="639" y="-650.5" font-family="Helvetica,sans-Serif" font-size="10.00">ConfigHandler::UpdateDatabase</text>
</a>
</g>
</g>
<!-- Node14&#45;&gt;Node32 -->
<g id="edge35" class="edge">
<title>Node14&#45;&gt;Node32</title>
<path fill="none" stroke="midnightblue" d="M827.12,-555.63C805.21,-575.74 765.6,-609.34 726,-629 713.78,-635.07 699.8,-639.8 686.71,-643.4"/>
<polygon fill="midnightblue" stroke="midnightblue" points="829.69,-558.02 834.62,-548.64 824.92,-552.9 829.69,-558.02"/>
</g>
<!-- Node33 -->
<g id="node33" class="node">
<title>Node33</title>
<g id="a_node33"><a xlink:href="mco__utils_8cpp.html#acc33ddf1bae7f792f13e983fef4f6b0d" target="_top" xlink:title=" ">
<polygon fill="white" stroke="black" points="556.5,-757.5 556.5,-776.5 721.5,-776.5 721.5,-757.5 556.5,-757.5"/>
<text text-anchor="middle" x="639" y="-764.5" font-family="Helvetica,sans-Serif" font-size="10.00">updateInitialSystemResources</text>
</a>
</g>
</g>
<!-- Node14&#45;&gt;Node33 -->
<g id="edge36" class="edge">
<title>Node14&#45;&gt;Node33</title>
<path fill="none" stroke="midnightblue" d="M839.29,-558.59C827.09,-600.46 792.52,-698.86 726,-748 720.83,-751.82 715.05,-754.89 708.99,-757.37"/>
<polygon fill="midnightblue" stroke="midnightblue" points="842.71,-559.37 842.03,-548.79 835.97,-557.48 842.71,-559.37"/>
</g>
<!-- Node36 -->
<g id="node36" class="node">
<title>Node36</title>
<g id="a_node36"><a xlink:href="mco__utils_8cpp.html#acc5a1cd363226b0e01e5b4a8b498ce04" target="_top" xlink:title=" ">
<polygon fill="white" stroke="black" points="588.5,-567.5 588.5,-586.5 689.5,-586.5 689.5,-567.5 588.5,-567.5"/>
<text text-anchor="middle" x="639" y="-574.5" font-family="Helvetica,sans-Serif" font-size="10.00">updateResources</text>
</a>
</g>
</g>
<!-- Node14&#45;&gt;Node36 -->
<g id="edge39" class="edge">
<title>Node14&#45;&gt;Node36</title>
<path fill="none" stroke="midnightblue" d="M783.25,-550.38C753.32,-555.94 717.79,-562.55 689.6,-567.78"/>
<polygon fill="midnightblue" stroke="midnightblue" points="783.97,-553.81 793.16,-548.54 782.69,-546.93 783.97,-553.81"/>
</g>
<!-- Node18 -->
<g id="node18" class="node">
<title>Node18</title>
<g id="a_node18"><a xlink:href="classK3sStarvePodCommand.html#ad242d88f0dadbefeb58499c4e62e15fb" target="_top" xlink:title=" ">
<polygon fill="white" stroke="black" points="353.5,-750 353.5,-780 487.5,-780 487.5,-750 353.5,-750"/>
<text text-anchor="start" x="361.5" y="-768" font-family="Helvetica,sans-Serif" font-size="10.00">K3sStarvePodCommand</text>
<text text-anchor="middle" x="420.5" y="-757" font-family="Helvetica,sans-Serif" font-size="10.00">::Execute</text>
</a>
</g>
</g>
<!-- Node17&#45;&gt;Node18 -->
<g id="edge17" class="edge">
<title>Node17&#45;&gt;Node18</title>
<path fill="none" stroke="midnightblue" d="M625.35,-894.09C605.32,-867.08 563.63,-816.21 516,-789 507.33,-784.05 497.63,-780.1 487.85,-776.96"/>
<polygon fill="midnightblue" stroke="midnightblue" points="622.58,-896.23 631.29,-902.26 628.25,-892.11 622.58,-896.23"/>
</g>
<!-- Node19 -->
<g id="node19" class="node">
<title>Node19</title>
<g id="a_node19"><a xlink:href="classK3sGetPodNameCommand.html#addffe8af003cac9429a153a707fd4f4b" target="_top" xlink:title=" ">
<polygon fill="white" stroke="black" points="346,-1142 346,-1172 495,-1172 495,-1142 346,-1142"/>
<text text-anchor="start" x="354" y="-1160" font-family="Helvetica,sans-Serif" font-size="10.00">K3sGetPodNameCommand</text>
<text text-anchor="middle" x="420.5" y="-1149" font-family="Helvetica,sans-Serif" font-size="10.00">::Execute</text>
</a>
</g>
</g>
<!-- Node17&#45;&gt;Node19 -->
<g id="edge18" class="edge">
<title>Node17&#45;&gt;Node19</title>
<path fill="none" stroke="midnightblue" d="M555.9,-927.36C554.54,-928.5 553.24,-929.71 552,-931 488.85,-996.79 578.11,-1066.23 516,-1133 510.24,-1139.2 503.12,-1143.89 495.4,-1147.43"/>
<polygon fill="midnightblue" stroke="midnightblue" points="558,-930.17 564.27,-921.62 554.04,-924.39 558,-930.17"/>
</g>
<!-- Node20 -->
<g id="node20" class="node">
<title>Node20</title>
<g id="a_node20"><a xlink:href="classBluechiGetUnitNameCommand.html#a673eb8369bef6a89f5c5249826d38b85" target="_top" xlink:title=" ">
<polygon fill="white" stroke="black" points="335.5,-1093 335.5,-1123 505.5,-1123 505.5,-1093 335.5,-1093"/>
<text text-anchor="start" x="343.5" y="-1111" font-family="Helvetica,sans-Serif" font-size="10.00">BluechiGetUnitNameCommand</text>
<text text-anchor="middle" x="420.5" y="-1100" font-family="Helvetica,sans-Serif" font-size="10.00">::Execute</text>
</a>
</g>
</g>
<!-- Node17&#45;&gt;Node20 -->
<g id="edge19" class="edge">
<title>Node17&#45;&gt;Node20</title>
<path fill="none" stroke="midnightblue" d="M556.12,-927.36C554.69,-928.5 553.31,-929.71 552,-931 502.27,-980.06 564.96,-1034.17 516,-1084 512.68,-1087.38 508.95,-1090.31 504.95,-1092.84"/>
<polygon fill="midnightblue" stroke="midnightblue" points="558.44,-930.02 564.9,-921.63 554.61,-924.16 558.44,-930.02"/>
</g>
<!-- Node21 -->
<g id="node21" class="node">
<title>Node21</title>
<g id="a_node21"><a xlink:href="classPodmanGetPodNameCommand.html#a616249e0ccfa973a7bf29881f686de15" target="_top" xlink:title=" ">
<polygon fill="white" stroke="black" points="335,-1044 335,-1074 506,-1074 506,-1044 335,-1044"/>
<text text-anchor="start" x="343" y="-1062" font-family="Helvetica,sans-Serif" font-size="10.00">PodmanGetPodNameCommand</text>
<text text-anchor="middle" x="420.5" y="-1051" font-family="Helvetica,sans-Serif" font-size="10.00">::Execute</text>
</a>
</g>
</g>
<!-- Node17&#45;&gt;Node21 -->
<g id="edge20" class="edge">
<title>Node17&#45;&gt;Node21</title>
<path fill="none" stroke="midnightblue" d="M557.42,-926.75C555.53,-928.06 553.72,-929.47 552,-931 515.47,-963.53 552.02,-1001.91 516,-1035 512.26,-1038.44 508.1,-1041.4 503.67,-1043.94"/>
<polygon fill="midnightblue" stroke="midnightblue" points="559.27,-929.72 566.15,-921.66 555.74,-923.67 559.27,-929.72"/>
</g>
<!-- Node22 -->
<g id="node22" class="node">
<title>Node22</title>
<g id="a_node22"><a xlink:href="classPodmanDeletePodCommand.html#a4805ee3aaf4803181b34a59dc30f0b33" target="_top" xlink:title=" ">
<polygon fill="white" stroke="black" points="342,-995 342,-1025 499,-1025 499,-995 342,-995"/>
<text text-anchor="start" x="350" y="-1013" font-family="Helvetica,sans-Serif" font-size="10.00">PodmanDeletePodCommand</text>
<text text-anchor="middle" x="420.5" y="-1002" font-family="Helvetica,sans-Serif" font-size="10.00">::Execute</text>
</a>
</g>
</g>
<!-- Node17&#45;&gt;Node22 -->
<g id="edge21" class="edge">
<title>Node17&#45;&gt;Node22</title>
<path fill="none" stroke="midnightblue" d="M560.73,-925.81C557.7,-927.37 554.77,-929.09 552,-931 527.96,-947.6 539.78,-969.03 516,-986 510.9,-989.64 505.3,-992.73 499.46,-995.35"/>
<polygon fill="midnightblue" stroke="midnightblue" points="562.41,-928.9 570.14,-921.64 559.58,-922.5 562.41,-928.9"/>
</g>
<!-- Node23 -->
<g id="node23" class="node">
<title>Node23</title>
<g id="a_node23"><a xlink:href="classK3sDeletePodCommand.html#a659041e91526e69e7e57ce4b998a8797" target="_top" xlink:title=" ">
<polygon fill="white" stroke="black" points="353,-946 353,-976 488,-976 488,-946 353,-946"/>
<text text-anchor="start" x="361" y="-964" font-family="Helvetica,sans-Serif" font-size="10.00">K3sDeletePodCommand</text>
<text text-anchor="middle" x="420.5" y="-953" font-family="Helvetica,sans-Serif" font-size="10.00">::Execute</text>
</a>
</g>
</g>
<!-- Node17&#45;&gt;Node23 -->
<g id="edge22" class="edge">
<title>Node17&#45;&gt;Node23</title>
<path fill="none" stroke="midnightblue" d="M584.18,-923.82C573.51,-926.18 562.4,-928.66 552,-931 530.68,-935.81 507.43,-941.13 486.53,-945.94"/>
<polygon fill="midnightblue" stroke="midnightblue" points="585.22,-927.17 594.23,-921.59 583.71,-920.34 585.22,-927.17"/>
</g>
<!-- Node24 -->
<g id="node24" class="node">
<title>Node24</title>
<g id="a_node24"><a xlink:href="classPodmanCheckPodStatusCommand.html#a9069a536ac762e2fbd0510b6a2c99a5d" target="_top" xlink:title=" ">
<polygon fill="white" stroke="black" points="328,-897 328,-927 513,-927 513,-897 328,-897"/>
<text text-anchor="start" x="336" y="-915" font-family="Helvetica,sans-Serif" font-size="10.00">PodmanCheckPodStatusCommand</text>
<text text-anchor="middle" x="420.5" y="-904" font-family="Helvetica,sans-Serif" font-size="10.00">::Execute</text>
</a>
</g>
</g>
<!-- Node17&#45;&gt;Node24 -->
<g id="edge23" class="edge">
<title>Node17&#45;&gt;Node24</title>
<path fill="none" stroke="midnightblue" d="M544.12,-912C533.88,-912 523.46,-912 513.25,-912"/>
<polygon fill="midnightblue" stroke="midnightblue" points="544.3,-915.5 554.3,-912 544.3,-908.5 544.3,-915.5"/>
</g>
<!-- Node25 -->
<g id="node25" class="node">
<title>Node25</title>
<g id="a_node25"><a xlink:href="classK3sCheckPodStatusCommand.html#a9ea00927450266789aac23d175222cc5" target="_top" xlink:title=" ">
<polygon fill="white" stroke="black" points="338.5,-848 338.5,-878 502.5,-878 502.5,-848 338.5,-848"/>
<text text-anchor="start" x="346.5" y="-866" font-family="Helvetica,sans-Serif" font-size="10.00">K3sCheckPodStatusCommand</text>
<text text-anchor="middle" x="420.5" y="-855" font-family="Helvetica,sans-Serif" font-size="10.00">::Execute</text>
</a>
</g>
</g>
<!-- Node17&#45;&gt;Node25 -->
<g id="edge24" class="edge">
<title>Node17&#45;&gt;Node25</title>
<path fill="none" stroke="midnightblue" d="M585.95,-900.22C556.58,-893.57 519.56,-885.19 488.09,-878.07"/>
<polygon fill="midnightblue" stroke="midnightblue" points="585.47,-903.7 596,-902.49 587.02,-896.87 585.47,-903.7"/>
</g>
<!-- Node26 -->
<g id="node26" class="node">
<title>Node26</title>
<g id="a_node26"><a xlink:href="classBluechiCheckUnitStatusCommand.html#a694d815f6355ea57d8afb742804b0e71" target="_top" xlink:title=" ">
<polygon fill="white" stroke="black" points="328.5,-799 328.5,-829 512.5,-829 512.5,-799 328.5,-799"/>
<text text-anchor="start" x="336.5" y="-817" font-family="Helvetica,sans-Serif" font-size="10.00">BluechiCheckUnitStatusCommand</text>
<text text-anchor="middle" x="420.5" y="-806" font-family="Helvetica,sans-Serif" font-size="10.00">::Execute</text>
</a>
</g>
</g>
<!-- Node17&#45;&gt;Node26 -->
<g id="edge25" class="edge">
<title>Node17&#45;&gt;Node26</title>
<path fill="none" stroke="midnightblue" d="M616.97,-896.57C593.45,-879.95 553.68,-853.8 516,-838 507.96,-834.63 499.33,-831.64 490.67,-829.02"/>
<polygon fill="midnightblue" stroke="midnightblue" points="614.99,-899.45 625.15,-902.42 619.06,-893.76 614.99,-899.45"/>
</g>
<!-- Node27&#45;&gt;Node28 -->
<g id="edge29" class="edge">
<title>Node27&#45;&gt;Node28</title>
<path fill="none" stroke="midnightblue" d="M543.26,-322.37C534.26,-321.46 525.12,-320.53 516.12,-319.61"/>
<polygon fill="midnightblue" stroke="midnightblue" points="543.06,-325.87 553.37,-323.4 543.77,-318.91 543.06,-325.87"/>
</g>
<!-- Node30&#45;&gt;Node31 -->
<g id="edge32" class="edge">
<title>Node30&#45;&gt;Node31</title>
<path fill="none" stroke="midnightblue" d="M344.89,-492.12C326.39,-488.43 306.8,-484.52 289.09,-480.99"/>
<polygon fill="midnightblue" stroke="midnightblue" points="344.25,-495.56 354.74,-494.08 345.62,-488.69 344.25,-495.56"/>
</g>
<!-- Node31&#45;&gt;Node16 -->
<g id="edge33" class="edge">
<title>Node31&#45;&gt;Node16</title>
<path fill="none" stroke="midnightblue" d="M156.83,-459.38C148.27,-458.21 139.56,-457.01 131.09,-455.85"/>
<polygon fill="midnightblue" stroke="midnightblue" points="156.4,-462.85 166.78,-460.75 157.35,-455.92 156.4,-462.85"/>
</g>
<!-- Node34 -->
<g id="node34" class="node">
<title>Node34</title>
<g id="a_node34"><a xlink:href="classConfigHandler.html#a46bddb2de51517c28d4f6860e1844fe3" target="_top" xlink:title="get the value from containerManagement.conf file based on key">
<polygon fill="white" stroke="black" points="352,-711.5 352,-730.5 489,-730.5 489,-711.5 352,-711.5"/>
<text text-anchor="middle" x="420.5" y="-718.5" font-family="Helvetica,sans-Serif" font-size="10.00">ConfigHandler::GetValue</text>
</a>
</g>
</g>
<!-- Node33&#45;&gt;Node34 -->
<g id="edge37" class="edge">
<title>Node33&#45;&gt;Node34</title>
<path fill="none" stroke="midnightblue" d="M584.87,-755.27C574,-752.87 562.63,-750.36 552,-748 536,-744.45 532.04,-743.39 516,-740 501.1,-736.85 484.85,-733.54 470.1,-730.58"/>
<polygon fill="midnightblue" stroke="midnightblue" points="584.17,-758.7 594.69,-757.44 585.68,-751.87 584.17,-758.7"/>
</g>
<!-- Node35 -->
<g id="node35" class="node">
<title>Node35</title>
<g id="a_node35"><a xlink:href="main_8cpp.html#a0ddf1224851353fc92bfbff6f499fa97" target="_top" xlink:title=" ">
<polygon fill="white" stroke="black" points="207.5,-711.5 207.5,-730.5 248.5,-730.5 248.5,-711.5 207.5,-711.5"/>
<text text-anchor="middle" x="228" y="-718.5" font-family="Helvetica,sans-Serif" font-size="10.00">main</text>
</a>
</g>
</g>
<!-- Node34&#45;&gt;Node35 -->
<g id="edge38" class="edge">
<title>Node34&#45;&gt;Node35</title>
<path fill="none" stroke="midnightblue" d="M341.38,-721C307.42,-721 270.45,-721 248.53,-721"/>
<polygon fill="midnightblue" stroke="midnightblue" points="341.8,-724.5 351.8,-721 341.8,-717.5 341.8,-724.5"/>
</g>
<!-- Node36&#45;&gt;Node8 -->
<g id="edge40" class="edge">
<title>Node36&#45;&gt;Node8</title>
<path fill="none" stroke="midnightblue" d="M611.43,-591.36C586.94,-604.38 549.42,-623.82 516,-639 498.29,-647.04 478.35,-655.19 461.37,-661.87"/>
<polygon fill="midnightblue" stroke="midnightblue" points="613.29,-594.33 620.46,-586.53 609.99,-588.16 613.29,-594.33"/>
</g>
<!-- Node36&#45;&gt;Node9 -->
<g id="edge41" class="edge">
<title>Node36&#45;&gt;Node9</title>
<path fill="none" stroke="midnightblue" d="M578.46,-587.45C549.81,-592.48 515.42,-598.51 486.14,-603.65"/>
<polygon fill="midnightblue" stroke="midnightblue" points="579.09,-590.89 588.33,-585.72 577.88,-584 579.09,-590.89"/>
</g>
<!-- Node36&#45;&gt;Node29 -->
<g id="edge42" class="edge">
<title>Node36&#45;&gt;Node29</title>
<path fill="none" stroke="midnightblue" d="M578.08,-572.57C549.51,-570.46 515.29,-567.93 486.14,-565.78"/>
<polygon fill="midnightblue" stroke="midnightblue" points="578.1,-576.08 588.33,-573.33 578.62,-569.1 578.1,-576.08"/>
</g>
<!-- Node36&#45;&gt;Node30 -->
<g id="edge43" class="edge">
<title>Node36&#45;&gt;Node30</title>
<path fill="none" stroke="midnightblue" d="M600.49,-564.11C576.4,-555.9 544.42,-545.13 516,-536 501.62,-531.38 485.96,-526.51 471.6,-522.11"/>
<polygon fill="midnightblue" stroke="midnightblue" points="599.37,-567.42 609.96,-567.34 601.63,-560.8 599.37,-567.42"/>
</g>
</g>
</svg>
        <g id="navigator" transform="translate(0 0)" fill="#404254">
                <rect fill="#f2f5e9" fill-opacity="0.5" stroke="#606060" stroke-width=".5" x="0" y="0" width="60" height="60"/>
                <use id="zoomplus" xlink:href="#zoomPlus" x="17" y="9" onmousedown="handleZoom(evt,'in')"/>
                <use id="zoomminus" xlink:href="#zoomMin" x="42" y="9" onmousedown="handleZoom(evt,'out')"/>
                <use id="reset" xlink:href="#resetDef" x="30" y="36" onmousedown="handleReset()"/>
                <g id="arrowUp" xlink:href="#dirArrow" transform="translate(30 24)" onmousedown="handlePan(0,-1)">
                  <use xlink:href="#rim" fill="#404040">
                        <set attributeName="fill" to="#808080" begin="arrowUp.mouseover" end="arrowUp.mouseout"/>
                  </use>
                  <path fill="none" stroke="white" stroke-width="1.5" d="M0,-3.0v7 M-2.5,-0.5L0,-3.0L2.5,-0.5"/>
                </g>
                <g id="arrowRight" xlink:href="#dirArrow" transform="rotate(90) translate(36 -43)" onmousedown="handlePan(1,0)">
                  <use xlink:href="#rim" fill="#404040">
                        <set attributeName="fill" to="#808080" begin="arrowRight.mouseover" end="arrowRight.mouseout"/>
                  </use>
                  <path fill="none" stroke="white" stroke-width="1.5" d="M0,-3.0v7 M-2.5,-0.5L0,-3.0L2.5,-0.5"/>
                </g>
                <g id="arrowDown" xlink:href="#dirArrow" transform="rotate(180) translate(-30 -48)" onmousedown="handlePan(0,1)">
                  <use xlink:href="#rim" fill="#404040">
                        <set attributeName="fill" to="#808080" begin="arrowDown.mouseover" end="arrowDown.mouseout"/>
                  </use>
                  <path fill="none" stroke="white" stroke-width="1.5" d="M0,-3.0v7 M-2.5,-0.5L0,-3.0L2.5,-0.5"/>
                </g>
                <g id="arrowLeft" xlink:href="#dirArrow" transform="rotate(270) translate(-36 17)" onmousedown="handlePan(-1,0)">
                  <use xlink:href="#rim" fill="#404040">
                        <set attributeName="fill" to="#808080" begin="arrowLeft.mouseover" end="arrowLeft.mouseout"/>
                  </use>
                  <path fill="none" stroke="white" stroke-width="1.5" d="M0,-3.0v7 M-2.5,-0.5L0,-3.0L2.5,-0.5"/>
                </g>
        </g>
        <svg viewBox="0 0 15 15" width="100%" height="30px" preserveAspectRatio="xMaxYMin meet">
         <g id="arrow_out" transform="scale(0.3 0.3)">
          <a xlink:href="classnlohmann_1_1detail_1_1serializer_a6d652a3bfa581cf1cd7790d6d11ea52f_icgraph_org.svg" target="_base">
           <rect id="button" ry="5" rx="5" y="6" x="6" height="38" width="38"
                fill="#f2f5e9" fill-opacity="0.5" stroke="#606060" stroke-width="1.0"/>
           <path id="arrow"
             d="M 11.500037,31.436501 C 11.940474,20.09759 22.043105,11.32322 32.158766,21.979434 L 37.068811,17.246167 C 37.068811,17.246167 37.088388,32 37.088388,32 L 22.160133,31.978069 C 22.160133,31.978069 26.997745,27.140456 26.997745,27.140456 C 18.528582,18.264221 13.291696,25.230495 11.500037,31.436501 z"
             style="fill:#404040;"/>
          </a>
         </g>
        </svg>
</svg>
