<?xml version="1.0" encoding="UTF-8" standalone="no"?>
<!DOCTYPE svg PUBLIC "-//W3C//DTD SVG 1.1//EN"
 "http://www.w3.org/Graphics/SVG/1.1/DTD/svg11.dtd">
<!-- Generated by graphviz version 2.43.0 (0)
 -->
<!-- Title: fuzzer::DictionaryEntry Pages: 1 -->
<svg width="146pt" height="391pt"
 viewBox="0.00 0.00 146.00 391.00" xmlns="http://www.w3.org/2000/svg" xmlns:xlink="http://www.w3.org/1999/xlink">
<g id="graph0" class="graph" transform="scale(1 1) rotate(0) translate(4 387)">
<title>fuzzer::DictionaryEntry</title>
<polygon fill="white" stroke="transparent" points="-4,4 -4,-387 142,-387 142,4 -4,4"/>
<!-- Node1 -->
<g id="node1" class="node">
<title>Node1</title>
<g id="a_node1"><a xlink:title=" ">
<polygon fill="#bfbfbf" stroke="black" points="5,-0.5 5,-189.5 133,-189.5 133,-0.5 5,-0.5"/>
<text text-anchor="middle" x="69" y="-177.5" font-family="Helvetica,sans-Serif" font-size="10.00">fuzzer::DictionaryEntry</text>
<polyline fill="none" stroke="black" points="5,-170.5 133,-170.5 "/>
<text text-anchor="start" x="13" y="-158.5" font-family="Helvetica,sans-Serif" font-size="10.00">&#45; PositionHint</text>
<text text-anchor="start" x="13" y="-147.5" font-family="Helvetica,sans-Serif" font-size="10.00">&#45; UseCount</text>
<text text-anchor="start" x="13" y="-136.5" font-family="Helvetica,sans-Serif" font-size="10.00">&#45; SuccessCount</text>
<polyline fill="none" stroke="black" points="5,-129.5 133,-129.5 "/>
<text text-anchor="start" x="13" y="-117.5" font-family="Helvetica,sans-Serif" font-size="10.00">+ DictionaryEntry()</text>
<text text-anchor="start" x="13" y="-106.5" font-family="Helvetica,sans-Serif" font-size="10.00">+ DictionaryEntry()</text>
<text text-anchor="start" x="13" y="-95.5" font-family="Helvetica,sans-Serif" font-size="10.00">+ DictionaryEntry()</text>
<text text-anchor="start" x="13" y="-84.5" font-family="Helvetica,sans-Serif" font-size="10.00">+ GetW()</text>
<text text-anchor="start" x="13" y="-73.5" font-family="Helvetica,sans-Serif" font-size="10.00">+ HasPositionHint()</text>
<text text-anchor="start" x="13" y="-62.5" font-family="Helvetica,sans-Serif" font-size="10.00">+ GetPositionHint()</text>
<text text-anchor="start" x="13" y="-51.5" font-family="Helvetica,sans-Serif" font-size="10.00">+ IncUseCount()</text>
<text text-anchor="start" x="13" y="-40.5" font-family="Helvetica,sans-Serif" font-size="10.00">+ IncSuccessCount()</text>
<text text-anchor="start" x="13" y="-29.5" font-family="Helvetica,sans-Serif" font-size="10.00">+ GetUseCount()</text>
<text text-anchor="start" x="13" y="-18.5" font-family="Helvetica,sans-Serif" font-size="10.00">+ GetSuccessCount()</text>
<text text-anchor="start" x="13" y="-7.5" font-family="Helvetica,sans-Serif" font-size="10.00">+ Print()</text>
</a>
</g>
</g>
<!-- Node2 -->
<g id="node2" class="node">
<title>Node2</title>
<g id="a_node2"><a xlink:href="classfuzzer_1_1FixedWord.html" target="_top" xlink:title=" ">
<polygon fill="white" stroke="black" points="0,-237.5 0,-382.5 138,-382.5 138,-237.5 0,-237.5"/>
<text text-anchor="middle" x="69" y="-370.5" font-family="Helvetica,sans-Serif" font-size="10.00">fuzzer::FixedWord&lt; 27 &gt;</text>
<polyline fill="none" stroke="black" points="0,-363.5 138,-363.5 "/>
<text text-anchor="start" x="8" y="-351.5" font-family="Helvetica,sans-Serif" font-size="10.00">&#45; Size</text>
<text text-anchor="start" x="8" y="-340.5" font-family="Helvetica,sans-Serif" font-size="10.00">&#45; Data</text>
<polyline fill="none" stroke="black" points="0,-333.5 138,-333.5 "/>
<text text-anchor="start" x="8" y="-321.5" font-family="Helvetica,sans-Serif" font-size="10.00">+ FixedWord()</text>
<text text-anchor="start" x="8" y="-310.5" font-family="Helvetica,sans-Serif" font-size="10.00">+ FixedWord()</text>
<text text-anchor="start" x="8" y="-299.5" font-family="Helvetica,sans-Serif" font-size="10.00">+ Set()</text>
<text text-anchor="start" x="8" y="-288.5" font-family="Helvetica,sans-Serif" font-size="10.00">+ operator==()</text>
<text text-anchor="start" x="8" y="-277.5" font-family="Helvetica,sans-Serif" font-size="10.00">+ operator&lt;()</text>
<text text-anchor="start" x="8" y="-266.5" font-family="Helvetica,sans-Serif" font-size="10.00">+ data()</text>
<text text-anchor="start" x="8" y="-255.5" font-family="Helvetica,sans-Serif" font-size="10.00">+ size()</text>
<text text-anchor="start" x="8" y="-244.5" font-family="Helvetica,sans-Serif" font-size="10.00">+ GetMaxSize()</text>
</a>
</g>
</g>
<!-- Node2&#45;&gt;Node1 -->
<g id="edge1" class="edge">
<title>Node2&#45;&gt;Node1</title>
<path fill="none" stroke="#404040" d="M69,-237.48C69,-225.97 69,-213.84 69,-201.73"/>
<polygon fill="none" stroke="#404040" points="69,-201.65 65,-195.65 69,-189.65 73,-195.65 69,-201.65"/>
<text text-anchor="middle" x="77.5" y="-211" font-family="Helvetica,sans-Serif" font-size="10.00"> &#45;W</text>
</g>
</g>
</svg>
