<?xml version="1.0" encoding="UTF-8" standalone="no"?>
<!DOCTYPE svg PUBLIC "-//W3C//DTD SVG 1.1//EN"
 "http://www.w3.org/Graphics/SVG/1.1/DTD/svg11.dtd">
<!-- Generated by graphviz version 2.43.0 (0)
 -->
<!-- Title: httplib::ClientImpl::send_with_content_provider Pages: 1 -->
<svg width="284pt" height="187pt"
 viewBox="0.00 0.00 284.00 186.50" xmlns="http://www.w3.org/2000/svg" xmlns:xlink="http://www.w3.org/1999/xlink">
<g id="graph0" class="graph" transform="scale(1 1) rotate(0) translate(4 182.5)">
<title>httplib::ClientImpl::send_with_content_provider</title>
<polygon fill="white" stroke="transparent" points="-4,4 -4,-182.5 280,-182.5 280,4 -4,4"/>
<!-- Node1 -->
<g id="node1" class="node">
<title>Node1</title>
<g id="a_node1"><a xlink:title=" ">
<polygon fill="#bfbfbf" stroke="black" points="162,-71.5 162,-112.5 276,-112.5 276,-71.5 162,-71.5"/>
<text text-anchor="start" x="170" y="-100.5" font-family="Helvetica,sans-Serif" font-size="10.00">httplib::ClientImpl</text>
<text text-anchor="start" x="170" y="-89.5" font-family="Helvetica,sans-Serif" font-size="10.00">::send_with_content</text>
<text text-anchor="middle" x="219" y="-78.5" font-family="Helvetica,sans-Serif" font-size="10.00">_provider</text>
</a>
</g>
</g>
<!-- Node2 -->
<g id="node2" class="node">
<title>Node2</title>
<g id="a_node2"><a xlink:href="classhttplib_1_1ClientImpl.html#ad454e536598fa610080587d8516b5c80" target="_top" xlink:title=" ">
<polygon fill="white" stroke="black" points="11,-148 11,-178 115,-178 115,-148 11,-148"/>
<text text-anchor="start" x="19" y="-166" font-family="Helvetica,sans-Serif" font-size="10.00">httplib::ClientImpl</text>
<text text-anchor="middle" x="63" y="-155" font-family="Helvetica,sans-Serif" font-size="10.00">::Patch</text>
</a>
</g>
</g>
<!-- Node1&#45;&gt;Node2 -->
<g id="edge1" class="edge">
<title>Node1&#45;&gt;Node2</title>
<path fill="none" stroke="midnightblue" d="M170.81,-117.28C156.56,-124.6 140.77,-132.39 126,-139 119.15,-142.06 111.78,-145.12 104.6,-147.97"/>
<polygon fill="midnightblue" stroke="midnightblue" points="172.66,-120.27 179.93,-112.56 169.44,-114.05 172.66,-120.27"/>
</g>
<!-- Node3 -->
<g id="node3" class="node">
<title>Node3</title>
<g id="a_node3"><a xlink:href="classhttplib_1_1ClientImpl.html#a31fe4e8466d44dc45e28d3e68db05e01" target="_top" xlink:title=" ">
<polygon fill="white" stroke="black" points="11,-99 11,-129 115,-129 115,-99 11,-99"/>
<text text-anchor="start" x="19" y="-117" font-family="Helvetica,sans-Serif" font-size="10.00">httplib::ClientImpl</text>
<text text-anchor="middle" x="63" y="-106" font-family="Helvetica,sans-Serif" font-size="10.00">::Post</text>
</a>
</g>
</g>
<!-- Node1&#45;&gt;Node3 -->
<g id="edge2" class="edge">
<title>Node1&#45;&gt;Node3</title>
<path fill="none" stroke="midnightblue" d="M151.78,-101.46C139.51,-103.21 126.87,-105.02 115.13,-106.7"/>
<polygon fill="midnightblue" stroke="midnightblue" points="152.56,-104.88 161.97,-100 151.57,-97.95 152.56,-104.88"/>
</g>
<!-- Node4 -->
<g id="node4" class="node">
<title>Node4</title>
<g id="a_node4"><a xlink:href="classhttplib_1_1ClientImpl.html#a048987c16a2f45382c1bb0d2102e4873" target="_top" xlink:title=" ">
<polygon fill="white" stroke="black" points="0,-60.5 0,-79.5 126,-79.5 126,-60.5 0,-60.5"/>
<text text-anchor="middle" x="63" y="-67.5" font-family="Helvetica,sans-Serif" font-size="10.00">httplib::ClientImpl::Put</text>
</a>
</g>
</g>
<!-- Node1&#45;&gt;Node4 -->
<g id="edge3" class="edge">
<title>Node1&#45;&gt;Node4</title>
<path fill="none" stroke="midnightblue" d="M152.03,-82.58C143.48,-81.35 134.73,-80.1 126.24,-78.89"/>
<polygon fill="midnightblue" stroke="midnightblue" points="151.57,-86.05 161.97,-84 152.56,-79.12 151.57,-86.05"/>
</g>
<!-- Node5 -->
<g id="node5" class="node">
<title>Node5</title>
<g id="a_node5"><a xlink:href="classhttplib_1_1ClientImpl.html#ac9d400990790ff3aa7f3639392181ddb" target="_top" xlink:title=" ">
<polygon fill="white" stroke="black" points="6,-0.5 6,-41.5 120,-41.5 120,-0.5 6,-0.5"/>
<text text-anchor="start" x="14" y="-29.5" font-family="Helvetica,sans-Serif" font-size="10.00">httplib::ClientImpl</text>
<text text-anchor="start" x="14" y="-18.5" font-family="Helvetica,sans-Serif" font-size="10.00">::send_with_content</text>
<text text-anchor="middle" x="63" y="-7.5" font-family="Helvetica,sans-Serif" font-size="10.00">_provider</text>
</a>
</g>
</g>
<!-- Node1&#45;&gt;Node5 -->
<g id="edge4" class="edge">
<title>Node1&#45;&gt;Node5</title>
<path fill="none" stroke="midnightblue" d="M164.18,-67.19C146.06,-58.83 126.05,-49.61 108.71,-41.61"/>
<polygon fill="midnightblue" stroke="midnightblue" points="162.91,-70.46 173.46,-71.46 165.84,-64.1 162.91,-70.46"/>
</g>
</g>
</svg>
