<?xml version="1.0" encoding="UTF-8" standalone="no"?>
<!DOCTYPE svg PUBLIC "-//W3C//DTD SVG 1.1//EN"
 "http://www.w3.org/Graphics/SVG/1.1/DTD/svg11.dtd">
<!-- Generated by graphviz version 2.43.0 (0)
 -->
<!-- Title: nlohmann::basic_json::is_number_integer Pages: 1 -->
<!--zoomable 165 -->
<svg id="main" version="1.1" xmlns="http://www.w3.org/2000/svg" xmlns:xlink="http://www.w3.org/1999/xlink" xml:space="preserve" onload="init(evt)">
<style type="text/css"><![CDATA[
.edge:hover path { stroke: red; }
.edge:hover polygon { stroke: red; fill: red; }
]]></style>
<script type="text/javascript"><![CDATA[
var edges = document.getElementsByTagName('g');
if (edges && edges.length) {
  for (var i=0;i<edges.length;i++) {
    if (edges[i].id.substr(0,4)=='edge') {
      edges[i].setAttribute('class','edge');
    }
  }
}
]]></script>
        <defs>
                <circle id="rim" cx="0" cy="0" r="7"/>
                <circle id="rim2" cx="0" cy="0" r="3.5"/>
                <g id="zoomPlus">
                        <use xlink:href="#rim" fill="#404040">
                                <set attributeName="fill" to="#808080" begin="zoomplus.mouseover" end="zoomplus.mouseout"/>
                        </use>
                        <path d="M-4,0h8M0,-4v8" fill="none" stroke="white" stroke-width="1.5" pointer-events="none"/>
                </g>
                <g id="zoomMin">
                        <use xlink:href="#rim" fill="#404040">
                                <set attributeName="fill" to="#808080" begin="zoomminus.mouseover" end="zoomminus.mouseout"/>
                        </use>
                        <path d="M-4,0h8" fill="none" stroke="white" stroke-width="1.5" pointer-events="none"/>
                </g>
                <g id="dirArrow">
                        <path fill="none" stroke="white" stroke-width="1.5" d="M0,-3.0v7 M-2.5,-0.5L0,-3.0L2.5,-0.5"/>
                </g>
               <g id="resetDef">
                       <use xlink:href="#rim2" fill="#404040">
                               <set attributeName="fill" to="#808080" begin="reset.mouseover" end="reset.mouseout"/>
                       </use>
               </g>
        </defs>

<script type="text/javascript">
var viewWidth = 553;
var viewHeight = 165;
var sectionId = 'dynsection-194';
</script>
<script xlink:href="svgpan.js"/>
<svg id="graph" class="graph">
<g id="viewport">
<title>nlohmann::basic_json::is_number_integer</title>
<polygon fill="white" stroke="transparent" points="-4,4 -4,-160.5 549,-160.5 549,4 -4,4"/>
<!-- Node1 -->
<g id="node1" class="node">
<title>Node1</title>
<g id="a_node1"><a xlink:title="return whether value is an integer number">
<polygon fill="#bfbfbf" stroke="black" points="423,-55 423,-85 545,-85 545,-55 423,-55"/>
<text text-anchor="start" x="431" y="-73" font-family="Helvetica,sans-Serif" font-size="10.00">nlohmann::basic_json</text>
<text text-anchor="middle" x="484" y="-62" font-family="Helvetica,sans-Serif" font-size="10.00">::is_number_integer</text>
</a>
</g>
</g>
<!-- Node2 -->
<g id="node2" class="node">
<title>Node2</title>
<g id="a_node2"><a xlink:href="classnlohmann_1_1basic__json.html#a32a4c3ccdd09b663614adce1834a0a50" target="_top" xlink:title="get a pointer to the value (integer number)">
<polygon fill="white" stroke="black" points="265,-126 265,-156 387,-156 387,-126 265,-126"/>
<text text-anchor="start" x="273" y="-144" font-family="Helvetica,sans-Serif" font-size="10.00">nlohmann::basic_json</text>
<text text-anchor="middle" x="326" y="-133" font-family="Helvetica,sans-Serif" font-size="10.00">::get_impl_ptr</text>
</a>
</g>
</g>
<!-- Node1&#45;&gt;Node2 -->
<g id="edge1" class="edge">
<title>Node1&#45;&gt;Node2</title>
<path fill="none" stroke="midnightblue" d="M443.3,-89.6C426.09,-97.94 405.65,-107.66 387,-116 379.58,-119.32 371.59,-122.75 363.94,-125.96"/>
<polygon fill="midnightblue" stroke="midnightblue" points="445.03,-92.64 452.49,-85.12 441.97,-86.35 445.03,-92.64"/>
</g>
<!-- Node3 -->
<g id="node3" class="node">
<title>Node3</title>
<g id="a_node3"><a xlink:href="classnlohmann_1_1basic__json.html#a2b9852390abb4b1ef5fac6984e2fc0f3" target="_top" xlink:title="return whether value is a number">
<polygon fill="white" stroke="black" points="265,-77 265,-107 387,-107 387,-77 265,-77"/>
<text text-anchor="start" x="273" y="-95" font-family="Helvetica,sans-Serif" font-size="10.00">nlohmann::basic_json</text>
<text text-anchor="middle" x="326" y="-84" font-family="Helvetica,sans-Serif" font-size="10.00">::is_number</text>
</a>
</g>
</g>
<!-- Node1&#45;&gt;Node3 -->
<g id="edge2" class="edge">
<title>Node1&#45;&gt;Node3</title>
<path fill="none" stroke="midnightblue" d="M412.74,-79.91C404.2,-81.11 395.53,-82.34 387.15,-83.52"/>
<polygon fill="midnightblue" stroke="midnightblue" points="413.27,-83.37 422.69,-78.51 412.3,-76.44 413.27,-83.37"/>
</g>
<!-- Node8 -->
<g id="node8" class="node">
<title>Node8</title>
<g id="a_node8"><a xlink:href="is__number__integer_8cpp.html#ae66f6b31b5ad750f1fe042a706a4e3d4" target="_top" xlink:title=" ">
<polygon fill="white" stroke="black" points="305.5,-38.5 305.5,-57.5 346.5,-57.5 346.5,-38.5 305.5,-38.5"/>
<text text-anchor="middle" x="326" y="-45.5" font-family="Helvetica,sans-Serif" font-size="10.00">main</text>
</a>
</g>
</g>
<!-- Node1&#45;&gt;Node8 -->
<g id="edge8" class="edge">
<title>Node1&#45;&gt;Node8</title>
<path fill="none" stroke="midnightblue" d="M412.48,-60.05C388.46,-56.67 363.49,-53.15 346.78,-50.79"/>
<polygon fill="midnightblue" stroke="midnightblue" points="412.3,-63.56 422.69,-61.49 413.27,-56.63 412.3,-63.56"/>
</g>
<!-- Node9 -->
<g id="node9" class="node">
<title>Node9</title>
<g id="a_node9"><a xlink:href="unit-bson_8cpp.html#a4f9ffa47724af1f2b49e0204497d0e07" target="_top" xlink:title=" ">
<polygon fill="white" stroke="black" points="290.5,-0.5 290.5,-19.5 361.5,-19.5 361.5,-0.5 290.5,-0.5"/>
<text text-anchor="middle" x="326" y="-7.5" font-family="Helvetica,sans-Serif" font-size="10.00">TEST_CASE</text>
</a>
</g>
</g>
<!-- Node1&#45;&gt;Node9 -->
<g id="edge9" class="edge">
<title>Node1&#45;&gt;Node9</title>
<path fill="none" stroke="midnightblue" d="M440.58,-50.84C424.01,-43.63 404.76,-35.59 387,-29 378.09,-25.69 368.3,-22.44 359.27,-19.59"/>
<polygon fill="midnightblue" stroke="midnightblue" points="439.43,-54.15 450,-54.97 442.25,-47.74 439.43,-54.15"/>
</g>
<!-- Node4 -->
<g id="node4" class="node">
<title>Node4</title>
<g id="a_node4"><a xlink:href="classnlohmann_1_1basic__json.html#a6362b88718eb5c6d4fed6a61eed44b95" target="_top" xlink:title="return whether type is primitive">
<polygon fill="white" stroke="black" points="107,-121 107,-151 229,-151 229,-121 107,-121"/>
<text text-anchor="start" x="115" y="-139" font-family="Helvetica,sans-Serif" font-size="10.00">nlohmann::basic_json</text>
<text text-anchor="middle" x="168" y="-128" font-family="Helvetica,sans-Serif" font-size="10.00">::is_primitive</text>
</a>
</g>
</g>
<!-- Node3&#45;&gt;Node4 -->
<g id="edge3" class="edge">
<title>Node3&#45;&gt;Node4</title>
<path fill="none" stroke="midnightblue" d="M261.85,-109.81C248.72,-113.52 235.01,-117.38 222.27,-120.97"/>
<polygon fill="midnightblue" stroke="midnightblue" points="263.08,-113.1 271.75,-107.02 261.18,-106.37 263.08,-113.1"/>
</g>
<!-- Node6 -->
<g id="node6" class="node">
<title>Node6</title>
<g id="a_node6"><a xlink:href="unit-inspection_8cpp.html#a7c45242f718e95a5a52e19e456f8e228" target="_top" xlink:title=" ">
<polygon fill="white" stroke="black" points="0,-85.5 0,-104.5 71,-104.5 71,-85.5 0,-85.5"/>
<text text-anchor="middle" x="35.5" y="-92.5" font-family="Helvetica,sans-Serif" font-size="10.00">TEST_CASE</text>
</a>
</g>
</g>
<!-- Node3&#45;&gt;Node6 -->
<g id="edge7" class="edge">
<title>Node3&#45;&gt;Node6</title>
<path fill="none" stroke="midnightblue" d="M254.65,-92.73C196.5,-93.34 116.42,-94.17 71.21,-94.64"/>
<polygon fill="midnightblue" stroke="midnightblue" points="254.91,-96.23 264.87,-92.63 254.84,-89.23 254.91,-96.23"/>
</g>
<!-- Node7 -->
<g id="node7" class="node">
<title>Node7</title>
<g id="a_node7"><a xlink:href="is__number_8cpp.html#ae66f6b31b5ad750f1fe042a706a4e3d4" target="_top" xlink:title=" ">
<polygon fill="white" stroke="black" points="147.5,-44.5 147.5,-63.5 188.5,-63.5 188.5,-44.5 147.5,-44.5"/>
<text text-anchor="middle" x="168" y="-51.5" font-family="Helvetica,sans-Serif" font-size="10.00">main</text>
</a>
</g>
</g>
<!-- Node3&#45;&gt;Node7 -->
<g id="edge6" class="edge">
<title>Node3&#45;&gt;Node7</title>
<path fill="none" stroke="midnightblue" d="M254.8,-74.9C230.68,-69.03 205.56,-62.91 188.78,-58.82"/>
<polygon fill="midnightblue" stroke="midnightblue" points="254.14,-78.34 264.69,-77.31 255.8,-71.54 254.14,-78.34"/>
</g>
<!-- Node5 -->
<g id="node5" class="node">
<title>Node5</title>
<g id="a_node5"><a xlink:href="is__primitive_8cpp.html#ae66f6b31b5ad750f1fe042a706a4e3d4" target="_top" xlink:title=" ">
<polygon fill="white" stroke="black" points="15,-126.5 15,-145.5 56,-145.5 56,-126.5 15,-126.5"/>
<text text-anchor="middle" x="35.5" y="-133.5" font-family="Helvetica,sans-Serif" font-size="10.00">main</text>
</a>
</g>
</g>
<!-- Node4&#45;&gt;Node5 -->
<g id="edge4" class="edge">
<title>Node4&#45;&gt;Node5</title>
<path fill="none" stroke="midnightblue" d="M96.41,-136C81.54,-136 67.05,-136 56.05,-136"/>
<polygon fill="midnightblue" stroke="midnightblue" points="96.72,-139.5 106.72,-136 96.72,-132.5 96.72,-139.5"/>
</g>
<!-- Node4&#45;&gt;Node6 -->
<g id="edge5" class="edge">
<title>Node4&#45;&gt;Node6</title>
<path fill="none" stroke="midnightblue" d="M109.59,-117.96C94.89,-113.35 79.65,-108.56 66.91,-104.55"/>
<polygon fill="midnightblue" stroke="midnightblue" points="108.56,-121.31 119.15,-120.97 110.66,-114.63 108.56,-121.31"/>
</g>
</g>
</svg>
        <g id="navigator" transform="translate(0 0)" fill="#404254">
                <rect fill="#f2f5e9" fill-opacity="0.5" stroke="#606060" stroke-width=".5" x="0" y="0" width="60" height="60"/>
                <use id="zoomplus" xlink:href="#zoomPlus" x="17" y="9" onmousedown="handleZoom(evt,'in')"/>
                <use id="zoomminus" xlink:href="#zoomMin" x="42" y="9" onmousedown="handleZoom(evt,'out')"/>
                <use id="reset" xlink:href="#resetDef" x="30" y="36" onmousedown="handleReset()"/>
                <g id="arrowUp" xlink:href="#dirArrow" transform="translate(30 24)" onmousedown="handlePan(0,-1)">
                  <use xlink:href="#rim" fill="#404040">
                        <set attributeName="fill" to="#808080" begin="arrowUp.mouseover" end="arrowUp.mouseout"/>
                  </use>
                  <path fill="none" stroke="white" stroke-width="1.5" d="M0,-3.0v7 M-2.5,-0.5L0,-3.0L2.5,-0.5"/>
                </g>
                <g id="arrowRight" xlink:href="#dirArrow" transform="rotate(90) translate(36 -43)" onmousedown="handlePan(1,0)">
                  <use xlink:href="#rim" fill="#404040">
                        <set attributeName="fill" to="#808080" begin="arrowRight.mouseover" end="arrowRight.mouseout"/>
                  </use>
                  <path fill="none" stroke="white" stroke-width="1.5" d="M0,-3.0v7 M-2.5,-0.5L0,-3.0L2.5,-0.5"/>
                </g>
                <g id="arrowDown" xlink:href="#dirArrow" transform="rotate(180) translate(-30 -48)" onmousedown="handlePan(0,1)">
                  <use xlink:href="#rim" fill="#404040">
                        <set attributeName="fill" to="#808080" begin="arrowDown.mouseover" end="arrowDown.mouseout"/>
                  </use>
                  <path fill="none" stroke="white" stroke-width="1.5" d="M0,-3.0v7 M-2.5,-0.5L0,-3.0L2.5,-0.5"/>
                </g>
                <g id="arrowLeft" xlink:href="#dirArrow" transform="rotate(270) translate(-36 17)" onmousedown="handlePan(-1,0)">
                  <use xlink:href="#rim" fill="#404040">
                        <set attributeName="fill" to="#808080" begin="arrowLeft.mouseover" end="arrowLeft.mouseout"/>
                  </use>
                  <path fill="none" stroke="white" stroke-width="1.5" d="M0,-3.0v7 M-2.5,-0.5L0,-3.0L2.5,-0.5"/>
                </g>
        </g>
        <svg viewBox="0 0 15 15" width="100%" height="30px" preserveAspectRatio="xMaxYMin meet">
         <g id="arrow_out" transform="scale(0.3 0.3)">
          <a xlink:href="classnlohmann_1_1basic__json_abac8af76067f1e8fdca9052882c74428_icgraph_org.svg" target="_base">
           <rect id="button" ry="5" rx="5" y="6" x="6" height="38" width="38"
                fill="#f2f5e9" fill-opacity="0.5" stroke="#606060" stroke-width="1.0"/>
           <path id="arrow"
             d="M 11.500037,31.436501 C 11.940474,20.09759 22.043105,11.32322 32.158766,21.979434 L 37.068811,17.246167 C 37.068811,17.246167 37.088388,32 37.088388,32 L 22.160133,31.978069 C 22.160133,31.978069 26.997745,27.140456 26.997745,27.140456 C 18.528582,18.264221 13.291696,25.230495 11.500037,31.436501 z"
             style="fill:#404040;"/>
          </a>
         </g>
        </svg>
</svg>
