<?xml version="1.0" encoding="UTF-8" standalone="no"?>
<!DOCTYPE svg PUBLIC "-//W3C//DTD SVG 1.1//EN"
 "http://www.w3.org/Graphics/SVG/1.1/DTD/svg11.dtd">
<!-- Generated by graphviz version 2.43.0 (0)
 -->
<!-- Title: fuzzer::Dictionary::ContainsWord Pages: 1 -->
<svg width="414pt" height="102pt"
 viewBox="0.00 0.00 414.00 102.00" xmlns="http://www.w3.org/2000/svg" xmlns:xlink="http://www.w3.org/1999/xlink">
<g id="graph0" class="graph" transform="scale(1 1) rotate(0) translate(4 98)">
<title>fuzzer::Dictionary::ContainsWord</title>
<polygon fill="white" stroke="transparent" points="-4,4 -4,-98 410,-98 410,4 -4,4"/>
<!-- Node1 -->
<g id="node1" class="node">
<title>Node1</title>
<g id="a_node1"><a xlink:title=" ">
<polygon fill="#bfbfbf" stroke="black" points="0,-44.5 0,-74.5 103,-74.5 103,-44.5 0,-44.5"/>
<text text-anchor="start" x="8" y="-62.5" font-family="Helvetica,sans-Serif" font-size="10.00">fuzzer::Dictionary</text>
<text text-anchor="middle" x="51.5" y="-51.5" font-family="Helvetica,sans-Serif" font-size="10.00">::ContainsWord</text>
</a>
</g>
</g>
<!-- Node2 -->
<g id="node2" class="node">
<title>Node2</title>
<g id="a_node2"><a xlink:href="classfuzzer_1_1Dictionary.html#a0bebb01956cc2c501a21786d434639d5" target="_top" xlink:title=" ">
<polygon fill="white" stroke="black" points="303,-63.5 303,-93.5 406,-93.5 406,-63.5 303,-63.5"/>
<text text-anchor="start" x="311" y="-81.5" font-family="Helvetica,sans-Serif" font-size="10.00">fuzzer::Dictionary</text>
<text text-anchor="middle" x="354.5" y="-70.5" font-family="Helvetica,sans-Serif" font-size="10.00">::begin</text>
</a>
</g>
</g>
<!-- Node1&#45;&gt;Node2 -->
<g id="edge1" class="edge">
<title>Node1&#45;&gt;Node2</title>
<path fill="none" stroke="midnightblue" d="M103.43,-72.6C115.04,-75.05 127.38,-77.24 139,-78.5 190.58,-84.1 249.56,-83.6 292.59,-81.99"/>
<polygon fill="midnightblue" stroke="midnightblue" points="292.78,-85.48 302.63,-81.58 292.49,-78.49 292.78,-85.48"/>
</g>
<!-- Node3 -->
<g id="node3" class="node">
<title>Node3</title>
<g id="a_node3"><a xlink:href="classfuzzer_1_1Dictionary.html#a48e4517c56c62485fffc5dc3e1c8f98c" target="_top" xlink:title=" ">
<polygon fill="white" stroke="black" points="140,-50 140,-69 266,-69 266,-50 140,-50"/>
<text text-anchor="middle" x="203" y="-57" font-family="Helvetica,sans-Serif" font-size="10.00">fuzzer::Dictionary::end</text>
</a>
</g>
</g>
<!-- Node1&#45;&gt;Node3 -->
<g id="edge2" class="edge">
<title>Node1&#45;&gt;Node3</title>
<path fill="none" stroke="midnightblue" d="M103.11,-59.5C111.67,-59.5 120.7,-59.5 129.68,-59.5"/>
<polygon fill="midnightblue" stroke="midnightblue" points="129.77,-63 139.77,-59.5 129.77,-56 129.77,-63"/>
</g>
<!-- Node4 -->
<g id="node4" class="node">
<title>Node4</title>
<g id="a_node4"><a xlink:href="classfuzzer_1_1DictionaryEntry.html#a4d7c89683215524c4bf46a95c57fae8b" target="_top" xlink:title=" ">
<polygon fill="white" stroke="black" points="139,-0.5 139,-30.5 267,-30.5 267,-0.5 139,-0.5"/>
<text text-anchor="start" x="147" y="-18.5" font-family="Helvetica,sans-Serif" font-size="10.00">fuzzer::DictionaryEntry</text>
<text text-anchor="middle" x="203" y="-7.5" font-family="Helvetica,sans-Serif" font-size="10.00">::GetW</text>
</a>
</g>
</g>
<!-- Node1&#45;&gt;Node4 -->
<g id="edge4" class="edge">
<title>Node1&#45;&gt;Node4</title>
<path fill="none" stroke="midnightblue" d="M103.11,-44.6C115.28,-41.02 128.4,-37.16 140.98,-33.46"/>
<polygon fill="midnightblue" stroke="midnightblue" points="142.32,-36.71 150.93,-30.53 140.35,-30 142.32,-36.71"/>
</g>
<!-- Node3&#45;&gt;Node2 -->
<g id="edge3" class="edge">
<title>Node3&#45;&gt;Node2</title>
<path fill="none" stroke="midnightblue" d="M266.1,-67.39C274.87,-68.51 283.87,-69.65 292.61,-70.76"/>
<polygon fill="midnightblue" stroke="midnightblue" points="292.36,-74.26 302.72,-72.05 293.24,-67.31 292.36,-74.26"/>
</g>
</g>
</svg>
