<?xml version="1.0" encoding="UTF-8" standalone="no"?>
<!DOCTYPE svg PUBLIC "-//W3C//DTD SVG 1.1//EN"
 "http://www.w3.org/Graphics/SVG/1.1/DTD/svg11.dtd">
<!-- Generated by graphviz version 2.43.0 (0)
 -->
<!-- Title: fuzzer::TraceState::WantToHandleOneMoreMutation Pages: 1 -->
<svg width="374pt" height="78pt"
 viewBox="0.00 0.00 374.00 77.50" xmlns="http://www.w3.org/2000/svg" xmlns:xlink="http://www.w3.org/1999/xlink">
<g id="graph0" class="graph" transform="scale(1 1) rotate(0) translate(4 73.5)">
<title>fuzzer::TraceState::WantToHandleOneMoreMutation</title>
<polygon fill="white" stroke="transparent" points="-4,4 -4,-73.5 370,-73.5 370,4 -4,4"/>
<!-- Node1 -->
<g id="node1" class="node">
<title>Node1</title>
<g id="a_node1"><a xlink:title=" ">
<polygon fill="#bfbfbf" stroke="black" points="0,-22.5 0,-52.5 181,-52.5 181,-22.5 0,-22.5"/>
<text text-anchor="start" x="8" y="-40.5" font-family="Helvetica,sans-Serif" font-size="10.00">fuzzer::TraceState</text>
<text text-anchor="middle" x="90.5" y="-29.5" font-family="Helvetica,sans-Serif" font-size="10.00">::WantToHandleOneMoreMutation</text>
</a>
</g>
</g>
<!-- Node2 -->
<g id="node2" class="node">
<title>Node2</title>
<g id="a_node2"><a xlink:href="FuzzerTracePC_8cpp.html#a1f10ac78bd11294b612636121065eb5b" target="_top" xlink:title=" ">
<polygon fill="white" stroke="black" points="268,-50 268,-69 315,-69 315,-50 268,-50"/>
<text text-anchor="middle" x="291.5" y="-57" font-family="Helvetica,sans-Serif" font-size="10.00">assert</text>
</a>
</g>
</g>
<!-- Node1&#45;&gt;Node2 -->
<g id="edge1" class="edge">
<title>Node1&#45;&gt;Node2</title>
<path fill="none" stroke="midnightblue" d="M181.1,-47.41C208.46,-50.43 236.83,-53.57 257.82,-55.89"/>
<polygon fill="midnightblue" stroke="midnightblue" points="257.46,-59.37 267.79,-56.99 258.23,-52.41 257.46,-59.37"/>
</g>
<!-- Node3 -->
<g id="node3" class="node">
<title>Node3</title>
<g id="a_node3"><a xlink:href="classfuzzer_1_1MutationDispatcher.html#a22242737e63376b4ab6c22210c42c8ab" target="_top" xlink:title=" ">
<polygon fill="white" stroke="black" points="217,-0.5 217,-30.5 366,-30.5 366,-0.5 217,-0.5"/>
<text text-anchor="start" x="225" y="-18.5" font-family="Helvetica,sans-Serif" font-size="10.00">fuzzer::MutationDispatcher</text>
<text text-anchor="middle" x="291.5" y="-7.5" font-family="Helvetica,sans-Serif" font-size="10.00">::GetRand</text>
</a>
</g>
</g>
<!-- Node1&#45;&gt;Node3 -->
<g id="edge2" class="edge">
<title>Node1&#45;&gt;Node3</title>
<path fill="none" stroke="midnightblue" d="M181.1,-27.59C189.61,-26.65 198.22,-25.7 206.67,-24.77"/>
<polygon fill="midnightblue" stroke="midnightblue" points="207.33,-28.22 216.88,-23.64 206.56,-21.26 207.33,-28.22"/>
</g>
</g>
</svg>
