<?xml version="1.0" encoding="UTF-8" standalone="no"?>
<!DOCTYPE svg PUBLIC "-//W3C//DTD SVG 1.1//EN"
 "http://www.w3.org/Graphics/SVG/1.1/DTD/svg11.dtd">
<!-- Generated by graphviz version 2.43.0 (0)
 -->
<!-- Title: nlohmann::detail::output_vector_adapter&lt; CharType &gt; Pages: 1 -->
<svg width="334pt" height="303pt"
 viewBox="0.00 0.00 334.00 303.00" xmlns="http://www.w3.org/2000/svg" xmlns:xlink="http://www.w3.org/1999/xlink">
<g id="graph0" class="graph" transform="scale(1 1) rotate(0) translate(4 299)">
<title>nlohmann::detail::output_vector_adapter&lt; CharType &gt;</title>
<polygon fill="white" stroke="transparent" points="-4,4 -4,-299 330,-299 330,4 -4,4"/>
<!-- Node1 -->
<g id="node1" class="node">
<title>Node1</title>
<g id="a_node1"><a xlink:title="output adapter for byte vectors">
<polygon fill="#bfbfbf" stroke="black" points="90.5,-0.5 90.5,-123.5 253.5,-123.5 253.5,-0.5 90.5,-0.5"/>
<text text-anchor="start" x="98.5" y="-111.5" font-family="Helvetica,sans-Serif" font-size="10.00">nlohmann::detail::output</text>
<text text-anchor="middle" x="172" y="-100.5" font-family="Helvetica,sans-Serif" font-size="10.00">_vector_adapter&lt; CharType &gt;</text>
<polyline fill="none" stroke="black" points="90.5,-93.5 253.5,-93.5 "/>
<text text-anchor="middle" x="172" y="-81.5" font-family="Helvetica,sans-Serif" font-size="10.00"> </text>
<polyline fill="none" stroke="black" points="90.5,-74.5 253.5,-74.5 "/>
<text text-anchor="start" x="98.5" y="-62.5" font-family="Helvetica,sans-Serif" font-size="10.00">+ output_vector_adapter()</text>
<text text-anchor="start" x="98.5" y="-51.5" font-family="Helvetica,sans-Serif" font-size="10.00">+ write_character()</text>
<text text-anchor="start" x="98.5" y="-40.5" font-family="Helvetica,sans-Serif" font-size="10.00">+ write_characters()</text>
<text text-anchor="start" x="98.5" y="-29.5" font-family="Helvetica,sans-Serif" font-size="10.00">+ output_vector_adapter()</text>
<text text-anchor="start" x="98.5" y="-18.5" font-family="Helvetica,sans-Serif" font-size="10.00">+ write_character()</text>
<text text-anchor="start" x="98.5" y="-7.5" font-family="Helvetica,sans-Serif" font-size="10.00">+ write_characters()</text>
</a>
</g>
</g>
<!-- Node2 -->
<g id="node2" class="node">
<title>Node2</title>
<g id="a_node2"><a xlink:href="structnlohmann_1_1detail_1_1output__adapter__protocol.html" target="_top" xlink:title="abstract output adapter interface">
<polygon fill="white" stroke="black" points="0,-171.5 0,-294.5 172,-294.5 172,-171.5 0,-171.5"/>
<text text-anchor="start" x="8" y="-282.5" font-family="Helvetica,sans-Serif" font-size="10.00">nlohmann::detail::output</text>
<text text-anchor="middle" x="86" y="-271.5" font-family="Helvetica,sans-Serif" font-size="10.00">_adapter_protocol&lt; CharType &gt;</text>
<polyline fill="none" stroke="black" points="0,-264.5 172,-264.5 "/>
<text text-anchor="middle" x="86" y="-252.5" font-family="Helvetica,sans-Serif" font-size="10.00"> </text>
<polyline fill="none" stroke="black" points="0,-245.5 172,-245.5 "/>
<text text-anchor="start" x="8" y="-233.5" font-family="Helvetica,sans-Serif" font-size="10.00">+ write_character()</text>
<text text-anchor="start" x="8" y="-222.5" font-family="Helvetica,sans-Serif" font-size="10.00">+ write_characters()</text>
<text text-anchor="start" x="8" y="-211.5" font-family="Helvetica,sans-Serif" font-size="10.00">+ ~output_adapter_protocol()</text>
<text text-anchor="start" x="8" y="-200.5" font-family="Helvetica,sans-Serif" font-size="10.00">+ write_character()</text>
<text text-anchor="start" x="8" y="-189.5" font-family="Helvetica,sans-Serif" font-size="10.00">+ write_characters()</text>
<text text-anchor="start" x="8" y="-178.5" font-family="Helvetica,sans-Serif" font-size="10.00">+ ~output_adapter_protocol()</text>
</a>
</g>
</g>
<!-- Node2&#45;&gt;Node1 -->
<g id="edge1" class="edge">
<title>Node2&#45;&gt;Node1</title>
<path fill="none" stroke="midnightblue" d="M121.5,-162.25C128.01,-149.45 134.76,-136.19 141.12,-123.68"/>
<polygon fill="none" stroke="midnightblue" points="118.22,-160.96 116.81,-171.46 124.46,-164.14 118.22,-160.96"/>
</g>
<!-- Node3 -->
<g id="node3" class="node">
<title>Node3</title>
<g id="a_node3"><a xlink:title=" ">
<polygon fill="white" stroke="#bfbfbf" points="190,-204.5 190,-261.5 326,-261.5 326,-204.5 190,-204.5"/>
<text text-anchor="middle" x="258" y="-249.5" font-family="Helvetica,sans-Serif" font-size="10.00">std::vector&lt; CharType &gt;</text>
<polyline fill="none" stroke="#bfbfbf" points="190,-242.5 326,-242.5 "/>
<text text-anchor="start" x="198" y="-230.5" font-family="Helvetica,sans-Serif" font-size="10.00">+ elements</text>
<polyline fill="none" stroke="#bfbfbf" points="190,-223.5 326,-223.5 "/>
<text text-anchor="middle" x="258" y="-211.5" font-family="Helvetica,sans-Serif" font-size="10.00"> </text>
</a>
</g>
</g>
<!-- Node3&#45;&gt;Node1 -->
<g id="edge2" class="edge">
<title>Node3&#45;&gt;Node1</title>
<path fill="none" stroke="#404040" d="M243.99,-204.47C234.33,-185.49 221.02,-159.32 208.46,-134.65"/>
<polygon fill="none" stroke="#404040" points="208.4,-134.52 202.11,-130.99 202.95,-123.83 209.24,-127.36 208.4,-134.52"/>
<text text-anchor="middle" x="224.5" y="-145" font-family="Helvetica,sans-Serif" font-size="10.00"> &#45;v</text>
</g>
</g>
</svg>
