<?xml version="1.0" encoding="UTF-8" standalone="no"?>
<!DOCTYPE svg PUBLIC "-//W3C//DTD SVG 1.1//EN"
 "http://www.w3.org/Graphics/SVG/1.1/DTD/svg11.dtd">
<!-- Generated by graphviz version 2.43.0 (0)
 -->
<!-- Title: benchmark::State::range Pages: 1 -->
<svg width="329pt" height="66pt"
 viewBox="0.00 0.00 329.00 66.00" xmlns="http://www.w3.org/2000/svg" xmlns:xlink="http://www.w3.org/1999/xlink">
<g id="graph0" class="graph" transform="scale(1 1) rotate(0) translate(4 62)">
<title>benchmark::State::range</title>
<polygon fill="white" stroke="transparent" points="-4,4 -4,-62 325,-62 325,4 -4,4"/>
<!-- Node1 -->
<g id="node1" class="node">
<title>Node1</title>
<g id="a_node1"><a xlink:title=" ">
<polygon fill="#bfbfbf" stroke="black" points="184,-19.5 184,-38.5 321,-38.5 321,-19.5 184,-19.5"/>
<text text-anchor="middle" x="252.5" y="-26.5" font-family="Helvetica,sans-Serif" font-size="10.00">benchmark::State::range</text>
</a>
</g>
</g>
<!-- Node2 -->
<g id="node2" class="node">
<title>Node2</title>
<g id="a_node2"><a xlink:href="classbenchmark_1_1State.html#a1389b27af8052b6abea74479a0f96f9a" target="_top" xlink:title=" ">
<polygon fill="white" stroke="black" points="0,-38.5 0,-57.5 148,-57.5 148,-38.5 0,-38.5"/>
<text text-anchor="middle" x="74" y="-45.5" font-family="Helvetica,sans-Serif" font-size="10.00">benchmark::State::range_x</text>
</a>
</g>
</g>
<!-- Node1&#45;&gt;Node2 -->
<g id="edge1" class="edge">
<title>Node1&#45;&gt;Node2</title>
<path fill="none" stroke="midnightblue" d="M173.82,-37.36C165.28,-38.28 156.61,-39.21 148.13,-40.13"/>
<polygon fill="midnightblue" stroke="midnightblue" points="174.2,-40.84 183.77,-36.29 173.45,-33.88 174.2,-40.84"/>
</g>
<!-- Node3 -->
<g id="node3" class="node">
<title>Node3</title>
<g id="a_node3"><a xlink:href="classbenchmark_1_1State.html#aa4d4ab2113ca29358a0e5a8c41311fcd" target="_top" xlink:title=" ">
<polygon fill="white" stroke="black" points="0,-0.5 0,-19.5 148,-19.5 148,-0.5 0,-0.5"/>
<text text-anchor="middle" x="74" y="-7.5" font-family="Helvetica,sans-Serif" font-size="10.00">benchmark::State::range_y</text>
</a>
</g>
</g>
<!-- Node1&#45;&gt;Node3 -->
<g id="edge2" class="edge">
<title>Node1&#45;&gt;Node3</title>
<path fill="none" stroke="midnightblue" d="M173.82,-20.64C165.28,-19.72 156.61,-18.79 148.13,-17.87"/>
<polygon fill="midnightblue" stroke="midnightblue" points="173.45,-24.12 183.77,-21.71 174.2,-17.16 173.45,-24.12"/>
</g>
</g>
</svg>
