<?xml version="1.0" encoding="UTF-8" standalone="no"?>
<!DOCTYPE svg PUBLIC "-//W3C//DTD SVG 1.1//EN"
 "http://www.w3.org/Graphics/SVG/1.1/DTD/svg11.dtd">
<!-- Generated by graphviz version 2.43.0 (0)
 -->
<!-- Title: BluechiStartAsilUnitCommand::Execute Pages: 1 -->
<svg width="752pt" height="104pt"
 viewBox="0.00 0.00 752.00 104.00" xmlns="http://www.w3.org/2000/svg" xmlns:xlink="http://www.w3.org/1999/xlink">
<g id="graph0" class="graph" transform="scale(1 1) rotate(0) translate(4 100)">
<title>BluechiStartAsilUnitCommand::Execute</title>
<polygon fill="white" stroke="transparent" points="-4,4 -4,-100 748,-100 748,4 -4,4"/>
<!-- Node1 -->
<g id="node1" class="node">
<title>Node1</title>
<g id="a_node1"><a xlink:title=" ">
<polygon fill="#bfbfbf" stroke="black" points="0,-33 0,-63 164,-63 164,-33 0,-33"/>
<text text-anchor="start" x="8" y="-51" font-family="Helvetica,sans-Serif" font-size="10.00">BluechiStartAsilUnitCommand</text>
<text text-anchor="middle" x="82" y="-40" font-family="Helvetica,sans-Serif" font-size="10.00">::Execute</text>
</a>
</g>
</g>
<!-- Node2 -->
<g id="node2" class="node">
<title>Node2</title>
<g id="a_node2"><a xlink:href="classDatabaseHandler.html#aeb2cfac9504d4c44c6f23a87cb06b75a" target="_top" xlink:title="Get the singleton instance of the DatabaseHandler class.">
<polygon fill="white" stroke="black" points="220,-76.5 220,-95.5 386,-95.5 386,-76.5 220,-76.5"/>
<text text-anchor="middle" x="303" y="-83.5" font-family="Helvetica,sans-Serif" font-size="10.00">DatabaseHandler::GetInstance</text>
</a>
</g>
</g>
<!-- Node1&#45;&gt;Node2 -->
<g id="edge1" class="edge">
<title>Node1&#45;&gt;Node2</title>
<path fill="none" stroke="midnightblue" d="M164.24,-62.1C188.31,-66.27 214.33,-70.79 237.21,-74.76"/>
<polygon fill="midnightblue" stroke="midnightblue" points="236.7,-78.22 247.15,-76.48 237.89,-71.32 236.7,-78.22"/>
</g>
<!-- Node3 -->
<g id="node3" class="node">
<title>Node3</title>
<g id="a_node3"><a xlink:href="classDatabaseHandler.html#a51bb2f3e9a4c847e65fdccab307a542c" target="_top" xlink:title="Read the data from the database.">
<polygon fill="white" stroke="black" points="225.5,-38.5 225.5,-57.5 380.5,-57.5 380.5,-38.5 225.5,-38.5"/>
<text text-anchor="middle" x="303" y="-45.5" font-family="Helvetica,sans-Serif" font-size="10.00">DatabaseHandler::ReadData</text>
</a>
</g>
</g>
<!-- Node1&#45;&gt;Node3 -->
<g id="edge2" class="edge">
<title>Node1&#45;&gt;Node3</title>
<path fill="none" stroke="midnightblue" d="M164.24,-48C180.77,-48 198.22,-48 214.95,-48"/>
<polygon fill="midnightblue" stroke="midnightblue" points="215.25,-51.5 225.25,-48 215.25,-44.5 215.25,-51.5"/>
</g>
<!-- Node7 -->
<g id="node7" class="node">
<title>Node7</title>
<g id="a_node7"><a xlink:href="classDatabaseHandler.html#a943545e8a1f0390d8e85343811ca94d7" target="_top" xlink:title="Update the set of running apps in the database.">
<polygon fill="white" stroke="black" points="200,-0.5 200,-19.5 406,-19.5 406,-0.5 200,-0.5"/>
<text text-anchor="middle" x="303" y="-7.5" font-family="Helvetica,sans-Serif" font-size="10.00">DatabaseHandler::UpdateRunningApps</text>
</a>
</g>
</g>
<!-- Node1&#45;&gt;Node7 -->
<g id="edge6" class="edge">
<title>Node1&#45;&gt;Node7</title>
<path fill="none" stroke="midnightblue" d="M164.24,-33.9C188.31,-29.73 214.33,-25.21 237.21,-21.24"/>
<polygon fill="midnightblue" stroke="midnightblue" points="237.89,-24.68 247.15,-19.52 236.7,-17.78 237.89,-24.68"/>
</g>
<!-- Node4 -->
<g id="node4" class="node">
<title>Node4</title>
<g id="a_node4"><a xlink:href="classnlohmann_1_1basic__json.html#a9286acdc0578fc66e9346323e69fc0e3" target="_top" xlink:title="check the existence of an element in a JSON object">
<polygon fill="white" stroke="black" points="453,-55 453,-85 575,-85 575,-55 453,-55"/>
<text text-anchor="start" x="461" y="-73" font-family="Helvetica,sans-Serif" font-size="10.00">nlohmann::basic_json</text>
<text text-anchor="middle" x="514" y="-62" font-family="Helvetica,sans-Serif" font-size="10.00">::contains</text>
</a>
</g>
</g>
<!-- Node3&#45;&gt;Node4 -->
<g id="edge3" class="edge">
<title>Node3&#45;&gt;Node4</title>
<path fill="none" stroke="midnightblue" d="M380.64,-56.07C400.88,-58.2 422.62,-60.49 442.51,-62.58"/>
<polygon fill="midnightblue" stroke="midnightblue" points="442.42,-66.09 452.73,-63.66 443.15,-59.13 442.42,-66.09"/>
</g>
<!-- Node6 -->
<g id="node6" class="node">
<title>Node6</title>
<g id="a_node6"><a xlink:href="classnlohmann_1_1basic__json.html#a6b187a22994c12c8cae0dd5ee99dc85e" target="_top" xlink:title="get special&#45;case overload">
<polygon fill="white" stroke="black" points="442,-16.5 442,-35.5 586,-35.5 586,-16.5 442,-16.5"/>
<text text-anchor="middle" x="514" y="-23.5" font-family="Helvetica,sans-Serif" font-size="10.00">nlohmann::basic_json::get</text>
</a>
</g>
</g>
<!-- Node3&#45;&gt;Node6 -->
<g id="edge5" class="edge">
<title>Node3&#45;&gt;Node6</title>
<path fill="none" stroke="midnightblue" d="M380.64,-39.93C397.23,-38.19 414.84,-36.33 431.61,-34.57"/>
<polygon fill="midnightblue" stroke="midnightblue" points="432.34,-38.01 441.92,-33.48 431.61,-31.05 432.34,-38.01"/>
</g>
<!-- Node5 -->
<g id="node5" class="node">
<title>Node5</title>
<g id="a_node5"><a xlink:href="classnlohmann_1_1basic__json.html#af8f511af124e82e4579f444b4175787c" target="_top" xlink:title="return whether value is an object">
<polygon fill="white" stroke="black" points="622,-55 622,-85 744,-85 744,-55 622,-55"/>
<text text-anchor="start" x="630" y="-73" font-family="Helvetica,sans-Serif" font-size="10.00">nlohmann::basic_json</text>
<text text-anchor="middle" x="683" y="-62" font-family="Helvetica,sans-Serif" font-size="10.00">::is_object</text>
</a>
</g>
</g>
<!-- Node4&#45;&gt;Node5 -->
<g id="edge4" class="edge">
<title>Node4&#45;&gt;Node5</title>
<path fill="none" stroke="midnightblue" d="M575.29,-70C587.12,-70 599.61,-70 611.73,-70"/>
<polygon fill="midnightblue" stroke="midnightblue" points="611.8,-73.5 621.8,-70 611.8,-66.5 611.8,-73.5"/>
</g>
</g>
</svg>
