<?xml version="1.0" encoding="UTF-8" standalone="no"?>
<!DOCTYPE svg PUBLIC "-//W3C//DTD SVG 1.1//EN"
 "http://www.w3.org/Graphics/SVG/1.1/DTD/svg11.dtd">
<!-- Generated by graphviz version 2.43.0 (0)
 -->
<!-- Title: nlohmann::basic_json::cend Pages: 1 -->
<svg width="470pt" height="313pt"
 viewBox="0.00 0.00 470.00 313.00" xmlns="http://www.w3.org/2000/svg" xmlns:xlink="http://www.w3.org/1999/xlink">
<g id="graph0" class="graph" transform="scale(1 1) rotate(0) translate(4 309)">
<title>nlohmann::basic_json::cend</title>
<polygon fill="white" stroke="transparent" points="-4,4 -4,-309 466,-309 466,4 -4,4"/>
<!-- Node1 -->
<g id="node1" class="node">
<title>Node1</title>
<g id="a_node1"><a xlink:title="returns a const iterator to one past the last element">
<polygon fill="#bfbfbf" stroke="black" points="340,-132.5 340,-162.5 462,-162.5 462,-132.5 340,-132.5"/>
<text text-anchor="start" x="348" y="-150.5" font-family="Helvetica,sans-Serif" font-size="10.00">nlohmann::basic_json</text>
<text text-anchor="middle" x="401" y="-139.5" font-family="Helvetica,sans-Serif" font-size="10.00">::cend</text>
</a>
</g>
</g>
<!-- Node2 -->
<g id="node2" class="node">
<title>Node2</title>
<g id="a_node2"><a xlink:href="classnlohmann_1_1basic__json.html#a83fe4a151b3a591f357527d5d9aa1b9f" target="_top" xlink:title="access the last element">
<polygon fill="white" stroke="black" points="170,-274.5 170,-304.5 292,-304.5 292,-274.5 170,-274.5"/>
<text text-anchor="start" x="178" y="-292.5" font-family="Helvetica,sans-Serif" font-size="10.00">nlohmann::basic_json</text>
<text text-anchor="middle" x="231" y="-281.5" font-family="Helvetica,sans-Serif" font-size="10.00">::back</text>
</a>
</g>
</g>
<!-- Node1&#45;&gt;Node2 -->
<g id="edge1" class="edge">
<title>Node1&#45;&gt;Node2</title>
<path fill="none" stroke="midnightblue" d="M386.23,-171.57C369.86,-198.16 340.15,-240.52 304,-265.5 299.12,-268.87 293.73,-271.8 288.17,-274.33"/>
<polygon fill="midnightblue" stroke="midnightblue" points="389.31,-173.25 391.46,-162.88 383.31,-169.65 389.31,-173.25"/>
</g>
<!-- Node3 -->
<g id="node3" class="node">
<title>Node3</title>
<g id="a_node3"><a xlink:href="classnlohmann_1_1basic__json.html#a1e0769d22d54573f294da0e5c6abc9de" target="_top" xlink:title="returns a const reverse iterator to the last element">
<polygon fill="white" stroke="black" points="170,-225.5 170,-255.5 292,-255.5 292,-225.5 170,-225.5"/>
<text text-anchor="start" x="178" y="-243.5" font-family="Helvetica,sans-Serif" font-size="10.00">nlohmann::basic_json</text>
<text text-anchor="middle" x="231" y="-232.5" font-family="Helvetica,sans-Serif" font-size="10.00">::crbegin</text>
</a>
</g>
</g>
<!-- Node1&#45;&gt;Node3 -->
<g id="edge2" class="edge">
<title>Node1&#45;&gt;Node3</title>
<path fill="none" stroke="midnightblue" d="M374.34,-169.23C355.76,-184.12 329.52,-203.46 304,-216.5 297.55,-219.8 290.54,-222.79 283.52,-225.45"/>
<polygon fill="midnightblue" stroke="midnightblue" points="376.76,-171.77 382.31,-162.74 372.34,-166.34 376.76,-171.77"/>
</g>
<!-- Node6 -->
<g id="node6" class="node">
<title>Node6</title>
<g id="a_node6"><a xlink:href="classnlohmann_1_1basic__json.html#a9c4f3554773649beef69461a10a3de87" target="_top" xlink:title="creates a diff as a JSON patch">
<polygon fill="white" stroke="black" points="170,-176.5 170,-206.5 292,-206.5 292,-176.5 170,-176.5"/>
<text text-anchor="start" x="178" y="-194.5" font-family="Helvetica,sans-Serif" font-size="10.00">nlohmann::basic_json</text>
<text text-anchor="middle" x="231" y="-183.5" font-family="Helvetica,sans-Serif" font-size="10.00">::diff</text>
</a>
</g>
</g>
<!-- Node1&#45;&gt;Node6 -->
<g id="edge5" class="edge">
<title>Node1&#45;&gt;Node6</title>
<path fill="none" stroke="midnightblue" d="M332.82,-165.09C318.43,-168.86 303.35,-172.81 289.37,-176.47"/>
<polygon fill="midnightblue" stroke="midnightblue" points="333.87,-168.44 342.65,-162.52 332.09,-161.67 333.87,-168.44"/>
</g>
<!-- Node10 -->
<g id="node10" class="node">
<title>Node10</title>
<g id="a_node10"><a xlink:href="classnlohmann_1_1basic__json.html#a1c15707055088cd5436ae91db72cbe67" target="_top" xlink:title="returns a const iterator to one past the last element">
<polygon fill="white" stroke="black" points="158,-138 158,-157 304,-157 304,-138 158,-138"/>
<text text-anchor="middle" x="231" y="-145" font-family="Helvetica,sans-Serif" font-size="10.00">nlohmann::basic_json::end</text>
</a>
</g>
</g>
<!-- Node1&#45;&gt;Node10 -->
<g id="edge9" class="edge">
<title>Node1&#45;&gt;Node10</title>
<path fill="none" stroke="midnightblue" d="M329.64,-147.5C321.19,-147.5 312.56,-147.5 304.09,-147.5"/>
<polygon fill="midnightblue" stroke="midnightblue" points="329.82,-151 339.82,-147.5 329.82,-144 329.82,-151"/>
</g>
<!-- Node11 -->
<g id="node11" class="node">
<title>Node11</title>
<g id="a_node11"><a xlink:href="classnlohmann_1_1basic__json.html#ae625a0647486edf2bb38c849ca67f934" target="_top" xlink:title="find an element in a JSON object">
<polygon fill="white" stroke="black" points="170,-88.5 170,-118.5 292,-118.5 292,-88.5 170,-88.5"/>
<text text-anchor="start" x="178" y="-106.5" font-family="Helvetica,sans-Serif" font-size="10.00">nlohmann::basic_json</text>
<text text-anchor="middle" x="231" y="-95.5" font-family="Helvetica,sans-Serif" font-size="10.00">::find</text>
</a>
</g>
</g>
<!-- Node1&#45;&gt;Node11 -->
<g id="edge10" class="edge">
<title>Node1&#45;&gt;Node11</title>
<path fill="none" stroke="midnightblue" d="M332.82,-129.91C318.43,-126.14 303.35,-122.19 289.37,-118.53"/>
<polygon fill="midnightblue" stroke="midnightblue" points="332.09,-133.33 342.65,-132.48 333.87,-126.56 332.09,-133.33"/>
</g>
<!-- Node12 -->
<g id="node12" class="node">
<title>Node12</title>
<g id="a_node12"><a xlink:href="unit-algorithms_8cpp.html#abec8aad08c60a897bdb39a7a1adf9901" target="_top" xlink:title=" ">
<polygon fill="white" stroke="black" points="195.5,-50 195.5,-69 266.5,-69 266.5,-50 195.5,-50"/>
<text text-anchor="middle" x="231" y="-57" font-family="Helvetica,sans-Serif" font-size="10.00">TEST_CASE</text>
</a>
</g>
</g>
<!-- Node1&#45;&gt;Node12 -->
<g id="edge11" class="edge">
<title>Node1&#45;&gt;Node12</title>
<path fill="none" stroke="midnightblue" d="M374.83,-125.98C356.3,-111.09 329.92,-91.82 304,-79.5 292.28,-73.93 278.73,-69.66 266.57,-66.53"/>
<polygon fill="midnightblue" stroke="midnightblue" points="372.81,-128.85 382.76,-132.47 377.24,-123.43 372.81,-128.85"/>
</g>
<!-- Node13 -->
<g id="node13" class="node">
<title>Node13</title>
<g id="a_node13"><a xlink:href="classnlohmann_1_1basic__json.html#a1cfa9ae5e7c2434cab4cfe69bffffe11" target="_top" xlink:title="updates a JSON object from another object, overwriting existing keys">
<polygon fill="white" stroke="black" points="170,-0.5 170,-30.5 292,-30.5 292,-0.5 170,-0.5"/>
<text text-anchor="start" x="178" y="-18.5" font-family="Helvetica,sans-Serif" font-size="10.00">nlohmann::basic_json</text>
<text text-anchor="middle" x="231" y="-7.5" font-family="Helvetica,sans-Serif" font-size="10.00">::update</text>
</a>
</g>
</g>
<!-- Node1&#45;&gt;Node13 -->
<g id="edge12" class="edge">
<title>Node1&#45;&gt;Node13</title>
<path fill="none" stroke="midnightblue" d="M384.32,-123.91C367.2,-99.83 337.69,-62.9 304,-40.5 298.27,-36.69 291.9,-33.4 285.38,-30.57"/>
<polygon fill="midnightblue" stroke="midnightblue" points="381.47,-125.94 390.05,-132.15 387.22,-121.94 381.47,-125.94"/>
</g>
<!-- Node4 -->
<g id="node4" class="node">
<title>Node4</title>
<g id="a_node4"><a xlink:href="classnlohmann_1_1basic__json.html#a515e7618392317dbf4b72d3e18bf2ab2" target="_top" xlink:title="returns a const reverse iterator to the last element">
<polygon fill="white" stroke="black" points="0,-269.5 0,-299.5 122,-299.5 122,-269.5 0,-269.5"/>
<text text-anchor="start" x="8" y="-287.5" font-family="Helvetica,sans-Serif" font-size="10.00">nlohmann::basic_json</text>
<text text-anchor="middle" x="61" y="-276.5" font-family="Helvetica,sans-Serif" font-size="10.00">::rbegin</text>
</a>
</g>
</g>
<!-- Node3&#45;&gt;Node4 -->
<g id="edge3" class="edge">
<title>Node3&#45;&gt;Node4</title>
<path fill="none" stroke="midnightblue" d="M162.82,-258.09C148.43,-261.86 133.35,-265.81 119.37,-269.47"/>
<polygon fill="midnightblue" stroke="midnightblue" points="163.87,-261.44 172.65,-255.52 162.09,-254.67 163.87,-261.44"/>
</g>
<!-- Node5 -->
<g id="node5" class="node">
<title>Node5</title>
<g id="a_node5"><a xlink:href="unit-capacity_8cpp.html#aa7cd27113fe11aadbd2fc85683fdb99d" target="_top" xlink:title=" ">
<polygon fill="white" stroke="black" points="25.5,-231 25.5,-250 96.5,-250 96.5,-231 25.5,-231"/>
<text text-anchor="middle" x="61" y="-238" font-family="Helvetica,sans-Serif" font-size="10.00">TEST_CASE</text>
</a>
</g>
</g>
<!-- Node3&#45;&gt;Node5 -->
<g id="edge4" class="edge">
<title>Node3&#45;&gt;Node5</title>
<path fill="none" stroke="midnightblue" d="M159.64,-240.5C137.96,-240.5 115.04,-240.5 96.86,-240.5"/>
<polygon fill="midnightblue" stroke="midnightblue" points="159.82,-244 169.82,-240.5 159.82,-237 159.82,-244"/>
</g>
<!-- Node7 -->
<g id="node7" class="node">
<title>Node7</title>
<g id="a_node7"><a xlink:href="classnlohmann_1_1basic__json.html#a543bd5f7490de54c875b2c0912dc9a49" target="_top" xlink:title="creates a diff as a JSON patch">
<polygon fill="white" stroke="black" points="0,-181.5 0,-211.5 122,-211.5 122,-181.5 0,-181.5"/>
<text text-anchor="start" x="8" y="-199.5" font-family="Helvetica,sans-Serif" font-size="10.00">nlohmann::basic_json</text>
<text text-anchor="middle" x="61" y="-188.5" font-family="Helvetica,sans-Serif" font-size="10.00">::diff</text>
</a>
</g>
</g>
<!-- Node6&#45;&gt;Node7 -->
<g id="edge6" class="edge">
<title>Node6&#45;&gt;Node7</title>
<path fill="none" stroke="midnightblue" d="M159.48,-193.6C147.03,-193.97 134.17,-194.35 122.04,-194.71"/>
<polygon fill="midnightblue" stroke="midnightblue" points="159.93,-197.09 169.82,-193.29 159.72,-190.09 159.93,-197.09"/>
</g>
<!-- Node8 -->
<g id="node8" class="node">
<title>Node8</title>
<g id="a_node8"><a xlink:href="diff_8cpp.html#ae66f6b31b5ad750f1fe042a706a4e3d4" target="_top" xlink:title=" ">
<polygon fill="white" stroke="black" points="40.5,-143 40.5,-162 81.5,-162 81.5,-143 40.5,-143"/>
<text text-anchor="middle" x="61" y="-150" font-family="Helvetica,sans-Serif" font-size="10.00">main</text>
</a>
</g>
</g>
<!-- Node6&#45;&gt;Node8 -->
<g id="edge7" class="edge">
<title>Node6&#45;&gt;Node8</title>
<path fill="none" stroke="midnightblue" d="M159.92,-175.23C131.59,-168.66 101.1,-161.58 81.8,-157.1"/>
<polygon fill="midnightblue" stroke="midnightblue" points="159.29,-178.68 169.82,-177.53 160.87,-171.86 159.29,-178.68"/>
</g>
<!-- Node9 -->
<g id="node9" class="node">
<title>Node9</title>
<g id="a_node9"><a xlink:href="unit-json__patch_8cpp.html#a58658ae29d75546f62ea0ceb24fd3b20" target="_top" xlink:title=" ">
<polygon fill="white" stroke="black" points="25.5,-105 25.5,-124 96.5,-124 96.5,-105 25.5,-105"/>
<text text-anchor="middle" x="61" y="-112" font-family="Helvetica,sans-Serif" font-size="10.00">TEST_CASE</text>
</a>
</g>
</g>
<!-- Node6&#45;&gt;Node9 -->
<g id="edge8" class="edge">
<title>Node6&#45;&gt;Node9</title>
<path fill="none" stroke="midnightblue" d="M168.73,-172.22C165.03,-170.45 161.42,-168.54 158,-166.5 139.36,-155.38 140.79,-144.37 122,-133.5 114.24,-129.01 105.3,-125.45 96.73,-122.68"/>
<polygon fill="midnightblue" stroke="midnightblue" points="167.54,-175.52 178.1,-176.36 170.37,-169.12 167.54,-175.52"/>
</g>
<!-- Node14 -->
<g id="node14" class="node">
<title>Node14</title>
<g id="a_node14"><a xlink:href="unit-modifiers_8cpp.html#ae2e88fedf427cb288c85ef149fe2214a" target="_top" xlink:title=" ">
<polygon fill="white" stroke="black" points="25.5,-6 25.5,-25 96.5,-25 96.5,-6 25.5,-6"/>
<text text-anchor="middle" x="61" y="-13" font-family="Helvetica,sans-Serif" font-size="10.00">TEST_CASE</text>
</a>
</g>
</g>
<!-- Node13&#45;&gt;Node14 -->
<g id="edge13" class="edge">
<title>Node13&#45;&gt;Node14</title>
<path fill="none" stroke="midnightblue" d="M159.64,-15.5C137.96,-15.5 115.04,-15.5 96.86,-15.5"/>
<polygon fill="midnightblue" stroke="midnightblue" points="159.82,-19 169.82,-15.5 159.82,-12 159.82,-19"/>
</g>
</g>
</svg>
