<?xml version="1.0" encoding="UTF-8" standalone="no"?>
<!DOCTYPE svg PUBLIC "-//W3C//DTD SVG 1.1//EN"
 "http://www.w3.org/Graphics/SVG/1.1/DTD/svg11.dtd">
<!-- Generated by graphviz version 2.43.0 (0)
 -->
<!-- Title: httplib::ClientImpl::create_client_socket Pages: 1 -->
<svg width="605pt" height="274pt"
 viewBox="0.00 0.00 605.00 274.00" xmlns="http://www.w3.org/2000/svg" xmlns:xlink="http://www.w3.org/1999/xlink">
<g id="graph0" class="graph" transform="scale(1 1) rotate(0) translate(4 270)">
<title>httplib::ClientImpl::create_client_socket</title>
<polygon fill="white" stroke="transparent" points="-4,4 -4,-270 601,-270 601,4 -4,4"/>
<!-- Node1 -->
<g id="node1" class="node">
<title>Node1</title>
<g id="a_node1"><a xlink:title=" ">
<polygon fill="#bfbfbf" stroke="black" points="0,-120.5 0,-150.5 122,-150.5 122,-120.5 0,-120.5"/>
<text text-anchor="start" x="8" y="-138.5" font-family="Helvetica,sans-Serif" font-size="10.00">httplib::ClientImpl</text>
<text text-anchor="middle" x="61" y="-127.5" font-family="Helvetica,sans-Serif" font-size="10.00">::create_client_socket</text>
</a>
</g>
</g>
<!-- Node2 -->
<g id="node2" class="node">
<title>Node2</title>
<g id="a_node2"><a xlink:href="namespacehttplib_1_1detail.html#a96e1369eb97f8b8daeb8590efe81db15" target="_top" xlink:title=" ">
<polygon fill="white" stroke="black" points="158,-120.5 158,-150.5 277,-150.5 277,-120.5 158,-120.5"/>
<text text-anchor="start" x="166" y="-138.5" font-family="Helvetica,sans-Serif" font-size="10.00">httplib::detail::create</text>
<text text-anchor="middle" x="217.5" y="-127.5" font-family="Helvetica,sans-Serif" font-size="10.00">_client_socket</text>
</a>
</g>
</g>
<!-- Node1&#45;&gt;Node2 -->
<g id="edge1" class="edge">
<title>Node1&#45;&gt;Node2</title>
<path fill="none" stroke="midnightblue" d="M122.18,-135.5C130.49,-135.5 139.08,-135.5 147.54,-135.5"/>
<polygon fill="midnightblue" stroke="midnightblue" points="147.76,-139 157.76,-135.5 147.76,-132 147.76,-139"/>
</g>
<!-- Node3 -->
<g id="node3" class="node">
<title>Node3</title>
<g id="a_node3"><a xlink:href="namespacehttplib_1_1detail.html#ab56dd425e1a0658b754401c7957563a3" target="_top" xlink:title=" ">
<polygon fill="white" stroke="black" points="322,-235.5 322,-265.5 431,-265.5 431,-235.5 322,-235.5"/>
<text text-anchor="start" x="330" y="-253.5" font-family="Helvetica,sans-Serif" font-size="10.00">httplib::detail::bind</text>
<text text-anchor="middle" x="376.5" y="-242.5" font-family="Helvetica,sans-Serif" font-size="10.00">_ip_address</text>
</a>
</g>
</g>
<!-- Node2&#45;&gt;Node3 -->
<g id="edge2" class="edge">
<title>Node2&#45;&gt;Node3</title>
<path fill="none" stroke="midnightblue" d="M230.79,-150.64C247.56,-170.44 279.37,-205.11 313,-226.5 315.44,-228.05 317.99,-229.53 320.61,-230.93"/>
<polygon fill="midnightblue" stroke="midnightblue" points="319.21,-234.14 329.73,-235.4 322.29,-227.85 319.21,-234.14"/>
</g>
<!-- Node4 -->
<g id="node4" class="node">
<title>Node4</title>
<g id="a_node4"><a xlink:href="namespacehttplib_1_1detail.html#ae07e72bdc26c6ad27d8e3051bfe4d912" target="_top" xlink:title=" ">
<polygon fill="white" stroke="black" points="317,-186.5 317,-216.5 436,-216.5 436,-186.5 317,-186.5"/>
<text text-anchor="start" x="325" y="-204.5" font-family="Helvetica,sans-Serif" font-size="10.00">httplib::detail::create</text>
<text text-anchor="middle" x="376.5" y="-193.5" font-family="Helvetica,sans-Serif" font-size="10.00">_socket</text>
</a>
</g>
</g>
<!-- Node2&#45;&gt;Node4 -->
<g id="edge3" class="edge">
<title>Node2&#45;&gt;Node4</title>
<path fill="none" stroke="midnightblue" d="M252.52,-150.54C270.46,-158.4 292.86,-168.11 313,-176.5 317.8,-178.5 322.82,-180.56 327.83,-182.6"/>
<polygon fill="midnightblue" stroke="midnightblue" points="326.84,-185.97 337.42,-186.47 329.46,-179.48 326.84,-185.97"/>
</g>
<!-- Node7 -->
<g id="node7" class="node">
<title>Node7</title>
<g id="a_node7"><a xlink:href="FuzzerTracePC_8cpp.html#a04324001136ead9261bb82cc6bceea2f" target="_top" xlink:title=" ">
<polygon fill="white" stroke="black" points="362,-148 362,-167 391,-167 391,-148 362,-148"/>
<text text-anchor="middle" x="376.5" y="-155" font-family="Helvetica,sans-Serif" font-size="10.00">if</text>
</a>
</g>
</g>
<!-- Node2&#45;&gt;Node7 -->
<g id="edge6" class="edge">
<title>Node2&#45;&gt;Node7</title>
<path fill="none" stroke="midnightblue" d="M277.41,-143.75C303.25,-147.38 332.12,-151.42 351.81,-154.18"/>
<polygon fill="midnightblue" stroke="midnightblue" points="351.33,-157.65 361.72,-155.57 352.3,-150.72 351.33,-157.65"/>
</g>
<!-- Node8 -->
<g id="node8" class="node">
<title>Node8</title>
<g id="a_node8"><a xlink:href="namespacehttplib_1_1detail.html#aefb0b64a836468f95269d11943464a29" target="_top" xlink:title=" ">
<polygon fill="white" stroke="black" points="324.5,-98.5 324.5,-128.5 428.5,-128.5 428.5,-98.5 324.5,-98.5"/>
<text text-anchor="start" x="332.5" y="-116.5" font-family="Helvetica,sans-Serif" font-size="10.00">httplib::detail::is</text>
<text text-anchor="middle" x="376.5" y="-105.5" font-family="Helvetica,sans-Serif" font-size="10.00">_connection_error</text>
</a>
</g>
</g>
<!-- Node2&#45;&gt;Node8 -->
<g id="edge7" class="edge">
<title>Node2&#45;&gt;Node8</title>
<path fill="none" stroke="midnightblue" d="M277.41,-127.25C289.44,-125.56 302.13,-123.78 314.24,-122.08"/>
<polygon fill="midnightblue" stroke="midnightblue" points="314.83,-125.54 324.25,-120.68 313.86,-118.6 314.83,-125.54"/>
</g>
<!-- Node9 -->
<g id="node9" class="node">
<title>Node9</title>
<g id="a_node9"><a xlink:href="namespacehttplib_1_1detail.html#a697035fa14dcfff9fb4705d6cffea733" target="_top" xlink:title=" ">
<polygon fill="white" stroke="black" points="325,-49.5 325,-79.5 428,-79.5 428,-49.5 325,-49.5"/>
<text text-anchor="start" x="333" y="-67.5" font-family="Helvetica,sans-Serif" font-size="10.00">httplib::detail::set</text>
<text text-anchor="middle" x="376.5" y="-56.5" font-family="Helvetica,sans-Serif" font-size="10.00">_nonblocking</text>
</a>
</g>
</g>
<!-- Node2&#45;&gt;Node9 -->
<g id="edge8" class="edge">
<title>Node2&#45;&gt;Node9</title>
<path fill="none" stroke="midnightblue" d="M248.03,-120.44C266.54,-111.18 290.98,-99.25 313,-89.5 317.62,-87.45 322.47,-85.38 327.33,-83.36"/>
<polygon fill="midnightblue" stroke="midnightblue" points="328.72,-86.57 336.64,-79.54 326.06,-80.1 328.72,-86.57"/>
</g>
<!-- Node10 -->
<g id="node10" class="node">
<title>Node10</title>
<g id="a_node10"><a xlink:href="namespacehttplib_1_1detail.html#af5775ea20d33682ecef32a4f45d5d237" target="_top" xlink:title=" ">
<polygon fill="white" stroke="black" points="313,-0.5 313,-30.5 440,-30.5 440,-0.5 313,-0.5"/>
<text text-anchor="start" x="321" y="-18.5" font-family="Helvetica,sans-Serif" font-size="10.00">httplib::detail::wait</text>
<text text-anchor="middle" x="376.5" y="-7.5" font-family="Helvetica,sans-Serif" font-size="10.00">_until_socket_is_ready</text>
</a>
</g>
</g>
<!-- Node2&#45;&gt;Node10 -->
<g id="edge9" class="edge">
<title>Node2&#45;&gt;Node10</title>
<path fill="none" stroke="midnightblue" d="M230.05,-120.2C246.45,-99.39 278.37,-62.18 313,-39.5 315.29,-38 317.69,-36.57 320.16,-35.22"/>
<polygon fill="midnightblue" stroke="midnightblue" points="321.95,-38.23 329.32,-30.62 318.81,-31.97 321.95,-38.23"/>
</g>
<!-- Node5 -->
<g id="node5" class="node">
<title>Node5</title>
<g id="a_node5"><a xlink:href="namespacehttplib_1_1detail.html#ab97ddef67a99aee8ed2aec5e20d90286" target="_top" xlink:title=" ">
<polygon fill="white" stroke="black" points="480,-208.5 480,-238.5 593,-238.5 593,-208.5 480,-208.5"/>
<text text-anchor="start" x="488" y="-226.5" font-family="Helvetica,sans-Serif" font-size="10.00">httplib::detail::close</text>
<text text-anchor="middle" x="536.5" y="-215.5" font-family="Helvetica,sans-Serif" font-size="10.00">_socket</text>
</a>
</g>
</g>
<!-- Node4&#45;&gt;Node5 -->
<g id="edge4" class="edge">
<title>Node4&#45;&gt;Node5</title>
<path fill="none" stroke="midnightblue" d="M436.33,-209.69C447.22,-211.21 458.64,-212.8 469.72,-214.34"/>
<polygon fill="midnightblue" stroke="midnightblue" points="469.37,-217.83 479.76,-215.74 470.34,-210.89 469.37,-217.83"/>
</g>
<!-- Node6 -->
<g id="node6" class="node">
<title>Node6</title>
<g id="a_node6"><a xlink:href="namespacehttplib.html#a498c3a79825ecbcb15c52ec5fcfd5c11" target="_top" xlink:title=" ">
<polygon fill="white" stroke="black" points="488,-170 488,-189 585,-189 585,-170 488,-170"/>
<text text-anchor="middle" x="536.5" y="-177" font-family="Helvetica,sans-Serif" font-size="10.00">httplib::to_string</text>
</a>
</g>
</g>
<!-- Node4&#45;&gt;Node6 -->
<g id="edge5" class="edge">
<title>Node4&#45;&gt;Node6</title>
<path fill="none" stroke="midnightblue" d="M436.33,-193.31C449.9,-191.42 464.31,-189.41 477.82,-187.53"/>
<polygon fill="midnightblue" stroke="midnightblue" points="478.53,-190.97 487.95,-186.12 477.57,-184.03 478.53,-190.97"/>
</g>
<!-- Node11 -->
<g id="node11" class="node">
<title>Node11</title>
<g id="a_node11"><a xlink:href="namespacehttplib_1_1detail.html#a8fbaa8fefb24f6dd249b62f832f64a84" target="_top" xlink:title=" ">
<polygon fill="white" stroke="black" points="476,-0.5 476,-30.5 597,-30.5 597,-0.5 476,-0.5"/>
<text text-anchor="start" x="484" y="-18.5" font-family="Helvetica,sans-Serif" font-size="10.00">httplib::detail::handle</text>
<text text-anchor="middle" x="536.5" y="-7.5" font-family="Helvetica,sans-Serif" font-size="10.00">_EINTR</text>
</a>
</g>
</g>
<!-- Node10&#45;&gt;Node11 -->
<g id="edge10" class="edge">
<title>Node10&#45;&gt;Node11</title>
<path fill="none" stroke="midnightblue" d="M440.4,-15.5C448.72,-15.5 457.29,-15.5 465.72,-15.5"/>
<polygon fill="midnightblue" stroke="midnightblue" points="465.9,-19 475.9,-15.5 465.9,-12 465.9,-19"/>
</g>
</g>
</svg>
