<?xml version="1.0" encoding="UTF-8" standalone="no"?>
<!DOCTYPE svg PUBLIC "-//W3C//DTD SVG 1.1//EN"
 "http://www.w3.org/Graphics/SVG/1.1/DTD/svg11.dtd">
<!-- Generated by graphviz version 2.43.0 (0)
 -->
<!-- Title: fuzzer::TracePC::HandleValueProfile Pages: 1 -->
<svg width="697pt" height="176pt"
 viewBox="0.00 0.00 697.00 175.50" xmlns="http://www.w3.org/2000/svg" xmlns:xlink="http://www.w3.org/1999/xlink">
<g id="graph0" class="graph" transform="scale(1 1) rotate(0) translate(4 171.5)">
<title>fuzzer::TracePC::HandleValueProfile</title>
<polygon fill="white" stroke="transparent" points="-4,4 -4,-171.5 693,-171.5 693,4 -4,4"/>
<!-- Node1 -->
<g id="node1" class="node">
<title>Node1</title>
<g id="a_node1"><a xlink:title=" ">
<polygon fill="#bfbfbf" stroke="black" points="529,-63 529,-93 689,-93 689,-63 529,-63"/>
<text text-anchor="start" x="537" y="-81" font-family="Helvetica,sans-Serif" font-size="10.00">fuzzer::TracePC::HandleValue</text>
<text text-anchor="middle" x="609" y="-70" font-family="Helvetica,sans-Serif" font-size="10.00">Profile</text>
</a>
</g>
</g>
<!-- Node2 -->
<g id="node2" class="node">
<title>Node2</title>
<g id="a_node2"><a xlink:href="classfuzzer_1_1TracePC.html#ac873c0772efbf1e88d94887cd5413f19" target="_top" xlink:title=" ">
<polygon fill="white" stroke="black" points="340.5,-137 340.5,-167 484.5,-167 484.5,-137 340.5,-137"/>
<text text-anchor="start" x="348.5" y="-155" font-family="Helvetica,sans-Serif" font-size="10.00">fuzzer::TracePC::AddValue</text>
<text text-anchor="middle" x="412.5" y="-144" font-family="Helvetica,sans-Serif" font-size="10.00">ForMemcmp</text>
</a>
</g>
</g>
<!-- Node1&#45;&gt;Node2 -->
<g id="edge1" class="edge">
<title>Node1&#45;&gt;Node2</title>
<path fill="none" stroke="midnightblue" d="M566.93,-97.25C545.2,-107.08 517.93,-118.85 493,-128 484.47,-131.13 475.33,-134.17 466.39,-136.98"/>
<polygon fill="midnightblue" stroke="midnightblue" points="568.54,-100.36 576.19,-93.03 565.64,-93.99 568.54,-100.36"/>
</g>
<!-- Node4 -->
<g id="node4" class="node">
<title>Node4</title>
<g id="a_node4"><a xlink:href="classfuzzer_1_1TracePC.html#a2dfb83f24f9feeacd9d88c91a5927d20" target="_top" xlink:title=" ">
<polygon fill="white" stroke="black" points="340.5,-88 340.5,-118 484.5,-118 484.5,-88 340.5,-88"/>
<text text-anchor="start" x="348.5" y="-106" font-family="Helvetica,sans-Serif" font-size="10.00">fuzzer::TracePC::AddValue</text>
<text text-anchor="middle" x="412.5" y="-95" font-family="Helvetica,sans-Serif" font-size="10.00">ForStrcmp</text>
</a>
</g>
</g>
<!-- Node1&#45;&gt;Node4 -->
<g id="edge3" class="edge">
<title>Node1&#45;&gt;Node4</title>
<path fill="none" stroke="midnightblue" d="M518.88,-89.45C507.43,-90.93 495.83,-92.42 484.72,-93.85"/>
<polygon fill="midnightblue" stroke="midnightblue" points="519.42,-92.91 528.89,-88.17 518.52,-85.97 519.42,-92.91"/>
</g>
<!-- Node9 -->
<g id="node9" class="node">
<title>Node9</title>
<g id="a_node9"><a xlink:href="classfuzzer_1_1TracePC.html#ac1f1ba5b505fd07061ad78563c2bc3ef" target="_top" xlink:title=" ">
<polygon fill="white" stroke="black" points="332,-39 332,-69 493,-69 493,-39 332,-39"/>
<text text-anchor="start" x="340" y="-57" font-family="Helvetica,sans-Serif" font-size="10.00">fuzzer::TracePC::HandleCaller</text>
<text text-anchor="middle" x="412.5" y="-46" font-family="Helvetica,sans-Serif" font-size="10.00">Callee</text>
</a>
</g>
</g>
<!-- Node1&#45;&gt;Node9 -->
<g id="edge8" class="edge">
<title>Node1&#45;&gt;Node9</title>
<path fill="none" stroke="midnightblue" d="M518.88,-67C510.31,-65.95 501.65,-64.88 493.17,-63.83"/>
<polygon fill="midnightblue" stroke="midnightblue" points="518.54,-70.49 528.89,-68.24 519.39,-63.54 518.54,-70.49"/>
</g>
<!-- Node10 -->
<g id="node10" class="node">
<title>Node10</title>
<g id="a_node10"><a xlink:href="classfuzzer_1_1TracePC.html#a7f62dfcd6b2ed7c706957392d66e13c3" target="_top" xlink:title=" ">
<polygon fill="white" stroke="black" points="335,-0.5 335,-19.5 490,-19.5 490,-0.5 335,-0.5"/>
<text text-anchor="middle" x="412.5" y="-7.5" font-family="Helvetica,sans-Serif" font-size="10.00">fuzzer::TracePC::HandleCmp</text>
</a>
</g>
</g>
<!-- Node1&#45;&gt;Node10 -->
<g id="edge9" class="edge">
<title>Node1&#45;&gt;Node10</title>
<path fill="none" stroke="midnightblue" d="M567.1,-58.59C545.42,-48.8 518.13,-37.29 493,-29 482.22,-25.44 470.41,-22.25 459.27,-19.55"/>
<polygon fill="midnightblue" stroke="midnightblue" points="565.78,-61.83 576.33,-62.8 568.69,-55.46 565.78,-61.83"/>
</g>
<!-- Node3 -->
<g id="node3" class="node">
<title>Node3</title>
<g id="a_node3"><a xlink:href="FuzzerTraceState_8cpp.html#a43228990e9e44e88d4b3243252e40ad3" target="_top" xlink:title=" ">
<polygon fill="white" stroke="black" points="166,-137 166,-167 296,-167 296,-137 166,-137"/>
<text text-anchor="start" x="174" y="-155" font-family="Helvetica,sans-Serif" font-size="10.00">__sanitizer_weak_hook</text>
<text text-anchor="middle" x="231" y="-144" font-family="Helvetica,sans-Serif" font-size="10.00">_memcmp</text>
</a>
</g>
</g>
<!-- Node2&#45;&gt;Node3 -->
<g id="edge2" class="edge">
<title>Node2&#45;&gt;Node3</title>
<path fill="none" stroke="midnightblue" d="M329.95,-152C318.61,-152 307.09,-152 296.13,-152"/>
<polygon fill="midnightblue" stroke="midnightblue" points="330.3,-155.5 340.3,-152 330.3,-148.5 330.3,-155.5"/>
</g>
<!-- Node5 -->
<g id="node5" class="node">
<title>Node5</title>
<g id="a_node5"><a xlink:href="FuzzerTraceState_8cpp.html#ae558ebb8cef5368c10d9def8c101e865" target="_top" xlink:title=" ">
<polygon fill="white" stroke="black" points="166,-88 166,-118 296,-118 296,-88 166,-88"/>
<text text-anchor="start" x="174" y="-106" font-family="Helvetica,sans-Serif" font-size="10.00">__sanitizer_weak_hook</text>
<text text-anchor="middle" x="231" y="-95" font-family="Helvetica,sans-Serif" font-size="10.00">_strcmp</text>
</a>
</g>
</g>
<!-- Node4&#45;&gt;Node5 -->
<g id="edge4" class="edge">
<title>Node4&#45;&gt;Node5</title>
<path fill="none" stroke="midnightblue" d="M329.95,-103C318.61,-103 307.09,-103 296.13,-103"/>
<polygon fill="midnightblue" stroke="midnightblue" points="330.3,-106.5 340.3,-103 330.3,-99.5 330.3,-106.5"/>
</g>
<!-- Node7 -->
<g id="node7" class="node">
<title>Node7</title>
<g id="a_node7"><a xlink:href="FuzzerTraceState_8cpp.html#a000b7fe9a111a8b501ddef439f95e065" target="_top" xlink:title=" ">
<polygon fill="white" stroke="black" points="166,-39 166,-69 296,-69 296,-39 166,-39"/>
<text text-anchor="start" x="174" y="-57" font-family="Helvetica,sans-Serif" font-size="10.00">__sanitizer_weak_hook</text>
<text text-anchor="middle" x="231" y="-46" font-family="Helvetica,sans-Serif" font-size="10.00">_strncmp</text>
</a>
</g>
</g>
<!-- Node4&#45;&gt;Node7 -->
<g id="edge6" class="edge">
<title>Node4&#45;&gt;Node7</title>
<path fill="none" stroke="midnightblue" d="M346.48,-85.25C327.03,-79.94 305.89,-74.17 287.14,-69.05"/>
<polygon fill="midnightblue" stroke="midnightblue" points="345.61,-88.64 356.18,-87.9 347.45,-81.89 345.61,-88.64"/>
</g>
<!-- Node6 -->
<g id="node6" class="node">
<title>Node6</title>
<g id="a_node6"><a xlink:href="FuzzerTraceState_8cpp.html#aaf41cc0658e4eed506755faed029c2a9" target="_top" xlink:title=" ">
<polygon fill="white" stroke="black" points="0,-88 0,-118 130,-118 130,-88 0,-88"/>
<text text-anchor="start" x="8" y="-106" font-family="Helvetica,sans-Serif" font-size="10.00">__sanitizer_weak_hook</text>
<text text-anchor="middle" x="65" y="-95" font-family="Helvetica,sans-Serif" font-size="10.00">_strcasecmp</text>
</a>
</g>
</g>
<!-- Node5&#45;&gt;Node6 -->
<g id="edge5" class="edge">
<title>Node5&#45;&gt;Node6</title>
<path fill="none" stroke="midnightblue" d="M155.44,-103C147,-103 138.45,-103 130.16,-103"/>
<polygon fill="midnightblue" stroke="midnightblue" points="155.65,-106.5 165.65,-103 155.65,-99.5 155.65,-106.5"/>
</g>
<!-- Node8 -->
<g id="node8" class="node">
<title>Node8</title>
<g id="a_node8"><a xlink:href="FuzzerTraceState_8cpp.html#a289014feb172a9f61b9b19638cd3795a" target="_top" xlink:title=" ">
<polygon fill="white" stroke="black" points="0,-39 0,-69 130,-69 130,-39 0,-39"/>
<text text-anchor="start" x="8" y="-57" font-family="Helvetica,sans-Serif" font-size="10.00">__sanitizer_weak_hook</text>
<text text-anchor="middle" x="65" y="-46" font-family="Helvetica,sans-Serif" font-size="10.00">_strncasecmp</text>
</a>
</g>
</g>
<!-- Node7&#45;&gt;Node8 -->
<g id="edge7" class="edge">
<title>Node7&#45;&gt;Node8</title>
<path fill="none" stroke="midnightblue" d="M155.44,-54C147,-54 138.45,-54 130.16,-54"/>
<polygon fill="midnightblue" stroke="midnightblue" points="155.65,-57.5 165.65,-54 155.65,-50.5 155.65,-57.5"/>
</g>
</g>
</svg>
