<?xml version="1.0" encoding="UTF-8" standalone="no"?>
<!DOCTYPE svg PUBLIC "-//W3C//DTD SVG 1.1//EN"
 "http://www.w3.org/Graphics/SVG/1.1/DTD/svg11.dtd">
<!-- Generated by graphviz version 2.43.0 (0)
 -->
<!-- Title: nlohmann::basic_json::update Pages: 1 -->
<!--zoomable 333 -->
<svg id="main" version="1.1" xmlns="http://www.w3.org/2000/svg" xmlns:xlink="http://www.w3.org/1999/xlink" xml:space="preserve" onload="init(evt)">
<style type="text/css"><![CDATA[
.edge:hover path { stroke: red; }
.edge:hover polygon { stroke: red; fill: red; }
]]></style>
<script type="text/javascript"><![CDATA[
var edges = document.getElementsByTagName('g');
if (edges && edges.length) {
  for (var i=0;i<edges.length;i++) {
    if (edges[i].id.substr(0,4)=='edge') {
      edges[i].setAttribute('class','edge');
    }
  }
}
]]></script>
        <defs>
                <circle id="rim" cx="0" cy="0" r="7"/>
                <circle id="rim2" cx="0" cy="0" r="3.5"/>
                <g id="zoomPlus">
                        <use xlink:href="#rim" fill="#404040">
                                <set attributeName="fill" to="#808080" begin="zoomplus.mouseover" end="zoomplus.mouseout"/>
                        </use>
                        <path d="M-4,0h8M0,-4v8" fill="none" stroke="white" stroke-width="1.5" pointer-events="none"/>
                </g>
                <g id="zoomMin">
                        <use xlink:href="#rim" fill="#404040">
                                <set attributeName="fill" to="#808080" begin="zoomminus.mouseover" end="zoomminus.mouseout"/>
                        </use>
                        <path d="M-4,0h8" fill="none" stroke="white" stroke-width="1.5" pointer-events="none"/>
                </g>
                <g id="dirArrow">
                        <path fill="none" stroke="white" stroke-width="1.5" d="M0,-3.0v7 M-2.5,-0.5L0,-3.0L2.5,-0.5"/>
                </g>
               <g id="resetDef">
                       <use xlink:href="#rim2" fill="#404040">
                               <set attributeName="fill" to="#808080" begin="reset.mouseover" end="reset.mouseout"/>
                       </use>
               </g>
        </defs>

<script type="text/javascript">
var viewWidth = 615;
var viewHeight = 333;
var sectionId = 'dynsection-308';
</script>
<script xlink:href="svgpan.js"/>
<svg id="graph" class="graph">
<g id="viewport">
<title>nlohmann::basic_json::update</title>
<polygon fill="white" stroke="transparent" points="-4,4 -4,-329 611,-329 611,4 -4,4"/>
<!-- Node1 -->
<g id="node1" class="node">
<title>Node1</title>
<g id="a_node1"><a xlink:title="updates a JSON object from another object, overwriting existing keys">
<polygon fill="#bfbfbf" stroke="black" points="0,-147.5 0,-177.5 122,-177.5 122,-147.5 0,-147.5"/>
<text text-anchor="start" x="8" y="-165.5" font-family="Helvetica,sans-Serif" font-size="10.00">nlohmann::basic_json</text>
<text text-anchor="middle" x="61" y="-154.5" font-family="Helvetica,sans-Serif" font-size="10.00">::update</text>
</a>
</g>
</g>
<!-- Node2 -->
<g id="node2" class="node">
<title>Node2</title>
<g id="a_node2"><a xlink:href="classnlohmann_1_1basic__json.html#a4a82d3fb7a111641decf35c2fb707c7f" target="_top" xlink:title="checks the class invariants">
<polygon fill="white" stroke="black" points="160.5,-294.5 160.5,-324.5 282.5,-324.5 282.5,-294.5 160.5,-294.5"/>
<text text-anchor="start" x="168.5" y="-312.5" font-family="Helvetica,sans-Serif" font-size="10.00">nlohmann::basic_json</text>
<text text-anchor="middle" x="221.5" y="-301.5" font-family="Helvetica,sans-Serif" font-size="10.00">::assert_invariant</text>
</a>
</g>
</g>
<!-- Node1&#45;&gt;Node2 -->
<g id="edge1" class="edge">
<title>Node1&#45;&gt;Node2</title>
<path fill="none" stroke="midnightblue" d="M70.06,-177.51C84.48,-203.07 117.07,-255.2 158,-285.5 159.86,-286.88 161.81,-288.18 163.82,-289.43"/>
<polygon fill="midnightblue" stroke="midnightblue" points="162.52,-292.71 172.97,-294.45 165.89,-286.57 162.52,-292.71"/>
</g>
<!-- Node4 -->
<g id="node4" class="node">
<title>Node4</title>
<g id="a_node4"><a xlink:href="classnlohmann_1_1basic__json.html#ad865d6c291b237ae508d5cb2146b5877" target="_top" xlink:title="returns a const iterator to the first element">
<polygon fill="white" stroke="black" points="160.5,-245.5 160.5,-275.5 282.5,-275.5 282.5,-245.5 160.5,-245.5"/>
<text text-anchor="start" x="168.5" y="-263.5" font-family="Helvetica,sans-Serif" font-size="10.00">nlohmann::basic_json</text>
<text text-anchor="middle" x="221.5" y="-252.5" font-family="Helvetica,sans-Serif" font-size="10.00">::cbegin</text>
</a>
</g>
</g>
<!-- Node1&#45;&gt;Node4 -->
<g id="edge3" class="edge">
<title>Node1&#45;&gt;Node4</title>
<path fill="none" stroke="midnightblue" d="M78.62,-177.76C96.97,-193.98 127.91,-219.6 158,-236.5 160.89,-238.12 163.91,-239.68 166.99,-241.17"/>
<polygon fill="midnightblue" stroke="midnightblue" points="165.83,-244.49 176.39,-245.42 168.72,-238.11 165.83,-244.49"/>
</g>
<!-- Node5 -->
<g id="node5" class="node">
<title>Node5</title>
<g id="a_node5"><a xlink:href="classnlohmann_1_1basic__json.html#a8dba7b7d2f38e6b0c614030aa43983f6" target="_top" xlink:title="returns a const iterator to one past the last element">
<polygon fill="white" stroke="black" points="160.5,-196.5 160.5,-226.5 282.5,-226.5 282.5,-196.5 160.5,-196.5"/>
<text text-anchor="start" x="168.5" y="-214.5" font-family="Helvetica,sans-Serif" font-size="10.00">nlohmann::basic_json</text>
<text text-anchor="middle" x="221.5" y="-203.5" font-family="Helvetica,sans-Serif" font-size="10.00">::cend</text>
</a>
</g>
</g>
<!-- Node1&#45;&gt;Node5 -->
<g id="edge4" class="edge">
<title>Node1&#45;&gt;Node5</title>
<path fill="none" stroke="midnightblue" d="M110.85,-177.6C127.04,-182.61 145.24,-188.23 162.08,-193.44"/>
<polygon fill="midnightblue" stroke="midnightblue" points="161.23,-196.84 171.81,-196.45 163.29,-190.15 161.23,-196.84"/>
</g>
<!-- Node6 -->
<g id="node6" class="node">
<title>Node6</title>
<g id="a_node6"><a xlink:href="classnlohmann_1_1detail_1_1type__error.html#aecc083aea4b698c33d042670ba50c10f" target="_top" xlink:title=" ">
<polygon fill="white" stroke="black" points="158,-147.5 158,-177.5 285,-177.5 285,-147.5 158,-147.5"/>
<text text-anchor="start" x="166" y="-165.5" font-family="Helvetica,sans-Serif" font-size="10.00">nlohmann::detail::type</text>
<text text-anchor="middle" x="221.5" y="-154.5" font-family="Helvetica,sans-Serif" font-size="10.00">_error::create</text>
</a>
</g>
</g>
<!-- Node1&#45;&gt;Node6 -->
<g id="edge5" class="edge">
<title>Node1&#45;&gt;Node6</title>
<path fill="none" stroke="midnightblue" d="M122.37,-162.5C130.65,-162.5 139.21,-162.5 147.67,-162.5"/>
<polygon fill="midnightblue" stroke="midnightblue" points="147.93,-166 157.93,-162.5 147.93,-159 147.93,-166"/>
</g>
<!-- Node10 -->
<g id="node10" class="node">
<title>Node10</title>
<g id="a_node10"><a xlink:href="classnlohmann_1_1basic__json.html#a8faa039ca82427ed29c486ffd00600c3" target="_top" xlink:title="return whether value is null">
<polygon fill="white" stroke="black" points="160.5,-98.5 160.5,-128.5 282.5,-128.5 282.5,-98.5 160.5,-98.5"/>
<text text-anchor="start" x="168.5" y="-116.5" font-family="Helvetica,sans-Serif" font-size="10.00">nlohmann::basic_json</text>
<text text-anchor="middle" x="221.5" y="-105.5" font-family="Helvetica,sans-Serif" font-size="10.00">::is_null</text>
</a>
</g>
</g>
<!-- Node1&#45;&gt;Node10 -->
<g id="edge9" class="edge">
<title>Node1&#45;&gt;Node10</title>
<path fill="none" stroke="midnightblue" d="M110.85,-147.4C127.04,-142.39 145.24,-136.77 162.08,-131.56"/>
<polygon fill="midnightblue" stroke="midnightblue" points="163.29,-134.85 171.81,-128.55 161.23,-128.16 163.29,-134.85"/>
</g>
<!-- Node11 -->
<g id="node11" class="node">
<title>Node11</title>
<g id="a_node11"><a xlink:href="classnlohmann_1_1basic__json.html#af8f511af124e82e4579f444b4175787c" target="_top" xlink:title="return whether value is an object">
<polygon fill="white" stroke="black" points="160.5,-49.5 160.5,-79.5 282.5,-79.5 282.5,-49.5 160.5,-49.5"/>
<text text-anchor="start" x="168.5" y="-67.5" font-family="Helvetica,sans-Serif" font-size="10.00">nlohmann::basic_json</text>
<text text-anchor="middle" x="221.5" y="-56.5" font-family="Helvetica,sans-Serif" font-size="10.00">::is_object</text>
</a>
</g>
</g>
<!-- Node1&#45;&gt;Node11 -->
<g id="edge10" class="edge">
<title>Node1&#45;&gt;Node11</title>
<path fill="none" stroke="midnightblue" d="M78.62,-147.24C96.97,-131.02 127.91,-105.4 158,-88.5 160.89,-86.88 163.91,-85.32 166.99,-83.83"/>
<polygon fill="midnightblue" stroke="midnightblue" points="168.72,-86.89 176.39,-79.58 165.83,-80.51 168.72,-86.89"/>
</g>
<!-- Node12 -->
<g id="node12" class="node">
<title>Node12</title>
<g id="a_node12"><a xlink:href="classnlohmann_1_1basic__json.html#ad14563c53cf7ca9189bc164082367bf3" target="_top" xlink:title="return the type as string">
<polygon fill="white" stroke="black" points="160.5,-0.5 160.5,-30.5 282.5,-30.5 282.5,-0.5 160.5,-0.5"/>
<text text-anchor="start" x="168.5" y="-18.5" font-family="Helvetica,sans-Serif" font-size="10.00">nlohmann::basic_json</text>
<text text-anchor="middle" x="221.5" y="-7.5" font-family="Helvetica,sans-Serif" font-size="10.00">::type_name</text>
</a>
</g>
</g>
<!-- Node1&#45;&gt;Node12 -->
<g id="edge11" class="edge">
<title>Node1&#45;&gt;Node12</title>
<path fill="none" stroke="midnightblue" d="M70.06,-147.49C84.48,-121.93 117.07,-69.8 158,-39.5 159.86,-38.12 161.81,-36.82 163.82,-35.57"/>
<polygon fill="midnightblue" stroke="midnightblue" points="165.89,-38.43 172.97,-30.55 162.52,-32.29 165.89,-38.43"/>
</g>
<!-- Node3 -->
<g id="node3" class="node">
<title>Node3</title>
<g id="a_node3"><a xlink:href="FuzzerTracePC_8cpp.html#a1f10ac78bd11294b612636121065eb5b" target="_top" xlink:title=" ">
<polygon fill="white" stroke="black" points="374,-300 374,-319 421,-319 421,-300 374,-300"/>
<text text-anchor="middle" x="397.5" y="-307" font-family="Helvetica,sans-Serif" font-size="10.00">assert</text>
</a>
</g>
</g>
<!-- Node2&#45;&gt;Node3 -->
<g id="edge2" class="edge">
<title>Node2&#45;&gt;Node3</title>
<path fill="none" stroke="midnightblue" d="M282.87,-309.5C309.98,-309.5 340.92,-309.5 363.66,-309.5"/>
<polygon fill="midnightblue" stroke="midnightblue" points="363.8,-313 373.8,-309.5 363.8,-306 363.8,-313"/>
</g>
<!-- Node7 -->
<g id="node7" class="node">
<title>Node7</title>
<g id="a_node7"><a xlink:href="classnlohmann_1_1detail_1_1exception.html#abf41a7e9178356314082284e6cfea278" target="_top" xlink:title=" ">
<polygon fill="white" stroke="black" points="321,-171.5 321,-201.5 474,-201.5 474,-171.5 321,-171.5"/>
<text text-anchor="start" x="329" y="-189.5" font-family="Helvetica,sans-Serif" font-size="10.00">nlohmann::detail::exception</text>
<text text-anchor="middle" x="397.5" y="-178.5" font-family="Helvetica,sans-Serif" font-size="10.00">::name</text>
</a>
</g>
</g>
<!-- Node6&#45;&gt;Node7 -->
<g id="edge6" class="edge">
<title>Node6&#45;&gt;Node7</title>
<path fill="none" stroke="midnightblue" d="M285.32,-171.16C293.57,-172.3 302.15,-173.49 310.7,-174.67"/>
<polygon fill="midnightblue" stroke="midnightblue" points="310.33,-178.15 320.72,-176.05 311.29,-171.21 310.33,-178.15"/>
</g>
<!-- Node9 -->
<g id="node9" class="node">
<title>Node9</title>
<g id="a_node9"><a xlink:href="classnlohmann_1_1detail_1_1type__error.html#aa01edaa0bf18b853368f0b900e485cd7" target="_top" xlink:title=" ">
<polygon fill="white" stroke="black" points="334,-122.5 334,-152.5 461,-152.5 461,-122.5 334,-122.5"/>
<text text-anchor="start" x="342" y="-140.5" font-family="Helvetica,sans-Serif" font-size="10.00">nlohmann::detail::type</text>
<text text-anchor="middle" x="397.5" y="-129.5" font-family="Helvetica,sans-Serif" font-size="10.00">_error::type_error</text>
</a>
</g>
</g>
<!-- Node6&#45;&gt;Node9 -->
<g id="edge8" class="edge">
<title>Node6&#45;&gt;Node9</title>
<path fill="none" stroke="midnightblue" d="M285.32,-153.47C297.76,-151.69 310.92,-149.8 323.67,-147.96"/>
<polygon fill="midnightblue" stroke="midnightblue" points="324.37,-151.4 333.77,-146.51 323.38,-144.47 324.37,-151.4"/>
</g>
<!-- Node8 -->
<g id="node8" class="node">
<title>Node8</title>
<g id="a_node8"><a xlink:href="namespacehttplib.html#a498c3a79825ecbcb15c52ec5fcfd5c11" target="_top" xlink:title=" ">
<polygon fill="white" stroke="black" points="510,-177 510,-196 607,-196 607,-177 510,-177"/>
<text text-anchor="middle" x="558.5" y="-184" font-family="Helvetica,sans-Serif" font-size="10.00">httplib::to_string</text>
</a>
</g>
</g>
<!-- Node7&#45;&gt;Node8 -->
<g id="edge7" class="edge">
<title>Node7&#45;&gt;Node8</title>
<path fill="none" stroke="midnightblue" d="M474.27,-186.5C482.82,-186.5 491.43,-186.5 499.7,-186.5"/>
<polygon fill="midnightblue" stroke="midnightblue" points="499.96,-190 509.96,-186.5 499.96,-183 499.96,-190"/>
</g>
</g>
</svg>
        <g id="navigator" transform="translate(0 0)" fill="#404254">
                <rect fill="#f2f5e9" fill-opacity="0.5" stroke="#606060" stroke-width=".5" x="0" y="0" width="60" height="60"/>
                <use id="zoomplus" xlink:href="#zoomPlus" x="17" y="9" onmousedown="handleZoom(evt,'in')"/>
                <use id="zoomminus" xlink:href="#zoomMin" x="42" y="9" onmousedown="handleZoom(evt,'out')"/>
                <use id="reset" xlink:href="#resetDef" x="30" y="36" onmousedown="handleReset()"/>
                <g id="arrowUp" xlink:href="#dirArrow" transform="translate(30 24)" onmousedown="handlePan(0,-1)">
                  <use xlink:href="#rim" fill="#404040">
                        <set attributeName="fill" to="#808080" begin="arrowUp.mouseover" end="arrowUp.mouseout"/>
                  </use>
                  <path fill="none" stroke="white" stroke-width="1.5" d="M0,-3.0v7 M-2.5,-0.5L0,-3.0L2.5,-0.5"/>
                </g>
                <g id="arrowRight" xlink:href="#dirArrow" transform="rotate(90) translate(36 -43)" onmousedown="handlePan(1,0)">
                  <use xlink:href="#rim" fill="#404040">
                        <set attributeName="fill" to="#808080" begin="arrowRight.mouseover" end="arrowRight.mouseout"/>
                  </use>
                  <path fill="none" stroke="white" stroke-width="1.5" d="M0,-3.0v7 M-2.5,-0.5L0,-3.0L2.5,-0.5"/>
                </g>
                <g id="arrowDown" xlink:href="#dirArrow" transform="rotate(180) translate(-30 -48)" onmousedown="handlePan(0,1)">
                  <use xlink:href="#rim" fill="#404040">
                        <set attributeName="fill" to="#808080" begin="arrowDown.mouseover" end="arrowDown.mouseout"/>
                  </use>
                  <path fill="none" stroke="white" stroke-width="1.5" d="M0,-3.0v7 M-2.5,-0.5L0,-3.0L2.5,-0.5"/>
                </g>
                <g id="arrowLeft" xlink:href="#dirArrow" transform="rotate(270) translate(-36 17)" onmousedown="handlePan(-1,0)">
                  <use xlink:href="#rim" fill="#404040">
                        <set attributeName="fill" to="#808080" begin="arrowLeft.mouseover" end="arrowLeft.mouseout"/>
                  </use>
                  <path fill="none" stroke="white" stroke-width="1.5" d="M0,-3.0v7 M-2.5,-0.5L0,-3.0L2.5,-0.5"/>
                </g>
        </g>
        <svg viewBox="0 0 15 15" width="100%" height="30px" preserveAspectRatio="xMaxYMin meet">
         <g id="arrow_out" transform="scale(0.3 0.3)">
          <a xlink:href="classnlohmann_1_1basic__json_a1cfa9ae5e7c2434cab4cfe69bffffe11_cgraph_org.svg" target="_base">
           <rect id="button" ry="5" rx="5" y="6" x="6" height="38" width="38"
                fill="#f2f5e9" fill-opacity="0.5" stroke="#606060" stroke-width="1.0"/>
           <path id="arrow"
             d="M 11.500037,31.436501 C 11.940474,20.09759 22.043105,11.32322 32.158766,21.979434 L 37.068811,17.246167 C 37.068811,17.246167 37.088388,32 37.088388,32 L 22.160133,31.978069 C 22.160133,31.978069 26.997745,27.140456 26.997745,27.140456 C 18.528582,18.264221 13.291696,25.230495 11.500037,31.436501 z"
             style="fill:#404040;"/>
          </a>
         </g>
        </svg>
</svg>
