<?xml version="1.0" encoding="UTF-8" standalone="no"?>
<!DOCTYPE svg PUBLIC "-//W3C//DTD SVG 1.1//EN"
 "http://www.w3.org/Graphics/SVG/1.1/DTD/svg11.dtd">
<!-- Generated by graphviz version 2.43.0 (0)
 -->
<!-- Title: nlohmann::basic_json::diff Pages: 1 -->
<!--zoomable 411 -->
<svg id="main" version="1.1" xmlns="http://www.w3.org/2000/svg" xmlns:xlink="http://www.w3.org/1999/xlink" xml:space="preserve" onload="init(evt)">
<style type="text/css"><![CDATA[
.edge:hover path { stroke: red; }
.edge:hover polygon { stroke: red; fill: red; }
]]></style>
<script type="text/javascript"><![CDATA[
var edges = document.getElementsByTagName('g');
if (edges && edges.length) {
  for (var i=0;i<edges.length;i++) {
    if (edges[i].id.substr(0,4)=='edge') {
      edges[i].setAttribute('class','edge');
    }
  }
}
]]></script>
        <defs>
                <circle id="rim" cx="0" cy="0" r="7"/>
                <circle id="rim2" cx="0" cy="0" r="3.5"/>
                <g id="zoomPlus">
                        <use xlink:href="#rim" fill="#404040">
                                <set attributeName="fill" to="#808080" begin="zoomplus.mouseover" end="zoomplus.mouseout"/>
                        </use>
                        <path d="M-4,0h8M0,-4v8" fill="none" stroke="white" stroke-width="1.5" pointer-events="none"/>
                </g>
                <g id="zoomMin">
                        <use xlink:href="#rim" fill="#404040">
                                <set attributeName="fill" to="#808080" begin="zoomminus.mouseover" end="zoomminus.mouseout"/>
                        </use>
                        <path d="M-4,0h8" fill="none" stroke="white" stroke-width="1.5" pointer-events="none"/>
                </g>
                <g id="dirArrow">
                        <path fill="none" stroke="white" stroke-width="1.5" d="M0,-3.0v7 M-2.5,-0.5L0,-3.0L2.5,-0.5"/>
                </g>
               <g id="resetDef">
                       <use xlink:href="#rim2" fill="#404040">
                               <set attributeName="fill" to="#808080" begin="reset.mouseover" end="reset.mouseout"/>
                       </use>
               </g>
        </defs>

<script type="text/javascript">
var viewWidth = 720;
var viewHeight = 411;
var sectionId = 'dynsection-66';
</script>
<script xlink:href="svgpan.js"/>
<svg id="graph" class="graph">
<g id="viewport">
<title>nlohmann::basic_json::diff</title>
<polygon fill="white" stroke="transparent" points="-4,4 -4,-406.5 716,-406.5 716,4 -4,4"/>
<!-- Node1 -->
<g id="node1" class="node">
<title>Node1</title>
<g id="a_node1"><a xlink:title="creates a diff as a JSON patch">
<polygon fill="#bfbfbf" stroke="black" points="0,-108 0,-138 122,-138 122,-108 0,-108"/>
<text text-anchor="start" x="8" y="-126" font-family="Helvetica,sans-Serif" font-size="10.00">nlohmann::basic_json</text>
<text text-anchor="middle" x="61" y="-115" font-family="Helvetica,sans-Serif" font-size="10.00">::diff</text>
</a>
</g>
</g>
<!-- Node2 -->
<g id="node2" class="node">
<title>Node2</title>
<g id="a_node2"><a xlink:href="classnlohmann_1_1basic__json.html#a9c4f3554773649beef69461a10a3de87" target="_top" xlink:title="creates a diff as a JSON patch">
<polygon fill="white" stroke="black" points="158,-154 158,-184 280,-184 280,-154 158,-154"/>
<text text-anchor="start" x="166" y="-172" font-family="Helvetica,sans-Serif" font-size="10.00">nlohmann::basic_json</text>
<text text-anchor="middle" x="219" y="-161" font-family="Helvetica,sans-Serif" font-size="10.00">::diff</text>
</a>
</g>
</g>
<!-- Node1&#45;&gt;Node2 -->
<g id="edge1" class="edge">
<title>Node1&#45;&gt;Node2</title>
<path fill="none" stroke="midnightblue" d="M113.08,-138.06C127.16,-142.21 142.57,-146.76 157.14,-151.06"/>
<polygon fill="midnightblue" stroke="midnightblue" points="156.49,-154.51 167.07,-153.98 158.47,-147.8 156.49,-154.51"/>
</g>
<!-- Node6 -->
<g id="node6" class="node">
<title>Node6</title>
<g id="a_node6"><a xlink:href="classnlohmann_1_1json__pointer.html#a8abf3577f9a0087f29a233893cdc73ad" target="_top" xlink:title="escape &quot;~&quot; to &quot;~0&quot; and &quot;/&quot; to &quot;~1&quot;">
<polygon fill="white" stroke="black" points="316,-372 316,-402 447,-402 447,-372 316,-372"/>
<text text-anchor="start" x="324" y="-390" font-family="Helvetica,sans-Serif" font-size="10.00">nlohmann::json_pointer</text>
<text text-anchor="middle" x="381.5" y="-379" font-family="Helvetica,sans-Serif" font-size="10.00">::escape</text>
</a>
</g>
</g>
<!-- Node1&#45;&gt;Node6 -->
<g id="edge15" class="edge">
<title>Node1&#45;&gt;Node6</title>
<path fill="none" stroke="midnightblue" d="M74.14,-138.12C108.14,-179.56 208.86,-296.33 316,-363 318.6,-364.62 321.33,-366.16 324.14,-367.61"/>
<polygon fill="midnightblue" stroke="midnightblue" points="322.76,-370.83 333.29,-371.97 325.77,-364.51 322.76,-370.83"/>
</g>
<!-- Node11 -->
<g id="node11" class="node">
<title>Node11</title>
<g id="a_node11"><a xlink:href="classnlohmann_1_1basic__json.html#a31f84ee15c4690ff705bed74736d04c6" target="_top" xlink:title="explicitly create an object from an initializer list">
<polygon fill="white" stroke="black" points="320.5,-39 320.5,-69 442.5,-69 442.5,-39 320.5,-39"/>
<text text-anchor="start" x="328.5" y="-57" font-family="Helvetica,sans-Serif" font-size="10.00">nlohmann::basic_json</text>
<text text-anchor="middle" x="381.5" y="-46" font-family="Helvetica,sans-Serif" font-size="10.00">::object</text>
</a>
</g>
</g>
<!-- Node1&#45;&gt;Node11 -->
<g id="edge16" class="edge">
<title>Node1&#45;&gt;Node11</title>
<path fill="none" stroke="midnightblue" d="M122.28,-109.94C175.87,-98.33 254.24,-81.35 310.57,-69.15"/>
<polygon fill="midnightblue" stroke="midnightblue" points="311.43,-72.54 320.46,-67.01 309.95,-65.7 311.43,-72.54"/>
</g>
<!-- Node13 -->
<g id="node13" class="node">
<title>Node13</title>
<g id="a_node13"><a xlink:href="namespacenlohmann.html#ad675d1c22f5240b2b3065c241b204477" target="_top" xlink:title="user&#45;defined to_string function for JSON values">
<polygon fill="white" stroke="black" points="324.5,-0.5 324.5,-19.5 438.5,-19.5 438.5,-0.5 324.5,-0.5"/>
<text text-anchor="middle" x="381.5" y="-7.5" font-family="Helvetica,sans-Serif" font-size="10.00">nlohmann::to_string</text>
</a>
</g>
</g>
<!-- Node1&#45;&gt;Node13 -->
<g id="edge17" class="edge">
<title>Node1&#45;&gt;Node13</title>
<path fill="none" stroke="midnightblue" d="M87.4,-107.94C106.38,-97.16 133.2,-82.85 158,-73 214.2,-50.68 281.28,-32.82 326.99,-21.89"/>
<polygon fill="midnightblue" stroke="midnightblue" points="328.05,-25.24 336.98,-19.53 326.45,-18.43 328.05,-25.24"/>
</g>
<!-- Node3 -->
<g id="node3" class="node">
<title>Node3</title>
<g id="a_node3"><a xlink:href="classnlohmann_1_1basic__json.html#ad865d6c291b237ae508d5cb2146b5877" target="_top" xlink:title="returns a const iterator to the first element">
<polygon fill="white" stroke="black" points="320.5,-225 320.5,-255 442.5,-255 442.5,-225 320.5,-225"/>
<text text-anchor="start" x="328.5" y="-243" font-family="Helvetica,sans-Serif" font-size="10.00">nlohmann::basic_json</text>
<text text-anchor="middle" x="381.5" y="-232" font-family="Helvetica,sans-Serif" font-size="10.00">::cbegin</text>
</a>
</g>
</g>
<!-- Node2&#45;&gt;Node3 -->
<g id="edge2" class="edge">
<title>Node2&#45;&gt;Node3</title>
<path fill="none" stroke="midnightblue" d="M249.99,-184.1C268.79,-193.39 293.61,-205.31 316,-215 320.7,-217.03 325.63,-219.08 330.57,-221.09"/>
<polygon fill="midnightblue" stroke="midnightblue" points="329.46,-224.42 340.05,-224.87 332.06,-217.91 329.46,-224.42"/>
</g>
<!-- Node4 -->
<g id="node4" class="node">
<title>Node4</title>
<g id="a_node4"><a xlink:href="classnlohmann_1_1basic__json.html#a8dba7b7d2f38e6b0c614030aa43983f6" target="_top" xlink:title="returns a const iterator to one past the last element">
<polygon fill="white" stroke="black" points="320.5,-176 320.5,-206 442.5,-206 442.5,-176 320.5,-176"/>
<text text-anchor="start" x="328.5" y="-194" font-family="Helvetica,sans-Serif" font-size="10.00">nlohmann::basic_json</text>
<text text-anchor="middle" x="381.5" y="-183" font-family="Helvetica,sans-Serif" font-size="10.00">::cend</text>
</a>
</g>
</g>
<!-- Node2&#45;&gt;Node4 -->
<g id="edge3" class="edge">
<title>Node2&#45;&gt;Node4</title>
<path fill="none" stroke="midnightblue" d="M280.22,-177.25C290.09,-178.61 300.4,-180.02 310.49,-181.4"/>
<polygon fill="midnightblue" stroke="midnightblue" points="310.09,-184.88 320.48,-182.77 311.04,-177.95 310.09,-184.88"/>
</g>
<!-- Node5 -->
<g id="node5" class="node">
<title>Node5</title>
<g id="a_node5"><a xlink:href="classnlohmann_1_1basic__json.html#a13e032a02a7fd8a93fdddc2fcbc4763c" target="_top" xlink:title="returns an iterator to one past the last element">
<polygon fill="white" stroke="black" points="483,-211.5 483,-230.5 629,-230.5 629,-211.5 483,-211.5"/>
<text text-anchor="middle" x="556" y="-218.5" font-family="Helvetica,sans-Serif" font-size="10.00">nlohmann::basic_json::end</text>
</a>
</g>
</g>
<!-- Node2&#45;&gt;Node5 -->
<g id="edge4" class="edge">
<title>Node2&#45;&gt;Node5</title>
<path fill="none" stroke="midnightblue" d="M280.16,-160.23C326.44,-155.38 391.62,-152.71 447,-166 478.9,-173.66 512.01,-192.39 533.02,-205.87"/>
<polygon fill="midnightblue" stroke="midnightblue" points="531.23,-208.88 541.51,-211.45 535.08,-203.03 531.23,-208.88"/>
</g>
<!-- Node2&#45;&gt;Node6 -->
<g id="edge5" class="edge">
<title>Node2&#45;&gt;Node6</title>
<path fill="none" stroke="midnightblue" d="M227.17,-184.26C248.2,-228.88 308.64,-356.36 316,-363 317.31,-364.18 318.69,-365.31 320.11,-366.38"/>
<polygon fill="midnightblue" stroke="midnightblue" points="318.47,-369.48 328.77,-371.95 322.25,-363.6 318.47,-369.48"/>
</g>
<!-- Node9 -->
<g id="node9" class="node">
<title>Node9</title>
<g id="a_node9"><a xlink:href="classnlohmann_1_1basic__json.html#a89eb3928f57903677051c80534be9cb1" target="_top" xlink:title="find an element in a JSON object">
<polygon fill="white" stroke="black" points="320.5,-323 320.5,-353 442.5,-353 442.5,-323 320.5,-323"/>
<text text-anchor="start" x="328.5" y="-341" font-family="Helvetica,sans-Serif" font-size="10.00">nlohmann::basic_json</text>
<text text-anchor="middle" x="381.5" y="-330" font-family="Helvetica,sans-Serif" font-size="10.00">::find</text>
</a>
</g>
</g>
<!-- Node2&#45;&gt;Node9 -->
<g id="edge8" class="edge">
<title>Node2&#45;&gt;Node9</title>
<path fill="none" stroke="midnightblue" d="M226.29,-184.44C238.98,-213.75 270.37,-277.77 316,-314 317.75,-315.39 319.59,-316.7 321.49,-317.94"/>
<polygon fill="midnightblue" stroke="midnightblue" points="319.77,-321 330.19,-322.95 323.26,-314.93 319.77,-321"/>
</g>
<!-- Node2&#45;&gt;Node11 -->
<g id="edge11" class="edge">
<title>Node2&#45;&gt;Node11</title>
<path fill="none" stroke="midnightblue" d="M232.51,-153.82C249.56,-133.98 281.9,-99.26 316,-78 318.6,-76.38 321.33,-74.84 324.14,-73.38"/>
<polygon fill="midnightblue" stroke="midnightblue" points="325.77,-76.48 333.29,-69.02 322.75,-70.17 325.77,-76.48"/>
</g>
<!-- Node12 -->
<g id="node12" class="node">
<title>Node12</title>
<g id="a_node12"><a xlink:href="classnlohmann_1_1basic__json.html#a25e27ad0c6d53c01871c5485e1f75b96" target="_top" xlink:title="returns the number of elements">
<polygon fill="white" stroke="black" points="320.5,-274 320.5,-304 442.5,-304 442.5,-274 320.5,-274"/>
<text text-anchor="start" x="328.5" y="-292" font-family="Helvetica,sans-Serif" font-size="10.00">nlohmann::basic_json</text>
<text text-anchor="middle" x="381.5" y="-281" font-family="Helvetica,sans-Serif" font-size="10.00">::size</text>
</a>
</g>
</g>
<!-- Node2&#45;&gt;Node12 -->
<g id="edge12" class="edge">
<title>Node2&#45;&gt;Node12</title>
<path fill="none" stroke="midnightblue" d="M231.75,-184.34C248.44,-205.2 280.89,-242.46 316,-265 318.45,-266.57 321.02,-268.07 323.66,-269.48"/>
<polygon fill="midnightblue" stroke="midnightblue" points="322.34,-272.73 332.86,-273.96 325.41,-266.43 322.34,-272.73"/>
</g>
<!-- Node2&#45;&gt;Node13 -->
<g id="edge13" class="edge">
<title>Node2&#45;&gt;Node13</title>
<path fill="none" stroke="midnightblue" d="M226.22,-153.81C238.78,-125.02 269.98,-62.42 316,-29 318.69,-27.05 321.58,-25.29 324.6,-23.71"/>
<polygon fill="midnightblue" stroke="midnightblue" points="326.25,-26.81 333.93,-19.51 323.37,-20.43 326.25,-26.81"/>
</g>
<!-- Node14 -->
<g id="node14" class="node">
<title>Node14</title>
<g id="a_node14"><a xlink:href="classnlohmann_1_1basic__json.html#a2b2d781d7f2a4ee41bc0016e931cadf7" target="_top" xlink:title="return the type of the JSON value (explicit)">
<polygon fill="white" stroke="black" points="320.5,-88 320.5,-118 442.5,-118 442.5,-88 320.5,-88"/>
<text text-anchor="start" x="328.5" y="-106" font-family="Helvetica,sans-Serif" font-size="10.00">nlohmann::basic_json</text>
<text text-anchor="middle" x="381.5" y="-95" font-family="Helvetica,sans-Serif" font-size="10.00">::type</text>
</a>
</g>
</g>
<!-- Node2&#45;&gt;Node14 -->
<g id="edge14" class="edge">
<title>Node2&#45;&gt;Node14</title>
<path fill="none" stroke="midnightblue" d="M256.82,-153.86C279.86,-144.38 309.74,-132.1 334.35,-121.98"/>
<polygon fill="midnightblue" stroke="midnightblue" points="335.93,-125.11 343.85,-118.07 333.27,-118.64 335.93,-125.11"/>
</g>
<!-- Node7 -->
<g id="node7" class="node">
<title>Node7</title>
<g id="a_node7"><a xlink:href="classnlohmann_1_1json__pointer.html#aa7649d30da9fc10b0e20704a27aea2a9" target="_top" xlink:title="replace all occurrences of a substring by another string">
<polygon fill="white" stroke="black" points="490.5,-372 490.5,-402 621.5,-402 621.5,-372 490.5,-372"/>
<text text-anchor="start" x="498.5" y="-390" font-family="Helvetica,sans-Serif" font-size="10.00">nlohmann::json_pointer</text>
<text text-anchor="middle" x="556" y="-379" font-family="Helvetica,sans-Serif" font-size="10.00">::replace_substring</text>
</a>
</g>
</g>
<!-- Node6&#45;&gt;Node7 -->
<g id="edge6" class="edge">
<title>Node6&#45;&gt;Node7</title>
<path fill="none" stroke="midnightblue" d="M447.22,-387C458.06,-387 469.37,-387 480.43,-387"/>
<polygon fill="midnightblue" stroke="midnightblue" points="480.49,-390.5 490.49,-387 480.49,-383.5 480.49,-390.5"/>
</g>
<!-- Node8 -->
<g id="node8" class="node">
<title>Node8</title>
<g id="a_node8"><a xlink:href="FuzzerTracePC_8cpp.html#a1f10ac78bd11294b612636121065eb5b" target="_top" xlink:title=" ">
<polygon fill="white" stroke="black" points="665,-377.5 665,-396.5 712,-396.5 712,-377.5 665,-377.5"/>
<text text-anchor="middle" x="688.5" y="-384.5" font-family="Helvetica,sans-Serif" font-size="10.00">assert</text>
</a>
</g>
</g>
<!-- Node7&#45;&gt;Node8 -->
<g id="edge7" class="edge">
<title>Node7&#45;&gt;Node8</title>
<path fill="none" stroke="midnightblue" d="M621.87,-387C633.24,-387 644.62,-387 654.64,-387"/>
<polygon fill="midnightblue" stroke="midnightblue" points="654.91,-390.5 664.91,-387 654.91,-383.5 654.91,-390.5"/>
</g>
<!-- Node9&#45;&gt;Node5 -->
<g id="edge9" class="edge">
<title>Node9&#45;&gt;Node5</title>
<path fill="none" stroke="midnightblue" d="M429.22,-322.88C435.36,-320.25 441.44,-317.28 447,-314 483.3,-292.56 519.12,-258.46 539.02,-238.05"/>
<polygon fill="midnightblue" stroke="midnightblue" points="541.67,-240.35 546.07,-230.71 536.62,-235.5 541.67,-240.35"/>
</g>
<!-- Node10 -->
<g id="node10" class="node">
<title>Node10</title>
<g id="a_node10"><a xlink:href="classnlohmann_1_1basic__json.html#af8f511af124e82e4579f444b4175787c" target="_top" xlink:title="return whether value is an object">
<polygon fill="white" stroke="black" points="495,-323 495,-353 617,-353 617,-323 495,-323"/>
<text text-anchor="start" x="503" y="-341" font-family="Helvetica,sans-Serif" font-size="10.00">nlohmann::basic_json</text>
<text text-anchor="middle" x="556" y="-330" font-family="Helvetica,sans-Serif" font-size="10.00">::is_object</text>
</a>
</g>
</g>
<!-- Node9&#45;&gt;Node10 -->
<g id="edge10" class="edge">
<title>Node9&#45;&gt;Node10</title>
<path fill="none" stroke="midnightblue" d="M442.83,-338C456.44,-338 470.99,-338 484.95,-338"/>
<polygon fill="midnightblue" stroke="midnightblue" points="484.99,-341.5 494.99,-338 484.99,-334.5 484.99,-341.5"/>
</g>
</g>
</svg>
        <g id="navigator" transform="translate(0 0)" fill="#404254">
                <rect fill="#f2f5e9" fill-opacity="0.5" stroke="#606060" stroke-width=".5" x="0" y="0" width="60" height="60"/>
                <use id="zoomplus" xlink:href="#zoomPlus" x="17" y="9" onmousedown="handleZoom(evt,'in')"/>
                <use id="zoomminus" xlink:href="#zoomMin" x="42" y="9" onmousedown="handleZoom(evt,'out')"/>
                <use id="reset" xlink:href="#resetDef" x="30" y="36" onmousedown="handleReset()"/>
                <g id="arrowUp" xlink:href="#dirArrow" transform="translate(30 24)" onmousedown="handlePan(0,-1)">
                  <use xlink:href="#rim" fill="#404040">
                        <set attributeName="fill" to="#808080" begin="arrowUp.mouseover" end="arrowUp.mouseout"/>
                  </use>
                  <path fill="none" stroke="white" stroke-width="1.5" d="M0,-3.0v7 M-2.5,-0.5L0,-3.0L2.5,-0.5"/>
                </g>
                <g id="arrowRight" xlink:href="#dirArrow" transform="rotate(90) translate(36 -43)" onmousedown="handlePan(1,0)">
                  <use xlink:href="#rim" fill="#404040">
                        <set attributeName="fill" to="#808080" begin="arrowRight.mouseover" end="arrowRight.mouseout"/>
                  </use>
                  <path fill="none" stroke="white" stroke-width="1.5" d="M0,-3.0v7 M-2.5,-0.5L0,-3.0L2.5,-0.5"/>
                </g>
                <g id="arrowDown" xlink:href="#dirArrow" transform="rotate(180) translate(-30 -48)" onmousedown="handlePan(0,1)">
                  <use xlink:href="#rim" fill="#404040">
                        <set attributeName="fill" to="#808080" begin="arrowDown.mouseover" end="arrowDown.mouseout"/>
                  </use>
                  <path fill="none" stroke="white" stroke-width="1.5" d="M0,-3.0v7 M-2.5,-0.5L0,-3.0L2.5,-0.5"/>
                </g>
                <g id="arrowLeft" xlink:href="#dirArrow" transform="rotate(270) translate(-36 17)" onmousedown="handlePan(-1,0)">
                  <use xlink:href="#rim" fill="#404040">
                        <set attributeName="fill" to="#808080" begin="arrowLeft.mouseover" end="arrowLeft.mouseout"/>
                  </use>
                  <path fill="none" stroke="white" stroke-width="1.5" d="M0,-3.0v7 M-2.5,-0.5L0,-3.0L2.5,-0.5"/>
                </g>
        </g>
        <svg viewBox="0 0 15 15" width="100%" height="30px" preserveAspectRatio="xMaxYMin meet">
         <g id="arrow_out" transform="scale(0.3 0.3)">
          <a xlink:href="classnlohmann_1_1basic__json_a543bd5f7490de54c875b2c0912dc9a49_cgraph_org.svg" target="_base">
           <rect id="button" ry="5" rx="5" y="6" x="6" height="38" width="38"
                fill="#f2f5e9" fill-opacity="0.5" stroke="#606060" stroke-width="1.0"/>
           <path id="arrow"
             d="M 11.500037,31.436501 C 11.940474,20.09759 22.043105,11.32322 32.158766,21.979434 L 37.068811,17.246167 C 37.068811,17.246167 37.088388,32 37.088388,32 L 22.160133,31.978069 C 22.160133,31.978069 26.997745,27.140456 26.997745,27.140456 C 18.528582,18.264221 13.291696,25.230495 11.500037,31.436501 z"
             style="fill:#404040;"/>
          </a>
         </g>
        </svg>
</svg>
