<?xml version="1.0" encoding="UTF-8" standalone="no"?>
<!DOCTYPE svg PUBLIC "-//W3C//DTD SVG 1.1//EN"
 "http://www.w3.org/Graphics/SVG/1.1/DTD/svg11.dtd">
<!-- Generated by graphviz version 2.43.0 (0)
 -->
<!-- Title: fuzzer::Random::operator() Pages: 1 -->
<svg width="500pt" height="66pt"
 viewBox="0.00 0.00 500.00 66.00" xmlns="http://www.w3.org/2000/svg" xmlns:xlink="http://www.w3.org/1999/xlink">
<g id="graph0" class="graph" transform="scale(1 1) rotate(0) translate(4 62)">
<title>fuzzer::Random::operator()</title>
<polygon fill="white" stroke="transparent" points="-4,4 -4,-62 496,-62 496,4 -4,4"/>
<!-- Node1 -->
<g id="node1" class="node">
<title>Node1</title>
<g id="a_node1"><a xlink:title=" ">
<polygon fill="#bfbfbf" stroke="black" points="0,-19.5 0,-38.5 148,-38.5 148,-19.5 0,-19.5"/>
<text text-anchor="middle" x="74" y="-26.5" font-family="Helvetica,sans-Serif" font-size="10.00">fuzzer::Random::operator()</text>
</a>
</g>
</g>
<!-- Node2 -->
<g id="node2" class="node">
<title>Node2</title>
<g id="a_node2"><a xlink:href="FuzzerTracePC_8cpp.html#a1f10ac78bd11294b612636121065eb5b" target="_top" xlink:title=" ">
<polygon fill="white" stroke="black" points="234.5,-38.5 234.5,-57.5 281.5,-57.5 281.5,-38.5 234.5,-38.5"/>
<text text-anchor="middle" x="258" y="-45.5" font-family="Helvetica,sans-Serif" font-size="10.00">assert</text>
</a>
</g>
</g>
<!-- Node1&#45;&gt;Node2 -->
<g id="edge1" class="edge">
<title>Node1&#45;&gt;Node2</title>
<path fill="none" stroke="midnightblue" d="M148.24,-36.65C174.6,-39.4 203.04,-42.37 224.22,-44.58"/>
<polygon fill="midnightblue" stroke="midnightblue" points="223.98,-48.07 234.29,-45.63 224.7,-41.11 223.98,-48.07"/>
</g>
<!-- Node3 -->
<g id="node3" class="node">
<title>Node3</title>
<g id="a_node3"><a xlink:href="classfuzzer_1_1Random.html#ae60979187cdba1590c49ec3bcb7bd38c" target="_top" xlink:title=" ">
<polygon fill="white" stroke="black" points="184,-0.5 184,-19.5 332,-19.5 332,-0.5 184,-0.5"/>
<text text-anchor="middle" x="258" y="-7.5" font-family="Helvetica,sans-Serif" font-size="10.00">fuzzer::Random::operator()</text>
</a>
</g>
</g>
<!-- Node1&#45;&gt;Node3 -->
<g id="edge2" class="edge">
<title>Node1&#45;&gt;Node3</title>
<path fill="none" stroke="midnightblue" d="M148.24,-21.35C156.69,-20.47 165.35,-19.57 173.92,-18.67"/>
<polygon fill="midnightblue" stroke="midnightblue" points="174.33,-22.15 183.91,-17.63 173.6,-15.19 174.33,-22.15"/>
</g>
<!-- Node4 -->
<g id="node4" class="node">
<title>Node4</title>
<g id="a_node4"><a xlink:href="classfuzzer_1_1Random.html#afe62c39a4f5590cf858998e73aad3a23" target="_top" xlink:title=" ">
<polygon fill="white" stroke="black" points="368,-0.5 368,-19.5 492,-19.5 492,-0.5 368,-0.5"/>
<text text-anchor="middle" x="430" y="-7.5" font-family="Helvetica,sans-Serif" font-size="10.00">fuzzer::Random::Rand</text>
</a>
</g>
</g>
<!-- Node3&#45;&gt;Node4 -->
<g id="edge3" class="edge">
<title>Node3&#45;&gt;Node4</title>
<path fill="none" stroke="midnightblue" d="M332.08,-10C340.59,-10 349.26,-10 357.75,-10"/>
<polygon fill="midnightblue" stroke="midnightblue" points="357.98,-13.5 367.98,-10 357.98,-6.5 357.98,-13.5"/>
</g>
</g>
</svg>
