<?xml version="1.0" encoding="UTF-8" standalone="no"?>
<!DOCTYPE svg PUBLIC "-//W3C//DTD SVG 1.1//EN"
 "http://www.w3.org/Graphics/SVG/1.1/DTD/svg11.dtd">
<!-- Generated by graphviz version 2.43.0 (0)
 -->
<!-- Title: nlohmann::detail::iter_impl::operator* Pages: 1 -->
<svg width="637pt" height="127pt"
 viewBox="0.00 0.00 637.00 126.50" xmlns="http://www.w3.org/2000/svg" xmlns:xlink="http://www.w3.org/1999/xlink">
<g id="graph0" class="graph" transform="scale(1 1) rotate(0) translate(4 122.5)">
<title>nlohmann::detail::iter_impl::operator*</title>
<polygon fill="white" stroke="transparent" points="-4,4 -4,-122.5 633,-122.5 633,4 -4,4"/>
<!-- Node1 -->
<g id="node1" class="node">
<title>Node1</title>
<g id="a_node1"><a xlink:title="return a reference to the value pointed to by the iterator">
<polygon fill="#bfbfbf" stroke="black" points="0,-49.5 0,-79.5 122,-79.5 122,-49.5 0,-49.5"/>
<text text-anchor="start" x="8" y="-67.5" font-family="Helvetica,sans-Serif" font-size="10.00">nlohmann::detail::iter</text>
<text text-anchor="middle" x="61" y="-56.5" font-family="Helvetica,sans-Serif" font-size="10.00">_impl::operator*</text>
</a>
</g>
</g>
<!-- Node2 -->
<g id="node2" class="node">
<title>Node2</title>
<g id="a_node2"><a xlink:href="FuzzerTracePC_8cpp.html#a1f10ac78bd11294b612636121065eb5b" target="_top" xlink:title=" ">
<polygon fill="white" stroke="black" points="209,-99 209,-118 256,-118 256,-99 209,-99"/>
<text text-anchor="middle" x="232.5" y="-106" font-family="Helvetica,sans-Serif" font-size="10.00">assert</text>
</a>
</g>
</g>
<!-- Node1&#45;&gt;Node2 -->
<g id="edge1" class="edge">
<title>Node1&#45;&gt;Node2</title>
<path fill="none" stroke="midnightblue" d="M119.86,-79.52C146.19,-86.35 176.38,-94.19 198.72,-99.99"/>
<polygon fill="midnightblue" stroke="midnightblue" points="198.14,-103.46 208.7,-102.58 199.9,-96.68 198.14,-103.46"/>
</g>
<!-- Node3 -->
<g id="node3" class="node">
<title>Node3</title>
<g id="a_node3"><a xlink:href="classnlohmann_1_1detail_1_1invalid__iterator.html#a4e849260a3caa1b288c7e619130c6c09" target="_top" xlink:title=" ">
<polygon fill="white" stroke="black" points="163.5,-49.5 163.5,-79.5 301.5,-79.5 301.5,-49.5 163.5,-49.5"/>
<text text-anchor="start" x="171.5" y="-67.5" font-family="Helvetica,sans-Serif" font-size="10.00">nlohmann::detail::invalid</text>
<text text-anchor="middle" x="232.5" y="-56.5" font-family="Helvetica,sans-Serif" font-size="10.00">_iterator::create</text>
</a>
</g>
</g>
<!-- Node1&#45;&gt;Node3 -->
<g id="edge2" class="edge">
<title>Node1&#45;&gt;Node3</title>
<path fill="none" stroke="midnightblue" d="M122.24,-64.5C132.23,-64.5 142.72,-64.5 153.08,-64.5"/>
<polygon fill="midnightblue" stroke="midnightblue" points="153.37,-68 163.37,-64.5 153.37,-61 153.37,-68"/>
</g>
<!-- Node7 -->
<g id="node7" class="node">
<title>Node7</title>
<g id="a_node7"><a xlink:href="classnlohmann_1_1detail_1_1primitive__iterator__t.html#a8d1a7d46b3fcd06edd034f04ededb5e4" target="_top" xlink:title="return whether the iterator can be dereferenced">
<polygon fill="white" stroke="black" points="158,-0.5 158,-30.5 307,-30.5 307,-0.5 158,-0.5"/>
<text text-anchor="start" x="166" y="-18.5" font-family="Helvetica,sans-Serif" font-size="10.00">nlohmann::detail::primitive</text>
<text text-anchor="middle" x="232.5" y="-7.5" font-family="Helvetica,sans-Serif" font-size="10.00">_iterator_t::is_begin</text>
</a>
</g>
</g>
<!-- Node1&#45;&gt;Node7 -->
<g id="edge6" class="edge">
<title>Node1&#45;&gt;Node7</title>
<path fill="none" stroke="midnightblue" d="M114.24,-49.4C131.8,-44.32 151.56,-38.61 169.78,-33.34"/>
<polygon fill="midnightblue" stroke="midnightblue" points="170.8,-36.69 179.43,-30.55 168.86,-29.97 170.8,-36.69"/>
</g>
<!-- Node4 -->
<g id="node4" class="node">
<title>Node4</title>
<g id="a_node4"><a xlink:href="classnlohmann_1_1detail_1_1invalid__iterator.html#adf4a6697420f3bddb4addfc0b98f6ee2" target="_top" xlink:title=" ">
<polygon fill="white" stroke="black" points="350.5,-73.5 350.5,-103.5 488.5,-103.5 488.5,-73.5 350.5,-73.5"/>
<text text-anchor="start" x="358.5" y="-91.5" font-family="Helvetica,sans-Serif" font-size="10.00">nlohmann::detail::invalid</text>
<text text-anchor="middle" x="419.5" y="-80.5" font-family="Helvetica,sans-Serif" font-size="10.00">_iterator::invalid_iterator</text>
</a>
</g>
</g>
<!-- Node3&#45;&gt;Node4 -->
<g id="edge3" class="edge">
<title>Node3&#45;&gt;Node4</title>
<path fill="none" stroke="midnightblue" d="M301.6,-73.33C314.12,-74.96 327.28,-76.67 340.07,-78.33"/>
<polygon fill="midnightblue" stroke="midnightblue" points="339.87,-81.83 350.24,-79.64 340.77,-74.89 339.87,-81.83"/>
</g>
<!-- Node5 -->
<g id="node5" class="node">
<title>Node5</title>
<g id="a_node5"><a xlink:href="classnlohmann_1_1detail_1_1exception.html#abf41a7e9178356314082284e6cfea278" target="_top" xlink:title=" ">
<polygon fill="white" stroke="black" points="343,-24.5 343,-54.5 496,-54.5 496,-24.5 343,-24.5"/>
<text text-anchor="start" x="351" y="-42.5" font-family="Helvetica,sans-Serif" font-size="10.00">nlohmann::detail::exception</text>
<text text-anchor="middle" x="419.5" y="-31.5" font-family="Helvetica,sans-Serif" font-size="10.00">::name</text>
</a>
</g>
</g>
<!-- Node3&#45;&gt;Node5 -->
<g id="edge4" class="edge">
<title>Node3&#45;&gt;Node5</title>
<path fill="none" stroke="midnightblue" d="M301.6,-55.3C311.75,-53.93 322.32,-52.5 332.78,-51.08"/>
<polygon fill="midnightblue" stroke="midnightblue" points="333.31,-54.54 342.75,-49.74 332.37,-47.61 333.31,-54.54"/>
</g>
<!-- Node6 -->
<g id="node6" class="node">
<title>Node6</title>
<g id="a_node6"><a xlink:href="namespacehttplib.html#a498c3a79825ecbcb15c52ec5fcfd5c11" target="_top" xlink:title=" ">
<polygon fill="white" stroke="black" points="532,-30 532,-49 629,-49 629,-30 532,-30"/>
<text text-anchor="middle" x="580.5" y="-37" font-family="Helvetica,sans-Serif" font-size="10.00">httplib::to_string</text>
</a>
</g>
</g>
<!-- Node5&#45;&gt;Node6 -->
<g id="edge5" class="edge">
<title>Node5&#45;&gt;Node6</title>
<path fill="none" stroke="midnightblue" d="M496.27,-39.5C504.82,-39.5 513.43,-39.5 521.7,-39.5"/>
<polygon fill="midnightblue" stroke="midnightblue" points="521.96,-43 531.96,-39.5 521.96,-36 521.96,-43"/>
</g>
</g>
</svg>
