<?xml version="1.0" encoding="UTF-8" standalone="no"?>
<!DOCTYPE svg PUBLIC "-//W3C//DTD SVG 1.1//EN"
 "http://www.w3.org/Graphics/SVG/1.1/DTD/svg11.dtd">
<!-- Generated by graphviz version 2.43.0 (0)
 -->
<!-- Title: nlohmann::basic_json::begin Pages: 1 -->
<svg width="395pt" height="409pt"
 viewBox="0.00 0.00 395.00 409.00" xmlns="http://www.w3.org/2000/svg" xmlns:xlink="http://www.w3.org/1999/xlink">
<g id="graph0" class="graph" transform="scale(1 1) rotate(0) translate(4 405)">
<title>nlohmann::basic_json::begin</title>
<polygon fill="white" stroke="transparent" points="-4,4 -4,-405 391,-405 391,4 -4,4"/>
<!-- Node1 -->
<g id="node1" class="node">
<title>Node1</title>
<g id="a_node1"><a xlink:title="returns an iterator to the first element">
<polygon fill="#bfbfbf" stroke="black" points="265,-161 265,-191 387,-191 387,-161 265,-161"/>
<text text-anchor="start" x="273" y="-179" font-family="Helvetica,sans-Serif" font-size="10.00">nlohmann::basic_json</text>
<text text-anchor="middle" x="326" y="-168" font-family="Helvetica,sans-Serif" font-size="10.00">::begin</text>
</a>
</g>
</g>
<!-- Node2 -->
<g id="node2" class="node">
<title>Node2</title>
<g id="a_node2"><a xlink:href="classnlohmann_1_1basic__json.html#a5338e282d1d02bed389d852dd670d98d" target="_top" xlink:title="add an object to an object if key does not exist">
<polygon fill="white" stroke="black" points="107,-341 107,-371 229,-371 229,-341 107,-341"/>
<text text-anchor="start" x="115" y="-359" font-family="Helvetica,sans-Serif" font-size="10.00">nlohmann::basic_json</text>
<text text-anchor="middle" x="168" y="-348" font-family="Helvetica,sans-Serif" font-size="10.00">::emplace</text>
</a>
</g>
</g>
<!-- Node1&#45;&gt;Node2 -->
<g id="edge1" class="edge">
<title>Node1&#45;&gt;Node2</title>
<path fill="none" stroke="midnightblue" d="M315.67,-200.68C301.67,-234.62 272.21,-295.62 229,-332 224.97,-335.4 220.39,-338.35 215.61,-340.92"/>
<polygon fill="midnightblue" stroke="midnightblue" points="319.04,-201.66 319.51,-191.08 312.54,-199.06 319.04,-201.66"/>
</g>
<!-- Node5 -->
<g id="node5" class="node">
<title>Node5</title>
<g id="a_node5"><a xlink:href="classnlohmann_1_1basic__json.html#a3acba9c6ceb7214e565fe08c3ba5b352" target="_top" xlink:title="access the first element">
<polygon fill="white" stroke="black" points="107,-292 107,-322 229,-322 229,-292 107,-292"/>
<text text-anchor="start" x="115" y="-310" font-family="Helvetica,sans-Serif" font-size="10.00">nlohmann::basic_json</text>
<text text-anchor="middle" x="168" y="-299" font-family="Helvetica,sans-Serif" font-size="10.00">::front</text>
</a>
</g>
</g>
<!-- Node1&#45;&gt;Node5 -->
<g id="edge4" class="edge">
<title>Node1&#45;&gt;Node5</title>
<path fill="none" stroke="midnightblue" d="M308.48,-199.65C291.02,-223.19 261.55,-259.01 229,-282 223.75,-285.71 217.86,-289.01 211.88,-291.89"/>
<polygon fill="midnightblue" stroke="midnightblue" points="311.51,-201.43 314.56,-191.29 305.85,-197.32 311.51,-201.43"/>
</g>
<!-- Node8 -->
<g id="node8" class="node">
<title>Node8</title>
<g id="a_node8"><a xlink:href="basic__json____InputIt__InputIt_8cpp.html#ae66f6b31b5ad750f1fe042a706a4e3d4" target="_top" xlink:title=" ">
<polygon fill="white" stroke="black" points="147.5,-253.5 147.5,-272.5 188.5,-272.5 188.5,-253.5 147.5,-253.5"/>
<text text-anchor="middle" x="168" y="-260.5" font-family="Helvetica,sans-Serif" font-size="10.00">main</text>
</a>
</g>
</g>
<!-- Node1&#45;&gt;Node8 -->
<g id="edge7" class="edge">
<title>Node1&#45;&gt;Node8</title>
<path fill="none" stroke="midnightblue" d="M299.35,-197.51C280.77,-212.23 254.53,-231.3 229,-244 216.09,-250.42 200.54,-255.27 188.5,-258.47"/>
<polygon fill="midnightblue" stroke="midnightblue" points="301.72,-200.09 307.32,-191.09 297.33,-194.64 301.72,-200.09"/>
</g>
<!-- Node9 -->
<g id="node9" class="node">
<title>Node9</title>
<g id="a_node9"><a xlink:href="classnlohmann_1_1basic__json.html#a7c43ed2a3004c1fa9543913f37b9fca9" target="_top" xlink:title="applies a JSON Merge Patch">
<polygon fill="white" stroke="black" points="107,-186 107,-216 229,-216 229,-186 107,-186"/>
<text text-anchor="start" x="115" y="-204" font-family="Helvetica,sans-Serif" font-size="10.00">nlohmann::basic_json</text>
<text text-anchor="middle" x="168" y="-193" font-family="Helvetica,sans-Serif" font-size="10.00">::merge_patch</text>
</a>
</g>
</g>
<!-- Node1&#45;&gt;Node9 -->
<g id="edge8" class="edge">
<title>Node1&#45;&gt;Node9</title>
<path fill="none" stroke="midnightblue" d="M254.74,-187.26C246.2,-188.63 237.53,-190.02 229.15,-191.36"/>
<polygon fill="midnightblue" stroke="midnightblue" points="255.37,-190.7 264.69,-185.67 254.26,-183.79 255.37,-190.7"/>
</g>
<!-- Node12 -->
<g id="node12" class="node">
<title>Node12</title>
<g id="a_node12"><a xlink:href="classnlohmann_1_1basic__json.html#a81e0c41a4a9dff4df2f6973f7f8b2a83" target="_top" xlink:title="applies a JSON patch">
<polygon fill="white" stroke="black" points="107,-137 107,-167 229,-167 229,-137 107,-137"/>
<text text-anchor="start" x="115" y="-155" font-family="Helvetica,sans-Serif" font-size="10.00">nlohmann::basic_json</text>
<text text-anchor="middle" x="168" y="-144" font-family="Helvetica,sans-Serif" font-size="10.00">::patch</text>
</a>
</g>
</g>
<!-- Node1&#45;&gt;Node12 -->
<g id="edge12" class="edge">
<title>Node1&#45;&gt;Node12</title>
<path fill="none" stroke="midnightblue" d="M254.74,-165.19C246.2,-163.88 237.53,-162.54 229.15,-161.25"/>
<polygon fill="midnightblue" stroke="midnightblue" points="254.27,-168.66 264.69,-166.72 255.33,-161.74 254.27,-168.66"/>
</g>
<!-- Node15 -->
<g id="node15" class="node">
<title>Node15</title>
<g id="a_node15"><a xlink:href="classnlohmann_1_1basic__json.html#a1be31ef2d2934d37a818083a4af44f99" target="_top" xlink:title="add an object to an object">
<polygon fill="white" stroke="black" points="107,-88 107,-118 229,-118 229,-88 107,-88"/>
<text text-anchor="start" x="115" y="-106" font-family="Helvetica,sans-Serif" font-size="10.00">nlohmann::basic_json</text>
<text text-anchor="middle" x="168" y="-95" font-family="Helvetica,sans-Serif" font-size="10.00">::push_back</text>
</a>
</g>
</g>
<!-- Node1&#45;&gt;Node15 -->
<g id="edge15" class="edge">
<title>Node1&#45;&gt;Node15</title>
<path fill="none" stroke="midnightblue" d="M286.94,-156.22C269.43,-147.31 248.3,-136.83 229,-128 221.71,-124.67 213.86,-121.26 206.3,-118.07"/>
<polygon fill="midnightblue" stroke="midnightblue" points="285.77,-159.55 296.26,-160.98 288.95,-153.31 285.77,-159.55"/>
</g>
<!-- Node16 -->
<g id="node16" class="node">
<title>Node16</title>
<g id="a_node16"><a xlink:href="classnlohmann_1_1basic__json.html#ac77aed0925d447744676725ab0b6d535" target="_top" xlink:title="returns an iterator to the reverse&#45;end">
<polygon fill="white" stroke="black" points="107,-39 107,-69 229,-69 229,-39 107,-39"/>
<text text-anchor="start" x="115" y="-57" font-family="Helvetica,sans-Serif" font-size="10.00">nlohmann::basic_json</text>
<text text-anchor="middle" x="168" y="-46" font-family="Helvetica,sans-Serif" font-size="10.00">::rend</text>
</a>
</g>
</g>
<!-- Node1&#45;&gt;Node16 -->
<g id="edge16" class="edge">
<title>Node1&#45;&gt;Node16</title>
<path fill="none" stroke="midnightblue" d="M306.62,-152.72C288.7,-131.25 259.71,-99.68 229,-79 223.48,-75.28 217.31,-71.95 211.1,-69.02"/>
<polygon fill="midnightblue" stroke="midnightblue" points="304.11,-155.17 313.15,-160.68 309.52,-150.73 304.11,-155.17"/>
</g>
<!-- Node18 -->
<g id="node18" class="node">
<title>Node18</title>
<g id="a_node18"><a xlink:href="unit-algorithms_8cpp.html#abec8aad08c60a897bdb39a7a1adf9901" target="_top" xlink:title=" ">
<polygon fill="white" stroke="black" points="132.5,-0.5 132.5,-19.5 203.5,-19.5 203.5,-0.5 132.5,-0.5"/>
<text text-anchor="middle" x="168" y="-7.5" font-family="Helvetica,sans-Serif" font-size="10.00">TEST_CASE</text>
</a>
</g>
</g>
<!-- Node1&#45;&gt;Node18 -->
<g id="edge18" class="edge">
<title>Node1&#45;&gt;Node18</title>
<path fill="none" stroke="midnightblue" d="M315.21,-151.31C301.02,-118.64 271.68,-61.41 229,-29 221.6,-23.38 212.5,-19.4 203.65,-16.59"/>
<polygon fill="midnightblue" stroke="midnightblue" points="312.01,-152.75 319.12,-160.6 318.47,-150.03 312.01,-152.75"/>
</g>
<!-- Node3 -->
<g id="node3" class="node">
<title>Node3</title>
<g id="a_node3"><a xlink:href="emplace_8cpp.html#ae66f6b31b5ad750f1fe042a706a4e3d4" target="_top" xlink:title=" ">
<polygon fill="white" stroke="black" points="15,-381.5 15,-400.5 56,-400.5 56,-381.5 15,-381.5"/>
<text text-anchor="middle" x="35.5" y="-388.5" font-family="Helvetica,sans-Serif" font-size="10.00">main</text>
</a>
</g>
</g>
<!-- Node2&#45;&gt;Node3 -->
<g id="edge2" class="edge">
<title>Node2&#45;&gt;Node3</title>
<path fill="none" stroke="midnightblue" d="M100.79,-373.76C84.52,-378.12 68.32,-382.47 56.26,-385.7"/>
<polygon fill="midnightblue" stroke="midnightblue" points="102.15,-377.02 110.9,-371.05 100.33,-370.26 102.15,-377.02"/>
</g>
<!-- Node4 -->
<g id="node4" class="node">
<title>Node4</title>
<g id="a_node4"><a xlink:href="unit-cbor_8cpp.html#accaddb9a94ac88da3a33ea3eb85d7b25" target="_top" xlink:title=" ">
<polygon fill="white" stroke="black" points="0,-343.5 0,-362.5 71,-362.5 71,-343.5 0,-343.5"/>
<text text-anchor="middle" x="35.5" y="-350.5" font-family="Helvetica,sans-Serif" font-size="10.00">TEST_CASE</text>
</a>
</g>
</g>
<!-- Node2&#45;&gt;Node4 -->
<g id="edge3" class="edge">
<title>Node2&#45;&gt;Node4</title>
<path fill="none" stroke="midnightblue" d="M96.44,-354.38C87.71,-354.18 79.11,-353.98 71.26,-353.8"/>
<polygon fill="midnightblue" stroke="midnightblue" points="96.64,-357.88 106.72,-354.61 96.8,-350.89 96.64,-357.88"/>
</g>
<!-- Node6 -->
<g id="node6" class="node">
<title>Node6</title>
<g id="a_node6"><a xlink:href="front_8cpp.html#ae66f6b31b5ad750f1fe042a706a4e3d4" target="_top" xlink:title=" ">
<polygon fill="white" stroke="black" points="15,-300.5 15,-319.5 56,-319.5 56,-300.5 15,-300.5"/>
<text text-anchor="middle" x="35.5" y="-307.5" font-family="Helvetica,sans-Serif" font-size="10.00">main</text>
</a>
</g>
</g>
<!-- Node5&#45;&gt;Node6 -->
<g id="edge5" class="edge">
<title>Node5&#45;&gt;Node6</title>
<path fill="none" stroke="midnightblue" d="M96.41,-308.62C81.54,-308.96 67.05,-309.3 56.05,-309.55"/>
<polygon fill="midnightblue" stroke="midnightblue" points="96.8,-312.11 106.72,-308.39 96.64,-305.12 96.8,-312.11"/>
</g>
<!-- Node7 -->
<g id="node7" class="node">
<title>Node7</title>
<g id="a_node7"><a xlink:href="unit-element__access1_8cpp.html#ac3cdeddaeb0e496475b99983c300a4df" target="_top" xlink:title=" ">
<polygon fill="white" stroke="black" points="0,-262.5 0,-281.5 71,-281.5 71,-262.5 0,-262.5"/>
<text text-anchor="middle" x="35.5" y="-269.5" font-family="Helvetica,sans-Serif" font-size="10.00">TEST_CASE</text>
</a>
</g>
</g>
<!-- Node5&#45;&gt;Node7 -->
<g id="edge6" class="edge">
<title>Node5&#45;&gt;Node7</title>
<path fill="none" stroke="midnightblue" d="M101,-289.3C90.65,-286.52 80.32,-283.75 71.06,-281.27"/>
<polygon fill="midnightblue" stroke="midnightblue" points="100.33,-292.74 110.9,-291.95 102.15,-285.98 100.33,-292.74"/>
</g>
<!-- Node9&#45;&gt;Node9 -->
<g id="edge10" class="edge">
<title>Node9&#45;&gt;Node9</title>
<path fill="none" stroke="midnightblue" d="M191.45,-226.46C188.54,-231.18 180.73,-234.5 168,-234.5 147.12,-234.5 139.45,-225.56 145,-216.16"/>
<polygon fill="midnightblue" stroke="midnightblue" points="194.94,-226 191,-216.16 187.94,-226.3 194.94,-226"/>
</g>
<!-- Node10 -->
<g id="node10" class="node">
<title>Node10</title>
<g id="a_node10"><a xlink:href="merge__patch_8cpp.html#ae66f6b31b5ad750f1fe042a706a4e3d4" target="_top" xlink:title=" ">
<polygon fill="white" stroke="black" points="15,-223.5 15,-242.5 56,-242.5 56,-223.5 15,-223.5"/>
<text text-anchor="middle" x="35.5" y="-230.5" font-family="Helvetica,sans-Serif" font-size="10.00">main</text>
</a>
</g>
</g>
<!-- Node9&#45;&gt;Node10 -->
<g id="edge9" class="edge">
<title>Node9&#45;&gt;Node10</title>
<path fill="none" stroke="midnightblue" d="M96.83,-218.21C81.82,-221.89 67.16,-225.48 56.05,-228.21"/>
<polygon fill="midnightblue" stroke="midnightblue" points="97.84,-221.56 106.72,-215.78 96.17,-214.76 97.84,-221.56"/>
</g>
<!-- Node11 -->
<g id="node11" class="node">
<title>Node11</title>
<g id="a_node11"><a xlink:href="unit-merge__patch_8cpp.html#acda8f4852a31243aeb6390718cea13b5" target="_top" xlink:title=" ">
<polygon fill="white" stroke="black" points="0,-185.5 0,-204.5 71,-204.5 71,-185.5 0,-185.5"/>
<text text-anchor="middle" x="35.5" y="-192.5" font-family="Helvetica,sans-Serif" font-size="10.00">TEST_CASE</text>
</a>
</g>
</g>
<!-- Node9&#45;&gt;Node11 -->
<g id="edge11" class="edge">
<title>Node9&#45;&gt;Node11</title>
<path fill="none" stroke="midnightblue" d="M96.44,-197.76C87.71,-197.35 79.11,-196.96 71.26,-196.6"/>
<polygon fill="midnightblue" stroke="midnightblue" points="96.57,-201.27 106.72,-198.23 96.89,-194.27 96.57,-201.27"/>
</g>
<!-- Node13 -->
<g id="node13" class="node">
<title>Node13</title>
<g id="a_node13"><a xlink:href="diff_8cpp.html#ae66f6b31b5ad750f1fe042a706a4e3d4" target="_top" xlink:title=" ">
<polygon fill="white" stroke="black" points="15,-144.5 15,-163.5 56,-163.5 56,-144.5 15,-144.5"/>
<text text-anchor="middle" x="35.5" y="-151.5" font-family="Helvetica,sans-Serif" font-size="10.00">main</text>
</a>
</g>
</g>
<!-- Node12&#45;&gt;Node13 -->
<g id="edge13" class="edge">
<title>Node12&#45;&gt;Node13</title>
<path fill="none" stroke="midnightblue" d="M96.41,-153.08C81.54,-153.31 67.05,-153.53 56.05,-153.7"/>
<polygon fill="midnightblue" stroke="midnightblue" points="96.77,-156.58 106.72,-152.92 96.66,-149.58 96.77,-156.58"/>
</g>
<!-- Node14 -->
<g id="node14" class="node">
<title>Node14</title>
<g id="a_node14"><a xlink:href="unit-json__patch_8cpp.html#a58658ae29d75546f62ea0ceb24fd3b20" target="_top" xlink:title=" ">
<polygon fill="white" stroke="black" points="0,-106.5 0,-125.5 71,-125.5 71,-106.5 0,-106.5"/>
<text text-anchor="middle" x="35.5" y="-113.5" font-family="Helvetica,sans-Serif" font-size="10.00">TEST_CASE</text>
</a>
</g>
</g>
<!-- Node12&#45;&gt;Node14 -->
<g id="edge14" class="edge">
<title>Node12&#45;&gt;Node14</title>
<path fill="none" stroke="midnightblue" d="M102.51,-134.21C91.69,-131.22 80.84,-128.23 71.15,-125.56"/>
<polygon fill="midnightblue" stroke="midnightblue" points="101.84,-137.66 112.41,-136.94 103.7,-130.91 101.84,-137.66"/>
</g>
<!-- Node17 -->
<g id="node17" class="node">
<title>Node17</title>
<g id="a_node17"><a xlink:href="unit-capacity_8cpp.html#aa7cd27113fe11aadbd2fc85683fdb99d" target="_top" xlink:title=" ">
<polygon fill="white" stroke="black" points="0,-44.5 0,-63.5 71,-63.5 71,-44.5 0,-44.5"/>
<text text-anchor="middle" x="35.5" y="-51.5" font-family="Helvetica,sans-Serif" font-size="10.00">TEST_CASE</text>
</a>
</g>
</g>
<!-- Node16&#45;&gt;Node17 -->
<g id="edge17" class="edge">
<title>Node16&#45;&gt;Node17</title>
<path fill="none" stroke="midnightblue" d="M96.44,-54C87.71,-54 79.11,-54 71.26,-54"/>
<polygon fill="midnightblue" stroke="midnightblue" points="96.72,-57.5 106.72,-54 96.72,-50.5 96.72,-57.5"/>
</g>
</g>
</svg>
