<?xml version="1.0" encoding="UTF-8" standalone="no"?>
<!DOCTYPE svg PUBLIC "-//W3C//DTD SVG 1.1//EN"
 "http://www.w3.org/Graphics/SVG/1.1/DTD/svg11.dtd">
<!-- Generated by graphviz version 2.43.0 (0)
 -->
<!-- Title: httplib::Server::set_base_dir Pages: 1 -->
<svg width="408pt" height="39pt"
 viewBox="0.00 0.00 408.00 39.00" xmlns="http://www.w3.org/2000/svg" xmlns:xlink="http://www.w3.org/1999/xlink">
<g id="graph0" class="graph" transform="scale(1 1) rotate(0) translate(4 35)">
<title>httplib::Server::set_base_dir</title>
<polygon fill="white" stroke="transparent" points="-4,4 -4,-35 404,-35 404,4 -4,4"/>
<!-- Node1 -->
<g id="node1" class="node">
<title>Node1</title>
<g id="a_node1"><a xlink:title=" ">
<polygon fill="#bfbfbf" stroke="black" points="0,-0.5 0,-30.5 107,-30.5 107,-0.5 0,-0.5"/>
<text text-anchor="start" x="8" y="-18.5" font-family="Helvetica,sans-Serif" font-size="10.00">httplib::Server::set</text>
<text text-anchor="middle" x="53.5" y="-7.5" font-family="Helvetica,sans-Serif" font-size="10.00">_base_dir</text>
</a>
</g>
</g>
<!-- Node2 -->
<g id="node2" class="node">
<title>Node2</title>
<g id="a_node2"><a xlink:href="classhttplib_1_1Server.html#ac6d41f4b6066757830b91064a0043a3e" target="_top" xlink:title=" ">
<polygon fill="white" stroke="black" points="143,-0.5 143,-30.5 250,-30.5 250,-0.5 143,-0.5"/>
<text text-anchor="start" x="151" y="-18.5" font-family="Helvetica,sans-Serif" font-size="10.00">httplib::Server::set</text>
<text text-anchor="middle" x="196.5" y="-7.5" font-family="Helvetica,sans-Serif" font-size="10.00">_mount_point</text>
</a>
</g>
</g>
<!-- Node1&#45;&gt;Node2 -->
<g id="edge1" class="edge">
<title>Node1&#45;&gt;Node2</title>
<path fill="none" stroke="midnightblue" d="M107,-15.5C115.44,-15.5 124.26,-15.5 132.9,-15.5"/>
<polygon fill="midnightblue" stroke="midnightblue" points="132.95,-19 142.95,-15.5 132.95,-12 132.95,-19"/>
</g>
<!-- Node3 -->
<g id="node3" class="node">
<title>Node3</title>
<g id="a_node3"><a xlink:href="namespacehttplib_1_1detail.html#af1f56433b3a10b13b2f914de33bd6e31" target="_top" xlink:title=" ">
<polygon fill="white" stroke="black" points="286,-6 286,-25 400,-25 400,-6 286,-6"/>
<text text-anchor="middle" x="343" y="-13" font-family="Helvetica,sans-Serif" font-size="10.00">httplib::detail::is_dir</text>
</a>
</g>
</g>
<!-- Node2&#45;&gt;Node3 -->
<g id="edge2" class="edge">
<title>Node2&#45;&gt;Node3</title>
<path fill="none" stroke="midnightblue" d="M250.08,-15.5C258.43,-15.5 267.16,-15.5 275.78,-15.5"/>
<polygon fill="midnightblue" stroke="midnightblue" points="275.81,-19 285.81,-15.5 275.81,-12 275.81,-19"/>
</g>
</g>
</svg>
