<?xml version="1.0" encoding="UTF-8" standalone="no"?>
<!DOCTYPE svg PUBLIC "-//W3C//DTD SVG 1.1//EN"
 "http://www.w3.org/Graphics/SVG/1.1/DTD/svg11.dtd">
<!-- Generated by graphviz version 2.43.0 (0)
 -->
<!-- Title: nlohmann::detail::wide_string_input_adapter&lt; WideStringType &gt; Pages: 1 -->
<svg width="172pt" height="325pt"
 viewBox="0.00 0.00 172.00 325.00" xmlns="http://www.w3.org/2000/svg" xmlns:xlink="http://www.w3.org/1999/xlink">
<g id="graph0" class="graph" transform="scale(1 1) rotate(0) translate(4 321)">
<title>nlohmann::detail::wide_string_input_adapter&lt; WideStringType &gt;</title>
<polygon fill="white" stroke="transparent" points="-4,4 -4,-321 168,-321 168,4 -4,4"/>
<!-- Node1 -->
<g id="node1" class="node">
<title>Node1</title>
<g id="a_node1"><a xlink:title=" ">
<polygon fill="#bfbfbf" stroke="black" points="0,-0.5 0,-178.5 164,-178.5 164,-0.5 0,-0.5"/>
<text text-anchor="start" x="8" y="-166.5" font-family="Helvetica,sans-Serif" font-size="10.00">nlohmann::detail::wide</text>
<text text-anchor="start" x="8" y="-155.5" font-family="Helvetica,sans-Serif" font-size="10.00">_string_input_adapter</text>
<text text-anchor="middle" x="82" y="-144.5" font-family="Helvetica,sans-Serif" font-size="10.00">&lt; WideStringType &gt;</text>
<polyline fill="none" stroke="black" points="0,-137.5 164,-137.5 "/>
<text text-anchor="start" x="8" y="-125.5" font-family="Helvetica,sans-Serif" font-size="10.00">&#45; str</text>
<text text-anchor="start" x="8" y="-114.5" font-family="Helvetica,sans-Serif" font-size="10.00">&#45; current_wchar</text>
<text text-anchor="start" x="8" y="-103.5" font-family="Helvetica,sans-Serif" font-size="10.00">&#45; utf8_bytes</text>
<text text-anchor="start" x="8" y="-92.5" font-family="Helvetica,sans-Serif" font-size="10.00">&#45; utf8_bytes_index</text>
<text text-anchor="start" x="8" y="-81.5" font-family="Helvetica,sans-Serif" font-size="10.00">&#45; utf8_bytes_filled</text>
<polyline fill="none" stroke="black" points="0,-74.5 164,-74.5 "/>
<text text-anchor="start" x="8" y="-62.5" font-family="Helvetica,sans-Serif" font-size="10.00">+ wide_string_input_adapter()</text>
<text text-anchor="start" x="8" y="-51.5" font-family="Helvetica,sans-Serif" font-size="10.00">+ get_character()</text>
<text text-anchor="start" x="8" y="-40.5" font-family="Helvetica,sans-Serif" font-size="10.00">+ wide_string_input_adapter()</text>
<text text-anchor="start" x="8" y="-29.5" font-family="Helvetica,sans-Serif" font-size="10.00">+ get_character()</text>
<text text-anchor="start" x="8" y="-18.5" font-family="Helvetica,sans-Serif" font-size="10.00">&#45; fill_buffer()</text>
<text text-anchor="start" x="8" y="-7.5" font-family="Helvetica,sans-Serif" font-size="10.00">&#45; fill_buffer()</text>
</a>
</g>
</g>
<!-- Node2 -->
<g id="node2" class="node">
<title>Node2</title>
<g id="a_node2"><a xlink:href="structnlohmann_1_1detail_1_1input__adapter__protocol.html" target="_top" xlink:title="abstract input adapter interface">
<polygon fill="white" stroke="black" points="4,-215.5 4,-316.5 160,-316.5 160,-215.5 4,-215.5"/>
<text text-anchor="start" x="12" y="-304.5" font-family="Helvetica,sans-Serif" font-size="10.00">nlohmann::detail::input</text>
<text text-anchor="middle" x="82" y="-293.5" font-family="Helvetica,sans-Serif" font-size="10.00">_adapter_protocol</text>
<polyline fill="none" stroke="black" points="4,-286.5 160,-286.5 "/>
<text text-anchor="middle" x="82" y="-274.5" font-family="Helvetica,sans-Serif" font-size="10.00"> </text>
<polyline fill="none" stroke="black" points="4,-267.5 160,-267.5 "/>
<text text-anchor="start" x="12" y="-255.5" font-family="Helvetica,sans-Serif" font-size="10.00">+ get_character()</text>
<text text-anchor="start" x="12" y="-244.5" font-family="Helvetica,sans-Serif" font-size="10.00">+ ~input_adapter_protocol()</text>
<text text-anchor="start" x="12" y="-233.5" font-family="Helvetica,sans-Serif" font-size="10.00">+ get_character()</text>
<text text-anchor="start" x="12" y="-222.5" font-family="Helvetica,sans-Serif" font-size="10.00">+ ~input_adapter_protocol()</text>
</a>
</g>
</g>
<!-- Node2&#45;&gt;Node1 -->
<g id="edge1" class="edge">
<title>Node2&#45;&gt;Node1</title>
<path fill="none" stroke="midnightblue" d="M82,-205.26C82,-196.71 82,-187.77 82,-178.81"/>
<polygon fill="none" stroke="midnightblue" points="78.5,-205.46 82,-215.46 85.5,-205.46 78.5,-205.46"/>
</g>
</g>
</svg>
