<?xml version="1.0" encoding="UTF-8" standalone="no"?>
<!DOCTYPE svg PUBLIC "-//W3C//DTD SVG 1.1//EN"
 "http://www.w3.org/Graphics/SVG/1.1/DTD/svg11.dtd">
<!-- Generated by graphviz version 2.43.0 (0)
 -->
<!-- Title: httplib::ClientImpl::host Pages: 1 -->
<svg width="260pt" height="88pt"
 viewBox="0.00 0.00 260.00 88.00" xmlns="http://www.w3.org/2000/svg" xmlns:xlink="http://www.w3.org/1999/xlink">
<g id="graph0" class="graph" transform="scale(1 1) rotate(0) translate(4 84)">
<title>httplib::ClientImpl::host</title>
<polygon fill="white" stroke="transparent" points="-4,4 -4,-84 256,-84 256,4 -4,4"/>
<!-- Node1 -->
<g id="node1" class="node">
<title>Node1</title>
<g id="a_node1"><a xlink:title=" ">
<polygon fill="#bfbfbf" stroke="black" points="148,-24.5 148,-54.5 252,-54.5 252,-24.5 148,-24.5"/>
<text text-anchor="start" x="156" y="-42.5" font-family="Helvetica,sans-Serif" font-size="10.00">httplib::ClientImpl</text>
<text text-anchor="middle" x="200" y="-31.5" font-family="Helvetica,sans-Serif" font-size="10.00">::host</text>
</a>
</g>
</g>
<!-- Node2 -->
<g id="node2" class="node">
<title>Node2</title>
<g id="a_node2"><a xlink:href="classhttplib_1_1ClientImpl.html#abba8dba1f5c931413fdb62e0e7163252" target="_top" xlink:title=" ">
<polygon fill="white" stroke="black" points="0,-49.5 0,-79.5 112,-79.5 112,-49.5 0,-49.5"/>
<text text-anchor="start" x="8" y="-67.5" font-family="Helvetica,sans-Serif" font-size="10.00">httplib::ClientImpl</text>
<text text-anchor="middle" x="56" y="-56.5" font-family="Helvetica,sans-Serif" font-size="10.00">::adjust_host_string</text>
</a>
</g>
</g>
<!-- Node1&#45;&gt;Node2 -->
<g id="edge1" class="edge">
<title>Node1&#45;&gt;Node2</title>
<path fill="none" stroke="midnightblue" d="M137.8,-50.27C129.23,-51.78 120.47,-53.33 112.03,-54.81"/>
<polygon fill="midnightblue" stroke="midnightblue" points="138.49,-53.71 147.73,-48.53 137.28,-46.81 138.49,-53.71"/>
</g>
<!-- Node3 -->
<g id="node3" class="node">
<title>Node3</title>
<g id="a_node3"><a xlink:href="classhttplib_1_1ClientImpl.html#a3aca2ec26d2977c800aba200f190824e" target="_top" xlink:title=" ">
<polygon fill="white" stroke="black" points="4,-0.5 4,-30.5 108,-30.5 108,-0.5 4,-0.5"/>
<text text-anchor="start" x="12" y="-18.5" font-family="Helvetica,sans-Serif" font-size="10.00">httplib::ClientImpl</text>
<text text-anchor="middle" x="56" y="-7.5" font-family="Helvetica,sans-Serif" font-size="10.00">::set_proxy</text>
</a>
</g>
</g>
<!-- Node1&#45;&gt;Node3 -->
<g id="edge2" class="edge">
<title>Node1&#45;&gt;Node3</title>
<path fill="none" stroke="midnightblue" d="M137.63,-29.13C127.81,-27.47 117.74,-25.77 108.19,-24.15"/>
<polygon fill="midnightblue" stroke="midnightblue" points="137.29,-32.62 147.73,-30.84 138.46,-25.72 137.29,-32.62"/>
</g>
</g>
</svg>
