<?xml version="1.0" encoding="UTF-8" standalone="no"?>
<!DOCTYPE svg PUBLIC "-//W3C//DTD SVG 1.1//EN"
 "http://www.w3.org/Graphics/SVG/1.1/DTD/svg11.dtd">
<!-- Generated by graphviz version 2.43.0 (0)
 -->
<!-- Title: nlohmann::basic_json::diff Pages: 1 -->
<svg width="288pt" height="116pt"
 viewBox="0.00 0.00 288.00 115.50" xmlns="http://www.w3.org/2000/svg" xmlns:xlink="http://www.w3.org/1999/xlink">
<g id="graph0" class="graph" transform="scale(1 1) rotate(0) translate(4 111.5)">
<title>nlohmann::basic_json::diff</title>
<polygon fill="white" stroke="transparent" points="-4,4 -4,-111.5 284,-111.5 284,4 -4,4"/>
<!-- Node1 -->
<g id="node1" class="node">
<title>Node1</title>
<g id="a_node1"><a xlink:title="creates a diff as a JSON patch">
<polygon fill="#bfbfbf" stroke="black" points="158,-33 158,-63 280,-63 280,-33 158,-33"/>
<text text-anchor="start" x="166" y="-51" font-family="Helvetica,sans-Serif" font-size="10.00">nlohmann::basic_json</text>
<text text-anchor="middle" x="219" y="-40" font-family="Helvetica,sans-Serif" font-size="10.00">::diff</text>
</a>
</g>
</g>
<!-- Node2 -->
<g id="node2" class="node">
<title>Node2</title>
<g id="a_node2"><a xlink:href="classnlohmann_1_1basic__json.html#a543bd5f7490de54c875b2c0912dc9a49" target="_top" xlink:title="creates a diff as a JSON patch">
<polygon fill="white" stroke="black" points="0,-77 0,-107 122,-107 122,-77 0,-77"/>
<text text-anchor="start" x="8" y="-95" font-family="Helvetica,sans-Serif" font-size="10.00">nlohmann::basic_json</text>
<text text-anchor="middle" x="61" y="-84" font-family="Helvetica,sans-Serif" font-size="10.00">::diff</text>
</a>
</g>
</g>
<!-- Node1&#45;&gt;Node2 -->
<g id="edge1" class="edge">
<title>Node1&#45;&gt;Node2</title>
<path fill="none" stroke="midnightblue" d="M154.85,-65.81C141.72,-69.52 128.01,-73.38 115.27,-76.97"/>
<polygon fill="midnightblue" stroke="midnightblue" points="156.08,-69.1 164.75,-63.02 154.18,-62.37 156.08,-69.1"/>
</g>
<!-- Node3 -->
<g id="node3" class="node">
<title>Node3</title>
<g id="a_node3"><a xlink:href="diff_8cpp.html#ae66f6b31b5ad750f1fe042a706a4e3d4" target="_top" xlink:title=" ">
<polygon fill="white" stroke="black" points="40.5,-38.5 40.5,-57.5 81.5,-57.5 81.5,-38.5 40.5,-38.5"/>
<text text-anchor="middle" x="61" y="-45.5" font-family="Helvetica,sans-Serif" font-size="10.00">main</text>
</a>
</g>
</g>
<!-- Node1&#45;&gt;Node3 -->
<g id="edge2" class="edge">
<title>Node1&#45;&gt;Node3</title>
<path fill="none" stroke="midnightblue" d="M147.48,-48C123.46,-48 98.49,-48 81.78,-48"/>
<polygon fill="midnightblue" stroke="midnightblue" points="147.69,-51.5 157.69,-48 147.69,-44.5 147.69,-51.5"/>
</g>
<!-- Node4 -->
<g id="node4" class="node">
<title>Node4</title>
<g id="a_node4"><a xlink:href="unit-json__patch_8cpp.html#a58658ae29d75546f62ea0ceb24fd3b20" target="_top" xlink:title=" ">
<polygon fill="white" stroke="black" points="25.5,-0.5 25.5,-19.5 96.5,-19.5 96.5,-0.5 25.5,-0.5"/>
<text text-anchor="middle" x="61" y="-7.5" font-family="Helvetica,sans-Serif" font-size="10.00">TEST_CASE</text>
</a>
</g>
</g>
<!-- Node1&#45;&gt;Node4 -->
<g id="edge3" class="edge">
<title>Node1&#45;&gt;Node4</title>
<path fill="none" stroke="midnightblue" d="M147.94,-30.93C130.24,-26.62 112,-22.18 96.9,-18.5"/>
<polygon fill="midnightblue" stroke="midnightblue" points="147.14,-34.34 157.69,-33.31 148.8,-27.54 147.14,-34.34"/>
</g>
</g>
</svg>
