<?xml version="1.0" encoding="UTF-8" standalone="no"?>
<!DOCTYPE svg PUBLIC "-//W3C//DTD SVG 1.1//EN"
 "http://www.w3.org/Graphics/SVG/1.1/DTD/svg11.dtd">
<!-- Generated by graphviz version 2.43.0 (0)
 -->
<!-- Title: nlohmann::detail::binary_reader::get_cbor_object Pages: 1 -->
<svg width="773pt" height="88pt"
 viewBox="0.00 0.00 773.00 88.00" xmlns="http://www.w3.org/2000/svg" xmlns:xlink="http://www.w3.org/1999/xlink">
<g id="graph0" class="graph" transform="scale(1 1) rotate(0) translate(4 84)">
<title>nlohmann::detail::binary_reader::get_cbor_object</title>
<polygon fill="white" stroke="transparent" points="-4,4 -4,-84 769,-84 769,4 -4,4"/>
<!-- Node1 -->
<g id="node1" class="node">
<title>Node1</title>
<g id="a_node1"><a xlink:title=" ">
<polygon fill="#bfbfbf" stroke="black" points="628,-49.5 628,-79.5 765,-79.5 765,-49.5 628,-49.5"/>
<text text-anchor="start" x="636" y="-67.5" font-family="Helvetica,sans-Serif" font-size="10.00">nlohmann::detail::binary</text>
<text text-anchor="middle" x="696.5" y="-56.5" font-family="Helvetica,sans-Serif" font-size="10.00">_reader::get_cbor_object</text>
</a>
</g>
</g>
<!-- Node2 -->
<g id="node2" class="node">
<title>Node2</title>
<g id="a_node2"><a xlink:href="classnlohmann_1_1detail_1_1binary__reader.html#a2fc47768d484a22fcd04e20106da1399" target="_top" xlink:title=" ">
<polygon fill="white" stroke="black" points="437,-49.5 437,-79.5 592,-79.5 592,-49.5 437,-49.5"/>
<text text-anchor="start" x="445" y="-67.5" font-family="Helvetica,sans-Serif" font-size="10.00">nlohmann::detail::binary</text>
<text text-anchor="middle" x="514.5" y="-56.5" font-family="Helvetica,sans-Serif" font-size="10.00">_reader::parse_cbor_internal</text>
</a>
</g>
</g>
<!-- Node1&#45;&gt;Node2 -->
<g id="edge1" class="edge">
<title>Node1&#45;&gt;Node2</title>
<path fill="none" stroke="midnightblue" d="M617.73,-57.81C609.26,-57.73 600.64,-57.73 592.19,-57.82"/>
<polygon fill="midnightblue" stroke="midnightblue" points="617.92,-61.31 627.96,-57.94 618.01,-54.31 617.92,-61.31"/>
</g>
<!-- Node2&#45;&gt;Node1 -->
<g id="edge4" class="edge">
<title>Node2&#45;&gt;Node1</title>
<path fill="none" stroke="midnightblue" d="M602.28,-71.25C610.91,-71.27 619.57,-71.2 627.96,-71.06"/>
<polygon fill="midnightblue" stroke="midnightblue" points="602.21,-67.75 592.19,-71.18 602.17,-74.75 602.21,-67.75"/>
</g>
<!-- Node3 -->
<g id="node3" class="node">
<title>Node3</title>
<g id="a_node3"><a xlink:href="classnlohmann_1_1detail_1_1binary__reader.html#ac3dc99d36754aa0beac506b30604a8ed" target="_top" xlink:title=" ">
<polygon fill="white" stroke="black" points="265,-49.5 265,-79.5 401,-79.5 401,-49.5 265,-49.5"/>
<text text-anchor="start" x="273" y="-67.5" font-family="Helvetica,sans-Serif" font-size="10.00">nlohmann::detail::binary</text>
<text text-anchor="middle" x="333" y="-56.5" font-family="Helvetica,sans-Serif" font-size="10.00">_reader::get_cbor_array</text>
</a>
</g>
</g>
<!-- Node2&#45;&gt;Node3 -->
<g id="edge2" class="edge">
<title>Node2&#45;&gt;Node3</title>
<path fill="none" stroke="midnightblue" d="M426.75,-57.75C418.11,-57.73 409.43,-57.8 401.04,-57.95"/>
<polygon fill="midnightblue" stroke="midnightblue" points="426.83,-61.25 436.86,-57.81 426.88,-54.25 426.83,-61.25"/>
</g>
<!-- Node4 -->
<g id="node4" class="node">
<title>Node4</title>
<g id="a_node4"><a xlink:href="classnlohmann_1_1detail_1_1binary__reader.html#ab94a54d6e595c2620b07589cf4116256" target="_top" xlink:title=" ">
<polygon fill="white" stroke="black" points="265,-0.5 265,-30.5 401,-30.5 401,-0.5 265,-0.5"/>
<text text-anchor="start" x="273" y="-18.5" font-family="Helvetica,sans-Serif" font-size="10.00">nlohmann::detail::binary</text>
<text text-anchor="middle" x="333" y="-7.5" font-family="Helvetica,sans-Serif" font-size="10.00">_reader::sax_parse</text>
</a>
</g>
</g>
<!-- Node2&#45;&gt;Node4 -->
<g id="edge5" class="edge">
<title>Node2&#45;&gt;Node4</title>
<path fill="none" stroke="midnightblue" d="M448.48,-46.75C429.03,-41.44 407.89,-35.67 389.14,-30.55"/>
<polygon fill="midnightblue" stroke="midnightblue" points="447.61,-50.14 458.18,-49.4 449.45,-43.39 447.61,-50.14"/>
</g>
<!-- Node3&#45;&gt;Node2 -->
<g id="edge3" class="edge">
<title>Node3&#45;&gt;Node2</title>
<path fill="none" stroke="midnightblue" d="M411.28,-71.19C419.76,-71.27 428.39,-71.27 436.86,-71.19"/>
<polygon fill="midnightblue" stroke="midnightblue" points="411.09,-67.69 401.04,-71.05 410.99,-74.69 411.09,-67.69"/>
</g>
<!-- Node5 -->
<g id="node5" class="node">
<title>Node5</title>
<g id="a_node5"><a xlink:href="classnlohmann_1_1basic__json.html#a8a3dd150c2d1f0df3502d937de0871db" target="_top" xlink:title="generate SAX events">
<polygon fill="white" stroke="black" points="107,-0.5 107,-30.5 229,-30.5 229,-0.5 107,-0.5"/>
<text text-anchor="start" x="115" y="-18.5" font-family="Helvetica,sans-Serif" font-size="10.00">nlohmann::basic_json</text>
<text text-anchor="middle" x="168" y="-7.5" font-family="Helvetica,sans-Serif" font-size="10.00">::sax_parse</text>
</a>
</g>
</g>
<!-- Node4&#45;&gt;Node5 -->
<g id="edge6" class="edge">
<title>Node4&#45;&gt;Node5</title>
<path fill="none" stroke="midnightblue" d="M254.7,-15.5C246.08,-15.5 237.4,-15.5 229.04,-15.5"/>
<polygon fill="midnightblue" stroke="midnightblue" points="254.76,-19 264.76,-15.5 254.76,-12 254.76,-19"/>
</g>
<!-- Node6 -->
<g id="node6" class="node">
<title>Node6</title>
<g id="a_node6"><a xlink:href="unit-bson_8cpp.html#a73301d5e6d0f638e973f748287501dd6" target="_top" xlink:title=" ">
<polygon fill="white" stroke="black" points="0,-6 0,-25 71,-25 71,-6 0,-6"/>
<text text-anchor="middle" x="35.5" y="-13" font-family="Helvetica,sans-Serif" font-size="10.00">TEST_CASE</text>
</a>
</g>
</g>
<!-- Node5&#45;&gt;Node6 -->
<g id="edge7" class="edge">
<title>Node5&#45;&gt;Node6</title>
<path fill="none" stroke="midnightblue" d="M96.44,-15.5C87.71,-15.5 79.11,-15.5 71.26,-15.5"/>
<polygon fill="midnightblue" stroke="midnightblue" points="96.72,-19 106.72,-15.5 96.72,-12 96.72,-19"/>
</g>
</g>
</svg>
