<?xml version="1.0" encoding="UTF-8" standalone="no"?>
<!DOCTYPE svg PUBLIC "-//W3C//DTD SVG 1.1//EN"
 "http://www.w3.org/Graphics/SVG/1.1/DTD/svg11.dtd">
<!-- Generated by graphviz version 2.43.0 (0)
 -->
<!-- Title: httplib::ClientImpl::Post Pages: 1 -->
<!--zoomable 198 -->
<svg id="main" version="1.1" xmlns="http://www.w3.org/2000/svg" xmlns:xlink="http://www.w3.org/1999/xlink" xml:space="preserve" onload="init(evt)">
<style type="text/css"><![CDATA[
.edge:hover path { stroke: red; }
.edge:hover polygon { stroke: red; fill: red; }
]]></style>
<script type="text/javascript"><![CDATA[
var edges = document.getElementsByTagName('g');
if (edges && edges.length) {
  for (var i=0;i<edges.length;i++) {
    if (edges[i].id.substr(0,4)=='edge') {
      edges[i].setAttribute('class','edge');
    }
  }
}
]]></script>
        <defs>
                <circle id="rim" cx="0" cy="0" r="7"/>
                <circle id="rim2" cx="0" cy="0" r="3.5"/>
                <g id="zoomPlus">
                        <use xlink:href="#rim" fill="#404040">
                                <set attributeName="fill" to="#808080" begin="zoomplus.mouseover" end="zoomplus.mouseout"/>
                        </use>
                        <path d="M-4,0h8M0,-4v8" fill="none" stroke="white" stroke-width="1.5" pointer-events="none"/>
                </g>
                <g id="zoomMin">
                        <use xlink:href="#rim" fill="#404040">
                                <set attributeName="fill" to="#808080" begin="zoomminus.mouseover" end="zoomminus.mouseout"/>
                        </use>
                        <path d="M-4,0h8" fill="none" stroke="white" stroke-width="1.5" pointer-events="none"/>
                </g>
                <g id="dirArrow">
                        <path fill="none" stroke="white" stroke-width="1.5" d="M0,-3.0v7 M-2.5,-0.5L0,-3.0L2.5,-0.5"/>
                </g>
               <g id="resetDef">
                       <use xlink:href="#rim2" fill="#404040">
                               <set attributeName="fill" to="#808080" begin="reset.mouseover" end="reset.mouseout"/>
                       </use>
               </g>
        </defs>

<script type="text/javascript">
var viewWidth = 506;
var viewHeight = 198;
var sectionId = 'dynsection-54';
</script>
<script xlink:href="svgpan.js"/>
<svg id="graph" class="graph">
<g id="viewport">
<title>httplib::ClientImpl::Post</title>
<polygon fill="white" stroke="transparent" points="-4,4 -4,-193.5 502,-193.5 502,4 -4,4"/>
<!-- Node1 -->
<g id="node1" class="node">
<title>Node1</title>
<g id="a_node1"><a xlink:title=" ">
<polygon fill="#bfbfbf" stroke="black" points="0,-85 0,-115 104,-115 104,-85 0,-85"/>
<text text-anchor="start" x="8" y="-103" font-family="Helvetica,sans-Serif" font-size="10.00">httplib::ClientImpl</text>
<text text-anchor="middle" x="52" y="-92" font-family="Helvetica,sans-Serif" font-size="10.00">::Post</text>
</a>
</g>
</g>
<!-- Node2 -->
<g id="node2" class="node">
<title>Node2</title>
<g id="a_node2"><a xlink:href="namespacehttplib_1_1detail.html#ae144d55905f9808c3abae6e20bd9367a" target="_top" xlink:title=" ">
<polygon fill="white" stroke="black" points="140,-159 140,-189 285,-189 285,-159 140,-159"/>
<text text-anchor="start" x="148" y="-177" font-family="Helvetica,sans-Serif" font-size="10.00">httplib::detail::make</text>
<text text-anchor="middle" x="212.5" y="-166" font-family="Helvetica,sans-Serif" font-size="10.00">_multipart_data_boundary</text>
</a>
</g>
</g>
<!-- Node1&#45;&gt;Node2 -->
<g id="edge1" class="edge">
<title>Node1&#45;&gt;Node2</title>
<path fill="none" stroke="midnightblue" d="M76.33,-115.1C93.48,-125.78 117.6,-139.92 140,-150 144.07,-151.83 148.33,-153.6 152.65,-155.29"/>
<polygon fill="midnightblue" stroke="midnightblue" points="151.57,-158.63 162.16,-158.87 154.03,-152.07 151.57,-158.63"/>
</g>
<!-- Node4 -->
<g id="node4" class="node">
<title>Node4</title>
<g id="a_node4"><a xlink:href="classhttplib_1_1ClientImpl.html#aa42912401c5bc3f2da3c7e0543f9637c" target="_top" xlink:title=" ">
<polygon fill="white" stroke="black" points="160.5,-110 160.5,-140 264.5,-140 264.5,-110 160.5,-110"/>
<text text-anchor="start" x="168.5" y="-128" font-family="Helvetica,sans-Serif" font-size="10.00">httplib::ClientImpl</text>
<text text-anchor="middle" x="212.5" y="-117" font-family="Helvetica,sans-Serif" font-size="10.00">::Post</text>
</a>
</g>
</g>
<!-- Node1&#45;&gt;Node4 -->
<g id="edge3" class="edge">
<title>Node1&#45;&gt;Node4</title>
<path fill="none" stroke="midnightblue" d="M104.02,-108.05C118.8,-110.38 135.07,-112.95 150.4,-115.36"/>
<polygon fill="midnightblue" stroke="midnightblue" points="149.88,-118.82 160.3,-116.92 150.97,-111.91 149.88,-118.82"/>
</g>
<!-- Node5 -->
<g id="node5" class="node">
<title>Node5</title>
<g id="a_node5"><a xlink:href="namespacehttplib_1_1detail.html#a955d577ea09d1bce5cfabd1c106d041e" target="_top" xlink:title=" ">
<polygon fill="white" stroke="black" points="148,-61 148,-91 277,-91 277,-61 148,-61"/>
<text text-anchor="start" x="156" y="-79" font-family="Helvetica,sans-Serif" font-size="10.00">httplib::detail::serialize</text>
<text text-anchor="middle" x="212.5" y="-68" font-family="Helvetica,sans-Serif" font-size="10.00">_multipart_formdata</text>
</a>
</g>
</g>
<!-- Node1&#45;&gt;Node5 -->
<g id="edge4" class="edge">
<title>Node1&#45;&gt;Node5</title>
<path fill="none" stroke="midnightblue" d="M104.02,-92.27C114.8,-90.64 126.38,-88.89 137.81,-87.16"/>
<polygon fill="midnightblue" stroke="midnightblue" points="138.42,-90.61 147.78,-85.65 137.37,-83.68 138.42,-90.61"/>
</g>
<!-- Node9 -->
<g id="node9" class="node">
<title>Node9</title>
<g id="a_node9"><a xlink:href="namespacehttplib_1_1detail.html#a22a3b7880fae2701433d9a2b6359b8b9" target="_top" xlink:title=" ">
<polygon fill="white" stroke="black" points="143.5,-0.5 143.5,-41.5 281.5,-41.5 281.5,-0.5 143.5,-0.5"/>
<text text-anchor="start" x="151.5" y="-29.5" font-family="Helvetica,sans-Serif" font-size="10.00">httplib::detail::serialize</text>
<text text-anchor="start" x="151.5" y="-18.5" font-family="Helvetica,sans-Serif" font-size="10.00">_multipart_formdata_get</text>
<text text-anchor="middle" x="212.5" y="-7.5" font-family="Helvetica,sans-Serif" font-size="10.00">_content_type</text>
</a>
</g>
</g>
<!-- Node1&#45;&gt;Node9 -->
<g id="edge8" class="edge">
<title>Node1&#45;&gt;Node9</title>
<path fill="none" stroke="midnightblue" d="M78.09,-84.85C95.25,-74.74 118.67,-61.44 140,-51 143.57,-49.25 147.27,-47.51 151.02,-45.79"/>
<polygon fill="midnightblue" stroke="midnightblue" points="152.7,-48.87 160.4,-41.59 149.84,-42.48 152.7,-48.87"/>
</g>
<!-- Node3 -->
<g id="node3" class="node">
<title>Node3</title>
<g id="a_node3"><a xlink:href="namespacehttplib_1_1detail.html#aa473f5aff2d646f2801456f003183b1b" target="_top" xlink:title=" ">
<polygon fill="white" stroke="black" points="347,-159 347,-189 472,-189 472,-159 347,-159"/>
<text text-anchor="start" x="355" y="-177" font-family="Helvetica,sans-Serif" font-size="10.00">httplib::detail::random</text>
<text text-anchor="middle" x="409.5" y="-166" font-family="Helvetica,sans-Serif" font-size="10.00">_string</text>
</a>
</g>
</g>
<!-- Node2&#45;&gt;Node3 -->
<g id="edge2" class="edge">
<title>Node2&#45;&gt;Node3</title>
<path fill="none" stroke="midnightblue" d="M285,-174C301.84,-174 319.78,-174 336.63,-174"/>
<polygon fill="midnightblue" stroke="midnightblue" points="336.96,-177.5 346.96,-174 336.96,-170.5 336.96,-177.5"/>
</g>
<!-- Node6 -->
<g id="node6" class="node">
<title>Node6</title>
<g id="a_node6"><a xlink:href="namespacehttplib_1_1detail.html#ab718a6f383e2de1c7a2b0ebc26983e28" target="_top" xlink:title=" ">
<polygon fill="white" stroke="black" points="335,-110 335,-140 484,-140 484,-110 335,-110"/>
<text text-anchor="start" x="343" y="-128" font-family="Helvetica,sans-Serif" font-size="10.00">httplib::detail::serialize</text>
<text text-anchor="middle" x="409.5" y="-117" font-family="Helvetica,sans-Serif" font-size="10.00">_multipart_formdata_finish</text>
</a>
</g>
</g>
<!-- Node5&#45;&gt;Node6 -->
<g id="edge5" class="edge">
<title>Node5&#45;&gt;Node6</title>
<path fill="none" stroke="midnightblue" d="M273.33,-91.03C294.11,-96.26 317.58,-102.15 339.07,-107.55"/>
<polygon fill="midnightblue" stroke="midnightblue" points="338.23,-110.95 348.78,-109.99 339.94,-104.16 338.23,-110.95"/>
</g>
<!-- Node7 -->
<g id="node7" class="node">
<title>Node7</title>
<g id="a_node7"><a xlink:href="namespacehttplib_1_1detail.html#a7ab42864352bc4bf339c8ac3e5900476" target="_top" xlink:title=" ">
<polygon fill="white" stroke="black" points="321,-61 321,-91 498,-91 498,-61 321,-61"/>
<text text-anchor="start" x="329" y="-79" font-family="Helvetica,sans-Serif" font-size="10.00">httplib::detail::serialize</text>
<text text-anchor="middle" x="409.5" y="-68" font-family="Helvetica,sans-Serif" font-size="10.00">_multipart_formdata_item_begin</text>
</a>
</g>
</g>
<!-- Node5&#45;&gt;Node7 -->
<g id="edge6" class="edge">
<title>Node5&#45;&gt;Node7</title>
<path fill="none" stroke="midnightblue" d="M277.08,-76C287.91,-76 299.38,-76 310.85,-76"/>
<polygon fill="midnightblue" stroke="midnightblue" points="310.92,-79.5 320.92,-76 310.92,-72.5 310.92,-79.5"/>
</g>
<!-- Node8 -->
<g id="node8" class="node">
<title>Node8</title>
<g id="a_node8"><a xlink:href="namespacehttplib_1_1detail.html#a4775688e3c3d0be38ade93517b00f9cc" target="_top" xlink:title=" ">
<polygon fill="white" stroke="black" points="325.5,-12 325.5,-42 493.5,-42 493.5,-12 325.5,-12"/>
<text text-anchor="start" x="333.5" y="-30" font-family="Helvetica,sans-Serif" font-size="10.00">httplib::detail::serialize</text>
<text text-anchor="middle" x="409.5" y="-19" font-family="Helvetica,sans-Serif" font-size="10.00">_multipart_formdata_item_end</text>
</a>
</g>
</g>
<!-- Node5&#45;&gt;Node8 -->
<g id="edge7" class="edge">
<title>Node5&#45;&gt;Node8</title>
<path fill="none" stroke="midnightblue" d="M273.33,-60.97C294.11,-55.74 317.58,-49.85 339.07,-44.45"/>
<polygon fill="midnightblue" stroke="midnightblue" points="339.94,-47.84 348.78,-42.01 338.23,-41.05 339.94,-47.84"/>
</g>
</g>
</svg>
        <g id="navigator" transform="translate(0 0)" fill="#404254">
                <rect fill="#f2f5e9" fill-opacity="0.5" stroke="#606060" stroke-width=".5" x="0" y="0" width="60" height="60"/>
                <use id="zoomplus" xlink:href="#zoomPlus" x="17" y="9" onmousedown="handleZoom(evt,'in')"/>
                <use id="zoomminus" xlink:href="#zoomMin" x="42" y="9" onmousedown="handleZoom(evt,'out')"/>
                <use id="reset" xlink:href="#resetDef" x="30" y="36" onmousedown="handleReset()"/>
                <g id="arrowUp" xlink:href="#dirArrow" transform="translate(30 24)" onmousedown="handlePan(0,-1)">
                  <use xlink:href="#rim" fill="#404040">
                        <set attributeName="fill" to="#808080" begin="arrowUp.mouseover" end="arrowUp.mouseout"/>
                  </use>
                  <path fill="none" stroke="white" stroke-width="1.5" d="M0,-3.0v7 M-2.5,-0.5L0,-3.0L2.5,-0.5"/>
                </g>
                <g id="arrowRight" xlink:href="#dirArrow" transform="rotate(90) translate(36 -43)" onmousedown="handlePan(1,0)">
                  <use xlink:href="#rim" fill="#404040">
                        <set attributeName="fill" to="#808080" begin="arrowRight.mouseover" end="arrowRight.mouseout"/>
                  </use>
                  <path fill="none" stroke="white" stroke-width="1.5" d="M0,-3.0v7 M-2.5,-0.5L0,-3.0L2.5,-0.5"/>
                </g>
                <g id="arrowDown" xlink:href="#dirArrow" transform="rotate(180) translate(-30 -48)" onmousedown="handlePan(0,1)">
                  <use xlink:href="#rim" fill="#404040">
                        <set attributeName="fill" to="#808080" begin="arrowDown.mouseover" end="arrowDown.mouseout"/>
                  </use>
                  <path fill="none" stroke="white" stroke-width="1.5" d="M0,-3.0v7 M-2.5,-0.5L0,-3.0L2.5,-0.5"/>
                </g>
                <g id="arrowLeft" xlink:href="#dirArrow" transform="rotate(270) translate(-36 17)" onmousedown="handlePan(-1,0)">
                  <use xlink:href="#rim" fill="#404040">
                        <set attributeName="fill" to="#808080" begin="arrowLeft.mouseover" end="arrowLeft.mouseout"/>
                  </use>
                  <path fill="none" stroke="white" stroke-width="1.5" d="M0,-3.0v7 M-2.5,-0.5L0,-3.0L2.5,-0.5"/>
                </g>
        </g>
        <svg viewBox="0 0 15 15" width="100%" height="30px" preserveAspectRatio="xMaxYMin meet">
         <g id="arrow_out" transform="scale(0.3 0.3)">
          <a xlink:href="classhttplib_1_1ClientImpl_a2273f2235e5f3004768d2792fc765f75_cgraph_org.svg" target="_base">
           <rect id="button" ry="5" rx="5" y="6" x="6" height="38" width="38"
                fill="#f2f5e9" fill-opacity="0.5" stroke="#606060" stroke-width="1.0"/>
           <path id="arrow"
             d="M 11.500037,31.436501 C 11.940474,20.09759 22.043105,11.32322 32.158766,21.979434 L 37.068811,17.246167 C 37.068811,17.246167 37.088388,32 37.088388,32 L 22.160133,31.978069 C 22.160133,31.978069 26.997745,27.140456 26.997745,27.140456 C 18.528582,18.264221 13.291696,25.230495 11.500037,31.436501 z"
             style="fill:#404040;"/>
          </a>
         </g>
        </svg>
</svg>
