<?xml version="1.0" encoding="UTF-8" standalone="no"?>
<!DOCTYPE svg PUBLIC "-//W3C//DTD SVG 1.1//EN"
 "http://www.w3.org/Graphics/SVG/1.1/DTD/svg11.dtd">
<!-- Generated by graphviz version 2.43.0 (0)
 -->
<!-- Title: ResourceMonitorSubject Pages: 1 -->
<svg width="568pt" height="732pt"
 viewBox="0.00 0.00 568.00 732.00" xmlns="http://www.w3.org/2000/svg" xmlns:xlink="http://www.w3.org/1999/xlink">
<g id="graph0" class="graph" transform="scale(1 1) rotate(0) translate(4 728)">
<title>ResourceMonitorSubject</title>
<polygon fill="white" stroke="transparent" points="-4,4 -4,-728 564,-728 564,4 -4,4"/>
<!-- Node1 -->
<g id="node1" class="node">
<title>Node1</title>
<g id="a_node1"><a xlink:title=" ">
<polygon fill="#bfbfbf" stroke="black" points="193,-0.5 193,-200.5 365,-200.5 365,-0.5 193,-0.5"/>
<text text-anchor="middle" x="279" y="-188.5" font-family="Helvetica,sans-Serif" font-size="10.00">ResourceMonitorSubject</text>
<polyline fill="none" stroke="black" points="193,-181.5 365,-181.5 "/>
<text text-anchor="start" x="201" y="-169.5" font-family="Helvetica,sans-Serif" font-size="10.00">&#45; avg_cpuUtilization</text>
<text text-anchor="start" x="201" y="-158.5" font-family="Helvetica,sans-Serif" font-size="10.00">&#45; avg_memoryUtilization</text>
<text text-anchor="start" x="201" y="-147.5" font-family="Helvetica,sans-Serif" font-size="10.00">&#45; is_cpu_utilization_high</text>
<text text-anchor="start" x="201" y="-136.5" font-family="Helvetica,sans-Serif" font-size="10.00">&#45; is_memory_utilization_high</text>
<text text-anchor="start" x="201" y="-125.5" font-family="Helvetica,sans-Serif" font-size="10.00">&#45; is_cpu_utilization</text>
<text text-anchor="start" x="201" y="-114.5" font-family="Helvetica,sans-Serif" font-size="10.00">_below_pod_respawn_threshold</text>
<text text-anchor="start" x="201" y="-103.5" font-family="Helvetica,sans-Serif" font-size="10.00">&#45; is_memory_utilization</text>
<text text-anchor="start" x="201" y="-92.5" font-family="Helvetica,sans-Serif" font-size="10.00">_below_pod_respawn_threshold</text>
<polyline fill="none" stroke="black" points="193,-85.5 365,-85.5 "/>
<text text-anchor="start" x="201" y="-73.5" font-family="Helvetica,sans-Serif" font-size="10.00">+ ResourceMonitorSubject()</text>
<text text-anchor="start" x="201" y="-62.5" font-family="Helvetica,sans-Serif" font-size="10.00">+ AddObserver()</text>
<text text-anchor="start" x="201" y="-51.5" font-family="Helvetica,sans-Serif" font-size="10.00">+ RemoveObserver()</text>
<text text-anchor="start" x="201" y="-40.5" font-family="Helvetica,sans-Serif" font-size="10.00">+ NotifyObservers()</text>
<text text-anchor="start" x="201" y="-29.5" font-family="Helvetica,sans-Serif" font-size="10.00">+ GetResourceUtilization()</text>
<text text-anchor="start" x="201" y="-18.5" font-family="Helvetica,sans-Serif" font-size="10.00">+ AverageResourceUtilization()</text>
<text text-anchor="start" x="201" y="-7.5" font-family="Helvetica,sans-Serif" font-size="10.00">+ Run()</text>
</a>
</g>
</g>
<!-- Node2 -->
<g id="node2" class="node">
<title>Node2</title>
<g id="a_node2"><a xlink:href="classSubject.html" target="_top" xlink:title=" ">
<polygon fill="white" stroke="black" points="0,-248.5 0,-338.5 120,-338.5 120,-248.5 0,-248.5"/>
<text text-anchor="middle" x="60" y="-326.5" font-family="Helvetica,sans-Serif" font-size="10.00">Subject</text>
<polyline fill="none" stroke="black" points="0,-319.5 120,-319.5 "/>
<text text-anchor="middle" x="60" y="-307.5" font-family="Helvetica,sans-Serif" font-size="10.00"> </text>
<polyline fill="none" stroke="black" points="0,-300.5 120,-300.5 "/>
<text text-anchor="start" x="8" y="-288.5" font-family="Helvetica,sans-Serif" font-size="10.00">+ ~Subject()</text>
<text text-anchor="start" x="8" y="-277.5" font-family="Helvetica,sans-Serif" font-size="10.00">+ AddObserver()</text>
<text text-anchor="start" x="8" y="-266.5" font-family="Helvetica,sans-Serif" font-size="10.00">+ RemoveObserver()</text>
<text text-anchor="start" x="8" y="-255.5" font-family="Helvetica,sans-Serif" font-size="10.00">+ NotifyObservers()</text>
</a>
</g>
</g>
<!-- Node2&#45;&gt;Node1 -->
<g id="edge1" class="edge">
<title>Node2&#45;&gt;Node1</title>
<path fill="none" stroke="midnightblue" d="M118.11,-241.82C140.96,-221.89 167.67,-198.6 192.68,-176.78"/>
<polygon fill="none" stroke="midnightblue" points="115.75,-239.23 110.52,-248.44 120.35,-244.51 115.75,-239.23"/>
</g>
<!-- Node3 -->
<g id="node3" class="node">
<title>Node3</title>
<g id="a_node3"><a xlink:title=" ">
<polygon fill="white" stroke="#bfbfbf" points="138.5,-265 138.5,-322 281.5,-322 281.5,-265 138.5,-265"/>
<text text-anchor="middle" x="210" y="-310" font-family="Helvetica,sans-Serif" font-size="10.00">std::vector&lt; Observer * &gt;</text>
<polyline fill="none" stroke="#bfbfbf" points="138.5,-303 281.5,-303 "/>
<text text-anchor="middle" x="210" y="-291" font-family="Helvetica,sans-Serif" font-size="10.00"> </text>
<polyline fill="none" stroke="#bfbfbf" points="138.5,-284 281.5,-284 "/>
<text text-anchor="middle" x="210" y="-272" font-family="Helvetica,sans-Serif" font-size="10.00"> </text>
</a>
</g>
</g>
<!-- Node3&#45;&gt;Node1 -->
<g id="edge2" class="edge">
<title>Node3&#45;&gt;Node1</title>
<path fill="none" stroke="#404040" d="M220.03,-264.73C225.22,-250.37 231.93,-231.81 238.95,-212.37"/>
<polygon fill="none" stroke="#404040" points="239.03,-212.13 237.31,-205.13 243.11,-200.85 244.83,-207.85 239.03,-212.13"/>
<text text-anchor="middle" x="264.5" y="-222" font-family="Helvetica,sans-Serif" font-size="10.00"> &#45;observers</text>
</g>
<!-- Node4 -->
<g id="node4" class="node">
<title>Node4</title>
<g id="a_node4"><a xlink:href="classObserver.html" target="_top" xlink:title=" ">
<polygon fill="white" stroke="black" points="95,-433.5 95,-501.5 183,-501.5 183,-433.5 95,-433.5"/>
<text text-anchor="middle" x="139" y="-489.5" font-family="Helvetica,sans-Serif" font-size="10.00">Observer</text>
<polyline fill="none" stroke="black" points="95,-482.5 183,-482.5 "/>
<text text-anchor="middle" x="139" y="-470.5" font-family="Helvetica,sans-Serif" font-size="10.00"> </text>
<polyline fill="none" stroke="black" points="95,-463.5 183,-463.5 "/>
<text text-anchor="start" x="103" y="-451.5" font-family="Helvetica,sans-Serif" font-size="10.00">+ ~Observer()</text>
<text text-anchor="start" x="103" y="-440.5" font-family="Helvetica,sans-Serif" font-size="10.00">+ Update()</text>
</a>
</g>
</g>
<!-- Node4&#45;&gt;Node3 -->
<g id="edge3" class="edge">
<title>Node4&#45;&gt;Node3</title>
<path fill="none" stroke="#404040" d="M152.69,-433.34C164.46,-404.81 181.47,-363.62 193.89,-333.52"/>
<polygon fill="none" stroke="#404040" points="194,-333.26 192.59,-326.19 198.58,-322.17 199.99,-329.24 194,-333.26"/>
<text text-anchor="middle" x="212" y="-383.5" font-family="Helvetica,sans-Serif" font-size="10.00"> +elements</text>
</g>
<!-- Node5 -->
<g id="node5" class="node">
<title>Node5</title>
<g id="a_node5"><a xlink:title=" ">
<polygon fill="white" stroke="#bfbfbf" points="420,-357.5 420,-414.5 560,-414.5 560,-357.5 420,-357.5"/>
<text text-anchor="middle" x="490" y="-402.5" font-family="Helvetica,sans-Serif" font-size="10.00">std::vector&lt; std::string &gt;</text>
<polyline fill="none" stroke="#bfbfbf" points="420,-395.5 560,-395.5 "/>
<text text-anchor="middle" x="490" y="-383.5" font-family="Helvetica,sans-Serif" font-size="10.00"> </text>
<polyline fill="none" stroke="#bfbfbf" points="420,-376.5 560,-376.5 "/>
<text text-anchor="middle" x="490" y="-364.5" font-family="Helvetica,sans-Serif" font-size="10.00"> </text>
</a>
</g>
</g>
<!-- Node5&#45;&gt;Node1 -->
<g id="edge4" class="edge">
<title>Node5&#45;&gt;Node1</title>
<path fill="none" stroke="#404040" d="M475,-357.45C456.06,-323.59 421.62,-264.97 386,-219 381.78,-213.55 377.36,-208.05 372.83,-202.55"/>
<polygon fill="none" stroke="#404040" points="372.8,-202.52 365.88,-200.49 365.1,-193.32 372.02,-195.35 372.8,-202.52"/>
<text text-anchor="middle" x="482.5" y="-291" font-family="Helvetica,sans-Serif" font-size="10.00"> &#45;topics</text>
</g>
<!-- Node6 -->
<g id="node6" class="node">
<title>Node6</title>
<g id="a_node6"><a xlink:title="STL class.">
<polygon fill="white" stroke="#bfbfbf" points="344.5,-560.5 344.5,-617.5 409.5,-617.5 409.5,-560.5 344.5,-560.5"/>
<text text-anchor="middle" x="377" y="-605.5" font-family="Helvetica,sans-Serif" font-size="10.00">std::string</text>
<polyline fill="none" stroke="#bfbfbf" points="344.5,-598.5 409.5,-598.5 "/>
<text text-anchor="middle" x="377" y="-586.5" font-family="Helvetica,sans-Serif" font-size="10.00"> </text>
<polyline fill="none" stroke="#bfbfbf" points="344.5,-579.5 409.5,-579.5 "/>
<text text-anchor="middle" x="377" y="-567.5" font-family="Helvetica,sans-Serif" font-size="10.00"> </text>
</a>
</g>
</g>
<!-- Node6&#45;&gt;Node5 -->
<g id="edge5" class="edge">
<title>Node6&#45;&gt;Node5</title>
<path fill="none" stroke="#404040" d="M409.53,-568.14C431.51,-552.89 459.12,-529.77 474,-502 486.29,-479.06 490.25,-450.01 491.16,-426.85"/>
<polygon fill="none" stroke="#404040" points="491.17,-426.66 487.28,-420.59 491.39,-414.67 495.28,-420.74 491.17,-426.66"/>
<text text-anchor="middle" x="490" y="-528.5" font-family="Helvetica,sans-Serif" font-size="10.00"> +elements</text>
</g>
<!-- Node10 -->
<g id="node10" class="node">
<title>Node10</title>
<g id="a_node10"><a xlink:title=" ">
<polygon fill="white" stroke="#bfbfbf" points="201,-433.5 201,-501.5 323,-501.5 323,-433.5 201,-433.5"/>
<text text-anchor="start" x="209" y="-489.5" font-family="Helvetica,sans-Serif" font-size="10.00">std::map&lt; std::string,</text>
<text text-anchor="middle" x="262" y="-478.5" font-family="Helvetica,sans-Serif" font-size="10.00"> std::string &gt;</text>
<polyline fill="none" stroke="#bfbfbf" points="201,-471.5 323,-471.5 "/>
<text text-anchor="middle" x="262" y="-459.5" font-family="Helvetica,sans-Serif" font-size="10.00"> </text>
<polyline fill="none" stroke="#bfbfbf" points="201,-452.5 323,-452.5 "/>
<text text-anchor="middle" x="262" y="-440.5" font-family="Helvetica,sans-Serif" font-size="10.00"> </text>
</a>
</g>
</g>
<!-- Node6&#45;&gt;Node10 -->
<g id="edge10" class="edge">
<title>Node6&#45;&gt;Node10</title>
<path fill="none" stroke="#404040" d="M350.33,-560.28C336.11,-545.51 318.32,-527.02 302.43,-510.52"/>
<polygon fill="none" stroke="#404040" points="302.16,-510.24 295.12,-508.69 293.84,-501.59 300.89,-503.14 302.16,-510.24"/>
<text text-anchor="middle" x="359" y="-534" font-family="Helvetica,sans-Serif" font-size="10.00"> +elements</text>
<text text-anchor="middle" x="359" y="-523" font-family="Helvetica,sans-Serif" font-size="10.00">+keys</text>
</g>
<!-- Node7 -->
<g id="node7" class="node">
<title>Node7</title>
<g id="a_node7"><a xlink:title="STL class.">
<polygon fill="white" stroke="#bfbfbf" points="325,-655.5 325,-723.5 429,-723.5 429,-655.5 325,-655.5"/>
<text text-anchor="start" x="333" y="-711.5" font-family="Helvetica,sans-Serif" font-size="10.00">std::basic_string&lt;</text>
<text text-anchor="middle" x="377" y="-700.5" font-family="Helvetica,sans-Serif" font-size="10.00"> char &gt;</text>
<polyline fill="none" stroke="#bfbfbf" points="325,-693.5 429,-693.5 "/>
<text text-anchor="middle" x="377" y="-681.5" font-family="Helvetica,sans-Serif" font-size="10.00"> </text>
<polyline fill="none" stroke="#bfbfbf" points="325,-674.5 429,-674.5 "/>
<text text-anchor="middle" x="377" y="-662.5" font-family="Helvetica,sans-Serif" font-size="10.00"> </text>
</a>
</g>
</g>
<!-- Node7&#45;&gt;Node6 -->
<g id="edge6" class="edge">
<title>Node7&#45;&gt;Node6</title>
<path fill="none" stroke="midnightblue" d="M377,-645.38C377,-635.94 377,-626.2 377,-617.57"/>
<polygon fill="none" stroke="midnightblue" points="373.5,-645.43 377,-655.43 380.5,-645.43 373.5,-645.43"/>
</g>
<!-- Node8 -->
<g id="node8" class="node">
<title>Node8</title>
<g id="a_node8"><a xlink:href="classMqttHandler.html" target="_top" xlink:title=" ">
<polygon fill="white" stroke="black" points="299.5,-259.5 299.5,-327.5 396.5,-327.5 396.5,-259.5 299.5,-259.5"/>
<text text-anchor="middle" x="348" y="-315.5" font-family="Helvetica,sans-Serif" font-size="10.00">MqttHandler</text>
<polyline fill="none" stroke="black" points="299.5,-308.5 396.5,-308.5 "/>
<text text-anchor="middle" x="348" y="-296.5" font-family="Helvetica,sans-Serif" font-size="10.00"> </text>
<polyline fill="none" stroke="black" points="299.5,-289.5 396.5,-289.5 "/>
<text text-anchor="start" x="307.5" y="-277.5" font-family="Helvetica,sans-Serif" font-size="10.00">+ MqttHandler()</text>
<text text-anchor="start" x="307.5" y="-266.5" font-family="Helvetica,sans-Serif" font-size="10.00">+ on_message()</text>
</a>
</g>
</g>
<!-- Node8&#45;&gt;Node1 -->
<g id="edge7" class="edge">
<title>Node8&#45;&gt;Node1</title>
<path fill="none" stroke="#404040" d="M335.98,-259.23C331.1,-245.73 325.16,-229.29 318.98,-212.18"/>
<polygon fill="none" stroke="#404040" points="318.97,-212.15 313.17,-207.87 314.9,-200.86 320.7,-205.15 318.97,-212.15"/>
<text text-anchor="middle" x="353" y="-222" font-family="Helvetica,sans-Serif" font-size="10.00"> &#45;subscriber</text>
</g>
<!-- Node9 -->
<g id="node9" class="node">
<title>Node9</title>
<g id="a_node9"><a xlink:title=" ">
<polygon fill="white" stroke="#bfbfbf" points="341.5,-439 341.5,-496 464.5,-496 464.5,-439 341.5,-439"/>
<text text-anchor="middle" x="403" y="-484" font-family="Helvetica,sans-Serif" font-size="10.00">mosqpp::mosquittopp</text>
<polyline fill="none" stroke="#bfbfbf" points="341.5,-477 464.5,-477 "/>
<text text-anchor="middle" x="403" y="-465" font-family="Helvetica,sans-Serif" font-size="10.00"> </text>
<polyline fill="none" stroke="#bfbfbf" points="341.5,-458 464.5,-458 "/>
<text text-anchor="middle" x="403" y="-446" font-family="Helvetica,sans-Serif" font-size="10.00"> </text>
</a>
</g>
</g>
<!-- Node9&#45;&gt;Node8 -->
<g id="edge8" class="edge">
<title>Node9&#45;&gt;Node8</title>
<path fill="none" stroke="midnightblue" d="M391.04,-429.11C381.37,-398.87 367.89,-356.7 358.6,-327.66"/>
<polygon fill="none" stroke="midnightblue" points="387.78,-430.41 394.16,-438.87 394.45,-428.27 387.78,-430.41"/>
</g>
<!-- Node10&#45;&gt;Node8 -->
<g id="edge9" class="edge">
<title>Node10&#45;&gt;Node8</title>
<path fill="none" stroke="#404040" d="M271.4,-433.35C278.36,-411.08 288.89,-381.43 302,-357 305.43,-350.61 309.45,-344.15 313.66,-337.92"/>
<polygon fill="none" stroke="#404040" points="313.93,-337.53 314.12,-330.32 320.85,-327.72 320.66,-334.93 313.93,-337.53"/>
<text text-anchor="middle" x="333.5" y="-383.5" font-family="Helvetica,sans-Serif" font-size="10.00"> +topic_data</text>
</g>
</g>
</svg>
