<?xml version="1.0" encoding="UTF-8" standalone="no"?>
<!DOCTYPE svg PUBLIC "-//W3C//DTD SVG 1.1//EN"
 "http://www.w3.org/Graphics/SVG/1.1/DTD/svg11.dtd">
<!-- Generated by graphviz version 2.43.0 (0)
 -->
<!-- Title: DatabaseHandler::ReadListData Pages: 1 -->
<!--zoomable 411 -->
<svg id="main" version="1.1" xmlns="http://www.w3.org/2000/svg" xmlns:xlink="http://www.w3.org/1999/xlink" xml:space="preserve" onload="init(evt)">
<style type="text/css"><![CDATA[
.edge:hover path { stroke: red; }
.edge:hover polygon { stroke: red; fill: red; }
]]></style>
<script type="text/javascript"><![CDATA[
var edges = document.getElementsByTagName('g');
if (edges && edges.length) {
  for (var i=0;i<edges.length;i++) {
    if (edges[i].id.substr(0,4)=='edge') {
      edges[i].setAttribute('class','edge');
    }
  }
}
]]></script>
        <defs>
                <circle id="rim" cx="0" cy="0" r="7"/>
                <circle id="rim2" cx="0" cy="0" r="3.5"/>
                <g id="zoomPlus">
                        <use xlink:href="#rim" fill="#404040">
                                <set attributeName="fill" to="#808080" begin="zoomplus.mouseover" end="zoomplus.mouseout"/>
                        </use>
                        <path d="M-4,0h8M0,-4v8" fill="none" stroke="white" stroke-width="1.5" pointer-events="none"/>
                </g>
                <g id="zoomMin">
                        <use xlink:href="#rim" fill="#404040">
                                <set attributeName="fill" to="#808080" begin="zoomminus.mouseover" end="zoomminus.mouseout"/>
                        </use>
                        <path d="M-4,0h8" fill="none" stroke="white" stroke-width="1.5" pointer-events="none"/>
                </g>
                <g id="dirArrow">
                        <path fill="none" stroke="white" stroke-width="1.5" d="M0,-3.0v7 M-2.5,-0.5L0,-3.0L2.5,-0.5"/>
                </g>
               <g id="resetDef">
                       <use xlink:href="#rim2" fill="#404040">
                               <set attributeName="fill" to="#808080" begin="reset.mouseover" end="reset.mouseout"/>
                       </use>
               </g>
        </defs>

<script type="text/javascript">
var viewWidth = 575;
var viewHeight = 411;
var sectionId = 'dynsection-17';
</script>
<script xlink:href="svgpan.js"/>
<svg id="graph" class="graph">
<g id="viewport">
<title>DatabaseHandler::ReadListData</title>
<polygon fill="white" stroke="transparent" points="-4,4 -4,-407 571,-407 571,4 -4,4"/>
<!-- Node1 -->
<g id="node1" class="node">
<title>Node1</title>
<g id="a_node1"><a xlink:title="Read List data from the database.">
<polygon fill="#bfbfbf" stroke="black" points="394,-197 394,-216 567,-216 567,-197 394,-197"/>
<text text-anchor="middle" x="480.5" y="-204" font-family="Helvetica,sans-Serif" font-size="10.00">DatabaseHandler::ReadListData</text>
</a>
</g>
</g>
<!-- Node2 -->
<g id="node2" class="node">
<title>Node2</title>
<g id="a_node2"><a xlink:href="classDeletePodObserver.html#aefbbe55642d3054190461a5e6bce5d89" target="_top" xlink:title=" ">
<polygon fill="white" stroke="black" points="204,-372.5 204,-402.5 321,-402.5 321,-372.5 204,-372.5"/>
<text text-anchor="start" x="212" y="-390.5" font-family="Helvetica,sans-Serif" font-size="10.00">DeletePodObserver::</text>
<text text-anchor="middle" x="262.5" y="-379.5" font-family="Helvetica,sans-Serif" font-size="10.00">DeleteAllPods</text>
</a>
</g>
</g>
<!-- Node1&#45;&gt;Node2 -->
<g id="edge1" class="edge">
<title>Node1&#45;&gt;Node2</title>
<path fill="none" stroke="midnightblue" d="M470.13,-225.4C452.73,-258.46 412.25,-326.66 358,-362.5 346.96,-369.8 333.87,-374.97 321.01,-378.63"/>
<polygon fill="midnightblue" stroke="midnightblue" points="473.32,-226.84 474.77,-216.34 467.09,-223.64 473.32,-226.84"/>
</g>
<!-- Node3 -->
<g id="node3" class="node">
<title>Node3</title>
<g id="a_node3"><a xlink:href="classConfigHandler.html#a46bddb2de51517c28d4f6860e1844fe3" target="_top" xlink:title="get the value from containerManagement.conf file based on key">
<polygon fill="white" stroke="black" points="194,-334 194,-353 331,-353 331,-334 194,-334"/>
<text text-anchor="middle" x="262.5" y="-341" font-family="Helvetica,sans-Serif" font-size="10.00">ConfigHandler::GetValue</text>
</a>
</g>
</g>
<!-- Node1&#45;&gt;Node3 -->
<g id="edge2" class="edge">
<title>Node1&#45;&gt;Node3</title>
<path fill="none" stroke="midnightblue" d="M466.65,-224.31C446.6,-250.67 405.25,-299.63 358,-324.5 349.71,-328.87 340.52,-332.23 331.23,-334.82"/>
<polygon fill="midnightblue" stroke="midnightblue" points="469.66,-226.12 472.82,-216 464.05,-221.94 469.66,-226.12"/>
</g>
<!-- Node5 -->
<g id="node5" class="node">
<title>Node5</title>
<g id="a_node5"><a xlink:href="classAvpTriggerMonitorHandler.html#aa2520c7b0dfa2fb7762e3e69025a4599" target="_top" xlink:title="initialize LFO to check for pods status.">
<polygon fill="white" stroke="black" points="190.5,-284.5 190.5,-314.5 334.5,-314.5 334.5,-284.5 190.5,-284.5"/>
<text text-anchor="start" x="198.5" y="-302.5" font-family="Helvetica,sans-Serif" font-size="10.00">AvpTriggerMonitorHandler</text>
<text text-anchor="middle" x="262.5" y="-291.5" font-family="Helvetica,sans-Serif" font-size="10.00">::Init</text>
</a>
</g>
</g>
<!-- Node1&#45;&gt;Node5 -->
<g id="edge4" class="edge">
<title>Node1&#45;&gt;Node5</title>
<path fill="none" stroke="midnightblue" d="M456.94,-221.77C433.21,-237.23 394.36,-260.87 358,-275.5 349.68,-278.85 340.75,-281.84 331.83,-284.48"/>
<polygon fill="midnightblue" stroke="midnightblue" points="459.12,-224.52 465.54,-216.09 455.27,-218.68 459.12,-224.52"/>
</g>
<!-- Node6 -->
<g id="node6" class="node">
<title>Node6</title>
<g id="a_node6"><a xlink:href="classResourceMonitorHandler.html#ae43ecd76d870fc12d19522507febac9d" target="_top" xlink:title="initialize LFO to check for pods status.">
<polygon fill="white" stroke="black" points="194,-235.5 194,-265.5 331,-265.5 331,-235.5 194,-235.5"/>
<text text-anchor="start" x="202" y="-253.5" font-family="Helvetica,sans-Serif" font-size="10.00">ResourceMonitorHandler</text>
<text text-anchor="middle" x="262.5" y="-242.5" font-family="Helvetica,sans-Serif" font-size="10.00">::Init</text>
</a>
</g>
</g>
<!-- Node1&#45;&gt;Node6 -->
<g id="edge5" class="edge">
<title>Node1&#45;&gt;Node6</title>
<path fill="none" stroke="midnightblue" d="M422.59,-218.09C394.55,-223.8 360.55,-230.73 331.18,-236.71"/>
<polygon fill="midnightblue" stroke="midnightblue" points="423.53,-221.47 432.63,-216.05 422.13,-214.61 423.53,-221.47"/>
</g>
<!-- Node7 -->
<g id="node7" class="node">
<title>Node7</title>
<g id="a_node7"><a xlink:href="classUserAppControlHandler.html#a405532812369082c6893c30bdae67c62" target="_top" xlink:title="Initialize User App Control Handler.">
<polygon fill="white" stroke="black" points="0,-96.5 0,-126.5 131,-126.5 131,-96.5 0,-96.5"/>
<text text-anchor="start" x="8" y="-114.5" font-family="Helvetica,sans-Serif" font-size="10.00">UserAppControlHandler</text>
<text text-anchor="middle" x="65.5" y="-103.5" font-family="Helvetica,sans-Serif" font-size="10.00">::Init</text>
</a>
</g>
</g>
<!-- Node1&#45;&gt;Node7 -->
<g id="edge6" class="edge">
<title>Node1&#45;&gt;Node7</title>
<path fill="none" stroke="midnightblue" d="M383.88,-214.78C320.46,-216.9 236.44,-213.17 167,-187.5 131.91,-174.53 98.86,-144.98 80.78,-126.78"/>
<polygon fill="midnightblue" stroke="midnightblue" points="384.02,-218.27 393.88,-214.39 383.75,-211.28 384.02,-218.27"/>
</g>
<!-- Node8 -->
<g id="node8" class="node">
<title>Node8</title>
<g id="a_node8"><a xlink:href="classUserAppControlHandler.html#aa7090082a9d4cf39d3a6b8a1e1334a3a" target="_top" xlink:title="Unpause ASIL App selected by User from Vehicle State UI.">
<polygon fill="white" stroke="black" points="197,-147.5 197,-177.5 328,-177.5 328,-147.5 197,-147.5"/>
<text text-anchor="start" x="205" y="-165.5" font-family="Helvetica,sans-Serif" font-size="10.00">UserAppControlHandler</text>
<text text-anchor="middle" x="262.5" y="-154.5" font-family="Helvetica,sans-Serif" font-size="10.00">::PlayAsilApp</text>
</a>
</g>
</g>
<!-- Node1&#45;&gt;Node8 -->
<g id="edge7" class="edge">
<title>Node1&#45;&gt;Node8</title>
<path fill="none" stroke="midnightblue" d="M422.67,-194.92C393.7,-189.02 358.33,-181.82 328.3,-175.7"/>
<polygon fill="midnightblue" stroke="midnightblue" points="422.13,-198.39 432.63,-196.95 423.53,-191.53 422.13,-198.39"/>
</g>
<!-- Node9 -->
<g id="node9" class="node">
<title>Node9</title>
<g id="a_node9"><a xlink:href="classRespawnPodObserver.html#a3b8bc53a9b9087d4c1a18111a33eb61d" target="_top" xlink:title=" ">
<polygon fill="white" stroke="black" points="201,-98.5 201,-128.5 324,-128.5 324,-98.5 201,-98.5"/>
<text text-anchor="start" x="209" y="-116.5" font-family="Helvetica,sans-Serif" font-size="10.00">RespawnPodObserver</text>
<text text-anchor="middle" x="262.5" y="-105.5" font-family="Helvetica,sans-Serif" font-size="10.00">::RespawnAllPods</text>
</a>
</g>
</g>
<!-- Node1&#45;&gt;Node9 -->
<g id="edge8" class="edge">
<title>Node1&#45;&gt;Node9</title>
<path fill="none" stroke="midnightblue" d="M456.48,-191.29C432.67,-176.13 394,-153.07 358,-138.5 347.3,-134.17 335.62,-130.38 324.23,-127.14"/>
<polygon fill="midnightblue" stroke="midnightblue" points="454.83,-194.4 465.14,-196.88 458.63,-188.51 454.83,-194.4"/>
</g>
<!-- Node10 -->
<g id="node10" class="node">
<title>Node10</title>
<g id="a_node10"><a xlink:href="classServerHandler.html#af3ecda4d745ef95296198e41ac3cf6e1" target="_top" xlink:title="start LFO server">
<polygon fill="white" stroke="black" points="167,-49.5 167,-79.5 358,-79.5 358,-49.5 167,-49.5"/>
<text text-anchor="start" x="175" y="-67.5" font-family="Helvetica,sans-Serif" font-size="10.00">ServerHandler::StartMcOrchestrator</text>
<text text-anchor="middle" x="262.5" y="-56.5" font-family="Helvetica,sans-Serif" font-size="10.00">Server</text>
</a>
</g>
</g>
<!-- Node1&#45;&gt;Node10 -->
<g id="edge9" class="edge">
<title>Node1&#45;&gt;Node10</title>
<path fill="none" stroke="midnightblue" d="M466.12,-188.82C445.66,-163.06 404.11,-115.45 358,-89.5 351.2,-85.67 343.79,-82.41 336.21,-79.64"/>
<polygon fill="midnightblue" stroke="midnightblue" points="463.54,-191.21 472.44,-196.95 469.06,-186.91 463.54,-191.21"/>
</g>
<!-- Node11 -->
<g id="node11" class="node">
<title>Node11</title>
<g id="a_node11"><a xlink:href="mco__utils_8cpp.html#abcd741ece666318a44dddecfe1d5db1f" target="_top" xlink:title=" ">
<polygon fill="white" stroke="black" points="201.5,-0.5 201.5,-30.5 323.5,-30.5 323.5,-0.5 201.5,-0.5"/>
<text text-anchor="start" x="209.5" y="-18.5" font-family="Helvetica,sans-Serif" font-size="10.00">update_qm_available</text>
<text text-anchor="middle" x="262.5" y="-7.5" font-family="Helvetica,sans-Serif" font-size="10.00">_resource</text>
</a>
</g>
</g>
<!-- Node1&#45;&gt;Node11 -->
<g id="edge10" class="edge">
<title>Node1&#45;&gt;Node11</title>
<path fill="none" stroke="midnightblue" d="M471.21,-187.67C454.86,-152.77 415.01,-78.11 358,-39.5 347.77,-32.57 335.69,-27.64 323.65,-24.14"/>
<polygon fill="midnightblue" stroke="midnightblue" points="468.03,-189.12 475.36,-196.77 474.4,-186.22 468.03,-189.12"/>
</g>
<!-- Node4 -->
<g id="node4" class="node">
<title>Node4</title>
<g id="a_node4"><a xlink:href="main_8cpp.html#a0ddf1224851353fc92bfbff6f499fa97" target="_top" xlink:title=" ">
<polygon fill="white" stroke="black" points="45,-334 45,-353 86,-353 86,-334 45,-334"/>
<text text-anchor="middle" x="65.5" y="-341" font-family="Helvetica,sans-Serif" font-size="10.00">main</text>
</a>
</g>
</g>
<!-- Node3&#45;&gt;Node4 -->
<g id="edge3" class="edge">
<title>Node3&#45;&gt;Node4</title>
<path fill="none" stroke="midnightblue" d="M183.5,-343.5C148.17,-343.5 109.27,-343.5 86.41,-343.5"/>
<polygon fill="midnightblue" stroke="midnightblue" points="183.85,-347 193.85,-343.5 183.85,-340 183.85,-347"/>
</g>
<!-- Node11&#45;&gt;Node7 -->
<g id="edge11" class="edge">
<title>Node11&#45;&gt;Node7</title>
<path fill="none" stroke="midnightblue" d="M191.75,-30.04C183.24,-32.74 174.81,-35.87 167,-39.5 134.89,-54.43 102.42,-80.02 83.4,-96.33"/>
<polygon fill="midnightblue" stroke="midnightblue" points="192.76,-33.39 201.35,-27.19 190.77,-26.68 192.76,-33.39"/>
</g>
</g>
</svg>
        <g id="navigator" transform="translate(0 0)" fill="#404254">
                <rect fill="#f2f5e9" fill-opacity="0.5" stroke="#606060" stroke-width=".5" x="0" y="0" width="60" height="60"/>
                <use id="zoomplus" xlink:href="#zoomPlus" x="17" y="9" onmousedown="handleZoom(evt,'in')"/>
                <use id="zoomminus" xlink:href="#zoomMin" x="42" y="9" onmousedown="handleZoom(evt,'out')"/>
                <use id="reset" xlink:href="#resetDef" x="30" y="36" onmousedown="handleReset()"/>
                <g id="arrowUp" xlink:href="#dirArrow" transform="translate(30 24)" onmousedown="handlePan(0,-1)">
                  <use xlink:href="#rim" fill="#404040">
                        <set attributeName="fill" to="#808080" begin="arrowUp.mouseover" end="arrowUp.mouseout"/>
                  </use>
                  <path fill="none" stroke="white" stroke-width="1.5" d="M0,-3.0v7 M-2.5,-0.5L0,-3.0L2.5,-0.5"/>
                </g>
                <g id="arrowRight" xlink:href="#dirArrow" transform="rotate(90) translate(36 -43)" onmousedown="handlePan(1,0)">
                  <use xlink:href="#rim" fill="#404040">
                        <set attributeName="fill" to="#808080" begin="arrowRight.mouseover" end="arrowRight.mouseout"/>
                  </use>
                  <path fill="none" stroke="white" stroke-width="1.5" d="M0,-3.0v7 M-2.5,-0.5L0,-3.0L2.5,-0.5"/>
                </g>
                <g id="arrowDown" xlink:href="#dirArrow" transform="rotate(180) translate(-30 -48)" onmousedown="handlePan(0,1)">
                  <use xlink:href="#rim" fill="#404040">
                        <set attributeName="fill" to="#808080" begin="arrowDown.mouseover" end="arrowDown.mouseout"/>
                  </use>
                  <path fill="none" stroke="white" stroke-width="1.5" d="M0,-3.0v7 M-2.5,-0.5L0,-3.0L2.5,-0.5"/>
                </g>
                <g id="arrowLeft" xlink:href="#dirArrow" transform="rotate(270) translate(-36 17)" onmousedown="handlePan(-1,0)">
                  <use xlink:href="#rim" fill="#404040">
                        <set attributeName="fill" to="#808080" begin="arrowLeft.mouseover" end="arrowLeft.mouseout"/>
                  </use>
                  <path fill="none" stroke="white" stroke-width="1.5" d="M0,-3.0v7 M-2.5,-0.5L0,-3.0L2.5,-0.5"/>
                </g>
        </g>
        <svg viewBox="0 0 15 15" width="100%" height="30px" preserveAspectRatio="xMaxYMin meet">
         <g id="arrow_out" transform="scale(0.3 0.3)">
          <a xlink:href="classDatabaseHandler_a1e661c0ca860768a64f513a6bf393f05_icgraph_org.svg" target="_base">
           <rect id="button" ry="5" rx="5" y="6" x="6" height="38" width="38"
                fill="#f2f5e9" fill-opacity="0.5" stroke="#606060" stroke-width="1.0"/>
           <path id="arrow"
             d="M 11.500037,31.436501 C 11.940474,20.09759 22.043105,11.32322 32.158766,21.979434 L 37.068811,17.246167 C 37.068811,17.246167 37.088388,32 37.088388,32 L 22.160133,31.978069 C 22.160133,31.978069 26.997745,27.140456 26.997745,27.140456 C 18.528582,18.264221 13.291696,25.230495 11.500037,31.436501 z"
             style="fill:#404040;"/>
          </a>
         </g>
        </svg>
</svg>
