<?xml version="1.0" encoding="UTF-8" standalone="no"?>
<!DOCTYPE svg PUBLIC "-//W3C//DTD SVG 1.1//EN"
 "http://www.w3.org/Graphics/SVG/1.1/DTD/svg11.dtd">
<!-- Generated by graphviz version 2.43.0 (0)
 -->
<!-- Title: nlohmann::basic_json::diff Pages: 1 -->
<!--zoomable 411 -->
<svg id="main" version="1.1" xmlns="http://www.w3.org/2000/svg" xmlns:xlink="http://www.w3.org/1999/xlink" xml:space="preserve" onload="init(evt)">
<style type="text/css"><![CDATA[
.edge:hover path { stroke: red; }
.edge:hover polygon { stroke: red; fill: red; }
]]></style>
<script type="text/javascript"><![CDATA[
var edges = document.getElementsByTagName('g');
if (edges && edges.length) {
  for (var i=0;i<edges.length;i++) {
    if (edges[i].id.substr(0,4)=='edge') {
      edges[i].setAttribute('class','edge');
    }
  }
}
]]></script>
        <defs>
                <circle id="rim" cx="0" cy="0" r="7"/>
                <circle id="rim2" cx="0" cy="0" r="3.5"/>
                <g id="zoomPlus">
                        <use xlink:href="#rim" fill="#404040">
                                <set attributeName="fill" to="#808080" begin="zoomplus.mouseover" end="zoomplus.mouseout"/>
                        </use>
                        <path d="M-4,0h8M0,-4v8" fill="none" stroke="white" stroke-width="1.5" pointer-events="none"/>
                </g>
                <g id="zoomMin">
                        <use xlink:href="#rim" fill="#404040">
                                <set attributeName="fill" to="#808080" begin="zoomminus.mouseover" end="zoomminus.mouseout"/>
                        </use>
                        <path d="M-4,0h8" fill="none" stroke="white" stroke-width="1.5" pointer-events="none"/>
                </g>
                <g id="dirArrow">
                        <path fill="none" stroke="white" stroke-width="1.5" d="M0,-3.0v7 M-2.5,-0.5L0,-3.0L2.5,-0.5"/>
                </g>
               <g id="resetDef">
                       <use xlink:href="#rim2" fill="#404040">
                               <set attributeName="fill" to="#808080" begin="reset.mouseover" end="reset.mouseout"/>
                       </use>
               </g>
        </defs>

<script type="text/javascript">
var viewWidth = 562;
var viewHeight = 411;
var sectionId = 'dynsection-64';
</script>
<script xlink:href="svgpan.js"/>
<svg id="graph" class="graph">
<g id="viewport">
<title>nlohmann::basic_json::diff</title>
<polygon fill="white" stroke="transparent" points="-4,4 -4,-407 558,-407 558,4 -4,4"/>
<!-- Node1 -->
<g id="node1" class="node">
<title>Node1</title>
<g id="a_node1"><a xlink:title="creates a diff as a JSON patch">
<polygon fill="#bfbfbf" stroke="black" points="0,-186.5 0,-216.5 122,-216.5 122,-186.5 0,-186.5"/>
<text text-anchor="start" x="8" y="-204.5" font-family="Helvetica,sans-Serif" font-size="10.00">nlohmann::basic_json</text>
<text text-anchor="middle" x="61" y="-193.5" font-family="Helvetica,sans-Serif" font-size="10.00">::diff</text>
</a>
</g>
</g>
<!-- Node2 -->
<g id="node2" class="node">
<title>Node2</title>
<g id="a_node2"><a xlink:href="classnlohmann_1_1basic__json.html#ad865d6c291b237ae508d5cb2146b5877" target="_top" xlink:title="returns a const iterator to the first element">
<polygon fill="white" stroke="black" points="162.5,-372.5 162.5,-402.5 284.5,-402.5 284.5,-372.5 162.5,-372.5"/>
<text text-anchor="start" x="170.5" y="-390.5" font-family="Helvetica,sans-Serif" font-size="10.00">nlohmann::basic_json</text>
<text text-anchor="middle" x="223.5" y="-379.5" font-family="Helvetica,sans-Serif" font-size="10.00">::cbegin</text>
</a>
</g>
</g>
<!-- Node1&#45;&gt;Node2 -->
<g id="edge1" class="edge">
<title>Node1&#45;&gt;Node2</title>
<path fill="none" stroke="midnightblue" d="M67.07,-216.77C78.37,-248.53 108.58,-322.21 158,-363.5 159.55,-364.79 161.17,-366.02 162.85,-367.18"/>
<polygon fill="midnightblue" stroke="midnightblue" points="161.31,-370.34 171.69,-372.49 164.92,-364.34 161.31,-370.34"/>
</g>
<!-- Node3 -->
<g id="node3" class="node">
<title>Node3</title>
<g id="a_node3"><a xlink:href="classnlohmann_1_1basic__json.html#a8dba7b7d2f38e6b0c614030aa43983f6" target="_top" xlink:title="returns a const iterator to one past the last element">
<polygon fill="white" stroke="black" points="162.5,-323.5 162.5,-353.5 284.5,-353.5 284.5,-323.5 162.5,-323.5"/>
<text text-anchor="start" x="170.5" y="-341.5" font-family="Helvetica,sans-Serif" font-size="10.00">nlohmann::basic_json</text>
<text text-anchor="middle" x="223.5" y="-330.5" font-family="Helvetica,sans-Serif" font-size="10.00">::cend</text>
</a>
</g>
</g>
<!-- Node1&#45;&gt;Node3 -->
<g id="edge2" class="edge">
<title>Node1&#45;&gt;Node3</title>
<path fill="none" stroke="midnightblue" d="M71.31,-216.84C86.59,-240.83 119.22,-287.31 158,-314.5 160.1,-315.97 162.3,-317.36 164.56,-318.68"/>
<polygon fill="midnightblue" stroke="midnightblue" points="163.1,-321.87 173.59,-323.39 166.34,-315.66 163.1,-321.87"/>
</g>
<!-- Node4 -->
<g id="node4" class="node">
<title>Node4</title>
<g id="a_node4"><a xlink:href="classnlohmann_1_1basic__json.html#a13e032a02a7fd8a93fdddc2fcbc4763c" target="_top" xlink:title="returns an iterator to one past the last element">
<polygon fill="white" stroke="black" points="325,-236 325,-255 471,-255 471,-236 325,-236"/>
<text text-anchor="middle" x="398" y="-243" font-family="Helvetica,sans-Serif" font-size="10.00">nlohmann::basic_json::end</text>
</a>
</g>
</g>
<!-- Node1&#45;&gt;Node4 -->
<g id="edge3" class="edge">
<title>Node1&#45;&gt;Node4</title>
<path fill="none" stroke="midnightblue" d="M115.75,-216.56C129.44,-219.95 144.19,-223.21 158,-225.5 209.86,-234.09 268.69,-239.08 315,-241.92"/>
<polygon fill="midnightblue" stroke="midnightblue" points="314.8,-245.41 324.99,-242.51 315.21,-238.42 314.8,-245.41"/>
</g>
<!-- Node5 -->
<g id="node5" class="node">
<title>Node5</title>
<g id="a_node5"><a xlink:href="classnlohmann_1_1json__pointer.html#a8abf3577f9a0087f29a233893cdc73ad" target="_top" xlink:title="escape &quot;~&quot; to &quot;~0&quot; and &quot;/&quot; to &quot;~1&quot;">
<polygon fill="white" stroke="black" points="158,-274.5 158,-304.5 289,-304.5 289,-274.5 158,-274.5"/>
<text text-anchor="start" x="166" y="-292.5" font-family="Helvetica,sans-Serif" font-size="10.00">nlohmann::json_pointer</text>
<text text-anchor="middle" x="223.5" y="-281.5" font-family="Helvetica,sans-Serif" font-size="10.00">::escape</text>
</a>
</g>
</g>
<!-- Node1&#45;&gt;Node5 -->
<g id="edge4" class="edge">
<title>Node1&#45;&gt;Node5</title>
<path fill="none" stroke="midnightblue" d="M85.26,-216.52C104.45,-228.68 132.56,-245.95 158,-259.5 164.67,-263.05 171.84,-266.62 178.88,-269.99"/>
<polygon fill="midnightblue" stroke="midnightblue" points="177.81,-273.36 188.35,-274.45 180.8,-267.03 177.81,-273.36"/>
</g>
<!-- Node8 -->
<g id="node8" class="node">
<title>Node8</title>
<g id="a_node8"><a xlink:href="classnlohmann_1_1basic__json.html#a89eb3928f57903677051c80534be9cb1" target="_top" xlink:title="find an element in a JSON object">
<polygon fill="white" stroke="black" points="162.5,-186.5 162.5,-216.5 284.5,-216.5 284.5,-186.5 162.5,-186.5"/>
<text text-anchor="start" x="170.5" y="-204.5" font-family="Helvetica,sans-Serif" font-size="10.00">nlohmann::basic_json</text>
<text text-anchor="middle" x="223.5" y="-193.5" font-family="Helvetica,sans-Serif" font-size="10.00">::find</text>
</a>
</g>
</g>
<!-- Node1&#45;&gt;Node8 -->
<g id="edge7" class="edge">
<title>Node1&#45;&gt;Node8</title>
<path fill="none" stroke="midnightblue" d="M122.22,-201.5C131.99,-201.5 142.19,-201.5 152.17,-201.5"/>
<polygon fill="midnightblue" stroke="midnightblue" points="152.48,-205 162.48,-201.5 152.48,-198 152.48,-205"/>
</g>
<!-- Node10 -->
<g id="node10" class="node">
<title>Node10</title>
<g id="a_node10"><a xlink:href="classnlohmann_1_1basic__json.html#a31f84ee15c4690ff705bed74736d04c6" target="_top" xlink:title="explicitly create an object from an initializer list">
<polygon fill="white" stroke="black" points="162.5,-137.5 162.5,-167.5 284.5,-167.5 284.5,-137.5 162.5,-137.5"/>
<text text-anchor="start" x="170.5" y="-155.5" font-family="Helvetica,sans-Serif" font-size="10.00">nlohmann::basic_json</text>
<text text-anchor="middle" x="223.5" y="-144.5" font-family="Helvetica,sans-Serif" font-size="10.00">::object</text>
</a>
</g>
</g>
<!-- Node1&#45;&gt;Node10 -->
<g id="edge10" class="edge">
<title>Node1&#45;&gt;Node10</title>
<path fill="none" stroke="midnightblue" d="M111.46,-186.4C127.86,-181.39 146.29,-175.77 163.34,-170.56"/>
<polygon fill="midnightblue" stroke="midnightblue" points="164.66,-173.82 173.2,-167.55 162.61,-167.12 164.66,-173.82"/>
</g>
<!-- Node11 -->
<g id="node11" class="node">
<title>Node11</title>
<g id="a_node11"><a xlink:href="classnlohmann_1_1basic__json.html#a25e27ad0c6d53c01871c5485e1f75b96" target="_top" xlink:title="returns the number of elements">
<polygon fill="white" stroke="black" points="162.5,-88.5 162.5,-118.5 284.5,-118.5 284.5,-88.5 162.5,-88.5"/>
<text text-anchor="start" x="170.5" y="-106.5" font-family="Helvetica,sans-Serif" font-size="10.00">nlohmann::basic_json</text>
<text text-anchor="middle" x="223.5" y="-95.5" font-family="Helvetica,sans-Serif" font-size="10.00">::size</text>
</a>
</g>
</g>
<!-- Node1&#45;&gt;Node11 -->
<g id="edge11" class="edge">
<title>Node1&#45;&gt;Node11</title>
<path fill="none" stroke="midnightblue" d="M78.26,-186.48C96.53,-170.22 127.64,-144.34 158,-127.5 161.02,-125.83 164.17,-124.23 167.4,-122.7"/>
<polygon fill="midnightblue" stroke="midnightblue" points="168.9,-125.87 176.62,-118.61 166.06,-119.47 168.9,-125.87"/>
</g>
<!-- Node12 -->
<g id="node12" class="node">
<title>Node12</title>
<g id="a_node12"><a xlink:href="namespacenlohmann.html#ad675d1c22f5240b2b3065c241b204477" target="_top" xlink:title="user&#45;defined to_string function for JSON values">
<polygon fill="white" stroke="black" points="166.5,-50 166.5,-69 280.5,-69 280.5,-50 166.5,-50"/>
<text text-anchor="middle" x="223.5" y="-57" font-family="Helvetica,sans-Serif" font-size="10.00">nlohmann::to_string</text>
</a>
</g>
</g>
<!-- Node1&#45;&gt;Node12 -->
<g id="edge12" class="edge">
<title>Node1&#45;&gt;Node12</title>
<path fill="none" stroke="midnightblue" d="M69.81,-186.14C83.86,-160.05 115.89,-107.14 158,-78.5 160.94,-76.5 164.09,-74.71 167.36,-73.11"/>
<polygon fill="midnightblue" stroke="midnightblue" points="169,-76.21 176.82,-69.06 166.25,-69.77 169,-76.21"/>
</g>
<!-- Node13 -->
<g id="node13" class="node">
<title>Node13</title>
<g id="a_node13"><a xlink:href="classnlohmann_1_1basic__json.html#a2b2d781d7f2a4ee41bc0016e931cadf7" target="_top" xlink:title="return the type of the JSON value (explicit)">
<polygon fill="white" stroke="black" points="162.5,-0.5 162.5,-30.5 284.5,-30.5 284.5,-0.5 162.5,-0.5"/>
<text text-anchor="start" x="170.5" y="-18.5" font-family="Helvetica,sans-Serif" font-size="10.00">nlohmann::basic_json</text>
<text text-anchor="middle" x="223.5" y="-7.5" font-family="Helvetica,sans-Serif" font-size="10.00">::type</text>
</a>
</g>
</g>
<!-- Node1&#45;&gt;Node13 -->
<g id="edge13" class="edge">
<title>Node1&#45;&gt;Node13</title>
<path fill="none" stroke="midnightblue" d="M67.14,-186.38C78.58,-154.91 109.03,-81.87 158,-40.5 159.97,-38.84 162.06,-37.28 164.23,-35.82"/>
<polygon fill="midnightblue" stroke="midnightblue" points="166.16,-38.75 173,-30.65 162.61,-32.71 166.16,-38.75"/>
</g>
<!-- Node6 -->
<g id="node6" class="node">
<title>Node6</title>
<g id="a_node6"><a xlink:href="classnlohmann_1_1json__pointer.html#aa7649d30da9fc10b0e20704a27aea2a9" target="_top" xlink:title="replace all occurrences of a substring by another string">
<polygon fill="white" stroke="black" points="332.5,-274.5 332.5,-304.5 463.5,-304.5 463.5,-274.5 332.5,-274.5"/>
<text text-anchor="start" x="340.5" y="-292.5" font-family="Helvetica,sans-Serif" font-size="10.00">nlohmann::json_pointer</text>
<text text-anchor="middle" x="398" y="-281.5" font-family="Helvetica,sans-Serif" font-size="10.00">::replace_substring</text>
</a>
</g>
</g>
<!-- Node5&#45;&gt;Node6 -->
<g id="edge5" class="edge">
<title>Node5&#45;&gt;Node6</title>
<path fill="none" stroke="midnightblue" d="M289.22,-289.5C300.06,-289.5 311.37,-289.5 322.43,-289.5"/>
<polygon fill="midnightblue" stroke="midnightblue" points="322.49,-293 332.49,-289.5 322.49,-286 322.49,-293"/>
</g>
<!-- Node7 -->
<g id="node7" class="node">
<title>Node7</title>
<g id="a_node7"><a xlink:href="FuzzerTracePC_8cpp.html#a1f10ac78bd11294b612636121065eb5b" target="_top" xlink:title=" ">
<polygon fill="white" stroke="black" points="507,-280 507,-299 554,-299 554,-280 507,-280"/>
<text text-anchor="middle" x="530.5" y="-287" font-family="Helvetica,sans-Serif" font-size="10.00">assert</text>
</a>
</g>
</g>
<!-- Node6&#45;&gt;Node7 -->
<g id="edge6" class="edge">
<title>Node6&#45;&gt;Node7</title>
<path fill="none" stroke="midnightblue" d="M463.87,-289.5C475.24,-289.5 486.62,-289.5 496.64,-289.5"/>
<polygon fill="midnightblue" stroke="midnightblue" points="496.91,-293 506.91,-289.5 496.91,-286 496.91,-293"/>
</g>
<!-- Node8&#45;&gt;Node4 -->
<g id="edge8" class="edge">
<title>Node8&#45;&gt;Node4</title>
<path fill="none" stroke="midnightblue" d="M283.38,-216.52C305.11,-222.06 329.41,-228.26 349.95,-233.5"/>
<polygon fill="midnightblue" stroke="midnightblue" points="349.15,-236.91 359.71,-235.99 350.88,-230.12 349.15,-236.91"/>
</g>
<!-- Node9 -->
<g id="node9" class="node">
<title>Node9</title>
<g id="a_node9"><a xlink:href="classnlohmann_1_1basic__json.html#af8f511af124e82e4579f444b4175787c" target="_top" xlink:title="return whether value is an object">
<polygon fill="white" stroke="black" points="337,-186.5 337,-216.5 459,-216.5 459,-186.5 337,-186.5"/>
<text text-anchor="start" x="345" y="-204.5" font-family="Helvetica,sans-Serif" font-size="10.00">nlohmann::basic_json</text>
<text text-anchor="middle" x="398" y="-193.5" font-family="Helvetica,sans-Serif" font-size="10.00">::is_object</text>
</a>
</g>
</g>
<!-- Node8&#45;&gt;Node9 -->
<g id="edge9" class="edge">
<title>Node8&#45;&gt;Node9</title>
<path fill="none" stroke="midnightblue" d="M284.83,-201.5C298.44,-201.5 312.99,-201.5 326.95,-201.5"/>
<polygon fill="midnightblue" stroke="midnightblue" points="326.99,-205 336.99,-201.5 326.99,-198 326.99,-205"/>
</g>
</g>
</svg>
        <g id="navigator" transform="translate(0 0)" fill="#404254">
                <rect fill="#f2f5e9" fill-opacity="0.5" stroke="#606060" stroke-width=".5" x="0" y="0" width="60" height="60"/>
                <use id="zoomplus" xlink:href="#zoomPlus" x="17" y="9" onmousedown="handleZoom(evt,'in')"/>
                <use id="zoomminus" xlink:href="#zoomMin" x="42" y="9" onmousedown="handleZoom(evt,'out')"/>
                <use id="reset" xlink:href="#resetDef" x="30" y="36" onmousedown="handleReset()"/>
                <g id="arrowUp" xlink:href="#dirArrow" transform="translate(30 24)" onmousedown="handlePan(0,-1)">
                  <use xlink:href="#rim" fill="#404040">
                        <set attributeName="fill" to="#808080" begin="arrowUp.mouseover" end="arrowUp.mouseout"/>
                  </use>
                  <path fill="none" stroke="white" stroke-width="1.5" d="M0,-3.0v7 M-2.5,-0.5L0,-3.0L2.5,-0.5"/>
                </g>
                <g id="arrowRight" xlink:href="#dirArrow" transform="rotate(90) translate(36 -43)" onmousedown="handlePan(1,0)">
                  <use xlink:href="#rim" fill="#404040">
                        <set attributeName="fill" to="#808080" begin="arrowRight.mouseover" end="arrowRight.mouseout"/>
                  </use>
                  <path fill="none" stroke="white" stroke-width="1.5" d="M0,-3.0v7 M-2.5,-0.5L0,-3.0L2.5,-0.5"/>
                </g>
                <g id="arrowDown" xlink:href="#dirArrow" transform="rotate(180) translate(-30 -48)" onmousedown="handlePan(0,1)">
                  <use xlink:href="#rim" fill="#404040">
                        <set attributeName="fill" to="#808080" begin="arrowDown.mouseover" end="arrowDown.mouseout"/>
                  </use>
                  <path fill="none" stroke="white" stroke-width="1.5" d="M0,-3.0v7 M-2.5,-0.5L0,-3.0L2.5,-0.5"/>
                </g>
                <g id="arrowLeft" xlink:href="#dirArrow" transform="rotate(270) translate(-36 17)" onmousedown="handlePan(-1,0)">
                  <use xlink:href="#rim" fill="#404040">
                        <set attributeName="fill" to="#808080" begin="arrowLeft.mouseover" end="arrowLeft.mouseout"/>
                  </use>
                  <path fill="none" stroke="white" stroke-width="1.5" d="M0,-3.0v7 M-2.5,-0.5L0,-3.0L2.5,-0.5"/>
                </g>
        </g>
        <svg viewBox="0 0 15 15" width="100%" height="30px" preserveAspectRatio="xMaxYMin meet">
         <g id="arrow_out" transform="scale(0.3 0.3)">
          <a xlink:href="classnlohmann_1_1basic__json_a9c4f3554773649beef69461a10a3de87_cgraph_org.svg" target="_base">
           <rect id="button" ry="5" rx="5" y="6" x="6" height="38" width="38"
                fill="#f2f5e9" fill-opacity="0.5" stroke="#606060" stroke-width="1.0"/>
           <path id="arrow"
             d="M 11.500037,31.436501 C 11.940474,20.09759 22.043105,11.32322 32.158766,21.979434 L 37.068811,17.246167 C 37.068811,17.246167 37.088388,32 37.088388,32 L 22.160133,31.978069 C 22.160133,31.978069 26.997745,27.140456 26.997745,27.140456 C 18.528582,18.264221 13.291696,25.230495 11.500037,31.436501 z"
             style="fill:#404040;"/>
          </a>
         </g>
        </svg>
</svg>
