<?xml version="1.0" encoding="UTF-8" standalone="no"?>
<!DOCTYPE svg PUBLIC "-//W3C//DTD SVG 1.1//EN"
 "http://www.w3.org/Graphics/SVG/1.1/DTD/svg11.dtd">
<!-- Generated by graphviz version 2.43.0 (0)
 -->
<!-- Title: fuzzer::InputCorpus::ResetFeatureSet Pages: 1 -->
<svg width="674pt" height="39pt"
 viewBox="0.00 0.00 674.00 39.00" xmlns="http://www.w3.org/2000/svg" xmlns:xlink="http://www.w3.org/1999/xlink">
<g id="graph0" class="graph" transform="scale(1 1) rotate(0) translate(4 35)">
<title>fuzzer::InputCorpus::ResetFeatureSet</title>
<polygon fill="white" stroke="transparent" points="-4,4 -4,-35 670,-35 670,4 -4,4"/>
<!-- Node1 -->
<g id="node1" class="node">
<title>Node1</title>
<g id="a_node1"><a xlink:title=" ">
<polygon fill="#bfbfbf" stroke="black" points="555,-0.5 555,-30.5 666,-30.5 666,-0.5 555,-0.5"/>
<text text-anchor="start" x="563" y="-18.5" font-family="Helvetica,sans-Serif" font-size="10.00">fuzzer::InputCorpus</text>
<text text-anchor="middle" x="610.5" y="-7.5" font-family="Helvetica,sans-Serif" font-size="10.00">::ResetFeatureSet</text>
</a>
</g>
</g>
<!-- Node2 -->
<g id="node2" class="node">
<title>Node2</title>
<g id="a_node2"><a xlink:href="classfuzzer_1_1Fuzzer.html#a6a4abd6692ba305867fcb7df7bfe79cc" target="_top" xlink:title=" ">
<polygon fill="white" stroke="black" points="384,-0.5 384,-30.5 519,-30.5 519,-0.5 384,-0.5"/>
<text text-anchor="start" x="392" y="-18.5" font-family="Helvetica,sans-Serif" font-size="10.00">fuzzer::Fuzzer::FindExtra</text>
<text text-anchor="middle" x="451.5" y="-7.5" font-family="Helvetica,sans-Serif" font-size="10.00">Units</text>
</a>
</g>
</g>
<!-- Node1&#45;&gt;Node2 -->
<g id="edge1" class="edge">
<title>Node1&#45;&gt;Node2</title>
<path fill="none" stroke="midnightblue" d="M544.54,-15.5C536.19,-15.5 527.64,-15.5 519.26,-15.5"/>
<polygon fill="midnightblue" stroke="midnightblue" points="544.59,-19 554.59,-15.5 544.59,-12 544.59,-19"/>
</g>
<!-- Node3 -->
<g id="node3" class="node">
<title>Node3</title>
<g id="a_node3"><a xlink:href="classfuzzer_1_1Fuzzer.html#aad1ef6d2a186b7b2462363111398e54e" target="_top" xlink:title=" ">
<polygon fill="white" stroke="black" points="227,-6 227,-25 348,-25 348,-6 227,-6"/>
<text text-anchor="middle" x="287.5" y="-13" font-family="Helvetica,sans-Serif" font-size="10.00">fuzzer::Fuzzer::Merge</text>
</a>
</g>
</g>
<!-- Node2&#45;&gt;Node3 -->
<g id="edge2" class="edge">
<title>Node2&#45;&gt;Node3</title>
<path fill="none" stroke="midnightblue" d="M373.67,-15.5C365.11,-15.5 356.48,-15.5 348.17,-15.5"/>
<polygon fill="midnightblue" stroke="midnightblue" points="373.67,-19 383.67,-15.5 373.67,-12 373.67,-19"/>
</g>
<!-- Node4 -->
<g id="node4" class="node">
<title>Node4</title>
<g id="a_node4"><a xlink:href="namespacefuzzer.html#a78f142089de84c6cbf7b5cab5f766af7" target="_top" xlink:title=" ">
<polygon fill="white" stroke="black" points="77,-6 77,-25 191,-25 191,-6 77,-6"/>
<text text-anchor="middle" x="134" y="-13" font-family="Helvetica,sans-Serif" font-size="10.00">fuzzer::FuzzerDriver</text>
</a>
</g>
</g>
<!-- Node3&#45;&gt;Node4 -->
<g id="edge3" class="edge">
<title>Node3&#45;&gt;Node4</title>
<path fill="none" stroke="midnightblue" d="M216.48,-15.5C208.1,-15.5 199.63,-15.5 191.48,-15.5"/>
<polygon fill="midnightblue" stroke="midnightblue" points="216.62,-19 226.62,-15.5 216.62,-12 216.62,-19"/>
</g>
<!-- Node5 -->
<g id="node5" class="node">
<title>Node5</title>
<g id="a_node5"><a xlink:href="FuzzerMain_8cpp.html#a3c04138a5bfe5d72780bb7e82a18e627" target="_top" xlink:title=" ">
<polygon fill="white" stroke="black" points="0,-6 0,-25 41,-25 41,-6 0,-6"/>
<text text-anchor="middle" x="20.5" y="-13" font-family="Helvetica,sans-Serif" font-size="10.00">main</text>
</a>
</g>
</g>
<!-- Node4&#45;&gt;Node5 -->
<g id="edge4" class="edge">
<title>Node4&#45;&gt;Node5</title>
<path fill="none" stroke="midnightblue" d="M66.7,-15.5C57.37,-15.5 48.45,-15.5 41.04,-15.5"/>
<polygon fill="midnightblue" stroke="midnightblue" points="66.92,-19 76.92,-15.5 66.92,-12 66.92,-19"/>
</g>
</g>
</svg>
