<?xml version="1.0" encoding="UTF-8" standalone="no"?>
<!DOCTYPE svg PUBLIC "-//W3C//DTD SVG 1.1//EN"
 "http://www.w3.org/Graphics/SVG/1.1/DTD/svg11.dtd">
<!-- Generated by graphviz version 2.43.0 (0)
 -->
<!-- Title: nlohmann::basic_json::to_bson Pages: 1 -->
<svg width="2006pt" height="626pt"
 viewBox="0.00 0.00 2006.00 625.73" xmlns="http://www.w3.org/2000/svg" xmlns:xlink="http://www.w3.org/1999/xlink">
<g id="graph0" class="graph" transform="scale(1 1) rotate(0) translate(4 621.73)">
<title>nlohmann::basic_json::to_bson</title>
<polygon fill="white" stroke="transparent" points="-4,4 -4,-621.73 2002,-621.73 2002,4 -4,4"/>
<!-- Node1 -->
<g id="node1" class="node">
<title>Node1</title>
<g id="a_node1"><a xlink:title="Serializes the given JSON object j to BSON and forwards the corresponding BSON&#45;representation to the ...">
<polygon fill="#bfbfbf" stroke="black" points="0,-517.73 0,-547.73 122,-547.73 122,-517.73 0,-517.73"/>
<text text-anchor="start" x="8" y="-535.73" font-family="Helvetica,sans-Serif" font-size="10.00">nlohmann::basic_json</text>
<text text-anchor="middle" x="61" y="-524.73" font-family="Helvetica,sans-Serif" font-size="10.00">::to_bson</text>
</a>
</g>
</g>
<!-- Node2 -->
<g id="node2" class="node">
<title>Node2</title>
<g id="a_node2"><a xlink:href="classnlohmann_1_1detail_1_1binary__writer.html#a9ffc566db5219b473762462234b47db9" target="_top" xlink:title=" ">
<polygon fill="white" stroke="black" points="158,-517.73 158,-547.73 294,-547.73 294,-517.73 158,-517.73"/>
<text text-anchor="start" x="166" y="-535.73" font-family="Helvetica,sans-Serif" font-size="10.00">nlohmann::detail::binary</text>
<text text-anchor="middle" x="226" y="-524.73" font-family="Helvetica,sans-Serif" font-size="10.00">_writer::write_bson</text>
</a>
</g>
</g>
<!-- Node1&#45;&gt;Node2 -->
<g id="edge1" class="edge">
<title>Node1&#45;&gt;Node2</title>
<path fill="none" stroke="midnightblue" d="M122.23,-532.73C130.58,-532.73 139.24,-532.73 147.84,-532.73"/>
<polygon fill="midnightblue" stroke="midnightblue" points="147.88,-536.23 157.88,-532.73 147.88,-529.23 147.88,-536.23"/>
</g>
<!-- Node3 -->
<g id="node3" class="node">
<title>Node3</title>
<g id="a_node3"><a xlink:href="classnlohmann_1_1detail_1_1type__error.html#aecc083aea4b698c33d042670ba50c10f" target="_top" xlink:title=" ">
<polygon fill="white" stroke="black" points="339,-558.73 339,-588.73 466,-588.73 466,-558.73 339,-558.73"/>
<text text-anchor="start" x="347" y="-576.73" font-family="Helvetica,sans-Serif" font-size="10.00">nlohmann::detail::type</text>
<text text-anchor="middle" x="402.5" y="-565.73" font-family="Helvetica,sans-Serif" font-size="10.00">_error::create</text>
</a>
</g>
</g>
<!-- Node2&#45;&gt;Node3 -->
<g id="edge2" class="edge">
<title>Node2&#45;&gt;Node3</title>
<path fill="none" stroke="midnightblue" d="M290.99,-547.76C303.34,-550.67 316.37,-553.73 328.98,-556.69"/>
<polygon fill="midnightblue" stroke="midnightblue" points="328.44,-560.16 338.98,-559.04 330.04,-553.34 328.44,-560.16"/>
</g>
<!-- Node7 -->
<g id="node7" class="node">
<title>Node7</title>
<g id="a_node7"><a xlink:href="classnlohmann_1_1detail_1_1binary__writer.html#a29b3e0f83a8e5f2307804023109ba2c9" target="_top" xlink:title=" ">
<polygon fill="white" stroke="black" points="330,-476.73 330,-506.73 475,-506.73 475,-476.73 330,-476.73"/>
<text text-anchor="start" x="338" y="-494.73" font-family="Helvetica,sans-Serif" font-size="10.00">nlohmann::detail::binary</text>
<text text-anchor="middle" x="402.5" y="-483.73" font-family="Helvetica,sans-Serif" font-size="10.00">_writer::write_bson_object</text>
</a>
</g>
</g>
<!-- Node2&#45;&gt;Node7 -->
<g id="edge6" class="edge">
<title>Node2&#45;&gt;Node7</title>
<path fill="none" stroke="midnightblue" d="M290.99,-517.7C302.84,-514.91 315.31,-511.98 327.44,-509.13"/>
<polygon fill="midnightblue" stroke="midnightblue" points="328.59,-512.46 337.52,-506.76 326.99,-505.64 328.59,-512.46"/>
</g>
<!-- Node4 -->
<g id="node4" class="node">
<title>Node4</title>
<g id="a_node4"><a xlink:href="classnlohmann_1_1detail_1_1exception.html#abf41a7e9178356314082284e6cfea278" target="_top" xlink:title=" ">
<polygon fill="white" stroke="black" points="1712,-498.73 1712,-528.73 1865,-528.73 1865,-498.73 1712,-498.73"/>
<text text-anchor="start" x="1720" y="-516.73" font-family="Helvetica,sans-Serif" font-size="10.00">nlohmann::detail::exception</text>
<text text-anchor="middle" x="1788.5" y="-505.73" font-family="Helvetica,sans-Serif" font-size="10.00">::name</text>
</a>
</g>
</g>
<!-- Node3&#45;&gt;Node4 -->
<g id="edge3" class="edge">
<title>Node3&#45;&gt;Node4</title>
<path fill="none" stroke="midnightblue" d="M460.36,-588.74C476.61,-592.55 494.42,-596.25 511,-598.73 633.48,-617.04 665.16,-617.73 789,-617.73 789,-617.73 789,-617.73 1004.5,-617.73 1265.04,-617.73 1570.14,-560.44 1710.15,-530.9"/>
<polygon fill="midnightblue" stroke="midnightblue" points="1711.29,-534.24 1720.34,-528.74 1709.84,-527.39 1711.29,-534.24"/>
</g>
<!-- Node6 -->
<g id="node6" class="node">
<title>Node6</title>
<g id="a_node6"><a xlink:href="classnlohmann_1_1detail_1_1type__error.html#aa01edaa0bf18b853368f0b900e485cd7" target="_top" xlink:title=" ">
<polygon fill="white" stroke="black" points="525,-558.73 525,-588.73 652,-588.73 652,-558.73 525,-558.73"/>
<text text-anchor="start" x="533" y="-576.73" font-family="Helvetica,sans-Serif" font-size="10.00">nlohmann::detail::type</text>
<text text-anchor="middle" x="588.5" y="-565.73" font-family="Helvetica,sans-Serif" font-size="10.00">_error::type_error</text>
</a>
</g>
</g>
<!-- Node3&#45;&gt;Node6 -->
<g id="edge5" class="edge">
<title>Node3&#45;&gt;Node6</title>
<path fill="none" stroke="midnightblue" d="M466.05,-573.73C481.61,-573.73 498.41,-573.73 514.43,-573.73"/>
<polygon fill="midnightblue" stroke="midnightblue" points="514.81,-577.23 524.81,-573.73 514.81,-570.23 514.81,-577.23"/>
</g>
<!-- Node5 -->
<g id="node5" class="node">
<title>Node5</title>
<g id="a_node5"><a xlink:href="namespacehttplib.html#a498c3a79825ecbcb15c52ec5fcfd5c11" target="_top" xlink:title=" ">
<polygon fill="white" stroke="black" points="1901,-285.23 1901,-304.23 1998,-304.23 1998,-285.23 1901,-285.23"/>
<text text-anchor="middle" x="1949.5" y="-292.23" font-family="Helvetica,sans-Serif" font-size="10.00">httplib::to_string</text>
</a>
</g>
</g>
<!-- Node4&#45;&gt;Node5 -->
<g id="edge4" class="edge">
<title>Node4&#45;&gt;Node5</title>
<path fill="none" stroke="midnightblue" d="M1852.45,-498.6C1856.98,-496.08 1861.23,-493.15 1865,-489.73 1918.12,-441.52 1938.74,-353.79 1945.57,-314.58"/>
<polygon fill="midnightblue" stroke="midnightblue" points="1949.06,-314.91 1947.21,-304.48 1942.15,-313.79 1949.06,-314.91"/>
</g>
<!-- Node8 -->
<g id="node8" class="node">
<title>Node8</title>
<g id="a_node8"><a xlink:href="classnlohmann_1_1detail_1_1binary__writer.html#acc6f1cc1fd370ee84ebc8cf7b8712840" target="_top" xlink:title="Calculates the size of the BSON serialization of the given JSON&#45;object j.">
<polygon fill="white" stroke="black" points="1347.5,-384.73 1347.5,-414.73 1511.5,-414.73 1511.5,-384.73 1347.5,-384.73"/>
<text text-anchor="start" x="1355.5" y="-402.73" font-family="Helvetica,sans-Serif" font-size="10.00">nlohmann::detail::binary</text>
<text text-anchor="middle" x="1429.5" y="-391.73" font-family="Helvetica,sans-Serif" font-size="10.00">_writer::calc_bson_object_size</text>
</a>
</g>
</g>
<!-- Node7&#45;&gt;Node8 -->
<g id="edge7" class="edge">
<title>Node7&#45;&gt;Node8</title>
<path fill="none" stroke="midnightblue" d="M460.01,-506.79C476.34,-510.47 494.27,-513.88 511,-515.73 579.47,-523.28 597.15,-518.16 666,-515.73 760.4,-512.39 784.29,-512.6 878,-500.73 1047.49,-479.25 1243.85,-439.63 1350.21,-416.92"/>
<polygon fill="midnightblue" stroke="midnightblue" points="1351.18,-420.3 1360.22,-414.78 1349.71,-413.45 1351.18,-420.3"/>
</g>
<!-- Node9 -->
<g id="node9" class="node">
<title>Node9</title>
<g id="a_node9"><a xlink:href="classnlohmann_1_1detail_1_1binary__writer.html#ab77aa48692bd4e64e4f051ce6aeb6d2d" target="_top" xlink:title=" ">
<polygon fill="white" stroke="black" points="1148.5,-264.73 1148.5,-294.73 1284.5,-294.73 1284.5,-264.73 1148.5,-264.73"/>
<text text-anchor="start" x="1156.5" y="-282.73" font-family="Helvetica,sans-Serif" font-size="10.00">nlohmann::detail::binary</text>
<text text-anchor="middle" x="1216.5" y="-271.73" font-family="Helvetica,sans-Serif" font-size="10.00">_writer::to_char_type</text>
</a>
</g>
</g>
<!-- Node7&#45;&gt;Node9 -->
<g id="edge8" class="edge">
<title>Node7&#45;&gt;Node9</title>
<path fill="none" stroke="midnightblue" d="M475.11,-499.26C569.49,-506.85 739.73,-512.45 878,-472.73 1004.55,-436.38 1134.2,-343.37 1188.75,-301.15"/>
<polygon fill="midnightblue" stroke="midnightblue" points="1191.12,-303.74 1196.84,-294.83 1186.81,-298.22 1191.12,-303.74"/>
</g>
<!-- Node10 -->
<g id="node10" class="node">
<title>Node10</title>
<g id="a_node10"><a xlink:href="classnlohmann_1_1detail_1_1binary__writer.html#a7ff58bf1a80018148bed860667ffca07" target="_top" xlink:title="Serializes the JSON value j to BSON and associates it with the key name.">
<polygon fill="white" stroke="black" points="511,-236.73 511,-266.73 666,-266.73 666,-236.73 511,-236.73"/>
<text text-anchor="start" x="519" y="-254.73" font-family="Helvetica,sans-Serif" font-size="10.00">nlohmann::detail::binary</text>
<text text-anchor="middle" x="588.5" y="-243.73" font-family="Helvetica,sans-Serif" font-size="10.00">_writer::write_bson_element</text>
</a>
</g>
</g>
<!-- Node7&#45;&gt;Node10 -->
<g id="edge9" class="edge">
<title>Node7&#45;&gt;Node10</title>
<path fill="none" stroke="midnightblue" d="M415.01,-476.72C446.18,-436.06 532.4,-323.59 569.81,-274.81"/>
<polygon fill="midnightblue" stroke="midnightblue" points="572.69,-276.8 575.99,-266.74 567.13,-272.54 572.69,-276.8"/>
</g>
<!-- Node11 -->
<g id="node11" class="node">
<title>Node11</title>
<g id="a_node11"><a xlink:href="FuzzerTracePC_8cpp.html#a1f10ac78bd11294b612636121065eb5b" target="_top" xlink:title=" ">
<polygon fill="white" stroke="black" points="1406,-39.23 1406,-58.23 1453,-58.23 1453,-39.23 1406,-39.23"/>
<text text-anchor="middle" x="1429.5" y="-46.23" font-family="Helvetica,sans-Serif" font-size="10.00">assert</text>
</a>
</g>
</g>
<!-- Node10&#45;&gt;Node11 -->
<g id="edge10" class="edge">
<title>Node10&#45;&gt;Node11</title>
<path fill="none" stroke="midnightblue" d="M594.16,-236.59C605.79,-201.73 639.73,-116.09 702,-80.73 937.34,52.91 1287.94,-14.82 1395.77,-40.39"/>
<polygon fill="midnightblue" stroke="midnightblue" points="1395.18,-43.85 1405.72,-42.79 1396.82,-37.04 1395.18,-43.85"/>
</g>
<!-- Node12 -->
<g id="node12" class="node">
<title>Node12</title>
<g id="a_node12"><a xlink:href="classnlohmann_1_1detail_1_1binary__writer.html#a025212bd170253638b9f05b3b6aa5bf9" target="_top" xlink:title="Writes a BSON element with key name and array value.">
<polygon fill="white" stroke="black" points="720,-89.73 720,-119.73 860,-119.73 860,-89.73 720,-89.73"/>
<text text-anchor="start" x="728" y="-107.73" font-family="Helvetica,sans-Serif" font-size="10.00">nlohmann::detail::binary</text>
<text text-anchor="middle" x="790" y="-96.73" font-family="Helvetica,sans-Serif" font-size="10.00">_writer::write_bson_array</text>
</a>
</g>
</g>
<!-- Node10&#45;&gt;Node12 -->
<g id="edge11" class="edge">
<title>Node10&#45;&gt;Node12</title>
<path fill="none" stroke="midnightblue" d="M596.26,-236.4C611.88,-208.43 652.96,-150.99 702,-120.73 704.66,-119.09 707.42,-117.56 710.27,-116.12"/>
<polygon fill="midnightblue" stroke="midnightblue" points="711.93,-119.21 719.58,-111.89 709.03,-112.84 711.93,-119.21"/>
</g>
<!-- Node22 -->
<g id="node22" class="node">
<title>Node22</title>
<g id="a_node22"><a xlink:href="classnlohmann_1_1detail_1_1binary__writer.html#ae099435e1df3096e0fc78333282f8f67" target="_top" xlink:title="Writes a BSON element with key name and boolean value value.">
<polygon fill="white" stroke="black" points="713,-138.73 713,-168.73 867,-168.73 867,-138.73 713,-138.73"/>
<text text-anchor="start" x="721" y="-156.73" font-family="Helvetica,sans-Serif" font-size="10.00">nlohmann::detail::binary</text>
<text text-anchor="middle" x="790" y="-145.73" font-family="Helvetica,sans-Serif" font-size="10.00">_writer::write_bson_boolean</text>
</a>
</g>
</g>
<!-- Node10&#45;&gt;Node22 -->
<g id="edge31" class="edge">
<title>Node10&#45;&gt;Node22</title>
<path fill="none" stroke="midnightblue" d="M608.79,-236.66C630.41,-220.38 667.04,-194.66 702,-178.73 707.22,-176.35 712.72,-174.14 718.32,-172.1"/>
<polygon fill="midnightblue" stroke="midnightblue" points="719.48,-175.4 727.79,-168.83 717.2,-168.78 719.48,-175.4"/>
</g>
<!-- Node23 -->
<g id="node23" class="node">
<title>Node23</title>
<g id="a_node23"><a xlink:href="classnlohmann_1_1detail_1_1binary__writer.html#a263ec18815467bb9919021ef126919ca" target="_top" xlink:title="Writes a BSON element with key name and double value value.">
<polygon fill="white" stroke="black" points="716,-187.73 716,-217.73 864,-217.73 864,-187.73 716,-187.73"/>
<text text-anchor="start" x="724" y="-205.73" font-family="Helvetica,sans-Serif" font-size="10.00">nlohmann::detail::binary</text>
<text text-anchor="middle" x="790" y="-194.73" font-family="Helvetica,sans-Serif" font-size="10.00">_writer::write_bson_double</text>
</a>
</g>
</g>
<!-- Node10&#45;&gt;Node23 -->
<g id="edge34" class="edge">
<title>Node10&#45;&gt;Node23</title>
<path fill="none" stroke="midnightblue" d="M650.71,-236.69C671.97,-231.47 695.98,-225.58 717.96,-220.18"/>
<polygon fill="midnightblue" stroke="midnightblue" points="719.03,-223.52 727.9,-217.74 717.36,-216.72 719.03,-223.52"/>
</g>
<!-- Node24 -->
<g id="node24" class="node">
<title>Node24</title>
<g id="a_node24"><a xlink:href="classnlohmann_1_1detail_1_1binary__writer.html#a553ad4dbdf27238eef90867e4bf2f3e5" target="_top" xlink:title="Writes a BSON element with key name and integer value.">
<polygon fill="white" stroke="black" points="715.5,-334.73 715.5,-364.73 864.5,-364.73 864.5,-334.73 715.5,-334.73"/>
<text text-anchor="start" x="723.5" y="-352.73" font-family="Helvetica,sans-Serif" font-size="10.00">nlohmann::detail::binary</text>
<text text-anchor="middle" x="790" y="-341.73" font-family="Helvetica,sans-Serif" font-size="10.00">_writer::write_bson_integer</text>
</a>
</g>
</g>
<!-- Node10&#45;&gt;Node24 -->
<g id="edge36" class="edge">
<title>Node10&#45;&gt;Node24</title>
<path fill="none" stroke="midnightblue" d="M608.33,-266.8C629.84,-283.35 666.65,-309.71 702,-325.73 706.41,-327.73 711.02,-329.59 715.71,-331.32"/>
<polygon fill="midnightblue" stroke="midnightblue" points="714.85,-334.73 725.45,-334.7 717.15,-328.12 714.85,-334.73"/>
</g>
<!-- Node25 -->
<g id="node25" class="node">
<title>Node25</title>
<g id="a_node25"><a xlink:href="classnlohmann_1_1detail_1_1binary__writer.html#a9927c1110b18661e0224a76156e5a7a9" target="_top" xlink:title="Writes a BSON element with key name and null value.">
<polygon fill="white" stroke="black" points="722,-285.73 722,-315.73 858,-315.73 858,-285.73 722,-285.73"/>
<text text-anchor="start" x="730" y="-303.73" font-family="Helvetica,sans-Serif" font-size="10.00">nlohmann::detail::binary</text>
<text text-anchor="middle" x="790" y="-292.73" font-family="Helvetica,sans-Serif" font-size="10.00">_writer::write_bson_null</text>
</a>
</g>
</g>
<!-- Node10&#45;&gt;Node25 -->
<g id="edge38" class="edge">
<title>Node10&#45;&gt;Node25</title>
<path fill="none" stroke="midnightblue" d="M650.71,-266.76C671.97,-271.98 695.98,-277.88 717.96,-283.28"/>
<polygon fill="midnightblue" stroke="midnightblue" points="717.36,-286.74 727.9,-285.72 719.03,-279.94 717.36,-286.74"/>
</g>
<!-- Node26 -->
<g id="node26" class="node">
<title>Node26</title>
<g id="a_node26"><a xlink:href="classnlohmann_1_1detail_1_1binary__writer.html#a6231302930265eccb3f56c378f7b0661" target="_top" xlink:title="Writes a BSON element with key name and object value.">
<polygon fill="white" stroke="black" points="702,-383.73 702,-413.73 878,-413.73 878,-383.73 702,-383.73"/>
<text text-anchor="start" x="710" y="-401.73" font-family="Helvetica,sans-Serif" font-size="10.00">nlohmann::detail::binary</text>
<text text-anchor="middle" x="790" y="-390.73" font-family="Helvetica,sans-Serif" font-size="10.00">_writer::write_bson_object_entry</text>
</a>
</g>
</g>
<!-- Node10&#45;&gt;Node26 -->
<g id="edge40" class="edge">
<title>Node10&#45;&gt;Node26</title>
<path fill="none" stroke="midnightblue" d="M599.28,-267.14C616.68,-293.3 655.61,-346.31 702,-374.73 704.81,-376.45 707.74,-378.05 710.75,-379.53"/>
<polygon fill="midnightblue" stroke="midnightblue" points="709.46,-382.79 720.02,-383.66 712.31,-376.39 709.46,-382.79"/>
</g>
<!-- Node27 -->
<g id="node27" class="node">
<title>Node27</title>
<g id="a_node27"><a xlink:href="classnlohmann_1_1detail_1_1binary__writer.html#a5e6574416915208fc035b57338ae3252" target="_top" xlink:title="Writes a BSON element with key name and string value value.">
<polygon fill="white" stroke="black" points="718.5,-236.73 718.5,-266.73 861.5,-266.73 861.5,-236.73 718.5,-236.73"/>
<text text-anchor="start" x="726.5" y="-254.73" font-family="Helvetica,sans-Serif" font-size="10.00">nlohmann::detail::binary</text>
<text text-anchor="middle" x="790" y="-243.73" font-family="Helvetica,sans-Serif" font-size="10.00">_writer::write_bson_string</text>
</a>
</g>
</g>
<!-- Node10&#45;&gt;Node27 -->
<g id="edge43" class="edge">
<title>Node10&#45;&gt;Node27</title>
<path fill="none" stroke="midnightblue" d="M666.06,-251.73C679.86,-251.73 694.28,-251.73 708.19,-251.73"/>
<polygon fill="midnightblue" stroke="midnightblue" points="708.21,-255.23 718.21,-251.73 708.21,-248.23 708.21,-255.23"/>
</g>
<!-- Node28 -->
<g id="node28" class="node">
<title>Node28</title>
<g id="a_node28"><a xlink:href="classnlohmann_1_1detail_1_1binary__writer.html#a5e295ed1be6af6260d2a65f7397c3742" target="_top" xlink:title="Writes a BSON element with key name and unsigned value.">
<polygon fill="white" stroke="black" points="710.5,-432.73 710.5,-462.73 869.5,-462.73 869.5,-432.73 710.5,-432.73"/>
<text text-anchor="start" x="718.5" y="-450.73" font-family="Helvetica,sans-Serif" font-size="10.00">nlohmann::detail::binary</text>
<text text-anchor="middle" x="790" y="-439.73" font-family="Helvetica,sans-Serif" font-size="10.00">_writer::write_bson_unsigned</text>
</a>
</g>
</g>
<!-- Node10&#45;&gt;Node28 -->
<g id="edge45" class="edge">
<title>Node10&#45;&gt;Node28</title>
<path fill="none" stroke="midnightblue" d="M595.02,-266.78C608.11,-300.35 644.35,-381.67 702,-423.73 703.9,-425.12 705.88,-426.43 707.92,-427.66"/>
<polygon fill="midnightblue" stroke="midnightblue" points="706.74,-430.99 717.21,-432.59 710.02,-424.81 706.74,-430.99"/>
</g>
<!-- Node12&#45;&gt;Node5 -->
<g id="edge27" class="edge">
<title>Node12&#45;&gt;Node5</title>
<path fill="none" stroke="midnightblue" d="M848.52,-119.84C858.45,-122.85 868.59,-126.18 878,-129.73 894.56,-135.97 897.4,-140.59 914,-146.73 991.36,-175.34 1013.55,-173.56 1093,-195.73 1186.91,-221.93 1213.9,-218.48 1304,-255.73 1320.91,-262.72 1322.36,-270.86 1340,-275.73 1535.93,-329.78 1780.85,-313.35 1890.61,-301.83"/>
<polygon fill="midnightblue" stroke="midnightblue" points="1891.24,-305.28 1900.8,-300.73 1890.49,-298.32 1891.24,-305.28"/>
</g>
<!-- Node12&#45;&gt;Node9 -->
<g id="edge26" class="edge">
<title>Node12&#45;&gt;Node9</title>
<path fill="none" stroke="midnightblue" d="M860.07,-118.87C866.49,-121.83 872.6,-125.4 878,-129.73 904.07,-150.63 887.21,-175.77 914,-195.73 979.22,-244.32 1014.93,-210.93 1093,-233.73 1119.04,-241.34 1147.45,-251.86 1170.35,-260.92"/>
<polygon fill="midnightblue" stroke="midnightblue" points="1169.21,-264.24 1179.8,-264.7 1171.81,-257.74 1169.21,-264.24"/>
</g>
<!-- Node12&#45;&gt;Node10 -->
<g id="edge28" class="edge">
<title>Node12&#45;&gt;Node10</title>
<path fill="none" stroke="midnightblue" d="M749,-119.77C733.53,-124.19 716.18,-129.98 702,-138.73 663.67,-162.38 630.2,-202.64 609.95,-228.36"/>
<polygon fill="midnightblue" stroke="midnightblue" points="607,-226.44 603.6,-236.47 612.52,-230.75 607,-226.44"/>
</g>
<!-- Node13 -->
<g id="node13" class="node">
<title>Node13</title>
<g id="a_node13"><a xlink:href="classnlohmann_1_1detail_1_1binary__writer.html#af08f9302a02516ff8cf358a99aaa1ddf" target="_top" xlink:title=" ">
<polygon fill="white" stroke="black" points="923.5,-106.73 923.5,-136.73 1083.5,-136.73 1083.5,-106.73 923.5,-106.73"/>
<text text-anchor="start" x="931.5" y="-124.73" font-family="Helvetica,sans-Serif" font-size="10.00">nlohmann::detail::binary</text>
<text text-anchor="middle" x="1003.5" y="-113.73" font-family="Helvetica,sans-Serif" font-size="10.00">_writer::calc_bson_array_size</text>
</a>
</g>
</g>
<!-- Node12&#45;&gt;Node13 -->
<g id="edge12" class="edge">
<title>Node12&#45;&gt;Node13</title>
<path fill="none" stroke="midnightblue" d="M860.25,-110.3C877.07,-111.65 895.29,-113.11 912.9,-114.53"/>
<polygon fill="midnightblue" stroke="midnightblue" points="912.94,-118.04 923.19,-115.35 913.5,-111.06 912.94,-118.04"/>
</g>
<!-- Node21 -->
<g id="node21" class="node">
<title>Node21</title>
<g id="a_node21"><a xlink:href="classnlohmann_1_1detail_1_1binary__writer.html#a1b5b7f5c03b1f8b1f59ea61db9634108" target="_top" xlink:title="Writes the given element_type and name to the output adapter.">
<polygon fill="white" stroke="black" points="914,-286.73 914,-316.73 1093,-316.73 1093,-286.73 914,-286.73"/>
<text text-anchor="start" x="922" y="-304.73" font-family="Helvetica,sans-Serif" font-size="10.00">nlohmann::detail::binary</text>
<text text-anchor="middle" x="1003.5" y="-293.73" font-family="Helvetica,sans-Serif" font-size="10.00">_writer::write_bson_entry_header</text>
</a>
</g>
</g>
<!-- Node12&#45;&gt;Node21 -->
<g id="edge29" class="edge">
<title>Node12&#45;&gt;Node21</title>
<path fill="none" stroke="midnightblue" d="M860.42,-117.77C866.85,-120.94 872.87,-124.86 878,-129.73 913.5,-163.38 885.4,-194.05 914,-233.73 927.82,-252.91 948.58,-269.26 966.51,-281.11"/>
<polygon fill="midnightblue" stroke="midnightblue" points="964.74,-284.13 975.05,-286.56 968.51,-278.23 964.74,-284.13"/>
</g>
<!-- Node13&#45;&gt;Node5 -->
<g id="edge25" class="edge">
<title>Node13&#45;&gt;Node5</title>
<path fill="none" stroke="midnightblue" d="M1038.07,-106.64C1108.75,-76.29 1278.79,-10.73 1428.5,-10.73 1428.5,-10.73 1428.5,-10.73 1616.5,-10.73 1780.3,-10.73 1903.99,-212.81 1938.69,-276.05"/>
<polygon fill="midnightblue" stroke="midnightblue" points="1935.66,-277.81 1943.49,-284.95 1941.83,-274.49 1935.66,-277.81"/>
</g>
<!-- Node14 -->
<g id="node14" class="node">
<title>Node14</title>
<g id="a_node14"><a xlink:href="classnlohmann_1_1detail_1_1binary__writer.html#a1e4372c5984184eb5bcc09af1fcc2ee0" target="_top" xlink:title="Calculates the size necessary to serialize the JSON value j with its name.">
<polygon fill="white" stroke="black" points="1129,-124.73 1129,-154.73 1304,-154.73 1304,-124.73 1129,-124.73"/>
<text text-anchor="start" x="1137" y="-142.73" font-family="Helvetica,sans-Serif" font-size="10.00">nlohmann::detail::binary</text>
<text text-anchor="middle" x="1216.5" y="-131.73" font-family="Helvetica,sans-Serif" font-size="10.00">_writer::calc_bson_element_size</text>
</a>
</g>
</g>
<!-- Node13&#45;&gt;Node14 -->
<g id="edge13" class="edge">
<title>Node13&#45;&gt;Node14</title>
<path fill="none" stroke="midnightblue" d="M1083.67,-121.92C1095.06,-122.73 1106.9,-123.68 1118.59,-124.73"/>
<polygon fill="midnightblue" stroke="midnightblue" points="1118.53,-128.24 1128.81,-125.68 1119.18,-121.27 1118.53,-128.24"/>
</g>
<!-- Node14&#45;&gt;Node8 -->
<g id="edge22" class="edge">
<title>Node14&#45;&gt;Node8</title>
<path fill="none" stroke="midnightblue" d="M1229.76,-154.83C1265.08,-198.36 1367.29,-324.3 1409.7,-376.57"/>
<polygon fill="midnightblue" stroke="midnightblue" points="1407.19,-379.03 1416.21,-384.59 1412.63,-374.61 1407.19,-379.03"/>
</g>
<!-- Node14&#45;&gt;Node11 -->
<g id="edge14" class="edge">
<title>Node14&#45;&gt;Node11</title>
<path fill="none" stroke="midnightblue" d="M1238.55,-124.5C1262.15,-108.14 1302.07,-82.5 1340,-67.73 1357.83,-60.79 1378.71,-56.15 1395.71,-53.2"/>
<polygon fill="midnightblue" stroke="midnightblue" points="1396.43,-56.63 1405.74,-51.57 1395.31,-49.72 1396.43,-56.63"/>
</g>
<!-- Node14&#45;&gt;Node13 -->
<g id="edge15" class="edge">
<title>Node14&#45;&gt;Node13</title>
<path fill="none" stroke="midnightblue" d="M1128.81,-138.99C1117.26,-138.12 1105.38,-137.12 1093.78,-136.02"/>
<polygon fill="midnightblue" stroke="midnightblue" points="1093.96,-132.53 1083.67,-135.04 1093.28,-139.49 1093.96,-132.53"/>
</g>
<!-- Node15 -->
<g id="node15" class="node">
<title>Node15</title>
<g id="a_node15"><a xlink:href="classnlohmann_1_1detail_1_1binary__writer.html#a5bae2f1db2c511b869dffaddf15a1653" target="_top" xlink:title=" ">
<polygon fill="white" stroke="black" points="1361.5,-225.23 1361.5,-266.23 1497.5,-266.23 1497.5,-225.23 1361.5,-225.23"/>
<text text-anchor="start" x="1369.5" y="-254.23" font-family="Helvetica,sans-Serif" font-size="10.00">nlohmann::detail::binary</text>
<text text-anchor="start" x="1369.5" y="-243.23" font-family="Helvetica,sans-Serif" font-size="10.00">_writer::calc_bson_entry</text>
<text text-anchor="middle" x="1429.5" y="-232.23" font-family="Helvetica,sans-Serif" font-size="10.00">_header_size</text>
</a>
</g>
</g>
<!-- Node14&#45;&gt;Node15 -->
<g id="edge16" class="edge">
<title>Node14&#45;&gt;Node15</title>
<path fill="none" stroke="midnightblue" d="M1276.06,-154.88C1285.88,-158.83 1295.59,-163.72 1304,-169.73 1325.12,-184.82 1318.82,-200.71 1340,-215.73 1343.75,-218.39 1347.75,-220.82 1351.91,-223.06"/>
<polygon fill="midnightblue" stroke="midnightblue" points="1350.69,-226.36 1361.21,-227.62 1353.77,-220.07 1350.69,-226.36"/>
</g>
<!-- Node18 -->
<g id="node18" class="node">
<title>Node18</title>
<g id="a_node18"><a xlink:href="classnlohmann_1_1detail_1_1binary__writer.html#aeab70c895931b96ea598306b37eca271" target="_top" xlink:title=" ">
<polygon fill="white" stroke="black" points="1345,-175.73 1345,-205.73 1514,-205.73 1514,-175.73 1345,-175.73"/>
<text text-anchor="start" x="1353" y="-193.73" font-family="Helvetica,sans-Serif" font-size="10.00">nlohmann::detail::binary</text>
<text text-anchor="middle" x="1429.5" y="-182.73" font-family="Helvetica,sans-Serif" font-size="10.00">_writer::calc_bson_integer_size</text>
</a>
</g>
</g>
<!-- Node14&#45;&gt;Node18 -->
<g id="edge21" class="edge">
<title>Node14&#45;&gt;Node18</title>
<path fill="none" stroke="midnightblue" d="M1279.67,-154.76C1303.81,-160.59 1331.62,-167.31 1356.62,-173.36"/>
<polygon fill="midnightblue" stroke="midnightblue" points="1355.87,-176.78 1366.41,-175.72 1357.52,-169.97 1355.87,-176.78"/>
</g>
<!-- Node19 -->
<g id="node19" class="node">
<title>Node19</title>
<g id="a_node19"><a xlink:href="classnlohmann_1_1detail_1_1binary__writer.html#aea44fd97a5cb9b4f175e66e3e4fdf158" target="_top" xlink:title=" ">
<polygon fill="white" stroke="black" points="1348.5,-126.73 1348.5,-156.73 1510.5,-156.73 1510.5,-126.73 1348.5,-126.73"/>
<text text-anchor="start" x="1356.5" y="-144.73" font-family="Helvetica,sans-Serif" font-size="10.00">nlohmann::detail::binary</text>
<text text-anchor="middle" x="1429.5" y="-133.73" font-family="Helvetica,sans-Serif" font-size="10.00">_writer::calc_bson_string_size</text>
</a>
</g>
</g>
<!-- Node14&#45;&gt;Node19 -->
<g id="edge23" class="edge">
<title>Node14&#45;&gt;Node19</title>
<path fill="none" stroke="midnightblue" d="M1304.24,-140.55C1315.37,-140.66 1326.8,-140.77 1338,-140.87"/>
<polygon fill="midnightblue" stroke="midnightblue" points="1338.17,-144.37 1348.2,-140.97 1338.24,-137.37 1338.17,-144.37"/>
</g>
<!-- Node20 -->
<g id="node20" class="node">
<title>Node20</title>
<g id="a_node20"><a xlink:href="classnlohmann_1_1detail_1_1binary__writer.html#aa1d6bb9f3af16f07ce2440c354b5787b" target="_top" xlink:title=" ">
<polygon fill="white" stroke="black" points="1340,-77.73 1340,-107.73 1519,-107.73 1519,-77.73 1340,-77.73"/>
<text text-anchor="start" x="1348" y="-95.73" font-family="Helvetica,sans-Serif" font-size="10.00">nlohmann::detail::binary</text>
<text text-anchor="middle" x="1429.5" y="-84.73" font-family="Helvetica,sans-Serif" font-size="10.00">_writer::calc_bson_unsigned_size</text>
</a>
</g>
</g>
<!-- Node14&#45;&gt;Node20 -->
<g id="edge24" class="edge">
<title>Node14&#45;&gt;Node20</title>
<path fill="none" stroke="midnightblue" d="M1284.84,-124.73C1305.97,-120.02 1329.46,-114.79 1351.21,-109.94"/>
<polygon fill="midnightblue" stroke="midnightblue" points="1352.07,-113.34 1361.07,-107.75 1350.55,-106.51 1352.07,-113.34"/>
</g>
<!-- Node15&#45;&gt;Node5 -->
<g id="edge20" class="edge">
<title>Node15&#45;&gt;Node5</title>
<path fill="none" stroke="midnightblue" d="M1497.67,-249.35C1583.2,-254.37 1735.45,-264.68 1865,-280.73 1873.39,-281.77 1882.22,-283.05 1890.87,-284.4"/>
<polygon fill="midnightblue" stroke="midnightblue" points="1890.48,-287.89 1900.91,-286.03 1891.6,-280.98 1890.48,-287.89"/>
</g>
<!-- Node16 -->
<g id="node16" class="node">
<title>Node16</title>
<g id="a_node16"><a xlink:href="classnlohmann_1_1detail_1_1out__of__range.html#a3f6d82a6f967c4728a1ec735a7867073" target="_top" xlink:title=" ">
<polygon fill="white" stroke="black" points="1555,-463.73 1555,-493.73 1676,-493.73 1676,-463.73 1555,-463.73"/>
<text text-anchor="start" x="1563" y="-481.73" font-family="Helvetica,sans-Serif" font-size="10.00">nlohmann::detail::out</text>
<text text-anchor="middle" x="1615.5" y="-470.73" font-family="Helvetica,sans-Serif" font-size="10.00">_of_range::create</text>
</a>
</g>
</g>
<!-- Node15&#45;&gt;Node16 -->
<g id="edge17" class="edge">
<title>Node15&#45;&gt;Node16</title>
<path fill="none" stroke="midnightblue" d="M1446.83,-266.41C1481.04,-309.72 1560.03,-409.75 1596.02,-455.33"/>
<polygon fill="midnightblue" stroke="midnightblue" points="1593.48,-457.76 1602.43,-463.44 1598.97,-453.42 1593.48,-457.76"/>
</g>
<!-- Node16&#45;&gt;Node4 -->
<g id="edge18" class="edge">
<title>Node16&#45;&gt;Node4</title>
<path fill="none" stroke="midnightblue" d="M1676.31,-490.97C1685.39,-492.83 1694.89,-494.77 1704.36,-496.71"/>
<polygon fill="midnightblue" stroke="midnightblue" points="1703.69,-500.15 1714.19,-498.72 1705.09,-493.29 1703.69,-500.15"/>
</g>
<!-- Node17 -->
<g id="node17" class="node">
<title>Node17</title>
<g id="a_node17"><a xlink:href="classnlohmann_1_1detail_1_1out__of__range.html#ab5fe402019dba957558499502f0fd731" target="_top" xlink:title=" ">
<polygon fill="white" stroke="black" points="1721.5,-449.73 1721.5,-479.73 1855.5,-479.73 1855.5,-449.73 1721.5,-449.73"/>
<text text-anchor="start" x="1729.5" y="-467.73" font-family="Helvetica,sans-Serif" font-size="10.00">nlohmann::detail::out</text>
<text text-anchor="middle" x="1788.5" y="-456.73" font-family="Helvetica,sans-Serif" font-size="10.00">_of_range::out_of_range</text>
</a>
</g>
</g>
<!-- Node16&#45;&gt;Node17 -->
<g id="edge19" class="edge">
<title>Node16&#45;&gt;Node17</title>
<path fill="none" stroke="midnightblue" d="M1676.31,-473.83C1687.56,-472.91 1699.46,-471.94 1711.13,-470.98"/>
<polygon fill="midnightblue" stroke="midnightblue" points="1711.63,-474.45 1721.31,-470.15 1711.05,-467.48 1711.63,-474.45"/>
</g>
<!-- Node21&#45;&gt;Node9 -->
<g id="edge30" class="edge">
<title>Node21&#45;&gt;Node9</title>
<path fill="none" stroke="midnightblue" d="M1093.07,-292.49C1108.09,-290.93 1123.59,-289.31 1138.3,-287.78"/>
<polygon fill="midnightblue" stroke="midnightblue" points="1138.75,-291.25 1148.34,-286.73 1138.03,-284.29 1138.75,-291.25"/>
</g>
<!-- Node22&#45;&gt;Node9 -->
<g id="edge32" class="edge">
<title>Node22&#45;&gt;Node9</title>
<path fill="none" stroke="midnightblue" d="M861.05,-168.92C867.06,-171.66 872.81,-174.9 878,-178.73 901.51,-196.07 889.42,-217.93 914,-233.73 950.13,-256.95 1061.53,-269.21 1138.3,-275.08"/>
<polygon fill="midnightblue" stroke="midnightblue" points="1138.19,-278.58 1148.42,-275.83 1138.71,-271.6 1138.19,-278.58"/>
</g>
<!-- Node22&#45;&gt;Node21 -->
<g id="edge33" class="edge">
<title>Node22&#45;&gt;Node21</title>
<path fill="none" stroke="midnightblue" d="M864.07,-168.93C869.1,-171.67 873.82,-174.91 878,-178.73 910.71,-208.64 882,-241.06 914,-271.73 918.03,-275.59 922.57,-278.95 927.41,-281.88"/>
<polygon fill="midnightblue" stroke="midnightblue" points="925.95,-285.07 936.41,-286.71 929.25,-278.9 925.95,-285.07"/>
</g>
<!-- Node23&#45;&gt;Node21 -->
<g id="edge35" class="edge">
<title>Node23&#45;&gt;Node21</title>
<path fill="none" stroke="midnightblue" d="M858.84,-217.76C865.58,-220.54 872.09,-223.84 878,-227.73 899.1,-241.63 893.23,-257.34 914,-271.73 919.96,-275.86 926.53,-279.46 933.33,-282.59"/>
<polygon fill="midnightblue" stroke="midnightblue" points="932.12,-285.88 942.69,-286.58 934.86,-279.44 932.12,-285.88"/>
</g>
<!-- Node24&#45;&gt;Node21 -->
<g id="edge37" class="edge">
<title>Node24&#45;&gt;Node21</title>
<path fill="none" stroke="midnightblue" d="M857.34,-334.67C879.29,-329.69 903.88,-324.11 926.5,-318.98"/>
<polygon fill="midnightblue" stroke="midnightblue" points="927.42,-322.36 936.4,-316.73 925.87,-315.53 927.42,-322.36"/>
</g>
<!-- Node25&#45;&gt;Node21 -->
<g id="edge39" class="edge">
<title>Node25&#45;&gt;Node21</title>
<path fill="none" stroke="midnightblue" d="M858.21,-301.05C872.7,-301.12 888.3,-301.19 903.71,-301.26"/>
<polygon fill="midnightblue" stroke="midnightblue" points="903.77,-304.76 913.79,-301.31 903.81,-297.76 903.77,-304.76"/>
</g>
<!-- Node26&#45;&gt;Node7 -->
<g id="edge42" class="edge">
<title>Node26&#45;&gt;Node7</title>
<path fill="none" stroke="midnightblue" d="M726.72,-413.75C658.17,-430.29 548.12,-456.84 475.81,-474.28"/>
<polygon fill="midnightblue" stroke="midnightblue" points="474.77,-470.94 465.87,-476.68 476.41,-477.74 474.77,-470.94"/>
</g>
<!-- Node26&#45;&gt;Node21 -->
<g id="edge41" class="edge">
<title>Node26&#45;&gt;Node21</title>
<path fill="none" stroke="midnightblue" d="M853.46,-383.63C861.83,-380.99 870.21,-378.02 878,-374.73 911.92,-360.4 947.92,-338.47 972.44,-322.38"/>
<polygon fill="midnightblue" stroke="midnightblue" points="974.53,-325.19 980.93,-316.74 970.66,-319.36 974.53,-325.19"/>
</g>
<!-- Node27&#45;&gt;Node21 -->
<g id="edge44" class="edge">
<title>Node27&#45;&gt;Node21</title>
<path fill="none" stroke="midnightblue" d="M854.46,-266.73C877.88,-272.27 904.61,-278.59 928.86,-284.32"/>
<polygon fill="midnightblue" stroke="midnightblue" points="928.19,-287.76 938.72,-286.65 929.8,-280.95 928.19,-287.76"/>
</g>
<!-- Node28&#45;&gt;Node5 -->
<g id="edge47" class="edge">
<title>Node28&#45;&gt;Node5</title>
<path fill="none" stroke="midnightblue" d="M818.89,-462.87C885.43,-497.54 1059.6,-579.73 1215.5,-579.73 1215.5,-579.73 1215.5,-579.73 1616.5,-579.73 1728.44,-579.73 1779.55,-611.04 1865,-538.73 1934.31,-480.08 1946.21,-361.25 1948.16,-314.38"/>
<polygon fill="midnightblue" stroke="midnightblue" points="1951.66,-314.43 1948.47,-304.32 1944.66,-314.21 1951.66,-314.43"/>
</g>
<!-- Node28&#45;&gt;Node16 -->
<g id="edge46" class="edge">
<title>Node28&#45;&gt;Node16</title>
<path fill="none" stroke="midnightblue" d="M869.59,-450.69C1029.83,-456.72 1392.04,-470.35 1544.63,-476.1"/>
<polygon fill="midnightblue" stroke="midnightblue" points="1544.69,-479.6 1554.82,-476.48 1544.95,-472.61 1544.69,-479.6"/>
</g>
<!-- Node28&#45;&gt;Node21 -->
<g id="edge48" class="edge">
<title>Node28&#45;&gt;Node21</title>
<path fill="none" stroke="midnightblue" d="M858.88,-432.69C865.53,-430.13 872.02,-427.17 878,-423.73 922.69,-398.01 963.04,-352.49 985.03,-324.91"/>
<polygon fill="midnightblue" stroke="midnightblue" points="987.84,-327 991.25,-316.97 982.33,-322.69 987.84,-327"/>
</g>
</g>
</svg>
