<?xml version="1.0" encoding="UTF-8" standalone="no"?>
<!DOCTYPE svg PUBLIC "-//W3C//DTD SVG 1.1//EN"
 "http://www.w3.org/Graphics/SVG/1.1/DTD/svg11.dtd">
<!-- Generated by graphviz version 2.43.0 (0)
 -->
<!-- Title: fuzzer::Fuzzer::ExecuteCallback Pages: 1 -->
<!--zoomable 333 -->
<svg id="main" version="1.1" xmlns="http://www.w3.org/2000/svg" xmlns:xlink="http://www.w3.org/1999/xlink" xml:space="preserve" onload="init(evt)">
<style type="text/css"><![CDATA[
.edge:hover path { stroke: red; }
.edge:hover polygon { stroke: red; fill: red; }
]]></style>
<script type="text/javascript"><![CDATA[
var edges = document.getElementsByTagName('g');
if (edges && edges.length) {
  for (var i=0;i<edges.length;i++) {
    if (edges[i].id.substr(0,4)=='edge') {
      edges[i].setAttribute('class','edge');
    }
  }
}
]]></script>
        <defs>
                <circle id="rim" cx="0" cy="0" r="7"/>
                <circle id="rim2" cx="0" cy="0" r="3.5"/>
                <g id="zoomPlus">
                        <use xlink:href="#rim" fill="#404040">
                                <set attributeName="fill" to="#808080" begin="zoomplus.mouseover" end="zoomplus.mouseout"/>
                        </use>
                        <path d="M-4,0h8M0,-4v8" fill="none" stroke="white" stroke-width="1.5" pointer-events="none"/>
                </g>
                <g id="zoomMin">
                        <use xlink:href="#rim" fill="#404040">
                                <set attributeName="fill" to="#808080" begin="zoomminus.mouseover" end="zoomminus.mouseout"/>
                        </use>
                        <path d="M-4,0h8" fill="none" stroke="white" stroke-width="1.5" pointer-events="none"/>
                </g>
                <g id="dirArrow">
                        <path fill="none" stroke="white" stroke-width="1.5" d="M0,-3.0v7 M-2.5,-0.5L0,-3.0L2.5,-0.5"/>
                </g>
               <g id="resetDef">
                       <use xlink:href="#rim2" fill="#404040">
                               <set attributeName="fill" to="#808080" begin="reset.mouseover" end="reset.mouseout"/>
                       </use>
               </g>
        </defs>

<script type="text/javascript">
var viewWidth = 862;
var viewHeight = 333;
var sectionId = 'dynsection-18';
</script>
<script xlink:href="svgpan.js"/>
<svg id="graph" class="graph">
<g id="viewport">
<title>fuzzer::Fuzzer::ExecuteCallback</title>
<polygon fill="white" stroke="transparent" points="-4,4 -4,-328.5 858,-328.5 858,4 -4,4"/>
<!-- Node1 -->
<g id="node1" class="node">
<title>Node1</title>
<g id="a_node1"><a xlink:title=" ">
<polygon fill="#bfbfbf" stroke="black" points="0,-179 0,-198 171,-198 171,-179 0,-179"/>
<text text-anchor="middle" x="85.5" y="-186" font-family="Helvetica,sans-Serif" font-size="10.00">fuzzer::Fuzzer::ExecuteCallback</text>
</a>
</g>
</g>
<!-- Node2 -->
<g id="node2" class="node">
<title>Node2</title>
<g id="a_node2"><a xlink:href="FuzzerTracePC_8cpp.html#a1f10ac78bd11294b612636121065eb5b" target="_top" xlink:title=" ">
<polygon fill="white" stroke="black" points="264,-305 264,-324 311,-324 311,-305 264,-305"/>
<text text-anchor="middle" x="287.5" y="-312" font-family="Helvetica,sans-Serif" font-size="10.00">assert</text>
</a>
</g>
</g>
<!-- Node1&#45;&gt;Node2 -->
<g id="edge1" class="edge">
<title>Node1&#45;&gt;Node2</title>
<path fill="none" stroke="midnightblue" d="M94.42,-198.23C112.2,-219.39 157.63,-269.77 207,-295.5 221.38,-302.99 238.76,-307.58 253.6,-310.37"/>
<polygon fill="midnightblue" stroke="midnightblue" points="253.44,-313.89 263.88,-312.09 254.59,-306.99 253.44,-313.89"/>
</g>
<!-- Node3 -->
<g id="node3" class="node">
<title>Node3</title>
<g id="a_node3"><a xlink:href="classfuzzer_1_1Fuzzer.html#a6b8043b43eaa243299df6d64ba8413b6" target="_top" xlink:title=" ">
<polygon fill="white" stroke="black" points="219.5,-255.5 219.5,-285.5 355.5,-285.5 355.5,-255.5 219.5,-255.5"/>
<text text-anchor="start" x="227.5" y="-273.5" font-family="Helvetica,sans-Serif" font-size="10.00">fuzzer::Fuzzer::InFuzzing</text>
<text text-anchor="middle" x="287.5" y="-262.5" font-family="Helvetica,sans-Serif" font-size="10.00">Thread</text>
</a>
</g>
</g>
<!-- Node1&#45;&gt;Node3 -->
<g id="edge2" class="edge">
<title>Node1&#45;&gt;Node3</title>
<path fill="none" stroke="midnightblue" d="M104.94,-198.2C128.28,-210.24 169.94,-230.99 207,-245.5 212.84,-247.79 218.97,-250.01 225.14,-252.14"/>
<polygon fill="midnightblue" stroke="midnightblue" points="224.23,-255.52 234.82,-255.38 226.45,-248.89 224.23,-255.52"/>
</g>
<!-- Node4 -->
<g id="node4" class="node">
<title>Node4</title>
<g id="a_node4"><a xlink:href="classfuzzer_1_1Fuzzer.html#aae1fc306bbc4d6094da5a7bb530abd79" target="_top" xlink:title=" ">
<polygon fill="white" stroke="black" points="207,-217 207,-236 368,-236 368,-217 207,-217"/>
<text text-anchor="middle" x="287.5" y="-224" font-family="Helvetica,sans-Serif" font-size="10.00">fuzzer::Fuzzer::ResetCounters</text>
</a>
</g>
</g>
<!-- Node1&#45;&gt;Node4 -->
<g id="edge3" class="edge">
<title>Node1&#45;&gt;Node4</title>
<path fill="none" stroke="midnightblue" d="M136.71,-198.04C163.93,-203.21 197.76,-209.64 226.38,-215.08"/>
<polygon fill="midnightblue" stroke="midnightblue" points="225.79,-218.53 236.27,-216.96 227.1,-211.65 225.79,-218.53"/>
</g>
<!-- Node5 -->
<g id="node5" class="node">
<title>Node5</title>
<g id="a_node5"><a xlink:href="classfuzzer_1_1TracePC.html#ab843236d692511688e9d754f926de962" target="_top" xlink:title=" ">
<polygon fill="white" stroke="black" points="211.5,-179 211.5,-198 363.5,-198 363.5,-179 211.5,-179"/>
<text text-anchor="middle" x="287.5" y="-186" font-family="Helvetica,sans-Serif" font-size="10.00">fuzzer::TracePC::ResetMaps</text>
</a>
</g>
</g>
<!-- Node1&#45;&gt;Node5 -->
<g id="edge4" class="edge">
<title>Node1&#45;&gt;Node5</title>
<path fill="none" stroke="midnightblue" d="M171.03,-188.5C181,-188.5 191.18,-188.5 201.16,-188.5"/>
<polygon fill="midnightblue" stroke="midnightblue" points="201.47,-192 211.47,-188.5 201.47,-185 201.47,-192"/>
</g>
<!-- Node7 -->
<g id="node7" class="node">
<title>Node7</title>
<g id="a_node7"><a xlink:href="structfuzzer_1_1MallocFreeTracer.html#a33e0a6e9470e71e395f44b3e285cc747" target="_top" xlink:title=" ">
<polygon fill="white" stroke="black" points="219.5,-129.5 219.5,-159.5 355.5,-159.5 355.5,-129.5 219.5,-129.5"/>
<text text-anchor="start" x="227.5" y="-147.5" font-family="Helvetica,sans-Serif" font-size="10.00">fuzzer::MallocFreeTracer</text>
<text text-anchor="middle" x="287.5" y="-136.5" font-family="Helvetica,sans-Serif" font-size="10.00">::Start</text>
</a>
</g>
</g>
<!-- Node1&#45;&gt;Node7 -->
<g id="edge6" class="edge">
<title>Node1&#45;&gt;Node7</title>
<path fill="none" stroke="midnightblue" d="M129.9,-178.95C153.12,-173.84 182.43,-167.4 209.38,-161.47"/>
<polygon fill="midnightblue" stroke="midnightblue" points="210.18,-164.87 219.19,-159.31 208.67,-158.04 210.18,-164.87"/>
</g>
<!-- Node9 -->
<g id="node9" class="node">
<title>Node9</title>
<g id="a_node9"><a xlink:href="structfuzzer_1_1MallocFreeTracer.html#aeea33120b85a8a1fddf17646449c40cf" target="_top" xlink:title=" ">
<polygon fill="white" stroke="black" points="219.5,-80.5 219.5,-110.5 355.5,-110.5 355.5,-80.5 219.5,-80.5"/>
<text text-anchor="start" x="227.5" y="-98.5" font-family="Helvetica,sans-Serif" font-size="10.00">fuzzer::MallocFreeTracer</text>
<text text-anchor="middle" x="287.5" y="-87.5" font-family="Helvetica,sans-Serif" font-size="10.00">::Stop</text>
</a>
</g>
</g>
<!-- Node1&#45;&gt;Node9 -->
<g id="edge8" class="edge">
<title>Node1&#45;&gt;Node9</title>
<path fill="none" stroke="midnightblue" d="M101.2,-178.86C123.39,-164.63 167.11,-137.8 207,-120.5 212.36,-118.18 218,-115.96 223.71,-113.89"/>
<polygon fill="midnightblue" stroke="midnightblue" points="225.05,-117.12 233.33,-110.52 222.74,-110.52 225.05,-117.12"/>
</g>
<!-- Node10 -->
<g id="node10" class="node">
<title>Node10</title>
<g id="a_node10"><a xlink:href="namespacenlohmann_1_1detail.html#a59fca69799f6b9e366710cb9043aa77d" target="_top" xlink:title=" ">
<polygon fill="white" stroke="black" points="224.5,-42 224.5,-61 350.5,-61 350.5,-42 224.5,-42"/>
<text text-anchor="middle" x="287.5" y="-49" font-family="Helvetica,sans-Serif" font-size="10.00">nlohmann::detail::void</text>
</a>
</g>
</g>
<!-- Node1&#45;&gt;Node10 -->
<g id="edge10" class="edge">
<title>Node1&#45;&gt;Node10</title>
<path fill="none" stroke="midnightblue" d="M93.46,-178.91C110.27,-156.45 155.55,-100.18 207,-71.5 211.89,-68.77 217.16,-66.41 222.58,-64.36"/>
<polygon fill="midnightblue" stroke="midnightblue" points="224.09,-67.55 232.43,-61.02 221.83,-60.92 224.09,-67.55"/>
</g>
<!-- Node6 -->
<g id="node6" class="node">
<title>Node6</title>
<g id="a_node6"><a xlink:href="structfuzzer_1_1ValueBitMap.html#a7e0a77c4c7b3631b136ea7f2d3f6ceaf" target="_top" xlink:title=" ">
<polygon fill="white" stroke="black" points="410.5,-173.5 410.5,-203.5 525.5,-203.5 525.5,-173.5 410.5,-173.5"/>
<text text-anchor="start" x="418.5" y="-191.5" font-family="Helvetica,sans-Serif" font-size="10.00">fuzzer::ValueBitMap</text>
<text text-anchor="middle" x="468" y="-180.5" font-family="Helvetica,sans-Serif" font-size="10.00">::Reset</text>
</a>
</g>
</g>
<!-- Node5&#45;&gt;Node6 -->
<g id="edge5" class="edge">
<title>Node5&#45;&gt;Node6</title>
<path fill="none" stroke="midnightblue" d="M363.68,-188.5C375.77,-188.5 388.21,-188.5 400.08,-188.5"/>
<polygon fill="midnightblue" stroke="midnightblue" points="400.35,-192 410.35,-188.5 400.35,-185 400.35,-192"/>
</g>
<!-- Node8 -->
<g id="node8" class="node">
<title>Node8</title>
<g id="a_node8"><a xlink:href="namespacefuzzer.html#afab785891fdb74f8fd33bca421bde935" target="_top" xlink:title=" ">
<polygon fill="white" stroke="black" points="428.5,-123 428.5,-142 507.5,-142 507.5,-123 428.5,-123"/>
<text text-anchor="middle" x="468" y="-130" font-family="Helvetica,sans-Serif" font-size="10.00">fuzzer::Printf</text>
</a>
</g>
</g>
<!-- Node7&#45;&gt;Node8 -->
<g id="edge7" class="edge">
<title>Node7&#45;&gt;Node8</title>
<path fill="none" stroke="midnightblue" d="M355.73,-139.98C376.5,-138.58 398.98,-137.07 418.25,-135.78"/>
<polygon fill="midnightblue" stroke="midnightblue" points="418.56,-139.26 428.31,-135.1 418.09,-132.28 418.56,-139.26"/>
</g>
<!-- Node9&#45;&gt;Node8 -->
<g id="edge9" class="edge">
<title>Node9&#45;&gt;Node8</title>
<path fill="none" stroke="midnightblue" d="M355.73,-109.44C376.5,-113.74 398.98,-118.4 418.25,-122.4"/>
<polygon fill="midnightblue" stroke="midnightblue" points="417.8,-125.88 428.31,-124.48 419.22,-119.02 417.8,-125.88"/>
</g>
<!-- Node11 -->
<g id="node11" class="node">
<title>Node11</title>
<g id="a_node11"><a xlink:href="classnlohmann_1_1detail_1_1type__error.html#aecc083aea4b698c33d042670ba50c10f" target="_top" xlink:title=" ">
<polygon fill="white" stroke="black" points="404.5,-49.5 404.5,-79.5 531.5,-79.5 531.5,-49.5 404.5,-49.5"/>
<text text-anchor="start" x="412.5" y="-67.5" font-family="Helvetica,sans-Serif" font-size="10.00">nlohmann::detail::type</text>
<text text-anchor="middle" x="468" y="-56.5" font-family="Helvetica,sans-Serif" font-size="10.00">_error::create</text>
</a>
</g>
</g>
<!-- Node10&#45;&gt;Node11 -->
<g id="edge11" class="edge">
<title>Node10&#45;&gt;Node11</title>
<path fill="none" stroke="midnightblue" d="M350.68,-56.03C364.69,-57.05 379.68,-58.14 394.08,-59.19"/>
<polygon fill="midnightblue" stroke="midnightblue" points="394.21,-62.71 404.44,-59.94 394.72,-55.73 394.21,-62.71"/>
</g>
<!-- Node15 -->
<g id="node15" class="node">
<title>Node15</title>
<g id="a_node15"><a xlink:href="namespacenlohmann_1_1detail.html#a40f7bb070a60e8ba14fffb9c117fcbd8" target="_top" xlink:title=" ">
<polygon fill="white" stroke="black" points="404,-0.5 404,-30.5 532,-30.5 532,-0.5 404,-0.5"/>
<text text-anchor="start" x="412" y="-18.5" font-family="Helvetica,sans-Serif" font-size="10.00">nlohmann::detail::from</text>
<text text-anchor="middle" x="468" y="-7.5" font-family="Helvetica,sans-Serif" font-size="10.00">_json_array_impl</text>
</a>
</g>
</g>
<!-- Node10&#45;&gt;Node15 -->
<g id="edge15" class="edge">
<title>Node10&#45;&gt;Node15</title>
<path fill="none" stroke="midnightblue" d="M335.87,-41.95C353.71,-38.35 374.45,-34.17 394.1,-30.2"/>
<polygon fill="midnightblue" stroke="midnightblue" points="394.83,-33.63 403.94,-28.22 393.45,-26.76 394.83,-33.63"/>
</g>
<!-- Node12 -->
<g id="node12" class="node">
<title>Node12</title>
<g id="a_node12"><a xlink:href="classnlohmann_1_1detail_1_1exception.html#abf41a7e9178356314082284e6cfea278" target="_top" xlink:title=" ">
<polygon fill="white" stroke="black" points="568,-74.5 568,-104.5 721,-104.5 721,-74.5 568,-74.5"/>
<text text-anchor="start" x="576" y="-92.5" font-family="Helvetica,sans-Serif" font-size="10.00">nlohmann::detail::exception</text>
<text text-anchor="middle" x="644.5" y="-81.5" font-family="Helvetica,sans-Serif" font-size="10.00">::name</text>
</a>
</g>
</g>
<!-- Node11&#45;&gt;Node12 -->
<g id="edge12" class="edge">
<title>Node11&#45;&gt;Node12</title>
<path fill="none" stroke="midnightblue" d="M531.51,-73.45C540.03,-74.68 548.9,-75.95 557.75,-77.22"/>
<polygon fill="midnightblue" stroke="midnightblue" points="557.32,-80.69 567.72,-78.64 558.31,-73.76 557.32,-80.69"/>
</g>
<!-- Node14 -->
<g id="node14" class="node">
<title>Node14</title>
<g id="a_node14"><a xlink:href="classnlohmann_1_1detail_1_1type__error.html#aa01edaa0bf18b853368f0b900e485cd7" target="_top" xlink:title=" ">
<polygon fill="white" stroke="black" points="581,-25.5 581,-55.5 708,-55.5 708,-25.5 581,-25.5"/>
<text text-anchor="start" x="589" y="-43.5" font-family="Helvetica,sans-Serif" font-size="10.00">nlohmann::detail::type</text>
<text text-anchor="middle" x="644.5" y="-32.5" font-family="Helvetica,sans-Serif" font-size="10.00">_error::type_error</text>
</a>
</g>
</g>
<!-- Node11&#45;&gt;Node14 -->
<g id="edge14" class="edge">
<title>Node11&#45;&gt;Node14</title>
<path fill="none" stroke="midnightblue" d="M531.51,-55.9C544.29,-54.15 557.84,-52.28 570.94,-50.48"/>
<polygon fill="midnightblue" stroke="midnightblue" points="571.41,-53.95 580.84,-49.12 570.46,-47.01 571.41,-53.95"/>
</g>
<!-- Node13 -->
<g id="node13" class="node">
<title>Node13</title>
<g id="a_node13"><a xlink:href="namespacehttplib.html#a498c3a79825ecbcb15c52ec5fcfd5c11" target="_top" xlink:title=" ">
<polygon fill="white" stroke="black" points="757,-80 757,-99 854,-99 854,-80 757,-80"/>
<text text-anchor="middle" x="805.5" y="-87" font-family="Helvetica,sans-Serif" font-size="10.00">httplib::to_string</text>
</a>
</g>
</g>
<!-- Node12&#45;&gt;Node13 -->
<g id="edge13" class="edge">
<title>Node12&#45;&gt;Node13</title>
<path fill="none" stroke="midnightblue" d="M721.27,-89.5C729.82,-89.5 738.43,-89.5 746.7,-89.5"/>
<polygon fill="midnightblue" stroke="midnightblue" points="746.96,-93 756.96,-89.5 746.96,-86 746.96,-93"/>
</g>
</g>
</svg>
        <g id="navigator" transform="translate(0 0)" fill="#404254">
                <rect fill="#f2f5e9" fill-opacity="0.5" stroke="#606060" stroke-width=".5" x="0" y="0" width="60" height="60"/>
                <use id="zoomplus" xlink:href="#zoomPlus" x="17" y="9" onmousedown="handleZoom(evt,'in')"/>
                <use id="zoomminus" xlink:href="#zoomMin" x="42" y="9" onmousedown="handleZoom(evt,'out')"/>
                <use id="reset" xlink:href="#resetDef" x="30" y="36" onmousedown="handleReset()"/>
                <g id="arrowUp" xlink:href="#dirArrow" transform="translate(30 24)" onmousedown="handlePan(0,-1)">
                  <use xlink:href="#rim" fill="#404040">
                        <set attributeName="fill" to="#808080" begin="arrowUp.mouseover" end="arrowUp.mouseout"/>
                  </use>
                  <path fill="none" stroke="white" stroke-width="1.5" d="M0,-3.0v7 M-2.5,-0.5L0,-3.0L2.5,-0.5"/>
                </g>
                <g id="arrowRight" xlink:href="#dirArrow" transform="rotate(90) translate(36 -43)" onmousedown="handlePan(1,0)">
                  <use xlink:href="#rim" fill="#404040">
                        <set attributeName="fill" to="#808080" begin="arrowRight.mouseover" end="arrowRight.mouseout"/>
                  </use>
                  <path fill="none" stroke="white" stroke-width="1.5" d="M0,-3.0v7 M-2.5,-0.5L0,-3.0L2.5,-0.5"/>
                </g>
                <g id="arrowDown" xlink:href="#dirArrow" transform="rotate(180) translate(-30 -48)" onmousedown="handlePan(0,1)">
                  <use xlink:href="#rim" fill="#404040">
                        <set attributeName="fill" to="#808080" begin="arrowDown.mouseover" end="arrowDown.mouseout"/>
                  </use>
                  <path fill="none" stroke="white" stroke-width="1.5" d="M0,-3.0v7 M-2.5,-0.5L0,-3.0L2.5,-0.5"/>
                </g>
                <g id="arrowLeft" xlink:href="#dirArrow" transform="rotate(270) translate(-36 17)" onmousedown="handlePan(-1,0)">
                  <use xlink:href="#rim" fill="#404040">
                        <set attributeName="fill" to="#808080" begin="arrowLeft.mouseover" end="arrowLeft.mouseout"/>
                  </use>
                  <path fill="none" stroke="white" stroke-width="1.5" d="M0,-3.0v7 M-2.5,-0.5L0,-3.0L2.5,-0.5"/>
                </g>
        </g>
        <svg viewBox="0 0 15 15" width="100%" height="30px" preserveAspectRatio="xMaxYMin meet">
         <g id="arrow_out" transform="scale(0.3 0.3)">
          <a xlink:href="classfuzzer_1_1Fuzzer_a5a299bed53a0c2d2ffd6557c173f7e40_cgraph_org.svg" target="_base">
           <rect id="button" ry="5" rx="5" y="6" x="6" height="38" width="38"
                fill="#f2f5e9" fill-opacity="0.5" stroke="#606060" stroke-width="1.0"/>
           <path id="arrow"
             d="M 11.500037,31.436501 C 11.940474,20.09759 22.043105,11.32322 32.158766,21.979434 L 37.068811,17.246167 C 37.068811,17.246167 37.088388,32 37.088388,32 L 22.160133,31.978069 C 22.160133,31.978069 26.997745,27.140456 26.997745,27.140456 C 18.528582,18.264221 13.291696,25.230495 11.500037,31.436501 z"
             style="fill:#404040;"/>
          </a>
         </g>
        </svg>
</svg>
