<?xml version="1.0" encoding="UTF-8" standalone="no"?>
<!DOCTYPE svg PUBLIC "-//W3C//DTD SVG 1.1//EN"
 "http://www.w3.org/Graphics/SVG/1.1/DTD/svg11.dtd">
<!-- Generated by graphviz version 2.43.0 (0)
 -->
<!-- Title: nlohmann::detail::input_stream_adapter Pages: 1 -->
<!--zoomable 665 -->
<svg id="main" version="1.1" xmlns="http://www.w3.org/2000/svg" xmlns:xlink="http://www.w3.org/1999/xlink" xml:space="preserve" onload="init(evt)">
<style type="text/css"><![CDATA[
.edge:hover path { stroke: red; }
.edge:hover polygon { stroke: red; fill: red; }
]]></style>
<script type="text/javascript"><![CDATA[
var edges = document.getElementsByTagName('g');
if (edges && edges.length) {
  for (var i=0;i<edges.length;i++) {
    if (edges[i].id.substr(0,4)=='edge') {
      edges[i].setAttribute('class','edge');
    }
  }
}
]]></script>
        <defs>
                <circle id="rim" cx="0" cy="0" r="7"/>
                <circle id="rim2" cx="0" cy="0" r="3.5"/>
                <g id="zoomPlus">
                        <use xlink:href="#rim" fill="#404040">
                                <set attributeName="fill" to="#808080" begin="zoomplus.mouseover" end="zoomplus.mouseout"/>
                        </use>
                        <path d="M-4,0h8M0,-4v8" fill="none" stroke="white" stroke-width="1.5" pointer-events="none"/>
                </g>
                <g id="zoomMin">
                        <use xlink:href="#rim" fill="#404040">
                                <set attributeName="fill" to="#808080" begin="zoomminus.mouseover" end="zoomminus.mouseout"/>
                        </use>
                        <path d="M-4,0h8" fill="none" stroke="white" stroke-width="1.5" pointer-events="none"/>
                </g>
                <g id="dirArrow">
                        <path fill="none" stroke="white" stroke-width="1.5" d="M0,-3.0v7 M-2.5,-0.5L0,-3.0L2.5,-0.5"/>
                </g>
               <g id="resetDef">
                       <use xlink:href="#rim2" fill="#404040">
                               <set attributeName="fill" to="#808080" begin="reset.mouseover" end="reset.mouseout"/>
                       </use>
               </g>
        </defs>

<script type="text/javascript">
var viewWidth = 284;
var viewHeight = 665;
var sectionId = 'dynsection-1';
</script>
<script xlink:href="svgpan.js"/>
<svg id="graph" class="graph">
<g id="viewport">
<title>nlohmann::detail::input_stream_adapter</title>
<polygon fill="white" stroke="transparent" points="-4,4 -4,-661 280,-661 280,4 -4,4"/>
<!-- Node1 -->
<g id="node1" class="node">
<title>Node1</title>
<g id="a_node1"><a xlink:title=" ">
<polygon fill="#bfbfbf" stroke="black" points="18.5,-0.5 18.5,-211.5 169.5,-211.5 169.5,-0.5 18.5,-0.5"/>
<text text-anchor="start" x="26.5" y="-199.5" font-family="Helvetica,sans-Serif" font-size="10.00">nlohmann::detail::input</text>
<text text-anchor="middle" x="94" y="-188.5" font-family="Helvetica,sans-Serif" font-size="10.00">_stream_adapter</text>
<polyline fill="none" stroke="black" points="18.5,-181.5 169.5,-181.5 "/>
<text text-anchor="start" x="26.5" y="-169.5" font-family="Helvetica,sans-Serif" font-size="10.00">&#45; sb</text>
<polyline fill="none" stroke="black" points="18.5,-162.5 169.5,-162.5 "/>
<text text-anchor="start" x="26.5" y="-150.5" font-family="Helvetica,sans-Serif" font-size="10.00">+ ~input_stream_adapter()</text>
<text text-anchor="start" x="26.5" y="-139.5" font-family="Helvetica,sans-Serif" font-size="10.00">+ input_stream_adapter()</text>
<text text-anchor="start" x="26.5" y="-128.5" font-family="Helvetica,sans-Serif" font-size="10.00">+ input_stream_adapter()</text>
<text text-anchor="start" x="26.5" y="-117.5" font-family="Helvetica,sans-Serif" font-size="10.00">+ operator=()</text>
<text text-anchor="start" x="26.5" y="-106.5" font-family="Helvetica,sans-Serif" font-size="10.00">+ input_stream_adapter()</text>
<text text-anchor="start" x="26.5" y="-95.5" font-family="Helvetica,sans-Serif" font-size="10.00">+ operator=()</text>
<text text-anchor="start" x="26.5" y="-84.5" font-family="Helvetica,sans-Serif" font-size="10.00">+ get_character()</text>
<text text-anchor="start" x="26.5" y="-73.5" font-family="Helvetica,sans-Serif" font-size="10.00">+ ~input_stream_adapter()</text>
<text text-anchor="start" x="26.5" y="-62.5" font-family="Helvetica,sans-Serif" font-size="10.00">+ input_stream_adapter()</text>
<text text-anchor="start" x="26.5" y="-51.5" font-family="Helvetica,sans-Serif" font-size="10.00">+ input_stream_adapter()</text>
<text text-anchor="start" x="26.5" y="-40.5" font-family="Helvetica,sans-Serif" font-size="10.00">+ operator=()</text>
<text text-anchor="start" x="26.5" y="-29.5" font-family="Helvetica,sans-Serif" font-size="10.00">+ input_stream_adapter()</text>
<text text-anchor="start" x="26.5" y="-18.5" font-family="Helvetica,sans-Serif" font-size="10.00">+ operator=()</text>
<text text-anchor="start" x="26.5" y="-7.5" font-family="Helvetica,sans-Serif" font-size="10.00">+ get_character()</text>
</a>
</g>
</g>
<!-- Node2 -->
<g id="node2" class="node">
<title>Node2</title>
<g id="a_node2"><a xlink:href="structnlohmann_1_1detail_1_1input__adapter__protocol.html" target="_top" xlink:title="abstract input adapter interface">
<polygon fill="white" stroke="black" points="0,-259.5 0,-360.5 156,-360.5 156,-259.5 0,-259.5"/>
<text text-anchor="start" x="8" y="-348.5" font-family="Helvetica,sans-Serif" font-size="10.00">nlohmann::detail::input</text>
<text text-anchor="middle" x="78" y="-337.5" font-family="Helvetica,sans-Serif" font-size="10.00">_adapter_protocol</text>
<polyline fill="none" stroke="black" points="0,-330.5 156,-330.5 "/>
<text text-anchor="middle" x="78" y="-318.5" font-family="Helvetica,sans-Serif" font-size="10.00"> </text>
<polyline fill="none" stroke="black" points="0,-311.5 156,-311.5 "/>
<text text-anchor="start" x="8" y="-299.5" font-family="Helvetica,sans-Serif" font-size="10.00">+ get_character()</text>
<text text-anchor="start" x="8" y="-288.5" font-family="Helvetica,sans-Serif" font-size="10.00">+ ~input_adapter_protocol()</text>
<text text-anchor="start" x="8" y="-277.5" font-family="Helvetica,sans-Serif" font-size="10.00">+ get_character()</text>
<text text-anchor="start" x="8" y="-266.5" font-family="Helvetica,sans-Serif" font-size="10.00">+ ~input_adapter_protocol()</text>
</a>
</g>
</g>
<!-- Node2&#45;&gt;Node1 -->
<g id="edge1" class="edge">
<title>Node2&#45;&gt;Node1</title>
<path fill="none" stroke="midnightblue" d="M82.74,-249.21C83.67,-237.4 84.68,-224.69 85.69,-211.89"/>
<polygon fill="none" stroke="midnightblue" points="79.24,-249.08 81.93,-259.33 86.21,-249.63 79.24,-249.08"/>
</g>
<!-- Node3 -->
<g id="node3" class="node">
<title>Node3</title>
<g id="a_node3"><a xlink:title="STL class.">
<polygon fill="white" stroke="#bfbfbf" points="174.5,-281.5 174.5,-338.5 249.5,-338.5 249.5,-281.5 174.5,-281.5"/>
<text text-anchor="middle" x="212" y="-326.5" font-family="Helvetica,sans-Serif" font-size="10.00">std::istream</text>
<polyline fill="none" stroke="#bfbfbf" points="174.5,-319.5 249.5,-319.5 "/>
<text text-anchor="middle" x="212" y="-307.5" font-family="Helvetica,sans-Serif" font-size="10.00"> </text>
<polyline fill="none" stroke="#bfbfbf" points="174.5,-300.5 249.5,-300.5 "/>
<text text-anchor="middle" x="212" y="-288.5" font-family="Helvetica,sans-Serif" font-size="10.00"> </text>
</a>
</g>
</g>
<!-- Node3&#45;&gt;Node1 -->
<g id="edge2" class="edge">
<title>Node3&#45;&gt;Node1</title>
<path fill="none" stroke="#404040" d="M195.84,-281.34C186.58,-265.48 174.26,-244.39 161.39,-222.37"/>
<polygon fill="none" stroke="#404040" points="161.3,-222.21 154.82,-219.05 155.25,-211.85 161.73,-215.02 161.3,-222.21"/>
<text text-anchor="middle" x="178" y="-233" font-family="Helvetica,sans-Serif" font-size="10.00"> &#45;is</text>
</g>
<!-- Node4 -->
<g id="node4" class="node">
<title>Node4</title>
<g id="a_node4"><a xlink:title="STL class.">
<polygon fill="white" stroke="#bfbfbf" points="159,-398.5 159,-466.5 265,-466.5 265,-398.5 159,-398.5"/>
<text text-anchor="start" x="167" y="-454.5" font-family="Helvetica,sans-Serif" font-size="10.00">std::basic_istream</text>
<text text-anchor="middle" x="212" y="-443.5" font-family="Helvetica,sans-Serif" font-size="10.00">&lt; char &gt;</text>
<polyline fill="none" stroke="#bfbfbf" points="159,-436.5 265,-436.5 "/>
<text text-anchor="middle" x="212" y="-424.5" font-family="Helvetica,sans-Serif" font-size="10.00"> </text>
<polyline fill="none" stroke="#bfbfbf" points="159,-417.5 265,-417.5 "/>
<text text-anchor="middle" x="212" y="-405.5" font-family="Helvetica,sans-Serif" font-size="10.00"> </text>
</a>
</g>
</g>
<!-- Node4&#45;&gt;Node3 -->
<g id="edge3" class="edge">
<title>Node4&#45;&gt;Node3</title>
<path fill="none" stroke="midnightblue" d="M212,-387.82C212,-371.48 212,-353.37 212,-338.84"/>
<polygon fill="none" stroke="midnightblue" points="208.5,-388.25 212,-398.25 215.5,-388.25 208.5,-388.25"/>
</g>
<!-- Node5 -->
<g id="node5" class="node">
<title>Node5</title>
<g id="a_node5"><a xlink:title="STL class.">
<polygon fill="white" stroke="#bfbfbf" points="148,-504.5 148,-561.5 276,-561.5 276,-504.5 148,-504.5"/>
<text text-anchor="middle" x="212" y="-549.5" font-family="Helvetica,sans-Serif" font-size="10.00">std::basic_ios&lt; Char &gt;</text>
<polyline fill="none" stroke="#bfbfbf" points="148,-542.5 276,-542.5 "/>
<text text-anchor="middle" x="212" y="-530.5" font-family="Helvetica,sans-Serif" font-size="10.00"> </text>
<polyline fill="none" stroke="#bfbfbf" points="148,-523.5 276,-523.5 "/>
<text text-anchor="middle" x="212" y="-511.5" font-family="Helvetica,sans-Serif" font-size="10.00"> </text>
</a>
</g>
</g>
<!-- Node5&#45;&gt;Node4 -->
<g id="edge4" class="edge">
<title>Node5&#45;&gt;Node4</title>
<path fill="none" stroke="midnightblue" d="M212,-494.01C212,-484.96 212,-475.38 212,-466.58"/>
<polygon fill="none" stroke="midnightblue" points="208.5,-494.3 212,-504.3 215.5,-494.3 208.5,-494.3"/>
</g>
<!-- Node6 -->
<g id="node6" class="node">
<title>Node6</title>
<g id="a_node6"><a xlink:title="STL class.">
<polygon fill="white" stroke="#bfbfbf" points="172,-599.5 172,-656.5 252,-656.5 252,-599.5 172,-599.5"/>
<text text-anchor="middle" x="212" y="-644.5" font-family="Helvetica,sans-Serif" font-size="10.00">std::ios_base</text>
<polyline fill="none" stroke="#bfbfbf" points="172,-637.5 252,-637.5 "/>
<text text-anchor="middle" x="212" y="-625.5" font-family="Helvetica,sans-Serif" font-size="10.00"> </text>
<polyline fill="none" stroke="#bfbfbf" points="172,-618.5 252,-618.5 "/>
<text text-anchor="middle" x="212" y="-606.5" font-family="Helvetica,sans-Serif" font-size="10.00"> </text>
</a>
</g>
</g>
<!-- Node6&#45;&gt;Node5 -->
<g id="edge5" class="edge">
<title>Node6&#45;&gt;Node5</title>
<path fill="none" stroke="midnightblue" d="M212,-589.24C212,-580.03 212,-570.35 212,-561.71"/>
<polygon fill="none" stroke="midnightblue" points="208.5,-589.35 212,-599.35 215.5,-589.35 208.5,-589.35"/>
</g>
</g>
</svg>
        <g id="navigator" transform="translate(0 0)" fill="#404254">
                <rect fill="#f2f5e9" fill-opacity="0.5" stroke="#606060" stroke-width=".5" x="0" y="0" width="60" height="60"/>
                <use id="zoomplus" xlink:href="#zoomPlus" x="17" y="9" onmousedown="handleZoom(evt,'in')"/>
                <use id="zoomminus" xlink:href="#zoomMin" x="42" y="9" onmousedown="handleZoom(evt,'out')"/>
                <use id="reset" xlink:href="#resetDef" x="30" y="36" onmousedown="handleReset()"/>
                <g id="arrowUp" xlink:href="#dirArrow" transform="translate(30 24)" onmousedown="handlePan(0,-1)">
                  <use xlink:href="#rim" fill="#404040">
                        <set attributeName="fill" to="#808080" begin="arrowUp.mouseover" end="arrowUp.mouseout"/>
                  </use>
                  <path fill="none" stroke="white" stroke-width="1.5" d="M0,-3.0v7 M-2.5,-0.5L0,-3.0L2.5,-0.5"/>
                </g>
                <g id="arrowRight" xlink:href="#dirArrow" transform="rotate(90) translate(36 -43)" onmousedown="handlePan(1,0)">
                  <use xlink:href="#rim" fill="#404040">
                        <set attributeName="fill" to="#808080" begin="arrowRight.mouseover" end="arrowRight.mouseout"/>
                  </use>
                  <path fill="none" stroke="white" stroke-width="1.5" d="M0,-3.0v7 M-2.5,-0.5L0,-3.0L2.5,-0.5"/>
                </g>
                <g id="arrowDown" xlink:href="#dirArrow" transform="rotate(180) translate(-30 -48)" onmousedown="handlePan(0,1)">
                  <use xlink:href="#rim" fill="#404040">
                        <set attributeName="fill" to="#808080" begin="arrowDown.mouseover" end="arrowDown.mouseout"/>
                  </use>
                  <path fill="none" stroke="white" stroke-width="1.5" d="M0,-3.0v7 M-2.5,-0.5L0,-3.0L2.5,-0.5"/>
                </g>
                <g id="arrowLeft" xlink:href="#dirArrow" transform="rotate(270) translate(-36 17)" onmousedown="handlePan(-1,0)">
                  <use xlink:href="#rim" fill="#404040">
                        <set attributeName="fill" to="#808080" begin="arrowLeft.mouseover" end="arrowLeft.mouseout"/>
                  </use>
                  <path fill="none" stroke="white" stroke-width="1.5" d="M0,-3.0v7 M-2.5,-0.5L0,-3.0L2.5,-0.5"/>
                </g>
        </g>
        <svg viewBox="0 0 15 15" width="100%" height="30px" preserveAspectRatio="xMaxYMin meet">
         <g id="arrow_out" transform="scale(0.3 0.3)">
          <a xlink:href="classnlohmann_1_1detail_1_1input__stream__adapter__coll__graph_org.svg" target="_base">
           <rect id="button" ry="5" rx="5" y="6" x="6" height="38" width="38"
                fill="#f2f5e9" fill-opacity="0.5" stroke="#606060" stroke-width="1.0"/>
           <path id="arrow"
             d="M 11.500037,31.436501 C 11.940474,20.09759 22.043105,11.32322 32.158766,21.979434 L 37.068811,17.246167 C 37.068811,17.246167 37.088388,32 37.088388,32 L 22.160133,31.978069 C 22.160133,31.978069 26.997745,27.140456 26.997745,27.140456 C 18.528582,18.264221 13.291696,25.230495 11.500037,31.436501 z"
             style="fill:#404040;"/>
          </a>
         </g>
        </svg>
</svg>
