<?xml version="1.0" encoding="UTF-8" standalone="no"?>
<!DOCTYPE svg PUBLIC "-//W3C//DTD SVG 1.1//EN"
 "http://www.w3.org/Graphics/SVG/1.1/DTD/svg11.dtd">
<!-- Generated by graphviz version 2.43.0 (0)
 -->
<!-- Title: fuzzer::Fuzzer::ReportNewCoverage Pages: 1 -->
<!--zoomable 753 -->
<svg id="main" version="1.1" xmlns="http://www.w3.org/2000/svg" xmlns:xlink="http://www.w3.org/1999/xlink" xml:space="preserve" onload="init(evt)">
<style type="text/css"><![CDATA[
.edge:hover path { stroke: red; }
.edge:hover polygon { stroke: red; fill: red; }
]]></style>
<script type="text/javascript"><![CDATA[
var edges = document.getElementsByTagName('g');
if (edges && edges.length) {
  for (var i=0;i<edges.length;i++) {
    if (edges[i].id.substr(0,4)=='edge') {
      edges[i].setAttribute('class','edge');
    }
  }
}
]]></script>
        <defs>
                <circle id="rim" cx="0" cy="0" r="7"/>
                <circle id="rim2" cx="0" cy="0" r="3.5"/>
                <g id="zoomPlus">
                        <use xlink:href="#rim" fill="#404040">
                                <set attributeName="fill" to="#808080" begin="zoomplus.mouseover" end="zoomplus.mouseout"/>
                        </use>
                        <path d="M-4,0h8M0,-4v8" fill="none" stroke="white" stroke-width="1.5" pointer-events="none"/>
                </g>
                <g id="zoomMin">
                        <use xlink:href="#rim" fill="#404040">
                                <set attributeName="fill" to="#808080" begin="zoomminus.mouseover" end="zoomminus.mouseout"/>
                        </use>
                        <path d="M-4,0h8" fill="none" stroke="white" stroke-width="1.5" pointer-events="none"/>
                </g>
                <g id="dirArrow">
                        <path fill="none" stroke="white" stroke-width="1.5" d="M0,-3.0v7 M-2.5,-0.5L0,-3.0L2.5,-0.5"/>
                </g>
               <g id="resetDef">
                       <use xlink:href="#rim2" fill="#404040">
                               <set attributeName="fill" to="#808080" begin="reset.mouseover" end="reset.mouseout"/>
                       </use>
               </g>
        </defs>

<script type="text/javascript">
var viewWidth = 1077;
var viewHeight = 753;
var sectionId = 'dynsection-48';
</script>
<script xlink:href="svgpan.js"/>
<svg id="graph" class="graph">
<g id="viewport">
<title>fuzzer::Fuzzer::ReportNewCoverage</title>
<polygon fill="white" stroke="transparent" points="-4,4 -4,-749 1073,-749 1073,4 -4,4"/>
<!-- Node1 -->
<g id="node1" class="node">
<title>Node1</title>
<g id="a_node1"><a xlink:title=" ">
<polygon fill="#bfbfbf" stroke="black" points="0,-496 0,-526 144,-526 144,-496 0,-496"/>
<text text-anchor="start" x="8" y="-514" font-family="Helvetica,sans-Serif" font-size="10.00">fuzzer::Fuzzer::ReportNew</text>
<text text-anchor="middle" x="72" y="-503" font-family="Helvetica,sans-Serif" font-size="10.00">Coverage</text>
</a>
</g>
</g>
<!-- Node2 -->
<g id="node2" class="node">
<title>Node2</title>
<g id="a_node2"><a xlink:href="classfuzzer_1_1TracePC.html#a931f7014f06e06d35313b5565eb2a3a1" target="_top" xlink:title=" ">
<polygon fill="white" stroke="black" points="199.5,-611.5 199.5,-630.5 359.5,-630.5 359.5,-611.5 199.5,-611.5"/>
<text text-anchor="middle" x="279.5" y="-618.5" font-family="Helvetica,sans-Serif" font-size="10.00">fuzzer::TracePC::PrintNewPCs</text>
</a>
</g>
</g>
<!-- Node1&#45;&gt;Node2 -->
<g id="edge1" class="edge">
<title>Node1&#45;&gt;Node2</title>
<path fill="none" stroke="midnightblue" d="M101.14,-526.06C140.77,-547.27 212.5,-585.67 251.5,-606.55"/>
<polygon fill="midnightblue" stroke="midnightblue" points="250.2,-609.82 260.67,-611.45 253.5,-603.65 250.2,-609.82"/>
</g>
<!-- Node8 -->
<g id="node8" class="node">
<title>Node8</title>
<g id="a_node8"><a xlink:href="classfuzzer_1_1Fuzzer.html#ac7f5f2abe2e381509015eae6bb588410" target="_top" xlink:title=" ">
<polygon fill="white" stroke="black" points="208,-518 208,-548 351,-548 351,-518 208,-518"/>
<text text-anchor="start" x="216" y="-536" font-family="Helvetica,sans-Serif" font-size="10.00">fuzzer::Fuzzer::PrintStatus</text>
<text text-anchor="middle" x="279.5" y="-525" font-family="Helvetica,sans-Serif" font-size="10.00">ForNewUnit</text>
</a>
</g>
</g>
<!-- Node1&#45;&gt;Node8 -->
<g id="edge7" class="edge">
<title>Node1&#45;&gt;Node8</title>
<path fill="none" stroke="midnightblue" d="M144.01,-518.6C161.27,-520.45 179.86,-522.44 197.54,-524.33"/>
<polygon fill="midnightblue" stroke="midnightblue" points="197.52,-527.85 207.84,-525.43 198.27,-520.89 197.52,-527.85"/>
</g>
<!-- Node25 -->
<g id="node25" class="node">
<title>Node25</title>
<g id="a_node25"><a xlink:href="classfuzzer_1_1MutationDispatcher.html#a166dc5df2b854118c2930fc5745dfde7" target="_top" xlink:title="Indicate that the current sequence of mutations was successfull.">
<polygon fill="white" stroke="black" points="180,-430 180,-460 379,-460 379,-430 180,-430"/>
<text text-anchor="start" x="188" y="-448" font-family="Helvetica,sans-Serif" font-size="10.00">fuzzer::MutationDispatcher</text>
<text text-anchor="middle" x="279.5" y="-437" font-family="Helvetica,sans-Serif" font-size="10.00">::RecordSuccessfulMutationSequence</text>
</a>
</g>
</g>
<!-- Node1&#45;&gt;Node25 -->
<g id="edge28" class="edge">
<title>Node1&#45;&gt;Node25</title>
<path fill="none" stroke="midnightblue" d="M116.9,-495.91C136.21,-489.36 159.19,-481.67 180,-475 192.41,-471.02 205.75,-466.88 218.47,-462.98"/>
<polygon fill="midnightblue" stroke="midnightblue" points="219.51,-466.32 228.05,-460.06 217.46,-459.63 219.51,-466.32"/>
</g>
<!-- Node26 -->
<g id="node26" class="node">
<title>Node26</title>
<g id="a_node26"><a xlink:href="classfuzzer_1_1Fuzzer.html#ad2a2044a0a3a8f283e9113544888372a" target="_top" xlink:title=" ">
<polygon fill="white" stroke="black" points="415,-109 415,-139 575,-139 575,-109 415,-109"/>
<text text-anchor="start" x="423" y="-127" font-family="Helvetica,sans-Serif" font-size="10.00">fuzzer::Fuzzer::WriteToOutput</text>
<text text-anchor="middle" x="495" y="-116" font-family="Helvetica,sans-Serif" font-size="10.00">Corpus</text>
</a>
</g>
</g>
<!-- Node1&#45;&gt;Node26 -->
<g id="edge29" class="edge">
<title>Node1&#45;&gt;Node26</title>
<path fill="none" stroke="midnightblue" d="M144.32,-509.98C223.37,-507.4 344.32,-498.71 379,-470 430.25,-427.57 474.87,-221.53 489.2,-149.18"/>
<polygon fill="midnightblue" stroke="midnightblue" points="492.68,-149.62 491.16,-139.13 485.81,-148.28 492.68,-149.62"/>
</g>
<!-- Node3 -->
<g id="node3" class="node">
<title>Node3</title>
<g id="a_node3"><a xlink:href="classfuzzer_1_1TracePC.html#a29c324a4bb01920cc5e6d322c112fea3" target="_top" xlink:title=" ">
<polygon fill="white" stroke="black" points="806,-589.5 806,-608.5 962,-608.5 962,-589.5 806,-589.5"/>
<text text-anchor="middle" x="884" y="-596.5" font-family="Helvetica,sans-Serif" font-size="10.00">fuzzer::TracePC::GetNumPCs</text>
</a>
</g>
</g>
<!-- Node2&#45;&gt;Node3 -->
<g id="edge2" class="edge">
<title>Node2&#45;&gt;Node3</title>
<path fill="none" stroke="midnightblue" d="M334.6,-630.51C425.38,-644.83 613.78,-667.46 770,-640 799.54,-634.81 831.53,-622.52 853.91,-612.74"/>
<polygon fill="midnightblue" stroke="midnightblue" points="855.47,-615.88 863.17,-608.6 852.61,-609.49 855.47,-615.88"/>
</g>
<!-- Node5 -->
<g id="node5" class="node">
<title>Node5</title>
<g id="a_node5"><a xlink:href="namespacefuzzer.html#a3efbc0ecb31fa4aa9963af7fe3e580e9" target="_top" xlink:title=" ">
<polygon fill="white" stroke="black" points="451,-611.5 451,-630.5 539,-630.5 539,-611.5 451,-611.5"/>
<text text-anchor="middle" x="495" y="-618.5" font-family="Helvetica,sans-Serif" font-size="10.00">fuzzer::PrintPC</text>
</a>
</g>
</g>
<!-- Node2&#45;&gt;Node5 -->
<g id="edge4" class="edge">
<title>Node2&#45;&gt;Node5</title>
<path fill="none" stroke="midnightblue" d="M359.7,-621C386.69,-621 416.22,-621 440.69,-621"/>
<polygon fill="midnightblue" stroke="midnightblue" points="440.85,-624.5 450.85,-621 440.85,-617.5 440.85,-624.5"/>
</g>
<!-- Node4 -->
<g id="node4" class="node">
<title>Node4</title>
<g id="a_node4"><a xlink:href="namespacefuzzer.html#a5d55e117eab080df334785a11032f9a1" target="_top" xlink:title=" ">
<polygon fill="white" stroke="black" points="998,-589.5 998,-608.5 1069,-608.5 1069,-589.5 998,-589.5"/>
<text text-anchor="middle" x="1033.5" y="-596.5" font-family="Helvetica,sans-Serif" font-size="10.00">fuzzer::Min</text>
</a>
</g>
</g>
<!-- Node3&#45;&gt;Node4 -->
<g id="edge3" class="edge">
<title>Node3&#45;&gt;Node4</title>
<path fill="none" stroke="midnightblue" d="M962.21,-599C971.03,-599 979.78,-599 987.97,-599"/>
<polygon fill="midnightblue" stroke="midnightblue" points="987.99,-602.5 997.99,-599 987.99,-595.5 987.99,-602.5"/>
</g>
<!-- Node6 -->
<g id="node6" class="node">
<title>Node6</title>
<g id="a_node6"><a xlink:href="namespacefuzzer.html#afb090b7fbbc2b7c81ecbc1f9c8680a73" target="_top" xlink:title=" ">
<polygon fill="white" stroke="black" points="636.5,-725.5 636.5,-744.5 744.5,-744.5 744.5,-725.5 636.5,-725.5"/>
<text text-anchor="middle" x="690.5" y="-732.5" font-family="Helvetica,sans-Serif" font-size="10.00">fuzzer::DescribePC</text>
</a>
</g>
</g>
<!-- Node5&#45;&gt;Node6 -->
<g id="edge5" class="edge">
<title>Node5&#45;&gt;Node6</title>
<path fill="none" stroke="midnightblue" d="M504.78,-630.76C522.75,-650.11 565.84,-693.4 611,-716 615.94,-718.47 621.21,-720.63 626.61,-722.52"/>
<polygon fill="midnightblue" stroke="midnightblue" points="625.8,-725.93 636.39,-725.63 627.92,-719.26 625.8,-725.93"/>
</g>
<!-- Node7 -->
<g id="node7" class="node">
<title>Node7</title>
<g id="a_node7"><a xlink:href="namespacefuzzer.html#afab785891fdb74f8fd33bca421bde935" target="_top" xlink:title=" ">
<polygon fill="white" stroke="black" points="651,-611.5 651,-630.5 730,-630.5 730,-611.5 651,-611.5"/>
<text text-anchor="middle" x="690.5" y="-618.5" font-family="Helvetica,sans-Serif" font-size="10.00">fuzzer::Printf</text>
</a>
</g>
</g>
<!-- Node5&#45;&gt;Node7 -->
<g id="edge6" class="edge">
<title>Node5&#45;&gt;Node7</title>
<path fill="none" stroke="midnightblue" d="M539.43,-621C569.46,-621 609.46,-621 640.61,-621"/>
<polygon fill="midnightblue" stroke="midnightblue" points="640.81,-624.5 650.81,-621 640.81,-617.5 640.81,-624.5"/>
</g>
<!-- Node8&#45;&gt;Node7 -->
<g id="edge8" class="edge">
<title>Node8&#45;&gt;Node7</title>
<path fill="none" stroke="midnightblue" d="M351.17,-521.83C413.91,-515.47 506.06,-515.12 575,-553 598.68,-566.01 588.5,-587.03 611,-602 619.93,-607.95 630.54,-612.04 641.03,-614.85"/>
<polygon fill="midnightblue" stroke="midnightblue" points="640.45,-618.31 650.98,-617.17 642.04,-611.49 640.45,-618.31"/>
</g>
<!-- Node9 -->
<g id="node9" class="node">
<title>Node9</title>
<g id="a_node9"><a xlink:href="classfuzzer_1_1MutationDispatcher.html#a44df135b1a9bc2bd967cb1e536c36431" target="_top" xlink:title="Print the current sequence of mutations.">
<polygon fill="white" stroke="black" points="420.5,-562 420.5,-592 569.5,-592 569.5,-562 420.5,-562"/>
<text text-anchor="start" x="428.5" y="-580" font-family="Helvetica,sans-Serif" font-size="10.00">fuzzer::MutationDispatcher</text>
<text text-anchor="middle" x="495" y="-569" font-family="Helvetica,sans-Serif" font-size="10.00">::PrintMutationSequence</text>
</a>
</g>
</g>
<!-- Node8&#45;&gt;Node9 -->
<g id="edge9" class="edge">
<title>Node8&#45;&gt;Node9</title>
<path fill="none" stroke="midnightblue" d="M351.3,-547.59C370.51,-551.55 391.48,-555.87 411.28,-559.95"/>
<polygon fill="midnightblue" stroke="midnightblue" points="410.7,-563.41 421.2,-562 412.12,-556.55 410.7,-563.41"/>
</g>
<!-- Node13 -->
<g id="node13" class="node">
<title>Node13</title>
<g id="a_node13"><a xlink:href="classfuzzer_1_1Fuzzer.html#a8f5aa23c9773c86b0b57362a36c81247" target="_top" xlink:title=" ">
<polygon fill="white" stroke="black" points="426.5,-425.5 426.5,-444.5 563.5,-444.5 563.5,-425.5 426.5,-425.5"/>
<text text-anchor="middle" x="495" y="-432.5" font-family="Helvetica,sans-Serif" font-size="10.00">fuzzer::Fuzzer::PrintStats</text>
</a>
</g>
</g>
<!-- Node8&#45;&gt;Node13 -->
<g id="edge14" class="edge">
<title>Node8&#45;&gt;Node13</title>
<path fill="none" stroke="midnightblue" d="M338.11,-517.97C351.75,-513.73 366.08,-508.69 379,-503 412.77,-488.13 448.98,-465.48 471.55,-450.46"/>
<polygon fill="midnightblue" stroke="midnightblue" points="473.73,-453.22 480.07,-444.73 469.82,-447.41 473.73,-453.22"/>
</g>
<!-- Node9&#45;&gt;Node7 -->
<g id="edge13" class="edge">
<title>Node9&#45;&gt;Node7</title>
<path fill="none" stroke="midnightblue" d="M562.05,-592.02C587.92,-597.9 617.05,-604.52 640.92,-609.95"/>
<polygon fill="midnightblue" stroke="midnightblue" points="640.28,-613.4 650.81,-612.2 641.83,-606.57 640.28,-613.4"/>
</g>
<!-- Node10 -->
<g id="node10" class="node">
<title>Node10</title>
<g id="a_node10"><a xlink:href="namespacefuzzer.html#a9745d98c9dbd0f6cf52f2a71ebf3f778" target="_top" xlink:title=" ">
<polygon fill="white" stroke="black" points="640,-687.5 640,-706.5 741,-706.5 741,-687.5 640,-687.5"/>
<text text-anchor="middle" x="690.5" y="-694.5" font-family="Helvetica,sans-Serif" font-size="10.00">fuzzer::PrintASCII</text>
</a>
</g>
</g>
<!-- Node9&#45;&gt;Node10 -->
<g id="edge10" class="edge">
<title>Node9&#45;&gt;Node10</title>
<path fill="none" stroke="midnightblue" d="M555.29,-592.1C562.18,-594.9 568.9,-598.18 575,-602 594.72,-614.35 593.51,-624.66 611,-640 628.62,-655.47 650.3,-670.97 666.4,-681.89"/>
<polygon fill="midnightblue" stroke="midnightblue" points="664.46,-684.8 674.71,-687.46 668.35,-678.99 664.46,-684.8"/>
</g>
<!-- Node11 -->
<g id="node11" class="node">
<title>Node11</title>
<g id="a_node11"><a xlink:href="classfuzzer_1_1FixedWord.html#a14fbd18b5b0868f5d7f2d50a85d0b09e" target="_top" xlink:title=" ">
<polygon fill="white" stroke="black" points="818.5,-668.5 818.5,-687.5 949.5,-687.5 949.5,-668.5 818.5,-668.5"/>
<text text-anchor="middle" x="884" y="-675.5" font-family="Helvetica,sans-Serif" font-size="10.00">fuzzer::FixedWord::data</text>
</a>
</g>
</g>
<!-- Node10&#45;&gt;Node11 -->
<g id="edge11" class="edge">
<title>Node10&#45;&gt;Node11</title>
<path fill="none" stroke="midnightblue" d="M741.31,-692.06C761.69,-690.04 785.7,-687.65 808.11,-685.43"/>
<polygon fill="midnightblue" stroke="midnightblue" points="808.67,-688.89 818.27,-684.42 807.97,-681.93 808.67,-688.89"/>
</g>
<!-- Node12 -->
<g id="node12" class="node">
<title>Node12</title>
<g id="a_node12"><a xlink:href="classfuzzer_1_1FixedWord.html#a97ffcbd9ec743adabd6bdf85f0911e53" target="_top" xlink:title=" ">
<polygon fill="white" stroke="black" points="819.5,-706.5 819.5,-725.5 948.5,-725.5 948.5,-706.5 819.5,-706.5"/>
<text text-anchor="middle" x="884" y="-713.5" font-family="Helvetica,sans-Serif" font-size="10.00">fuzzer::FixedWord::size</text>
</a>
</g>
</g>
<!-- Node10&#45;&gt;Node12 -->
<g id="edge12" class="edge">
<title>Node10&#45;&gt;Node12</title>
<path fill="none" stroke="midnightblue" d="M741.31,-701.94C762.07,-704 786.6,-706.44 809.36,-708.69"/>
<polygon fill="midnightblue" stroke="midnightblue" points="809.04,-712.18 819.34,-709.68 809.73,-705.21 809.04,-712.18"/>
</g>
<!-- Node13&#45;&gt;Node7 -->
<g id="edge25" class="edge">
<title>Node13&#45;&gt;Node7</title>
<path fill="none" stroke="midnightblue" d="M507.24,-444.61C523.84,-459.27 555.08,-488.73 575,-519 597.1,-552.59 580.23,-576.11 611,-602 619.46,-609.12 630.16,-613.66 640.91,-616.52"/>
<polygon fill="midnightblue" stroke="midnightblue" points="640.22,-619.96 650.74,-618.72 641.74,-613.12 640.22,-619.96"/>
</g>
<!-- Node14 -->
<g id="node14" class="node">
<title>Node14</title>
<g id="a_node14"><a xlink:href="classfuzzer_1_1InputCorpus.html#a47f292603c1bc491e0f8c9f9131fb5c7" target="_top" xlink:title=" ">
<polygon fill="white" stroke="black" points="635,-464 635,-494 746,-494 746,-464 635,-464"/>
<text text-anchor="start" x="643" y="-482" font-family="Helvetica,sans-Serif" font-size="10.00">fuzzer::InputCorpus</text>
<text text-anchor="middle" x="690.5" y="-471" font-family="Helvetica,sans-Serif" font-size="10.00">::empty</text>
</a>
</g>
</g>
<!-- Node13&#45;&gt;Node14 -->
<g id="edge15" class="edge">
<title>Node13&#45;&gt;Node14</title>
<path fill="none" stroke="midnightblue" d="M537.99,-444.55C563.34,-450.31 596.18,-457.78 624.8,-464.29"/>
<polygon fill="midnightblue" stroke="midnightblue" points="624.2,-467.74 634.72,-466.54 625.75,-460.91 624.2,-467.74"/>
</g>
<!-- Node15 -->
<g id="node15" class="node">
<title>Node15</title>
<g id="a_node15"><a xlink:href="classfuzzer_1_1Fuzzer.html#aa88607925eeffcf7d373ac58e767d7d5" target="_top" xlink:title=" ">
<polygon fill="white" stroke="black" points="617.5,-425.5 617.5,-444.5 763.5,-444.5 763.5,-425.5 617.5,-425.5"/>
<text text-anchor="middle" x="690.5" y="-432.5" font-family="Helvetica,sans-Serif" font-size="10.00">fuzzer::Fuzzer::execPerSec</text>
</a>
</g>
</g>
<!-- Node13&#45;&gt;Node15 -->
<g id="edge16" class="edge">
<title>Node13&#45;&gt;Node15</title>
<path fill="none" stroke="midnightblue" d="M563.68,-435C577.62,-435 592.45,-435 606.86,-435"/>
<polygon fill="midnightblue" stroke="midnightblue" points="607.25,-438.5 617.25,-435 607.25,-431.5 607.25,-438.5"/>
</g>
<!-- Node16 -->
<g id="node16" class="node">
<title>Node16</title>
<g id="a_node16"><a xlink:href="structfuzzer_1_1ValueBitMap.html#a9a08a418bc1f5db612aea10ca6d8a587" target="_top" xlink:title=" ">
<polygon fill="white" stroke="black" points="611,-376 611,-406 770,-406 770,-376 611,-376"/>
<text text-anchor="start" x="619" y="-394" font-family="Helvetica,sans-Serif" font-size="10.00">fuzzer::ValueBitMap</text>
<text text-anchor="middle" x="690.5" y="-383" font-family="Helvetica,sans-Serif" font-size="10.00">::GetNumBitsSinceLastMerge</text>
</a>
</g>
</g>
<!-- Node13&#45;&gt;Node16 -->
<g id="edge17" class="edge">
<title>Node13&#45;&gt;Node16</title>
<path fill="none" stroke="midnightblue" d="M537.99,-425.45C559.97,-420.45 587.57,-414.18 613.17,-408.36"/>
<polygon fill="midnightblue" stroke="midnightblue" points="614.27,-411.7 623.25,-406.07 612.72,-404.87 614.27,-411.7"/>
</g>
<!-- Node17 -->
<g id="node17" class="node">
<title>Node17</title>
<g id="a_node17"><a xlink:href="namespacefuzzer.html#a68e55a0d2097c32deccec92e71c73048" target="_top" xlink:title=" ">
<polygon fill="white" stroke="black" points="626.5,-190.5 626.5,-209.5 754.5,-209.5 754.5,-190.5 626.5,-190.5"/>
<text text-anchor="middle" x="690.5" y="-197.5" font-family="Helvetica,sans-Serif" font-size="10.00">fuzzer::GetPeakRSSMb</text>
</a>
</g>
</g>
<!-- Node13&#45;&gt;Node17 -->
<g id="edge18" class="edge">
<title>Node13&#45;&gt;Node17</title>
<path fill="none" stroke="midnightblue" d="M498.16,-425.5C506.34,-391.74 538.69,-276.65 611,-220 613.94,-217.7 617.12,-215.66 620.45,-213.85"/>
<polygon fill="midnightblue" stroke="midnightblue" points="621.99,-216.99 629.57,-209.59 619.03,-210.65 621.99,-216.99"/>
</g>
<!-- Node19 -->
<g id="node19" class="node">
<title>Node19</title>
<g id="a_node19"><a xlink:href="classfuzzer_1_1TracePC.html#a888cf0015b8ac746350399865731e503" target="_top" xlink:title=" ">
<polygon fill="white" stroke="black" points="621.5,-562 621.5,-592 759.5,-592 759.5,-562 621.5,-562"/>
<text text-anchor="start" x="629.5" y="-580" font-family="Helvetica,sans-Serif" font-size="10.00">fuzzer::TracePC::GetTotal</text>
<text text-anchor="middle" x="690.5" y="-569" font-family="Helvetica,sans-Serif" font-size="10.00">PCCoverage</text>
</a>
</g>
</g>
<!-- Node13&#45;&gt;Node19 -->
<g id="edge20" class="edge">
<title>Node13&#45;&gt;Node19</title>
<path fill="none" stroke="midnightblue" d="M504.92,-444.68C529.66,-471.49 598.24,-545.22 611,-553 613.8,-554.71 616.73,-556.3 619.74,-557.79"/>
<polygon fill="midnightblue" stroke="midnightblue" points="618.44,-561.04 628.99,-561.94 621.3,-554.65 618.44,-561.04"/>
</g>
<!-- Node20 -->
<g id="node20" class="node">
<title>Node20</title>
<g id="a_node20"><a xlink:href="classfuzzer_1_1InputCorpus.html#aeced0e36172d275d60e6b3aab7e176e6" target="_top" xlink:title=" ">
<polygon fill="white" stroke="black" points="635,-327 635,-357 746,-357 746,-327 635,-327"/>
<text text-anchor="start" x="643" y="-345" font-family="Helvetica,sans-Serif" font-size="10.00">fuzzer::InputCorpus</text>
<text text-anchor="middle" x="690.5" y="-334" font-family="Helvetica,sans-Serif" font-size="10.00">::NumActiveUnits</text>
</a>
</g>
</g>
<!-- Node13&#45;&gt;Node20 -->
<g id="edge22" class="edge">
<title>Node13&#45;&gt;Node20</title>
<path fill="none" stroke="midnightblue" d="M509.96,-425.33C531.06,-411.05 572.69,-384.16 611,-367 616.06,-364.73 621.38,-362.58 626.78,-360.56"/>
<polygon fill="midnightblue" stroke="midnightblue" points="628.29,-363.73 636.53,-357.07 625.93,-357.15 628.29,-363.73"/>
</g>
<!-- Node21 -->
<g id="node21" class="node">
<title>Node21</title>
<g id="a_node21"><a xlink:href="classfuzzer_1_1InputCorpus.html#a9c696dfbff62d817a51d74cb0cae17fa" target="_top" xlink:title=" ">
<polygon fill="white" stroke="black" points="635,-229 635,-259 746,-259 746,-229 635,-229"/>
<text text-anchor="start" x="643" y="-247" font-family="Helvetica,sans-Serif" font-size="10.00">fuzzer::InputCorpus</text>
<text text-anchor="middle" x="690.5" y="-236" font-family="Helvetica,sans-Serif" font-size="10.00">::NumFeatures</text>
</a>
</g>
</g>
<!-- Node13&#45;&gt;Node21 -->
<g id="edge23" class="edge">
<title>Node13&#45;&gt;Node21</title>
<path fill="none" stroke="midnightblue" d="M499.9,-425.49C511.96,-397.23 551.52,-312.98 611,-269 615.46,-265.71 620.36,-262.83 625.48,-260.34"/>
<polygon fill="midnightblue" stroke="midnightblue" points="627.11,-263.44 634.87,-256.23 624.3,-257.03 627.11,-263.44"/>
</g>
<!-- Node23 -->
<g id="node23" class="node">
<title>Node23</title>
<g id="a_node23"><a xlink:href="classfuzzer_1_1InputCorpus.html#ac1fec5aeae69ce462d167a7b9e2d85e4" target="_top" xlink:title=" ">
<polygon fill="white" stroke="black" points="635,-278 635,-308 746,-308 746,-278 635,-278"/>
<text text-anchor="start" x="643" y="-296" font-family="Helvetica,sans-Serif" font-size="10.00">fuzzer::InputCorpus</text>
<text text-anchor="middle" x="690.5" y="-285" font-family="Helvetica,sans-Serif" font-size="10.00">::size</text>
</a>
</g>
</g>
<!-- Node13&#45;&gt;Node23 -->
<g id="edge26" class="edge">
<title>Node13&#45;&gt;Node23</title>
<path fill="none" stroke="midnightblue" d="M502.89,-425.27C519.15,-403.01 562.23,-347.98 611,-318 615.46,-315.26 620.24,-312.8 625.17,-310.58"/>
<polygon fill="midnightblue" stroke="midnightblue" points="626.86,-313.67 634.77,-306.62 624.19,-307.2 626.86,-313.67"/>
</g>
<!-- Node24 -->
<g id="node24" class="node">
<title>Node24</title>
<g id="a_node24"><a xlink:href="classfuzzer_1_1InputCorpus.html#a9a602fd6b54d45aed0ff4d99b10676d0" target="_top" xlink:title=" ">
<polygon fill="white" stroke="black" points="635,-513 635,-543 746,-543 746,-513 635,-513"/>
<text text-anchor="start" x="643" y="-531" font-family="Helvetica,sans-Serif" font-size="10.00">fuzzer::InputCorpus</text>
<text text-anchor="middle" x="690.5" y="-520" font-family="Helvetica,sans-Serif" font-size="10.00">::SizeInBytes</text>
</a>
</g>
</g>
<!-- Node13&#45;&gt;Node24 -->
<g id="edge27" class="edge">
<title>Node13&#45;&gt;Node24</title>
<path fill="none" stroke="midnightblue" d="M509.57,-444.65C530.49,-459.17 572.28,-486.78 611,-504 615.6,-506.05 620.43,-507.99 625.33,-509.81"/>
<polygon fill="midnightblue" stroke="midnightblue" points="624.22,-513.13 634.82,-513.17 626.56,-506.53 624.22,-513.13"/>
</g>
<!-- Node18 -->
<g id="node18" class="node">
<title>Node18</title>
<g id="a_node18"><a xlink:href="FuzzerTracePC_8cpp.html#a1f10ac78bd11294b612636121065eb5b" target="_top" xlink:title=" ">
<polygon fill="white" stroke="black" points="860.5,-171.5 860.5,-190.5 907.5,-190.5 907.5,-171.5 860.5,-171.5"/>
<text text-anchor="middle" x="884" y="-178.5" font-family="Helvetica,sans-Serif" font-size="10.00">assert</text>
</a>
</g>
</g>
<!-- Node17&#45;&gt;Node18 -->
<g id="edge19" class="edge">
<title>Node17&#45;&gt;Node18</title>
<path fill="none" stroke="midnightblue" d="M754.73,-193.73C786.72,-190.55 824.19,-186.84 850.34,-184.24"/>
<polygon fill="midnightblue" stroke="midnightblue" points="850.86,-187.71 860.46,-183.24 850.17,-180.74 850.86,-187.71"/>
</g>
<!-- Node19&#45;&gt;Node3 -->
<g id="edge21" class="edge">
<title>Node19&#45;&gt;Node3</title>
<path fill="none" stroke="midnightblue" d="M759.55,-584.82C771.23,-586.16 783.5,-587.57 795.6,-588.96"/>
<polygon fill="midnightblue" stroke="midnightblue" points="795.37,-592.46 805.7,-590.12 796.17,-585.5 795.37,-592.46"/>
</g>
<!-- Node22 -->
<g id="node22" class="node">
<title>Node22</title>
<g id="a_node22"><a xlink:href="classfuzzer_1_1InputCorpus.html#a72af33665b2df6c5668cec3fb3219cbb" target="_top" xlink:title=" ">
<polygon fill="white" stroke="black" points="828.5,-229 828.5,-259 939.5,-259 939.5,-229 828.5,-229"/>
<text text-anchor="start" x="836.5" y="-247" font-family="Helvetica,sans-Serif" font-size="10.00">fuzzer::InputCorpus</text>
<text text-anchor="middle" x="884" y="-236" font-family="Helvetica,sans-Serif" font-size="10.00">::GetFeature</text>
</a>
</g>
</g>
<!-- Node21&#45;&gt;Node22 -->
<g id="edge24" class="edge">
<title>Node21&#45;&gt;Node22</title>
<path fill="none" stroke="midnightblue" d="M746.12,-244C768.56,-244 794.72,-244 818.12,-244"/>
<polygon fill="midnightblue" stroke="midnightblue" points="818.31,-247.5 828.31,-244 818.31,-240.5 818.31,-247.5"/>
</g>
<!-- Node26&#45;&gt;Node7 -->
<g id="edge37" class="edge">
<title>Node26&#45;&gt;Node7</title>
<path fill="none" stroke="midnightblue" d="M500.51,-139.1C513.25,-182.11 550.22,-309.07 575,-416 594.01,-498.03 552.85,-541.1 611,-602 618.94,-610.31 629.84,-615.25 641,-618.12"/>
<polygon fill="midnightblue" stroke="midnightblue" points="640.3,-621.55 650.8,-620.15 641.72,-614.7 640.3,-621.55"/>
</g>
<!-- Node26&#45;&gt;Node18 -->
<g id="edge30" class="edge">
<title>Node26&#45;&gt;Node18</title>
<path fill="none" stroke="midnightblue" d="M575.14,-137.34C587.15,-139.29 599.4,-141.23 611,-143 697.25,-156.15 799.17,-169.91 850.29,-176.7"/>
<polygon fill="midnightblue" stroke="midnightblue" points="850.03,-180.19 860.4,-178.04 850.95,-173.26 850.03,-180.19"/>
</g>
<!-- Node27 -->
<g id="node27" class="node">
<title>Node27</title>
<g id="a_node27"><a xlink:href="namespacefuzzer.html#a874eb385b20be8a4df019f6ea8c5662b" target="_top" xlink:title=" ">
<polygon fill="white" stroke="black" points="638.5,-38.5 638.5,-57.5 742.5,-57.5 742.5,-38.5 638.5,-38.5"/>
<text text-anchor="middle" x="690.5" y="-45.5" font-family="Helvetica,sans-Serif" font-size="10.00">fuzzer::DirPlusFile</text>
</a>
</g>
</g>
<!-- Node26&#45;&gt;Node27 -->
<g id="edge31" class="edge">
<title>Node26&#45;&gt;Node27</title>
<path fill="none" stroke="midnightblue" d="M522.21,-108.9C545.05,-96.27 579.38,-78.5 611,-67 617.89,-64.5 625.23,-62.22 632.56,-60.19"/>
<polygon fill="midnightblue" stroke="midnightblue" points="633.72,-63.5 642.5,-57.57 631.94,-56.73 633.72,-63.5"/>
</g>
<!-- Node29 -->
<g id="node29" class="node">
<title>Node29</title>
<g id="a_node29"><a xlink:href="namespacefuzzer.html#abebfdee7cc880967073a09d61e12e182" target="_top" xlink:title=" ">
<polygon fill="white" stroke="black" points="652,-76.5 652,-95.5 729,-95.5 729,-76.5 652,-76.5"/>
<text text-anchor="middle" x="690.5" y="-83.5" font-family="Helvetica,sans-Serif" font-size="10.00">fuzzer::Hash</text>
</a>
</g>
</g>
<!-- Node26&#45;&gt;Node29 -->
<g id="edge33" class="edge">
<title>Node26&#45;&gt;Node29</title>
<path fill="none" stroke="midnightblue" d="M572.48,-108.98C595.9,-104.38 620.98,-99.46 641.89,-95.35"/>
<polygon fill="midnightblue" stroke="midnightblue" points="642.66,-98.77 651.8,-93.4 641.31,-91.9 642.66,-98.77"/>
</g>
<!-- Node32 -->
<g id="node32" class="node">
<title>Node32</title>
<g id="a_node32"><a xlink:href="namespacefuzzer.html#a161c125126cc7381a5f9b4202ed03dc1" target="_top" xlink:title=" ">
<polygon fill="white" stroke="black" points="647.5,-114.5 647.5,-133.5 733.5,-133.5 733.5,-114.5 647.5,-114.5"/>
<text text-anchor="middle" x="690.5" y="-121.5" font-family="Helvetica,sans-Serif" font-size="10.00">fuzzer::IsASCII</text>
</a>
</g>
</g>
<!-- Node26&#45;&gt;Node32 -->
<g id="edge36" class="edge">
<title>Node26&#45;&gt;Node32</title>
<path fill="none" stroke="midnightblue" d="M575.26,-124C596.13,-124 618.13,-124 637.18,-124"/>
<polygon fill="midnightblue" stroke="midnightblue" points="637.44,-127.5 647.44,-124 637.44,-120.5 637.44,-127.5"/>
</g>
<!-- Node33 -->
<g id="node33" class="node">
<title>Node33</title>
<g id="a_node33"><a xlink:href="namespacefuzzer.html#a55062839741b460271791a94c5ccedab" target="_top" xlink:title=" ">
<polygon fill="white" stroke="black" points="637.5,-0.5 637.5,-19.5 743.5,-19.5 743.5,-0.5 637.5,-0.5"/>
<text text-anchor="middle" x="690.5" y="-7.5" font-family="Helvetica,sans-Serif" font-size="10.00">fuzzer::WriteToFile</text>
</a>
</g>
</g>
<!-- Node26&#45;&gt;Node33 -->
<g id="edge38" class="edge">
<title>Node26&#45;&gt;Node33</title>
<path fill="none" stroke="midnightblue" d="M510.04,-108.66C530.28,-87.5 569.78,-49.63 611,-29 616.22,-26.39 621.82,-24.12 627.54,-22.16"/>
<polygon fill="midnightblue" stroke="midnightblue" points="628.72,-25.46 637.22,-19.14 626.64,-18.77 628.72,-25.46"/>
</g>
<!-- Node28 -->
<g id="node28" class="node">
<title>Node28</title>
<g id="a_node28"><a xlink:href="namespacefuzzer.html#aee6faff60741a0a94bccdce92887eec1" target="_top" xlink:title=" ">
<polygon fill="white" stroke="black" points="825.5,-38.5 825.5,-57.5 942.5,-57.5 942.5,-38.5 825.5,-38.5"/>
<text text-anchor="middle" x="884" y="-45.5" font-family="Helvetica,sans-Serif" font-size="10.00">fuzzer::GetSeparator</text>
</a>
</g>
</g>
<!-- Node27&#45;&gt;Node28 -->
<g id="edge32" class="edge">
<title>Node27&#45;&gt;Node28</title>
<path fill="none" stroke="midnightblue" d="M742.57,-48C764.87,-48 791.33,-48 815.24,-48"/>
<polygon fill="midnightblue" stroke="midnightblue" points="815.32,-51.5 825.32,-48 815.32,-44.5 815.32,-51.5"/>
</g>
<!-- Node30 -->
<g id="node30" class="node">
<title>Node30</title>
<g id="a_node30"><a xlink:href="namespacefuzzer.html#a315b24f5436223321f5dd87f04ad90fc" target="_top" xlink:title=" ">
<polygon fill="white" stroke="black" points="822.5,-114.5 822.5,-133.5 945.5,-133.5 945.5,-114.5 822.5,-114.5"/>
<text text-anchor="middle" x="884" y="-121.5" font-family="Helvetica,sans-Serif" font-size="10.00">fuzzer::ComputeSHA1</text>
</a>
</g>
</g>
<!-- Node29&#45;&gt;Node30 -->
<g id="edge34" class="edge">
<title>Node29&#45;&gt;Node30</title>
<path fill="none" stroke="midnightblue" d="M729.33,-93.51C756.68,-98.93 794.11,-106.36 825.19,-112.53"/>
<polygon fill="midnightblue" stroke="midnightblue" points="824.55,-115.97 835.04,-114.48 825.91,-109.1 824.55,-115.97"/>
</g>
<!-- Node31 -->
<g id="node31" class="node">
<title>Node31</title>
<g id="a_node31"><a xlink:href="namespacefuzzer.html#af169a5e81c6e590e4240ccfbb84b8b6a" target="_top" xlink:title=" ">
<polygon fill="white" stroke="black" points="826,-76.5 826,-95.5 942,-95.5 942,-76.5 826,-76.5"/>
<text text-anchor="middle" x="884" y="-83.5" font-family="Helvetica,sans-Serif" font-size="10.00">fuzzer::Sha1ToString</text>
</a>
</g>
</g>
<!-- Node29&#45;&gt;Node31 -->
<g id="edge35" class="edge">
<title>Node29&#45;&gt;Node31</title>
<path fill="none" stroke="midnightblue" d="M729.33,-86C754,-86 786.89,-86 815.9,-86"/>
<polygon fill="midnightblue" stroke="midnightblue" points="815.99,-89.5 825.99,-86 815.99,-82.5 815.99,-89.5"/>
</g>
</g>
</svg>
        <g id="navigator" transform="translate(0 0)" fill="#404254">
                <rect fill="#f2f5e9" fill-opacity="0.5" stroke="#606060" stroke-width=".5" x="0" y="0" width="60" height="60"/>
                <use id="zoomplus" xlink:href="#zoomPlus" x="17" y="9" onmousedown="handleZoom(evt,'in')"/>
                <use id="zoomminus" xlink:href="#zoomMin" x="42" y="9" onmousedown="handleZoom(evt,'out')"/>
                <use id="reset" xlink:href="#resetDef" x="30" y="36" onmousedown="handleReset()"/>
                <g id="arrowUp" xlink:href="#dirArrow" transform="translate(30 24)" onmousedown="handlePan(0,-1)">
                  <use xlink:href="#rim" fill="#404040">
                        <set attributeName="fill" to="#808080" begin="arrowUp.mouseover" end="arrowUp.mouseout"/>
                  </use>
                  <path fill="none" stroke="white" stroke-width="1.5" d="M0,-3.0v7 M-2.5,-0.5L0,-3.0L2.5,-0.5"/>
                </g>
                <g id="arrowRight" xlink:href="#dirArrow" transform="rotate(90) translate(36 -43)" onmousedown="handlePan(1,0)">
                  <use xlink:href="#rim" fill="#404040">
                        <set attributeName="fill" to="#808080" begin="arrowRight.mouseover" end="arrowRight.mouseout"/>
                  </use>
                  <path fill="none" stroke="white" stroke-width="1.5" d="M0,-3.0v7 M-2.5,-0.5L0,-3.0L2.5,-0.5"/>
                </g>
                <g id="arrowDown" xlink:href="#dirArrow" transform="rotate(180) translate(-30 -48)" onmousedown="handlePan(0,1)">
                  <use xlink:href="#rim" fill="#404040">
                        <set attributeName="fill" to="#808080" begin="arrowDown.mouseover" end="arrowDown.mouseout"/>
                  </use>
                  <path fill="none" stroke="white" stroke-width="1.5" d="M0,-3.0v7 M-2.5,-0.5L0,-3.0L2.5,-0.5"/>
                </g>
                <g id="arrowLeft" xlink:href="#dirArrow" transform="rotate(270) translate(-36 17)" onmousedown="handlePan(-1,0)">
                  <use xlink:href="#rim" fill="#404040">
                        <set attributeName="fill" to="#808080" begin="arrowLeft.mouseover" end="arrowLeft.mouseout"/>
                  </use>
                  <path fill="none" stroke="white" stroke-width="1.5" d="M0,-3.0v7 M-2.5,-0.5L0,-3.0L2.5,-0.5"/>
                </g>
        </g>
        <svg viewBox="0 0 15 15" width="100%" height="30px" preserveAspectRatio="xMaxYMin meet">
         <g id="arrow_out" transform="scale(0.3 0.3)">
          <a xlink:href="classfuzzer_1_1Fuzzer_a26b0af99479a986f0b3c67950085adf1_cgraph_org.svg" target="_base">
           <rect id="button" ry="5" rx="5" y="6" x="6" height="38" width="38"
                fill="#f2f5e9" fill-opacity="0.5" stroke="#606060" stroke-width="1.0"/>
           <path id="arrow"
             d="M 11.500037,31.436501 C 11.940474,20.09759 22.043105,11.32322 32.158766,21.979434 L 37.068811,17.246167 C 37.068811,17.246167 37.088388,32 37.088388,32 L 22.160133,31.978069 C 22.160133,31.978069 26.997745,27.140456 26.997745,27.140456 C 18.528582,18.264221 13.291696,25.230495 11.500037,31.436501 z"
             style="fill:#404040;"/>
          </a>
         </g>
        </svg>
</svg>
