<?xml version="1.0" encoding="UTF-8" standalone="no"?>
<!DOCTYPE svg PUBLIC "-//W3C//DTD SVG 1.1//EN"
 "http://www.w3.org/Graphics/SVG/1.1/DTD/svg11.dtd">
<!-- Generated by graphviz version 2.43.0 (0)
 -->
<!-- Title: nlohmann::detail::binary_reader::get_msgpack_object Pages: 1 -->
<!--zoomable 387 -->
<svg id="main" version="1.1" xmlns="http://www.w3.org/2000/svg" xmlns:xlink="http://www.w3.org/1999/xlink" xml:space="preserve" onload="init(evt)">
<style type="text/css"><![CDATA[
.edge:hover path { stroke: red; }
.edge:hover polygon { stroke: red; fill: red; }
]]></style>
<script type="text/javascript"><![CDATA[
var edges = document.getElementsByTagName('g');
if (edges && edges.length) {
  for (var i=0;i<edges.length;i++) {
    if (edges[i].id.substr(0,4)=='edge') {
      edges[i].setAttribute('class','edge');
    }
  }
}
]]></script>
        <defs>
                <circle id="rim" cx="0" cy="0" r="7"/>
                <circle id="rim2" cx="0" cy="0" r="3.5"/>
                <g id="zoomPlus">
                        <use xlink:href="#rim" fill="#404040">
                                <set attributeName="fill" to="#808080" begin="zoomplus.mouseover" end="zoomplus.mouseout"/>
                        </use>
                        <path d="M-4,0h8M0,-4v8" fill="none" stroke="white" stroke-width="1.5" pointer-events="none"/>
                </g>
                <g id="zoomMin">
                        <use xlink:href="#rim" fill="#404040">
                                <set attributeName="fill" to="#808080" begin="zoomminus.mouseover" end="zoomminus.mouseout"/>
                        </use>
                        <path d="M-4,0h8" fill="none" stroke="white" stroke-width="1.5" pointer-events="none"/>
                </g>
                <g id="dirArrow">
                        <path fill="none" stroke="white" stroke-width="1.5" d="M0,-3.0v7 M-2.5,-0.5L0,-3.0L2.5,-0.5"/>
                </g>
               <g id="resetDef">
                       <use xlink:href="#rim2" fill="#404040">
                               <set attributeName="fill" to="#808080" begin="reset.mouseover" end="reset.mouseout"/>
                       </use>
               </g>
        </defs>

<script type="text/javascript">
var viewWidth = 1397;
var viewHeight = 387;
var sectionId = 'dynsection-28';
</script>
<script xlink:href="svgpan.js"/>
<svg id="graph" class="graph">
<g id="viewport">
<title>nlohmann::detail::binary_reader::get_msgpack_object</title>
<polygon fill="white" stroke="transparent" points="-4,4 -4,-383.42 1393,-383.42 1393,4 -4,4"/>
<!-- Node1 -->
<g id="node1" class="node">
<title>Node1</title>
<g id="a_node1"><a xlink:title=" ">
<polygon fill="#bfbfbf" stroke="black" points="0,-186.5 0,-216.5 160,-216.5 160,-186.5 0,-186.5"/>
<text text-anchor="start" x="8" y="-204.5" font-family="Helvetica,sans-Serif" font-size="10.00">nlohmann::detail::binary</text>
<text text-anchor="middle" x="80" y="-193.5" font-family="Helvetica,sans-Serif" font-size="10.00">_reader::get_msgpack_object</text>
</a>
</g>
</g>
<!-- Node2 -->
<g id="node2" class="node">
<title>Node2</title>
<g id="a_node2"><a xlink:href="classnlohmann_1_1detail_1_1binary__reader.html#af70e7d5f19a2ee196e24f58acf579411" target="_top" xlink:title="get next character from the input">
<polygon fill="white" stroke="black" points="738,-259.5 738,-289.5 874,-289.5 874,-259.5 738,-259.5"/>
<text text-anchor="start" x="746" y="-277.5" font-family="Helvetica,sans-Serif" font-size="10.00">nlohmann::detail::binary</text>
<text text-anchor="middle" x="806" y="-266.5" font-family="Helvetica,sans-Serif" font-size="10.00">_reader::get</text>
</a>
</g>
</g>
<!-- Node1&#45;&gt;Node2 -->
<g id="edge1" class="edge">
<title>Node1&#45;&gt;Node2</title>
<path fill="none" stroke="midnightblue" d="M112.8,-216.63C164.79,-240.54 271.85,-286.31 368,-305.5 513.63,-334.57 557.86,-350.2 702,-314.5 719.56,-310.15 721.3,-302.46 738,-295.5 739.86,-294.73 741.75,-293.97 743.67,-293.22"/>
<polygon fill="midnightblue" stroke="midnightblue" points="745.28,-296.36 753.44,-289.61 742.85,-289.79 745.28,-296.36"/>
</g>
<!-- Node3 -->
<g id="node3" class="node">
<title>Node3</title>
<g id="a_node3"><a xlink:href="classnlohmann_1_1detail_1_1binary__reader.html#a5526ed98ca4c436cbae6f8a77ea207b8" target="_top" xlink:title="reads a MessagePack string">
<polygon fill="white" stroke="black" points="368,-93.5 368,-123.5 526,-123.5 526,-93.5 368,-93.5"/>
<text text-anchor="start" x="376" y="-111.5" font-family="Helvetica,sans-Serif" font-size="10.00">nlohmann::detail::binary</text>
<text text-anchor="middle" x="447" y="-100.5" font-family="Helvetica,sans-Serif" font-size="10.00">_reader::get_msgpack_string</text>
</a>
</g>
</g>
<!-- Node1&#45;&gt;Node3 -->
<g id="edge2" class="edge">
<title>Node1&#45;&gt;Node3</title>
<path fill="none" stroke="midnightblue" d="M138.3,-186.45C156.72,-181.64 177.21,-176.32 196,-171.5 256.77,-155.92 325.93,-138.51 376.08,-125.95"/>
<polygon fill="midnightblue" stroke="midnightblue" points="377,-129.33 385.85,-123.51 375.3,-122.54 377,-129.33"/>
</g>
<!-- Node15 -->
<g id="node15" class="node">
<title>Node15</title>
<g id="a_node15"><a xlink:href="classnlohmann_1_1detail_1_1binary__reader.html#a81611d8a5faec1348d31f7e98fcd05ef" target="_top" xlink:title=" ">
<polygon fill="white" stroke="black" points="196,-181 196,-222 332,-222 332,-181 196,-181"/>
<text text-anchor="start" x="204" y="-210" font-family="Helvetica,sans-Serif" font-size="10.00">nlohmann::detail::binary</text>
<text text-anchor="start" x="204" y="-199" font-family="Helvetica,sans-Serif" font-size="10.00">_reader::parse_msgpack</text>
<text text-anchor="middle" x="264" y="-188" font-family="Helvetica,sans-Serif" font-size="10.00">_internal</text>
</a>
</g>
</g>
<!-- Node1&#45;&gt;Node15 -->
<g id="edge21" class="edge">
<title>Node1&#45;&gt;Node15</title>
<path fill="none" stroke="midnightblue" d="M160.03,-194.8C168.49,-194.73 177.09,-194.73 185.53,-194.82"/>
<polygon fill="midnightblue" stroke="midnightblue" points="185.67,-198.32 195.72,-194.96 185.77,-191.32 185.67,-198.32"/>
</g>
<!-- Node4 -->
<g id="node4" class="node">
<title>Node4</title>
<g id="a_node4"><a xlink:href="classnlohmann_1_1detail_1_1parse__error.html#a137ea4d27de45d8a844fd13451d40f3d" target="_top" xlink:title="create a parse error exception">
<polygon fill="white" stroke="black" points="922.5,-120.5 922.5,-150.5 1054.5,-150.5 1054.5,-120.5 922.5,-120.5"/>
<text text-anchor="start" x="930.5" y="-138.5" font-family="Helvetica,sans-Serif" font-size="10.00">nlohmann::detail::parse</text>
<text text-anchor="middle" x="988.5" y="-127.5" font-family="Helvetica,sans-Serif" font-size="10.00">_error::create</text>
</a>
</g>
</g>
<!-- Node3&#45;&gt;Node4 -->
<g id="edge3" class="edge">
<title>Node3&#45;&gt;Node4</title>
<path fill="none" stroke="midnightblue" d="M526.15,-102.29C538.15,-101.54 550.4,-100.91 562,-100.5 700.65,-95.64 736.57,-91.49 874,-110.5 888.29,-112.48 903.45,-115.3 917.88,-118.34"/>
<polygon fill="midnightblue" stroke="midnightblue" points="917.22,-121.78 927.74,-120.47 918.71,-114.94 917.22,-121.78"/>
</g>
<!-- Node9 -->
<g id="node9" class="node">
<title>Node9</title>
<g id="a_node9"><a xlink:href="classnlohmann_1_1detail_1_1binary__reader.html#a82b86133c98a0565446a44dfd3e418e6" target="_top" xlink:title=" ">
<polygon fill="white" stroke="black" points="910,-0.5 910,-30.5 1067,-30.5 1067,-0.5 910,-0.5"/>
<text text-anchor="start" x="918" y="-18.5" font-family="Helvetica,sans-Serif" font-size="10.00">nlohmann::detail::binary</text>
<text text-anchor="middle" x="988.5" y="-7.5" font-family="Helvetica,sans-Serif" font-size="10.00">_reader::exception_message</text>
</a>
</g>
</g>
<!-- Node3&#45;&gt;Node9 -->
<g id="edge9" class="edge">
<title>Node3&#45;&gt;Node9</title>
<path fill="none" stroke="midnightblue" d="M526.16,-95.03C625.36,-77.93 796,-48.51 899.62,-30.65"/>
<polygon fill="midnightblue" stroke="midnightblue" points="900.48,-34.05 909.74,-28.9 899.29,-27.15 900.48,-34.05"/>
</g>
<!-- Node11 -->
<g id="node11" class="node">
<title>Node11</title>
<g id="a_node11"><a xlink:href="classnlohmann_1_1detail_1_1binary__reader.html#a161cda5919ea2436b7999c2a76656aba" target="_top" xlink:title=" ">
<polygon fill="white" stroke="black" points="564,-218.5 564,-248.5 700,-248.5 700,-218.5 564,-218.5"/>
<text text-anchor="start" x="572" y="-236.5" font-family="Helvetica,sans-Serif" font-size="10.00">nlohmann::detail::binary</text>
<text text-anchor="middle" x="632" y="-225.5" font-family="Helvetica,sans-Serif" font-size="10.00">_reader::get_number</text>
</a>
</g>
</g>
<!-- Node3&#45;&gt;Node11 -->
<g id="edge11" class="edge">
<title>Node3&#45;&gt;Node11</title>
<path fill="none" stroke="midnightblue" d="M512.9,-123.59C517.6,-126.11 522.04,-129.06 526,-132.5 554.5,-157.3 533.95,-184.19 562,-209.5 563.29,-210.67 564.65,-211.78 566.05,-212.84"/>
<polygon fill="midnightblue" stroke="midnightblue" points="564.27,-215.85 574.57,-218.33 568.07,-209.97 564.27,-215.85"/>
</g>
<!-- Node12 -->
<g id="node12" class="node">
<title>Node12</title>
<g id="a_node12"><a xlink:href="classnlohmann_1_1detail_1_1binary__reader.html#a91dd7341d9d74c58866877ddfe58dd03" target="_top" xlink:title=" ">
<polygon fill="white" stroke="black" points="738,-120.5 738,-150.5 874,-150.5 874,-120.5 738,-120.5"/>
<text text-anchor="start" x="746" y="-138.5" font-family="Helvetica,sans-Serif" font-size="10.00">nlohmann::detail::binary</text>
<text text-anchor="middle" x="806" y="-127.5" font-family="Helvetica,sans-Serif" font-size="10.00">_reader::unexpect_eof</text>
</a>
</g>
</g>
<!-- Node3&#45;&gt;Node12 -->
<g id="edge20" class="edge">
<title>Node3&#45;&gt;Node12</title>
<path fill="none" stroke="midnightblue" d="M526.12,-104.49C576.51,-103.04 643.35,-103.25 702,-110.5 715.59,-112.18 729.99,-115 743.57,-118.15"/>
<polygon fill="midnightblue" stroke="midnightblue" points="742.75,-121.55 753.3,-120.49 744.39,-114.74 742.75,-121.55"/>
</g>
<!-- Node13 -->
<g id="node13" class="node">
<title>Node13</title>
<g id="a_node13"><a xlink:href="classnlohmann_1_1detail_1_1binary__reader.html#a1f4b5da029a561c8711426b0a7316ec6" target="_top" xlink:title="create a string by reading characters from the input">
<polygon fill="white" stroke="black" points="564,-120.5 564,-150.5 700,-150.5 700,-120.5 564,-120.5"/>
<text text-anchor="start" x="572" y="-138.5" font-family="Helvetica,sans-Serif" font-size="10.00">nlohmann::detail::binary</text>
<text text-anchor="middle" x="632" y="-127.5" font-family="Helvetica,sans-Serif" font-size="10.00">_reader::get_string</text>
</a>
</g>
</g>
<!-- Node3&#45;&gt;Node13 -->
<g id="edge16" class="edge">
<title>Node3&#45;&gt;Node13</title>
<path fill="none" stroke="midnightblue" d="M526.14,-120.03C535.24,-121.37 544.53,-122.74 553.62,-124.08"/>
<polygon fill="midnightblue" stroke="midnightblue" points="553.39,-127.59 563.79,-125.58 554.41,-120.66 553.39,-127.59"/>
</g>
<!-- Node14 -->
<g id="node14" class="node">
<title>Node14</title>
<g id="a_node14"><a xlink:href="classnlohmann_1_1detail_1_1binary__reader.html#acf8d3f7b17efd05655fcb6f47a2eaa79" target="_top" xlink:title=" ">
<polygon fill="white" stroke="black" points="562,-169.5 562,-199.5 702,-199.5 702,-169.5 562,-169.5"/>
<text text-anchor="start" x="570" y="-187.5" font-family="Helvetica,sans-Serif" font-size="10.00">nlohmann::detail::binary</text>
<text text-anchor="middle" x="632" y="-176.5" font-family="Helvetica,sans-Serif" font-size="10.00">_reader::get_token_string</text>
</a>
</g>
</g>
<!-- Node3&#45;&gt;Node14 -->
<g id="edge19" class="edge">
<title>Node3&#45;&gt;Node14</title>
<path fill="none" stroke="midnightblue" d="M505.15,-123.56C512.32,-126.18 519.43,-129.16 526,-132.5 543.82,-141.58 544.41,-149.99 562,-159.5 565.89,-161.6 569.99,-163.59 574.17,-165.46"/>
<polygon fill="midnightblue" stroke="midnightblue" points="572.85,-168.7 583.42,-169.37 575.57,-162.25 572.85,-168.7"/>
</g>
<!-- Node5 -->
<g id="node5" class="node">
<title>Node5</title>
<g id="a_node5"><a xlink:href="classnlohmann_1_1detail_1_1exception.html#abf41a7e9178356314082284e6cfea278" target="_top" xlink:title=" ">
<polygon fill="white" stroke="black" points="1103,-71.5 1103,-101.5 1256,-101.5 1256,-71.5 1103,-71.5"/>
<text text-anchor="start" x="1111" y="-89.5" font-family="Helvetica,sans-Serif" font-size="10.00">nlohmann::detail::exception</text>
<text text-anchor="middle" x="1179.5" y="-78.5" font-family="Helvetica,sans-Serif" font-size="10.00">::name</text>
</a>
</g>
</g>
<!-- Node4&#45;&gt;Node5 -->
<g id="edge4" class="edge">
<title>Node4&#45;&gt;Node5</title>
<path fill="none" stroke="midnightblue" d="M1047.49,-120.47C1067.54,-115.27 1090.17,-109.4 1110.92,-104.02"/>
<polygon fill="midnightblue" stroke="midnightblue" points="1111.82,-107.4 1120.62,-101.51 1110.06,-100.63 1111.82,-107.4"/>
</g>
<!-- Node7 -->
<g id="node7" class="node">
<title>Node7</title>
<g id="a_node7"><a xlink:href="classnlohmann_1_1detail_1_1parse__error.html#a0ea816ea3521d7109407948cb1b850f7" target="_top" xlink:title=" ">
<polygon fill="white" stroke="black" points="1113.5,-169.5 1113.5,-199.5 1245.5,-199.5 1245.5,-169.5 1113.5,-169.5"/>
<text text-anchor="start" x="1121.5" y="-187.5" font-family="Helvetica,sans-Serif" font-size="10.00">nlohmann::detail::parse</text>
<text text-anchor="middle" x="1179.5" y="-176.5" font-family="Helvetica,sans-Serif" font-size="10.00">_error::parse_error</text>
</a>
</g>
</g>
<!-- Node4&#45;&gt;Node7 -->
<g id="edge6" class="edge">
<title>Node4&#45;&gt;Node7</title>
<path fill="none" stroke="midnightblue" d="M1047.49,-150.53C1067.54,-155.73 1090.17,-161.6 1110.92,-166.98"/>
<polygon fill="midnightblue" stroke="midnightblue" points="1110.06,-170.37 1120.62,-169.49 1111.82,-163.6 1110.06,-170.37"/>
</g>
<!-- Node8 -->
<g id="node8" class="node">
<title>Node8</title>
<g id="a_node8"><a xlink:href="classnlohmann_1_1detail_1_1parse__error.html#aefe74adeaa48781464ba2fd2ec63d221" target="_top" xlink:title=" ">
<polygon fill="white" stroke="black" points="1113.5,-120.5 1113.5,-150.5 1245.5,-150.5 1245.5,-120.5 1113.5,-120.5"/>
<text text-anchor="start" x="1121.5" y="-138.5" font-family="Helvetica,sans-Serif" font-size="10.00">nlohmann::detail::parse</text>
<text text-anchor="middle" x="1179.5" y="-127.5" font-family="Helvetica,sans-Serif" font-size="10.00">_error::position_string</text>
</a>
</g>
</g>
<!-- Node4&#45;&gt;Node8 -->
<g id="edge7" class="edge">
<title>Node4&#45;&gt;Node8</title>
<path fill="none" stroke="midnightblue" d="M1054.54,-135.5C1070.13,-135.5 1086.91,-135.5 1102.94,-135.5"/>
<polygon fill="midnightblue" stroke="midnightblue" points="1103.34,-139 1113.34,-135.5 1103.34,-132 1103.34,-139"/>
</g>
<!-- Node6 -->
<g id="node6" class="node">
<title>Node6</title>
<g id="a_node6"><a xlink:href="namespacehttplib.html#a498c3a79825ecbcb15c52ec5fcfd5c11" target="_top" xlink:title=" ">
<polygon fill="white" stroke="black" points="1292,-101 1292,-120 1389,-120 1389,-101 1292,-101"/>
<text text-anchor="middle" x="1340.5" y="-108" font-family="Helvetica,sans-Serif" font-size="10.00">httplib::to_string</text>
</a>
</g>
</g>
<!-- Node5&#45;&gt;Node6 -->
<g id="edge5" class="edge">
<title>Node5&#45;&gt;Node6</title>
<path fill="none" stroke="midnightblue" d="M1256.27,-97.94C1264.92,-99.24 1273.62,-100.56 1281.97,-101.82"/>
<polygon fill="midnightblue" stroke="midnightblue" points="1281.55,-105.29 1291.96,-103.32 1282.59,-98.37 1281.55,-105.29"/>
</g>
<!-- Node8&#45;&gt;Node6 -->
<g id="edge8" class="edge">
<title>Node8&#45;&gt;Node6</title>
<path fill="none" stroke="midnightblue" d="M1245.63,-125.26C1257.57,-123.38 1269.96,-121.43 1281.66,-119.59"/>
<polygon fill="midnightblue" stroke="midnightblue" points="1282.42,-123.02 1291.75,-118.01 1281.33,-116.1 1282.42,-123.02"/>
</g>
<!-- Node10 -->
<g id="node10" class="node">
<title>Node10</title>
<g id="a_node10"><a xlink:href="FuzzerTracePC_8cpp.html#a1f10ac78bd11294b612636121065eb5b" target="_top" xlink:title=" ">
<polygon fill="white" stroke="black" points="1156,-6 1156,-25 1203,-25 1203,-6 1156,-6"/>
<text text-anchor="middle" x="1179.5" y="-13" font-family="Helvetica,sans-Serif" font-size="10.00">assert</text>
</a>
</g>
</g>
<!-- Node9&#45;&gt;Node10 -->
<g id="edge10" class="edge">
<title>Node9&#45;&gt;Node10</title>
<path fill="none" stroke="midnightblue" d="M1067.19,-15.5C1094.54,-15.5 1123.83,-15.5 1145.5,-15.5"/>
<polygon fill="midnightblue" stroke="midnightblue" points="1145.78,-19 1155.78,-15.5 1145.78,-12 1145.78,-19"/>
</g>
<!-- Node11&#45;&gt;Node2 -->
<g id="edge12" class="edge">
<title>Node11&#45;&gt;Node2</title>
<path fill="none" stroke="midnightblue" d="M696.07,-248.53C707.75,-251.32 720.05,-254.25 732,-257.1"/>
<polygon fill="midnightblue" stroke="midnightblue" points="731.4,-260.55 741.94,-259.47 733.02,-253.74 731.4,-260.55"/>
</g>
<!-- Node11&#45;&gt;Node12 -->
<g id="edge13" class="edge">
<title>Node11&#45;&gt;Node12</title>
<path fill="none" stroke="midnightblue" d="M682,-218.44C688.85,-215.76 695.7,-212.77 702,-209.5 730.21,-194.85 759.36,-173.19 779.42,-157.08"/>
<polygon fill="midnightblue" stroke="midnightblue" points="781.89,-159.59 787.43,-150.56 777.47,-154.16 781.89,-159.59"/>
</g>
<!-- Node12&#45;&gt;Node4 -->
<g id="edge14" class="edge">
<title>Node12&#45;&gt;Node4</title>
<path fill="none" stroke="midnightblue" d="M874.21,-135.5C886.63,-135.5 899.67,-135.5 912.3,-135.5"/>
<polygon fill="midnightblue" stroke="midnightblue" points="912.33,-139 922.33,-135.5 912.33,-132 912.33,-139"/>
</g>
<!-- Node12&#45;&gt;Node9 -->
<g id="edge15" class="edge">
<title>Node12&#45;&gt;Node9</title>
<path fill="none" stroke="midnightblue" d="M829.86,-120.3C861.87,-99.02 920.15,-60.28 956.18,-36.33"/>
<polygon fill="midnightblue" stroke="midnightblue" points="958.44,-39.03 964.83,-30.57 954.56,-33.2 958.44,-39.03"/>
</g>
<!-- Node13&#45;&gt;Node2 -->
<g id="edge17" class="edge">
<title>Node13&#45;&gt;Node2</title>
<path fill="none" stroke="midnightblue" d="M685.6,-150.6C691.34,-153.17 696.93,-156.13 702,-159.5 738.92,-184.09 771.15,-224.94 789.32,-250.76"/>
<polygon fill="midnightblue" stroke="midnightblue" points="786.59,-252.97 795.15,-259.21 792.36,-248.99 786.59,-252.97"/>
</g>
<!-- Node13&#45;&gt;Node12 -->
<g id="edge18" class="edge">
<title>Node13&#45;&gt;Node12</title>
<path fill="none" stroke="midnightblue" d="M700.49,-135.5C709.44,-135.5 718.68,-135.5 727.79,-135.5"/>
<polygon fill="midnightblue" stroke="midnightblue" points="727.99,-139 737.99,-135.5 727.99,-132 727.99,-139"/>
</g>
<!-- Node15&#45;&gt;Node1 -->
<g id="edge27" class="edge">
<title>Node15&#45;&gt;Node1</title>
<path fill="none" stroke="midnightblue" d="M195.72,-208.04C187.37,-208.19 178.73,-208.26 170.12,-208.25"/>
<polygon fill="midnightblue" stroke="midnightblue" points="170.05,-204.75 160.03,-208.2 170.02,-211.75 170.05,-204.75"/>
</g>
<!-- Node15&#45;&gt;Node2 -->
<g id="edge24" class="edge">
<title>Node15&#45;&gt;Node2</title>
<path fill="none" stroke="midnightblue" d="M284.83,-222.27C304.09,-240.86 335.15,-266.92 368,-278.5 488.05,-320.83 638.46,-305.96 727.86,-290.68"/>
<polygon fill="midnightblue" stroke="midnightblue" points="728.67,-294.09 737.91,-288.91 727.46,-287.19 728.67,-294.09"/>
</g>
<!-- Node15&#45;&gt;Node3 -->
<g id="edge28" class="edge">
<title>Node15&#45;&gt;Node3</title>
<path fill="none" stroke="midnightblue" d="M291.25,-180.77C311.33,-165.71 340.21,-145.73 368,-132.5 371.99,-130.6 376.17,-128.8 380.43,-127.12"/>
<polygon fill="midnightblue" stroke="midnightblue" points="381.71,-130.38 389.85,-123.6 379.26,-123.82 381.71,-130.38"/>
</g>
<!-- Node15&#45;&gt;Node4 -->
<g id="edge22" class="edge">
<title>Node15&#45;&gt;Node4</title>
<path fill="none" stroke="midnightblue" d="M278.09,-222.01C295.29,-246.9 328.06,-287.75 368,-305.5 573.51,-396.86 679.52,-412.46 874,-299.5 928.74,-267.71 963.18,-197.69 978.4,-160.25"/>
<polygon fill="midnightblue" stroke="midnightblue" points="981.78,-161.2 982.18,-150.62 975.27,-158.65 981.78,-161.2"/>
</g>
<!-- Node15&#45;&gt;Node9 -->
<g id="edge23" class="edge">
<title>Node15&#45;&gt;Node9</title>
<path fill="none" stroke="midnightblue" d="M276.55,-180.79C293,-153.48 325.89,-106.24 368,-83.5 538.56,8.59 773.79,5.09 899.64,-5.31"/>
<polygon fill="midnightblue" stroke="midnightblue" points="899.36,-8.8 909.63,-6.17 899.96,-1.82 899.36,-8.8"/>
</g>
<!-- Node15&#45;&gt;Node11 -->
<g id="edge29" class="edge">
<title>Node15&#45;&gt;Node11</title>
<path fill="none" stroke="midnightblue" d="M332.13,-207.37C394.72,-212.84 488.02,-221 553.69,-226.74"/>
<polygon fill="midnightblue" stroke="midnightblue" points="553.72,-230.26 563.99,-227.64 554.33,-223.28 553.72,-230.26"/>
</g>
<!-- Node15&#45;&gt;Node12 -->
<g id="edge31" class="edge">
<title>Node15&#45;&gt;Node12</title>
<path fill="none" stroke="midnightblue" d="M308.32,-222.06C389.63,-257.51 568.89,-320.65 702,-258.5 745.5,-238.19 777.11,-189.48 793.13,-159.81"/>
<polygon fill="midnightblue" stroke="midnightblue" points="796.25,-161.39 797.77,-150.91 790.04,-158.15 796.25,-161.39"/>
</g>
<!-- Node15&#45;&gt;Node14 -->
<g id="edge30" class="edge">
<title>Node15&#45;&gt;Node14</title>
<path fill="none" stroke="midnightblue" d="M332.13,-198.38C394.03,-195.51 485.98,-191.24 551.52,-188.19"/>
<polygon fill="midnightblue" stroke="midnightblue" points="551.98,-191.67 561.81,-187.71 551.66,-184.68 551.98,-191.67"/>
</g>
<!-- Node16 -->
<g id="node16" class="node">
<title>Node16</title>
<g id="a_node16"><a xlink:href="classnlohmann_1_1detail_1_1binary__reader.html#a09d3eed7523da6f61e7ffa98823aae2b" target="_top" xlink:title=" ">
<polygon fill="white" stroke="black" points="369.5,-142.5 369.5,-172.5 524.5,-172.5 524.5,-142.5 369.5,-142.5"/>
<text text-anchor="start" x="377.5" y="-160.5" font-family="Helvetica,sans-Serif" font-size="10.00">nlohmann::detail::binary</text>
<text text-anchor="middle" x="447" y="-149.5" font-family="Helvetica,sans-Serif" font-size="10.00">_reader::get_msgpack_array</text>
</a>
</g>
</g>
<!-- Node15&#45;&gt;Node16 -->
<g id="edge25" class="edge">
<title>Node15&#45;&gt;Node16</title>
<path fill="none" stroke="midnightblue" d="M323.27,-180.98C334.85,-177.87 347.23,-174.73 359.52,-171.78"/>
<polygon fill="midnightblue" stroke="midnightblue" points="360.42,-175.16 369.34,-169.46 358.81,-168.35 360.42,-175.16"/>
</g>
<!-- Node16&#45;&gt;Node15 -->
<g id="edge26" class="edge">
<title>Node16&#45;&gt;Node15</title>
<path fill="none" stroke="midnightblue" d="M407.35,-172.54C388.29,-178.09 364.61,-184.19 342.06,-189.45"/>
<polygon fill="midnightblue" stroke="midnightblue" points="341.11,-186.08 332.14,-191.72 342.67,-192.9 341.11,-186.08"/>
</g>
</g>
</svg>
        <g id="navigator" transform="translate(0 0)" fill="#404254">
                <rect fill="#f2f5e9" fill-opacity="0.5" stroke="#606060" stroke-width=".5" x="0" y="0" width="60" height="60"/>
                <use id="zoomplus" xlink:href="#zoomPlus" x="17" y="9" onmousedown="handleZoom(evt,'in')"/>
                <use id="zoomminus" xlink:href="#zoomMin" x="42" y="9" onmousedown="handleZoom(evt,'out')"/>
                <use id="reset" xlink:href="#resetDef" x="30" y="36" onmousedown="handleReset()"/>
                <g id="arrowUp" xlink:href="#dirArrow" transform="translate(30 24)" onmousedown="handlePan(0,-1)">
                  <use xlink:href="#rim" fill="#404040">
                        <set attributeName="fill" to="#808080" begin="arrowUp.mouseover" end="arrowUp.mouseout"/>
                  </use>
                  <path fill="none" stroke="white" stroke-width="1.5" d="M0,-3.0v7 M-2.5,-0.5L0,-3.0L2.5,-0.5"/>
                </g>
                <g id="arrowRight" xlink:href="#dirArrow" transform="rotate(90) translate(36 -43)" onmousedown="handlePan(1,0)">
                  <use xlink:href="#rim" fill="#404040">
                        <set attributeName="fill" to="#808080" begin="arrowRight.mouseover" end="arrowRight.mouseout"/>
                  </use>
                  <path fill="none" stroke="white" stroke-width="1.5" d="M0,-3.0v7 M-2.5,-0.5L0,-3.0L2.5,-0.5"/>
                </g>
                <g id="arrowDown" xlink:href="#dirArrow" transform="rotate(180) translate(-30 -48)" onmousedown="handlePan(0,1)">
                  <use xlink:href="#rim" fill="#404040">
                        <set attributeName="fill" to="#808080" begin="arrowDown.mouseover" end="arrowDown.mouseout"/>
                  </use>
                  <path fill="none" stroke="white" stroke-width="1.5" d="M0,-3.0v7 M-2.5,-0.5L0,-3.0L2.5,-0.5"/>
                </g>
                <g id="arrowLeft" xlink:href="#dirArrow" transform="rotate(270) translate(-36 17)" onmousedown="handlePan(-1,0)">
                  <use xlink:href="#rim" fill="#404040">
                        <set attributeName="fill" to="#808080" begin="arrowLeft.mouseover" end="arrowLeft.mouseout"/>
                  </use>
                  <path fill="none" stroke="white" stroke-width="1.5" d="M0,-3.0v7 M-2.5,-0.5L0,-3.0L2.5,-0.5"/>
                </g>
        </g>
        <svg viewBox="0 0 15 15" width="100%" height="30px" preserveAspectRatio="xMaxYMin meet">
         <g id="arrow_out" transform="scale(0.3 0.3)">
          <a xlink:href="classnlohmann_1_1detail_1_1binary__reader_ad1190bb3499e243b0bbf795743a35563_cgraph_org.svg" target="_base">
           <rect id="button" ry="5" rx="5" y="6" x="6" height="38" width="38"
                fill="#f2f5e9" fill-opacity="0.5" stroke="#606060" stroke-width="1.0"/>
           <path id="arrow"
             d="M 11.500037,31.436501 C 11.940474,20.09759 22.043105,11.32322 32.158766,21.979434 L 37.068811,17.246167 C 37.068811,17.246167 37.088388,32 37.088388,32 L 22.160133,31.978069 C 22.160133,31.978069 26.997745,27.140456 26.997745,27.140456 C 18.528582,18.264221 13.291696,25.230495 11.500037,31.436501 z"
             style="fill:#404040;"/>
          </a>
         </g>
        </svg>
</svg>
