<?xml version="1.0" encoding="UTF-8" standalone="no"?>
<!DOCTYPE svg PUBLIC "-//W3C//DTD SVG 1.1//EN"
 "http://www.w3.org/Graphics/SVG/1.1/DTD/svg11.dtd">
<!-- Generated by graphviz version 2.43.0 (0)
 -->
<!-- Title: fuzzer::InputCorpus Pages: 1 -->
<svg width="520pt" height="744pt"
 viewBox="0.00 0.00 519.50 744.00" xmlns="http://www.w3.org/2000/svg" xmlns:xlink="http://www.w3.org/1999/xlink">
<g id="graph0" class="graph" transform="scale(1 1) rotate(0) translate(4 740)">
<title>fuzzer::InputCorpus</title>
<polygon fill="white" stroke="transparent" points="-4,4 -4,-740 515.5,-740 515.5,4 -4,4"/>
<!-- Node1 -->
<g id="node1" class="node">
<title>Node1</title>
<g id="a_node1"><a xlink:title=" ">
<polygon fill="#bfbfbf" stroke="black" points="134,-0.5 134,-332.5 293,-332.5 293,-0.5 134,-0.5"/>
<text text-anchor="middle" x="213.5" y="-320.5" font-family="Helvetica,sans-Serif" font-size="10.00">fuzzer::InputCorpus</text>
<polyline fill="none" stroke="black" points="134,-313.5 293,-313.5 "/>
<text text-anchor="start" x="142" y="-301.5" font-family="Helvetica,sans-Serif" font-size="10.00">+ kFeatureSetSize</text>
<text text-anchor="start" x="142" y="-290.5" font-family="Helvetica,sans-Serif" font-size="10.00">&#45; CorpusDistribution</text>
<text text-anchor="start" x="142" y="-279.5" font-family="Helvetica,sans-Serif" font-size="10.00">&#45; CountingFeatures</text>
<text text-anchor="start" x="142" y="-268.5" font-family="Helvetica,sans-Serif" font-size="10.00">&#45; InputSizesPerFeature</text>
<text text-anchor="start" x="142" y="-257.5" font-family="Helvetica,sans-Serif" font-size="10.00">&#45; SmallestElementPerFeature</text>
<text text-anchor="start" x="142" y="-246.5" font-family="Helvetica,sans-Serif" font-size="10.00">&#45; FeatureDebug</text>
<polyline fill="none" stroke="black" points="134,-239.5 293,-239.5 "/>
<text text-anchor="start" x="142" y="-227.5" font-family="Helvetica,sans-Serif" font-size="10.00">+ InputCorpus()</text>
<text text-anchor="start" x="142" y="-216.5" font-family="Helvetica,sans-Serif" font-size="10.00">+ ~InputCorpus()</text>
<text text-anchor="start" x="142" y="-205.5" font-family="Helvetica,sans-Serif" font-size="10.00">+ size()</text>
<text text-anchor="start" x="142" y="-194.5" font-family="Helvetica,sans-Serif" font-size="10.00">+ SizeInBytes()</text>
<text text-anchor="start" x="142" y="-183.5" font-family="Helvetica,sans-Serif" font-size="10.00">+ NumActiveUnits()</text>
<text text-anchor="start" x="142" y="-172.5" font-family="Helvetica,sans-Serif" font-size="10.00">+ empty()</text>
<text text-anchor="start" x="142" y="-161.5" font-family="Helvetica,sans-Serif" font-size="10.00">+ operator[]()</text>
<text text-anchor="start" x="142" y="-150.5" font-family="Helvetica,sans-Serif" font-size="10.00">+ AddToCorpus()</text>
<text text-anchor="start" x="142" y="-139.5" font-family="Helvetica,sans-Serif" font-size="10.00">+ HasUnit()</text>
<text text-anchor="start" x="142" y="-128.5" font-family="Helvetica,sans-Serif" font-size="10.00">+ HasUnit()</text>
<text text-anchor="start" x="142" y="-117.5" font-family="Helvetica,sans-Serif" font-size="10.00">+ ChooseUnitToMutate()</text>
<text text-anchor="start" x="142" y="-106.5" font-family="Helvetica,sans-Serif" font-size="10.00">+ ChooseUnitIdxToMutate()</text>
<text text-anchor="start" x="142" y="-95.5" font-family="Helvetica,sans-Serif" font-size="10.00">+ PrintStats()</text>
<text text-anchor="start" x="142" y="-84.5" font-family="Helvetica,sans-Serif" font-size="10.00">+ PrintFeatureSet()</text>
<text text-anchor="start" x="142" y="-73.5" font-family="Helvetica,sans-Serif" font-size="10.00">+ DeleteInput()</text>
<text text-anchor="start" x="142" y="-62.5" font-family="Helvetica,sans-Serif" font-size="10.00">+ AddFeature()</text>
<text text-anchor="start" x="142" y="-51.5" font-family="Helvetica,sans-Serif" font-size="10.00">+ NumFeatures()</text>
<text text-anchor="start" x="142" y="-40.5" font-family="Helvetica,sans-Serif" font-size="10.00">+ ResetFeatureSet()</text>
<text text-anchor="start" x="142" y="-29.5" font-family="Helvetica,sans-Serif" font-size="10.00">&#45; GetFeature()</text>
<text text-anchor="start" x="142" y="-18.5" font-family="Helvetica,sans-Serif" font-size="10.00">&#45; ValidateFeatureSet()</text>
<text text-anchor="start" x="142" y="-7.5" font-family="Helvetica,sans-Serif" font-size="10.00">&#45; UpdateCorpusDistribution()</text>
</a>
</g>
</g>
<!-- Node2 -->
<g id="node2" class="node">
<title>Node2</title>
<g id="a_node2"><a xlink:title=" ">
<polygon fill="white" stroke="#bfbfbf" points="22.5,-391.5 22.5,-459.5 132.5,-459.5 132.5,-391.5 22.5,-391.5"/>
<text text-anchor="start" x="30.5" y="-447.5" font-family="Helvetica,sans-Serif" font-size="10.00">std::vector&lt; fuzzer</text>
<text text-anchor="middle" x="77.5" y="-436.5" font-family="Helvetica,sans-Serif" font-size="10.00">::InputInfo * &gt;</text>
<polyline fill="none" stroke="#bfbfbf" points="22.5,-429.5 132.5,-429.5 "/>
<text text-anchor="middle" x="77.5" y="-417.5" font-family="Helvetica,sans-Serif" font-size="10.00"> </text>
<polyline fill="none" stroke="#bfbfbf" points="22.5,-410.5 132.5,-410.5 "/>
<text text-anchor="middle" x="77.5" y="-398.5" font-family="Helvetica,sans-Serif" font-size="10.00"> </text>
</a>
</g>
</g>
<!-- Node2&#45;&gt;Node1 -->
<g id="edge1" class="edge">
<title>Node2&#45;&gt;Node1</title>
<path fill="none" stroke="#404040" d="M95,-391.43C104,-374.42 115.7,-352.31 128.24,-328.61"/>
<polygon fill="none" stroke="#404040" points="128.25,-328.6 127.52,-321.43 133.86,-318 134.59,-325.17 128.25,-328.6"/>
<text text-anchor="middle" x="133" y="-359.5" font-family="Helvetica,sans-Serif" font-size="10.00"> &#45;Inputs</text>
</g>
<!-- Node3 -->
<g id="node3" class="node">
<title>Node3</title>
<g id="a_node3"><a xlink:href="structfuzzer_1_1InputInfo.html" target="_top" xlink:title=" ">
<polygon fill="white" stroke="black" points="0,-507.5 0,-619.5 155,-619.5 155,-507.5 0,-507.5"/>
<text text-anchor="middle" x="77.5" y="-607.5" font-family="Helvetica,sans-Serif" font-size="10.00">fuzzer::InputInfo</text>
<polyline fill="none" stroke="black" points="0,-600.5 155,-600.5 "/>
<text text-anchor="start" x="8" y="-588.5" font-family="Helvetica,sans-Serif" font-size="10.00">+ Sha1</text>
<text text-anchor="start" x="8" y="-577.5" font-family="Helvetica,sans-Serif" font-size="10.00">+ NumFeatures</text>
<text text-anchor="start" x="8" y="-566.5" font-family="Helvetica,sans-Serif" font-size="10.00">+ Tmp</text>
<text text-anchor="start" x="8" y="-555.5" font-family="Helvetica,sans-Serif" font-size="10.00">+ NumExecutedMutations</text>
<text text-anchor="start" x="8" y="-544.5" font-family="Helvetica,sans-Serif" font-size="10.00">+ NumSuccessfullMutations</text>
<text text-anchor="start" x="8" y="-533.5" font-family="Helvetica,sans-Serif" font-size="10.00">+ MayDeleteFile</text>
<polyline fill="none" stroke="black" points="0,-526.5 155,-526.5 "/>
<text text-anchor="middle" x="77.5" y="-514.5" font-family="Helvetica,sans-Serif" font-size="10.00"> </text>
</a>
</g>
</g>
<!-- Node3&#45;&gt;Node2 -->
<g id="edge2" class="edge">
<title>Node3&#45;&gt;Node2</title>
<path fill="none" stroke="#404040" d="M77.5,-507.18C77.5,-495.43 77.5,-483.15 77.5,-471.82"/>
<polygon fill="none" stroke="#404040" points="77.5,-471.51 73.5,-465.51 77.5,-459.51 81.5,-465.51 77.5,-471.51"/>
<text text-anchor="middle" x="106.5" y="-481" font-family="Helvetica,sans-Serif" font-size="10.00"> +elements</text>
</g>
<!-- Node4 -->
<g id="node4" class="node">
<title>Node4</title>
<g id="a_node4"><a xlink:title=" ">
<polygon fill="white" stroke="#bfbfbf" points="15,-673 15,-730 140,-730 140,-673 15,-673"/>
<text text-anchor="middle" x="77.5" y="-718" font-family="Helvetica,sans-Serif" font-size="10.00">std::vector&lt; uint8_t &gt;</text>
<polyline fill="none" stroke="#bfbfbf" points="15,-711 140,-711 "/>
<text text-anchor="start" x="23" y="-699" font-family="Helvetica,sans-Serif" font-size="10.00">+ elements</text>
<polyline fill="none" stroke="#bfbfbf" points="15,-692 140,-692 "/>
<text text-anchor="middle" x="77.5" y="-680" font-family="Helvetica,sans-Serif" font-size="10.00"> </text>
</a>
</g>
</g>
<!-- Node4&#45;&gt;Node3 -->
<g id="edge3" class="edge">
<title>Node4&#45;&gt;Node3</title>
<path fill="none" stroke="#404040" d="M77.5,-672.98C77.5,-660.97 77.5,-646.32 77.5,-631.71"/>
<polygon fill="none" stroke="#404040" points="77.5,-631.52 73.5,-625.52 77.5,-619.52 81.5,-625.52 77.5,-631.52"/>
<text text-anchor="middle" x="87" y="-641" font-family="Helvetica,sans-Serif" font-size="10.00"> +U</text>
</g>
<!-- Node5 -->
<g id="node5" class="node">
<title>Node5</title>
<g id="a_node5"><a xlink:title="STL class.">
<polygon fill="white" stroke="#bfbfbf" points="230,-535 230,-592 295,-592 295,-535 230,-535"/>
<text text-anchor="middle" x="262.5" y="-580" font-family="Helvetica,sans-Serif" font-size="10.00">std::string</text>
<polyline fill="none" stroke="#bfbfbf" points="230,-573 295,-573 "/>
<text text-anchor="middle" x="262.5" y="-561" font-family="Helvetica,sans-Serif" font-size="10.00"> </text>
<polyline fill="none" stroke="#bfbfbf" points="230,-554 295,-554 "/>
<text text-anchor="middle" x="262.5" y="-542" font-family="Helvetica,sans-Serif" font-size="10.00"> </text>
</a>
</g>
</g>
<!-- Node5&#45;&gt;Node1 -->
<g id="edge4" class="edge">
<title>Node5&#45;&gt;Node1</title>
<path fill="none" stroke="#404040" d="M230.52,-534.63C211.4,-515.75 188.88,-489.03 178.5,-460 165.51,-423.67 163.22,-383.34 166.45,-344.54"/>
<polygon fill="none" stroke="#404040" points="166.45,-344.49 163.06,-338.13 167.62,-332.55 171.02,-338.91 166.45,-344.49"/>
<text text-anchor="middle" x="216" y="-423" font-family="Helvetica,sans-Serif" font-size="10.00"> &#45;OutputCorpus</text>
</g>
<!-- Node7 -->
<g id="node7" class="node">
<title>Node7</title>
<g id="a_node7"><a xlink:title=" ">
<polygon fill="white" stroke="#bfbfbf" points="262,-391.5 262,-459.5 369,-459.5 369,-391.5 262,-391.5"/>
<text text-anchor="start" x="270" y="-447.5" font-family="Helvetica,sans-Serif" font-size="10.00">std::unordered_set</text>
<text text-anchor="middle" x="315.5" y="-436.5" font-family="Helvetica,sans-Serif" font-size="10.00">&lt; std::string &gt;</text>
<polyline fill="none" stroke="#bfbfbf" points="262,-429.5 369,-429.5 "/>
<text text-anchor="middle" x="315.5" y="-417.5" font-family="Helvetica,sans-Serif" font-size="10.00"> </text>
<polyline fill="none" stroke="#bfbfbf" points="262,-410.5 369,-410.5 "/>
<text text-anchor="middle" x="315.5" y="-398.5" font-family="Helvetica,sans-Serif" font-size="10.00"> </text>
</a>
</g>
</g>
<!-- Node5&#45;&gt;Node7 -->
<g id="edge7" class="edge">
<title>Node5&#45;&gt;Node7</title>
<path fill="none" stroke="#404040" d="M273.23,-534.98C280.37,-516.64 289.92,-492.13 298.14,-471.05"/>
<polygon fill="none" stroke="#404040" points="298.19,-470.93 296.64,-463.89 302.54,-459.75 304.09,-466.79 298.19,-470.93"/>
<text text-anchor="middle" x="312.5" y="-481" font-family="Helvetica,sans-Serif" font-size="10.00"> +keys</text>
</g>
<!-- Node6 -->
<g id="node6" class="node">
<title>Node6</title>
<g id="a_node6"><a xlink:title="STL class.">
<polygon fill="white" stroke="#bfbfbf" points="210.5,-667.5 210.5,-735.5 314.5,-735.5 314.5,-667.5 210.5,-667.5"/>
<text text-anchor="start" x="218.5" y="-723.5" font-family="Helvetica,sans-Serif" font-size="10.00">std::basic_string&lt;</text>
<text text-anchor="middle" x="262.5" y="-712.5" font-family="Helvetica,sans-Serif" font-size="10.00"> char &gt;</text>
<polyline fill="none" stroke="#bfbfbf" points="210.5,-705.5 314.5,-705.5 "/>
<text text-anchor="middle" x="262.5" y="-693.5" font-family="Helvetica,sans-Serif" font-size="10.00"> </text>
<polyline fill="none" stroke="#bfbfbf" points="210.5,-686.5 314.5,-686.5 "/>
<text text-anchor="middle" x="262.5" y="-674.5" font-family="Helvetica,sans-Serif" font-size="10.00"> </text>
</a>
</g>
</g>
<!-- Node6&#45;&gt;Node5 -->
<g id="edge5" class="edge">
<title>Node6&#45;&gt;Node5</title>
<path fill="none" stroke="midnightblue" d="M262.5,-657.16C262.5,-635.95 262.5,-611.03 262.5,-592.38"/>
<polygon fill="none" stroke="midnightblue" points="259,-657.23 262.5,-667.23 266,-657.23 259,-657.23"/>
</g>
<!-- Node7&#45;&gt;Node1 -->
<g id="edge6" class="edge">
<title>Node7&#45;&gt;Node1</title>
<path fill="none" stroke="#404040" d="M302.37,-391.43C297.09,-378.12 290.57,-361.69 283.48,-343.82"/>
<polygon fill="none" stroke="#404040" points="283.42,-343.68 277.49,-339.58 279,-332.53 284.93,-336.63 283.42,-343.68"/>
<text text-anchor="middle" x="315" y="-359.5" font-family="Helvetica,sans-Serif" font-size="10.00"> &#45;Hashes</text>
</g>
<!-- Node8 -->
<g id="node8" class="node">
<title>Node8</title>
<g id="a_node8"><a xlink:title=" ">
<polygon fill="white" stroke="#bfbfbf" points="387.5,-397 387.5,-454 511.5,-454 511.5,-397 387.5,-397"/>
<text text-anchor="middle" x="449.5" y="-442" font-family="Helvetica,sans-Serif" font-size="10.00">std::vector&lt; double &gt;</text>
<polyline fill="none" stroke="#bfbfbf" points="387.5,-435 511.5,-435 "/>
<text text-anchor="start" x="395.5" y="-423" font-family="Helvetica,sans-Serif" font-size="10.00">+ elements</text>
<polyline fill="none" stroke="#bfbfbf" points="387.5,-416 511.5,-416 "/>
<text text-anchor="middle" x="449.5" y="-404" font-family="Helvetica,sans-Serif" font-size="10.00"> </text>
</a>
</g>
</g>
<!-- Node8&#45;&gt;Node1 -->
<g id="edge8" class="edge">
<title>Node8&#45;&gt;Node1</title>
<path fill="none" stroke="#404040" d="M424.24,-397C395.03,-365.19 345.33,-311.07 301.53,-263.37"/>
<polygon fill="none" stroke="#404040" points="301.26,-263.07 294.26,-261.36 293.15,-254.23 300.15,-255.95 301.26,-263.07"/>
<text text-anchor="middle" x="422" y="-365" font-family="Helvetica,sans-Serif" font-size="10.00"> &#45;Weights</text>
<text text-anchor="middle" x="422" y="-354" font-family="Helvetica,sans-Serif" font-size="10.00">&#45;Intervals</text>
</g>
</g>
</svg>
