<?xml version="1.0" encoding="UTF-8" standalone="no"?>
<!DOCTYPE svg PUBLIC "-//W3C//DTD SVG 1.1//EN"
 "http://www.w3.org/Graphics/SVG/1.1/DTD/svg11.dtd">
<!-- Generated by graphviz version 2.43.0 (0)
 -->
<!-- Title: nlohmann::detail::binary_reader::sax_parse Pages: 1 -->
<svg width="409pt" height="39pt"
 viewBox="0.00 0.00 409.00 39.00" xmlns="http://www.w3.org/2000/svg" xmlns:xlink="http://www.w3.org/1999/xlink">
<g id="graph0" class="graph" transform="scale(1 1) rotate(0) translate(4 35)">
<title>nlohmann::detail::binary_reader::sax_parse</title>
<polygon fill="white" stroke="transparent" points="-4,4 -4,-35 405,-35 405,4 -4,4"/>
<!-- Node1 -->
<g id="node1" class="node">
<title>Node1</title>
<g id="a_node1"><a xlink:title=" ">
<polygon fill="#bfbfbf" stroke="black" points="265,-0.5 265,-30.5 401,-30.5 401,-0.5 265,-0.5"/>
<text text-anchor="start" x="273" y="-18.5" font-family="Helvetica,sans-Serif" font-size="10.00">nlohmann::detail::binary</text>
<text text-anchor="middle" x="333" y="-7.5" font-family="Helvetica,sans-Serif" font-size="10.00">_reader::sax_parse</text>
</a>
</g>
</g>
<!-- Node2 -->
<g id="node2" class="node">
<title>Node2</title>
<g id="a_node2"><a xlink:href="classnlohmann_1_1basic__json.html#a8a3dd150c2d1f0df3502d937de0871db" target="_top" xlink:title="generate SAX events">
<polygon fill="white" stroke="black" points="107,-0.5 107,-30.5 229,-30.5 229,-0.5 107,-0.5"/>
<text text-anchor="start" x="115" y="-18.5" font-family="Helvetica,sans-Serif" font-size="10.00">nlohmann::basic_json</text>
<text text-anchor="middle" x="168" y="-7.5" font-family="Helvetica,sans-Serif" font-size="10.00">::sax_parse</text>
</a>
</g>
</g>
<!-- Node1&#45;&gt;Node2 -->
<g id="edge1" class="edge">
<title>Node1&#45;&gt;Node2</title>
<path fill="none" stroke="midnightblue" d="M254.7,-15.5C246.08,-15.5 237.4,-15.5 229.04,-15.5"/>
<polygon fill="midnightblue" stroke="midnightblue" points="254.76,-19 264.76,-15.5 254.76,-12 254.76,-19"/>
</g>
<!-- Node3 -->
<g id="node3" class="node">
<title>Node3</title>
<g id="a_node3"><a xlink:href="unit-bson_8cpp.html#a73301d5e6d0f638e973f748287501dd6" target="_top" xlink:title=" ">
<polygon fill="white" stroke="black" points="0,-6 0,-25 71,-25 71,-6 0,-6"/>
<text text-anchor="middle" x="35.5" y="-13" font-family="Helvetica,sans-Serif" font-size="10.00">TEST_CASE</text>
</a>
</g>
</g>
<!-- Node2&#45;&gt;Node3 -->
<g id="edge2" class="edge">
<title>Node2&#45;&gt;Node3</title>
<path fill="none" stroke="midnightblue" d="M96.44,-15.5C87.71,-15.5 79.11,-15.5 71.26,-15.5"/>
<polygon fill="midnightblue" stroke="midnightblue" points="96.72,-19 106.72,-15.5 96.72,-12 96.72,-19"/>
</g>
</g>
</svg>
