<?xml version="1.0" encoding="UTF-8" standalone="no"?>
<!DOCTYPE svg PUBLIC "-//W3C//DTD SVG 1.1//EN"
 "http://www.w3.org/Graphics/SVG/1.1/DTD/svg11.dtd">
<!-- Generated by graphviz version 2.43.0 (0)
 -->
<!-- Title: httplib::Stream::write Pages: 1 -->
<svg width="1772pt" height="370pt"
 viewBox="0.00 0.00 1772.00 370.00" xmlns="http://www.w3.org/2000/svg" xmlns:xlink="http://www.w3.org/1999/xlink">
<g id="graph0" class="graph" transform="scale(1 1) rotate(0) translate(4 366)">
<title>httplib::Stream::write</title>
<polygon fill="white" stroke="transparent" points="-4,4 -4,-366 1768,-366 1768,4 -4,4"/>
<!-- Node1 -->
<g id="node1" class="node">
<title>Node1</title>
<g id="a_node1"><a xlink:title=" ">
<polygon fill="#bfbfbf" stroke="black" points="1644,-56 1644,-75 1764,-75 1764,-56 1644,-56"/>
<text text-anchor="middle" x="1704" y="-63" font-family="Helvetica,sans-Serif" font-size="10.00">httplib::Stream::write</text>
</a>
</g>
</g>
<!-- Node2 -->
<g id="node2" class="node">
<title>Node2</title>
<g id="a_node2"><a xlink:href="namespacehttplib_1_1detail.html#aefec7c4fea53eda1af3a7362002c5223" target="_top" xlink:title=" ">
<polygon fill="white" stroke="black" points="1468,-189 1468,-208 1608,-208 1608,-189 1468,-189"/>
<text text-anchor="middle" x="1538" y="-196" font-family="Helvetica,sans-Serif" font-size="10.00">httplib::detail::write_data</text>
</a>
</g>
</g>
<!-- Node1&#45;&gt;Node2 -->
<g id="edge1" class="edge">
<title>Node1&#45;&gt;Node2</title>
<path fill="none" stroke="midnightblue" d="M1683.29,-81.48C1648.97,-109.32 1579.22,-165.88 1551.13,-188.66"/>
<polygon fill="midnightblue" stroke="midnightblue" points="1685.64,-84.08 1691.21,-75.07 1681.23,-78.65 1685.64,-84.08"/>
</g>
<!-- Node28 -->
<g id="node28" class="node">
<title>Node28</title>
<g id="a_node28"><a xlink:href="classhttplib_1_1Stream.html#a9892f60a65f59412ace397b7b6c4c93b" target="_top" xlink:title=" ">
<polygon fill="white" stroke="black" points="1133.5,-44.5 1133.5,-74.5 1253.5,-74.5 1253.5,-44.5 1133.5,-44.5"/>
<text text-anchor="start" x="1141.5" y="-62.5" font-family="Helvetica,sans-Serif" font-size="10.00">httplib::Stream::write</text>
<text text-anchor="middle" x="1193.5" y="-51.5" font-family="Helvetica,sans-Serif" font-size="10.00">_format</text>
</a>
</g>
</g>
<!-- Node1&#45;&gt;Node28 -->
<g id="edge34" class="edge">
<title>Node1&#45;&gt;Node28</title>
<path fill="none" stroke="midnightblue" d="M1633.83,-63.12C1625.13,-62.88 1616.36,-62.66 1608,-62.5 1481.85,-60.05 1334.02,-59.55 1253.74,-59.48"/>
<polygon fill="midnightblue" stroke="midnightblue" points="1633.87,-66.62 1643.97,-63.41 1634.07,-59.62 1633.87,-66.62"/>
</g>
<!-- Node29 -->
<g id="node29" class="node">
<title>Node29</title>
<g id="a_node29"><a xlink:href="namespacehttplib_1_1detail.html#abc85cbf41b1214a5dc526521f989131b" target="_top" xlink:title=" ">
<polygon fill="white" stroke="black" points="977.5,-0.5 977.5,-30.5 1090.5,-30.5 1090.5,-0.5 977.5,-0.5"/>
<text text-anchor="start" x="985.5" y="-18.5" font-family="Helvetica,sans-Serif" font-size="10.00">httplib::detail::write</text>
<text text-anchor="middle" x="1034" y="-7.5" font-family="Helvetica,sans-Serif" font-size="10.00">_headers</text>
</a>
</g>
</g>
<!-- Node1&#45;&gt;Node29 -->
<g id="edge39" class="edge">
<title>Node1&#45;&gt;Node29</title>
<path fill="none" stroke="midnightblue" d="M1633.83,-59.59C1625.13,-58.87 1616.36,-58.16 1608,-57.5 1418.32,-42.56 1193.18,-26.57 1090.73,-19.38"/>
<polygon fill="midnightblue" stroke="midnightblue" points="1633.71,-63.09 1643.97,-60.43 1634.29,-56.11 1633.71,-63.09"/>
</g>
<!-- Node30 -->
<g id="node30" class="node">
<title>Node30</title>
<g id="a_node30"><a xlink:href="namespacehttplib_1_1detail.html#ad7467069e85f955efc30627cff9dd327" target="_top" xlink:title=" ">
<polygon fill="white" stroke="black" points="1472,-72.5 1472,-102.5 1604,-102.5 1604,-72.5 1472,-72.5"/>
<text text-anchor="start" x="1480" y="-90.5" font-family="Helvetica,sans-Serif" font-size="10.00">httplib::detail::write</text>
<text text-anchor="middle" x="1538" y="-79.5" font-family="Helvetica,sans-Serif" font-size="10.00">_multipart_ranges_data</text>
</a>
</g>
</g>
<!-- Node1&#45;&gt;Node30 -->
<g id="edge40" class="edge">
<title>Node1&#45;&gt;Node30</title>
<path fill="none" stroke="midnightblue" d="M1633.72,-74.79C1623.95,-76.1 1613.92,-77.45 1604.23,-78.75"/>
<polygon fill="midnightblue" stroke="midnightblue" points="1634.35,-78.24 1643.79,-73.44 1633.42,-71.3 1634.35,-78.24"/>
</g>
<!-- Node3 -->
<g id="node3" class="node">
<title>Node3</title>
<g id="a_node3"><a xlink:href="namespacehttplib_1_1detail.html#ac17dd7d7a80ce12e5966f5f577b67a75" target="_top" xlink:title=" ">
<polygon fill="white" stroke="black" points="1307,-208.5 1307,-238.5 1420,-238.5 1420,-208.5 1307,-208.5"/>
<text text-anchor="start" x="1315" y="-226.5" font-family="Helvetica,sans-Serif" font-size="10.00">httplib::detail::write</text>
<text text-anchor="middle" x="1363.5" y="-215.5" font-family="Helvetica,sans-Serif" font-size="10.00">_content</text>
</a>
</g>
</g>
<!-- Node2&#45;&gt;Node3 -->
<g id="edge2" class="edge">
<title>Node2&#45;&gt;Node3</title>
<path fill="none" stroke="midnightblue" d="M1461.31,-209.47C1447.49,-211.47 1433.3,-213.53 1420.18,-215.43"/>
<polygon fill="midnightblue" stroke="midnightblue" points="1461.9,-212.92 1471.29,-208.02 1460.89,-205.99 1461.9,-212.92"/>
</g>
<!-- Node5 -->
<g id="node5" class="node">
<title>Node5</title>
<g id="a_node5"><a xlink:href="classhttplib_1_1Server.html#a01c6136577d21b708780a9e42de992d6" target="_top" xlink:title=" ">
<polygon fill="white" stroke="black" points="976,-132.5 976,-162.5 1092,-162.5 1092,-132.5 976,-132.5"/>
<text text-anchor="start" x="984" y="-150.5" font-family="Helvetica,sans-Serif" font-size="10.00">httplib::Server::write</text>
<text text-anchor="middle" x="1034" y="-139.5" font-family="Helvetica,sans-Serif" font-size="10.00">_response_core</text>
</a>
</g>
</g>
<!-- Node2&#45;&gt;Node5 -->
<g id="edge33" class="edge">
<title>Node2&#45;&gt;Node5</title>
<path fill="none" stroke="midnightblue" d="M1513.82,-213.26C1493.24,-225.43 1461.89,-241.75 1432,-248.5 1300.12,-278.3 1245.04,-305.18 1128,-237.5 1103.03,-223.06 1112.65,-203.64 1092,-183.5 1083.79,-175.49 1073.51,-168.34 1063.95,-162.56"/>
<polygon fill="midnightblue" stroke="midnightblue" points="1515.73,-216.19 1522.47,-208.01 1512.1,-210.21 1515.73,-216.19"/>
</g>
<!-- Node11 -->
<g id="node11" class="node">
<title>Node11</title>
<g id="a_node11"><a xlink:href="classhttplib_1_1ClientImpl.html#ae7d812295ccea2c875e2d97328446fa6" target="_top" xlink:title=" ">
<polygon fill="white" stroke="black" points="982,-192.5 982,-222.5 1086,-222.5 1086,-192.5 982,-192.5"/>
<text text-anchor="start" x="990" y="-210.5" font-family="Helvetica,sans-Serif" font-size="10.00">httplib::ClientImpl</text>
<text text-anchor="middle" x="1034" y="-199.5" font-family="Helvetica,sans-Serif" font-size="10.00">::write_request</text>
</a>
</g>
</g>
<!-- Node2&#45;&gt;Node11 -->
<g id="edge32" class="edge">
<title>Node2&#45;&gt;Node11</title>
<path fill="none" stroke="midnightblue" d="M1522.21,-215.74C1503.58,-235.99 1469.42,-268.49 1432,-281.5 1304.38,-325.85 1255.55,-326.06 1128,-281.5 1094.69,-269.86 1064.39,-240.76 1047.93,-222.71"/>
<polygon fill="midnightblue" stroke="midnightblue" points="1524.94,-217.93 1529,-208.14 1519.73,-213.27 1524.94,-217.93"/>
</g>
<!-- Node26 -->
<g id="node26" class="node">
<title>Node26</title>
<g id="a_node26"><a xlink:href="namespacehttplib_1_1detail.html#af586311a8460e53bac51d7d02802ede9" target="_top" xlink:title=" ">
<polygon fill="white" stroke="black" points="1307,-159.5 1307,-189.5 1420,-189.5 1420,-159.5 1307,-159.5"/>
<text text-anchor="start" x="1315" y="-177.5" font-family="Helvetica,sans-Serif" font-size="10.00">httplib::detail::write</text>
<text text-anchor="middle" x="1363.5" y="-166.5" font-family="Helvetica,sans-Serif" font-size="10.00">_content_chunked</text>
</a>
</g>
</g>
<!-- Node2&#45;&gt;Node26 -->
<g id="edge27" class="edge">
<title>Node2&#45;&gt;Node26</title>
<path fill="none" stroke="midnightblue" d="M1458.13,-187.53C1445.33,-185.75 1432.31,-183.93 1420.21,-182.25"/>
<polygon fill="midnightblue" stroke="midnightblue" points="1457.94,-191.03 1468.33,-188.95 1458.91,-184.1 1457.94,-191.03"/>
</g>
<!-- Node27 -->
<g id="node27" class="node">
<title>Node27</title>
<g id="a_node27"><a xlink:href="namespacehttplib_1_1detail.html#a4b08839cc083b4d71b0a3961c9a1686d" target="_top" xlink:title=" ">
<polygon fill="white" stroke="black" points="1295,-110.5 1295,-140.5 1432,-140.5 1432,-110.5 1295,-110.5"/>
<text text-anchor="start" x="1303" y="-128.5" font-family="Helvetica,sans-Serif" font-size="10.00">httplib::detail::write</text>
<text text-anchor="middle" x="1363.5" y="-117.5" font-family="Helvetica,sans-Serif" font-size="10.00">_content_without_length</text>
</a>
</g>
</g>
<!-- Node2&#45;&gt;Node27 -->
<g id="edge30" class="edge">
<title>Node2&#45;&gt;Node27</title>
<path fill="none" stroke="midnightblue" d="M1507.77,-184.43C1486.85,-174.54 1457.91,-161.2 1432,-150.5 1423.91,-147.16 1415.2,-143.78 1406.82,-140.63"/>
<polygon fill="midnightblue" stroke="midnightblue" points="1506.53,-187.72 1517.06,-188.85 1509.54,-181.4 1506.53,-187.72"/>
</g>
<!-- Node4 -->
<g id="node4" class="node">
<title>Node4</title>
<g id="a_node4"><a xlink:href="classhttplib_1_1Server.html#aef004bcdc946af56186dd226442691d4" target="_top" xlink:title=" ">
<polygon fill="white" stroke="black" points="1128,-132.5 1128,-162.5 1259,-162.5 1259,-132.5 1128,-132.5"/>
<text text-anchor="start" x="1136" y="-150.5" font-family="Helvetica,sans-Serif" font-size="10.00">httplib::Server::write</text>
<text text-anchor="middle" x="1193.5" y="-139.5" font-family="Helvetica,sans-Serif" font-size="10.00">_content_with_provider</text>
</a>
</g>
</g>
<!-- Node3&#45;&gt;Node4 -->
<g id="edge3" class="edge">
<title>Node3&#45;&gt;Node4</title>
<path fill="none" stroke="midnightblue" d="M1306.78,-204.73C1302.75,-203.06 1298.79,-201.31 1295,-199.5 1278.08,-191.43 1275.53,-186.36 1259,-177.5 1249.31,-172.31 1238.56,-167.1 1228.66,-162.52"/>
<polygon fill="midnightblue" stroke="midnightblue" points="1305.64,-208.04 1316.23,-208.49 1308.23,-201.54 1305.64,-208.04"/>
</g>
<!-- Node10 -->
<g id="node10" class="node">
<title>Node10</title>
<g id="a_node10"><a xlink:href="classhttplib_1_1ClientImpl.html#a32a67b25f6fbd37756192d7b840fc53f" target="_top" xlink:title=" ">
<polygon fill="white" stroke="black" points="1135.5,-187 1135.5,-228 1251.5,-228 1251.5,-187 1135.5,-187"/>
<text text-anchor="start" x="1143.5" y="-216" font-family="Helvetica,sans-Serif" font-size="10.00">httplib::ClientImpl</text>
<text text-anchor="start" x="1143.5" y="-205" font-family="Helvetica,sans-Serif" font-size="10.00">::write_content_with</text>
<text text-anchor="middle" x="1193.5" y="-194" font-family="Helvetica,sans-Serif" font-size="10.00">_provider</text>
</a>
</g>
</g>
<!-- Node3&#45;&gt;Node10 -->
<g id="edge10" class="edge">
<title>Node3&#45;&gt;Node10</title>
<path fill="none" stroke="midnightblue" d="M1296.45,-217.21C1281.64,-215.8 1266.05,-214.31 1251.63,-212.94"/>
<polygon fill="midnightblue" stroke="midnightblue" points="1296.27,-220.71 1306.56,-218.17 1296.94,-213.74 1296.27,-220.71"/>
</g>
<!-- Node4&#45;&gt;Node5 -->
<g id="edge4" class="edge">
<title>Node4&#45;&gt;Node5</title>
<path fill="none" stroke="midnightblue" d="M1117.87,-147.5C1109.2,-147.5 1100.47,-147.5 1092.09,-147.5"/>
<polygon fill="midnightblue" stroke="midnightblue" points="1117.98,-151 1127.98,-147.5 1117.98,-144 1117.98,-151"/>
</g>
<!-- Node6 -->
<g id="node6" class="node">
<title>Node6</title>
<g id="a_node6"><a xlink:href="classhttplib_1_1Server.html#a61f782f1492b13d525ddec03b2412797" target="_top" xlink:title=" ">
<polygon fill="white" stroke="black" points="815,-88.5 815,-118.5 931,-118.5 931,-88.5 815,-88.5"/>
<text text-anchor="start" x="823" y="-106.5" font-family="Helvetica,sans-Serif" font-size="10.00">httplib::Server::write</text>
<text text-anchor="middle" x="873" y="-95.5" font-family="Helvetica,sans-Serif" font-size="10.00">_response</text>
</a>
</g>
</g>
<!-- Node5&#45;&gt;Node6 -->
<g id="edge5" class="edge">
<title>Node5&#45;&gt;Node6</title>
<path fill="none" stroke="midnightblue" d="M969.03,-129.8C955.53,-126.06 941.4,-122.15 928.3,-118.53"/>
<polygon fill="midnightblue" stroke="midnightblue" points="968.15,-133.19 978.73,-132.48 970.02,-126.44 968.15,-133.19"/>
</g>
<!-- Node9 -->
<g id="node9" class="node">
<title>Node9</title>
<g id="a_node9"><a xlink:href="classhttplib_1_1Server.html#a1e7f1269fb97140ed003e6e1f64210c1" target="_top" xlink:title=" ">
<polygon fill="white" stroke="black" points="806,-137.5 806,-167.5 940,-167.5 940,-137.5 806,-137.5"/>
<text text-anchor="start" x="814" y="-155.5" font-family="Helvetica,sans-Serif" font-size="10.00">httplib::Server::write</text>
<text text-anchor="middle" x="873" y="-144.5" font-family="Helvetica,sans-Serif" font-size="10.00">_response_with_content</text>
</a>
</g>
</g>
<!-- Node5&#45;&gt;Node9 -->
<g id="edge8" class="edge">
<title>Node5&#45;&gt;Node9</title>
<path fill="none" stroke="midnightblue" d="M965.5,-149.62C957.14,-149.89 948.59,-150.15 940.24,-150.42"/>
<polygon fill="midnightblue" stroke="midnightblue" points="965.71,-153.12 975.6,-149.31 965.49,-146.12 965.71,-153.12"/>
</g>
<!-- Node7 -->
<g id="node7" class="node">
<title>Node7</title>
<g id="a_node7"><a xlink:href="classhttplib_1_1Server.html#a4e7c7c79cced3d61082df30b3eb97ed2" target="_top" xlink:title=" ">
<polygon fill="white" stroke="black" points="641,-88.5 641,-118.5 770,-118.5 770,-88.5 641,-88.5"/>
<text text-anchor="start" x="649" y="-106.5" font-family="Helvetica,sans-Serif" font-size="10.00">httplib::Server::process</text>
<text text-anchor="middle" x="705.5" y="-95.5" font-family="Helvetica,sans-Serif" font-size="10.00">_request</text>
</a>
</g>
</g>
<!-- Node6&#45;&gt;Node7 -->
<g id="edge6" class="edge">
<title>Node6&#45;&gt;Node7</title>
<path fill="none" stroke="midnightblue" d="M804.31,-103.5C792.98,-103.5 781.26,-103.5 770.04,-103.5"/>
<polygon fill="midnightblue" stroke="midnightblue" points="804.58,-107 814.58,-103.5 804.58,-100 804.58,-107"/>
</g>
<!-- Node8 -->
<g id="node8" class="node">
<title>Node8</title>
<g id="a_node8"><a xlink:href="classhttplib_1_1Server.html#a28221db99b5a35e45515553fdb9458a0" target="_top" xlink:title=" ">
<polygon fill="white" stroke="black" points="476,-88.5 476,-118.5 605,-118.5 605,-88.5 476,-88.5"/>
<text text-anchor="start" x="484" y="-106.5" font-family="Helvetica,sans-Serif" font-size="10.00">httplib::Server::process</text>
<text text-anchor="middle" x="540.5" y="-95.5" font-family="Helvetica,sans-Serif" font-size="10.00">_and_close_socket</text>
</a>
</g>
</g>
<!-- Node7&#45;&gt;Node8 -->
<g id="edge7" class="edge">
<title>Node7&#45;&gt;Node8</title>
<path fill="none" stroke="midnightblue" d="M630.31,-103.5C621.86,-103.5 613.3,-103.5 605,-103.5"/>
<polygon fill="midnightblue" stroke="midnightblue" points="630.55,-107 640.55,-103.5 630.55,-100 630.55,-107"/>
</g>
<!-- Node9&#45;&gt;Node7 -->
<g id="edge9" class="edge">
<title>Node9&#45;&gt;Node7</title>
<path fill="none" stroke="midnightblue" d="M811.32,-134.53C793.58,-129.28 774.39,-123.6 757.34,-118.55"/>
<polygon fill="midnightblue" stroke="midnightblue" points="810.41,-137.92 820.99,-137.4 812.4,-131.2 810.41,-137.92"/>
</g>
<!-- Node10&#45;&gt;Node11 -->
<g id="edge11" class="edge">
<title>Node10&#45;&gt;Node11</title>
<path fill="none" stroke="midnightblue" d="M1124.86,-207.5C1111.84,-207.5 1098.4,-207.5 1086.01,-207.5"/>
<polygon fill="midnightblue" stroke="midnightblue" points="1125.19,-211 1135.19,-207.5 1125.19,-204 1125.19,-211"/>
</g>
<!-- Node12 -->
<g id="node12" class="node">
<title>Node12</title>
<g id="a_node12"><a xlink:href="classhttplib_1_1ClientImpl.html#aaf87765187adb847b44c102643704f3a" target="_top" xlink:title=" ">
<polygon fill="white" stroke="black" points="821,-192.5 821,-222.5 925,-222.5 925,-192.5 821,-192.5"/>
<text text-anchor="start" x="829" y="-210.5" font-family="Helvetica,sans-Serif" font-size="10.00">httplib::ClientImpl</text>
<text text-anchor="middle" x="873" y="-199.5" font-family="Helvetica,sans-Serif" font-size="10.00">::process_request</text>
</a>
</g>
</g>
<!-- Node11&#45;&gt;Node12 -->
<g id="edge12" class="edge">
<title>Node11&#45;&gt;Node12</title>
<path fill="none" stroke="midnightblue" d="M971.39,-207.5C956.08,-207.5 939.83,-207.5 925.09,-207.5"/>
<polygon fill="midnightblue" stroke="midnightblue" points="971.82,-211 981.82,-207.5 971.82,-204 971.82,-211"/>
</g>
<!-- Node13 -->
<g id="node13" class="node">
<title>Node13</title>
<g id="a_node13"><a xlink:href="classhttplib_1_1ClientImpl.html#ac4e30af906067369892520eccd85c038" target="_top" xlink:title=" ">
<polygon fill="white" stroke="black" points="653.5,-192.5 653.5,-222.5 757.5,-222.5 757.5,-192.5 653.5,-192.5"/>
<text text-anchor="start" x="661.5" y="-210.5" font-family="Helvetica,sans-Serif" font-size="10.00">httplib::ClientImpl</text>
<text text-anchor="middle" x="705.5" y="-199.5" font-family="Helvetica,sans-Serif" font-size="10.00">::handle_request</text>
</a>
</g>
</g>
<!-- Node12&#45;&gt;Node13 -->
<g id="edge13" class="edge">
<title>Node12&#45;&gt;Node13</title>
<path fill="none" stroke="midnightblue" d="M810.87,-207.5C793.36,-207.5 774.46,-207.5 757.62,-207.5"/>
<polygon fill="midnightblue" stroke="midnightblue" points="810.99,-211 820.99,-207.5 810.99,-204 810.99,-211"/>
</g>
<!-- Node14 -->
<g id="node14" class="node">
<title>Node14</title>
<g id="a_node14"><a xlink:href="classhttplib_1_1ClientImpl.html#ab783868da89488b0bf734e8d83b5e569" target="_top" xlink:title=" ">
<polygon fill="white" stroke="black" points="488.5,-219.5 488.5,-249.5 592.5,-249.5 592.5,-219.5 488.5,-219.5"/>
<text text-anchor="start" x="496.5" y="-237.5" font-family="Helvetica,sans-Serif" font-size="10.00">httplib::ClientImpl</text>
<text text-anchor="middle" x="540.5" y="-226.5" font-family="Helvetica,sans-Serif" font-size="10.00">::send_</text>
</a>
</g>
</g>
<!-- Node13&#45;&gt;Node14 -->
<g id="edge14" class="edge">
<title>Node13&#45;&gt;Node14</title>
<path fill="none" stroke="midnightblue" d="M643.2,-217.65C626.57,-220.41 608.74,-223.36 592.73,-226.01"/>
<polygon fill="midnightblue" stroke="midnightblue" points="644.08,-221.06 653.37,-215.97 642.94,-214.15 644.08,-221.06"/>
</g>
<!-- Node15 -->
<g id="node15" class="node">
<title>Node15</title>
<g id="a_node15"><a xlink:href="classhttplib_1_1ClientImpl.html#a5973f9c3afa13416417fd7a317eb811b" target="_top" xlink:title=" ">
<polygon fill="white" stroke="black" points="324,-282.5 324,-312.5 428,-312.5 428,-282.5 324,-282.5"/>
<text text-anchor="start" x="332" y="-300.5" font-family="Helvetica,sans-Serif" font-size="10.00">httplib::ClientImpl</text>
<text text-anchor="middle" x="376" y="-289.5" font-family="Helvetica,sans-Serif" font-size="10.00">::Delete</text>
</a>
</g>
</g>
<!-- Node14&#45;&gt;Node15 -->
<g id="edge15" class="edge">
<title>Node14&#45;&gt;Node15</title>
<path fill="none" stroke="midnightblue" d="M490.95,-253.32C466.96,-262.62 438.41,-273.69 415.89,-282.42"/>
<polygon fill="midnightblue" stroke="midnightblue" points="492.52,-256.47 500.58,-249.59 489.99,-249.94 492.52,-256.47"/>
</g>
<!-- Node16 -->
<g id="node16" class="node">
<title>Node16</title>
<g id="a_node16"><a xlink:href="classhttplib_1_1ClientImpl.html#ad073f1945ddc13fc4778449739430889" target="_top" xlink:title=" ">
<polygon fill="white" stroke="black" points="312,-244 312,-263 440,-263 440,-244 312,-244"/>
<text text-anchor="middle" x="376" y="-251" font-family="Helvetica,sans-Serif" font-size="10.00">httplib::ClientImpl::Get</text>
</a>
</g>
</g>
<!-- Node14&#45;&gt;Node16 -->
<g id="edge16" class="edge">
<title>Node14&#45;&gt;Node16</title>
<path fill="none" stroke="midnightblue" d="M477.87,-241.71C465.5,-243.15 452.48,-244.67 440.06,-246.13"/>
<polygon fill="midnightblue" stroke="midnightblue" points="478.56,-245.15 488.08,-240.51 477.75,-238.2 478.56,-245.15"/>
</g>
<!-- Node17 -->
<g id="node17" class="node">
<title>Node17</title>
<g id="a_node17"><a xlink:href="classhttplib_1_1ClientImpl.html#adf64c589c0334ccd516905484140e0d1" target="_top" xlink:title=" ">
<polygon fill="white" stroke="black" points="324,-194.5 324,-224.5 428,-224.5 428,-194.5 324,-194.5"/>
<text text-anchor="start" x="332" y="-212.5" font-family="Helvetica,sans-Serif" font-size="10.00">httplib::ClientImpl</text>
<text text-anchor="middle" x="376" y="-201.5" font-family="Helvetica,sans-Serif" font-size="10.00">::Head</text>
</a>
</g>
</g>
<!-- Node14&#45;&gt;Node17 -->
<g id="edge17" class="edge">
<title>Node14&#45;&gt;Node17</title>
<path fill="none" stroke="midnightblue" d="M478.01,-225.04C461.54,-222.51 443.92,-219.8 428.08,-217.36"/>
<polygon fill="midnightblue" stroke="midnightblue" points="477.67,-228.53 488.08,-226.59 478.73,-221.61 477.67,-228.53"/>
</g>
<!-- Node18 -->
<g id="node18" class="node">
<title>Node18</title>
<g id="a_node18"><a xlink:href="classhttplib_1_1ClientImpl.html#a0de10ef5e77b7c6cc83674bd86bc2e8a" target="_top" xlink:title=" ">
<polygon fill="white" stroke="black" points="324,-331.5 324,-361.5 428,-361.5 428,-331.5 324,-331.5"/>
<text text-anchor="start" x="332" y="-349.5" font-family="Helvetica,sans-Serif" font-size="10.00">httplib::ClientImpl</text>
<text text-anchor="middle" x="376" y="-338.5" font-family="Helvetica,sans-Serif" font-size="10.00">::Options</text>
</a>
</g>
</g>
<!-- Node14&#45;&gt;Node18 -->
<g id="edge18" class="edge">
<title>Node14&#45;&gt;Node18</title>
<path fill="none" stroke="midnightblue" d="M518.7,-257.01C499.73,-276.47 470.14,-304.27 440,-322.5 434.59,-325.77 428.66,-328.73 422.67,-331.36"/>
<polygon fill="midnightblue" stroke="midnightblue" points="521.27,-259.38 525.67,-249.74 516.22,-254.54 521.27,-259.38"/>
</g>
<!-- Node19 -->
<g id="node19" class="node">
<title>Node19</title>
<g id="a_node19"><a xlink:href="classhttplib_1_1ClientImpl.html#a618895e4b137663691fdc41fd998b843" target="_top" xlink:title=" ">
<polygon fill="white" stroke="black" points="324,-145.5 324,-175.5 428,-175.5 428,-145.5 324,-145.5"/>
<text text-anchor="start" x="332" y="-163.5" font-family="Helvetica,sans-Serif" font-size="10.00">httplib::ClientImpl</text>
<text text-anchor="middle" x="376" y="-152.5" font-family="Helvetica,sans-Serif" font-size="10.00">::send</text>
</a>
</g>
</g>
<!-- Node14&#45;&gt;Node19 -->
<g id="edge19" class="edge">
<title>Node14&#45;&gt;Node19</title>
<path fill="none" stroke="midnightblue" d="M501.25,-214.78C482.89,-205.54 460.48,-194.59 440,-185.5 432.47,-182.16 424.35,-178.78 416.52,-175.62"/>
<polygon fill="midnightblue" stroke="midnightblue" points="499.68,-217.9 510.19,-219.3 502.84,-211.66 499.68,-217.9"/>
</g>
<!-- Node19&#45;&gt;Node13 -->
<g id="edge20" class="edge">
<title>Node19&#45;&gt;Node13</title>
<path fill="none" stroke="midnightblue" d="M438.13,-169.27C500.17,-178.18 595.13,-191.8 653.33,-200.16"/>
<polygon fill="midnightblue" stroke="midnightblue" points="438.48,-165.79 428.08,-167.83 437.48,-172.72 438.48,-165.79"/>
</g>
<!-- Node20 -->
<g id="node20" class="node">
<title>Node20</title>
<g id="a_node20"><a xlink:href="classhttplib_1_1ClientImpl.html#ab81f0f3ff5031d8bb231928318cd95ff" target="_top" xlink:title=" ">
<polygon fill="white" stroke="black" points="167,-173.5 167,-203.5 271,-203.5 271,-173.5 167,-173.5"/>
<text text-anchor="start" x="175" y="-191.5" font-family="Helvetica,sans-Serif" font-size="10.00">httplib::ClientImpl</text>
<text text-anchor="middle" x="219" y="-180.5" font-family="Helvetica,sans-Serif" font-size="10.00">::send_</text>
</a>
</g>
</g>
<!-- Node19&#45;&gt;Node20 -->
<g id="edge21" class="edge">
<title>Node19&#45;&gt;Node20</title>
<path fill="none" stroke="midnightblue" d="M313.71,-171.57C299.6,-174.12 284.75,-176.8 271.13,-179.26"/>
<polygon fill="midnightblue" stroke="midnightblue" points="314.6,-174.97 323.82,-169.75 313.35,-168.08 314.6,-174.97"/>
</g>
<!-- Node21 -->
<g id="node21" class="node">
<title>Node21</title>
<g id="a_node21"><a xlink:href="classhttplib_1_1ClientImpl.html#ab3169b93b50fca58a21f2db0a2bdea88" target="_top" xlink:title=" ">
<polygon fill="white" stroke="black" points="162,-113 162,-154 276,-154 276,-113 162,-113"/>
<text text-anchor="start" x="170" y="-142" font-family="Helvetica,sans-Serif" font-size="10.00">httplib::ClientImpl</text>
<text text-anchor="start" x="170" y="-131" font-family="Helvetica,sans-Serif" font-size="10.00">::send_with_content</text>
<text text-anchor="middle" x="219" y="-120" font-family="Helvetica,sans-Serif" font-size="10.00">_provider</text>
</a>
</g>
</g>
<!-- Node19&#45;&gt;Node21 -->
<g id="edge22" class="edge">
<title>Node19&#45;&gt;Node21</title>
<path fill="none" stroke="midnightblue" d="M313.61,-149.81C301.27,-147.66 288.36,-145.41 276.21,-143.29"/>
<polygon fill="midnightblue" stroke="midnightblue" points="313.37,-153.32 323.82,-151.58 314.57,-146.42 313.37,-153.32"/>
</g>
<!-- Node22 -->
<g id="node22" class="node">
<title>Node22</title>
<g id="a_node22"><a xlink:href="classhttplib_1_1ClientImpl.html#ad454e536598fa610080587d8516b5c80" target="_top" xlink:title=" ">
<polygon fill="white" stroke="black" points="11,-189.5 11,-219.5 115,-219.5 115,-189.5 11,-189.5"/>
<text text-anchor="start" x="19" y="-207.5" font-family="Helvetica,sans-Serif" font-size="10.00">httplib::ClientImpl</text>
<text text-anchor="middle" x="63" y="-196.5" font-family="Helvetica,sans-Serif" font-size="10.00">::Patch</text>
</a>
</g>
</g>
<!-- Node21&#45;&gt;Node22 -->
<g id="edge23" class="edge">
<title>Node21&#45;&gt;Node22</title>
<path fill="none" stroke="midnightblue" d="M170.81,-158.78C156.56,-166.1 140.77,-173.89 126,-180.5 119.15,-183.56 111.78,-186.62 104.6,-189.47"/>
<polygon fill="midnightblue" stroke="midnightblue" points="172.66,-161.77 179.93,-154.06 169.44,-155.55 172.66,-161.77"/>
</g>
<!-- Node23 -->
<g id="node23" class="node">
<title>Node23</title>
<g id="a_node23"><a xlink:href="classhttplib_1_1ClientImpl.html#a31fe4e8466d44dc45e28d3e68db05e01" target="_top" xlink:title=" ">
<polygon fill="white" stroke="black" points="11,-140.5 11,-170.5 115,-170.5 115,-140.5 11,-140.5"/>
<text text-anchor="start" x="19" y="-158.5" font-family="Helvetica,sans-Serif" font-size="10.00">httplib::ClientImpl</text>
<text text-anchor="middle" x="63" y="-147.5" font-family="Helvetica,sans-Serif" font-size="10.00">::Post</text>
</a>
</g>
</g>
<!-- Node21&#45;&gt;Node23 -->
<g id="edge24" class="edge">
<title>Node21&#45;&gt;Node23</title>
<path fill="none" stroke="midnightblue" d="M151.78,-142.96C139.51,-144.71 126.87,-146.52 115.13,-148.2"/>
<polygon fill="midnightblue" stroke="midnightblue" points="152.56,-146.38 161.97,-141.5 151.57,-139.45 152.56,-146.38"/>
</g>
<!-- Node24 -->
<g id="node24" class="node">
<title>Node24</title>
<g id="a_node24"><a xlink:href="classhttplib_1_1ClientImpl.html#a048987c16a2f45382c1bb0d2102e4873" target="_top" xlink:title=" ">
<polygon fill="white" stroke="black" points="0,-102 0,-121 126,-121 126,-102 0,-102"/>
<text text-anchor="middle" x="63" y="-109" font-family="Helvetica,sans-Serif" font-size="10.00">httplib::ClientImpl::Put</text>
</a>
</g>
</g>
<!-- Node21&#45;&gt;Node24 -->
<g id="edge25" class="edge">
<title>Node21&#45;&gt;Node24</title>
<path fill="none" stroke="midnightblue" d="M152.03,-124.08C143.48,-122.85 134.73,-121.6 126.24,-120.39"/>
<polygon fill="midnightblue" stroke="midnightblue" points="151.57,-127.55 161.97,-125.5 152.56,-120.62 151.57,-127.55"/>
</g>
<!-- Node25 -->
<g id="node25" class="node">
<title>Node25</title>
<g id="a_node25"><a xlink:href="classhttplib_1_1ClientImpl.html#ac9d400990790ff3aa7f3639392181ddb" target="_top" xlink:title=" ">
<polygon fill="white" stroke="black" points="6,-42 6,-83 120,-83 120,-42 6,-42"/>
<text text-anchor="start" x="14" y="-71" font-family="Helvetica,sans-Serif" font-size="10.00">httplib::ClientImpl</text>
<text text-anchor="start" x="14" y="-60" font-family="Helvetica,sans-Serif" font-size="10.00">::send_with_content</text>
<text text-anchor="middle" x="63" y="-49" font-family="Helvetica,sans-Serif" font-size="10.00">_provider</text>
</a>
</g>
</g>
<!-- Node21&#45;&gt;Node25 -->
<g id="edge26" class="edge">
<title>Node21&#45;&gt;Node25</title>
<path fill="none" stroke="midnightblue" d="M164.18,-108.69C146.06,-100.33 126.05,-91.11 108.71,-83.11"/>
<polygon fill="midnightblue" stroke="midnightblue" points="162.91,-111.96 173.46,-112.96 165.84,-105.6 162.91,-111.96"/>
</g>
<!-- Node26&#45;&gt;Node4 -->
<g id="edge28" class="edge">
<title>Node26&#45;&gt;Node4</title>
<path fill="none" stroke="midnightblue" d="M1296.42,-163.88C1284.18,-161.91 1271.41,-159.86 1259.21,-157.9"/>
<polygon fill="midnightblue" stroke="midnightblue" points="1296.13,-167.38 1306.56,-165.51 1297.24,-160.47 1296.13,-167.38"/>
</g>
<!-- Node26&#45;&gt;Node10 -->
<g id="edge29" class="edge">
<title>Node26&#45;&gt;Node10</title>
<path fill="none" stroke="midnightblue" d="M1296.45,-187.47C1281.64,-190.38 1266.05,-193.45 1251.63,-196.28"/>
<polygon fill="midnightblue" stroke="midnightblue" points="1297.42,-190.85 1306.56,-185.49 1296.07,-183.98 1297.42,-190.85"/>
</g>
<!-- Node27&#45;&gt;Node4 -->
<g id="edge31" class="edge">
<title>Node27&#45;&gt;Node4</title>
<path fill="none" stroke="midnightblue" d="M1284.66,-135.69C1276.09,-136.82 1267.44,-137.95 1259.06,-139.05"/>
<polygon fill="midnightblue" stroke="midnightblue" points="1285.19,-139.15 1294.65,-134.38 1284.28,-132.21 1285.19,-139.15"/>
</g>
<!-- Node28&#45;&gt;Node5 -->
<g id="edge38" class="edge">
<title>Node28&#45;&gt;Node5</title>
<path fill="none" stroke="midnightblue" d="M1156.5,-79.61C1127.74,-95.68 1088.06,-117.85 1061.98,-132.42"/>
<polygon fill="midnightblue" stroke="midnightblue" points="1158.4,-82.56 1165.42,-74.63 1154.99,-76.45 1158.4,-82.56"/>
</g>
<!-- Node28&#45;&gt;Node7 -->
<g id="edge35" class="edge">
<title>Node28&#45;&gt;Node7</title>
<path fill="none" stroke="midnightblue" d="M1123.1,-59.24C1045.44,-59.84 916.09,-63.51 806,-79.5 791.23,-81.64 775.44,-84.97 760.89,-88.46"/>
<polygon fill="midnightblue" stroke="midnightblue" points="1123.26,-62.74 1133.24,-59.18 1123.22,-55.74 1123.26,-62.74"/>
</g>
<!-- Node28&#45;&gt;Node11 -->
<g id="edge37" class="edge">
<title>Node28&#45;&gt;Node11</title>
<path fill="none" stroke="midnightblue" d="M1168.49,-81.6C1155.94,-93.56 1140.62,-108.86 1128,-123.5 1110.36,-143.97 1111.88,-154.2 1092,-172.5 1083.8,-180.05 1073.73,-186.86 1064.35,-192.42"/>
<polygon fill="midnightblue" stroke="midnightblue" points="1171.01,-84.03 1175.89,-74.62 1166.21,-78.94 1171.01,-84.03"/>
</g>
<!-- Node28&#45;&gt;Node29 -->
<g id="edge36" class="edge">
<title>Node28&#45;&gt;Node29</title>
<path fill="none" stroke="midnightblue" d="M1128.74,-41.69C1115.49,-37.98 1101.64,-34.12 1088.79,-30.53"/>
<polygon fill="midnightblue" stroke="midnightblue" points="1128.16,-45.16 1138.74,-44.48 1130.05,-38.42 1128.16,-45.16"/>
</g>
<!-- Node30&#45;&gt;Node4 -->
<g id="edge41" class="edge">
<title>Node30&#45;&gt;Node4</title>
<path fill="none" stroke="midnightblue" d="M1461.76,-84.74C1413.44,-84.71 1349.72,-87.91 1295,-101.5 1268.37,-108.12 1240.13,-121.69 1220.39,-132.39"/>
<polygon fill="midnightblue" stroke="midnightblue" points="1461.81,-88.24 1471.83,-84.8 1461.85,-81.24 1461.81,-88.24"/>
</g>
</g>
</svg>
