<?xml version="1.0" encoding="UTF-8" standalone="no"?>
<!DOCTYPE svg PUBLIC "-//W3C//DTD SVG 1.1//EN"
 "http://www.w3.org/Graphics/SVG/1.1/DTD/svg11.dtd">
<!-- Generated by graphviz version 2.43.0 (0)
 -->
<!-- Title: nlohmann::detail::parse_error Pages: 1 -->
<svg width="201pt" height="504pt"
 viewBox="0.00 0.00 200.50 504.00" xmlns="http://www.w3.org/2000/svg" xmlns:xlink="http://www.w3.org/1999/xlink">
<g id="graph0" class="graph" transform="scale(1 1) rotate(0) translate(4 500)">
<title>nlohmann::detail::parse_error</title>
<polygon fill="white" stroke="transparent" points="-4,4 -4,-500 196.5,-500 196.5,4 -4,4"/>
<!-- Node1 -->
<g id="node1" class="node">
<title>Node1</title>
<g id="a_node1"><a xlink:title="exception indicating a parse error">
<polygon fill="#bfbfbf" stroke="black" points="10.5,-0.5 10.5,-145.5 142.5,-145.5 142.5,-0.5 10.5,-0.5"/>
<text text-anchor="start" x="18.5" y="-133.5" font-family="Helvetica,sans-Serif" font-size="10.00">nlohmann::detail::parse</text>
<text text-anchor="middle" x="76.5" y="-122.5" font-family="Helvetica,sans-Serif" font-size="10.00">_error</text>
<polyline fill="none" stroke="black" points="10.5,-115.5 142.5,-115.5 "/>
<text text-anchor="start" x="18.5" y="-103.5" font-family="Helvetica,sans-Serif" font-size="10.00">+ byte</text>
<polyline fill="none" stroke="black" points="10.5,-96.5 142.5,-96.5 "/>
<text text-anchor="start" x="18.5" y="-84.5" font-family="Helvetica,sans-Serif" font-size="10.00">+ create()</text>
<text text-anchor="start" x="18.5" y="-73.5" font-family="Helvetica,sans-Serif" font-size="10.00">+ create()</text>
<text text-anchor="start" x="18.5" y="-62.5" font-family="Helvetica,sans-Serif" font-size="10.00">+ create()</text>
<text text-anchor="start" x="18.5" y="-51.5" font-family="Helvetica,sans-Serif" font-size="10.00">+ create()</text>
<text text-anchor="start" x="18.5" y="-40.5" font-family="Helvetica,sans-Serif" font-size="10.00">&#45; parse_error()</text>
<text text-anchor="start" x="18.5" y="-29.5" font-family="Helvetica,sans-Serif" font-size="10.00">&#45; parse_error()</text>
<text text-anchor="start" x="18.5" y="-18.5" font-family="Helvetica,sans-Serif" font-size="10.00">&#45; position_string()</text>
<text text-anchor="start" x="18.5" y="-7.5" font-family="Helvetica,sans-Serif" font-size="10.00">&#45; position_string()</text>
</a>
</g>
</g>
<!-- Node2 -->
<g id="node2" class="node">
<title>Node2</title>
<g id="a_node2"><a xlink:href="classnlohmann_1_1detail_1_1exception.html" target="_top" xlink:title="general exception of the basic_json class">
<polygon fill="white" stroke="black" points="0,-183.5 0,-295.5 153,-295.5 153,-183.5 0,-183.5"/>
<text text-anchor="middle" x="76.5" y="-283.5" font-family="Helvetica,sans-Serif" font-size="10.00">nlohmann::detail::exception</text>
<polyline fill="none" stroke="black" points="0,-276.5 153,-276.5 "/>
<text text-anchor="start" x="8" y="-264.5" font-family="Helvetica,sans-Serif" font-size="10.00">+ id</text>
<polyline fill="none" stroke="black" points="0,-257.5 153,-257.5 "/>
<text text-anchor="start" x="8" y="-245.5" font-family="Helvetica,sans-Serif" font-size="10.00">+ what()</text>
<text text-anchor="start" x="8" y="-234.5" font-family="Helvetica,sans-Serif" font-size="10.00">+ what()</text>
<text text-anchor="start" x="8" y="-223.5" font-family="Helvetica,sans-Serif" font-size="10.00"># exception()</text>
<text text-anchor="start" x="8" y="-212.5" font-family="Helvetica,sans-Serif" font-size="10.00"># exception()</text>
<text text-anchor="start" x="8" y="-201.5" font-family="Helvetica,sans-Serif" font-size="10.00"># name()</text>
<text text-anchor="start" x="8" y="-190.5" font-family="Helvetica,sans-Serif" font-size="10.00"># name()</text>
</a>
</g>
</g>
<!-- Node2&#45;&gt;Node1 -->
<g id="edge1" class="edge">
<title>Node2&#45;&gt;Node1</title>
<path fill="none" stroke="midnightblue" d="M76.5,-173.22C76.5,-164.19 76.5,-154.88 76.5,-145.74"/>
<polygon fill="none" stroke="midnightblue" points="73,-173.27 76.5,-183.27 80,-173.27 73,-173.27"/>
</g>
<!-- Node3 -->
<g id="node3" class="node">
<title>Node3</title>
<g id="a_node3"><a xlink:title="STL class.">
<polygon fill="white" stroke="#bfbfbf" points="29.5,-438.5 29.5,-495.5 115.5,-495.5 115.5,-438.5 29.5,-438.5"/>
<text text-anchor="middle" x="72.5" y="-483.5" font-family="Helvetica,sans-Serif" font-size="10.00">std::exception</text>
<polyline fill="none" stroke="#bfbfbf" points="29.5,-476.5 115.5,-476.5 "/>
<text text-anchor="middle" x="72.5" y="-464.5" font-family="Helvetica,sans-Serif" font-size="10.00"> </text>
<polyline fill="none" stroke="#bfbfbf" points="29.5,-457.5 115.5,-457.5 "/>
<text text-anchor="middle" x="72.5" y="-445.5" font-family="Helvetica,sans-Serif" font-size="10.00"> </text>
</a>
</g>
</g>
<!-- Node3&#45;&gt;Node2 -->
<g id="edge2" class="edge">
<title>Node3&#45;&gt;Node2</title>
<path fill="none" stroke="midnightblue" d="M73.17,-428.19C73.81,-391.92 74.79,-336.73 75.52,-295.57"/>
<polygon fill="none" stroke="midnightblue" points="69.67,-428.29 72.99,-438.35 76.67,-428.41 69.67,-428.29"/>
</g>
<!-- Node4 -->
<g id="node4" class="node">
<title>Node4</title>
<g id="a_node4"><a xlink:title="STL class.">
<polygon fill="white" stroke="#bfbfbf" points="88.5,-343.5 88.5,-400.5 192.5,-400.5 192.5,-343.5 88.5,-343.5"/>
<text text-anchor="middle" x="140.5" y="-388.5" font-family="Helvetica,sans-Serif" font-size="10.00">std::runtime_error</text>
<polyline fill="none" stroke="#bfbfbf" points="88.5,-381.5 192.5,-381.5 "/>
<text text-anchor="middle" x="140.5" y="-369.5" font-family="Helvetica,sans-Serif" font-size="10.00"> </text>
<polyline fill="none" stroke="#bfbfbf" points="88.5,-362.5 192.5,-362.5 "/>
<text text-anchor="middle" x="140.5" y="-350.5" font-family="Helvetica,sans-Serif" font-size="10.00"> </text>
</a>
</g>
</g>
<!-- Node3&#45;&gt;Node4 -->
<g id="edge4" class="edge">
<title>Node3&#45;&gt;Node4</title>
<path fill="none" stroke="midnightblue" d="M98.81,-430.01C105.93,-420.28 113.52,-409.9 120.24,-400.71"/>
<polygon fill="none" stroke="midnightblue" points="95.8,-428.21 92.72,-438.35 101.45,-432.34 95.8,-428.21"/>
</g>
<!-- Node4&#45;&gt;Node2 -->
<g id="edge3" class="edge">
<title>Node4&#45;&gt;Node2</title>
<path fill="none" stroke="#404040" d="M126.93,-343.32C121.6,-332.45 115.23,-319.47 108.84,-306.45"/>
<polygon fill="none" stroke="#404040" points="108.78,-306.32 102.55,-302.7 103.5,-295.55 109.73,-299.17 108.78,-306.32"/>
<text text-anchor="middle" x="124" y="-317" font-family="Helvetica,sans-Serif" font-size="10.00"> &#45;m</text>
</g>
</g>
</svg>
