<?xml version="1.0" encoding="UTF-8" standalone="no"?>
<!DOCTYPE svg PUBLIC "-//W3C//DTD SVG 1.1//EN"
 "http://www.w3.org/Graphics/SVG/1.1/DTD/svg11.dtd">
<!-- Generated by graphviz version 2.43.0 (0)
 -->
<!-- Title: benchmark::Barrier::removeThread Pages: 1 -->
<svg width="323pt" height="50pt"
 viewBox="0.00 0.00 323.00 50.00" xmlns="http://www.w3.org/2000/svg" xmlns:xlink="http://www.w3.org/1999/xlink">
<g id="graph0" class="graph" transform="scale(1 1) rotate(0) translate(4 46)">
<title>benchmark::Barrier::removeThread</title>
<polygon fill="white" stroke="transparent" points="-4,4 -4,-46 319,-46 319,4 -4,4"/>
<!-- Node1 -->
<g id="node1" class="node">
<title>Node1</title>
<g id="a_node1"><a xlink:title=" ">
<polygon fill="#bfbfbf" stroke="black" points="205,-6 205,-36 315,-36 315,-6 205,-6"/>
<text text-anchor="start" x="213" y="-24" font-family="Helvetica,sans-Serif" font-size="10.00">benchmark::Barrier</text>
<text text-anchor="middle" x="260" y="-13" font-family="Helvetica,sans-Serif" font-size="10.00">::removeThread</text>
</a>
</g>
</g>
<!-- Node2 -->
<g id="node2" class="node">
<title>Node2</title>
<g id="a_node2"><a xlink:href="classbenchmark_1_1internal_1_1ThreadManager.html#a426646c2058e19fb05bd3b532b50c2ca" target="_top" xlink:title=" ">
<polygon fill="white" stroke="black" points="0,-0.5 0,-41.5 169,-41.5 169,-0.5 0,-0.5"/>
<text text-anchor="start" x="8" y="-29.5" font-family="Helvetica,sans-Serif" font-size="10.00">benchmark::internal</text>
<text text-anchor="start" x="8" y="-18.5" font-family="Helvetica,sans-Serif" font-size="10.00">::ThreadManager::NotifyThread</text>
<text text-anchor="middle" x="84.5" y="-7.5" font-family="Helvetica,sans-Serif" font-size="10.00">Complete</text>
</a>
</g>
</g>
<!-- Node1&#45;&gt;Node2 -->
<g id="edge1" class="edge">
<title>Node1&#45;&gt;Node2</title>
<path fill="none" stroke="midnightblue" d="M194.38,-21C186.19,-21 177.71,-21 169.28,-21"/>
<polygon fill="midnightblue" stroke="midnightblue" points="194.58,-24.5 204.58,-21 194.58,-17.5 194.58,-24.5"/>
</g>
</g>
</svg>
