<?xml version="1.0" encoding="UTF-8" standalone="no"?>
<!DOCTYPE svg PUBLIC "-//W3C//DTD SVG 1.1//EN"
 "http://www.w3.org/Graphics/SVG/1.1/DTD/svg11.dtd">
<!-- Generated by graphviz version 2.43.0 (0)
 -->
<!-- Title: nlohmann::detail::binary_writer::calc_bson_array_size Pages: 1 -->
<svg width="1073pt" height="312pt"
 viewBox="0.00 0.00 1073.00 312.00" xmlns="http://www.w3.org/2000/svg" xmlns:xlink="http://www.w3.org/1999/xlink">
<g id="graph0" class="graph" transform="scale(1 1) rotate(0) translate(4 308)">
<title>nlohmann::detail::binary_writer::calc_bson_array_size</title>
<polygon fill="white" stroke="transparent" points="-4,4 -4,-308 1069,-308 1069,4 -4,4"/>
<!-- Node1 -->
<g id="node1" class="node">
<title>Node1</title>
<g id="a_node1"><a xlink:title=" ">
<polygon fill="#bfbfbf" stroke="black" points="0,-122.5 0,-152.5 160,-152.5 160,-122.5 0,-122.5"/>
<text text-anchor="start" x="8" y="-140.5" font-family="Helvetica,sans-Serif" font-size="10.00">nlohmann::detail::binary</text>
<text text-anchor="middle" x="80" y="-129.5" font-family="Helvetica,sans-Serif" font-size="10.00">_writer::calc_bson_array_size</text>
</a>
</g>
</g>
<!-- Node2 -->
<g id="node2" class="node">
<title>Node2</title>
<g id="a_node2"><a xlink:href="classnlohmann_1_1detail_1_1binary__writer.html#a1e4372c5984184eb5bcc09af1fcc2ee0" target="_top" xlink:title="Calculates the size necessary to serialize the JSON value j with its name.">
<polygon fill="white" stroke="black" points="196,-122.5 196,-152.5 371,-152.5 371,-122.5 196,-122.5"/>
<text text-anchor="start" x="204" y="-140.5" font-family="Helvetica,sans-Serif" font-size="10.00">nlohmann::detail::binary</text>
<text text-anchor="middle" x="283.5" y="-129.5" font-family="Helvetica,sans-Serif" font-size="10.00">_writer::calc_bson_element_size</text>
</a>
</g>
</g>
<!-- Node1&#45;&gt;Node2 -->
<g id="edge1" class="edge">
<title>Node1&#45;&gt;Node2</title>
<path fill="none" stroke="midnightblue" d="M160.06,-130.89C168.46,-130.78 177.07,-130.73 185.65,-130.75"/>
<polygon fill="midnightblue" stroke="midnightblue" points="185.66,-134.25 195.68,-130.81 185.7,-127.25 185.66,-134.25"/>
</g>
<!-- Node13 -->
<g id="node13" class="node">
<title>Node13</title>
<g id="a_node13"><a xlink:href="namespacenlohmann.html#ad675d1c22f5240b2b3065c241b204477" target="_top" xlink:title="user&#45;defined to_string function for JSON values">
<polygon fill="white" stroke="black" points="226.5,-84 226.5,-103 340.5,-103 340.5,-84 226.5,-84"/>
<text text-anchor="middle" x="283.5" y="-91" font-family="Helvetica,sans-Serif" font-size="10.00">nlohmann::to_string</text>
</a>
</g>
</g>
<!-- Node1&#45;&gt;Node13 -->
<g id="edge14" class="edge">
<title>Node1&#45;&gt;Node13</title>
<path fill="none" stroke="midnightblue" d="M149.78,-122.48C175.62,-116.84 204.59,-110.51 228.85,-105.22"/>
<polygon fill="midnightblue" stroke="midnightblue" points="229.91,-108.57 238.94,-103.01 228.42,-101.73 229.91,-108.57"/>
</g>
<!-- Node2&#45;&gt;Node1 -->
<g id="edge3" class="edge">
<title>Node2&#45;&gt;Node1</title>
<path fill="none" stroke="midnightblue" d="M195.68,-144.19C187.26,-144.26 178.72,-144.27 170.28,-144.21"/>
<polygon fill="midnightblue" stroke="midnightblue" points="170.09,-140.71 160.06,-144.11 170.02,-147.71 170.09,-140.71"/>
</g>
<!-- Node3 -->
<g id="node3" class="node">
<title>Node3</title>
<g id="a_node3"><a xlink:href="FuzzerTracePC_8cpp.html#a1f10ac78bd11294b612636121065eb5b" target="_top" xlink:title=" ">
<polygon fill="white" stroke="black" points="473,-257 473,-276 520,-276 520,-257 473,-257"/>
<text text-anchor="middle" x="496.5" y="-264" font-family="Helvetica,sans-Serif" font-size="10.00">assert</text>
</a>
</g>
</g>
<!-- Node2&#45;&gt;Node3 -->
<g id="edge2" class="edge">
<title>Node2&#45;&gt;Node3</title>
<path fill="none" stroke="midnightblue" d="M296.67,-152.65C316.9,-176.73 359.89,-223.48 407,-247.5 424.27,-256.31 445.46,-261.04 462.77,-263.58"/>
<polygon fill="midnightblue" stroke="midnightblue" points="462.61,-267.09 472.97,-264.89 463.5,-260.14 462.61,-267.09"/>
</g>
<!-- Node4 -->
<g id="node4" class="node">
<title>Node4</title>
<g id="a_node4"><a xlink:href="classnlohmann_1_1detail_1_1binary__writer.html#a5bae2f1db2c511b869dffaddf15a1653" target="_top" xlink:title=" ">
<polygon fill="white" stroke="black" points="428.5,-197 428.5,-238 564.5,-238 564.5,-197 428.5,-197"/>
<text text-anchor="start" x="436.5" y="-226" font-family="Helvetica,sans-Serif" font-size="10.00">nlohmann::detail::binary</text>
<text text-anchor="start" x="436.5" y="-215" font-family="Helvetica,sans-Serif" font-size="10.00">_writer::calc_bson_entry</text>
<text text-anchor="middle" x="496.5" y="-204" font-family="Helvetica,sans-Serif" font-size="10.00">_header_size</text>
</a>
</g>
</g>
<!-- Node2&#45;&gt;Node4 -->
<g id="edge4" class="edge">
<title>Node2&#45;&gt;Node4</title>
<path fill="none" stroke="midnightblue" d="M321.06,-152.61C345.32,-162.51 377.94,-175.6 407,-186.5 413,-188.75 419.25,-191.04 425.53,-193.31"/>
<polygon fill="midnightblue" stroke="midnightblue" points="424.8,-196.76 435.39,-196.84 427.16,-190.17 424.8,-196.76"/>
</g>
<!-- Node9 -->
<g id="node9" class="node">
<title>Node9</title>
<g id="a_node9"><a xlink:href="classnlohmann_1_1detail_1_1binary__writer.html#aeab70c895931b96ea598306b37eca271" target="_top" xlink:title=" ">
<polygon fill="white" stroke="black" points="412,-147.5 412,-177.5 581,-177.5 581,-147.5 412,-147.5"/>
<text text-anchor="start" x="420" y="-165.5" font-family="Helvetica,sans-Serif" font-size="10.00">nlohmann::detail::binary</text>
<text text-anchor="middle" x="496.5" y="-154.5" font-family="Helvetica,sans-Serif" font-size="10.00">_writer::calc_bson_integer_size</text>
</a>
</g>
</g>
<!-- Node2&#45;&gt;Node9 -->
<g id="edge10" class="edge">
<title>Node2&#45;&gt;Node9</title>
<path fill="none" stroke="midnightblue" d="M371.24,-147.78C381.29,-148.97 391.59,-150.19 401.74,-151.39"/>
<polygon fill="midnightblue" stroke="midnightblue" points="401.48,-154.88 411.82,-152.59 402.3,-147.93 401.48,-154.88"/>
</g>
<!-- Node10 -->
<g id="node10" class="node">
<title>Node10</title>
<g id="a_node10"><a xlink:href="classnlohmann_1_1detail_1_1binary__writer.html#acc6f1cc1fd370ee84ebc8cf7b8712840" target="_top" xlink:title="Calculates the size of the BSON serialization of the given JSON&#45;object j.">
<polygon fill="white" stroke="black" points="414.5,-98.5 414.5,-128.5 578.5,-128.5 578.5,-98.5 414.5,-98.5"/>
<text text-anchor="start" x="422.5" y="-116.5" font-family="Helvetica,sans-Serif" font-size="10.00">nlohmann::detail::binary</text>
<text text-anchor="middle" x="496.5" y="-105.5" font-family="Helvetica,sans-Serif" font-size="10.00">_writer::calc_bson_object_size</text>
</a>
</g>
</g>
<!-- Node2&#45;&gt;Node10 -->
<g id="edge11" class="edge">
<title>Node2&#45;&gt;Node10</title>
<path fill="none" stroke="midnightblue" d="M371.24,-127.63C382.11,-126.4 393.27,-125.13 404.21,-123.88"/>
<polygon fill="midnightblue" stroke="midnightblue" points="404.65,-127.36 414.19,-122.75 403.86,-120.4 404.65,-127.36"/>
</g>
<!-- Node11 -->
<g id="node11" class="node">
<title>Node11</title>
<g id="a_node11"><a xlink:href="classnlohmann_1_1detail_1_1binary__writer.html#aea44fd97a5cb9b4f175e66e3e4fdf158" target="_top" xlink:title=" ">
<polygon fill="white" stroke="black" points="415.5,-49.5 415.5,-79.5 577.5,-79.5 577.5,-49.5 415.5,-49.5"/>
<text text-anchor="start" x="423.5" y="-67.5" font-family="Helvetica,sans-Serif" font-size="10.00">nlohmann::detail::binary</text>
<text text-anchor="middle" x="496.5" y="-56.5" font-family="Helvetica,sans-Serif" font-size="10.00">_writer::calc_bson_string_size</text>
</a>
</g>
</g>
<!-- Node2&#45;&gt;Node11 -->
<g id="edge12" class="edge">
<title>Node2&#45;&gt;Node11</title>
<path fill="none" stroke="midnightblue" d="M345.39,-122.47C354.15,-119.57 362.92,-116.25 371,-112.5 388.44,-104.4 389.49,-96.45 407,-88.5 411.39,-86.51 415.98,-84.65 420.66,-82.92"/>
<polygon fill="midnightblue" stroke="midnightblue" points="422.05,-86.14 430.36,-79.56 419.76,-79.53 422.05,-86.14"/>
</g>
<!-- Node12 -->
<g id="node12" class="node">
<title>Node12</title>
<g id="a_node12"><a xlink:href="classnlohmann_1_1detail_1_1binary__writer.html#aa1d6bb9f3af16f07ce2440c354b5787b" target="_top" xlink:title=" ">
<polygon fill="white" stroke="black" points="407,-0.5 407,-30.5 586,-30.5 586,-0.5 407,-0.5"/>
<text text-anchor="start" x="415" y="-18.5" font-family="Helvetica,sans-Serif" font-size="10.00">nlohmann::detail::binary</text>
<text text-anchor="middle" x="496.5" y="-7.5" font-family="Helvetica,sans-Serif" font-size="10.00">_writer::calc_bson_unsigned_size</text>
</a>
</g>
</g>
<!-- Node2&#45;&gt;Node12 -->
<g id="edge13" class="edge">
<title>Node2&#45;&gt;Node12</title>
<path fill="none" stroke="midnightblue" d="M355.51,-122.5C361.07,-119.71 366.33,-116.41 371,-112.5 398.74,-89.28 379.07,-62.49 407,-39.5 408.57,-38.21 410.2,-36.99 411.88,-35.83"/>
<polygon fill="midnightblue" stroke="midnightblue" points="413.9,-38.71 420.7,-30.58 410.31,-32.69 413.9,-38.71"/>
</g>
<!-- Node5 -->
<g id="node5" class="node">
<title>Node5</title>
<g id="a_node5"><a xlink:href="classnlohmann_1_1detail_1_1out__of__range.html#a3f6d82a6f967c4728a1ec735a7867073" target="_top" xlink:title=" ">
<polygon fill="white" stroke="black" points="622,-224.5 622,-254.5 743,-254.5 743,-224.5 622,-224.5"/>
<text text-anchor="start" x="630" y="-242.5" font-family="Helvetica,sans-Serif" font-size="10.00">nlohmann::detail::out</text>
<text text-anchor="middle" x="682.5" y="-231.5" font-family="Helvetica,sans-Serif" font-size="10.00">_of_range::create</text>
</a>
</g>
</g>
<!-- Node4&#45;&gt;Node5 -->
<g id="edge5" class="edge">
<title>Node4&#45;&gt;Node5</title>
<path fill="none" stroke="midnightblue" d="M564.71,-225.54C580.04,-227.37 596.35,-229.32 611.78,-231.16"/>
<polygon fill="midnightblue" stroke="midnightblue" points="611.43,-234.65 621.78,-232.36 612.26,-227.7 611.43,-234.65"/>
</g>
<!-- Node7 -->
<g id="node7" class="node">
<title>Node7</title>
<g id="a_node7"><a xlink:href="namespacehttplib.html#a498c3a79825ecbcb15c52ec5fcfd5c11" target="_top" xlink:title=" ">
<polygon fill="white" stroke="black" points="968,-232 968,-251 1065,-251 1065,-232 968,-232"/>
<text text-anchor="middle" x="1016.5" y="-239" font-family="Helvetica,sans-Serif" font-size="10.00">httplib::to_string</text>
</a>
</g>
</g>
<!-- Node4&#45;&gt;Node7 -->
<g id="edge9" class="edge">
<title>Node4&#45;&gt;Node7</title>
<path fill="none" stroke="midnightblue" d="M564.62,-210.32C650.42,-202.67 803.27,-194.21 932,-214.5 949.28,-217.22 967.86,-222.94 983.1,-228.41"/>
<polygon fill="midnightblue" stroke="midnightblue" points="981.99,-231.73 992.58,-231.94 984.43,-225.17 981.99,-231.73"/>
</g>
<!-- Node6 -->
<g id="node6" class="node">
<title>Node6</title>
<g id="a_node6"><a xlink:href="classnlohmann_1_1detail_1_1exception.html#abf41a7e9178356314082284e6cfea278" target="_top" xlink:title=" ">
<polygon fill="white" stroke="black" points="779,-273.5 779,-303.5 932,-303.5 932,-273.5 779,-273.5"/>
<text text-anchor="start" x="787" y="-291.5" font-family="Helvetica,sans-Serif" font-size="10.00">nlohmann::detail::exception</text>
<text text-anchor="middle" x="855.5" y="-280.5" font-family="Helvetica,sans-Serif" font-size="10.00">::name</text>
</a>
</g>
</g>
<!-- Node5&#45;&gt;Node6 -->
<g id="edge6" class="edge">
<title>Node5&#45;&gt;Node6</title>
<path fill="none" stroke="midnightblue" d="M736.2,-254.6C753.92,-259.68 773.85,-265.39 792.23,-270.66"/>
<polygon fill="midnightblue" stroke="midnightblue" points="791.4,-274.06 801.97,-273.45 793.32,-267.33 791.4,-274.06"/>
</g>
<!-- Node8 -->
<g id="node8" class="node">
<title>Node8</title>
<g id="a_node8"><a xlink:href="classnlohmann_1_1detail_1_1out__of__range.html#ab5fe402019dba957558499502f0fd731" target="_top" xlink:title=" ">
<polygon fill="white" stroke="black" points="788.5,-224.5 788.5,-254.5 922.5,-254.5 922.5,-224.5 788.5,-224.5"/>
<text text-anchor="start" x="796.5" y="-242.5" font-family="Helvetica,sans-Serif" font-size="10.00">nlohmann::detail::out</text>
<text text-anchor="middle" x="855.5" y="-231.5" font-family="Helvetica,sans-Serif" font-size="10.00">_of_range::out_of_range</text>
</a>
</g>
</g>
<!-- Node5&#45;&gt;Node8 -->
<g id="edge8" class="edge">
<title>Node5&#45;&gt;Node8</title>
<path fill="none" stroke="midnightblue" d="M743.31,-239.5C754.56,-239.5 766.46,-239.5 778.13,-239.5"/>
<polygon fill="midnightblue" stroke="midnightblue" points="778.31,-243 788.31,-239.5 778.31,-236 778.31,-243"/>
</g>
<!-- Node6&#45;&gt;Node7 -->
<g id="edge7" class="edge">
<title>Node6&#45;&gt;Node7</title>
<path fill="none" stroke="midnightblue" d="M907.25,-273.5C928.65,-267.17 953.26,-259.9 973.6,-253.88"/>
<polygon fill="midnightblue" stroke="midnightblue" points="974.62,-257.23 983.21,-251.04 972.63,-250.52 974.62,-257.23"/>
</g>
</g>
</svg>
