<?xml version="1.0" encoding="UTF-8" standalone="no"?>
<!DOCTYPE svg PUBLIC "-//W3C//DTD SVG 1.1//EN"
 "http://www.w3.org/Graphics/SVG/1.1/DTD/svg11.dtd">
<!-- Generated by graphviz version 2.43.0 (0)
 -->
<!-- Title: fuzzer::TraceState::StartTraceRecording Pages: 1 -->
<svg width="314pt" height="39pt"
 viewBox="0.00 0.00 314.00 39.00" xmlns="http://www.w3.org/2000/svg" xmlns:xlink="http://www.w3.org/1999/xlink">
<g id="graph0" class="graph" transform="scale(1 1) rotate(0) translate(4 35)">
<title>fuzzer::TraceState::StartTraceRecording</title>
<polygon fill="white" stroke="transparent" points="-4,4 -4,-35 310,-35 310,4 -4,4"/>
<!-- Node1 -->
<g id="node1" class="node">
<title>Node1</title>
<g id="a_node1"><a xlink:title=" ">
<polygon fill="#bfbfbf" stroke="black" points="0,-0.5 0,-30.5 121,-30.5 121,-0.5 0,-0.5"/>
<text text-anchor="start" x="8" y="-18.5" font-family="Helvetica,sans-Serif" font-size="10.00">fuzzer::TraceState</text>
<text text-anchor="middle" x="60.5" y="-7.5" font-family="Helvetica,sans-Serif" font-size="10.00">::StartTraceRecording</text>
</a>
</g>
</g>
<!-- Node2 -->
<g id="node2" class="node">
<title>Node2</title>
<g id="a_node2"><a xlink:href="classfuzzer_1_1MutationDispatcher.html#ae81dd6503e959e35afca6e67572c0cf3" target="_top" xlink:title=" ">
<polygon fill="white" stroke="black" points="157,-0.5 157,-30.5 306,-30.5 306,-0.5 157,-0.5"/>
<text text-anchor="start" x="165" y="-18.5" font-family="Helvetica,sans-Serif" font-size="10.00">fuzzer::MutationDispatcher</text>
<text text-anchor="middle" x="231.5" y="-7.5" font-family="Helvetica,sans-Serif" font-size="10.00">::ClearAutoDictionary</text>
</a>
</g>
</g>
<!-- Node1&#45;&gt;Node2 -->
<g id="edge1" class="edge">
<title>Node1&#45;&gt;Node2</title>
<path fill="none" stroke="midnightblue" d="M121.08,-15.5C129.42,-15.5 138.1,-15.5 146.78,-15.5"/>
<polygon fill="midnightblue" stroke="midnightblue" points="146.94,-19 156.94,-15.5 146.94,-12 146.94,-19"/>
</g>
</g>
</svg>
