<?xml version="1.0" encoding="UTF-8" standalone="no"?>
<!DOCTYPE svg PUBLIC "-//W3C//DTD SVG 1.1//EN"
 "http://www.w3.org/Graphics/SVG/1.1/DTD/svg11.dtd">
<!-- Generated by graphviz version 2.43.0 (0)
 -->
<!-- Title: benchmark::MutexLock::native_handle Pages: 1 -->
<svg width="330pt" height="50pt"
 viewBox="0.00 0.00 330.00 50.00" xmlns="http://www.w3.org/2000/svg" xmlns:xlink="http://www.w3.org/1999/xlink">
<g id="graph0" class="graph" transform="scale(1 1) rotate(0) translate(4 46)">
<title>benchmark::MutexLock::native_handle</title>
<polygon fill="white" stroke="transparent" points="-4,4 -4,-46 326,-46 326,4 -4,4"/>
<!-- Node1 -->
<g id="node1" class="node">
<title>Node1</title>
<g id="a_node1"><a xlink:title=" ">
<polygon fill="#bfbfbf" stroke="black" points="191,-6 191,-36 322,-36 322,-6 191,-6"/>
<text text-anchor="start" x="199" y="-24" font-family="Helvetica,sans-Serif" font-size="10.00">benchmark::MutexLock</text>
<text text-anchor="middle" x="256.5" y="-13" font-family="Helvetica,sans-Serif" font-size="10.00">::native_handle</text>
</a>
</g>
</g>
<!-- Node2 -->
<g id="node2" class="node">
<title>Node2</title>
<g id="a_node2"><a xlink:href="classbenchmark_1_1internal_1_1ThreadManager.html#a73e122dd1786fe4604902992223df3e6" target="_top" xlink:title=" ">
<polygon fill="white" stroke="black" points="0,-0.5 0,-41.5 155,-41.5 155,-0.5 0,-0.5"/>
<text text-anchor="start" x="8" y="-29.5" font-family="Helvetica,sans-Serif" font-size="10.00">benchmark::internal</text>
<text text-anchor="start" x="8" y="-18.5" font-family="Helvetica,sans-Serif" font-size="10.00">::ThreadManager::WaitForAll</text>
<text text-anchor="middle" x="77.5" y="-7.5" font-family="Helvetica,sans-Serif" font-size="10.00">Threads</text>
</a>
</g>
</g>
<!-- Node1&#45;&gt;Node2 -->
<g id="edge1" class="edge">
<title>Node1&#45;&gt;Node2</title>
<path fill="none" stroke="midnightblue" d="M180.7,-21C172.3,-21 163.73,-21 155.3,-21"/>
<polygon fill="midnightblue" stroke="midnightblue" points="180.85,-24.5 190.85,-21 180.85,-17.5 180.85,-24.5"/>
</g>
</g>
</svg>
