<?xml version="1.0" encoding="UTF-8" standalone="no"?>
<!DOCTYPE svg PUBLIC "-//W3C//DTD SVG 1.1//EN"
 "http://www.w3.org/Graphics/SVG/1.1/DTD/svg11.dtd">
<!-- Generated by graphviz version 2.43.0 (0)
 -->
<!-- Title: httplib::DataSink::data_sink_streambuf Pages: 1 -->
<svg width="146pt" height="376pt"
 viewBox="0.00 0.00 146.00 376.00" xmlns="http://www.w3.org/2000/svg" xmlns:xlink="http://www.w3.org/1999/xlink">
<g id="graph0" class="graph" transform="scale(1 1) rotate(0) translate(4 372)">
<title>httplib::DataSink::data_sink_streambuf</title>
<polygon fill="white" stroke="transparent" points="-4,4 -4,-372 142,-372 142,4 -4,4"/>
<!-- Node1 -->
<g id="node1" class="node">
<title>Node1</title>
<g id="a_node1"><a xlink:title=" ">
<polygon fill="#bfbfbf" stroke="black" points="0,-193.5 0,-272.5 138,-272.5 138,-193.5 0,-193.5"/>
<text text-anchor="start" x="8" y="-260.5" font-family="Helvetica,sans-Serif" font-size="10.00">httplib::DataSink::</text>
<text text-anchor="middle" x="69" y="-249.5" font-family="Helvetica,sans-Serif" font-size="10.00">data_sink_streambuf</text>
<polyline fill="none" stroke="black" points="0,-242.5 138,-242.5 "/>
<text text-anchor="middle" x="69" y="-230.5" font-family="Helvetica,sans-Serif" font-size="10.00"> </text>
<polyline fill="none" stroke="black" points="0,-223.5 138,-223.5 "/>
<text text-anchor="start" x="8" y="-211.5" font-family="Helvetica,sans-Serif" font-size="10.00">+ data_sink_streambuf()</text>
<text text-anchor="start" x="8" y="-200.5" font-family="Helvetica,sans-Serif" font-size="10.00"># xsputn()</text>
</a>
</g>
</g>
<!-- Node3 -->
<g id="node3" class="node">
<title>Node3</title>
<g id="a_node3"><a xlink:href="classhttplib_1_1DataSink.html" target="_top" xlink:title=" ">
<polygon fill="white" stroke="black" points="12.5,-0.5 12.5,-145.5 125.5,-145.5 125.5,-0.5 12.5,-0.5"/>
<text text-anchor="middle" x="69" y="-133.5" font-family="Helvetica,sans-Serif" font-size="10.00">httplib::DataSink</text>
<polyline fill="none" stroke="black" points="12.5,-126.5 125.5,-126.5 "/>
<text text-anchor="start" x="20.5" y="-114.5" font-family="Helvetica,sans-Serif" font-size="10.00">+ write</text>
<text text-anchor="start" x="20.5" y="-103.5" font-family="Helvetica,sans-Serif" font-size="10.00">+ is_writable</text>
<text text-anchor="start" x="20.5" y="-92.5" font-family="Helvetica,sans-Serif" font-size="10.00">+ done</text>
<text text-anchor="start" x="20.5" y="-81.5" font-family="Helvetica,sans-Serif" font-size="10.00">+ done_with_trailer</text>
<text text-anchor="start" x="20.5" y="-70.5" font-family="Helvetica,sans-Serif" font-size="10.00">+ os</text>
<polyline fill="none" stroke="black" points="12.5,-63.5 125.5,-63.5 "/>
<text text-anchor="start" x="20.5" y="-51.5" font-family="Helvetica,sans-Serif" font-size="10.00">+ DataSink()</text>
<text text-anchor="start" x="20.5" y="-40.5" font-family="Helvetica,sans-Serif" font-size="10.00">+ DataSink()</text>
<text text-anchor="start" x="20.5" y="-29.5" font-family="Helvetica,sans-Serif" font-size="10.00">+ operator=()</text>
<text text-anchor="start" x="20.5" y="-18.5" font-family="Helvetica,sans-Serif" font-size="10.00">+ DataSink()</text>
<text text-anchor="start" x="20.5" y="-7.5" font-family="Helvetica,sans-Serif" font-size="10.00">+ operator=()</text>
</a>
</g>
</g>
<!-- Node1&#45;&gt;Node3 -->
<g id="edge3" class="edge">
<title>Node1&#45;&gt;Node3</title>
<path fill="none" stroke="#404040" d="M48.68,-193.2C46.34,-187.24 44.32,-181.06 43,-175 41.77,-169.33 41.25,-163.49 41.29,-157.62"/>
<polygon fill="none" stroke="#404040" points="41.3,-157.54 37.71,-151.28 42.1,-145.57 45.69,-151.82 41.3,-157.54"/>
<text text-anchor="middle" x="55" y="-167" font-family="Helvetica,sans-Serif" font-size="10.00"> &#45;sb_</text>
</g>
<!-- Node2 -->
<g id="node2" class="node">
<title>Node2</title>
<g id="a_node2"><a xlink:title=" ">
<polygon fill="white" stroke="#bfbfbf" points="25,-310.5 25,-367.5 113,-367.5 113,-310.5 25,-310.5"/>
<text text-anchor="middle" x="69" y="-355.5" font-family="Helvetica,sans-Serif" font-size="10.00">std::streambuf</text>
<polyline fill="none" stroke="#bfbfbf" points="25,-348.5 113,-348.5 "/>
<text text-anchor="middle" x="69" y="-336.5" font-family="Helvetica,sans-Serif" font-size="10.00"> </text>
<polyline fill="none" stroke="#bfbfbf" points="25,-329.5 113,-329.5 "/>
<text text-anchor="middle" x="69" y="-317.5" font-family="Helvetica,sans-Serif" font-size="10.00"> </text>
</a>
</g>
</g>
<!-- Node2&#45;&gt;Node1 -->
<g id="edge1" class="edge">
<title>Node2&#45;&gt;Node1</title>
<path fill="none" stroke="midnightblue" d="M69,-300.23C69,-291.27 69,-281.69 69,-272.69"/>
<polygon fill="none" stroke="midnightblue" points="65.5,-300.4 69,-310.4 72.5,-300.4 65.5,-300.4"/>
</g>
<!-- Node3&#45;&gt;Node1 -->
<g id="edge2" class="edge">
<title>Node3&#45;&gt;Node1</title>
<path fill="none" stroke="#404040" d="M71.08,-145.73C71.17,-155.56 71.17,-165.53 71,-175 70.96,-177.04 70.92,-179.12 70.87,-181.23"/>
<polygon fill="none" stroke="#404040" points="70.87,-181.38 74.7,-187.48 70.54,-193.37 66.71,-187.26 70.87,-181.38"/>
<text text-anchor="middle" x="87.5" y="-167" font-family="Helvetica,sans-Serif" font-size="10.00"> &#45;sink_</text>
</g>
</g>
</svg>
