<?xml version="1.0" encoding="UTF-8" standalone="no"?>
<!DOCTYPE svg PUBLIC "-//W3C//DTD SVG 1.1//EN"
 "http://www.w3.org/Graphics/SVG/1.1/DTD/svg11.dtd">
<!-- Generated by graphviz version 2.43.0 (0)
 -->
<!-- Title: nlohmann::json_pointer::top Pages: 1 -->
<svg width="426pt" height="91pt"
 viewBox="0.00 0.00 426.00 91.00" xmlns="http://www.w3.org/2000/svg" xmlns:xlink="http://www.w3.org/1999/xlink">
<g id="graph0" class="graph" transform="scale(1 1) rotate(0) translate(4 87)">
<title>nlohmann::json_pointer::top</title>
<polygon fill="white" stroke="transparent" points="-4,4 -4,-87 422,-87 422,4 -4,4"/>
<!-- Node1 -->
<g id="node1" class="node">
<title>Node1</title>
<g id="a_node1"><a xlink:title=" ">
<polygon fill="#bfbfbf" stroke="black" points="265,-22.5 265,-41.5 418,-41.5 418,-22.5 265,-22.5"/>
<text text-anchor="middle" x="341.5" y="-29.5" font-family="Helvetica,sans-Serif" font-size="10.00">nlohmann::json_pointer::top</text>
</a>
</g>
</g>
<!-- Node2 -->
<g id="node2" class="node">
<title>Node2</title>
<g id="a_node2"><a xlink:href="classnlohmann_1_1basic__json.html#a81e0c41a4a9dff4df2f6973f7f8b2a83" target="_top" xlink:title="applies a JSON patch">
<polygon fill="white" stroke="black" points="107,-39 107,-69 229,-69 229,-39 107,-39"/>
<text text-anchor="start" x="115" y="-57" font-family="Helvetica,sans-Serif" font-size="10.00">nlohmann::basic_json</text>
<text text-anchor="middle" x="168" y="-46" font-family="Helvetica,sans-Serif" font-size="10.00">::patch</text>
</a>
</g>
</g>
<!-- Node1&#45;&gt;Node2 -->
<g id="edge1" class="edge">
<title>Node1&#45;&gt;Node2</title>
<path fill="none" stroke="midnightblue" d="M256.34,-42.8C247.16,-43.97 237.96,-45.15 229.15,-46.28"/>
<polygon fill="midnightblue" stroke="midnightblue" points="256.8,-46.27 266.28,-41.52 255.91,-39.32 256.8,-46.27"/>
</g>
<!-- Node5 -->
<g id="node5" class="node">
<title>Node5</title>
<g id="a_node5"><a xlink:href="unit-json__pointer_8cpp.html#af0831fee504d3fdf4448dccb3ad079b3" target="_top" xlink:title=" ">
<polygon fill="white" stroke="black" points="132.5,-0.5 132.5,-19.5 203.5,-19.5 203.5,-0.5 132.5,-0.5"/>
<text text-anchor="middle" x="168" y="-7.5" font-family="Helvetica,sans-Serif" font-size="10.00">TEST_CASE</text>
</a>
</g>
</g>
<!-- Node1&#45;&gt;Node5 -->
<g id="edge4" class="edge">
<title>Node1&#45;&gt;Node5</title>
<path fill="none" stroke="midnightblue" d="M256.3,-21.2C237.73,-18.82 219.07,-16.42 203.8,-14.46"/>
<polygon fill="midnightblue" stroke="midnightblue" points="255.91,-24.68 266.28,-22.48 256.8,-17.73 255.91,-24.68"/>
</g>
<!-- Node3 -->
<g id="node3" class="node">
<title>Node3</title>
<g id="a_node3"><a xlink:href="diff_8cpp.html#ae66f6b31b5ad750f1fe042a706a4e3d4" target="_top" xlink:title=" ">
<polygon fill="white" stroke="black" points="15,-63.5 15,-82.5 56,-82.5 56,-63.5 15,-63.5"/>
<text text-anchor="middle" x="35.5" y="-70.5" font-family="Helvetica,sans-Serif" font-size="10.00">main</text>
</a>
</g>
</g>
<!-- Node2&#45;&gt;Node3 -->
<g id="edge2" class="edge">
<title>Node2&#45;&gt;Node3</title>
<path fill="none" stroke="midnightblue" d="M96.41,-64.28C81.54,-66.44 67.05,-68.55 56.05,-70.15"/>
<polygon fill="midnightblue" stroke="midnightblue" points="97.32,-67.68 106.72,-62.78 96.32,-60.75 97.32,-67.68"/>
</g>
<!-- Node4 -->
<g id="node4" class="node">
<title>Node4</title>
<g id="a_node4"><a xlink:href="unit-json__patch_8cpp.html#a58658ae29d75546f62ea0ceb24fd3b20" target="_top" xlink:title=" ">
<polygon fill="white" stroke="black" points="0,-25.5 0,-44.5 71,-44.5 71,-25.5 0,-25.5"/>
<text text-anchor="middle" x="35.5" y="-32.5" font-family="Helvetica,sans-Serif" font-size="10.00">TEST_CASE</text>
</a>
</g>
</g>
<!-- Node2&#45;&gt;Node4 -->
<g id="edge3" class="edge">
<title>Node2&#45;&gt;Node4</title>
<path fill="none" stroke="midnightblue" d="M96.73,-43.77C87.9,-42.48 79.19,-41.22 71.26,-40.06"/>
<polygon fill="midnightblue" stroke="midnightblue" points="96.32,-47.25 106.72,-45.22 97.32,-40.32 96.32,-47.25"/>
</g>
</g>
</svg>
