<?xml version="1.0" encoding="UTF-8" standalone="no"?>
<!DOCTYPE svg PUBLIC "-//W3C//DTD SVG 1.1//EN"
 "http://www.w3.org/Graphics/SVG/1.1/DTD/svg11.dtd">
<!-- Generated by graphviz version 2.43.0 (0)
 -->
<!-- Title: Subject Pages: 1 -->
<svg width="180pt" height="369pt"
 viewBox="0.00 0.00 180.00 369.00" xmlns="http://www.w3.org/2000/svg" xmlns:xlink="http://www.w3.org/1999/xlink">
<g id="graph0" class="graph" transform="scale(1 1) rotate(0) translate(4 365)">
<title>Subject</title>
<polygon fill="white" stroke="transparent" points="-4,4 -4,-365 176,-365 176,4 -4,4"/>
<!-- Node1 -->
<g id="node1" class="node">
<title>Node1</title>
<g id="a_node1"><a xlink:title=" ">
<polygon fill="#bfbfbf" stroke="black" points="26,-270.5 26,-360.5 146,-360.5 146,-270.5 26,-270.5"/>
<text text-anchor="middle" x="86" y="-348.5" font-family="Helvetica,sans-Serif" font-size="10.00">Subject</text>
<polyline fill="none" stroke="black" points="26,-341.5 146,-341.5 "/>
<text text-anchor="middle" x="86" y="-329.5" font-family="Helvetica,sans-Serif" font-size="10.00"> </text>
<polyline fill="none" stroke="black" points="26,-322.5 146,-322.5 "/>
<text text-anchor="start" x="34" y="-310.5" font-family="Helvetica,sans-Serif" font-size="10.00">+ ~Subject()</text>
<text text-anchor="start" x="34" y="-299.5" font-family="Helvetica,sans-Serif" font-size="10.00">+ AddObserver()</text>
<text text-anchor="start" x="34" y="-288.5" font-family="Helvetica,sans-Serif" font-size="10.00">+ RemoveObserver()</text>
<text text-anchor="start" x="34" y="-277.5" font-family="Helvetica,sans-Serif" font-size="10.00">+ NotifyObservers()</text>
</a>
</g>
</g>
<!-- Node2 -->
<g id="node2" class="node">
<title>Node2</title>
<g id="a_node2"><a xlink:href="classResourceMonitorSubject.html" target="_top" xlink:title=" ">
<polygon fill="white" stroke="black" points="0,-0.5 0,-233.5 172,-233.5 172,-0.5 0,-0.5"/>
<text text-anchor="middle" x="86" y="-221.5" font-family="Helvetica,sans-Serif" font-size="10.00">ResourceMonitorSubject</text>
<polyline fill="none" stroke="black" points="0,-214.5 172,-214.5 "/>
<text text-anchor="start" x="8" y="-202.5" font-family="Helvetica,sans-Serif" font-size="10.00">&#45; observers</text>
<text text-anchor="start" x="8" y="-191.5" font-family="Helvetica,sans-Serif" font-size="10.00">&#45; avg_cpuUtilization</text>
<text text-anchor="start" x="8" y="-180.5" font-family="Helvetica,sans-Serif" font-size="10.00">&#45; avg_memoryUtilization</text>
<text text-anchor="start" x="8" y="-169.5" font-family="Helvetica,sans-Serif" font-size="10.00">&#45; is_cpu_utilization_high</text>
<text text-anchor="start" x="8" y="-158.5" font-family="Helvetica,sans-Serif" font-size="10.00">&#45; is_memory_utilization_high</text>
<text text-anchor="start" x="8" y="-147.5" font-family="Helvetica,sans-Serif" font-size="10.00">&#45; is_cpu_utilization</text>
<text text-anchor="start" x="8" y="-136.5" font-family="Helvetica,sans-Serif" font-size="10.00">_below_pod_respawn_threshold</text>
<text text-anchor="start" x="8" y="-125.5" font-family="Helvetica,sans-Serif" font-size="10.00">&#45; is_memory_utilization</text>
<text text-anchor="start" x="8" y="-114.5" font-family="Helvetica,sans-Serif" font-size="10.00">_below_pod_respawn_threshold</text>
<text text-anchor="start" x="8" y="-103.5" font-family="Helvetica,sans-Serif" font-size="10.00">&#45; topics</text>
<text text-anchor="start" x="8" y="-92.5" font-family="Helvetica,sans-Serif" font-size="10.00">&#45; subscriber</text>
<polyline fill="none" stroke="black" points="0,-85.5 172,-85.5 "/>
<text text-anchor="start" x="8" y="-73.5" font-family="Helvetica,sans-Serif" font-size="10.00">+ ResourceMonitorSubject()</text>
<text text-anchor="start" x="8" y="-62.5" font-family="Helvetica,sans-Serif" font-size="10.00">+ AddObserver()</text>
<text text-anchor="start" x="8" y="-51.5" font-family="Helvetica,sans-Serif" font-size="10.00">+ RemoveObserver()</text>
<text text-anchor="start" x="8" y="-40.5" font-family="Helvetica,sans-Serif" font-size="10.00">+ NotifyObservers()</text>
<text text-anchor="start" x="8" y="-29.5" font-family="Helvetica,sans-Serif" font-size="10.00">+ GetResourceUtilization()</text>
<text text-anchor="start" x="8" y="-18.5" font-family="Helvetica,sans-Serif" font-size="10.00">+ AverageResourceUtilization()</text>
<text text-anchor="start" x="8" y="-7.5" font-family="Helvetica,sans-Serif" font-size="10.00">+ Run()</text>
</a>
</g>
</g>
<!-- Node1&#45;&gt;Node2 -->
<g id="edge1" class="edge">
<title>Node1&#45;&gt;Node2</title>
<path fill="none" stroke="midnightblue" d="M86,-260.37C86,-251.9 86,-242.88 86,-233.64"/>
<polygon fill="none" stroke="midnightblue" points="82.5,-260.4 86,-270.4 89.5,-260.4 82.5,-260.4"/>
</g>
</g>
</svg>
