<?xml version="1.0" encoding="UTF-8" standalone="no"?>
<!DOCTYPE svg PUBLIC "-//W3C//DTD SVG 1.1//EN"
 "http://www.w3.org/Graphics/SVG/1.1/DTD/svg11.dtd">
<!-- Generated by graphviz version 2.43.0 (0)
 -->
<!-- Title: nlohmann::detail::json_sax_dom_callback_parser::end_array Pages: 1 -->
<svg width="239pt" height="50pt"
 viewBox="0.00 0.00 239.00 50.00" xmlns="http://www.w3.org/2000/svg" xmlns:xlink="http://www.w3.org/1999/xlink">
<g id="graph0" class="graph" transform="scale(1 1) rotate(0) translate(4 46)">
<title>nlohmann::detail::json_sax_dom_callback_parser::end_array</title>
<polygon fill="white" stroke="transparent" points="-4,4 -4,-46 235,-46 235,4 -4,4"/>
<!-- Node1 -->
<g id="node1" class="node">
<title>Node1</title>
<g id="a_node1"><a xlink:title=" ">
<polygon fill="#bfbfbf" stroke="black" points="0,-0.5 0,-41.5 148,-41.5 148,-0.5 0,-0.5"/>
<text text-anchor="start" x="8" y="-29.5" font-family="Helvetica,sans-Serif" font-size="10.00">nlohmann::detail::json</text>
<text text-anchor="start" x="8" y="-18.5" font-family="Helvetica,sans-Serif" font-size="10.00">_sax_dom_callback_parser</text>
<text text-anchor="middle" x="74" y="-7.5" font-family="Helvetica,sans-Serif" font-size="10.00">::end_array</text>
</a>
</g>
</g>
<!-- Node2 -->
<g id="node2" class="node">
<title>Node2</title>
<g id="a_node2"><a xlink:href="FuzzerTracePC_8cpp.html#a1f10ac78bd11294b612636121065eb5b" target="_top" xlink:title=" ">
<polygon fill="white" stroke="black" points="184,-11.5 184,-30.5 231,-30.5 231,-11.5 184,-11.5"/>
<text text-anchor="middle" x="207.5" y="-18.5" font-family="Helvetica,sans-Serif" font-size="10.00">assert</text>
</a>
</g>
</g>
<!-- Node1&#45;&gt;Node2 -->
<g id="edge1" class="edge">
<title>Node1&#45;&gt;Node2</title>
<path fill="none" stroke="midnightblue" d="M148.06,-21C157,-21 165.76,-21 173.66,-21"/>
<polygon fill="midnightblue" stroke="midnightblue" points="173.85,-24.5 183.85,-21 173.85,-17.5 173.85,-24.5"/>
</g>
</g>
</svg>
