<?xml version="1.0" encoding="UTF-8" standalone="no"?>
<!DOCTYPE svg PUBLIC "-//W3C//DTD SVG 1.1//EN"
 "http://www.w3.org/Graphics/SVG/1.1/DTD/svg11.dtd">
<!-- Generated by graphviz version 2.43.0 (0)
 -->
<!-- Title: nlohmann::json_pointer::escape Pages: 1 -->
<svg width="571pt" height="196pt"
 viewBox="0.00 0.00 571.00 195.50" xmlns="http://www.w3.org/2000/svg" xmlns:xlink="http://www.w3.org/1999/xlink">
<g id="graph0" class="graph" transform="scale(1 1) rotate(0) translate(4 191.5)">
<title>nlohmann::json_pointer::escape</title>
<polygon fill="white" stroke="transparent" points="-4,4 -4,-191.5 567,-191.5 567,4 -4,4"/>
<!-- Node1 -->
<g id="node1" class="node">
<title>Node1</title>
<g id="a_node1"><a xlink:title="escape &quot;~&quot; to &quot;~0&quot; and &quot;/&quot; to &quot;~1&quot;">
<polygon fill="#bfbfbf" stroke="black" points="432,-71 432,-101 563,-101 563,-71 432,-71"/>
<text text-anchor="start" x="440" y="-89" font-family="Helvetica,sans-Serif" font-size="10.00">nlohmann::json_pointer</text>
<text text-anchor="middle" x="497.5" y="-78" font-family="Helvetica,sans-Serif" font-size="10.00">::escape</text>
</a>
</g>
</g>
<!-- Node2 -->
<g id="node2" class="node">
<title>Node2</title>
<g id="a_node2"><a xlink:href="classnlohmann_1_1basic__json.html#a9c4f3554773649beef69461a10a3de87" target="_top" xlink:title="creates a diff as a JSON patch">
<polygon fill="white" stroke="black" points="269.5,-109 269.5,-139 391.5,-139 391.5,-109 269.5,-109"/>
<text text-anchor="start" x="277.5" y="-127" font-family="Helvetica,sans-Serif" font-size="10.00">nlohmann::basic_json</text>
<text text-anchor="middle" x="330.5" y="-116" font-family="Helvetica,sans-Serif" font-size="10.00">::diff</text>
</a>
</g>
</g>
<!-- Node1&#45;&gt;Node2 -->
<g id="edge1" class="edge">
<title>Node1&#45;&gt;Node2</title>
<path fill="none" stroke="midnightblue" d="M421.78,-103.21C411.72,-105.52 401.51,-107.88 391.75,-110.13"/>
<polygon fill="midnightblue" stroke="midnightblue" points="422.8,-106.56 431.76,-100.91 421.23,-99.74 422.8,-106.56"/>
</g>
<!-- Node6 -->
<g id="node6" class="node">
<title>Node6</title>
<g id="a_node6"><a xlink:href="classnlohmann_1_1json__pointer.html#ab0d7759d0caa6a0c0187916da28e6ee7" target="_top" xlink:title=" ">
<polygon fill="white" stroke="black" points="265,-38 265,-68 396,-68 396,-38 265,-38"/>
<text text-anchor="start" x="273" y="-56" font-family="Helvetica,sans-Serif" font-size="10.00">nlohmann::json_pointer</text>
<text text-anchor="middle" x="330.5" y="-45" font-family="Helvetica,sans-Serif" font-size="10.00">::flatten</text>
</a>
</g>
</g>
<!-- Node1&#45;&gt;Node6 -->
<g id="edge5" class="edge">
<title>Node1&#45;&gt;Node6</title>
<path fill="none" stroke="midnightblue" d="M421.76,-71.05C413.18,-69.34 404.48,-67.6 396.05,-65.91"/>
<polygon fill="midnightblue" stroke="midnightblue" points="421.27,-74.52 431.76,-73.05 422.64,-67.66 421.27,-74.52"/>
</g>
<!-- Node3 -->
<g id="node3" class="node">
<title>Node3</title>
<g id="a_node3"><a xlink:href="classnlohmann_1_1basic__json.html#a543bd5f7490de54c875b2c0912dc9a49" target="_top" xlink:title="creates a diff as a JSON patch">
<polygon fill="white" stroke="black" points="107,-157 107,-187 229,-187 229,-157 107,-157"/>
<text text-anchor="start" x="115" y="-175" font-family="Helvetica,sans-Serif" font-size="10.00">nlohmann::basic_json</text>
<text text-anchor="middle" x="168" y="-164" font-family="Helvetica,sans-Serif" font-size="10.00">::diff</text>
</a>
</g>
</g>
<!-- Node2&#45;&gt;Node3 -->
<g id="edge2" class="edge">
<title>Node2&#45;&gt;Node3</title>
<path fill="none" stroke="midnightblue" d="M269.56,-141.93C252.96,-146.89 235.14,-152.22 219.16,-157"/>
<polygon fill="midnightblue" stroke="midnightblue" points="270.58,-145.27 279.16,-139.06 268.57,-138.57 270.58,-145.27"/>
</g>
<!-- Node4 -->
<g id="node4" class="node">
<title>Node4</title>
<g id="a_node4"><a xlink:href="diff_8cpp.html#ae66f6b31b5ad750f1fe042a706a4e3d4" target="_top" xlink:title=" ">
<polygon fill="white" stroke="black" points="147.5,-118.5 147.5,-137.5 188.5,-137.5 188.5,-118.5 147.5,-118.5"/>
<text text-anchor="middle" x="168" y="-125.5" font-family="Helvetica,sans-Serif" font-size="10.00">main</text>
</a>
</g>
</g>
<!-- Node2&#45;&gt;Node4 -->
<g id="edge3" class="edge">
<title>Node2&#45;&gt;Node4</title>
<path fill="none" stroke="midnightblue" d="M259.15,-125.75C233.47,-126.39 206.41,-127.07 188.72,-127.51"/>
<polygon fill="midnightblue" stroke="midnightblue" points="259.37,-129.25 269.28,-125.5 259.19,-122.25 259.37,-129.25"/>
</g>
<!-- Node5 -->
<g id="node5" class="node">
<title>Node5</title>
<g id="a_node5"><a xlink:href="unit-json__patch_8cpp.html#a58658ae29d75546f62ea0ceb24fd3b20" target="_top" xlink:title=" ">
<polygon fill="white" stroke="black" points="0,-79.5 0,-98.5 71,-98.5 71,-79.5 0,-79.5"/>
<text text-anchor="middle" x="35.5" y="-86.5" font-family="Helvetica,sans-Serif" font-size="10.00">TEST_CASE</text>
</a>
</g>
</g>
<!-- Node2&#45;&gt;Node5 -->
<g id="edge4" class="edge">
<title>Node2&#45;&gt;Node5</title>
<path fill="none" stroke="midnightblue" d="M259.2,-113.1C249.08,-111.65 238.78,-110.24 229,-109 174,-102.04 109.93,-95.74 71.33,-92.15"/>
<polygon fill="midnightblue" stroke="midnightblue" points="258.84,-116.58 269.24,-114.56 259.85,-109.66 258.84,-116.58"/>
</g>
<!-- Node6&#45;&gt;Node6 -->
<g id="edge10" class="edge">
<title>Node6&#45;&gt;Node6</title>
<path fill="none" stroke="midnightblue" d="M359.29,-78.46C355.71,-83.18 346.12,-86.5 330.5,-86.5 304.87,-86.5 295.46,-77.56 302.27,-68.16"/>
<polygon fill="midnightblue" stroke="midnightblue" points="362.76,-77.96 358.73,-68.16 355.77,-78.33 362.76,-77.96"/>
</g>
<!-- Node7 -->
<g id="node7" class="node">
<title>Node7</title>
<g id="a_node7"><a xlink:href="classnlohmann_1_1basic__json.html#ab838f000d76662917ffd6ec529569e03" target="_top" xlink:title="return flattened JSON value">
<polygon fill="white" stroke="black" points="107,-31 107,-61 229,-61 229,-31 107,-31"/>
<text text-anchor="start" x="115" y="-49" font-family="Helvetica,sans-Serif" font-size="10.00">nlohmann::basic_json</text>
<text text-anchor="middle" x="168" y="-38" font-family="Helvetica,sans-Serif" font-size="10.00">::flatten</text>
</a>
</g>
</g>
<!-- Node6&#45;&gt;Node7 -->
<g id="edge6" class="edge">
<title>Node6&#45;&gt;Node7</title>
<path fill="none" stroke="midnightblue" d="M254.69,-49.74C246.12,-49.36 237.47,-48.99 229.13,-48.62"/>
<polygon fill="midnightblue" stroke="midnightblue" points="254.54,-53.23 264.68,-50.17 254.84,-46.24 254.54,-53.23"/>
</g>
<!-- Node7&#45;&gt;Node5 -->
<g id="edge9" class="edge">
<title>Node7&#45;&gt;Node5</title>
<path fill="none" stroke="midnightblue" d="M111.64,-64.24C95.8,-69.46 79.17,-74.94 65.59,-79.41"/>
<polygon fill="midnightblue" stroke="midnightblue" points="112.96,-67.49 121.36,-61.04 110.76,-60.84 112.96,-67.49"/>
</g>
<!-- Node8 -->
<g id="node8" class="node">
<title>Node8</title>
<g id="a_node8"><a xlink:href="flatten_8cpp.html#ae66f6b31b5ad750f1fe042a706a4e3d4" target="_top" xlink:title=" ">
<polygon fill="white" stroke="black" points="15,-38.5 15,-57.5 56,-57.5 56,-38.5 15,-38.5"/>
<text text-anchor="middle" x="35.5" y="-45.5" font-family="Helvetica,sans-Serif" font-size="10.00">main</text>
</a>
</g>
</g>
<!-- Node7&#45;&gt;Node8 -->
<g id="edge7" class="edge">
<title>Node7&#45;&gt;Node8</title>
<path fill="none" stroke="midnightblue" d="M96.41,-47.08C81.54,-47.31 67.05,-47.53 56.05,-47.7"/>
<polygon fill="midnightblue" stroke="midnightblue" points="96.77,-50.58 106.72,-46.92 96.66,-43.58 96.77,-50.58"/>
</g>
<!-- Node9 -->
<g id="node9" class="node">
<title>Node9</title>
<g id="a_node9"><a xlink:href="unit-json__pointer_8cpp.html#a5baa6aa0f151e8bc4c7b50d6836f433d" target="_top" xlink:title=" ">
<polygon fill="white" stroke="black" points="6,-0.5 6,-19.5 65,-19.5 65,-0.5 6,-0.5"/>
<text text-anchor="middle" x="35.5" y="-7.5" font-family="Helvetica,sans-Serif" font-size="10.00">SECTION</text>
</a>
</g>
</g>
<!-- Node7&#45;&gt;Node9 -->
<g id="edge8" class="edge">
<title>Node7&#45;&gt;Node9</title>
<path fill="none" stroke="midnightblue" d="M102.46,-28.2C89.39,-24.59 76.29,-20.98 65.24,-17.93"/>
<polygon fill="midnightblue" stroke="midnightblue" points="101.84,-31.66 112.41,-30.94 103.7,-24.91 101.84,-31.66"/>
</g>
</g>
</svg>
