<?xml version="1.0" encoding="UTF-8" standalone="no"?>
<!DOCTYPE svg PUBLIC "-//W3C//DTD SVG 1.1//EN"
 "http://www.w3.org/Graphics/SVG/1.1/DTD/svg11.dtd">
<!-- Generated by graphviz version 2.43.0 (0)
 -->
<!-- Title: nlohmann::detail::json_sax_dom_parser::string Pages: 1 -->
<svg width="436pt" height="39pt"
 viewBox="0.00 0.00 436.00 39.00" xmlns="http://www.w3.org/2000/svg" xmlns:xlink="http://www.w3.org/1999/xlink">
<g id="graph0" class="graph" transform="scale(1 1) rotate(0) translate(4 35)">
<title>nlohmann::detail::json_sax_dom_parser::string</title>
<polygon fill="white" stroke="transparent" points="-4,4 -4,-35 432,-35 432,4 -4,4"/>
<!-- Node1 -->
<g id="node1" class="node">
<title>Node1</title>
<g id="a_node1"><a xlink:title=" ">
<polygon fill="#bfbfbf" stroke="black" points="0,-0.5 0,-30.5 136,-30.5 136,-0.5 0,-0.5"/>
<text text-anchor="start" x="8" y="-18.5" font-family="Helvetica,sans-Serif" font-size="10.00">nlohmann::detail::json</text>
<text text-anchor="middle" x="68" y="-7.5" font-family="Helvetica,sans-Serif" font-size="10.00">_sax_dom_parser::string</text>
</a>
</g>
</g>
<!-- Node2 -->
<g id="node2" class="node">
<title>Node2</title>
<g id="a_node2"><a xlink:href="classnlohmann_1_1detail_1_1json__sax__dom__parser.html#aa1a5e21be350727cf61a101aa5c6796e" target="_top" xlink:title=" ">
<polygon fill="white" stroke="black" points="172,-0.5 172,-30.5 345,-30.5 345,-0.5 172,-0.5"/>
<text text-anchor="start" x="180" y="-18.5" font-family="Helvetica,sans-Serif" font-size="10.00">nlohmann::detail::json</text>
<text text-anchor="middle" x="258.5" y="-7.5" font-family="Helvetica,sans-Serif" font-size="10.00">_sax_dom_parser::handle_value</text>
</a>
</g>
</g>
<!-- Node1&#45;&gt;Node2 -->
<g id="edge1" class="edge">
<title>Node1&#45;&gt;Node2</title>
<path fill="none" stroke="midnightblue" d="M136.25,-15.5C144.54,-15.5 153.13,-15.5 161.73,-15.5"/>
<polygon fill="midnightblue" stroke="midnightblue" points="161.82,-19 171.82,-15.5 161.82,-12 161.82,-19"/>
</g>
<!-- Node3 -->
<g id="node3" class="node">
<title>Node3</title>
<g id="a_node3"><a xlink:href="FuzzerTracePC_8cpp.html#a1f10ac78bd11294b612636121065eb5b" target="_top" xlink:title=" ">
<polygon fill="white" stroke="black" points="381,-6 381,-25 428,-25 428,-6 381,-6"/>
<text text-anchor="middle" x="404.5" y="-13" font-family="Helvetica,sans-Serif" font-size="10.00">assert</text>
</a>
</g>
</g>
<!-- Node2&#45;&gt;Node3 -->
<g id="edge2" class="edge">
<title>Node2&#45;&gt;Node3</title>
<path fill="none" stroke="midnightblue" d="M345.34,-15.5C354.37,-15.5 363.1,-15.5 370.92,-15.5"/>
<polygon fill="midnightblue" stroke="midnightblue" points="370.98,-19 380.98,-15.5 370.98,-12 370.98,-19"/>
</g>
</g>
</svg>
