<?xml version="1.0" encoding="UTF-8" standalone="no"?>
<!DOCTYPE svg PUBLIC "-//W3C//DTD SVG 1.1//EN"
 "http://www.w3.org/Graphics/SVG/1.1/DTD/svg11.dtd">
<!-- Generated by graphviz version 2.43.0 (0)
 -->
<!-- Title: nlohmann::basic_json::find Pages: 1 -->
<svg width="312pt" height="78pt"
 viewBox="0.00 0.00 312.00 77.50" xmlns="http://www.w3.org/2000/svg" xmlns:xlink="http://www.w3.org/1999/xlink">
<g id="graph0" class="graph" transform="scale(1 1) rotate(0) translate(4 73.5)">
<title>nlohmann::basic_json::find</title>
<polygon fill="white" stroke="transparent" points="-4,4 -4,-73.5 308,-73.5 308,4 -4,4"/>
<!-- Node1 -->
<g id="node1" class="node">
<title>Node1</title>
<g id="a_node1"><a xlink:title="find an element in a JSON object">
<polygon fill="#bfbfbf" stroke="black" points="0,-22.5 0,-52.5 122,-52.5 122,-22.5 0,-22.5"/>
<text text-anchor="start" x="8" y="-40.5" font-family="Helvetica,sans-Serif" font-size="10.00">nlohmann::basic_json</text>
<text text-anchor="middle" x="61" y="-29.5" font-family="Helvetica,sans-Serif" font-size="10.00">::find</text>
</a>
</g>
</g>
<!-- Node2 -->
<g id="node2" class="node">
<title>Node2</title>
<g id="a_node2"><a xlink:href="classnlohmann_1_1basic__json.html#a13e032a02a7fd8a93fdddc2fcbc4763c" target="_top" xlink:title="returns an iterator to one past the last element">
<polygon fill="white" stroke="black" points="158,-50 158,-69 304,-69 304,-50 158,-50"/>
<text text-anchor="middle" x="231" y="-57" font-family="Helvetica,sans-Serif" font-size="10.00">nlohmann::basic_json::end</text>
</a>
</g>
</g>
<!-- Node1&#45;&gt;Node2 -->
<g id="edge1" class="edge">
<title>Node1&#45;&gt;Node2</title>
<path fill="none" stroke="midnightblue" d="M122.18,-45.38C130.5,-46.47 139.16,-47.6 147.8,-48.74"/>
<polygon fill="midnightblue" stroke="midnightblue" points="147.54,-52.23 157.91,-50.06 148.45,-45.29 147.54,-52.23"/>
</g>
<!-- Node3 -->
<g id="node3" class="node">
<title>Node3</title>
<g id="a_node3"><a xlink:href="classnlohmann_1_1basic__json.html#af8f511af124e82e4579f444b4175787c" target="_top" xlink:title="return whether value is an object">
<polygon fill="white" stroke="black" points="170,-0.5 170,-30.5 292,-30.5 292,-0.5 170,-0.5"/>
<text text-anchor="start" x="178" y="-18.5" font-family="Helvetica,sans-Serif" font-size="10.00">nlohmann::basic_json</text>
<text text-anchor="middle" x="231" y="-7.5" font-family="Helvetica,sans-Serif" font-size="10.00">::is_object</text>
</a>
</g>
</g>
<!-- Node1&#45;&gt;Node3 -->
<g id="edge2" class="edge">
<title>Node1&#45;&gt;Node3</title>
<path fill="none" stroke="midnightblue" d="M122.18,-29.62C134.44,-28.01 147.43,-26.31 160,-24.67"/>
<polygon fill="midnightblue" stroke="midnightblue" points="160.5,-28.13 169.96,-23.36 159.59,-21.19 160.5,-28.13"/>
</g>
</g>
</svg>
