<?xml version="1.0" encoding="UTF-8" standalone="no"?>
<!DOCTYPE svg PUBLIC "-//W3C//DTD SVG 1.1//EN"
 "http://www.w3.org/Graphics/SVG/1.1/DTD/svg11.dtd">
<!-- Generated by graphviz version 2.43.0 (0)
 -->
<!-- Title: httplib::Result Pages: 1 -->
<!--zoomable 1109 -->
<svg id="main" version="1.1" xmlns="http://www.w3.org/2000/svg" xmlns:xlink="http://www.w3.org/1999/xlink" xml:space="preserve" onload="init(evt)">
<style type="text/css"><![CDATA[
.edge:hover path { stroke: red; }
.edge:hover polygon { stroke: red; fill: red; }
]]></style>
<script type="text/javascript"><![CDATA[
var edges = document.getElementsByTagName('g');
if (edges && edges.length) {
  for (var i=0;i<edges.length;i++) {
    if (edges[i].id.substr(0,4)=='edge') {
      edges[i].setAttribute('class','edge');
    }
  }
}
]]></script>
        <defs>
                <circle id="rim" cx="0" cy="0" r="7"/>
                <circle id="rim2" cx="0" cy="0" r="3.5"/>
                <g id="zoomPlus">
                        <use xlink:href="#rim" fill="#404040">
                                <set attributeName="fill" to="#808080" begin="zoomplus.mouseover" end="zoomplus.mouseout"/>
                        </use>
                        <path d="M-4,0h8M0,-4v8" fill="none" stroke="white" stroke-width="1.5" pointer-events="none"/>
                </g>
                <g id="zoomMin">
                        <use xlink:href="#rim" fill="#404040">
                                <set attributeName="fill" to="#808080" begin="zoomminus.mouseover" end="zoomminus.mouseout"/>
                        </use>
                        <path d="M-4,0h8" fill="none" stroke="white" stroke-width="1.5" pointer-events="none"/>
                </g>
                <g id="dirArrow">
                        <path fill="none" stroke="white" stroke-width="1.5" d="M0,-3.0v7 M-2.5,-0.5L0,-3.0L2.5,-0.5"/>
                </g>
               <g id="resetDef">
                       <use xlink:href="#rim2" fill="#404040">
                               <set attributeName="fill" to="#808080" begin="reset.mouseover" end="reset.mouseout"/>
                       </use>
               </g>
        </defs>

<script type="text/javascript">
var viewWidth = 251;
var viewHeight = 1109;
var sectionId = 'dynsection-0';
</script>
<script xlink:href="svgpan.js"/>
<svg id="graph" class="graph">
<g id="viewport">
<title>httplib::Result</title>
<polygon fill="white" stroke="transparent" points="-4,4 -4,-1105 246.5,-1105 246.5,4 -4,4"/>
<!-- Node1 -->
<g id="node1" class="node">
<title>Node1</title>
<g id="a_node1"><a xlink:title=" ">
<polygon fill="#bfbfbf" stroke="black" points="0,-0.5 0,-255.5 134,-255.5 134,-0.5 0,-0.5"/>
<text text-anchor="middle" x="67" y="-243.5" font-family="Helvetica,sans-Serif" font-size="10.00">httplib::Result</text>
<polyline fill="none" stroke="black" points="0,-236.5 134,-236.5 "/>
<text text-anchor="start" x="8" y="-224.5" font-family="Helvetica,sans-Serif" font-size="10.00">&#45; err_</text>
<polyline fill="none" stroke="black" points="0,-217.5 134,-217.5 "/>
<text text-anchor="start" x="8" y="-205.5" font-family="Helvetica,sans-Serif" font-size="10.00">+ Result()</text>
<text text-anchor="start" x="8" y="-194.5" font-family="Helvetica,sans-Serif" font-size="10.00">+ Result()</text>
<text text-anchor="start" x="8" y="-183.5" font-family="Helvetica,sans-Serif" font-size="10.00">+ operator bool()</text>
<text text-anchor="start" x="8" y="-172.5" font-family="Helvetica,sans-Serif" font-size="10.00">+ operator==()</text>
<text text-anchor="start" x="8" y="-161.5" font-family="Helvetica,sans-Serif" font-size="10.00">+ operator!=()</text>
<text text-anchor="start" x="8" y="-150.5" font-family="Helvetica,sans-Serif" font-size="10.00">+ value()</text>
<text text-anchor="start" x="8" y="-139.5" font-family="Helvetica,sans-Serif" font-size="10.00">+ value()</text>
<text text-anchor="start" x="8" y="-128.5" font-family="Helvetica,sans-Serif" font-size="10.00">+ operator*()</text>
<text text-anchor="start" x="8" y="-117.5" font-family="Helvetica,sans-Serif" font-size="10.00">+ operator*()</text>
<text text-anchor="start" x="8" y="-106.5" font-family="Helvetica,sans-Serif" font-size="10.00">+ operator&#45;&gt;()</text>
<text text-anchor="start" x="8" y="-95.5" font-family="Helvetica,sans-Serif" font-size="10.00">+ operator&#45;&gt;()</text>
<text text-anchor="start" x="8" y="-84.5" font-family="Helvetica,sans-Serif" font-size="10.00">+ error()</text>
<text text-anchor="start" x="8" y="-73.5" font-family="Helvetica,sans-Serif" font-size="10.00">+ has_request_header()</text>
<text text-anchor="start" x="8" y="-62.5" font-family="Helvetica,sans-Serif" font-size="10.00">+ get_request_header</text>
<text text-anchor="start" x="8" y="-51.5" font-family="Helvetica,sans-Serif" font-size="10.00">_value()</text>
<text text-anchor="start" x="8" y="-40.5" font-family="Helvetica,sans-Serif" font-size="10.00">+ get_request_header</text>
<text text-anchor="start" x="8" y="-29.5" font-family="Helvetica,sans-Serif" font-size="10.00">_value_u64()</text>
<text text-anchor="start" x="8" y="-18.5" font-family="Helvetica,sans-Serif" font-size="10.00">+ get_request_header</text>
<text text-anchor="start" x="8" y="-7.5" font-family="Helvetica,sans-Serif" font-size="10.00">_value_count()</text>
</a>
</g>
</g>
<!-- Node2 -->
<g id="node2" class="node">
<title>Node2</title>
<g id="a_node2"><a xlink:title=" ">
<polygon fill="white" stroke="#bfbfbf" points="15.5,-799.5 15.5,-878.5 126.5,-878.5 126.5,-799.5 15.5,-799.5"/>
<text text-anchor="start" x="23.5" y="-866.5" font-family="Helvetica,sans-Serif" font-size="10.00">std::multimap&lt; std</text>
<text text-anchor="start" x="23.5" y="-855.5" font-family="Helvetica,sans-Serif" font-size="10.00">::string, std::string,</text>
<text text-anchor="middle" x="71" y="-844.5" font-family="Helvetica,sans-Serif" font-size="10.00"> detail::ci &gt;</text>
<polyline fill="none" stroke="#bfbfbf" points="15.5,-837.5 126.5,-837.5 "/>
<text text-anchor="middle" x="71" y="-825.5" font-family="Helvetica,sans-Serif" font-size="10.00"> </text>
<polyline fill="none" stroke="#bfbfbf" points="15.5,-818.5 126.5,-818.5 "/>
<text text-anchor="middle" x="71" y="-806.5" font-family="Helvetica,sans-Serif" font-size="10.00"> </text>
</a>
</g>
</g>
<!-- Node2&#45;&gt;Node1 -->
<g id="edge1" class="edge">
<title>Node2&#45;&gt;Node1</title>
<path fill="none" stroke="#404040" d="M69.06,-799.35C65.39,-721.77 57.97,-541.5 60,-390 60.53,-350.36 61.52,-307.35 62.58,-267.89"/>
<polygon fill="none" stroke="#404040" points="62.59,-267.76 58.75,-261.65 62.92,-255.76 66.75,-261.87 62.59,-267.76"/>
<text text-anchor="middle" x="107" y="-393" font-family="Helvetica,sans-Serif" font-size="10.00"> &#45;request_headers_</text>
</g>
<!-- Node6 -->
<g id="node6" class="node">
<title>Node6</title>
<g id="a_node6"><a xlink:href="structhttplib_1_1Response.html" target="_top" xlink:title=" ">
<polygon fill="white" stroke="black" points="83.5,-419.5 83.5,-751.5 242.5,-751.5 242.5,-419.5 83.5,-419.5"/>
<text text-anchor="middle" x="163" y="-739.5" font-family="Helvetica,sans-Serif" font-size="10.00">httplib::Response</text>
<polyline fill="none" stroke="black" points="83.5,-732.5 242.5,-732.5 "/>
<text text-anchor="start" x="91.5" y="-720.5" font-family="Helvetica,sans-Serif" font-size="10.00">+ status</text>
<text text-anchor="start" x="91.5" y="-709.5" font-family="Helvetica,sans-Serif" font-size="10.00">+ content_length_</text>
<text text-anchor="start" x="91.5" y="-698.5" font-family="Helvetica,sans-Serif" font-size="10.00">+ content_provider_</text>
<text text-anchor="start" x="91.5" y="-687.5" font-family="Helvetica,sans-Serif" font-size="10.00">+ content_provider_resource</text>
<text text-anchor="start" x="91.5" y="-676.5" font-family="Helvetica,sans-Serif" font-size="10.00">_releaser_</text>
<text text-anchor="start" x="91.5" y="-665.5" font-family="Helvetica,sans-Serif" font-size="10.00">+ is_chunked_content</text>
<text text-anchor="start" x="91.5" y="-654.5" font-family="Helvetica,sans-Serif" font-size="10.00">_provider_</text>
<text text-anchor="start" x="91.5" y="-643.5" font-family="Helvetica,sans-Serif" font-size="10.00">+ content_provider_success_</text>
<polyline fill="none" stroke="black" points="83.5,-636.5 242.5,-636.5 "/>
<text text-anchor="start" x="91.5" y="-624.5" font-family="Helvetica,sans-Serif" font-size="10.00">+ has_header()</text>
<text text-anchor="start" x="91.5" y="-613.5" font-family="Helvetica,sans-Serif" font-size="10.00">+ get_header_value()</text>
<text text-anchor="start" x="91.5" y="-602.5" font-family="Helvetica,sans-Serif" font-size="10.00">+ get_header_value_u64()</text>
<text text-anchor="start" x="91.5" y="-591.5" font-family="Helvetica,sans-Serif" font-size="10.00">+ get_header_value_count()</text>
<text text-anchor="start" x="91.5" y="-580.5" font-family="Helvetica,sans-Serif" font-size="10.00">+ set_header()</text>
<text text-anchor="start" x="91.5" y="-569.5" font-family="Helvetica,sans-Serif" font-size="10.00">+ set_redirect()</text>
<text text-anchor="start" x="91.5" y="-558.5" font-family="Helvetica,sans-Serif" font-size="10.00">+ set_content()</text>
<text text-anchor="start" x="91.5" y="-547.5" font-family="Helvetica,sans-Serif" font-size="10.00">+ set_content()</text>
<text text-anchor="start" x="91.5" y="-536.5" font-family="Helvetica,sans-Serif" font-size="10.00">+ set_content()</text>
<text text-anchor="start" x="91.5" y="-525.5" font-family="Helvetica,sans-Serif" font-size="10.00">+ set_content_provider()</text>
<text text-anchor="start" x="91.5" y="-514.5" font-family="Helvetica,sans-Serif" font-size="10.00">+ set_content_provider()</text>
<text text-anchor="start" x="91.5" y="-503.5" font-family="Helvetica,sans-Serif" font-size="10.00">+ set_chunked_content</text>
<text text-anchor="start" x="91.5" y="-492.5" font-family="Helvetica,sans-Serif" font-size="10.00">_provider()</text>
<text text-anchor="start" x="91.5" y="-481.5" font-family="Helvetica,sans-Serif" font-size="10.00">+ Response()</text>
<text text-anchor="start" x="91.5" y="-470.5" font-family="Helvetica,sans-Serif" font-size="10.00">+ Response()</text>
<text text-anchor="start" x="91.5" y="-459.5" font-family="Helvetica,sans-Serif" font-size="10.00">+ operator=()</text>
<text text-anchor="start" x="91.5" y="-448.5" font-family="Helvetica,sans-Serif" font-size="10.00">+ Response()</text>
<text text-anchor="start" x="91.5" y="-437.5" font-family="Helvetica,sans-Serif" font-size="10.00">+ operator=()</text>
<text text-anchor="start" x="91.5" y="-426.5" font-family="Helvetica,sans-Serif" font-size="10.00">+ ~Response()</text>
</a>
</g>
</g>
<!-- Node2&#45;&gt;Node6 -->
<g id="edge6" class="edge">
<title>Node2&#45;&gt;Node6</title>
<path fill="none" stroke="#404040" d="M85.17,-799.25C89.09,-788.54 93.61,-776.18 98.47,-762.91"/>
<polygon fill="none" stroke="#404040" points="98.49,-762.84 96.8,-755.84 102.61,-751.58 104.31,-758.58 98.49,-762.84"/>
<text text-anchor="middle" x="121.5" y="-773" font-family="Helvetica,sans-Serif" font-size="10.00"> +headers</text>
</g>
<!-- Node3 -->
<g id="node3" class="node">
<title>Node3</title>
<g id="a_node3"><a xlink:title="STL class.">
<polygon fill="white" stroke="#bfbfbf" points="84.5,-937.5 84.5,-994.5 149.5,-994.5 149.5,-937.5 84.5,-937.5"/>
<text text-anchor="middle" x="117" y="-982.5" font-family="Helvetica,sans-Serif" font-size="10.00">std::string</text>
<polyline fill="none" stroke="#bfbfbf" points="84.5,-975.5 149.5,-975.5 "/>
<text text-anchor="middle" x="117" y="-963.5" font-family="Helvetica,sans-Serif" font-size="10.00"> </text>
<polyline fill="none" stroke="#bfbfbf" points="84.5,-956.5 149.5,-956.5 "/>
<text text-anchor="middle" x="117" y="-944.5" font-family="Helvetica,sans-Serif" font-size="10.00"> </text>
</a>
</g>
</g>
<!-- Node3&#45;&gt;Node2 -->
<g id="edge2" class="edge">
<title>Node3&#45;&gt;Node2</title>
<path fill="none" stroke="#404040" d="M99.82,-937.37C96.59,-931.45 93.46,-925.13 91,-919 87.41,-910.04 84.31,-900.25 81.7,-890.71"/>
<polygon fill="none" stroke="#404040" points="81.64,-890.45 76.27,-885.63 78.65,-878.83 84.02,-883.64 81.64,-890.45"/>
<text text-anchor="middle" x="120" y="-911" font-family="Helvetica,sans-Serif" font-size="10.00"> +elements</text>
<text text-anchor="middle" x="120" y="-900" font-family="Helvetica,sans-Serif" font-size="10.00">+keys</text>
</g>
<!-- Node3&#45;&gt;Node6 -->
<g id="edge7" class="edge">
<title>Node3&#45;&gt;Node6</title>
<path fill="none" stroke="#404040" d="M139.85,-937.41C143.54,-931.64 146.86,-925.36 149,-919 165.44,-870.21 172.13,-815.1 173.86,-763.98"/>
<polygon fill="none" stroke="#404040" points="173.87,-763.77 170.03,-757.66 174.19,-751.77 178.03,-757.88 173.87,-763.77"/>
<text text-anchor="middle" x="197.5" y="-853" font-family="Helvetica,sans-Serif" font-size="10.00"> +location</text>
<text text-anchor="middle" x="197.5" y="-842" font-family="Helvetica,sans-Serif" font-size="10.00">+version</text>
<text text-anchor="middle" x="197.5" y="-831" font-family="Helvetica,sans-Serif" font-size="10.00">+body</text>
<text text-anchor="middle" x="197.5" y="-820" font-family="Helvetica,sans-Serif" font-size="10.00">+reason</text>
</g>
<!-- Node4 -->
<g id="node4" class="node">
<title>Node4</title>
<g id="a_node4"><a xlink:title="STL class.">
<polygon fill="white" stroke="#bfbfbf" points="65,-1032.5 65,-1100.5 169,-1100.5 169,-1032.5 65,-1032.5"/>
<text text-anchor="start" x="73" y="-1088.5" font-family="Helvetica,sans-Serif" font-size="10.00">std::basic_string&lt;</text>
<text text-anchor="middle" x="117" y="-1077.5" font-family="Helvetica,sans-Serif" font-size="10.00"> char &gt;</text>
<polyline fill="none" stroke="#bfbfbf" points="65,-1070.5 169,-1070.5 "/>
<text text-anchor="middle" x="117" y="-1058.5" font-family="Helvetica,sans-Serif" font-size="10.00"> </text>
<polyline fill="none" stroke="#bfbfbf" points="65,-1051.5 169,-1051.5 "/>
<text text-anchor="middle" x="117" y="-1039.5" font-family="Helvetica,sans-Serif" font-size="10.00"> </text>
</a>
</g>
</g>
<!-- Node4&#45;&gt;Node3 -->
<g id="edge3" class="edge">
<title>Node4&#45;&gt;Node3</title>
<path fill="none" stroke="midnightblue" d="M117,-1022.38C117,-1012.94 117,-1003.2 117,-994.57"/>
<polygon fill="none" stroke="midnightblue" points="113.5,-1022.43 117,-1032.43 120.5,-1022.43 113.5,-1022.43"/>
</g>
<!-- Node5 -->
<g id="node5" class="node">
<title>Node5</title>
<g id="a_node5"><a xlink:title=" ">
<polygon fill="white" stroke="#bfbfbf" points="90,-303.5 90,-371.5 222,-371.5 222,-303.5 90,-303.5"/>
<text text-anchor="start" x="98" y="-359.5" font-family="Helvetica,sans-Serif" font-size="10.00">std::unique_ptr&lt; httplib</text>
<text text-anchor="middle" x="156" y="-348.5" font-family="Helvetica,sans-Serif" font-size="10.00">::Response &gt;</text>
<polyline fill="none" stroke="#bfbfbf" points="90,-341.5 222,-341.5 "/>
<text text-anchor="middle" x="156" y="-329.5" font-family="Helvetica,sans-Serif" font-size="10.00"> </text>
<polyline fill="none" stroke="#bfbfbf" points="90,-322.5 222,-322.5 "/>
<text text-anchor="start" x="98" y="-310.5" font-family="Helvetica,sans-Serif" font-size="10.00">+ operator&#45;&gt;()</text>
</a>
</g>
</g>
<!-- Node5&#45;&gt;Node1 -->
<g id="edge4" class="edge">
<title>Node5&#45;&gt;Node1</title>
<path fill="none" stroke="#404040" d="M141.7,-303.16C137.17,-292.6 131.85,-280.2 126.17,-266.96"/>
<polygon fill="none" stroke="#404040" points="126.06,-266.69 120.01,-262.75 121.33,-255.66 127.37,-259.6 126.06,-266.69"/>
<text text-anchor="middle" x="147" y="-277" font-family="Helvetica,sans-Serif" font-size="10.00"> &#45;res_</text>
</g>
<!-- Node6&#45;&gt;Node5 -->
<g id="edge5" class="edge">
<title>Node6&#45;&gt;Node5</title>
<path fill="none" stroke="#404040" d="M158.3,-419.39C157.94,-406.74 157.6,-394.77 157.3,-384.1"/>
<polygon fill="none" stroke="#404040" points="157.29,-383.78 153.12,-377.89 156.95,-371.78 161.12,-377.67 157.29,-383.78"/>
<text text-anchor="middle" x="170.5" y="-393" font-family="Helvetica,sans-Serif" font-size="10.00"> +ptr</text>
</g>
</g>
</svg>
        <g id="navigator" transform="translate(0 0)" fill="#404254">
                <rect fill="#f2f5e9" fill-opacity="0.5" stroke="#606060" stroke-width=".5" x="0" y="0" width="60" height="60"/>
                <use id="zoomplus" xlink:href="#zoomPlus" x="17" y="9" onmousedown="handleZoom(evt,'in')"/>
                <use id="zoomminus" xlink:href="#zoomMin" x="42" y="9" onmousedown="handleZoom(evt,'out')"/>
                <use id="reset" xlink:href="#resetDef" x="30" y="36" onmousedown="handleReset()"/>
                <g id="arrowUp" xlink:href="#dirArrow" transform="translate(30 24)" onmousedown="handlePan(0,-1)">
                  <use xlink:href="#rim" fill="#404040">
                        <set attributeName="fill" to="#808080" begin="arrowUp.mouseover" end="arrowUp.mouseout"/>
                  </use>
                  <path fill="none" stroke="white" stroke-width="1.5" d="M0,-3.0v7 M-2.5,-0.5L0,-3.0L2.5,-0.5"/>
                </g>
                <g id="arrowRight" xlink:href="#dirArrow" transform="rotate(90) translate(36 -43)" onmousedown="handlePan(1,0)">
                  <use xlink:href="#rim" fill="#404040">
                        <set attributeName="fill" to="#808080" begin="arrowRight.mouseover" end="arrowRight.mouseout"/>
                  </use>
                  <path fill="none" stroke="white" stroke-width="1.5" d="M0,-3.0v7 M-2.5,-0.5L0,-3.0L2.5,-0.5"/>
                </g>
                <g id="arrowDown" xlink:href="#dirArrow" transform="rotate(180) translate(-30 -48)" onmousedown="handlePan(0,1)">
                  <use xlink:href="#rim" fill="#404040">
                        <set attributeName="fill" to="#808080" begin="arrowDown.mouseover" end="arrowDown.mouseout"/>
                  </use>
                  <path fill="none" stroke="white" stroke-width="1.5" d="M0,-3.0v7 M-2.5,-0.5L0,-3.0L2.5,-0.5"/>
                </g>
                <g id="arrowLeft" xlink:href="#dirArrow" transform="rotate(270) translate(-36 17)" onmousedown="handlePan(-1,0)">
                  <use xlink:href="#rim" fill="#404040">
                        <set attributeName="fill" to="#808080" begin="arrowLeft.mouseover" end="arrowLeft.mouseout"/>
                  </use>
                  <path fill="none" stroke="white" stroke-width="1.5" d="M0,-3.0v7 M-2.5,-0.5L0,-3.0L2.5,-0.5"/>
                </g>
        </g>
        <svg viewBox="0 0 15 15" width="100%" height="30px" preserveAspectRatio="xMaxYMin meet">
         <g id="arrow_out" transform="scale(0.3 0.3)">
          <a xlink:href="classhttplib_1_1Result__coll__graph_org.svg" target="_base">
           <rect id="button" ry="5" rx="5" y="6" x="6" height="38" width="38"
                fill="#f2f5e9" fill-opacity="0.5" stroke="#606060" stroke-width="1.0"/>
           <path id="arrow"
             d="M 11.500037,31.436501 C 11.940474,20.09759 22.043105,11.32322 32.158766,21.979434 L 37.068811,17.246167 C 37.068811,17.246167 37.088388,32 37.088388,32 L 22.160133,31.978069 C 22.160133,31.978069 26.997745,27.140456 26.997745,27.140456 C 18.528582,18.264221 13.291696,25.230495 11.500037,31.436501 z"
             style="fill:#404040;"/>
          </a>
         </g>
        </svg>
</svg>
