<?xml version="1.0" encoding="UTF-8" standalone="no"?>
<!DOCTYPE svg PUBLIC "-//W3C//DTD SVG 1.1//EN"
 "http://www.w3.org/Graphics/SVG/1.1/DTD/svg11.dtd">
<!-- Generated by graphviz version 2.43.0 (0)
 -->
<!-- Title: BluechiStopAsilUnitCommand Pages: 1 -->
<svg width="237pt" height="310pt"
 viewBox="0.00 0.00 237.00 310.00" xmlns="http://www.w3.org/2000/svg" xmlns:xlink="http://www.w3.org/1999/xlink">
<g id="graph0" class="graph" transform="scale(1 1) rotate(0) translate(4 306)">
<title>BluechiStopAsilUnitCommand</title>
<polygon fill="white" stroke="transparent" points="-4,4 -4,-306 233,-306 233,4 -4,4"/>
<!-- Node1 -->
<g id="node1" class="node">
<title>Node1</title>
<g id="a_node1"><a xlink:title=" ">
<polygon fill="#bfbfbf" stroke="black" points="0,-0.5 0,-79.5 190,-79.5 190,-0.5 0,-0.5"/>
<text text-anchor="middle" x="95" y="-67.5" font-family="Helvetica,sans-Serif" font-size="10.00">BluechiStopAsilUnitCommand</text>
<polyline fill="none" stroke="black" points="0,-60.5 190,-60.5 "/>
<text text-anchor="middle" x="95" y="-48.5" font-family="Helvetica,sans-Serif" font-size="10.00"> </text>
<polyline fill="none" stroke="black" points="0,-41.5 190,-41.5 "/>
<text text-anchor="start" x="8" y="-29.5" font-family="Helvetica,sans-Serif" font-size="10.00">+ BluechiStopAsilUnitCommand()</text>
<text text-anchor="start" x="8" y="-18.5" font-family="Helvetica,sans-Serif" font-size="10.00">+ ~BluechiStopAsilUnitCommand()</text>
<text text-anchor="start" x="8" y="-7.5" font-family="Helvetica,sans-Serif" font-size="10.00">+ Execute()</text>
</a>
</g>
</g>
<!-- Node2 -->
<g id="node2" class="node">
<title>Node2</title>
<g id="a_node2"><a xlink:href="classCommand.html" target="_top" xlink:title=" ">
<polygon fill="white" stroke="black" points="32,-127.5 32,-195.5 126,-195.5 126,-127.5 32,-127.5"/>
<text text-anchor="middle" x="79" y="-183.5" font-family="Helvetica,sans-Serif" font-size="10.00">Command</text>
<polyline fill="none" stroke="black" points="32,-176.5 126,-176.5 "/>
<text text-anchor="middle" x="79" y="-164.5" font-family="Helvetica,sans-Serif" font-size="10.00"> </text>
<polyline fill="none" stroke="black" points="32,-157.5 126,-157.5 "/>
<text text-anchor="start" x="40" y="-145.5" font-family="Helvetica,sans-Serif" font-size="10.00">+ Execute()</text>
<text text-anchor="start" x="40" y="-134.5" font-family="Helvetica,sans-Serif" font-size="10.00">+ ~Command()</text>
</a>
</g>
</g>
<!-- Node2&#45;&gt;Node1 -->
<g id="edge1" class="edge">
<title>Node2&#45;&gt;Node1</title>
<path fill="none" stroke="midnightblue" d="M84.8,-117.18C86.45,-104.89 88.23,-91.59 89.83,-79.6"/>
<polygon fill="none" stroke="midnightblue" points="81.32,-116.84 83.46,-127.21 88.25,-117.77 81.32,-116.84"/>
</g>
<!-- Node3 -->
<g id="node3" class="node">
<title>Node3</title>
<g id="a_node3"><a xlink:title="STL class.">
<polygon fill="white" stroke="#bfbfbf" points="144.5,-133 144.5,-190 209.5,-190 209.5,-133 144.5,-133"/>
<text text-anchor="middle" x="177" y="-178" font-family="Helvetica,sans-Serif" font-size="10.00">std::string</text>
<polyline fill="none" stroke="#bfbfbf" points="144.5,-171 209.5,-171 "/>
<text text-anchor="middle" x="177" y="-159" font-family="Helvetica,sans-Serif" font-size="10.00"> </text>
<polyline fill="none" stroke="#bfbfbf" points="144.5,-152 209.5,-152 "/>
<text text-anchor="middle" x="177" y="-140" font-family="Helvetica,sans-Serif" font-size="10.00"> </text>
</a>
</g>
</g>
<!-- Node3&#45;&gt;Node1 -->
<g id="edge2" class="edge">
<title>Node3&#45;&gt;Node1</title>
<path fill="none" stroke="#404040" d="M157.98,-132.78C149.22,-120.01 138.55,-104.47 128.5,-89.83"/>
<polygon fill="none" stroke="#404040" points="128.47,-89.78 121.78,-87.09 121.68,-79.88 128.37,-82.56 128.47,-89.78"/>
<text text-anchor="middle" x="172" y="-101" font-family="Helvetica,sans-Serif" font-size="10.00"> &#45;app_name_</text>
</g>
<!-- Node4 -->
<g id="node4" class="node">
<title>Node4</title>
<g id="a_node4"><a xlink:title="STL class.">
<polygon fill="white" stroke="#bfbfbf" points="125,-233.5 125,-301.5 229,-301.5 229,-233.5 125,-233.5"/>
<text text-anchor="start" x="133" y="-289.5" font-family="Helvetica,sans-Serif" font-size="10.00">std::basic_string&lt;</text>
<text text-anchor="middle" x="177" y="-278.5" font-family="Helvetica,sans-Serif" font-size="10.00"> char &gt;</text>
<polyline fill="none" stroke="#bfbfbf" points="125,-271.5 229,-271.5 "/>
<text text-anchor="middle" x="177" y="-259.5" font-family="Helvetica,sans-Serif" font-size="10.00"> </text>
<polyline fill="none" stroke="#bfbfbf" points="125,-252.5 229,-252.5 "/>
<text text-anchor="middle" x="177" y="-240.5" font-family="Helvetica,sans-Serif" font-size="10.00"> </text>
</a>
</g>
</g>
<!-- Node4&#45;&gt;Node3 -->
<g id="edge3" class="edge">
<title>Node4&#45;&gt;Node3</title>
<path fill="none" stroke="midnightblue" d="M177,-223.25C177,-212.05 177,-200.3 177,-190.15"/>
<polygon fill="none" stroke="midnightblue" points="173.5,-223.31 177,-233.31 180.5,-223.31 173.5,-223.31"/>
</g>
</g>
</svg>
