<?xml version="1.0" encoding="UTF-8" standalone="no"?>
<!DOCTYPE svg PUBLIC "-//W3C//DTD SVG 1.1//EN"
 "http://www.w3.org/Graphics/SVG/1.1/DTD/svg11.dtd">
<!-- Generated by graphviz version 2.43.0 (0)
 -->
<!-- Title: BluechiStopQmUnitCommand Pages: 1 -->
<svg width="237pt" height="310pt"
 viewBox="0.00 0.00 236.50 310.00" xmlns="http://www.w3.org/2000/svg" xmlns:xlink="http://www.w3.org/1999/xlink">
<g id="graph0" class="graph" transform="scale(1 1) rotate(0) translate(4 306)">
<title>BluechiStopQmUnitCommand</title>
<polygon fill="white" stroke="transparent" points="-4,4 -4,-306 232.5,-306 232.5,4 -4,4"/>
<!-- Node1 -->
<g id="node1" class="node">
<title>Node1</title>
<g id="a_node1"><a xlink:title=" ">
<polygon fill="#bfbfbf" stroke="black" points="0,-0.5 0,-79.5 189,-79.5 189,-0.5 0,-0.5"/>
<text text-anchor="middle" x="94.5" y="-67.5" font-family="Helvetica,sans-Serif" font-size="10.00">BluechiStopQmUnitCommand</text>
<polyline fill="none" stroke="black" points="0,-60.5 189,-60.5 "/>
<text text-anchor="middle" x="94.5" y="-48.5" font-family="Helvetica,sans-Serif" font-size="10.00"> </text>
<polyline fill="none" stroke="black" points="0,-41.5 189,-41.5 "/>
<text text-anchor="start" x="8" y="-29.5" font-family="Helvetica,sans-Serif" font-size="10.00">+ BluechiStopQmUnitCommand()</text>
<text text-anchor="start" x="8" y="-18.5" font-family="Helvetica,sans-Serif" font-size="10.00">+ ~BluechiStopQmUnitCommand()</text>
<text text-anchor="start" x="8" y="-7.5" font-family="Helvetica,sans-Serif" font-size="10.00">+ Execute()</text>
</a>
</g>
</g>
<!-- Node2 -->
<g id="node2" class="node">
<title>Node2</title>
<g id="a_node2"><a xlink:href="classCommand.html" target="_top" xlink:title=" ">
<polygon fill="white" stroke="black" points="31.5,-127.5 31.5,-195.5 125.5,-195.5 125.5,-127.5 31.5,-127.5"/>
<text text-anchor="middle" x="78.5" y="-183.5" font-family="Helvetica,sans-Serif" font-size="10.00">Command</text>
<polyline fill="none" stroke="black" points="31.5,-176.5 125.5,-176.5 "/>
<text text-anchor="middle" x="78.5" y="-164.5" font-family="Helvetica,sans-Serif" font-size="10.00"> </text>
<polyline fill="none" stroke="black" points="31.5,-157.5 125.5,-157.5 "/>
<text text-anchor="start" x="39.5" y="-145.5" font-family="Helvetica,sans-Serif" font-size="10.00">+ Execute()</text>
<text text-anchor="start" x="39.5" y="-134.5" font-family="Helvetica,sans-Serif" font-size="10.00">+ ~Command()</text>
</a>
</g>
</g>
<!-- Node2&#45;&gt;Node1 -->
<g id="edge1" class="edge">
<title>Node2&#45;&gt;Node1</title>
<path fill="none" stroke="midnightblue" d="M84.3,-117.18C85.95,-104.89 87.73,-91.59 89.33,-79.6"/>
<polygon fill="none" stroke="midnightblue" points="80.82,-116.84 82.96,-127.21 87.75,-117.77 80.82,-116.84"/>
</g>
<!-- Node3 -->
<g id="node3" class="node">
<title>Node3</title>
<g id="a_node3"><a xlink:title="STL class.">
<polygon fill="white" stroke="#bfbfbf" points="144,-133 144,-190 209,-190 209,-133 144,-133"/>
<text text-anchor="middle" x="176.5" y="-178" font-family="Helvetica,sans-Serif" font-size="10.00">std::string</text>
<polyline fill="none" stroke="#bfbfbf" points="144,-171 209,-171 "/>
<text text-anchor="middle" x="176.5" y="-159" font-family="Helvetica,sans-Serif" font-size="10.00"> </text>
<polyline fill="none" stroke="#bfbfbf" points="144,-152 209,-152 "/>
<text text-anchor="middle" x="176.5" y="-140" font-family="Helvetica,sans-Serif" font-size="10.00"> </text>
</a>
</g>
</g>
<!-- Node3&#45;&gt;Node1 -->
<g id="edge2" class="edge">
<title>Node3&#45;&gt;Node1</title>
<path fill="none" stroke="#404040" d="M157.48,-132.78C148.72,-120.01 138.05,-104.47 128,-89.83"/>
<polygon fill="none" stroke="#404040" points="127.97,-89.78 121.28,-87.09 121.18,-79.88 127.87,-82.56 127.97,-89.78"/>
<text text-anchor="middle" x="171.5" y="-101" font-family="Helvetica,sans-Serif" font-size="10.00"> &#45;app_name_</text>
</g>
<!-- Node4 -->
<g id="node4" class="node">
<title>Node4</title>
<g id="a_node4"><a xlink:title="STL class.">
<polygon fill="white" stroke="#bfbfbf" points="124.5,-233.5 124.5,-301.5 228.5,-301.5 228.5,-233.5 124.5,-233.5"/>
<text text-anchor="start" x="132.5" y="-289.5" font-family="Helvetica,sans-Serif" font-size="10.00">std::basic_string&lt;</text>
<text text-anchor="middle" x="176.5" y="-278.5" font-family="Helvetica,sans-Serif" font-size="10.00"> char &gt;</text>
<polyline fill="none" stroke="#bfbfbf" points="124.5,-271.5 228.5,-271.5 "/>
<text text-anchor="middle" x="176.5" y="-259.5" font-family="Helvetica,sans-Serif" font-size="10.00"> </text>
<polyline fill="none" stroke="#bfbfbf" points="124.5,-252.5 228.5,-252.5 "/>
<text text-anchor="middle" x="176.5" y="-240.5" font-family="Helvetica,sans-Serif" font-size="10.00"> </text>
</a>
</g>
</g>
<!-- Node4&#45;&gt;Node3 -->
<g id="edge3" class="edge">
<title>Node4&#45;&gt;Node3</title>
<path fill="none" stroke="midnightblue" d="M176.5,-223.25C176.5,-212.05 176.5,-200.3 176.5,-190.15"/>
<polygon fill="none" stroke="midnightblue" points="173,-223.31 176.5,-233.31 180,-223.31 173,-223.31"/>
</g>
</g>
</svg>
