<?xml version="1.0" encoding="UTF-8" standalone="no"?>
<!DOCTYPE svg PUBLIC "-//W3C//DTD SVG 1.1//EN"
 "http://www.w3.org/Graphics/SVG/1.1/DTD/svg11.dtd">
<!-- Generated by graphviz version 2.43.0 (0)
 -->
<!-- Title: DatabaseHandler::IsDatabaseAvailable Pages: 1 -->
<svg width="583pt" height="94pt"
 viewBox="0.00 0.00 583.00 93.50" xmlns="http://www.w3.org/2000/svg" xmlns:xlink="http://www.w3.org/1999/xlink">
<g id="graph0" class="graph" transform="scale(1 1) rotate(0) translate(4 89.5)">
<title>DatabaseHandler::IsDatabaseAvailable</title>
<polygon fill="white" stroke="transparent" points="-4,4 -4,-89.5 579,-89.5 579,4 -4,4"/>
<!-- Node1 -->
<g id="node1" class="node">
<title>Node1</title>
<g id="a_node1"><a xlink:title="Check if the database server is available.">
<polygon fill="#bfbfbf" stroke="black" points="413,-14 413,-44 575,-44 575,-14 413,-14"/>
<text text-anchor="start" x="421" y="-32" font-family="Helvetica,sans-Serif" font-size="10.00">DatabaseHandler::IsDatabase</text>
<text text-anchor="middle" x="494" y="-21" font-family="Helvetica,sans-Serif" font-size="10.00">Available</text>
</a>
</g>
</g>
<!-- Node2 -->
<g id="node2" class="node">
<title>Node2</title>
<g id="a_node2"><a xlink:href="classDatabaseHandler.html#a7a38f8acc49ef0b1418716fa7ebf824e" target="_top" xlink:title="Read the data from the database.">
<polygon fill="white" stroke="black" points="210,-38.5 210,-57.5 377,-57.5 377,-38.5 210,-38.5"/>
<text text-anchor="middle" x="293.5" y="-45.5" font-family="Helvetica,sans-Serif" font-size="10.00">DatabaseHandler::AppendData</text>
</a>
</g>
</g>
<!-- Node1&#45;&gt;Node2 -->
<g id="edge1" class="edge">
<title>Node1&#45;&gt;Node2</title>
<path fill="none" stroke="midnightblue" d="M402.87,-37.63C394.33,-38.44 385.7,-39.27 377.23,-40.08"/>
<polygon fill="midnightblue" stroke="midnightblue" points="403.21,-41.11 412.83,-36.67 402.55,-34.14 403.21,-41.11"/>
</g>
<!-- Node5 -->
<g id="node5" class="node">
<title>Node5</title>
<g id="a_node5"><a xlink:href="classDatabaseHandler.html#ad0a72027830f5b1fcc8e9d00b9a291ce" target="_top" xlink:title="Read the application value from the database.">
<polygon fill="white" stroke="black" points="216,-0.5 216,-19.5 371,-19.5 371,-0.5 216,-0.5"/>
<text text-anchor="middle" x="293.5" y="-7.5" font-family="Helvetica,sans-Serif" font-size="10.00">DatabaseHandler::ReadData</text>
</a>
</g>
</g>
<!-- Node1&#45;&gt;Node5 -->
<g id="edge4" class="edge">
<title>Node1&#45;&gt;Node5</title>
<path fill="none" stroke="midnightblue" d="M402.75,-20.36C392.18,-19.35 381.47,-18.32 371.1,-17.33"/>
<polygon fill="midnightblue" stroke="midnightblue" points="402.55,-23.86 412.83,-21.33 403.21,-16.89 402.55,-23.86"/>
</g>
<!-- Node3 -->
<g id="node3" class="node">
<title>Node3</title>
<g id="a_node3"><a xlink:href="classQmOtaHandler.html#a6ccbedb2878978ac7073ef4e10be6220" target="_top" xlink:title="Check for successful OTA download.">
<polygon fill="white" stroke="black" points="6.5,-55 6.5,-85 167.5,-85 167.5,-55 6.5,-55"/>
<text text-anchor="start" x="14.5" y="-73" font-family="Helvetica,sans-Serif" font-size="10.00">QmOtaHandler::OtaDownload</text>
<text text-anchor="middle" x="87" y="-62" font-family="Helvetica,sans-Serif" font-size="10.00">Successful</text>
</a>
</g>
</g>
<!-- Node2&#45;&gt;Node3 -->
<g id="edge2" class="edge">
<title>Node2&#45;&gt;Node3</title>
<path fill="none" stroke="midnightblue" d="M199.69,-57.98C188.97,-59.14 178.1,-60.31 167.58,-61.44"/>
<polygon fill="midnightblue" stroke="midnightblue" points="200.34,-61.43 209.91,-56.88 199.59,-54.47 200.34,-61.43"/>
</g>
<!-- Node4 -->
<g id="node4" class="node">
<title>Node4</title>
<g id="a_node4"><a xlink:href="classConfigHandler.html#a969e3ca03c0a638d455ac8935522aaef" target="_top" xlink:title="Save the initial JSON file content to the database.">
<polygon fill="white" stroke="black" points="0,-16.5 0,-35.5 174,-35.5 174,-16.5 0,-16.5"/>
<text text-anchor="middle" x="87" y="-23.5" font-family="Helvetica,sans-Serif" font-size="10.00">ConfigHandler::UpdateDatabase</text>
</a>
</g>
</g>
<!-- Node2&#45;&gt;Node4 -->
<g id="edge3" class="edge">
<title>Node2&#45;&gt;Node4</title>
<path fill="none" stroke="midnightblue" d="M199.93,-38.04C191.37,-37.12 182.73,-36.19 174.23,-35.28"/>
<polygon fill="midnightblue" stroke="midnightblue" points="199.59,-41.53 209.91,-39.12 200.34,-34.57 199.59,-41.53"/>
</g>
</g>
</svg>
