<?xml version="1.0" encoding="UTF-8" standalone="no"?>
<!DOCTYPE svg PUBLIC "-//W3C//DTD SVG 1.1//EN"
 "http://www.w3.org/Graphics/SVG/1.1/DTD/svg11.dtd">
<!-- Generated by graphviz version 2.43.0 (0)
 -->
<!-- Title: fuzzer::InputCorpus::AddToCorpus Pages: 1 -->
<!--zoomable 361 -->
<svg id="main" version="1.1" xmlns="http://www.w3.org/2000/svg" xmlns:xlink="http://www.w3.org/1999/xlink" xml:space="preserve" onload="init(evt)">
<style type="text/css"><![CDATA[
.edge:hover path { stroke: red; }
.edge:hover polygon { stroke: red; fill: red; }
]]></style>
<script type="text/javascript"><![CDATA[
var edges = document.getElementsByTagName('g');
if (edges && edges.length) {
  for (var i=0;i<edges.length;i++) {
    if (edges[i].id.substr(0,4)=='edge') {
      edges[i].setAttribute('class','edge');
    }
  }
}
]]></script>
        <defs>
                <circle id="rim" cx="0" cy="0" r="7"/>
                <circle id="rim2" cx="0" cy="0" r="3.5"/>
                <g id="zoomPlus">
                        <use xlink:href="#rim" fill="#404040">
                                <set attributeName="fill" to="#808080" begin="zoomplus.mouseover" end="zoomplus.mouseout"/>
                        </use>
                        <path d="M-4,0h8M0,-4v8" fill="none" stroke="white" stroke-width="1.5" pointer-events="none"/>
                </g>
                <g id="zoomMin">
                        <use xlink:href="#rim" fill="#404040">
                                <set attributeName="fill" to="#808080" begin="zoomminus.mouseover" end="zoomminus.mouseout"/>
                        </use>
                        <path d="M-4,0h8" fill="none" stroke="white" stroke-width="1.5" pointer-events="none"/>
                </g>
                <g id="dirArrow">
                        <path fill="none" stroke="white" stroke-width="1.5" d="M0,-3.0v7 M-2.5,-0.5L0,-3.0L2.5,-0.5"/>
                </g>
               <g id="resetDef">
                       <use xlink:href="#rim2" fill="#404040">
                               <set attributeName="fill" to="#808080" begin="reset.mouseover" end="reset.mouseout"/>
                       </use>
               </g>
        </defs>

<script type="text/javascript">
var viewWidth = 757;
var viewHeight = 361;
var sectionId = 'dynsection-2';
</script>
<script xlink:href="svgpan.js"/>
<svg id="graph" class="graph">
<g id="viewport">
<title>fuzzer::InputCorpus::AddToCorpus</title>
<polygon fill="white" stroke="transparent" points="-4,4 -4,-357.27 753,-357.27 753,4 -4,4"/>
<!-- Node1 -->
<g id="node1" class="node">
<title>Node1</title>
<g id="a_node1"><a xlink:title=" ">
<polygon fill="#bfbfbf" stroke="black" points="0,-128.7 0,-158.7 111,-158.7 111,-128.7 0,-128.7"/>
<text text-anchor="start" x="8" y="-146.7" font-family="Helvetica,sans-Serif" font-size="10.00">fuzzer::InputCorpus</text>
<text text-anchor="middle" x="55.5" y="-135.7" font-family="Helvetica,sans-Serif" font-size="10.00">::AddToCorpus</text>
</a>
</g>
</g>
<!-- Node2 -->
<g id="node2" class="node">
<title>Node2</title>
<g id="a_node2"><a xlink:href="FuzzerTracePC_8cpp.html#a1f10ac78bd11294b612636121065eb5b" target="_top" xlink:title=" ">
<polygon fill="white" stroke="black" points="370,-260.2 370,-279.2 417,-279.2 417,-260.2 370,-260.2"/>
<text text-anchor="middle" x="393.5" y="-267.2" font-family="Helvetica,sans-Serif" font-size="10.00">assert</text>
</a>
</g>
</g>
<!-- Node1&#45;&gt;Node2 -->
<g id="edge1" class="edge">
<title>Node1&#45;&gt;Node2</title>
<path fill="none" stroke="midnightblue" d="M74.04,-158.79C91.47,-173.06 119.5,-194.1 147,-206.7 219.15,-239.76 311.49,-257.51 359.76,-265.11"/>
<polygon fill="midnightblue" stroke="midnightblue" points="359.52,-268.61 369.93,-266.66 360.57,-261.7 359.52,-268.61"/>
</g>
<!-- Node3 -->
<g id="node3" class="node">
<title>Node3</title>
<g id="a_node3"><a xlink:href="namespacefuzzer.html#a315b24f5436223321f5dd87f04ad90fc" target="_top" xlink:title=" ">
<polygon fill="white" stroke="black" points="332,-53.2 332,-72.2 455,-72.2 455,-53.2 332,-53.2"/>
<text text-anchor="middle" x="393.5" y="-60.2" font-family="Helvetica,sans-Serif" font-size="10.00">fuzzer::ComputeSHA1</text>
</a>
</g>
</g>
<!-- Node1&#45;&gt;Node3 -->
<g id="edge2" class="edge">
<title>Node1&#45;&gt;Node3</title>
<path fill="none" stroke="midnightblue" d="M89.9,-128.58C106.75,-121.43 127.66,-113.26 147,-107.7 204.95,-91.04 272.45,-79.2 321.98,-71.86"/>
<polygon fill="midnightblue" stroke="midnightblue" points="322.56,-75.31 331.95,-70.4 321.55,-68.38 322.56,-75.31"/>
</g>
<!-- Node4 -->
<g id="node4" class="node">
<title>Node4</title>
<g id="a_node4"><a xlink:href="namespacefuzzer.html#abebfdee7cc880967073a09d61e12e182" target="_top" xlink:title=" ">
<polygon fill="white" stroke="black" points="183,-36.2 183,-55.2 260,-55.2 260,-36.2 183,-36.2"/>
<text text-anchor="middle" x="221.5" y="-43.2" font-family="Helvetica,sans-Serif" font-size="10.00">fuzzer::Hash</text>
</a>
</g>
</g>
<!-- Node1&#45;&gt;Node4 -->
<g id="edge3" class="edge">
<title>Node1&#45;&gt;Node4</title>
<path fill="none" stroke="midnightblue" d="M71.23,-128.69C88.16,-112.19 117.44,-85.87 147,-69.7 155.13,-65.26 164.22,-61.46 173.16,-58.29"/>
<polygon fill="midnightblue" stroke="midnightblue" points="174.37,-61.58 182.75,-55.1 172.16,-54.94 174.37,-61.58"/>
</g>
<!-- Node5 -->
<g id="node5" class="node">
<title>Node5</title>
<g id="a_node5"><a xlink:href="namespacefuzzer.html#af169a5e81c6e590e4240ccfbb84b8b6a" target="_top" xlink:title=" ">
<polygon fill="white" stroke="black" points="335.5,-4.2 335.5,-23.2 451.5,-23.2 451.5,-4.2 335.5,-4.2"/>
<text text-anchor="middle" x="393.5" y="-11.2" font-family="Helvetica,sans-Serif" font-size="10.00">fuzzer::Sha1ToString</text>
</a>
</g>
</g>
<!-- Node1&#45;&gt;Node5 -->
<g id="edge9" class="edge">
<title>Node1&#45;&gt;Node5</title>
<path fill="none" stroke="midnightblue" d="M63.02,-128.48C75.17,-102.27 104.01,-49.23 147,-26.7 203,2.64 276.39,2.38 328.29,-3.05"/>
<polygon fill="midnightblue" stroke="midnightblue" points="328.04,-6.55 338.37,-4.2 328.83,0.41 328.04,-6.55"/>
</g>
<!-- Node6 -->
<g id="node6" class="node">
<title>Node6</title>
<g id="a_node6"><a xlink:href="classfuzzer_1_1InputCorpus.html#a9c696dfbff62d817a51d74cb0cae17fa" target="_top" xlink:title=" ">
<polygon fill="white" stroke="black" points="491,-273.7 491,-303.7 602,-303.7 602,-273.7 491,-273.7"/>
<text text-anchor="start" x="499" y="-291.7" font-family="Helvetica,sans-Serif" font-size="10.00">fuzzer::InputCorpus</text>
<text text-anchor="middle" x="546.5" y="-280.7" font-family="Helvetica,sans-Serif" font-size="10.00">::NumFeatures</text>
</a>
</g>
</g>
<!-- Node1&#45;&gt;Node6 -->
<g id="edge6" class="edge">
<title>Node1&#45;&gt;Node6</title>
<path fill="none" stroke="midnightblue" d="M58.95,-158.72C65.64,-194.15 87.83,-282.69 147,-318.7 259.39,-387.11 423.95,-337.71 501.71,-307.5"/>
<polygon fill="midnightblue" stroke="midnightblue" points="503.19,-310.67 511.2,-303.74 500.61,-304.17 503.19,-310.67"/>
</g>
<!-- Node8 -->
<g id="node8" class="node">
<title>Node8</title>
<g id="a_node8"><a xlink:href="namespacefuzzer.html#afab785891fdb74f8fd33bca421bde935" target="_top" xlink:title=" ">
<polygon fill="white" stroke="black" points="507,-134.2 507,-153.2 586,-153.2 586,-134.2 507,-134.2"/>
<text text-anchor="middle" x="546.5" y="-141.2" font-family="Helvetica,sans-Serif" font-size="10.00">fuzzer::Printf</text>
</a>
</g>
</g>
<!-- Node1&#45;&gt;Node8 -->
<g id="edge8" class="edge">
<title>Node1&#45;&gt;Node8</title>
<path fill="none" stroke="midnightblue" d="M111.17,-143.7C207.28,-143.7 405.01,-143.7 496.75,-143.7"/>
<polygon fill="midnightblue" stroke="midnightblue" points="496.88,-147.2 506.88,-143.7 496.88,-140.2 496.88,-147.2"/>
</g>
<!-- Node9 -->
<g id="node9" class="node">
<title>Node9</title>
<g id="a_node9"><a xlink:href="classfuzzer_1_1InputCorpus.html#af20f3223f05f9a10ceacaf0e27b15ff7" target="_top" xlink:title=" ">
<polygon fill="white" stroke="black" points="147,-278.7 147,-308.7 296,-308.7 296,-278.7 147,-278.7"/>
<text text-anchor="start" x="155" y="-296.7" font-family="Helvetica,sans-Serif" font-size="10.00">fuzzer::InputCorpus</text>
<text text-anchor="middle" x="221.5" y="-285.7" font-family="Helvetica,sans-Serif" font-size="10.00">::UpdateCorpusDistribution</text>
</a>
</g>
</g>
<!-- Node1&#45;&gt;Node9 -->
<g id="edge10" class="edge">
<title>Node1&#45;&gt;Node9</title>
<path fill="none" stroke="midnightblue" d="M67.3,-158.72C83.16,-180.12 114.42,-219.88 147,-247.7 158.14,-257.22 171.44,-266.16 183.65,-273.57"/>
<polygon fill="midnightblue" stroke="midnightblue" points="181.9,-276.61 192.29,-278.69 185.47,-270.58 181.9,-276.61"/>
</g>
<!-- Node10 -->
<g id="node10" class="node">
<title>Node10</title>
<g id="a_node10"><a xlink:href="classfuzzer_1_1InputCorpus.html#ad5c6e7dd46c8cd5e878ac30458b74757" target="_top" xlink:title=" ">
<polygon fill="white" stroke="black" points="163.5,-166.7 163.5,-196.7 279.5,-196.7 279.5,-166.7 163.5,-166.7"/>
<text text-anchor="start" x="171.5" y="-184.7" font-family="Helvetica,sans-Serif" font-size="10.00">fuzzer::InputCorpus</text>
<text text-anchor="middle" x="221.5" y="-173.7" font-family="Helvetica,sans-Serif" font-size="10.00">::ValidateFeatureSet</text>
</a>
</g>
</g>
<!-- Node1&#45;&gt;Node10 -->
<g id="edge12" class="edge">
<title>Node1&#45;&gt;Node10</title>
<path fill="none" stroke="midnightblue" d="M111.11,-156.36C124.61,-159.48 139.22,-162.87 153.24,-166.12"/>
<polygon fill="midnightblue" stroke="midnightblue" points="152.79,-169.61 163.32,-168.45 154.37,-162.79 152.79,-169.61"/>
</g>
<!-- Node4&#45;&gt;Node3 -->
<g id="edge4" class="edge">
<title>Node4&#45;&gt;Node3</title>
<path fill="none" stroke="midnightblue" d="M260.23,-49.48C278.3,-51.28 300.56,-53.51 321.62,-55.62"/>
<polygon fill="midnightblue" stroke="midnightblue" points="321.54,-59.13 331.84,-56.64 322.24,-52.16 321.54,-59.13"/>
</g>
<!-- Node4&#45;&gt;Node5 -->
<g id="edge5" class="edge">
<title>Node4&#45;&gt;Node5</title>
<path fill="none" stroke="midnightblue" d="M260.23,-38.6C281.28,-34.64 308.01,-29.61 331.93,-25.11"/>
<polygon fill="midnightblue" stroke="midnightblue" points="332.8,-28.5 341.98,-23.21 331.5,-21.62 332.8,-28.5"/>
</g>
<!-- Node7 -->
<g id="node7" class="node">
<title>Node7</title>
<g id="a_node7"><a xlink:href="classfuzzer_1_1InputCorpus.html#a72af33665b2df6c5668cec3fb3219cbb" target="_top" xlink:title=" ">
<polygon fill="white" stroke="black" points="638,-210.7 638,-240.7 749,-240.7 749,-210.7 638,-210.7"/>
<text text-anchor="start" x="646" y="-228.7" font-family="Helvetica,sans-Serif" font-size="10.00">fuzzer::InputCorpus</text>
<text text-anchor="middle" x="693.5" y="-217.7" font-family="Helvetica,sans-Serif" font-size="10.00">::GetFeature</text>
</a>
</g>
</g>
<!-- Node6&#45;&gt;Node7 -->
<g id="edge7" class="edge">
<title>Node6&#45;&gt;Node7</title>
<path fill="none" stroke="midnightblue" d="M582.23,-273.61C602.07,-265 627.13,-254.1 648.35,-244.88"/>
<polygon fill="midnightblue" stroke="midnightblue" points="650.02,-247.97 657.8,-240.78 647.23,-241.55 650.02,-247.97"/>
</g>
<!-- Node9&#45;&gt;Node6 -->
<g id="edge11" class="edge">
<title>Node9&#45;&gt;Node6</title>
<path fill="none" stroke="midnightblue" d="M296.2,-292.56C351.82,-291.7 427.41,-290.53 480.73,-289.71"/>
<polygon fill="midnightblue" stroke="midnightblue" points="480.8,-293.21 490.75,-289.55 480.7,-286.21 480.8,-293.21"/>
</g>
<!-- Node10&#45;&gt;Node2 -->
<g id="edge13" class="edge">
<title>Node10&#45;&gt;Node2</title>
<path fill="none" stroke="midnightblue" d="M255.63,-196.78C268.61,-203.2 283.38,-211.18 296,-219.7 313.5,-231.52 313.55,-240.44 332,-250.7 340.62,-255.5 350.62,-259.26 359.97,-262.13"/>
<polygon fill="midnightblue" stroke="midnightblue" points="359.2,-265.55 369.77,-264.9 361.1,-258.82 359.2,-265.55"/>
</g>
<!-- Node10&#45;&gt;Node7 -->
<g id="edge14" class="edge">
<title>Node10&#45;&gt;Node7</title>
<path fill="none" stroke="midnightblue" d="M279.85,-186.4C326.92,-190.31 395.3,-196.12 455,-201.7 513.43,-207.17 579.89,-213.93 627.62,-218.88"/>
<polygon fill="midnightblue" stroke="midnightblue" points="627.5,-222.39 637.81,-219.94 628.23,-215.43 627.5,-222.39"/>
</g>
<!-- Node10&#45;&gt;Node8 -->
<g id="edge15" class="edge">
<title>Node10&#45;&gt;Node8</title>
<path fill="none" stroke="midnightblue" d="M279.59,-174.24C296.46,-172.08 314.97,-169.75 332,-167.7 388.57,-160.91 453.65,-153.68 496.93,-148.95"/>
<polygon fill="midnightblue" stroke="midnightblue" points="497.35,-152.43 506.91,-147.86 496.59,-145.47 497.35,-152.43"/>
</g>
<!-- Node11 -->
<g id="node11" class="node">
<title>Node11</title>
<g id="a_node11"><a xlink:href="classfuzzer_1_1InputCorpus.html#a744f87fa757688d048cbe30dee1cb6ea" target="_top" xlink:title=" ">
<polygon fill="white" stroke="black" points="338,-210.7 338,-240.7 449,-240.7 449,-210.7 338,-210.7"/>
<text text-anchor="start" x="346" y="-228.7" font-family="Helvetica,sans-Serif" font-size="10.00">fuzzer::InputCorpus</text>
<text text-anchor="middle" x="393.5" y="-217.7" font-family="Helvetica,sans-Serif" font-size="10.00">::PrintFeatureSet</text>
</a>
</g>
</g>
<!-- Node10&#45;&gt;Node11 -->
<g id="edge16" class="edge">
<title>Node10&#45;&gt;Node11</title>
<path fill="none" stroke="midnightblue" d="M279.58,-196.48C295.16,-200.51 312.14,-204.9 328.09,-209.03"/>
<polygon fill="midnightblue" stroke="midnightblue" points="327.32,-212.45 337.87,-211.56 329.07,-205.67 327.32,-212.45"/>
</g>
<!-- Node11&#45;&gt;Node6 -->
<g id="edge18" class="edge">
<title>Node11&#45;&gt;Node6</title>
<path fill="none" stroke="midnightblue" d="M430.99,-240.74C438.91,-244.02 447.24,-247.47 455,-250.7 469.84,-256.88 486.03,-263.67 500.56,-269.78"/>
<polygon fill="midnightblue" stroke="midnightblue" points="499.27,-273.03 509.84,-273.68 501.98,-266.57 499.27,-273.03"/>
</g>
<!-- Node11&#45;&gt;Node7 -->
<g id="edge17" class="edge">
<title>Node11&#45;&gt;Node7</title>
<path fill="none" stroke="midnightblue" d="M449.16,-225.7C499.59,-225.7 574.52,-225.7 627.9,-225.7"/>
<polygon fill="midnightblue" stroke="midnightblue" points="627.94,-229.2 637.94,-225.7 627.94,-222.2 627.94,-229.2"/>
</g>
<!-- Node11&#45;&gt;Node8 -->
<g id="edge19" class="edge">
<title>Node11&#45;&gt;Node8</title>
<path fill="none" stroke="midnightblue" d="M422.2,-210.66C449.77,-195.69 491.78,-172.87 518.95,-158.12"/>
<polygon fill="midnightblue" stroke="midnightblue" points="520.77,-161.12 527.89,-153.27 517.43,-154.96 520.77,-161.12"/>
</g>
</g>
</svg>
        <g id="navigator" transform="translate(0 0)" fill="#404254">
                <rect fill="#f2f5e9" fill-opacity="0.5" stroke="#606060" stroke-width=".5" x="0" y="0" width="60" height="60"/>
                <use id="zoomplus" xlink:href="#zoomPlus" x="17" y="9" onmousedown="handleZoom(evt,'in')"/>
                <use id="zoomminus" xlink:href="#zoomMin" x="42" y="9" onmousedown="handleZoom(evt,'out')"/>
                <use id="reset" xlink:href="#resetDef" x="30" y="36" onmousedown="handleReset()"/>
                <g id="arrowUp" xlink:href="#dirArrow" transform="translate(30 24)" onmousedown="handlePan(0,-1)">
                  <use xlink:href="#rim" fill="#404040">
                        <set attributeName="fill" to="#808080" begin="arrowUp.mouseover" end="arrowUp.mouseout"/>
                  </use>
                  <path fill="none" stroke="white" stroke-width="1.5" d="M0,-3.0v7 M-2.5,-0.5L0,-3.0L2.5,-0.5"/>
                </g>
                <g id="arrowRight" xlink:href="#dirArrow" transform="rotate(90) translate(36 -43)" onmousedown="handlePan(1,0)">
                  <use xlink:href="#rim" fill="#404040">
                        <set attributeName="fill" to="#808080" begin="arrowRight.mouseover" end="arrowRight.mouseout"/>
                  </use>
                  <path fill="none" stroke="white" stroke-width="1.5" d="M0,-3.0v7 M-2.5,-0.5L0,-3.0L2.5,-0.5"/>
                </g>
                <g id="arrowDown" xlink:href="#dirArrow" transform="rotate(180) translate(-30 -48)" onmousedown="handlePan(0,1)">
                  <use xlink:href="#rim" fill="#404040">
                        <set attributeName="fill" to="#808080" begin="arrowDown.mouseover" end="arrowDown.mouseout"/>
                  </use>
                  <path fill="none" stroke="white" stroke-width="1.5" d="M0,-3.0v7 M-2.5,-0.5L0,-3.0L2.5,-0.5"/>
                </g>
                <g id="arrowLeft" xlink:href="#dirArrow" transform="rotate(270) translate(-36 17)" onmousedown="handlePan(-1,0)">
                  <use xlink:href="#rim" fill="#404040">
                        <set attributeName="fill" to="#808080" begin="arrowLeft.mouseover" end="arrowLeft.mouseout"/>
                  </use>
                  <path fill="none" stroke="white" stroke-width="1.5" d="M0,-3.0v7 M-2.5,-0.5L0,-3.0L2.5,-0.5"/>
                </g>
        </g>
        <svg viewBox="0 0 15 15" width="100%" height="30px" preserveAspectRatio="xMaxYMin meet">
         <g id="arrow_out" transform="scale(0.3 0.3)">
          <a xlink:href="classfuzzer_1_1InputCorpus_ac90b42d22754fcd60b9cb67f92ee4995_cgraph_org.svg" target="_base">
           <rect id="button" ry="5" rx="5" y="6" x="6" height="38" width="38"
                fill="#f2f5e9" fill-opacity="0.5" stroke="#606060" stroke-width="1.0"/>
           <path id="arrow"
             d="M 11.500037,31.436501 C 11.940474,20.09759 22.043105,11.32322 32.158766,21.979434 L 37.068811,17.246167 C 37.068811,17.246167 37.088388,32 37.088388,32 L 22.160133,31.978069 C 22.160133,31.978069 26.997745,27.140456 26.997745,27.140456 C 18.528582,18.264221 13.291696,25.230495 11.500037,31.436501 z"
             style="fill:#404040;"/>
          </a>
         </g>
        </svg>
</svg>
