<?xml version="1.0" encoding="UTF-8" standalone="no"?>
<!DOCTYPE svg PUBLIC "-//W3C//DTD SVG 1.1//EN"
 "http://www.w3.org/Graphics/SVG/1.1/DTD/svg11.dtd">
<!-- Generated by graphviz version 2.43.0 (0)
 -->
<!-- Title: nlohmann::detail::binary_reader::parse_ubjson_internal Pages: 1 -->
<svg width="1809pt" height="772pt"
 viewBox="0.00 0.00 1809.00 772.00" xmlns="http://www.w3.org/2000/svg" xmlns:xlink="http://www.w3.org/1999/xlink">
<g id="graph0" class="graph" transform="scale(1 1) rotate(0) translate(4 768)">
<title>nlohmann::detail::binary_reader::parse_ubjson_internal</title>
<polygon fill="white" stroke="transparent" points="-4,4 -4,-768 1805,-768 1805,4 -4,4"/>
<!-- Node1 -->
<g id="node1" class="node">
<title>Node1</title>
<g id="a_node1"><a xlink:title=" ">
<polygon fill="#bfbfbf" stroke="black" points="0,-448 0,-478 167,-478 167,-448 0,-448"/>
<text text-anchor="start" x="8" y="-466" font-family="Helvetica,sans-Serif" font-size="10.00">nlohmann::detail::binary</text>
<text text-anchor="middle" x="83.5" y="-455" font-family="Helvetica,sans-Serif" font-size="10.00">_reader::parse_ubjson_internal</text>
</a>
</g>
</g>
<!-- Node2 -->
<g id="node2" class="node">
<title>Node2</title>
<g id="a_node2"><a xlink:href="classnlohmann_1_1detail_1_1binary__reader.html#a11a145292c1cc44656c34a6aef38759c" target="_top" xlink:title=" ">
<polygon fill="white" stroke="black" points="974,-597 974,-627 1114,-627 1114,-597 974,-597"/>
<text text-anchor="start" x="982" y="-615" font-family="Helvetica,sans-Serif" font-size="10.00">nlohmann::detail::binary</text>
<text text-anchor="middle" x="1044" y="-604" font-family="Helvetica,sans-Serif" font-size="10.00">_reader::get_ignore_noop</text>
</a>
</g>
</g>
<!-- Node1&#45;&gt;Node2 -->
<g id="edge1" class="edge">
<title>Node1&#45;&gt;Node2</title>
<path fill="none" stroke="midnightblue" d="M112.04,-478.04C184.25,-516.6 386.03,-618.78 568,-659 654.9,-678.21 679.03,-666.78 768,-669 843.53,-670.89 864.77,-687.6 938,-669 965.67,-661.97 993.94,-646.03 1014.16,-632.78"/>
<polygon fill="midnightblue" stroke="midnightblue" points="1016.24,-635.6 1022.58,-627.12 1012.33,-629.79 1016.24,-635.6"/>
</g>
<!-- Node4 -->
<g id="node4" class="node">
<title>Node4</title>
<g id="a_node4"><a xlink:href="classnlohmann_1_1detail_1_1binary__reader.html#a5f425199a77f403e32f076ff8487f853" target="_top" xlink:title=" ">
<polygon fill="white" stroke="black" points="203,-385 203,-415 348,-415 348,-385 203,-385"/>
<text text-anchor="start" x="211" y="-403" font-family="Helvetica,sans-Serif" font-size="10.00">nlohmann::detail::binary</text>
<text text-anchor="middle" x="275.5" y="-392" font-family="Helvetica,sans-Serif" font-size="10.00">_reader::get_ubjson_value</text>
</a>
</g>
</g>
<!-- Node1&#45;&gt;Node4 -->
<g id="edge3" class="edge">
<title>Node1&#45;&gt;Node4</title>
<path fill="none" stroke="midnightblue" d="M130.01,-447.91C156.82,-439.02 190.93,-427.71 219.27,-418.31"/>
<polygon fill="midnightblue" stroke="midnightblue" points="220.64,-421.55 229.03,-415.08 218.44,-414.9 220.64,-421.55"/>
</g>
<!-- Node3 -->
<g id="node3" class="node">
<title>Node3</title>
<g id="a_node3"><a xlink:href="classnlohmann_1_1detail_1_1binary__reader.html#af70e7d5f19a2ee196e24f58acf579411" target="_top" xlink:title="get next character from the input">
<polygon fill="white" stroke="black" points="1150,-392 1150,-422 1286,-422 1286,-392 1150,-392"/>
<text text-anchor="start" x="1158" y="-410" font-family="Helvetica,sans-Serif" font-size="10.00">nlohmann::detail::binary</text>
<text text-anchor="middle" x="1218" y="-399" font-family="Helvetica,sans-Serif" font-size="10.00">_reader::get</text>
</a>
</g>
</g>
<!-- Node2&#45;&gt;Node3 -->
<g id="edge2" class="edge">
<title>Node2&#45;&gt;Node3</title>
<path fill="none" stroke="midnightblue" d="M1057.65,-596.93C1087.47,-561.38 1162.32,-472.17 1197.79,-429.89"/>
<polygon fill="midnightblue" stroke="midnightblue" points="1200.59,-432.01 1204.33,-422.1 1195.23,-427.51 1200.59,-432.01"/>
</g>
<!-- Node4&#45;&gt;Node3 -->
<g id="edge12" class="edge">
<title>Node4&#45;&gt;Node3</title>
<path fill="none" stroke="midnightblue" d="M287.36,-415.18C321.9,-462.04 434.85,-604.55 568,-659 650.38,-692.69 679.03,-666.78 768,-669 922.39,-672.86 992.45,-732.27 1114,-637 1180.61,-584.79 1205.36,-480.17 1213.49,-432.14"/>
<polygon fill="midnightblue" stroke="midnightblue" points="1216.98,-432.43 1215.09,-422 1210.07,-431.33 1216.98,-432.43"/>
</g>
<!-- Node5 -->
<g id="node5" class="node">
<title>Node5</title>
<g id="a_node5"><a xlink:href="classnlohmann_1_1detail_1_1parse__error.html#a137ea4d27de45d8a844fd13451d40f3d" target="_top" xlink:title="create a parse error exception">
<polygon fill="white" stroke="black" points="1334.5,-515 1334.5,-545 1466.5,-545 1466.5,-515 1334.5,-515"/>
<text text-anchor="start" x="1342.5" y="-533" font-family="Helvetica,sans-Serif" font-size="10.00">nlohmann::detail::parse</text>
<text text-anchor="middle" x="1400.5" y="-522" font-family="Helvetica,sans-Serif" font-size="10.00">_error::create</text>
</a>
</g>
</g>
<!-- Node4&#45;&gt;Node5 -->
<g id="edge4" class="edge">
<title>Node4&#45;&gt;Node5</title>
<path fill="none" stroke="midnightblue" d="M281.58,-415.11C294.15,-450.72 329.67,-541.21 384,-599 479.04,-700.08 510.26,-764 649,-764 649,-764 649,-764 1045,-764 1196.82,-764 1333.72,-612.66 1381.51,-553.4"/>
<polygon fill="midnightblue" stroke="midnightblue" points="1384.42,-555.36 1387.91,-545.35 1378.94,-551 1384.42,-555.36"/>
</g>
<!-- Node10 -->
<g id="node10" class="node">
<title>Node10</title>
<g id="a_node10"><a xlink:href="classnlohmann_1_1detail_1_1binary__reader.html#a82b86133c98a0565446a44dfd3e418e6" target="_top" xlink:title=" ">
<polygon fill="white" stroke="black" points="1322,-61 1322,-91 1479,-91 1479,-61 1322,-61"/>
<text text-anchor="start" x="1330" y="-79" font-family="Helvetica,sans-Serif" font-size="10.00">nlohmann::detail::binary</text>
<text text-anchor="middle" x="1400.5" y="-68" font-family="Helvetica,sans-Serif" font-size="10.00">_reader::exception_message</text>
</a>
</g>
</g>
<!-- Node4&#45;&gt;Node10 -->
<g id="edge10" class="edge">
<title>Node4&#45;&gt;Node10</title>
<path fill="none" stroke="midnightblue" d="M281.81,-384.81C308.43,-311.74 434.54,0 649,0 649,0 649,0 1045,0 1154.79,0 1279.54,-35.28 1347.89,-57.77"/>
<polygon fill="midnightblue" stroke="midnightblue" points="1346.97,-61.15 1357.56,-60.98 1349.18,-54.5 1346.97,-61.15"/>
</g>
<!-- Node12 -->
<g id="node12" class="node">
<title>Node12</title>
<g id="a_node12"><a xlink:href="classnlohmann_1_1detail_1_1binary__reader.html#a161cda5919ea2436b7999c2a76656aba" target="_top" xlink:title=" ">
<polygon fill="white" stroke="black" points="976,-307 976,-337 1112,-337 1112,-307 976,-307"/>
<text text-anchor="start" x="984" y="-325" font-family="Helvetica,sans-Serif" font-size="10.00">nlohmann::detail::binary</text>
<text text-anchor="middle" x="1044" y="-314" font-family="Helvetica,sans-Serif" font-size="10.00">_reader::get_number</text>
</a>
</g>
</g>
<!-- Node4&#45;&gt;Node12 -->
<g id="edge13" class="edge">
<title>Node4&#45;&gt;Node12</title>
<path fill="none" stroke="midnightblue" d="M294.06,-384.71C314.23,-368.17 349.06,-342.59 384,-331 617.97,-253.36 692.37,-283.1 938,-304 947,-304.77 956.39,-305.89 965.69,-307.22"/>
<polygon fill="midnightblue" stroke="midnightblue" points="965.31,-310.7 975.72,-308.73 966.35,-303.78 965.31,-310.7"/>
</g>
<!-- Node13 -->
<g id="node13" class="node">
<title>Node13</title>
<g id="a_node13"><a xlink:href="classnlohmann_1_1detail_1_1binary__reader.html#a91dd7341d9d74c58866877ddfe58dd03" target="_top" xlink:title=" ">
<polygon fill="white" stroke="black" points="1150,-175 1150,-205 1286,-205 1286,-175 1150,-175"/>
<text text-anchor="start" x="1158" y="-193" font-family="Helvetica,sans-Serif" font-size="10.00">nlohmann::detail::binary</text>
<text text-anchor="middle" x="1218" y="-182" font-family="Helvetica,sans-Serif" font-size="10.00">_reader::unexpect_eof</text>
</a>
</g>
</g>
<!-- Node4&#45;&gt;Node13 -->
<g id="edge52" class="edge">
<title>Node4&#45;&gt;Node13</title>
<path fill="none" stroke="midnightblue" d="M286.77,-384.63C303.94,-360.15 340.87,-312.49 384,-287 614.6,-150.72 706.52,-178.24 974,-164 1036.13,-160.69 1052.25,-156.33 1114,-164 1128.5,-165.8 1143.89,-168.98 1158.23,-172.51"/>
<polygon fill="midnightblue" stroke="midnightblue" points="1157.41,-175.91 1167.96,-174.99 1159.14,-169.13 1157.41,-175.91"/>
</g>
<!-- Node14 -->
<g id="node14" class="node">
<title>Node14</title>
<g id="a_node14"><a xlink:href="classnlohmann_1_1detail_1_1binary__reader.html#acf8d3f7b17efd05655fcb6f47a2eaa79" target="_top" xlink:title=" ">
<polygon fill="white" stroke="black" points="974,-395 974,-425 1114,-425 1114,-395 974,-395"/>
<text text-anchor="start" x="982" y="-413" font-family="Helvetica,sans-Serif" font-size="10.00">nlohmann::detail::binary</text>
<text text-anchor="middle" x="1044" y="-402" font-family="Helvetica,sans-Serif" font-size="10.00">_reader::get_token_string</text>
</a>
</g>
</g>
<!-- Node4&#45;&gt;Node14 -->
<g id="edge18" class="edge">
<title>Node4&#45;&gt;Node14</title>
<path fill="none" stroke="midnightblue" d="M348.16,-393.92C360.12,-393.12 372.4,-392.43 384,-392 593.14,-384.23 839.74,-396.74 963.58,-404.53"/>
<polygon fill="midnightblue" stroke="midnightblue" points="963.52,-408.03 973.72,-405.17 963.97,-401.05 963.52,-408.03"/>
</g>
<!-- Node15 -->
<g id="node15" class="node">
<title>Node15</title>
<g id="a_node15"><a xlink:href="classnlohmann_1_1detail_1_1binary__reader.html#a4e8ef9561d4403ea68e3c2712fd289e2" target="_top" xlink:title=" ">
<polygon fill="white" stroke="black" points="386.5,-450 386.5,-480 529.5,-480 529.5,-450 386.5,-450"/>
<text text-anchor="start" x="394.5" y="-468" font-family="Helvetica,sans-Serif" font-size="10.00">nlohmann::detail::binary</text>
<text text-anchor="middle" x="458" y="-457" font-family="Helvetica,sans-Serif" font-size="10.00">_reader::get_ubjson_array</text>
</a>
</g>
</g>
<!-- Node4&#45;&gt;Node15 -->
<g id="edge19" class="edge">
<title>Node4&#45;&gt;Node15</title>
<path fill="none" stroke="midnightblue" d="M337.43,-415.09C352.59,-420.57 368.85,-426.62 384,-432 397.1,-436.65 411.62,-441.49 424.24,-446.2"/>
<polygon fill="midnightblue" stroke="midnightblue" points="423.3,-449.59 433.89,-449.94 425.83,-443.06 423.3,-449.59"/>
</g>
<!-- Node18 -->
<g id="node18" class="node">
<title>Node18</title>
<g id="a_node18"><a xlink:href="classnlohmann_1_1detail_1_1binary__reader.html#ad0932dd568fcbbd2b4c2ccf9122544a5" target="_top" xlink:title=" ">
<polygon fill="white" stroke="black" points="384,-401 384,-431 532,-431 532,-401 384,-401"/>
<text text-anchor="start" x="392" y="-419" font-family="Helvetica,sans-Serif" font-size="10.00">nlohmann::detail::binary</text>
<text text-anchor="middle" x="458" y="-408" font-family="Helvetica,sans-Serif" font-size="10.00">_reader::get_ubjson_object</text>
</a>
</g>
</g>
<!-- Node4&#45;&gt;Node18 -->
<g id="edge36" class="edge">
<title>Node4&#45;&gt;Node18</title>
<path fill="none" stroke="midnightblue" d="M348.1,-399.73C356.52,-400.35 365.16,-401.08 373.72,-401.89"/>
<polygon fill="midnightblue" stroke="midnightblue" points="373.42,-405.37 383.71,-402.86 374.1,-398.41 373.42,-405.37"/>
</g>
<!-- Node19 -->
<g id="node19" class="node">
<title>Node19</title>
<g id="a_node19"><a xlink:href="classnlohmann_1_1detail_1_1binary__reader.html#a2e01eab458020d18c975e8df55b20eca" target="_top" xlink:title="reads a UBJSON string">
<polygon fill="white" stroke="black" points="780,-313 780,-343 926,-343 926,-313 780,-313"/>
<text text-anchor="start" x="788" y="-331" font-family="Helvetica,sans-Serif" font-size="10.00">nlohmann::detail::binary</text>
<text text-anchor="middle" x="853" y="-320" font-family="Helvetica,sans-Serif" font-size="10.00">_reader::get_ubjson_string</text>
</a>
</g>
</g>
<!-- Node4&#45;&gt;Node19 -->
<g id="edge51" class="edge">
<title>Node4&#45;&gt;Node19</title>
<path fill="none" stroke="midnightblue" d="M307.68,-384.86C328.72,-375.38 357.4,-363.9 384,-358 516.68,-328.58 675.3,-324.77 769.63,-325.68"/>
<polygon fill="midnightblue" stroke="midnightblue" points="769.64,-329.18 779.68,-325.8 769.72,-322.18 769.64,-329.18"/>
</g>
<!-- Node6 -->
<g id="node6" class="node">
<title>Node6</title>
<g id="a_node6"><a xlink:href="classnlohmann_1_1detail_1_1exception.html#abf41a7e9178356314082284e6cfea278" target="_top" xlink:title=" ">
<polygon fill="white" stroke="black" points="1515,-564 1515,-594 1668,-594 1668,-564 1515,-564"/>
<text text-anchor="start" x="1523" y="-582" font-family="Helvetica,sans-Serif" font-size="10.00">nlohmann::detail::exception</text>
<text text-anchor="middle" x="1591.5" y="-571" font-family="Helvetica,sans-Serif" font-size="10.00">::name</text>
</a>
</g>
</g>
<!-- Node5&#45;&gt;Node6 -->
<g id="edge5" class="edge">
<title>Node5&#45;&gt;Node6</title>
<path fill="none" stroke="midnightblue" d="M1459.49,-545.03C1479.54,-550.23 1502.17,-556.1 1522.92,-561.48"/>
<polygon fill="midnightblue" stroke="midnightblue" points="1522.06,-564.87 1532.62,-563.99 1523.82,-558.1 1522.06,-564.87"/>
</g>
<!-- Node8 -->
<g id="node8" class="node">
<title>Node8</title>
<g id="a_node8"><a xlink:href="classnlohmann_1_1detail_1_1parse__error.html#a0ea816ea3521d7109407948cb1b850f7" target="_top" xlink:title=" ">
<polygon fill="white" stroke="black" points="1525.5,-515 1525.5,-545 1657.5,-545 1657.5,-515 1525.5,-515"/>
<text text-anchor="start" x="1533.5" y="-533" font-family="Helvetica,sans-Serif" font-size="10.00">nlohmann::detail::parse</text>
<text text-anchor="middle" x="1591.5" y="-522" font-family="Helvetica,sans-Serif" font-size="10.00">_error::parse_error</text>
</a>
</g>
</g>
<!-- Node5&#45;&gt;Node8 -->
<g id="edge7" class="edge">
<title>Node5&#45;&gt;Node8</title>
<path fill="none" stroke="midnightblue" d="M1466.54,-530C1482.13,-530 1498.91,-530 1514.94,-530"/>
<polygon fill="midnightblue" stroke="midnightblue" points="1515.34,-533.5 1525.34,-530 1515.34,-526.5 1515.34,-533.5"/>
</g>
<!-- Node9 -->
<g id="node9" class="node">
<title>Node9</title>
<g id="a_node9"><a xlink:href="classnlohmann_1_1detail_1_1parse__error.html#aefe74adeaa48781464ba2fd2ec63d221" target="_top" xlink:title=" ">
<polygon fill="white" stroke="black" points="1525.5,-466 1525.5,-496 1657.5,-496 1657.5,-466 1525.5,-466"/>
<text text-anchor="start" x="1533.5" y="-484" font-family="Helvetica,sans-Serif" font-size="10.00">nlohmann::detail::parse</text>
<text text-anchor="middle" x="1591.5" y="-473" font-family="Helvetica,sans-Serif" font-size="10.00">_error::position_string</text>
</a>
</g>
</g>
<!-- Node5&#45;&gt;Node9 -->
<g id="edge8" class="edge">
<title>Node5&#45;&gt;Node9</title>
<path fill="none" stroke="midnightblue" d="M1459.49,-514.97C1479.54,-509.77 1502.17,-503.9 1522.92,-498.52"/>
<polygon fill="midnightblue" stroke="midnightblue" points="1523.82,-501.9 1532.62,-496.01 1522.06,-495.13 1523.82,-501.9"/>
</g>
<!-- Node7 -->
<g id="node7" class="node">
<title>Node7</title>
<g id="a_node7"><a xlink:href="namespacehttplib.html#a498c3a79825ecbcb15c52ec5fcfd5c11" target="_top" xlink:title=" ">
<polygon fill="white" stroke="black" points="1704,-520.5 1704,-539.5 1801,-539.5 1801,-520.5 1704,-520.5"/>
<text text-anchor="middle" x="1752.5" y="-527.5" font-family="Helvetica,sans-Serif" font-size="10.00">httplib::to_string</text>
</a>
</g>
</g>
<!-- Node6&#45;&gt;Node7 -->
<g id="edge6" class="edge">
<title>Node6&#45;&gt;Node7</title>
<path fill="none" stroke="midnightblue" d="M1641.5,-563.9C1663.72,-557.05 1689.67,-549.05 1710.79,-542.54"/>
<polygon fill="midnightblue" stroke="midnightblue" points="1711.9,-545.87 1720.43,-539.58 1709.84,-539.18 1711.9,-545.87"/>
</g>
<!-- Node9&#45;&gt;Node7 -->
<g id="edge9" class="edge">
<title>Node9&#45;&gt;Node7</title>
<path fill="none" stroke="midnightblue" d="M1641.5,-496.1C1663.72,-502.95 1689.67,-510.95 1710.79,-517.46"/>
<polygon fill="midnightblue" stroke="midnightblue" points="1709.84,-520.82 1720.43,-520.42 1711.9,-514.13 1709.84,-520.82"/>
</g>
<!-- Node11 -->
<g id="node11" class="node">
<title>Node11</title>
<g id="a_node11"><a xlink:href="FuzzerTracePC_8cpp.html#a1f10ac78bd11294b612636121065eb5b" target="_top" xlink:title=" ">
<polygon fill="white" stroke="black" points="1568,-66.5 1568,-85.5 1615,-85.5 1615,-66.5 1568,-66.5"/>
<text text-anchor="middle" x="1591.5" y="-73.5" font-family="Helvetica,sans-Serif" font-size="10.00">assert</text>
</a>
</g>
</g>
<!-- Node10&#45;&gt;Node11 -->
<g id="edge11" class="edge">
<title>Node10&#45;&gt;Node11</title>
<path fill="none" stroke="midnightblue" d="M1479.19,-76C1506.54,-76 1535.83,-76 1557.5,-76"/>
<polygon fill="midnightblue" stroke="midnightblue" points="1557.78,-79.5 1567.78,-76 1557.78,-72.5 1557.78,-79.5"/>
</g>
<!-- Node12&#45;&gt;Node3 -->
<g id="edge14" class="edge">
<title>Node12&#45;&gt;Node3</title>
<path fill="none" stroke="midnightblue" d="M1081.06,-337.03C1091.75,-341.66 1103.42,-346.88 1114,-352 1136.69,-362.97 1161.63,-376.25 1181.29,-387.02"/>
<polygon fill="midnightblue" stroke="midnightblue" points="1179.75,-390.17 1190.2,-391.92 1183.13,-384.04 1179.75,-390.17"/>
</g>
<!-- Node12&#45;&gt;Node13 -->
<g id="edge15" class="edge">
<title>Node12&#45;&gt;Node13</title>
<path fill="none" stroke="midnightblue" d="M1064.73,-306.86C1095.24,-283.45 1153.97,-238.38 1188.9,-211.57"/>
<polygon fill="midnightblue" stroke="midnightblue" points="1191.43,-214.03 1197.24,-205.17 1187.17,-208.48 1191.43,-214.03"/>
</g>
<!-- Node13&#45;&gt;Node5 -->
<g id="edge16" class="edge">
<title>Node13&#45;&gt;Node5</title>
<path fill="none" stroke="midnightblue" d="M1235.58,-205.18C1250.29,-219.31 1271.61,-241.52 1286,-264 1338.47,-345.94 1376.54,-456.24 1391.94,-505.02"/>
<polygon fill="midnightblue" stroke="midnightblue" points="1388.65,-506.22 1394.97,-514.73 1395.33,-504.14 1388.65,-506.22"/>
</g>
<!-- Node13&#45;&gt;Node10 -->
<g id="edge17" class="edge">
<title>Node13&#45;&gt;Node10</title>
<path fill="none" stroke="midnightblue" d="M1242.97,-174.86C1274.88,-154.71 1331.44,-118.98 1367.13,-96.45"/>
<polygon fill="midnightblue" stroke="midnightblue" points="1369.13,-99.32 1375.72,-91.02 1365.4,-93.4 1369.13,-99.32"/>
</g>
<!-- Node15&#45;&gt;Node1 -->
<g id="edge35" class="edge">
<title>Node15&#45;&gt;Node1</title>
<path fill="none" stroke="midnightblue" d="M386.46,-464.62C327.23,-464.3 242.15,-463.85 177.38,-463.5"/>
<polygon fill="midnightblue" stroke="midnightblue" points="177.19,-460 167.17,-463.44 177.15,-467 177.19,-460"/>
</g>
<!-- Node15&#45;&gt;Node2 -->
<g id="edge20" class="edge">
<title>Node15&#45;&gt;Node2</title>
<path fill="none" stroke="midnightblue" d="M463.8,-480.2C475.38,-513.89 508.37,-594.36 568,-626 704.76,-698.57 896.27,-657.22 988.76,-629.97"/>
<polygon fill="midnightblue" stroke="midnightblue" points="989.9,-633.29 998.47,-627.06 987.89,-626.58 989.9,-633.29"/>
</g>
<!-- Node15&#45;&gt;Node4 -->
<g id="edge34" class="edge">
<title>Node15&#45;&gt;Node4</title>
<path fill="none" stroke="midnightblue" d="M386.28,-450.8C385.51,-450.54 384.75,-450.27 384,-450 357.72,-440.67 328.13,-429.32 306.66,-419.47"/>
<polygon fill="midnightblue" stroke="midnightblue" points="307.94,-416.21 297.4,-415.07 304.93,-422.53 307.94,-416.21"/>
</g>
<!-- Node16 -->
<g id="node16" class="node">
<title>Node16</title>
<g id="a_node16"><a xlink:href="classnlohmann_1_1detail_1_1binary__reader.html#a4eae4604064b5dfe6d04e42ffc9e0753" target="_top" xlink:title="determine the type and size for a container">
<polygon fill="white" stroke="black" points="568,-439 568,-469 732,-469 732,-439 568,-439"/>
<text text-anchor="start" x="576" y="-457" font-family="Helvetica,sans-Serif" font-size="10.00">nlohmann::detail::binary</text>
<text text-anchor="middle" x="650" y="-446" font-family="Helvetica,sans-Serif" font-size="10.00">_reader::get_ubjson_size_type</text>
</a>
</g>
</g>
<!-- Node15&#45;&gt;Node16 -->
<g id="edge21" class="edge">
<title>Node15&#45;&gt;Node16</title>
<path fill="none" stroke="midnightblue" d="M529.75,-460.9C538.89,-460.37 548.36,-459.83 557.77,-459.28"/>
<polygon fill="midnightblue" stroke="midnightblue" points="558.17,-462.76 567.95,-458.69 557.76,-455.78 558.17,-462.76"/>
</g>
<!-- Node16&#45;&gt;Node2 -->
<g id="edge25" class="edge">
<title>Node16&#45;&gt;Node2</title>
<path fill="none" stroke="midnightblue" d="M664.92,-469.23C685.38,-490.65 725.74,-529.35 768,-550 802,-566.61 895.28,-585.78 963.8,-598.35"/>
<polygon fill="midnightblue" stroke="midnightblue" points="963.26,-601.81 973.72,-600.16 964.51,-594.92 963.26,-601.81"/>
</g>
<!-- Node16&#45;&gt;Node3 -->
<g id="edge24" class="edge">
<title>Node16&#45;&gt;Node3</title>
<path fill="none" stroke="midnightblue" d="M732.24,-456.15C825.12,-457.34 981.42,-455.47 1114,-435 1129.4,-432.62 1145.79,-428.79 1160.87,-424.71"/>
<polygon fill="midnightblue" stroke="midnightblue" points="1161.87,-428.06 1170.56,-422 1159.99,-421.32 1161.87,-428.06"/>
</g>
<!-- Node16&#45;&gt;Node5 -->
<g id="edge22" class="edge">
<title>Node16&#45;&gt;Node5</title>
<path fill="none" stroke="midnightblue" d="M721.09,-469.18C724.88,-470.91 728.55,-472.85 732,-475 752.86,-488.02 745.93,-506.18 768,-517 863.73,-563.94 1178.4,-547.07 1324.16,-536.25"/>
<polygon fill="midnightblue" stroke="midnightblue" points="1324.65,-539.72 1334.36,-535.48 1324.12,-532.74 1324.65,-539.72"/>
</g>
<!-- Node16&#45;&gt;Node10 -->
<g id="edge23" class="edge">
<title>Node16&#45;&gt;Node10</title>
<path fill="none" stroke="midnightblue" d="M653.31,-438.84C660.96,-393.73 689.61,-259.01 768,-186 917.21,-47.03 1176.33,-50.64 1311.59,-63.92"/>
<polygon fill="midnightblue" stroke="midnightblue" points="1311.6,-67.44 1321.91,-64.98 1312.32,-60.48 1311.6,-67.44"/>
</g>
<!-- Node16&#45;&gt;Node13 -->
<g id="edge33" class="edge">
<title>Node16&#45;&gt;Node13</title>
<path fill="none" stroke="midnightblue" d="M660.12,-438.91C678.06,-410.1 720.37,-346.36 768,-304 848.02,-232.83 870.86,-207.84 974,-179 1028.01,-163.89 1091.38,-167.42 1139.86,-174.31"/>
<polygon fill="midnightblue" stroke="midnightblue" points="1139.56,-177.81 1149.97,-175.83 1140.6,-170.89 1139.56,-177.81"/>
</g>
<!-- Node16&#45;&gt;Node14 -->
<g id="edge26" class="edge">
<title>Node16&#45;&gt;Node14</title>
<path fill="none" stroke="midnightblue" d="M732.06,-439.25C744.09,-437.33 756.35,-435.5 768,-434 833.78,-425.52 908.8,-419.2 963.85,-415.17"/>
<polygon fill="midnightblue" stroke="midnightblue" points="964.17,-418.66 973.89,-414.45 963.67,-411.68 964.17,-418.66"/>
</g>
<!-- Node17 -->
<g id="node17" class="node">
<title>Node17</title>
<g id="a_node17"><a xlink:href="classnlohmann_1_1detail_1_1binary__reader.html#a435be58e83c8491556d8f1a1b3439155" target="_top" xlink:title=" ">
<polygon fill="white" stroke="black" points="768,-477 768,-507 938,-507 938,-477 768,-477"/>
<text text-anchor="start" x="776" y="-495" font-family="Helvetica,sans-Serif" font-size="10.00">nlohmann::detail::binary</text>
<text text-anchor="middle" x="853" y="-484" font-family="Helvetica,sans-Serif" font-size="10.00">_reader::get_ubjson_size_value</text>
</a>
</g>
</g>
<!-- Node16&#45;&gt;Node17 -->
<g id="edge27" class="edge">
<title>Node16&#45;&gt;Node17</title>
<path fill="none" stroke="midnightblue" d="M730.44,-469.02C740.92,-471 751.72,-473.04 762.35,-475.05"/>
<polygon fill="midnightblue" stroke="midnightblue" points="762,-478.55 772.48,-476.97 763.3,-471.67 762,-478.55"/>
</g>
<!-- Node17&#45;&gt;Node2 -->
<g id="edge30" class="edge">
<title>Node17&#45;&gt;Node2</title>
<path fill="none" stroke="midnightblue" d="M877.94,-507.2C911.59,-528.57 972.99,-567.55 1010.68,-591.48"/>
<polygon fill="midnightblue" stroke="midnightblue" points="1008.94,-594.52 1019.26,-596.93 1012.69,-588.61 1008.94,-594.52"/>
</g>
<!-- Node17&#45;&gt;Node5 -->
<g id="edge28" class="edge">
<title>Node17&#45;&gt;Node5</title>
<path fill="none" stroke="midnightblue" d="M938.18,-502.47C950.19,-503.77 962.4,-505 974,-506 1096.37,-516.58 1238.95,-523.53 1324.08,-527.11"/>
<polygon fill="midnightblue" stroke="midnightblue" points="1324.04,-530.61 1334.17,-527.53 1324.33,-523.62 1324.04,-530.61"/>
</g>
<!-- Node17&#45;&gt;Node10 -->
<g id="edge29" class="edge">
<title>Node17&#45;&gt;Node10</title>
<path fill="none" stroke="midnightblue" d="M938.33,-490.7C1048.92,-487.27 1234.91,-475.07 1286,-432 1388.21,-345.84 1399.41,-167.7 1399.9,-101.5"/>
<polygon fill="midnightblue" stroke="midnightblue" points="1403.4,-101.18 1399.89,-91.18 1396.4,-101.18 1403.4,-101.18"/>
</g>
<!-- Node17&#45;&gt;Node12 -->
<g id="edge31" class="edge">
<title>Node17&#45;&gt;Node12</title>
<path fill="none" stroke="midnightblue" d="M870.77,-476.91C904.26,-446.8 979.52,-379.1 1018.52,-344.02"/>
<polygon fill="midnightblue" stroke="midnightblue" points="1021.17,-346.34 1026.27,-337.05 1016.49,-341.14 1021.17,-346.34"/>
</g>
<!-- Node17&#45;&gt;Node14 -->
<g id="edge32" class="edge">
<title>Node17&#45;&gt;Node14</title>
<path fill="none" stroke="midnightblue" d="M888.67,-476.96C919.61,-463.54 965.09,-443.8 998.66,-429.24"/>
<polygon fill="midnightblue" stroke="midnightblue" points="1000.45,-432.27 1008.23,-425.08 997.67,-425.85 1000.45,-432.27"/>
</g>
<!-- Node18&#45;&gt;Node1 -->
<g id="edge50" class="edge">
<title>Node18&#45;&gt;Node1</title>
<path fill="none" stroke="midnightblue" d="M383.7,-425.25C324.56,-432.71 241.02,-443.25 177.23,-451.3"/>
<polygon fill="midnightblue" stroke="midnightblue" points="176.65,-447.84 167.17,-452.57 177.53,-454.79 176.65,-447.84"/>
</g>
<!-- Node18&#45;&gt;Node2 -->
<g id="edge37" class="edge">
<title>Node18&#45;&gt;Node2</title>
<path fill="none" stroke="midnightblue" d="M513.02,-431.15C519.65,-433.97 526.14,-437.23 532,-441 551.57,-453.58 549.48,-464.92 568,-479 648.09,-539.87 671.67,-555.98 768,-585 832,-604.28 907.79,-610.57 963.58,-612.3"/>
<polygon fill="midnightblue" stroke="midnightblue" points="963.67,-615.8 973.76,-612.57 963.86,-608.81 963.67,-615.8"/>
</g>
<!-- Node18&#45;&gt;Node4 -->
<g id="edge49" class="edge">
<title>Node18&#45;&gt;Node4</title>
<path fill="none" stroke="midnightblue" d="M383.71,-416.15C375.27,-415.51 366.61,-414.77 358.07,-413.95"/>
<polygon fill="midnightblue" stroke="midnightblue" points="358.39,-410.47 348.1,-412.97 357.7,-417.43 358.39,-410.47"/>
</g>
<!-- Node18&#45;&gt;Node16 -->
<g id="edge38" class="edge">
<title>Node18&#45;&gt;Node16</title>
<path fill="none" stroke="midnightblue" d="M532.19,-430.64C542.57,-432.71 553.31,-434.86 563.89,-436.98"/>
<polygon fill="midnightblue" stroke="midnightblue" points="563.47,-440.46 573.97,-438.99 564.85,-433.6 563.47,-440.46"/>
</g>
<!-- Node18&#45;&gt;Node19 -->
<g id="edge39" class="edge">
<title>Node18&#45;&gt;Node19</title>
<path fill="none" stroke="midnightblue" d="M526.11,-400.97C595.1,-385.52 702.4,-361.5 774.85,-345.27"/>
<polygon fill="midnightblue" stroke="midnightblue" points="775.84,-348.64 784.84,-343.04 774.31,-341.81 775.84,-348.64"/>
</g>
<!-- Node19&#45;&gt;Node3 -->
<g id="edge42" class="edge">
<title>Node19&#45;&gt;Node3</title>
<path fill="none" stroke="midnightblue" d="M923.13,-343.05C985.03,-356.52 1075.67,-376.24 1139.89,-390.22"/>
<polygon fill="midnightblue" stroke="midnightblue" points="1139.45,-393.7 1149.97,-392.41 1140.94,-386.86 1139.45,-393.7"/>
</g>
<!-- Node19&#45;&gt;Node5 -->
<g id="edge40" class="edge">
<title>Node19&#45;&gt;Node5</title>
<path fill="none" stroke="midnightblue" d="M901.05,-312.99C953.56,-298.44 1040.77,-280.89 1114,-298 1197.03,-317.4 1220.03,-328.98 1286,-383 1329.63,-418.73 1366.62,-474.26 1385.68,-505.85"/>
<polygon fill="midnightblue" stroke="midnightblue" points="1382.9,-508.02 1391.01,-514.84 1388.92,-504.45 1382.9,-508.02"/>
</g>
<!-- Node19&#45;&gt;Node10 -->
<g id="edge41" class="edge">
<title>Node19&#45;&gt;Node10</title>
<path fill="none" stroke="midnightblue" d="M861.88,-312.56C878.31,-281.98 919.3,-213.69 974,-179 1078.09,-112.99 1221.06,-89.28 1311.87,-80.76"/>
<polygon fill="midnightblue" stroke="midnightblue" points="1312.21,-84.25 1321.86,-79.87 1311.59,-77.28 1312.21,-84.25"/>
</g>
<!-- Node19&#45;&gt;Node12 -->
<g id="edge43" class="edge">
<title>Node19&#45;&gt;Node12</title>
<path fill="none" stroke="midnightblue" d="M926.26,-325.71C939.09,-325.3 952.5,-324.87 965.46,-324.46"/>
<polygon fill="midnightblue" stroke="midnightblue" points="965.86,-327.95 975.75,-324.13 965.64,-320.95 965.86,-327.95"/>
</g>
<!-- Node19&#45;&gt;Node13 -->
<g id="edge48" class="edge">
<title>Node19&#45;&gt;Node13</title>
<path fill="none" stroke="midnightblue" d="M864.04,-312.71C882.31,-286.36 923.79,-233 974,-210 1025.85,-186.25 1090.42,-181.96 1139.97,-183.22"/>
<polygon fill="midnightblue" stroke="midnightblue" points="1139.87,-186.72 1149.98,-183.56 1140.11,-179.72 1139.87,-186.72"/>
</g>
<!-- Node19&#45;&gt;Node14 -->
<g id="edge47" class="edge">
<title>Node19&#45;&gt;Node14</title>
<path fill="none" stroke="midnightblue" d="M901.79,-343.15C913.81,-347.48 926.54,-352.52 938,-358 954.92,-366.08 957.36,-371.35 974,-380 981.17,-383.73 988.9,-387.4 996.51,-390.84"/>
<polygon fill="midnightblue" stroke="midnightblue" points="995.11,-394.05 1005.67,-394.89 997.94,-387.65 995.11,-394.05"/>
</g>
<!-- Node20 -->
<g id="node20" class="node">
<title>Node20</title>
<g id="a_node20"><a xlink:href="classnlohmann_1_1detail_1_1binary__reader.html#a1f4b5da029a561c8711426b0a7316ec6" target="_top" xlink:title="create a string by reading characters from the input">
<polygon fill="white" stroke="black" points="976,-219 976,-249 1112,-249 1112,-219 976,-219"/>
<text text-anchor="start" x="984" y="-237" font-family="Helvetica,sans-Serif" font-size="10.00">nlohmann::detail::binary</text>
<text text-anchor="middle" x="1044" y="-226" font-family="Helvetica,sans-Serif" font-size="10.00">_reader::get_string</text>
</a>
</g>
</g>
<!-- Node19&#45;&gt;Node20 -->
<g id="edge44" class="edge">
<title>Node19&#45;&gt;Node20</title>
<path fill="none" stroke="midnightblue" d="M880.85,-312.89C904.96,-299.51 941.47,-279.71 974,-264 981.61,-260.32 989.78,-256.59 997.74,-253.06"/>
<polygon fill="midnightblue" stroke="midnightblue" points="999.18,-256.25 1006.94,-249.03 996.38,-249.84 999.18,-256.25"/>
</g>
<!-- Node20&#45;&gt;Node3 -->
<g id="edge45" class="edge">
<title>Node20&#45;&gt;Node3</title>
<path fill="none" stroke="midnightblue" d="M1062.02,-249.22C1076.17,-262 1096.71,-280.87 1114,-298 1143.32,-327.05 1175.83,-361.92 1196.33,-384.26"/>
<polygon fill="midnightblue" stroke="midnightblue" points="1193.98,-386.88 1203.31,-391.89 1199.14,-382.15 1193.98,-386.88"/>
</g>
<!-- Node20&#45;&gt;Node13 -->
<g id="edge46" class="edge">
<title>Node20&#45;&gt;Node13</title>
<path fill="none" stroke="midnightblue" d="M1103.71,-218.98C1118.02,-215.32 1133.46,-211.37 1148.19,-207.6"/>
<polygon fill="midnightblue" stroke="midnightblue" points="1149.44,-210.9 1158.26,-205.03 1147.71,-204.11 1149.44,-210.9"/>
</g>
</g>
</svg>
