<?xml version="1.0" encoding="UTF-8" standalone="no"?>
<!DOCTYPE svg PUBLIC "-//W3C//DTD SVG 1.1//EN"
 "http://www.w3.org/Graphics/SVG/1.1/DTD/svg11.dtd">
<!-- Generated by graphviz version 2.43.0 (0)
 -->
<!-- Title: DatabaseHandler::ModifyValue Pages: 1 -->
<svg width="398pt" height="431pt"
 viewBox="0.00 0.00 398.00 431.00" xmlns="http://www.w3.org/2000/svg" xmlns:xlink="http://www.w3.org/1999/xlink">
<g id="graph0" class="graph" transform="scale(1 1) rotate(0) translate(4 427)">
<title>DatabaseHandler::ModifyValue</title>
<polygon fill="white" stroke="transparent" points="-4,4 -4,-427 394,-427 394,4 -4,4"/>
<!-- Node1 -->
<g id="node1" class="node">
<title>Node1</title>
<g id="a_node1"><a xlink:title="Modify the value of the key in the database.">
<polygon fill="#bfbfbf" stroke="black" points="221,-202 221,-221 390,-221 390,-202 221,-202"/>
<text text-anchor="middle" x="305.5" y="-209" font-family="Helvetica,sans-Serif" font-size="10.00">DatabaseHandler::ModifyValue</text>
</a>
</g>
</g>
<!-- Node2 -->
<g id="node2" class="node">
<title>Node2</title>
<g id="a_node2"><a xlink:href="classK3sStarvePodCommand.html#ad242d88f0dadbefeb58499c4e62e15fb" target="_top" xlink:title=" ">
<polygon fill="white" stroke="black" points="25.5,-392.5 25.5,-422.5 159.5,-422.5 159.5,-392.5 25.5,-392.5"/>
<text text-anchor="start" x="33.5" y="-410.5" font-family="Helvetica,sans-Serif" font-size="10.00">K3sStarvePodCommand</text>
<text text-anchor="middle" x="92.5" y="-399.5" font-family="Helvetica,sans-Serif" font-size="10.00">::Execute</text>
</a>
</g>
</g>
<!-- Node1&#45;&gt;Node2 -->
<g id="edge1" class="edge">
<title>Node1&#45;&gt;Node2</title>
<path fill="none" stroke="midnightblue" d="M296.79,-230.34C281.21,-265.99 242.5,-343.3 185,-383.5 177.33,-388.86 168.54,-393.03 159.5,-396.26"/>
<polygon fill="midnightblue" stroke="midnightblue" points="300.04,-231.66 300.72,-221.08 293.59,-228.92 300.04,-231.66"/>
</g>
<!-- Node3 -->
<g id="node3" class="node">
<title>Node3</title>
<g id="a_node3"><a xlink:href="classK3sGetPodNameCommand.html#addffe8af003cac9429a153a707fd4f4b" target="_top" xlink:title=" ">
<polygon fill="white" stroke="black" points="18,-343.5 18,-373.5 167,-373.5 167,-343.5 18,-343.5"/>
<text text-anchor="start" x="26" y="-361.5" font-family="Helvetica,sans-Serif" font-size="10.00">K3sGetPodNameCommand</text>
<text text-anchor="middle" x="92.5" y="-350.5" font-family="Helvetica,sans-Serif" font-size="10.00">::Execute</text>
</a>
</g>
</g>
<!-- Node1&#45;&gt;Node3 -->
<g id="edge2" class="edge">
<title>Node1&#45;&gt;Node3</title>
<path fill="none" stroke="midnightblue" d="M292.17,-229.38C272.63,-256.33 231.9,-307.13 185,-334.5 179.18,-337.89 172.88,-340.82 166.4,-343.33"/>
<polygon fill="midnightblue" stroke="midnightblue" points="295.03,-231.4 297.97,-221.22 289.32,-227.34 295.03,-231.4"/>
</g>
<!-- Node4 -->
<g id="node4" class="node">
<title>Node4</title>
<g id="a_node4"><a xlink:href="classBluechiGetUnitNameCommand.html#a673eb8369bef6a89f5c5249826d38b85" target="_top" xlink:title=" ">
<polygon fill="white" stroke="black" points="7.5,-294.5 7.5,-324.5 177.5,-324.5 177.5,-294.5 7.5,-294.5"/>
<text text-anchor="start" x="15.5" y="-312.5" font-family="Helvetica,sans-Serif" font-size="10.00">BluechiGetUnitNameCommand</text>
<text text-anchor="middle" x="92.5" y="-301.5" font-family="Helvetica,sans-Serif" font-size="10.00">::Execute</text>
</a>
</g>
</g>
<!-- Node1&#45;&gt;Node4 -->
<g id="edge3" class="edge">
<title>Node1&#45;&gt;Node4</title>
<path fill="none" stroke="midnightblue" d="M283.63,-227.12C260.57,-243.72 221.82,-269.69 185,-285.5 177.15,-288.87 168.72,-291.86 160.26,-294.49"/>
<polygon fill="midnightblue" stroke="midnightblue" points="285.92,-229.78 291.94,-221.06 281.8,-224.13 285.92,-229.78"/>
</g>
<!-- Node5 -->
<g id="node5" class="node">
<title>Node5</title>
<g id="a_node5"><a xlink:href="classPodmanGetPodNameCommand.html#a616249e0ccfa973a7bf29881f686de15" target="_top" xlink:title=" ">
<polygon fill="white" stroke="black" points="7,-245.5 7,-275.5 178,-275.5 178,-245.5 7,-245.5"/>
<text text-anchor="start" x="15" y="-263.5" font-family="Helvetica,sans-Serif" font-size="10.00">PodmanGetPodNameCommand</text>
<text text-anchor="middle" x="92.5" y="-252.5" font-family="Helvetica,sans-Serif" font-size="10.00">::Execute</text>
</a>
</g>
</g>
<!-- Node1&#45;&gt;Node5 -->
<g id="edge4" class="edge">
<title>Node1&#45;&gt;Node5</title>
<path fill="none" stroke="midnightblue" d="M253.77,-223.28C225.14,-229.93 189.07,-238.31 158.4,-245.43"/>
<polygon fill="midnightblue" stroke="midnightblue" points="254.62,-226.68 263.57,-221.01 253.03,-219.86 254.62,-226.68"/>
</g>
<!-- Node6 -->
<g id="node6" class="node">
<title>Node6</title>
<g id="a_node6"><a xlink:href="classPodmanDeletePodCommand.html#a4805ee3aaf4803181b34a59dc30f0b33" target="_top" xlink:title=" ">
<polygon fill="white" stroke="black" points="14,-196.5 14,-226.5 171,-226.5 171,-196.5 14,-196.5"/>
<text text-anchor="start" x="22" y="-214.5" font-family="Helvetica,sans-Serif" font-size="10.00">PodmanDeletePodCommand</text>
<text text-anchor="middle" x="92.5" y="-203.5" font-family="Helvetica,sans-Serif" font-size="10.00">::Execute</text>
</a>
</g>
</g>
<!-- Node1&#45;&gt;Node6 -->
<g id="edge5" class="edge">
<title>Node1&#45;&gt;Node6</title>
<path fill="none" stroke="midnightblue" d="M210.77,-211.5C197.57,-211.5 184.12,-211.5 171.26,-211.5"/>
<polygon fill="midnightblue" stroke="midnightblue" points="210.8,-215 220.8,-211.5 210.8,-208 210.8,-215"/>
</g>
<!-- Node7 -->
<g id="node7" class="node">
<title>Node7</title>
<g id="a_node7"><a xlink:href="classK3sDeletePodCommand.html#a659041e91526e69e7e57ce4b998a8797" target="_top" xlink:title=" ">
<polygon fill="white" stroke="black" points="25,-147.5 25,-177.5 160,-177.5 160,-147.5 25,-147.5"/>
<text text-anchor="start" x="33" y="-165.5" font-family="Helvetica,sans-Serif" font-size="10.00">K3sDeletePodCommand</text>
<text text-anchor="middle" x="92.5" y="-154.5" font-family="Helvetica,sans-Serif" font-size="10.00">::Execute</text>
</a>
</g>
</g>
<!-- Node1&#45;&gt;Node7 -->
<g id="edge6" class="edge">
<title>Node1&#45;&gt;Node7</title>
<path fill="none" stroke="midnightblue" d="M253.77,-199.72C225.14,-193.07 189.07,-184.69 158.4,-177.57"/>
<polygon fill="midnightblue" stroke="midnightblue" points="253.03,-203.14 263.57,-201.99 254.62,-196.32 253.03,-203.14"/>
</g>
<!-- Node8 -->
<g id="node8" class="node">
<title>Node8</title>
<g id="a_node8"><a xlink:href="classPodmanCheckPodStatusCommand.html#a9069a536ac762e2fbd0510b6a2c99a5d" target="_top" xlink:title=" ">
<polygon fill="white" stroke="black" points="0,-98.5 0,-128.5 185,-128.5 185,-98.5 0,-98.5"/>
<text text-anchor="start" x="8" y="-116.5" font-family="Helvetica,sans-Serif" font-size="10.00">PodmanCheckPodStatusCommand</text>
<text text-anchor="middle" x="92.5" y="-105.5" font-family="Helvetica,sans-Serif" font-size="10.00">::Execute</text>
</a>
</g>
</g>
<!-- Node1&#45;&gt;Node8 -->
<g id="edge7" class="edge">
<title>Node1&#45;&gt;Node8</title>
<path fill="none" stroke="midnightblue" d="M283.19,-195.91C260.03,-179.61 221.45,-154.24 185,-138.5 176.38,-134.78 167.07,-131.48 157.79,-128.59"/>
<polygon fill="midnightblue" stroke="midnightblue" points="281.38,-198.92 291.55,-201.88 285.45,-193.22 281.38,-198.92"/>
</g>
<!-- Node9 -->
<g id="node9" class="node">
<title>Node9</title>
<g id="a_node9"><a xlink:href="classK3sCheckPodStatusCommand.html#a9ea00927450266789aac23d175222cc5" target="_top" xlink:title=" ">
<polygon fill="white" stroke="black" points="10.5,-49.5 10.5,-79.5 174.5,-79.5 174.5,-49.5 10.5,-49.5"/>
<text text-anchor="start" x="18.5" y="-67.5" font-family="Helvetica,sans-Serif" font-size="10.00">K3sCheckPodStatusCommand</text>
<text text-anchor="middle" x="92.5" y="-56.5" font-family="Helvetica,sans-Serif" font-size="10.00">::Execute</text>
</a>
</g>
</g>
<!-- Node1&#45;&gt;Node9 -->
<g id="edge8" class="edge">
<title>Node1&#45;&gt;Node9</title>
<path fill="none" stroke="midnightblue" d="M291.85,-193.48C272.11,-166.74 231.42,-116.77 185,-89.5 178.47,-85.66 171.33,-82.4 164.01,-79.62"/>
<polygon fill="midnightblue" stroke="midnightblue" points="289.23,-195.84 297.93,-201.9 294.91,-191.74 289.23,-195.84"/>
</g>
<!-- Node10 -->
<g id="node10" class="node">
<title>Node10</title>
<g id="a_node10"><a xlink:href="classBluechiCheckUnitStatusCommand.html#a694d815f6355ea57d8afb742804b0e71" target="_top" xlink:title=" ">
<polygon fill="white" stroke="black" points="0.5,-0.5 0.5,-30.5 184.5,-30.5 184.5,-0.5 0.5,-0.5"/>
<text text-anchor="start" x="8.5" y="-18.5" font-family="Helvetica,sans-Serif" font-size="10.00">BluechiCheckUnitStatusCommand</text>
<text text-anchor="middle" x="92.5" y="-7.5" font-family="Helvetica,sans-Serif" font-size="10.00">::Execute</text>
</a>
</g>
</g>
<!-- Node1&#45;&gt;Node10 -->
<g id="edge9" class="edge">
<title>Node1&#45;&gt;Node10</title>
<path fill="none" stroke="midnightblue" d="M296.5,-192.31C280.66,-156.75 241.86,-80.56 185,-40.5 179.48,-36.61 173.38,-33.33 167.03,-30.55"/>
<polygon fill="midnightblue" stroke="midnightblue" points="293.33,-193.8 300.51,-201.59 299.75,-191.02 293.33,-193.8"/>
</g>
</g>
</svg>
