<?xml version="1.0" encoding="UTF-8" standalone="no"?>
<!DOCTYPE svg PUBLIC "-//W3C//DTD SVG 1.1//EN"
 "http://www.w3.org/Graphics/SVG/1.1/DTD/svg11.dtd">
<!-- Generated by graphviz version 2.43.0 (0)
 -->
<!-- Title: httplib::Client::host Pages: 1 -->
<svg width="271pt" height="78pt"
 viewBox="0.00 0.00 271.00 77.50" xmlns="http://www.w3.org/2000/svg" xmlns:xlink="http://www.w3.org/1999/xlink">
<g id="graph0" class="graph" transform="scale(1 1) rotate(0) translate(4 73.5)">
<title>httplib::Client::host</title>
<polygon fill="white" stroke="transparent" points="-4,4 -4,-73.5 267,-73.5 267,4 -4,4"/>
<!-- Node1 -->
<g id="node1" class="node">
<title>Node1</title>
<g id="a_node1"><a xlink:title=" ">
<polygon fill="#bfbfbf" stroke="black" points="153,-28 153,-47 263,-47 263,-28 153,-28"/>
<text text-anchor="middle" x="208" y="-35" font-family="Helvetica,sans-Serif" font-size="10.00">httplib::Client::host</text>
</a>
</g>
</g>
<!-- Node2 -->
<g id="node2" class="node">
<title>Node2</title>
<g id="a_node2"><a xlink:href="classhttplib_1_1Client.html#a329dc1cb6a0b1d442f4f00acfe77be79" target="_top" xlink:title=" ">
<polygon fill="white" stroke="black" points="0,-50 0,-69 117,-69 117,-50 0,-50"/>
<text text-anchor="middle" x="58.5" y="-57" font-family="Helvetica,sans-Serif" font-size="10.00">httplib::Client::Client</text>
</a>
</g>
</g>
<!-- Node1&#45;&gt;Node2 -->
<g id="edge1" class="edge">
<title>Node1&#45;&gt;Node2</title>
<path fill="none" stroke="midnightblue" d="M142.92,-47.06C134.32,-48.34 125.53,-49.65 117.05,-50.92"/>
<polygon fill="midnightblue" stroke="midnightblue" points="143.54,-50.5 152.91,-45.57 142.51,-43.58 143.54,-50.5"/>
</g>
<!-- Node3 -->
<g id="node3" class="node">
<title>Node3</title>
<g id="a_node3"><a xlink:href="classhttplib_1_1Client.html#a9dfa211adfb14da0627d7d9e0dd0799b" target="_top" xlink:title=" ">
<polygon fill="white" stroke="black" points="6.5,-0.5 6.5,-30.5 110.5,-30.5 110.5,-0.5 6.5,-0.5"/>
<text text-anchor="start" x="14.5" y="-18.5" font-family="Helvetica,sans-Serif" font-size="10.00">httplib::Client::set</text>
<text text-anchor="middle" x="58.5" y="-7.5" font-family="Helvetica,sans-Serif" font-size="10.00">_proxy</text>
</a>
</g>
</g>
<!-- Node1&#45;&gt;Node3 -->
<g id="edge2" class="edge">
<title>Node1&#45;&gt;Node3</title>
<path fill="none" stroke="midnightblue" d="M142.73,-27.91C132,-26.31 120.99,-24.67 110.64,-23.13"/>
<polygon fill="midnightblue" stroke="midnightblue" points="142.51,-31.42 152.91,-29.43 143.54,-24.5 142.51,-31.42"/>
</g>
</g>
</svg>
