<?xml version="1.0" encoding="UTF-8" standalone="no"?>
<!DOCTYPE svg PUBLIC "-//W3C//DTD SVG 1.1//EN"
 "http://www.w3.org/Graphics/SVG/1.1/DTD/svg11.dtd">
<!-- Generated by graphviz version 2.43.0 (0)
 -->
<!-- Title: fuzzer::Fuzzer::DumpCurrentUnit Pages: 1 -->
<svg width="688pt" height="300pt"
 viewBox="0.00 0.00 688.00 299.96" xmlns="http://www.w3.org/2000/svg" xmlns:xlink="http://www.w3.org/1999/xlink">
<g id="graph0" class="graph" transform="scale(1 1) rotate(0) translate(4 295.96)">
<title>fuzzer::Fuzzer::DumpCurrentUnit</title>
<polygon fill="white" stroke="transparent" points="-4,4 -4,-295.96 684,-295.96 684,4 -4,4"/>
<!-- Node1 -->
<g id="node1" class="node">
<title>Node1</title>
<g id="a_node1"><a xlink:title=" ">
<polygon fill="#bfbfbf" stroke="black" points="0,-149.46 0,-168.46 176,-168.46 176,-149.46 0,-149.46"/>
<text text-anchor="middle" x="88" y="-156.46" font-family="Helvetica,sans-Serif" font-size="10.00">fuzzer::Fuzzer::DumpCurrentUnit</text>
</a>
</g>
</g>
<!-- Node2 -->
<g id="node2" class="node">
<title>Node2</title>
<g id="a_node2"><a xlink:href="namespacefuzzer.html#a9745d98c9dbd0f6cf52f2a71ebf3f778" target="_top" xlink:title=" ">
<polygon fill="white" stroke="black" points="409.5,-253.46 409.5,-272.46 510.5,-272.46 510.5,-253.46 409.5,-253.46"/>
<text text-anchor="middle" x="460" y="-260.46" font-family="Helvetica,sans-Serif" font-size="10.00">fuzzer::PrintASCII</text>
</a>
</g>
</g>
<!-- Node1&#45;&gt;Node2 -->
<g id="edge1" class="edge">
<title>Node1&#45;&gt;Node2</title>
<path fill="none" stroke="midnightblue" d="M95.96,-168.56C112.83,-190.89 158.45,-245.93 212,-265.96 275.83,-289.84 355.59,-282.92 406.9,-274.23"/>
<polygon fill="midnightblue" stroke="midnightblue" points="407.54,-277.68 416.78,-272.48 406.32,-270.78 407.54,-277.68"/>
</g>
<!-- Node5 -->
<g id="node5" class="node">
<title>Node5</title>
<g id="a_node5"><a xlink:href="namespacefuzzer.html#afab785891fdb74f8fd33bca421bde935" target="_top" xlink:title=" ">
<polygon fill="white" stroke="black" points="420.5,-149.46 420.5,-168.46 499.5,-168.46 499.5,-149.46 420.5,-149.46"/>
<text text-anchor="middle" x="460" y="-156.46" font-family="Helvetica,sans-Serif" font-size="10.00">fuzzer::Printf</text>
</a>
</g>
</g>
<!-- Node1&#45;&gt;Node5 -->
<g id="edge4" class="edge">
<title>Node1&#45;&gt;Node5</title>
<path fill="none" stroke="midnightblue" d="M139.07,-168.48C161.31,-172.24 187.87,-176.11 212,-177.96 282.46,-183.37 300.73,-185.46 371,-177.96 384.87,-176.48 399.77,-173.73 413.29,-170.76"/>
<polygon fill="midnightblue" stroke="midnightblue" points="414.35,-174.11 423.32,-168.47 412.79,-167.28 414.35,-174.11"/>
</g>
<!-- Node6 -->
<g id="node6" class="node">
<title>Node6</title>
<g id="a_node6"><a xlink:href="namespacefuzzer.html#aaee5b1fbcf09809ed06ac0bd42acd097" target="_top" xlink:title=" ">
<polygon fill="white" stroke="black" points="231,-149.46 231,-168.46 352,-168.46 352,-149.46 231,-149.46"/>
<text text-anchor="middle" x="291.5" y="-156.46" font-family="Helvetica,sans-Serif" font-size="10.00">fuzzer::PrintHexArray</text>
</a>
</g>
</g>
<!-- Node1&#45;&gt;Node6 -->
<g id="edge5" class="edge">
<title>Node1&#45;&gt;Node6</title>
<path fill="none" stroke="midnightblue" d="M176.21,-158.96C191.02,-158.96 206.22,-158.96 220.51,-158.96"/>
<polygon fill="midnightblue" stroke="midnightblue" points="220.74,-162.46 230.74,-158.96 220.74,-155.46 220.74,-162.46"/>
</g>
<!-- Node7 -->
<g id="node7" class="node">
<title>Node7</title>
<g id="a_node7"><a xlink:href="classfuzzer_1_1MutationDispatcher.html#a44df135b1a9bc2bd967cb1e536c36431" target="_top" xlink:title="Print the current sequence of mutations.">
<polygon fill="white" stroke="black" points="217,-225.96 217,-255.96 366,-255.96 366,-225.96 217,-225.96"/>
<text text-anchor="start" x="225" y="-243.96" font-family="Helvetica,sans-Serif" font-size="10.00">fuzzer::MutationDispatcher</text>
<text text-anchor="middle" x="291.5" y="-232.96" font-family="Helvetica,sans-Serif" font-size="10.00">::PrintMutationSequence</text>
</a>
</g>
</g>
<!-- Node1&#45;&gt;Node7 -->
<g id="edge7" class="edge">
<title>Node1&#45;&gt;Node7</title>
<path fill="none" stroke="midnightblue" d="M111.12,-168.59C135.67,-179.21 176.51,-196.68 212,-210.96 221.24,-214.68 231.13,-218.55 240.67,-222.22"/>
<polygon fill="midnightblue" stroke="midnightblue" points="239.47,-225.51 250.06,-225.82 241.97,-218.97 239.47,-225.51"/>
</g>
<!-- Node8 -->
<g id="node8" class="node">
<title>Node8</title>
<g id="a_node8"><a xlink:href="namespacefuzzer.html#af169a5e81c6e590e4240ccfbb84b8b6a" target="_top" xlink:title=" ">
<polygon fill="white" stroke="black" points="556.5,-8.46 556.5,-27.46 672.5,-27.46 672.5,-8.46 556.5,-8.46"/>
<text text-anchor="middle" x="614.5" y="-15.46" font-family="Helvetica,sans-Serif" font-size="10.00">fuzzer::Sha1ToString</text>
</a>
</g>
</g>
<!-- Node1&#45;&gt;Node8 -->
<g id="edge10" class="edge">
<title>Node1&#45;&gt;Node8</title>
<path fill="none" stroke="midnightblue" d="M95.68,-149.28C112.26,-126.12 157.91,-67.52 212,-41.96 320.18,9.16 463.43,2.6 546.32,-7.33"/>
<polygon fill="midnightblue" stroke="midnightblue" points="546.02,-10.82 556.37,-8.59 546.89,-3.88 546.02,-10.82"/>
</g>
<!-- Node9 -->
<g id="node9" class="node">
<title>Node9</title>
<g id="a_node9"><a xlink:href="namespacefuzzer.html#af70fd3cc41e2bcdd8bc0a9c72cb5c652" target="_top" xlink:title=" ">
<polygon fill="white" stroke="black" points="212,-99.96 212,-129.96 371,-129.96 371,-99.96 212,-99.96"/>
<text text-anchor="start" x="220" y="-117.96" font-family="Helvetica,sans-Serif" font-size="10.00">fuzzer::WarnOnUnsuccessfull</text>
<text text-anchor="middle" x="291.5" y="-106.96" font-family="Helvetica,sans-Serif" font-size="10.00">Merge</text>
</a>
</g>
</g>
<!-- Node1&#45;&gt;Node9 -->
<g id="edge11" class="edge">
<title>Node1&#45;&gt;Node9</title>
<path fill="none" stroke="midnightblue" d="M132.72,-149.42C155.81,-144.37 184.87,-138.03 211.73,-132.16"/>
<polygon fill="midnightblue" stroke="midnightblue" points="212.48,-135.58 221.51,-130.03 210.99,-128.74 212.48,-135.58"/>
</g>
<!-- Node10 -->
<g id="node10" class="node">
<title>Node10</title>
<g id="a_node10"><a xlink:href="classfuzzer_1_1Fuzzer.html#aef705ffb2c3596bc6c6fe425320093d8" target="_top" xlink:title=" ">
<polygon fill="white" stroke="black" points="223,-50.96 223,-80.96 360,-80.96 360,-50.96 223,-50.96"/>
<text text-anchor="start" x="231" y="-68.96" font-family="Helvetica,sans-Serif" font-size="10.00">fuzzer::Fuzzer::WriteUnit</text>
<text text-anchor="middle" x="291.5" y="-57.96" font-family="Helvetica,sans-Serif" font-size="10.00">ToFileWithPrefix</text>
</a>
</g>
</g>
<!-- Node1&#45;&gt;Node10 -->
<g id="edge13" class="edge">
<title>Node1&#45;&gt;Node10</title>
<path fill="none" stroke="midnightblue" d="M104.04,-149.37C126.75,-135.19 171.44,-108.43 212,-90.96 217.3,-88.68 222.88,-86.49 228.52,-84.43"/>
<polygon fill="midnightblue" stroke="midnightblue" points="229.76,-87.71 238.03,-81.09 227.44,-81.11 229.76,-87.71"/>
</g>
<!-- Node3 -->
<g id="node3" class="node">
<title>Node3</title>
<g id="a_node3"><a xlink:href="classfuzzer_1_1FixedWord.html#a14fbd18b5b0868f5d7f2d50a85d0b09e" target="_top" xlink:title=" ">
<polygon fill="white" stroke="black" points="549,-272.46 549,-291.46 680,-291.46 680,-272.46 549,-272.46"/>
<text text-anchor="middle" x="614.5" y="-279.46" font-family="Helvetica,sans-Serif" font-size="10.00">fuzzer::FixedWord::data</text>
</a>
</g>
</g>
<!-- Node2&#45;&gt;Node3 -->
<g id="edge2" class="edge">
<title>Node2&#45;&gt;Node3</title>
<path fill="none" stroke="midnightblue" d="M510.51,-269.13C519.61,-270.27 529.3,-271.47 538.94,-272.67"/>
<polygon fill="midnightblue" stroke="midnightblue" points="538.6,-276.16 548.96,-273.92 539.47,-269.21 538.6,-276.16"/>
</g>
<!-- Node4 -->
<g id="node4" class="node">
<title>Node4</title>
<g id="a_node4"><a xlink:href="classfuzzer_1_1FixedWord.html#a97ffcbd9ec743adabd6bdf85f0911e53" target="_top" xlink:title=" ">
<polygon fill="white" stroke="black" points="550,-234.46 550,-253.46 679,-253.46 679,-234.46 550,-234.46"/>
<text text-anchor="middle" x="614.5" y="-241.46" font-family="Helvetica,sans-Serif" font-size="10.00">fuzzer::FixedWord::size</text>
</a>
</g>
</g>
<!-- Node2&#45;&gt;Node4 -->
<g id="edge3" class="edge">
<title>Node2&#45;&gt;Node4</title>
<path fill="none" stroke="midnightblue" d="M510.51,-256.79C519.81,-255.64 529.71,-254.4 539.56,-253.18"/>
<polygon fill="midnightblue" stroke="midnightblue" points="540.29,-256.61 549.78,-251.9 539.42,-249.67 540.29,-256.61"/>
</g>
<!-- Node6&#45;&gt;Node5 -->
<g id="edge6" class="edge">
<title>Node6&#45;&gt;Node5</title>
<path fill="none" stroke="midnightblue" d="M352.14,-158.96C371.1,-158.96 391.85,-158.96 409.98,-158.96"/>
<polygon fill="midnightblue" stroke="midnightblue" points="410.03,-162.46 420.03,-158.96 410.03,-155.46 410.03,-162.46"/>
</g>
<!-- Node7&#45;&gt;Node2 -->
<g id="edge8" class="edge">
<title>Node7&#45;&gt;Node2</title>
<path fill="none" stroke="midnightblue" d="M366.01,-250.68C377.1,-252.14 388.43,-253.64 399.19,-255.06"/>
<polygon fill="midnightblue" stroke="midnightblue" points="398.93,-258.56 409.3,-256.4 399.84,-251.62 398.93,-258.56"/>
</g>
<!-- Node7&#45;&gt;Node5 -->
<g id="edge9" class="edge">
<title>Node7&#45;&gt;Node5</title>
<path fill="none" stroke="midnightblue" d="M335.83,-225.9C347.42,-221.47 359.83,-216.35 371,-210.96 393.66,-200.04 418.2,-185.27 435.6,-174.26"/>
<polygon fill="midnightblue" stroke="midnightblue" points="437.94,-176.92 444.47,-168.58 434.16,-171.02 437.94,-176.92"/>
</g>
<!-- Node9&#45;&gt;Node5 -->
<g id="edge12" class="edge">
<title>Node9&#45;&gt;Node5</title>
<path fill="none" stroke="midnightblue" d="M349.33,-129.98C370.03,-135.45 393.16,-141.56 412.82,-146.76"/>
<polygon fill="midnightblue" stroke="midnightblue" points="412.19,-150.21 422.75,-149.38 413.98,-143.45 412.19,-150.21"/>
</g>
<!-- Node10&#45;&gt;Node5 -->
<g id="edge18" class="edge">
<title>Node10&#45;&gt;Node5</title>
<path fill="none" stroke="midnightblue" d="M351.97,-81.04C358.64,-83.84 365.13,-87.13 371,-90.96 391.29,-104.24 387.91,-117.01 407,-131.96 413.06,-136.71 420.07,-141 426.95,-144.71"/>
<polygon fill="midnightblue" stroke="midnightblue" points="425.64,-147.97 436.15,-149.37 428.81,-141.72 425.64,-147.97"/>
</g>
<!-- Node11 -->
<g id="node11" class="node">
<title>Node11</title>
<g id="a_node11"><a xlink:href="namespacefuzzer.html#a44a66f71305943a3525b2f546673f0f5" target="_top" xlink:title=" ">
<polygon fill="white" stroke="black" points="415.5,-103.46 415.5,-122.46 504.5,-122.46 504.5,-103.46 415.5,-103.46"/>
<text text-anchor="middle" x="460" y="-110.46" font-family="Helvetica,sans-Serif" font-size="10.00">fuzzer::Base64</text>
</a>
</g>
</g>
<!-- Node10&#45;&gt;Node11 -->
<g id="edge14" class="edge">
<title>Node10&#45;&gt;Node11</title>
<path fill="none" stroke="midnightblue" d="M345.64,-80.96C368.15,-87.32 394.06,-94.63 415.42,-100.66"/>
<polygon fill="midnightblue" stroke="midnightblue" points="414.62,-104.07 425.19,-103.42 416.52,-97.33 414.62,-104.07"/>
</g>
<!-- Node12 -->
<g id="node12" class="node">
<title>Node12</title>
<g id="a_node12"><a xlink:href="namespacefuzzer.html#abebfdee7cc880967073a09d61e12e182" target="_top" xlink:title=" ">
<polygon fill="white" stroke="black" points="421.5,-65.46 421.5,-84.46 498.5,-84.46 498.5,-65.46 421.5,-65.46"/>
<text text-anchor="middle" x="460" y="-72.46" font-family="Helvetica,sans-Serif" font-size="10.00">fuzzer::Hash</text>
</a>
</g>
</g>
<!-- Node10&#45;&gt;Node12 -->
<g id="edge15" class="edge">
<title>Node10&#45;&gt;Node12</title>
<path fill="none" stroke="midnightblue" d="M360.22,-69.62C377.36,-70.55 395.4,-71.53 411.31,-72.39"/>
<polygon fill="midnightblue" stroke="midnightblue" points="411.25,-75.89 421.43,-72.93 411.63,-68.9 411.25,-75.89"/>
</g>
<!-- Node14 -->
<g id="node14" class="node">
<title>Node14</title>
<g id="a_node14"><a xlink:href="namespacefuzzer.html#a55062839741b460271791a94c5ccedab" target="_top" xlink:title=" ">
<polygon fill="white" stroke="black" points="407,-27.46 407,-46.46 513,-46.46 513,-27.46 407,-27.46"/>
<text text-anchor="middle" x="460" y="-34.46" font-family="Helvetica,sans-Serif" font-size="10.00">fuzzer::WriteToFile</text>
</a>
</g>
</g>
<!-- Node10&#45;&gt;Node14 -->
<g id="edge19" class="edge">
<title>Node10&#45;&gt;Node14</title>
<path fill="none" stroke="midnightblue" d="M360.22,-54.17C372.39,-52.05 385.02,-49.85 397.01,-47.76"/>
<polygon fill="midnightblue" stroke="midnightblue" points="397.67,-51.2 406.92,-46.03 396.47,-44.3 397.67,-51.2"/>
</g>
<!-- Node12&#45;&gt;Node8 -->
<g id="edge17" class="edge">
<title>Node12&#45;&gt;Node8</title>
<path fill="none" stroke="midnightblue" d="M487.21,-65.45C495.47,-62.44 504.62,-59.08 513,-55.96 534.89,-47.83 559.4,-38.56 578.74,-31.22"/>
<polygon fill="midnightblue" stroke="midnightblue" points="580.23,-34.39 588.33,-27.57 577.74,-27.85 580.23,-34.39"/>
</g>
<!-- Node13 -->
<g id="node13" class="node">
<title>Node13</title>
<g id="a_node13"><a xlink:href="namespacefuzzer.html#a315b24f5436223321f5dd87f04ad90fc" target="_top" xlink:title=" ">
<polygon fill="white" stroke="black" points="553,-65.46 553,-84.46 676,-84.46 676,-65.46 553,-65.46"/>
<text text-anchor="middle" x="614.5" y="-72.46" font-family="Helvetica,sans-Serif" font-size="10.00">fuzzer::ComputeSHA1</text>
</a>
</g>
</g>
<!-- Node12&#45;&gt;Node13 -->
<g id="edge16" class="edge">
<title>Node12&#45;&gt;Node13</title>
<path fill="none" stroke="midnightblue" d="M498.7,-74.96C511.95,-74.96 527.32,-74.96 542.42,-74.96"/>
<polygon fill="midnightblue" stroke="midnightblue" points="542.8,-78.46 552.8,-74.96 542.8,-71.46 542.8,-78.46"/>
</g>
</g>
</svg>
