<?xml version="1.0" encoding="UTF-8" standalone="no"?>
<!DOCTYPE svg PUBLIC "-//W3C//DTD SVG 1.1//EN"
 "http://www.w3.org/Graphics/SVG/1.1/DTD/svg11.dtd">
<!-- Generated by graphviz version 2.43.0 (0)
 -->
<!-- Title: benchmark::BenchmarkReporter Pages: 1 -->
<svg width="485pt" height="347pt"
 viewBox="0.00 0.00 484.50 347.00" xmlns="http://www.w3.org/2000/svg" xmlns:xlink="http://www.w3.org/1999/xlink">
<g id="graph0" class="graph" transform="scale(1 1) rotate(0) translate(4 343)">
<title>benchmark::BenchmarkReporter</title>
<polygon fill="white" stroke="transparent" points="-4,4 -4,-343 480.5,-343 480.5,4 -4,4"/>
<!-- Node1 -->
<g id="node1" class="node">
<title>Node1</title>
<g id="a_node1"><a xlink:title=" ">
<polygon fill="#bfbfbf" stroke="black" points="158.5,-171.5 158.5,-338.5 333.5,-338.5 333.5,-171.5 158.5,-171.5"/>
<text text-anchor="middle" x="246" y="-326.5" font-family="Helvetica,sans-Serif" font-size="10.00">benchmark::BenchmarkReporter</text>
<polyline fill="none" stroke="black" points="158.5,-319.5 333.5,-319.5 "/>
<text text-anchor="start" x="166.5" y="-307.5" font-family="Helvetica,sans-Serif" font-size="10.00">&#45; output_stream_</text>
<text text-anchor="start" x="166.5" y="-296.5" font-family="Helvetica,sans-Serif" font-size="10.00">&#45; error_stream_</text>
<polyline fill="none" stroke="black" points="158.5,-289.5 333.5,-289.5 "/>
<text text-anchor="start" x="166.5" y="-277.5" font-family="Helvetica,sans-Serif" font-size="10.00">+ BenchmarkReporter()</text>
<text text-anchor="start" x="166.5" y="-266.5" font-family="Helvetica,sans-Serif" font-size="10.00">+ ReportContext()</text>
<text text-anchor="start" x="166.5" y="-255.5" font-family="Helvetica,sans-Serif" font-size="10.00">+ ReportRuns()</text>
<text text-anchor="start" x="166.5" y="-244.5" font-family="Helvetica,sans-Serif" font-size="10.00">+ Finalize()</text>
<text text-anchor="start" x="166.5" y="-233.5" font-family="Helvetica,sans-Serif" font-size="10.00">+ SetOutputStream()</text>
<text text-anchor="start" x="166.5" y="-222.5" font-family="Helvetica,sans-Serif" font-size="10.00">+ SetErrorStream()</text>
<text text-anchor="start" x="166.5" y="-211.5" font-family="Helvetica,sans-Serif" font-size="10.00">+ GetOutputStream()</text>
<text text-anchor="start" x="166.5" y="-200.5" font-family="Helvetica,sans-Serif" font-size="10.00">+ GetErrorStream()</text>
<text text-anchor="start" x="166.5" y="-189.5" font-family="Helvetica,sans-Serif" font-size="10.00">+ ~BenchmarkReporter()</text>
<text text-anchor="start" x="166.5" y="-178.5" font-family="Helvetica,sans-Serif" font-size="10.00">+ PrintBasicContext()</text>
</a>
</g>
</g>
<!-- Node2 -->
<g id="node2" class="node">
<title>Node2</title>
<g id="a_node2"><a xlink:href="classbenchmark_1_1ConsoleReporter.html" target="_top" xlink:title=" ">
<polygon fill="white" stroke="black" points="0,-0.5 0,-134.5 158,-134.5 158,-0.5 0,-0.5"/>
<text text-anchor="middle" x="79" y="-122.5" font-family="Helvetica,sans-Serif" font-size="10.00">benchmark::ConsoleReporter</text>
<polyline fill="none" stroke="black" points="0,-115.5 158,-115.5 "/>
<text text-anchor="start" x="8" y="-103.5" font-family="Helvetica,sans-Serif" font-size="10.00"># output_options_</text>
<text text-anchor="start" x="8" y="-92.5" font-family="Helvetica,sans-Serif" font-size="10.00"># name_field_width_</text>
<text text-anchor="start" x="8" y="-81.5" font-family="Helvetica,sans-Serif" font-size="10.00"># prev_counters_</text>
<text text-anchor="start" x="8" y="-70.5" font-family="Helvetica,sans-Serif" font-size="10.00"># printed_header_</text>
<polyline fill="none" stroke="black" points="0,-63.5 158,-63.5 "/>
<text text-anchor="start" x="8" y="-51.5" font-family="Helvetica,sans-Serif" font-size="10.00">+ ConsoleReporter()</text>
<text text-anchor="start" x="8" y="-40.5" font-family="Helvetica,sans-Serif" font-size="10.00">+ ReportContext()</text>
<text text-anchor="start" x="8" y="-29.5" font-family="Helvetica,sans-Serif" font-size="10.00">+ ReportRuns()</text>
<text text-anchor="start" x="8" y="-18.5" font-family="Helvetica,sans-Serif" font-size="10.00"># PrintRunData()</text>
<text text-anchor="start" x="8" y="-7.5" font-family="Helvetica,sans-Serif" font-size="10.00"># PrintHeader()</text>
</a>
</g>
</g>
<!-- Node1&#45;&gt;Node2 -->
<g id="edge1" class="edge">
<title>Node1&#45;&gt;Node2</title>
<path fill="none" stroke="midnightblue" d="M164.78,-163.79C155.94,-153.96 147.06,-144.1 138.54,-134.64"/>
<polygon fill="none" stroke="midnightblue" points="162.24,-166.2 171.54,-171.29 167.45,-161.51 162.24,-166.2"/>
</g>
<!-- Node3 -->
<g id="node3" class="node">
<title>Node3</title>
<g id="a_node3"><a xlink:href="classbenchmark_1_1CSVReporter.html" target="_top" xlink:title=" ">
<polygon fill="white" stroke="black" points="176.5,-17 176.5,-118 315.5,-118 315.5,-17 176.5,-17"/>
<text text-anchor="middle" x="246" y="-106" font-family="Helvetica,sans-Serif" font-size="10.00">benchmark::CSVReporter</text>
<polyline fill="none" stroke="black" points="176.5,-99 315.5,-99 "/>
<text text-anchor="start" x="184.5" y="-87" font-family="Helvetica,sans-Serif" font-size="10.00">&#45; printed_header_</text>
<text text-anchor="start" x="184.5" y="-76" font-family="Helvetica,sans-Serif" font-size="10.00">&#45; user_counter_names_</text>
<polyline fill="none" stroke="black" points="176.5,-69 315.5,-69 "/>
<text text-anchor="start" x="184.5" y="-57" font-family="Helvetica,sans-Serif" font-size="10.00">+ CSVReporter()</text>
<text text-anchor="start" x="184.5" y="-46" font-family="Helvetica,sans-Serif" font-size="10.00">+ ReportContext()</text>
<text text-anchor="start" x="184.5" y="-35" font-family="Helvetica,sans-Serif" font-size="10.00">+ ReportRuns()</text>
<text text-anchor="start" x="184.5" y="-24" font-family="Helvetica,sans-Serif" font-size="10.00">&#45; PrintRunData()</text>
</a>
</g>
</g>
<!-- Node1&#45;&gt;Node3 -->
<g id="edge2" class="edge">
<title>Node1&#45;&gt;Node3</title>
<path fill="none" stroke="midnightblue" d="M246,-161.03C246,-146.2 246,-131.37 246,-118.07"/>
<polygon fill="none" stroke="midnightblue" points="242.5,-161.29 246,-171.29 249.5,-161.29 242.5,-161.29"/>
</g>
<!-- Node4 -->
<g id="node4" class="node">
<title>Node4</title>
<g id="a_node4"><a xlink:href="classbenchmark_1_1JSONReporter.html" target="_top" xlink:title=" ">
<polygon fill="white" stroke="black" points="333.5,-17 333.5,-118 476.5,-118 476.5,-17 333.5,-17"/>
<text text-anchor="middle" x="405" y="-106" font-family="Helvetica,sans-Serif" font-size="10.00">benchmark::JSONReporter</text>
<polyline fill="none" stroke="black" points="333.5,-99 476.5,-99 "/>
<text text-anchor="start" x="341.5" y="-87" font-family="Helvetica,sans-Serif" font-size="10.00">&#45; first_report_</text>
<polyline fill="none" stroke="black" points="333.5,-80 476.5,-80 "/>
<text text-anchor="start" x="341.5" y="-68" font-family="Helvetica,sans-Serif" font-size="10.00">+ JSONReporter()</text>
<text text-anchor="start" x="341.5" y="-57" font-family="Helvetica,sans-Serif" font-size="10.00">+ ReportContext()</text>
<text text-anchor="start" x="341.5" y="-46" font-family="Helvetica,sans-Serif" font-size="10.00">+ ReportRuns()</text>
<text text-anchor="start" x="341.5" y="-35" font-family="Helvetica,sans-Serif" font-size="10.00">+ Finalize()</text>
<text text-anchor="start" x="341.5" y="-24" font-family="Helvetica,sans-Serif" font-size="10.00">&#45; PrintRunData()</text>
</a>
</g>
</g>
<!-- Node1&#45;&gt;Node4 -->
<g id="edge3" class="edge">
<title>Node1&#45;&gt;Node4</title>
<path fill="none" stroke="midnightblue" d="M323.49,-163.6C336.93,-147.91 350.45,-132.14 362.51,-118.07"/>
<polygon fill="none" stroke="midnightblue" points="320.75,-161.42 316.9,-171.29 326.06,-165.97 320.75,-161.42"/>
</g>
</g>
</svg>
