<?xml version="1.0" encoding="UTF-8" standalone="no"?>
<!DOCTYPE svg PUBLIC "-//W3C//DTD SVG 1.1//EN"
 "http://www.w3.org/Graphics/SVG/1.1/DTD/svg11.dtd">
<!-- Generated by graphviz version 2.43.0 (0)
 -->
<!-- Title: fuzzer::TracePC::HandleCmp Pages: 1 -->
<svg width="523pt" height="88pt"
 viewBox="0.00 0.00 523.00 88.00" xmlns="http://www.w3.org/2000/svg" xmlns:xlink="http://www.w3.org/1999/xlink">
<g id="graph0" class="graph" transform="scale(1 1) rotate(0) translate(4 84)">
<title>fuzzer::TracePC::HandleCmp</title>
<polygon fill="white" stroke="transparent" points="-4,4 -4,-84 519,-84 519,4 -4,4"/>
<!-- Node1 -->
<g id="node1" class="node">
<title>Node1</title>
<g id="a_node1"><a xlink:title=" ">
<polygon fill="#bfbfbf" stroke="black" points="0,-30 0,-49 155,-49 155,-30 0,-30"/>
<text text-anchor="middle" x="77.5" y="-37" font-family="Helvetica,sans-Serif" font-size="10.00">fuzzer::TracePC::HandleCmp</text>
</a>
</g>
</g>
<!-- Node2 -->
<g id="node2" class="node">
<title>Node2</title>
<g id="a_node2"><a xlink:href="classfuzzer_1_1TracePC.html#a55700216637d404ebbdfd2329c9b57a0" target="_top" xlink:title=" ">
<polygon fill="white" stroke="black" points="197.5,-49.5 197.5,-79.5 357.5,-79.5 357.5,-49.5 197.5,-49.5"/>
<text text-anchor="start" x="205.5" y="-67.5" font-family="Helvetica,sans-Serif" font-size="10.00">fuzzer::TracePC::HandleValue</text>
<text text-anchor="middle" x="277.5" y="-56.5" font-family="Helvetica,sans-Serif" font-size="10.00">Profile</text>
</a>
</g>
</g>
<!-- Node1&#45;&gt;Node2 -->
<g id="edge1" class="edge">
<title>Node1&#45;&gt;Node2</title>
<path fill="none" stroke="midnightblue" d="M153.92,-49.02C164.8,-50.4 176.08,-51.82 187.19,-53.22"/>
<polygon fill="midnightblue" stroke="midnightblue" points="186.98,-56.72 197.34,-54.51 187.86,-49.78 186.98,-56.72"/>
</g>
<!-- Node4 -->
<g id="node4" class="node">
<title>Node4</title>
<g id="a_node4"><a xlink:href="structfuzzer_1_1TableOfRecentCompares.html#a29dbb452cdb923ebed73e45e9227ac3f" target="_top" xlink:title=" ">
<polygon fill="white" stroke="black" points="191,-0.5 191,-30.5 364,-30.5 364,-0.5 191,-0.5"/>
<text text-anchor="start" x="199" y="-18.5" font-family="Helvetica,sans-Serif" font-size="10.00">fuzzer::TableOfRecentCompares</text>
<text text-anchor="middle" x="277.5" y="-7.5" font-family="Helvetica,sans-Serif" font-size="10.00">::Insert</text>
</a>
</g>
</g>
<!-- Node1&#45;&gt;Node4 -->
<g id="edge3" class="edge">
<title>Node1&#45;&gt;Node4</title>
<path fill="none" stroke="midnightblue" d="M155.05,-30.22C163.5,-29.2 172.18,-28.15 180.82,-27.1"/>
<polygon fill="midnightblue" stroke="midnightblue" points="181.43,-30.55 190.94,-25.87 180.59,-23.6 181.43,-30.55"/>
</g>
<!-- Node3 -->
<g id="node3" class="node">
<title>Node3</title>
<g id="a_node3"><a xlink:href="structfuzzer_1_1ValueBitMap.html#a716c1fc151b968063db3e37955ef530d" target="_top" xlink:title=" ">
<polygon fill="white" stroke="black" points="400,-49.5 400,-79.5 515,-79.5 515,-49.5 400,-49.5"/>
<text text-anchor="start" x="408" y="-67.5" font-family="Helvetica,sans-Serif" font-size="10.00">fuzzer::ValueBitMap</text>
<text text-anchor="middle" x="457.5" y="-56.5" font-family="Helvetica,sans-Serif" font-size="10.00">::AddValue</text>
</a>
</g>
</g>
<!-- Node2&#45;&gt;Node3 -->
<g id="edge2" class="edge">
<title>Node2&#45;&gt;Node3</title>
<path fill="none" stroke="midnightblue" d="M357.61,-64.5C368.26,-64.5 379.11,-64.5 389.53,-64.5"/>
<polygon fill="midnightblue" stroke="midnightblue" points="389.78,-68 399.78,-64.5 389.78,-61 389.78,-68"/>
</g>
</g>
</svg>
