<?xml version="1.0" encoding="UTF-8" standalone="no"?>
<!DOCTYPE svg PUBLIC "-//W3C//DTD SVG 1.1//EN"
 "http://www.w3.org/Graphics/SVG/1.1/DTD/svg11.dtd">
<!-- Generated by graphviz version 2.43.0 (0)
 -->
<!-- Title: nlohmann::detail::binary_writer::write_number Pages: 1 -->
<svg width="660pt" height="188pt"
 viewBox="0.00 0.00 660.00 188.00" xmlns="http://www.w3.org/2000/svg" xmlns:xlink="http://www.w3.org/1999/xlink">
<g id="graph0" class="graph" transform="scale(1 1) rotate(0) translate(4 184)">
<title>nlohmann::detail::binary_writer::write_number</title>
<polygon fill="white" stroke="transparent" points="-4,4 -4,-184 656,-184 656,4 -4,4"/>
<!-- Node1 -->
<g id="node1" class="node">
<title>Node1</title>
<g id="a_node1"><a xlink:title=" ">
<polygon fill="#bfbfbf" stroke="black" points="516,-64.5 516,-94.5 652,-94.5 652,-64.5 516,-64.5"/>
<text text-anchor="start" x="524" y="-82.5" font-family="Helvetica,sans-Serif" font-size="10.00">nlohmann::detail::binary</text>
<text text-anchor="middle" x="584" y="-71.5" font-family="Helvetica,sans-Serif" font-size="10.00">_writer::write_number</text>
</a>
</g>
</g>
<!-- Node2 -->
<g id="node2" class="node">
<title>Node2</title>
<g id="a_node2"><a xlink:href="classnlohmann_1_1detail_1_1binary__writer.html#aa0ab8d27fd88a33a2f801413ac4c7fbc" target="_top" xlink:title=" ">
<polygon fill="white" stroke="black" points="337,-131.5 337,-161.5 473,-161.5 473,-131.5 337,-131.5"/>
<text text-anchor="start" x="345" y="-149.5" font-family="Helvetica,sans-Serif" font-size="10.00">nlohmann::detail::binary</text>
<text text-anchor="middle" x="405" y="-138.5" font-family="Helvetica,sans-Serif" font-size="10.00">_writer::write_cbor</text>
</a>
</g>
</g>
<!-- Node1&#45;&gt;Node2 -->
<g id="edge1" class="edge">
<title>Node1&#45;&gt;Node2</title>
<path fill="none" stroke="midnightblue" d="M539.71,-98.5C521.42,-106.28 499.81,-115.17 480,-122.5 471.77,-125.55 462.94,-128.6 454.36,-131.45"/>
<polygon fill="midnightblue" stroke="midnightblue" points="541.13,-101.7 548.95,-94.54 538.38,-95.26 541.13,-101.7"/>
</g>
<!-- Node4 -->
<g id="node4" class="node">
<title>Node4</title>
<g id="a_node4"><a xlink:href="classnlohmann_1_1detail_1_1binary__writer.html#ae4e0852b64102ce4b07d99f08f828b7c" target="_top" xlink:title=" ">
<polygon fill="white" stroke="black" points="337,-64.5 337,-94.5 473,-94.5 473,-64.5 337,-64.5"/>
<text text-anchor="start" x="345" y="-82.5" font-family="Helvetica,sans-Serif" font-size="10.00">nlohmann::detail::binary</text>
<text text-anchor="middle" x="405" y="-71.5" font-family="Helvetica,sans-Serif" font-size="10.00">_writer::write_msgpack</text>
</a>
</g>
</g>
<!-- Node1&#45;&gt;Node4 -->
<g id="edge4" class="edge">
<title>Node1&#45;&gt;Node4</title>
<path fill="none" stroke="midnightblue" d="M505.56,-79.5C494.75,-79.5 483.72,-79.5 473.12,-79.5"/>
<polygon fill="midnightblue" stroke="midnightblue" points="505.83,-83 515.83,-79.5 505.83,-76 505.83,-83"/>
</g>
<!-- Node6 -->
<g id="node6" class="node">
<title>Node6</title>
<g id="a_node6"><a xlink:href="classnlohmann_1_1detail_1_1binary__writer.html#a0ea6745f944c0c61672146886b4ee90f" target="_top" xlink:title=" ">
<polygon fill="white" stroke="black" points="330,-1 330,-42 480,-42 480,-1 330,-1"/>
<text text-anchor="start" x="338" y="-30" font-family="Helvetica,sans-Serif" font-size="10.00">nlohmann::detail::binary</text>
<text text-anchor="start" x="338" y="-19" font-family="Helvetica,sans-Serif" font-size="10.00">_writer::write_number_with</text>
<text text-anchor="middle" x="405" y="-8" font-family="Helvetica,sans-Serif" font-size="10.00">_ubjson_prefix</text>
</a>
</g>
</g>
<!-- Node1&#45;&gt;Node6 -->
<g id="edge7" class="edge">
<title>Node1&#45;&gt;Node6</title>
<path fill="none" stroke="midnightblue" d="M527.45,-61.3C508.83,-55.19 487.94,-48.35 468.8,-42.08"/>
<polygon fill="midnightblue" stroke="midnightblue" points="526.36,-64.62 536.96,-64.41 528.54,-57.97 526.36,-64.62"/>
</g>
<!-- Node2&#45;&gt;Node2 -->
<g id="edge3" class="edge">
<title>Node2&#45;&gt;Node2</title>
<path fill="none" stroke="midnightblue" d="M436.63,-171.96C432.7,-176.68 422.16,-180 405,-180 376.84,-180 366.5,-171.06 373.98,-161.66"/>
<polygon fill="midnightblue" stroke="midnightblue" points="440.1,-171.44 436.02,-161.66 433.12,-171.85 440.1,-171.44"/>
</g>
<!-- Node3 -->
<g id="node3" class="node">
<title>Node3</title>
<g id="a_node3"><a xlink:href="classnlohmann_1_1basic__json.html#a5d9a89ac7ed08171a22dc6d65d033c09" target="_top" xlink:title=" ">
<polygon fill="white" stroke="black" points="165,-131.5 165,-161.5 287,-161.5 287,-131.5 165,-131.5"/>
<text text-anchor="start" x="173" y="-149.5" font-family="Helvetica,sans-Serif" font-size="10.00">nlohmann::basic_json</text>
<text text-anchor="middle" x="226" y="-138.5" font-family="Helvetica,sans-Serif" font-size="10.00">::to_cbor</text>
</a>
</g>
</g>
<!-- Node2&#45;&gt;Node3 -->
<g id="edge2" class="edge">
<title>Node2&#45;&gt;Node3</title>
<path fill="none" stroke="midnightblue" d="M326.77,-146.5C313.5,-146.5 299.89,-146.5 287.15,-146.5"/>
<polygon fill="midnightblue" stroke="midnightblue" points="326.83,-150 336.83,-146.5 326.83,-143 326.83,-150"/>
</g>
<!-- Node4&#45;&gt;Node4 -->
<g id="edge6" class="edge">
<title>Node4&#45;&gt;Node4</title>
<path fill="none" stroke="midnightblue" d="M436.63,-104.96C432.7,-109.68 422.16,-113 405,-113 376.84,-113 366.5,-104.06 373.98,-94.66"/>
<polygon fill="midnightblue" stroke="midnightblue" points="440.1,-104.44 436.02,-94.66 433.12,-104.85 440.1,-104.44"/>
</g>
<!-- Node5 -->
<g id="node5" class="node">
<title>Node5</title>
<g id="a_node5"><a xlink:href="classnlohmann_1_1basic__json.html#a4ef190107be36fea6b6c63d71d439c99" target="_top" xlink:title=" ">
<polygon fill="white" stroke="black" points="165,-67.5 165,-97.5 287,-97.5 287,-67.5 165,-67.5"/>
<text text-anchor="start" x="173" y="-85.5" font-family="Helvetica,sans-Serif" font-size="10.00">nlohmann::basic_json</text>
<text text-anchor="middle" x="226" y="-74.5" font-family="Helvetica,sans-Serif" font-size="10.00">::to_msgpack</text>
</a>
</g>
</g>
<!-- Node4&#45;&gt;Node5 -->
<g id="edge5" class="edge">
<title>Node4&#45;&gt;Node5</title>
<path fill="none" stroke="midnightblue" d="M326.77,-80.81C313.5,-81.03 299.89,-81.26 287.15,-81.48"/>
<polygon fill="midnightblue" stroke="midnightblue" points="326.89,-84.31 336.83,-80.64 326.77,-77.31 326.89,-84.31"/>
</g>
<!-- Node7 -->
<g id="node7" class="node">
<title>Node7</title>
<g id="a_node7"><a xlink:href="classnlohmann_1_1detail_1_1binary__writer.html#a0f6c65053d859269f88eb4ebb0cd7060" target="_top" xlink:title=" ">
<polygon fill="white" stroke="black" points="158,-0.5 158,-30.5 294,-30.5 294,-0.5 158,-0.5"/>
<text text-anchor="start" x="166" y="-18.5" font-family="Helvetica,sans-Serif" font-size="10.00">nlohmann::detail::binary</text>
<text text-anchor="middle" x="226" y="-7.5" font-family="Helvetica,sans-Serif" font-size="10.00">_writer::write_ubjson</text>
</a>
</g>
</g>
<!-- Node6&#45;&gt;Node7 -->
<g id="edge8" class="edge">
<title>Node6&#45;&gt;Node7</title>
<path fill="none" stroke="midnightblue" d="M319.91,-18.65C311.3,-18.36 302.64,-18.06 294.25,-17.78"/>
<polygon fill="midnightblue" stroke="midnightblue" points="319.85,-22.15 329.96,-18.99 320.09,-15.15 319.85,-22.15"/>
</g>
<!-- Node7&#45;&gt;Node7 -->
<g id="edge10" class="edge">
<title>Node7&#45;&gt;Node7</title>
<path fill="none" stroke="midnightblue" d="M255.14,-40.96C251.52,-45.68 241.81,-49 226,-49 200.05,-49 190.53,-40.06 197.42,-30.66"/>
<polygon fill="midnightblue" stroke="midnightblue" points="258.62,-40.45 254.58,-30.66 251.63,-40.83 258.62,-40.45"/>
</g>
<!-- Node8 -->
<g id="node8" class="node">
<title>Node8</title>
<g id="a_node8"><a xlink:href="classnlohmann_1_1basic__json.html#a480f6d5a30b9627b55831178266575a7" target="_top" xlink:title=" ">
<polygon fill="white" stroke="black" points="0,-0.5 0,-30.5 122,-30.5 122,-0.5 0,-0.5"/>
<text text-anchor="start" x="8" y="-18.5" font-family="Helvetica,sans-Serif" font-size="10.00">nlohmann::basic_json</text>
<text text-anchor="middle" x="61" y="-7.5" font-family="Helvetica,sans-Serif" font-size="10.00">::to_ubjson</text>
</a>
</g>
</g>
<!-- Node7&#45;&gt;Node8 -->
<g id="edge9" class="edge">
<title>Node7&#45;&gt;Node8</title>
<path fill="none" stroke="midnightblue" d="M147.7,-15.5C139.08,-15.5 130.4,-15.5 122.04,-15.5"/>
<polygon fill="midnightblue" stroke="midnightblue" points="147.76,-19 157.76,-15.5 147.76,-12 147.76,-19"/>
</g>
</g>
</svg>
