<?xml version="1.0" encoding="UTF-8" standalone="no"?>
<!DOCTYPE svg PUBLIC "-//W3C//DTD SVG 1.1//EN"
 "http://www.w3.org/Graphics/SVG/1.1/DTD/svg11.dtd">
<!-- Generated by graphviz version 2.43.0 (0)
 -->
<!-- Title: nlohmann::detail::binary_reader::parse_cbor_internal Pages: 1 -->
<svg width="1371pt" height="538pt"
 viewBox="0.00 0.00 1371.00 538.00" xmlns="http://www.w3.org/2000/svg" xmlns:xlink="http://www.w3.org/1999/xlink">
<g id="graph0" class="graph" transform="scale(1 1) rotate(0) translate(4 534)">
<title>nlohmann::detail::binary_reader::parse_cbor_internal</title>
<polygon fill="white" stroke="transparent" points="-4,4 -4,-534 1367,-534 1367,4 -4,4"/>
<!-- Node1 -->
<g id="node1" class="node">
<title>Node1</title>
<g id="a_node1"><a xlink:title=" ">
<polygon fill="#bfbfbf" stroke="black" points="0,-181 0,-211 155,-211 155,-181 0,-181"/>
<text text-anchor="start" x="8" y="-199" font-family="Helvetica,sans-Serif" font-size="10.00">nlohmann::detail::binary</text>
<text text-anchor="middle" x="77.5" y="-188" font-family="Helvetica,sans-Serif" font-size="10.00">_reader::parse_cbor_internal</text>
</a>
</g>
</g>
<!-- Node2 -->
<g id="node2" class="node">
<title>Node2</title>
<g id="a_node2"><a xlink:href="FuzzerTracePC_8cpp.html#a1f10ac78bd11294b612636121065eb5b" target="_top" xlink:title=" ">
<polygon fill="white" stroke="black" points="1130,-463.5 1130,-482.5 1177,-482.5 1177,-463.5 1130,-463.5"/>
<text text-anchor="middle" x="1153.5" y="-470.5" font-family="Helvetica,sans-Serif" font-size="10.00">assert</text>
</a>
</g>
</g>
<!-- Node1&#45;&gt;Node2 -->
<g id="edge1" class="edge">
<title>Node1&#45;&gt;Node2</title>
<path fill="none" stroke="midnightblue" d="M81.91,-211.22C91.75,-251.86 123.87,-364.13 191,-428 274.96,-507.89 315.1,-530 431,-530 431,-530 431,-530 781,-530 907.4,-530 1055.23,-497.36 1119.68,-481.48"/>
<polygon fill="midnightblue" stroke="midnightblue" points="1120.79,-484.81 1129.65,-478.99 1119.1,-478.02 1120.79,-484.81"/>
</g>
<!-- Node3 -->
<g id="node3" class="node">
<title>Node3</title>
<g id="a_node3"><a xlink:href="classnlohmann_1_1detail_1_1parse__error.html#a137ea4d27de45d8a844fd13451d40f3d" target="_top" xlink:title="create a parse error exception">
<polygon fill="white" stroke="black" points="896.5,-225 896.5,-255 1028.5,-255 1028.5,-225 896.5,-225"/>
<text text-anchor="start" x="904.5" y="-243" font-family="Helvetica,sans-Serif" font-size="10.00">nlohmann::detail::parse</text>
<text text-anchor="middle" x="962.5" y="-232" font-family="Helvetica,sans-Serif" font-size="10.00">_error::create</text>
</a>
</g>
</g>
<!-- Node1&#45;&gt;Node3 -->
<g id="edge2" class="edge">
<title>Node1&#45;&gt;Node3</title>
<path fill="none" stroke="midnightblue" d="M89.23,-180.95C107.45,-156.42 146.82,-107.77 191,-80 286.19,-20.16 318.56,0 431,0 431,0 431,0 607,0 760.72,0 897.45,-156.66 944.3,-216.84"/>
<polygon fill="midnightblue" stroke="midnightblue" points="941.69,-219.18 950.55,-224.99 947.24,-214.92 941.69,-219.18"/>
</g>
<!-- Node8 -->
<g id="node8" class="node">
<title>Node8</title>
<g id="a_node8"><a xlink:href="classnlohmann_1_1detail_1_1binary__reader.html#a82b86133c98a0565446a44dfd3e418e6" target="_top" xlink:title=" ">
<polygon fill="white" stroke="black" points="884,-429 884,-459 1041,-459 1041,-429 884,-429"/>
<text text-anchor="start" x="892" y="-447" font-family="Helvetica,sans-Serif" font-size="10.00">nlohmann::detail::binary</text>
<text text-anchor="middle" x="962.5" y="-436" font-family="Helvetica,sans-Serif" font-size="10.00">_reader::exception_message</text>
</a>
</g>
</g>
<!-- Node1&#45;&gt;Node8 -->
<g id="edge8" class="edge">
<title>Node1&#45;&gt;Node8</title>
<path fill="none" stroke="midnightblue" d="M86.56,-211.09C120.01,-271.4 254.39,-492 431,-492 431,-492 431,-492 607,-492 702.2,-492 810.5,-474.79 882.07,-460.98"/>
<polygon fill="midnightblue" stroke="midnightblue" points="882.78,-464.41 891.92,-459.06 881.44,-457.54 882.78,-464.41"/>
</g>
<!-- Node9 -->
<g id="node9" class="node">
<title>Node9</title>
<g id="a_node9"><a xlink:href="classnlohmann_1_1detail_1_1binary__reader.html#af70e7d5f19a2ee196e24f58acf579411" target="_top" xlink:title="get next character from the input">
<polygon fill="white" stroke="black" points="712,-140 712,-170 848,-170 848,-140 712,-140"/>
<text text-anchor="start" x="720" y="-158" font-family="Helvetica,sans-Serif" font-size="10.00">nlohmann::detail::binary</text>
<text text-anchor="middle" x="780" y="-147" font-family="Helvetica,sans-Serif" font-size="10.00">_reader::get</text>
</a>
</g>
</g>
<!-- Node1&#45;&gt;Node9 -->
<g id="edge10" class="edge">
<title>Node1&#45;&gt;Node9</title>
<path fill="none" stroke="midnightblue" d="M89.97,-181C108.37,-158.33 146.91,-116.25 191,-100 251.83,-77.57 497.84,-73.1 676,-112 698.51,-116.92 722.33,-126.54 741.39,-135.44"/>
<polygon fill="midnightblue" stroke="midnightblue" points="740.08,-138.7 750.61,-139.87 743.11,-132.38 740.08,-138.7"/>
</g>
<!-- Node10 -->
<g id="node10" class="node">
<title>Node10</title>
<g id="a_node10"><a xlink:href="classnlohmann_1_1detail_1_1binary__reader.html#ac3dc99d36754aa0beac506b30604a8ed" target="_top" xlink:title=" ">
<polygon fill="white" stroke="black" points="191.5,-110 191.5,-140 327.5,-140 327.5,-110 191.5,-110"/>
<text text-anchor="start" x="199.5" y="-128" font-family="Helvetica,sans-Serif" font-size="10.00">nlohmann::detail::binary</text>
<text text-anchor="middle" x="259.5" y="-117" font-family="Helvetica,sans-Serif" font-size="10.00">_reader::get_cbor_array</text>
</a>
</g>
</g>
<!-- Node1&#45;&gt;Node10 -->
<g id="edge11" class="edge">
<title>Node1&#45;&gt;Node10</title>
<path fill="none" stroke="midnightblue" d="M98.28,-180.81C118.55,-169.8 151.31,-155.63 181.93,-143.54"/>
<polygon fill="midnightblue" stroke="midnightblue" points="183.31,-146.76 191.35,-139.87 180.76,-140.24 183.31,-146.76"/>
</g>
<!-- Node11 -->
<g id="node11" class="node">
<title>Node11</title>
<g id="a_node11"><a xlink:href="classnlohmann_1_1detail_1_1binary__reader.html#a2fcc776cd2c7bb52bbc511e97d36978a" target="_top" xlink:title=" ">
<polygon fill="white" stroke="black" points="191,-159 191,-189 328,-189 328,-159 191,-159"/>
<text text-anchor="start" x="199" y="-177" font-family="Helvetica,sans-Serif" font-size="10.00">nlohmann::detail::binary</text>
<text text-anchor="middle" x="259.5" y="-166" font-family="Helvetica,sans-Serif" font-size="10.00">_reader::get_cbor_object</text>
</a>
</g>
</g>
<!-- Node1&#45;&gt;Node11 -->
<g id="edge14" class="edge">
<title>Node1&#45;&gt;Node11</title>
<path fill="none" stroke="midnightblue" d="M147.58,-180.97C158.43,-179.47 169.72,-178.06 180.75,-176.81"/>
<polygon fill="midnightblue" stroke="midnightblue" points="181.23,-180.28 190.79,-175.71 180.47,-173.32 181.23,-180.28"/>
</g>
<!-- Node12 -->
<g id="node12" class="node">
<title>Node12</title>
<g id="a_node12"><a xlink:href="classnlohmann_1_1detail_1_1binary__reader.html#acca76844160000e1d8215cb5c7afbba1" target="_top" xlink:title="reads a CBOR string">
<polygon fill="white" stroke="black" points="364,-247 364,-277 500,-277 500,-247 364,-247"/>
<text text-anchor="start" x="372" y="-265" font-family="Helvetica,sans-Serif" font-size="10.00">nlohmann::detail::binary</text>
<text text-anchor="middle" x="432" y="-254" font-family="Helvetica,sans-Serif" font-size="10.00">_reader::get_cbor_string</text>
</a>
</g>
</g>
<!-- Node1&#45;&gt;Node12 -->
<g id="edge31" class="edge">
<title>Node1&#45;&gt;Node12</title>
<path fill="none" stroke="midnightblue" d="M119.14,-211.02C140.31,-218.32 166.77,-226.66 191,-232 244.77,-243.86 306.42,-251.44 353.78,-256.01"/>
<polygon fill="midnightblue" stroke="midnightblue" points="353.68,-259.52 363.96,-256.97 354.34,-252.55 353.68,-259.52"/>
</g>
<!-- Node13 -->
<g id="node13" class="node">
<title>Node13</title>
<g id="a_node13"><a xlink:href="classnlohmann_1_1detail_1_1binary__reader.html#a161cda5919ea2436b7999c2a76656aba" target="_top" xlink:title=" ">
<polygon fill="white" stroke="black" points="538,-357 538,-387 674,-387 674,-357 538,-357"/>
<text text-anchor="start" x="546" y="-375" font-family="Helvetica,sans-Serif" font-size="10.00">nlohmann::detail::binary</text>
<text text-anchor="middle" x="606" y="-364" font-family="Helvetica,sans-Serif" font-size="10.00">_reader::get_number</text>
</a>
</g>
</g>
<!-- Node1&#45;&gt;Node13 -->
<g id="edge32" class="edge">
<title>Node1&#45;&gt;Node13</title>
<path fill="none" stroke="midnightblue" d="M103.22,-211.2C125.52,-224.42 159.57,-243.39 191,-256 305.11,-301.79 443.79,-336.68 528.17,-355.74"/>
<polygon fill="midnightblue" stroke="midnightblue" points="527.4,-359.16 537.93,-357.93 528.94,-352.32 527.4,-359.16"/>
</g>
<!-- Node14 -->
<g id="node14" class="node">
<title>Node14</title>
<g id="a_node14"><a xlink:href="classnlohmann_1_1detail_1_1binary__reader.html#a91dd7341d9d74c58866877ddfe58dd03" target="_top" xlink:title=" ">
<polygon fill="white" stroke="black" points="712,-335 712,-365 848,-365 848,-335 712,-335"/>
<text text-anchor="start" x="720" y="-353" font-family="Helvetica,sans-Serif" font-size="10.00">nlohmann::detail::binary</text>
<text text-anchor="middle" x="780" y="-342" font-family="Helvetica,sans-Serif" font-size="10.00">_reader::unexpect_eof</text>
</a>
</g>
</g>
<!-- Node1&#45;&gt;Node14 -->
<g id="edge34" class="edge">
<title>Node1&#45;&gt;Node14</title>
<path fill="none" stroke="midnightblue" d="M91.93,-211.02C111.66,-232.21 150.54,-270.78 191,-293 331.38,-370.08 377.56,-373.64 536,-397 597.56,-406.08 615.2,-410.22 676,-397 700.21,-391.74 725.55,-380.26 745.03,-369.97"/>
<polygon fill="midnightblue" stroke="midnightblue" points="746.71,-373.05 753.82,-365.2 743.37,-366.89 746.71,-373.05"/>
</g>
<!-- Node16 -->
<g id="node16" class="node">
<title>Node16</title>
<g id="a_node16"><a xlink:href="classnlohmann_1_1detail_1_1binary__reader.html#acf8d3f7b17efd05655fcb6f47a2eaa79" target="_top" xlink:title=" ">
<polygon fill="white" stroke="black" points="536,-143 536,-173 676,-173 676,-143 536,-143"/>
<text text-anchor="start" x="544" y="-161" font-family="Helvetica,sans-Serif" font-size="10.00">nlohmann::detail::binary</text>
<text text-anchor="middle" x="606" y="-150" font-family="Helvetica,sans-Serif" font-size="10.00">_reader::get_token_string</text>
</a>
</g>
</g>
<!-- Node1&#45;&gt;Node16 -->
<g id="edge33" class="edge">
<title>Node1&#45;&gt;Node16</title>
<path fill="none" stroke="midnightblue" d="M155.05,-197.54C167.08,-197.73 179.38,-197.9 191,-198 251.89,-198.54 267.27,-202.36 328,-198 395.07,-193.18 470.57,-181.88 525.79,-172.52"/>
<polygon fill="midnightblue" stroke="midnightblue" points="526.59,-175.93 535.86,-170.8 525.41,-169.03 526.59,-175.93"/>
</g>
<!-- Node4 -->
<g id="node4" class="node">
<title>Node4</title>
<g id="a_node4"><a xlink:href="classnlohmann_1_1detail_1_1exception.html#abf41a7e9178356314082284e6cfea278" target="_top" xlink:title=" ">
<polygon fill="white" stroke="black" points="1077,-176 1077,-206 1230,-206 1230,-176 1077,-176"/>
<text text-anchor="start" x="1085" y="-194" font-family="Helvetica,sans-Serif" font-size="10.00">nlohmann::detail::exception</text>
<text text-anchor="middle" x="1153.5" y="-183" font-family="Helvetica,sans-Serif" font-size="10.00">::name</text>
</a>
</g>
</g>
<!-- Node3&#45;&gt;Node4 -->
<g id="edge3" class="edge">
<title>Node3&#45;&gt;Node4</title>
<path fill="none" stroke="midnightblue" d="M1021.49,-224.97C1041.54,-219.77 1064.17,-213.9 1084.92,-208.52"/>
<polygon fill="midnightblue" stroke="midnightblue" points="1085.82,-211.9 1094.62,-206.01 1084.06,-205.13 1085.82,-211.9"/>
</g>
<!-- Node6 -->
<g id="node6" class="node">
<title>Node6</title>
<g id="a_node6"><a xlink:href="classnlohmann_1_1detail_1_1parse__error.html#a0ea816ea3521d7109407948cb1b850f7" target="_top" xlink:title=" ">
<polygon fill="white" stroke="black" points="1087.5,-274 1087.5,-304 1219.5,-304 1219.5,-274 1087.5,-274"/>
<text text-anchor="start" x="1095.5" y="-292" font-family="Helvetica,sans-Serif" font-size="10.00">nlohmann::detail::parse</text>
<text text-anchor="middle" x="1153.5" y="-281" font-family="Helvetica,sans-Serif" font-size="10.00">_error::parse_error</text>
</a>
</g>
</g>
<!-- Node3&#45;&gt;Node6 -->
<g id="edge5" class="edge">
<title>Node3&#45;&gt;Node6</title>
<path fill="none" stroke="midnightblue" d="M1021.49,-255.03C1041.54,-260.23 1064.17,-266.1 1084.92,-271.48"/>
<polygon fill="midnightblue" stroke="midnightblue" points="1084.06,-274.87 1094.62,-273.99 1085.82,-268.1 1084.06,-274.87"/>
</g>
<!-- Node7 -->
<g id="node7" class="node">
<title>Node7</title>
<g id="a_node7"><a xlink:href="classnlohmann_1_1detail_1_1parse__error.html#aefe74adeaa48781464ba2fd2ec63d221" target="_top" xlink:title=" ">
<polygon fill="white" stroke="black" points="1087.5,-225 1087.5,-255 1219.5,-255 1219.5,-225 1087.5,-225"/>
<text text-anchor="start" x="1095.5" y="-243" font-family="Helvetica,sans-Serif" font-size="10.00">nlohmann::detail::parse</text>
<text text-anchor="middle" x="1153.5" y="-232" font-family="Helvetica,sans-Serif" font-size="10.00">_error::position_string</text>
</a>
</g>
</g>
<!-- Node3&#45;&gt;Node7 -->
<g id="edge6" class="edge">
<title>Node3&#45;&gt;Node7</title>
<path fill="none" stroke="midnightblue" d="M1028.54,-240C1044.13,-240 1060.91,-240 1076.94,-240"/>
<polygon fill="midnightblue" stroke="midnightblue" points="1077.34,-243.5 1087.34,-240 1077.34,-236.5 1077.34,-243.5"/>
</g>
<!-- Node5 -->
<g id="node5" class="node">
<title>Node5</title>
<g id="a_node5"><a xlink:href="namespacehttplib.html#a498c3a79825ecbcb15c52ec5fcfd5c11" target="_top" xlink:title=" ">
<polygon fill="white" stroke="black" points="1266,-205.5 1266,-224.5 1363,-224.5 1363,-205.5 1266,-205.5"/>
<text text-anchor="middle" x="1314.5" y="-212.5" font-family="Helvetica,sans-Serif" font-size="10.00">httplib::to_string</text>
</a>
</g>
</g>
<!-- Node4&#45;&gt;Node5 -->
<g id="edge4" class="edge">
<title>Node4&#45;&gt;Node5</title>
<path fill="none" stroke="midnightblue" d="M1230.27,-202.44C1238.92,-203.74 1247.62,-205.06 1255.97,-206.32"/>
<polygon fill="midnightblue" stroke="midnightblue" points="1255.55,-209.79 1265.96,-207.82 1256.59,-202.87 1255.55,-209.79"/>
</g>
<!-- Node7&#45;&gt;Node5 -->
<g id="edge7" class="edge">
<title>Node7&#45;&gt;Node5</title>
<path fill="none" stroke="midnightblue" d="M1219.63,-229.76C1231.57,-227.88 1243.96,-225.93 1255.66,-224.09"/>
<polygon fill="midnightblue" stroke="midnightblue" points="1256.42,-227.52 1265.75,-222.51 1255.33,-220.6 1256.42,-227.52"/>
</g>
<!-- Node8&#45;&gt;Node2 -->
<g id="edge9" class="edge">
<title>Node8&#45;&gt;Node2</title>
<path fill="none" stroke="midnightblue" d="M1041.19,-455.92C1068.67,-460.14 1098.1,-464.65 1119.79,-467.98"/>
<polygon fill="midnightblue" stroke="midnightblue" points="1119.36,-471.46 1129.78,-469.51 1120.43,-464.54 1119.36,-471.46"/>
</g>
<!-- Node10&#45;&gt;Node1 -->
<g id="edge13" class="edge">
<title>Node10&#45;&gt;Node1</title>
<path fill="none" stroke="midnightblue" d="M237.11,-140.04C223.78,-145.89 206.31,-152.08 191,-158 175.3,-164.06 158.51,-170.89 142.81,-177.16"/>
<polygon fill="midnightblue" stroke="midnightblue" points="141.19,-174.04 133.19,-180.98 143.78,-180.54 141.19,-174.04"/>
</g>
<!-- Node10&#45;&gt;Node9 -->
<g id="edge12" class="edge">
<title>Node10&#45;&gt;Node9</title>
<path fill="none" stroke="midnightblue" d="M327.82,-119.58C410.33,-114.22 554.19,-109.03 676,-126 692.53,-128.3 710.15,-132.56 726.05,-137.12"/>
<polygon fill="midnightblue" stroke="midnightblue" points="725.12,-140.5 735.7,-139.98 727.11,-133.78 725.12,-140.5"/>
</g>
<!-- Node11&#45;&gt;Node1 -->
<g id="edge30" class="edge">
<title>Node11&#45;&gt;Node1</title>
<path fill="none" stroke="midnightblue" d="M190.8,-188.84C182.42,-190 173.77,-191.12 165.16,-192.15"/>
<polygon fill="midnightblue" stroke="midnightblue" points="164.63,-188.69 155.1,-193.32 165.43,-195.65 164.63,-188.69"/>
</g>
<!-- Node11&#45;&gt;Node9 -->
<g id="edge15" class="edge">
<title>Node11&#45;&gt;Node9</title>
<path fill="none" stroke="midnightblue" d="M327.45,-158.99C409.6,-142.52 553.1,-120.02 676,-133 686.79,-134.14 698.11,-135.93 709.14,-138.02"/>
<polygon fill="midnightblue" stroke="midnightblue" points="708.67,-141.49 719.16,-140 710.03,-134.62 708.67,-141.49"/>
</g>
<!-- Node11&#45;&gt;Node12 -->
<g id="edge16" class="edge">
<title>Node11&#45;&gt;Node12</title>
<path fill="none" stroke="midnightblue" d="M289.81,-189.13C318.2,-203.78 361.4,-226.08 392.54,-242.15"/>
<polygon fill="midnightblue" stroke="midnightblue" points="391.3,-245.45 401.79,-246.92 394.51,-239.23 391.3,-245.45"/>
</g>
<!-- Node12&#45;&gt;Node3 -->
<g id="edge17" class="edge">
<title>Node12&#45;&gt;Node3</title>
<path fill="none" stroke="midnightblue" d="M500.2,-259.2C599.08,-255.09 783.18,-247.42 886.39,-243.13"/>
<polygon fill="midnightblue" stroke="midnightblue" points="886.58,-246.62 896.42,-242.71 886.29,-239.63 886.58,-246.62"/>
</g>
<!-- Node12&#45;&gt;Node8 -->
<g id="edge18" class="edge">
<title>Node12&#45;&gt;Node8</title>
<path fill="none" stroke="midnightblue" d="M439.64,-277.42C453.08,-306.49 486.47,-369 536,-397 640.66,-456.17 782.95,-459.33 873.52,-453.63"/>
<polygon fill="midnightblue" stroke="midnightblue" points="874.02,-457.11 883.76,-452.94 873.55,-450.12 874.02,-457.11"/>
</g>
<!-- Node12&#45;&gt;Node9 -->
<g id="edge19" class="edge">
<title>Node12&#45;&gt;Node9</title>
<path fill="none" stroke="midnightblue" d="M474.43,-246.97C493.16,-240.32 515.62,-232.54 536,-226 596.1,-206.73 665.24,-186.74 714.37,-172.9"/>
<polygon fill="midnightblue" stroke="midnightblue" points="715.54,-176.2 724.22,-170.13 713.65,-169.46 715.54,-176.2"/>
</g>
<!-- Node12&#45;&gt;Node13 -->
<g id="edge20" class="edge">
<title>Node12&#45;&gt;Node13</title>
<path fill="none" stroke="midnightblue" d="M449.9,-277.29C469.55,-294.55 503.48,-322.71 536,-342 542.41,-345.8 549.39,-349.4 556.37,-352.69"/>
<polygon fill="midnightblue" stroke="midnightblue" points="555.28,-356.04 565.83,-356.99 558.18,-349.67 555.28,-356.04"/>
</g>
<!-- Node12&#45;&gt;Node14 -->
<g id="edge29" class="edge">
<title>Node12&#45;&gt;Node14</title>
<path fill="none" stroke="midnightblue" d="M460.64,-277.01C480.95,-287.44 509.5,-300.87 536,-309 590.23,-325.63 653.45,-336.03 701.82,-342.2"/>
<polygon fill="midnightblue" stroke="midnightblue" points="701.55,-345.69 711.91,-343.45 702.41,-338.74 701.55,-345.69"/>
</g>
<!-- Node15 -->
<g id="node15" class="node">
<title>Node15</title>
<g id="a_node15"><a xlink:href="classnlohmann_1_1detail_1_1binary__reader.html#a1f4b5da029a561c8711426b0a7316ec6" target="_top" xlink:title="create a string by reading characters from the input">
<polygon fill="white" stroke="black" points="538,-269 538,-299 674,-299 674,-269 538,-269"/>
<text text-anchor="start" x="546" y="-287" font-family="Helvetica,sans-Serif" font-size="10.00">nlohmann::detail::binary</text>
<text text-anchor="middle" x="606" y="-276" font-family="Helvetica,sans-Serif" font-size="10.00">_reader::get_string</text>
</a>
</g>
</g>
<!-- Node12&#45;&gt;Node15 -->
<g id="edge25" class="edge">
<title>Node12&#45;&gt;Node15</title>
<path fill="none" stroke="midnightblue" d="M500.49,-270.63C509.44,-271.78 518.68,-272.96 527.79,-274.12"/>
<polygon fill="midnightblue" stroke="midnightblue" points="527.63,-277.63 537.99,-275.43 528.52,-270.69 527.63,-277.63"/>
</g>
<!-- Node12&#45;&gt;Node16 -->
<g id="edge28" class="edge">
<title>Node12&#45;&gt;Node16</title>
<path fill="none" stroke="midnightblue" d="M474.73,-246.93C483.51,-242.79 492.41,-237.81 500,-232 520.07,-216.65 515.85,-203.24 536,-188 541.06,-184.17 546.68,-180.72 552.47,-177.63"/>
<polygon fill="midnightblue" stroke="midnightblue" points="554.24,-180.66 561.65,-173.09 551.14,-174.39 554.24,-180.66"/>
</g>
<!-- Node13&#45;&gt;Node9 -->
<g id="edge21" class="edge">
<title>Node13&#45;&gt;Node9</title>
<path fill="none" stroke="midnightblue" d="M626.02,-356.8C640.57,-344.68 660.67,-326.83 676,-309 712.49,-266.56 746.96,-210.67 765.3,-179.22"/>
<polygon fill="midnightblue" stroke="midnightblue" points="768.49,-180.69 770.46,-170.28 762.42,-177.19 768.49,-180.69"/>
</g>
<!-- Node13&#45;&gt;Node14 -->
<g id="edge22" class="edge">
<title>Node13&#45;&gt;Node14</title>
<path fill="none" stroke="midnightblue" d="M674.49,-363.37C683.44,-362.22 692.68,-361.04 701.79,-359.88"/>
<polygon fill="midnightblue" stroke="midnightblue" points="702.52,-363.31 711.99,-358.57 701.63,-356.37 702.52,-363.31"/>
</g>
<!-- Node14&#45;&gt;Node3 -->
<g id="edge23" class="edge">
<title>Node14&#45;&gt;Node3</title>
<path fill="none" stroke="midnightblue" d="M805.72,-334.94C837.5,-315.57 892.79,-281.88 928.23,-260.27"/>
<polygon fill="midnightblue" stroke="midnightblue" points="930.07,-263.25 936.79,-255.06 926.43,-257.27 930.07,-263.25"/>
</g>
<!-- Node14&#45;&gt;Node8 -->
<g id="edge24" class="edge">
<title>Node14&#45;&gt;Node8</title>
<path fill="none" stroke="midnightblue" d="M810,-365.1C840.79,-381.14 889.58,-406.55 923.44,-424.18"/>
<polygon fill="midnightblue" stroke="midnightblue" points="922.09,-427.42 932.57,-428.93 925.32,-421.21 922.09,-427.42"/>
</g>
<!-- Node15&#45;&gt;Node9 -->
<g id="edge26" class="edge">
<title>Node15&#45;&gt;Node9</title>
<path fill="none" stroke="midnightblue" d="M627.07,-268.95C657.54,-246.1 715.61,-202.54 750.46,-176.4"/>
<polygon fill="midnightblue" stroke="midnightblue" points="752.89,-178.95 758.79,-170.15 748.69,-173.35 752.89,-178.95"/>
</g>
<!-- Node15&#45;&gt;Node14 -->
<g id="edge27" class="edge">
<title>Node15&#45;&gt;Node14</title>
<path fill="none" stroke="midnightblue" d="M646.46,-299.14C671.37,-308.7 703.73,-321.12 730.25,-331.29"/>
<polygon fill="midnightblue" stroke="midnightblue" points="729.13,-334.61 739.72,-334.93 731.64,-328.08 729.13,-334.61"/>
</g>
</g>
</svg>
