<?xml version="1.0" encoding="UTF-8" standalone="no"?>
<!DOCTYPE svg PUBLIC "-//W3C//DTD SVG 1.1//EN"
 "http://www.w3.org/Graphics/SVG/1.1/DTD/svg11.dtd">
<!-- Generated by graphviz version 2.43.0 (0)
 -->
<!-- Title: nlohmann::detail::binary_writer::calc_bson_entry_header_size Pages: 1 -->
<svg width="623pt" height="102pt"
 viewBox="0.00 0.00 623.00 101.50" xmlns="http://www.w3.org/2000/svg" xmlns:xlink="http://www.w3.org/1999/xlink">
<g id="graph0" class="graph" transform="scale(1 1) rotate(0) translate(4 97.5)">
<title>nlohmann::detail::binary_writer::calc_bson_entry_header_size</title>
<polygon fill="white" stroke="transparent" points="-4,4 -4,-97.5 619,-97.5 619,4 -4,4"/>
<!-- Node1 -->
<g id="node1" class="node">
<title>Node1</title>
<g id="a_node1"><a xlink:title=" ">
<polygon fill="#bfbfbf" stroke="black" points="0,-11.5 0,-52.5 136,-52.5 136,-11.5 0,-11.5"/>
<text text-anchor="start" x="8" y="-40.5" font-family="Helvetica,sans-Serif" font-size="10.00">nlohmann::detail::binary</text>
<text text-anchor="start" x="8" y="-29.5" font-family="Helvetica,sans-Serif" font-size="10.00">_writer::calc_bson_entry</text>
<text text-anchor="middle" x="68" y="-18.5" font-family="Helvetica,sans-Serif" font-size="10.00">_header_size</text>
</a>
</g>
</g>
<!-- Node2 -->
<g id="node2" class="node">
<title>Node2</title>
<g id="a_node2"><a xlink:href="classnlohmann_1_1detail_1_1out__of__range.html#a3f6d82a6f967c4728a1ec735a7867073" target="_top" xlink:title=" ">
<polygon fill="white" stroke="black" points="172,-39 172,-69 293,-69 293,-39 172,-39"/>
<text text-anchor="start" x="180" y="-57" font-family="Helvetica,sans-Serif" font-size="10.00">nlohmann::detail::out</text>
<text text-anchor="middle" x="232.5" y="-46" font-family="Helvetica,sans-Serif" font-size="10.00">_of_range::create</text>
</a>
</g>
</g>
<!-- Node1&#45;&gt;Node2 -->
<g id="edge1" class="edge">
<title>Node1&#45;&gt;Node2</title>
<path fill="none" stroke="midnightblue" d="M136.03,-41.08C144.58,-42.23 153.34,-43.42 161.93,-44.58"/>
<polygon fill="midnightblue" stroke="midnightblue" points="161.52,-48.06 171.9,-45.93 162.46,-41.12 161.52,-48.06"/>
</g>
<!-- Node6 -->
<g id="node6" class="node">
<title>Node6</title>
<g id="a_node6"><a xlink:href="namespacenlohmann.html#ad675d1c22f5240b2b3065c241b204477" target="_top" xlink:title="user&#45;defined to_string function for JSON values">
<polygon fill="white" stroke="black" points="175.5,-0.5 175.5,-19.5 289.5,-19.5 289.5,-0.5 175.5,-0.5"/>
<text text-anchor="middle" x="232.5" y="-7.5" font-family="Helvetica,sans-Serif" font-size="10.00">nlohmann::to_string</text>
</a>
</g>
</g>
<!-- Node1&#45;&gt;Node6 -->
<g id="edge5" class="edge">
<title>Node1&#45;&gt;Node6</title>
<path fill="none" stroke="midnightblue" d="M136.03,-22.92C145.77,-21.61 155.78,-20.25 165.49,-18.94"/>
<polygon fill="midnightblue" stroke="midnightblue" points="166.04,-22.39 175.48,-17.58 165.1,-15.46 166.04,-22.39"/>
</g>
<!-- Node3 -->
<g id="node3" class="node">
<title>Node3</title>
<g id="a_node3"><a xlink:href="classnlohmann_1_1detail_1_1exception.html#abf41a7e9178356314082284e6cfea278" target="_top" xlink:title=" ">
<polygon fill="white" stroke="black" points="329,-63 329,-93 482,-93 482,-63 329,-63"/>
<text text-anchor="start" x="337" y="-81" font-family="Helvetica,sans-Serif" font-size="10.00">nlohmann::detail::exception</text>
<text text-anchor="middle" x="405.5" y="-70" font-family="Helvetica,sans-Serif" font-size="10.00">::name</text>
</a>
</g>
</g>
<!-- Node2&#45;&gt;Node3 -->
<g id="edge2" class="edge">
<title>Node2&#45;&gt;Node3</title>
<path fill="none" stroke="midnightblue" d="M293.31,-62.39C301.55,-63.55 310.13,-64.76 318.73,-65.96"/>
<polygon fill="midnightblue" stroke="midnightblue" points="318.4,-69.45 328.79,-67.37 319.38,-62.52 318.4,-69.45"/>
</g>
<!-- Node5 -->
<g id="node5" class="node">
<title>Node5</title>
<g id="a_node5"><a xlink:href="classnlohmann_1_1detail_1_1out__of__range.html#ab5fe402019dba957558499502f0fd731" target="_top" xlink:title=" ">
<polygon fill="white" stroke="black" points="338.5,-14 338.5,-44 472.5,-44 472.5,-14 338.5,-14"/>
<text text-anchor="start" x="346.5" y="-32" font-family="Helvetica,sans-Serif" font-size="10.00">nlohmann::detail::out</text>
<text text-anchor="middle" x="405.5" y="-21" font-family="Helvetica,sans-Serif" font-size="10.00">_of_range::out_of_range</text>
</a>
</g>
</g>
<!-- Node2&#45;&gt;Node5 -->
<g id="edge4" class="edge">
<title>Node2&#45;&gt;Node5</title>
<path fill="none" stroke="midnightblue" d="M293.31,-45.26C304.56,-43.61 316.46,-41.87 328.13,-40.17"/>
<polygon fill="midnightblue" stroke="midnightblue" points="328.92,-43.59 338.31,-38.68 327.91,-36.66 328.92,-43.59"/>
</g>
<!-- Node4 -->
<g id="node4" class="node">
<title>Node4</title>
<g id="a_node4"><a xlink:href="namespacehttplib.html#a498c3a79825ecbcb15c52ec5fcfd5c11" target="_top" xlink:title=" ">
<polygon fill="white" stroke="black" points="518,-68.5 518,-87.5 615,-87.5 615,-68.5 518,-68.5"/>
<text text-anchor="middle" x="566.5" y="-75.5" font-family="Helvetica,sans-Serif" font-size="10.00">httplib::to_string</text>
</a>
</g>
</g>
<!-- Node3&#45;&gt;Node4 -->
<g id="edge3" class="edge">
<title>Node3&#45;&gt;Node4</title>
<path fill="none" stroke="midnightblue" d="M482.27,-78C490.82,-78 499.43,-78 507.7,-78"/>
<polygon fill="midnightblue" stroke="midnightblue" points="507.96,-81.5 517.96,-78 507.96,-74.5 507.96,-81.5"/>
</g>
</g>
</svg>
