<?xml version="1.0" encoding="UTF-8" standalone="no"?>
<!DOCTYPE svg PUBLIC "-//W3C//DTD SVG 1.1//EN"
 "http://www.w3.org/Graphics/SVG/1.1/DTD/svg11.dtd">
<!-- Generated by graphviz version 2.43.0 (0)
 -->
<!-- Title: nlohmann::detail::json_sax_dom_callback_parser::null Pages: 1 -->
<svg width="447pt" height="50pt"
 viewBox="0.00 0.00 447.00 50.00" xmlns="http://www.w3.org/2000/svg" xmlns:xlink="http://www.w3.org/1999/xlink">
<g id="graph0" class="graph" transform="scale(1 1) rotate(0) translate(4 46)">
<title>nlohmann::detail::json_sax_dom_callback_parser::null</title>
<polygon fill="white" stroke="transparent" points="-4,4 -4,-46 443,-46 443,4 -4,4"/>
<!-- Node1 -->
<g id="node1" class="node">
<title>Node1</title>
<g id="a_node1"><a xlink:title=" ">
<polygon fill="#bfbfbf" stroke="black" points="0,-6 0,-36 172,-36 172,-6 0,-6"/>
<text text-anchor="start" x="8" y="-24" font-family="Helvetica,sans-Serif" font-size="10.00">nlohmann::detail::json</text>
<text text-anchor="middle" x="86" y="-13" font-family="Helvetica,sans-Serif" font-size="10.00">_sax_dom_callback_parser::null</text>
</a>
</g>
</g>
<!-- Node2 -->
<g id="node2" class="node">
<title>Node2</title>
<g id="a_node2"><a xlink:href="classnlohmann_1_1detail_1_1json__sax__dom__callback__parser.html#a875e678e20e75b37b93b80be78fe60e6" target="_top" xlink:title=" ">
<polygon fill="white" stroke="black" points="208,-0.5 208,-41.5 356,-41.5 356,-0.5 208,-0.5"/>
<text text-anchor="start" x="216" y="-29.5" font-family="Helvetica,sans-Serif" font-size="10.00">nlohmann::detail::json</text>
<text text-anchor="start" x="216" y="-18.5" font-family="Helvetica,sans-Serif" font-size="10.00">_sax_dom_callback_parser</text>
<text text-anchor="middle" x="282" y="-7.5" font-family="Helvetica,sans-Serif" font-size="10.00">::handle_value</text>
</a>
</g>
</g>
<!-- Node1&#45;&gt;Node2 -->
<g id="edge1" class="edge">
<title>Node1&#45;&gt;Node2</title>
<path fill="none" stroke="midnightblue" d="M172.09,-21C180.56,-21 189.15,-21 197.6,-21"/>
<polygon fill="midnightblue" stroke="midnightblue" points="197.82,-24.5 207.82,-21 197.82,-17.5 197.82,-24.5"/>
</g>
<!-- Node3 -->
<g id="node3" class="node">
<title>Node3</title>
<g id="a_node3"><a xlink:href="FuzzerTracePC_8cpp.html#a1f10ac78bd11294b612636121065eb5b" target="_top" xlink:title=" ">
<polygon fill="white" stroke="black" points="392,-11.5 392,-30.5 439,-30.5 439,-11.5 392,-11.5"/>
<text text-anchor="middle" x="415.5" y="-18.5" font-family="Helvetica,sans-Serif" font-size="10.00">assert</text>
</a>
</g>
</g>
<!-- Node2&#45;&gt;Node3 -->
<g id="edge2" class="edge">
<title>Node2&#45;&gt;Node3</title>
<path fill="none" stroke="midnightblue" d="M356.06,-21C365,-21 373.76,-21 381.66,-21"/>
<polygon fill="midnightblue" stroke="midnightblue" points="381.85,-24.5 391.85,-21 381.85,-17.5 381.85,-24.5"/>
</g>
</g>
</svg>
