<?xml version="1.0" encoding="UTF-8" standalone="no"?>
<!DOCTYPE svg PUBLIC "-//W3C//DTD SVG 1.1//EN"
 "http://www.w3.org/Graphics/SVG/1.1/DTD/svg11.dtd">
<!-- Generated by graphviz version 2.43.0 (0)
 -->
<!-- Title: nlohmann::basic_json::from_ubjson Pages: 1 -->
<svg width="529pt" height="39pt"
 viewBox="0.00 0.00 529.00 39.00" xmlns="http://www.w3.org/2000/svg" xmlns:xlink="http://www.w3.org/1999/xlink">
<g id="graph0" class="graph" transform="scale(1 1) rotate(0) translate(4 35)">
<title>nlohmann::basic_json::from_ubjson</title>
<polygon fill="white" stroke="transparent" points="-4,4 -4,-35 525,-35 525,4 -4,4"/>
<!-- Node1 -->
<g id="node1" class="node">
<title>Node1</title>
<g id="a_node1"><a xlink:title="create a JSON value from an input in UBJSON format">
<polygon fill="#bfbfbf" stroke="black" points="0,-0.5 0,-30.5 122,-30.5 122,-0.5 0,-0.5"/>
<text text-anchor="start" x="8" y="-18.5" font-family="Helvetica,sans-Serif" font-size="10.00">nlohmann::basic_json</text>
<text text-anchor="middle" x="61" y="-7.5" font-family="Helvetica,sans-Serif" font-size="10.00">::from_ubjson</text>
</a>
</g>
</g>
<!-- Node2 -->
<g id="node2" class="node">
<title>Node2</title>
<g id="a_node2"><a xlink:href="classnlohmann_1_1basic__json.html#aed115142bd0c6c66c864700e0467df55" target="_top" xlink:title="create an empty value with a given type">
<polygon fill="white" stroke="black" points="158,-0.5 158,-30.5 280,-30.5 280,-0.5 158,-0.5"/>
<text text-anchor="start" x="166" y="-18.5" font-family="Helvetica,sans-Serif" font-size="10.00">nlohmann::basic_json</text>
<text text-anchor="middle" x="219" y="-7.5" font-family="Helvetica,sans-Serif" font-size="10.00">::basic_json</text>
</a>
</g>
</g>
<!-- Node1&#45;&gt;Node2 -->
<g id="edge1" class="edge">
<title>Node1&#45;&gt;Node2</title>
<path fill="none" stroke="midnightblue" d="M122.31,-15.5C130.6,-15.5 139.17,-15.5 147.63,-15.5"/>
<polygon fill="midnightblue" stroke="midnightblue" points="147.85,-19 157.85,-15.5 147.85,-12 147.85,-19"/>
</g>
<!-- Node3 -->
<g id="node3" class="node">
<title>Node3</title>
<g id="a_node3"><a xlink:href="classnlohmann_1_1basic__json.html#a4a82d3fb7a111641decf35c2fb707c7f" target="_top" xlink:title="checks the class invariants">
<polygon fill="white" stroke="black" points="316,-0.5 316,-30.5 438,-30.5 438,-0.5 316,-0.5"/>
<text text-anchor="start" x="324" y="-18.5" font-family="Helvetica,sans-Serif" font-size="10.00">nlohmann::basic_json</text>
<text text-anchor="middle" x="377" y="-7.5" font-family="Helvetica,sans-Serif" font-size="10.00">::assert_invariant</text>
</a>
</g>
</g>
<!-- Node2&#45;&gt;Node3 -->
<g id="edge2" class="edge">
<title>Node2&#45;&gt;Node3</title>
<path fill="none" stroke="midnightblue" d="M280.31,-15.5C288.6,-15.5 297.17,-15.5 305.63,-15.5"/>
<polygon fill="midnightblue" stroke="midnightblue" points="305.85,-19 315.85,-15.5 305.85,-12 305.85,-19"/>
</g>
<!-- Node4 -->
<g id="node4" class="node">
<title>Node4</title>
<g id="a_node4"><a xlink:href="FuzzerTracePC_8cpp.html#a1f10ac78bd11294b612636121065eb5b" target="_top" xlink:title=" ">
<polygon fill="white" stroke="black" points="474,-6 474,-25 521,-25 521,-6 474,-6"/>
<text text-anchor="middle" x="497.5" y="-13" font-family="Helvetica,sans-Serif" font-size="10.00">assert</text>
</a>
</g>
</g>
<!-- Node3&#45;&gt;Node4 -->
<g id="edge3" class="edge">
<title>Node3&#45;&gt;Node4</title>
<path fill="none" stroke="midnightblue" d="M438.29,-15.5C447.02,-15.5 455.71,-15.5 463.62,-15.5"/>
<polygon fill="midnightblue" stroke="midnightblue" points="463.85,-19 473.85,-15.5 463.85,-12 463.85,-19"/>
</g>
</g>
</svg>
