<?xml version="1.0" encoding="UTF-8" standalone="no"?>
<!DOCTYPE svg PUBLIC "-//W3C//DTD SVG 1.1//EN"
 "http://www.w3.org/Graphics/SVG/1.1/DTD/svg11.dtd">
<!-- Generated by graphviz version 2.43.0 (0)
 -->
<!-- Title: fuzzer::DictionaryEntry::GetPositionHint Pages: 1 -->
<svg width="321pt" height="88pt"
 viewBox="0.00 0.00 321.00 88.00" xmlns="http://www.w3.org/2000/svg" xmlns:xlink="http://www.w3.org/1999/xlink">
<g id="graph0" class="graph" transform="scale(1 1) rotate(0) translate(4 84)">
<title>fuzzer::DictionaryEntry::GetPositionHint</title>
<polygon fill="white" stroke="transparent" points="-4,4 -4,-84 317,-84 317,4 -4,4"/>
<!-- Node1 -->
<g id="node1" class="node">
<title>Node1</title>
<g id="a_node1"><a xlink:title=" ">
<polygon fill="#bfbfbf" stroke="black" points="185,-24.5 185,-54.5 313,-54.5 313,-24.5 185,-24.5"/>
<text text-anchor="start" x="193" y="-42.5" font-family="Helvetica,sans-Serif" font-size="10.00">fuzzer::DictionaryEntry</text>
<text text-anchor="middle" x="249" y="-31.5" font-family="Helvetica,sans-Serif" font-size="10.00">::GetPositionHint</text>
</a>
</g>
</g>
<!-- Node2 -->
<g id="node2" class="node">
<title>Node2</title>
<g id="a_node2"><a xlink:href="classfuzzer_1_1MutationDispatcher.html#a90174d18a25d1e740795a75f26d60979" target="_top" xlink:title=" ">
<polygon fill="white" stroke="black" points="0,-49.5 0,-79.5 149,-79.5 149,-49.5 0,-49.5"/>
<text text-anchor="start" x="8" y="-67.5" font-family="Helvetica,sans-Serif" font-size="10.00">fuzzer::MutationDispatcher</text>
<text text-anchor="middle" x="74.5" y="-56.5" font-family="Helvetica,sans-Serif" font-size="10.00">::ApplyDictionaryEntry</text>
</a>
</g>
</g>
<!-- Node1&#45;&gt;Node2 -->
<g id="edge1" class="edge">
<title>Node1&#45;&gt;Node2</title>
<path fill="none" stroke="midnightblue" d="M174.61,-50.14C166.22,-51.35 157.66,-52.59 149.27,-53.81"/>
<polygon fill="midnightblue" stroke="midnightblue" points="175.35,-53.57 184.75,-48.67 174.35,-46.64 175.35,-53.57"/>
</g>
<!-- Node3 -->
<g id="node3" class="node">
<title>Node3</title>
<g id="a_node3"><a xlink:href="classfuzzer_1_1DictionaryEntry.html#a7b5d7ff5db0c5f0478df3c3787fa3e49" target="_top" xlink:title=" ">
<polygon fill="white" stroke="black" points="10.5,-0.5 10.5,-30.5 138.5,-30.5 138.5,-0.5 10.5,-0.5"/>
<text text-anchor="start" x="18.5" y="-18.5" font-family="Helvetica,sans-Serif" font-size="10.00">fuzzer::DictionaryEntry</text>
<text text-anchor="middle" x="74.5" y="-7.5" font-family="Helvetica,sans-Serif" font-size="10.00">::Print</text>
</a>
</g>
</g>
<!-- Node1&#45;&gt;Node3 -->
<g id="edge2" class="edge">
<title>Node1&#45;&gt;Node3</title>
<path fill="none" stroke="midnightblue" d="M174.78,-29.31C162.79,-27.65 150.46,-25.93 138.75,-24.3"/>
<polygon fill="midnightblue" stroke="midnightblue" points="174.36,-32.79 184.75,-30.7 175.32,-25.85 174.36,-32.79"/>
</g>
</g>
</svg>
