<?xml version="1.0" encoding="UTF-8" standalone="no"?>
<!DOCTYPE svg PUBLIC "-//W3C//DTD SVG 1.1//EN"
 "http://www.w3.org/Graphics/SVG/1.1/DTD/svg11.dtd">
<!-- Generated by graphviz version 2.43.0 (0)
 -->
<!-- Title: fuzzer::FixedWord::data Pages: 1 -->
<!--zoomable 624 -->
<svg id="main" version="1.1" xmlns="http://www.w3.org/2000/svg" xmlns:xlink="http://www.w3.org/1999/xlink" xml:space="preserve" onload="init(evt)">
<style type="text/css"><![CDATA[
.edge:hover path { stroke: red; }
.edge:hover polygon { stroke: red; fill: red; }
]]></style>
<script type="text/javascript"><![CDATA[
var edges = document.getElementsByTagName('g');
if (edges && edges.length) {
  for (var i=0;i<edges.length;i++) {
    if (edges[i].id.substr(0,4)=='edge') {
      edges[i].setAttribute('class','edge');
    }
  }
}
]]></script>
        <defs>
                <circle id="rim" cx="0" cy="0" r="7"/>
                <circle id="rim2" cx="0" cy="0" r="3.5"/>
                <g id="zoomPlus">
                        <use xlink:href="#rim" fill="#404040">
                                <set attributeName="fill" to="#808080" begin="zoomplus.mouseover" end="zoomplus.mouseout"/>
                        </use>
                        <path d="M-4,0h8M0,-4v8" fill="none" stroke="white" stroke-width="1.5" pointer-events="none"/>
                </g>
                <g id="zoomMin">
                        <use xlink:href="#rim" fill="#404040">
                                <set attributeName="fill" to="#808080" begin="zoomminus.mouseover" end="zoomminus.mouseout"/>
                        </use>
                        <path d="M-4,0h8" fill="none" stroke="white" stroke-width="1.5" pointer-events="none"/>
                </g>
                <g id="dirArrow">
                        <path fill="none" stroke="white" stroke-width="1.5" d="M0,-3.0v7 M-2.5,-0.5L0,-3.0L2.5,-0.5"/>
                </g>
               <g id="resetDef">
                       <use xlink:href="#rim2" fill="#404040">
                               <set attributeName="fill" to="#808080" begin="reset.mouseover" end="reset.mouseout"/>
                       </use>
               </g>
        </defs>

<script type="text/javascript">
var viewWidth = 1542;
var viewHeight = 624;
var sectionId = 'dynsection-1';
</script>
<script xlink:href="svgpan.js"/>
<svg id="graph" class="graph">
<g id="viewport">
<title>fuzzer::FixedWord::data</title>
<polygon fill="white" stroke="transparent" points="-4,4 -4,-620 1538,-620 1538,4 -4,4"/>
<!-- Node1 -->
<g id="node1" class="node">
<title>Node1</title>
<g id="a_node1"><a xlink:title=" ">
<polygon fill="#bfbfbf" stroke="black" points="1403,-341 1403,-360 1534,-360 1534,-341 1403,-341"/>
<text text-anchor="middle" x="1468.5" y="-348" font-family="Helvetica,sans-Serif" font-size="10.00">fuzzer::FixedWord::data</text>
</a>
</g>
</g>
<!-- Node2 -->
<g id="node2" class="node">
<title>Node2</title>
<g id="a_node2"><a xlink:href="classfuzzer_1_1MutationDispatcher.html#a90174d18a25d1e740795a75f26d60979" target="_top" xlink:title=" ">
<polygon fill="white" stroke="black" points="1218,-379.5 1218,-409.5 1367,-409.5 1367,-379.5 1218,-379.5"/>
<text text-anchor="start" x="1226" y="-397.5" font-family="Helvetica,sans-Serif" font-size="10.00">fuzzer::MutationDispatcher</text>
<text text-anchor="middle" x="1292.5" y="-386.5" font-family="Helvetica,sans-Serif" font-size="10.00">::ApplyDictionaryEntry</text>
</a>
</g>
</g>
<!-- Node1&#45;&gt;Node2 -->
<g id="edge1" class="edge">
<title>Node1&#45;&gt;Node2</title>
<path fill="none" stroke="midnightblue" d="M1419.94,-362.53C1399.3,-367.75 1374.91,-373.91 1353.08,-379.43"/>
<polygon fill="midnightblue" stroke="midnightblue" points="1420.91,-365.89 1429.74,-360.05 1419.19,-359.11 1420.91,-365.89"/>
</g>
<!-- Node3 -->
<g id="node3" class="node">
<title>Node3</title>
<g id="a_node3"><a xlink:href="classfuzzer_1_1DictionaryEntry.html#a7b5d7ff5db0c5f0478df3c3787fa3e49" target="_top" xlink:title=" ">
<polygon fill="white" stroke="black" points="1033.5,-368.5 1033.5,-398.5 1161.5,-398.5 1161.5,-368.5 1033.5,-368.5"/>
<text text-anchor="start" x="1041.5" y="-386.5" font-family="Helvetica,sans-Serif" font-size="10.00">fuzzer::DictionaryEntry</text>
<text text-anchor="middle" x="1097.5" y="-375.5" font-family="Helvetica,sans-Serif" font-size="10.00">::Print</text>
</a>
</g>
</g>
<!-- Node1&#45;&gt;Node3 -->
<g id="edge2" class="edge">
<title>Node1&#45;&gt;Node3</title>
<path fill="none" stroke="midnightblue" d="M1392.84,-355.93C1343.24,-359.67 1276.69,-364.96 1218,-370.5 1199.72,-372.23 1179.88,-374.3 1161.72,-376.28"/>
<polygon fill="midnightblue" stroke="midnightblue" points="1393.13,-359.42 1402.84,-355.18 1392.6,-352.44 1393.13,-359.42"/>
</g>
<!-- Node4 -->
<g id="node4" class="node">
<title>Node4</title>
<g id="a_node4"><a xlink:href="namespacefuzzer.html#a9745d98c9dbd0f6cf52f2a71ebf3f778" target="_top" xlink:title=" ">
<polygon fill="white" stroke="black" points="1242,-270 1242,-289 1343,-289 1343,-270 1242,-270"/>
<text text-anchor="middle" x="1292.5" y="-277" font-family="Helvetica,sans-Serif" font-size="10.00">fuzzer::PrintASCII</text>
</a>
</g>
</g>
<!-- Node1&#45;&gt;Node4 -->
<g id="edge3" class="edge">
<title>Node1&#45;&gt;Node4</title>
<path fill="none" stroke="midnightblue" d="M1434.44,-337.01C1400.06,-322.98 1347.13,-301.39 1316.87,-289.04"/>
<polygon fill="midnightblue" stroke="midnightblue" points="1433.45,-340.39 1444.03,-340.92 1436.1,-333.91 1433.45,-340.39"/>
</g>
<!-- Node4&#45;&gt;Node3 -->
<g id="edge32" class="edge">
<title>Node4&#45;&gt;Node3</title>
<path fill="none" stroke="midnightblue" d="M1271.35,-295.39C1250.07,-311.6 1215.09,-336.71 1182,-353.5 1171.01,-359.08 1158.74,-364.1 1147.05,-368.37"/>
<polygon fill="midnightblue" stroke="midnightblue" points="1273.54,-298.11 1279.32,-289.23 1269.27,-292.57 1273.54,-298.11"/>
</g>
<!-- Node5 -->
<g id="node5" class="node">
<title>Node5</title>
<g id="a_node5"><a xlink:href="classfuzzer_1_1Fuzzer.html#ac853911b596fa7f8d6f1bdbd0a748a0f" target="_top" xlink:title=" ">
<polygon fill="white" stroke="black" points="801,-430 801,-449 977,-449 977,-430 801,-430"/>
<text text-anchor="middle" x="889" y="-437" font-family="Helvetica,sans-Serif" font-size="10.00">fuzzer::Fuzzer::DumpCurrentUnit</text>
</a>
</g>
</g>
<!-- Node4&#45;&gt;Node5 -->
<g id="edge4" class="edge">
<title>Node4&#45;&gt;Node5</title>
<path fill="none" stroke="midnightblue" d="M1259.37,-292.8C1237.75,-301.44 1208.46,-312.53 1182,-320.5 1108.19,-342.73 1083.95,-329.36 1013,-359.5 968.69,-378.33 922.76,-412.96 901.76,-429.8"/>
<polygon fill="midnightblue" stroke="midnightblue" points="1260.77,-296.02 1268.73,-289.03 1258.15,-289.52 1260.77,-296.02"/>
</g>
<!-- Node28 -->
<g id="node28" class="node">
<title>Node28</title>
<g id="a_node28"><a xlink:href="namespacefuzzer.html#a7e24a690f67aa1e659944fdb93eb5dfb" target="_top" xlink:title=" ">
<polygon fill="white" stroke="black" points="1047,-292 1047,-311 1148,-311 1148,-292 1047,-292"/>
<text text-anchor="middle" x="1097.5" y="-299" font-family="Helvetica,sans-Serif" font-size="10.00">fuzzer::PrintASCII</text>
</a>
</g>
</g>
<!-- Node4&#45;&gt;Node28 -->
<g id="edge33" class="edge">
<title>Node4&#45;&gt;Node28</title>
<path fill="none" stroke="midnightblue" d="M1231.74,-286.31C1204.88,-289.37 1173.56,-292.94 1148.03,-295.85"/>
<polygon fill="midnightblue" stroke="midnightblue" points="1232.26,-289.78 1241.8,-285.17 1231.47,-282.82 1232.26,-289.78"/>
</g>
<!-- Node29 -->
<g id="node29" class="node">
<title>Node29</title>
<g id="a_node29"><a xlink:href="classfuzzer_1_1MutationDispatcher.html#a44df135b1a9bc2bd967cb1e536c36431" target="_top" xlink:title="Print the current sequence of mutations.">
<polygon fill="white" stroke="black" points="1023,-242.5 1023,-272.5 1172,-272.5 1172,-242.5 1023,-242.5"/>
<text text-anchor="start" x="1031" y="-260.5" font-family="Helvetica,sans-Serif" font-size="10.00">fuzzer::MutationDispatcher</text>
<text text-anchor="middle" x="1097.5" y="-249.5" font-family="Helvetica,sans-Serif" font-size="10.00">::PrintMutationSequence</text>
</a>
</g>
</g>
<!-- Node4&#45;&gt;Node29 -->
<g id="edge34" class="edge">
<title>Node4&#45;&gt;Node29</title>
<path fill="none" stroke="midnightblue" d="M1231.84,-272.7C1212.94,-270.55 1191.82,-268.14 1172.06,-265.89"/>
<polygon fill="midnightblue" stroke="midnightblue" points="1231.47,-276.18 1241.8,-273.83 1232.26,-269.22 1231.47,-276.18"/>
</g>
<!-- Node32 -->
<g id="node32" class="node">
<title>Node32</title>
<g id="a_node32"><a xlink:href="classfuzzer_1_1MutationDispatcher.html#a2846a7899fa59000aeaf909b8174f6a9" target="_top" xlink:title=" ">
<polygon fill="white" stroke="black" points="1013,-193.5 1013,-223.5 1182,-223.5 1182,-193.5 1013,-193.5"/>
<text text-anchor="start" x="1021" y="-211.5" font-family="Helvetica,sans-Serif" font-size="10.00">fuzzer::MutationDispatcher</text>
<text text-anchor="middle" x="1097.5" y="-200.5" font-family="Helvetica,sans-Serif" font-size="10.00">::PrintRecommendedDictionary</text>
</a>
</g>
</g>
<!-- Node4&#45;&gt;Node32 -->
<g id="edge39" class="edge">
<title>Node4&#45;&gt;Node32</title>
<path fill="none" stroke="midnightblue" d="M1260.99,-265.65C1239.21,-256.02 1209.1,-243.22 1182,-233.5 1172.31,-230.03 1161.88,-226.63 1151.78,-223.53"/>
<polygon fill="midnightblue" stroke="midnightblue" points="1259.81,-268.95 1270.36,-269.83 1262.65,-262.56 1259.81,-268.95"/>
</g>
<!-- Node33 -->
<g id="node33" class="node">
<title>Node33</title>
<g id="a_node33"><a xlink:href="classfuzzer_1_1TraceState.html#a7e610df0349a397e09d67a10c251dc07" target="_top" xlink:title=" ">
<polygon fill="white" stroke="black" points="1038,-144.5 1038,-174.5 1157,-174.5 1157,-144.5 1038,-144.5"/>
<text text-anchor="start" x="1046" y="-162.5" font-family="Helvetica,sans-Serif" font-size="10.00">fuzzer::TraceState</text>
<text text-anchor="middle" x="1097.5" y="-151.5" font-family="Helvetica,sans-Serif" font-size="10.00">::StopTraceRecording</text>
</a>
</g>
</g>
<!-- Node4&#45;&gt;Node33 -->
<g id="edge41" class="edge">
<title>Node4&#45;&gt;Node33</title>
<path fill="none" stroke="midnightblue" d="M1276.17,-262.32C1256.39,-241.13 1219.96,-205.38 1182,-184.5 1174.31,-180.27 1165.82,-176.67 1157.28,-173.64"/>
<polygon fill="midnightblue" stroke="midnightblue" points="1273.8,-264.91 1283.14,-269.92 1278.96,-260.18 1273.8,-264.91"/>
</g>
<!-- Node35 -->
<g id="node35" class="node">
<title>Node35</title>
<g id="a_node35"><a xlink:href="classfuzzer_1_1TraceState.html#a19ca7e78b3705def9767cef2d55d04ca" target="_top" xlink:title=" ">
<polygon fill="white" stroke="black" points="1029,-73.5 1029,-103.5 1166,-103.5 1166,-73.5 1029,-73.5"/>
<text text-anchor="start" x="1037" y="-91.5" font-family="Helvetica,sans-Serif" font-size="10.00">fuzzer::TraceState</text>
<text text-anchor="middle" x="1097.5" y="-80.5" font-family="Helvetica,sans-Serif" font-size="10.00">::TraceMemcmpCallback</text>
</a>
</g>
</g>
<!-- Node4&#45;&gt;Node35 -->
<g id="edge44" class="edge">
<title>Node4&#45;&gt;Node35</title>
<path fill="none" stroke="midnightblue" d="M1280.78,-260.83C1263.15,-231.36 1225.62,-173.5 1182,-135.5 1167.2,-122.61 1148.3,-111.61 1132.23,-103.51"/>
<polygon fill="midnightblue" stroke="midnightblue" points="1277.89,-262.82 1285.97,-269.67 1283.92,-259.27 1277.89,-262.82"/>
</g>
<!-- Node6 -->
<g id="node6" class="node">
<title>Node6</title>
<g id="a_node6"><a xlink:href="classfuzzer_1_1Fuzzer.html#a88dc9a27d88b016acd54fb8671cc5471" target="_top" xlink:title=" ">
<polygon fill="white" stroke="black" points="604,-582 604,-601 765,-601 765,-582 604,-582"/>
<text text-anchor="middle" x="684.5" y="-589" font-family="Helvetica,sans-Serif" font-size="10.00">fuzzer::Fuzzer::AlarmCallback</text>
</a>
</g>
</g>
<!-- Node5&#45;&gt;Node6 -->
<g id="edge5" class="edge">
<title>Node5&#45;&gt;Node6</title>
<path fill="none" stroke="midnightblue" d="M875,-457.24C854.48,-484.08 812.03,-534.98 765,-564.5 753.02,-572.02 738.71,-577.71 725.55,-581.89"/>
<polygon fill="midnightblue" stroke="midnightblue" points="877.89,-459.23 881.1,-449.13 872.29,-455.02 877.89,-459.23"/>
</g>
<!-- Node8 -->
<g id="node8" class="node">
<title>Node8</title>
<g id="a_node8"><a xlink:href="classfuzzer_1_1Fuzzer.html#a59da5344dd4a5419b5cc1782e98e08b9" target="_top" xlink:title=" ">
<polygon fill="white" stroke="black" points="604.5,-536 604.5,-555 764.5,-555 764.5,-536 604.5,-536"/>
<text text-anchor="middle" x="684.5" y="-543" font-family="Helvetica,sans-Serif" font-size="10.00">fuzzer::Fuzzer::CrashCallback</text>
</a>
</g>
</g>
<!-- Node5&#45;&gt;Node8 -->
<g id="edge7" class="edge">
<title>Node5&#45;&gt;Node8</title>
<path fill="none" stroke="midnightblue" d="M868.04,-455.52C844.58,-473.69 803.9,-503.16 765,-521.5 752.61,-527.34 738.47,-532.15 725.58,-535.89"/>
<polygon fill="midnightblue" stroke="midnightblue" points="870.44,-458.09 876.15,-449.16 866.12,-452.58 870.44,-458.09"/>
</g>
<!-- Node10 -->
<g id="node10" class="node">
<title>Node10</title>
<g id="a_node10"><a xlink:href="classfuzzer_1_1Fuzzer.html#a68e822e2cc64c153935b3a585219b0f7" target="_top" xlink:title=" ">
<polygon fill="white" stroke="black" points="604,-493 604,-512 765,-512 765,-493 604,-493"/>
<text text-anchor="middle" x="684.5" y="-500" font-family="Helvetica,sans-Serif" font-size="10.00">fuzzer::Fuzzer::DeathCallback</text>
</a>
</g>
</g>
<!-- Node5&#45;&gt;Node10 -->
<g id="edge9" class="edge">
<title>Node5&#45;&gt;Node10</title>
<path fill="none" stroke="midnightblue" d="M851.21,-452.32C826.85,-460.67 794.14,-471.62 765,-480.5 750.89,-484.8 735.27,-489.2 721.63,-492.93"/>
<polygon fill="midnightblue" stroke="midnightblue" points="852.46,-455.59 860.77,-449.03 850.18,-448.97 852.46,-455.59"/>
</g>
<!-- Node14 -->
<g id="node14" class="node">
<title>Node14</title>
<g id="a_node14"><a xlink:href="classfuzzer_1_1Fuzzer.html#aedd1fa002d658fbcc1e0870ae28c4489" target="_top" xlink:title=" ">
<polygon fill="white" stroke="black" points="606,-452 606,-471 763,-471 763,-452 606,-452"/>
<text text-anchor="middle" x="684.5" y="-459" font-family="Helvetica,sans-Serif" font-size="10.00">fuzzer::Fuzzer::HandleMalloc</text>
</a>
</g>
</g>
<!-- Node5&#45;&gt;Node14 -->
<g id="edge13" class="edge">
<title>Node5&#45;&gt;Node14</title>
<path fill="none" stroke="midnightblue" d="M790.9,-450.05C781.62,-451.06 772.29,-452.07 763.22,-453.06"/>
<polygon fill="midnightblue" stroke="midnightblue" points="791.38,-453.52 800.95,-448.96 790.63,-446.56 791.38,-453.52"/>
</g>
<!-- Node16 -->
<g id="node16" class="node">
<title>Node16</title>
<g id="a_node16"><a xlink:href="classfuzzer_1_1Fuzzer.html#aaff2d6a9892349f851f17dd3f0da5ac0" target="_top" xlink:title=" ">
<polygon fill="white" stroke="black" points="618.5,-402.5 618.5,-432.5 750.5,-432.5 750.5,-402.5 618.5,-402.5"/>
<text text-anchor="start" x="626.5" y="-420.5" font-family="Helvetica,sans-Serif" font-size="10.00">fuzzer::Fuzzer::RssLimit</text>
<text text-anchor="middle" x="684.5" y="-409.5" font-family="Helvetica,sans-Serif" font-size="10.00">Callback</text>
</a>
</g>
</g>
<!-- Node5&#45;&gt;Node16 -->
<g id="edge16" class="edge">
<title>Node5&#45;&gt;Node16</title>
<path fill="none" stroke="midnightblue" d="M790.64,-428.92C777.12,-427.45 763.51,-425.97 750.77,-424.59"/>
<polygon fill="midnightblue" stroke="midnightblue" points="790.63,-432.44 800.95,-430.04 791.38,-425.48 790.63,-432.44"/>
</g>
<!-- Node21 -->
<g id="node21" class="node">
<title>Node21</title>
<g id="a_node21"><a xlink:href="classfuzzer_1_1Fuzzer.html#a7b4edc3276350436fe6ed3f4200b0226" target="_top" xlink:title=" ">
<polygon fill="white" stroke="black" points="608.5,-317.5 608.5,-347.5 760.5,-347.5 760.5,-317.5 608.5,-317.5"/>
<text text-anchor="start" x="616.5" y="-335.5" font-family="Helvetica,sans-Serif" font-size="10.00">fuzzer::Fuzzer::TryDetecting</text>
<text text-anchor="middle" x="684.5" y="-324.5" font-family="Helvetica,sans-Serif" font-size="10.00">AMemoryLeak</text>
</a>
</g>
</g>
<!-- Node5&#45;&gt;Node21 -->
<g id="edge21" class="edge">
<title>Node5&#45;&gt;Node21</title>
<path fill="none" stroke="midnightblue" d="M860.65,-425.05C822.39,-404.83 753.22,-368.28 714.24,-347.68"/>
<polygon fill="midnightblue" stroke="midnightblue" points="859.2,-428.24 869.67,-429.82 862.47,-422.05 859.2,-428.24"/>
</g>
<!-- Node7 -->
<g id="node7" class="node">
<title>Node7</title>
<g id="a_node7"><a xlink:href="classfuzzer_1_1Fuzzer.html#a8e5cc850a9e02c0650f196981ced0b78" target="_top" xlink:title=" ">
<polygon fill="white" stroke="black" points="421,-585.5 421,-615.5 568,-615.5 568,-585.5 421,-585.5"/>
<text text-anchor="start" x="429" y="-603.5" font-family="Helvetica,sans-Serif" font-size="10.00">fuzzer::Fuzzer::StaticAlarm</text>
<text text-anchor="middle" x="494.5" y="-592.5" font-family="Helvetica,sans-Serif" font-size="10.00">Callback</text>
</a>
</g>
</g>
<!-- Node6&#45;&gt;Node7 -->
<g id="edge6" class="edge">
<title>Node6&#45;&gt;Node7</title>
<path fill="none" stroke="midnightblue" d="M593.75,-595.8C585.18,-596.21 576.57,-596.62 568.19,-597.02"/>
<polygon fill="midnightblue" stroke="midnightblue" points="593.95,-599.29 603.77,-595.32 593.62,-592.3 593.95,-599.29"/>
</g>
<!-- Node9 -->
<g id="node9" class="node">
<title>Node9</title>
<g id="a_node9"><a xlink:href="classfuzzer_1_1Fuzzer.html#a53ec06c88c7260710d7c7fcae14bf568" target="_top" xlink:title=" ">
<polygon fill="white" stroke="black" points="421.5,-536.5 421.5,-566.5 567.5,-566.5 567.5,-536.5 421.5,-536.5"/>
<text text-anchor="start" x="429.5" y="-554.5" font-family="Helvetica,sans-Serif" font-size="10.00">fuzzer::Fuzzer::StaticCrash</text>
<text text-anchor="middle" x="494.5" y="-543.5" font-family="Helvetica,sans-Serif" font-size="10.00">SignalCallback</text>
</a>
</g>
</g>
<!-- Node8&#45;&gt;Node9 -->
<g id="edge8" class="edge">
<title>Node8&#45;&gt;Node9</title>
<path fill="none" stroke="midnightblue" d="M594.3,-548.35C585.39,-548.63 576.42,-548.92 567.71,-549.2"/>
<polygon fill="midnightblue" stroke="midnightblue" points="594.43,-551.84 604.32,-548.03 594.21,-544.85 594.43,-551.84"/>
</g>
<!-- Node11 -->
<g id="node11" class="node">
<title>Node11</title>
<g id="a_node11"><a xlink:href="classfuzzer_1_1Fuzzer.html#a7de4a6effa071db473a5008a5ec24147" target="_top" xlink:title=" ">
<polygon fill="white" stroke="black" points="421,-487.5 421,-517.5 568,-517.5 568,-487.5 421,-487.5"/>
<text text-anchor="start" x="429" y="-505.5" font-family="Helvetica,sans-Serif" font-size="10.00">fuzzer::Fuzzer::StaticDeath</text>
<text text-anchor="middle" x="494.5" y="-494.5" font-family="Helvetica,sans-Serif" font-size="10.00">Callback</text>
</a>
</g>
</g>
<!-- Node10&#45;&gt;Node11 -->
<g id="edge10" class="edge">
<title>Node10&#45;&gt;Node11</title>
<path fill="none" stroke="midnightblue" d="M593.75,-502.5C585.18,-502.5 576.57,-502.5 568.19,-502.5"/>
<polygon fill="midnightblue" stroke="midnightblue" points="593.77,-506 603.77,-502.5 593.77,-499 593.77,-506"/>
</g>
<!-- Node12 -->
<g id="node12" class="node">
<title>Node12</title>
<g id="a_node12"><a xlink:href="classfuzzer_1_1Fuzzer.html#acc39f35d54c3d1dd17f108aba6fab3f8" target="_top" xlink:title=" ">
<polygon fill="white" stroke="black" points="242.5,-487.5 242.5,-517.5 377.5,-517.5 377.5,-487.5 242.5,-487.5"/>
<text text-anchor="start" x="250.5" y="-505.5" font-family="Helvetica,sans-Serif" font-size="10.00">fuzzer::Fuzzer::SetDeath</text>
<text text-anchor="middle" x="310" y="-494.5" font-family="Helvetica,sans-Serif" font-size="10.00">Callback</text>
</a>
</g>
</g>
<!-- Node11&#45;&gt;Node12 -->
<g id="edge11" class="edge">
<title>Node11&#45;&gt;Node12</title>
<path fill="none" stroke="midnightblue" d="M410.77,-502.5C399.72,-502.5 388.51,-502.5 377.78,-502.5"/>
<polygon fill="midnightblue" stroke="midnightblue" points="410.85,-506 420.85,-502.5 410.85,-499 410.85,-506"/>
</g>
<!-- Node13 -->
<g id="node13" class="node">
<title>Node13</title>
<g id="a_node13"><a xlink:href="classfuzzer_1_1Fuzzer.html#a582438623b355f23604ebcd6150134c1" target="_top" xlink:title=" ">
<polygon fill="white" stroke="black" points="77,-471 77,-490 199,-490 199,-471 77,-471"/>
<text text-anchor="middle" x="138" y="-478" font-family="Helvetica,sans-Serif" font-size="10.00">fuzzer::Fuzzer::Fuzzer</text>
</a>
</g>
</g>
<!-- Node12&#45;&gt;Node13 -->
<g id="edge12" class="edge">
<title>Node12&#45;&gt;Node13</title>
<path fill="none" stroke="midnightblue" d="M232.2,-492.56C221.11,-491.13 209.84,-489.67 199.15,-488.28"/>
<polygon fill="midnightblue" stroke="midnightblue" points="231.93,-496.06 242.3,-493.87 232.83,-489.11 231.93,-496.06"/>
</g>
<!-- Node15 -->
<g id="node15" class="node">
<title>Node15</title>
<g id="a_node15"><a xlink:href="namespacefuzzer.html#aad4c2b706565c818bd1990536895c23e" target="_top" xlink:title=" ">
<polygon fill="white" stroke="black" points="255,-449 255,-468 365,-468 365,-449 255,-449"/>
<text text-anchor="middle" x="310" y="-456" font-family="Helvetica,sans-Serif" font-size="10.00">fuzzer::MallocHook</text>
</a>
</g>
</g>
<!-- Node14&#45;&gt;Node15 -->
<g id="edge14" class="edge">
<title>Node14&#45;&gt;Node15</title>
<path fill="none" stroke="midnightblue" d="M595.52,-460.79C524.01,-460.22 425.41,-459.42 365.05,-458.94"/>
<polygon fill="midnightblue" stroke="midnightblue" points="595.84,-464.29 605.87,-460.87 595.89,-457.29 595.84,-464.29"/>
</g>
<!-- Node15&#45;&gt;Node13 -->
<g id="edge15" class="edge">
<title>Node15&#45;&gt;Node13</title>
<path fill="none" stroke="midnightblue" d="M244.6,-466.83C229.71,-468.76 213.93,-470.8 199.23,-472.71"/>
<polygon fill="midnightblue" stroke="midnightblue" points="245.28,-470.28 254.74,-465.52 244.38,-463.33 245.28,-470.28"/>
</g>
<!-- Node17 -->
<g id="node17" class="node">
<title>Node17</title>
<g id="a_node17"><a xlink:href="namespacefuzzer.html#a337a224a0611ab37c60131e5b1a77b36" target="_top" xlink:title=" ">
<polygon fill="white" stroke="black" points="442.5,-411 442.5,-430 546.5,-430 546.5,-411 442.5,-411"/>
<text text-anchor="middle" x="494.5" y="-418" font-family="Helvetica,sans-Serif" font-size="10.00">fuzzer::RssThread</text>
</a>
</g>
</g>
<!-- Node16&#45;&gt;Node17 -->
<g id="edge17" class="edge">
<title>Node16&#45;&gt;Node17</title>
<path fill="none" stroke="midnightblue" d="M608.25,-418.7C587.58,-419.03 565.65,-419.38 546.68,-419.68"/>
<polygon fill="midnightblue" stroke="midnightblue" points="608.33,-422.2 618.27,-418.54 608.22,-415.2 608.33,-422.2"/>
</g>
<!-- Node18 -->
<g id="node18" class="node">
<title>Node18</title>
<g id="a_node18"><a xlink:href="namespacefuzzer.html#a4bfbc9d0a9eed57d8f8992c16746d8f6" target="_top" xlink:title=" ">
<polygon fill="white" stroke="black" points="246.5,-411 246.5,-430 373.5,-430 373.5,-411 246.5,-411"/>
<text text-anchor="middle" x="310" y="-418" font-family="Helvetica,sans-Serif" font-size="10.00">fuzzer::StartRssThread</text>
</a>
</g>
</g>
<!-- Node17&#45;&gt;Node18 -->
<g id="edge18" class="edge">
<title>Node17&#45;&gt;Node18</title>
<path fill="none" stroke="midnightblue" d="M431.95,-420.5C413.16,-420.5 392.48,-420.5 373.61,-420.5"/>
<polygon fill="midnightblue" stroke="midnightblue" points="432.18,-424 442.18,-420.5 432.18,-417 432.18,-424"/>
</g>
<!-- Node19 -->
<g id="node19" class="node">
<title>Node19</title>
<g id="a_node19"><a xlink:href="namespacefuzzer.html#a78f142089de84c6cbf7b5cab5f766af7" target="_top" xlink:title=" ">
<polygon fill="white" stroke="black" points="81,-323 81,-342 195,-342 195,-323 81,-323"/>
<text text-anchor="middle" x="138" y="-330" font-family="Helvetica,sans-Serif" font-size="10.00">fuzzer::FuzzerDriver</text>
</a>
</g>
</g>
<!-- Node18&#45;&gt;Node19 -->
<g id="edge19" class="edge">
<title>Node18&#45;&gt;Node19</title>
<path fill="none" stroke="midnightblue" d="M251.51,-408.02C245.83,-406.11 240.23,-403.95 235,-401.5 200.79,-385.51 166.16,-356.86 149.39,-342.01"/>
<polygon fill="midnightblue" stroke="midnightblue" points="250.52,-411.38 261.11,-410.99 252.59,-404.69 250.52,-411.38"/>
</g>
<!-- Node20 -->
<g id="node20" class="node">
<title>Node20</title>
<g id="a_node20"><a xlink:href="FuzzerMain_8cpp.html#a3c04138a5bfe5d72780bb7e82a18e627" target="_top" xlink:title=" ">
<polygon fill="white" stroke="black" points="0,-323 0,-342 41,-342 41,-323 0,-323"/>
<text text-anchor="middle" x="20.5" y="-330" font-family="Helvetica,sans-Serif" font-size="10.00">main</text>
</a>
</g>
</g>
<!-- Node19&#45;&gt;Node20 -->
<g id="edge20" class="edge">
<title>Node19&#45;&gt;Node20</title>
<path fill="none" stroke="midnightblue" d="M70.94,-332.5C60.13,-332.5 49.71,-332.5 41.24,-332.5"/>
<polygon fill="midnightblue" stroke="midnightblue" points="70.94,-336 80.94,-332.5 70.94,-329 70.94,-336"/>
</g>
<!-- Node22 -->
<g id="node22" class="node">
<title>Node22</title>
<g id="a_node22"><a xlink:href="classfuzzer_1_1Fuzzer.html#a54326d89b0de8eb858c70dfa78c5cc57" target="_top" xlink:title=" ">
<polygon fill="white" stroke="black" points="427,-361.5 427,-391.5 562,-391.5 562,-361.5 427,-361.5"/>
<text text-anchor="start" x="435" y="-379.5" font-family="Helvetica,sans-Serif" font-size="10.00">fuzzer::Fuzzer::Minimize</text>
<text text-anchor="middle" x="494.5" y="-368.5" font-family="Helvetica,sans-Serif" font-size="10.00">CrashLoop</text>
</a>
</g>
</g>
<!-- Node21&#45;&gt;Node22 -->
<g id="edge22" class="edge">
<title>Node21&#45;&gt;Node22</title>
<path fill="none" stroke="midnightblue" d="M609.25,-349.88C592.87,-353.71 575.65,-357.74 559.7,-361.47"/>
<polygon fill="midnightblue" stroke="midnightblue" points="610.39,-353.21 619.33,-347.52 608.79,-346.39 610.39,-353.21"/>
</g>
<!-- Node24 -->
<g id="node24" class="node">
<title>Node24</title>
<g id="a_node24"><a xlink:href="classfuzzer_1_1Fuzzer.html#a9c3b80798ae30570306d7f938961dec3" target="_top" xlink:title=" ">
<polygon fill="white" stroke="black" points="423,-235.5 423,-265.5 566,-265.5 566,-235.5 423,-235.5"/>
<text text-anchor="start" x="431" y="-253.5" font-family="Helvetica,sans-Serif" font-size="10.00">fuzzer::Fuzzer::MutateAnd</text>
<text text-anchor="middle" x="494.5" y="-242.5" font-family="Helvetica,sans-Serif" font-size="10.00">TestOne</text>
</a>
</g>
</g>
<!-- Node21&#45;&gt;Node24 -->
<g id="edge25" class="edge">
<title>Node21&#45;&gt;Node24</title>
<path fill="none" stroke="midnightblue" d="M641.44,-313.19C619.6,-303.26 592.44,-291.06 568,-280.5 556.5,-275.53 543.9,-270.26 532.47,-265.54"/>
<polygon fill="midnightblue" stroke="midnightblue" points="640.21,-316.48 650.76,-317.44 643.11,-310.11 640.21,-316.48"/>
</g>
<!-- Node26 -->
<g id="node26" class="node">
<title>Node26</title>
<g id="a_node26"><a xlink:href="namespacefuzzer.html#a1fe190c22f9575ec572ce81d57c7e483" target="_top" xlink:title=" ">
<polygon fill="white" stroke="black" points="255,-323 255,-342 365,-342 365,-323 255,-323"/>
<text text-anchor="middle" x="310" y="-330" font-family="Helvetica,sans-Serif" font-size="10.00">fuzzer::RunOneTest</text>
</a>
</g>
</g>
<!-- Node21&#45;&gt;Node26 -->
<g id="edge28" class="edge">
<title>Node21&#45;&gt;Node26</title>
<path fill="none" stroke="midnightblue" d="M597.76,-332.5C526.12,-332.5 426.16,-332.5 365.16,-332.5"/>
<polygon fill="midnightblue" stroke="midnightblue" points="598.12,-336 608.12,-332.5 598.12,-329 598.12,-336"/>
</g>
<!-- Node27 -->
<g id="node27" class="node">
<title>Node27</title>
<g id="a_node27"><a xlink:href="classfuzzer_1_1Fuzzer.html#a368fcca328a7e72c500caf081227f7ef" target="_top" xlink:title=" ">
<polygon fill="white" stroke="black" points="238.5,-273.5 238.5,-303.5 381.5,-303.5 381.5,-273.5 238.5,-273.5"/>
<text text-anchor="start" x="246.5" y="-291.5" font-family="Helvetica,sans-Serif" font-size="10.00">fuzzer::Fuzzer::ShuffleAnd</text>
<text text-anchor="middle" x="310" y="-280.5" font-family="Helvetica,sans-Serif" font-size="10.00">Minimize</text>
</a>
</g>
</g>
<!-- Node21&#45;&gt;Node27 -->
<g id="edge30" class="edge">
<title>Node21&#45;&gt;Node27</title>
<path fill="none" stroke="midnightblue" d="M597.81,-322.38C532.27,-314.64 442.99,-304.09 381.54,-296.83"/>
<polygon fill="midnightblue" stroke="midnightblue" points="597.78,-325.9 608.12,-323.6 598.6,-318.95 597.78,-325.9"/>
</g>
<!-- Node23 -->
<g id="node23" class="node">
<title>Node23</title>
<g id="a_node23"><a xlink:href="namespacefuzzer.html#a1553a49adb4d4d19b4f4dd52ff54cb68" target="_top" xlink:title=" ">
<polygon fill="white" stroke="black" points="235,-361.5 235,-391.5 385,-391.5 385,-361.5 235,-361.5"/>
<text text-anchor="start" x="243" y="-379.5" font-family="Helvetica,sans-Serif" font-size="10.00">fuzzer::MinimizeCrashInput</text>
<text text-anchor="middle" x="310" y="-368.5" font-family="Helvetica,sans-Serif" font-size="10.00">InternalStep</text>
</a>
</g>
</g>
<!-- Node22&#45;&gt;Node23 -->
<g id="edge23" class="edge">
<title>Node22&#45;&gt;Node23</title>
<path fill="none" stroke="midnightblue" d="M416.56,-376.5C406.17,-376.5 395.53,-376.5 385.19,-376.5"/>
<polygon fill="midnightblue" stroke="midnightblue" points="416.84,-380 426.84,-376.5 416.84,-373 416.84,-380"/>
</g>
<!-- Node23&#45;&gt;Node19 -->
<g id="edge24" class="edge">
<title>Node23&#45;&gt;Node19</title>
<path fill="none" stroke="midnightblue" d="M241.19,-358.95C218.85,-353.17 194.87,-346.96 175.75,-342.01"/>
<polygon fill="midnightblue" stroke="midnightblue" points="240.41,-362.36 250.97,-361.48 242.17,-355.59 240.41,-362.36"/>
</g>
<!-- Node25 -->
<g id="node25" class="node">
<title>Node25</title>
<g id="a_node25"><a xlink:href="classfuzzer_1_1Fuzzer.html#a0306e29f06ced3d24ed0417ea2fef34b" target="_top" xlink:title=" ">
<polygon fill="white" stroke="black" points="253.5,-235 253.5,-254 366.5,-254 366.5,-235 253.5,-235"/>
<text text-anchor="middle" x="310" y="-242" font-family="Helvetica,sans-Serif" font-size="10.00">fuzzer::Fuzzer::Loop</text>
</a>
</g>
</g>
<!-- Node24&#45;&gt;Node25 -->
<g id="edge26" class="edge">
<title>Node24&#45;&gt;Node25</title>
<path fill="none" stroke="midnightblue" d="M412.79,-247.85C397.21,-247.33 381.22,-246.81 366.66,-246.33"/>
<polygon fill="midnightblue" stroke="midnightblue" points="412.83,-251.35 422.94,-248.18 413.06,-244.35 412.83,-251.35"/>
</g>
<!-- Node25&#45;&gt;Node19 -->
<g id="edge27" class="edge">
<title>Node25&#45;&gt;Node19</title>
<path fill="none" stroke="midnightblue" d="M253.5,-257.19C247.14,-259.32 240.85,-261.75 235,-264.5 201.19,-280.42 166.66,-308.33 149.72,-322.95"/>
<polygon fill="midnightblue" stroke="midnightblue" points="254.97,-260.4 263.48,-254.09 252.9,-253.71 254.97,-260.4"/>
</g>
<!-- Node26&#45;&gt;Node19 -->
<g id="edge29" class="edge">
<title>Node26&#45;&gt;Node19</title>
<path fill="none" stroke="midnightblue" d="M244.74,-332.5C228.4,-332.5 210.97,-332.5 195.08,-332.5"/>
<polygon fill="midnightblue" stroke="midnightblue" points="244.74,-336 254.74,-332.5 244.74,-329 244.74,-336"/>
</g>
<!-- Node27&#45;&gt;Node19 -->
<g id="edge31" class="edge">
<title>Node27&#45;&gt;Node19</title>
<path fill="none" stroke="midnightblue" d="M241.19,-306.05C218.85,-311.83 194.87,-318.04 175.75,-322.99"/>
<polygon fill="midnightblue" stroke="midnightblue" points="242.17,-309.41 250.97,-303.52 240.41,-302.64 242.17,-309.41"/>
</g>
<!-- Node29&#45;&gt;Node5 -->
<g id="edge35" class="edge">
<title>Node29&#45;&gt;Node5</title>
<path fill="none" stroke="midnightblue" d="M1022.13,-277.01C1018.96,-278.7 1015.9,-280.52 1013,-282.5 953.21,-323.28 909.07,-402.12 894.87,-429.69"/>
<polygon fill="midnightblue" stroke="midnightblue" points="1023.78,-280.1 1031.3,-272.63 1020.77,-273.79 1023.78,-280.1"/>
</g>
<!-- Node30 -->
<g id="node30" class="node">
<title>Node30</title>
<g id="a_node30"><a xlink:href="classfuzzer_1_1Fuzzer.html#ac7f5f2abe2e381509015eae6bb588410" target="_top" xlink:title=" ">
<polygon fill="white" stroke="black" points="817.5,-240.5 817.5,-270.5 960.5,-270.5 960.5,-240.5 817.5,-240.5"/>
<text text-anchor="start" x="825.5" y="-258.5" font-family="Helvetica,sans-Serif" font-size="10.00">fuzzer::Fuzzer::PrintStatus</text>
<text text-anchor="middle" x="889" y="-247.5" font-family="Helvetica,sans-Serif" font-size="10.00">ForNewUnit</text>
</a>
</g>
</g>
<!-- Node29&#45;&gt;Node30 -->
<g id="edge36" class="edge">
<title>Node29&#45;&gt;Node30</title>
<path fill="none" stroke="midnightblue" d="M1012.73,-256.69C995.41,-256.52 977.33,-256.35 960.53,-256.18"/>
<polygon fill="midnightblue" stroke="midnightblue" points="1012.79,-260.19 1022.82,-256.79 1012.86,-253.19 1012.79,-260.19"/>
</g>
<!-- Node31 -->
<g id="node31" class="node">
<title>Node31</title>
<g id="a_node31"><a xlink:href="classfuzzer_1_1Fuzzer.html#a26b0af99479a986f0b3c67950085adf1" target="_top" xlink:title=" ">
<polygon fill="white" stroke="black" points="612.5,-238.5 612.5,-268.5 756.5,-268.5 756.5,-238.5 612.5,-238.5"/>
<text text-anchor="start" x="620.5" y="-256.5" font-family="Helvetica,sans-Serif" font-size="10.00">fuzzer::Fuzzer::ReportNew</text>
<text text-anchor="middle" x="684.5" y="-245.5" font-family="Helvetica,sans-Serif" font-size="10.00">Coverage</text>
</a>
</g>
</g>
<!-- Node30&#45;&gt;Node31 -->
<g id="edge37" class="edge">
<title>Node30&#45;&gt;Node31</title>
<path fill="none" stroke="midnightblue" d="M807.2,-254.7C790.54,-254.54 773.11,-254.37 756.82,-254.2"/>
<polygon fill="midnightblue" stroke="midnightblue" points="807.43,-258.2 817.46,-254.8 807.49,-251.2 807.43,-258.2"/>
</g>
<!-- Node31&#45;&gt;Node24 -->
<g id="edge38" class="edge">
<title>Node31&#45;&gt;Node24</title>
<path fill="none" stroke="midnightblue" d="M602.36,-252.21C590.27,-252.01 577.9,-251.81 566.05,-251.63"/>
<polygon fill="midnightblue" stroke="midnightblue" points="602.37,-255.71 612.43,-252.37 602.48,-248.71 602.37,-255.71"/>
</g>
<!-- Node32&#45;&gt;Node25 -->
<g id="edge40" class="edge">
<title>Node32&#45;&gt;Node25</title>
<path fill="none" stroke="midnightblue" d="M1002.45,-206.99C871.72,-205.81 627.82,-206.91 421,-226.5 401.06,-228.39 379.26,-231.69 360.37,-234.96"/>
<polygon fill="midnightblue" stroke="midnightblue" points="1002.79,-210.5 1012.82,-207.09 1002.86,-203.5 1002.79,-210.5"/>
</g>
<!-- Node34 -->
<g id="node34" class="node">
<title>Node34</title>
<g id="a_node34"><a xlink:href="classfuzzer_1_1Fuzzer.html#a6e90e1017376db8debf0658f03cda9dc" target="_top" xlink:title=" ">
<polygon fill="white" stroke="black" points="820,-147.5 820,-177.5 958,-177.5 958,-147.5 820,-147.5"/>
<text text-anchor="start" x="828" y="-165.5" font-family="Helvetica,sans-Serif" font-size="10.00">fuzzer::Fuzzer::StopTrace</text>
<text text-anchor="middle" x="889" y="-154.5" font-family="Helvetica,sans-Serif" font-size="10.00">Recording</text>
</a>
</g>
</g>
<!-- Node33&#45;&gt;Node34 -->
<g id="edge42" class="edge">
<title>Node33&#45;&gt;Node34</title>
<path fill="none" stroke="midnightblue" d="M1027.79,-160.5C1005.42,-160.82 980.6,-161.18 958.26,-161.51"/>
<polygon fill="midnightblue" stroke="midnightblue" points="1027.93,-164 1037.88,-160.35 1027.83,-157 1027.93,-164"/>
</g>
<!-- Node34&#45;&gt;Node24 -->
<g id="edge43" class="edge">
<title>Node34&#45;&gt;Node24</title>
<path fill="none" stroke="midnightblue" d="M811,-179.76C738.66,-195.98 631.5,-220.01 562.58,-235.46"/>
<polygon fill="midnightblue" stroke="midnightblue" points="811.98,-183.13 820.97,-177.53 810.45,-176.3 811.98,-183.13"/>
</g>
<!-- Node36 -->
<g id="node36" class="node">
<title>Node36</title>
<g id="a_node36"><a xlink:href="FuzzerTraceState_8cpp.html#a43228990e9e44e88d4b3243252e40ad3" target="_top" xlink:title=" ">
<polygon fill="white" stroke="black" points="824,-98.5 824,-128.5 954,-128.5 954,-98.5 824,-98.5"/>
<text text-anchor="start" x="832" y="-116.5" font-family="Helvetica,sans-Serif" font-size="10.00">__sanitizer_weak_hook</text>
<text text-anchor="middle" x="889" y="-105.5" font-family="Helvetica,sans-Serif" font-size="10.00">_memcmp</text>
</a>
</g>
</g>
<!-- Node35&#45;&gt;Node36 -->
<g id="edge45" class="edge">
<title>Node35&#45;&gt;Node36</title>
<path fill="none" stroke="midnightblue" d="M1018.89,-97.9C997.59,-100.47 974.73,-103.24 954.26,-105.72"/>
<polygon fill="midnightblue" stroke="midnightblue" points="1019.38,-101.36 1028.88,-96.69 1018.54,-94.41 1019.38,-101.36"/>
</g>
<!-- Node37 -->
<g id="node37" class="node">
<title>Node37</title>
<g id="a_node37"><a xlink:href="FuzzerTraceState_8cpp.html#ae558ebb8cef5368c10d9def8c101e865" target="_top" xlink:title=" ">
<polygon fill="white" stroke="black" points="824,-49.5 824,-79.5 954,-79.5 954,-49.5 824,-49.5"/>
<text text-anchor="start" x="832" y="-67.5" font-family="Helvetica,sans-Serif" font-size="10.00">__sanitizer_weak_hook</text>
<text text-anchor="middle" x="889" y="-56.5" font-family="Helvetica,sans-Serif" font-size="10.00">_strcmp</text>
</a>
</g>
</g>
<!-- Node35&#45;&gt;Node37 -->
<g id="edge46" class="edge">
<title>Node35&#45;&gt;Node37</title>
<path fill="none" stroke="midnightblue" d="M1018.89,-79.48C997.59,-77 974.73,-74.35 954.26,-71.97"/>
<polygon fill="midnightblue" stroke="midnightblue" points="1018.55,-82.96 1028.88,-80.64 1019.36,-76.01 1018.55,-82.96"/>
</g>
<!-- Node39 -->
<g id="node39" class="node">
<title>Node39</title>
<g id="a_node39"><a xlink:href="FuzzerTraceState_8cpp.html#a000b7fe9a111a8b501ddef439f95e065" target="_top" xlink:title=" ">
<polygon fill="white" stroke="black" points="824,-0.5 824,-30.5 954,-30.5 954,-0.5 824,-0.5"/>
<text text-anchor="start" x="832" y="-18.5" font-family="Helvetica,sans-Serif" font-size="10.00">__sanitizer_weak_hook</text>
<text text-anchor="middle" x="889" y="-7.5" font-family="Helvetica,sans-Serif" font-size="10.00">_strncmp</text>
</a>
</g>
</g>
<!-- Node35&#45;&gt;Node39 -->
<g id="edge48" class="edge">
<title>Node35&#45;&gt;Node39</title>
<path fill="none" stroke="midnightblue" d="M1053.62,-69.46C1031.07,-59.81 1002.81,-48.32 977,-39.5 967.81,-36.36 957.96,-33.33 948.32,-30.55"/>
<polygon fill="midnightblue" stroke="midnightblue" points="1052.35,-72.72 1062.92,-73.46 1055.12,-66.29 1052.35,-72.72"/>
</g>
<!-- Node38 -->
<g id="node38" class="node">
<title>Node38</title>
<g id="a_node38"><a xlink:href="FuzzerTraceState_8cpp.html#aaf41cc0658e4eed506755faed029c2a9" target="_top" xlink:title=" ">
<polygon fill="white" stroke="black" points="619.5,-49.5 619.5,-79.5 749.5,-79.5 749.5,-49.5 619.5,-49.5"/>
<text text-anchor="start" x="627.5" y="-67.5" font-family="Helvetica,sans-Serif" font-size="10.00">__sanitizer_weak_hook</text>
<text text-anchor="middle" x="684.5" y="-56.5" font-family="Helvetica,sans-Serif" font-size="10.00">_strcasecmp</text>
</a>
</g>
</g>
<!-- Node37&#45;&gt;Node38 -->
<g id="edge47" class="edge">
<title>Node37&#45;&gt;Node38</title>
<path fill="none" stroke="midnightblue" d="M813.74,-64.5C792.66,-64.5 769.91,-64.5 749.5,-64.5"/>
<polygon fill="midnightblue" stroke="midnightblue" points="813.93,-68 823.93,-64.5 813.93,-61 813.93,-68"/>
</g>
<!-- Node40 -->
<g id="node40" class="node">
<title>Node40</title>
<g id="a_node40"><a xlink:href="FuzzerTraceState_8cpp.html#a289014feb172a9f61b9b19638cd3795a" target="_top" xlink:title=" ">
<polygon fill="white" stroke="black" points="619.5,-0.5 619.5,-30.5 749.5,-30.5 749.5,-0.5 619.5,-0.5"/>
<text text-anchor="start" x="627.5" y="-18.5" font-family="Helvetica,sans-Serif" font-size="10.00">__sanitizer_weak_hook</text>
<text text-anchor="middle" x="684.5" y="-7.5" font-family="Helvetica,sans-Serif" font-size="10.00">_strncasecmp</text>
</a>
</g>
</g>
<!-- Node39&#45;&gt;Node40 -->
<g id="edge49" class="edge">
<title>Node39&#45;&gt;Node40</title>
<path fill="none" stroke="midnightblue" d="M813.74,-15.5C792.66,-15.5 769.91,-15.5 749.5,-15.5"/>
<polygon fill="midnightblue" stroke="midnightblue" points="813.93,-19 823.93,-15.5 813.93,-12 813.93,-19"/>
</g>
</g>
</svg>
        <g id="navigator" transform="translate(0 0)" fill="#404254">
                <rect fill="#f2f5e9" fill-opacity="0.5" stroke="#606060" stroke-width=".5" x="0" y="0" width="60" height="60"/>
                <use id="zoomplus" xlink:href="#zoomPlus" x="17" y="9" onmousedown="handleZoom(evt,'in')"/>
                <use id="zoomminus" xlink:href="#zoomMin" x="42" y="9" onmousedown="handleZoom(evt,'out')"/>
                <use id="reset" xlink:href="#resetDef" x="30" y="36" onmousedown="handleReset()"/>
                <g id="arrowUp" xlink:href="#dirArrow" transform="translate(30 24)" onmousedown="handlePan(0,-1)">
                  <use xlink:href="#rim" fill="#404040">
                        <set attributeName="fill" to="#808080" begin="arrowUp.mouseover" end="arrowUp.mouseout"/>
                  </use>
                  <path fill="none" stroke="white" stroke-width="1.5" d="M0,-3.0v7 M-2.5,-0.5L0,-3.0L2.5,-0.5"/>
                </g>
                <g id="arrowRight" xlink:href="#dirArrow" transform="rotate(90) translate(36 -43)" onmousedown="handlePan(1,0)">
                  <use xlink:href="#rim" fill="#404040">
                        <set attributeName="fill" to="#808080" begin="arrowRight.mouseover" end="arrowRight.mouseout"/>
                  </use>
                  <path fill="none" stroke="white" stroke-width="1.5" d="M0,-3.0v7 M-2.5,-0.5L0,-3.0L2.5,-0.5"/>
                </g>
                <g id="arrowDown" xlink:href="#dirArrow" transform="rotate(180) translate(-30 -48)" onmousedown="handlePan(0,1)">
                  <use xlink:href="#rim" fill="#404040">
                        <set attributeName="fill" to="#808080" begin="arrowDown.mouseover" end="arrowDown.mouseout"/>
                  </use>
                  <path fill="none" stroke="white" stroke-width="1.5" d="M0,-3.0v7 M-2.5,-0.5L0,-3.0L2.5,-0.5"/>
                </g>
                <g id="arrowLeft" xlink:href="#dirArrow" transform="rotate(270) translate(-36 17)" onmousedown="handlePan(-1,0)">
                  <use xlink:href="#rim" fill="#404040">
                        <set attributeName="fill" to="#808080" begin="arrowLeft.mouseover" end="arrowLeft.mouseout"/>
                  </use>
                  <path fill="none" stroke="white" stroke-width="1.5" d="M0,-3.0v7 M-2.5,-0.5L0,-3.0L2.5,-0.5"/>
                </g>
        </g>
        <svg viewBox="0 0 15 15" width="100%" height="30px" preserveAspectRatio="xMaxYMin meet">
         <g id="arrow_out" transform="scale(0.3 0.3)">
          <a xlink:href="classfuzzer_1_1FixedWord_a14fbd18b5b0868f5d7f2d50a85d0b09e_icgraph_org.svg" target="_base">
           <rect id="button" ry="5" rx="5" y="6" x="6" height="38" width="38"
                fill="#f2f5e9" fill-opacity="0.5" stroke="#606060" stroke-width="1.0"/>
           <path id="arrow"
             d="M 11.500037,31.436501 C 11.940474,20.09759 22.043105,11.32322 32.158766,21.979434 L 37.068811,17.246167 C 37.068811,17.246167 37.088388,32 37.088388,32 L 22.160133,31.978069 C 22.160133,31.978069 26.997745,27.140456 26.997745,27.140456 C 18.528582,18.264221 13.291696,25.230495 11.500037,31.436501 z"
             style="fill:#404040;"/>
          </a>
         </g>
        </svg>
</svg>
