<?xml version="1.0" encoding="UTF-8" standalone="no"?>
<!DOCTYPE svg PUBLIC "-//W3C//DTD SVG 1.1//EN"
 "http://www.w3.org/Graphics/SVG/1.1/DTD/svg11.dtd">
<!-- Generated by graphviz version 2.43.0 (0)
 -->
<!-- Title: K3sPodUsageCommand::Execute Pages: 1 -->
<!--zoomable 126 -->
<svg id="main" version="1.1" xmlns="http://www.w3.org/2000/svg" xmlns:xlink="http://www.w3.org/1999/xlink" xml:space="preserve" onload="init(evt)">
<style type="text/css"><![CDATA[
.edge:hover path { stroke: red; }
.edge:hover polygon { stroke: red; fill: red; }
]]></style>
<script type="text/javascript"><![CDATA[
var edges = document.getElementsByTagName('g');
if (edges && edges.length) {
  for (var i=0;i<edges.length;i++) {
    if (edges[i].id.substr(0,4)=='edge') {
      edges[i].setAttribute('class','edge');
    }
  }
}
]]></script>
        <defs>
                <circle id="rim" cx="0" cy="0" r="7"/>
                <circle id="rim2" cx="0" cy="0" r="3.5"/>
                <g id="zoomPlus">
                        <use xlink:href="#rim" fill="#404040">
                                <set attributeName="fill" to="#808080" begin="zoomplus.mouseover" end="zoomplus.mouseout"/>
                        </use>
                        <path d="M-4,0h8M0,-4v8" fill="none" stroke="white" stroke-width="1.5" pointer-events="none"/>
                </g>
                <g id="zoomMin">
                        <use xlink:href="#rim" fill="#404040">
                                <set attributeName="fill" to="#808080" begin="zoomminus.mouseover" end="zoomminus.mouseout"/>
                        </use>
                        <path d="M-4,0h8" fill="none" stroke="white" stroke-width="1.5" pointer-events="none"/>
                </g>
                <g id="dirArrow">
                        <path fill="none" stroke="white" stroke-width="1.5" d="M0,-3.0v7 M-2.5,-0.5L0,-3.0L2.5,-0.5"/>
                </g>
               <g id="resetDef">
                       <use xlink:href="#rim2" fill="#404040">
                               <set attributeName="fill" to="#808080" begin="reset.mouseover" end="reset.mouseout"/>
                       </use>
               </g>
        </defs>

<script type="text/javascript">
var viewWidth = 682;
var viewHeight = 126;
var sectionId = 'dynsection-2';
</script>
<script xlink:href="svgpan.js"/>
<svg id="graph" class="graph">
<g id="viewport">
<title>K3sPodUsageCommand::Execute</title>
<polygon fill="white" stroke="transparent" points="-4,4 -4,-122 678,-122 678,4 -4,4"/>
<!-- Node1 -->
<g id="node1" class="node">
<title>Node1</title>
<g id="a_node1"><a xlink:title=" ">
<polygon fill="#bfbfbf" stroke="black" points="0,-55 0,-85 134,-85 134,-55 0,-55"/>
<text text-anchor="start" x="8" y="-73" font-family="Helvetica,sans-Serif" font-size="10.00">K3sPodUsageCommand</text>
<text text-anchor="middle" x="67" y="-62" font-family="Helvetica,sans-Serif" font-size="10.00">::Execute</text>
</a>
</g>
</g>
<!-- Node2 -->
<g id="node2" class="node">
<title>Node2</title>
<g id="a_node2"><a xlink:href="classDatabaseHandler.html#adeab68dd7c2fc86b2195bdf874174a25" target="_top" xlink:title="Add data to the database.">
<polygon fill="white" stroke="black" points="178.5,-98.5 178.5,-117.5 327.5,-117.5 327.5,-98.5 178.5,-98.5"/>
<text text-anchor="middle" x="253" y="-105.5" font-family="Helvetica,sans-Serif" font-size="10.00">DatabaseHandler::AddData</text>
</a>
</g>
</g>
<!-- Node1&#45;&gt;Node2 -->
<g id="edge1" class="edge">
<title>Node1&#45;&gt;Node2</title>
<path fill="none" stroke="midnightblue" d="M134.17,-83.67C154.44,-87.85 176.52,-92.41 196.04,-96.44"/>
<polygon fill="midnightblue" stroke="midnightblue" points="195.49,-99.9 205.99,-98.5 196.9,-93.05 195.49,-99.9"/>
</g>
<!-- Node3 -->
<g id="node3" class="node">
<title>Node3</title>
<g id="a_node3"><a xlink:href="classDatabaseHandler.html#aeb2cfac9504d4c44c6f23a87cb06b75a" target="_top" xlink:title="Get the singleton instance of the DatabaseHandler class.">
<polygon fill="white" stroke="black" points="170,-60.5 170,-79.5 336,-79.5 336,-60.5 170,-60.5"/>
<text text-anchor="middle" x="253" y="-67.5" font-family="Helvetica,sans-Serif" font-size="10.00">DatabaseHandler::GetInstance</text>
</a>
</g>
</g>
<!-- Node1&#45;&gt;Node3 -->
<g id="edge2" class="edge">
<title>Node1&#45;&gt;Node3</title>
<path fill="none" stroke="midnightblue" d="M134.17,-70C142.46,-70 151.06,-70 159.66,-70"/>
<polygon fill="midnightblue" stroke="midnightblue" points="159.75,-73.5 169.75,-70 159.75,-66.5 159.75,-73.5"/>
</g>
<!-- Node4 -->
<g id="node4" class="node">
<title>Node4</title>
<g id="a_node4"><a xlink:href="classDatabaseHandler.html#a51bb2f3e9a4c847e65fdccab307a542c" target="_top" xlink:title="Read the data from the database.">
<polygon fill="white" stroke="black" points="175.5,-22.5 175.5,-41.5 330.5,-41.5 330.5,-22.5 175.5,-22.5"/>
<text text-anchor="middle" x="253" y="-29.5" font-family="Helvetica,sans-Serif" font-size="10.00">DatabaseHandler::ReadData</text>
</a>
</g>
</g>
<!-- Node1&#45;&gt;Node4 -->
<g id="edge3" class="edge">
<title>Node1&#45;&gt;Node4</title>
<path fill="none" stroke="midnightblue" d="M134.17,-56.33C154.44,-52.15 176.52,-47.59 196.04,-43.56"/>
<polygon fill="midnightblue" stroke="midnightblue" points="196.9,-46.95 205.99,-41.5 195.49,-40.1 196.9,-46.95"/>
</g>
<!-- Node5 -->
<g id="node5" class="node">
<title>Node5</title>
<g id="a_node5"><a xlink:href="classnlohmann_1_1basic__json.html#a9286acdc0578fc66e9346323e69fc0e3" target="_top" xlink:title="check the existence of an element in a JSON object">
<polygon fill="white" stroke="black" points="383,-39 383,-69 505,-69 505,-39 383,-39"/>
<text text-anchor="start" x="391" y="-57" font-family="Helvetica,sans-Serif" font-size="10.00">nlohmann::basic_json</text>
<text text-anchor="middle" x="444" y="-46" font-family="Helvetica,sans-Serif" font-size="10.00">::contains</text>
</a>
</g>
</g>
<!-- Node4&#45;&gt;Node5 -->
<g id="edge4" class="edge">
<title>Node4&#45;&gt;Node5</title>
<path fill="none" stroke="midnightblue" d="M330.6,-40.92C344.46,-42.53 358.86,-44.21 372.53,-45.8"/>
<polygon fill="midnightblue" stroke="midnightblue" points="372.49,-49.32 382.83,-47 373.3,-42.36 372.49,-49.32"/>
</g>
<!-- Node7 -->
<g id="node7" class="node">
<title>Node7</title>
<g id="a_node7"><a xlink:href="classnlohmann_1_1basic__json.html#a6b187a22994c12c8cae0dd5ee99dc85e" target="_top" xlink:title="get special&#45;case overload">
<polygon fill="white" stroke="black" points="372,-0.5 372,-19.5 516,-19.5 516,-0.5 372,-0.5"/>
<text text-anchor="middle" x="444" y="-7.5" font-family="Helvetica,sans-Serif" font-size="10.00">nlohmann::basic_json::get</text>
</a>
</g>
</g>
<!-- Node4&#45;&gt;Node7 -->
<g id="edge6" class="edge">
<title>Node4&#45;&gt;Node7</title>
<path fill="none" stroke="midnightblue" d="M330.6,-23.08C340.81,-21.9 351.3,-20.67 361.59,-19.48"/>
<polygon fill="midnightblue" stroke="midnightblue" points="362.26,-22.92 371.79,-18.29 361.45,-15.97 362.26,-22.92"/>
</g>
<!-- Node6 -->
<g id="node6" class="node">
<title>Node6</title>
<g id="a_node6"><a xlink:href="classnlohmann_1_1basic__json.html#af8f511af124e82e4579f444b4175787c" target="_top" xlink:title="return whether value is an object">
<polygon fill="white" stroke="black" points="552,-39 552,-69 674,-69 674,-39 552,-39"/>
<text text-anchor="start" x="560" y="-57" font-family="Helvetica,sans-Serif" font-size="10.00">nlohmann::basic_json</text>
<text text-anchor="middle" x="613" y="-46" font-family="Helvetica,sans-Serif" font-size="10.00">::is_object</text>
</a>
</g>
</g>
<!-- Node5&#45;&gt;Node6 -->
<g id="edge5" class="edge">
<title>Node5&#45;&gt;Node6</title>
<path fill="none" stroke="midnightblue" d="M505.29,-54C517.12,-54 529.61,-54 541.73,-54"/>
<polygon fill="midnightblue" stroke="midnightblue" points="541.8,-57.5 551.8,-54 541.8,-50.5 541.8,-57.5"/>
</g>
</g>
</svg>
        <g id="navigator" transform="translate(0 0)" fill="#404254">
                <rect fill="#f2f5e9" fill-opacity="0.5" stroke="#606060" stroke-width=".5" x="0" y="0" width="60" height="60"/>
                <use id="zoomplus" xlink:href="#zoomPlus" x="17" y="9" onmousedown="handleZoom(evt,'in')"/>
                <use id="zoomminus" xlink:href="#zoomMin" x="42" y="9" onmousedown="handleZoom(evt,'out')"/>
                <use id="reset" xlink:href="#resetDef" x="30" y="36" onmousedown="handleReset()"/>
                <g id="arrowUp" xlink:href="#dirArrow" transform="translate(30 24)" onmousedown="handlePan(0,-1)">
                  <use xlink:href="#rim" fill="#404040">
                        <set attributeName="fill" to="#808080" begin="arrowUp.mouseover" end="arrowUp.mouseout"/>
                  </use>
                  <path fill="none" stroke="white" stroke-width="1.5" d="M0,-3.0v7 M-2.5,-0.5L0,-3.0L2.5,-0.5"/>
                </g>
                <g id="arrowRight" xlink:href="#dirArrow" transform="rotate(90) translate(36 -43)" onmousedown="handlePan(1,0)">
                  <use xlink:href="#rim" fill="#404040">
                        <set attributeName="fill" to="#808080" begin="arrowRight.mouseover" end="arrowRight.mouseout"/>
                  </use>
                  <path fill="none" stroke="white" stroke-width="1.5" d="M0,-3.0v7 M-2.5,-0.5L0,-3.0L2.5,-0.5"/>
                </g>
                <g id="arrowDown" xlink:href="#dirArrow" transform="rotate(180) translate(-30 -48)" onmousedown="handlePan(0,1)">
                  <use xlink:href="#rim" fill="#404040">
                        <set attributeName="fill" to="#808080" begin="arrowDown.mouseover" end="arrowDown.mouseout"/>
                  </use>
                  <path fill="none" stroke="white" stroke-width="1.5" d="M0,-3.0v7 M-2.5,-0.5L0,-3.0L2.5,-0.5"/>
                </g>
                <g id="arrowLeft" xlink:href="#dirArrow" transform="rotate(270) translate(-36 17)" onmousedown="handlePan(-1,0)">
                  <use xlink:href="#rim" fill="#404040">
                        <set attributeName="fill" to="#808080" begin="arrowLeft.mouseover" end="arrowLeft.mouseout"/>
                  </use>
                  <path fill="none" stroke="white" stroke-width="1.5" d="M0,-3.0v7 M-2.5,-0.5L0,-3.0L2.5,-0.5"/>
                </g>
        </g>
        <svg viewBox="0 0 15 15" width="100%" height="30px" preserveAspectRatio="xMaxYMin meet">
         <g id="arrow_out" transform="scale(0.3 0.3)">
          <a xlink:href="classK3sPodUsageCommand_a8659f6a7647aa0a650d6577c50552955_cgraph_org.svg" target="_base">
           <rect id="button" ry="5" rx="5" y="6" x="6" height="38" width="38"
                fill="#f2f5e9" fill-opacity="0.5" stroke="#606060" stroke-width="1.0"/>
           <path id="arrow"
             d="M 11.500037,31.436501 C 11.940474,20.09759 22.043105,11.32322 32.158766,21.979434 L 37.068811,17.246167 C 37.068811,17.246167 37.088388,32 37.088388,32 L 22.160133,31.978069 C 22.160133,31.978069 26.997745,27.140456 26.997745,27.140456 C 18.528582,18.264221 13.291696,25.230495 11.500037,31.436501 z"
             style="fill:#404040;"/>
          </a>
         </g>
        </svg>
</svg>
