<?xml version="1.0" encoding="UTF-8" standalone="no"?>
<!DOCTYPE svg PUBLIC "-//W3C//DTD SVG 1.1//EN"
 "http://www.w3.org/Graphics/SVG/1.1/DTD/svg11.dtd">
<!-- Generated by graphviz version 2.43.0 (0)
 -->
<!-- Title: httplib::Server::write_content_with_provider Pages: 1 -->
<svg width="1021pt" height="574pt"
 viewBox="0.00 0.00 1021.00 574.00" xmlns="http://www.w3.org/2000/svg" xmlns:xlink="http://www.w3.org/1999/xlink">
<g id="graph0" class="graph" transform="scale(1 1) rotate(0) translate(4 570)">
<title>httplib::Server::write_content_with_provider</title>
<polygon fill="white" stroke="transparent" points="-4,4 -4,-570 1017,-570 1017,4 -4,4"/>
<!-- Node1 -->
<g id="node1" class="node">
<title>Node1</title>
<g id="a_node1"><a xlink:title=" ">
<polygon fill="#bfbfbf" stroke="black" points="0,-262.5 0,-292.5 131,-292.5 131,-262.5 0,-262.5"/>
<text text-anchor="start" x="8" y="-280.5" font-family="Helvetica,sans-Serif" font-size="10.00">httplib::Server::write</text>
<text text-anchor="middle" x="65.5" y="-269.5" font-family="Helvetica,sans-Serif" font-size="10.00">_content_with_provider</text>
</a>
</g>
</g>
<!-- Node2 -->
<g id="node2" class="node">
<title>Node2</title>
<g id="a_node2"><a xlink:href="FuzzerTracePC_8cpp.html#a1f10ac78bd11294b612636121065eb5b" target="_top" xlink:title=" ">
<polygon fill="white" stroke="black" points="777.5,-377 777.5,-396 824.5,-396 824.5,-377 777.5,-377"/>
<text text-anchor="middle" x="801" y="-384" font-family="Helvetica,sans-Serif" font-size="10.00">assert</text>
</a>
</g>
</g>
<!-- Node1&#45;&gt;Node2 -->
<g id="edge1" class="edge">
<title>Node1&#45;&gt;Node2</title>
<path fill="none" stroke="midnightblue" d="M85.69,-292.58C105.07,-306.99 136.44,-328.16 167,-339.5 384.13,-420.04 671.34,-400.02 767.25,-390.27"/>
<polygon fill="midnightblue" stroke="midnightblue" points="767.9,-393.72 777.48,-389.19 767.16,-386.76 767.9,-393.72"/>
</g>
<!-- Node3 -->
<g id="node3" class="node">
<title>Node3</title>
<g id="a_node3"><a xlink:href="namespacehttplib_1_1detail.html#ab3d7a73532e427696847a2c77090729d" target="_top" xlink:title=" ">
<polygon fill="white" stroke="black" points="167,-443 167,-462 326,-462 326,-443 167,-443"/>
<text text-anchor="middle" x="246.5" y="-450" font-family="Helvetica,sans-Serif" font-size="10.00">httplib::detail::encoding_type</text>
</a>
</g>
</g>
<!-- Node1&#45;&gt;Node3 -->
<g id="edge2" class="edge">
<title>Node1&#45;&gt;Node3</title>
<path fill="none" stroke="midnightblue" d="M73.31,-292.9C86.98,-322.14 120.48,-386.03 167,-422.5 176.06,-429.6 186.99,-435.17 197.78,-439.49"/>
<polygon fill="midnightblue" stroke="midnightblue" points="196.58,-442.78 207.17,-442.96 199,-436.21 196.58,-442.78"/>
</g>
<!-- Node16 -->
<g id="node16" class="node">
<title>Node16</title>
<g id="a_node16"><a xlink:href="namespacehttplib_1_1detail.html#af3ee387aa148fa5fe69d6355b5360e03" target="_top" xlink:title=" ">
<polygon fill="white" stroke="black" points="543,-349.5 543,-379.5 686,-379.5 686,-349.5 543,-349.5"/>
<text text-anchor="start" x="551" y="-367.5" font-family="Helvetica,sans-Serif" font-size="10.00">httplib::detail::get</text>
<text text-anchor="middle" x="614.5" y="-356.5" font-family="Helvetica,sans-Serif" font-size="10.00">_range_offset_and_length</text>
</a>
</g>
</g>
<!-- Node1&#45;&gt;Node16 -->
<g id="edge16" class="edge">
<title>Node1&#45;&gt;Node16</title>
<path fill="none" stroke="midnightblue" d="M114.29,-292.52C172.25,-310.01 273.21,-338.22 362,-351.5 418.74,-359.99 483.38,-363.19 532.92,-364.3"/>
<polygon fill="midnightblue" stroke="midnightblue" points="532.87,-367.79 542.94,-364.49 533.01,-360.8 532.87,-367.79"/>
</g>
<!-- Node17 -->
<g id="node17" class="node">
<title>Node17</title>
<g id="a_node17"><a xlink:href="namespacehttplib_1_1detail.html#ac17dd7d7a80ce12e5966f5f577b67a75" target="_top" xlink:title=" ">
<polygon fill="white" stroke="black" points="190,-147.5 190,-177.5 303,-177.5 303,-147.5 190,-147.5"/>
<text text-anchor="start" x="198" y="-165.5" font-family="Helvetica,sans-Serif" font-size="10.00">httplib::detail::write</text>
<text text-anchor="middle" x="246.5" y="-154.5" font-family="Helvetica,sans-Serif" font-size="10.00">_content</text>
</a>
</g>
</g>
<!-- Node1&#45;&gt;Node17 -->
<g id="edge18" class="edge">
<title>Node1&#45;&gt;Node17</title>
<path fill="none" stroke="midnightblue" d="M82.54,-262.27C101.57,-244.77 134.78,-215.97 167,-196.5 175.96,-191.09 185.93,-186.08 195.69,-181.66"/>
<polygon fill="midnightblue" stroke="midnightblue" points="197.17,-184.83 204.93,-177.61 194.37,-178.42 197.17,-184.83"/>
</g>
<!-- Node21 -->
<g id="node21" class="node">
<title>Node21</title>
<g id="a_node21"><a xlink:href="namespacehttplib_1_1detail.html#af586311a8460e53bac51d7d02802ede9" target="_top" xlink:title=" ">
<polygon fill="white" stroke="black" points="190,-98.5 190,-128.5 303,-128.5 303,-98.5 190,-98.5"/>
<text text-anchor="start" x="198" y="-116.5" font-family="Helvetica,sans-Serif" font-size="10.00">httplib::detail::write</text>
<text text-anchor="middle" x="246.5" y="-105.5" font-family="Helvetica,sans-Serif" font-size="10.00">_content_chunked</text>
</a>
</g>
</g>
<!-- Node1&#45;&gt;Node21 -->
<g id="edge22" class="edge">
<title>Node1&#45;&gt;Node21</title>
<path fill="none" stroke="midnightblue" d="M73.24,-262.35C86.79,-233.64 120.08,-171.17 167,-137.5 171.16,-134.51 175.7,-131.89 180.44,-129.59"/>
<polygon fill="midnightblue" stroke="midnightblue" points="181.95,-132.75 189.72,-125.55 179.16,-126.33 181.95,-132.75"/>
</g>
<!-- Node24 -->
<g id="node24" class="node">
<title>Node24</title>
<g id="a_node24"><a xlink:href="namespacehttplib_1_1detail.html#a4b08839cc083b4d71b0a3961c9a1686d" target="_top" xlink:title=" ">
<polygon fill="white" stroke="black" points="178,-205.5 178,-235.5 315,-235.5 315,-205.5 178,-205.5"/>
<text text-anchor="start" x="186" y="-223.5" font-family="Helvetica,sans-Serif" font-size="10.00">httplib::detail::write</text>
<text text-anchor="middle" x="246.5" y="-212.5" font-family="Helvetica,sans-Serif" font-size="10.00">_content_without_length</text>
</a>
</g>
</g>
<!-- Node1&#45;&gt;Node24 -->
<g id="edge28" class="edge">
<title>Node1&#45;&gt;Node24</title>
<path fill="none" stroke="midnightblue" d="M114,-262.37C136.85,-255.1 164.42,-246.32 188.4,-238.68"/>
<polygon fill="midnightblue" stroke="midnightblue" points="189.62,-241.97 198.09,-235.6 187.5,-235.3 189.62,-241.97"/>
</g>
<!-- Node25 -->
<g id="node25" class="node">
<title>Node25</title>
<g id="a_node25"><a xlink:href="namespacehttplib_1_1detail.html#ad7467069e85f955efc30627cff9dd327" target="_top" xlink:title=" ">
<polygon fill="white" stroke="black" points="180.5,-262.5 180.5,-292.5 312.5,-292.5 312.5,-262.5 180.5,-262.5"/>
<text text-anchor="start" x="188.5" y="-280.5" font-family="Helvetica,sans-Serif" font-size="10.00">httplib::detail::write</text>
<text text-anchor="middle" x="246.5" y="-269.5" font-family="Helvetica,sans-Serif" font-size="10.00">_multipart_ranges_data</text>
</a>
</g>
</g>
<!-- Node1&#45;&gt;Node25 -->
<g id="edge32" class="edge">
<title>Node1&#45;&gt;Node25</title>
<path fill="none" stroke="midnightblue" d="M131.12,-277.5C143.77,-277.5 157.13,-277.5 170.09,-277.5"/>
<polygon fill="midnightblue" stroke="midnightblue" points="170.37,-281 180.37,-277.5 170.37,-274 170.37,-281"/>
</g>
<!-- Node4 -->
<g id="node4" class="node">
<title>Node4</title>
<g id="a_node4"><a xlink:href="namespacehttplib_1_1detail.html#abe508674330c10dbe19fc1a33901c535" target="_top" xlink:title=" ">
<polygon fill="white" stroke="black" points="365.5,-535.5 365.5,-565.5 503.5,-565.5 503.5,-535.5 365.5,-535.5"/>
<text text-anchor="start" x="373.5" y="-553.5" font-family="Helvetica,sans-Serif" font-size="10.00">httplib::detail::can</text>
<text text-anchor="middle" x="434.5" y="-542.5" font-family="Helvetica,sans-Serif" font-size="10.00">_compress_content_type</text>
</a>
</g>
</g>
<!-- Node3&#45;&gt;Node4 -->
<g id="edge3" class="edge">
<title>Node3&#45;&gt;Node4</title>
<path fill="none" stroke="midnightblue" d="M259.93,-462.03C280.32,-477.32 322.55,-507.5 362,-526.5 365.78,-528.32 369.74,-530.06 373.77,-531.72"/>
<polygon fill="midnightblue" stroke="midnightblue" points="372.66,-535.04 383.25,-535.41 375.2,-528.52 372.66,-535.04"/>
</g>
<!-- Node7 -->
<g id="node7" class="node">
<title>Node7</title>
<g id="a_node7"><a xlink:href="structhttplib_1_1Request.html#a1a0ed323d53df032214a1729db175355" target="_top" xlink:title=" ">
<polygon fill="white" stroke="black" points="376.5,-486.5 376.5,-516.5 492.5,-516.5 492.5,-486.5 376.5,-486.5"/>
<text text-anchor="start" x="384.5" y="-504.5" font-family="Helvetica,sans-Serif" font-size="10.00">httplib::Request::get</text>
<text text-anchor="middle" x="434.5" y="-493.5" font-family="Helvetica,sans-Serif" font-size="10.00">_header_value</text>
</a>
</g>
</g>
<!-- Node3&#45;&gt;Node7 -->
<g id="edge6" class="edge">
<title>Node3&#45;&gt;Node7</title>
<path fill="none" stroke="midnightblue" d="M283.8,-462.06C307.35,-468.27 338.74,-476.54 366.7,-483.9"/>
<polygon fill="midnightblue" stroke="midnightblue" points="365.86,-487.3 376.42,-486.46 367.64,-480.53 365.86,-487.3"/>
</g>
<!-- Node9 -->
<g id="node9" class="node">
<title>Node9</title>
<g id="a_node9"><a xlink:href="structhttplib_1_1Response.html#a2e047ef1c0de99ac521452f25a76c50a" target="_top" xlink:title=" ">
<polygon fill="white" stroke="black" points="381,-437.5 381,-467.5 488,-467.5 488,-437.5 381,-437.5"/>
<text text-anchor="start" x="389" y="-455.5" font-family="Helvetica,sans-Serif" font-size="10.00">httplib::Response::</text>
<text text-anchor="middle" x="434.5" y="-444.5" font-family="Helvetica,sans-Serif" font-size="10.00">get_header_value</text>
</a>
</g>
</g>
<!-- Node3&#45;&gt;Node9 -->
<g id="edge8" class="edge">
<title>Node3&#45;&gt;Node9</title>
<path fill="none" stroke="midnightblue" d="M326.11,-452.5C340.95,-452.5 356.29,-452.5 370.57,-452.5"/>
<polygon fill="midnightblue" stroke="midnightblue" points="370.76,-456 380.76,-452.5 370.76,-449 370.76,-456"/>
</g>
<!-- Node10 -->
<g id="node10" class="node">
<title>Node10</title>
<g id="a_node10"><a xlink:href="namespacenlohmann_1_1detail.html#a59fca69799f6b9e366710cb9043aa77d" target="_top" xlink:title=" ">
<polygon fill="white" stroke="black" points="371.5,-224 371.5,-243 497.5,-243 497.5,-224 371.5,-224"/>
<text text-anchor="middle" x="434.5" y="-231" font-family="Helvetica,sans-Serif" font-size="10.00">nlohmann::detail::void</text>
</a>
</g>
</g>
<!-- Node3&#45;&gt;Node10 -->
<g id="edge10" class="edge">
<title>Node3&#45;&gt;Node10</title>
<path fill="none" stroke="midnightblue" d="M252.49,-442.86C272.24,-404.88 344.65,-266.98 362,-253.5 364.97,-251.19 368.2,-249.14 371.58,-247.34"/>
<polygon fill="midnightblue" stroke="midnightblue" points="373.21,-250.44 380.83,-243.08 370.29,-244.08 373.21,-250.44"/>
</g>
<!-- Node5 -->
<g id="node5" class="node">
<title>Node5</title>
<g id="a_node5"><a xlink:href="namespacehttplib_1_1detail.html#a8421d59405044ca97486b9b41d728b0b" target="_top" xlink:title=" ">
<polygon fill="white" stroke="black" points="553.5,-541 553.5,-560 675.5,-560 675.5,-541 553.5,-541"/>
<text text-anchor="middle" x="614.5" y="-548" font-family="Helvetica,sans-Serif" font-size="10.00">httplib::detail::str2tag</text>
</a>
</g>
</g>
<!-- Node4&#45;&gt;Node5 -->
<g id="edge4" class="edge">
<title>Node4&#45;&gt;Node5</title>
<path fill="none" stroke="midnightblue" d="M503.56,-550.5C516.49,-550.5 530.05,-550.5 543.05,-550.5"/>
<polygon fill="midnightblue" stroke="midnightblue" points="543.34,-554 553.34,-550.5 543.34,-547 543.34,-554"/>
</g>
<!-- Node6 -->
<g id="node6" class="node">
<title>Node6</title>
<g id="a_node6"><a xlink:href="namespacehttplib_1_1detail.html#afbbe1f2e45c67a29f1cb3cb68eadbfa6" target="_top" xlink:title=" ">
<polygon fill="white" stroke="black" points="726.5,-541 726.5,-560 875.5,-560 875.5,-541 726.5,-541"/>
<text text-anchor="middle" x="801" y="-548" font-family="Helvetica,sans-Serif" font-size="10.00">httplib::detail::str2tag_core</text>
</a>
</g>
</g>
<!-- Node5&#45;&gt;Node6 -->
<g id="edge5" class="edge">
<title>Node5&#45;&gt;Node6</title>
<path fill="none" stroke="midnightblue" d="M675.66,-550.5C688.56,-550.5 702.42,-550.5 716.04,-550.5"/>
<polygon fill="midnightblue" stroke="midnightblue" points="716.39,-554 726.39,-550.5 716.39,-547 716.39,-554"/>
</g>
<!-- Node8 -->
<g id="node8" class="node">
<title>Node8</title>
<g id="a_node8"><a xlink:href="namespacehttplib_1_1detail.html#a5182300d07532ca663dfa1b3ae0a352c" target="_top" xlink:title=" ">
<polygon fill="white" stroke="black" points="562.5,-462.5 562.5,-492.5 666.5,-492.5 666.5,-462.5 562.5,-462.5"/>
<text text-anchor="start" x="570.5" y="-480.5" font-family="Helvetica,sans-Serif" font-size="10.00">httplib::detail::get</text>
<text text-anchor="middle" x="614.5" y="-469.5" font-family="Helvetica,sans-Serif" font-size="10.00">_header_value</text>
</a>
</g>
</g>
<!-- Node7&#45;&gt;Node8 -->
<g id="edge7" class="edge">
<title>Node7&#45;&gt;Node8</title>
<path fill="none" stroke="midnightblue" d="M492.8,-493.77C511.75,-491.22 532.91,-488.37 552.15,-485.77"/>
<polygon fill="midnightblue" stroke="midnightblue" points="552.88,-489.21 562.32,-484.4 551.94,-482.27 552.88,-489.21"/>
</g>
<!-- Node9&#45;&gt;Node8 -->
<g id="edge9" class="edge">
<title>Node9&#45;&gt;Node8</title>
<path fill="none" stroke="midnightblue" d="M488.42,-459.93C508.5,-462.75 531.53,-465.99 552.31,-468.91"/>
<polygon fill="midnightblue" stroke="midnightblue" points="551.92,-472.39 562.31,-470.31 552.89,-465.45 551.92,-472.39"/>
</g>
<!-- Node11 -->
<g id="node11" class="node">
<title>Node11</title>
<g id="a_node11"><a xlink:href="classnlohmann_1_1detail_1_1type__error.html#aecc083aea4b698c33d042670ba50c10f" target="_top" xlink:title=" ">
<polygon fill="white" stroke="black" points="551,-251.5 551,-281.5 678,-281.5 678,-251.5 551,-251.5"/>
<text text-anchor="start" x="559" y="-269.5" font-family="Helvetica,sans-Serif" font-size="10.00">nlohmann::detail::type</text>
<text text-anchor="middle" x="614.5" y="-258.5" font-family="Helvetica,sans-Serif" font-size="10.00">_error::create</text>
</a>
</g>
</g>
<!-- Node10&#45;&gt;Node11 -->
<g id="edge11" class="edge">
<title>Node10&#45;&gt;Node11</title>
<path fill="none" stroke="midnightblue" d="M486.98,-243.04C503.79,-246.16 522.78,-249.68 540.84,-253.03"/>
<polygon fill="midnightblue" stroke="midnightblue" points="540.29,-256.49 550.76,-254.87 541.57,-249.6 540.29,-256.49"/>
</g>
<!-- Node15 -->
<g id="node15" class="node">
<title>Node15</title>
<g id="a_node15"><a xlink:href="namespacenlohmann_1_1detail.html#a40f7bb070a60e8ba14fffb9c117fcbd8" target="_top" xlink:title=" ">
<polygon fill="white" stroke="black" points="550.5,-202.5 550.5,-232.5 678.5,-232.5 678.5,-202.5 550.5,-202.5"/>
<text text-anchor="start" x="558.5" y="-220.5" font-family="Helvetica,sans-Serif" font-size="10.00">nlohmann::detail::from</text>
<text text-anchor="middle" x="614.5" y="-209.5" font-family="Helvetica,sans-Serif" font-size="10.00">_json_array_impl</text>
</a>
</g>
</g>
<!-- Node10&#45;&gt;Node15 -->
<g id="edge15" class="edge">
<title>Node10&#45;&gt;Node15</title>
<path fill="none" stroke="midnightblue" d="M497.76,-227.9C511.47,-226.67 526.12,-225.35 540.22,-224.09"/>
<polygon fill="midnightblue" stroke="midnightblue" points="540.73,-227.56 550.38,-223.17 540.1,-220.58 540.73,-227.56"/>
</g>
<!-- Node12 -->
<g id="node12" class="node">
<title>Node12</title>
<g id="a_node12"><a xlink:href="classnlohmann_1_1detail_1_1exception.html#abf41a7e9178356314082284e6cfea278" target="_top" xlink:title=" ">
<polygon fill="white" stroke="black" points="724.5,-256.5 724.5,-286.5 877.5,-286.5 877.5,-256.5 724.5,-256.5"/>
<text text-anchor="start" x="732.5" y="-274.5" font-family="Helvetica,sans-Serif" font-size="10.00">nlohmann::detail::exception</text>
<text text-anchor="middle" x="801" y="-263.5" font-family="Helvetica,sans-Serif" font-size="10.00">::name</text>
</a>
</g>
</g>
<!-- Node11&#45;&gt;Node12 -->
<g id="edge12" class="edge">
<title>Node11&#45;&gt;Node12</title>
<path fill="none" stroke="midnightblue" d="M678.22,-268.2C689.81,-268.51 702.09,-268.85 714.23,-269.18"/>
<polygon fill="midnightblue" stroke="midnightblue" points="714.28,-272.68 724.37,-269.45 714.47,-265.68 714.28,-272.68"/>
</g>
<!-- Node14 -->
<g id="node14" class="node">
<title>Node14</title>
<g id="a_node14"><a xlink:href="classnlohmann_1_1detail_1_1type__error.html#aa01edaa0bf18b853368f0b900e485cd7" target="_top" xlink:title=" ">
<polygon fill="white" stroke="black" points="737.5,-207.5 737.5,-237.5 864.5,-237.5 864.5,-207.5 737.5,-207.5"/>
<text text-anchor="start" x="745.5" y="-225.5" font-family="Helvetica,sans-Serif" font-size="10.00">nlohmann::detail::type</text>
<text text-anchor="middle" x="801" y="-214.5" font-family="Helvetica,sans-Serif" font-size="10.00">_error::type_error</text>
</a>
</g>
</g>
<!-- Node11&#45;&gt;Node14 -->
<g id="edge14" class="edge">
<title>Node11&#45;&gt;Node14</title>
<path fill="none" stroke="midnightblue" d="M678.22,-251.54C694.05,-247.77 711.18,-243.68 727.45,-239.8"/>
<polygon fill="midnightblue" stroke="midnightblue" points="728.54,-243.14 737.45,-237.42 726.91,-236.33 728.54,-243.14"/>
</g>
<!-- Node13 -->
<g id="node13" class="node">
<title>Node13</title>
<g id="a_node13"><a xlink:href="namespacehttplib.html#a498c3a79825ecbcb15c52ec5fcfd5c11" target="_top" xlink:title=" ">
<polygon fill="white" stroke="black" points="916,-286 916,-305 1013,-305 1013,-286 916,-286"/>
<text text-anchor="middle" x="964.5" y="-293" font-family="Helvetica,sans-Serif" font-size="10.00">httplib::to_string</text>
</a>
</g>
</g>
<!-- Node12&#45;&gt;Node13 -->
<g id="edge13" class="edge">
<title>Node12&#45;&gt;Node13</title>
<path fill="none" stroke="midnightblue" d="M877.55,-282.73C886.97,-284.13 896.49,-285.54 905.59,-286.89"/>
<polygon fill="midnightblue" stroke="midnightblue" points="905.25,-290.38 915.65,-288.39 906.28,-283.46 905.25,-290.38"/>
</g>
<!-- Node16&#45;&gt;Node2 -->
<g id="edge17" class="edge">
<title>Node16&#45;&gt;Node2</title>
<path fill="none" stroke="midnightblue" d="M686.04,-372.91C713.97,-376.24 744.71,-379.91 767.22,-382.59"/>
<polygon fill="midnightblue" stroke="midnightblue" points="766.9,-386.08 777.25,-383.79 767.73,-379.13 766.9,-386.08"/>
</g>
<!-- Node18 -->
<g id="node18" class="node">
<title>Node18</title>
<g id="a_node18"><a xlink:href="classhttplib_1_1Stream.html#ab10c55e43ccf0146c4d142e53a58a831" target="_top" xlink:title=" ">
<polygon fill="white" stroke="black" points="382.5,-98.5 382.5,-128.5 486.5,-128.5 486.5,-98.5 382.5,-98.5"/>
<text text-anchor="start" x="390.5" y="-116.5" font-family="Helvetica,sans-Serif" font-size="10.00">httplib::Stream::is</text>
<text text-anchor="middle" x="434.5" y="-105.5" font-family="Helvetica,sans-Serif" font-size="10.00">_writable</text>
</a>
</g>
</g>
<!-- Node17&#45;&gt;Node18 -->
<g id="edge19" class="edge">
<title>Node17&#45;&gt;Node18</title>
<path fill="none" stroke="midnightblue" d="M303.05,-147.86C324.97,-142.09 350.21,-135.44 372.62,-129.54"/>
<polygon fill="midnightblue" stroke="midnightblue" points="373.58,-132.9 382.36,-126.97 371.8,-126.14 373.58,-132.9"/>
</g>
<!-- Node19 -->
<g id="node19" class="node">
<title>Node19</title>
<g id="a_node19"><a xlink:href="namespacehttplib_1_1detail.html#aefec7c4fea53eda1af3a7362002c5223" target="_top" xlink:title=" ">
<polygon fill="white" stroke="black" points="364.5,-148 364.5,-167 504.5,-167 504.5,-148 364.5,-148"/>
<text text-anchor="middle" x="434.5" y="-155" font-family="Helvetica,sans-Serif" font-size="10.00">httplib::detail::write_data</text>
</a>
</g>
</g>
<!-- Node17&#45;&gt;Node19 -->
<g id="edge20" class="edge">
<title>Node17&#45;&gt;Node19</title>
<path fill="none" stroke="midnightblue" d="M303.05,-161.01C319.16,-160.57 337.07,-160.09 354.32,-159.63"/>
<polygon fill="midnightblue" stroke="midnightblue" points="354.49,-163.13 364.39,-159.36 354.3,-156.13 354.49,-163.13"/>
</g>
<!-- Node20 -->
<g id="node20" class="node">
<title>Node20</title>
<g id="a_node20"><a xlink:href="classhttplib_1_1Stream.html#a4b94583ae90065c9e4e33a7752d9976f" target="_top" xlink:title=" ">
<polygon fill="white" stroke="black" points="554.5,-154 554.5,-173 674.5,-173 674.5,-154 554.5,-154"/>
<text text-anchor="middle" x="614.5" y="-161" font-family="Helvetica,sans-Serif" font-size="10.00">httplib::Stream::write</text>
</a>
</g>
</g>
<!-- Node19&#45;&gt;Node20 -->
<g id="edge21" class="edge">
<title>Node19&#45;&gt;Node20</title>
<path fill="none" stroke="midnightblue" d="M504.57,-159.83C517.53,-160.27 531.08,-160.72 544.04,-161.16"/>
<polygon fill="midnightblue" stroke="midnightblue" points="544.18,-164.67 554.29,-161.5 544.42,-157.67 544.18,-164.67"/>
</g>
<!-- Node21&#45;&gt;Node10 -->
<g id="edge26" class="edge">
<title>Node21&#45;&gt;Node10</title>
<path fill="none" stroke="midnightblue" d="M303.18,-126.47C311.14,-129.47 319,-133.1 326,-137.5 345.97,-150.05 344.73,-160.43 362,-176.5 377.98,-191.36 397.41,-206.7 411.99,-217.72"/>
<polygon fill="midnightblue" stroke="midnightblue" points="410.25,-220.79 420.36,-223.97 414.44,-215.18 410.25,-220.79"/>
</g>
<!-- Node21&#45;&gt;Node18 -->
<g id="edge25" class="edge">
<title>Node21&#45;&gt;Node18</title>
<path fill="none" stroke="midnightblue" d="M303.05,-113.5C324.87,-113.5 349.98,-113.5 372.32,-113.5"/>
<polygon fill="midnightblue" stroke="midnightblue" points="372.36,-117 382.36,-113.5 372.36,-110 372.36,-117"/>
</g>
<!-- Node21&#45;&gt;Node19 -->
<g id="edge27" class="edge">
<title>Node21&#45;&gt;Node19</title>
<path fill="none" stroke="midnightblue" d="M303.05,-126.64C328.55,-132.67 358.56,-139.77 383.36,-145.64"/>
<polygon fill="midnightblue" stroke="midnightblue" points="382.75,-149.09 393.29,-147.99 384.36,-142.28 382.75,-149.09"/>
</g>
<!-- Node22 -->
<g id="node22" class="node">
<title>Node22</title>
<g id="a_node22"><a xlink:href="classhttplib_1_1detail_1_1compressor.html#a7cf1de9ae8f5d01316de7b666e66192d" target="_top" xlink:title=" ">
<polygon fill="white" stroke="black" points="362,-0.5 362,-30.5 507,-30.5 507,-0.5 362,-0.5"/>
<text text-anchor="start" x="370" y="-18.5" font-family="Helvetica,sans-Serif" font-size="10.00">httplib::detail::compressor</text>
<text text-anchor="middle" x="434.5" y="-7.5" font-family="Helvetica,sans-Serif" font-size="10.00">::compress</text>
</a>
</g>
</g>
<!-- Node21&#45;&gt;Node22 -->
<g id="edge23" class="edge">
<title>Node21&#45;&gt;Node22</title>
<path fill="none" stroke="midnightblue" d="M267.68,-98.22C289.87,-81.97 327.03,-56.34 362,-39.5 365.78,-37.68 369.74,-35.94 373.77,-34.28"/>
<polygon fill="midnightblue" stroke="midnightblue" points="375.2,-37.48 383.25,-30.59 372.66,-30.96 375.2,-37.48"/>
</g>
<!-- Node23 -->
<g id="node23" class="node">
<title>Node23</title>
<g id="a_node23"><a xlink:href="namespacehttplib_1_1detail.html#ac08f80eff074b5a4adcb6e160a1380a5" target="_top" xlink:title=" ">
<polygon fill="white" stroke="black" points="379,-49.5 379,-79.5 490,-79.5 490,-49.5 379,-49.5"/>
<text text-anchor="start" x="387" y="-67.5" font-family="Helvetica,sans-Serif" font-size="10.00">httplib::detail::from</text>
<text text-anchor="middle" x="434.5" y="-56.5" font-family="Helvetica,sans-Serif" font-size="10.00">_i_to_hex</text>
</a>
</g>
</g>
<!-- Node21&#45;&gt;Node23 -->
<g id="edge24" class="edge">
<title>Node21&#45;&gt;Node23</title>
<path fill="none" stroke="midnightblue" d="M303.05,-98.86C323.85,-93.39 347.64,-87.12 369.16,-81.45"/>
<polygon fill="midnightblue" stroke="midnightblue" points="370.09,-84.82 378.87,-78.89 368.31,-78.05 370.09,-84.82"/>
</g>
<!-- Node24&#45;&gt;Node10 -->
<g id="edge30" class="edge">
<title>Node24&#45;&gt;Node10</title>
<path fill="none" stroke="midnightblue" d="M315.18,-225.23C330.11,-226.27 346,-227.38 361.11,-228.44"/>
<polygon fill="midnightblue" stroke="midnightblue" points="361.21,-231.96 371.43,-229.16 361.7,-224.97 361.21,-231.96"/>
</g>
<!-- Node24&#45;&gt;Node18 -->
<g id="edge29" class="edge">
<title>Node24&#45;&gt;Node18</title>
<path fill="none" stroke="midnightblue" d="M295.03,-205.36C305.84,-200.64 316.83,-194.73 326,-187.5 347.22,-170.77 340.27,-154.57 362,-138.5 365.45,-135.95 369.18,-133.64 373.07,-131.56"/>
<polygon fill="midnightblue" stroke="midnightblue" points="374.86,-134.58 382.35,-127.09 371.82,-128.27 374.86,-134.58"/>
</g>
<!-- Node24&#45;&gt;Node19 -->
<g id="edge31" class="edge">
<title>Node24&#45;&gt;Node19</title>
<path fill="none" stroke="midnightblue" d="M291.53,-205.45C312.81,-198.19 338.72,-189.37 362,-181.5 372.83,-177.84 384.58,-173.88 395.37,-170.26"/>
<polygon fill="midnightblue" stroke="midnightblue" points="396.59,-173.55 404.96,-167.05 394.37,-166.91 396.59,-173.55"/>
</g>
<!-- Node25&#45;&gt;Node20 -->
<g id="edge37" class="edge">
<title>Node25&#45;&gt;Node20</title>
<path fill="none" stroke="midnightblue" d="M291.5,-262.48C303.09,-257.75 315.33,-252.03 326,-245.5 344.01,-234.48 343.04,-223.79 362,-214.5 393.52,-199.06 481.52,-183.3 544.53,-173.47"/>
<polygon fill="midnightblue" stroke="midnightblue" points="545.07,-176.93 554.42,-171.95 544,-170.01 545.07,-176.93"/>
</g>
<!-- Node26 -->
<g id="node26" class="node">
<title>Node26</title>
<g id="a_node26"><a xlink:href="namespacehttplib_1_1detail.html#aa8bfc0f5ee915e4f92907ca646ba422a" target="_top" xlink:title=" ">
<polygon fill="white" stroke="black" points="368.5,-311.5 368.5,-341.5 500.5,-341.5 500.5,-311.5 368.5,-311.5"/>
<text text-anchor="start" x="376.5" y="-329.5" font-family="Helvetica,sans-Serif" font-size="10.00">httplib::detail::process</text>
<text text-anchor="middle" x="434.5" y="-318.5" font-family="Helvetica,sans-Serif" font-size="10.00">_multipart_ranges_data</text>
</a>
</g>
</g>
<!-- Node25&#45;&gt;Node26 -->
<g id="edge33" class="edge">
<title>Node25&#45;&gt;Node26</title>
<path fill="none" stroke="midnightblue" d="M304.57,-292.53C324.21,-297.71 346.37,-303.55 366.72,-308.91"/>
<polygon fill="midnightblue" stroke="midnightblue" points="365.98,-312.33 376.54,-311.49 367.76,-305.56 365.98,-312.33"/>
</g>
<!-- Node28 -->
<g id="node28" class="node">
<title>Node28</title>
<g id="a_node28"><a xlink:href="namespacehttplib_1_1detail.html#ae545b65e4ea144c8dbfb1dfb5991afa5" target="_top" xlink:title=" ">
<polygon fill="white" stroke="black" points="378,-262.5 378,-292.5 491,-292.5 491,-262.5 378,-262.5"/>
<text text-anchor="start" x="386" y="-280.5" font-family="Helvetica,sans-Serif" font-size="10.00">httplib::detail::write</text>
<text text-anchor="middle" x="434.5" y="-269.5" font-family="Helvetica,sans-Serif" font-size="10.00">_content</text>
</a>
</g>
</g>
<!-- Node25&#45;&gt;Node28 -->
<g id="edge38" class="edge">
<title>Node25&#45;&gt;Node28</title>
<path fill="none" stroke="midnightblue" d="M312.55,-277.5C330.41,-277.5 349.79,-277.5 367.69,-277.5"/>
<polygon fill="midnightblue" stroke="midnightblue" points="367.75,-281 377.75,-277.5 367.75,-274 367.75,-281"/>
</g>
<!-- Node26&#45;&gt;Node16 -->
<g id="edge34" class="edge">
<title>Node26&#45;&gt;Node16</title>
<path fill="none" stroke="midnightblue" d="M500.52,-340.38C511.09,-342.64 522.14,-345 533.03,-347.32"/>
<polygon fill="midnightblue" stroke="midnightblue" points="532.45,-350.78 542.96,-349.44 533.91,-343.93 532.45,-350.78"/>
</g>
<!-- Node27 -->
<g id="node27" class="node">
<title>Node27</title>
<g id="a_node27"><a xlink:href="namespacehttplib_1_1detail.html#ae93cf1427a53d3e03d83434d4a7229ef" target="_top" xlink:title=" ">
<polygon fill="white" stroke="black" points="722,-305.5 722,-335.5 880,-335.5 880,-305.5 722,-305.5"/>
<text text-anchor="start" x="730" y="-323.5" font-family="Helvetica,sans-Serif" font-size="10.00">httplib::detail::make</text>
<text text-anchor="middle" x="801" y="-312.5" font-family="Helvetica,sans-Serif" font-size="10.00">_content_range_header_field</text>
</a>
</g>
</g>
<!-- Node26&#45;&gt;Node27 -->
<g id="edge35" class="edge">
<title>Node26&#45;&gt;Node27</title>
<path fill="none" stroke="midnightblue" d="M500.67,-325.43C559.46,-324.46 646.46,-323.03 711.53,-321.96"/>
<polygon fill="midnightblue" stroke="midnightblue" points="711.83,-325.45 721.78,-321.79 711.72,-318.45 711.83,-325.45"/>
</g>
<!-- Node27&#45;&gt;Node13 -->
<g id="edge36" class="edge">
<title>Node27&#45;&gt;Node13</title>
<path fill="none" stroke="midnightblue" d="M880.38,-308.37C888.86,-307.05 897.37,-305.74 905.54,-304.47"/>
<polygon fill="midnightblue" stroke="midnightblue" points="906.34,-307.89 915.68,-302.9 905.27,-300.97 906.34,-307.89"/>
</g>
</g>
</svg>
