<?xml version="1.0" encoding="UTF-8" standalone="no"?>
<!DOCTYPE svg PUBLIC "-//W3C//DTD SVG 1.1//EN"
 "http://www.w3.org/Graphics/SVG/1.1/DTD/svg11.dtd">
<!-- Generated by graphviz version 2.43.0 (0)
 -->
<!-- Title: PodmanPodUsageCommand::Execute Pages: 1 -->
<!--zoomable 253 -->
<svg id="main" version="1.1" xmlns="http://www.w3.org/2000/svg" xmlns:xlink="http://www.w3.org/1999/xlink" xml:space="preserve" onload="init(evt)">
<style type="text/css"><![CDATA[
.edge:hover path { stroke: red; }
.edge:hover polygon { stroke: red; fill: red; }
]]></style>
<script type="text/javascript"><![CDATA[
var edges = document.getElementsByTagName('g');
if (edges && edges.length) {
  for (var i=0;i<edges.length;i++) {
    if (edges[i].id.substr(0,4)=='edge') {
      edges[i].setAttribute('class','edge');
    }
  }
}
]]></script>
        <defs>
                <circle id="rim" cx="0" cy="0" r="7"/>
                <circle id="rim2" cx="0" cy="0" r="3.5"/>
                <g id="zoomPlus">
                        <use xlink:href="#rim" fill="#404040">
                                <set attributeName="fill" to="#808080" begin="zoomplus.mouseover" end="zoomplus.mouseout"/>
                        </use>
                        <path d="M-4,0h8M0,-4v8" fill="none" stroke="white" stroke-width="1.5" pointer-events="none"/>
                </g>
                <g id="zoomMin">
                        <use xlink:href="#rim" fill="#404040">
                                <set attributeName="fill" to="#808080" begin="zoomminus.mouseover" end="zoomminus.mouseout"/>
                        </use>
                        <path d="M-4,0h8" fill="none" stroke="white" stroke-width="1.5" pointer-events="none"/>
                </g>
                <g id="dirArrow">
                        <path fill="none" stroke="white" stroke-width="1.5" d="M0,-3.0v7 M-2.5,-0.5L0,-3.0L2.5,-0.5"/>
                </g>
               <g id="resetDef">
                       <use xlink:href="#rim2" fill="#404040">
                               <set attributeName="fill" to="#808080" begin="reset.mouseover" end="reset.mouseout"/>
                       </use>
               </g>
        </defs>

<script type="text/javascript">
var viewWidth = 703;
var viewHeight = 253;
var sectionId = 'dynsection-2';
</script>
<script xlink:href="svgpan.js"/>
<svg id="graph" class="graph">
<g id="viewport">
<title>PodmanPodUsageCommand::Execute</title>
<polygon fill="white" stroke="transparent" points="-4,4 -4,-248.5 699,-248.5 699,4 -4,4"/>
<!-- Node1 -->
<g id="node1" class="node">
<title>Node1</title>
<g id="a_node1"><a xlink:title=" ">
<polygon fill="#bfbfbf" stroke="black" points="0,-112.5 0,-142.5 155,-142.5 155,-112.5 0,-112.5"/>
<text text-anchor="start" x="8" y="-130.5" font-family="Helvetica,sans-Serif" font-size="10.00">PodmanPodUsageCommand</text>
<text text-anchor="middle" x="77.5" y="-119.5" font-family="Helvetica,sans-Serif" font-size="10.00">::Execute</text>
</a>
</g>
</g>
<!-- Node2 -->
<g id="node2" class="node">
<title>Node2</title>
<g id="a_node2"><a xlink:href="classDatabaseHandler.html#adeab68dd7c2fc86b2195bdf874174a25" target="_top" xlink:title="Add data to the database.">
<polygon fill="white" stroke="black" points="199.5,-225 199.5,-244 348.5,-244 348.5,-225 199.5,-225"/>
<text text-anchor="middle" x="274" y="-232" font-family="Helvetica,sans-Serif" font-size="10.00">DatabaseHandler::AddData</text>
</a>
</g>
</g>
<!-- Node1&#45;&gt;Node2 -->
<g id="edge1" class="edge">
<title>Node1&#45;&gt;Node2</title>
<path fill="none" stroke="midnightblue" d="M93.4,-142.74C113.65,-162.54 151.85,-196.79 191,-215.5 196.03,-217.9 201.38,-220.01 206.84,-221.86"/>
<polygon fill="midnightblue" stroke="midnightblue" points="206.16,-225.31 216.75,-224.91 208.22,-218.62 206.16,-225.31"/>
</g>
<!-- Node3 -->
<g id="node3" class="node">
<title>Node3</title>
<g id="a_node3"><a xlink:href="classDatabaseHandler.html#aeb2cfac9504d4c44c6f23a87cb06b75a" target="_top" xlink:title="Get the singleton instance of the DatabaseHandler class.">
<polygon fill="white" stroke="black" points="191,-187 191,-206 357,-206 357,-187 191,-187"/>
<text text-anchor="middle" x="274" y="-194" font-family="Helvetica,sans-Serif" font-size="10.00">DatabaseHandler::GetInstance</text>
</a>
</g>
</g>
<!-- Node1&#45;&gt;Node3 -->
<g id="edge2" class="edge">
<title>Node1&#45;&gt;Node3</title>
<path fill="none" stroke="midnightblue" d="M108.44,-142.68C130.75,-153.54 162.22,-167.87 191,-177.5 198.68,-180.07 206.89,-182.42 215.02,-184.52"/>
<polygon fill="midnightblue" stroke="midnightblue" points="214.33,-187.96 224.88,-186.96 216.01,-181.16 214.33,-187.96"/>
</g>
<!-- Node4 -->
<g id="node4" class="node">
<title>Node4</title>
<g id="a_node4"><a xlink:href="classnlohmann_1_1basic__json.html#a8faa039ca82427ed29c486ffd00600c3" target="_top" xlink:title="return whether value is null">
<polygon fill="white" stroke="black" points="213,-137.5 213,-167.5 335,-167.5 335,-137.5 213,-137.5"/>
<text text-anchor="start" x="221" y="-155.5" font-family="Helvetica,sans-Serif" font-size="10.00">nlohmann::basic_json</text>
<text text-anchor="middle" x="274" y="-144.5" font-family="Helvetica,sans-Serif" font-size="10.00">::is_null</text>
</a>
</g>
</g>
<!-- Node1&#45;&gt;Node4 -->
<g id="edge3" class="edge">
<title>Node1&#45;&gt;Node4</title>
<path fill="none" stroke="midnightblue" d="M155.09,-137.34C170.79,-139.36 187.24,-141.48 202.7,-143.46"/>
<polygon fill="midnightblue" stroke="midnightblue" points="202.34,-146.95 212.7,-144.75 203.23,-140 202.34,-146.95"/>
</g>
<!-- Node5 -->
<g id="node5" class="node">
<title>Node5</title>
<g id="a_node5"><a xlink:href="classnlohmann_1_1basic__json.html#a265a473e939184aa42655c9ccdf34e58" target="_top" xlink:title="deserialize from a compatible input">
<polygon fill="white" stroke="black" points="213,-88.5 213,-118.5 335,-118.5 335,-88.5 213,-88.5"/>
<text text-anchor="start" x="221" y="-106.5" font-family="Helvetica,sans-Serif" font-size="10.00">nlohmann::basic_json</text>
<text text-anchor="middle" x="274" y="-95.5" font-family="Helvetica,sans-Serif" font-size="10.00">::parse</text>
</a>
</g>
</g>
<!-- Node1&#45;&gt;Node5 -->
<g id="edge4" class="edge">
<title>Node1&#45;&gt;Node5</title>
<path fill="none" stroke="midnightblue" d="M155.09,-118.05C170.79,-116.11 187.24,-114.08 202.7,-112.17"/>
<polygon fill="midnightblue" stroke="midnightblue" points="203.21,-115.64 212.7,-110.94 202.35,-108.69 203.21,-115.64"/>
</g>
<!-- Node6 -->
<g id="node6" class="node">
<title>Node6</title>
<g id="a_node6"><a xlink:href="classDatabaseHandler.html#a51bb2f3e9a4c847e65fdccab307a542c" target="_top" xlink:title="Read the data from the database.">
<polygon fill="white" stroke="black" points="196.5,-50 196.5,-69 351.5,-69 351.5,-50 196.5,-50"/>
<text text-anchor="middle" x="274" y="-57" font-family="Helvetica,sans-Serif" font-size="10.00">DatabaseHandler::ReadData</text>
</a>
</g>
</g>
<!-- Node1&#45;&gt;Node6 -->
<g id="edge5" class="edge">
<title>Node1&#45;&gt;Node6</title>
<path fill="none" stroke="midnightblue" d="M109.97,-112.43C132.23,-102.17 162.99,-88.82 191,-79.5 199.68,-76.61 209,-73.94 218.14,-71.56"/>
<polygon fill="midnightblue" stroke="midnightblue" points="219.1,-74.93 227.94,-69.09 217.38,-68.14 219.1,-74.93"/>
</g>
<!-- Node10 -->
<g id="node10" class="node">
<title>Node10</title>
<g id="a_node10"><a xlink:href="classnlohmann_1_1detail_1_1exception.html#a11fe48748e811531614c84883b00ccd5" target="_top" xlink:title="returns the explanatory string">
<polygon fill="white" stroke="black" points="197.5,-0.5 197.5,-30.5 350.5,-30.5 350.5,-0.5 197.5,-0.5"/>
<text text-anchor="start" x="205.5" y="-18.5" font-family="Helvetica,sans-Serif" font-size="10.00">nlohmann::detail::exception</text>
<text text-anchor="middle" x="274" y="-7.5" font-family="Helvetica,sans-Serif" font-size="10.00">::what</text>
</a>
</g>
</g>
<!-- Node1&#45;&gt;Node10 -->
<g id="edge9" class="edge">
<title>Node1&#45;&gt;Node10</title>
<path fill="none" stroke="midnightblue" d="M94.34,-112.18C115.02,-92.95 153.06,-60.11 191,-40.5 195.32,-38.27 199.87,-36.2 204.52,-34.29"/>
<polygon fill="midnightblue" stroke="midnightblue" points="206.09,-37.43 214.18,-30.58 203.59,-30.9 206.09,-37.43"/>
</g>
<!-- Node7 -->
<g id="node7" class="node">
<title>Node7</title>
<g id="a_node7"><a xlink:href="classnlohmann_1_1basic__json.html#a9286acdc0578fc66e9346323e69fc0e3" target="_top" xlink:title="check the existence of an element in a JSON object">
<polygon fill="white" stroke="black" points="404,-66.5 404,-96.5 526,-96.5 526,-66.5 404,-66.5"/>
<text text-anchor="start" x="412" y="-84.5" font-family="Helvetica,sans-Serif" font-size="10.00">nlohmann::basic_json</text>
<text text-anchor="middle" x="465" y="-73.5" font-family="Helvetica,sans-Serif" font-size="10.00">::contains</text>
</a>
</g>
</g>
<!-- Node6&#45;&gt;Node7 -->
<g id="edge6" class="edge">
<title>Node6&#45;&gt;Node7</title>
<path fill="none" stroke="midnightblue" d="M351.6,-68.42C365.46,-70.03 379.86,-71.71 393.53,-73.3"/>
<polygon fill="midnightblue" stroke="midnightblue" points="393.49,-76.82 403.83,-74.5 394.3,-69.86 393.49,-76.82"/>
</g>
<!-- Node9 -->
<g id="node9" class="node">
<title>Node9</title>
<g id="a_node9"><a xlink:href="classnlohmann_1_1basic__json.html#a6b187a22994c12c8cae0dd5ee99dc85e" target="_top" xlink:title="get special&#45;case overload">
<polygon fill="white" stroke="black" points="393,-28 393,-47 537,-47 537,-28 393,-28"/>
<text text-anchor="middle" x="465" y="-35" font-family="Helvetica,sans-Serif" font-size="10.00">nlohmann::basic_json::get</text>
</a>
</g>
</g>
<!-- Node6&#45;&gt;Node9 -->
<g id="edge8" class="edge">
<title>Node6&#45;&gt;Node9</title>
<path fill="none" stroke="midnightblue" d="M351.6,-50.58C361.81,-49.4 372.3,-48.17 382.59,-46.98"/>
<polygon fill="midnightblue" stroke="midnightblue" points="383.26,-50.42 392.79,-45.79 382.45,-43.47 383.26,-50.42"/>
</g>
<!-- Node8 -->
<g id="node8" class="node">
<title>Node8</title>
<g id="a_node8"><a xlink:href="classnlohmann_1_1basic__json.html#af8f511af124e82e4579f444b4175787c" target="_top" xlink:title="return whether value is an object">
<polygon fill="white" stroke="black" points="573,-66.5 573,-96.5 695,-96.5 695,-66.5 573,-66.5"/>
<text text-anchor="start" x="581" y="-84.5" font-family="Helvetica,sans-Serif" font-size="10.00">nlohmann::basic_json</text>
<text text-anchor="middle" x="634" y="-73.5" font-family="Helvetica,sans-Serif" font-size="10.00">::is_object</text>
</a>
</g>
</g>
<!-- Node7&#45;&gt;Node8 -->
<g id="edge7" class="edge">
<title>Node7&#45;&gt;Node8</title>
<path fill="none" stroke="midnightblue" d="M526.29,-81.5C538.12,-81.5 550.61,-81.5 562.73,-81.5"/>
<polygon fill="midnightblue" stroke="midnightblue" points="562.8,-85 572.8,-81.5 562.8,-78 562.8,-85"/>
</g>
</g>
</svg>
        <g id="navigator" transform="translate(0 0)" fill="#404254">
                <rect fill="#f2f5e9" fill-opacity="0.5" stroke="#606060" stroke-width=".5" x="0" y="0" width="60" height="60"/>
                <use id="zoomplus" xlink:href="#zoomPlus" x="17" y="9" onmousedown="handleZoom(evt,'in')"/>
                <use id="zoomminus" xlink:href="#zoomMin" x="42" y="9" onmousedown="handleZoom(evt,'out')"/>
                <use id="reset" xlink:href="#resetDef" x="30" y="36" onmousedown="handleReset()"/>
                <g id="arrowUp" xlink:href="#dirArrow" transform="translate(30 24)" onmousedown="handlePan(0,-1)">
                  <use xlink:href="#rim" fill="#404040">
                        <set attributeName="fill" to="#808080" begin="arrowUp.mouseover" end="arrowUp.mouseout"/>
                  </use>
                  <path fill="none" stroke="white" stroke-width="1.5" d="M0,-3.0v7 M-2.5,-0.5L0,-3.0L2.5,-0.5"/>
                </g>
                <g id="arrowRight" xlink:href="#dirArrow" transform="rotate(90) translate(36 -43)" onmousedown="handlePan(1,0)">
                  <use xlink:href="#rim" fill="#404040">
                        <set attributeName="fill" to="#808080" begin="arrowRight.mouseover" end="arrowRight.mouseout"/>
                  </use>
                  <path fill="none" stroke="white" stroke-width="1.5" d="M0,-3.0v7 M-2.5,-0.5L0,-3.0L2.5,-0.5"/>
                </g>
                <g id="arrowDown" xlink:href="#dirArrow" transform="rotate(180) translate(-30 -48)" onmousedown="handlePan(0,1)">
                  <use xlink:href="#rim" fill="#404040">
                        <set attributeName="fill" to="#808080" begin="arrowDown.mouseover" end="arrowDown.mouseout"/>
                  </use>
                  <path fill="none" stroke="white" stroke-width="1.5" d="M0,-3.0v7 M-2.5,-0.5L0,-3.0L2.5,-0.5"/>
                </g>
                <g id="arrowLeft" xlink:href="#dirArrow" transform="rotate(270) translate(-36 17)" onmousedown="handlePan(-1,0)">
                  <use xlink:href="#rim" fill="#404040">
                        <set attributeName="fill" to="#808080" begin="arrowLeft.mouseover" end="arrowLeft.mouseout"/>
                  </use>
                  <path fill="none" stroke="white" stroke-width="1.5" d="M0,-3.0v7 M-2.5,-0.5L0,-3.0L2.5,-0.5"/>
                </g>
        </g>
        <svg viewBox="0 0 15 15" width="100%" height="30px" preserveAspectRatio="xMaxYMin meet">
         <g id="arrow_out" transform="scale(0.3 0.3)">
          <a xlink:href="classPodmanPodUsageCommand_afa3e242992fe8860625ff23403ce20e4_cgraph_org.svg" target="_base">
           <rect id="button" ry="5" rx="5" y="6" x="6" height="38" width="38"
                fill="#f2f5e9" fill-opacity="0.5" stroke="#606060" stroke-width="1.0"/>
           <path id="arrow"
             d="M 11.500037,31.436501 C 11.940474,20.09759 22.043105,11.32322 32.158766,21.979434 L 37.068811,17.246167 C 37.068811,17.246167 37.088388,32 37.088388,32 L 22.160133,31.978069 C 22.160133,31.978069 26.997745,27.140456 26.997745,27.140456 C 18.528582,18.264221 13.291696,25.230495 11.500037,31.436501 z"
             style="fill:#404040;"/>
          </a>
         </g>
        </svg>
</svg>
