<?xml version="1.0" encoding="UTF-8" standalone="no"?>
<!DOCTYPE svg PUBLIC "-//W3C//DTD SVG 1.1//EN"
 "http://www.w3.org/Graphics/SVG/1.1/DTD/svg11.dtd">
<!-- Generated by graphviz version 2.43.0 (0)
 -->
<!-- Title: K3sApplyPodCommand Pages: 1 -->
<svg width="221pt" height="310pt"
 viewBox="0.00 0.00 221.00 310.00" xmlns="http://www.w3.org/2000/svg" xmlns:xlink="http://www.w3.org/1999/xlink">
<g id="graph0" class="graph" transform="scale(1 1) rotate(0) translate(4 306)">
<title>K3sApplyPodCommand</title>
<polygon fill="white" stroke="transparent" points="-4,4 -4,-306 217,-306 217,4 -4,4"/>
<!-- Node1 -->
<g id="node1" class="node">
<title>Node1</title>
<g id="a_node1"><a xlink:title=" ">
<polygon fill="#bfbfbf" stroke="black" points="0,-0.5 0,-79.5 158,-79.5 158,-0.5 0,-0.5"/>
<text text-anchor="middle" x="79" y="-67.5" font-family="Helvetica,sans-Serif" font-size="10.00">K3sApplyPodCommand</text>
<polyline fill="none" stroke="black" points="0,-60.5 158,-60.5 "/>
<text text-anchor="middle" x="79" y="-48.5" font-family="Helvetica,sans-Serif" font-size="10.00"> </text>
<polyline fill="none" stroke="black" points="0,-41.5 158,-41.5 "/>
<text text-anchor="start" x="8" y="-29.5" font-family="Helvetica,sans-Serif" font-size="10.00">+ K3sApplyPodCommand()</text>
<text text-anchor="start" x="8" y="-18.5" font-family="Helvetica,sans-Serif" font-size="10.00">+ ~K3sApplyPodCommand()</text>
<text text-anchor="start" x="8" y="-7.5" font-family="Helvetica,sans-Serif" font-size="10.00">+ Execute()</text>
</a>
</g>
</g>
<!-- Node2 -->
<g id="node2" class="node">
<title>Node2</title>
<g id="a_node2"><a xlink:href="classCommand.html" target="_top" xlink:title=" ">
<polygon fill="white" stroke="black" points="16,-127.5 16,-195.5 110,-195.5 110,-127.5 16,-127.5"/>
<text text-anchor="middle" x="63" y="-183.5" font-family="Helvetica,sans-Serif" font-size="10.00">Command</text>
<polyline fill="none" stroke="black" points="16,-176.5 110,-176.5 "/>
<text text-anchor="middle" x="63" y="-164.5" font-family="Helvetica,sans-Serif" font-size="10.00"> </text>
<polyline fill="none" stroke="black" points="16,-157.5 110,-157.5 "/>
<text text-anchor="start" x="24" y="-145.5" font-family="Helvetica,sans-Serif" font-size="10.00">+ Execute()</text>
<text text-anchor="start" x="24" y="-134.5" font-family="Helvetica,sans-Serif" font-size="10.00">+ ~Command()</text>
</a>
</g>
</g>
<!-- Node2&#45;&gt;Node1 -->
<g id="edge1" class="edge">
<title>Node2&#45;&gt;Node1</title>
<path fill="none" stroke="midnightblue" d="M68.8,-117.18C70.45,-104.89 72.23,-91.59 73.83,-79.6"/>
<polygon fill="none" stroke="midnightblue" points="65.32,-116.84 67.46,-127.21 72.25,-117.77 65.32,-116.84"/>
</g>
<!-- Node3 -->
<g id="node3" class="node">
<title>Node3</title>
<g id="a_node3"><a xlink:title="STL class.">
<polygon fill="white" stroke="#bfbfbf" points="128.5,-133 128.5,-190 193.5,-190 193.5,-133 128.5,-133"/>
<text text-anchor="middle" x="161" y="-178" font-family="Helvetica,sans-Serif" font-size="10.00">std::string</text>
<polyline fill="none" stroke="#bfbfbf" points="128.5,-171 193.5,-171 "/>
<text text-anchor="middle" x="161" y="-159" font-family="Helvetica,sans-Serif" font-size="10.00"> </text>
<polyline fill="none" stroke="#bfbfbf" points="128.5,-152 193.5,-152 "/>
<text text-anchor="middle" x="161" y="-140" font-family="Helvetica,sans-Serif" font-size="10.00"> </text>
</a>
</g>
</g>
<!-- Node3&#45;&gt;Node1 -->
<g id="edge2" class="edge">
<title>Node3&#45;&gt;Node1</title>
<path fill="none" stroke="#404040" d="M141.98,-132.78C133.22,-120.01 122.55,-104.47 112.5,-89.83"/>
<polygon fill="none" stroke="#404040" points="112.47,-89.78 105.78,-87.09 105.68,-79.88 112.37,-82.56 112.47,-89.78"/>
<text text-anchor="middle" x="156" y="-101" font-family="Helvetica,sans-Serif" font-size="10.00"> &#45;app_name_</text>
</g>
<!-- Node4 -->
<g id="node4" class="node">
<title>Node4</title>
<g id="a_node4"><a xlink:title="STL class.">
<polygon fill="white" stroke="#bfbfbf" points="109,-233.5 109,-301.5 213,-301.5 213,-233.5 109,-233.5"/>
<text text-anchor="start" x="117" y="-289.5" font-family="Helvetica,sans-Serif" font-size="10.00">std::basic_string&lt;</text>
<text text-anchor="middle" x="161" y="-278.5" font-family="Helvetica,sans-Serif" font-size="10.00"> char &gt;</text>
<polyline fill="none" stroke="#bfbfbf" points="109,-271.5 213,-271.5 "/>
<text text-anchor="middle" x="161" y="-259.5" font-family="Helvetica,sans-Serif" font-size="10.00"> </text>
<polyline fill="none" stroke="#bfbfbf" points="109,-252.5 213,-252.5 "/>
<text text-anchor="middle" x="161" y="-240.5" font-family="Helvetica,sans-Serif" font-size="10.00"> </text>
</a>
</g>
</g>
<!-- Node4&#45;&gt;Node3 -->
<g id="edge3" class="edge">
<title>Node4&#45;&gt;Node3</title>
<path fill="none" stroke="midnightblue" d="M161,-223.25C161,-212.05 161,-200.3 161,-190.15"/>
<polygon fill="none" stroke="midnightblue" points="157.5,-223.31 161,-233.31 164.5,-223.31 157.5,-223.31"/>
</g>
</g>
</svg>
