<?xml version="1.0" encoding="UTF-8" standalone="no"?>
<!DOCTYPE svg PUBLIC "-//W3C//DTD SVG 1.1//EN"
 "http://www.w3.org/Graphics/SVG/1.1/DTD/svg11.dtd">
<!-- Generated by graphviz version 2.43.0 (0)
 -->
<!-- Title: nlohmann::detail::binary_reader::get_bson_string Pages: 1 -->
<!--zoomable 286 -->
<svg id="main" version="1.1" xmlns="http://www.w3.org/2000/svg" xmlns:xlink="http://www.w3.org/1999/xlink" xml:space="preserve" onload="init(evt)">
<style type="text/css"><![CDATA[
.edge:hover path { stroke: red; }
.edge:hover polygon { stroke: red; fill: red; }
]]></style>
<script type="text/javascript"><![CDATA[
var edges = document.getElementsByTagName('g');
if (edges && edges.length) {
  for (var i=0;i<edges.length;i++) {
    if (edges[i].id.substr(0,4)=='edge') {
      edges[i].setAttribute('class','edge');
    }
  }
}
]]></script>
        <defs>
                <circle id="rim" cx="0" cy="0" r="7"/>
                <circle id="rim2" cx="0" cy="0" r="3.5"/>
                <g id="zoomPlus">
                        <use xlink:href="#rim" target="_top" target="_top" target="_top" fill="#404040">
                                <set attributeName="fill" to="#808080" begin="zoomplus.mouseover" end="zoomplus.mouseout"/>
                        </use>
                        <path d="M-4,0h8M0,-4v8" fill="none" stroke="white" stroke-width="1.5" pointer-events="none"/>
                </g>
                <g id="zoomMin">
                        <use xlink:href="#rim" target="_top" target="_top" target="_top" fill="#404040">
                                <set attributeName="fill" to="#808080" begin="zoomminus.mouseover" end="zoomminus.mouseout"/>
                        </use>
                        <path d="M-4,0h8" fill="none" stroke="white" stroke-width="1.5" pointer-events="none"/>
                </g>
                <g id="dirArrow">
                        <path fill="none" stroke="white" stroke-width="1.5" d="M0,-3.0v7 M-2.5,-0.5L0,-3.0L2.5,-0.5"/>
                </g>
               <g id="resetDef">
                       <use xlink:href="#rim2" target="_top" target="_top" target="_top" fill="#404040">
                               <set attributeName="fill" to="#808080" begin="reset.mouseover" end="reset.mouseout"/>
                       </use>
               </g>
        </defs>

<script type="text/javascript">
var viewWidth = 1008;
var viewHeight = 286;
var sectionId = 'dynsection-12';
</script>
<script xlink:href="svgpan.js" target="_top" target="_top" target="_top"/>
<svg id="graph" class="graph">
<g id="viewport">
<title>nlohmann::detail::binary_reader::get_bson_string</title>
<polygon fill="white" stroke="transparent" points="-4,4 -4,-281.5 1004,-281.5 1004,4 -4,4"/>
<!-- Node1 -->
<g id="node1" class="node">
<title>Node1</title>
<g id="a_node1"><a xlink:title="Parses a zero&#45;terminated string of length len from the BSON input.">
<polygon fill="#bfbfbf" stroke="black" points="0,-102 0,-132 137,-132 137,-102 0,-102"/>
<text text-anchor="start" x="8" y="-120" font-family="Helvetica,sans-Serif" font-size="10.00">nlohmann::detail::binary</text>
<text text-anchor="middle" x="68.5" y="-109" font-family="Helvetica,sans-Serif" font-size="10.00">_reader::get_bson_string</text>
</a>
</g>
</g>
<!-- Node2 -->
<g id="node2" class="node">
<title>Node2</title>
<g id="a_node2"><a xlink:href="classnlohmann_1_1detail_1_1parse__error.html#a137ea4d27de45d8a844fd13451d40f3d" target="_top" target="_top" target="_top" target="_top" xlink:title="create a parse error exception">
<polygon fill="white" stroke="black" points="533.5,-198 533.5,-228 665.5,-228 665.5,-198 533.5,-198"/>
<text text-anchor="start" x="541.5" y="-216" font-family="Helvetica,sans-Serif" font-size="10.00">nlohmann::detail::parse</text>
<text text-anchor="middle" x="599.5" y="-205" font-family="Helvetica,sans-Serif" font-size="10.00">_error::create</text>
</a>
</g>
</g>
<!-- Node1&#45;&gt;Node2 -->
<g id="edge1" class="edge">
<title>Node1&#45;&gt;Node2</title>
<path fill="none" stroke="midnightblue" d="M81.63,-132.15C99.24,-152.88 134.07,-189.29 173,-205 288.17,-251.47 435.55,-240.37 523.18,-227.26"/>
<polygon fill="midnightblue" stroke="midnightblue" points="523.96,-230.68 533.31,-225.69 522.89,-223.76 523.96,-230.68"/>
</g>
<!-- Node7 -->
<g id="node7" class="node">
<title>Node7</title>
<g id="a_node7"><a xlink:href="classnlohmann_1_1detail_1_1binary__reader.html#a82b86133c98a0565446a44dfd3e418e6" target="_top" target="_top" target="_top" target="_top" xlink:title=" ">
<polygon fill="white" stroke="black" points="521,-105 521,-135 678,-135 678,-105 521,-105"/>
<text text-anchor="start" x="529" y="-123" font-family="Helvetica,sans-Serif" font-size="10.00">nlohmann::detail::binary</text>
<text text-anchor="middle" x="599.5" y="-112" font-family="Helvetica,sans-Serif" font-size="10.00">_reader::exception_message</text>
</a>
</g>
</g>
<!-- Node1&#45;&gt;Node7 -->
<g id="edge7" class="edge">
<title>Node1&#45;&gt;Node7</title>
<path fill="none" stroke="midnightblue" d="M137.15,-116.45C219.39,-115.91 362.38,-115.38 485,-117 493.36,-117.11 502.06,-117.27 510.77,-117.45"/>
<polygon fill="midnightblue" stroke="midnightblue" points="510.89,-120.95 520.97,-117.68 511.05,-113.96 510.89,-120.95"/>
</g>
<!-- Node9 -->
<g id="node9" class="node">
<title>Node9</title>
<g id="a_node9"><a xlink:href="classnlohmann_1_1detail_1_1binary__reader.html#af70e7d5f19a2ee196e24f58acf579411" target="_top" target="_top" target="_top" target="_top" xlink:title="get next character from the input">
<polygon fill="white" stroke="black" points="349,-127 349,-157 485,-157 485,-127 349,-127"/>
<text text-anchor="start" x="357" y="-145" font-family="Helvetica,sans-Serif" font-size="10.00">nlohmann::detail::binary</text>
<text text-anchor="middle" x="417" y="-134" font-family="Helvetica,sans-Serif" font-size="10.00">_reader::get</text>
</a>
</g>
</g>
<!-- Node1&#45;&gt;Node9 -->
<g id="edge9" class="edge">
<title>Node1&#45;&gt;Node9</title>
<path fill="none" stroke="midnightblue" d="M137.13,-121.88C194.94,-126.05 278.12,-132.05 338.58,-136.41"/>
<polygon fill="midnightblue" stroke="midnightblue" points="338.61,-139.93 348.83,-137.15 339.11,-132.94 338.61,-139.93"/>
</g>
<!-- Node10 -->
<g id="node10" class="node">
<title>Node10</title>
<g id="a_node10"><a xlink:href="classnlohmann_1_1detail_1_1binary__reader.html#a1f4b5da029a561c8711426b0a7316ec6" target="_top" target="_top" target="_top" target="_top" xlink:title="create a string by reading characters from the input">
<polygon fill="white" stroke="black" points="175,-165 175,-195 311,-195 311,-165 175,-165"/>
<text text-anchor="start" x="183" y="-183" font-family="Helvetica,sans-Serif" font-size="10.00">nlohmann::detail::binary</text>
<text text-anchor="middle" x="243" y="-172" font-family="Helvetica,sans-Serif" font-size="10.00">_reader::get_string</text>
</a>
</g>
</g>
<!-- Node1&#45;&gt;Node10 -->
<g id="edge10" class="edge">
<title>Node1&#45;&gt;Node10</title>
<path fill="none" stroke="midnightblue" d="M110.82,-132.09C134.95,-140.9 165.58,-152.09 191.18,-161.44"/>
<polygon fill="midnightblue" stroke="midnightblue" points="190.13,-164.78 200.72,-164.92 192.53,-158.21 190.13,-164.78"/>
</g>
<!-- Node12 -->
<g id="node12" class="node">
<title>Node12</title>
<g id="a_node12"><a xlink:href="classnlohmann_1_1detail_1_1binary__reader.html#acf8d3f7b17efd05655fcb6f47a2eaa79" target="_top" target="_top" target="_top" target="_top" xlink:title=" ">
<polygon fill="white" stroke="black" points="173,-39 173,-69 313,-69 313,-39 173,-39"/>
<text text-anchor="start" x="181" y="-57" font-family="Helvetica,sans-Serif" font-size="10.00">nlohmann::detail::binary</text>
<text text-anchor="middle" x="243" y="-46" font-family="Helvetica,sans-Serif" font-size="10.00">_reader::get_token_string</text>
</a>
</g>
</g>
<!-- Node1&#45;&gt;Node12 -->
<g id="edge15" class="edge">
<title>Node1&#45;&gt;Node12</title>
<path fill="none" stroke="midnightblue" d="M110.82,-101.91C134.95,-93.1 165.58,-81.91 191.18,-72.56"/>
<polygon fill="midnightblue" stroke="midnightblue" points="192.53,-75.79 200.72,-69.08 190.13,-69.22 192.53,-75.79"/>
</g>
<!-- Node13 -->
<g id="node13" class="node">
<title>Node13</title>
<g id="a_node13"><a xlink:href="namespacenlohmann.html#ad675d1c22f5240b2b3065c241b204477" target="_top" target="_top" target="_top" target="_top" xlink:title="user&#45;defined to_string function for JSON values">
<polygon fill="white" stroke="black" points="186,-0.5 186,-19.5 300,-19.5 300,-0.5 186,-0.5"/>
<text text-anchor="middle" x="243" y="-7.5" font-family="Helvetica,sans-Serif" font-size="10.00">nlohmann::to_string</text>
</a>
</g>
</g>
<!-- Node1&#45;&gt;Node13 -->
<g id="edge16" class="edge">
<title>Node1&#45;&gt;Node13</title>
<path fill="none" stroke="midnightblue" d="M83.07,-101.94C101.55,-82.34 136.52,-48.3 173,-29 177.3,-26.72 181.91,-24.7 186.62,-22.9"/>
<polygon fill="midnightblue" stroke="midnightblue" points="188.07,-26.1 196.37,-19.52 185.78,-19.49 188.07,-26.1"/>
</g>
<!-- Node3 -->
<g id="node3" class="node">
<title>Node3</title>
<g id="a_node3"><a xlink:href="classnlohmann_1_1detail_1_1exception.html#abf41a7e9178356314082284e6cfea278" target="_top" target="_top" target="_top" target="_top" xlink:title=" ">
<polygon fill="white" stroke="black" points="714,-198 714,-228 867,-228 867,-198 714,-198"/>
<text text-anchor="start" x="722" y="-216" font-family="Helvetica,sans-Serif" font-size="10.00">nlohmann::detail::exception</text>
<text text-anchor="middle" x="790.5" y="-205" font-family="Helvetica,sans-Serif" font-size="10.00">::name</text>
</a>
</g>
</g>
<!-- Node2&#45;&gt;Node3 -->
<g id="edge2" class="edge">
<title>Node2&#45;&gt;Node3</title>
<path fill="none" stroke="midnightblue" d="M665.54,-213C677.84,-213 690.89,-213 703.71,-213"/>
<polygon fill="midnightblue" stroke="midnightblue" points="703.93,-216.5 713.93,-213 703.93,-209.5 703.93,-216.5"/>
</g>
<!-- Node5 -->
<g id="node5" class="node">
<title>Node5</title>
<g id="a_node5"><a xlink:href="classnlohmann_1_1detail_1_1parse__error.html#a0ea816ea3521d7109407948cb1b850f7" target="_top" target="_top" target="_top" target="_top" xlink:title=" ">
<polygon fill="white" stroke="black" points="724.5,-149 724.5,-179 856.5,-179 856.5,-149 724.5,-149"/>
<text text-anchor="start" x="732.5" y="-167" font-family="Helvetica,sans-Serif" font-size="10.00">nlohmann::detail::parse</text>
<text text-anchor="middle" x="790.5" y="-156" font-family="Helvetica,sans-Serif" font-size="10.00">_error::parse_error</text>
</a>
</g>
</g>
<!-- Node2&#45;&gt;Node5 -->
<g id="edge4" class="edge">
<title>Node2&#45;&gt;Node5</title>
<path fill="none" stroke="midnightblue" d="M658.49,-197.97C678.54,-192.77 701.17,-186.9 721.92,-181.52"/>
<polygon fill="midnightblue" stroke="midnightblue" points="722.82,-184.9 731.62,-179.01 721.06,-178.13 722.82,-184.9"/>
</g>
<!-- Node6 -->
<g id="node6" class="node">
<title>Node6</title>
<g id="a_node6"><a xlink:href="classnlohmann_1_1detail_1_1parse__error.html#aefe74adeaa48781464ba2fd2ec63d221" target="_top" target="_top" target="_top" target="_top" xlink:title=" ">
<polygon fill="white" stroke="black" points="724.5,-247 724.5,-277 856.5,-277 856.5,-247 724.5,-247"/>
<text text-anchor="start" x="732.5" y="-265" font-family="Helvetica,sans-Serif" font-size="10.00">nlohmann::detail::parse</text>
<text text-anchor="middle" x="790.5" y="-254" font-family="Helvetica,sans-Serif" font-size="10.00">_error::position_string</text>
</a>
</g>
</g>
<!-- Node2&#45;&gt;Node6 -->
<g id="edge5" class="edge">
<title>Node2&#45;&gt;Node6</title>
<path fill="none" stroke="midnightblue" d="M658.49,-228.03C678.54,-233.23 701.17,-239.1 721.92,-244.48"/>
<polygon fill="midnightblue" stroke="midnightblue" points="721.06,-247.87 731.62,-246.99 722.82,-241.1 721.06,-247.87"/>
</g>
<!-- Node4 -->
<g id="node4" class="node">
<title>Node4</title>
<g id="a_node4"><a xlink:href="namespacehttplib.html#a498c3a79825ecbcb15c52ec5fcfd5c11" target="_top" target="_top" target="_top" target="_top" xlink:title=" ">
<polygon fill="white" stroke="black" points="903,-227.5 903,-246.5 1000,-246.5 1000,-227.5 903,-227.5"/>
<text text-anchor="middle" x="951.5" y="-234.5" font-family="Helvetica,sans-Serif" font-size="10.00">httplib::to_string</text>
</a>
</g>
</g>
<!-- Node3&#45;&gt;Node4 -->
<g id="edge3" class="edge">
<title>Node3&#45;&gt;Node4</title>
<path fill="none" stroke="midnightblue" d="M867.27,-224.44C875.92,-225.74 884.62,-227.06 892.97,-228.32"/>
<polygon fill="midnightblue" stroke="midnightblue" points="892.55,-231.79 902.96,-229.82 893.59,-224.87 892.55,-231.79"/>
</g>
<!-- Node6&#45;&gt;Node4 -->
<g id="edge6" class="edge">
<title>Node6&#45;&gt;Node4</title>
<path fill="none" stroke="midnightblue" d="M856.63,-251.76C868.57,-249.88 880.96,-247.93 892.66,-246.09"/>
<polygon fill="midnightblue" stroke="midnightblue" points="893.42,-249.52 902.75,-244.51 892.33,-242.6 893.42,-249.52"/>
</g>
<!-- Node8 -->
<g id="node8" class="node">
<title>Node8</title>
<g id="a_node8"><a xlink:href="FuzzerTracePC_8cpp.html#a1f10ac78bd11294b612636121065eb5b" target="_top" target="_top" target="_top" target="_top" xlink:title=" ">
<polygon fill="white" stroke="black" points="767,-110.5 767,-129.5 814,-129.5 814,-110.5 767,-110.5"/>
<text text-anchor="middle" x="790.5" y="-117.5" font-family="Helvetica,sans-Serif" font-size="10.00">assert</text>
</a>
</g>
</g>
<!-- Node7&#45;&gt;Node8 -->
<g id="edge8" class="edge">
<title>Node7&#45;&gt;Node8</title>
<path fill="none" stroke="midnightblue" d="M678.19,-120C705.54,-120 734.83,-120 756.5,-120"/>
<polygon fill="midnightblue" stroke="midnightblue" points="756.78,-123.5 766.78,-120 756.78,-116.5 756.78,-123.5"/>
</g>
<!-- Node10&#45;&gt;Node9 -->
<g id="edge11" class="edge">
<title>Node10&#45;&gt;Node9</title>
<path fill="none" stroke="midnightblue" d="M311.49,-165.09C320.54,-163.09 329.88,-161.03 339.08,-158.99"/>
<polygon fill="midnightblue" stroke="midnightblue" points="339.98,-162.38 348.99,-156.8 338.47,-155.54 339.98,-162.38"/>
</g>
<!-- Node11 -->
<g id="node11" class="node">
<title>Node11</title>
<g id="a_node11"><a xlink:href="classnlohmann_1_1detail_1_1binary__reader.html#a91dd7341d9d74c58866877ddfe58dd03" target="_top" target="_top" target="_top" target="_top" xlink:title=" ">
<polygon fill="white" stroke="black" points="349,-176 349,-206 485,-206 485,-176 349,-176"/>
<text text-anchor="start" x="357" y="-194" font-family="Helvetica,sans-Serif" font-size="10.00">nlohmann::detail::binary</text>
<text text-anchor="middle" x="417" y="-183" font-family="Helvetica,sans-Serif" font-size="10.00">_reader::unexpect_eof</text>
</a>
</g>
</g>
<!-- Node10&#45;&gt;Node11 -->
<g id="edge12" class="edge">
<title>Node10&#45;&gt;Node11</title>
<path fill="none" stroke="midnightblue" d="M311.49,-184.32C320.44,-184.89 329.68,-185.48 338.79,-186.06"/>
<polygon fill="midnightblue" stroke="midnightblue" points="338.79,-189.57 348.99,-186.71 339.24,-182.58 338.79,-189.57"/>
</g>
<!-- Node11&#45;&gt;Node2 -->
<g id="edge13" class="edge">
<title>Node11&#45;&gt;Node2</title>
<path fill="none" stroke="midnightblue" d="M485.21,-199.19C497.63,-200.71 510.67,-202.29 523.3,-203.83"/>
<polygon fill="midnightblue" stroke="midnightblue" points="522.98,-207.32 533.33,-205.06 523.83,-200.37 522.98,-207.32"/>
</g>
<!-- Node11&#45;&gt;Node7 -->
<g id="edge14" class="edge">
<title>Node11&#45;&gt;Node7</title>
<path fill="none" stroke="midnightblue" d="M458.81,-175.98C467.48,-172.73 476.55,-169.29 485,-166 507.32,-157.31 531.98,-147.36 552.59,-138.95"/>
<polygon fill="midnightblue" stroke="midnightblue" points="554.13,-142.1 562.06,-135.07 551.47,-135.62 554.13,-142.1"/>
</g>
</g>
</svg>
        <g id="navigator" transform="translate(0 0)" fill="#404254">
                <rect fill="#f2f5e9" fill-opacity="0.5" stroke="#606060" stroke-width=".5" x="0" y="0" width="60" height="60"/>
                <use id="zoomplus" xlink:href="#zoomPlus" target="_top" target="_top" target="_top" x="17" y="9" onmousedown="handleZoom(evt,'in')"/>
                <use id="zoomminus" xlink:href="#zoomMin" target="_top" target="_top" target="_top" x="42" y="9" onmousedown="handleZoom(evt,'out')"/>
                <use id="reset" xlink:href="#resetDef" target="_top" target="_top" target="_top" x="30" y="36" onmousedown="handleReset()"/>
                <g id="arrowUp" xlink:href="#dirArrow" target="_top" target="_top" target="_top" transform="translate(30 24)" onmousedown="handlePan(0,-1)">
                  <use xlink:href="#rim" target="_top" target="_top" target="_top" fill="#404040">
                        <set attributeName="fill" to="#808080" begin="arrowUp.mouseover" end="arrowUp.mouseout"/>
                  </use>
                  <path fill="none" stroke="white" stroke-width="1.5" d="M0,-3.0v7 M-2.5,-0.5L0,-3.0L2.5,-0.5"/>
                </g>
                <g id="arrowRight" xlink:href="#dirArrow" target="_top" target="_top" target="_top" transform="rotate(90) translate(36 -43)" onmousedown="handlePan(1,0)">
                  <use xlink:href="#rim" target="_top" target="_top" target="_top" fill="#404040">
                        <set attributeName="fill" to="#808080" begin="arrowRight.mouseover" end="arrowRight.mouseout"/>
                  </use>
                  <path fill="none" stroke="white" stroke-width="1.5" d="M0,-3.0v7 M-2.5,-0.5L0,-3.0L2.5,-0.5"/>
                </g>
                <g id="arrowDown" xlink:href="#dirArrow" target="_top" target="_top" target="_top" transform="rotate(180) translate(-30 -48)" onmousedown="handlePan(0,1)">
                  <use xlink:href="#rim" target="_top" target="_top" target="_top" fill="#404040">
                        <set attributeName="fill" to="#808080" begin="arrowDown.mouseover" end="arrowDown.mouseout"/>
                  </use>
                  <path fill="none" stroke="white" stroke-width="1.5" d="M0,-3.0v7 M-2.5,-0.5L0,-3.0L2.5,-0.5"/>
                </g>
                <g id="arrowLeft" xlink:href="#dirArrow" target="_top" target="_top" target="_top" transform="rotate(270) translate(-36 17)" onmousedown="handlePan(-1,0)">
                  <use xlink:href="#rim" target="_top" target="_top" target="_top" fill="#404040">
                        <set attributeName="fill" to="#808080" begin="arrowLeft.mouseover" end="arrowLeft.mouseout"/>
                  </use>
                  <path fill="none" stroke="white" stroke-width="1.5" d="M0,-3.0v7 M-2.5,-0.5L0,-3.0L2.5,-0.5"/>
                </g>
        </g>
        <svg viewBox="0 0 15 15" width="100%" height="30px" preserveAspectRatio="xMaxYMin meet">
         <g id="arrow_out" transform="scale(0.3 0.3)">
          <a xlink:href="classnlohmann_1_1detail_1_1binary__reader_a46bf64d7193eea97cac6dd4d4abdb4fa_cgraph_org.svg" target="_top" target="_top" target="_top" target="_base">
           <rect id="button" ry="5" rx="5" y="6" x="6" height="38" width="38"
                fill="#f2f5e9" fill-opacity="0.5" stroke="#606060" stroke-width="1.0"/>
           <path id="arrow"
             d="M 11.500037,31.436501 C 11.940474,20.09759 22.043105,11.32322 32.158766,21.979434 L 37.068811,17.246167 C 37.068811,17.246167 37.088388,32 37.088388,32 L 22.160133,31.978069 C 22.160133,31.978069 26.997745,27.140456 26.997745,27.140456 C 18.528582,18.264221 13.291696,25.230495 11.500037,31.436501 z"
             style="fill:#404040;"/>
          </a>
         </g>
        </svg>
</svg>
