<?xml version="1.0" encoding="UTF-8" standalone="no"?>
<!DOCTYPE svg PUBLIC "-//W3C//DTD SVG 1.1//EN"
 "http://www.w3.org/Graphics/SVG/1.1/DTD/svg11.dtd">
<!-- Generated by graphviz version 2.43.0 (0)
 -->
<!-- Title: fuzzer::InputCorpus::NumFeatures Pages: 1 -->
<svg width="1291pt" height="427pt"
 viewBox="0.00 0.00 1291.00 427.43" xmlns="http://www.w3.org/2000/svg" xmlns:xlink="http://www.w3.org/1999/xlink">
<g id="graph0" class="graph" transform="scale(1 1) rotate(0) translate(4 423.43)">
<title>fuzzer::InputCorpus::NumFeatures</title>
<polygon fill="white" stroke="transparent" points="-4,4 -4,-423.43 1287,-423.43 1287,4 -4,4"/>
<!-- Node1 -->
<g id="node1" class="node">
<title>Node1</title>
<g id="a_node1"><a xlink:title=" ">
<polygon fill="#bfbfbf" stroke="black" points="1172,-291.83 1172,-321.83 1283,-321.83 1283,-291.83 1172,-291.83"/>
<text text-anchor="start" x="1180" y="-309.83" font-family="Helvetica,sans-Serif" font-size="10.00">fuzzer::InputCorpus</text>
<text text-anchor="middle" x="1227.5" y="-298.83" font-family="Helvetica,sans-Serif" font-size="10.00">::NumFeatures</text>
</a>
</g>
</g>
<!-- Node2 -->
<g id="node2" class="node">
<title>Node2</title>
<g id="a_node2"><a xlink:href="classfuzzer_1_1InputCorpus.html#ac90b42d22754fcd60b9cb67f92ee4995" target="_top" xlink:title=" ">
<polygon fill="white" stroke="black" points="623.5,-302.83 623.5,-332.83 734.5,-332.83 734.5,-302.83 623.5,-302.83"/>
<text text-anchor="start" x="631.5" y="-320.83" font-family="Helvetica,sans-Serif" font-size="10.00">fuzzer::InputCorpus</text>
<text text-anchor="middle" x="679" y="-309.83" font-family="Helvetica,sans-Serif" font-size="10.00">::AddToCorpus</text>
</a>
</g>
</g>
<!-- Node1&#45;&gt;Node2 -->
<g id="edge1" class="edge">
<title>Node1&#45;&gt;Node2</title>
<path fill="none" stroke="midnightblue" d="M1197.43,-327.4C1180.4,-338.17 1157.98,-350.26 1136,-355.83 985.64,-393.92 939.86,-382.17 787,-355.83 761.55,-351.44 734.13,-341.6 713.42,-333.02"/>
<polygon fill="midnightblue" stroke="midnightblue" points="1199.35,-330.32 1205.81,-321.93 1195.52,-324.46 1199.35,-330.32"/>
</g>
<!-- Node11 -->
<g id="node11" class="node">
<title>Node11</title>
<g id="a_node11"><a xlink:href="classfuzzer_1_1InputCorpus.html#a744f87fa757688d048cbe30dee1cb6ea" target="_top" xlink:title=" ">
<polygon fill="white" stroke="black" points="1006,-316.83 1006,-346.83 1117,-346.83 1117,-316.83 1006,-316.83"/>
<text text-anchor="start" x="1014" y="-334.83" font-family="Helvetica,sans-Serif" font-size="10.00">fuzzer::InputCorpus</text>
<text text-anchor="middle" x="1061.5" y="-323.83" font-family="Helvetica,sans-Serif" font-size="10.00">::PrintFeatureSet</text>
</a>
</g>
</g>
<!-- Node1&#45;&gt;Node11 -->
<g id="edge13" class="edge">
<title>Node1&#45;&gt;Node11</title>
<path fill="none" stroke="midnightblue" d="M1161.81,-316.69C1147.03,-318.94 1131.46,-321.32 1117.15,-323.5"/>
<polygon fill="midnightblue" stroke="midnightblue" points="1162.53,-320.12 1171.89,-315.15 1161.48,-313.2 1162.53,-320.12"/>
</g>
<!-- Node13 -->
<g id="node13" class="node">
<title>Node13</title>
<g id="a_node13"><a xlink:href="classfuzzer_1_1Fuzzer.html#a8f5aa23c9773c86b0b57362a36c81247" target="_top" xlink:title=" ">
<polygon fill="white" stroke="black" points="993,-174.33 993,-193.33 1130,-193.33 1130,-174.33 993,-174.33"/>
<text text-anchor="middle" x="1061.5" y="-181.33" font-family="Helvetica,sans-Serif" font-size="10.00">fuzzer::Fuzzer::PrintStats</text>
</a>
</g>
</g>
<!-- Node1&#45;&gt;Node13 -->
<g id="edge16" class="edge">
<title>Node1&#45;&gt;Node13</title>
<path fill="none" stroke="midnightblue" d="M1198.24,-285.63C1162.22,-258.62 1101.49,-213.07 1075.23,-193.38"/>
<polygon fill="midnightblue" stroke="midnightblue" points="1196.29,-288.55 1206.39,-291.75 1200.49,-282.95 1196.29,-288.55"/>
</g>
<!-- Node22 -->
<g id="node22" class="node">
<title>Node22</title>
<g id="a_node22"><a xlink:href="classfuzzer_1_1InputCorpus.html#af20f3223f05f9a10ceacaf0e27b15ff7" target="_top" xlink:title=" ">
<polygon fill="white" stroke="black" points="987,-267.83 987,-297.83 1136,-297.83 1136,-267.83 987,-267.83"/>
<text text-anchor="start" x="995" y="-285.83" font-family="Helvetica,sans-Serif" font-size="10.00">fuzzer::InputCorpus</text>
<text text-anchor="middle" x="1061.5" y="-274.83" font-family="Helvetica,sans-Serif" font-size="10.00">::UpdateCorpusDistribution</text>
</a>
</g>
</g>
<!-- Node1&#45;&gt;Node22 -->
<g id="edge37" class="edge">
<title>Node1&#45;&gt;Node22</title>
<path fill="none" stroke="midnightblue" d="M1161.77,-297.36C1153.36,-296.12 1144.69,-294.86 1136.14,-293.6"/>
<polygon fill="midnightblue" stroke="midnightblue" points="1161.49,-300.85 1171.89,-298.84 1162.5,-293.93 1161.49,-300.85"/>
</g>
<!-- Node3 -->
<g id="node3" class="node">
<title>Node3</title>
<g id="a_node3"><a xlink:href="namespacefuzzer.html#a1553a49adb4d4d19b4f4dd52ff54cb68" target="_top" xlink:title=" ">
<polygon fill="white" stroke="black" points="227,-190.83 227,-220.83 377,-220.83 377,-190.83 227,-190.83"/>
<text text-anchor="start" x="235" y="-208.83" font-family="Helvetica,sans-Serif" font-size="10.00">fuzzer::MinimizeCrashInput</text>
<text text-anchor="middle" x="302" y="-197.83" font-family="Helvetica,sans-Serif" font-size="10.00">InternalStep</text>
</a>
</g>
</g>
<!-- Node2&#45;&gt;Node3 -->
<g id="edge2" class="edge">
<title>Node2&#45;&gt;Node3</title>
<path fill="none" stroke="midnightblue" d="M625.14,-335.82C568.41,-351.69 477.74,-366.81 413,-327.83 383.7,-310.19 399.38,-285.68 377,-259.83 363.47,-244.2 344.59,-230.52 329.3,-220.84"/>
<polygon fill="midnightblue" stroke="midnightblue" points="626.35,-339.12 634.98,-332.97 624.4,-332.39 626.35,-339.12"/>
</g>
<!-- Node6 -->
<g id="node6" class="node">
<title>Node6</title>
<g id="a_node6"><a xlink:href="classfuzzer_1_1Fuzzer.html#a9c3b80798ae30570306d7f938961dec3" target="_top" xlink:title=" ">
<polygon fill="white" stroke="black" points="420.5,-239.83 420.5,-269.83 563.5,-269.83 563.5,-239.83 420.5,-239.83"/>
<text text-anchor="start" x="428.5" y="-257.83" font-family="Helvetica,sans-Serif" font-size="10.00">fuzzer::Fuzzer::MutateAnd</text>
<text text-anchor="middle" x="492" y="-246.83" font-family="Helvetica,sans-Serif" font-size="10.00">TestOne</text>
</a>
</g>
</g>
<!-- Node2&#45;&gt;Node6 -->
<g id="edge5" class="edge">
<title>Node2&#45;&gt;Node6</title>
<path fill="none" stroke="midnightblue" d="M628.55,-299.21C610.51,-292.57 589.9,-285.17 571,-278.83 562.14,-275.85 552.66,-272.81 543.47,-269.95"/>
<polygon fill="midnightblue" stroke="midnightblue" points="627.69,-302.62 638.28,-302.8 630.12,-296.05 627.69,-302.62"/>
</g>
<!-- Node8 -->
<g id="node8" class="node">
<title>Node8</title>
<g id="a_node8"><a xlink:href="classfuzzer_1_1Fuzzer.html#a44506dc46253928eb73397091d6c4c32" target="_top" xlink:title=" ">
<polygon fill="white" stroke="black" points="413,-288.83 413,-318.83 571,-318.83 571,-288.83 413,-288.83"/>
<text text-anchor="start" x="421" y="-306.83" font-family="Helvetica,sans-Serif" font-size="10.00">fuzzer::Fuzzer::RereadOutput</text>
<text text-anchor="middle" x="492" y="-295.83" font-family="Helvetica,sans-Serif" font-size="10.00">Corpus</text>
</a>
</g>
</g>
<!-- Node2&#45;&gt;Node8 -->
<g id="edge8" class="edge">
<title>Node2&#45;&gt;Node8</title>
<path fill="none" stroke="midnightblue" d="M613.28,-312.93C599.66,-311.9 585.15,-310.8 571.1,-309.74"/>
<polygon fill="midnightblue" stroke="midnightblue" points="613.26,-316.44 623.49,-313.7 613.79,-309.46 613.26,-316.44"/>
</g>
<!-- Node9 -->
<g id="node9" class="node">
<title>Node9</title>
<g id="a_node9"><a xlink:href="classfuzzer_1_1Fuzzer.html#a368fcca328a7e72c500caf081227f7ef" target="_top" xlink:title=" ">
<polygon fill="white" stroke="black" points="420.5,-102.83 420.5,-132.83 563.5,-132.83 563.5,-102.83 420.5,-102.83"/>
<text text-anchor="start" x="428.5" y="-120.83" font-family="Helvetica,sans-Serif" font-size="10.00">fuzzer::Fuzzer::ShuffleAnd</text>
<text text-anchor="middle" x="492" y="-109.83" font-family="Helvetica,sans-Serif" font-size="10.00">Minimize</text>
</a>
</g>
</g>
<!-- Node2&#45;&gt;Node9 -->
<g id="edge10" class="edge">
<title>Node2&#45;&gt;Node9</title>
<path fill="none" stroke="midnightblue" d="M658.88,-294.72C644.42,-277.1 624.19,-252.15 607,-229.83 590.51,-208.42 589.67,-200.37 571,-180.83 553.69,-162.7 531.17,-145.03 514.78,-133.04"/>
<polygon fill="midnightblue" stroke="midnightblue" points="656.42,-297.23 665.48,-302.73 661.82,-292.79 656.42,-297.23"/>
</g>
<!-- Node10 -->
<g id="node10" class="node">
<title>Node10</title>
<g id="a_node10"><a xlink:href="FuzzerUnittest_8cpp.html#aad9e8923a41140151cf52209bd2b76b4" target="_top" xlink:title=" ">
<polygon fill="white" stroke="black" points="471.5,-376.33 471.5,-395.33 512.5,-395.33 512.5,-376.33 471.5,-376.33"/>
<text text-anchor="middle" x="492" y="-383.33" font-family="Helvetica,sans-Serif" font-size="10.00">TEST</text>
</a>
</g>
</g>
<!-- Node2&#45;&gt;Node10 -->
<g id="edge12" class="edge">
<title>Node2&#45;&gt;Node10</title>
<path fill="none" stroke="midnightblue" d="M634.21,-336.9C614.98,-345 592.03,-354.29 571,-361.83 551.4,-368.86 528.59,-375.73 512.72,-380.3"/>
<polygon fill="midnightblue" stroke="midnightblue" points="635.78,-340.03 643.62,-332.91 633.04,-333.59 635.78,-340.03"/>
</g>
<!-- Node4 -->
<g id="node4" class="node">
<title>Node4</title>
<g id="a_node4"><a xlink:href="namespacefuzzer.html#a78f142089de84c6cbf7b5cab5f766af7" target="_top" xlink:title=" ">
<polygon fill="white" stroke="black" points="77,-129.33 77,-148.33 191,-148.33 191,-129.33 77,-129.33"/>
<text text-anchor="middle" x="134" y="-136.33" font-family="Helvetica,sans-Serif" font-size="10.00">fuzzer::FuzzerDriver</text>
</a>
</g>
</g>
<!-- Node3&#45;&gt;Node4 -->
<g id="edge3" class="edge">
<title>Node3&#45;&gt;Node4</title>
<path fill="none" stroke="midnightblue" d="M250.63,-187.07C242.7,-184.03 234.61,-180.88 227,-177.83 202.85,-168.14 175.41,-156.42 156.83,-148.37"/>
<polygon fill="midnightblue" stroke="midnightblue" points="249.59,-190.42 260.18,-190.71 252.08,-183.88 249.59,-190.42"/>
</g>
<!-- Node5 -->
<g id="node5" class="node">
<title>Node5</title>
<g id="a_node5"><a xlink:href="FuzzerMain_8cpp.html#a3c04138a5bfe5d72780bb7e82a18e627" target="_top" xlink:title=" ">
<polygon fill="white" stroke="black" points="0,-129.33 0,-148.33 41,-148.33 41,-129.33 0,-129.33"/>
<text text-anchor="middle" x="20.5" y="-136.33" font-family="Helvetica,sans-Serif" font-size="10.00">main</text>
</a>
</g>
</g>
<!-- Node4&#45;&gt;Node5 -->
<g id="edge4" class="edge">
<title>Node4&#45;&gt;Node5</title>
<path fill="none" stroke="midnightblue" d="M66.7,-138.83C57.37,-138.83 48.45,-138.83 41.04,-138.83"/>
<polygon fill="midnightblue" stroke="midnightblue" points="66.92,-142.33 76.92,-138.83 66.92,-135.33 66.92,-142.33"/>
</g>
<!-- Node7 -->
<g id="node7" class="node">
<title>Node7</title>
<g id="a_node7"><a xlink:href="classfuzzer_1_1Fuzzer.html#a0306e29f06ced3d24ed0417ea2fef34b" target="_top" xlink:title=" ">
<polygon fill="white" stroke="black" points="245.5,-269.33 245.5,-288.33 358.5,-288.33 358.5,-269.33 245.5,-269.33"/>
<text text-anchor="middle" x="302" y="-276.33" font-family="Helvetica,sans-Serif" font-size="10.00">fuzzer::Fuzzer::Loop</text>
</a>
</g>
</g>
<!-- Node6&#45;&gt;Node7 -->
<g id="edge6" class="edge">
<title>Node6&#45;&gt;Node7</title>
<path fill="none" stroke="midnightblue" d="M410.3,-265.13C392.89,-267.35 374.86,-269.65 358.66,-271.72"/>
<polygon fill="midnightblue" stroke="midnightblue" points="410.98,-268.57 420.46,-263.83 410.1,-261.63 410.98,-268.57"/>
</g>
<!-- Node7&#45;&gt;Node4 -->
<g id="edge7" class="edge">
<title>Node7&#45;&gt;Node4</title>
<path fill="none" stroke="midnightblue" d="M275.89,-263.91C261.15,-254.74 242.45,-242.38 227,-229.83 193.87,-202.91 159.24,-165.82 143.59,-148.49"/>
<polygon fill="midnightblue" stroke="midnightblue" points="274.13,-266.94 284.49,-269.18 277.79,-260.97 274.13,-266.94"/>
</g>
<!-- Node8&#45;&gt;Node7 -->
<g id="edge9" class="edge">
<title>Node8&#45;&gt;Node7</title>
<path fill="none" stroke="midnightblue" d="M402.56,-292.07C387.56,-290.07 372.36,-288.05 358.52,-286.21"/>
<polygon fill="midnightblue" stroke="midnightblue" points="402.53,-295.59 412.9,-293.44 403.45,-288.66 402.53,-295.59"/>
</g>
<!-- Node9&#45;&gt;Node4 -->
<g id="edge11" class="edge">
<title>Node9&#45;&gt;Node4</title>
<path fill="none" stroke="midnightblue" d="M410.15,-122.6C343.25,-126.54 249.94,-132.05 191.01,-135.52"/>
<polygon fill="midnightblue" stroke="midnightblue" points="410.46,-126.08 420.24,-122 410.05,-119.1 410.46,-126.08"/>
</g>
<!-- Node12 -->
<g id="node12" class="node">
<title>Node12</title>
<g id="a_node12"><a xlink:href="classfuzzer_1_1InputCorpus.html#ad5c6e7dd46c8cd5e878ac30458b74757" target="_top" xlink:title=" ">
<polygon fill="white" stroke="black" points="811,-316.83 811,-346.83 927,-346.83 927,-316.83 811,-316.83"/>
<text text-anchor="start" x="819" y="-334.83" font-family="Helvetica,sans-Serif" font-size="10.00">fuzzer::InputCorpus</text>
<text text-anchor="middle" x="869" y="-323.83" font-family="Helvetica,sans-Serif" font-size="10.00">::ValidateFeatureSet</text>
</a>
</g>
</g>
<!-- Node11&#45;&gt;Node12 -->
<g id="edge14" class="edge">
<title>Node11&#45;&gt;Node12</title>
<path fill="none" stroke="midnightblue" d="M995.88,-331.83C973.63,-331.83 948.88,-331.83 927.25,-331.83"/>
<polygon fill="midnightblue" stroke="midnightblue" points="995.91,-335.33 1005.91,-331.83 995.91,-328.33 995.91,-335.33"/>
</g>
<!-- Node12&#45;&gt;Node2 -->
<g id="edge15" class="edge">
<title>Node12&#45;&gt;Node2</title>
<path fill="none" stroke="midnightblue" d="M800.71,-326.82C779.03,-325.2 755.29,-323.43 734.65,-321.9"/>
<polygon fill="midnightblue" stroke="midnightblue" points="800.6,-330.32 810.83,-327.57 801.12,-323.34 800.6,-330.32"/>
</g>
<!-- Node13&#45;&gt;Node7 -->
<g id="edge22" class="edge">
<title>Node13&#45;&gt;Node7</title>
<path fill="none" stroke="midnightblue" d="M1040.32,-199.87C1024.02,-213.73 1001.49,-235.07 987,-257.83 962.08,-296.97 987.27,-326.89 951,-355.83 817.9,-462.04 740.94,-393.92 571,-404.83 500.92,-409.33 476.93,-433.88 413,-404.83 358.54,-380.08 320.5,-313.57 307.72,-288.54"/>
<polygon fill="midnightblue" stroke="midnightblue" points="1042.73,-202.41 1048.19,-193.34 1038.26,-197.03 1042.73,-202.41"/>
</g>
<!-- Node13&#45;&gt;Node8 -->
<g id="edge26" class="edge">
<title>Node13&#45;&gt;Node8</title>
<path fill="none" stroke="midnightblue" d="M1032.33,-197.85C1010.6,-208.13 979.54,-221.65 951,-229.83 881.21,-249.82 682.64,-278.34 571.24,-293.47"/>
<polygon fill="midnightblue" stroke="midnightblue" points="1034.12,-200.88 1041.62,-193.39 1031.09,-194.57 1034.12,-200.88"/>
</g>
<!-- Node13&#45;&gt;Node9 -->
<g id="edge36" class="edge">
<title>Node13&#45;&gt;Node9</title>
<path fill="none" stroke="midnightblue" d="M999.47,-172.55C983.71,-169.82 966.75,-167.06 951,-164.83 814.48,-145.49 653.99,-130.88 563.82,-123.4"/>
<polygon fill="midnightblue" stroke="midnightblue" points="999.18,-176.05 1009.63,-174.32 1000.38,-169.15 999.18,-176.05"/>
</g>
<!-- Node14 -->
<g id="node14" class="node">
<title>Node14</title>
<g id="a_node14"><a xlink:href="classfuzzer_1_1Fuzzer.html#a960f37bdf1d61e7043609ace07d411e4" target="_top" xlink:title=" ">
<polygon fill="white" stroke="black" points="787,-16.83 787,-46.83 951,-46.83 951,-16.83 787,-16.83"/>
<text text-anchor="start" x="795" y="-34.83" font-family="Helvetica,sans-Serif" font-size="10.00">fuzzer::Fuzzer::CrashResistant</text>
<text text-anchor="middle" x="869" y="-23.83" font-family="Helvetica,sans-Serif" font-size="10.00">MergeInternalStep</text>
</a>
</g>
</g>
<!-- Node13&#45;&gt;Node14 -->
<g id="edge17" class="edge">
<title>Node13&#45;&gt;Node14</title>
<path fill="none" stroke="midnightblue" d="M1048.45,-165.53C1030.25,-139.19 993.35,-90.61 951,-61.83 942.32,-55.93 932.33,-51.01 922.39,-46.98"/>
<polygon fill="midnightblue" stroke="midnightblue" points="1045.78,-167.83 1054.29,-174.15 1051.58,-163.9 1045.78,-167.83"/>
</g>
<!-- Node15 -->
<g id="node15" class="node">
<title>Node15</title>
<g id="a_node15"><a xlink:href="classfuzzer_1_1Fuzzer.html#a6a4abd6692ba305867fcb7df7bfe79cc" target="_top" xlink:title=" ">
<polygon fill="white" stroke="black" points="424.5,-53.83 424.5,-83.83 559.5,-83.83 559.5,-53.83 424.5,-53.83"/>
<text text-anchor="start" x="432.5" y="-71.83" font-family="Helvetica,sans-Serif" font-size="10.00">fuzzer::Fuzzer::FindExtra</text>
<text text-anchor="middle" x="492" y="-60.83" font-family="Helvetica,sans-Serif" font-size="10.00">Units</text>
</a>
</g>
</g>
<!-- Node13&#45;&gt;Node15 -->
<g id="edge19" class="edge">
<title>Node13&#45;&gt;Node15</title>
<path fill="none" stroke="midnightblue" d="M1030.21,-170.25C1008.53,-161.02 978.46,-149.2 951,-141.83 814.33,-105.15 649.45,-84.43 559.51,-75.04"/>
<polygon fill="midnightblue" stroke="midnightblue" points="1028.97,-173.52 1039.53,-174.28 1031.74,-167.1 1028.97,-173.52"/>
</g>
<!-- Node17 -->
<g id="node17" class="node">
<title>Node17</title>
<g id="a_node17"><a xlink:href="classfuzzer_1_1Fuzzer.html#ac7f5f2abe2e381509015eae6bb588410" target="_top" xlink:title=" ">
<polygon fill="white" stroke="black" points="797.5,-190.83 797.5,-220.83 940.5,-220.83 940.5,-190.83 797.5,-190.83"/>
<text text-anchor="start" x="805.5" y="-208.83" font-family="Helvetica,sans-Serif" font-size="10.00">fuzzer::Fuzzer::PrintStatus</text>
<text text-anchor="middle" x="869" y="-197.83" font-family="Helvetica,sans-Serif" font-size="10.00">ForNewUnit</text>
</a>
</g>
</g>
<!-- Node13&#45;&gt;Node17 -->
<g id="edge23" class="edge">
<title>Node13&#45;&gt;Node17</title>
<path fill="none" stroke="midnightblue" d="M982.77,-192.8C968.85,-194.41 954.41,-196.08 940.7,-197.66"/>
<polygon fill="midnightblue" stroke="midnightblue" points="983.27,-196.27 992.8,-191.65 982.46,-189.32 983.27,-196.27"/>
</g>
<!-- Node19 -->
<g id="node19" class="node">
<title>Node19</title>
<g id="a_node19"><a xlink:href="classfuzzer_1_1Fuzzer.html#a89cb175e3dd6b4e14beb716a8a64f10c" target="_top" xlink:title=" ">
<polygon fill="white" stroke="black" points="615,-152.33 615,-171.33 743,-171.33 743,-152.33 615,-152.33"/>
<text text-anchor="middle" x="679" y="-159.33" font-family="Helvetica,sans-Serif" font-size="10.00">fuzzer::Fuzzer::RunOne</text>
</a>
</g>
</g>
<!-- Node13&#45;&gt;Node19 -->
<g id="edge27" class="edge">
<title>Node13&#45;&gt;Node19</title>
<path fill="none" stroke="midnightblue" d="M982.72,-179.33C912,-175.24 808.92,-169.28 743.17,-165.48"/>
<polygon fill="midnightblue" stroke="midnightblue" points="982.73,-182.84 992.91,-179.92 983.13,-175.85 982.73,-182.84"/>
</g>
<!-- Node14&#45;&gt;Node4 -->
<g id="edge18" class="edge">
<title>Node14&#45;&gt;Node4</title>
<path fill="none" stroke="midnightblue" d="M776.73,-15.95C648.36,2.17 409.73,20.19 227,-56.83 188.95,-72.87 155.98,-111.33 142.06,-129.29"/>
<polygon fill="midnightblue" stroke="midnightblue" points="776.52,-19.45 786.92,-17.42 777.52,-12.53 776.52,-19.45"/>
</g>
<!-- Node16 -->
<g id="node16" class="node">
<title>Node16</title>
<g id="a_node16"><a xlink:href="classfuzzer_1_1Fuzzer.html#aad1ef6d2a186b7b2462363111398e54e" target="_top" xlink:title=" ">
<polygon fill="white" stroke="black" points="241.5,-66.33 241.5,-85.33 362.5,-85.33 362.5,-66.33 241.5,-66.33"/>
<text text-anchor="middle" x="302" y="-73.33" font-family="Helvetica,sans-Serif" font-size="10.00">fuzzer::Fuzzer::Merge</text>
</a>
</g>
</g>
<!-- Node15&#45;&gt;Node16 -->
<g id="edge20" class="edge">
<title>Node15&#45;&gt;Node16</title>
<path fill="none" stroke="midnightblue" d="M414.39,-71.68C397.11,-72.32 379.02,-73 362.57,-73.61"/>
<polygon fill="midnightblue" stroke="midnightblue" points="414.59,-75.18 424.45,-71.31 414.33,-68.18 414.59,-75.18"/>
</g>
<!-- Node16&#45;&gt;Node4 -->
<g id="edge21" class="edge">
<title>Node16&#45;&gt;Node4</title>
<path fill="none" stroke="midnightblue" d="M266.04,-89.1C234.34,-101.12 188.4,-118.56 160.18,-129.27"/>
<polygon fill="midnightblue" stroke="midnightblue" points="267.68,-92.22 275.79,-85.4 265.2,-85.67 267.68,-92.22"/>
</g>
<!-- Node18 -->
<g id="node18" class="node">
<title>Node18</title>
<g id="a_node18"><a xlink:href="classfuzzer_1_1Fuzzer.html#a26b0af99479a986f0b3c67950085adf1" target="_top" xlink:title=" ">
<polygon fill="white" stroke="black" points="607,-190.83 607,-220.83 751,-220.83 751,-190.83 607,-190.83"/>
<text text-anchor="start" x="615" y="-208.83" font-family="Helvetica,sans-Serif" font-size="10.00">fuzzer::Fuzzer::ReportNew</text>
<text text-anchor="middle" x="679" y="-197.83" font-family="Helvetica,sans-Serif" font-size="10.00">Coverage</text>
</a>
</g>
</g>
<!-- Node17&#45;&gt;Node18 -->
<g id="edge24" class="edge">
<title>Node17&#45;&gt;Node18</title>
<path fill="none" stroke="midnightblue" d="M787.44,-205.83C775.41,-205.83 763.07,-205.83 751.25,-205.83"/>
<polygon fill="midnightblue" stroke="midnightblue" points="787.46,-209.33 797.46,-205.83 787.46,-202.33 787.46,-209.33"/>
</g>
<!-- Node18&#45;&gt;Node6 -->
<g id="edge25" class="edge">
<title>Node18&#45;&gt;Node6</title>
<path fill="none" stroke="midnightblue" d="M611.46,-223.45C591.22,-228.81 569.18,-234.65 549.66,-239.82"/>
<polygon fill="midnightblue" stroke="midnightblue" points="612.47,-226.81 621.24,-220.86 610.67,-220.04 612.47,-226.81"/>
</g>
<!-- Node19&#45;&gt;Node6 -->
<g id="edge31" class="edge">
<title>Node19&#45;&gt;Node6</title>
<path fill="none" stroke="midnightblue" d="M616.33,-175.43C613.07,-177.03 609.93,-178.82 607,-180.83 584.69,-196.07 592.94,-214.05 571,-229.83 565.69,-233.65 559.77,-236.9 553.63,-239.67"/>
<polygon fill="midnightblue" stroke="midnightblue" points="617.95,-178.54 625.77,-171.39 615.2,-172.1 617.95,-178.54"/>
</g>
<!-- Node19&#45;&gt;Node8 -->
<g id="edge32" class="edge">
<title>Node19&#45;&gt;Node8</title>
<path fill="none" stroke="midnightblue" d="M612.49,-176.48C610.56,-177.81 608.72,-179.25 607,-180.83 572.74,-212.12 604.49,-246.71 571,-278.83 567,-282.67 562.4,-285.92 557.49,-288.67"/>
<polygon fill="midnightblue" stroke="midnightblue" points="614.49,-179.37 621.45,-171.38 611.03,-173.29 614.49,-179.37"/>
</g>
<!-- Node19&#45;&gt;Node9 -->
<g id="edge35" class="edge">
<title>Node19&#45;&gt;Node9</title>
<path fill="none" stroke="midnightblue" d="M628.03,-149.94C605.96,-144.69 579.76,-138.46 556.34,-132.89"/>
<polygon fill="midnightblue" stroke="midnightblue" points="627.32,-153.37 637.86,-152.28 628.94,-146.56 627.32,-153.37"/>
</g>
<!-- Node19&#45;&gt;Node15 -->
<g id="edge28" class="edge">
<title>Node19&#45;&gt;Node15</title>
<path fill="none" stroke="midnightblue" d="M657.38,-146.08C636.53,-130.76 602.91,-107.68 571,-92.83 563.94,-89.54 556.31,-86.56 548.68,-83.9"/>
<polygon fill="midnightblue" stroke="midnightblue" points="655.38,-148.95 665.49,-152.12 659.56,-143.34 655.38,-148.95"/>
</g>
<!-- Node20 -->
<g id="node20" class="node">
<title>Node20</title>
<g id="a_node20"><a xlink:href="classfuzzer_1_1Fuzzer.html#a54326d89b0de8eb858c70dfa78c5cc57" target="_top" xlink:title=" ">
<polygon fill="white" stroke="black" points="424.5,-190.83 424.5,-220.83 559.5,-220.83 559.5,-190.83 424.5,-190.83"/>
<text text-anchor="start" x="432.5" y="-208.83" font-family="Helvetica,sans-Serif" font-size="10.00">fuzzer::Fuzzer::Minimize</text>
<text text-anchor="middle" x="492" y="-197.83" font-family="Helvetica,sans-Serif" font-size="10.00">CrashLoop</text>
</a>
</g>
</g>
<!-- Node19&#45;&gt;Node20 -->
<g id="edge29" class="edge">
<title>Node19&#45;&gt;Node20</title>
<path fill="none" stroke="midnightblue" d="M628.03,-173.71C605.96,-178.96 579.76,-185.19 556.34,-190.76"/>
<polygon fill="midnightblue" stroke="midnightblue" points="628.94,-177.09 637.86,-171.38 627.32,-170.28 628.94,-177.09"/>
</g>
<!-- Node21 -->
<g id="node21" class="node">
<title>Node21</title>
<g id="a_node21"><a xlink:href="namespacefuzzer.html#a1fe190c22f9575ec572ce81d57c7e483" target="_top" xlink:title=" ">
<polygon fill="white" stroke="black" points="247,-149.33 247,-168.33 357,-168.33 357,-149.33 247,-149.33"/>
<text text-anchor="middle" x="302" y="-156.33" font-family="Helvetica,sans-Serif" font-size="10.00">fuzzer::RunOneTest</text>
</a>
</g>
</g>
<!-- Node19&#45;&gt;Node21 -->
<g id="edge33" class="edge">
<title>Node19&#45;&gt;Node21</title>
<path fill="none" stroke="midnightblue" d="M604.8,-161.24C532.05,-160.66 422.18,-159.78 357.01,-159.26"/>
<polygon fill="midnightblue" stroke="midnightblue" points="604.78,-164.74 614.81,-161.32 604.84,-157.74 604.78,-164.74"/>
</g>
<!-- Node20&#45;&gt;Node3 -->
<g id="edge30" class="edge">
<title>Node20&#45;&gt;Node3</title>
<path fill="none" stroke="midnightblue" d="M414.27,-205.83C402.01,-205.83 389.34,-205.83 377.14,-205.83"/>
<polygon fill="midnightblue" stroke="midnightblue" points="414.45,-209.33 424.45,-205.83 414.45,-202.33 414.45,-209.33"/>
</g>
<!-- Node21&#45;&gt;Node4 -->
<g id="edge34" class="edge">
<title>Node21&#45;&gt;Node4</title>
<path fill="none" stroke="midnightblue" d="M236.46,-151.05C221.52,-149.25 205.74,-147.35 191.19,-145.6"/>
<polygon fill="midnightblue" stroke="midnightblue" points="236.3,-154.56 246.65,-152.28 237.14,-147.61 236.3,-154.56"/>
</g>
<!-- Node22&#45;&gt;Node2 -->
<g id="edge38" class="edge">
<title>Node22&#45;&gt;Node2</title>
<path fill="none" stroke="midnightblue" d="M976.52,-289.87C922.4,-294.49 850.52,-300.78 787,-306.83 769.99,-308.45 751.47,-310.32 734.69,-312.05"/>
<polygon fill="midnightblue" stroke="midnightblue" points="977.09,-293.33 986.76,-289 976.5,-286.36 977.09,-293.33"/>
</g>
</g>
</svg>
