<?xml version="1.0" encoding="UTF-8" standalone="no"?>
<!DOCTYPE svg PUBLIC "-//W3C//DTD SVG 1.1//EN"
 "http://www.w3.org/Graphics/SVG/1.1/DTD/svg11.dtd">
<!-- Generated by graphviz version 2.43.0 (0)
 -->
<!-- Title: httplib::Server::write_response Pages: 1 -->
<svg width="1357pt" height="961pt"
 viewBox="0.00 0.00 1357.00 961.22" xmlns="http://www.w3.org/2000/svg" xmlns:xlink="http://www.w3.org/1999/xlink">
<g id="graph0" class="graph" transform="scale(1 1) rotate(0) translate(4 957.22)">
<title>httplib::Server::write_response</title>
<polygon fill="white" stroke="transparent" points="-4,4 -4,-957.22 1353,-957.22 1353,4 -4,4"/>
<!-- Node1 -->
<g id="node1" class="node">
<title>Node1</title>
<g id="a_node1"><a xlink:title=" ">
<polygon fill="#bfbfbf" stroke="black" points="0,-461.5 0,-491.5 116,-491.5 116,-461.5 0,-461.5"/>
<text text-anchor="start" x="8" y="-479.5" font-family="Helvetica,sans-Serif" font-size="10.00">httplib::Server::write</text>
<text text-anchor="middle" x="58" y="-468.5" font-family="Helvetica,sans-Serif" font-size="10.00">_response</text>
</a>
</g>
</g>
<!-- Node2 -->
<g id="node2" class="node">
<title>Node2</title>
<g id="a_node2"><a xlink:href="classhttplib_1_1Server.html#a01c6136577d21b708780a9e42de992d6" target="_top" xlink:title=" ">
<polygon fill="white" stroke="black" points="152,-461.5 152,-491.5 268,-491.5 268,-461.5 152,-461.5"/>
<text text-anchor="start" x="160" y="-479.5" font-family="Helvetica,sans-Serif" font-size="10.00">httplib::Server::write</text>
<text text-anchor="middle" x="210" y="-468.5" font-family="Helvetica,sans-Serif" font-size="10.00">_response_core</text>
</a>
</g>
</g>
<!-- Node1&#45;&gt;Node2 -->
<g id="edge1" class="edge">
<title>Node1&#45;&gt;Node2</title>
<path fill="none" stroke="midnightblue" d="M116.14,-476.5C124.38,-476.5 132.92,-476.5 141.34,-476.5"/>
<polygon fill="midnightblue" stroke="midnightblue" points="141.53,-480 151.53,-476.5 141.53,-473 141.53,-480"/>
</g>
<!-- Node3 -->
<g id="node3" class="node">
<title>Node3</title>
<g id="a_node3"><a xlink:href="classhttplib_1_1Server.html#a57867122abf5979387bc3b704f877752" target="_top" xlink:title=" ">
<polygon fill="white" stroke="black" points="321,-681.5 321,-711.5 440,-711.5 440,-681.5 321,-681.5"/>
<text text-anchor="start" x="329" y="-699.5" font-family="Helvetica,sans-Serif" font-size="10.00">httplib::Server::apply</text>
<text text-anchor="middle" x="380.5" y="-688.5" font-family="Helvetica,sans-Serif" font-size="10.00">_ranges</text>
</a>
</g>
</g>
<!-- Node2&#45;&gt;Node3 -->
<g id="edge2" class="edge">
<title>Node2&#45;&gt;Node3</title>
<path fill="none" stroke="midnightblue" d="M222.34,-491.86C239.75,-515.37 274.17,-561.66 304,-600.5 323.24,-625.55 345.65,-653.95 361.03,-673.32"/>
<polygon fill="midnightblue" stroke="midnightblue" points="358.4,-675.64 367.36,-681.29 363.88,-671.28 358.4,-675.64"/>
</g>
<!-- Node4 -->
<g id="node4" class="node">
<title>Node4</title>
<g id="a_node4"><a xlink:href="FuzzerTracePC_8cpp.html#a1f10ac78bd11294b612636121065eb5b" target="_top" xlink:title=" ">
<polygon fill="white" stroke="black" points="1116,-668 1116,-687 1163,-687 1163,-668 1116,-668"/>
<text text-anchor="middle" x="1139.5" y="-675" font-family="Helvetica,sans-Serif" font-size="10.00">assert</text>
</a>
</g>
</g>
<!-- Node2&#45;&gt;Node4 -->
<g id="edge34" class="edge">
<title>Node2&#45;&gt;Node4</title>
<path fill="none" stroke="midnightblue" d="M214.03,-491.76C222.61,-532.16 250.01,-644.02 304,-720.5 367.64,-810.65 390.36,-841 493,-881.5 713.94,-968.68 829.44,-992.35 1027,-860.5 1087.27,-820.28 1120.37,-735.33 1132.76,-696.99"/>
<polygon fill="midnightblue" stroke="midnightblue" points="1136.21,-697.68 1135.83,-687.09 1129.53,-695.61 1136.21,-697.68"/>
</g>
<!-- Node9 -->
<g id="node9" class="node">
<title>Node9</title>
<g id="a_node9"><a xlink:href="structhttplib_1_1Request.html#a1a0ed323d53df032214a1729db175355" target="_top" xlink:title=" ">
<polygon fill="white" stroke="black" points="702.5,-498.5 702.5,-528.5 818.5,-528.5 818.5,-498.5 702.5,-498.5"/>
<text text-anchor="start" x="710.5" y="-516.5" font-family="Helvetica,sans-Serif" font-size="10.00">httplib::Request::get</text>
<text text-anchor="middle" x="760.5" y="-505.5" font-family="Helvetica,sans-Serif" font-size="10.00">_header_value</text>
</a>
</g>
</g>
<!-- Node2&#45;&gt;Node9 -->
<g id="edge36" class="edge">
<title>Node2&#45;&gt;Node9</title>
<path fill="none" stroke="midnightblue" d="M232.32,-491.6C250.43,-503.44 277.6,-518.97 304,-525.5 438.58,-558.78 602.36,-540.88 692.29,-526.26"/>
<polygon fill="midnightblue" stroke="midnightblue" points="693.07,-529.68 702.36,-524.59 691.92,-522.78 693.07,-529.68"/>
</g>
<!-- Node25 -->
<g id="node25" class="node">
<title>Node25</title>
<g id="a_node25"><a xlink:href="structhttplib_1_1Response.html#aed852614ede4a90a18decdda35d74a96" target="_top" xlink:title=" ">
<polygon fill="white" stroke="black" points="519,-574.5 519,-604.5 626,-604.5 626,-574.5 519,-574.5"/>
<text text-anchor="start" x="527" y="-592.5" font-family="Helvetica,sans-Serif" font-size="10.00">httplib::Response::</text>
<text text-anchor="middle" x="572.5" y="-581.5" font-family="Helvetica,sans-Serif" font-size="10.00">set_header</text>
</a>
</g>
</g>
<!-- Node2&#45;&gt;Node25 -->
<g id="edge38" class="edge">
<title>Node2&#45;&gt;Node25</title>
<path fill="none" stroke="midnightblue" d="M222.65,-491.53C238.66,-510.94 269.42,-544.05 304,-559.5 369.47,-588.75 452.57,-593.71 508.63,-593"/>
<polygon fill="midnightblue" stroke="midnightblue" points="508.85,-596.49 518.78,-592.8 508.71,-589.49 508.85,-596.49"/>
</g>
<!-- Node27 -->
<g id="node27" class="node">
<title>Node27</title>
<g id="a_node27"><a xlink:href="classhttplib_1_1detail_1_1BufferStream.html#ab81fc1737b7c08ce72790fe1c348fad0" target="_top" xlink:title=" ">
<polygon fill="white" stroke="black" points="304,-486.5 304,-516.5 457,-516.5 457,-486.5 304,-486.5"/>
<text text-anchor="start" x="312" y="-504.5" font-family="Helvetica,sans-Serif" font-size="10.00">httplib::detail::BufferStream</text>
<text text-anchor="middle" x="380.5" y="-493.5" font-family="Helvetica,sans-Serif" font-size="10.00">::get_buffer</text>
</a>
</g>
</g>
<!-- Node2&#45;&gt;Node27 -->
<g id="edge35" class="edge">
<title>Node2&#45;&gt;Node27</title>
<path fill="none" stroke="midnightblue" d="M268.05,-484.96C276.44,-486.21 285.24,-487.51 294.05,-488.82"/>
<polygon fill="midnightblue" stroke="midnightblue" points="293.59,-492.29 303.99,-490.3 294.61,-485.37 293.59,-492.29"/>
</g>
<!-- Node28 -->
<g id="node28" class="node">
<title>Node28</title>
<g id="a_node28"><a xlink:href="structhttplib_1_1Response.html#a6e55e134fff94fb7b2cedad09eec652c" target="_top" xlink:title=" ">
<polygon fill="white" stroke="black" points="327,-437.5 327,-467.5 434,-467.5 434,-437.5 327,-437.5"/>
<text text-anchor="start" x="335" y="-455.5" font-family="Helvetica,sans-Serif" font-size="10.00">httplib::Response::</text>
<text text-anchor="middle" x="380.5" y="-444.5" font-family="Helvetica,sans-Serif" font-size="10.00">has_header</text>
</a>
</g>
</g>
<!-- Node2&#45;&gt;Node28 -->
<g id="edge37" class="edge">
<title>Node2&#45;&gt;Node28</title>
<path fill="none" stroke="midnightblue" d="M268.05,-468.37C283.63,-466.15 300.61,-463.74 316.51,-461.47"/>
<polygon fill="midnightblue" stroke="midnightblue" points="317.36,-464.89 326.77,-460.01 316.38,-457.96 317.36,-464.89"/>
</g>
<!-- Node29 -->
<g id="node29" class="node">
<title>Node29</title>
<g id="a_node29"><a xlink:href="namespacehttplib.html#a7d92a38469467ffb0e2563e2cf8dea7f" target="_top" xlink:title=" ">
<polygon fill="white" stroke="black" points="313.5,-399 313.5,-418 447.5,-418 447.5,-399 313.5,-399"/>
<text text-anchor="middle" x="380.5" y="-406" font-family="Helvetica,sans-Serif" font-size="10.00">httplib::status_message</text>
</a>
</g>
</g>
<!-- Node2&#45;&gt;Node29 -->
<g id="edge39" class="edge">
<title>Node2&#45;&gt;Node29</title>
<path fill="none" stroke="midnightblue" d="M235.89,-461.29C254.2,-450.63 279.97,-436.7 304,-427.5 310.45,-425.03 317.32,-422.79 324.2,-420.79"/>
<polygon fill="midnightblue" stroke="midnightblue" points="325.53,-424.05 334.24,-418.02 323.67,-417.31 325.53,-424.05"/>
</g>
<!-- Node30 -->
<g id="node30" class="node">
<title>Node30</title>
<g id="a_node30"><a xlink:href="classhttplib_1_1Server.html#aef004bcdc946af56186dd226442691d4" target="_top" xlink:title=" ">
<polygon fill="white" stroke="black" points="315,-331.5 315,-361.5 446,-361.5 446,-331.5 315,-331.5"/>
<text text-anchor="start" x="323" y="-349.5" font-family="Helvetica,sans-Serif" font-size="10.00">httplib::Server::write</text>
<text text-anchor="middle" x="380.5" y="-338.5" font-family="Helvetica,sans-Serif" font-size="10.00">_content_with_provider</text>
</a>
</g>
</g>
<!-- Node2&#45;&gt;Node30 -->
<g id="edge40" class="edge">
<title>Node2&#45;&gt;Node30</title>
<path fill="none" stroke="midnightblue" d="M225.19,-461.19C242.66,-442.84 273.74,-411.79 304,-389.5 315.32,-381.16 328.41,-373.19 340.48,-366.43"/>
<polygon fill="midnightblue" stroke="midnightblue" points="342.38,-369.38 349.46,-361.51 339.01,-363.24 342.38,-369.38"/>
</g>
<!-- Node33 -->
<g id="node33" class="node">
<title>Node33</title>
<g id="a_node33"><a xlink:href="namespacehttplib_1_1detail.html#aefec7c4fea53eda1af3a7362002c5223" target="_top" xlink:title=" ">
<polygon fill="white" stroke="black" points="690.5,-50 690.5,-69 830.5,-69 830.5,-50 690.5,-50"/>
<text text-anchor="middle" x="760.5" y="-57" font-family="Helvetica,sans-Serif" font-size="10.00">httplib::detail::write_data</text>
</a>
</g>
</g>
<!-- Node2&#45;&gt;Node33 -->
<g id="edge62" class="edge">
<title>Node2&#45;&gt;Node33</title>
<path fill="none" stroke="midnightblue" d="M216.11,-461.16C237.7,-399.22 327.91,-166.65 493,-78.5 551.84,-47.08 628.66,-44.96 684.7,-49.14"/>
<polygon fill="midnightblue" stroke="midnightblue" points="684.66,-52.65 694.92,-49.99 685.24,-45.68 684.66,-52.65"/>
</g>
<!-- Node41 -->
<g id="node41" class="node">
<title>Node41</title>
<g id="a_node41"><a xlink:href="classhttplib_1_1Stream.html#a9892f60a65f59412ace397b7b6c4c93b" target="_top" xlink:title=" ">
<polygon fill="white" stroke="black" points="320.5,-0.5 320.5,-30.5 440.5,-30.5 440.5,-0.5 320.5,-0.5"/>
<text text-anchor="start" x="328.5" y="-18.5" font-family="Helvetica,sans-Serif" font-size="10.00">httplib::Stream::write</text>
<text text-anchor="middle" x="380.5" y="-7.5" font-family="Helvetica,sans-Serif" font-size="10.00">_format</text>
</a>
</g>
</g>
<!-- Node2&#45;&gt;Node41 -->
<g id="edge63" class="edge">
<title>Node2&#45;&gt;Node41</title>
<path fill="none" stroke="midnightblue" d="M212.4,-461.05C218.95,-391.84 248.6,-110.93 304,-45.5 307,-41.95 310.48,-38.82 314.27,-36.06"/>
<polygon fill="midnightblue" stroke="midnightblue" points="316.38,-38.87 322.98,-30.58 312.65,-32.94 316.38,-38.87"/>
</g>
<!-- Node3&#45;&gt;Node4 -->
<g id="edge3" class="edge">
<title>Node3&#45;&gt;Node4</title>
<path fill="none" stroke="midnightblue" d="M440.39,-685.48C554.06,-665.76 811.53,-628.64 1027,-652.5 1053.89,-655.48 1083.78,-662.38 1105.84,-668.18"/>
<polygon fill="midnightblue" stroke="midnightblue" points="1105.12,-671.61 1115.69,-670.83 1106.94,-664.85 1105.12,-671.61"/>
</g>
<!-- Node5 -->
<g id="node5" class="node">
<title>Node5</title>
<g id="a_node5"><a xlink:href="namespacehttplib_1_1detail.html#ab3d7a73532e427696847a2c77090729d" target="_top" xlink:title=" ">
<polygon fill="white" stroke="black" points="493,-452 493,-471 652,-471 652,-452 493,-452"/>
<text text-anchor="middle" x="572.5" y="-459" font-family="Helvetica,sans-Serif" font-size="10.00">httplib::detail::encoding_type</text>
</a>
</g>
</g>
<!-- Node3&#45;&gt;Node5 -->
<g id="edge4" class="edge">
<title>Node3&#45;&gt;Node5</title>
<path fill="none" stroke="midnightblue" d="M393.67,-681.44C427.31,-639.84 521.37,-523.5 557.3,-479.06"/>
<polygon fill="midnightblue" stroke="midnightblue" points="560.11,-481.15 563.68,-471.17 554.67,-476.75 560.11,-481.15"/>
</g>
<!-- Node15 -->
<g id="node15" class="node">
<title>Node15</title>
<g id="a_node15"><a xlink:href="namespacehttplib.html#a498c3a79825ecbcb15c52ec5fcfd5c11" target="_top" xlink:title=" ">
<polygon fill="white" stroke="black" points="1252,-826 1252,-845 1349,-845 1349,-826 1252,-826"/>
<text text-anchor="middle" x="1300.5" y="-833" font-family="Helvetica,sans-Serif" font-size="10.00">httplib::to_string</text>
</a>
</g>
</g>
<!-- Node3&#45;&gt;Node15 -->
<g id="edge33" class="edge">
<title>Node3&#45;&gt;Node15</title>
<path fill="none" stroke="midnightblue" d="M385.37,-711.72C395.65,-748.58 427.44,-842.44 493,-881.5 754.98,-1037.57 1153.75,-895.33 1267.95,-848.94"/>
<polygon fill="midnightblue" stroke="midnightblue" points="1269.58,-852.05 1277.5,-845.01 1266.92,-845.58 1269.58,-852.05"/>
</g>
<!-- Node18 -->
<g id="node18" class="node">
<title>Node18</title>
<g id="a_node18"><a xlink:href="namespacehttplib_1_1detail.html#ae57e812fd24b5e4acecb01ea4a947049" target="_top" xlink:title=" ">
<polygon fill="white" stroke="black" points="506.5,-700 506.5,-741 638.5,-741 638.5,-700 506.5,-700"/>
<text text-anchor="start" x="514.5" y="-729" font-family="Helvetica,sans-Serif" font-size="10.00">httplib::detail::get</text>
<text text-anchor="start" x="514.5" y="-718" font-family="Helvetica,sans-Serif" font-size="10.00">_multipart_ranges_data</text>
<text text-anchor="middle" x="572.5" y="-707" font-family="Helvetica,sans-Serif" font-size="10.00">_length</text>
</a>
</g>
</g>
<!-- Node3&#45;&gt;Node18 -->
<g id="edge18" class="edge">
<title>Node3&#45;&gt;Node18</title>
<path fill="none" stroke="midnightblue" d="M440.06,-703.9C457.8,-706.14 477.55,-708.63 496.23,-710.99"/>
<polygon fill="midnightblue" stroke="midnightblue" points="495.82,-714.47 506.18,-712.25 496.7,-707.52 495.82,-714.47"/>
</g>
<!-- Node20 -->
<g id="node20" class="node">
<title>Node20</title>
<g id="a_node20"><a xlink:href="namespacehttplib_1_1detail.html#af3ee387aa148fa5fe69d6355b5360e03" target="_top" xlink:title=" ">
<polygon fill="white" stroke="black" points="876.5,-662.5 876.5,-692.5 1019.5,-692.5 1019.5,-662.5 876.5,-662.5"/>
<text text-anchor="start" x="884.5" y="-680.5" font-family="Helvetica,sans-Serif" font-size="10.00">httplib::detail::get</text>
<text text-anchor="middle" x="948" y="-669.5" font-family="Helvetica,sans-Serif" font-size="10.00">_range_offset_and_length</text>
</a>
</g>
</g>
<!-- Node3&#45;&gt;Node20 -->
<g id="edge24" class="edge">
<title>Node3&#45;&gt;Node20</title>
<path fill="none" stroke="midnightblue" d="M440.22,-693.06C457.24,-692.14 475.86,-691.21 493,-690.5 623.48,-685.12 775.15,-681.26 865.98,-679.21"/>
<polygon fill="midnightblue" stroke="midnightblue" points="866.29,-682.7 876.21,-678.98 866.13,-675.7 866.29,-682.7"/>
</g>
<!-- Node21 -->
<g id="node21" class="node">
<title>Node21</title>
<g id="a_node21"><a xlink:href="namespacehttplib_1_1detail.html#ae93cf1427a53d3e03d83434d4a7229ef" target="_top" xlink:title=" ">
<polygon fill="white" stroke="black" points="869,-820.5 869,-850.5 1027,-850.5 1027,-820.5 869,-820.5"/>
<text text-anchor="start" x="877" y="-838.5" font-family="Helvetica,sans-Serif" font-size="10.00">httplib::detail::make</text>
<text text-anchor="middle" x="948" y="-827.5" font-family="Helvetica,sans-Serif" font-size="10.00">_content_range_header_field</text>
</a>
</g>
</g>
<!-- Node3&#45;&gt;Node21 -->
<g id="edge25" class="edge">
<title>Node3&#45;&gt;Node21</title>
<path fill="none" stroke="midnightblue" d="M387.14,-711.96C400.02,-744.61 434.99,-820 493,-849.5 623.08,-915.66 802.34,-878.85 891.7,-853.37"/>
<polygon fill="midnightblue" stroke="midnightblue" points="892.74,-856.71 901.37,-850.56 890.79,-849.99 892.74,-856.71"/>
</g>
<!-- Node22 -->
<g id="node22" class="node">
<title>Node22</title>
<g id="a_node22"><a xlink:href="namespacehttplib_1_1detail.html#ae144d55905f9808c3abae6e20bd9367a" target="_top" xlink:title=" ">
<polygon fill="white" stroke="black" points="500,-809.5 500,-839.5 645,-839.5 645,-809.5 500,-809.5"/>
<text text-anchor="start" x="508" y="-827.5" font-family="Helvetica,sans-Serif" font-size="10.00">httplib::detail::make</text>
<text text-anchor="middle" x="572.5" y="-816.5" font-family="Helvetica,sans-Serif" font-size="10.00">_multipart_data_boundary</text>
</a>
</g>
</g>
<!-- Node3&#45;&gt;Node22 -->
<g id="edge26" class="edge">
<title>Node3&#45;&gt;Node22</title>
<path fill="none" stroke="midnightblue" d="M393.61,-711.51C412.52,-734.01 451.28,-776.41 493,-800.5 496.05,-802.26 499.25,-803.91 502.54,-805.45"/>
<polygon fill="midnightblue" stroke="midnightblue" points="501.41,-808.77 511.98,-809.49 504.16,-802.34 501.41,-808.77"/>
</g>
<!-- Node24 -->
<g id="node24" class="node">
<title>Node24</title>
<g id="a_node24"><a xlink:href="namespacehttplib_1_1detail.html#a93c46a7c00e1f2faa9cbbf00d7889e40" target="_top" xlink:title=" ">
<polygon fill="white" stroke="black" points="506.5,-760.5 506.5,-790.5 638.5,-790.5 638.5,-760.5 506.5,-760.5"/>
<text text-anchor="start" x="514.5" y="-778.5" font-family="Helvetica,sans-Serif" font-size="10.00">httplib::detail::make</text>
<text text-anchor="middle" x="572.5" y="-767.5" font-family="Helvetica,sans-Serif" font-size="10.00">_multipart_ranges_data</text>
</a>
</g>
</g>
<!-- Node3&#45;&gt;Node24 -->
<g id="edge28" class="edge">
<title>Node3&#45;&gt;Node24</title>
<path fill="none" stroke="midnightblue" d="M409.87,-711.63C432.11,-723.15 464.03,-738.94 493,-750.5 498.75,-752.8 504.81,-755.03 510.9,-757.16"/>
<polygon fill="midnightblue" stroke="midnightblue" points="509.86,-760.5 520.45,-760.41 512.11,-753.88 509.86,-760.5"/>
</g>
<!-- Node3&#45;&gt;Node25 -->
<g id="edge31" class="edge">
<title>Node3&#45;&gt;Node25</title>
<path fill="none" stroke="midnightblue" d="M400.34,-681.39C421.82,-664.67 458.45,-637.7 493,-619.5 500.69,-615.45 509.05,-611.66 517.36,-608.23"/>
<polygon fill="midnightblue" stroke="midnightblue" points="518.68,-611.47 526.67,-604.51 516.09,-604.97 518.68,-611.47"/>
</g>
<!-- Node6 -->
<g id="node6" class="node">
<title>Node6</title>
<g id="a_node6"><a xlink:href="namespacehttplib_1_1detail.html#abe508674330c10dbe19fc1a33901c535" target="_top" xlink:title=" ">
<polygon fill="white" stroke="black" points="691.5,-361.5 691.5,-391.5 829.5,-391.5 829.5,-361.5 691.5,-361.5"/>
<text text-anchor="start" x="699.5" y="-379.5" font-family="Helvetica,sans-Serif" font-size="10.00">httplib::detail::can</text>
<text text-anchor="middle" x="760.5" y="-368.5" font-family="Helvetica,sans-Serif" font-size="10.00">_compress_content_type</text>
</a>
</g>
</g>
<!-- Node5&#45;&gt;Node6 -->
<g id="edge5" class="edge">
<title>Node5&#45;&gt;Node6</title>
<path fill="none" stroke="midnightblue" d="M594.48,-451.91C624.08,-438.39 678.77,-413.39 717.05,-395.9"/>
<polygon fill="midnightblue" stroke="midnightblue" points="718.76,-398.96 726.4,-391.63 715.85,-392.6 718.76,-398.96"/>
</g>
<!-- Node5&#45;&gt;Node9 -->
<g id="edge8" class="edge">
<title>Node5&#45;&gt;Node9</title>
<path fill="none" stroke="midnightblue" d="M607.62,-471.04C632.21,-477.91 666.13,-487.4 695.68,-495.66"/>
<polygon fill="midnightblue" stroke="midnightblue" points="694.94,-499.09 705.52,-498.41 696.83,-492.34 694.94,-499.09"/>
</g>
<!-- Node11 -->
<g id="node11" class="node">
<title>Node11</title>
<g id="a_node11"><a xlink:href="structhttplib_1_1Response.html#a2e047ef1c0de99ac521452f25a76c50a" target="_top" xlink:title=" ">
<polygon fill="white" stroke="black" points="707,-449.5 707,-479.5 814,-479.5 814,-449.5 707,-449.5"/>
<text text-anchor="start" x="715" y="-467.5" font-family="Helvetica,sans-Serif" font-size="10.00">httplib::Response::</text>
<text text-anchor="middle" x="760.5" y="-456.5" font-family="Helvetica,sans-Serif" font-size="10.00">get_header_value</text>
</a>
</g>
</g>
<!-- Node5&#45;&gt;Node11 -->
<g id="edge10" class="edge">
<title>Node5&#45;&gt;Node11</title>
<path fill="none" stroke="midnightblue" d="M652.11,-462.77C666.95,-463.01 682.29,-463.25 696.57,-463.49"/>
<polygon fill="midnightblue" stroke="midnightblue" points="696.71,-466.99 706.76,-463.65 696.82,-459.99 696.71,-466.99"/>
</g>
<!-- Node12 -->
<g id="node12" class="node">
<title>Node12</title>
<g id="a_node12"><a xlink:href="namespacenlohmann_1_1detail.html#a59fca69799f6b9e366710cb9043aa77d" target="_top" xlink:title=" ">
<polygon fill="white" stroke="black" points="697.5,-274 697.5,-293 823.5,-293 823.5,-274 697.5,-274"/>
<text text-anchor="middle" x="760.5" y="-281" font-family="Helvetica,sans-Serif" font-size="10.00">nlohmann::detail::void</text>
</a>
</g>
</g>
<!-- Node5&#45;&gt;Node12 -->
<g id="edge12" class="edge">
<title>Node5&#45;&gt;Node12</title>
<path fill="none" stroke="midnightblue" d="M581.7,-451.86C596.43,-434.35 628.09,-395.95 652,-361.5 669.51,-336.26 663.39,-320.88 688,-302.5 690.49,-300.64 693.15,-298.96 695.93,-297.45"/>
<polygon fill="midnightblue" stroke="midnightblue" points="697.54,-300.56 705.11,-293.15 694.57,-294.22 697.54,-300.56"/>
</g>
<!-- Node7 -->
<g id="node7" class="node">
<title>Node7</title>
<g id="a_node7"><a xlink:href="namespacehttplib_1_1detail.html#a8421d59405044ca97486b9b41d728b0b" target="_top" xlink:title=" ">
<polygon fill="white" stroke="black" points="887,-367 887,-386 1009,-386 1009,-367 887,-367"/>
<text text-anchor="middle" x="948" y="-374" font-family="Helvetica,sans-Serif" font-size="10.00">httplib::detail::str2tag</text>
</a>
</g>
</g>
<!-- Node6&#45;&gt;Node7 -->
<g id="edge6" class="edge">
<title>Node6&#45;&gt;Node7</title>
<path fill="none" stroke="midnightblue" d="M829.52,-376.5C844.96,-376.5 861.38,-376.5 876.9,-376.5"/>
<polygon fill="midnightblue" stroke="midnightblue" points="876.95,-380 886.95,-376.5 876.95,-373 876.95,-380"/>
</g>
<!-- Node8 -->
<g id="node8" class="node">
<title>Node8</title>
<g id="a_node8"><a xlink:href="namespacehttplib_1_1detail.html#afbbe1f2e45c67a29f1cb3cb68eadbfa6" target="_top" xlink:title=" ">
<polygon fill="white" stroke="black" points="1065,-367 1065,-386 1214,-386 1214,-367 1065,-367"/>
<text text-anchor="middle" x="1139.5" y="-374" font-family="Helvetica,sans-Serif" font-size="10.00">httplib::detail::str2tag_core</text>
</a>
</g>
</g>
<!-- Node7&#45;&gt;Node8 -->
<g id="edge7" class="edge">
<title>Node7&#45;&gt;Node8</title>
<path fill="none" stroke="midnightblue" d="M1009.22,-376.5C1023.71,-376.5 1039.45,-376.5 1054.8,-376.5"/>
<polygon fill="midnightblue" stroke="midnightblue" points="1054.81,-380 1064.81,-376.5 1054.81,-373 1054.81,-380"/>
</g>
<!-- Node10 -->
<g id="node10" class="node">
<title>Node10</title>
<g id="a_node10"><a xlink:href="namespacehttplib_1_1detail.html#a5182300d07532ca663dfa1b3ae0a352c" target="_top" xlink:title=" ">
<polygon fill="white" stroke="black" points="896,-474.5 896,-504.5 1000,-504.5 1000,-474.5 896,-474.5"/>
<text text-anchor="start" x="904" y="-492.5" font-family="Helvetica,sans-Serif" font-size="10.00">httplib::detail::get</text>
<text text-anchor="middle" x="948" y="-481.5" font-family="Helvetica,sans-Serif" font-size="10.00">_header_value</text>
</a>
</g>
</g>
<!-- Node9&#45;&gt;Node10 -->
<g id="edge9" class="edge">
<title>Node9&#45;&gt;Node10</title>
<path fill="none" stroke="midnightblue" d="M818.67,-506.1C839.99,-503.34 864.27,-500.2 885.93,-497.4"/>
<polygon fill="midnightblue" stroke="midnightblue" points="886.53,-500.85 896,-496.1 885.63,-493.91 886.53,-500.85"/>
</g>
<!-- Node11&#45;&gt;Node10 -->
<g id="edge11" class="edge">
<title>Node11&#45;&gt;Node10</title>
<path fill="none" stroke="midnightblue" d="M814.16,-471.6C836.46,-474.6 862.59,-478.12 885.75,-481.24"/>
<polygon fill="midnightblue" stroke="midnightblue" points="885.43,-484.73 895.81,-482.6 886.37,-477.8 885.43,-484.73"/>
</g>
<!-- Node13 -->
<g id="node13" class="node">
<title>Node13</title>
<g id="a_node13"><a xlink:href="classnlohmann_1_1detail_1_1type__error.html#aecc083aea4b698c33d042670ba50c10f" target="_top" xlink:title=" ">
<polygon fill="white" stroke="black" points="884.5,-268.5 884.5,-298.5 1011.5,-298.5 1011.5,-268.5 884.5,-268.5"/>
<text text-anchor="start" x="892.5" y="-286.5" font-family="Helvetica,sans-Serif" font-size="10.00">nlohmann::detail::type</text>
<text text-anchor="middle" x="948" y="-275.5" font-family="Helvetica,sans-Serif" font-size="10.00">_error::create</text>
</a>
</g>
</g>
<!-- Node12&#45;&gt;Node13 -->
<g id="edge13" class="edge">
<title>Node12&#45;&gt;Node13</title>
<path fill="none" stroke="midnightblue" d="M823.53,-283.5C839.75,-283.5 857.39,-283.5 874.12,-283.5"/>
<polygon fill="midnightblue" stroke="midnightblue" points="874.4,-287 884.4,-283.5 874.4,-280 874.4,-287"/>
</g>
<!-- Node17 -->
<g id="node17" class="node">
<title>Node17</title>
<g id="a_node17"><a xlink:href="namespacenlohmann_1_1detail.html#a40f7bb070a60e8ba14fffb9c117fcbd8" target="_top" xlink:title=" ">
<polygon fill="white" stroke="black" points="884,-317.5 884,-347.5 1012,-347.5 1012,-317.5 884,-317.5"/>
<text text-anchor="start" x="892" y="-335.5" font-family="Helvetica,sans-Serif" font-size="10.00">nlohmann::detail::from</text>
<text text-anchor="middle" x="948" y="-324.5" font-family="Helvetica,sans-Serif" font-size="10.00">_json_array_impl</text>
</a>
</g>
</g>
<!-- Node12&#45;&gt;Node17 -->
<g id="edge17" class="edge">
<title>Node12&#45;&gt;Node17</title>
<path fill="none" stroke="midnightblue" d="M797.71,-293.06C821.19,-299.27 852.5,-307.54 880.38,-314.9"/>
<polygon fill="midnightblue" stroke="midnightblue" points="879.51,-318.29 890.07,-317.46 881.3,-311.53 879.51,-318.29"/>
</g>
<!-- Node14 -->
<g id="node14" class="node">
<title>Node14</title>
<g id="a_node14"><a xlink:href="classnlohmann_1_1detail_1_1exception.html#abf41a7e9178356314082284e6cfea278" target="_top" xlink:title=" ">
<polygon fill="white" stroke="black" points="1063,-268.5 1063,-298.5 1216,-298.5 1216,-268.5 1063,-268.5"/>
<text text-anchor="start" x="1071" y="-286.5" font-family="Helvetica,sans-Serif" font-size="10.00">nlohmann::detail::exception</text>
<text text-anchor="middle" x="1139.5" y="-275.5" font-family="Helvetica,sans-Serif" font-size="10.00">::name</text>
</a>
</g>
</g>
<!-- Node13&#45;&gt;Node14 -->
<g id="edge14" class="edge">
<title>Node13&#45;&gt;Node14</title>
<path fill="none" stroke="midnightblue" d="M1011.57,-283.5C1024.76,-283.5 1038.89,-283.5 1052.76,-283.5"/>
<polygon fill="midnightblue" stroke="midnightblue" points="1052.8,-287 1062.8,-283.5 1052.8,-280 1052.8,-287"/>
</g>
<!-- Node16 -->
<g id="node16" class="node">
<title>Node16</title>
<g id="a_node16"><a xlink:href="classnlohmann_1_1detail_1_1type__error.html#aa01edaa0bf18b853368f0b900e485cd7" target="_top" xlink:title=" ">
<polygon fill="white" stroke="black" points="1076,-317.5 1076,-347.5 1203,-347.5 1203,-317.5 1076,-317.5"/>
<text text-anchor="start" x="1084" y="-335.5" font-family="Helvetica,sans-Serif" font-size="10.00">nlohmann::detail::type</text>
<text text-anchor="middle" x="1139.5" y="-324.5" font-family="Helvetica,sans-Serif" font-size="10.00">_error::type_error</text>
</a>
</g>
</g>
<!-- Node13&#45;&gt;Node16 -->
<g id="edge16" class="edge">
<title>Node13&#45;&gt;Node16</title>
<path fill="none" stroke="midnightblue" d="M1007.14,-298.53C1027.24,-303.73 1049.94,-309.6 1070.74,-314.98"/>
<polygon fill="midnightblue" stroke="midnightblue" points="1069.91,-318.38 1080.47,-317.49 1071.66,-311.6 1069.91,-318.38"/>
</g>
<!-- Node14&#45;&gt;Node15 -->
<g id="edge15" class="edge">
<title>Node14&#45;&gt;Node15</title>
<path fill="none" stroke="midnightblue" d="M1205.83,-298.57C1209.59,-301.1 1213.04,-304.06 1216,-307.5 1283.52,-386.06 1296.78,-729.12 1299.06,-815.63"/>
<polygon fill="midnightblue" stroke="midnightblue" points="1295.57,-815.97 1299.31,-825.89 1302.57,-815.8 1295.57,-815.97"/>
</g>
<!-- Node19 -->
<g id="node19" class="node">
<title>Node19</title>
<g id="a_node19"><a xlink:href="namespacehttplib_1_1detail.html#aa8bfc0f5ee915e4f92907ca646ba422a" target="_top" xlink:title=" ">
<polygon fill="white" stroke="black" points="694.5,-705.5 694.5,-735.5 826.5,-735.5 826.5,-705.5 694.5,-705.5"/>
<text text-anchor="start" x="702.5" y="-723.5" font-family="Helvetica,sans-Serif" font-size="10.00">httplib::detail::process</text>
<text text-anchor="middle" x="760.5" y="-712.5" font-family="Helvetica,sans-Serif" font-size="10.00">_multipart_ranges_data</text>
</a>
</g>
</g>
<!-- Node18&#45;&gt;Node19 -->
<g id="edge19" class="edge">
<title>Node18&#45;&gt;Node19</title>
<path fill="none" stroke="midnightblue" d="M638.55,-720.5C653.28,-720.5 669.03,-720.5 684.15,-720.5"/>
<polygon fill="midnightblue" stroke="midnightblue" points="684.48,-724 694.48,-720.5 684.48,-717 684.48,-724"/>
</g>
<!-- Node19&#45;&gt;Node20 -->
<g id="edge20" class="edge">
<title>Node19&#45;&gt;Node20</title>
<path fill="none" stroke="midnightblue" d="M826.38,-705.46C841.21,-702.02 857.08,-698.34 872.28,-694.82"/>
<polygon fill="midnightblue" stroke="midnightblue" points="873.21,-698.2 882.16,-692.53 871.63,-691.38 873.21,-698.2"/>
</g>
<!-- Node19&#45;&gt;Node21 -->
<g id="edge22" class="edge">
<title>Node19&#45;&gt;Node21</title>
<path fill="none" stroke="midnightblue" d="M785.75,-735.53C818.52,-755.85 877.08,-792.15 913.88,-814.97"/>
<polygon fill="midnightblue" stroke="midnightblue" points="912.4,-818.17 922.74,-820.46 916.09,-812.22 912.4,-818.17"/>
</g>
<!-- Node20&#45;&gt;Node4 -->
<g id="edge21" class="edge">
<title>Node20&#45;&gt;Node4</title>
<path fill="none" stroke="midnightblue" d="M1019.56,-677.5C1049.13,-677.5 1082.06,-677.5 1105.76,-677.5"/>
<polygon fill="midnightblue" stroke="midnightblue" points="1105.96,-681 1115.96,-677.5 1105.96,-674 1105.96,-681"/>
</g>
<!-- Node21&#45;&gt;Node15 -->
<g id="edge23" class="edge">
<title>Node21&#45;&gt;Node15</title>
<path fill="none" stroke="midnightblue" d="M1027.22,-835.5C1092.22,-835.5 1183.22,-835.5 1241.77,-835.5"/>
<polygon fill="midnightblue" stroke="midnightblue" points="1241.95,-839 1251.95,-835.5 1241.95,-832 1241.95,-839"/>
</g>
<!-- Node23 -->
<g id="node23" class="node">
<title>Node23</title>
<g id="a_node23"><a xlink:href="namespacehttplib_1_1detail.html#aa473f5aff2d646f2801456f003183b1b" target="_top" xlink:title=" ">
<polygon fill="white" stroke="black" points="698,-809.5 698,-839.5 823,-839.5 823,-809.5 698,-809.5"/>
<text text-anchor="start" x="706" y="-827.5" font-family="Helvetica,sans-Serif" font-size="10.00">httplib::detail::random</text>
<text text-anchor="middle" x="760.5" y="-816.5" font-family="Helvetica,sans-Serif" font-size="10.00">_string</text>
</a>
</g>
</g>
<!-- Node22&#45;&gt;Node23 -->
<g id="edge27" class="edge">
<title>Node22&#45;&gt;Node23</title>
<path fill="none" stroke="midnightblue" d="M645.15,-824.5C659.15,-824.5 673.83,-824.5 687.83,-824.5"/>
<polygon fill="midnightblue" stroke="midnightblue" points="687.88,-828 697.88,-824.5 687.88,-821 687.88,-828"/>
</g>
<!-- Node24&#45;&gt;Node4 -->
<g id="edge29" class="edge">
<title>Node24&#45;&gt;Node4</title>
<path fill="none" stroke="midnightblue" d="M638.55,-769.87C691.2,-764.86 767.15,-756.6 833,-745.5 933.17,-728.61 1049.96,-700.12 1105.68,-685.99"/>
<polygon fill="midnightblue" stroke="midnightblue" points="1106.84,-689.3 1115.67,-683.44 1105.11,-682.52 1106.84,-689.3"/>
</g>
<!-- Node24&#45;&gt;Node19 -->
<g id="edge30" class="edge">
<title>Node24&#45;&gt;Node19</title>
<path fill="none" stroke="midnightblue" d="M624.33,-760.47C647.39,-753.65 674.85,-745.53 698.97,-738.4"/>
<polygon fill="midnightblue" stroke="midnightblue" points="700.14,-741.7 708.74,-735.51 698.15,-734.99 700.14,-741.7"/>
</g>
<!-- Node26 -->
<g id="node26" class="node">
<title>Node26</title>
<g id="a_node26"><a xlink:href="namespacehttplib_1_1detail.html#a1bfcbc5ada5082188cc2b7399ed019f2" target="_top" xlink:title=" ">
<polygon fill="white" stroke="black" points="697.5,-586 697.5,-605 823.5,-605 823.5,-586 697.5,-586"/>
<text text-anchor="middle" x="760.5" y="-593" font-family="Helvetica,sans-Serif" font-size="10.00">httplib::detail::has_crlf</text>
</a>
</g>
</g>
<!-- Node25&#45;&gt;Node26 -->
<g id="edge32" class="edge">
<title>Node25&#45;&gt;Node26</title>
<path fill="none" stroke="midnightblue" d="M626.3,-591.2C645.23,-591.81 666.91,-592.51 687.2,-593.17"/>
<polygon fill="midnightblue" stroke="midnightblue" points="687.24,-596.67 697.35,-593.5 687.46,-589.67 687.24,-596.67"/>
</g>
<!-- Node30&#45;&gt;Node4 -->
<g id="edge41" class="edge">
<title>Node30&#45;&gt;Node4</title>
<path fill="none" stroke="midnightblue" d="M446.26,-357.96C608.73,-386.75 1021.11,-460.16 1027,-464.5 1093.95,-513.8 1124.22,-615.34 1134.36,-657.98"/>
<polygon fill="midnightblue" stroke="midnightblue" points="1130.98,-658.93 1136.6,-667.92 1137.81,-657.39 1130.98,-658.93"/>
</g>
<!-- Node30&#45;&gt;Node5 -->
<g id="edge42" class="edge">
<title>Node30&#45;&gt;Node5</title>
<path fill="none" stroke="midnightblue" d="M414.1,-361.59C428.1,-368.93 444.15,-378.53 457,-389.5 476.48,-406.13 472.06,-419.75 493,-434.5 501.22,-440.29 510.79,-444.93 520.36,-448.61"/>
<polygon fill="midnightblue" stroke="midnightblue" points="519.28,-451.95 529.88,-451.99 521.62,-445.35 519.28,-451.95"/>
</g>
<!-- Node30&#45;&gt;Node20 -->
<g id="edge43" class="edge">
<title>Node30&#45;&gt;Node20</title>
<path fill="none" stroke="midnightblue" d="M419.25,-361.65C432.6,-368.51 446.81,-377.77 457,-389.5 485.51,-422.35 460.86,-451.2 493,-480.5 609.03,-586.29 694.74,-502.07 833,-576.5 870.7,-596.79 906.31,-631.82 927.4,-654.82"/>
<polygon fill="midnightblue" stroke="midnightblue" points="924.94,-657.32 934.23,-662.41 930.14,-652.64 924.94,-657.32"/>
</g>
<!-- Node31 -->
<g id="node31" class="node">
<title>Node31</title>
<g id="a_node31"><a xlink:href="namespacehttplib_1_1detail.html#ac17dd7d7a80ce12e5966f5f577b67a75" target="_top" xlink:title=" ">
<polygon fill="white" stroke="black" points="516,-88.5 516,-118.5 629,-118.5 629,-88.5 516,-88.5"/>
<text text-anchor="start" x="524" y="-106.5" font-family="Helvetica,sans-Serif" font-size="10.00">httplib::detail::write</text>
<text text-anchor="middle" x="572.5" y="-95.5" font-family="Helvetica,sans-Serif" font-size="10.00">_content</text>
</a>
</g>
</g>
<!-- Node30&#45;&gt;Node31 -->
<g id="edge44" class="edge">
<title>Node30&#45;&gt;Node31</title>
<path fill="none" stroke="midnightblue" d="M384.83,-331.46C394.35,-291.9 425.52,-184.14 493,-127.5 497.06,-124.09 501.59,-121.17 506.38,-118.66"/>
<polygon fill="midnightblue" stroke="midnightblue" points="508.2,-121.68 515.84,-114.33 505.29,-115.31 508.2,-121.68"/>
</g>
<!-- Node35 -->
<g id="node35" class="node">
<title>Node35</title>
<g id="a_node35"><a xlink:href="namespacehttplib_1_1detail.html#af586311a8460e53bac51d7d02802ede9" target="_top" xlink:title=" ">
<polygon fill="white" stroke="black" points="516,-186.5 516,-216.5 629,-216.5 629,-186.5 516,-186.5"/>
<text text-anchor="start" x="524" y="-204.5" font-family="Helvetica,sans-Serif" font-size="10.00">httplib::detail::write</text>
<text text-anchor="middle" x="572.5" y="-193.5" font-family="Helvetica,sans-Serif" font-size="10.00">_content_chunked</text>
</a>
</g>
</g>
<!-- Node30&#45;&gt;Node35 -->
<g id="edge48" class="edge">
<title>Node30&#45;&gt;Node35</title>
<path fill="none" stroke="midnightblue" d="M401.47,-331.26C435.49,-305.3 504.73,-252.45 543.54,-222.84"/>
<polygon fill="midnightblue" stroke="midnightblue" points="545.97,-225.39 551.79,-216.54 541.72,-219.82 545.97,-225.39"/>
</g>
<!-- Node38 -->
<g id="node38" class="node">
<title>Node38</title>
<g id="a_node38"><a xlink:href="namespacehttplib_1_1detail.html#a4b08839cc083b4d71b0a3961c9a1686d" target="_top" xlink:title=" ">
<polygon fill="white" stroke="black" points="504,-137.5 504,-167.5 641,-167.5 641,-137.5 504,-137.5"/>
<text text-anchor="start" x="512" y="-155.5" font-family="Helvetica,sans-Serif" font-size="10.00">httplib::detail::write</text>
<text text-anchor="middle" x="572.5" y="-144.5" font-family="Helvetica,sans-Serif" font-size="10.00">_content_without_length</text>
</a>
</g>
</g>
<!-- Node30&#45;&gt;Node38 -->
<g id="edge54" class="edge">
<title>Node30&#45;&gt;Node38</title>
<path fill="none" stroke="midnightblue" d="M387.16,-331.49C400.42,-298.39 436.67,-218.75 493,-176.5 494.85,-175.11 496.79,-173.8 498.78,-172.57"/>
<polygon fill="midnightblue" stroke="midnightblue" points="500.77,-175.47 507.89,-167.62 497.43,-169.32 500.77,-175.47"/>
</g>
<!-- Node39 -->
<g id="node39" class="node">
<title>Node39</title>
<g id="a_node39"><a xlink:href="namespacehttplib_1_1detail.html#ad7467069e85f955efc30627cff9dd327" target="_top" xlink:title=" ">
<polygon fill="white" stroke="black" points="506.5,-322.5 506.5,-352.5 638.5,-352.5 638.5,-322.5 506.5,-322.5"/>
<text text-anchor="start" x="514.5" y="-340.5" font-family="Helvetica,sans-Serif" font-size="10.00">httplib::detail::write</text>
<text text-anchor="middle" x="572.5" y="-329.5" font-family="Helvetica,sans-Serif" font-size="10.00">_multipart_ranges_data</text>
</a>
</g>
</g>
<!-- Node30&#45;&gt;Node39 -->
<g id="edge58" class="edge">
<title>Node30&#45;&gt;Node39</title>
<path fill="none" stroke="midnightblue" d="M446.09,-343.44C462.22,-342.68 479.65,-341.85 496.24,-341.06"/>
<polygon fill="midnightblue" stroke="midnightblue" points="496.62,-344.55 506.44,-340.58 496.29,-337.56 496.62,-344.55"/>
</g>
<!-- Node32 -->
<g id="node32" class="node">
<title>Node32</title>
<g id="a_node32"><a xlink:href="classhttplib_1_1Stream.html#ab10c55e43ccf0146c4d142e53a58a831" target="_top" xlink:title=" ">
<polygon fill="white" stroke="black" points="708.5,-88.5 708.5,-118.5 812.5,-118.5 812.5,-88.5 708.5,-88.5"/>
<text text-anchor="start" x="716.5" y="-106.5" font-family="Helvetica,sans-Serif" font-size="10.00">httplib::Stream::is</text>
<text text-anchor="middle" x="760.5" y="-95.5" font-family="Helvetica,sans-Serif" font-size="10.00">_writable</text>
</a>
</g>
</g>
<!-- Node31&#45;&gt;Node32 -->
<g id="edge45" class="edge">
<title>Node31&#45;&gt;Node32</title>
<path fill="none" stroke="midnightblue" d="M629.05,-103.5C650.87,-103.5 675.98,-103.5 698.32,-103.5"/>
<polygon fill="midnightblue" stroke="midnightblue" points="698.36,-107 708.36,-103.5 698.36,-100 698.36,-107"/>
</g>
<!-- Node31&#45;&gt;Node33 -->
<g id="edge46" class="edge">
<title>Node31&#45;&gt;Node33</title>
<path fill="none" stroke="midnightblue" d="M629.05,-90.36C654.55,-84.33 684.56,-77.23 709.36,-71.36"/>
<polygon fill="midnightblue" stroke="midnightblue" points="710.36,-74.72 719.29,-69.01 708.75,-67.91 710.36,-74.72"/>
</g>
<!-- Node34 -->
<g id="node34" class="node">
<title>Node34</title>
<g id="a_node34"><a xlink:href="classhttplib_1_1Stream.html#a4b94583ae90065c9e4e33a7752d9976f" target="_top" xlink:title=" ">
<polygon fill="white" stroke="black" points="888,-50 888,-69 1008,-69 1008,-50 888,-50"/>
<text text-anchor="middle" x="948" y="-57" font-family="Helvetica,sans-Serif" font-size="10.00">httplib::Stream::write</text>
</a>
</g>
</g>
<!-- Node33&#45;&gt;Node34 -->
<g id="edge47" class="edge">
<title>Node33&#45;&gt;Node34</title>
<path fill="none" stroke="midnightblue" d="M830.57,-59.5C846.04,-59.5 862.44,-59.5 877.91,-59.5"/>
<polygon fill="midnightblue" stroke="midnightblue" points="877.91,-63 887.91,-59.5 877.91,-56 877.91,-63"/>
</g>
<!-- Node35&#45;&gt;Node12 -->
<g id="edge52" class="edge">
<title>Node35&#45;&gt;Node12</title>
<path fill="none" stroke="midnightblue" d="M607.62,-216.54C642.17,-231.77 695.15,-255.13 728.53,-269.85"/>
<polygon fill="midnightblue" stroke="midnightblue" points="727.24,-273.1 737.81,-273.94 730.07,-266.7 727.24,-273.1"/>
</g>
<!-- Node35&#45;&gt;Node32 -->
<g id="edge51" class="edge">
<title>Node35&#45;&gt;Node32</title>
<path fill="none" stroke="midnightblue" d="M629.24,-188.62C637.28,-185.4 645.15,-181.42 652,-176.5 673.95,-160.74 666.17,-143.43 688,-127.5 691.45,-124.98 695.18,-122.72 699.07,-120.68"/>
<polygon fill="midnightblue" stroke="midnightblue" points="700.78,-123.74 708.36,-116.33 697.82,-117.4 700.78,-123.74"/>
</g>
<!-- Node35&#45;&gt;Node33 -->
<g id="edge53" class="edge">
<title>Node35&#45;&gt;Node33</title>
<path fill="none" stroke="midnightblue" d="M629.38,-190.75C637.69,-187.26 645.59,-182.63 652,-176.5 685.52,-144.41 653.71,-109.76 688,-78.5 689.74,-76.92 691.59,-75.47 693.53,-74.13"/>
<polygon fill="midnightblue" stroke="midnightblue" points="695.59,-76.99 702.56,-69.01 692.13,-70.9 695.59,-76.99"/>
</g>
<!-- Node36 -->
<g id="node36" class="node">
<title>Node36</title>
<g id="a_node36"><a xlink:href="classhttplib_1_1detail_1_1compressor.html#a7cf1de9ae8f5d01316de7b666e66192d" target="_top" xlink:title=" ">
<polygon fill="white" stroke="black" points="688,-186.5 688,-216.5 833,-216.5 833,-186.5 688,-186.5"/>
<text text-anchor="start" x="696" y="-204.5" font-family="Helvetica,sans-Serif" font-size="10.00">httplib::detail::compressor</text>
<text text-anchor="middle" x="760.5" y="-193.5" font-family="Helvetica,sans-Serif" font-size="10.00">::compress</text>
</a>
</g>
</g>
<!-- Node35&#45;&gt;Node36 -->
<g id="edge49" class="edge">
<title>Node35&#45;&gt;Node36</title>
<path fill="none" stroke="midnightblue" d="M629.05,-201.5C644.3,-201.5 661.16,-201.5 677.56,-201.5"/>
<polygon fill="midnightblue" stroke="midnightblue" points="677.69,-205 687.69,-201.5 677.69,-198 677.69,-205"/>
</g>
<!-- Node37 -->
<g id="node37" class="node">
<title>Node37</title>
<g id="a_node37"><a xlink:href="namespacehttplib_1_1detail.html#ac08f80eff074b5a4adcb6e160a1380a5" target="_top" xlink:title=" ">
<polygon fill="white" stroke="black" points="705,-137.5 705,-167.5 816,-167.5 816,-137.5 705,-137.5"/>
<text text-anchor="start" x="713" y="-155.5" font-family="Helvetica,sans-Serif" font-size="10.00">httplib::detail::from</text>
<text text-anchor="middle" x="760.5" y="-144.5" font-family="Helvetica,sans-Serif" font-size="10.00">_i_to_hex</text>
</a>
</g>
</g>
<!-- Node35&#45;&gt;Node37 -->
<g id="edge50" class="edge">
<title>Node35&#45;&gt;Node37</title>
<path fill="none" stroke="midnightblue" d="M629.05,-186.86C649.85,-181.39 673.64,-175.12 695.16,-169.45"/>
<polygon fill="midnightblue" stroke="midnightblue" points="696.09,-172.82 704.87,-166.89 694.31,-166.05 696.09,-172.82"/>
</g>
<!-- Node38&#45;&gt;Node12 -->
<g id="edge56" class="edge">
<title>Node38&#45;&gt;Node12</title>
<path fill="none" stroke="midnightblue" d="M636.12,-167.51C641.72,-170.06 647.12,-173.04 652,-176.5 674.04,-192.13 669.35,-205.94 688,-225.5 703.21,-241.46 722.79,-257.06 737.61,-268.05"/>
<polygon fill="midnightblue" stroke="midnightblue" points="735.57,-270.9 745.72,-273.96 739.7,-265.24 735.57,-270.9"/>
</g>
<!-- Node38&#45;&gt;Node32 -->
<g id="edge55" class="edge">
<title>Node38&#45;&gt;Node32</title>
<path fill="none" stroke="midnightblue" d="M630.57,-137.47C652.05,-131.81 676.56,-125.35 698.4,-119.6"/>
<polygon fill="midnightblue" stroke="midnightblue" points="699.45,-122.94 708.22,-117.01 697.66,-116.17 699.45,-122.94"/>
</g>
<!-- Node38&#45;&gt;Node33 -->
<g id="edge57" class="edge">
<title>Node38&#45;&gt;Node33</title>
<path fill="none" stroke="midnightblue" d="M634.52,-137.38C640.7,-134.6 646.66,-131.34 652,-127.5 673.95,-111.74 665.67,-93.72 688,-78.5 691.04,-76.42 694.3,-74.58 697.69,-72.93"/>
<polygon fill="midnightblue" stroke="midnightblue" points="699.06,-76.15 706.91,-69.02 696.33,-69.7 699.06,-76.15"/>
</g>
<!-- Node39&#45;&gt;Node19 -->
<g id="edge59" class="edge">
<title>Node39&#45;&gt;Node19</title>
<path fill="none" stroke="midnightblue" d="M588.42,-352.81C606.34,-372.1 635.98,-407.03 652,-442.5 684.14,-513.68 657.6,-542.56 688,-614.5 701.14,-645.59 723.89,-677.14 740.21,-697.64"/>
<polygon fill="midnightblue" stroke="midnightblue" points="737.52,-699.89 746.54,-705.45 742.96,-695.48 737.52,-699.89"/>
</g>
<!-- Node39&#45;&gt;Node34 -->
<g id="edge60" class="edge">
<title>Node39&#45;&gt;Node34</title>
<path fill="none" stroke="midnightblue" d="M593.13,-322.33C615.13,-305.98 652.41,-280.19 688,-264.5 749.07,-237.58 778.53,-264.05 833,-225.5 887.57,-186.88 924.22,-113.34 939.28,-78.59"/>
<polygon fill="midnightblue" stroke="midnightblue" points="942.6,-79.71 943.25,-69.13 936.15,-77 942.6,-79.71"/>
</g>
<!-- Node40 -->
<g id="node40" class="node">
<title>Node40</title>
<g id="a_node40"><a xlink:href="namespacehttplib_1_1detail.html#ae545b65e4ea144c8dbfb1dfb5991afa5" target="_top" xlink:title=" ">
<polygon fill="white" stroke="black" points="704,-312.5 704,-342.5 817,-342.5 817,-312.5 704,-312.5"/>
<text text-anchor="start" x="712" y="-330.5" font-family="Helvetica,sans-Serif" font-size="10.00">httplib::detail::write</text>
<text text-anchor="middle" x="760.5" y="-319.5" font-family="Helvetica,sans-Serif" font-size="10.00">_content</text>
</a>
</g>
</g>
<!-- Node39&#45;&gt;Node40 -->
<g id="edge61" class="edge">
<title>Node39&#45;&gt;Node40</title>
<path fill="none" stroke="midnightblue" d="M638.55,-334C656.41,-333.04 675.79,-332 693.69,-331.04"/>
<polygon fill="midnightblue" stroke="midnightblue" points="693.96,-334.53 703.75,-330.5 693.58,-327.54 693.96,-334.53"/>
</g>
<!-- Node41&#45;&gt;Node34 -->
<g id="edge64" class="edge">
<title>Node41&#45;&gt;Node34</title>
<path fill="none" stroke="midnightblue" d="M440.84,-16.71C527.31,-18.94 692.94,-25 833,-40.5 850.67,-42.46 869.77,-45.33 887.18,-48.26"/>
<polygon fill="midnightblue" stroke="midnightblue" points="886.77,-51.74 897.22,-49.98 887.96,-44.84 886.77,-51.74"/>
</g>
</g>
</svg>
