<?xml version="1.0" encoding="UTF-8" standalone="no"?>
<!DOCTYPE svg PUBLIC "-//W3C//DTD SVG 1.1//EN"
 "http://www.w3.org/Graphics/SVG/1.1/DTD/svg11.dtd">
<!-- Generated by graphviz version 2.43.0 (0)
 -->
<!-- Title: benchmark::internal::ThreadTimer::StopTimer Pages: 1 -->
<svg width="346pt" height="66pt"
 viewBox="0.00 0.00 346.00 66.00" xmlns="http://www.w3.org/2000/svg" xmlns:xlink="http://www.w3.org/1999/xlink">
<g id="graph0" class="graph" transform="scale(1 1) rotate(0) translate(4 62)">
<title>benchmark::internal::ThreadTimer::StopTimer</title>
<polygon fill="white" stroke="transparent" points="-4,4 -4,-62 342,-62 342,4 -4,4"/>
<!-- Node1 -->
<g id="node1" class="node">
<title>Node1</title>
<g id="a_node1"><a xlink:title=" ">
<polygon fill="#bfbfbf" stroke="black" points="0,-14 0,-44 140,-44 140,-14 0,-14"/>
<text text-anchor="start" x="8" y="-32" font-family="Helvetica,sans-Serif" font-size="10.00">benchmark::internal</text>
<text text-anchor="middle" x="70" y="-21" font-family="Helvetica,sans-Serif" font-size="10.00">::ThreadTimer::StopTimer</text>
</a>
</g>
</g>
<!-- Node2 -->
<g id="node2" class="node">
<title>Node2</title>
<g id="a_node2"><a xlink:href="namespacebenchmark.html#ae44d25ebf7f82d36152f45378daeeda8" target="_top" xlink:title=" ">
<polygon fill="white" stroke="black" points="176.5,-38.5 176.5,-57.5 337.5,-57.5 337.5,-38.5 176.5,-38.5"/>
<text text-anchor="middle" x="257" y="-45.5" font-family="Helvetica,sans-Serif" font-size="10.00">benchmark::ChronoClockNow</text>
</a>
</g>
</g>
<!-- Node1&#45;&gt;Node2 -->
<g id="edge1" class="edge">
<title>Node1&#45;&gt;Node2</title>
<path fill="none" stroke="midnightblue" d="M140.15,-36.1C148.63,-36.97 157.4,-37.87 166.13,-38.77"/>
<polygon fill="midnightblue" stroke="midnightblue" points="166.04,-42.28 176.35,-39.82 166.76,-35.32 166.04,-42.28"/>
</g>
<!-- Node3 -->
<g id="node3" class="node">
<title>Node3</title>
<g id="a_node3"><a xlink:href="namespacebenchmark.html#afc97ae4598e9866d6b89ed711ec05c40" target="_top" xlink:title=" ">
<polygon fill="white" stroke="black" points="176,-0.5 176,-19.5 338,-19.5 338,-0.5 176,-0.5"/>
<text text-anchor="middle" x="257" y="-7.5" font-family="Helvetica,sans-Serif" font-size="10.00">benchmark::ThreadCPUUsage</text>
</a>
</g>
</g>
<!-- Node1&#45;&gt;Node3 -->
<g id="edge2" class="edge">
<title>Node1&#45;&gt;Node3</title>
<path fill="none" stroke="midnightblue" d="M140.15,-21.9C148.49,-21.04 157.09,-20.16 165.67,-19.28"/>
<polygon fill="midnightblue" stroke="midnightblue" points="166.13,-22.75 175.72,-18.25 165.41,-15.79 166.13,-22.75"/>
</g>
</g>
</svg>
