<?xml version="1.0" encoding="UTF-8" standalone="no"?>
<!DOCTYPE svg PUBLIC "-//W3C//DTD SVG 1.1//EN"
 "http://www.w3.org/Graphics/SVG/1.1/DTD/svg11.dtd">
<!-- Generated by graphviz version 2.43.0 (0)
 -->
<!-- Title: nlohmann::detail::lexer::scan_number Pages: 1 -->
<!--zoomable 128 -->
<svg id="main" version="1.1" xmlns="http://www.w3.org/2000/svg" xmlns:xlink="http://www.w3.org/1999/xlink" xml:space="preserve" onload="init(evt)">
<style type="text/css"><![CDATA[
.edge:hover path { stroke: red; }
.edge:hover polygon { stroke: red; fill: red; }
]]></style>
<script type="text/javascript"><![CDATA[
var edges = document.getElementsByTagName('g');
if (edges && edges.length) {
  for (var i=0;i<edges.length;i++) {
    if (edges[i].id.substr(0,4)=='edge') {
      edges[i].setAttribute('class','edge');
    }
  }
}
]]></script>
        <defs>
                <circle id="rim" cx="0" cy="0" r="7"/>
                <circle id="rim2" cx="0" cy="0" r="3.5"/>
                <g id="zoomPlus">
                        <use xlink:href="#rim" fill="#404040">
                                <set attributeName="fill" to="#808080" begin="zoomplus.mouseover" end="zoomplus.mouseout"/>
                        </use>
                        <path d="M-4,0h8M0,-4v8" fill="none" stroke="white" stroke-width="1.5" pointer-events="none"/>
                </g>
                <g id="zoomMin">
                        <use xlink:href="#rim" fill="#404040">
                                <set attributeName="fill" to="#808080" begin="zoomminus.mouseover" end="zoomminus.mouseout"/>
                        </use>
                        <path d="M-4,0h8" fill="none" stroke="white" stroke-width="1.5" pointer-events="none"/>
                </g>
                <g id="dirArrow">
                        <path fill="none" stroke="white" stroke-width="1.5" d="M0,-3.0v7 M-2.5,-0.5L0,-3.0L2.5,-0.5"/>
                </g>
               <g id="resetDef">
                       <use xlink:href="#rim2" fill="#404040">
                               <set attributeName="fill" to="#808080" begin="reset.mouseover" end="reset.mouseout"/>
                       </use>
               </g>
        </defs>

<script type="text/javascript">
var viewWidth = 1099;
var viewHeight = 128;
var sectionId = 'dynsection-26';
</script>
<script xlink:href="svgpan.js"/>
<svg id="graph" class="graph">
<g id="viewport">
<title>nlohmann::detail::lexer::scan_number</title>
<polygon fill="white" stroke="transparent" points="-4,4 -4,-123.6 1095,-123.6 1095,4 -4,4"/>
<!-- Node1 -->
<g id="node1" class="node">
<title>Node1</title>
<g id="a_node1"><a xlink:title="scan a number literal">
<polygon fill="#bfbfbf" stroke="black" points="961,-46.5 961,-76.5 1091,-76.5 1091,-46.5 961,-46.5"/>
<text text-anchor="start" x="969" y="-64.5" font-family="Helvetica,sans-Serif" font-size="10.00">nlohmann::detail::lexer</text>
<text text-anchor="middle" x="1026" y="-53.5" font-family="Helvetica,sans-Serif" font-size="10.00">::scan_number</text>
</a>
</g>
</g>
<!-- Node2 -->
<g id="node2" class="node">
<title>Node2</title>
<g id="a_node2"><a xlink:href="classnlohmann_1_1detail_1_1lexer.html#aac3041cd2b9291e64fee38db422863c9" target="_top" xlink:title=" ">
<polygon fill="white" stroke="black" points="795,-46.5 795,-76.5 925,-76.5 925,-46.5 795,-46.5"/>
<text text-anchor="start" x="803" y="-64.5" font-family="Helvetica,sans-Serif" font-size="10.00">nlohmann::detail::lexer</text>
<text text-anchor="middle" x="860" y="-53.5" font-family="Helvetica,sans-Serif" font-size="10.00">::scan</text>
</a>
</g>
</g>
<!-- Node1&#45;&gt;Node2 -->
<g id="edge1" class="edge">
<title>Node1&#45;&gt;Node2</title>
<path fill="none" stroke="midnightblue" d="M950.44,-61.5C942,-61.5 933.45,-61.5 925.16,-61.5"/>
<polygon fill="midnightblue" stroke="midnightblue" points="950.65,-65 960.65,-61.5 950.65,-58 950.65,-65"/>
</g>
<!-- Node3 -->
<g id="node3" class="node">
<title>Node3</title>
<g id="a_node3"><a xlink:href="classnlohmann_1_1detail_1_1parser.html#a33f3859d0dd402445b5859070fd24bab" target="_top" xlink:title="get next token from lexer">
<polygon fill="white" stroke="black" points="623,-46.5 623,-76.5 759,-76.5 759,-46.5 623,-46.5"/>
<text text-anchor="start" x="631" y="-64.5" font-family="Helvetica,sans-Serif" font-size="10.00">nlohmann::detail::parser</text>
<text text-anchor="middle" x="691" y="-53.5" font-family="Helvetica,sans-Serif" font-size="10.00">::get_token</text>
</a>
</g>
</g>
<!-- Node2&#45;&gt;Node3 -->
<g id="edge2" class="edge">
<title>Node2&#45;&gt;Node3</title>
<path fill="none" stroke="midnightblue" d="M784.67,-61.5C776.2,-61.5 767.61,-61.5 759.24,-61.5"/>
<polygon fill="midnightblue" stroke="midnightblue" points="784.91,-65 794.91,-61.5 784.91,-58 784.91,-65"/>
</g>
<!-- Node4 -->
<g id="node4" class="node">
<title>Node4</title>
<g id="a_node4"><a xlink:href="classnlohmann_1_1detail_1_1parser.html#a14338d8f3174601c0b2b7ef28752ab17" target="_top" xlink:title="public parser interface">
<polygon fill="white" stroke="black" points="279,-82.5 279,-112.5 415,-112.5 415,-82.5 279,-82.5"/>
<text text-anchor="start" x="287" y="-100.5" font-family="Helvetica,sans-Serif" font-size="10.00">nlohmann::detail::parser</text>
<text text-anchor="middle" x="347" y="-89.5" font-family="Helvetica,sans-Serif" font-size="10.00">::parse</text>
</a>
</g>
</g>
<!-- Node3&#45;&gt;Node4 -->
<g id="edge3" class="edge">
<title>Node3&#45;&gt;Node4</title>
<path fill="none" stroke="midnightblue" d="M657.78,-81.84C638.15,-93.01 612.09,-105.73 587,-111.5 529.99,-124.61 463.42,-119.07 415.04,-111.43"/>
<polygon fill="midnightblue" stroke="midnightblue" points="659.73,-84.75 666.59,-76.68 656.19,-78.71 659.73,-84.75"/>
</g>
<!-- Node5 -->
<g id="node5" class="node">
<title>Node5</title>
<g id="a_node5"><a xlink:href="classnlohmann_1_1detail_1_1parser.html#a1a2bd258b7e99f86b7e6a3c41373ba55" target="_top" xlink:title="a parser reading from an input adapter">
<polygon fill="white" stroke="black" points="451,-71.5 451,-101.5 587,-101.5 587,-71.5 451,-71.5"/>
<text text-anchor="start" x="459" y="-89.5" font-family="Helvetica,sans-Serif" font-size="10.00">nlohmann::detail::parser</text>
<text text-anchor="middle" x="519" y="-78.5" font-family="Helvetica,sans-Serif" font-size="10.00">::parser</text>
</a>
</g>
</g>
<!-- Node3&#45;&gt;Node5 -->
<g id="edge4" class="edge">
<title>Node3&#45;&gt;Node5</title>
<path fill="none" stroke="midnightblue" d="M612.85,-72.85C604.31,-74.1 595.66,-75.37 587.26,-76.61"/>
<polygon fill="midnightblue" stroke="midnightblue" points="613.43,-76.3 622.81,-71.38 612.41,-69.37 613.43,-76.3"/>
</g>
<!-- Node6 -->
<g id="node6" class="node">
<title>Node6</title>
<g id="a_node6"><a xlink:href="classnlohmann_1_1detail_1_1parser.html#a14e34931965064b26e118eb72cbd5e25" target="_top" xlink:title=" ">
<polygon fill="white" stroke="black" points="279,-0.5 279,-30.5 415,-30.5 415,-0.5 279,-0.5"/>
<text text-anchor="start" x="287" y="-18.5" font-family="Helvetica,sans-Serif" font-size="10.00">nlohmann::detail::parser</text>
<text text-anchor="middle" x="347" y="-7.5" font-family="Helvetica,sans-Serif" font-size="10.00">::sax_parse</text>
</a>
</g>
</g>
<!-- Node3&#45;&gt;Node6 -->
<g id="edge5" class="edge">
<title>Node3&#45;&gt;Node6</title>
<path fill="none" stroke="midnightblue" d="M657.33,-41.35C637.73,-30.45 611.85,-18.11 587,-12.5 530.03,0.36 463.46,-1.83 415.06,-6.4"/>
<polygon fill="midnightblue" stroke="midnightblue" points="655.72,-44.46 666.14,-46.38 659.2,-38.38 655.72,-44.46"/>
</g>
<!-- Node9 -->
<g id="node9" class="node">
<title>Node9</title>
<g id="a_node9"><a xlink:href="classnlohmann_1_1detail_1_1parser.html#ad256ac6f45b213d29096a04b5aa3c587" target="_top" xlink:title=" ">
<polygon fill="white" stroke="black" points="451,-22.5 451,-52.5 587,-52.5 587,-22.5 451,-22.5"/>
<text text-anchor="start" x="459" y="-40.5" font-family="Helvetica,sans-Serif" font-size="10.00">nlohmann::detail::parser</text>
<text text-anchor="middle" x="519" y="-29.5" font-family="Helvetica,sans-Serif" font-size="10.00">::sax_parse_internal</text>
</a>
</g>
</g>
<!-- Node3&#45;&gt;Node9 -->
<g id="edge8" class="edge">
<title>Node3&#45;&gt;Node9</title>
<path fill="none" stroke="midnightblue" d="M612.85,-50.61C604.31,-49.4 595.66,-48.18 587.26,-47"/>
<polygon fill="midnightblue" stroke="midnightblue" points="612.42,-54.08 622.81,-52.01 613.4,-47.15 612.42,-54.08"/>
</g>
<!-- Node7 -->
<g id="node7" class="node">
<title>Node7</title>
<g id="a_node7"><a xlink:href="classnlohmann_1_1detail_1_1parser.html#a20997b42262856935b60fc91bf05bf3f" target="_top" xlink:title="public accept interface">
<polygon fill="white" stroke="black" points="107,-0.5 107,-30.5 243,-30.5 243,-0.5 107,-0.5"/>
<text text-anchor="start" x="115" y="-18.5" font-family="Helvetica,sans-Serif" font-size="10.00">nlohmann::detail::parser</text>
<text text-anchor="middle" x="175" y="-7.5" font-family="Helvetica,sans-Serif" font-size="10.00">::accept</text>
</a>
</g>
</g>
<!-- Node6&#45;&gt;Node7 -->
<g id="edge6" class="edge">
<title>Node6&#45;&gt;Node7</title>
<path fill="none" stroke="midnightblue" d="M268.58,-15.5C260.12,-15.5 251.57,-15.5 243.26,-15.5"/>
<polygon fill="midnightblue" stroke="midnightblue" points="268.81,-19 278.81,-15.5 268.81,-12 268.81,-19"/>
</g>
<!-- Node8 -->
<g id="node8" class="node">
<title>Node8</title>
<g id="a_node8"><a xlink:href="unit-class__parser_8cpp.html#aa0249936738cc61255ba7c8cb7c7cf16" target="_top" xlink:title=" ">
<polygon fill="white" stroke="black" points="0,-6 0,-25 71,-25 71,-6 0,-6"/>
<text text-anchor="middle" x="35.5" y="-13" font-family="Helvetica,sans-Serif" font-size="10.00">TEST_CASE</text>
</a>
</g>
</g>
<!-- Node7&#45;&gt;Node8 -->
<g id="edge7" class="edge">
<title>Node7&#45;&gt;Node8</title>
<path fill="none" stroke="midnightblue" d="M96.7,-15.5C87.75,-15.5 78.99,-15.5 71.05,-15.5"/>
<polygon fill="midnightblue" stroke="midnightblue" points="96.86,-19 106.86,-15.5 96.86,-12 96.86,-19"/>
</g>
<!-- Node9&#45;&gt;Node4 -->
<g id="edge9" class="edge">
<title>Node9&#45;&gt;Node4</title>
<path fill="none" stroke="midnightblue" d="M465.42,-56.06C441.38,-64.54 413.28,-74.46 390.59,-82.47"/>
<polygon fill="midnightblue" stroke="midnightblue" points="466.84,-59.27 475.1,-52.64 464.51,-52.67 466.84,-59.27"/>
</g>
<!-- Node9&#45;&gt;Node6 -->
<g id="edge10" class="edge">
<title>Node9&#45;&gt;Node6</title>
<path fill="none" stroke="midnightblue" d="M440.85,-27.52C432.31,-26.41 423.66,-25.29 415.26,-24.2"/>
<polygon fill="midnightblue" stroke="midnightblue" points="440.44,-30.99 450.81,-28.81 441.34,-24.05 440.44,-30.99"/>
</g>
</g>
</svg>
        <g id="navigator" transform="translate(0 0)" fill="#404254">
                <rect fill="#f2f5e9" fill-opacity="0.5" stroke="#606060" stroke-width=".5" x="0" y="0" width="60" height="60"/>
                <use id="zoomplus" xlink:href="#zoomPlus" x="17" y="9" onmousedown="handleZoom(evt,'in')"/>
                <use id="zoomminus" xlink:href="#zoomMin" x="42" y="9" onmousedown="handleZoom(evt,'out')"/>
                <use id="reset" xlink:href="#resetDef" x="30" y="36" onmousedown="handleReset()"/>
                <g id="arrowUp" xlink:href="#dirArrow" transform="translate(30 24)" onmousedown="handlePan(0,-1)">
                  <use xlink:href="#rim" fill="#404040">
                        <set attributeName="fill" to="#808080" begin="arrowUp.mouseover" end="arrowUp.mouseout"/>
                  </use>
                  <path fill="none" stroke="white" stroke-width="1.5" d="M0,-3.0v7 M-2.5,-0.5L0,-3.0L2.5,-0.5"/>
                </g>
                <g id="arrowRight" xlink:href="#dirArrow" transform="rotate(90) translate(36 -43)" onmousedown="handlePan(1,0)">
                  <use xlink:href="#rim" fill="#404040">
                        <set attributeName="fill" to="#808080" begin="arrowRight.mouseover" end="arrowRight.mouseout"/>
                  </use>
                  <path fill="none" stroke="white" stroke-width="1.5" d="M0,-3.0v7 M-2.5,-0.5L0,-3.0L2.5,-0.5"/>
                </g>
                <g id="arrowDown" xlink:href="#dirArrow" transform="rotate(180) translate(-30 -48)" onmousedown="handlePan(0,1)">
                  <use xlink:href="#rim" fill="#404040">
                        <set attributeName="fill" to="#808080" begin="arrowDown.mouseover" end="arrowDown.mouseout"/>
                  </use>
                  <path fill="none" stroke="white" stroke-width="1.5" d="M0,-3.0v7 M-2.5,-0.5L0,-3.0L2.5,-0.5"/>
                </g>
                <g id="arrowLeft" xlink:href="#dirArrow" transform="rotate(270) translate(-36 17)" onmousedown="handlePan(-1,0)">
                  <use xlink:href="#rim" fill="#404040">
                        <set attributeName="fill" to="#808080" begin="arrowLeft.mouseover" end="arrowLeft.mouseout"/>
                  </use>
                  <path fill="none" stroke="white" stroke-width="1.5" d="M0,-3.0v7 M-2.5,-0.5L0,-3.0L2.5,-0.5"/>
                </g>
        </g>
        <svg viewBox="0 0 15 15" width="100%" height="30px" preserveAspectRatio="xMaxYMin meet">
         <g id="arrow_out" transform="scale(0.3 0.3)">
          <a xlink:href="classnlohmann_1_1detail_1_1lexer_a6bd7e6cdb0380a9df663f1c7f115f34f_icgraph_org.svg" target="_base">
           <rect id="button" ry="5" rx="5" y="6" x="6" height="38" width="38"
                fill="#f2f5e9" fill-opacity="0.5" stroke="#606060" stroke-width="1.0"/>
           <path id="arrow"
             d="M 11.500037,31.436501 C 11.940474,20.09759 22.043105,11.32322 32.158766,21.979434 L 37.068811,17.246167 C 37.068811,17.246167 37.088388,32 37.088388,32 L 22.160133,31.978069 C 22.160133,31.978069 26.997745,27.140456 26.997745,27.140456 C 18.528582,18.264221 13.291696,25.230495 11.500037,31.436501 z"
             style="fill:#404040;"/>
          </a>
         </g>
        </svg>
</svg>
