<?xml version="1.0" encoding="UTF-8" standalone="no"?>
<!DOCTYPE svg PUBLIC "-//W3C//DTD SVG 1.1//EN"
 "http://www.w3.org/Graphics/SVG/1.1/DTD/svg11.dtd">
<!-- Generated by graphviz version 2.43.0 (0)
 -->
<!-- Title: BluechiUnitUsageCommand Pages: 1 -->
<svg width="233pt" height="310pt"
 viewBox="0.00 0.00 232.50 310.00" xmlns="http://www.w3.org/2000/svg" xmlns:xlink="http://www.w3.org/1999/xlink">
<g id="graph0" class="graph" transform="scale(1 1) rotate(0) translate(4 306)">
<title>BluechiUnitUsageCommand</title>
<polygon fill="white" stroke="transparent" points="-4,4 -4,-306 228.5,-306 228.5,4 -4,4"/>
<!-- Node1 -->
<g id="node1" class="node">
<title>Node1</title>
<g id="a_node1"><a xlink:title=" ">
<polygon fill="#bfbfbf" stroke="black" points="0,-0.5 0,-79.5 181,-79.5 181,-0.5 0,-0.5"/>
<text text-anchor="middle" x="90.5" y="-67.5" font-family="Helvetica,sans-Serif" font-size="10.00">BluechiUnitUsageCommand</text>
<polyline fill="none" stroke="black" points="0,-60.5 181,-60.5 "/>
<text text-anchor="middle" x="90.5" y="-48.5" font-family="Helvetica,sans-Serif" font-size="10.00"> </text>
<polyline fill="none" stroke="black" points="0,-41.5 181,-41.5 "/>
<text text-anchor="start" x="8" y="-29.5" font-family="Helvetica,sans-Serif" font-size="10.00">+ BluechiUnitUsageCommand()</text>
<text text-anchor="start" x="8" y="-18.5" font-family="Helvetica,sans-Serif" font-size="10.00">+ ~BluechiUnitUsageCommand()</text>
<text text-anchor="start" x="8" y="-7.5" font-family="Helvetica,sans-Serif" font-size="10.00">+ Execute()</text>
</a>
</g>
</g>
<!-- Node2 -->
<g id="node2" class="node">
<title>Node2</title>
<g id="a_node2"><a xlink:href="classCommand.html" target="_top" xlink:title=" ">
<polygon fill="white" stroke="black" points="27.5,-127.5 27.5,-195.5 121.5,-195.5 121.5,-127.5 27.5,-127.5"/>
<text text-anchor="middle" x="74.5" y="-183.5" font-family="Helvetica,sans-Serif" font-size="10.00">Command</text>
<polyline fill="none" stroke="black" points="27.5,-176.5 121.5,-176.5 "/>
<text text-anchor="middle" x="74.5" y="-164.5" font-family="Helvetica,sans-Serif" font-size="10.00"> </text>
<polyline fill="none" stroke="black" points="27.5,-157.5 121.5,-157.5 "/>
<text text-anchor="start" x="35.5" y="-145.5" font-family="Helvetica,sans-Serif" font-size="10.00">+ Execute()</text>
<text text-anchor="start" x="35.5" y="-134.5" font-family="Helvetica,sans-Serif" font-size="10.00">+ ~Command()</text>
</a>
</g>
</g>
<!-- Node2&#45;&gt;Node1 -->
<g id="edge1" class="edge">
<title>Node2&#45;&gt;Node1</title>
<path fill="none" stroke="midnightblue" d="M80.3,-117.18C81.95,-104.89 83.73,-91.59 85.33,-79.6"/>
<polygon fill="none" stroke="midnightblue" points="76.82,-116.84 78.96,-127.21 83.75,-117.77 76.82,-116.84"/>
</g>
<!-- Node3 -->
<g id="node3" class="node">
<title>Node3</title>
<g id="a_node3"><a xlink:title="STL class.">
<polygon fill="white" stroke="#bfbfbf" points="140,-133 140,-190 205,-190 205,-133 140,-133"/>
<text text-anchor="middle" x="172.5" y="-178" font-family="Helvetica,sans-Serif" font-size="10.00">std::string</text>
<polyline fill="none" stroke="#bfbfbf" points="140,-171 205,-171 "/>
<text text-anchor="middle" x="172.5" y="-159" font-family="Helvetica,sans-Serif" font-size="10.00"> </text>
<polyline fill="none" stroke="#bfbfbf" points="140,-152 205,-152 "/>
<text text-anchor="middle" x="172.5" y="-140" font-family="Helvetica,sans-Serif" font-size="10.00"> </text>
</a>
</g>
</g>
<!-- Node3&#45;&gt;Node1 -->
<g id="edge2" class="edge">
<title>Node3&#45;&gt;Node1</title>
<path fill="none" stroke="#404040" d="M153.48,-132.78C144.72,-120.01 134.05,-104.47 124,-89.83"/>
<polygon fill="none" stroke="#404040" points="123.97,-89.78 117.28,-87.09 117.18,-79.88 123.87,-82.56 123.97,-89.78"/>
<text text-anchor="middle" x="167.5" y="-101" font-family="Helvetica,sans-Serif" font-size="10.00"> &#45;app_name_</text>
</g>
<!-- Node4 -->
<g id="node4" class="node">
<title>Node4</title>
<g id="a_node4"><a xlink:title="STL class.">
<polygon fill="white" stroke="#bfbfbf" points="120.5,-233.5 120.5,-301.5 224.5,-301.5 224.5,-233.5 120.5,-233.5"/>
<text text-anchor="start" x="128.5" y="-289.5" font-family="Helvetica,sans-Serif" font-size="10.00">std::basic_string&lt;</text>
<text text-anchor="middle" x="172.5" y="-278.5" font-family="Helvetica,sans-Serif" font-size="10.00"> char &gt;</text>
<polyline fill="none" stroke="#bfbfbf" points="120.5,-271.5 224.5,-271.5 "/>
<text text-anchor="middle" x="172.5" y="-259.5" font-family="Helvetica,sans-Serif" font-size="10.00"> </text>
<polyline fill="none" stroke="#bfbfbf" points="120.5,-252.5 224.5,-252.5 "/>
<text text-anchor="middle" x="172.5" y="-240.5" font-family="Helvetica,sans-Serif" font-size="10.00"> </text>
</a>
</g>
</g>
<!-- Node4&#45;&gt;Node3 -->
<g id="edge3" class="edge">
<title>Node4&#45;&gt;Node3</title>
<path fill="none" stroke="midnightblue" d="M172.5,-223.25C172.5,-212.05 172.5,-200.3 172.5,-190.15"/>
<polygon fill="none" stroke="midnightblue" points="169,-223.31 172.5,-233.31 176,-223.31 169,-223.31"/>
</g>
</g>
</svg>
