<?xml version="1.0" encoding="UTF-8" standalone="no"?>
<!DOCTYPE svg PUBLIC "-//W3C//DTD SVG 1.1//EN"
 "http://www.w3.org/Graphics/SVG/1.1/DTD/svg11.dtd">
<!-- Generated by graphviz version 2.43.0 (0)
 -->
<!-- Title: nlohmann::detail::binary_writer::write_bson_object Pages: 1 -->
<svg width="1676pt" height="502pt"
 viewBox="0.00 0.00 1676.00 502.00" xmlns="http://www.w3.org/2000/svg" xmlns:xlink="http://www.w3.org/1999/xlink">
<g id="graph0" class="graph" transform="scale(1 1) rotate(0) translate(4 498)">
<title>nlohmann::detail::binary_writer::write_bson_object</title>
<polygon fill="white" stroke="transparent" points="-4,4 -4,-498 1672,-498 1672,4 -4,4"/>
<!-- Node1 -->
<g id="node1" class="node">
<title>Node1</title>
<g id="a_node1"><a xlink:title=" ">
<polygon fill="#bfbfbf" stroke="black" points="0,-335.5 0,-365.5 145,-365.5 145,-335.5 0,-335.5"/>
<text text-anchor="start" x="8" y="-353.5" font-family="Helvetica,sans-Serif" font-size="10.00">nlohmann::detail::binary</text>
<text text-anchor="middle" x="72.5" y="-342.5" font-family="Helvetica,sans-Serif" font-size="10.00">_writer::write_bson_object</text>
</a>
</g>
</g>
<!-- Node2 -->
<g id="node2" class="node">
<title>Node2</title>
<g id="a_node2"><a xlink:href="classnlohmann_1_1detail_1_1binary__writer.html#acc6f1cc1fd370ee84ebc8cf7b8712840" target="_top" xlink:title="Calculates the size of the BSON serialization of the given JSON&#45;object j.">
<polygon fill="white" stroke="black" points="1017.5,-463.5 1017.5,-493.5 1181.5,-493.5 1181.5,-463.5 1017.5,-463.5"/>
<text text-anchor="start" x="1025.5" y="-481.5" font-family="Helvetica,sans-Serif" font-size="10.00">nlohmann::detail::binary</text>
<text text-anchor="middle" x="1099.5" y="-470.5" font-family="Helvetica,sans-Serif" font-size="10.00">_writer::calc_bson_object_size</text>
</a>
</g>
</g>
<!-- Node1&#45;&gt;Node2 -->
<g id="edge1" class="edge">
<title>Node1&#45;&gt;Node2</title>
<path fill="none" stroke="midnightblue" d="M99.61,-365.69C160.44,-399.59 317.25,-478.5 459,-478.5 459,-478.5 459,-478.5 674.5,-478.5 789.09,-478.5 921.1,-478.5 1006.98,-478.5"/>
<polygon fill="midnightblue" stroke="midnightblue" points="1007.22,-482 1017.22,-478.5 1007.22,-475 1007.22,-482"/>
</g>
<!-- Node3 -->
<g id="node3" class="node">
<title>Node3</title>
<g id="a_node3"><a xlink:href="classnlohmann_1_1detail_1_1binary__writer.html#ab77aa48692bd4e64e4f051ce6aeb6d2d" target="_top" xlink:title=" ">
<polygon fill="white" stroke="black" points="818.5,-343.5 818.5,-373.5 954.5,-373.5 954.5,-343.5 818.5,-343.5"/>
<text text-anchor="start" x="826.5" y="-361.5" font-family="Helvetica,sans-Serif" font-size="10.00">nlohmann::detail::binary</text>
<text text-anchor="middle" x="886.5" y="-350.5" font-family="Helvetica,sans-Serif" font-size="10.00">_writer::to_char_type</text>
</a>
</g>
</g>
<!-- Node1&#45;&gt;Node3 -->
<g id="edge2" class="edge">
<title>Node1&#45;&gt;Node3</title>
<path fill="none" stroke="midnightblue" d="M145.09,-360.65C205.44,-368.68 294.17,-379.21 372,-383.5 545.58,-393.07 589.74,-386.82 763,-372.5 777.65,-371.29 793.25,-369.72 808.24,-368.07"/>
<polygon fill="midnightblue" stroke="midnightblue" points="808.95,-371.52 818.5,-366.93 808.17,-364.56 808.95,-371.52"/>
</g>
<!-- Node4 -->
<g id="node4" class="node">
<title>Node4</title>
<g id="a_node4"><a xlink:href="classnlohmann_1_1detail_1_1binary__writer.html#a7ff58bf1a80018148bed860667ffca07" target="_top" xlink:title="Serializes the JSON value j to BSON and associates it with the key name.">
<polygon fill="white" stroke="black" points="181,-245.5 181,-275.5 336,-275.5 336,-245.5 181,-245.5"/>
<text text-anchor="start" x="189" y="-263.5" font-family="Helvetica,sans-Serif" font-size="10.00">nlohmann::detail::binary</text>
<text text-anchor="middle" x="258.5" y="-252.5" font-family="Helvetica,sans-Serif" font-size="10.00">_writer::write_bson_element</text>
</a>
</g>
</g>
<!-- Node1&#45;&gt;Node4 -->
<g id="edge3" class="edge">
<title>Node1&#45;&gt;Node4</title>
<path fill="none" stroke="midnightblue" d="M104.3,-335.44C135.34,-320.25 183.41,-296.74 217.41,-280.11"/>
<polygon fill="midnightblue" stroke="midnightblue" points="219.16,-283.15 226.6,-275.61 216.08,-276.86 219.16,-283.15"/>
</g>
<!-- Node5 -->
<g id="node5" class="node">
<title>Node5</title>
<g id="a_node5"><a xlink:href="FuzzerTracePC_8cpp.html#a1f10ac78bd11294b612636121065eb5b" target="_top" xlink:title=" ">
<polygon fill="white" stroke="black" points="1076,-425 1076,-444 1123,-444 1123,-425 1076,-425"/>
<text text-anchor="middle" x="1099.5" y="-432" font-family="Helvetica,sans-Serif" font-size="10.00">assert</text>
</a>
</g>
</g>
<!-- Node4&#45;&gt;Node5 -->
<g id="edge4" class="edge">
<title>Node4&#45;&gt;Node5</title>
<path fill="none" stroke="midnightblue" d="M267.95,-275.61C284.1,-302.82 322.23,-359.46 372,-383.5 615.53,-501.14 959.31,-457.8 1065.78,-440.36"/>
<polygon fill="midnightblue" stroke="midnightblue" points="1066.62,-443.77 1075.9,-438.66 1065.46,-436.87 1066.62,-443.77"/>
</g>
<!-- Node6 -->
<g id="node6" class="node">
<title>Node6</title>
<g id="a_node6"><a xlink:href="classnlohmann_1_1detail_1_1binary__writer.html#a025212bd170253638b9f05b3b6aa5bf9" target="_top" xlink:title="Writes a BSON element with key name and array value.">
<polygon fill="white" stroke="black" points="390,-343.5 390,-373.5 530,-373.5 530,-343.5 390,-343.5"/>
<text text-anchor="start" x="398" y="-361.5" font-family="Helvetica,sans-Serif" font-size="10.00">nlohmann::detail::binary</text>
<text text-anchor="middle" x="460" y="-350.5" font-family="Helvetica,sans-Serif" font-size="10.00">_writer::write_bson_array</text>
</a>
</g>
</g>
<!-- Node4&#45;&gt;Node6 -->
<g id="edge5" class="edge">
<title>Node4&#45;&gt;Node6</title>
<path fill="none" stroke="midnightblue" d="M288.11,-275.53C310.02,-290.23 341.55,-311.7 372,-325.5 385.32,-331.54 400.49,-336.36 414.4,-340.49"/>
<polygon fill="midnightblue" stroke="midnightblue" points="413.67,-343.93 424.25,-343.39 415.64,-337.21 413.67,-343.93"/>
</g>
<!-- Node18 -->
<g id="node18" class="node">
<title>Node18</title>
<g id="a_node18"><a xlink:href="classnlohmann_1_1detail_1_1binary__writer.html#ae099435e1df3096e0fc78333282f8f67" target="_top" xlink:title="Writes a BSON element with key name and boolean value value.">
<polygon fill="white" stroke="black" points="383,-294.5 383,-324.5 537,-324.5 537,-294.5 383,-294.5"/>
<text text-anchor="start" x="391" y="-312.5" font-family="Helvetica,sans-Serif" font-size="10.00">nlohmann::detail::binary</text>
<text text-anchor="middle" x="460" y="-301.5" font-family="Helvetica,sans-Serif" font-size="10.00">_writer::write_bson_boolean</text>
</a>
</g>
</g>
<!-- Node4&#45;&gt;Node18 -->
<g id="edge26" class="edge">
<title>Node4&#45;&gt;Node18</title>
<path fill="none" stroke="midnightblue" d="M320.71,-275.53C341.97,-280.76 365.98,-286.65 387.96,-292.05"/>
<polygon fill="midnightblue" stroke="midnightblue" points="387.36,-295.51 397.9,-294.49 389.03,-288.71 387.36,-295.51"/>
</g>
<!-- Node19 -->
<g id="node19" class="node">
<title>Node19</title>
<g id="a_node19"><a xlink:href="classnlohmann_1_1detail_1_1binary__writer.html#a263ec18815467bb9919021ef126919ca" target="_top" xlink:title="Writes a BSON element with key name and double value value.">
<polygon fill="white" stroke="black" points="386,-245.5 386,-275.5 534,-275.5 534,-245.5 386,-245.5"/>
<text text-anchor="start" x="394" y="-263.5" font-family="Helvetica,sans-Serif" font-size="10.00">nlohmann::detail::binary</text>
<text text-anchor="middle" x="460" y="-252.5" font-family="Helvetica,sans-Serif" font-size="10.00">_writer::write_bson_double</text>
</a>
</g>
</g>
<!-- Node4&#45;&gt;Node19 -->
<g id="edge29" class="edge">
<title>Node4&#45;&gt;Node19</title>
<path fill="none" stroke="midnightblue" d="M336.06,-260.5C349.11,-260.5 362.72,-260.5 375.92,-260.5"/>
<polygon fill="midnightblue" stroke="midnightblue" points="375.93,-264 385.93,-260.5 375.93,-257 375.93,-264"/>
</g>
<!-- Node20 -->
<g id="node20" class="node">
<title>Node20</title>
<g id="a_node20"><a xlink:href="classnlohmann_1_1detail_1_1binary__writer.html#a553ad4dbdf27238eef90867e4bf2f3e5" target="_top" xlink:title="Writes a BSON element with key name and integer value.">
<polygon fill="white" stroke="black" points="385.5,-196.5 385.5,-226.5 534.5,-226.5 534.5,-196.5 385.5,-196.5"/>
<text text-anchor="start" x="393.5" y="-214.5" font-family="Helvetica,sans-Serif" font-size="10.00">nlohmann::detail::binary</text>
<text text-anchor="middle" x="460" y="-203.5" font-family="Helvetica,sans-Serif" font-size="10.00">_writer::write_bson_integer</text>
</a>
</g>
</g>
<!-- Node4&#45;&gt;Node20 -->
<g id="edge31" class="edge">
<title>Node4&#45;&gt;Node20</title>
<path fill="none" stroke="midnightblue" d="M320.71,-245.47C341.97,-240.24 365.98,-234.35 387.96,-228.95"/>
<polygon fill="midnightblue" stroke="midnightblue" points="389.03,-232.29 397.9,-226.51 387.36,-225.49 389.03,-232.29"/>
</g>
<!-- Node21 -->
<g id="node21" class="node">
<title>Node21</title>
<g id="a_node21"><a xlink:href="classnlohmann_1_1detail_1_1binary__writer.html#a9927c1110b18661e0224a76156e5a7a9" target="_top" xlink:title="Writes a BSON element with key name and null value.">
<polygon fill="white" stroke="black" points="392,-147.5 392,-177.5 528,-177.5 528,-147.5 392,-147.5"/>
<text text-anchor="start" x="400" y="-165.5" font-family="Helvetica,sans-Serif" font-size="10.00">nlohmann::detail::binary</text>
<text text-anchor="middle" x="460" y="-154.5" font-family="Helvetica,sans-Serif" font-size="10.00">_writer::write_bson_null</text>
</a>
</g>
</g>
<!-- Node4&#45;&gt;Node21 -->
<g id="edge33" class="edge">
<title>Node4&#45;&gt;Node21</title>
<path fill="none" stroke="midnightblue" d="M278.79,-245.43C300.41,-229.15 337.04,-203.43 372,-187.5 377.22,-185.12 382.72,-182.91 388.32,-180.87"/>
<polygon fill="midnightblue" stroke="midnightblue" points="389.48,-184.17 397.79,-177.6 387.2,-177.55 389.48,-184.17"/>
</g>
<!-- Node22 -->
<g id="node22" class="node">
<title>Node22</title>
<g id="a_node22"><a xlink:href="classnlohmann_1_1detail_1_1binary__writer.html#a6231302930265eccb3f56c378f7b0661" target="_top" xlink:title="Writes a BSON element with key name and object value.">
<polygon fill="white" stroke="black" points="372,-49.5 372,-79.5 548,-79.5 548,-49.5 372,-49.5"/>
<text text-anchor="start" x="380" y="-67.5" font-family="Helvetica,sans-Serif" font-size="10.00">nlohmann::detail::binary</text>
<text text-anchor="middle" x="460" y="-56.5" font-family="Helvetica,sans-Serif" font-size="10.00">_writer::write_bson_object_entry</text>
</a>
</g>
</g>
<!-- Node4&#45;&gt;Node22 -->
<g id="edge35" class="edge">
<title>Node4&#45;&gt;Node22</title>
<path fill="none" stroke="midnightblue" d="M271.27,-245.47C286.85,-225.3 314.83,-188.1 336,-154.5 353.81,-126.23 345.82,-109.26 372,-88.5 373.61,-87.22 375.29,-86.01 377.01,-84.87"/>
<polygon fill="midnightblue" stroke="midnightblue" points="379.13,-87.69 386.04,-79.66 375.63,-81.62 379.13,-87.69"/>
</g>
<!-- Node23 -->
<g id="node23" class="node">
<title>Node23</title>
<g id="a_node23"><a xlink:href="classnlohmann_1_1detail_1_1binary__writer.html#a5e6574416915208fc035b57338ae3252" target="_top" xlink:title="Writes a BSON element with key name and string value value.">
<polygon fill="white" stroke="black" points="388.5,-98.5 388.5,-128.5 531.5,-128.5 531.5,-98.5 388.5,-98.5"/>
<text text-anchor="start" x="396.5" y="-116.5" font-family="Helvetica,sans-Serif" font-size="10.00">nlohmann::detail::binary</text>
<text text-anchor="middle" x="460" y="-105.5" font-family="Helvetica,sans-Serif" font-size="10.00">_writer::write_bson_string</text>
</a>
</g>
</g>
<!-- Node4&#45;&gt;Node23 -->
<g id="edge38" class="edge">
<title>Node4&#45;&gt;Node23</title>
<path fill="none" stroke="midnightblue" d="M269.34,-245.27C286.84,-219.41 325.9,-166.94 372,-138.5 375.44,-136.38 379.06,-134.43 382.8,-132.64"/>
<polygon fill="midnightblue" stroke="midnightblue" points="384.51,-135.72 392.29,-128.53 381.72,-129.3 384.51,-135.72"/>
</g>
<!-- Node24 -->
<g id="node24" class="node">
<title>Node24</title>
<g id="a_node24"><a xlink:href="classnlohmann_1_1detail_1_1binary__writer.html#a5e295ed1be6af6260d2a65f7397c3742" target="_top" xlink:title="Writes a BSON element with key name and unsigned value.">
<polygon fill="white" stroke="black" points="380.5,-0.5 380.5,-30.5 539.5,-30.5 539.5,-0.5 380.5,-0.5"/>
<text text-anchor="start" x="388.5" y="-18.5" font-family="Helvetica,sans-Serif" font-size="10.00">nlohmann::detail::binary</text>
<text text-anchor="middle" x="460" y="-7.5" font-family="Helvetica,sans-Serif" font-size="10.00">_writer::write_bson_unsigned</text>
</a>
</g>
</g>
<!-- Node4&#45;&gt;Node24 -->
<g id="edge40" class="edge">
<title>Node4&#45;&gt;Node24</title>
<path fill="none" stroke="midnightblue" d="M262.77,-245.21C272.16,-205.04 303.13,-95.72 372,-39.5 373.59,-38.2 375.25,-36.97 376.96,-35.81"/>
<polygon fill="midnightblue" stroke="midnightblue" points="379.09,-38.61 385.93,-30.52 375.54,-32.58 379.09,-38.61"/>
</g>
<!-- Node6&#45;&gt;Node3 -->
<g id="edge21" class="edge">
<title>Node6&#45;&gt;Node3</title>
<path fill="none" stroke="midnightblue" d="M530.15,-358.5C606.37,-358.5 728.68,-358.5 808.06,-358.5"/>
<polygon fill="midnightblue" stroke="midnightblue" points="808.48,-362 818.48,-358.5 808.48,-355 808.48,-362"/>
</g>
<!-- Node6&#45;&gt;Node4 -->
<g id="edge23" class="edge">
<title>Node6&#45;&gt;Node4</title>
<path fill="none" stroke="midnightblue" d="M389.9,-350.57C383.76,-348.45 377.71,-346.09 372,-343.5 336.88,-327.58 300.32,-301.46 278.75,-282.48"/>
<polygon fill="midnightblue" stroke="midnightblue" points="280.98,-279.78 271.25,-275.59 276.25,-284.94 280.98,-279.78"/>
</g>
<!-- Node7 -->
<g id="node7" class="node">
<title>Node7</title>
<g id="a_node7"><a xlink:href="classnlohmann_1_1detail_1_1binary__writer.html#af08f9302a02516ff8cf358a99aaa1ddf" target="_top" xlink:title=" ">
<polygon fill="white" stroke="black" points="593.5,-294.5 593.5,-324.5 753.5,-324.5 753.5,-294.5 593.5,-294.5"/>
<text text-anchor="start" x="601.5" y="-312.5" font-family="Helvetica,sans-Serif" font-size="10.00">nlohmann::detail::binary</text>
<text text-anchor="middle" x="673.5" y="-301.5" font-family="Helvetica,sans-Serif" font-size="10.00">_writer::calc_bson_array_size</text>
</a>
</g>
</g>
<!-- Node6&#45;&gt;Node7 -->
<g id="edge6" class="edge">
<title>Node6&#45;&gt;Node7</title>
<path fill="none" stroke="midnightblue" d="M525.89,-343.47C548.63,-338.2 574.35,-332.24 597.82,-326.8"/>
<polygon fill="midnightblue" stroke="midnightblue" points="598.78,-330.17 607.73,-324.51 597.2,-323.35 598.78,-330.17"/>
</g>
<!-- Node12 -->
<g id="node12" class="node">
<title>Node12</title>
<g id="a_node12"><a xlink:href="namespacehttplib.html#a498c3a79825ecbcb15c52ec5fcfd5c11" target="_top" xlink:title=" ">
<polygon fill="white" stroke="black" points="1571,-179 1571,-198 1668,-198 1668,-179 1571,-179"/>
<text text-anchor="middle" x="1619.5" y="-186" font-family="Helvetica,sans-Serif" font-size="10.00">httplib::to_string</text>
</a>
</g>
</g>
<!-- Node6&#45;&gt;Node12 -->
<g id="edge22" class="edge">
<title>Node6&#45;&gt;Node12</title>
<path fill="none" stroke="midnightblue" d="M530.38,-344.05C536.6,-341.39 542.58,-338.23 548,-334.5 570.26,-319.17 562.67,-302.09 584,-285.5 665.38,-222.23 699.7,-226.17 799,-198.5 928.86,-162.32 963.69,-150.5 1098.5,-150.5 1098.5,-150.5 1098.5,-150.5 1286.5,-150.5 1383.15,-150.5 1494.6,-166.59 1560.66,-177.83"/>
<polygon fill="midnightblue" stroke="midnightblue" points="1560.41,-181.34 1570.86,-179.59 1561.6,-174.44 1560.41,-181.34"/>
</g>
<!-- Node17 -->
<g id="node17" class="node">
<title>Node17</title>
<g id="a_node17"><a xlink:href="classnlohmann_1_1detail_1_1binary__writer.html#a1b5b7f5c03b1f8b1f59ea61db9634108" target="_top" xlink:title="Writes the given element_type and name to the output adapter.">
<polygon fill="white" stroke="black" points="584,-157.5 584,-187.5 763,-187.5 763,-157.5 584,-157.5"/>
<text text-anchor="start" x="592" y="-175.5" font-family="Helvetica,sans-Serif" font-size="10.00">nlohmann::detail::binary</text>
<text text-anchor="middle" x="673.5" y="-164.5" font-family="Helvetica,sans-Serif" font-size="10.00">_writer::write_bson_entry_header</text>
</a>
</g>
</g>
<!-- Node6&#45;&gt;Node17 -->
<g id="edge24" class="edge">
<title>Node6&#45;&gt;Node17</title>
<path fill="none" stroke="midnightblue" d="M530.24,-346.12C536.71,-343.05 542.78,-339.24 548,-334.5 581.12,-304.43 557.26,-276.36 584,-240.5 598.23,-221.41 619.2,-204.98 637.15,-193.05"/>
<polygon fill="midnightblue" stroke="midnightblue" points="639.16,-195.92 645.67,-187.57 635.37,-190.03 639.16,-195.92"/>
</g>
<!-- Node8 -->
<g id="node8" class="node">
<title>Node8</title>
<g id="a_node8"><a xlink:href="classnlohmann_1_1detail_1_1binary__writer.html#a1e4372c5984184eb5bcc09af1fcc2ee0" target="_top" xlink:title="Calculates the size necessary to serialize the JSON value j with its name.">
<polygon fill="white" stroke="black" points="799,-294.5 799,-324.5 974,-324.5 974,-294.5 799,-294.5"/>
<text text-anchor="start" x="807" y="-312.5" font-family="Helvetica,sans-Serif" font-size="10.00">nlohmann::detail::binary</text>
<text text-anchor="middle" x="886.5" y="-301.5" font-family="Helvetica,sans-Serif" font-size="10.00">_writer::calc_bson_element_size</text>
</a>
</g>
</g>
<!-- Node7&#45;&gt;Node8 -->
<g id="edge7" class="edge">
<title>Node7&#45;&gt;Node8</title>
<path fill="none" stroke="midnightblue" d="M753.67,-302.94C765.06,-302.77 776.9,-302.72 788.59,-302.77"/>
<polygon fill="midnightblue" stroke="midnightblue" points="788.79,-306.27 798.81,-302.85 788.84,-299.27 788.79,-306.27"/>
</g>
<!-- Node7&#45;&gt;Node12 -->
<g id="edge20" class="edge">
<title>Node7&#45;&gt;Node12</title>
<path fill="none" stroke="midnightblue" d="M705.03,-294.42C773.59,-261.98 945.78,-188.5 1098.5,-188.5 1098.5,-188.5 1098.5,-188.5 1286.5,-188.5 1382.66,-188.5 1494.48,-188.5 1560.71,-188.5"/>
<polygon fill="midnightblue" stroke="midnightblue" points="1560.94,-192 1570.94,-188.5 1560.94,-185 1560.94,-192"/>
</g>
<!-- Node8&#45;&gt;Node2 -->
<g id="edge17" class="edge">
<title>Node8&#45;&gt;Node2</title>
<path fill="none" stroke="midnightblue" d="M960.89,-324.63C965.66,-327.39 970.11,-330.66 974,-334.5 1013.31,-373.33 970.57,-414.79 1010,-453.5 1011.45,-454.93 1012.98,-456.27 1014.57,-457.54"/>
<polygon fill="midnightblue" stroke="midnightblue" points="1012.77,-460.55 1023.01,-463.29 1016.71,-454.76 1012.77,-460.55"/>
</g>
<!-- Node8&#45;&gt;Node5 -->
<g id="edge8" class="edge">
<title>Node8&#45;&gt;Node5</title>
<path fill="none" stroke="midnightblue" d="M959.11,-324.52C964.47,-327.3 969.52,-330.6 974,-334.5 1003.7,-360.39 979.42,-390.67 1010,-415.5 1025.5,-428.09 1047.42,-432.86 1065.56,-434.47"/>
<polygon fill="midnightblue" stroke="midnightblue" points="1065.54,-437.98 1075.73,-435.1 1065.96,-430.99 1065.54,-437.98"/>
</g>
<!-- Node8&#45;&gt;Node7 -->
<g id="edge9" class="edge">
<title>Node8&#45;&gt;Node7</title>
<path fill="none" stroke="midnightblue" d="M798.81,-316.15C787.26,-316.27 775.38,-316.28 763.78,-316.18"/>
<polygon fill="midnightblue" stroke="midnightblue" points="763.71,-312.68 753.67,-316.06 763.63,-319.68 763.71,-312.68"/>
</g>
<!-- Node9 -->
<g id="node9" class="node">
<title>Node9</title>
<g id="a_node9"><a xlink:href="classnlohmann_1_1detail_1_1binary__writer.html#a5bae2f1db2c511b869dffaddf15a1653" target="_top" xlink:title=" ">
<polygon fill="white" stroke="black" points="1031.5,-365 1031.5,-406 1167.5,-406 1167.5,-365 1031.5,-365"/>
<text text-anchor="start" x="1039.5" y="-394" font-family="Helvetica,sans-Serif" font-size="10.00">nlohmann::detail::binary</text>
<text text-anchor="start" x="1039.5" y="-383" font-family="Helvetica,sans-Serif" font-size="10.00">_writer::calc_bson_entry</text>
<text text-anchor="middle" x="1099.5" y="-372" font-family="Helvetica,sans-Serif" font-size="10.00">_header_size</text>
</a>
</g>
</g>
<!-- Node8&#45;&gt;Node9 -->
<g id="edge10" class="edge">
<title>Node8&#45;&gt;Node9</title>
<path fill="none" stroke="midnightblue" d="M946.81,-324.53C956.05,-327.47 965.38,-330.81 974,-334.5 991.03,-341.79 993.14,-347.82 1010,-355.5 1014.3,-357.46 1018.76,-359.36 1023.29,-361.19"/>
<polygon fill="midnightblue" stroke="midnightblue" points="1022.09,-364.47 1032.68,-364.84 1024.63,-357.95 1022.09,-364.47"/>
</g>
<!-- Node14 -->
<g id="node14" class="node">
<title>Node14</title>
<g id="a_node14"><a xlink:href="classnlohmann_1_1detail_1_1binary__writer.html#aeab70c895931b96ea598306b37eca271" target="_top" xlink:title=" ">
<polygon fill="white" stroke="black" points="1015,-315.5 1015,-345.5 1184,-345.5 1184,-315.5 1015,-315.5"/>
<text text-anchor="start" x="1023" y="-333.5" font-family="Helvetica,sans-Serif" font-size="10.00">nlohmann::detail::binary</text>
<text text-anchor="middle" x="1099.5" y="-322.5" font-family="Helvetica,sans-Serif" font-size="10.00">_writer::calc_bson_integer_size</text>
</a>
</g>
</g>
<!-- Node8&#45;&gt;Node14 -->
<g id="edge16" class="edge">
<title>Node8&#45;&gt;Node14</title>
<path fill="none" stroke="midnightblue" d="M974.24,-318.13C984.29,-319.13 994.59,-320.16 1004.74,-321.17"/>
<polygon fill="midnightblue" stroke="midnightblue" points="1004.52,-324.66 1014.82,-322.17 1005.22,-317.7 1004.52,-324.66"/>
</g>
<!-- Node15 -->
<g id="node15" class="node">
<title>Node15</title>
<g id="a_node15"><a xlink:href="classnlohmann_1_1detail_1_1binary__writer.html#aea44fd97a5cb9b4f175e66e3e4fdf158" target="_top" xlink:title=" ">
<polygon fill="white" stroke="black" points="1018.5,-266.5 1018.5,-296.5 1180.5,-296.5 1180.5,-266.5 1018.5,-266.5"/>
<text text-anchor="start" x="1026.5" y="-284.5" font-family="Helvetica,sans-Serif" font-size="10.00">nlohmann::detail::binary</text>
<text text-anchor="middle" x="1099.5" y="-273.5" font-family="Helvetica,sans-Serif" font-size="10.00">_writer::calc_bson_string_size</text>
</a>
</g>
</g>
<!-- Node8&#45;&gt;Node15 -->
<g id="edge18" class="edge">
<title>Node8&#45;&gt;Node15</title>
<path fill="none" stroke="midnightblue" d="M974.24,-297.99C985.37,-296.51 996.8,-295 1008,-293.51"/>
<polygon fill="midnightblue" stroke="midnightblue" points="1008.75,-296.94 1018.2,-292.16 1007.83,-290 1008.75,-296.94"/>
</g>
<!-- Node16 -->
<g id="node16" class="node">
<title>Node16</title>
<g id="a_node16"><a xlink:href="classnlohmann_1_1detail_1_1binary__writer.html#aa1d6bb9f3af16f07ce2440c354b5787b" target="_top" xlink:title=" ">
<polygon fill="white" stroke="black" points="1010,-217.5 1010,-247.5 1189,-247.5 1189,-217.5 1010,-217.5"/>
<text text-anchor="start" x="1018" y="-235.5" font-family="Helvetica,sans-Serif" font-size="10.00">nlohmann::detail::binary</text>
<text text-anchor="middle" x="1099.5" y="-224.5" font-family="Helvetica,sans-Serif" font-size="10.00">_writer::calc_bson_unsigned_size</text>
</a>
</g>
</g>
<!-- Node8&#45;&gt;Node16 -->
<g id="edge19" class="edge">
<title>Node8&#45;&gt;Node16</title>
<path fill="none" stroke="midnightblue" d="M919.82,-294.46C944.26,-283.41 978.83,-268.47 1010,-257.5 1016.83,-255.1 1024.03,-252.76 1031.23,-250.54"/>
<polygon fill="midnightblue" stroke="midnightblue" points="1032.47,-253.82 1041.04,-247.59 1030.46,-247.12 1032.47,-253.82"/>
</g>
<!-- Node10 -->
<g id="node10" class="node">
<title>Node10</title>
<g id="a_node10"><a xlink:href="classnlohmann_1_1detail_1_1out__of__range.html#a3f6d82a6f967c4728a1ec735a7867073" target="_top" xlink:title=" ">
<polygon fill="white" stroke="black" points="1225,-279.5 1225,-309.5 1346,-309.5 1346,-279.5 1225,-279.5"/>
<text text-anchor="start" x="1233" y="-297.5" font-family="Helvetica,sans-Serif" font-size="10.00">nlohmann::detail::out</text>
<text text-anchor="middle" x="1285.5" y="-286.5" font-family="Helvetica,sans-Serif" font-size="10.00">_of_range::create</text>
</a>
</g>
</g>
<!-- Node9&#45;&gt;Node10 -->
<g id="edge11" class="edge">
<title>Node9&#45;&gt;Node10</title>
<path fill="none" stroke="midnightblue" d="M1166.93,-364.94C1174.48,-362.03 1181.98,-358.87 1189,-355.5 1212.58,-344.18 1237.42,-328.17 1255.86,-315.39"/>
<polygon fill="midnightblue" stroke="midnightblue" points="1257.94,-318.2 1264.11,-309.59 1253.91,-312.48 1257.94,-318.2"/>
</g>
<!-- Node9&#45;&gt;Node12 -->
<g id="edge15" class="edge">
<title>Node9&#45;&gt;Node12</title>
<path fill="none" stroke="midnightblue" d="M1167.75,-369.65C1175.5,-365.89 1182.82,-361.24 1189,-355.5 1219.06,-327.58 1193.3,-296.55 1225,-270.5 1237.99,-259.82 1454.57,-218.73 1560.74,-199.08"/>
<polygon fill="midnightblue" stroke="midnightblue" points="1561.46,-202.5 1570.66,-197.25 1560.19,-195.62 1561.46,-202.5"/>
</g>
<!-- Node11 -->
<g id="node11" class="node">
<title>Node11</title>
<g id="a_node11"><a xlink:href="classnlohmann_1_1detail_1_1exception.html#abf41a7e9178356314082284e6cfea278" target="_top" xlink:title=" ">
<polygon fill="white" stroke="black" points="1382,-304.5 1382,-334.5 1535,-334.5 1535,-304.5 1382,-304.5"/>
<text text-anchor="start" x="1390" y="-322.5" font-family="Helvetica,sans-Serif" font-size="10.00">nlohmann::detail::exception</text>
<text text-anchor="middle" x="1458.5" y="-311.5" font-family="Helvetica,sans-Serif" font-size="10.00">::name</text>
</a>
</g>
</g>
<!-- Node10&#45;&gt;Node11 -->
<g id="edge12" class="edge">
<title>Node10&#45;&gt;Node11</title>
<path fill="none" stroke="midnightblue" d="M1346.31,-303.24C1354.55,-304.45 1363.13,-305.7 1371.73,-306.96"/>
<polygon fill="midnightblue" stroke="midnightblue" points="1371.39,-310.45 1381.79,-308.43 1372.4,-303.52 1371.39,-310.45"/>
</g>
<!-- Node13 -->
<g id="node13" class="node">
<title>Node13</title>
<g id="a_node13"><a xlink:href="classnlohmann_1_1detail_1_1out__of__range.html#ab5fe402019dba957558499502f0fd731" target="_top" xlink:title=" ">
<polygon fill="white" stroke="black" points="1391.5,-255.5 1391.5,-285.5 1525.5,-285.5 1525.5,-255.5 1391.5,-255.5"/>
<text text-anchor="start" x="1399.5" y="-273.5" font-family="Helvetica,sans-Serif" font-size="10.00">nlohmann::detail::out</text>
<text text-anchor="middle" x="1458.5" y="-262.5" font-family="Helvetica,sans-Serif" font-size="10.00">_of_range::out_of_range</text>
</a>
</g>
</g>
<!-- Node10&#45;&gt;Node13 -->
<g id="edge14" class="edge">
<title>Node10&#45;&gt;Node13</title>
<path fill="none" stroke="midnightblue" d="M1346.31,-286.11C1357.56,-284.53 1369.46,-282.86 1381.13,-281.22"/>
<polygon fill="midnightblue" stroke="midnightblue" points="1381.89,-284.65 1391.31,-279.79 1380.92,-277.71 1381.89,-284.65"/>
</g>
<!-- Node11&#45;&gt;Node12 -->
<g id="edge13" class="edge">
<title>Node11&#45;&gt;Node12</title>
<path fill="none" stroke="midnightblue" d="M1518.86,-304.49C1524.54,-301.93 1530.03,-298.96 1535,-295.5 1568.68,-272.06 1595.17,-231.01 1608.67,-207.14"/>
<polygon fill="midnightblue" stroke="midnightblue" points="1611.91,-208.52 1613.65,-198.07 1605.77,-205.15 1611.91,-208.52"/>
</g>
<!-- Node17&#45;&gt;Node3 -->
<g id="edge25" class="edge">
<title>Node17&#45;&gt;Node3</title>
<path fill="none" stroke="midnightblue" d="M742.51,-187.59C750.13,-191.47 757.22,-196.36 763,-202.5 804.68,-246.78 756.1,-291.41 799,-334.5 802.09,-337.61 805.55,-340.32 809.25,-342.69"/>
<polygon fill="midnightblue" stroke="midnightblue" points="807.83,-345.9 818.29,-347.62 811.19,-339.76 807.83,-345.9"/>
</g>
<!-- Node18&#45;&gt;Node3 -->
<g id="edge27" class="edge">
<title>Node18&#45;&gt;Node3</title>
<path fill="none" stroke="midnightblue" d="M525.77,-294.44C544.45,-290.75 564.94,-287.34 584,-285.5 663.19,-277.85 692.02,-249.57 763,-285.5 787.11,-297.7 776.76,-319.15 799,-334.5 802.13,-336.66 805.46,-338.63 808.91,-340.42"/>
<polygon fill="midnightblue" stroke="midnightblue" points="807.74,-343.74 818.29,-344.76 810.68,-337.39 807.74,-343.74"/>
</g>
<!-- Node18&#45;&gt;Node17 -->
<g id="edge28" class="edge">
<title>Node18&#45;&gt;Node17</title>
<path fill="none" stroke="midnightblue" d="M535.15,-294.31C539.75,-291.81 544.1,-288.89 548,-285.5 578.35,-259.13 554.42,-229.74 584,-202.5 588.18,-198.65 592.87,-195.3 597.85,-192.37"/>
<polygon fill="midnightblue" stroke="midnightblue" points="599.84,-195.28 607.09,-187.55 596.6,-189.07 599.84,-195.28"/>
</g>
<!-- Node19&#45;&gt;Node17 -->
<g id="edge30" class="edge">
<title>Node19&#45;&gt;Node17</title>
<path fill="none" stroke="midnightblue" d="M528.82,-245.34C535.48,-242.81 541.99,-239.88 548,-236.5 567.17,-225.7 565.14,-213.85 584,-202.5 591.09,-198.23 598.88,-194.47 606.79,-191.19"/>
<polygon fill="midnightblue" stroke="midnightblue" points="608.06,-194.45 616.11,-187.55 605.52,-187.93 608.06,-194.45"/>
</g>
<!-- Node20&#45;&gt;Node17 -->
<g id="edge32" class="edge">
<title>Node20&#45;&gt;Node17</title>
<path fill="none" stroke="midnightblue" d="M534.68,-197.91C549.64,-195.16 565.55,-192.22 581.04,-189.37"/>
<polygon fill="midnightblue" stroke="midnightblue" points="581.95,-192.76 591.15,-187.5 580.68,-185.87 581.95,-192.76"/>
</g>
<!-- Node21&#45;&gt;Node17 -->
<g id="edge34" class="edge">
<title>Node21&#45;&gt;Node17</title>
<path fill="none" stroke="midnightblue" d="M528.21,-165.68C542.7,-166.36 558.3,-167.1 573.71,-167.83"/>
<polygon fill="midnightblue" stroke="midnightblue" points="573.64,-171.33 583.79,-168.31 573.97,-164.34 573.64,-171.33"/>
</g>
<!-- Node22&#45;&gt;Node1 -->
<g id="edge37" class="edge">
<title>Node22&#45;&gt;Node1</title>
<path fill="none" stroke="midnightblue" d="M393.35,-79.62C385.99,-82.18 378.72,-85.13 372,-88.5 248.47,-150.35 135.47,-275.86 92.17,-327.51"/>
<polygon fill="midnightblue" stroke="midnightblue" points="89.3,-325.49 85.6,-335.42 94.68,-329.96 89.3,-325.49"/>
</g>
<!-- Node22&#45;&gt;Node17 -->
<g id="edge36" class="edge">
<title>Node22&#45;&gt;Node17</title>
<path fill="none" stroke="midnightblue" d="M525.05,-79.59C532.92,-82.2 540.74,-85.16 548,-88.5 553.06,-90.83 606.92,-127.53 642.12,-151.64"/>
<polygon fill="midnightblue" stroke="midnightblue" points="640.4,-154.71 650.62,-157.47 644.35,-148.93 640.4,-154.71"/>
</g>
<!-- Node23&#45;&gt;Node17 -->
<g id="edge39" class="edge">
<title>Node23&#45;&gt;Node17</title>
<path fill="none" stroke="midnightblue" d="M514.92,-128.54C543.51,-136.52 578.81,-146.36 608.75,-154.72"/>
<polygon fill="midnightblue" stroke="midnightblue" points="608.11,-158.17 618.68,-157.49 609.99,-151.43 608.11,-158.17"/>
</g>
<!-- Node24&#45;&gt;Node10 -->
<g id="edge41" class="edge">
<title>Node24&#45;&gt;Node10</title>
<path fill="none" stroke="midnightblue" d="M524.56,-30.54C690.77,-70.11 1129.53,-176.31 1189,-208.5 1219.01,-224.74 1247.24,-252.27 1265.12,-271.8"/>
<polygon fill="midnightblue" stroke="midnightblue" points="1262.61,-274.25 1271.89,-279.37 1267.83,-269.58 1262.61,-274.25"/>
</g>
<!-- Node24&#45;&gt;Node12 -->
<g id="edge42" class="edge">
<title>Node24&#45;&gt;Node12</title>
<path fill="none" stroke="midnightblue" d="M539.6,-19.94C624.79,-24.36 764.74,-30.5 885.5,-30.5 885.5,-30.5 885.5,-30.5 1286.5,-30.5 1417.47,-30.5 1551.77,-132 1599.93,-172.29"/>
<polygon fill="midnightblue" stroke="midnightblue" points="1597.76,-175.05 1607.65,-178.85 1602.3,-169.71 1597.76,-175.05"/>
</g>
<!-- Node24&#45;&gt;Node17 -->
<g id="edge43" class="edge">
<title>Node24&#45;&gt;Node17</title>
<path fill="none" stroke="midnightblue" d="M534.52,-30.71C539.33,-33.21 543.89,-36.12 548,-39.5 575.63,-62.22 560.53,-84.5 584,-111.5 598.18,-127.81 617.64,-141.85 634.7,-152.33"/>
<polygon fill="midnightblue" stroke="midnightblue" points="632.98,-155.38 643.37,-157.48 636.56,-149.36 632.98,-155.38"/>
</g>
</g>
</svg>
