<?xml version="1.0" encoding="UTF-8" standalone="no"?>
<!DOCTYPE svg PUBLIC "-//W3C//DTD SVG 1.1//EN"
 "http://www.w3.org/Graphics/SVG/1.1/DTD/svg11.dtd">
<!-- Generated by graphviz version 2.43.0 (0)
 -->
<!-- Title: DatabaseHandler::SaveData Pages: 1 -->
<svg width="925pt" height="841pt"
 viewBox="0.00 0.00 925.00 840.50" xmlns="http://www.w3.org/2000/svg" xmlns:xlink="http://www.w3.org/1999/xlink">
<g id="graph0" class="graph" transform="scale(1 1) rotate(0) translate(4 836.5)">
<title>DatabaseHandler::SaveData</title>
<polygon fill="white" stroke="transparent" points="-4,4 -4,-836.5 921,-836.5 921,4 -4,4"/>
<!-- Node1 -->
<g id="node1" class="node">
<title>Node1</title>
<g id="a_node1"><a xlink:title="Save the JSON file data to the database.">
<polygon fill="#bfbfbf" stroke="black" points="762,-586.5 762,-605.5 917,-605.5 917,-586.5 762,-586.5"/>
<text text-anchor="middle" x="839.5" y="-593.5" font-family="Helvetica,sans-Serif" font-size="10.00">DatabaseHandler::SaveData</text>
</a>
</g>
</g>
<!-- Node2 -->
<g id="node2" class="node">
<title>Node2</title>
<g id="a_node2"><a xlink:href="classBluechiUnitUsageCommand.html#a799838b49eeab56450dd3d47fa68e189" target="_top" xlink:title=" ">
<polygon fill="white" stroke="black" points="562,-802 562,-832 716,-832 716,-802 562,-802"/>
<text text-anchor="start" x="570" y="-820" font-family="Helvetica,sans-Serif" font-size="10.00">BluechiUnitUsageCommand</text>
<text text-anchor="middle" x="639" y="-809" font-family="Helvetica,sans-Serif" font-size="10.00">::Execute</text>
</a>
</g>
</g>
<!-- Node1&#45;&gt;Node2 -->
<g id="edge1" class="edge">
<title>Node1&#45;&gt;Node2</title>
<path fill="none" stroke="midnightblue" d="M832.22,-615.39C818.84,-653.69 783.95,-739.46 726,-787 718.54,-793.12 709.76,-798.02 700.7,-801.95"/>
<polygon fill="midnightblue" stroke="midnightblue" points="835.67,-616.11 835.55,-605.52 829.04,-613.87 835.67,-616.11"/>
</g>
<!-- Node3 -->
<g id="node3" class="node">
<title>Node3</title>
<g id="a_node3"><a xlink:href="classUserAppControlHandler.html#a405532812369082c6893c30bdae67c62" target="_top" xlink:title="Initialize User App Control Handler.">
<polygon fill="white" stroke="black" points="0,-736 0,-766 131,-766 131,-736 0,-736"/>
<text text-anchor="start" x="8" y="-754" font-family="Helvetica,sans-Serif" font-size="10.00">UserAppControlHandler</text>
<text text-anchor="middle" x="65.5" y="-743" font-family="Helvetica,sans-Serif" font-size="10.00">::Init</text>
</a>
</g>
</g>
<!-- Node1&#45;&gt;Node3 -->
<g id="edge2" class="edge">
<title>Node1&#45;&gt;Node3</title>
<path fill="none" stroke="midnightblue" d="M827.53,-614.48C809.95,-642.27 772.64,-694.23 726,-719 530.61,-822.78 254.99,-788.27 131.16,-765"/>
<polygon fill="midnightblue" stroke="midnightblue" points="830.65,-616.09 832.91,-605.74 824.69,-612.42 830.65,-616.09"/>
</g>
<!-- Node4 -->
<g id="node4" class="node">
<title>Node4</title>
<g id="a_node4"><a xlink:href="classDatabaseHandler.html#aac7e80ab286a7f5078d6cc715e3cab9b" target="_top" xlink:title="Modify the value of the key in the database.">
<polygon fill="white" stroke="black" points="554.5,-338.5 554.5,-357.5 723.5,-357.5 723.5,-338.5 554.5,-338.5"/>
<text text-anchor="middle" x="639" y="-345.5" font-family="Helvetica,sans-Serif" font-size="10.00">DatabaseHandler::ModifyValue</text>
</a>
</g>
</g>
<!-- Node1&#45;&gt;Node4 -->
<g id="edge3" class="edge">
<title>Node1&#45;&gt;Node4</title>
<path fill="none" stroke="midnightblue" d="M824.27,-578.22C785.25,-529.47 677.53,-394.89 647.73,-357.65"/>
<polygon fill="midnightblue" stroke="midnightblue" points="821.74,-580.66 830.72,-586.28 827.2,-576.28 821.74,-580.66"/>
</g>
<!-- Node14 -->
<g id="node14" class="node">
<title>Node14</title>
<g id="a_node14"><a xlink:href="classUserAppControlHandler.html#aa7090082a9d4cf39d3a6b8a1e1334a3a" target="_top" xlink:title="Unpause ASIL App selected by User from Vehicle State UI.">
<polygon fill="white" stroke="black" points="355,-627 355,-657 486,-657 486,-627 355,-627"/>
<text text-anchor="start" x="363" y="-645" font-family="Helvetica,sans-Serif" font-size="10.00">UserAppControlHandler</text>
<text text-anchor="middle" x="420.5" y="-634" font-family="Helvetica,sans-Serif" font-size="10.00">::PlayAsilApp</text>
</a>
</g>
</g>
<!-- Node1&#45;&gt;Node14 -->
<g id="edge13" class="edge">
<title>Node1&#45;&gt;Node14</title>
<path fill="none" stroke="midnightblue" d="M807.04,-609.46C784.84,-618.25 754.16,-628.99 726,-634 644.26,-648.54 548.25,-648.25 486.22,-645.86"/>
<polygon fill="midnightblue" stroke="midnightblue" points="808.65,-612.59 816.6,-605.59 806.02,-606.1 808.65,-612.59"/>
</g>
<!-- Node15 -->
<g id="node15" class="node">
<title>Node15</title>
<g id="a_node15"><a xlink:href="classUserAppControlHandler.html#a5bee2fdba62376c62ee8dd29bbb4fb6d" target="_top" xlink:title="Play QM App selected by User from Infotainment UI.">
<polygon fill="white" stroke="black" points="355,-578 355,-608 486,-608 486,-578 355,-578"/>
<text text-anchor="start" x="363" y="-596" font-family="Helvetica,sans-Serif" font-size="10.00">UserAppControlHandler</text>
<text text-anchor="middle" x="420.5" y="-585" font-family="Helvetica,sans-Serif" font-size="10.00">::PlayQmApp</text>
</a>
</g>
</g>
<!-- Node1&#45;&gt;Node15 -->
<g id="edge14" class="edge">
<title>Node1&#45;&gt;Node15</title>
<path fill="none" stroke="midnightblue" d="M751.09,-595.37C671.95,-594.8 557.17,-593.98 486.05,-593.46"/>
<polygon fill="midnightblue" stroke="midnightblue" points="751.5,-598.87 761.53,-595.45 751.56,-591.87 751.5,-598.87"/>
</g>
<!-- Node16 -->
<g id="node16" class="node">
<title>Node16</title>
<g id="a_node16"><a xlink:href="classConfigHandler.html#a5f22a28a3148d66a75d376eaade4fa5b" target="_top" xlink:title="Save app JSON file content to database.">
<polygon fill="white" stroke="black" points="553.5,-289 553.5,-319 724.5,-319 724.5,-289 553.5,-289"/>
<text text-anchor="start" x="561.5" y="-307" font-family="Helvetica,sans-Serif" font-size="10.00">ConfigHandler::SaveFileContent</text>
<text text-anchor="middle" x="639" y="-296" font-family="Helvetica,sans-Serif" font-size="10.00">ToDatabase</text>
</a>
</g>
</g>
<!-- Node1&#45;&gt;Node16 -->
<g id="edge15" class="edge">
<title>Node1&#45;&gt;Node16</title>
<path fill="none" stroke="midnightblue" d="M836.01,-576.28C828.72,-526.98 802.85,-397.42 726,-329 721.7,-325.17 716.85,-321.93 711.7,-319.19"/>
<polygon fill="midnightblue" stroke="midnightblue" points="832.55,-576.85 837.39,-586.28 839.49,-575.89 832.55,-576.85"/>
</g>
<!-- Node18 -->
<g id="node18" class="node">
<title>Node18</title>
<g id="a_node18"><a xlink:href="classUserAppControlHandler.html#a668e04c325692c11f03208ea46483d51" target="_top" xlink:title="Pause ASIL App selected by User from Vehicle State UI.">
<polygon fill="white" stroke="black" points="355,-529 355,-559 486,-559 486,-529 355,-529"/>
<text text-anchor="start" x="363" y="-547" font-family="Helvetica,sans-Serif" font-size="10.00">UserAppControlHandler</text>
<text text-anchor="middle" x="420.5" y="-536" font-family="Helvetica,sans-Serif" font-size="10.00">::StopAsilApp</text>
</a>
</g>
</g>
<!-- Node1&#45;&gt;Node18 -->
<g id="edge17" class="edge">
<title>Node1&#45;&gt;Node18</title>
<path fill="none" stroke="midnightblue" d="M752.07,-585.22C672.95,-575.36 557.64,-560.98 486.21,-552.07"/>
<polygon fill="midnightblue" stroke="midnightblue" points="751.66,-588.7 762.02,-586.46 752.53,-581.75 751.66,-588.7"/>
</g>
<!-- Node19 -->
<g id="node19" class="node">
<title>Node19</title>
<g id="a_node19"><a xlink:href="classUserAppControlHandler.html#a032624472da74d1abdf2f4b974965bc8" target="_top" xlink:title="Stop QM App selected by User from Infotainment UI.">
<polygon fill="white" stroke="black" points="355,-676 355,-706 486,-706 486,-676 355,-676"/>
<text text-anchor="start" x="363" y="-694" font-family="Helvetica,sans-Serif" font-size="10.00">UserAppControlHandler</text>
<text text-anchor="middle" x="420.5" y="-683" font-family="Helvetica,sans-Serif" font-size="10.00">::StopQmApp</text>
</a>
</g>
</g>
<!-- Node1&#45;&gt;Node19 -->
<g id="edge18" class="edge">
<title>Node1&#45;&gt;Node19</title>
<path fill="none" stroke="midnightblue" d="M815.3,-611.09C793.26,-624.65 758.71,-643.94 726,-654 645.71,-678.7 548.75,-687.01 486.15,-689.75"/>
<polygon fill="midnightblue" stroke="midnightblue" points="817.33,-613.95 823.94,-605.67 813.61,-608.02 817.33,-613.95"/>
</g>
<!-- Node20 -->
<g id="node20" class="node">
<title>Node20</title>
<g id="a_node20"><a xlink:href="mco__utils_8cpp.html#abcd741ece666318a44dddecfe1d5db1f" target="_top" xlink:title=" ">
<polygon fill="white" stroke="black" points="167,-714 167,-744 289,-744 289,-714 167,-714"/>
<text text-anchor="start" x="175" y="-732" font-family="Helvetica,sans-Serif" font-size="10.00">update_qm_available</text>
<text text-anchor="middle" x="228" y="-721" font-family="Helvetica,sans-Serif" font-size="10.00">_resource</text>
</a>
</g>
</g>
<!-- Node1&#45;&gt;Node20 -->
<g id="edge21" class="edge">
<title>Node1&#45;&gt;Node20</title>
<path fill="none" stroke="midnightblue" d="M822.45,-612.78C802.06,-632.98 764.83,-666.26 726,-683 579.19,-746.3 385.84,-742.25 289.29,-735.05"/>
<polygon fill="midnightblue" stroke="midnightblue" points="825.1,-615.07 829.64,-605.5 820.12,-610.15 825.1,-615.07"/>
</g>
<!-- Node21 -->
<g id="node21" class="node">
<title>Node21</title>
<g id="a_node21"><a xlink:href="classConfigHandler.html#a3e5044accd38f03af3f0f8d77469e1bf" target="_top" xlink:title="Save the initial JSON file content to the database.">
<polygon fill="white" stroke="black" points="552,-250.5 552,-269.5 726,-269.5 726,-250.5 552,-250.5"/>
<text text-anchor="middle" x="639" y="-257.5" font-family="Helvetica,sans-Serif" font-size="10.00">ConfigHandler::UpdateDatabase</text>
</a>
</g>
</g>
<!-- Node1&#45;&gt;Node21 -->
<g id="edge22" class="edge">
<title>Node1&#45;&gt;Node21</title>
<path fill="none" stroke="midnightblue" d="M837.7,-576.25C834.35,-520.57 816.86,-361.09 726,-280 721.2,-275.71 715.65,-272.29 709.75,-269.57"/>
<polygon fill="midnightblue" stroke="midnightblue" points="834.22,-576.68 838.23,-586.49 841.21,-576.33 834.22,-576.68"/>
</g>
<!-- Node22 -->
<g id="node22" class="node">
<title>Node22</title>
<g id="a_node22"><a xlink:href="mco__utils_8cpp.html#acc33ddf1bae7f792f13e983fef4f6b0d" target="_top" xlink:title=" ">
<polygon fill="white" stroke="black" points="556.5,-106.5 556.5,-125.5 721.5,-125.5 721.5,-106.5 556.5,-106.5"/>
<text text-anchor="middle" x="639" y="-113.5" font-family="Helvetica,sans-Serif" font-size="10.00">updateInitialSystemResources</text>
</a>
</g>
</g>
<!-- Node1&#45;&gt;Node22 -->
<g id="edge23" class="edge">
<title>Node1&#45;&gt;Node22</title>
<path fill="none" stroke="midnightblue" d="M834.45,-576.48C822.64,-521.62 785.25,-362.17 726,-241 703.32,-194.62 664.96,-145.99 648.22,-125.74"/>
<polygon fill="midnightblue" stroke="midnightblue" points="831.04,-577.22 836.53,-586.28 837.88,-575.77 831.04,-577.22"/>
</g>
<!-- Node25 -->
<g id="node25" class="node">
<title>Node25</title>
<g id="a_node25"><a xlink:href="mco__utils_8cpp.html#acc5a1cd363226b0e01e5b4a8b498ce04" target="_top" xlink:title=" ">
<polygon fill="white" stroke="black" points="588.5,-605.5 588.5,-624.5 689.5,-624.5 689.5,-605.5 588.5,-605.5"/>
<text text-anchor="middle" x="639" y="-612.5" font-family="Helvetica,sans-Serif" font-size="10.00">updateResources</text>
</a>
</g>
</g>
<!-- Node1&#45;&gt;Node25 -->
<g id="edge26" class="edge">
<title>Node1&#45;&gt;Node25</title>
<path fill="none" stroke="midnightblue" d="M751.73,-604.31C730.48,-606.34 708.45,-608.45 689.62,-610.25"/>
<polygon fill="midnightblue" stroke="midnightblue" points="752.13,-607.78 761.75,-603.35 751.47,-600.81 752.13,-607.78"/>
</g>
<!-- Node5 -->
<g id="node5" class="node">
<title>Node5</title>
<g id="a_node5"><a xlink:href="classK3sStarvePodCommand.html#ad242d88f0dadbefeb58499c4e62e15fb" target="_top" xlink:title=" ">
<polygon fill="white" stroke="black" points="353.5,-137 353.5,-167 487.5,-167 487.5,-137 353.5,-137"/>
<text text-anchor="start" x="361.5" y="-155" font-family="Helvetica,sans-Serif" font-size="10.00">K3sStarvePodCommand</text>
<text text-anchor="middle" x="420.5" y="-144" font-family="Helvetica,sans-Serif" font-size="10.00">::Execute</text>
</a>
</g>
</g>
<!-- Node4&#45;&gt;Node5 -->
<g id="edge4" class="edge">
<title>Node4&#45;&gt;Node5</title>
<path fill="none" stroke="midnightblue" d="M556.12,-332.64C554.69,-331.5 553.31,-330.29 552,-329 502.54,-280.28 564.45,-226.73 516,-177 508.3,-169.1 498.42,-163.6 487.96,-159.79"/>
<polygon fill="midnightblue" stroke="midnightblue" points="554.62,-335.84 564.91,-338.36 558.44,-329.97 554.62,-335.84"/>
</g>
<!-- Node6 -->
<g id="node6" class="node">
<title>Node6</title>
<g id="a_node6"><a xlink:href="classK3sGetPodNameCommand.html#addffe8af003cac9429a153a707fd4f4b" target="_top" xlink:title=" ">
<polygon fill="white" stroke="black" points="346,-88 346,-118 495,-118 495,-88 346,-88"/>
<text text-anchor="start" x="354" y="-106" font-family="Helvetica,sans-Serif" font-size="10.00">K3sGetPodNameCommand</text>
<text text-anchor="middle" x="420.5" y="-95" font-family="Helvetica,sans-Serif" font-size="10.00">::Execute</text>
</a>
</g>
</g>
<!-- Node4&#45;&gt;Node6 -->
<g id="edge5" class="edge">
<title>Node4&#45;&gt;Node6</title>
<path fill="none" stroke="midnightblue" d="M555.9,-332.64C554.54,-331.5 553.24,-330.29 552,-329 489.13,-263.55 577.51,-194.73 516,-128 510.25,-121.76 503.14,-117.01 495.42,-113.39"/>
<polygon fill="midnightblue" stroke="midnightblue" points="554.05,-335.61 564.27,-338.37 558,-329.83 554.05,-335.61"/>
</g>
<!-- Node7 -->
<g id="node7" class="node">
<title>Node7</title>
<g id="a_node7"><a xlink:href="classBluechiGetUnitNameCommand.html#a673eb8369bef6a89f5c5249826d38b85" target="_top" xlink:title=" ">
<polygon fill="white" stroke="black" points="335.5,-480 335.5,-510 505.5,-510 505.5,-480 335.5,-480"/>
<text text-anchor="start" x="343.5" y="-498" font-family="Helvetica,sans-Serif" font-size="10.00">BluechiGetUnitNameCommand</text>
<text text-anchor="middle" x="420.5" y="-487" font-family="Helvetica,sans-Serif" font-size="10.00">::Execute</text>
</a>
</g>
</g>
<!-- Node4&#45;&gt;Node7 -->
<g id="edge6" class="edge">
<title>Node4&#45;&gt;Node7</title>
<path fill="none" stroke="midnightblue" d="M625.35,-365.91C605.32,-392.92 563.63,-443.79 516,-471 509.97,-474.44 503.45,-477.4 496.75,-479.93"/>
<polygon fill="midnightblue" stroke="midnightblue" points="628.25,-367.89 631.29,-357.74 622.58,-363.77 628.25,-367.89"/>
</g>
<!-- Node8 -->
<g id="node8" class="node">
<title>Node8</title>
<g id="a_node8"><a xlink:href="classPodmanGetPodNameCommand.html#a616249e0ccfa973a7bf29881f686de15" target="_top" xlink:title=" ">
<polygon fill="white" stroke="black" points="335,-431 335,-461 506,-461 506,-431 335,-431"/>
<text text-anchor="start" x="343" y="-449" font-family="Helvetica,sans-Serif" font-size="10.00">PodmanGetPodNameCommand</text>
<text text-anchor="middle" x="420.5" y="-438" font-family="Helvetica,sans-Serif" font-size="10.00">::Execute</text>
</a>
</g>
</g>
<!-- Node4&#45;&gt;Node8 -->
<g id="edge7" class="edge">
<title>Node4&#45;&gt;Node8</title>
<path fill="none" stroke="midnightblue" d="M616.97,-363.43C593.45,-380.05 553.68,-406.2 516,-422 507.96,-425.37 499.33,-428.36 490.67,-430.98"/>
<polygon fill="midnightblue" stroke="midnightblue" points="619.06,-366.24 625.15,-357.58 614.99,-360.55 619.06,-366.24"/>
</g>
<!-- Node9 -->
<g id="node9" class="node">
<title>Node9</title>
<g id="a_node9"><a xlink:href="classPodmanDeletePodCommand.html#a4805ee3aaf4803181b34a59dc30f0b33" target="_top" xlink:title=" ">
<polygon fill="white" stroke="black" points="342,-382 342,-412 499,-412 499,-382 342,-382"/>
<text text-anchor="start" x="350" y="-400" font-family="Helvetica,sans-Serif" font-size="10.00">PodmanDeletePodCommand</text>
<text text-anchor="middle" x="420.5" y="-389" font-family="Helvetica,sans-Serif" font-size="10.00">::Execute</text>
</a>
</g>
</g>
<!-- Node4&#45;&gt;Node9 -->
<g id="edge8" class="edge">
<title>Node4&#45;&gt;Node9</title>
<path fill="none" stroke="midnightblue" d="M585.95,-359.78C556.58,-366.43 519.56,-374.81 488.09,-381.93"/>
<polygon fill="midnightblue" stroke="midnightblue" points="587.02,-363.13 596,-357.51 585.47,-356.3 587.02,-363.13"/>
</g>
<!-- Node10 -->
<g id="node10" class="node">
<title>Node10</title>
<g id="a_node10"><a xlink:href="classK3sDeletePodCommand.html#a659041e91526e69e7e57ce4b998a8797" target="_top" xlink:title=" ">
<polygon fill="white" stroke="black" points="353,-333 353,-363 488,-363 488,-333 353,-333"/>
<text text-anchor="start" x="361" y="-351" font-family="Helvetica,sans-Serif" font-size="10.00">K3sDeletePodCommand</text>
<text text-anchor="middle" x="420.5" y="-340" font-family="Helvetica,sans-Serif" font-size="10.00">::Execute</text>
</a>
</g>
</g>
<!-- Node4&#45;&gt;Node10 -->
<g id="edge9" class="edge">
<title>Node4&#45;&gt;Node10</title>
<path fill="none" stroke="midnightblue" d="M544.2,-348C525.36,-348 505.91,-348 488.21,-348"/>
<polygon fill="midnightblue" stroke="midnightblue" points="544.3,-351.5 554.3,-348 544.3,-344.5 544.3,-351.5"/>
</g>
<!-- Node11 -->
<g id="node11" class="node">
<title>Node11</title>
<g id="a_node11"><a xlink:href="classPodmanCheckPodStatusCommand.html#a9069a536ac762e2fbd0510b6a2c99a5d" target="_top" xlink:title=" ">
<polygon fill="white" stroke="black" points="328,-284 328,-314 513,-314 513,-284 328,-284"/>
<text text-anchor="start" x="336" y="-302" font-family="Helvetica,sans-Serif" font-size="10.00">PodmanCheckPodStatusCommand</text>
<text text-anchor="middle" x="420.5" y="-291" font-family="Helvetica,sans-Serif" font-size="10.00">::Execute</text>
</a>
</g>
</g>
<!-- Node4&#45;&gt;Node11 -->
<g id="edge10" class="edge">
<title>Node4&#45;&gt;Node11</title>
<path fill="none" stroke="midnightblue" d="M584.18,-336.18C573.51,-333.82 562.4,-331.34 552,-329 530.68,-324.19 507.43,-318.87 486.53,-314.06"/>
<polygon fill="midnightblue" stroke="midnightblue" points="583.71,-339.66 594.23,-338.41 585.22,-332.83 583.71,-339.66"/>
</g>
<!-- Node12 -->
<g id="node12" class="node">
<title>Node12</title>
<g id="a_node12"><a xlink:href="classK3sCheckPodStatusCommand.html#a9ea00927450266789aac23d175222cc5" target="_top" xlink:title=" ">
<polygon fill="white" stroke="black" points="338.5,-235 338.5,-265 502.5,-265 502.5,-235 338.5,-235"/>
<text text-anchor="start" x="346.5" y="-253" font-family="Helvetica,sans-Serif" font-size="10.00">K3sCheckPodStatusCommand</text>
<text text-anchor="middle" x="420.5" y="-242" font-family="Helvetica,sans-Serif" font-size="10.00">::Execute</text>
</a>
</g>
</g>
<!-- Node4&#45;&gt;Node12 -->
<g id="edge11" class="edge">
<title>Node4&#45;&gt;Node12</title>
<path fill="none" stroke="midnightblue" d="M561.26,-334.41C558.03,-332.8 554.93,-331 552,-329 528.2,-312.71 539.46,-291.78 516,-275 510.62,-271.15 504.68,-267.89 498.48,-265.14"/>
<polygon fill="midnightblue" stroke="midnightblue" points="560.04,-337.7 570.61,-338.47 562.83,-331.28 560.04,-337.7"/>
</g>
<!-- Node13 -->
<g id="node13" class="node">
<title>Node13</title>
<g id="a_node13"><a xlink:href="classBluechiCheckUnitStatusCommand.html#a694d815f6355ea57d8afb742804b0e71" target="_top" xlink:title=" ">
<polygon fill="white" stroke="black" points="328.5,-186 328.5,-216 512.5,-216 512.5,-186 328.5,-186"/>
<text text-anchor="start" x="336.5" y="-204" font-family="Helvetica,sans-Serif" font-size="10.00">BluechiCheckUnitStatusCommand</text>
<text text-anchor="middle" x="420.5" y="-193" font-family="Helvetica,sans-Serif" font-size="10.00">::Execute</text>
</a>
</g>
</g>
<!-- Node4&#45;&gt;Node13 -->
<g id="edge12" class="edge">
<title>Node4&#45;&gt;Node13</title>
<path fill="none" stroke="midnightblue" d="M557.42,-333.24C555.53,-331.94 553.72,-330.53 552,-329 515.73,-296.81 551.59,-258.93 516,-226 511.89,-222.2 507.27,-218.96 502.34,-216.2"/>
<polygon fill="midnightblue" stroke="midnightblue" points="555.75,-336.32 566.16,-338.32 559.27,-330.27 555.75,-336.32"/>
</g>
<!-- Node17 -->
<g id="node17" class="node">
<title>Node17</title>
<g id="a_node17"><a xlink:href="classServerHandler.html#af3ecda4d745ef95296198e41ac3cf6e1" target="_top" xlink:title="start LFO server">
<polygon fill="white" stroke="black" points="325,-39 325,-69 516,-69 516,-39 325,-39"/>
<text text-anchor="start" x="333" y="-57" font-family="Helvetica,sans-Serif" font-size="10.00">ServerHandler::StartMcOrchestrator</text>
<text text-anchor="middle" x="420.5" y="-46" font-family="Helvetica,sans-Serif" font-size="10.00">Server</text>
</a>
</g>
</g>
<!-- Node16&#45;&gt;Node17 -->
<g id="edge16" class="edge">
<title>Node16&#45;&gt;Node17</title>
<path fill="none" stroke="midnightblue" d="M555.73,-282.73C554.42,-281.55 553.18,-280.31 552,-279 491.57,-211.88 577.24,-145.38 516,-79 512.43,-75.13 508.34,-71.84 503.91,-69.03"/>
<polygon fill="midnightblue" stroke="midnightblue" points="553.65,-285.56 563.73,-288.82 557.89,-279.98 553.65,-285.56"/>
</g>
<!-- Node19&#45;&gt;Node20 -->
<g id="edge19" class="edge">
<title>Node19&#45;&gt;Node20</title>
<path fill="none" stroke="midnightblue" d="M344.89,-705.88C326.39,-709.57 306.8,-713.48 289.09,-717.01"/>
<polygon fill="midnightblue" stroke="midnightblue" points="345.62,-709.31 354.74,-703.92 344.25,-702.44 345.62,-709.31"/>
</g>
<!-- Node20&#45;&gt;Node3 -->
<g id="edge20" class="edge">
<title>Node20&#45;&gt;Node3</title>
<path fill="none" stroke="midnightblue" d="M156.83,-738.62C148.27,-739.79 139.56,-740.99 131.09,-742.15"/>
<polygon fill="midnightblue" stroke="midnightblue" points="157.35,-742.08 166.78,-737.25 156.4,-735.15 157.35,-742.08"/>
</g>
<!-- Node23 -->
<g id="node23" class="node">
<title>Node23</title>
<g id="a_node23"><a xlink:href="classConfigHandler.html#a46bddb2de51517c28d4f6860e1844fe3" target="_top" xlink:title="get the value from containerManagement.conf file based on key">
<polygon fill="white" stroke="black" points="352,-0.5 352,-19.5 489,-19.5 489,-0.5 352,-0.5"/>
<text text-anchor="middle" x="420.5" y="-7.5" font-family="Helvetica,sans-Serif" font-size="10.00">ConfigHandler::GetValue</text>
</a>
</g>
</g>
<!-- Node22&#45;&gt;Node23 -->
<g id="edge24" class="edge">
<title>Node22&#45;&gt;Node23</title>
<path fill="none" stroke="midnightblue" d="M620.14,-99.49C597.6,-79.62 556.85,-46.7 516,-29 507.02,-25.11 497.21,-22 487.41,-19.53"/>
<polygon fill="midnightblue" stroke="midnightblue" points="618.06,-102.34 627.84,-106.41 622.74,-97.13 618.06,-102.34"/>
</g>
<!-- Node24 -->
<g id="node24" class="node">
<title>Node24</title>
<g id="a_node24"><a xlink:href="main_8cpp.html#a0ddf1224851353fc92bfbff6f499fa97" target="_top" xlink:title=" ">
<polygon fill="white" stroke="black" points="207.5,-0.5 207.5,-19.5 248.5,-19.5 248.5,-0.5 207.5,-0.5"/>
<text text-anchor="middle" x="228" y="-7.5" font-family="Helvetica,sans-Serif" font-size="10.00">main</text>
</a>
</g>
</g>
<!-- Node23&#45;&gt;Node24 -->
<g id="edge25" class="edge">
<title>Node23&#45;&gt;Node24</title>
<path fill="none" stroke="midnightblue" d="M341.38,-10C307.42,-10 270.45,-10 248.53,-10"/>
<polygon fill="midnightblue" stroke="midnightblue" points="341.8,-13.5 351.8,-10 341.8,-6.5 341.8,-13.5"/>
</g>
<!-- Node25&#45;&gt;Node14 -->
<g id="edge27" class="edge">
<title>Node25&#45;&gt;Node14</title>
<path fill="none" stroke="midnightblue" d="M578.08,-622.47C549.51,-626.04 515.29,-630.3 486.14,-633.94"/>
<polygon fill="midnightblue" stroke="midnightblue" points="578.84,-625.91 588.33,-621.19 577.97,-618.96 578.84,-625.91"/>
</g>
<!-- Node25&#45;&gt;Node15 -->
<g id="edge28" class="edge">
<title>Node25&#45;&gt;Node15</title>
<path fill="none" stroke="midnightblue" d="M578.08,-608.91C549.51,-606.01 515.29,-602.53 486.14,-599.57"/>
<polygon fill="midnightblue" stroke="midnightblue" points="578.03,-612.42 588.33,-609.95 578.74,-605.46 578.03,-612.42"/>
</g>
<!-- Node25&#45;&gt;Node18 -->
<g id="edge29" class="edge">
<title>Node25&#45;&gt;Node18</title>
<path fill="none" stroke="midnightblue" d="M605.38,-601.66C580.99,-591.95 546.7,-578.82 516,-569 505.09,-565.51 493.36,-562.12 482.01,-559.03"/>
<polygon fill="midnightblue" stroke="midnightblue" points="604.28,-604.99 614.86,-605.47 606.88,-598.5 604.28,-604.99"/>
</g>
<!-- Node25&#45;&gt;Node19 -->
<g id="edge30" class="edge">
<title>Node25&#45;&gt;Node19</title>
<path fill="none" stroke="midnightblue" d="M609.01,-628.86C584.59,-640.16 548.54,-656 516,-667 506.46,-670.22 496.25,-673.25 486.19,-675.98"/>
<polygon fill="midnightblue" stroke="midnightblue" points="610.5,-632.02 618.08,-624.62 607.54,-625.68 610.5,-632.02"/>
</g>
</g>
</svg>
