<?xml version="1.0" encoding="UTF-8" standalone="no"?>
<!DOCTYPE svg PUBLIC "-//W3C//DTD SVG 1.1//EN"
 "http://www.w3.org/Graphics/SVG/1.1/DTD/svg11.dtd">
<!-- Generated by graphviz version 2.43.0 (0)
 -->
<!-- Title: httplib::detail::stream_line_reader::append Pages: 1 -->
<!--zoomable 329 -->
<svg id="main" version="1.1" xmlns="http://www.w3.org/2000/svg" xmlns:xlink="http://www.w3.org/1999/xlink" xml:space="preserve" onload="init(evt)">
<style type="text/css"><![CDATA[
.edge:hover path { stroke: red; }
.edge:hover polygon { stroke: red; fill: red; }
]]></style>
<script type="text/javascript"><![CDATA[
var edges = document.getElementsByTagName('g');
if (edges && edges.length) {
  for (var i=0;i<edges.length;i++) {
    if (edges[i].id.substr(0,4)=='edge') {
      edges[i].setAttribute('class','edge');
    }
  }
}
]]></script>
        <defs>
                <circle id="rim" cx="0" cy="0" r="7"/>
                <circle id="rim2" cx="0" cy="0" r="3.5"/>
                <g id="zoomPlus">
                        <use xlink:href="#rim" fill="#404040">
                                <set attributeName="fill" to="#808080" begin="zoomplus.mouseover" end="zoomplus.mouseout"/>
                        </use>
                        <path d="M-4,0h8M0,-4v8" fill="none" stroke="white" stroke-width="1.5" pointer-events="none"/>
                </g>
                <g id="zoomMin">
                        <use xlink:href="#rim" fill="#404040">
                                <set attributeName="fill" to="#808080" begin="zoomminus.mouseover" end="zoomminus.mouseout"/>
                        </use>
                        <path d="M-4,0h8" fill="none" stroke="white" stroke-width="1.5" pointer-events="none"/>
                </g>
                <g id="dirArrow">
                        <path fill="none" stroke="white" stroke-width="1.5" d="M0,-3.0v7 M-2.5,-0.5L0,-3.0L2.5,-0.5"/>
                </g>
               <g id="resetDef">
                       <use xlink:href="#rim2" fill="#404040">
                               <set attributeName="fill" to="#808080" begin="reset.mouseover" end="reset.mouseout"/>
                       </use>
               </g>
        </defs>

<script type="text/javascript">
var viewWidth = 1387;
var viewHeight = 329;
var sectionId = 'dynsection-2';
</script>
<script xlink:href="svgpan.js"/>
<svg id="graph" class="graph">
<g id="viewport">
<title>httplib::detail::stream_line_reader::append</title>
<polygon fill="white" stroke="transparent" points="-4,4 -4,-324.5 1383,-324.5 1383,4 -4,4"/>
<!-- Node1 -->
<g id="node1" class="node">
<title>Node1</title>
<g id="a_node1"><a xlink:title=" ">
<polygon fill="#bfbfbf" stroke="black" points="1257,-202 1257,-232 1379,-232 1379,-202 1257,-202"/>
<text text-anchor="start" x="1265" y="-220" font-family="Helvetica,sans-Serif" font-size="10.00">httplib::detail::stream</text>
<text text-anchor="middle" x="1318" y="-209" font-family="Helvetica,sans-Serif" font-size="10.00">_line_reader::append</text>
</a>
</g>
</g>
<!-- Node2 -->
<g id="node2" class="node">
<title>Node2</title>
<g id="a_node2"><a xlink:href="classhttplib_1_1detail_1_1stream__line__reader.html#a39b395742e14cc015a448f6ea4143d44" target="_top" xlink:title=" ">
<polygon fill="white" stroke="black" points="1099,-202 1099,-232 1221,-232 1221,-202 1099,-202"/>
<text text-anchor="start" x="1107" y="-220" font-family="Helvetica,sans-Serif" font-size="10.00">httplib::detail::stream</text>
<text text-anchor="middle" x="1160" y="-209" font-family="Helvetica,sans-Serif" font-size="10.00">_line_reader::getline</text>
</a>
</g>
</g>
<!-- Node1&#45;&gt;Node2 -->
<g id="edge1" class="edge">
<title>Node1&#45;&gt;Node2</title>
<path fill="none" stroke="midnightblue" d="M1246.46,-217C1238.01,-217 1229.44,-217 1221.15,-217"/>
<polygon fill="midnightblue" stroke="midnightblue" points="1246.69,-220.5 1256.69,-217 1246.69,-213.5 1246.69,-220.5"/>
</g>
<!-- Node3 -->
<g id="node3" class="node">
<title>Node3</title>
<g id="a_node3"><a xlink:href="classhttplib_1_1Server.html#a4e7c7c79cced3d61082df30b3eb97ed2" target="_top" xlink:title=" ">
<polygon fill="white" stroke="black" points="781,-236 781,-266 910,-266 910,-236 781,-236"/>
<text text-anchor="start" x="789" y="-254" font-family="Helvetica,sans-Serif" font-size="10.00">httplib::Server::process</text>
<text text-anchor="middle" x="845.5" y="-243" font-family="Helvetica,sans-Serif" font-size="10.00">_request</text>
</a>
</g>
</g>
<!-- Node2&#45;&gt;Node3 -->
<g id="edge2" class="edge">
<title>Node2&#45;&gt;Node3</title>
<path fill="none" stroke="midnightblue" d="M1128.41,-237.78C1110.26,-248.83 1086.32,-261.29 1063,-267 1012.66,-279.32 953.94,-273.79 910.36,-266.03"/>
<polygon fill="midnightblue" stroke="midnightblue" points="1130.73,-240.45 1137.34,-232.17 1127.01,-234.53 1130.73,-240.45"/>
</g>
<!-- Node5 -->
<g id="node5" class="node">
<title>Node5</title>
<g id="a_node5"><a xlink:href="namespacehttplib_1_1detail.html#ae5193f6482cd847465c5b9d0be29fadd" target="_top" xlink:title=" ">
<polygon fill="white" stroke="black" points="949.5,-227 949.5,-257 1059.5,-257 1059.5,-227 949.5,-227"/>
<text text-anchor="start" x="957.5" y="-245" font-family="Helvetica,sans-Serif" font-size="10.00">httplib::detail::read</text>
<text text-anchor="middle" x="1004.5" y="-234" font-family="Helvetica,sans-Serif" font-size="10.00">_content_chunked</text>
</a>
</g>
</g>
<!-- Node2&#45;&gt;Node5 -->
<g id="edge4" class="edge">
<title>Node2&#45;&gt;Node5</title>
<path fill="none" stroke="midnightblue" d="M1088.66,-228.46C1078.89,-230.05 1068.98,-231.66 1059.56,-233.2"/>
<polygon fill="midnightblue" stroke="midnightblue" points="1089.47,-231.87 1098.77,-226.81 1088.34,-224.96 1089.47,-231.87"/>
</g>
<!-- Node6 -->
<g id="node6" class="node">
<title>Node6</title>
<g id="a_node6"><a xlink:href="namespacehttplib_1_1detail.html#aeb8db950848e27227eb130f609b293cf" target="_top" xlink:title=" ">
<polygon fill="white" stroke="black" points="949.5,-178 949.5,-208 1059.5,-208 1059.5,-178 949.5,-178"/>
<text text-anchor="start" x="957.5" y="-196" font-family="Helvetica,sans-Serif" font-size="10.00">httplib::detail::read</text>
<text text-anchor="middle" x="1004.5" y="-185" font-family="Helvetica,sans-Serif" font-size="10.00">_headers</text>
</a>
</g>
</g>
<!-- Node2&#45;&gt;Node6 -->
<g id="edge5" class="edge">
<title>Node2&#45;&gt;Node6</title>
<path fill="none" stroke="midnightblue" d="M1088.66,-206C1078.89,-204.47 1068.98,-202.92 1059.56,-201.45"/>
<polygon fill="midnightblue" stroke="midnightblue" points="1088.35,-209.5 1098.77,-207.58 1089.43,-202.58 1088.35,-209.5"/>
</g>
<!-- Node21 -->
<g id="node21" class="node">
<title>Node21</title>
<g id="a_node21"><a xlink:href="classhttplib_1_1ClientImpl.html#a2d64f046067e118ef13afd593bbe1a07" target="_top" xlink:title=" ">
<polygon fill="white" stroke="black" points="946,-129 946,-159 1063,-159 1063,-129 946,-129"/>
<text text-anchor="start" x="954" y="-147" font-family="Helvetica,sans-Serif" font-size="10.00">httplib::ClientImpl</text>
<text text-anchor="middle" x="1004.5" y="-136" font-family="Helvetica,sans-Serif" font-size="10.00">::read_response_line</text>
</a>
</g>
</g>
<!-- Node2&#45;&gt;Node21 -->
<g id="edge22" class="edge">
<title>Node2&#45;&gt;Node21</title>
<path fill="none" stroke="midnightblue" d="M1121.86,-197.2C1104.18,-188 1082.66,-177.11 1063,-168 1056.52,-165 1049.56,-161.95 1042.8,-159.08"/>
<polygon fill="midnightblue" stroke="midnightblue" points="1120.23,-200.3 1130.72,-201.84 1123.48,-194.1 1120.23,-200.3"/>
</g>
<!-- Node4 -->
<g id="node4" class="node">
<title>Node4</title>
<g id="a_node4"><a xlink:href="classhttplib_1_1Server.html#a28221db99b5a35e45515553fdb9458a0" target="_top" xlink:title=" ">
<polygon fill="white" stroke="black" points="616,-236 616,-266 745,-266 745,-236 616,-236"/>
<text text-anchor="start" x="624" y="-254" font-family="Helvetica,sans-Serif" font-size="10.00">httplib::Server::process</text>
<text text-anchor="middle" x="680.5" y="-243" font-family="Helvetica,sans-Serif" font-size="10.00">_and_close_socket</text>
</a>
</g>
</g>
<!-- Node3&#45;&gt;Node4 -->
<g id="edge3" class="edge">
<title>Node3&#45;&gt;Node4</title>
<path fill="none" stroke="midnightblue" d="M770.31,-251C761.86,-251 753.3,-251 745,-251"/>
<polygon fill="midnightblue" stroke="midnightblue" points="770.55,-254.5 780.55,-251 770.55,-247.5 770.55,-254.5"/>
</g>
<!-- Node6&#45;&gt;Node3 -->
<g id="edge6" class="edge">
<title>Node6&#45;&gt;Node3</title>
<path fill="none" stroke="midnightblue" d="M953.11,-211.61C931.79,-219.49 907.28,-228.55 887.14,-235.99"/>
<polygon fill="midnightblue" stroke="midnightblue" points="954.49,-214.84 962.66,-208.09 952.07,-208.27 954.49,-214.84"/>
</g>
<!-- Node7 -->
<g id="node7" class="node">
<title>Node7</title>
<g id="a_node7"><a xlink:href="classhttplib_1_1ClientImpl.html#aaf87765187adb847b44c102643704f3a" target="_top" xlink:title=" ">
<polygon fill="white" stroke="black" points="793.5,-153 793.5,-183 897.5,-183 897.5,-153 793.5,-153"/>
<text text-anchor="start" x="801.5" y="-171" font-family="Helvetica,sans-Serif" font-size="10.00">httplib::ClientImpl</text>
<text text-anchor="middle" x="845.5" y="-160" font-family="Helvetica,sans-Serif" font-size="10.00">::process_request</text>
</a>
</g>
</g>
<!-- Node6&#45;&gt;Node7 -->
<g id="edge7" class="edge">
<title>Node6&#45;&gt;Node7</title>
<path fill="none" stroke="midnightblue" d="M939.48,-182.81C925.58,-180.59 911.05,-178.28 897.72,-176.16"/>
<polygon fill="midnightblue" stroke="midnightblue" points="939.04,-186.28 949.47,-184.4 940.14,-179.37 939.04,-186.28"/>
</g>
<!-- Node8 -->
<g id="node8" class="node">
<title>Node8</title>
<g id="a_node8"><a xlink:href="classhttplib_1_1ClientImpl.html#ac4e30af906067369892520eccd85c038" target="_top" xlink:title=" ">
<polygon fill="white" stroke="black" points="628.5,-153 628.5,-183 732.5,-183 732.5,-153 628.5,-153"/>
<text text-anchor="start" x="636.5" y="-171" font-family="Helvetica,sans-Serif" font-size="10.00">httplib::ClientImpl</text>
<text text-anchor="middle" x="680.5" y="-160" font-family="Helvetica,sans-Serif" font-size="10.00">::handle_request</text>
</a>
</g>
</g>
<!-- Node7&#45;&gt;Node8 -->
<g id="edge8" class="edge">
<title>Node7&#45;&gt;Node8</title>
<path fill="none" stroke="midnightblue" d="M783.2,-168C766.57,-168 748.74,-168 732.73,-168"/>
<polygon fill="midnightblue" stroke="midnightblue" points="783.37,-171.5 793.37,-168 783.37,-164.5 783.37,-171.5"/>
</g>
<!-- Node9 -->
<g id="node9" class="node">
<title>Node9</title>
<g id="a_node9"><a xlink:href="classhttplib_1_1ClientImpl.html#ab783868da89488b0bf734e8d83b5e569" target="_top" xlink:title=" ">
<polygon fill="white" stroke="black" points="476,-177 476,-207 580,-207 580,-177 476,-177"/>
<text text-anchor="start" x="484" y="-195" font-family="Helvetica,sans-Serif" font-size="10.00">httplib::ClientImpl</text>
<text text-anchor="middle" x="528" y="-184" font-family="Helvetica,sans-Serif" font-size="10.00">::send_</text>
</a>
</g>
</g>
<!-- Node8&#45;&gt;Node9 -->
<g id="edge9" class="edge">
<title>Node8&#45;&gt;Node9</title>
<path fill="none" stroke="midnightblue" d="M618.15,-177.78C605.52,-179.8 592.36,-181.9 580.14,-183.84"/>
<polygon fill="midnightblue" stroke="midnightblue" points="618.8,-181.22 628.13,-176.19 617.7,-174.31 618.8,-181.22"/>
</g>
<!-- Node10 -->
<g id="node10" class="node">
<title>Node10</title>
<g id="a_node10"><a xlink:href="classhttplib_1_1ClientImpl.html#a5973f9c3afa13416417fd7a317eb811b" target="_top" xlink:title=" ">
<polygon fill="white" stroke="black" points="324,-290 324,-320 428,-320 428,-290 324,-290"/>
<text text-anchor="start" x="332" y="-308" font-family="Helvetica,sans-Serif" font-size="10.00">httplib::ClientImpl</text>
<text text-anchor="middle" x="376" y="-297" font-family="Helvetica,sans-Serif" font-size="10.00">::Delete</text>
</a>
</g>
</g>
<!-- Node9&#45;&gt;Node10 -->
<g id="edge10" class="edge">
<title>Node9&#45;&gt;Node10</title>
<path fill="none" stroke="midnightblue" d="M508.87,-215.09C492.59,-234.57 467.12,-262.06 440,-280 434.41,-283.7 428.18,-286.99 421.88,-289.87"/>
<polygon fill="midnightblue" stroke="midnightblue" points="511.64,-217.24 515.27,-207.29 506.22,-212.8 511.64,-217.24"/>
</g>
<!-- Node11 -->
<g id="node11" class="node">
<title>Node11</title>
<g id="a_node11"><a xlink:href="classhttplib_1_1ClientImpl.html#ad073f1945ddc13fc4778449739430889" target="_top" xlink:title=" ">
<polygon fill="white" stroke="black" points="312,-251.5 312,-270.5 440,-270.5 440,-251.5 312,-251.5"/>
<text text-anchor="middle" x="376" y="-258.5" font-family="Helvetica,sans-Serif" font-size="10.00">httplib::ClientImpl::Get</text>
</a>
</g>
</g>
<!-- Node9&#45;&gt;Node11 -->
<g id="edge11" class="edge">
<title>Node9&#45;&gt;Node11</title>
<path fill="none" stroke="midnightblue" d="M495.6,-212.38C479.45,-222.25 459.17,-233.73 440,-242 431.71,-245.57 422.54,-248.75 413.82,-251.44"/>
<polygon fill="midnightblue" stroke="midnightblue" points="497.47,-215.34 504.12,-207.09 493.78,-209.39 497.47,-215.34"/>
</g>
<!-- Node12 -->
<g id="node12" class="node">
<title>Node12</title>
<g id="a_node12"><a xlink:href="classhttplib_1_1ClientImpl.html#adf64c589c0334ccd516905484140e0d1" target="_top" xlink:title=" ">
<polygon fill="white" stroke="black" points="324,-202 324,-232 428,-232 428,-202 324,-202"/>
<text text-anchor="start" x="332" y="-220" font-family="Helvetica,sans-Serif" font-size="10.00">httplib::ClientImpl</text>
<text text-anchor="middle" x="376" y="-209" font-family="Helvetica,sans-Serif" font-size="10.00">::Head</text>
</a>
</g>
</g>
<!-- Node9&#45;&gt;Node12 -->
<g id="edge12" class="edge">
<title>Node9&#45;&gt;Node12</title>
<path fill="none" stroke="midnightblue" d="M465.91,-202.18C453.39,-204.27 440.35,-206.44 428.23,-208.46"/>
<polygon fill="midnightblue" stroke="midnightblue" points="466.51,-205.63 475.8,-200.53 465.36,-198.73 466.51,-205.63"/>
</g>
<!-- Node13 -->
<g id="node13" class="node">
<title>Node13</title>
<g id="a_node13"><a xlink:href="classhttplib_1_1ClientImpl.html#a0de10ef5e77b7c6cc83674bd86bc2e8a" target="_top" xlink:title=" ">
<polygon fill="white" stroke="black" points="324,-153 324,-183 428,-183 428,-153 324,-153"/>
<text text-anchor="start" x="332" y="-171" font-family="Helvetica,sans-Serif" font-size="10.00">httplib::ClientImpl</text>
<text text-anchor="middle" x="376" y="-160" font-family="Helvetica,sans-Serif" font-size="10.00">::Options</text>
</a>
</g>
</g>
<!-- Node9&#45;&gt;Node13 -->
<g id="edge13" class="edge">
<title>Node9&#45;&gt;Node13</title>
<path fill="none" stroke="midnightblue" d="M465.91,-182.23C453.39,-180.22 440.35,-178.14 428.23,-176.2"/>
<polygon fill="midnightblue" stroke="midnightblue" points="465.37,-185.68 475.8,-183.81 466.48,-178.77 465.37,-185.68"/>
</g>
<!-- Node14 -->
<g id="node14" class="node">
<title>Node14</title>
<g id="a_node14"><a xlink:href="classhttplib_1_1ClientImpl.html#a618895e4b137663691fdc41fd998b843" target="_top" xlink:title=" ">
<polygon fill="white" stroke="black" points="324,-104 324,-134 428,-134 428,-104 324,-104"/>
<text text-anchor="start" x="332" y="-122" font-family="Helvetica,sans-Serif" font-size="10.00">httplib::ClientImpl</text>
<text text-anchor="middle" x="376" y="-111" font-family="Helvetica,sans-Serif" font-size="10.00">::send</text>
</a>
</g>
</g>
<!-- Node9&#45;&gt;Node14 -->
<g id="edge14" class="edge">
<title>Node9&#45;&gt;Node14</title>
<path fill="none" stroke="midnightblue" d="M493.47,-171.57C477.56,-162.28 458.11,-151.49 440,-143 433.32,-139.87 426.12,-136.83 419.05,-134.02"/>
<polygon fill="midnightblue" stroke="midnightblue" points="492,-174.77 502.39,-176.84 495.56,-168.74 492,-174.77"/>
</g>
<!-- Node14&#45;&gt;Node8 -->
<g id="edge15" class="edge">
<title>Node14&#45;&gt;Node8</title>
<path fill="none" stroke="midnightblue" d="M438.18,-128.91C494.03,-137.96 575.66,-151.18 628.18,-159.69"/>
<polygon fill="midnightblue" stroke="midnightblue" points="438.49,-125.42 428.06,-127.27 437.37,-132.33 438.49,-125.42"/>
</g>
<!-- Node15 -->
<g id="node15" class="node">
<title>Node15</title>
<g id="a_node15"><a xlink:href="classhttplib_1_1ClientImpl.html#ab81f0f3ff5031d8bb231928318cd95ff" target="_top" xlink:title=" ">
<polygon fill="white" stroke="black" points="167,-132 167,-162 271,-162 271,-132 167,-132"/>
<text text-anchor="start" x="175" y="-150" font-family="Helvetica,sans-Serif" font-size="10.00">httplib::ClientImpl</text>
<text text-anchor="middle" x="219" y="-139" font-family="Helvetica,sans-Serif" font-size="10.00">::send_</text>
</a>
</g>
</g>
<!-- Node14&#45;&gt;Node15 -->
<g id="edge16" class="edge">
<title>Node14&#45;&gt;Node15</title>
<path fill="none" stroke="midnightblue" d="M313.71,-130.07C299.6,-132.62 284.75,-135.3 271.13,-137.76"/>
<polygon fill="midnightblue" stroke="midnightblue" points="314.6,-133.47 323.82,-128.25 313.35,-126.58 314.6,-133.47"/>
</g>
<!-- Node16 -->
<g id="node16" class="node">
<title>Node16</title>
<g id="a_node16"><a xlink:href="classhttplib_1_1ClientImpl.html#ab3169b93b50fca58a21f2db0a2bdea88" target="_top" xlink:title=" ">
<polygon fill="white" stroke="black" points="162,-71.5 162,-112.5 276,-112.5 276,-71.5 162,-71.5"/>
<text text-anchor="start" x="170" y="-100.5" font-family="Helvetica,sans-Serif" font-size="10.00">httplib::ClientImpl</text>
<text text-anchor="start" x="170" y="-89.5" font-family="Helvetica,sans-Serif" font-size="10.00">::send_with_content</text>
<text text-anchor="middle" x="219" y="-78.5" font-family="Helvetica,sans-Serif" font-size="10.00">_provider</text>
</a>
</g>
</g>
<!-- Node14&#45;&gt;Node16 -->
<g id="edge17" class="edge">
<title>Node14&#45;&gt;Node16</title>
<path fill="none" stroke="midnightblue" d="M313.61,-108.31C301.27,-106.16 288.36,-103.91 276.21,-101.79"/>
<polygon fill="midnightblue" stroke="midnightblue" points="313.37,-111.82 323.82,-110.08 314.57,-104.92 313.37,-111.82"/>
</g>
<!-- Node17 -->
<g id="node17" class="node">
<title>Node17</title>
<g id="a_node17"><a xlink:href="classhttplib_1_1ClientImpl.html#ad454e536598fa610080587d8516b5c80" target="_top" xlink:title=" ">
<polygon fill="white" stroke="black" points="11,-148 11,-178 115,-178 115,-148 11,-148"/>
<text text-anchor="start" x="19" y="-166" font-family="Helvetica,sans-Serif" font-size="10.00">httplib::ClientImpl</text>
<text text-anchor="middle" x="63" y="-155" font-family="Helvetica,sans-Serif" font-size="10.00">::Patch</text>
</a>
</g>
</g>
<!-- Node16&#45;&gt;Node17 -->
<g id="edge18" class="edge">
<title>Node16&#45;&gt;Node17</title>
<path fill="none" stroke="midnightblue" d="M169.54,-117.14C155.6,-124.13 140.29,-131.56 126,-138 118.59,-141.34 110.6,-144.72 102.9,-147.87"/>
<polygon fill="midnightblue" stroke="midnightblue" points="171.13,-120.26 178.48,-112.63 167.98,-114.01 171.13,-120.26"/>
</g>
<!-- Node18 -->
<g id="node18" class="node">
<title>Node18</title>
<g id="a_node18"><a xlink:href="classhttplib_1_1ClientImpl.html#a31fe4e8466d44dc45e28d3e68db05e01" target="_top" xlink:title=" ">
<polygon fill="white" stroke="black" points="11,-99 11,-129 115,-129 115,-99 11,-99"/>
<text text-anchor="start" x="19" y="-117" font-family="Helvetica,sans-Serif" font-size="10.00">httplib::ClientImpl</text>
<text text-anchor="middle" x="63" y="-106" font-family="Helvetica,sans-Serif" font-size="10.00">::Post</text>
</a>
</g>
</g>
<!-- Node16&#45;&gt;Node18 -->
<g id="edge19" class="edge">
<title>Node16&#45;&gt;Node18</title>
<path fill="none" stroke="midnightblue" d="M151.78,-101.46C139.51,-103.21 126.87,-105.02 115.13,-106.7"/>
<polygon fill="midnightblue" stroke="midnightblue" points="152.56,-104.88 161.97,-100 151.57,-97.95 152.56,-104.88"/>
</g>
<!-- Node19 -->
<g id="node19" class="node">
<title>Node19</title>
<g id="a_node19"><a xlink:href="classhttplib_1_1ClientImpl.html#a048987c16a2f45382c1bb0d2102e4873" target="_top" xlink:title=" ">
<polygon fill="white" stroke="black" points="0,-60.5 0,-79.5 126,-79.5 126,-60.5 0,-60.5"/>
<text text-anchor="middle" x="63" y="-67.5" font-family="Helvetica,sans-Serif" font-size="10.00">httplib::ClientImpl::Put</text>
</a>
</g>
</g>
<!-- Node16&#45;&gt;Node19 -->
<g id="edge20" class="edge">
<title>Node16&#45;&gt;Node19</title>
<path fill="none" stroke="midnightblue" d="M152.03,-82.58C143.48,-81.35 134.73,-80.1 126.24,-78.89"/>
<polygon fill="midnightblue" stroke="midnightblue" points="151.57,-86.05 161.97,-84 152.56,-79.12 151.57,-86.05"/>
</g>
<!-- Node20 -->
<g id="node20" class="node">
<title>Node20</title>
<g id="a_node20"><a xlink:href="classhttplib_1_1ClientImpl.html#ac9d400990790ff3aa7f3639392181ddb" target="_top" xlink:title=" ">
<polygon fill="white" stroke="black" points="6,-0.5 6,-41.5 120,-41.5 120,-0.5 6,-0.5"/>
<text text-anchor="start" x="14" y="-29.5" font-family="Helvetica,sans-Serif" font-size="10.00">httplib::ClientImpl</text>
<text text-anchor="start" x="14" y="-18.5" font-family="Helvetica,sans-Serif" font-size="10.00">::send_with_content</text>
<text text-anchor="middle" x="63" y="-7.5" font-family="Helvetica,sans-Serif" font-size="10.00">_provider</text>
</a>
</g>
</g>
<!-- Node16&#45;&gt;Node20 -->
<g id="edge21" class="edge">
<title>Node16&#45;&gt;Node20</title>
<path fill="none" stroke="midnightblue" d="M164.18,-67.19C146.06,-58.83 126.05,-49.61 108.71,-41.61"/>
<polygon fill="midnightblue" stroke="midnightblue" points="162.91,-70.46 173.46,-71.46 165.84,-64.1 162.91,-70.46"/>
</g>
<!-- Node21&#45;&gt;Node7 -->
<g id="edge23" class="edge">
<title>Node21&#45;&gt;Node7</title>
<path fill="none" stroke="midnightblue" d="M935.77,-154.35C922.96,-156.31 909.77,-158.33 897.58,-160.19"/>
<polygon fill="midnightblue" stroke="midnightblue" points="936.57,-157.77 945.93,-152.8 935.52,-150.85 936.57,-157.77"/>
</g>
</g>
</svg>
        <g id="navigator" transform="translate(0 0)" fill="#404254">
                <rect fill="#f2f5e9" fill-opacity="0.5" stroke="#606060" stroke-width=".5" x="0" y="0" width="60" height="60"/>
                <use id="zoomplus" xlink:href="#zoomPlus" x="17" y="9" onmousedown="handleZoom(evt,'in')"/>
                <use id="zoomminus" xlink:href="#zoomMin" x="42" y="9" onmousedown="handleZoom(evt,'out')"/>
                <use id="reset" xlink:href="#resetDef" x="30" y="36" onmousedown="handleReset()"/>
                <g id="arrowUp" xlink:href="#dirArrow" transform="translate(30 24)" onmousedown="handlePan(0,-1)">
                  <use xlink:href="#rim" fill="#404040">
                        <set attributeName="fill" to="#808080" begin="arrowUp.mouseover" end="arrowUp.mouseout"/>
                  </use>
                  <path fill="none" stroke="white" stroke-width="1.5" d="M0,-3.0v7 M-2.5,-0.5L0,-3.0L2.5,-0.5"/>
                </g>
                <g id="arrowRight" xlink:href="#dirArrow" transform="rotate(90) translate(36 -43)" onmousedown="handlePan(1,0)">
                  <use xlink:href="#rim" fill="#404040">
                        <set attributeName="fill" to="#808080" begin="arrowRight.mouseover" end="arrowRight.mouseout"/>
                  </use>
                  <path fill="none" stroke="white" stroke-width="1.5" d="M0,-3.0v7 M-2.5,-0.5L0,-3.0L2.5,-0.5"/>
                </g>
                <g id="arrowDown" xlink:href="#dirArrow" transform="rotate(180) translate(-30 -48)" onmousedown="handlePan(0,1)">
                  <use xlink:href="#rim" fill="#404040">
                        <set attributeName="fill" to="#808080" begin="arrowDown.mouseover" end="arrowDown.mouseout"/>
                  </use>
                  <path fill="none" stroke="white" stroke-width="1.5" d="M0,-3.0v7 M-2.5,-0.5L0,-3.0L2.5,-0.5"/>
                </g>
                <g id="arrowLeft" xlink:href="#dirArrow" transform="rotate(270) translate(-36 17)" onmousedown="handlePan(-1,0)">
                  <use xlink:href="#rim" fill="#404040">
                        <set attributeName="fill" to="#808080" begin="arrowLeft.mouseover" end="arrowLeft.mouseout"/>
                  </use>
                  <path fill="none" stroke="white" stroke-width="1.5" d="M0,-3.0v7 M-2.5,-0.5L0,-3.0L2.5,-0.5"/>
                </g>
        </g>
        <svg viewBox="0 0 15 15" width="100%" height="30px" preserveAspectRatio="xMaxYMin meet">
         <g id="arrow_out" transform="scale(0.3 0.3)">
          <a xlink:href="classhttplib_1_1detail_1_1stream__line__reader_a983947ba51e1523ddd195dddfdd9bd26_icgraph_org.svg" target="_base">
           <rect id="button" ry="5" rx="5" y="6" x="6" height="38" width="38"
                fill="#f2f5e9" fill-opacity="0.5" stroke="#606060" stroke-width="1.0"/>
           <path id="arrow"
             d="M 11.500037,31.436501 C 11.940474,20.09759 22.043105,11.32322 32.158766,21.979434 L 37.068811,17.246167 C 37.068811,17.246167 37.088388,32 37.088388,32 L 22.160133,31.978069 C 22.160133,31.978069 26.997745,27.140456 26.997745,27.140456 C 18.528582,18.264221 13.291696,25.230495 11.500037,31.436501 z"
             style="fill:#404040;"/>
          </a>
         </g>
        </svg>
</svg>
