<?xml version="1.0" encoding="UTF-8" standalone="no"?>
<!DOCTYPE svg PUBLIC "-//W3C//DTD SVG 1.1//EN"
 "http://www.w3.org/Graphics/SVG/1.1/DTD/svg11.dtd">
<!-- Generated by graphviz version 2.43.0 (0)
 -->
<!-- Title: nlohmann::detail::json_sax_dom_callback_parser::handle_value Pages: 1 -->
<svg width="364pt" height="460pt"
 viewBox="0.00 0.00 364.00 460.00" xmlns="http://www.w3.org/2000/svg" xmlns:xlink="http://www.w3.org/1999/xlink">
<g id="graph0" class="graph" transform="scale(1 1) rotate(0) translate(4 456)">
<title>nlohmann::detail::json_sax_dom_callback_parser::handle_value</title>
<polygon fill="white" stroke="transparent" points="-4,4 -4,-456 360,-456 360,4 -4,4"/>
<!-- Node1 -->
<g id="node1" class="node">
<title>Node1</title>
<g id="a_node1"><a xlink:title=" ">
<polygon fill="#bfbfbf" stroke="black" points="208,-210.5 208,-251.5 356,-251.5 356,-210.5 208,-210.5"/>
<text text-anchor="start" x="216" y="-239.5" font-family="Helvetica,sans-Serif" font-size="10.00">nlohmann::detail::json</text>
<text text-anchor="start" x="216" y="-228.5" font-family="Helvetica,sans-Serif" font-size="10.00">_sax_dom_callback_parser</text>
<text text-anchor="middle" x="282" y="-217.5" font-family="Helvetica,sans-Serif" font-size="10.00">::handle_value</text>
</a>
</g>
</g>
<!-- Node2 -->
<g id="node2" class="node">
<title>Node2</title>
<g id="a_node2"><a xlink:href="classnlohmann_1_1detail_1_1json__sax__dom__callback__parser.html#ab7d8db672189164a8c0731e65ada1b45" target="_top" xlink:title=" ">
<polygon fill="white" stroke="black" points="12,-410.5 12,-451.5 160,-451.5 160,-410.5 12,-410.5"/>
<text text-anchor="start" x="20" y="-439.5" font-family="Helvetica,sans-Serif" font-size="10.00">nlohmann::detail::json</text>
<text text-anchor="start" x="20" y="-428.5" font-family="Helvetica,sans-Serif" font-size="10.00">_sax_dom_callback_parser</text>
<text text-anchor="middle" x="86" y="-417.5" font-family="Helvetica,sans-Serif" font-size="10.00">::boolean</text>
</a>
</g>
</g>
<!-- Node1&#45;&gt;Node2 -->
<g id="edge1" class="edge">
<title>Node1&#45;&gt;Node2</title>
<path fill="none" stroke="midnightblue" d="M269.06,-261.12C252.62,-298.91 219.55,-363.33 172,-401 167.58,-404.5 162.73,-407.61 157.65,-410.36"/>
<polygon fill="midnightblue" stroke="midnightblue" points="272.39,-262.24 273.07,-251.66 265.94,-259.51 272.39,-262.24"/>
</g>
<!-- Node3 -->
<g id="node3" class="node">
<title>Node3</title>
<g id="a_node3"><a xlink:href="classnlohmann_1_1detail_1_1json__sax__dom__callback__parser.html#a446262b6a75371fe8e0a6218ba2911e6" target="_top" xlink:title=" ">
<polygon fill="white" stroke="black" points="0,-361 0,-391 172,-391 172,-361 0,-361"/>
<text text-anchor="start" x="8" y="-379" font-family="Helvetica,sans-Serif" font-size="10.00">nlohmann::detail::json</text>
<text text-anchor="middle" x="86" y="-368" font-family="Helvetica,sans-Serif" font-size="10.00">_sax_dom_callback_parser::null</text>
</a>
</g>
</g>
<!-- Node1&#45;&gt;Node3 -->
<g id="edge2" class="edge">
<title>Node1&#45;&gt;Node3</title>
<path fill="none" stroke="midnightblue" d="M261.84,-259.96C242.33,-287.26 209.66,-327.4 172,-351 165.87,-354.84 159.13,-358.11 152.21,-360.89"/>
<polygon fill="midnightblue" stroke="midnightblue" points="264.84,-261.78 267.7,-251.58 259.1,-257.77 264.84,-261.78"/>
</g>
<!-- Node4 -->
<g id="node4" class="node">
<title>Node4</title>
<g id="a_node4"><a xlink:href="classnlohmann_1_1detail_1_1json__sax__dom__callback__parser.html#ae21f7872c334c77d03ae033cb0749b1c" target="_top" xlink:title=" ">
<polygon fill="white" stroke="black" points="12,-300.5 12,-341.5 160,-341.5 160,-300.5 12,-300.5"/>
<text text-anchor="start" x="20" y="-329.5" font-family="Helvetica,sans-Serif" font-size="10.00">nlohmann::detail::json</text>
<text text-anchor="start" x="20" y="-318.5" font-family="Helvetica,sans-Serif" font-size="10.00">_sax_dom_callback_parser</text>
<text text-anchor="middle" x="86" y="-307.5" font-family="Helvetica,sans-Serif" font-size="10.00">::number_float</text>
</a>
</g>
</g>
<!-- Node1&#45;&gt;Node4 -->
<g id="edge3" class="edge">
<title>Node1&#45;&gt;Node4</title>
<path fill="none" stroke="midnightblue" d="M238.13,-256.73C218.38,-268.02 194.39,-280.97 172,-291 164.72,-294.26 156.96,-297.42 149.21,-300.38"/>
<polygon fill="midnightblue" stroke="midnightblue" points="239.98,-259.7 246.89,-251.67 236.48,-253.64 239.98,-259.7"/>
</g>
<!-- Node5 -->
<g id="node5" class="node">
<title>Node5</title>
<g id="a_node5"><a xlink:href="classnlohmann_1_1detail_1_1json__sax__dom__callback__parser.html#a68d9eddfd572e8687c1c8107e0505aa6" target="_top" xlink:title=" ">
<polygon fill="white" stroke="black" points="12,-240.5 12,-281.5 160,-281.5 160,-240.5 12,-240.5"/>
<text text-anchor="start" x="20" y="-269.5" font-family="Helvetica,sans-Serif" font-size="10.00">nlohmann::detail::json</text>
<text text-anchor="start" x="20" y="-258.5" font-family="Helvetica,sans-Serif" font-size="10.00">_sax_dom_callback_parser</text>
<text text-anchor="middle" x="86" y="-247.5" font-family="Helvetica,sans-Serif" font-size="10.00">::number_integer</text>
</a>
</g>
</g>
<!-- Node1&#45;&gt;Node5 -->
<g id="edge4" class="edge">
<title>Node1&#45;&gt;Node5</title>
<path fill="none" stroke="midnightblue" d="M197.91,-243.85C185.3,-245.8 172.37,-247.8 160,-249.71"/>
<polygon fill="midnightblue" stroke="midnightblue" points="198.59,-247.29 207.93,-242.3 197.52,-240.37 198.59,-247.29"/>
</g>
<!-- Node6 -->
<g id="node6" class="node">
<title>Node6</title>
<g id="a_node6"><a xlink:href="classnlohmann_1_1detail_1_1json__sax__dom__callback__parser.html#acabb231463bf669441c22e4ea385a9fb" target="_top" xlink:title=" ">
<polygon fill="white" stroke="black" points="12,-180.5 12,-221.5 160,-221.5 160,-180.5 12,-180.5"/>
<text text-anchor="start" x="20" y="-209.5" font-family="Helvetica,sans-Serif" font-size="10.00">nlohmann::detail::json</text>
<text text-anchor="start" x="20" y="-198.5" font-family="Helvetica,sans-Serif" font-size="10.00">_sax_dom_callback_parser</text>
<text text-anchor="middle" x="86" y="-187.5" font-family="Helvetica,sans-Serif" font-size="10.00">::number_unsigned</text>
</a>
</g>
</g>
<!-- Node1&#45;&gt;Node6 -->
<g id="edge5" class="edge">
<title>Node1&#45;&gt;Node6</title>
<path fill="none" stroke="midnightblue" d="M197.91,-218.15C185.3,-216.2 172.37,-214.2 160,-212.29"/>
<polygon fill="midnightblue" stroke="midnightblue" points="197.52,-221.63 207.93,-219.7 198.59,-214.71 197.52,-221.63"/>
</g>
<!-- Node7 -->
<g id="node7" class="node">
<title>Node7</title>
<g id="a_node7"><a xlink:href="classnlohmann_1_1detail_1_1json__sax__dom__callback__parser.html#a5255b98ba8282e3625968f91cff9d3d0" target="_top" xlink:title=" ">
<polygon fill="white" stroke="black" points="12,-120.5 12,-161.5 160,-161.5 160,-120.5 12,-120.5"/>
<text text-anchor="start" x="20" y="-149.5" font-family="Helvetica,sans-Serif" font-size="10.00">nlohmann::detail::json</text>
<text text-anchor="start" x="20" y="-138.5" font-family="Helvetica,sans-Serif" font-size="10.00">_sax_dom_callback_parser</text>
<text text-anchor="middle" x="86" y="-127.5" font-family="Helvetica,sans-Serif" font-size="10.00">::start_array</text>
</a>
</g>
</g>
<!-- Node1&#45;&gt;Node7 -->
<g id="edge6" class="edge">
<title>Node1&#45;&gt;Node7</title>
<path fill="none" stroke="midnightblue" d="M238.13,-205.27C218.38,-193.98 194.39,-181.03 172,-171 164.72,-167.74 156.96,-164.58 149.21,-161.62"/>
<polygon fill="midnightblue" stroke="midnightblue" points="236.48,-208.36 246.89,-210.33 239.98,-202.3 236.48,-208.36"/>
</g>
<!-- Node8 -->
<g id="node8" class="node">
<title>Node8</title>
<g id="a_node8"><a xlink:href="classnlohmann_1_1detail_1_1json__sax__dom__callback__parser.html#a040e60243cc7c18a6078c6b83cdb4a81" target="_top" xlink:title=" ">
<polygon fill="white" stroke="black" points="12,-60.5 12,-101.5 160,-101.5 160,-60.5 12,-60.5"/>
<text text-anchor="start" x="20" y="-89.5" font-family="Helvetica,sans-Serif" font-size="10.00">nlohmann::detail::json</text>
<text text-anchor="start" x="20" y="-78.5" font-family="Helvetica,sans-Serif" font-size="10.00">_sax_dom_callback_parser</text>
<text text-anchor="middle" x="86" y="-67.5" font-family="Helvetica,sans-Serif" font-size="10.00">::start_object</text>
</a>
</g>
</g>
<!-- Node1&#45;&gt;Node8 -->
<g id="edge7" class="edge">
<title>Node1&#45;&gt;Node8</title>
<path fill="none" stroke="midnightblue" d="M261.22,-202.02C241.47,-175.05 208.81,-135.45 172,-111 166.79,-107.54 161.13,-104.42 155.29,-101.63"/>
<polygon fill="midnightblue" stroke="midnightblue" points="258.49,-204.21 267.17,-210.29 264.18,-200.13 258.49,-204.21"/>
</g>
<!-- Node9 -->
<g id="node9" class="node">
<title>Node9</title>
<g id="a_node9"><a xlink:href="classnlohmann_1_1detail_1_1json__sax__dom__callback__parser.html#ad94e912a67c7b96158937236805b8b47" target="_top" xlink:title=" ">
<polygon fill="white" stroke="black" points="12,-0.5 12,-41.5 160,-41.5 160,-0.5 12,-0.5"/>
<text text-anchor="start" x="20" y="-29.5" font-family="Helvetica,sans-Serif" font-size="10.00">nlohmann::detail::json</text>
<text text-anchor="start" x="20" y="-18.5" font-family="Helvetica,sans-Serif" font-size="10.00">_sax_dom_callback_parser</text>
<text text-anchor="middle" x="86" y="-7.5" font-family="Helvetica,sans-Serif" font-size="10.00">::string</text>
</a>
</g>
</g>
<!-- Node1&#45;&gt;Node9 -->
<g id="edge8" class="edge">
<title>Node1&#45;&gt;Node9</title>
<path fill="none" stroke="midnightblue" d="M270.23,-200.88C254.55,-161.13 221.77,-91.48 172,-51 167.63,-47.45 162.81,-44.3 157.75,-41.51"/>
<polygon fill="midnightblue" stroke="midnightblue" points="267,-202.22 273.85,-210.3 273.53,-199.71 267,-202.22"/>
</g>
</g>
</svg>
