<?xml version="1.0" encoding="UTF-8" standalone="no"?>
<!DOCTYPE svg PUBLIC "-//W3C//DTD SVG 1.1//EN"
 "http://www.w3.org/Graphics/SVG/1.1/DTD/svg11.dtd">
<!-- Generated by graphviz version 2.43.0 (0)
 -->
<!-- Title: nlohmann::detail::binary_reader::get_string Pages: 1 -->
<!--zoomable 366 -->
<svg id="main" version="1.1" xmlns="http://www.w3.org/2000/svg" xmlns:xlink="http://www.w3.org/1999/xlink" xml:space="preserve" onload="init(evt)">
<style type="text/css"><![CDATA[
.edge:hover path { stroke: red; }
.edge:hover polygon { stroke: red; fill: red; }
]]></style>
<script type="text/javascript"><![CDATA[
var edges = document.getElementsByTagName('g');
if (edges && edges.length) {
  for (var i=0;i<edges.length;i++) {
    if (edges[i].id.substr(0,4)=='edge') {
      edges[i].setAttribute('class','edge');
    }
  }
}
]]></script>
        <defs>
                <circle id="rim" cx="0" cy="0" r="7"/>
                <circle id="rim2" cx="0" cy="0" r="3.5"/>
                <g id="zoomPlus">
                        <use xlink:href="#rim" fill="#404040">
                                <set attributeName="fill" to="#808080" begin="zoomplus.mouseover" end="zoomplus.mouseout"/>
                        </use>
                        <path d="M-4,0h8M0,-4v8" fill="none" stroke="white" stroke-width="1.5" pointer-events="none"/>
                </g>
                <g id="zoomMin">
                        <use xlink:href="#rim" fill="#404040">
                                <set attributeName="fill" to="#808080" begin="zoomminus.mouseover" end="zoomminus.mouseout"/>
                        </use>
                        <path d="M-4,0h8" fill="none" stroke="white" stroke-width="1.5" pointer-events="none"/>
                </g>
                <g id="dirArrow">
                        <path fill="none" stroke="white" stroke-width="1.5" d="M0,-3.0v7 M-2.5,-0.5L0,-3.0L2.5,-0.5"/>
                </g>
               <g id="resetDef">
                       <use xlink:href="#rim2" fill="#404040">
                               <set attributeName="fill" to="#808080" begin="reset.mouseover" end="reset.mouseout"/>
                       </use>
               </g>
        </defs>

<script type="text/javascript">
var viewWidth = 1399;
var viewHeight = 366;
var sectionId = 'dynsection-38';
</script>
<script xlink:href="svgpan.js"/>
<svg id="graph" class="graph">
<g id="viewport">
<title>nlohmann::detail::binary_reader::get_string</title>
<polygon fill="white" stroke="transparent" points="-4,4 -4,-362 1395,-362 1395,4 -4,4"/>
<!-- Node1 -->
<g id="node1" class="node">
<title>Node1</title>
<g id="a_node1"><a xlink:title="create a string by reading characters from the input">
<polygon fill="#bfbfbf" stroke="black" points="1255,-167.5 1255,-197.5 1391,-197.5 1391,-167.5 1255,-167.5"/>
<text text-anchor="start" x="1263" y="-185.5" font-family="Helvetica,sans-Serif" font-size="10.00">nlohmann::detail::binary</text>
<text text-anchor="middle" x="1323" y="-174.5" font-family="Helvetica,sans-Serif" font-size="10.00">_reader::get_string</text>
</a>
</g>
</g>
<!-- Node2 -->
<g id="node2" class="node">
<title>Node2</title>
<g id="a_node2"><a xlink:href="classnlohmann_1_1detail_1_1binary__reader.html#a46bf64d7193eea97cac6dd4d4abdb4fa" target="_top" xlink:title="Parses a zero&#45;terminated string of length len from the BSON input.">
<polygon fill="white" stroke="black" points="1071.5,-272.5 1071.5,-302.5 1208.5,-302.5 1208.5,-272.5 1071.5,-272.5"/>
<text text-anchor="start" x="1079.5" y="-290.5" font-family="Helvetica,sans-Serif" font-size="10.00">nlohmann::detail::binary</text>
<text text-anchor="middle" x="1140" y="-279.5" font-family="Helvetica,sans-Serif" font-size="10.00">_reader::get_bson_string</text>
</a>
</g>
</g>
<!-- Node1&#45;&gt;Node2 -->
<g id="edge1" class="edge">
<title>Node1&#45;&gt;Node2</title>
<path fill="none" stroke="midnightblue" d="M1292.39,-203.65C1272.18,-217.69 1244.53,-236.11 1219,-250.5 1205.03,-258.37 1189.11,-266.13 1175.31,-272.49"/>
<polygon fill="midnightblue" stroke="midnightblue" points="1294.66,-206.33 1300.85,-197.73 1290.65,-200.6 1294.66,-206.33"/>
</g>
<!-- Node10 -->
<g id="node10" class="node">
<title>Node10</title>
<g id="a_node10"><a xlink:href="classnlohmann_1_1detail_1_1binary__reader.html#acca76844160000e1d8215cb5c7afbba1" target="_top" xlink:title="reads a CBOR string">
<polygon fill="white" stroke="black" points="1072,-192.5 1072,-222.5 1208,-222.5 1208,-192.5 1072,-192.5"/>
<text text-anchor="start" x="1080" y="-210.5" font-family="Helvetica,sans-Serif" font-size="10.00">nlohmann::detail::binary</text>
<text text-anchor="middle" x="1140" y="-199.5" font-family="Helvetica,sans-Serif" font-size="10.00">_reader::get_cbor_string</text>
</a>
</g>
</g>
<!-- Node1&#45;&gt;Node10 -->
<g id="edge11" class="edge">
<title>Node1&#45;&gt;Node10</title>
<path fill="none" stroke="midnightblue" d="M1244.71,-193.18C1232.5,-194.86 1219.98,-196.59 1208.03,-198.24"/>
<polygon fill="midnightblue" stroke="midnightblue" points="1245.43,-196.61 1254.86,-191.77 1244.47,-189.67 1245.43,-196.61"/>
</g>
<!-- Node14 -->
<g id="node14" class="node">
<title>Node14</title>
<g id="a_node14"><a xlink:href="classnlohmann_1_1detail_1_1binary__reader.html#a5526ed98ca4c436cbae6f8a77ea207b8" target="_top" xlink:title="reads a MessagePack string">
<polygon fill="white" stroke="black" points="1061,-143.5 1061,-173.5 1219,-173.5 1219,-143.5 1061,-143.5"/>
<text text-anchor="start" x="1069" y="-161.5" font-family="Helvetica,sans-Serif" font-size="10.00">nlohmann::detail::binary</text>
<text text-anchor="middle" x="1140" y="-150.5" font-family="Helvetica,sans-Serif" font-size="10.00">_reader::get_msgpack_string</text>
</a>
</g>
</g>
<!-- Node1&#45;&gt;Node14 -->
<g id="edge20" class="edge">
<title>Node1&#45;&gt;Node14</title>
<path fill="none" stroke="midnightblue" d="M1244.9,-172.28C1236.33,-171.14 1227.61,-169.98 1219.03,-168.85"/>
<polygon fill="midnightblue" stroke="midnightblue" points="1244.49,-175.75 1254.86,-173.6 1245.41,-168.81 1244.49,-175.75"/>
</g>
<!-- Node18 -->
<g id="node18" class="node">
<title>Node18</title>
<g id="a_node18"><a xlink:href="classnlohmann_1_1detail_1_1binary__reader.html#a2e01eab458020d18c975e8df55b20eca" target="_top" xlink:title="reads a UBJSON string">
<polygon fill="white" stroke="black" points="1067,-53.5 1067,-83.5 1213,-83.5 1213,-53.5 1067,-53.5"/>
<text text-anchor="start" x="1075" y="-71.5" font-family="Helvetica,sans-Serif" font-size="10.00">nlohmann::detail::binary</text>
<text text-anchor="middle" x="1140" y="-60.5" font-family="Helvetica,sans-Serif" font-size="10.00">_reader::get_ubjson_string</text>
</a>
</g>
</g>
<!-- Node1&#45;&gt;Node18 -->
<g id="edge28" class="edge">
<title>Node1&#45;&gt;Node18</title>
<path fill="none" stroke="midnightblue" d="M1289.32,-161.92C1253.46,-139.33 1196.75,-103.61 1164.85,-83.52"/>
<polygon fill="midnightblue" stroke="midnightblue" points="1287.64,-164.99 1297.96,-167.36 1291.37,-159.07 1287.64,-164.99"/>
</g>
<!-- Node3 -->
<g id="node3" class="node">
<title>Node3</title>
<g id="a_node3"><a xlink:href="classnlohmann_1_1detail_1_1binary__reader.html#a2fdd24de008063e7fef896327daeffa1" target="_top" xlink:title="Read a BSON document element of the given element_type.">
<polygon fill="white" stroke="black" points="864,-278 864,-319 1025,-319 1025,-278 864,-278"/>
<text text-anchor="start" x="872" y="-307" font-family="Helvetica,sans-Serif" font-size="10.00">nlohmann::detail::binary</text>
<text text-anchor="start" x="872" y="-296" font-family="Helvetica,sans-Serif" font-size="10.00">_reader::parse_bson_element</text>
<text text-anchor="middle" x="944.5" y="-285" font-family="Helvetica,sans-Serif" font-size="10.00">_internal</text>
</a>
</g>
</g>
<!-- Node2&#45;&gt;Node3 -->
<g id="edge2" class="edge">
<title>Node2&#45;&gt;Node3</title>
<path fill="none" stroke="midnightblue" d="M1061.04,-291.93C1049.2,-292.61 1036.96,-293.3 1025.09,-293.98"/>
<polygon fill="midnightblue" stroke="midnightblue" points="1061.54,-295.41 1071.32,-291.35 1061.14,-288.42 1061.54,-295.41"/>
</g>
<!-- Node4 -->
<g id="node4" class="node">
<title>Node4</title>
<g id="a_node4"><a xlink:href="classnlohmann_1_1detail_1_1binary__reader.html#a7316619ace9efdc718d04e7b8f807e1e" target="_top" xlink:title="Read a BSON element list (as specified in the BSON&#45;spec)">
<polygon fill="white" stroke="black" points="647,-283.5 647,-313.5 828,-313.5 828,-283.5 647,-283.5"/>
<text text-anchor="start" x="655" y="-301.5" font-family="Helvetica,sans-Serif" font-size="10.00">nlohmann::detail::binary</text>
<text text-anchor="middle" x="737.5" y="-290.5" font-family="Helvetica,sans-Serif" font-size="10.00">_reader::parse_bson_element_list</text>
</a>
</g>
</g>
<!-- Node3&#45;&gt;Node4 -->
<g id="edge3" class="edge">
<title>Node3&#45;&gt;Node4</title>
<path fill="none" stroke="midnightblue" d="M853.71,-298.5C845.25,-298.5 836.68,-298.5 828.22,-298.5"/>
<polygon fill="midnightblue" stroke="midnightblue" points="853.95,-302 863.95,-298.5 853.95,-295 853.95,-302"/>
</g>
<!-- Node5 -->
<g id="node5" class="node">
<title>Node5</title>
<g id="a_node5"><a xlink:href="classnlohmann_1_1detail_1_1binary__reader.html#a650dd6f9f05e86eb62cd4717301a5ffa" target="_top" xlink:title="Reads an array from the BSON input and passes it to the SAX&#45;parser.">
<polygon fill="white" stroke="black" points="454.5,-278.5 454.5,-308.5 600.5,-308.5 600.5,-278.5 454.5,-278.5"/>
<text text-anchor="start" x="462.5" y="-296.5" font-family="Helvetica,sans-Serif" font-size="10.00">nlohmann::detail::binary</text>
<text text-anchor="middle" x="527.5" y="-285.5" font-family="Helvetica,sans-Serif" font-size="10.00">_reader::parse_bson_array</text>
</a>
</g>
</g>
<!-- Node4&#45;&gt;Node5 -->
<g id="edge4" class="edge">
<title>Node4&#45;&gt;Node5</title>
<path fill="none" stroke="midnightblue" d="M636.63,-296.1C624.51,-295.81 612.32,-295.51 600.71,-295.24"/>
<polygon fill="midnightblue" stroke="midnightblue" points="636.7,-299.6 646.78,-296.34 636.87,-292.6 636.7,-299.6"/>
</g>
<!-- Node6 -->
<g id="node6" class="node">
<title>Node6</title>
<g id="a_node6"><a xlink:href="classnlohmann_1_1detail_1_1binary__reader.html#a950f6ef800421fef9499af1c4c8918f5" target="_top" xlink:title="Reads in a BSON&#45;object and passes it to the SAX&#45;parser.">
<polygon fill="white" stroke="black" points="448.5,-327.5 448.5,-357.5 606.5,-357.5 606.5,-327.5 448.5,-327.5"/>
<text text-anchor="start" x="456.5" y="-345.5" font-family="Helvetica,sans-Serif" font-size="10.00">nlohmann::detail::binary</text>
<text text-anchor="middle" x="527.5" y="-334.5" font-family="Helvetica,sans-Serif" font-size="10.00">_reader::parse_bson_internal</text>
</a>
</g>
</g>
<!-- Node4&#45;&gt;Node6 -->
<g id="edge6" class="edge">
<title>Node4&#45;&gt;Node6</title>
<path fill="none" stroke="midnightblue" d="M655.64,-315.61C637.13,-319.52 617.59,-323.65 599.53,-327.47"/>
<polygon fill="midnightblue" stroke="midnightblue" points="656.44,-319.01 665.5,-313.52 654.99,-312.16 656.44,-319.01"/>
</g>
<!-- Node5&#45;&gt;Node3 -->
<g id="edge5" class="edge">
<title>Node5&#45;&gt;Node3</title>
<path fill="none" stroke="midnightblue" d="M610.76,-278.58C622.88,-276.89 635.24,-275.44 647,-274.5 727.19,-268.11 747.98,-266.27 828,-274.5 839.71,-275.7 851.99,-277.58 863.99,-279.76"/>
<polygon fill="midnightblue" stroke="midnightblue" points="610.05,-275.15 600.66,-280.06 611.06,-282.08 610.05,-275.15"/>
</g>
<!-- Node6&#45;&gt;Node3 -->
<g id="edge7" class="edge">
<title>Node6&#45;&gt;Node3</title>
<path fill="none" stroke="midnightblue" d="M616.87,-340.37C676.69,-338.08 757.39,-333.33 828,-323.5 839.68,-321.87 851.95,-319.72 863.94,-317.35"/>
<polygon fill="midnightblue" stroke="midnightblue" points="616.57,-336.88 606.7,-340.74 616.83,-343.87 616.57,-336.88"/>
</g>
<!-- Node7 -->
<g id="node7" class="node">
<title>Node7</title>
<g id="a_node7"><a xlink:href="classnlohmann_1_1detail_1_1binary__reader.html#ab94a54d6e595c2620b07589cf4116256" target="_top" xlink:title=" ">
<polygon fill="white" stroke="black" points="268.5,-190.5 268.5,-220.5 404.5,-220.5 404.5,-190.5 268.5,-190.5"/>
<text text-anchor="start" x="276.5" y="-208.5" font-family="Helvetica,sans-Serif" font-size="10.00">nlohmann::detail::binary</text>
<text text-anchor="middle" x="336.5" y="-197.5" font-family="Helvetica,sans-Serif" font-size="10.00">_reader::sax_parse</text>
</a>
</g>
</g>
<!-- Node6&#45;&gt;Node7 -->
<g id="edge8" class="edge">
<title>Node6&#45;&gt;Node7</title>
<path fill="none" stroke="midnightblue" d="M452.74,-323.29C449.73,-321.81 446.8,-320.21 444,-318.5 401.46,-292.47 364.78,-245.05 347.71,-220.75"/>
<polygon fill="midnightblue" stroke="midnightblue" points="451.43,-326.54 461.99,-327.43 454.29,-320.15 451.43,-326.54"/>
</g>
<!-- Node8 -->
<g id="node8" class="node">
<title>Node8</title>
<g id="a_node8"><a xlink:href="classnlohmann_1_1basic__json.html#a8a3dd150c2d1f0df3502d937de0871db" target="_top" xlink:title="generate SAX events">
<polygon fill="white" stroke="black" points="107,-190.5 107,-220.5 229,-220.5 229,-190.5 107,-190.5"/>
<text text-anchor="start" x="115" y="-208.5" font-family="Helvetica,sans-Serif" font-size="10.00">nlohmann::basic_json</text>
<text text-anchor="middle" x="168" y="-197.5" font-family="Helvetica,sans-Serif" font-size="10.00">::sax_parse</text>
</a>
</g>
</g>
<!-- Node7&#45;&gt;Node8 -->
<g id="edge9" class="edge">
<title>Node7&#45;&gt;Node8</title>
<path fill="none" stroke="midnightblue" d="M258.19,-205.5C248.47,-205.5 238.65,-205.5 229.24,-205.5"/>
<polygon fill="midnightblue" stroke="midnightblue" points="258.26,-209 268.26,-205.5 258.26,-202 258.26,-209"/>
</g>
<!-- Node9 -->
<g id="node9" class="node">
<title>Node9</title>
<g id="a_node9"><a xlink:href="unit-bson_8cpp.html#a73301d5e6d0f638e973f748287501dd6" target="_top" xlink:title=" ">
<polygon fill="white" stroke="black" points="0,-196 0,-215 71,-215 71,-196 0,-196"/>
<text text-anchor="middle" x="35.5" y="-203" font-family="Helvetica,sans-Serif" font-size="10.00">TEST_CASE</text>
</a>
</g>
</g>
<!-- Node8&#45;&gt;Node9 -->
<g id="edge10" class="edge">
<title>Node8&#45;&gt;Node9</title>
<path fill="none" stroke="midnightblue" d="M96.44,-205.5C87.71,-205.5 79.11,-205.5 71.26,-205.5"/>
<polygon fill="midnightblue" stroke="midnightblue" points="96.72,-209 106.72,-205.5 96.72,-202 96.72,-209"/>
</g>
<!-- Node10&#45;&gt;Node10 -->
<g id="edge18" class="edge">
<title>Node10&#45;&gt;Node10</title>
<path fill="none" stroke="midnightblue" d="M1172.34,-232.96C1168.33,-237.68 1157.55,-241 1140,-241 1111.21,-241 1100.63,-232.06 1108.28,-222.66"/>
<polygon fill="midnightblue" stroke="midnightblue" points="1175.81,-232.43 1171.72,-222.66 1168.83,-232.85 1175.81,-232.43"/>
</g>
<!-- Node11 -->
<g id="node11" class="node">
<title>Node11</title>
<g id="a_node11"><a xlink:href="classnlohmann_1_1detail_1_1binary__reader.html#a2fcc776cd2c7bb52bbc511e97d36978a" target="_top" xlink:title=" ">
<polygon fill="white" stroke="black" points="876,-190.5 876,-220.5 1013,-220.5 1013,-190.5 876,-190.5"/>
<text text-anchor="start" x="884" y="-208.5" font-family="Helvetica,sans-Serif" font-size="10.00">nlohmann::detail::binary</text>
<text text-anchor="middle" x="944.5" y="-197.5" font-family="Helvetica,sans-Serif" font-size="10.00">_reader::get_cbor_object</text>
</a>
</g>
</g>
<!-- Node10&#45;&gt;Node11 -->
<g id="edge12" class="edge">
<title>Node10&#45;&gt;Node11</title>
<path fill="none" stroke="midnightblue" d="M1061.48,-206.7C1045.5,-206.53 1028.78,-206.36 1013.17,-206.2"/>
<polygon fill="midnightblue" stroke="midnightblue" points="1061.83,-210.2 1071.87,-206.81 1061.9,-203.2 1061.83,-210.2"/>
</g>
<!-- Node12 -->
<g id="node12" class="node">
<title>Node12</title>
<g id="a_node12"><a xlink:href="classnlohmann_1_1detail_1_1binary__reader.html#a2fc47768d484a22fcd04e20106da1399" target="_top" xlink:title=" ">
<polygon fill="white" stroke="black" points="660,-190.5 660,-220.5 815,-220.5 815,-190.5 660,-190.5"/>
<text text-anchor="start" x="668" y="-208.5" font-family="Helvetica,sans-Serif" font-size="10.00">nlohmann::detail::binary</text>
<text text-anchor="middle" x="737.5" y="-197.5" font-family="Helvetica,sans-Serif" font-size="10.00">_reader::parse_cbor_internal</text>
</a>
</g>
</g>
<!-- Node10&#45;&gt;Node12 -->
<g id="edge19" class="edge">
<title>Node10&#45;&gt;Node12</title>
<path fill="none" stroke="midnightblue" d="M1065.82,-224.5C1052.32,-227 1038.29,-229.17 1025,-230.5 953.8,-237.61 935.21,-237.52 864,-230.5 843.44,-228.47 821.25,-224.62 801.34,-220.53"/>
<polygon fill="midnightblue" stroke="midnightblue" points="1066.87,-227.86 1076.03,-222.53 1065.54,-220.99 1066.87,-227.86"/>
</g>
<!-- Node11&#45;&gt;Node12 -->
<g id="edge13" class="edge">
<title>Node11&#45;&gt;Node12</title>
<path fill="none" stroke="midnightblue" d="M865.67,-198.93C849.19,-198.69 831.79,-198.69 815.34,-198.94"/>
<polygon fill="midnightblue" stroke="midnightblue" points="865.75,-202.43 875.81,-199.11 865.87,-195.43 865.75,-202.43"/>
</g>
<!-- Node12&#45;&gt;Node7 -->
<g id="edge17" class="edge">
<title>Node12&#45;&gt;Node7</title>
<path fill="none" stroke="midnightblue" d="M663.69,-222.52C646.51,-225.83 628.19,-228.8 611,-230.5 537.14,-237.79 517.73,-239.04 444,-230.5 426.45,-228.47 407.6,-224.61 390.71,-220.53"/>
<polygon fill="midnightblue" stroke="midnightblue" points="664.54,-225.92 673.66,-220.53 663.17,-219.05 664.54,-225.92"/>
</g>
<!-- Node12&#45;&gt;Node11 -->
<g id="edge16" class="edge">
<title>Node12&#45;&gt;Node11</title>
<path fill="none" stroke="midnightblue" d="M825.69,-212.18C842.45,-212.33 859.77,-212.23 875.81,-211.89"/>
<polygon fill="midnightblue" stroke="midnightblue" points="825.38,-208.68 815.34,-212.06 825.3,-215.68 825.38,-208.68"/>
</g>
<!-- Node13 -->
<g id="node13" class="node">
<title>Node13</title>
<g id="a_node13"><a xlink:href="classnlohmann_1_1detail_1_1binary__reader.html#ac3dc99d36754aa0beac506b30604a8ed" target="_top" xlink:title=" ">
<polygon fill="white" stroke="black" points="459.5,-190.5 459.5,-220.5 595.5,-220.5 595.5,-190.5 459.5,-190.5"/>
<text text-anchor="start" x="467.5" y="-208.5" font-family="Helvetica,sans-Serif" font-size="10.00">nlohmann::detail::binary</text>
<text text-anchor="middle" x="527.5" y="-197.5" font-family="Helvetica,sans-Serif" font-size="10.00">_reader::get_cbor_array</text>
</a>
</g>
</g>
<!-- Node12&#45;&gt;Node13 -->
<g id="edge14" class="edge">
<title>Node12&#45;&gt;Node13</title>
<path fill="none" stroke="midnightblue" d="M649.7,-198.83C631.64,-198.66 612.87,-198.76 595.64,-199.14"/>
<polygon fill="midnightblue" stroke="midnightblue" points="649.89,-202.34 659.93,-198.96 649.98,-195.34 649.89,-202.34"/>
</g>
<!-- Node13&#45;&gt;Node12 -->
<g id="edge15" class="edge">
<title>Node13&#45;&gt;Node12</title>
<path fill="none" stroke="midnightblue" d="M605.9,-212.05C623.56,-212.32 642.31,-212.32 659.93,-212.04"/>
<polygon fill="midnightblue" stroke="midnightblue" points="605.71,-208.55 595.64,-211.86 605.58,-215.54 605.71,-208.55"/>
</g>
<!-- Node15 -->
<g id="node15" class="node">
<title>Node15</title>
<g id="a_node15"><a xlink:href="classnlohmann_1_1detail_1_1binary__reader.html#ad1190bb3499e243b0bbf795743a35563" target="_top" xlink:title=" ">
<polygon fill="white" stroke="black" points="864.5,-102.5 864.5,-132.5 1024.5,-132.5 1024.5,-102.5 864.5,-102.5"/>
<text text-anchor="start" x="872.5" y="-120.5" font-family="Helvetica,sans-Serif" font-size="10.00">nlohmann::detail::binary</text>
<text text-anchor="middle" x="944.5" y="-109.5" font-family="Helvetica,sans-Serif" font-size="10.00">_reader::get_msgpack_object</text>
</a>
</g>
</g>
<!-- Node14&#45;&gt;Node15 -->
<g id="edge21" class="edge">
<title>Node14&#45;&gt;Node15</title>
<path fill="none" stroke="midnightblue" d="M1058.08,-141.35C1044.25,-138.42 1029.98,-135.4 1016.44,-132.53"/>
<polygon fill="midnightblue" stroke="midnightblue" points="1057.54,-144.82 1068.05,-143.47 1058.99,-137.97 1057.54,-144.82"/>
</g>
<!-- Node16 -->
<g id="node16" class="node">
<title>Node16</title>
<g id="a_node16"><a xlink:href="classnlohmann_1_1detail_1_1binary__reader.html#a81611d8a5faec1348d31f7e98fcd05ef" target="_top" xlink:title=" ">
<polygon fill="white" stroke="black" points="669.5,-97 669.5,-138 805.5,-138 805.5,-97 669.5,-97"/>
<text text-anchor="start" x="677.5" y="-126" font-family="Helvetica,sans-Serif" font-size="10.00">nlohmann::detail::binary</text>
<text text-anchor="start" x="677.5" y="-115" font-family="Helvetica,sans-Serif" font-size="10.00">_reader::parse_msgpack</text>
<text text-anchor="middle" x="737.5" y="-104" font-family="Helvetica,sans-Serif" font-size="10.00">_internal</text>
</a>
</g>
</g>
<!-- Node14&#45;&gt;Node16 -->
<g id="edge27" class="edge">
<title>Node14&#45;&gt;Node16</title>
<path fill="none" stroke="midnightblue" d="M1050.56,-156.47C996.5,-154.45 926.06,-150.45 864,-142.5 844.94,-140.06 824.43,-136.41 805.63,-132.66"/>
<polygon fill="midnightblue" stroke="midnightblue" points="1050.68,-159.97 1060.8,-156.83 1050.93,-152.98 1050.68,-159.97"/>
</g>
<!-- Node15&#45;&gt;Node16 -->
<g id="edge22" class="edge">
<title>Node15&#45;&gt;Node16</title>
<path fill="none" stroke="midnightblue" d="M854.16,-110.8C837.85,-110.68 821.09,-110.78 805.57,-111.12"/>
<polygon fill="midnightblue" stroke="midnightblue" points="854.21,-114.3 864.24,-110.91 854.28,-107.3 854.21,-114.3"/>
</g>
<!-- Node16&#45;&gt;Node7 -->
<g id="edge26" class="edge">
<title>Node16&#45;&gt;Node7</title>
<path fill="none" stroke="midnightblue" d="M659.4,-134.23C600.4,-147.07 517.04,-165.28 444,-181.5 431.05,-184.38 417.22,-187.47 403.95,-190.46"/>
<polygon fill="midnightblue" stroke="midnightblue" points="660.36,-137.61 669.38,-132.06 658.87,-130.77 660.36,-137.61"/>
</g>
<!-- Node16&#45;&gt;Node15 -->
<g id="edge25" class="edge">
<title>Node16&#45;&gt;Node15</title>
<path fill="none" stroke="midnightblue" d="M815.83,-124.07C831.66,-124.3 848.34,-124.31 864.24,-124.09"/>
<polygon fill="midnightblue" stroke="midnightblue" points="815.63,-120.56 805.57,-123.88 815.5,-127.56 815.63,-120.56"/>
</g>
<!-- Node17 -->
<g id="node17" class="node">
<title>Node17</title>
<g id="a_node17"><a xlink:href="classnlohmann_1_1detail_1_1binary__reader.html#a09d3eed7523da6f61e7ffa98823aae2b" target="_top" xlink:title=" ">
<polygon fill="white" stroke="black" points="450,-102.5 450,-132.5 605,-132.5 605,-102.5 450,-102.5"/>
<text text-anchor="start" x="458" y="-120.5" font-family="Helvetica,sans-Serif" font-size="10.00">nlohmann::detail::binary</text>
<text text-anchor="middle" x="527.5" y="-109.5" font-family="Helvetica,sans-Serif" font-size="10.00">_reader::get_msgpack_array</text>
</a>
</g>
</g>
<!-- Node16&#45;&gt;Node17 -->
<g id="edge23" class="edge">
<title>Node16&#45;&gt;Node17</title>
<path fill="none" stroke="midnightblue" d="M659.05,-110.95C641.47,-110.68 622.81,-110.68 605.27,-110.96"/>
<polygon fill="midnightblue" stroke="midnightblue" points="659.19,-114.45 669.26,-111.14 659.32,-107.45 659.19,-114.45"/>
</g>
<!-- Node17&#45;&gt;Node16 -->
<g id="edge24" class="edge">
<title>Node17&#45;&gt;Node16</title>
<path fill="none" stroke="midnightblue" d="M615.46,-124.17C633.44,-124.34 652.11,-124.24 669.26,-123.86"/>
<polygon fill="midnightblue" stroke="midnightblue" points="615.31,-120.67 605.27,-124.04 615.22,-127.67 615.31,-120.67"/>
</g>
<!-- Node19 -->
<g id="node19" class="node">
<title>Node19</title>
<g id="a_node19"><a xlink:href="classnlohmann_1_1detail_1_1binary__reader.html#ad0932dd568fcbbd2b4c2ccf9122544a5" target="_top" xlink:title=" ">
<polygon fill="white" stroke="black" points="870.5,-53.5 870.5,-83.5 1018.5,-83.5 1018.5,-53.5 870.5,-53.5"/>
<text text-anchor="start" x="878.5" y="-71.5" font-family="Helvetica,sans-Serif" font-size="10.00">nlohmann::detail::binary</text>
<text text-anchor="middle" x="944.5" y="-60.5" font-family="Helvetica,sans-Serif" font-size="10.00">_reader::get_ubjson_object</text>
</a>
</g>
</g>
<!-- Node18&#45;&gt;Node19 -->
<g id="edge29" class="edge">
<title>Node18&#45;&gt;Node19</title>
<path fill="none" stroke="midnightblue" d="M1056.84,-68.5C1044.13,-68.5 1031.08,-68.5 1018.58,-68.5"/>
<polygon fill="midnightblue" stroke="midnightblue" points="1056.95,-72 1066.95,-68.5 1056.95,-65 1056.95,-72"/>
</g>
<!-- Node20 -->
<g id="node20" class="node">
<title>Node20</title>
<g id="a_node20"><a xlink:href="classnlohmann_1_1detail_1_1binary__reader.html#a5f425199a77f403e32f076ff8487f853" target="_top" xlink:title=" ">
<polygon fill="white" stroke="black" points="665,-9.5 665,-39.5 810,-39.5 810,-9.5 665,-9.5"/>
<text text-anchor="start" x="673" y="-27.5" font-family="Helvetica,sans-Serif" font-size="10.00">nlohmann::detail::binary</text>
<text text-anchor="middle" x="737.5" y="-16.5" font-family="Helvetica,sans-Serif" font-size="10.00">_reader::get_ubjson_value</text>
</a>
</g>
</g>
<!-- Node18&#45;&gt;Node20 -->
<g id="edge38" class="edge">
<title>Node18&#45;&gt;Node20</title>
<path fill="none" stroke="midnightblue" d="M1068.57,-51.33C1054.22,-48.32 1039.18,-45.51 1025,-43.5 952.2,-33.16 868.18,-28.43 810.04,-26.28"/>
<polygon fill="midnightblue" stroke="midnightblue" points="1067.86,-54.76 1078.37,-53.44 1069.33,-47.91 1067.86,-54.76"/>
</g>
<!-- Node19&#45;&gt;Node20 -->
<g id="edge30" class="edge">
<title>Node19&#45;&gt;Node20</title>
<path fill="none" stroke="midnightblue" d="M890.02,-51.01C865.7,-45 836.58,-38.59 810.39,-33.45"/>
<polygon fill="midnightblue" stroke="midnightblue" points="889.22,-54.42 899.77,-53.47 890.93,-47.63 889.22,-54.42"/>
</g>
<!-- Node20&#45;&gt;Node19 -->
<g id="edge33" class="edge">
<title>Node20&#45;&gt;Node19</title>
<path fill="none" stroke="midnightblue" d="M792.28,-42.06C816.14,-47.96 844.6,-54.22 870.36,-59.3"/>
<polygon fill="midnightblue" stroke="midnightblue" points="792.9,-38.61 782.35,-39.56 791.19,-45.4 792.9,-38.61"/>
</g>
<!-- Node21 -->
<g id="node21" class="node">
<title>Node21</title>
<g id="a_node21"><a xlink:href="classnlohmann_1_1detail_1_1binary__reader.html#a4e8ef9561d4403ea68e3c2712fd289e2" target="_top" xlink:title=" ">
<polygon fill="white" stroke="black" points="265,-0.5 265,-30.5 408,-30.5 408,-0.5 265,-0.5"/>
<text text-anchor="start" x="273" y="-18.5" font-family="Helvetica,sans-Serif" font-size="10.00">nlohmann::detail::binary</text>
<text text-anchor="middle" x="336.5" y="-7.5" font-family="Helvetica,sans-Serif" font-size="10.00">_reader::get_ubjson_array</text>
</a>
</g>
</g>
<!-- Node20&#45;&gt;Node21 -->
<g id="edge31" class="edge">
<title>Node20&#45;&gt;Node21</title>
<path fill="none" stroke="midnightblue" d="M654.68,-17.08C582.05,-13.79 477.05,-11.51 408.05,-11.8"/>
<polygon fill="midnightblue" stroke="midnightblue" points="654.55,-20.58 664.71,-17.55 654.88,-13.59 654.55,-20.58"/>
</g>
<!-- Node22 -->
<g id="node22" class="node">
<title>Node22</title>
<g id="a_node22"><a xlink:href="classnlohmann_1_1detail_1_1binary__reader.html#af60c6bba6f1301cb02e0186c99e25751" target="_top" xlink:title=" ">
<polygon fill="white" stroke="black" points="444,-53.5 444,-83.5 611,-83.5 611,-53.5 444,-53.5"/>
<text text-anchor="start" x="452" y="-71.5" font-family="Helvetica,sans-Serif" font-size="10.00">nlohmann::detail::binary</text>
<text text-anchor="middle" x="527.5" y="-60.5" font-family="Helvetica,sans-Serif" font-size="10.00">_reader::parse_ubjson_internal</text>
</a>
</g>
</g>
<!-- Node20&#45;&gt;Node22 -->
<g id="edge34" class="edge">
<title>Node20&#45;&gt;Node22</title>
<path fill="none" stroke="midnightblue" d="M655.64,-41.61C637.13,-45.52 617.59,-49.65 599.53,-53.47"/>
<polygon fill="midnightblue" stroke="midnightblue" points="656.44,-45.01 665.5,-39.52 654.99,-38.16 656.44,-45.01"/>
</g>
<!-- Node21&#45;&gt;Node20 -->
<g id="edge32" class="edge">
<title>Node21&#45;&gt;Node20</title>
<path fill="none" stroke="midnightblue" d="M418.46,-22.88C490.68,-26.18 595.42,-28.46 664.71,-28.21"/>
<polygon fill="midnightblue" stroke="midnightblue" points="418.2,-19.36 408.05,-22.39 417.87,-26.36 418.2,-19.36"/>
</g>
<!-- Node22&#45;&gt;Node7 -->
<g id="edge37" class="edge">
<title>Node22&#45;&gt;Node7</title>
<path fill="none" stroke="midnightblue" d="M454.73,-87.67C451.02,-89.46 447.41,-91.4 444,-93.5 401.74,-119.55 364.94,-166.44 347.78,-190.44"/>
<polygon fill="midnightblue" stroke="midnightblue" points="456.39,-90.77 464.16,-83.56 453.59,-84.35 456.39,-90.77"/>
</g>
<!-- Node22&#45;&gt;Node19 -->
<g id="edge36" class="edge">
<title>Node22&#45;&gt;Node19</title>
<path fill="none" stroke="midnightblue" d="M621.74,-68.5C696.87,-68.5 801.03,-68.5 870.26,-68.5"/>
<polygon fill="midnightblue" stroke="midnightblue" points="621.34,-65 611.34,-68.5 621.34,-72 621.34,-65"/>
</g>
<!-- Node22&#45;&gt;Node21 -->
<g id="edge35" class="edge">
<title>Node22&#45;&gt;Node21</title>
<path fill="none" stroke="midnightblue" d="M463.06,-50.71C439.77,-44.18 413.65,-36.85 391.29,-30.58"/>
<polygon fill="midnightblue" stroke="midnightblue" points="462.27,-54.12 472.85,-53.45 464.16,-47.38 462.27,-54.12"/>
</g>
</g>
</svg>
        <g id="navigator" transform="translate(0 0)" fill="#404254">
                <rect fill="#f2f5e9" fill-opacity="0.5" stroke="#606060" stroke-width=".5" x="0" y="0" width="60" height="60"/>
                <use id="zoomplus" xlink:href="#zoomPlus" x="17" y="9" onmousedown="handleZoom(evt,'in')"/>
                <use id="zoomminus" xlink:href="#zoomMin" x="42" y="9" onmousedown="handleZoom(evt,'out')"/>
                <use id="reset" xlink:href="#resetDef" x="30" y="36" onmousedown="handleReset()"/>
                <g id="arrowUp" xlink:href="#dirArrow" transform="translate(30 24)" onmousedown="handlePan(0,-1)">
                  <use xlink:href="#rim" fill="#404040">
                        <set attributeName="fill" to="#808080" begin="arrowUp.mouseover" end="arrowUp.mouseout"/>
                  </use>
                  <path fill="none" stroke="white" stroke-width="1.5" d="M0,-3.0v7 M-2.5,-0.5L0,-3.0L2.5,-0.5"/>
                </g>
                <g id="arrowRight" xlink:href="#dirArrow" transform="rotate(90) translate(36 -43)" onmousedown="handlePan(1,0)">
                  <use xlink:href="#rim" fill="#404040">
                        <set attributeName="fill" to="#808080" begin="arrowRight.mouseover" end="arrowRight.mouseout"/>
                  </use>
                  <path fill="none" stroke="white" stroke-width="1.5" d="M0,-3.0v7 M-2.5,-0.5L0,-3.0L2.5,-0.5"/>
                </g>
                <g id="arrowDown" xlink:href="#dirArrow" transform="rotate(180) translate(-30 -48)" onmousedown="handlePan(0,1)">
                  <use xlink:href="#rim" fill="#404040">
                        <set attributeName="fill" to="#808080" begin="arrowDown.mouseover" end="arrowDown.mouseout"/>
                  </use>
                  <path fill="none" stroke="white" stroke-width="1.5" d="M0,-3.0v7 M-2.5,-0.5L0,-3.0L2.5,-0.5"/>
                </g>
                <g id="arrowLeft" xlink:href="#dirArrow" transform="rotate(270) translate(-36 17)" onmousedown="handlePan(-1,0)">
                  <use xlink:href="#rim" fill="#404040">
                        <set attributeName="fill" to="#808080" begin="arrowLeft.mouseover" end="arrowLeft.mouseout"/>
                  </use>
                  <path fill="none" stroke="white" stroke-width="1.5" d="M0,-3.0v7 M-2.5,-0.5L0,-3.0L2.5,-0.5"/>
                </g>
        </g>
        <svg viewBox="0 0 15 15" width="100%" height="30px" preserveAspectRatio="xMaxYMin meet">
         <g id="arrow_out" transform="scale(0.3 0.3)">
          <a xlink:href="classnlohmann_1_1detail_1_1binary__reader_a1f4b5da029a561c8711426b0a7316ec6_icgraph_org.svg" target="_base">
           <rect id="button" ry="5" rx="5" y="6" x="6" height="38" width="38"
                fill="#f2f5e9" fill-opacity="0.5" stroke="#606060" stroke-width="1.0"/>
           <path id="arrow"
             d="M 11.500037,31.436501 C 11.940474,20.09759 22.043105,11.32322 32.158766,21.979434 L 37.068811,17.246167 C 37.068811,17.246167 37.088388,32 37.088388,32 L 22.160133,31.978069 C 22.160133,31.978069 26.997745,27.140456 26.997745,27.140456 C 18.528582,18.264221 13.291696,25.230495 11.500037,31.436501 z"
             style="fill:#404040;"/>
          </a>
         </g>
        </svg>
</svg>
