<?xml version="1.0" encoding="UTF-8" standalone="no"?>
<!DOCTYPE svg PUBLIC "-//W3C//DTD SVG 1.1//EN"
 "http://www.w3.org/Graphics/SVG/1.1/DTD/svg11.dtd">
<!-- Generated by graphviz version 2.43.0 (0)
 -->
<!-- Title: nlohmann::detail::wide_string_input_adapter::get_character Pages: 1 -->
<svg width="219pt" height="50pt"
 viewBox="0.00 0.00 219.00 50.00" xmlns="http://www.w3.org/2000/svg" xmlns:xlink="http://www.w3.org/1999/xlink">
<g id="graph0" class="graph" transform="scale(1 1) rotate(0) translate(4 46)">
<title>nlohmann::detail::wide_string_input_adapter::get_character</title>
<polygon fill="white" stroke="transparent" points="-4,4 -4,-46 215,-46 215,4 -4,4"/>
<!-- Node1 -->
<g id="node1" class="node">
<title>Node1</title>
<g id="a_node1"><a xlink:title="get a character [0,255] or std::char_traits&lt;char&gt;::eof().">
<polygon fill="#bfbfbf" stroke="black" points="0,-0.5 0,-41.5 128,-41.5 128,-0.5 0,-0.5"/>
<text text-anchor="start" x="8" y="-29.5" font-family="Helvetica,sans-Serif" font-size="10.00">nlohmann::detail::wide</text>
<text text-anchor="start" x="8" y="-18.5" font-family="Helvetica,sans-Serif" font-size="10.00">_string_input_adapter</text>
<text text-anchor="middle" x="64" y="-7.5" font-family="Helvetica,sans-Serif" font-size="10.00">::get_character</text>
</a>
</g>
</g>
<!-- Node2 -->
<g id="node2" class="node">
<title>Node2</title>
<g id="a_node2"><a xlink:href="FuzzerTracePC_8cpp.html#a1f10ac78bd11294b612636121065eb5b" target="_top" xlink:title=" ">
<polygon fill="white" stroke="black" points="164,-11.5 164,-30.5 211,-30.5 211,-11.5 164,-11.5"/>
<text text-anchor="middle" x="187.5" y="-18.5" font-family="Helvetica,sans-Serif" font-size="10.00">assert</text>
</a>
</g>
</g>
<!-- Node1&#45;&gt;Node2 -->
<g id="edge1" class="edge">
<title>Node1&#45;&gt;Node2</title>
<path fill="none" stroke="midnightblue" d="M128.24,-21C137.04,-21 145.77,-21 153.69,-21"/>
<polygon fill="midnightblue" stroke="midnightblue" points="153.92,-24.5 163.92,-21 153.92,-17.5 153.92,-24.5"/>
</g>
</g>
</svg>
