<?xml version="1.0" encoding="UTF-8" standalone="no"?>
<!DOCTYPE svg PUBLIC "-//W3C//DTD SVG 1.1//EN"
 "http://www.w3.org/Graphics/SVG/1.1/DTD/svg11.dtd">
<!-- Generated by graphviz version 2.43.0 (0)
 -->
<!-- Title: fuzzer::MutationDispatcher::Mutate Pages: 1 -->
<svg width="749pt" height="127pt"
 viewBox="0.00 0.00 749.00 126.50" xmlns="http://www.w3.org/2000/svg" xmlns:xlink="http://www.w3.org/1999/xlink">
<g id="graph0" class="graph" transform="scale(1 1) rotate(0) translate(4 122.5)">
<title>fuzzer::MutationDispatcher::Mutate</title>
<polygon fill="white" stroke="transparent" points="-4,4 -4,-122.5 745,-122.5 745,4 -4,4"/>
<!-- Node1 -->
<g id="node1" class="node">
<title>Node1</title>
<g id="a_node1"><a xlink:title=" ">
<polygon fill="#bfbfbf" stroke="black" points="592,-39 592,-69 741,-69 741,-39 592,-39"/>
<text text-anchor="start" x="600" y="-57" font-family="Helvetica,sans-Serif" font-size="10.00">fuzzer::MutationDispatcher</text>
<text text-anchor="middle" x="666.5" y="-46" font-family="Helvetica,sans-Serif" font-size="10.00">::Mutate</text>
</a>
</g>
</g>
<!-- Node2 -->
<g id="node2" class="node">
<title>Node2</title>
<g id="a_node2"><a xlink:href="classfuzzer_1_1Fuzzer.html#a54326d89b0de8eb858c70dfa78c5cc57" target="_top" xlink:title=" ">
<polygon fill="white" stroke="black" points="417,-88 417,-118 552,-118 552,-88 417,-88"/>
<text text-anchor="start" x="425" y="-106" font-family="Helvetica,sans-Serif" font-size="10.00">fuzzer::Fuzzer::Minimize</text>
<text text-anchor="middle" x="484.5" y="-95" font-family="Helvetica,sans-Serif" font-size="10.00">CrashLoop</text>
</a>
</g>
</g>
<!-- Node1&#45;&gt;Node2 -->
<g id="edge1" class="edge">
<title>Node1&#45;&gt;Node2</title>
<path fill="none" stroke="midnightblue" d="M600.3,-71.75C580.79,-77.06 559.6,-82.83 540.79,-87.95"/>
<polygon fill="midnightblue" stroke="midnightblue" points="601.3,-75.11 610.03,-69.1 599.46,-68.35 601.3,-75.11"/>
</g>
<!-- Node6 -->
<g id="node6" class="node">
<title>Node6</title>
<g id="a_node6"><a xlink:href="classfuzzer_1_1Fuzzer.html#a9c3b80798ae30570306d7f938961dec3" target="_top" xlink:title=" ">
<polygon fill="white" stroke="black" points="413,-39 413,-69 556,-69 556,-39 413,-39"/>
<text text-anchor="start" x="421" y="-57" font-family="Helvetica,sans-Serif" font-size="10.00">fuzzer::Fuzzer::MutateAnd</text>
<text text-anchor="middle" x="484.5" y="-46" font-family="Helvetica,sans-Serif" font-size="10.00">TestOne</text>
</a>
</g>
</g>
<!-- Node1&#45;&gt;Node6 -->
<g id="edge5" class="edge">
<title>Node1&#45;&gt;Node6</title>
<path fill="none" stroke="midnightblue" d="M581.5,-54C573.05,-54 564.51,-54 556.21,-54"/>
<polygon fill="midnightblue" stroke="midnightblue" points="581.77,-57.5 591.77,-54 581.77,-50.5 581.77,-57.5"/>
</g>
<!-- Node8 -->
<g id="node8" class="node">
<title>Node8</title>
<g id="a_node8"><a xlink:href="FuzzerUnittest_8cpp.html#aeaef2bc2fb4a9c7af6db7ea1f0f198b7" target="_top" xlink:title=" ">
<polygon fill="white" stroke="black" points="464,-0.5 464,-19.5 505,-19.5 505,-0.5 464,-0.5"/>
<text text-anchor="middle" x="484.5" y="-7.5" font-family="Helvetica,sans-Serif" font-size="10.00">TEST</text>
</a>
</g>
</g>
<!-- Node1&#45;&gt;Node8 -->
<g id="edge8" class="edge">
<title>Node1&#45;&gt;Node8</title>
<path fill="none" stroke="midnightblue" d="M594.23,-36.58C562.16,-28.74 526.78,-20.09 505.34,-14.85"/>
<polygon fill="midnightblue" stroke="midnightblue" points="593.51,-40.01 604.06,-38.98 595.17,-33.21 593.51,-40.01"/>
</g>
<!-- Node3 -->
<g id="node3" class="node">
<title>Node3</title>
<g id="a_node3"><a xlink:href="namespacefuzzer.html#a1553a49adb4d4d19b4f4dd52ff54cb68" target="_top" xlink:title=" ">
<polygon fill="white" stroke="black" points="227,-86 227,-116 377,-116 377,-86 227,-86"/>
<text text-anchor="start" x="235" y="-104" font-family="Helvetica,sans-Serif" font-size="10.00">fuzzer::MinimizeCrashInput</text>
<text text-anchor="middle" x="302" y="-93" font-family="Helvetica,sans-Serif" font-size="10.00">InternalStep</text>
</a>
</g>
</g>
<!-- Node2&#45;&gt;Node3 -->
<g id="edge2" class="edge">
<title>Node2&#45;&gt;Node3</title>
<path fill="none" stroke="midnightblue" d="M406.66,-102.15C396.84,-102.04 386.8,-101.93 377.02,-101.82"/>
<polygon fill="midnightblue" stroke="midnightblue" points="406.76,-105.65 416.8,-102.26 406.84,-98.65 406.76,-105.65"/>
</g>
<!-- Node4 -->
<g id="node4" class="node">
<title>Node4</title>
<g id="a_node4"><a xlink:href="namespacefuzzer.html#a78f142089de84c6cbf7b5cab5f766af7" target="_top" xlink:title=" ">
<polygon fill="white" stroke="black" points="77,-68.5 77,-87.5 191,-87.5 191,-68.5 77,-68.5"/>
<text text-anchor="middle" x="134" y="-75.5" font-family="Helvetica,sans-Serif" font-size="10.00">fuzzer::FuzzerDriver</text>
</a>
</g>
</g>
<!-- Node3&#45;&gt;Node4 -->
<g id="edge3" class="edge">
<title>Node3&#45;&gt;Node4</title>
<path fill="none" stroke="midnightblue" d="M216.65,-89.31C208.05,-88.12 199.46,-86.93 191.27,-85.8"/>
<polygon fill="midnightblue" stroke="midnightblue" points="216.35,-92.81 226.74,-90.71 217.31,-85.87 216.35,-92.81"/>
</g>
<!-- Node5 -->
<g id="node5" class="node">
<title>Node5</title>
<g id="a_node5"><a xlink:href="FuzzerMain_8cpp.html#a3c04138a5bfe5d72780bb7e82a18e627" target="_top" xlink:title=" ">
<polygon fill="white" stroke="black" points="0,-68.5 0,-87.5 41,-87.5 41,-68.5 0,-68.5"/>
<text text-anchor="middle" x="20.5" y="-75.5" font-family="Helvetica,sans-Serif" font-size="10.00">main</text>
</a>
</g>
</g>
<!-- Node4&#45;&gt;Node5 -->
<g id="edge4" class="edge">
<title>Node4&#45;&gt;Node5</title>
<path fill="none" stroke="midnightblue" d="M66.7,-78C57.37,-78 48.45,-78 41.04,-78"/>
<polygon fill="midnightblue" stroke="midnightblue" points="66.92,-81.5 76.92,-78 66.92,-74.5 66.92,-81.5"/>
</g>
<!-- Node7 -->
<g id="node7" class="node">
<title>Node7</title>
<g id="a_node7"><a xlink:href="classfuzzer_1_1Fuzzer.html#a0306e29f06ced3d24ed0417ea2fef34b" target="_top" xlink:title=" ">
<polygon fill="white" stroke="black" points="245.5,-46.5 245.5,-65.5 358.5,-65.5 358.5,-46.5 245.5,-46.5"/>
<text text-anchor="middle" x="302" y="-53.5" font-family="Helvetica,sans-Serif" font-size="10.00">fuzzer::Fuzzer::Loop</text>
</a>
</g>
</g>
<!-- Node6&#45;&gt;Node7 -->
<g id="edge6" class="edge">
<title>Node6&#45;&gt;Node7</title>
<path fill="none" stroke="midnightblue" d="M402.72,-54.9C387.85,-55.06 372.64,-55.23 358.71,-55.38"/>
<polygon fill="midnightblue" stroke="midnightblue" points="402.98,-58.39 412.94,-54.78 402.9,-51.39 402.98,-58.39"/>
</g>
<!-- Node7&#45;&gt;Node4 -->
<g id="edge7" class="edge">
<title>Node7&#45;&gt;Node4</title>
<path fill="none" stroke="midnightblue" d="M235.29,-64.71C220.69,-66.64 205.34,-68.68 191.16,-70.56"/>
<polygon fill="midnightblue" stroke="midnightblue" points="235.81,-68.17 245.26,-63.39 234.89,-61.23 235.81,-68.17"/>
</g>
</g>
</svg>
