<?xml version="1.0" encoding="UTF-8" standalone="no"?>
<!DOCTYPE svg PUBLIC "-//W3C//DTD SVG 1.1//EN"
 "http://www.w3.org/Graphics/SVG/1.1/DTD/svg11.dtd">
<!-- Generated by graphviz version 2.43.0 (0)
 -->
<!-- Title: doctest::detail::ExceptionTranslator&lt; T &gt; Pages: 1 -->
<svg width="274pt" height="584pt"
 viewBox="0.00 0.00 273.50 584.00" xmlns="http://www.w3.org/2000/svg" xmlns:xlink="http://www.w3.org/1999/xlink">
<g id="graph0" class="graph" transform="scale(1 1) rotate(0) translate(4 580)">
<title>doctest::detail::ExceptionTranslator&lt; T &gt;</title>
<polygon fill="white" stroke="transparent" points="-4,4 -4,-580 269.5,-580 269.5,4 -4,4"/>
<!-- Node1 -->
<g id="node1" class="node">
<title>Node1</title>
<g id="a_node1"><a xlink:title="OCLINT destructor of virtual class.">
<polygon fill="#bfbfbf" stroke="black" points="43.5,-0.5 43.5,-79.5 183.5,-79.5 183.5,-0.5 43.5,-0.5"/>
<text text-anchor="start" x="51.5" y="-67.5" font-family="Helvetica,sans-Serif" font-size="10.00">doctest::detail::Exception</text>
<text text-anchor="middle" x="113.5" y="-56.5" font-family="Helvetica,sans-Serif" font-size="10.00">Translator&lt; T &gt;</text>
<polyline fill="none" stroke="black" points="43.5,-49.5 183.5,-49.5 "/>
<text text-anchor="middle" x="113.5" y="-37.5" font-family="Helvetica,sans-Serif" font-size="10.00"> </text>
<polyline fill="none" stroke="black" points="43.5,-30.5 183.5,-30.5 "/>
<text text-anchor="start" x="51.5" y="-18.5" font-family="Helvetica,sans-Serif" font-size="10.00">+ ExceptionTranslator()</text>
<text text-anchor="start" x="51.5" y="-7.5" font-family="Helvetica,sans-Serif" font-size="10.00">+ translate()</text>
</a>
</g>
</g>
<!-- Node2 -->
<g id="node2" class="node">
<title>Node2</title>
<g id="a_node2"><a xlink:href="structdoctest_1_1detail_1_1IExceptionTranslator.html" target="_top" xlink:title=" ">
<polygon fill="white" stroke="black" points="0,-243 0,-333 143,-333 143,-243 0,-243"/>
<text text-anchor="start" x="8" y="-321" font-family="Helvetica,sans-Serif" font-size="10.00">doctest::detail::IException</text>
<text text-anchor="middle" x="71.5" y="-310" font-family="Helvetica,sans-Serif" font-size="10.00">Translator</text>
<polyline fill="none" stroke="black" points="0,-303 143,-303 "/>
<text text-anchor="middle" x="71.5" y="-291" font-family="Helvetica,sans-Serif" font-size="10.00"> </text>
<polyline fill="none" stroke="black" points="0,-284 143,-284 "/>
<text text-anchor="start" x="8" y="-272" font-family="Helvetica,sans-Serif" font-size="10.00">+ IExceptionTranslator()</text>
<text text-anchor="start" x="8" y="-261" font-family="Helvetica,sans-Serif" font-size="10.00">+ ~IExceptionTranslator()</text>
<text text-anchor="start" x="8" y="-250" font-family="Helvetica,sans-Serif" font-size="10.00">+ translate()</text>
</a>
</g>
</g>
<!-- Node2&#45;&gt;Node1 -->
<g id="edge1" class="edge">
<title>Node2&#45;&gt;Node1</title>
<path fill="none" stroke="midnightblue" d="M80.74,-232.86C88.66,-186.5 99.86,-120.88 106.9,-79.65"/>
<polygon fill="none" stroke="midnightblue" points="77.29,-232.29 79.06,-242.74 84.19,-233.47 77.29,-232.29"/>
</g>
<!-- Node3 -->
<g id="node3" class="node">
<title>Node3</title>
<g id="a_node3"><a xlink:href="classdoctest_1_1String.html" target="_top" xlink:title=" ">
<polygon fill="white" stroke="black" points="161,-127.5 161,-448.5 254,-448.5 254,-127.5 161,-127.5"/>
<text text-anchor="middle" x="207.5" y="-436.5" font-family="Helvetica,sans-Serif" font-size="10.00">doctest::String</text>
<polyline fill="none" stroke="black" points="161,-429.5 254,-429.5 "/>
<text text-anchor="start" x="169" y="-417.5" font-family="Helvetica,sans-Serif" font-size="10.00">+ buf</text>
<text text-anchor="start" x="169" y="-406.5" font-family="Helvetica,sans-Serif" font-size="10.00">&#45; @1</text>
<text text-anchor="start" x="169" y="-395.5" font-family="Helvetica,sans-Serif" font-size="10.00">&#45; len</text>
<text text-anchor="start" x="169" y="-384.5" font-family="Helvetica,sans-Serif" font-size="10.00">&#45; last</text>
<polyline fill="none" stroke="black" points="161,-377.5 254,-377.5 "/>
<text text-anchor="start" x="169" y="-365.5" font-family="Helvetica,sans-Serif" font-size="10.00">+ String()</text>
<text text-anchor="start" x="169" y="-354.5" font-family="Helvetica,sans-Serif" font-size="10.00">+ ~String()</text>
<text text-anchor="start" x="169" y="-343.5" font-family="Helvetica,sans-Serif" font-size="10.00">+ String()</text>
<text text-anchor="start" x="169" y="-332.5" font-family="Helvetica,sans-Serif" font-size="10.00">+ String()</text>
<text text-anchor="start" x="169" y="-321.5" font-family="Helvetica,sans-Serif" font-size="10.00">+ String()</text>
<text text-anchor="start" x="169" y="-310.5" font-family="Helvetica,sans-Serif" font-size="10.00">+ operator=()</text>
<text text-anchor="start" x="169" y="-299.5" font-family="Helvetica,sans-Serif" font-size="10.00">+ operator+=()</text>
<text text-anchor="start" x="169" y="-288.5" font-family="Helvetica,sans-Serif" font-size="10.00">+ operator+()</text>
<text text-anchor="start" x="169" y="-277.5" font-family="Helvetica,sans-Serif" font-size="10.00">+ String()</text>
<text text-anchor="start" x="169" y="-266.5" font-family="Helvetica,sans-Serif" font-size="10.00">+ operator=()</text>
<text text-anchor="start" x="169" y="-255.5" font-family="Helvetica,sans-Serif" font-size="10.00">+ operator[]()</text>
<text text-anchor="start" x="169" y="-244.5" font-family="Helvetica,sans-Serif" font-size="10.00">+ operator[]()</text>
<text text-anchor="start" x="169" y="-233.5" font-family="Helvetica,sans-Serif" font-size="10.00">+ c_str()</text>
<text text-anchor="start" x="169" y="-222.5" font-family="Helvetica,sans-Serif" font-size="10.00">+ c_str()</text>
<text text-anchor="start" x="169" y="-211.5" font-family="Helvetica,sans-Serif" font-size="10.00">+ size()</text>
<text text-anchor="start" x="169" y="-200.5" font-family="Helvetica,sans-Serif" font-size="10.00">+ capacity()</text>
<text text-anchor="start" x="169" y="-189.5" font-family="Helvetica,sans-Serif" font-size="10.00">+ compare()</text>
<text text-anchor="start" x="169" y="-178.5" font-family="Helvetica,sans-Serif" font-size="10.00">+ compare()</text>
<text text-anchor="start" x="169" y="-167.5" font-family="Helvetica,sans-Serif" font-size="10.00">&#45; isOnStack()</text>
<text text-anchor="start" x="169" y="-156.5" font-family="Helvetica,sans-Serif" font-size="10.00">&#45; setOnHeap()</text>
<text text-anchor="start" x="169" y="-145.5" font-family="Helvetica,sans-Serif" font-size="10.00">&#45; setLast()</text>
<text text-anchor="start" x="169" y="-134.5" font-family="Helvetica,sans-Serif" font-size="10.00">&#45; copy()</text>
</a>
</g>
</g>
<!-- Node3&#45;&gt;Node1 -->
<g id="edge2" class="edge">
<title>Node3&#45;&gt;Node1</title>
<path fill="none" stroke="#404040" d="M160.92,-148.8C158.14,-141.4 155.32,-134.1 152.5,-127 147.77,-115.11 142.3,-102.47 136.98,-90.65"/>
<polygon fill="none" stroke="#404040" points="136.93,-90.54 130.8,-86.74 131.96,-79.62 138.08,-83.42 136.93,-90.54"/>
<text text-anchor="middle" x="198" y="-101" font-family="Helvetica,sans-Serif" font-size="10.00"> &#45;m_translateFunction</text>
</g>
<!-- Node4 -->
<g id="node4" class="node">
<title>Node4</title>
<g id="a_node4"><a xlink:href="structdoctest_1_1String_1_1view.html" target="_top" xlink:title="OCLINT avoid private static members.">
<polygon fill="white" stroke="black" points="149.5,-496.5 149.5,-575.5 265.5,-575.5 265.5,-496.5 149.5,-496.5"/>
<text text-anchor="middle" x="207.5" y="-563.5" font-family="Helvetica,sans-Serif" font-size="10.00">doctest::String::view</text>
<polyline fill="none" stroke="black" points="149.5,-556.5 265.5,-556.5 "/>
<text text-anchor="start" x="157.5" y="-544.5" font-family="Helvetica,sans-Serif" font-size="10.00">+ ptr</text>
<text text-anchor="start" x="157.5" y="-533.5" font-family="Helvetica,sans-Serif" font-size="10.00">+ size</text>
<text text-anchor="start" x="157.5" y="-522.5" font-family="Helvetica,sans-Serif" font-size="10.00">+ capacity</text>
<polyline fill="none" stroke="black" points="149.5,-515.5 265.5,-515.5 "/>
<text text-anchor="middle" x="207.5" y="-503.5" font-family="Helvetica,sans-Serif" font-size="10.00"> </text>
</a>
</g>
</g>
<!-- Node4&#45;&gt;Node3 -->
<g id="edge3" class="edge">
<title>Node4&#45;&gt;Node3</title>
<path fill="none" stroke="#404040" d="M207.5,-496.29C207.5,-485.78 207.5,-473.68 207.5,-460.72"/>
<polygon fill="none" stroke="#404040" points="207.5,-460.6 203.5,-454.6 207.5,-448.6 211.5,-454.6 207.5,-460.6"/>
<text text-anchor="middle" x="224.5" y="-470" font-family="Helvetica,sans-Serif" font-size="10.00"> +data</text>
</g>
</g>
</svg>
