<?xml version="1.0" encoding="UTF-8" standalone="no"?>
<!DOCTYPE svg PUBLIC "-//W3C//DTD SVG 1.1//EN"
 "http://www.w3.org/Graphics/SVG/1.1/DTD/svg11.dtd">
<!-- Generated by graphviz version 2.43.0 (0)
 -->
<!-- Title: httplib::ClientImpl::write_content_with_provider Pages: 1 -->
<!--zoomable 268 -->
<svg id="main" version="1.1" xmlns="http://www.w3.org/2000/svg" xmlns:xlink="http://www.w3.org/1999/xlink" xml:space="preserve" onload="init(evt)">
<style type="text/css"><![CDATA[
.edge:hover path { stroke: red; }
.edge:hover polygon { stroke: red; fill: red; }
]]></style>
<script type="text/javascript"><![CDATA[
var edges = document.getElementsByTagName('g');
if (edges && edges.length) {
  for (var i=0;i<edges.length;i++) {
    if (edges[i].id.substr(0,4)=='edge') {
      edges[i].setAttribute('class','edge');
    }
  }
}
]]></script>
        <defs>
                <circle id="rim" cx="0" cy="0" r="7"/>
                <circle id="rim2" cx="0" cy="0" r="3.5"/>
                <g id="zoomPlus">
                        <use xlink:href="#rim" fill="#404040">
                                <set attributeName="fill" to="#808080" begin="zoomplus.mouseover" end="zoomplus.mouseout"/>
                        </use>
                        <path d="M-4,0h8M0,-4v8" fill="none" stroke="white" stroke-width="1.5" pointer-events="none"/>
                </g>
                <g id="zoomMin">
                        <use xlink:href="#rim" fill="#404040">
                                <set attributeName="fill" to="#808080" begin="zoomminus.mouseover" end="zoomminus.mouseout"/>
                        </use>
                        <path d="M-4,0h8" fill="none" stroke="white" stroke-width="1.5" pointer-events="none"/>
                </g>
                <g id="dirArrow">
                        <path fill="none" stroke="white" stroke-width="1.5" d="M0,-3.0v7 M-2.5,-0.5L0,-3.0L2.5,-0.5"/>
                </g>
               <g id="resetDef">
                       <use xlink:href="#rim2" fill="#404040">
                               <set attributeName="fill" to="#808080" begin="reset.mouseover" end="reset.mouseout"/>
                       </use>
               </g>
        </defs>

<script type="text/javascript">
var viewWidth = 940;
var viewHeight = 268;
var sectionId = 'dynsection-111';
</script>
<script xlink:href="svgpan.js"/>
<svg id="graph" class="graph">
<g id="viewport">
<title>httplib::ClientImpl::write_content_with_provider</title>
<polygon fill="white" stroke="transparent" points="-4,4 -4,-263.5 936,-263.5 936,4 -4,4"/>
<!-- Node1 -->
<g id="node1" class="node">
<title>Node1</title>
<g id="a_node1"><a xlink:title=" ">
<polygon fill="#bfbfbf" stroke="black" points="0,-160 0,-201 116,-201 116,-160 0,-160"/>
<text text-anchor="start" x="8" y="-189" font-family="Helvetica,sans-Serif" font-size="10.00">httplib::ClientImpl</text>
<text text-anchor="start" x="8" y="-178" font-family="Helvetica,sans-Serif" font-size="10.00">::write_content_with</text>
<text text-anchor="middle" x="58" y="-167" font-family="Helvetica,sans-Serif" font-size="10.00">_provider</text>
</a>
</g>
</g>
<!-- Node2 -->
<g id="node2" class="node">
<title>Node2</title>
<g id="a_node2"><a xlink:href="namespacehttplib_1_1detail.html#ac17dd7d7a80ce12e5966f5f577b67a75" target="_top" xlink:title=" ">
<polygon fill="white" stroke="black" points="152,-190.5 152,-220.5 265,-220.5 265,-190.5 152,-190.5"/>
<text text-anchor="start" x="160" y="-208.5" font-family="Helvetica,sans-Serif" font-size="10.00">httplib::detail::write</text>
<text text-anchor="middle" x="208.5" y="-197.5" font-family="Helvetica,sans-Serif" font-size="10.00">_content</text>
</a>
</g>
</g>
<!-- Node1&#45;&gt;Node2 -->
<g id="edge1" class="edge">
<title>Node1&#45;&gt;Node2</title>
<path fill="none" stroke="midnightblue" d="M116.41,-190.17C124.65,-191.55 133.18,-192.99 141.57,-194.4"/>
<polygon fill="midnightblue" stroke="midnightblue" points="141.26,-197.9 151.7,-196.11 142.42,-191 141.26,-197.9"/>
</g>
<!-- Node6 -->
<g id="node6" class="node">
<title>Node6</title>
<g id="a_node6"><a xlink:href="namespacehttplib_1_1detail.html#af586311a8460e53bac51d7d02802ede9" target="_top" xlink:title=" ">
<polygon fill="white" stroke="black" points="152,-141.5 152,-171.5 265,-171.5 265,-141.5 152,-141.5"/>
<text text-anchor="start" x="160" y="-159.5" font-family="Helvetica,sans-Serif" font-size="10.00">httplib::detail::write</text>
<text text-anchor="middle" x="208.5" y="-148.5" font-family="Helvetica,sans-Serif" font-size="10.00">_content_chunked</text>
</a>
</g>
</g>
<!-- Node1&#45;&gt;Node6 -->
<g id="edge5" class="edge">
<title>Node1&#45;&gt;Node6</title>
<path fill="none" stroke="midnightblue" d="M116.41,-171.22C124.65,-169.89 133.18,-168.51 141.57,-167.15"/>
<polygon fill="midnightblue" stroke="midnightblue" points="142.39,-170.57 151.7,-165.52 141.27,-163.66 142.39,-170.57"/>
</g>
<!-- Node3 -->
<g id="node3" class="node">
<title>Node3</title>
<g id="a_node3"><a xlink:href="classhttplib_1_1Stream.html#ab10c55e43ccf0146c4d142e53a58a831" target="_top" xlink:title=" ">
<polygon fill="white" stroke="black" points="321.5,-190.5 321.5,-220.5 425.5,-220.5 425.5,-190.5 321.5,-190.5"/>
<text text-anchor="start" x="329.5" y="-208.5" font-family="Helvetica,sans-Serif" font-size="10.00">httplib::Stream::is</text>
<text text-anchor="middle" x="373.5" y="-197.5" font-family="Helvetica,sans-Serif" font-size="10.00">_writable</text>
</a>
</g>
</g>
<!-- Node2&#45;&gt;Node3 -->
<g id="edge2" class="edge">
<title>Node2&#45;&gt;Node3</title>
<path fill="none" stroke="midnightblue" d="M265.14,-205.5C279.98,-205.5 296.09,-205.5 311.21,-205.5"/>
<polygon fill="midnightblue" stroke="midnightblue" points="311.49,-209 321.49,-205.5 311.49,-202 311.49,-209"/>
</g>
<!-- Node4 -->
<g id="node4" class="node">
<title>Node4</title>
<g id="a_node4"><a xlink:href="namespacehttplib_1_1detail.html#aefec7c4fea53eda1af3a7362002c5223" target="_top" xlink:title=" ">
<polygon fill="white" stroke="black" points="303.5,-240 303.5,-259 443.5,-259 443.5,-240 303.5,-240"/>
<text text-anchor="middle" x="373.5" y="-247" font-family="Helvetica,sans-Serif" font-size="10.00">httplib::detail::write_data</text>
</a>
</g>
</g>
<!-- Node2&#45;&gt;Node4 -->
<g id="edge3" class="edge">
<title>Node2&#45;&gt;Node4</title>
<path fill="none" stroke="midnightblue" d="M264.16,-220.5C276.28,-223.81 289.07,-227.29 301,-230.5 309.29,-232.73 318.13,-235.1 326.66,-237.37"/>
<polygon fill="midnightblue" stroke="midnightblue" points="325.92,-240.79 336.48,-239.98 327.72,-234.03 325.92,-240.79"/>
</g>
<!-- Node5 -->
<g id="node5" class="node">
<title>Node5</title>
<g id="a_node5"><a xlink:href="classhttplib_1_1Stream.html#a4b94583ae90065c9e4e33a7752d9976f" target="_top" xlink:title=" ">
<polygon fill="white" stroke="black" points="486,-240 486,-259 606,-259 606,-240 486,-240"/>
<text text-anchor="middle" x="546" y="-247" font-family="Helvetica,sans-Serif" font-size="10.00">httplib::Stream::write</text>
</a>
</g>
</g>
<!-- Node4&#45;&gt;Node5 -->
<g id="edge4" class="edge">
<title>Node4&#45;&gt;Node5</title>
<path fill="none" stroke="midnightblue" d="M443.85,-249.5C454.29,-249.5 465.06,-249.5 475.51,-249.5"/>
<polygon fill="midnightblue" stroke="midnightblue" points="475.82,-253 485.82,-249.5 475.82,-246 475.82,-253"/>
</g>
<!-- Node6&#45;&gt;Node3 -->
<g id="edge8" class="edge">
<title>Node6&#45;&gt;Node3</title>
<path fill="none" stroke="midnightblue" d="M259.74,-171.6C276.39,-176.61 295.1,-182.23 312.42,-187.44"/>
<polygon fill="midnightblue" stroke="midnightblue" points="311.85,-190.92 322.43,-190.45 313.86,-184.22 311.85,-190.92"/>
</g>
<!-- Node6&#45;&gt;Node4 -->
<g id="edge15" class="edge">
<title>Node6&#45;&gt;Node4</title>
<path fill="none" stroke="midnightblue" d="M249.77,-171.62C255.16,-174.49 260.4,-177.78 265,-181.5 286.01,-198.5 278.67,-215.28 301,-230.5 304.04,-232.58 307.3,-234.42 310.69,-236.07"/>
<polygon fill="midnightblue" stroke="midnightblue" points="309.33,-239.3 319.91,-239.98 312.06,-232.85 309.33,-239.3"/>
</g>
<!-- Node7 -->
<g id="node7" class="node">
<title>Node7</title>
<g id="a_node7"><a xlink:href="classhttplib_1_1detail_1_1compressor.html#a7cf1de9ae8f5d01316de7b666e66192d" target="_top" xlink:title=" ">
<polygon fill="white" stroke="black" points="301,-141.5 301,-171.5 446,-171.5 446,-141.5 301,-141.5"/>
<text text-anchor="start" x="309" y="-159.5" font-family="Helvetica,sans-Serif" font-size="10.00">httplib::detail::compressor</text>
<text text-anchor="middle" x="373.5" y="-148.5" font-family="Helvetica,sans-Serif" font-size="10.00">::compress</text>
</a>
</g>
</g>
<!-- Node6&#45;&gt;Node7 -->
<g id="edge6" class="edge">
<title>Node6&#45;&gt;Node7</title>
<path fill="none" stroke="midnightblue" d="M265.14,-156.5C273.43,-156.5 282.11,-156.5 290.8,-156.5"/>
<polygon fill="midnightblue" stroke="midnightblue" points="290.97,-160 300.97,-156.5 290.97,-153 290.97,-160"/>
</g>
<!-- Node8 -->
<g id="node8" class="node">
<title>Node8</title>
<g id="a_node8"><a xlink:href="namespacehttplib_1_1detail.html#ac08f80eff074b5a4adcb6e160a1380a5" target="_top" xlink:title=" ">
<polygon fill="white" stroke="black" points="318,-92.5 318,-122.5 429,-122.5 429,-92.5 318,-92.5"/>
<text text-anchor="start" x="326" y="-110.5" font-family="Helvetica,sans-Serif" font-size="10.00">httplib::detail::from</text>
<text text-anchor="middle" x="373.5" y="-99.5" font-family="Helvetica,sans-Serif" font-size="10.00">_i_to_hex</text>
</a>
</g>
</g>
<!-- Node6&#45;&gt;Node8 -->
<g id="edge7" class="edge">
<title>Node6&#45;&gt;Node8</title>
<path fill="none" stroke="midnightblue" d="M259.74,-141.4C276.39,-136.39 295.1,-130.77 312.42,-125.56"/>
<polygon fill="midnightblue" stroke="midnightblue" points="313.86,-128.78 322.43,-122.55 311.85,-122.08 313.86,-128.78"/>
</g>
<!-- Node9 -->
<g id="node9" class="node">
<title>Node9</title>
<g id="a_node9"><a xlink:href="namespacenlohmann_1_1detail.html#a59fca69799f6b9e366710cb9043aa77d" target="_top" xlink:title=" ">
<polygon fill="white" stroke="black" points="310.5,-54 310.5,-73 436.5,-73 436.5,-54 310.5,-54"/>
<text text-anchor="middle" x="373.5" y="-61" font-family="Helvetica,sans-Serif" font-size="10.00">nlohmann::detail::void</text>
</a>
</g>
</g>
<!-- Node6&#45;&gt;Node9 -->
<g id="edge9" class="edge">
<title>Node6&#45;&gt;Node9</title>
<path fill="none" stroke="midnightblue" d="M224.34,-141.48C241.41,-125 270.97,-98.87 301,-83.5 306.29,-80.79 312,-78.41 317.8,-76.32"/>
<polygon fill="midnightblue" stroke="midnightblue" points="319.19,-79.55 327.59,-73.09 317,-72.9 319.19,-79.55"/>
</g>
<!-- Node10 -->
<g id="node10" class="node">
<title>Node10</title>
<g id="a_node10"><a xlink:href="classnlohmann_1_1detail_1_1type__error.html#aecc083aea4b698c33d042670ba50c10f" target="_top" xlink:title=" ">
<polygon fill="white" stroke="black" points="482.5,-24.5 482.5,-54.5 609.5,-54.5 609.5,-24.5 482.5,-24.5"/>
<text text-anchor="start" x="490.5" y="-42.5" font-family="Helvetica,sans-Serif" font-size="10.00">nlohmann::detail::type</text>
<text text-anchor="middle" x="546" y="-31.5" font-family="Helvetica,sans-Serif" font-size="10.00">_error::create</text>
</a>
</g>
</g>
<!-- Node9&#45;&gt;Node10 -->
<g id="edge10" class="edge">
<title>Node9&#45;&gt;Node10</title>
<path fill="none" stroke="midnightblue" d="M436.54,-54.77C448.22,-53.12 460.52,-51.39 472.49,-49.71"/>
<polygon fill="midnightblue" stroke="midnightblue" points="473.02,-53.17 482.44,-48.31 472.05,-46.23 473.02,-53.17"/>
</g>
<!-- Node14 -->
<g id="node14" class="node">
<title>Node14</title>
<g id="a_node14"><a xlink:href="namespacenlohmann_1_1detail.html#a40f7bb070a60e8ba14fffb9c117fcbd8" target="_top" xlink:title=" ">
<polygon fill="white" stroke="black" points="482,-73.5 482,-103.5 610,-103.5 610,-73.5 482,-73.5"/>
<text text-anchor="start" x="490" y="-91.5" font-family="Helvetica,sans-Serif" font-size="10.00">nlohmann::detail::from</text>
<text text-anchor="middle" x="546" y="-80.5" font-family="Helvetica,sans-Serif" font-size="10.00">_json_array_impl</text>
</a>
</g>
</g>
<!-- Node9&#45;&gt;Node14 -->
<g id="edge14" class="edge">
<title>Node9&#45;&gt;Node14</title>
<path fill="none" stroke="midnightblue" d="M436.54,-72.6C447.95,-74.27 459.97,-76.03 471.68,-77.75"/>
<polygon fill="midnightblue" stroke="midnightblue" points="471.46,-81.25 481.87,-79.24 472.48,-74.33 471.46,-81.25"/>
</g>
<!-- Node11 -->
<g id="node11" class="node">
<title>Node11</title>
<g id="a_node11"><a xlink:href="classnlohmann_1_1detail_1_1exception.html#abf41a7e9178356314082284e6cfea278" target="_top" xlink:title=" ">
<polygon fill="white" stroke="black" points="646,-49.5 646,-79.5 799,-79.5 799,-49.5 646,-49.5"/>
<text text-anchor="start" x="654" y="-67.5" font-family="Helvetica,sans-Serif" font-size="10.00">nlohmann::detail::exception</text>
<text text-anchor="middle" x="722.5" y="-56.5" font-family="Helvetica,sans-Serif" font-size="10.00">::name</text>
</a>
</g>
</g>
<!-- Node10&#45;&gt;Node11 -->
<g id="edge11" class="edge">
<title>Node10&#45;&gt;Node11</title>
<path fill="none" stroke="midnightblue" d="M609.51,-48.45C618.03,-49.68 626.9,-50.95 635.75,-52.22"/>
<polygon fill="midnightblue" stroke="midnightblue" points="635.32,-55.69 645.72,-53.64 636.31,-48.76 635.32,-55.69"/>
</g>
<!-- Node13 -->
<g id="node13" class="node">
<title>Node13</title>
<g id="a_node13"><a xlink:href="classnlohmann_1_1detail_1_1type__error.html#aa01edaa0bf18b853368f0b900e485cd7" target="_top" xlink:title=" ">
<polygon fill="white" stroke="black" points="659,-0.5 659,-30.5 786,-30.5 786,-0.5 659,-0.5"/>
<text text-anchor="start" x="667" y="-18.5" font-family="Helvetica,sans-Serif" font-size="10.00">nlohmann::detail::type</text>
<text text-anchor="middle" x="722.5" y="-7.5" font-family="Helvetica,sans-Serif" font-size="10.00">_error::type_error</text>
</a>
</g>
</g>
<!-- Node10&#45;&gt;Node13 -->
<g id="edge13" class="edge">
<title>Node10&#45;&gt;Node13</title>
<path fill="none" stroke="midnightblue" d="M609.51,-30.9C622.29,-29.15 635.84,-27.28 648.94,-25.48"/>
<polygon fill="midnightblue" stroke="midnightblue" points="649.41,-28.95 658.84,-24.12 648.46,-22.01 649.41,-28.95"/>
</g>
<!-- Node12 -->
<g id="node12" class="node">
<title>Node12</title>
<g id="a_node12"><a xlink:href="namespacehttplib.html#a498c3a79825ecbcb15c52ec5fcfd5c11" target="_top" xlink:title=" ">
<polygon fill="white" stroke="black" points="835,-55 835,-74 932,-74 932,-55 835,-55"/>
<text text-anchor="middle" x="883.5" y="-62" font-family="Helvetica,sans-Serif" font-size="10.00">httplib::to_string</text>
</a>
</g>
</g>
<!-- Node11&#45;&gt;Node12 -->
<g id="edge12" class="edge">
<title>Node11&#45;&gt;Node12</title>
<path fill="none" stroke="midnightblue" d="M799.27,-64.5C807.82,-64.5 816.43,-64.5 824.7,-64.5"/>
<polygon fill="midnightblue" stroke="midnightblue" points="824.96,-68 834.96,-64.5 824.96,-61 824.96,-68"/>
</g>
</g>
</svg>
        <g id="navigator" transform="translate(0 0)" fill="#404254">
                <rect fill="#f2f5e9" fill-opacity="0.5" stroke="#606060" stroke-width=".5" x="0" y="0" width="60" height="60"/>
                <use id="zoomplus" xlink:href="#zoomPlus" x="17" y="9" onmousedown="handleZoom(evt,'in')"/>
                <use id="zoomminus" xlink:href="#zoomMin" x="42" y="9" onmousedown="handleZoom(evt,'out')"/>
                <use id="reset" xlink:href="#resetDef" x="30" y="36" onmousedown="handleReset()"/>
                <g id="arrowUp" xlink:href="#dirArrow" transform="translate(30 24)" onmousedown="handlePan(0,-1)">
                  <use xlink:href="#rim" fill="#404040">
                        <set attributeName="fill" to="#808080" begin="arrowUp.mouseover" end="arrowUp.mouseout"/>
                  </use>
                  <path fill="none" stroke="white" stroke-width="1.5" d="M0,-3.0v7 M-2.5,-0.5L0,-3.0L2.5,-0.5"/>
                </g>
                <g id="arrowRight" xlink:href="#dirArrow" transform="rotate(90) translate(36 -43)" onmousedown="handlePan(1,0)">
                  <use xlink:href="#rim" fill="#404040">
                        <set attributeName="fill" to="#808080" begin="arrowRight.mouseover" end="arrowRight.mouseout"/>
                  </use>
                  <path fill="none" stroke="white" stroke-width="1.5" d="M0,-3.0v7 M-2.5,-0.5L0,-3.0L2.5,-0.5"/>
                </g>
                <g id="arrowDown" xlink:href="#dirArrow" transform="rotate(180) translate(-30 -48)" onmousedown="handlePan(0,1)">
                  <use xlink:href="#rim" fill="#404040">
                        <set attributeName="fill" to="#808080" begin="arrowDown.mouseover" end="arrowDown.mouseout"/>
                  </use>
                  <path fill="none" stroke="white" stroke-width="1.5" d="M0,-3.0v7 M-2.5,-0.5L0,-3.0L2.5,-0.5"/>
                </g>
                <g id="arrowLeft" xlink:href="#dirArrow" transform="rotate(270) translate(-36 17)" onmousedown="handlePan(-1,0)">
                  <use xlink:href="#rim" fill="#404040">
                        <set attributeName="fill" to="#808080" begin="arrowLeft.mouseover" end="arrowLeft.mouseout"/>
                  </use>
                  <path fill="none" stroke="white" stroke-width="1.5" d="M0,-3.0v7 M-2.5,-0.5L0,-3.0L2.5,-0.5"/>
                </g>
        </g>
        <svg viewBox="0 0 15 15" width="100%" height="30px" preserveAspectRatio="xMaxYMin meet">
         <g id="arrow_out" transform="scale(0.3 0.3)">
          <a xlink:href="classhttplib_1_1ClientImpl_a32a67b25f6fbd37756192d7b840fc53f_cgraph_org.svg" target="_base">
           <rect id="button" ry="5" rx="5" y="6" x="6" height="38" width="38"
                fill="#f2f5e9" fill-opacity="0.5" stroke="#606060" stroke-width="1.0"/>
           <path id="arrow"
             d="M 11.500037,31.436501 C 11.940474,20.09759 22.043105,11.32322 32.158766,21.979434 L 37.068811,17.246167 C 37.068811,17.246167 37.088388,32 37.088388,32 L 22.160133,31.978069 C 22.160133,31.978069 26.997745,27.140456 26.997745,27.140456 C 18.528582,18.264221 13.291696,25.230495 11.500037,31.436501 z"
             style="fill:#404040;"/>
          </a>
         </g>
        </svg>
</svg>
