<?xml version="1.0" encoding="UTF-8" standalone="no"?>
<!DOCTYPE svg PUBLIC "-//W3C//DTD SVG 1.1//EN"
 "http://www.w3.org/Graphics/SVG/1.1/DTD/svg11.dtd">
<!-- Generated by graphviz version 2.43.0 (0)
 -->
<!-- Title: httplib::Server::listen Pages: 1 -->
<svg width="652pt" height="110pt"
 viewBox="0.00 0.00 652.00 110.00" xmlns="http://www.w3.org/2000/svg" xmlns:xlink="http://www.w3.org/1999/xlink">
<g id="graph0" class="graph" transform="scale(1 1) rotate(0) translate(4 106)">
<title>httplib::Server::listen</title>
<polygon fill="white" stroke="transparent" points="-4,4 -4,-106 648,-106 648,4 -4,4"/>
<!-- Node1 -->
<g id="node1" class="node">
<title>Node1</title>
<g id="a_node1"><a xlink:title=" ">
<polygon fill="#bfbfbf" stroke="black" points="525,-28 525,-47 644,-47 644,-28 525,-28"/>
<text text-anchor="middle" x="584.5" y="-35" font-family="Helvetica,sans-Serif" font-size="10.00">httplib::Server::listen</text>
</a>
</g>
</g>
<!-- Node2 -->
<g id="node2" class="node">
<title>Node2</title>
<g id="a_node2"><a xlink:href="classhttplib_1_1Server.html#a95489183f727c825e8a9ff041d31c35a" target="_top" xlink:title=" ">
<polygon fill="white" stroke="black" points="332.5,-71.5 332.5,-101.5 454.5,-101.5 454.5,-71.5 332.5,-71.5"/>
<text text-anchor="start" x="340.5" y="-89.5" font-family="Helvetica,sans-Serif" font-size="10.00">httplib::Server::create</text>
<text text-anchor="middle" x="393.5" y="-78.5" font-family="Helvetica,sans-Serif" font-size="10.00">_server_socket</text>
</a>
</g>
</g>
<!-- Node1&#45;&gt;Node2 -->
<g id="edge1" class="edge">
<title>Node1&#45;&gt;Node2</title>
<path fill="none" stroke="midnightblue" d="M537.76,-49.7C522.29,-53.8 504.9,-58.38 489,-62.5 477.69,-65.43 465.62,-68.53 454.01,-71.48"/>
<polygon fill="midnightblue" stroke="midnightblue" points="538.86,-53.03 547.62,-47.08 537.06,-46.26 538.86,-53.03"/>
</g>
<!-- Node6 -->
<g id="node6" class="node">
<title>Node6</title>
<g id="a_node6"><a xlink:href="classServerHandler.html#af3ecda4d745ef95296198e41ac3cf6e1" target="_top" xlink:title="start LFO server">
<polygon fill="white" stroke="black" points="298,-22.5 298,-52.5 489,-52.5 489,-22.5 298,-22.5"/>
<text text-anchor="start" x="306" y="-40.5" font-family="Helvetica,sans-Serif" font-size="10.00">ServerHandler::StartMcOrchestrator</text>
<text text-anchor="middle" x="393.5" y="-29.5" font-family="Helvetica,sans-Serif" font-size="10.00">Server</text>
</a>
</g>
</g>
<!-- Node1&#45;&gt;Node6 -->
<g id="edge6" class="edge">
<title>Node1&#45;&gt;Node6</title>
<path fill="none" stroke="midnightblue" d="M514.94,-37.5C506.56,-37.5 497.88,-37.5 489.2,-37.5"/>
<polygon fill="midnightblue" stroke="midnightblue" points="514.99,-41 524.99,-37.5 514.99,-34 514.99,-41"/>
</g>
<!-- Node3 -->
<g id="node3" class="node">
<title>Node3</title>
<g id="a_node3"><a xlink:href="classhttplib_1_1Server.html#a238aa1a28613b9639977816292427208" target="_top" xlink:title=" ">
<polygon fill="white" stroke="black" points="149,-60.5 149,-90.5 262,-90.5 262,-60.5 149,-60.5"/>
<text text-anchor="start" x="157" y="-78.5" font-family="Helvetica,sans-Serif" font-size="10.00">httplib::Server::bind</text>
<text text-anchor="middle" x="205.5" y="-67.5" font-family="Helvetica,sans-Serif" font-size="10.00">_internal</text>
</a>
</g>
</g>
<!-- Node2&#45;&gt;Node3 -->
<g id="edge2" class="edge">
<title>Node2&#45;&gt;Node3</title>
<path fill="none" stroke="midnightblue" d="M322.12,-82.34C302.24,-81.16 280.89,-79.9 262.01,-78.78"/>
<polygon fill="midnightblue" stroke="midnightblue" points="322.18,-85.85 332.37,-82.94 322.59,-78.86 322.18,-85.85"/>
</g>
<!-- Node4 -->
<g id="node4" class="node">
<title>Node4</title>
<g id="a_node4"><a xlink:href="classhttplib_1_1Server.html#a5535b14de270d9bc64deae069a55592a" target="_top" xlink:title=" ">
<polygon fill="white" stroke="black" points="0,-60.5 0,-90.5 113,-90.5 113,-60.5 0,-60.5"/>
<text text-anchor="start" x="8" y="-78.5" font-family="Helvetica,sans-Serif" font-size="10.00">httplib::Server::bind</text>
<text text-anchor="middle" x="56.5" y="-67.5" font-family="Helvetica,sans-Serif" font-size="10.00">_to_any_port</text>
</a>
</g>
</g>
<!-- Node3&#45;&gt;Node4 -->
<g id="edge3" class="edge">
<title>Node3&#45;&gt;Node4</title>
<path fill="none" stroke="midnightblue" d="M138.92,-75.5C130.32,-75.5 121.57,-75.5 113.15,-75.5"/>
<polygon fill="midnightblue" stroke="midnightblue" points="138.93,-79 148.93,-75.5 138.93,-72 138.93,-79"/>
</g>
<!-- Node5 -->
<g id="node5" class="node">
<title>Node5</title>
<g id="a_node5"><a xlink:href="classhttplib_1_1Server.html#a5bde755667689ba58fa80eedcc4fd2f3" target="_top" xlink:title=" ">
<polygon fill="white" stroke="black" points="0,-0.5 0,-30.5 113,-30.5 113,-0.5 0,-0.5"/>
<text text-anchor="start" x="8" y="-18.5" font-family="Helvetica,sans-Serif" font-size="10.00">httplib::Server::bind</text>
<text text-anchor="middle" x="56.5" y="-7.5" font-family="Helvetica,sans-Serif" font-size="10.00">_to_port</text>
</a>
</g>
</g>
<!-- Node3&#45;&gt;Node5 -->
<g id="edge4" class="edge">
<title>Node3&#45;&gt;Node5</title>
<path fill="none" stroke="midnightblue" d="M157.92,-56.49C137.39,-48.11 113.6,-38.4 94.33,-30.53"/>
<polygon fill="midnightblue" stroke="midnightblue" points="156.82,-59.82 167.41,-60.36 159.47,-53.34 156.82,-59.82"/>
</g>
<!-- Node5&#45;&gt;Node1 -->
<g id="edge5" class="edge">
<title>Node5&#45;&gt;Node1</title>
<path fill="none" stroke="midnightblue" d="M123.33,-9.51C208.24,-3.05 360.32,4.23 489,-12.5 511.55,-15.43 536.39,-22.14 554.93,-27.88"/>
<polygon fill="midnightblue" stroke="midnightblue" points="123.01,-6.03 113.31,-10.29 123.55,-13 123.01,-6.03"/>
</g>
</g>
</svg>
