<?xml version="1.0" encoding="UTF-8" standalone="no"?>
<!DOCTYPE svg PUBLIC "-//W3C//DTD SVG 1.1//EN"
 "http://www.w3.org/Graphics/SVG/1.1/DTD/svg11.dtd">
<!-- Generated by graphviz version 2.43.0 (0)
 -->
<!-- Title: fuzzer::InputCorpus::PrintFeatureSet Pages: 1 -->
<svg width="413pt" height="100pt"
 viewBox="0.00 0.00 413.00 99.50" xmlns="http://www.w3.org/2000/svg" xmlns:xlink="http://www.w3.org/1999/xlink">
<g id="graph0" class="graph" transform="scale(1 1) rotate(0) translate(4 95.5)">
<title>fuzzer::InputCorpus::PrintFeatureSet</title>
<polygon fill="white" stroke="transparent" points="-4,4 -4,-95.5 409,-95.5 409,4 -4,4"/>
<!-- Node1 -->
<g id="node1" class="node">
<title>Node1</title>
<g id="a_node1"><a xlink:title=" ">
<polygon fill="#bfbfbf" stroke="black" points="0,-39 0,-69 111,-69 111,-39 0,-39"/>
<text text-anchor="start" x="8" y="-57" font-family="Helvetica,sans-Serif" font-size="10.00">fuzzer::InputCorpus</text>
<text text-anchor="middle" x="55.5" y="-46" font-family="Helvetica,sans-Serif" font-size="10.00">::PrintFeatureSet</text>
</a>
</g>
</g>
<!-- Node2 -->
<g id="node2" class="node">
<title>Node2</title>
<g id="a_node2"><a xlink:href="classfuzzer_1_1InputCorpus.html#a72af33665b2df6c5668cec3fb3219cbb" target="_top" xlink:title=" ">
<polygon fill="white" stroke="black" points="294,-61 294,-91 405,-91 405,-61 294,-61"/>
<text text-anchor="start" x="302" y="-79" font-family="Helvetica,sans-Serif" font-size="10.00">fuzzer::InputCorpus</text>
<text text-anchor="middle" x="349.5" y="-68" font-family="Helvetica,sans-Serif" font-size="10.00">::GetFeature</text>
</a>
</g>
</g>
<!-- Node1&#45;&gt;Node2 -->
<g id="edge1" class="edge">
<title>Node1&#45;&gt;Node2</title>
<path fill="none" stroke="midnightblue" d="M101.58,-69.02C115.93,-73.11 131.98,-76.96 147,-79 192.45,-85.16 244.19,-84.23 283.86,-81.85"/>
<polygon fill="midnightblue" stroke="midnightblue" points="284.18,-85.33 293.93,-81.2 283.73,-78.35 284.18,-85.33"/>
</g>
<!-- Node3 -->
<g id="node3" class="node">
<title>Node3</title>
<g id="a_node3"><a xlink:href="classfuzzer_1_1InputCorpus.html#a9c696dfbff62d817a51d74cb0cae17fa" target="_top" xlink:title=" ">
<polygon fill="white" stroke="black" points="147,-39 147,-69 258,-69 258,-39 147,-39"/>
<text text-anchor="start" x="155" y="-57" font-family="Helvetica,sans-Serif" font-size="10.00">fuzzer::InputCorpus</text>
<text text-anchor="middle" x="202.5" y="-46" font-family="Helvetica,sans-Serif" font-size="10.00">::NumFeatures</text>
</a>
</g>
</g>
<!-- Node1&#45;&gt;Node3 -->
<g id="edge2" class="edge">
<title>Node1&#45;&gt;Node3</title>
<path fill="none" stroke="midnightblue" d="M111.32,-54C119.53,-54 128.06,-54 136.46,-54"/>
<polygon fill="midnightblue" stroke="midnightblue" points="136.6,-57.5 146.6,-54 136.6,-50.5 136.6,-57.5"/>
</g>
<!-- Node4 -->
<g id="node4" class="node">
<title>Node4</title>
<g id="a_node4"><a xlink:href="namespacefuzzer.html#afab785891fdb74f8fd33bca421bde935" target="_top" xlink:title=" ">
<polygon fill="white" stroke="black" points="163,-0.5 163,-19.5 242,-19.5 242,-0.5 163,-0.5"/>
<text text-anchor="middle" x="202.5" y="-7.5" font-family="Helvetica,sans-Serif" font-size="10.00">fuzzer::Printf</text>
</a>
</g>
</g>
<!-- Node1&#45;&gt;Node4 -->
<g id="edge4" class="edge">
<title>Node1&#45;&gt;Node4</title>
<path fill="none" stroke="midnightblue" d="M106,-38.98C123.69,-33.61 143.42,-27.62 160.34,-22.49"/>
<polygon fill="midnightblue" stroke="midnightblue" points="161.38,-25.83 169.94,-19.58 159.35,-19.13 161.38,-25.83"/>
</g>
<!-- Node3&#45;&gt;Node2 -->
<g id="edge3" class="edge">
<title>Node3&#45;&gt;Node2</title>
<path fill="none" stroke="midnightblue" d="M258.32,-62.32C266.53,-63.56 275.06,-64.86 283.46,-66.13"/>
<polygon fill="midnightblue" stroke="midnightblue" points="283.19,-69.63 293.6,-67.67 284.24,-62.71 283.19,-69.63"/>
</g>
</g>
</svg>
