<?xml version="1.0" encoding="UTF-8" standalone="no"?>
<!DOCTYPE svg PUBLIC "-//W3C//DTD SVG 1.1//EN"
 "http://www.w3.org/Graphics/SVG/1.1/DTD/svg11.dtd">
<!-- Generated by graphviz version 2.43.0 (0)
 -->
<!-- Title: RespawnPodObserver::RespawnAllPods Pages: 1 -->
<svg width="600pt" height="287pt"
 viewBox="0.00 0.00 600.00 287.00" xmlns="http://www.w3.org/2000/svg" xmlns:xlink="http://www.w3.org/1999/xlink">
<g id="graph0" class="graph" transform="scale(1 1) rotate(0) translate(4 283)">
<title>RespawnPodObserver::RespawnAllPods</title>
<polygon fill="white" stroke="transparent" points="-4,4 -4,-283 596,-283 596,4 -4,4"/>
<!-- Node1 -->
<g id="node1" class="node">
<title>Node1</title>
<g id="a_node1"><a xlink:title=" ">
<polygon fill="#bfbfbf" stroke="black" points="0,-134 0,-164 123,-164 123,-134 0,-134"/>
<text text-anchor="start" x="8" y="-152" font-family="Helvetica,sans-Serif" font-size="10.00">RespawnPodObserver</text>
<text text-anchor="middle" x="61.5" y="-141" font-family="Helvetica,sans-Serif" font-size="10.00">::RespawnAllPods</text>
</a>
</g>
</g>
<!-- Node2 -->
<g id="node2" class="node">
<title>Node2</title>
<g id="a_node2"><a xlink:href="classCommandFactory.html#a84a5b5b5211d74d1b900f80902ac7958" target="_top" xlink:title=" ">
<polygon fill="white" stroke="black" points="159,-259.5 159,-278.5 350,-278.5 350,-259.5 159,-259.5"/>
<text text-anchor="middle" x="254.5" y="-266.5" font-family="Helvetica,sans-Serif" font-size="10.00">CommandFactory::CreateCommand</text>
</a>
</g>
</g>
<!-- Node1&#45;&gt;Node2 -->
<g id="edge1" class="edge">
<title>Node1&#45;&gt;Node2</title>
<path fill="none" stroke="midnightblue" d="M72.34,-164.1C87.87,-186.64 120.34,-228.71 159,-250 163.18,-252.3 167.6,-254.32 172.15,-256.1"/>
<polygon fill="midnightblue" stroke="midnightblue" points="171.06,-259.43 181.66,-259.43 173.37,-252.82 171.06,-259.43"/>
</g>
<!-- Node3 -->
<g id="node3" class="node">
<title>Node3</title>
<g id="a_node3"><a xlink:href="classDatabaseHandler.html#aeb2cfac9504d4c44c6f23a87cb06b75a" target="_top" xlink:title="Get the singleton instance of the DatabaseHandler class.">
<polygon fill="white" stroke="black" points="406,-95.5 406,-114.5 572,-114.5 572,-95.5 406,-95.5"/>
<text text-anchor="middle" x="489" y="-102.5" font-family="Helvetica,sans-Serif" font-size="10.00">DatabaseHandler::GetInstance</text>
</a>
</g>
</g>
<!-- Node1&#45;&gt;Node3 -->
<g id="edge2" class="edge">
<title>Node1&#45;&gt;Node3</title>
<path fill="none" stroke="midnightblue" d="M115.49,-133.97C129.53,-130.5 144.75,-127.19 159,-125 238.19,-112.85 329.17,-108.01 395.36,-106.11"/>
<polygon fill="midnightblue" stroke="midnightblue" points="395.86,-109.6 405.76,-105.83 395.67,-102.6 395.86,-109.6"/>
</g>
<!-- Node4 -->
<g id="node4" class="node">
<title>Node4</title>
<g id="a_node4"><a xlink:href="classInvoker.html#a1459c66263ad54b3568e6b3d33d9256f" target="_top" xlink:title=" ">
<polygon fill="white" stroke="black" points="209,-183.5 209,-202.5 300,-202.5 300,-183.5 209,-183.5"/>
<text text-anchor="middle" x="254.5" y="-190.5" font-family="Helvetica,sans-Serif" font-size="10.00">Invoker::Invoke</text>
</a>
</g>
</g>
<!-- Node1&#45;&gt;Node4 -->
<g id="edge3" class="edge">
<title>Node1&#45;&gt;Node4</title>
<path fill="none" stroke="midnightblue" d="M118.5,-164.07C131.75,-167.47 145.84,-170.98 159,-174 171.87,-176.96 185.78,-179.9 198.87,-182.55"/>
<polygon fill="midnightblue" stroke="midnightblue" points="198.19,-185.98 208.69,-184.51 199.57,-179.12 198.19,-185.98"/>
</g>
<!-- Node5 -->
<g id="node5" class="node">
<title>Node5</title>
<g id="a_node5"><a xlink:href="classDatabaseHandler.html#a1e661c0ca860768a64f513a6bf393f05" target="_top" xlink:title="Read List data from the database.">
<polygon fill="white" stroke="black" points="168,-221.5 168,-240.5 341,-240.5 341,-221.5 168,-221.5"/>
<text text-anchor="middle" x="254.5" y="-228.5" font-family="Helvetica,sans-Serif" font-size="10.00">DatabaseHandler::ReadListData</text>
</a>
</g>
</g>
<!-- Node1&#45;&gt;Node5 -->
<g id="edge4" class="edge">
<title>Node1&#45;&gt;Node5</title>
<path fill="none" stroke="midnightblue" d="M80.88,-164.09C99.46,-178.57 129.56,-199.95 159,-212 165.35,-214.6 172.09,-216.85 178.92,-218.8"/>
<polygon fill="midnightblue" stroke="midnightblue" points="178.42,-222.29 188.98,-221.45 180.21,-215.52 178.42,-222.29"/>
</g>
<!-- Node7 -->
<g id="node7" class="node">
<title>Node7</title>
<g id="a_node7"><a xlink:href="classConfigHandler.html#a3917229868b75f859a0829f0cd2ae573" target="_top" xlink:title="Save the app name to the database.">
<polygon fill="white" stroke="black" points="172.5,-134 172.5,-164 336.5,-164 336.5,-134 172.5,-134"/>
<text text-anchor="start" x="180.5" y="-152" font-family="Helvetica,sans-Serif" font-size="10.00">ConfigHandler::SaveAppName</text>
<text text-anchor="middle" x="254.5" y="-141" font-family="Helvetica,sans-Serif" font-size="10.00">ToDatabase</text>
</a>
</g>
</g>
<!-- Node1&#45;&gt;Node7 -->
<g id="edge6" class="edge">
<title>Node1&#45;&gt;Node7</title>
<path fill="none" stroke="midnightblue" d="M123.2,-149C135.64,-149 149,-149 162.26,-149"/>
<polygon fill="midnightblue" stroke="midnightblue" points="162.35,-152.5 172.35,-149 162.35,-145.5 162.35,-152.5"/>
</g>
<!-- Node9 -->
<g id="node9" class="node">
<title>Node9</title>
<g id="a_node9"><a xlink:href="classInvoker.html#ae9f10a2487afd153bf0da69ae410a0e9" target="_top" xlink:title=" ">
<polygon fill="white" stroke="black" points="192,-57.5 192,-76.5 317,-76.5 317,-57.5 192,-57.5"/>
<text text-anchor="middle" x="254.5" y="-64.5" font-family="Helvetica,sans-Serif" font-size="10.00">Invoker::SetCommand</text>
</a>
</g>
</g>
<!-- Node1&#45;&gt;Node9 -->
<g id="edge9" class="edge">
<title>Node1&#45;&gt;Node9</title>
<path fill="none" stroke="midnightblue" d="M83.39,-133.98C102.32,-120.98 131.4,-102.51 159,-91 170.23,-86.32 182.6,-82.37 194.59,-79.12"/>
<polygon fill="midnightblue" stroke="midnightblue" points="195.73,-82.44 204.54,-76.55 193.98,-75.66 195.73,-82.44"/>
</g>
<!-- Node10 -->
<g id="node10" class="node">
<title>Node10</title>
<g id="a_node10"><a xlink:href="mco__utils_8hpp.html#adb31a57c2b5b8883cb23720de4401ba0" target="_top" xlink:title=" ">
<polygon fill="white" stroke="black" points="214.5,-19.5 214.5,-38.5 294.5,-38.5 294.5,-19.5 214.5,-19.5"/>
<text text-anchor="middle" x="254.5" y="-26.5" font-family="Helvetica,sans-Serif" font-size="10.00">UpdateEvent</text>
</a>
</g>
</g>
<!-- Node1&#45;&gt;Node10 -->
<g id="edge10" class="edge">
<title>Node1&#45;&gt;Node10</title>
<path fill="none" stroke="midnightblue" d="M72.34,-133.9C87.87,-111.36 120.34,-69.29 159,-48 172.7,-40.46 188.99,-35.89 204.15,-33.13"/>
<polygon fill="midnightblue" stroke="midnightblue" points="205.09,-36.52 214.42,-31.49 203.99,-29.61 205.09,-36.52"/>
</g>
<!-- Node6 -->
<g id="node6" class="node">
<title>Node6</title>
<g id="a_node6"><a xlink:href="FuzzerTracePC_8cpp.html#a04324001136ead9261bb82cc6bceea2f" target="_top" xlink:title=" ">
<polygon fill="white" stroke="black" points="474.5,-221.5 474.5,-240.5 503.5,-240.5 503.5,-221.5 474.5,-221.5"/>
<text text-anchor="middle" x="489" y="-228.5" font-family="Helvetica,sans-Serif" font-size="10.00">if</text>
</a>
</g>
</g>
<!-- Node5&#45;&gt;Node6 -->
<g id="edge5" class="edge">
<title>Node5&#45;&gt;Node6</title>
<path fill="none" stroke="midnightblue" d="M341.08,-231C384.98,-231 435.15,-231 464.05,-231"/>
<polygon fill="midnightblue" stroke="midnightblue" points="464.37,-234.5 474.37,-231 464.37,-227.5 464.37,-234.5"/>
</g>
<!-- Node7&#45;&gt;Node3 -->
<g id="edge7" class="edge">
<title>Node7&#45;&gt;Node3</title>
<path fill="none" stroke="midnightblue" d="M334.86,-133.98C365.21,-128.24 399.29,-121.79 427.59,-116.43"/>
<polygon fill="midnightblue" stroke="midnightblue" points="428.56,-119.81 437.74,-114.51 427.26,-112.93 428.56,-119.81"/>
</g>
<!-- Node8 -->
<g id="node8" class="node">
<title>Node8</title>
<g id="a_node8"><a xlink:href="classDatabaseHandler.html#a943545e8a1f0390d8e85343811ca94d7" target="_top" xlink:title="Update the set of running apps in the database.">
<polygon fill="white" stroke="black" points="386,-139.5 386,-158.5 592,-158.5 592,-139.5 386,-139.5"/>
<text text-anchor="middle" x="489" y="-146.5" font-family="Helvetica,sans-Serif" font-size="10.00">DatabaseHandler::UpdateRunningApps</text>
</a>
</g>
</g>
<!-- Node7&#45;&gt;Node8 -->
<g id="edge8" class="edge">
<title>Node7&#45;&gt;Node8</title>
<path fill="none" stroke="midnightblue" d="M336.82,-149C349.44,-149 362.68,-149 375.84,-149"/>
<polygon fill="midnightblue" stroke="midnightblue" points="375.88,-152.5 385.88,-149 375.88,-145.5 375.88,-152.5"/>
</g>
<!-- Node10&#45;&gt;Node3 -->
<g id="edge13" class="edge">
<title>Node10&#45;&gt;Node3</title>
<path fill="none" stroke="midnightblue" d="M294.8,-34.31C312.05,-37.29 332.34,-41.71 350,-48 367.04,-54.07 369.49,-59.6 386,-67 406.71,-76.28 430.43,-85.21 449.78,-92.08"/>
<polygon fill="midnightblue" stroke="midnightblue" points="448.87,-95.47 459.46,-95.48 451.19,-88.87 448.87,-95.47"/>
</g>
<!-- Node11 -->
<g id="node11" class="node">
<title>Node11</title>
<g id="a_node11"><a xlink:href="classDatabaseHandler.html#ad98a598001584e3a5c4e81980a8a8719" target="_top" xlink:title="Add events to the database.">
<polygon fill="white" stroke="black" points="409.5,-0.5 409.5,-19.5 568.5,-19.5 568.5,-0.5 409.5,-0.5"/>
<text text-anchor="middle" x="489" y="-7.5" font-family="Helvetica,sans-Serif" font-size="10.00">DatabaseHandler::AddEvents</text>
</a>
</g>
</g>
<!-- Node10&#45;&gt;Node11 -->
<g id="edge11" class="edge">
<title>Node10&#45;&gt;Node11</title>
<path fill="none" stroke="midnightblue" d="M294.68,-25.8C323.19,-23.47 362.95,-20.22 399.01,-17.27"/>
<polygon fill="midnightblue" stroke="midnightblue" points="399.38,-20.75 409.07,-16.45 398.81,-13.78 399.38,-20.75"/>
</g>
<!-- Node12 -->
<g id="node12" class="node">
<title>Node12</title>
<g id="a_node12"><a xlink:href="mco__utils_8cpp.html#a1712cb19121295fe68a905b3e5c496f9" target="_top" xlink:title=" ">
<polygon fill="white" stroke="black" points="442,-38.5 442,-57.5 536,-57.5 536,-38.5 442,-38.5"/>
<text text-anchor="middle" x="489" y="-45.5" font-family="Helvetica,sans-Serif" font-size="10.00">GetCurrentTime</text>
</a>
</g>
</g>
<!-- Node10&#45;&gt;Node12 -->
<g id="edge12" class="edge">
<title>Node10&#45;&gt;Node12</title>
<path fill="none" stroke="midnightblue" d="M294.68,-32.2C332.22,-35.27 389.28,-39.93 431.69,-43.4"/>
<polygon fill="midnightblue" stroke="midnightblue" points="431.61,-46.9 441.86,-44.23 432.18,-39.93 431.61,-46.9"/>
</g>
</g>
</svg>
