<?xml version="1.0" encoding="UTF-8" standalone="no"?>
<!DOCTYPE svg PUBLIC "-//W3C//DTD SVG 1.1//EN"
 "http://www.w3.org/Graphics/SVG/1.1/DTD/svg11.dtd">
<!-- Generated by graphviz version 2.43.0 (0)
 -->
<!-- Title: benchmark::JSONReporter Pages: 1 -->
<svg width="183pt" height="716pt"
 viewBox="0.00 0.00 183.00 716.00" xmlns="http://www.w3.org/2000/svg" xmlns:xlink="http://www.w3.org/1999/xlink">
<g id="graph0" class="graph" transform="scale(1 1) rotate(0) translate(4 712)">
<title>benchmark::JSONReporter</title>
<polygon fill="white" stroke="transparent" points="-4,4 -4,-712 179,-712 179,4 -4,4"/>
<!-- Node1 -->
<g id="node1" class="node">
<title>Node1</title>
<g id="a_node1"><a xlink:title=" ">
<polygon fill="#bfbfbf" stroke="black" points="16,-0.5 16,-101.5 159,-101.5 159,-0.5 16,-0.5"/>
<text text-anchor="middle" x="87.5" y="-89.5" font-family="Helvetica,sans-Serif" font-size="10.00">benchmark::JSONReporter</text>
<polyline fill="none" stroke="black" points="16,-82.5 159,-82.5 "/>
<text text-anchor="start" x="24" y="-70.5" font-family="Helvetica,sans-Serif" font-size="10.00">&#45; first_report_</text>
<polyline fill="none" stroke="black" points="16,-63.5 159,-63.5 "/>
<text text-anchor="start" x="24" y="-51.5" font-family="Helvetica,sans-Serif" font-size="10.00">+ JSONReporter()</text>
<text text-anchor="start" x="24" y="-40.5" font-family="Helvetica,sans-Serif" font-size="10.00">+ ReportContext()</text>
<text text-anchor="start" x="24" y="-29.5" font-family="Helvetica,sans-Serif" font-size="10.00">+ ReportRuns()</text>
<text text-anchor="start" x="24" y="-18.5" font-family="Helvetica,sans-Serif" font-size="10.00">+ Finalize()</text>
<text text-anchor="start" x="24" y="-7.5" font-family="Helvetica,sans-Serif" font-size="10.00">&#45; PrintRunData()</text>
</a>
</g>
</g>
<!-- Node2 -->
<g id="node2" class="node">
<title>Node2</title>
<g id="a_node2"><a xlink:href="classbenchmark_1_1BenchmarkReporter.html" target="_top" xlink:title=" ">
<polygon fill="white" stroke="black" points="0,-139.5 0,-295.5 175,-295.5 175,-139.5 0,-139.5"/>
<text text-anchor="middle" x="87.5" y="-283.5" font-family="Helvetica,sans-Serif" font-size="10.00">benchmark::BenchmarkReporter</text>
<polyline fill="none" stroke="black" points="0,-276.5 175,-276.5 "/>
<text text-anchor="middle" x="87.5" y="-264.5" font-family="Helvetica,sans-Serif" font-size="10.00"> </text>
<polyline fill="none" stroke="black" points="0,-257.5 175,-257.5 "/>
<text text-anchor="start" x="8" y="-245.5" font-family="Helvetica,sans-Serif" font-size="10.00">+ BenchmarkReporter()</text>
<text text-anchor="start" x="8" y="-234.5" font-family="Helvetica,sans-Serif" font-size="10.00">+ ReportContext()</text>
<text text-anchor="start" x="8" y="-223.5" font-family="Helvetica,sans-Serif" font-size="10.00">+ ReportRuns()</text>
<text text-anchor="start" x="8" y="-212.5" font-family="Helvetica,sans-Serif" font-size="10.00">+ Finalize()</text>
<text text-anchor="start" x="8" y="-201.5" font-family="Helvetica,sans-Serif" font-size="10.00">+ SetOutputStream()</text>
<text text-anchor="start" x="8" y="-190.5" font-family="Helvetica,sans-Serif" font-size="10.00">+ SetErrorStream()</text>
<text text-anchor="start" x="8" y="-179.5" font-family="Helvetica,sans-Serif" font-size="10.00">+ GetOutputStream()</text>
<text text-anchor="start" x="8" y="-168.5" font-family="Helvetica,sans-Serif" font-size="10.00">+ GetErrorStream()</text>
<text text-anchor="start" x="8" y="-157.5" font-family="Helvetica,sans-Serif" font-size="10.00">+ ~BenchmarkReporter()</text>
<text text-anchor="start" x="8" y="-146.5" font-family="Helvetica,sans-Serif" font-size="10.00">+ PrintBasicContext()</text>
</a>
</g>
</g>
<!-- Node2&#45;&gt;Node1 -->
<g id="edge1" class="edge">
<title>Node2&#45;&gt;Node1</title>
<path fill="none" stroke="midnightblue" d="M87.5,-128.96C87.5,-119.66 87.5,-110.46 87.5,-101.82"/>
<polygon fill="none" stroke="midnightblue" points="84,-129.07 87.5,-139.07 91,-129.07 84,-129.07"/>
</g>
<!-- Node3 -->
<g id="node3" class="node">
<title>Node3</title>
<g id="a_node3"><a xlink:title="STL class.">
<polygon fill="white" stroke="#bfbfbf" points="48.5,-354.5 48.5,-411.5 126.5,-411.5 126.5,-354.5 48.5,-354.5"/>
<text text-anchor="middle" x="87.5" y="-399.5" font-family="Helvetica,sans-Serif" font-size="10.00">std::ostream</text>
<polyline fill="none" stroke="#bfbfbf" points="48.5,-392.5 126.5,-392.5 "/>
<text text-anchor="middle" x="87.5" y="-380.5" font-family="Helvetica,sans-Serif" font-size="10.00"> </text>
<polyline fill="none" stroke="#bfbfbf" points="48.5,-373.5 126.5,-373.5 "/>
<text text-anchor="middle" x="87.5" y="-361.5" font-family="Helvetica,sans-Serif" font-size="10.00"> </text>
</a>
</g>
</g>
<!-- Node3&#45;&gt;Node2 -->
<g id="edge2" class="edge">
<title>Node3&#45;&gt;Node2</title>
<path fill="none" stroke="#404040" d="M87.5,-354.26C87.5,-341.21 87.5,-324.84 87.5,-308.02"/>
<polygon fill="none" stroke="#404040" points="87.5,-307.74 83.5,-301.74 87.5,-295.74 91.5,-301.74 87.5,-307.74"/>
<text text-anchor="middle" x="128" y="-328" font-family="Helvetica,sans-Serif" font-size="10.00"> &#45;error_stream_</text>
<text text-anchor="middle" x="128" y="-317" font-family="Helvetica,sans-Serif" font-size="10.00">&#45;output_stream_</text>
</g>
<!-- Node4 -->
<g id="node4" class="node">
<title>Node4</title>
<g id="a_node4"><a xlink:title="STL class.">
<polygon fill="white" stroke="#bfbfbf" points="33,-449.5 33,-517.5 142,-517.5 142,-449.5 33,-449.5"/>
<text text-anchor="start" x="41" y="-505.5" font-family="Helvetica,sans-Serif" font-size="10.00">std::basic_ostream</text>
<text text-anchor="middle" x="87.5" y="-494.5" font-family="Helvetica,sans-Serif" font-size="10.00">&lt; char &gt;</text>
<polyline fill="none" stroke="#bfbfbf" points="33,-487.5 142,-487.5 "/>
<text text-anchor="middle" x="87.5" y="-475.5" font-family="Helvetica,sans-Serif" font-size="10.00"> </text>
<polyline fill="none" stroke="#bfbfbf" points="33,-468.5 142,-468.5 "/>
<text text-anchor="middle" x="87.5" y="-456.5" font-family="Helvetica,sans-Serif" font-size="10.00"> </text>
</a>
</g>
</g>
<!-- Node4&#45;&gt;Node3 -->
<g id="edge3" class="edge">
<title>Node4&#45;&gt;Node3</title>
<path fill="none" stroke="midnightblue" d="M87.5,-439.38C87.5,-429.94 87.5,-420.2 87.5,-411.57"/>
<polygon fill="none" stroke="midnightblue" points="84,-439.43 87.5,-449.43 91,-439.43 84,-439.43"/>
</g>
<!-- Node5 -->
<g id="node5" class="node">
<title>Node5</title>
<g id="a_node5"><a xlink:title="STL class.">
<polygon fill="white" stroke="#bfbfbf" points="23.5,-555.5 23.5,-612.5 151.5,-612.5 151.5,-555.5 23.5,-555.5"/>
<text text-anchor="middle" x="87.5" y="-600.5" font-family="Helvetica,sans-Serif" font-size="10.00">std::basic_ios&lt; Char &gt;</text>
<polyline fill="none" stroke="#bfbfbf" points="23.5,-593.5 151.5,-593.5 "/>
<text text-anchor="middle" x="87.5" y="-581.5" font-family="Helvetica,sans-Serif" font-size="10.00"> </text>
<polyline fill="none" stroke="#bfbfbf" points="23.5,-574.5 151.5,-574.5 "/>
<text text-anchor="middle" x="87.5" y="-562.5" font-family="Helvetica,sans-Serif" font-size="10.00"> </text>
</a>
</g>
</g>
<!-- Node5&#45;&gt;Node4 -->
<g id="edge4" class="edge">
<title>Node5&#45;&gt;Node4</title>
<path fill="none" stroke="midnightblue" d="M87.5,-545.01C87.5,-535.96 87.5,-526.38 87.5,-517.58"/>
<polygon fill="none" stroke="midnightblue" points="84,-545.3 87.5,-555.3 91,-545.3 84,-545.3"/>
</g>
<!-- Node6 -->
<g id="node6" class="node">
<title>Node6</title>
<g id="a_node6"><a xlink:title="STL class.">
<polygon fill="white" stroke="#bfbfbf" points="47.5,-650.5 47.5,-707.5 127.5,-707.5 127.5,-650.5 47.5,-650.5"/>
<text text-anchor="middle" x="87.5" y="-695.5" font-family="Helvetica,sans-Serif" font-size="10.00">std::ios_base</text>
<polyline fill="none" stroke="#bfbfbf" points="47.5,-688.5 127.5,-688.5 "/>
<text text-anchor="middle" x="87.5" y="-676.5" font-family="Helvetica,sans-Serif" font-size="10.00"> </text>
<polyline fill="none" stroke="#bfbfbf" points="47.5,-669.5 127.5,-669.5 "/>
<text text-anchor="middle" x="87.5" y="-657.5" font-family="Helvetica,sans-Serif" font-size="10.00"> </text>
</a>
</g>
</g>
<!-- Node6&#45;&gt;Node5 -->
<g id="edge5" class="edge">
<title>Node6&#45;&gt;Node5</title>
<path fill="none" stroke="midnightblue" d="M87.5,-640.24C87.5,-631.03 87.5,-621.35 87.5,-612.71"/>
<polygon fill="none" stroke="midnightblue" points="84,-640.35 87.5,-650.35 91,-640.35 84,-640.35"/>
</g>
</g>
</svg>
