<?xml version="1.0" encoding="UTF-8" standalone="no"?>
<!DOCTYPE svg PUBLIC "-//W3C//DTD SVG 1.1//EN"
 "http://www.w3.org/Graphics/SVG/1.1/DTD/svg11.dtd">
<!-- Generated by graphviz version 2.43.0 (0)
 -->
<!-- Title: benchmark::State Pages: 1 -->
<!--zoomable 1274 -->
<svg id="main" version="1.1" xmlns="http://www.w3.org/2000/svg" xmlns:xlink="http://www.w3.org/1999/xlink" xml:space="preserve" onload="init(evt)">
<style type="text/css"><![CDATA[
.edge:hover path { stroke: red; }
.edge:hover polygon { stroke: red; fill: red; }
]]></style>
<script type="text/javascript"><![CDATA[
var edges = document.getElementsByTagName('g');
if (edges && edges.length) {
  for (var i=0;i<edges.length;i++) {
    if (edges[i].id.substr(0,4)=='edge') {
      edges[i].setAttribute('class','edge');
    }
  }
}
]]></script>
        <defs>
                <circle id="rim" cx="0" cy="0" r="7"/>
                <circle id="rim2" cx="0" cy="0" r="3.5"/>
                <g id="zoomPlus">
                        <use xlink:href="#rim" fill="#404040">
                                <set attributeName="fill" to="#808080" begin="zoomplus.mouseover" end="zoomplus.mouseout"/>
                        </use>
                        <path d="M-4,0h8M0,-4v8" fill="none" stroke="white" stroke-width="1.5" pointer-events="none"/>
                </g>
                <g id="zoomMin">
                        <use xlink:href="#rim" fill="#404040">
                                <set attributeName="fill" to="#808080" begin="zoomminus.mouseover" end="zoomminus.mouseout"/>
                        </use>
                        <path d="M-4,0h8" fill="none" stroke="white" stroke-width="1.5" pointer-events="none"/>
                </g>
                <g id="dirArrow">
                        <path fill="none" stroke="white" stroke-width="1.5" d="M0,-3.0v7 M-2.5,-0.5L0,-3.0L2.5,-0.5"/>
                </g>
               <g id="resetDef">
                       <use xlink:href="#rim2" fill="#404040">
                               <set attributeName="fill" to="#808080" begin="reset.mouseover" end="reset.mouseout"/>
                       </use>
               </g>
        </defs>

<script type="text/javascript">
var viewWidth = 866;
var viewHeight = 1274;
var sectionId = 'dynsection-0';
</script>
<script xlink:href="svgpan.js"/>
<svg id="graph" class="graph">
<g id="viewport">
<title>benchmark::State</title>
<polygon fill="white" stroke="transparent" points="-4,4 -4,-1270 861.5,-1270 861.5,4 -4,4"/>
<!-- Node1 -->
<g id="node1" class="node">
<title>Node1</title>
<g id="a_node1"><a xlink:title=" ">
<polygon fill="#bfbfbf" stroke="black" points="185.5,-0.5 185.5,-442.5 322.5,-442.5 322.5,-0.5 185.5,-0.5"/>
<text text-anchor="middle" x="254" y="-430.5" font-family="Helvetica,sans-Serif" font-size="10.00">benchmark::State</text>
<polyline fill="none" stroke="black" points="185.5,-423.5 322.5,-423.5 "/>
<text text-anchor="start" x="193.5" y="-411.5" font-family="Helvetica,sans-Serif" font-size="10.00">+ max_iterations</text>
<text text-anchor="start" x="193.5" y="-400.5" font-family="Helvetica,sans-Serif" font-size="10.00">+ thread_index</text>
<text text-anchor="start" x="193.5" y="-389.5" font-family="Helvetica,sans-Serif" font-size="10.00">+ threads</text>
<text text-anchor="start" x="193.5" y="-378.5" font-family="Helvetica,sans-Serif" font-size="10.00">&#45; total_iterations_</text>
<text text-anchor="start" x="193.5" y="-367.5" font-family="Helvetica,sans-Serif" font-size="10.00">&#45; batch_leftover_</text>
<text text-anchor="start" x="193.5" y="-356.5" font-family="Helvetica,sans-Serif" font-size="10.00">&#45; started_</text>
<text text-anchor="start" x="193.5" y="-345.5" font-family="Helvetica,sans-Serif" font-size="10.00">&#45; finished_</text>
<text text-anchor="start" x="193.5" y="-334.5" font-family="Helvetica,sans-Serif" font-size="10.00">&#45; error_occurred_</text>
<text text-anchor="start" x="193.5" y="-323.5" font-family="Helvetica,sans-Serif" font-size="10.00">&#45; bytes_processed_</text>
<text text-anchor="start" x="193.5" y="-312.5" font-family="Helvetica,sans-Serif" font-size="10.00">&#45; items_processed_</text>
<text text-anchor="start" x="193.5" y="-301.5" font-family="Helvetica,sans-Serif" font-size="10.00">&#45; complexity_n_</text>
<polyline fill="none" stroke="black" points="185.5,-294.5 322.5,-294.5 "/>
<text text-anchor="start" x="193.5" y="-282.5" font-family="Helvetica,sans-Serif" font-size="10.00">+ begin()</text>
<text text-anchor="start" x="193.5" y="-271.5" font-family="Helvetica,sans-Serif" font-size="10.00">+ end()</text>
<text text-anchor="start" x="193.5" y="-260.5" font-family="Helvetica,sans-Serif" font-size="10.00">+ KeepRunning()</text>
<text text-anchor="start" x="193.5" y="-249.5" font-family="Helvetica,sans-Serif" font-size="10.00">+ KeepRunningBatch()</text>
<text text-anchor="start" x="193.5" y="-238.5" font-family="Helvetica,sans-Serif" font-size="10.00">+ PauseTiming()</text>
<text text-anchor="start" x="193.5" y="-227.5" font-family="Helvetica,sans-Serif" font-size="10.00">+ ResumeTiming()</text>
<text text-anchor="start" x="193.5" y="-216.5" font-family="Helvetica,sans-Serif" font-size="10.00">+ SkipWithError()</text>
<text text-anchor="start" x="193.5" y="-205.5" font-family="Helvetica,sans-Serif" font-size="10.00">+ SetIterationTime()</text>
<text text-anchor="start" x="193.5" y="-194.5" font-family="Helvetica,sans-Serif" font-size="10.00">+ SetBytesProcessed()</text>
<text text-anchor="start" x="193.5" y="-183.5" font-family="Helvetica,sans-Serif" font-size="10.00">+ bytes_processed()</text>
<text text-anchor="start" x="193.5" y="-172.5" font-family="Helvetica,sans-Serif" font-size="10.00">+ SetComplexityN()</text>
<text text-anchor="start" x="193.5" y="-161.5" font-family="Helvetica,sans-Serif" font-size="10.00">+ complexity_length_n()</text>
<text text-anchor="start" x="193.5" y="-150.5" font-family="Helvetica,sans-Serif" font-size="10.00">+ SetItemsProcessed()</text>
<text text-anchor="start" x="193.5" y="-139.5" font-family="Helvetica,sans-Serif" font-size="10.00">+ items_processed()</text>
<text text-anchor="start" x="193.5" y="-128.5" font-family="Helvetica,sans-Serif" font-size="10.00">+ SetLabel()</text>
<text text-anchor="start" x="193.5" y="-117.5" font-family="Helvetica,sans-Serif" font-size="10.00">+ SetLabel()</text>
<text text-anchor="start" x="193.5" y="-106.5" font-family="Helvetica,sans-Serif" font-size="10.00">+ range()</text>
<text text-anchor="start" x="193.5" y="-95.5" font-family="Helvetica,sans-Serif" font-size="10.00">+ range_x()</text>
<text text-anchor="start" x="193.5" y="-84.5" font-family="Helvetica,sans-Serif" font-size="10.00">+ range_y()</text>
<text text-anchor="start" x="193.5" y="-73.5" font-family="Helvetica,sans-Serif" font-size="10.00">+ iterations()</text>
<text text-anchor="start" x="193.5" y="-62.5" font-family="Helvetica,sans-Serif" font-size="10.00">+ State()</text>
<text text-anchor="start" x="193.5" y="-51.5" font-family="Helvetica,sans-Serif" font-size="10.00">&#45; StartKeepRunning()</text>
<text text-anchor="start" x="193.5" y="-40.5" font-family="Helvetica,sans-Serif" font-size="10.00">&#45; KeepRunningInternal()</text>
<text text-anchor="start" x="193.5" y="-29.5" font-family="Helvetica,sans-Serif" font-size="10.00">&#45; FinishKeepRunning()</text>
<text text-anchor="start" x="193.5" y="-18.5" font-family="Helvetica,sans-Serif" font-size="10.00">&#45; State()</text>
<text text-anchor="start" x="193.5" y="-7.5" font-family="Helvetica,sans-Serif" font-size="10.00">&#45; operator=()</text>
</a>
</g>
</g>
<!-- Node2 -->
<g id="node2" class="node">
<title>Node2</title>
<g id="a_node2"><a xlink:href="classbenchmark_1_1internal_1_1ThreadTimer.html" target="_top" xlink:title=" ">
<polygon fill="white" stroke="black" points="0,-490.5 0,-690.5 128,-690.5 128,-490.5 0,-490.5"/>
<text text-anchor="start" x="8" y="-678.5" font-family="Helvetica,sans-Serif" font-size="10.00">benchmark::internal</text>
<text text-anchor="middle" x="64" y="-667.5" font-family="Helvetica,sans-Serif" font-size="10.00">::ThreadTimer</text>
<polyline fill="none" stroke="black" points="0,-660.5 128,-660.5 "/>
<text text-anchor="start" x="8" y="-648.5" font-family="Helvetica,sans-Serif" font-size="10.00">&#45; running_</text>
<text text-anchor="start" x="8" y="-637.5" font-family="Helvetica,sans-Serif" font-size="10.00">&#45; start_real_time_</text>
<text text-anchor="start" x="8" y="-626.5" font-family="Helvetica,sans-Serif" font-size="10.00">&#45; start_cpu_time_</text>
<text text-anchor="start" x="8" y="-615.5" font-family="Helvetica,sans-Serif" font-size="10.00">&#45; real_time_used_</text>
<text text-anchor="start" x="8" y="-604.5" font-family="Helvetica,sans-Serif" font-size="10.00">&#45; cpu_time_used_</text>
<text text-anchor="start" x="8" y="-593.5" font-family="Helvetica,sans-Serif" font-size="10.00">&#45; manual_time_used_</text>
<polyline fill="none" stroke="black" points="0,-586.5 128,-586.5 "/>
<text text-anchor="start" x="8" y="-574.5" font-family="Helvetica,sans-Serif" font-size="10.00">+ ThreadTimer()</text>
<text text-anchor="start" x="8" y="-563.5" font-family="Helvetica,sans-Serif" font-size="10.00">+ StartTimer()</text>
<text text-anchor="start" x="8" y="-552.5" font-family="Helvetica,sans-Serif" font-size="10.00">+ StopTimer()</text>
<text text-anchor="start" x="8" y="-541.5" font-family="Helvetica,sans-Serif" font-size="10.00">+ SetIterationTime()</text>
<text text-anchor="start" x="8" y="-530.5" font-family="Helvetica,sans-Serif" font-size="10.00">+ running()</text>
<text text-anchor="start" x="8" y="-519.5" font-family="Helvetica,sans-Serif" font-size="10.00">+ real_time_used()</text>
<text text-anchor="start" x="8" y="-508.5" font-family="Helvetica,sans-Serif" font-size="10.00">+ cpu_time_used()</text>
<text text-anchor="start" x="8" y="-497.5" font-family="Helvetica,sans-Serif" font-size="10.00">+ manual_time_used()</text>
</a>
</g>
</g>
<!-- Node2&#45;&gt;Node1 -->
<g id="edge1" class="edge">
<title>Node2&#45;&gt;Node1</title>
<path fill="none" stroke="#404040" d="M115.42,-490.18C135.23,-451.91 158.28,-407.39 179.82,-365.78"/>
<polygon fill="none" stroke="#404040" points="179.89,-365.64 179.1,-358.48 185.41,-354.99 186.2,-362.15 179.89,-365.64"/>
<text text-anchor="middle" x="145.5" y="-464" font-family="Helvetica,sans-Serif" font-size="10.00"> &#45;timer_</text>
</g>
<!-- Node3 -->
<g id="node3" class="node">
<title>Node3</title>
<g id="a_node3"><a xlink:title=" ">
<polygon fill="white" stroke="#bfbfbf" points="146.5,-562 146.5,-619 271.5,-619 271.5,-562 146.5,-562"/>
<text text-anchor="middle" x="209" y="-607" font-family="Helvetica,sans-Serif" font-size="10.00">std::vector&lt; int64_t &gt;</text>
<polyline fill="none" stroke="#bfbfbf" points="146.5,-600 271.5,-600 "/>
<text text-anchor="start" x="154.5" y="-588" font-family="Helvetica,sans-Serif" font-size="10.00">+ elements</text>
<polyline fill="none" stroke="#bfbfbf" points="146.5,-581 271.5,-581 "/>
<text text-anchor="middle" x="209" y="-569" font-family="Helvetica,sans-Serif" font-size="10.00"> </text>
</a>
</g>
</g>
<!-- Node3&#45;&gt;Node1 -->
<g id="edge2" class="edge">
<title>Node3&#45;&gt;Node1</title>
<path fill="none" stroke="#404040" d="M212.38,-561.92C215.43,-537.03 220.25,-497.79 225.53,-454.69"/>
<polygon fill="none" stroke="#404040" points="225.53,-454.65 222.29,-448.21 226.99,-442.74 230.23,-449.18 225.53,-454.65"/>
<text text-anchor="middle" x="244" y="-464" font-family="Helvetica,sans-Serif" font-size="10.00"> &#45;range_</text>
</g>
<!-- Node4 -->
<g id="node4" class="node">
<title>Node4</title>
<g id="a_node4"><a xlink:href="classbenchmark_1_1internal_1_1ThreadManager.html" target="_top" xlink:title=" ">
<polygon fill="white" stroke="black" points="441,-534.5 441,-646.5 587,-646.5 587,-534.5 441,-534.5"/>
<text text-anchor="start" x="449" y="-634.5" font-family="Helvetica,sans-Serif" font-size="10.00">benchmark::internal</text>
<text text-anchor="middle" x="514" y="-623.5" font-family="Helvetica,sans-Serif" font-size="10.00">::ThreadManager</text>
<polyline fill="none" stroke="black" points="441,-616.5 587,-616.5 "/>
<text text-anchor="start" x="449" y="-604.5" font-family="Helvetica,sans-Serif" font-size="10.00">&#45; end_condition_</text>
<polyline fill="none" stroke="black" points="441,-597.5 587,-597.5 "/>
<text text-anchor="start" x="449" y="-585.5" font-family="Helvetica,sans-Serif" font-size="10.00">+ ThreadManager()</text>
<text text-anchor="start" x="449" y="-574.5" font-family="Helvetica,sans-Serif" font-size="10.00">+ GetBenchmarkMutex()</text>
<text text-anchor="start" x="449" y="-563.5" font-family="Helvetica,sans-Serif" font-size="10.00">+ StartStopBarrier()</text>
<text text-anchor="start" x="449" y="-552.5" font-family="Helvetica,sans-Serif" font-size="10.00">+ NotifyThreadComplete()</text>
<text text-anchor="start" x="449" y="-541.5" font-family="Helvetica,sans-Serif" font-size="10.00">+ WaitForAllThreads()</text>
</a>
</g>
</g>
<!-- Node4&#45;&gt;Node1 -->
<g id="edge3" class="edge">
<title>Node4&#45;&gt;Node1</title>
<path fill="none" stroke="#404040" d="M474.79,-534.16C436.54,-480.16 377.34,-396.59 329.86,-329.58"/>
<polygon fill="none" stroke="#404040" points="329.58,-329.19 322.85,-326.6 322.65,-319.4 329.38,-321.98 329.58,-329.19"/>
<text text-anchor="middle" x="458" y="-464" font-family="Helvetica,sans-Serif" font-size="10.00"> &#45;manager_</text>
</g>
<!-- Node5 -->
<g id="node5" class="node">
<title>Node5</title>
<g id="a_node5"><a xlink:title=" ">
<polygon fill="white" stroke="#bfbfbf" points="750.5,-782.5 750.5,-839.5 857.5,-839.5 857.5,-782.5 750.5,-782.5"/>
<text text-anchor="middle" x="804" y="-827.5" font-family="Helvetica,sans-Serif" font-size="10.00">std::atomic&lt; int &gt;</text>
<polyline fill="none" stroke="#bfbfbf" points="750.5,-820.5 857.5,-820.5 "/>
<text text-anchor="start" x="758.5" y="-808.5" font-family="Helvetica,sans-Serif" font-size="10.00">+ ptr</text>
<polyline fill="none" stroke="#bfbfbf" points="750.5,-801.5 857.5,-801.5 "/>
<text text-anchor="middle" x="804" y="-789.5" font-family="Helvetica,sans-Serif" font-size="10.00"> </text>
</a>
</g>
</g>
<!-- Node5&#45;&gt;Node4 -->
<g id="edge4" class="edge">
<title>Node5&#45;&gt;Node4</title>
<path fill="none" stroke="#404040" d="M780.5,-782.21C767.99,-768.2 751.93,-751.38 736,-738 692.96,-701.85 640.67,-666.96 597.64,-640.3"/>
<polygon fill="none" stroke="#404040" points="597.42,-640.17 590.22,-640.43 587.2,-633.88 594.41,-633.61 597.42,-640.17"/>
<text text-anchor="middle" x="752.5" y="-712" font-family="Helvetica,sans-Serif" font-size="10.00"> &#45;alive_threads_</text>
</g>
<!-- Node6 -->
<g id="node6" class="node">
<title>Node6</title>
<g id="a_node6"><a xlink:href="structbenchmark_1_1internal_1_1ThreadManager_1_1Result.html" target="_top" xlink:title=" ">
<polygon fill="white" stroke="black" points="328,-738.5 328,-883.5 464,-883.5 464,-738.5 328,-738.5"/>
<text text-anchor="start" x="336" y="-871.5" font-family="Helvetica,sans-Serif" font-size="10.00">benchmark::internal</text>
<text text-anchor="middle" x="396" y="-860.5" font-family="Helvetica,sans-Serif" font-size="10.00">::ThreadManager::Result</text>
<polyline fill="none" stroke="black" points="328,-853.5 464,-853.5 "/>
<text text-anchor="start" x="336" y="-841.5" font-family="Helvetica,sans-Serif" font-size="10.00">+ iterations</text>
<text text-anchor="start" x="336" y="-830.5" font-family="Helvetica,sans-Serif" font-size="10.00">+ real_time_used</text>
<text text-anchor="start" x="336" y="-819.5" font-family="Helvetica,sans-Serif" font-size="10.00">+ cpu_time_used</text>
<text text-anchor="start" x="336" y="-808.5" font-family="Helvetica,sans-Serif" font-size="10.00">+ manual_time_used</text>
<text text-anchor="start" x="336" y="-797.5" font-family="Helvetica,sans-Serif" font-size="10.00">+ bytes_processed</text>
<text text-anchor="start" x="336" y="-786.5" font-family="Helvetica,sans-Serif" font-size="10.00">+ items_processed</text>
<text text-anchor="start" x="336" y="-775.5" font-family="Helvetica,sans-Serif" font-size="10.00">+ complexity_n</text>
<text text-anchor="start" x="336" y="-764.5" font-family="Helvetica,sans-Serif" font-size="10.00">+ has_error_</text>
<polyline fill="none" stroke="black" points="328,-757.5 464,-757.5 "/>
<text text-anchor="middle" x="396" y="-745.5" font-family="Helvetica,sans-Serif" font-size="10.00"> </text>
</a>
</g>
</g>
<!-- Node6&#45;&gt;Node4 -->
<g id="edge5" class="edge">
<title>Node6&#45;&gt;Node4</title>
<path fill="none" stroke="#404040" d="M434.64,-738.45C448.75,-712.32 464.64,-682.9 478.47,-657.29"/>
<polygon fill="none" stroke="#404040" points="478.56,-657.12 477.89,-649.94 484.26,-646.57 484.93,-653.75 478.56,-657.12"/>
<text text-anchor="middle" x="470.5" y="-712" font-family="Helvetica,sans-Serif" font-size="10.00"> +results</text>
</g>
<!-- Node7 -->
<g id="node7" class="node">
<title>Node7</title>
<g id="a_node7"><a xlink:title="STL class.">
<polygon fill="white" stroke="#bfbfbf" points="368.5,-1086 368.5,-1143 433.5,-1143 433.5,-1086 368.5,-1086"/>
<text text-anchor="middle" x="401" y="-1131" font-family="Helvetica,sans-Serif" font-size="10.00">std::string</text>
<polyline fill="none" stroke="#bfbfbf" points="368.5,-1124 433.5,-1124 "/>
<text text-anchor="middle" x="401" y="-1112" font-family="Helvetica,sans-Serif" font-size="10.00"> </text>
<polyline fill="none" stroke="#bfbfbf" points="368.5,-1105 433.5,-1105 "/>
<text text-anchor="middle" x="401" y="-1093" font-family="Helvetica,sans-Serif" font-size="10.00"> </text>
</a>
</g>
</g>
<!-- Node7&#45;&gt;Node6 -->
<g id="edge6" class="edge">
<title>Node7&#45;&gt;Node6</title>
<path fill="none" stroke="#404040" d="M400.54,-1085.94C399.84,-1043.27 398.45,-959.46 397.39,-895.73"/>
<polygon fill="none" stroke="#404040" points="397.39,-895.67 393.29,-889.74 397.19,-883.67 401.29,-889.6 397.39,-895.67"/>
<text text-anchor="middle" x="443.5" y="-979.5" font-family="Helvetica,sans-Serif" font-size="10.00"> +report_label_</text>
<text text-anchor="middle" x="443.5" y="-968.5" font-family="Helvetica,sans-Serif" font-size="10.00">+error_message_</text>
</g>
<!-- Node9 -->
<g id="node9" class="node">
<title>Node9</title>
<g id="a_node9"><a xlink:title=" ">
<polygon fill="white" stroke="#bfbfbf" points="241,-942.5 241,-1010.5 363,-1010.5 363,-942.5 241,-942.5"/>
<text text-anchor="start" x="249" y="-998.5" font-family="Helvetica,sans-Serif" font-size="10.00">std::map&lt; std::string,</text>
<text text-anchor="middle" x="302" y="-987.5" font-family="Helvetica,sans-Serif" font-size="10.00"> Counter &gt;</text>
<polyline fill="none" stroke="#bfbfbf" points="241,-980.5 363,-980.5 "/>
<text text-anchor="middle" x="302" y="-968.5" font-family="Helvetica,sans-Serif" font-size="10.00"> </text>
<polyline fill="none" stroke="#bfbfbf" points="241,-961.5 363,-961.5 "/>
<text text-anchor="middle" x="302" y="-949.5" font-family="Helvetica,sans-Serif" font-size="10.00"> </text>
</a>
</g>
</g>
<!-- Node7&#45;&gt;Node9 -->
<g id="edge9" class="edge">
<title>Node7&#45;&gt;Node9</title>
<path fill="none" stroke="#404040" d="M380,-1085.94C371.82,-1075.1 362.4,-1062.52 354,-1051 346.81,-1041.15 339.18,-1030.48 332.04,-1020.4"/>
<polygon fill="none" stroke="#404040" points="332.02,-1020.38 325.29,-1017.78 325.09,-1010.58 331.82,-1013.17 332.02,-1020.38"/>
<text text-anchor="middle" x="371" y="-1043" font-family="Helvetica,sans-Serif" font-size="10.00"> +keys</text>
</g>
<!-- Node8 -->
<g id="node8" class="node">
<title>Node8</title>
<g id="a_node8"><a xlink:title="STL class.">
<polygon fill="white" stroke="#bfbfbf" points="349,-1197.5 349,-1265.5 453,-1265.5 453,-1197.5 349,-1197.5"/>
<text text-anchor="start" x="357" y="-1253.5" font-family="Helvetica,sans-Serif" font-size="10.00">std::basic_string&lt;</text>
<text text-anchor="middle" x="401" y="-1242.5" font-family="Helvetica,sans-Serif" font-size="10.00"> char &gt;</text>
<polyline fill="none" stroke="#bfbfbf" points="349,-1235.5 453,-1235.5 "/>
<text text-anchor="middle" x="401" y="-1223.5" font-family="Helvetica,sans-Serif" font-size="10.00"> </text>
<polyline fill="none" stroke="#bfbfbf" points="349,-1216.5 453,-1216.5 "/>
<text text-anchor="middle" x="401" y="-1204.5" font-family="Helvetica,sans-Serif" font-size="10.00"> </text>
</a>
</g>
</g>
<!-- Node8&#45;&gt;Node7 -->
<g id="edge7" class="edge">
<title>Node8&#45;&gt;Node7</title>
<path fill="none" stroke="midnightblue" d="M401,-1186.87C401,-1172.23 401,-1156.33 401,-1143.25"/>
<polygon fill="none" stroke="midnightblue" points="397.5,-1187.24 401,-1197.24 404.5,-1187.24 397.5,-1187.24"/>
</g>
<!-- Node9&#45;&gt;Node1 -->
<g id="edge15" class="edge">
<title>Node9&#45;&gt;Node1</title>
<path fill="none" stroke="#404040" d="M301.08,-942.21C298.79,-863.5 292.09,-659.8 280,-490 279.19,-478.6 278.29,-466.93 277.34,-455.16"/>
<polygon fill="none" stroke="#404040" points="277.31,-454.81 272.83,-449.16 276.33,-442.85 280.81,-448.5 277.31,-454.81"/>
<text text-anchor="middle" x="320" y="-712" font-family="Helvetica,sans-Serif" font-size="10.00"> +counters</text>
</g>
<!-- Node9&#45;&gt;Node6 -->
<g id="edge8" class="edge">
<title>Node9&#45;&gt;Node6</title>
<path fill="none" stroke="#404040" d="M314.86,-942.29C320.25,-929.44 326.91,-914.78 334,-902 335.47,-899.35 337,-896.68 338.57,-894.01"/>
<polygon fill="none" stroke="#404040" points="338.61,-893.94 338.31,-886.74 344.84,-883.68 345.15,-890.88 338.61,-893.94"/>
<text text-anchor="middle" x="361" y="-905" font-family="Helvetica,sans-Serif" font-size="10.00"> +counters</text>
</g>
<!-- Node10 -->
<g id="node10" class="node">
<title>Node10</title>
<g id="a_node10"><a xlink:href="classbenchmark_1_1Counter.html" target="_top" xlink:title=" ">
<polygon fill="white" stroke="black" points="196,-1069.5 196,-1159.5 348,-1159.5 348,-1069.5 196,-1069.5"/>
<text text-anchor="middle" x="272" y="-1147.5" font-family="Helvetica,sans-Serif" font-size="10.00">benchmark::Counter</text>
<polyline fill="none" stroke="black" points="196,-1140.5 348,-1140.5 "/>
<text text-anchor="start" x="204" y="-1128.5" font-family="Helvetica,sans-Serif" font-size="10.00">+ value</text>
<text text-anchor="start" x="204" y="-1117.5" font-family="Helvetica,sans-Serif" font-size="10.00">+ flags</text>
<polyline fill="none" stroke="black" points="196,-1110.5 348,-1110.5 "/>
<text text-anchor="start" x="204" y="-1098.5" font-family="Helvetica,sans-Serif" font-size="10.00">+ Counter()</text>
<text text-anchor="start" x="204" y="-1087.5" font-family="Helvetica,sans-Serif" font-size="10.00">+ operator double const &amp;()</text>
<text text-anchor="start" x="204" y="-1076.5" font-family="Helvetica,sans-Serif" font-size="10.00">+ operator double &amp;()</text>
</a>
</g>
</g>
<!-- Node10&#45;&gt;Node9 -->
<g id="edge10" class="edge">
<title>Node10&#45;&gt;Node9</title>
<path fill="none" stroke="#404040" d="M269.6,-1069.22C269.91,-1059.5 270.87,-1049.33 273,-1040 274.38,-1033.96 276.38,-1027.8 278.71,-1021.83"/>
<polygon fill="none" stroke="#404040" points="278.78,-1021.67 277.46,-1014.58 283.49,-1010.63 284.81,-1017.72 278.78,-1021.67"/>
<text text-anchor="middle" x="302" y="-1043" font-family="Helvetica,sans-Serif" font-size="10.00"> +elements</text>
</g>
<!-- Node11 -->
<g id="node11" class="node">
<title>Node11</title>
<g id="a_node11"><a xlink:href="classbenchmark_1_1Mutex.html" target="_top" xlink:title=" ">
<polygon fill="white" stroke="black" points="540,-931.5 540,-1021.5 648,-1021.5 648,-931.5 540,-931.5"/>
<text text-anchor="middle" x="594" y="-1009.5" font-family="Helvetica,sans-Serif" font-size="10.00">benchmark::Mutex</text>
<polyline fill="none" stroke="black" points="540,-1002.5 648,-1002.5 "/>
<text text-anchor="middle" x="594" y="-990.5" font-family="Helvetica,sans-Serif" font-size="10.00"> </text>
<polyline fill="none" stroke="black" points="540,-983.5 648,-983.5 "/>
<text text-anchor="start" x="548" y="-971.5" font-family="Helvetica,sans-Serif" font-size="10.00">+ Mutex()</text>
<text text-anchor="start" x="548" y="-960.5" font-family="Helvetica,sans-Serif" font-size="10.00">+ lock()</text>
<text text-anchor="start" x="548" y="-949.5" font-family="Helvetica,sans-Serif" font-size="10.00">+ unlock()</text>
<text text-anchor="start" x="548" y="-938.5" font-family="Helvetica,sans-Serif" font-size="10.00">+ native_handle()</text>
</a>
</g>
</g>
<!-- Node11&#45;&gt;Node4 -->
<g id="edge11" class="edge">
<title>Node11&#45;&gt;Node4</title>
<path fill="none" stroke="#404040" d="M608.21,-931.5C623.27,-877.35 641.4,-783.46 614,-709 606.96,-689.88 595.28,-671.74 582.33,-655.7"/>
<polygon fill="none" stroke="#404040" points="582.32,-655.68 575.39,-653.67 574.59,-646.5 581.51,-648.52 582.32,-655.68"/>
<text text-anchor="middle" x="680" y="-814" font-family="Helvetica,sans-Serif" font-size="10.00"> &#45;benchmark_mutex_</text>
<text text-anchor="middle" x="680" y="-803" font-family="Helvetica,sans-Serif" font-size="10.00">&#45;end_cond_mutex_</text>
</g>
<!-- Node13 -->
<g id="node13" class="node">
<title>Node13</title>
<g id="a_node13"><a xlink:href="classbenchmark_1_1Barrier.html" target="_top" xlink:title=" ">
<polygon fill="white" stroke="black" points="482,-749.5 482,-872.5 592,-872.5 592,-749.5 482,-749.5"/>
<text text-anchor="middle" x="537" y="-860.5" font-family="Helvetica,sans-Serif" font-size="10.00">benchmark::Barrier</text>
<polyline fill="none" stroke="black" points="482,-853.5 592,-853.5 "/>
<text text-anchor="start" x="490" y="-841.5" font-family="Helvetica,sans-Serif" font-size="10.00">&#45; phase_condition_</text>
<text text-anchor="start" x="490" y="-830.5" font-family="Helvetica,sans-Serif" font-size="10.00">&#45; running_threads_</text>
<text text-anchor="start" x="490" y="-819.5" font-family="Helvetica,sans-Serif" font-size="10.00">&#45; phase_number_</text>
<text text-anchor="start" x="490" y="-808.5" font-family="Helvetica,sans-Serif" font-size="10.00">&#45; entered_</text>
<polyline fill="none" stroke="black" points="482,-801.5 592,-801.5 "/>
<text text-anchor="start" x="490" y="-789.5" font-family="Helvetica,sans-Serif" font-size="10.00">+ Barrier()</text>
<text text-anchor="start" x="490" y="-778.5" font-family="Helvetica,sans-Serif" font-size="10.00">+ wait()</text>
<text text-anchor="start" x="490" y="-767.5" font-family="Helvetica,sans-Serif" font-size="10.00">+ removeThread()</text>
<text text-anchor="start" x="490" y="-756.5" font-family="Helvetica,sans-Serif" font-size="10.00">&#45; createBarrier()</text>
</a>
</g>
</g>
<!-- Node11&#45;&gt;Node13 -->
<g id="edge14" class="edge">
<title>Node11&#45;&gt;Node13</title>
<path fill="none" stroke="#404040" d="M578.57,-931.25C573.51,-916.72 567.74,-900.16 562.14,-884.11"/>
<polygon fill="none" stroke="#404040" points="562.06,-883.88 556.31,-879.53 558.11,-872.55 563.86,-876.9 562.06,-883.88"/>
<text text-anchor="middle" x="587.5" y="-905" font-family="Helvetica,sans-Serif" font-size="10.00"> &#45;lock_</text>
</g>
<!-- Node12 -->
<g id="node12" class="node">
<title>Node12</title>
<g id="a_node12"><a xlink:title="STL class.">
<polygon fill="white" stroke="#bfbfbf" points="559.5,-1086 559.5,-1143 628.5,-1143 628.5,-1086 559.5,-1086"/>
<text text-anchor="middle" x="594" y="-1131" font-family="Helvetica,sans-Serif" font-size="10.00">std::mutex</text>
<polyline fill="none" stroke="#bfbfbf" points="559.5,-1124 628.5,-1124 "/>
<text text-anchor="middle" x="594" y="-1112" font-family="Helvetica,sans-Serif" font-size="10.00"> </text>
<polyline fill="none" stroke="#bfbfbf" points="559.5,-1105 628.5,-1105 "/>
<text text-anchor="middle" x="594" y="-1093" font-family="Helvetica,sans-Serif" font-size="10.00"> </text>
</a>
</g>
</g>
<!-- Node12&#45;&gt;Node11 -->
<g id="edge12" class="edge">
<title>Node12&#45;&gt;Node11</title>
<path fill="none" stroke="#404040" d="M594,-1085.98C594,-1070.97 594,-1051.82 594,-1033.81"/>
<polygon fill="none" stroke="#404040" points="594,-1033.58 590,-1027.58 594,-1021.58 598,-1027.58 594,-1033.58"/>
<text text-anchor="middle" x="610" y="-1043" font-family="Helvetica,sans-Serif" font-size="10.00"> &#45;mut_</text>
</g>
<!-- Node13&#45;&gt;Node4 -->
<g id="edge13" class="edge">
<title>Node13&#45;&gt;Node4</title>
<path fill="none" stroke="#404040" d="M520.15,-749.36C518.03,-739.61 516.19,-729.58 515,-720 512.54,-700.2 511.67,-678.55 511.59,-658.76"/>
<polygon fill="none" stroke="#404040" points="511.59,-658.71 507.61,-652.7 511.63,-646.71 515.61,-652.73 511.59,-658.71"/>
<text text-anchor="middle" x="564.5" y="-712" font-family="Helvetica,sans-Serif" font-size="10.00"> &#45;start_stop_barrier_</text>
</g>
</g>
</svg>
        <g id="navigator" transform="translate(0 0)" fill="#404254">
                <rect fill="#f2f5e9" fill-opacity="0.5" stroke="#606060" stroke-width=".5" x="0" y="0" width="60" height="60"/>
                <use id="zoomplus" xlink:href="#zoomPlus" x="17" y="9" onmousedown="handleZoom(evt,'in')"/>
                <use id="zoomminus" xlink:href="#zoomMin" x="42" y="9" onmousedown="handleZoom(evt,'out')"/>
                <use id="reset" xlink:href="#resetDef" x="30" y="36" onmousedown="handleReset()"/>
                <g id="arrowUp" xlink:href="#dirArrow" transform="translate(30 24)" onmousedown="handlePan(0,-1)">
                  <use xlink:href="#rim" fill="#404040">
                        <set attributeName="fill" to="#808080" begin="arrowUp.mouseover" end="arrowUp.mouseout"/>
                  </use>
                  <path fill="none" stroke="white" stroke-width="1.5" d="M0,-3.0v7 M-2.5,-0.5L0,-3.0L2.5,-0.5"/>
                </g>
                <g id="arrowRight" xlink:href="#dirArrow" transform="rotate(90) translate(36 -43)" onmousedown="handlePan(1,0)">
                  <use xlink:href="#rim" fill="#404040">
                        <set attributeName="fill" to="#808080" begin="arrowRight.mouseover" end="arrowRight.mouseout"/>
                  </use>
                  <path fill="none" stroke="white" stroke-width="1.5" d="M0,-3.0v7 M-2.5,-0.5L0,-3.0L2.5,-0.5"/>
                </g>
                <g id="arrowDown" xlink:href="#dirArrow" transform="rotate(180) translate(-30 -48)" onmousedown="handlePan(0,1)">
                  <use xlink:href="#rim" fill="#404040">
                        <set attributeName="fill" to="#808080" begin="arrowDown.mouseover" end="arrowDown.mouseout"/>
                  </use>
                  <path fill="none" stroke="white" stroke-width="1.5" d="M0,-3.0v7 M-2.5,-0.5L0,-3.0L2.5,-0.5"/>
                </g>
                <g id="arrowLeft" xlink:href="#dirArrow" transform="rotate(270) translate(-36 17)" onmousedown="handlePan(-1,0)">
                  <use xlink:href="#rim" fill="#404040">
                        <set attributeName="fill" to="#808080" begin="arrowLeft.mouseover" end="arrowLeft.mouseout"/>
                  </use>
                  <path fill="none" stroke="white" stroke-width="1.5" d="M0,-3.0v7 M-2.5,-0.5L0,-3.0L2.5,-0.5"/>
                </g>
        </g>
        <svg viewBox="0 0 15 15" width="100%" height="30px" preserveAspectRatio="xMaxYMin meet">
         <g id="arrow_out" transform="scale(0.3 0.3)">
          <a xlink:href="classbenchmark_1_1State__coll__graph_org.svg" target="_base">
           <rect id="button" ry="5" rx="5" y="6" x="6" height="38" width="38"
                fill="#f2f5e9" fill-opacity="0.5" stroke="#606060" stroke-width="1.0"/>
           <path id="arrow"
             d="M 11.500037,31.436501 C 11.940474,20.09759 22.043105,11.32322 32.158766,21.979434 L 37.068811,17.246167 C 37.068811,17.246167 37.088388,32 37.088388,32 L 22.160133,31.978069 C 22.160133,31.978069 26.997745,27.140456 26.997745,27.140456 C 18.528582,18.264221 13.291696,25.230495 11.500037,31.436501 z"
             style="fill:#404040;"/>
          </a>
         </g>
        </svg>
</svg>
