<?xml version="1.0" encoding="UTF-8" standalone="no"?>
<!DOCTYPE svg PUBLIC "-//W3C//DTD SVG 1.1//EN"
 "http://www.w3.org/Graphics/SVG/1.1/DTD/svg11.dtd">
<!-- Generated by graphviz version 2.43.0 (0)
 -->
<!-- Title: nlohmann::detail::lexer::reset Pages: 1 -->
<svg width="1265pt" height="128pt"
 viewBox="0.00 0.00 1265.00 127.60" xmlns="http://www.w3.org/2000/svg" xmlns:xlink="http://www.w3.org/1999/xlink">
<g id="graph0" class="graph" transform="scale(1 1) rotate(0) translate(4 123.6)">
<title>nlohmann::detail::lexer::reset</title>
<polygon fill="white" stroke="transparent" points="-4,4 -4,-123.6 1261,-123.6 1261,4 -4,4"/>
<!-- Node1 -->
<g id="node1" class="node">
<title>Node1</title>
<g id="a_node1"><a xlink:title="reset token_buffer; current character is beginning of token">
<polygon fill="#bfbfbf" stroke="black" points="1127,-46.5 1127,-76.5 1257,-76.5 1257,-46.5 1127,-46.5"/>
<text text-anchor="start" x="1135" y="-64.5" font-family="Helvetica,sans-Serif" font-size="10.00">nlohmann::detail::lexer</text>
<text text-anchor="middle" x="1192" y="-53.5" font-family="Helvetica,sans-Serif" font-size="10.00">::reset</text>
</a>
</g>
</g>
<!-- Node2 -->
<g id="node2" class="node">
<title>Node2</title>
<g id="a_node2"><a xlink:href="classnlohmann_1_1detail_1_1lexer.html#a6bd7e6cdb0380a9df663f1c7f115f34f" target="_top" xlink:title="scan a number literal">
<polygon fill="white" stroke="black" points="961,-71.5 961,-101.5 1091,-101.5 1091,-71.5 961,-71.5"/>
<text text-anchor="start" x="969" y="-89.5" font-family="Helvetica,sans-Serif" font-size="10.00">nlohmann::detail::lexer</text>
<text text-anchor="middle" x="1026" y="-78.5" font-family="Helvetica,sans-Serif" font-size="10.00">::scan_number</text>
</a>
</g>
</g>
<!-- Node1&#45;&gt;Node2 -->
<g id="edge1" class="edge">
<title>Node1&#45;&gt;Node2</title>
<path fill="none" stroke="midnightblue" d="M1116.71,-72.82C1108.18,-74.12 1099.54,-75.44 1091.16,-76.72"/>
<polygon fill="midnightblue" stroke="midnightblue" points="1117.3,-76.28 1126.65,-71.31 1116.24,-69.36 1117.3,-76.28"/>
</g>
<!-- Node11 -->
<g id="node11" class="node">
<title>Node11</title>
<g id="a_node11"><a xlink:href="classnlohmann_1_1detail_1_1lexer.html#ad271045d1c91df9d6a119482b4aeae7f" target="_top" xlink:title="scan a string literal">
<polygon fill="white" stroke="black" points="961,-22.5 961,-52.5 1091,-52.5 1091,-22.5 961,-22.5"/>
<text text-anchor="start" x="969" y="-40.5" font-family="Helvetica,sans-Serif" font-size="10.00">nlohmann::detail::lexer</text>
<text text-anchor="middle" x="1026" y="-29.5" font-family="Helvetica,sans-Serif" font-size="10.00">::scan_string</text>
</a>
</g>
</g>
<!-- Node1&#45;&gt;Node11 -->
<g id="edge12" class="edge">
<title>Node1&#45;&gt;Node11</title>
<path fill="none" stroke="midnightblue" d="M1116.71,-50.63C1108.18,-49.38 1099.54,-48.12 1091.16,-46.89"/>
<polygon fill="midnightblue" stroke="midnightblue" points="1116.25,-54.1 1126.65,-52.08 1117.27,-47.17 1116.25,-54.1"/>
</g>
<!-- Node3 -->
<g id="node3" class="node">
<title>Node3</title>
<g id="a_node3"><a xlink:href="classnlohmann_1_1detail_1_1lexer.html#aac3041cd2b9291e64fee38db422863c9" target="_top" xlink:title=" ">
<polygon fill="white" stroke="black" points="795,-46.5 795,-76.5 925,-76.5 925,-46.5 795,-46.5"/>
<text text-anchor="start" x="803" y="-64.5" font-family="Helvetica,sans-Serif" font-size="10.00">nlohmann::detail::lexer</text>
<text text-anchor="middle" x="860" y="-53.5" font-family="Helvetica,sans-Serif" font-size="10.00">::scan</text>
</a>
</g>
</g>
<!-- Node2&#45;&gt;Node3 -->
<g id="edge2" class="edge">
<title>Node2&#45;&gt;Node3</title>
<path fill="none" stroke="midnightblue" d="M950.71,-75.18C942.18,-73.88 933.54,-72.56 925.16,-71.28"/>
<polygon fill="midnightblue" stroke="midnightblue" points="950.24,-78.64 960.65,-76.69 951.3,-71.72 950.24,-78.64"/>
</g>
<!-- Node4 -->
<g id="node4" class="node">
<title>Node4</title>
<g id="a_node4"><a xlink:href="classnlohmann_1_1detail_1_1parser.html#a33f3859d0dd402445b5859070fd24bab" target="_top" xlink:title="get next token from lexer">
<polygon fill="white" stroke="black" points="623,-46.5 623,-76.5 759,-76.5 759,-46.5 623,-46.5"/>
<text text-anchor="start" x="631" y="-64.5" font-family="Helvetica,sans-Serif" font-size="10.00">nlohmann::detail::parser</text>
<text text-anchor="middle" x="691" y="-53.5" font-family="Helvetica,sans-Serif" font-size="10.00">::get_token</text>
</a>
</g>
</g>
<!-- Node3&#45;&gt;Node4 -->
<g id="edge3" class="edge">
<title>Node3&#45;&gt;Node4</title>
<path fill="none" stroke="midnightblue" d="M784.67,-61.5C776.2,-61.5 767.61,-61.5 759.24,-61.5"/>
<polygon fill="midnightblue" stroke="midnightblue" points="784.91,-65 794.91,-61.5 784.91,-58 784.91,-65"/>
</g>
<!-- Node5 -->
<g id="node5" class="node">
<title>Node5</title>
<g id="a_node5"><a xlink:href="classnlohmann_1_1detail_1_1parser.html#a14338d8f3174601c0b2b7ef28752ab17" target="_top" xlink:title="public parser interface">
<polygon fill="white" stroke="black" points="279,-82.5 279,-112.5 415,-112.5 415,-82.5 279,-82.5"/>
<text text-anchor="start" x="287" y="-100.5" font-family="Helvetica,sans-Serif" font-size="10.00">nlohmann::detail::parser</text>
<text text-anchor="middle" x="347" y="-89.5" font-family="Helvetica,sans-Serif" font-size="10.00">::parse</text>
</a>
</g>
</g>
<!-- Node4&#45;&gt;Node5 -->
<g id="edge4" class="edge">
<title>Node4&#45;&gt;Node5</title>
<path fill="none" stroke="midnightblue" d="M657.78,-81.84C638.15,-93.01 612.09,-105.73 587,-111.5 529.99,-124.61 463.42,-119.07 415.04,-111.43"/>
<polygon fill="midnightblue" stroke="midnightblue" points="659.73,-84.75 666.59,-76.68 656.19,-78.71 659.73,-84.75"/>
</g>
<!-- Node6 -->
<g id="node6" class="node">
<title>Node6</title>
<g id="a_node6"><a xlink:href="classnlohmann_1_1detail_1_1parser.html#a1a2bd258b7e99f86b7e6a3c41373ba55" target="_top" xlink:title="a parser reading from an input adapter">
<polygon fill="white" stroke="black" points="451,-71.5 451,-101.5 587,-101.5 587,-71.5 451,-71.5"/>
<text text-anchor="start" x="459" y="-89.5" font-family="Helvetica,sans-Serif" font-size="10.00">nlohmann::detail::parser</text>
<text text-anchor="middle" x="519" y="-78.5" font-family="Helvetica,sans-Serif" font-size="10.00">::parser</text>
</a>
</g>
</g>
<!-- Node4&#45;&gt;Node6 -->
<g id="edge5" class="edge">
<title>Node4&#45;&gt;Node6</title>
<path fill="none" stroke="midnightblue" d="M612.85,-72.85C604.31,-74.1 595.66,-75.37 587.26,-76.61"/>
<polygon fill="midnightblue" stroke="midnightblue" points="613.43,-76.3 622.81,-71.38 612.41,-69.37 613.43,-76.3"/>
</g>
<!-- Node7 -->
<g id="node7" class="node">
<title>Node7</title>
<g id="a_node7"><a xlink:href="classnlohmann_1_1detail_1_1parser.html#a14e34931965064b26e118eb72cbd5e25" target="_top" xlink:title=" ">
<polygon fill="white" stroke="black" points="279,-0.5 279,-30.5 415,-30.5 415,-0.5 279,-0.5"/>
<text text-anchor="start" x="287" y="-18.5" font-family="Helvetica,sans-Serif" font-size="10.00">nlohmann::detail::parser</text>
<text text-anchor="middle" x="347" y="-7.5" font-family="Helvetica,sans-Serif" font-size="10.00">::sax_parse</text>
</a>
</g>
</g>
<!-- Node4&#45;&gt;Node7 -->
<g id="edge6" class="edge">
<title>Node4&#45;&gt;Node7</title>
<path fill="none" stroke="midnightblue" d="M657.33,-41.35C637.73,-30.45 611.85,-18.11 587,-12.5 530.03,0.36 463.46,-1.83 415.06,-6.4"/>
<polygon fill="midnightblue" stroke="midnightblue" points="655.72,-44.46 666.14,-46.38 659.2,-38.38 655.72,-44.46"/>
</g>
<!-- Node10 -->
<g id="node10" class="node">
<title>Node10</title>
<g id="a_node10"><a xlink:href="classnlohmann_1_1detail_1_1parser.html#ad256ac6f45b213d29096a04b5aa3c587" target="_top" xlink:title=" ">
<polygon fill="white" stroke="black" points="451,-22.5 451,-52.5 587,-52.5 587,-22.5 451,-22.5"/>
<text text-anchor="start" x="459" y="-40.5" font-family="Helvetica,sans-Serif" font-size="10.00">nlohmann::detail::parser</text>
<text text-anchor="middle" x="519" y="-29.5" font-family="Helvetica,sans-Serif" font-size="10.00">::sax_parse_internal</text>
</a>
</g>
</g>
<!-- Node4&#45;&gt;Node10 -->
<g id="edge9" class="edge">
<title>Node4&#45;&gt;Node10</title>
<path fill="none" stroke="midnightblue" d="M612.85,-50.61C604.31,-49.4 595.66,-48.18 587.26,-47"/>
<polygon fill="midnightblue" stroke="midnightblue" points="612.42,-54.08 622.81,-52.01 613.4,-47.15 612.42,-54.08"/>
</g>
<!-- Node8 -->
<g id="node8" class="node">
<title>Node8</title>
<g id="a_node8"><a xlink:href="classnlohmann_1_1detail_1_1parser.html#a20997b42262856935b60fc91bf05bf3f" target="_top" xlink:title="public accept interface">
<polygon fill="white" stroke="black" points="107,-0.5 107,-30.5 243,-30.5 243,-0.5 107,-0.5"/>
<text text-anchor="start" x="115" y="-18.5" font-family="Helvetica,sans-Serif" font-size="10.00">nlohmann::detail::parser</text>
<text text-anchor="middle" x="175" y="-7.5" font-family="Helvetica,sans-Serif" font-size="10.00">::accept</text>
</a>
</g>
</g>
<!-- Node7&#45;&gt;Node8 -->
<g id="edge7" class="edge">
<title>Node7&#45;&gt;Node8</title>
<path fill="none" stroke="midnightblue" d="M268.58,-15.5C260.12,-15.5 251.57,-15.5 243.26,-15.5"/>
<polygon fill="midnightblue" stroke="midnightblue" points="268.81,-19 278.81,-15.5 268.81,-12 268.81,-19"/>
</g>
<!-- Node9 -->
<g id="node9" class="node">
<title>Node9</title>
<g id="a_node9"><a xlink:href="unit-class__parser_8cpp.html#aa0249936738cc61255ba7c8cb7c7cf16" target="_top" xlink:title=" ">
<polygon fill="white" stroke="black" points="0,-6 0,-25 71,-25 71,-6 0,-6"/>
<text text-anchor="middle" x="35.5" y="-13" font-family="Helvetica,sans-Serif" font-size="10.00">TEST_CASE</text>
</a>
</g>
</g>
<!-- Node8&#45;&gt;Node9 -->
<g id="edge8" class="edge">
<title>Node8&#45;&gt;Node9</title>
<path fill="none" stroke="midnightblue" d="M96.7,-15.5C87.75,-15.5 78.99,-15.5 71.05,-15.5"/>
<polygon fill="midnightblue" stroke="midnightblue" points="96.86,-19 106.86,-15.5 96.86,-12 96.86,-19"/>
</g>
<!-- Node10&#45;&gt;Node5 -->
<g id="edge10" class="edge">
<title>Node10&#45;&gt;Node5</title>
<path fill="none" stroke="midnightblue" d="M465.42,-56.06C441.38,-64.54 413.28,-74.46 390.59,-82.47"/>
<polygon fill="midnightblue" stroke="midnightblue" points="466.84,-59.27 475.1,-52.64 464.51,-52.67 466.84,-59.27"/>
</g>
<!-- Node10&#45;&gt;Node7 -->
<g id="edge11" class="edge">
<title>Node10&#45;&gt;Node7</title>
<path fill="none" stroke="midnightblue" d="M440.85,-27.52C432.31,-26.41 423.66,-25.29 415.26,-24.2"/>
<polygon fill="midnightblue" stroke="midnightblue" points="440.44,-30.99 450.81,-28.81 441.34,-24.05 440.44,-30.99"/>
</g>
<!-- Node11&#45;&gt;Node3 -->
<g id="edge13" class="edge">
<title>Node11&#45;&gt;Node3</title>
<path fill="none" stroke="midnightblue" d="M950.71,-48.37C942.18,-49.62 933.54,-50.88 925.16,-52.11"/>
<polygon fill="midnightblue" stroke="midnightblue" points="951.27,-51.83 960.65,-46.92 950.25,-44.9 951.27,-51.83"/>
</g>
</g>
</svg>
