<?xml version="1.0" encoding="UTF-8" standalone="no"?>
<!DOCTYPE svg PUBLIC "-//W3C//DTD SVG 1.1//EN"
 "http://www.w3.org/Graphics/SVG/1.1/DTD/svg11.dtd">
<!-- Generated by graphviz version 2.43.0 (0)
 -->
<!-- Title: nlohmann::basic_json::create Pages: 1 -->
<svg width="310pt" height="116pt"
 viewBox="0.00 0.00 310.00 115.50" xmlns="http://www.w3.org/2000/svg" xmlns:xlink="http://www.w3.org/1999/xlink">
<g id="graph0" class="graph" transform="scale(1 1) rotate(0) translate(4 111.5)">
<title>nlohmann::basic_json::create</title>
<polygon fill="white" stroke="transparent" points="-4,4 -4,-111.5 306,-111.5 306,4 -4,4"/>
<!-- Node1 -->
<g id="node1" class="node">
<title>Node1</title>
<g id="a_node1"><a xlink:title="helper for exception&#45;safe object creation">
<polygon fill="#bfbfbf" stroke="black" points="0,-44.5 0,-74.5 122,-74.5 122,-44.5 0,-44.5"/>
<text text-anchor="start" x="8" y="-62.5" font-family="Helvetica,sans-Serif" font-size="10.00">nlohmann::basic_json</text>
<text text-anchor="middle" x="61" y="-51.5" font-family="Helvetica,sans-Serif" font-size="10.00">::create</text>
</a>
</g>
</g>
<!-- Node2 -->
<g id="node2" class="node">
<title>Node2</title>
<g id="a_node2"><a xlink:href="FuzzerTracePC_8cpp.html#a1f10ac78bd11294b612636121065eb5b" target="_top" xlink:title=" ">
<polygon fill="white" stroke="black" points="206.5,-88 206.5,-107 253.5,-107 253.5,-88 206.5,-88"/>
<text text-anchor="middle" x="230" y="-95" font-family="Helvetica,sans-Serif" font-size="10.00">assert</text>
</a>
</g>
</g>
<!-- Node1&#45;&gt;Node2 -->
<g id="edge1" class="edge">
<title>Node1&#45;&gt;Node2</title>
<path fill="none" stroke="midnightblue" d="M122.29,-73.22C147.23,-78.89 175.16,-85.25 196.2,-90.04"/>
<polygon fill="midnightblue" stroke="midnightblue" points="195.69,-93.51 206.22,-92.32 197.24,-86.68 195.69,-93.51"/>
</g>
<!-- Node3 -->
<g id="node3" class="node">
<title>Node3</title>
<g id="a_node3"><a xlink:href="classnlohmann_1_1basic__json.html#a6b187a22994c12c8cae0dd5ee99dc85e" target="_top" xlink:title="get special&#45;case overload">
<polygon fill="white" stroke="black" points="158,-50 158,-69 302,-69 302,-50 158,-50"/>
<text text-anchor="middle" x="230" y="-57" font-family="Helvetica,sans-Serif" font-size="10.00">nlohmann::basic_json::get</text>
</a>
</g>
</g>
<!-- Node1&#45;&gt;Node3 -->
<g id="edge2" class="edge">
<title>Node1&#45;&gt;Node3</title>
<path fill="none" stroke="midnightblue" d="M122.29,-59.5C130.62,-59.5 139.28,-59.5 147.91,-59.5"/>
<polygon fill="midnightblue" stroke="midnightblue" points="148,-63 158,-59.5 148,-56 148,-63"/>
</g>
<!-- Node4 -->
<g id="node4" class="node">
<title>Node4</title>
<g id="a_node4"><a xlink:href="classnlohmann_1_1basic__json.html#a31f84ee15c4690ff705bed74736d04c6" target="_top" xlink:title="explicitly create an object from an initializer list">
<polygon fill="white" stroke="black" points="169,-0.5 169,-30.5 291,-30.5 291,-0.5 169,-0.5"/>
<text text-anchor="start" x="177" y="-18.5" font-family="Helvetica,sans-Serif" font-size="10.00">nlohmann::basic_json</text>
<text text-anchor="middle" x="230" y="-7.5" font-family="Helvetica,sans-Serif" font-size="10.00">::object</text>
</a>
</g>
</g>
<!-- Node1&#45;&gt;Node4 -->
<g id="edge3" class="edge">
<title>Node1&#45;&gt;Node4</title>
<path fill="none" stroke="midnightblue" d="M119,-44.48C132.9,-40.82 147.89,-36.87 162.2,-33.1"/>
<polygon fill="midnightblue" stroke="midnightblue" points="163.19,-36.46 171.97,-30.53 161.41,-29.69 163.19,-36.46"/>
</g>
</g>
</svg>
