<?xml version="1.0" encoding="UTF-8" standalone="no"?>
<!DOCTYPE svg PUBLIC "-//W3C//DTD SVG 1.1//EN"
 "http://www.w3.org/Graphics/SVG/1.1/DTD/svg11.dtd">
<!-- Generated by graphviz version 2.43.0 (0)
 -->
<!-- Title: httplib::ClientImpl::process_socket Pages: 1 -->
<!--zoomable 399 -->
<svg id="main" version="1.1" xmlns="http://www.w3.org/2000/svg" xmlns:xlink="http://www.w3.org/1999/xlink" xml:space="preserve" onload="init(evt)">
<style type="text/css"><![CDATA[
.edge:hover path { stroke: red; }
.edge:hover polygon { stroke: red; fill: red; }
]]></style>
<script type="text/javascript"><![CDATA[
var edges = document.getElementsByTagName('g');
if (edges && edges.length) {
  for (var i=0;i<edges.length;i++) {
    if (edges[i].id.substr(0,4)=='edge') {
      edges[i].setAttribute('class','edge');
    }
  }
}
]]></script>
        <defs>
                <circle id="rim" cx="0" cy="0" r="7"/>
                <circle id="rim2" cx="0" cy="0" r="3.5"/>
                <g id="zoomPlus">
                        <use xlink:href="#rim" fill="#404040">
                                <set attributeName="fill" to="#808080" begin="zoomplus.mouseover" end="zoomplus.mouseout"/>
                        </use>
                        <path d="M-4,0h8M0,-4v8" fill="none" stroke="white" stroke-width="1.5" pointer-events="none"/>
                </g>
                <g id="zoomMin">
                        <use xlink:href="#rim" fill="#404040">
                                <set attributeName="fill" to="#808080" begin="zoomminus.mouseover" end="zoomminus.mouseout"/>
                        </use>
                        <path d="M-4,0h8" fill="none" stroke="white" stroke-width="1.5" pointer-events="none"/>
                </g>
                <g id="dirArrow">
                        <path fill="none" stroke="white" stroke-width="1.5" d="M0,-3.0v7 M-2.5,-0.5L0,-3.0L2.5,-0.5"/>
                </g>
               <g id="resetDef">
                       <use xlink:href="#rim2" fill="#404040">
                               <set attributeName="fill" to="#808080" begin="reset.mouseover" end="reset.mouseout"/>
                       </use>
               </g>
        </defs>

<script type="text/javascript">
var viewWidth = 728;
var viewHeight = 399;
var sectionId = 'dynsection-69';
</script>
<script xlink:href="svgpan.js"/>
<svg id="graph" class="graph">
<g id="viewport">
<title>httplib::ClientImpl::process_socket</title>
<polygon fill="white" stroke="transparent" points="-4,4 -4,-394.5 724,-394.5 724,4 -4,4"/>
<!-- Node1 -->
<g id="node1" class="node">
<title>Node1</title>
<g id="a_node1"><a xlink:title=" ">
<polygon fill="#bfbfbf" stroke="black" points="616,-247 616,-277 720,-277 720,-247 616,-247"/>
<text text-anchor="start" x="624" y="-265" font-family="Helvetica,sans-Serif" font-size="10.00">httplib::ClientImpl</text>
<text text-anchor="middle" x="668" y="-254" font-family="Helvetica,sans-Serif" font-size="10.00">::process_socket</text>
</a>
</g>
</g>
<!-- Node2 -->
<g id="node2" class="node">
<title>Node2</title>
<g id="a_node2"><a xlink:href="classhttplib_1_1ClientImpl.html#ab783868da89488b0bf734e8d83b5e569" target="_top" xlink:title=" ">
<polygon fill="white" stroke="black" points="476,-247 476,-277 580,-277 580,-247 476,-247"/>
<text text-anchor="start" x="484" y="-265" font-family="Helvetica,sans-Serif" font-size="10.00">httplib::ClientImpl</text>
<text text-anchor="middle" x="528" y="-254" font-family="Helvetica,sans-Serif" font-size="10.00">::send_</text>
</a>
</g>
</g>
<!-- Node1&#45;&gt;Node2 -->
<g id="edge1" class="edge">
<title>Node1&#45;&gt;Node2</title>
<path fill="none" stroke="midnightblue" d="M605.5,-262C597.13,-262 588.6,-262 580.43,-262"/>
<polygon fill="midnightblue" stroke="midnightblue" points="605.61,-265.5 615.61,-262 605.61,-258.5 605.61,-265.5"/>
</g>
<!-- Node3 -->
<g id="node3" class="node">
<title>Node3</title>
<g id="a_node3"><a xlink:href="classhttplib_1_1ClientImpl.html#a5973f9c3afa13416417fd7a317eb811b" target="_top" xlink:title=" ">
<polygon fill="white" stroke="black" points="324,-360 324,-390 428,-390 428,-360 324,-360"/>
<text text-anchor="start" x="332" y="-378" font-family="Helvetica,sans-Serif" font-size="10.00">httplib::ClientImpl</text>
<text text-anchor="middle" x="376" y="-367" font-family="Helvetica,sans-Serif" font-size="10.00">::Delete</text>
</a>
</g>
</g>
<!-- Node2&#45;&gt;Node3 -->
<g id="edge2" class="edge">
<title>Node2&#45;&gt;Node3</title>
<path fill="none" stroke="midnightblue" d="M508.87,-285.09C492.59,-304.57 467.12,-332.06 440,-350 434.41,-353.7 428.18,-356.99 421.88,-359.87"/>
<polygon fill="midnightblue" stroke="midnightblue" points="511.64,-287.24 515.27,-277.29 506.22,-282.8 511.64,-287.24"/>
</g>
<!-- Node4 -->
<g id="node4" class="node">
<title>Node4</title>
<g id="a_node4"><a xlink:href="classhttplib_1_1ClientImpl.html#ad073f1945ddc13fc4778449739430889" target="_top" xlink:title=" ">
<polygon fill="white" stroke="black" points="312,-321.5 312,-340.5 440,-340.5 440,-321.5 312,-321.5"/>
<text text-anchor="middle" x="376" y="-328.5" font-family="Helvetica,sans-Serif" font-size="10.00">httplib::ClientImpl::Get</text>
</a>
</g>
</g>
<!-- Node2&#45;&gt;Node4 -->
<g id="edge3" class="edge">
<title>Node2&#45;&gt;Node4</title>
<path fill="none" stroke="midnightblue" d="M495.6,-282.38C479.45,-292.25 459.17,-303.73 440,-312 431.71,-315.57 422.54,-318.75 413.82,-321.44"/>
<polygon fill="midnightblue" stroke="midnightblue" points="497.47,-285.34 504.12,-277.09 493.78,-279.39 497.47,-285.34"/>
</g>
<!-- Node5 -->
<g id="node5" class="node">
<title>Node5</title>
<g id="a_node5"><a xlink:href="classhttplib_1_1ClientImpl.html#adf64c589c0334ccd516905484140e0d1" target="_top" xlink:title=" ">
<polygon fill="white" stroke="black" points="324,-272 324,-302 428,-302 428,-272 324,-272"/>
<text text-anchor="start" x="332" y="-290" font-family="Helvetica,sans-Serif" font-size="10.00">httplib::ClientImpl</text>
<text text-anchor="middle" x="376" y="-279" font-family="Helvetica,sans-Serif" font-size="10.00">::Head</text>
</a>
</g>
</g>
<!-- Node2&#45;&gt;Node5 -->
<g id="edge4" class="edge">
<title>Node2&#45;&gt;Node5</title>
<path fill="none" stroke="midnightblue" d="M465.91,-272.18C453.39,-274.27 440.35,-276.44 428.23,-278.46"/>
<polygon fill="midnightblue" stroke="midnightblue" points="466.51,-275.63 475.8,-270.53 465.36,-268.73 466.51,-275.63"/>
</g>
<!-- Node6 -->
<g id="node6" class="node">
<title>Node6</title>
<g id="a_node6"><a xlink:href="classhttplib_1_1ClientImpl.html#a0de10ef5e77b7c6cc83674bd86bc2e8a" target="_top" xlink:title=" ">
<polygon fill="white" stroke="black" points="324,-223 324,-253 428,-253 428,-223 324,-223"/>
<text text-anchor="start" x="332" y="-241" font-family="Helvetica,sans-Serif" font-size="10.00">httplib::ClientImpl</text>
<text text-anchor="middle" x="376" y="-230" font-family="Helvetica,sans-Serif" font-size="10.00">::Options</text>
</a>
</g>
</g>
<!-- Node2&#45;&gt;Node6 -->
<g id="edge5" class="edge">
<title>Node2&#45;&gt;Node6</title>
<path fill="none" stroke="midnightblue" d="M465.91,-252.23C453.39,-250.22 440.35,-248.14 428.23,-246.2"/>
<polygon fill="midnightblue" stroke="midnightblue" points="465.37,-255.68 475.8,-253.81 466.48,-248.77 465.37,-255.68"/>
</g>
<!-- Node7 -->
<g id="node7" class="node">
<title>Node7</title>
<g id="a_node7"><a xlink:href="classhttplib_1_1ClientImpl.html#a618895e4b137663691fdc41fd998b843" target="_top" xlink:title=" ">
<polygon fill="white" stroke="black" points="324,-134 324,-164 428,-164 428,-134 324,-134"/>
<text text-anchor="start" x="332" y="-152" font-family="Helvetica,sans-Serif" font-size="10.00">httplib::ClientImpl</text>
<text text-anchor="middle" x="376" y="-141" font-family="Helvetica,sans-Serif" font-size="10.00">::send</text>
</a>
</g>
</g>
<!-- Node2&#45;&gt;Node7 -->
<g id="edge6" class="edge">
<title>Node2&#45;&gt;Node7</title>
<path fill="none" stroke="midnightblue" d="M506.6,-239.36C489.88,-221.7 464.99,-197.34 440,-180 431.49,-174.09 421.68,-168.69 412.38,-164.11"/>
<polygon fill="midnightblue" stroke="midnightblue" points="504.29,-242.02 513.67,-246.95 509.41,-237.25 504.29,-242.02"/>
</g>
<!-- Node8 -->
<g id="node8" class="node">
<title>Node8</title>
<g id="a_node8"><a xlink:href="classhttplib_1_1ClientImpl.html#ac4e30af906067369892520eccd85c038" target="_top" xlink:title=" ">
<polygon fill="white" stroke="black" points="167,-181 167,-211 271,-211 271,-181 167,-181"/>
<text text-anchor="start" x="175" y="-199" font-family="Helvetica,sans-Serif" font-size="10.00">httplib::ClientImpl</text>
<text text-anchor="middle" x="219" y="-188" font-family="Helvetica,sans-Serif" font-size="10.00">::handle_request</text>
</a>
</g>
</g>
<!-- Node7&#45;&gt;Node8 -->
<g id="edge7" class="edge">
<title>Node7&#45;&gt;Node8</title>
<path fill="none" stroke="midnightblue" d="M315.69,-166.99C300.45,-171.61 284.22,-176.53 269.53,-180.98"/>
<polygon fill="midnightblue" stroke="midnightblue" points="316.98,-170.25 325.53,-164 314.95,-163.55 316.98,-170.25"/>
</g>
<!-- Node9 -->
<g id="node9" class="node">
<title>Node9</title>
<g id="a_node9"><a xlink:href="classhttplib_1_1ClientImpl.html#ab81f0f3ff5031d8bb231928318cd95ff" target="_top" xlink:title=" ">
<polygon fill="white" stroke="black" points="167,-132 167,-162 271,-162 271,-132 167,-132"/>
<text text-anchor="start" x="175" y="-150" font-family="Helvetica,sans-Serif" font-size="10.00">httplib::ClientImpl</text>
<text text-anchor="middle" x="219" y="-139" font-family="Helvetica,sans-Serif" font-size="10.00">::send_</text>
</a>
</g>
</g>
<!-- Node7&#45;&gt;Node9 -->
<g id="edge9" class="edge">
<title>Node7&#45;&gt;Node9</title>
<path fill="none" stroke="midnightblue" d="M313.71,-148.21C299.6,-148.03 284.75,-147.84 271.13,-147.66"/>
<polygon fill="midnightblue" stroke="midnightblue" points="313.77,-151.71 323.82,-148.34 313.86,-144.71 313.77,-151.71"/>
</g>
<!-- Node10 -->
<g id="node10" class="node">
<title>Node10</title>
<g id="a_node10"><a xlink:href="classhttplib_1_1ClientImpl.html#ab3169b93b50fca58a21f2db0a2bdea88" target="_top" xlink:title=" ">
<polygon fill="white" stroke="black" points="162,-71.5 162,-112.5 276,-112.5 276,-71.5 162,-71.5"/>
<text text-anchor="start" x="170" y="-100.5" font-family="Helvetica,sans-Serif" font-size="10.00">httplib::ClientImpl</text>
<text text-anchor="start" x="170" y="-89.5" font-family="Helvetica,sans-Serif" font-size="10.00">::send_with_content</text>
<text text-anchor="middle" x="219" y="-78.5" font-family="Helvetica,sans-Serif" font-size="10.00">_provider</text>
</a>
</g>
</g>
<!-- Node7&#45;&gt;Node10 -->
<g id="edge10" class="edge">
<title>Node7&#45;&gt;Node10</title>
<path fill="none" stroke="midnightblue" d="M324.45,-130.41C308.93,-124.7 291.77,-118.39 275.92,-112.56"/>
<polygon fill="midnightblue" stroke="midnightblue" points="323.28,-133.71 333.87,-133.87 325.69,-127.14 323.28,-133.71"/>
</g>
<!-- Node8&#45;&gt;Node2 -->
<g id="edge8" class="edge">
<title>Node8&#45;&gt;Node2</title>
<path fill="none" stroke="midnightblue" d="M281.52,-194.19C326.36,-194.5 388.09,-198.35 440,-214 463.95,-221.22 488.68,-235.66 505.62,-246.83"/>
<polygon fill="midnightblue" stroke="midnightblue" points="281.37,-190.69 271.37,-194.17 281.36,-197.69 281.37,-190.69"/>
</g>
<!-- Node11 -->
<g id="node11" class="node">
<title>Node11</title>
<g id="a_node11"><a xlink:href="classhttplib_1_1ClientImpl.html#ad454e536598fa610080587d8516b5c80" target="_top" xlink:title=" ">
<polygon fill="white" stroke="black" points="11,-148 11,-178 115,-178 115,-148 11,-148"/>
<text text-anchor="start" x="19" y="-166" font-family="Helvetica,sans-Serif" font-size="10.00">httplib::ClientImpl</text>
<text text-anchor="middle" x="63" y="-155" font-family="Helvetica,sans-Serif" font-size="10.00">::Patch</text>
</a>
</g>
</g>
<!-- Node10&#45;&gt;Node11 -->
<g id="edge11" class="edge">
<title>Node10&#45;&gt;Node11</title>
<path fill="none" stroke="midnightblue" d="M170.81,-117.28C156.56,-124.6 140.77,-132.39 126,-139 119.15,-142.06 111.78,-145.12 104.6,-147.97"/>
<polygon fill="midnightblue" stroke="midnightblue" points="172.66,-120.27 179.93,-112.56 169.44,-114.05 172.66,-120.27"/>
</g>
<!-- Node12 -->
<g id="node12" class="node">
<title>Node12</title>
<g id="a_node12"><a xlink:href="classhttplib_1_1ClientImpl.html#a31fe4e8466d44dc45e28d3e68db05e01" target="_top" xlink:title=" ">
<polygon fill="white" stroke="black" points="11,-99 11,-129 115,-129 115,-99 11,-99"/>
<text text-anchor="start" x="19" y="-117" font-family="Helvetica,sans-Serif" font-size="10.00">httplib::ClientImpl</text>
<text text-anchor="middle" x="63" y="-106" font-family="Helvetica,sans-Serif" font-size="10.00">::Post</text>
</a>
</g>
</g>
<!-- Node10&#45;&gt;Node12 -->
<g id="edge12" class="edge">
<title>Node10&#45;&gt;Node12</title>
<path fill="none" stroke="midnightblue" d="M151.78,-101.46C139.51,-103.21 126.87,-105.02 115.13,-106.7"/>
<polygon fill="midnightblue" stroke="midnightblue" points="152.56,-104.88 161.97,-100 151.57,-97.95 152.56,-104.88"/>
</g>
<!-- Node13 -->
<g id="node13" class="node">
<title>Node13</title>
<g id="a_node13"><a xlink:href="classhttplib_1_1ClientImpl.html#a048987c16a2f45382c1bb0d2102e4873" target="_top" xlink:title=" ">
<polygon fill="white" stroke="black" points="0,-60.5 0,-79.5 126,-79.5 126,-60.5 0,-60.5"/>
<text text-anchor="middle" x="63" y="-67.5" font-family="Helvetica,sans-Serif" font-size="10.00">httplib::ClientImpl::Put</text>
</a>
</g>
</g>
<!-- Node10&#45;&gt;Node13 -->
<g id="edge13" class="edge">
<title>Node10&#45;&gt;Node13</title>
<path fill="none" stroke="midnightblue" d="M152.03,-82.58C143.48,-81.35 134.73,-80.1 126.24,-78.89"/>
<polygon fill="midnightblue" stroke="midnightblue" points="151.57,-86.05 161.97,-84 152.56,-79.12 151.57,-86.05"/>
</g>
<!-- Node14 -->
<g id="node14" class="node">
<title>Node14</title>
<g id="a_node14"><a xlink:href="classhttplib_1_1ClientImpl.html#ac9d400990790ff3aa7f3639392181ddb" target="_top" xlink:title=" ">
<polygon fill="white" stroke="black" points="6,-0.5 6,-41.5 120,-41.5 120,-0.5 6,-0.5"/>
<text text-anchor="start" x="14" y="-29.5" font-family="Helvetica,sans-Serif" font-size="10.00">httplib::ClientImpl</text>
<text text-anchor="start" x="14" y="-18.5" font-family="Helvetica,sans-Serif" font-size="10.00">::send_with_content</text>
<text text-anchor="middle" x="63" y="-7.5" font-family="Helvetica,sans-Serif" font-size="10.00">_provider</text>
</a>
</g>
</g>
<!-- Node10&#45;&gt;Node14 -->
<g id="edge14" class="edge">
<title>Node10&#45;&gt;Node14</title>
<path fill="none" stroke="midnightblue" d="M164.18,-67.19C146.06,-58.83 126.05,-49.61 108.71,-41.61"/>
<polygon fill="midnightblue" stroke="midnightblue" points="162.91,-70.46 173.46,-71.46 165.84,-64.1 162.91,-70.46"/>
</g>
</g>
</svg>
        <g id="navigator" transform="translate(0 0)" fill="#404254">
                <rect fill="#f2f5e9" fill-opacity="0.5" stroke="#606060" stroke-width=".5" x="0" y="0" width="60" height="60"/>
                <use id="zoomplus" xlink:href="#zoomPlus" x="17" y="9" onmousedown="handleZoom(evt,'in')"/>
                <use id="zoomminus" xlink:href="#zoomMin" x="42" y="9" onmousedown="handleZoom(evt,'out')"/>
                <use id="reset" xlink:href="#resetDef" x="30" y="36" onmousedown="handleReset()"/>
                <g id="arrowUp" xlink:href="#dirArrow" transform="translate(30 24)" onmousedown="handlePan(0,-1)">
                  <use xlink:href="#rim" fill="#404040">
                        <set attributeName="fill" to="#808080" begin="arrowUp.mouseover" end="arrowUp.mouseout"/>
                  </use>
                  <path fill="none" stroke="white" stroke-width="1.5" d="M0,-3.0v7 M-2.5,-0.5L0,-3.0L2.5,-0.5"/>
                </g>
                <g id="arrowRight" xlink:href="#dirArrow" transform="rotate(90) translate(36 -43)" onmousedown="handlePan(1,0)">
                  <use xlink:href="#rim" fill="#404040">
                        <set attributeName="fill" to="#808080" begin="arrowRight.mouseover" end="arrowRight.mouseout"/>
                  </use>
                  <path fill="none" stroke="white" stroke-width="1.5" d="M0,-3.0v7 M-2.5,-0.5L0,-3.0L2.5,-0.5"/>
                </g>
                <g id="arrowDown" xlink:href="#dirArrow" transform="rotate(180) translate(-30 -48)" onmousedown="handlePan(0,1)">
                  <use xlink:href="#rim" fill="#404040">
                        <set attributeName="fill" to="#808080" begin="arrowDown.mouseover" end="arrowDown.mouseout"/>
                  </use>
                  <path fill="none" stroke="white" stroke-width="1.5" d="M0,-3.0v7 M-2.5,-0.5L0,-3.0L2.5,-0.5"/>
                </g>
                <g id="arrowLeft" xlink:href="#dirArrow" transform="rotate(270) translate(-36 17)" onmousedown="handlePan(-1,0)">
                  <use xlink:href="#rim" fill="#404040">
                        <set attributeName="fill" to="#808080" begin="arrowLeft.mouseover" end="arrowLeft.mouseout"/>
                  </use>
                  <path fill="none" stroke="white" stroke-width="1.5" d="M0,-3.0v7 M-2.5,-0.5L0,-3.0L2.5,-0.5"/>
                </g>
        </g>
        <svg viewBox="0 0 15 15" width="100%" height="30px" preserveAspectRatio="xMaxYMin meet">
         <g id="arrow_out" transform="scale(0.3 0.3)">
          <a xlink:href="classhttplib_1_1ClientImpl_aaba7f80149281b266cec006e79f8e78a_icgraph_org.svg" target="_base">
           <rect id="button" ry="5" rx="5" y="6" x="6" height="38" width="38"
                fill="#f2f5e9" fill-opacity="0.5" stroke="#606060" stroke-width="1.0"/>
           <path id="arrow"
             d="M 11.500037,31.436501 C 11.940474,20.09759 22.043105,11.32322 32.158766,21.979434 L 37.068811,17.246167 C 37.068811,17.246167 37.088388,32 37.088388,32 L 22.160133,31.978069 C 22.160133,31.978069 26.997745,27.140456 26.997745,27.140456 C 18.528582,18.264221 13.291696,25.230495 11.500037,31.436501 z"
             style="fill:#404040;"/>
          </a>
         </g>
        </svg>
</svg>
