<?xml version="1.0" encoding="UTF-8" standalone="no"?>
<!DOCTYPE svg PUBLIC "-//W3C//DTD SVG 1.1//EN"
 "http://www.w3.org/Graphics/SVG/1.1/DTD/svg11.dtd">
<!-- Generated by graphviz version 2.43.0 (0)
 -->
<!-- Title: DatabaseHandler::AddEvents Pages: 1 -->
<!--zoomable 235 -->
<svg id="main" version="1.1" xmlns="http://www.w3.org/2000/svg" xmlns:xlink="http://www.w3.org/1999/xlink" xml:space="preserve" onload="init(evt)">
<style type="text/css"><![CDATA[
.edge:hover path { stroke: red; }
.edge:hover polygon { stroke: red; fill: red; }
]]></style>
<script type="text/javascript"><![CDATA[
var edges = document.getElementsByTagName('g');
if (edges && edges.length) {
  for (var i=0;i<edges.length;i++) {
    if (edges[i].id.substr(0,4)=='edge') {
      edges[i].setAttribute('class','edge');
    }
  }
}
]]></script>
        <defs>
                <circle id="rim" cx="0" cy="0" r="7"/>
                <circle id="rim2" cx="0" cy="0" r="3.5"/>
                <g id="zoomPlus">
                        <use xlink:href="#rim" fill="#404040">
                                <set attributeName="fill" to="#808080" begin="zoomplus.mouseover" end="zoomplus.mouseout"/>
                        </use>
                        <path d="M-4,0h8M0,-4v8" fill="none" stroke="white" stroke-width="1.5" pointer-events="none"/>
                </g>
                <g id="zoomMin">
                        <use xlink:href="#rim" fill="#404040">
                                <set attributeName="fill" to="#808080" begin="zoomminus.mouseover" end="zoomminus.mouseout"/>
                        </use>
                        <path d="M-4,0h8" fill="none" stroke="white" stroke-width="1.5" pointer-events="none"/>
                </g>
                <g id="dirArrow">
                        <path fill="none" stroke="white" stroke-width="1.5" d="M0,-3.0v7 M-2.5,-0.5L0,-3.0L2.5,-0.5"/>
                </g>
               <g id="resetDef">
                       <use xlink:href="#rim2" fill="#404040">
                               <set attributeName="fill" to="#808080" begin="reset.mouseover" end="reset.mouseout"/>
                       </use>
               </g>
        </defs>

<script type="text/javascript">
var viewWidth = 510;
var viewHeight = 235;
var sectionId = 'dynsection-2';
</script>
<script xlink:href="svgpan.js"/>
<svg id="graph" class="graph">
<g id="viewport">
<title>DatabaseHandler::AddEvents</title>
<polygon fill="white" stroke="transparent" points="-4,4 -4,-231 506,-231 506,4 -4,4"/>
<!-- Node1 -->
<g id="node1" class="node">
<title>Node1</title>
<g id="a_node1"><a xlink:title="Add events to the database.">
<polygon fill="#bfbfbf" stroke="black" points="343,-104 343,-123 502,-123 502,-104 343,-104"/>
<text text-anchor="middle" x="422.5" y="-111" font-family="Helvetica,sans-Serif" font-size="10.00">DatabaseHandler::AddEvents</text>
</a>
</g>
</g>
<!-- Node2 -->
<g id="node2" class="node">
<title>Node2</title>
<g id="a_node2"><a xlink:href="mco__utils_8cpp.html#ab747dbf4aef59c2c54c746135db41210" target="_top" xlink:title=" ">
<polygon fill="white" stroke="black" points="227,-104 227,-123 307,-123 307,-104 227,-104"/>
<text text-anchor="middle" x="267" y="-111" font-family="Helvetica,sans-Serif" font-size="10.00">UpdateEvent</text>
</a>
</g>
</g>
<!-- Node1&#45;&gt;Node2 -->
<g id="edge1" class="edge">
<title>Node1&#45;&gt;Node2</title>
<path fill="none" stroke="midnightblue" d="M332.83,-113.5C323.92,-113.5 315.23,-113.5 307.26,-113.5"/>
<polygon fill="midnightblue" stroke="midnightblue" points="332.95,-117 342.95,-113.5 332.95,-110 332.95,-117"/>
</g>
<!-- Node3 -->
<g id="node3" class="node">
<title>Node3</title>
<g id="a_node3"><a xlink:href="classDeletePodObserver.html#aefbbe55642d3054190461a5e6bce5d89" target="_top" xlink:title=" ">
<polygon fill="white" stroke="black" points="37,-196.5 37,-226.5 154,-226.5 154,-196.5 37,-196.5"/>
<text text-anchor="start" x="45" y="-214.5" font-family="Helvetica,sans-Serif" font-size="10.00">DeletePodObserver::</text>
<text text-anchor="middle" x="95.5" y="-203.5" font-family="Helvetica,sans-Serif" font-size="10.00">DeleteAllPods</text>
</a>
</g>
</g>
<!-- Node2&#45;&gt;Node3 -->
<g id="edge2" class="edge">
<title>Node2&#45;&gt;Node3</title>
<path fill="none" stroke="midnightblue" d="M252.83,-131.09C239.2,-148.05 216.37,-173.19 191,-187.5 179.8,-193.82 166.92,-198.51 154.34,-201.97"/>
<polygon fill="midnightblue" stroke="midnightblue" points="255.7,-133.1 259.08,-123.07 250.17,-128.8 255.7,-133.1"/>
</g>
<!-- Node4 -->
<g id="node4" class="node">
<title>Node4</title>
<g id="a_node4"><a xlink:href="classAvpTriggerMonitorHandler.html#aa2520c7b0dfa2fb7762e3e69025a4599" target="_top" xlink:title="initialize LFO to check for pods status.">
<polygon fill="white" stroke="black" points="23.5,-147.5 23.5,-177.5 167.5,-177.5 167.5,-147.5 23.5,-147.5"/>
<text text-anchor="start" x="31.5" y="-165.5" font-family="Helvetica,sans-Serif" font-size="10.00">AvpTriggerMonitorHandler</text>
<text text-anchor="middle" x="95.5" y="-154.5" font-family="Helvetica,sans-Serif" font-size="10.00">::Init</text>
</a>
</g>
</g>
<!-- Node2&#45;&gt;Node4 -->
<g id="edge3" class="edge">
<title>Node2&#45;&gt;Node4</title>
<path fill="none" stroke="midnightblue" d="M229.29,-126.33C217.16,-130.41 203.55,-134.82 191,-138.5 180.52,-141.57 169.33,-144.62 158.44,-147.46"/>
<polygon fill="midnightblue" stroke="midnightblue" points="230.73,-129.54 239.07,-123.01 228.48,-122.91 230.73,-129.54"/>
</g>
<!-- Node5 -->
<g id="node5" class="node">
<title>Node5</title>
<g id="a_node5"><a xlink:href="classResourceMonitorHandler.html#ae43ecd76d870fc12d19522507febac9d" target="_top" xlink:title="initialize LFO to check for pods status.">
<polygon fill="white" stroke="black" points="27,-98.5 27,-128.5 164,-128.5 164,-98.5 27,-98.5"/>
<text text-anchor="start" x="35" y="-116.5" font-family="Helvetica,sans-Serif" font-size="10.00">ResourceMonitorHandler</text>
<text text-anchor="middle" x="95.5" y="-105.5" font-family="Helvetica,sans-Serif" font-size="10.00">::Init</text>
</a>
</g>
</g>
<!-- Node2&#45;&gt;Node5 -->
<g id="edge4" class="edge">
<title>Node2&#45;&gt;Node5</title>
<path fill="none" stroke="midnightblue" d="M216.3,-113.5C199.99,-113.5 181.57,-113.5 164.16,-113.5"/>
<polygon fill="midnightblue" stroke="midnightblue" points="216.69,-117 226.69,-113.5 216.69,-110 216.69,-117"/>
</g>
<!-- Node6 -->
<g id="node6" class="node">
<title>Node6</title>
<g id="a_node6"><a xlink:href="classRespawnPodObserver.html#a3b8bc53a9b9087d4c1a18111a33eb61d" target="_top" xlink:title=" ">
<polygon fill="white" stroke="black" points="34,-49.5 34,-79.5 157,-79.5 157,-49.5 34,-49.5"/>
<text text-anchor="start" x="42" y="-67.5" font-family="Helvetica,sans-Serif" font-size="10.00">RespawnPodObserver</text>
<text text-anchor="middle" x="95.5" y="-56.5" font-family="Helvetica,sans-Serif" font-size="10.00">::RespawnAllPods</text>
</a>
</g>
</g>
<!-- Node2&#45;&gt;Node6 -->
<g id="edge5" class="edge">
<title>Node2&#45;&gt;Node6</title>
<path fill="none" stroke="midnightblue" d="M227.73,-100.84C215.99,-97.06 203,-93 191,-89.5 179.43,-86.12 167.01,-82.69 155.1,-79.51"/>
<polygon fill="midnightblue" stroke="midnightblue" points="226.67,-104.17 237.26,-103.92 228.82,-97.51 226.67,-104.17"/>
</g>
<!-- Node7 -->
<g id="node7" class="node">
<title>Node7</title>
<g id="a_node7"><a xlink:href="classServerHandler.html#af3ecda4d745ef95296198e41ac3cf6e1" target="_top" xlink:title="start LFO server">
<polygon fill="white" stroke="black" points="0,-0.5 0,-30.5 191,-30.5 191,-0.5 0,-0.5"/>
<text text-anchor="start" x="8" y="-18.5" font-family="Helvetica,sans-Serif" font-size="10.00">ServerHandler::StartMcOrchestrator</text>
<text text-anchor="middle" x="95.5" y="-7.5" font-family="Helvetica,sans-Serif" font-size="10.00">Server</text>
</a>
</g>
</g>
<!-- Node2&#45;&gt;Node7 -->
<g id="edge6" class="edge">
<title>Node2&#45;&gt;Node7</title>
<path fill="none" stroke="midnightblue" d="M252.53,-95.94C238.81,-79.26 216.04,-54.68 191,-40.5 184.21,-36.65 176.8,-33.38 169.23,-30.6"/>
<polygon fill="midnightblue" stroke="midnightblue" points="249.87,-98.22 258.84,-103.85 255.34,-93.85 249.87,-98.22"/>
</g>
</g>
</svg>
        <g id="navigator" transform="translate(0 0)" fill="#404254">
                <rect fill="#f2f5e9" fill-opacity="0.5" stroke="#606060" stroke-width=".5" x="0" y="0" width="60" height="60"/>
                <use id="zoomplus" xlink:href="#zoomPlus" x="17" y="9" onmousedown="handleZoom(evt,'in')"/>
                <use id="zoomminus" xlink:href="#zoomMin" x="42" y="9" onmousedown="handleZoom(evt,'out')"/>
                <use id="reset" xlink:href="#resetDef" x="30" y="36" onmousedown="handleReset()"/>
                <g id="arrowUp" xlink:href="#dirArrow" transform="translate(30 24)" onmousedown="handlePan(0,-1)">
                  <use xlink:href="#rim" fill="#404040">
                        <set attributeName="fill" to="#808080" begin="arrowUp.mouseover" end="arrowUp.mouseout"/>
                  </use>
                  <path fill="none" stroke="white" stroke-width="1.5" d="M0,-3.0v7 M-2.5,-0.5L0,-3.0L2.5,-0.5"/>
                </g>
                <g id="arrowRight" xlink:href="#dirArrow" transform="rotate(90) translate(36 -43)" onmousedown="handlePan(1,0)">
                  <use xlink:href="#rim" fill="#404040">
                        <set attributeName="fill" to="#808080" begin="arrowRight.mouseover" end="arrowRight.mouseout"/>
                  </use>
                  <path fill="none" stroke="white" stroke-width="1.5" d="M0,-3.0v7 M-2.5,-0.5L0,-3.0L2.5,-0.5"/>
                </g>
                <g id="arrowDown" xlink:href="#dirArrow" transform="rotate(180) translate(-30 -48)" onmousedown="handlePan(0,1)">
                  <use xlink:href="#rim" fill="#404040">
                        <set attributeName="fill" to="#808080" begin="arrowDown.mouseover" end="arrowDown.mouseout"/>
                  </use>
                  <path fill="none" stroke="white" stroke-width="1.5" d="M0,-3.0v7 M-2.5,-0.5L0,-3.0L2.5,-0.5"/>
                </g>
                <g id="arrowLeft" xlink:href="#dirArrow" transform="rotate(270) translate(-36 17)" onmousedown="handlePan(-1,0)">
                  <use xlink:href="#rim" fill="#404040">
                        <set attributeName="fill" to="#808080" begin="arrowLeft.mouseover" end="arrowLeft.mouseout"/>
                  </use>
                  <path fill="none" stroke="white" stroke-width="1.5" d="M0,-3.0v7 M-2.5,-0.5L0,-3.0L2.5,-0.5"/>
                </g>
        </g>
        <svg viewBox="0 0 15 15" width="100%" height="30px" preserveAspectRatio="xMaxYMin meet">
         <g id="arrow_out" transform="scale(0.3 0.3)">
          <a xlink:href="classDatabaseHandler_ad98a598001584e3a5c4e81980a8a8719_icgraph_org.svg" target="_base">
           <rect id="button" ry="5" rx="5" y="6" x="6" height="38" width="38"
                fill="#f2f5e9" fill-opacity="0.5" stroke="#606060" stroke-width="1.0"/>
           <path id="arrow"
             d="M 11.500037,31.436501 C 11.940474,20.09759 22.043105,11.32322 32.158766,21.979434 L 37.068811,17.246167 C 37.068811,17.246167 37.088388,32 37.088388,32 L 22.160133,31.978069 C 22.160133,31.978069 26.997745,27.140456 26.997745,27.140456 C 18.528582,18.264221 13.291696,25.230495 11.500037,31.436501 z"
             style="fill:#404040;"/>
          </a>
         </g>
        </svg>
</svg>
