<?xml version="1.0" encoding="UTF-8" standalone="no"?>
<!DOCTYPE svg PUBLIC "-//W3C//DTD SVG 1.1//EN"
 "http://www.w3.org/Graphics/SVG/1.1/DTD/svg11.dtd">
<!-- Generated by graphviz version 2.43.0 (0)
 -->
<!-- Title: nlohmann::detail::binary_reader::get_cbor_array Pages: 1 -->
<svg width="773pt" height="88pt"
 viewBox="0.00 0.00 773.00 88.00" xmlns="http://www.w3.org/2000/svg" xmlns:xlink="http://www.w3.org/1999/xlink">
<g id="graph0" class="graph" transform="scale(1 1) rotate(0) translate(4 84)">
<title>nlohmann::detail::binary_reader::get_cbor_array</title>
<polygon fill="white" stroke="transparent" points="-4,4 -4,-84 769,-84 769,4 -4,4"/>
<!-- Node1 -->
<g id="node1" class="node">
<title>Node1</title>
<g id="a_node1"><a xlink:title=" ">
<polygon fill="#bfbfbf" stroke="black" points="629,-49.5 629,-79.5 765,-79.5 765,-49.5 629,-49.5"/>
<text text-anchor="start" x="637" y="-67.5" font-family="Helvetica,sans-Serif" font-size="10.00">nlohmann::detail::binary</text>
<text text-anchor="middle" x="697" y="-56.5" font-family="Helvetica,sans-Serif" font-size="10.00">_reader::get_cbor_array</text>
</a>
</g>
</g>
<!-- Node2 -->
<g id="node2" class="node">
<title>Node2</title>
<g id="a_node2"><a xlink:href="classnlohmann_1_1detail_1_1binary__reader.html#a2fc47768d484a22fcd04e20106da1399" target="_top" xlink:title=" ">
<polygon fill="white" stroke="black" points="438,-49.5 438,-79.5 593,-79.5 593,-49.5 438,-49.5"/>
<text text-anchor="start" x="446" y="-67.5" font-family="Helvetica,sans-Serif" font-size="10.00">nlohmann::detail::binary</text>
<text text-anchor="middle" x="515.5" y="-56.5" font-family="Helvetica,sans-Serif" font-size="10.00">_reader::parse_cbor_internal</text>
</a>
</g>
</g>
<!-- Node1&#45;&gt;Node2 -->
<g id="edge1" class="edge">
<title>Node1&#45;&gt;Node2</title>
<path fill="none" stroke="midnightblue" d="M618.69,-57.81C610.23,-57.73 601.62,-57.73 593.18,-57.81"/>
<polygon fill="midnightblue" stroke="midnightblue" points="618.86,-61.31 628.91,-57.94 618.95,-54.31 618.86,-61.31"/>
</g>
<!-- Node2&#45;&gt;Node1 -->
<g id="edge2" class="edge">
<title>Node2&#45;&gt;Node1</title>
<path fill="none" stroke="midnightblue" d="M603.26,-71.25C611.88,-71.27 620.53,-71.2 628.91,-71.06"/>
<polygon fill="midnightblue" stroke="midnightblue" points="603.2,-67.75 593.18,-71.19 603.15,-74.75 603.2,-67.75"/>
</g>
<!-- Node3 -->
<g id="node3" class="node">
<title>Node3</title>
<g id="a_node3"><a xlink:href="classnlohmann_1_1detail_1_1binary__reader.html#a2fcc776cd2c7bb52bbc511e97d36978a" target="_top" xlink:title=" ">
<polygon fill="white" stroke="black" points="265,-49.5 265,-79.5 402,-79.5 402,-49.5 265,-49.5"/>
<text text-anchor="start" x="273" y="-67.5" font-family="Helvetica,sans-Serif" font-size="10.00">nlohmann::detail::binary</text>
<text text-anchor="middle" x="333.5" y="-56.5" font-family="Helvetica,sans-Serif" font-size="10.00">_reader::get_cbor_object</text>
</a>
</g>
</g>
<!-- Node2&#45;&gt;Node3 -->
<g id="edge3" class="edge">
<title>Node2&#45;&gt;Node3</title>
<path fill="none" stroke="midnightblue" d="M427.84,-57.75C419.23,-57.73 410.58,-57.79 402.2,-57.94"/>
<polygon fill="midnightblue" stroke="midnightblue" points="427.88,-61.25 437.9,-57.82 427.92,-54.25 427.88,-61.25"/>
</g>
<!-- Node4 -->
<g id="node4" class="node">
<title>Node4</title>
<g id="a_node4"><a xlink:href="classnlohmann_1_1detail_1_1binary__reader.html#ab94a54d6e595c2620b07589cf4116256" target="_top" xlink:title=" ">
<polygon fill="white" stroke="black" points="265.5,-0.5 265.5,-30.5 401.5,-30.5 401.5,-0.5 265.5,-0.5"/>
<text text-anchor="start" x="273.5" y="-18.5" font-family="Helvetica,sans-Serif" font-size="10.00">nlohmann::detail::binary</text>
<text text-anchor="middle" x="333.5" y="-7.5" font-family="Helvetica,sans-Serif" font-size="10.00">_reader::sax_parse</text>
</a>
</g>
</g>
<!-- Node2&#45;&gt;Node4 -->
<g id="edge5" class="edge">
<title>Node2&#45;&gt;Node4</title>
<path fill="none" stroke="midnightblue" d="M449.3,-46.75C429.79,-41.44 408.6,-35.67 389.79,-30.55"/>
<polygon fill="midnightblue" stroke="midnightblue" points="448.46,-50.15 459.03,-49.4 450.3,-43.39 448.46,-50.15"/>
</g>
<!-- Node3&#45;&gt;Node2 -->
<g id="edge4" class="edge">
<title>Node3&#45;&gt;Node2</title>
<path fill="none" stroke="midnightblue" d="M412.42,-71.2C420.87,-71.27 429.47,-71.27 437.9,-71.18"/>
<polygon fill="midnightblue" stroke="midnightblue" points="412.25,-67.69 402.2,-71.06 412.16,-74.69 412.25,-67.69"/>
</g>
<!-- Node5 -->
<g id="node5" class="node">
<title>Node5</title>
<g id="a_node5"><a xlink:href="classnlohmann_1_1basic__json.html#a8a3dd150c2d1f0df3502d937de0871db" target="_top" xlink:title="generate SAX events">
<polygon fill="white" stroke="black" points="107,-0.5 107,-30.5 229,-30.5 229,-0.5 107,-0.5"/>
<text text-anchor="start" x="115" y="-18.5" font-family="Helvetica,sans-Serif" font-size="10.00">nlohmann::basic_json</text>
<text text-anchor="middle" x="168" y="-7.5" font-family="Helvetica,sans-Serif" font-size="10.00">::sax_parse</text>
</a>
</g>
</g>
<!-- Node4&#45;&gt;Node5 -->
<g id="edge6" class="edge">
<title>Node4&#45;&gt;Node5</title>
<path fill="none" stroke="midnightblue" d="M254.96,-15.5C246.32,-15.5 237.61,-15.5 229.23,-15.5"/>
<polygon fill="midnightblue" stroke="midnightblue" points="255.05,-19 265.05,-15.5 255.05,-12 255.05,-19"/>
</g>
<!-- Node6 -->
<g id="node6" class="node">
<title>Node6</title>
<g id="a_node6"><a xlink:href="unit-bson_8cpp.html#a73301d5e6d0f638e973f748287501dd6" target="_top" xlink:title=" ">
<polygon fill="white" stroke="black" points="0,-6 0,-25 71,-25 71,-6 0,-6"/>
<text text-anchor="middle" x="35.5" y="-13" font-family="Helvetica,sans-Serif" font-size="10.00">TEST_CASE</text>
</a>
</g>
</g>
<!-- Node5&#45;&gt;Node6 -->
<g id="edge7" class="edge">
<title>Node5&#45;&gt;Node6</title>
<path fill="none" stroke="midnightblue" d="M96.44,-15.5C87.71,-15.5 79.11,-15.5 71.26,-15.5"/>
<polygon fill="midnightblue" stroke="midnightblue" points="96.72,-19 106.72,-15.5 96.72,-12 96.72,-19"/>
</g>
</g>
</svg>
