<?xml version="1.0" encoding="UTF-8" standalone="no"?>
<!DOCTYPE svg PUBLIC "-//W3C//DTD SVG 1.1//EN"
 "http://www.w3.org/Graphics/SVG/1.1/DTD/svg11.dtd">
<!-- Generated by graphviz version 2.43.0 (0)
 -->
<!-- Title: httplib::detail::SocketStream::read Pages: 1 -->
<svg width="691pt" height="83pt"
 viewBox="0.00 0.00 691.00 83.00" xmlns="http://www.w3.org/2000/svg" xmlns:xlink="http://www.w3.org/1999/xlink">
<g id="graph0" class="graph" transform="scale(1 1) rotate(0) translate(4 79)">
<title>httplib::detail::SocketStream::read</title>
<polygon fill="white" stroke="transparent" points="-4,4 -4,-79 687,-79 687,4 -4,4"/>
<!-- Node1 -->
<g id="node1" class="node">
<title>Node1</title>
<g id="a_node1"><a xlink:title=" ">
<polygon fill="#bfbfbf" stroke="black" points="0,-22.5 0,-52.5 155,-52.5 155,-22.5 0,-22.5"/>
<text text-anchor="start" x="8" y="-40.5" font-family="Helvetica,sans-Serif" font-size="10.00">httplib::detail::SocketStream</text>
<text text-anchor="middle" x="77.5" y="-29.5" font-family="Helvetica,sans-Serif" font-size="10.00">::read</text>
</a>
</g>
</g>
<!-- Node2 -->
<g id="node2" class="node">
<title>Node2</title>
<g id="a_node2"><a xlink:href="classhttplib_1_1detail_1_1SocketStream.html#a54ef15b31ba398e33086574d412fb316" target="_top" xlink:title=" ">
<polygon fill="white" stroke="black" points="191,-44.5 191,-74.5 346,-74.5 346,-44.5 191,-44.5"/>
<text text-anchor="start" x="199" y="-62.5" font-family="Helvetica,sans-Serif" font-size="10.00">httplib::detail::SocketStream</text>
<text text-anchor="middle" x="268.5" y="-51.5" font-family="Helvetica,sans-Serif" font-size="10.00">::is_readable</text>
</a>
</g>
</g>
<!-- Node1&#45;&gt;Node2 -->
<g id="edge1" class="edge">
<title>Node1&#45;&gt;Node2</title>
<path fill="none" stroke="midnightblue" d="M155.1,-46.42C163.56,-47.4 172.22,-48.41 180.79,-49.41"/>
<polygon fill="midnightblue" stroke="midnightblue" points="180.45,-52.89 190.79,-50.57 181.26,-45.94 180.45,-52.89"/>
</g>
<!-- Node5 -->
<g id="node5" class="node">
<title>Node5</title>
<g id="a_node5"><a xlink:href="namespacehttplib_1_1detail.html#ab57c043e9d70df4cace18a07f9fbeeea" target="_top" xlink:title=" ">
<polygon fill="white" stroke="black" points="399,-0.5 399,-30.5 509,-30.5 509,-0.5 399,-0.5"/>
<text text-anchor="start" x="407" y="-18.5" font-family="Helvetica,sans-Serif" font-size="10.00">httplib::detail::read</text>
<text text-anchor="middle" x="454" y="-7.5" font-family="Helvetica,sans-Serif" font-size="10.00">_socket</text>
</a>
</g>
</g>
<!-- Node1&#45;&gt;Node5 -->
<g id="edge4" class="edge">
<title>Node1&#45;&gt;Node5</title>
<path fill="none" stroke="midnightblue" d="M155.19,-32.99C224.05,-28.95 323.99,-23.08 388.74,-19.27"/>
<polygon fill="midnightblue" stroke="midnightblue" points="389.04,-22.76 398.82,-18.68 388.63,-15.78 389.04,-22.76"/>
</g>
<!-- Node3 -->
<g id="node3" class="node">
<title>Node3</title>
<g id="a_node3"><a xlink:href="namespacehttplib_1_1detail.html#ade5583c2e13e0822f2a90227894d92fe" target="_top" xlink:title=" ">
<polygon fill="white" stroke="black" points="382,-50 382,-69 526,-69 526,-50 382,-50"/>
<text text-anchor="middle" x="454" y="-57" font-family="Helvetica,sans-Serif" font-size="10.00">httplib::detail::select_read</text>
</a>
</g>
</g>
<!-- Node2&#45;&gt;Node3 -->
<g id="edge2" class="edge">
<title>Node2&#45;&gt;Node3</title>
<path fill="none" stroke="midnightblue" d="M346.26,-59.5C354.64,-59.5 363.19,-59.5 371.62,-59.5"/>
<polygon fill="midnightblue" stroke="midnightblue" points="371.82,-63 381.82,-59.5 371.82,-56 371.82,-63"/>
</g>
<!-- Node4 -->
<g id="node4" class="node">
<title>Node4</title>
<g id="a_node4"><a xlink:href="namespacehttplib_1_1detail.html#a8fbaa8fefb24f6dd249b62f832f64a84" target="_top" xlink:title=" ">
<polygon fill="white" stroke="black" points="562,-22.5 562,-52.5 683,-52.5 683,-22.5 562,-22.5"/>
<text text-anchor="start" x="570" y="-40.5" font-family="Helvetica,sans-Serif" font-size="10.00">httplib::detail::handle</text>
<text text-anchor="middle" x="622.5" y="-29.5" font-family="Helvetica,sans-Serif" font-size="10.00">_EINTR</text>
</a>
</g>
</g>
<!-- Node3&#45;&gt;Node4 -->
<g id="edge3" class="edge">
<title>Node3&#45;&gt;Node4</title>
<path fill="none" stroke="midnightblue" d="M526.09,-50.11C534.67,-48.97 543.42,-47.82 551.98,-46.69"/>
<polygon fill="midnightblue" stroke="midnightblue" points="552.45,-50.15 561.9,-45.37 551.53,-43.21 552.45,-50.15"/>
</g>
<!-- Node5&#45;&gt;Node4 -->
<g id="edge5" class="edge">
<title>Node5&#45;&gt;Node4</title>
<path fill="none" stroke="midnightblue" d="M509.06,-22.64C522.66,-24.44 537.45,-26.39 551.7,-28.28"/>
<polygon fill="midnightblue" stroke="midnightblue" points="551.58,-31.79 561.96,-29.63 552.5,-24.85 551.58,-31.79"/>
</g>
</g>
</svg>
