<?xml version="1.0" encoding="UTF-8" standalone="no"?>
<!DOCTYPE svg PUBLIC "-//W3C//DTD SVG 1.1//EN"
 "http://www.w3.org/Graphics/SVG/1.1/DTD/svg11.dtd">
<!-- Generated by graphviz version 2.43.0 (0)
 -->
<!-- Title: ServerHandler::StartMcOrchestratorServer Pages: 1 -->
<svg width="1751pt" height="757pt"
 viewBox="0.00 0.00 1751.00 756.50" xmlns="http://www.w3.org/2000/svg" xmlns:xlink="http://www.w3.org/1999/xlink">
<g id="graph0" class="graph" transform="scale(1 1) rotate(0) translate(4 752.5)">
<title>ServerHandler::StartMcOrchestratorServer</title>
<polygon fill="white" stroke="transparent" points="-4,4 -4,-752.5 1747,-752.5 1747,4 -4,4"/>
<!-- Node1 -->
<g id="node1" class="node">
<title>Node1</title>
<g id="a_node1"><a xlink:title="start LFO server">
<polygon fill="#bfbfbf" stroke="black" points="0,-304 0,-334 191,-334 191,-304 0,-304"/>
<text text-anchor="start" x="8" y="-322" font-family="Helvetica,sans-Serif" font-size="10.00">ServerHandler::StartMcOrchestrator</text>
<text text-anchor="middle" x="95.5" y="-311" font-family="Helvetica,sans-Serif" font-size="10.00">Server</text>
</a>
</g>
</g>
<!-- Node2 -->
<g id="node2" class="node">
<title>Node2</title>
<g id="a_node2"><a xlink:href="classCommandFactory.html#a84a5b5b5211d74d1b900f80902ac7958" target="_top" xlink:title=" ">
<polygon fill="white" stroke="black" points="227,-643.5 227,-662.5 418,-662.5 418,-643.5 227,-643.5"/>
<text text-anchor="middle" x="322.5" y="-650.5" font-family="Helvetica,sans-Serif" font-size="10.00">CommandFactory::CreateCommand</text>
</a>
</g>
</g>
<!-- Node1&#45;&gt;Node2 -->
<g id="edge1" class="edge">
<title>Node1&#45;&gt;Node2</title>
<path fill="none" stroke="midnightblue" d="M97.87,-334.07C103.35,-385.15 128.47,-552.98 227,-634 229.04,-635.67 231.18,-637.21 233.41,-638.63"/>
<polygon fill="midnightblue" stroke="midnightblue" points="231.93,-641.81 242.39,-643.5 235.27,-635.66 231.93,-641.81"/>
</g>
<!-- Node3 -->
<g id="node3" class="node">
<title>Node3</title>
<g id="a_node3"><a xlink:href="classDatabaseHandler.html#a606838315c3a15b0ce908a24560c2c91" target="_top" xlink:title="Delete the key from the database.">
<polygon fill="white" stroke="black" points="243.5,-605.5 243.5,-624.5 401.5,-624.5 401.5,-605.5 243.5,-605.5"/>
<text text-anchor="middle" x="322.5" y="-612.5" font-family="Helvetica,sans-Serif" font-size="10.00">DatabaseHandler::DeleteKey</text>
</a>
</g>
</g>
<!-- Node1&#45;&gt;Node3 -->
<g id="edge2" class="edge">
<title>Node1&#45;&gt;Node3</title>
<path fill="none" stroke="midnightblue" d="M98.82,-334.24C106.86,-381.47 138.07,-526.34 227,-596 229.13,-597.67 231.37,-599.21 233.7,-600.62"/>
<polygon fill="midnightblue" stroke="midnightblue" points="232.56,-603.97 243.05,-605.46 235.78,-597.75 232.56,-603.97"/>
</g>
<!-- Node4 -->
<g id="node4" class="node">
<title>Node4</title>
<g id="a_node4"><a xlink:href="classnlohmann_1_1basic__json.html#a50ec80b02d0f3f51130d4abb5d1cfdc5" target="_top" xlink:title="serialization">
<polygon fill="white" stroke="black" points="687,-352 687,-382 809,-382 809,-352 687,-352"/>
<text text-anchor="start" x="695" y="-370" font-family="Helvetica,sans-Serif" font-size="10.00">nlohmann::basic_json</text>
<text text-anchor="middle" x="748" y="-359" font-family="Helvetica,sans-Serif" font-size="10.00">::dump</text>
</a>
</g>
</g>
<!-- Node1&#45;&gt;Node4 -->
<g id="edge3" class="edge">
<title>Node1&#45;&gt;Node4</title>
<path fill="none" stroke="midnightblue" d="M112.62,-334.23C135.8,-355.05 180.88,-391.56 227,-407 392.71,-462.48 448.54,-452.74 620,-419 651.71,-412.76 685.48,-398.53 710.22,-386.53"/>
<polygon fill="midnightblue" stroke="midnightblue" points="711.83,-389.64 719.24,-382.06 708.72,-383.37 711.83,-389.64"/>
</g>
<!-- Node18 -->
<g id="node18" class="node">
<title>Node18</title>
<g id="a_node18"><a xlink:href="structhttplib_1_1Request.html#aa6aab6cb73afc579bf719f6269d04f17" target="_top" xlink:title=" ">
<polygon fill="white" stroke="black" points="264.5,-203 264.5,-233 380.5,-233 380.5,-203 264.5,-203"/>
<text text-anchor="start" x="272.5" y="-221" font-family="Helvetica,sans-Serif" font-size="10.00">httplib::Request::get</text>
<text text-anchor="middle" x="322.5" y="-210" font-family="Helvetica,sans-Serif" font-size="10.00">_file_value</text>
</a>
</g>
</g>
<!-- Node1&#45;&gt;Node18 -->
<g id="edge21" class="edge">
<title>Node1&#45;&gt;Node18</title>
<path fill="none" stroke="midnightblue" d="M118.19,-303.91C143.34,-287 186.55,-259.77 227,-243 235.73,-239.38 245.13,-236.16 254.49,-233.32"/>
<polygon fill="midnightblue" stroke="midnightblue" points="255.58,-236.65 264.21,-230.51 253.63,-229.93 255.58,-236.65"/>
</g>
<!-- Node19 -->
<g id="node19" class="node">
<title>Node19</title>
<g id="a_node19"><a xlink:href="classDatabaseHandler.html#aeb2cfac9504d4c44c6f23a87cb06b75a" target="_top" xlink:title="Get the singleton instance of the DatabaseHandler class.">
<polygon fill="white" stroke="black" points="454,-252.5 454,-271.5 620,-271.5 620,-252.5 454,-252.5"/>
<text text-anchor="middle" x="537" y="-259.5" font-family="Helvetica,sans-Serif" font-size="10.00">DatabaseHandler::GetInstance</text>
</a>
</g>
</g>
<!-- Node1&#45;&gt;Node19 -->
<g id="edge22" class="edge">
<title>Node1&#45;&gt;Node19</title>
<path fill="none" stroke="midnightblue" d="M191.24,-308.86C255.34,-301.74 341.88,-291.62 418,-281 434.76,-278.66 452.82,-275.88 469.65,-273.18"/>
<polygon fill="midnightblue" stroke="midnightblue" points="470.64,-276.57 479.95,-271.52 469.52,-269.66 470.64,-276.57"/>
</g>
<!-- Node20 -->
<g id="node20" class="node">
<title>Node20</title>
<g id="a_node20"><a xlink:href="classInvoker.html#a1459c66263ad54b3568e6b3d33d9256f" target="_top" xlink:title=" ">
<polygon fill="white" stroke="black" points="277,-164.5 277,-183.5 368,-183.5 368,-164.5 277,-164.5"/>
<text text-anchor="middle" x="322.5" y="-171.5" font-family="Helvetica,sans-Serif" font-size="10.00">Invoker::Invoke</text>
</a>
</g>
</g>
<!-- Node1&#45;&gt;Node20 -->
<g id="edge23" class="edge">
<title>Node1&#45;&gt;Node20</title>
<path fill="none" stroke="midnightblue" d="M107.54,-303.91C127.94,-277.22 174.3,-221.85 227,-194 239.17,-187.57 253.25,-183.2 266.76,-180.24"/>
<polygon fill="midnightblue" stroke="midnightblue" points="267.81,-183.61 276.95,-178.24 266.46,-176.74 267.81,-183.61"/>
</g>
<!-- Node21 -->
<g id="node21" class="node">
<title>Node21</title>
<g id="a_node21"><a xlink:href="classhttplib_1_1Server.html#a319d49f06dc5484b234bcc1f8e637fd3" target="_top" xlink:title=" ">
<polygon fill="white" stroke="black" points="263,-567.5 263,-586.5 382,-586.5 382,-567.5 263,-567.5"/>
<text text-anchor="middle" x="322.5" y="-574.5" font-family="Helvetica,sans-Serif" font-size="10.00">httplib::Server::listen</text>
</a>
</g>
</g>
<!-- Node1&#45;&gt;Node21 -->
<g id="edge24" class="edge">
<title>Node1&#45;&gt;Node21</title>
<path fill="none" stroke="midnightblue" d="M102.53,-334.04C118.08,-371.24 162.88,-468.81 227,-528 243.65,-543.37 266.03,-555.26 284.83,-563.48"/>
<polygon fill="midnightblue" stroke="midnightblue" points="283.72,-566.8 294.29,-567.44 286.42,-560.34 283.72,-566.8"/>
</g>
<!-- Node33 -->
<g id="node33" class="node">
<title>Node33</title>
<g id="a_node33"><a xlink:href="classnlohmann_1_1basic__json.html#a265a473e939184aa42655c9ccdf34e58" target="_top" xlink:title="deserialize from a compatible input">
<polygon fill="white" stroke="black" points="476,-291 476,-321 598,-321 598,-291 476,-291"/>
<text text-anchor="start" x="484" y="-309" font-family="Helvetica,sans-Serif" font-size="10.00">nlohmann::basic_json</text>
<text text-anchor="middle" x="537" y="-298" font-family="Helvetica,sans-Serif" font-size="10.00">::parse</text>
</a>
</g>
</g>
<!-- Node1&#45;&gt;Node33 -->
<g id="edge39" class="edge">
<title>Node1&#45;&gt;Node33</title>
<path fill="none" stroke="midnightblue" d="M191.14,-318.82C255.2,-318.39 341.73,-317.18 418,-314 433.4,-313.36 449.91,-312.41 465.56,-311.38"/>
<polygon fill="midnightblue" stroke="midnightblue" points="465.96,-314.86 475.7,-310.7 465.49,-307.88 465.96,-314.86"/>
</g>
<!-- Node34 -->
<g id="node34" class="node">
<title>Node34</title>
<g id="a_node34"><a xlink:href="classhttplib_1_1Server.html#a94c2dad6da1c6e4e02095a692a5b02a8" target="_top" xlink:title=" ">
<polygon fill="white" stroke="black" points="266,-126.5 266,-145.5 379,-145.5 379,-126.5 266,-126.5"/>
<text text-anchor="middle" x="322.5" y="-133.5" font-family="Helvetica,sans-Serif" font-size="10.00">httplib::Server::Post</text>
</a>
</g>
</g>
<!-- Node1&#45;&gt;Node34 -->
<g id="edge40" class="edge">
<title>Node1&#45;&gt;Node34</title>
<path fill="none" stroke="midnightblue" d="M103.84,-303.84C120.63,-270.91 165.21,-192.76 227,-155 235.77,-149.64 245.76,-145.76 255.89,-142.96"/>
<polygon fill="midnightblue" stroke="midnightblue" points="256.72,-146.36 265.61,-140.59 255.07,-139.56 256.72,-146.36"/>
</g>
<!-- Node36 -->
<g id="node36" class="node">
<title>Node36</title>
<g id="a_node36"><a xlink:href="classDatabaseHandler.html#a51bb2f3e9a4c847e65fdccab307a542c" target="_top" xlink:title="Read the data from the database.">
<polygon fill="white" stroke="black" points="245,-88.5 245,-107.5 400,-107.5 400,-88.5 245,-88.5"/>
<text text-anchor="middle" x="322.5" y="-95.5" font-family="Helvetica,sans-Serif" font-size="10.00">DatabaseHandler::ReadData</text>
</a>
</g>
</g>
<!-- Node1&#45;&gt;Node36 -->
<g id="edge42" class="edge">
<title>Node1&#45;&gt;Node36</title>
<path fill="none" stroke="midnightblue" d="M101.55,-303.88C115.13,-265.73 156.25,-165.17 227,-117 229.92,-115.01 233.01,-113.22 236.21,-111.6"/>
<polygon fill="midnightblue" stroke="midnightblue" points="237.75,-114.75 245.5,-107.52 234.93,-108.34 237.75,-114.75"/>
</g>
<!-- Node40 -->
<g id="node40" class="node">
<title>Node40</title>
<g id="a_node40"><a xlink:href="classDatabaseHandler.html#a1e661c0ca860768a64f513a6bf393f05" target="_top" xlink:title="Read List data from the database.">
<polygon fill="white" stroke="black" points="876,-525.5 876,-544.5 1049,-544.5 1049,-525.5 876,-525.5"/>
<text text-anchor="middle" x="962.5" y="-532.5" font-family="Helvetica,sans-Serif" font-size="10.00">DatabaseHandler::ReadListData</text>
</a>
</g>
</g>
<!-- Node1&#45;&gt;Node40 -->
<g id="edge46" class="edge">
<title>Node1&#45;&gt;Node40</title>
<path fill="none" stroke="midnightblue" d="M103.74,-334.05C120.34,-366.67 164.56,-443.64 227,-477 282.01,-506.39 679.53,-524.66 865.74,-531.7"/>
<polygon fill="midnightblue" stroke="midnightblue" points="865.67,-535.2 875.8,-532.08 865.94,-528.2 865.67,-535.2"/>
</g>
<!-- Node41 -->
<g id="node41" class="node">
<title>Node41</title>
<g id="a_node41"><a xlink:href="classDatabaseHandler.html#abba3d947412a607f60f4ee4c2faedc66" target="_top" xlink:title="Read string data from the database.">
<polygon fill="white" stroke="black" points="656,-466.5 656,-485.5 840,-485.5 840,-466.5 656,-466.5"/>
<text text-anchor="middle" x="748" y="-473.5" font-family="Helvetica,sans-Serif" font-size="10.00">DatabaseHandler::ReadStringData</text>
</a>
</g>
</g>
<!-- Node1&#45;&gt;Node41 -->
<g id="edge48" class="edge">
<title>Node1&#45;&gt;Node41</title>
<path fill="none" stroke="midnightblue" d="M107.31,-334.33C127.34,-361.33 173.12,-416.69 227,-440 371.62,-502.58 560.09,-496.68 665.85,-486.51"/>
<polygon fill="midnightblue" stroke="midnightblue" points="666.21,-489.99 675.82,-485.51 665.52,-483.02 666.21,-489.99"/>
</g>
<!-- Node42 -->
<g id="node42" class="node">
<title>Node42</title>
<g id="a_node42"><a xlink:href="classConfigHandler.html#a5f22a28a3148d66a75d376eaade4fa5b" target="_top" xlink:title="Save app JSON file content to database.">
<polygon fill="white" stroke="black" points="237,-367 237,-397 408,-397 408,-367 237,-367"/>
<text text-anchor="start" x="245" y="-385" font-family="Helvetica,sans-Serif" font-size="10.00">ConfigHandler::SaveFileContent</text>
<text text-anchor="middle" x="322.5" y="-374" font-family="Helvetica,sans-Serif" font-size="10.00">ToDatabase</text>
</a>
</g>
</g>
<!-- Node1&#45;&gt;Node42 -->
<g id="edge50" class="edge">
<title>Node1&#45;&gt;Node42</title>
<path fill="none" stroke="midnightblue" d="M150.11,-334.01C182.52,-343.09 224.02,-354.71 258.07,-364.24"/>
<polygon fill="midnightblue" stroke="midnightblue" points="257.34,-367.67 267.91,-367 259.23,-360.93 257.34,-367.67"/>
</g>
<!-- Node45 -->
<g id="node45" class="node">
<title>Node45</title>
<g id="a_node45"><a xlink:href="structhttplib_1_1Response.html#a67c804875a512e2d028cc73432839802" target="_top" xlink:title=" ">
<polygon fill="white" stroke="black" points="269,-39 269,-69 376,-69 376,-39 269,-39"/>
<text text-anchor="start" x="277" y="-57" font-family="Helvetica,sans-Serif" font-size="10.00">httplib::Response::</text>
<text text-anchor="middle" x="322.5" y="-46" font-family="Helvetica,sans-Serif" font-size="10.00">set_content</text>
</a>
</g>
</g>
<!-- Node1&#45;&gt;Node45 -->
<g id="edge56" class="edge">
<title>Node1&#45;&gt;Node45</title>
<path fill="none" stroke="midnightblue" d="M100.2,-303.89C111.39,-261.44 149.04,-140.22 227,-79 236.38,-71.63 247.74,-66.42 259.28,-62.75"/>
<polygon fill="midnightblue" stroke="midnightblue" points="260.31,-66.09 268.98,-60 258.4,-59.36 260.31,-66.09"/>
</g>
<!-- Node46 -->
<g id="node46" class="node">
<title>Node46</title>
<g id="a_node46"><a xlink:href="classInvoker.html#ae9f10a2487afd153bf0da69ae410a0e9" target="_top" xlink:title=" ">
<polygon fill="white" stroke="black" points="260,-0.5 260,-19.5 385,-19.5 385,-0.5 260,-0.5"/>
<text text-anchor="middle" x="322.5" y="-7.5" font-family="Helvetica,sans-Serif" font-size="10.00">Invoker::SetCommand</text>
</a>
</g>
</g>
<!-- Node1&#45;&gt;Node46 -->
<g id="edge57" class="edge">
<title>Node1&#45;&gt;Node46</title>
<path fill="none" stroke="midnightblue" d="M98.48,-303.75C105.63,-255.1 134.84,-102.49 227,-29 233.84,-23.54 241.84,-19.52 250.22,-16.58"/>
<polygon fill="midnightblue" stroke="midnightblue" points="251.25,-19.92 259.82,-13.69 249.24,-13.22 251.25,-19.92"/>
</g>
<!-- Node47 -->
<g id="node47" class="node">
<title>Node47</title>
<g id="a_node47"><a xlink:href="mco__utils_8hpp.html#adb31a57c2b5b8883cb23720de4401ba0" target="_top" xlink:title=" ">
<polygon fill="white" stroke="black" points="282.5,-252.5 282.5,-271.5 362.5,-271.5 362.5,-252.5 282.5,-252.5"/>
<text text-anchor="middle" x="322.5" y="-259.5" font-family="Helvetica,sans-Serif" font-size="10.00">UpdateEvent</text>
</a>
</g>
</g>
<!-- Node1&#45;&gt;Node47 -->
<g id="edge58" class="edge">
<title>Node1&#45;&gt;Node47</title>
<path fill="none" stroke="midnightblue" d="M155.91,-303.95C192.76,-294.61 239.48,-282.78 273.89,-274.06"/>
<polygon fill="midnightblue" stroke="midnightblue" points="274.86,-277.43 283.7,-271.58 273.14,-270.64 274.86,-277.43"/>
</g>
<!-- Node5 -->
<g id="node5" class="node">
<title>Node5</title>
<g id="a_node5"><a xlink:href="classnlohmann_1_1detail_1_1serializer.html#a95460ebd1a535a543e5a0ec52e00f48b" target="_top" xlink:title="internal implementation of the serialization function">
<polygon fill="white" stroke="black" points="887.5,-352 887.5,-382 1037.5,-382 1037.5,-352 887.5,-352"/>
<text text-anchor="start" x="895.5" y="-370" font-family="Helvetica,sans-Serif" font-size="10.00">nlohmann::detail::serializer</text>
<text text-anchor="middle" x="962.5" y="-359" font-family="Helvetica,sans-Serif" font-size="10.00">::dump</text>
</a>
</g>
</g>
<!-- Node4&#45;&gt;Node5 -->
<g id="edge4" class="edge">
<title>Node4&#45;&gt;Node5</title>
<path fill="none" stroke="midnightblue" d="M809.04,-367C830.21,-367 854.42,-367 877.21,-367"/>
<polygon fill="midnightblue" stroke="midnightblue" points="877.23,-370.5 887.23,-367 877.23,-363.5 877.23,-370.5"/>
</g>
<!-- Node6 -->
<g id="node6" class="node">
<title>Node6</title>
<g id="a_node6"><a xlink:href="FuzzerTracePC_8cpp.html#a1f10ac78bd11294b612636121065eb5b" target="_top" xlink:title=" ">
<polygon fill="white" stroke="black" points="1510,-376.5 1510,-395.5 1557,-395.5 1557,-376.5 1510,-376.5"/>
<text text-anchor="middle" x="1533.5" y="-383.5" font-family="Helvetica,sans-Serif" font-size="10.00">assert</text>
</a>
</g>
</g>
<!-- Node5&#45;&gt;Node6 -->
<g id="edge5" class="edge">
<title>Node5&#45;&gt;Node6</title>
<path fill="none" stroke="midnightblue" d="M987.33,-382.19C1011.24,-396.88 1049.52,-418.93 1085,-433 1164.46,-464.52 1186.22,-471.02 1271,-482 1337.11,-490.56 1358.5,-505.2 1421,-482 1463.26,-466.31 1500.24,-426.64 1519.13,-403.5"/>
<polygon fill="midnightblue" stroke="midnightblue" points="1521.99,-405.54 1525.47,-395.53 1516.51,-401.18 1521.99,-405.54"/>
</g>
<!-- Node7 -->
<g id="node7" class="node">
<title>Node7</title>
<g id="a_node7"><a xlink:href="classnlohmann_1_1detail_1_1serializer.html#ac1f8d1165b44149bd8be397dce68ea05" target="_top" xlink:title="dump escaped string">
<polygon fill="white" stroke="black" points="1085,-242 1085,-272 1235,-272 1235,-242 1085,-242"/>
<text text-anchor="start" x="1093" y="-260" font-family="Helvetica,sans-Serif" font-size="10.00">nlohmann::detail::serializer</text>
<text text-anchor="middle" x="1160" y="-249" font-family="Helvetica,sans-Serif" font-size="10.00">::dump_escaped</text>
</a>
</g>
</g>
<!-- Node5&#45;&gt;Node7 -->
<g id="edge6" class="edge">
<title>Node5&#45;&gt;Node7</title>
<path fill="none" stroke="midnightblue" d="M990.27,-351.94C1024.84,-332.49 1085.08,-298.59 1123.45,-277"/>
<polygon fill="midnightblue" stroke="midnightblue" points="1125.24,-280.01 1132.24,-272.06 1121.81,-273.91 1125.24,-280.01"/>
</g>
<!-- Node14 -->
<g id="node14" class="node">
<title>Node14</title>
<g id="a_node14"><a xlink:href="classnlohmann_1_1detail_1_1serializer.html#a6d652a3bfa581cf1cd7790d6d11ea52f" target="_top" xlink:title="dump a floating&#45;point number">
<polygon fill="white" stroke="black" points="1085,-344 1085,-374 1235,-374 1235,-344 1085,-344"/>
<text text-anchor="start" x="1093" y="-362" font-family="Helvetica,sans-Serif" font-size="10.00">nlohmann::detail::serializer</text>
<text text-anchor="middle" x="1160" y="-351" font-family="Helvetica,sans-Serif" font-size="10.00">::dump_float</text>
</a>
</g>
</g>
<!-- Node5&#45;&gt;Node14 -->
<g id="edge15" class="edge">
<title>Node5&#45;&gt;Node14</title>
<path fill="none" stroke="midnightblue" d="M1037.69,-363.96C1049.76,-363.47 1062.33,-362.96 1074.62,-362.45"/>
<polygon fill="midnightblue" stroke="midnightblue" points="1075.01,-365.94 1084.86,-362.03 1074.73,-358.95 1075.01,-365.94"/>
</g>
<!-- Node15 -->
<g id="node15" class="node">
<title>Node15</title>
<g id="a_node15"><a xlink:href="classnlohmann_1_1detail_1_1serializer.html#a944f6dea8dbe2961da145d2f62fa2c2f" target="_top" xlink:title="dump an integer">
<polygon fill="white" stroke="black" points="1085,-393 1085,-423 1235,-423 1235,-393 1085,-393"/>
<text text-anchor="start" x="1093" y="-411" font-family="Helvetica,sans-Serif" font-size="10.00">nlohmann::detail::serializer</text>
<text text-anchor="middle" x="1160" y="-400" font-family="Helvetica,sans-Serif" font-size="10.00">::dump_integer</text>
</a>
</g>
</g>
<!-- Node5&#45;&gt;Node15 -->
<g id="edge16" class="edge">
<title>Node5&#45;&gt;Node15</title>
<path fill="none" stroke="midnightblue" d="M1035.19,-382.03C1048.87,-384.9 1063.28,-387.93 1077.25,-390.86"/>
<polygon fill="midnightblue" stroke="midnightblue" points="1076.82,-394.34 1087.32,-392.97 1078.25,-387.49 1076.82,-394.34"/>
</g>
<!-- Node7&#45;&gt;Node6 -->
<g id="edge7" class="edge">
<title>Node7&#45;&gt;Node6</title>
<path fill="none" stroke="midnightblue" d="M1235.02,-257.83C1288.67,-260.84 1361.87,-270.02 1421,-296 1460.21,-313.23 1497.1,-347.98 1517.07,-368.9"/>
<polygon fill="midnightblue" stroke="midnightblue" points="1514.71,-371.5 1524.09,-376.43 1519.83,-366.73 1514.71,-371.5"/>
</g>
<!-- Node8 -->
<g id="node8" class="node">
<title>Node8</title>
<g id="a_node8"><a xlink:href="classnlohmann_1_1detail_1_1type__error.html#aecc083aea4b698c33d042670ba50c10f" target="_top" xlink:title=" ">
<polygon fill="white" stroke="black" points="1282.5,-179 1282.5,-209 1409.5,-209 1409.5,-179 1282.5,-179"/>
<text text-anchor="start" x="1290.5" y="-197" font-family="Helvetica,sans-Serif" font-size="10.00">nlohmann::detail::type</text>
<text text-anchor="middle" x="1346" y="-186" font-family="Helvetica,sans-Serif" font-size="10.00">_error::create</text>
</a>
</g>
</g>
<!-- Node7&#45;&gt;Node8 -->
<g id="edge8" class="edge">
<title>Node7&#45;&gt;Node8</title>
<path fill="none" stroke="midnightblue" d="M1205.07,-241.91C1230.92,-233.06 1263.78,-221.81 1291.15,-212.44"/>
<polygon fill="midnightblue" stroke="midnightblue" points="1292.64,-215.63 1300.97,-209.08 1290.37,-209 1292.64,-215.63"/>
</g>
<!-- Node10 -->
<g id="node10" class="node">
<title>Node10</title>
<g id="a_node10"><a xlink:href="namespacehttplib.html#a498c3a79825ecbcb15c52ec5fcfd5c11" target="_top" xlink:title=" ">
<polygon fill="white" stroke="black" points="1646,-228.5 1646,-247.5 1743,-247.5 1743,-228.5 1646,-228.5"/>
<text text-anchor="middle" x="1694.5" y="-235.5" font-family="Helvetica,sans-Serif" font-size="10.00">httplib::to_string</text>
</a>
</g>
</g>
<!-- Node7&#45;&gt;Node10 -->
<g id="edge14" class="edge">
<title>Node7&#45;&gt;Node10</title>
<path fill="none" stroke="midnightblue" d="M1235.04,-254.36C1342.16,-250.54 1538.16,-243.54 1635.49,-240.07"/>
<polygon fill="midnightblue" stroke="midnightblue" points="1635.86,-243.56 1645.72,-239.7 1635.61,-236.56 1635.86,-243.56"/>
</g>
<!-- Node12 -->
<g id="node12" class="node">
<title>Node12</title>
<g id="a_node12"><a xlink:href="classnlohmann_1_1detail_1_1serializer.html#abdcc4fd1dc5d3afb6c0817e4c89b1242" target="_top" xlink:title="check whether a string is UTF&#45;8 encoded">
<polygon fill="white" stroke="black" points="1271,-305 1271,-335 1421,-335 1421,-305 1271,-305"/>
<text text-anchor="start" x="1279" y="-323" font-family="Helvetica,sans-Serif" font-size="10.00">nlohmann::detail::serializer</text>
<text text-anchor="middle" x="1346" y="-312" font-family="Helvetica,sans-Serif" font-size="10.00">::decode</text>
</a>
</g>
</g>
<!-- Node7&#45;&gt;Node12 -->
<g id="edge12" class="edge">
<title>Node7&#45;&gt;Node12</title>
<path fill="none" stroke="midnightblue" d="M1205.07,-272.09C1230.92,-280.94 1263.78,-292.19 1291.15,-301.56"/>
<polygon fill="midnightblue" stroke="midnightblue" points="1290.37,-305 1300.97,-304.92 1292.64,-298.37 1290.37,-305"/>
</g>
<!-- Node13 -->
<g id="node13" class="node">
<title>Node13</title>
<g id="a_node13"><a xlink:href="classnlohmann_1_1detail_1_1binary__writer.html#ab77aa48692bd4e64e4f051ce6aeb6d2d" target="_top" xlink:title=" ">
<polygon fill="white" stroke="black" points="1278,-130 1278,-160 1414,-160 1414,-130 1278,-130"/>
<text text-anchor="start" x="1286" y="-148" font-family="Helvetica,sans-Serif" font-size="10.00">nlohmann::detail::binary</text>
<text text-anchor="middle" x="1346" y="-137" font-family="Helvetica,sans-Serif" font-size="10.00">_writer::to_char_type</text>
</a>
</g>
</g>
<!-- Node7&#45;&gt;Node13 -->
<g id="edge13" class="edge">
<title>Node7&#45;&gt;Node13</title>
<path fill="none" stroke="midnightblue" d="M1176.52,-241.83C1196.76,-222.77 1233.98,-190.1 1271,-170 1274.93,-167.87 1279.07,-165.87 1283.31,-164.01"/>
<polygon fill="midnightblue" stroke="midnightblue" points="1284.77,-167.19 1292.69,-160.15 1282.11,-160.72 1284.77,-167.19"/>
</g>
<!-- Node9 -->
<g id="node9" class="node">
<title>Node9</title>
<g id="a_node9"><a xlink:href="classnlohmann_1_1detail_1_1exception.html#abf41a7e9178356314082284e6cfea278" target="_top" xlink:title=" ">
<polygon fill="white" stroke="black" points="1457,-179 1457,-209 1610,-209 1610,-179 1457,-179"/>
<text text-anchor="start" x="1465" y="-197" font-family="Helvetica,sans-Serif" font-size="10.00">nlohmann::detail::exception</text>
<text text-anchor="middle" x="1533.5" y="-186" font-family="Helvetica,sans-Serif" font-size="10.00">::name</text>
</a>
</g>
</g>
<!-- Node8&#45;&gt;Node9 -->
<g id="edge9" class="edge">
<title>Node8&#45;&gt;Node9</title>
<path fill="none" stroke="midnightblue" d="M1409.54,-194C1421.38,-194 1433.95,-194 1446.36,-194"/>
<polygon fill="midnightblue" stroke="midnightblue" points="1446.72,-197.5 1456.72,-194 1446.72,-190.5 1446.72,-197.5"/>
</g>
<!-- Node11 -->
<g id="node11" class="node">
<title>Node11</title>
<g id="a_node11"><a xlink:href="classnlohmann_1_1detail_1_1type__error.html#aa01edaa0bf18b853368f0b900e485cd7" target="_top" xlink:title=" ">
<polygon fill="white" stroke="black" points="1470,-130 1470,-160 1597,-160 1597,-130 1470,-130"/>
<text text-anchor="start" x="1478" y="-148" font-family="Helvetica,sans-Serif" font-size="10.00">nlohmann::detail::type</text>
<text text-anchor="middle" x="1533.5" y="-137" font-family="Helvetica,sans-Serif" font-size="10.00">_error::type_error</text>
</a>
</g>
</g>
<!-- Node8&#45;&gt;Node11 -->
<g id="edge11" class="edge">
<title>Node8&#45;&gt;Node11</title>
<path fill="none" stroke="midnightblue" d="M1403.92,-178.97C1423.5,-173.79 1445.61,-167.95 1465.9,-162.59"/>
<polygon fill="midnightblue" stroke="midnightblue" points="1466.92,-165.94 1475.69,-160.01 1465.13,-159.18 1466.92,-165.94"/>
</g>
<!-- Node9&#45;&gt;Node10 -->
<g id="edge10" class="edge">
<title>Node9&#45;&gt;Node10</title>
<path fill="none" stroke="midnightblue" d="M1588.77,-209.02C1608.45,-214.46 1630.42,-220.54 1649.14,-225.72"/>
<polygon fill="midnightblue" stroke="midnightblue" points="1648.32,-229.13 1658.89,-228.42 1650.18,-222.38 1648.32,-229.13"/>
</g>
<!-- Node15&#45;&gt;Node6 -->
<g id="edge17" class="edge">
<title>Node15&#45;&gt;Node6</title>
<path fill="none" stroke="midnightblue" d="M1218.85,-392.94C1235.56,-389.26 1253.9,-385.84 1271,-384 1352.79,-375.18 1449.81,-379.85 1499.52,-383.33"/>
<polygon fill="midnightblue" stroke="midnightblue" points="1499.45,-386.83 1509.68,-384.07 1499.96,-379.85 1499.45,-386.83"/>
</g>
<!-- Node16 -->
<g id="node16" class="node">
<title>Node16</title>
<g id="a_node16"><a xlink:href="classnlohmann_1_1detail_1_1serializer.html#a10692e98ea1f5a64de1d0b8e0e724b99" target="_top" xlink:title="count digits">
<polygon fill="white" stroke="black" points="1271,-442 1271,-472 1421,-472 1421,-442 1271,-442"/>
<text text-anchor="start" x="1279" y="-460" font-family="Helvetica,sans-Serif" font-size="10.00">nlohmann::detail::serializer</text>
<text text-anchor="middle" x="1346" y="-449" font-family="Helvetica,sans-Serif" font-size="10.00">::count_digits</text>
</a>
</g>
</g>
<!-- Node15&#45;&gt;Node16 -->
<g id="edge18" class="edge">
<title>Node15&#45;&gt;Node16</title>
<path fill="none" stroke="midnightblue" d="M1217.46,-423.03C1236.88,-428.21 1258.81,-434.05 1278.93,-439.41"/>
<polygon fill="midnightblue" stroke="midnightblue" points="1278.09,-442.8 1288.65,-441.99 1279.89,-436.04 1278.09,-442.8"/>
</g>
<!-- Node17 -->
<g id="node17" class="node">
<title>Node17</title>
<g id="a_node17"><a xlink:href="classnlohmann_1_1detail_1_1serializer.html#a45bcb8ea41e4db5461e979d4b1d5e5e7" target="_top" xlink:title=" ">
<polygon fill="white" stroke="black" points="1271,-393 1271,-423 1421,-423 1421,-393 1271,-393"/>
<text text-anchor="start" x="1279" y="-411" font-family="Helvetica,sans-Serif" font-size="10.00">nlohmann::detail::serializer</text>
<text text-anchor="middle" x="1346" y="-400" font-family="Helvetica,sans-Serif" font-size="10.00">::remove_sign</text>
</a>
</g>
</g>
<!-- Node15&#45;&gt;Node17 -->
<g id="edge19" class="edge">
<title>Node15&#45;&gt;Node17</title>
<path fill="none" stroke="midnightblue" d="M1235.04,-408C1243.51,-408 1252.19,-408 1260.78,-408"/>
<polygon fill="midnightblue" stroke="midnightblue" points="1260.81,-411.5 1270.81,-408 1260.81,-404.5 1260.81,-411.5"/>
</g>
<!-- Node17&#45;&gt;Node6 -->
<g id="edge20" class="edge">
<title>Node17&#45;&gt;Node6</title>
<path fill="none" stroke="midnightblue" d="M1421.11,-399.21C1448.35,-395.98 1477.81,-392.49 1499.59,-389.9"/>
<polygon fill="midnightblue" stroke="midnightblue" points="1500.11,-393.37 1509.63,-388.71 1499.28,-386.41 1500.11,-393.37"/>
</g>
<!-- Node22 -->
<g id="node22" class="node">
<title>Node22</title>
<g id="a_node22"><a xlink:href="classhttplib_1_1Server.html#a5bde755667689ba58fa80eedcc4fd2f3" target="_top" xlink:title=" ">
<polygon fill="white" stroke="black" points="480.5,-707 480.5,-737 593.5,-737 593.5,-707 480.5,-707"/>
<text text-anchor="start" x="488.5" y="-725" font-family="Helvetica,sans-Serif" font-size="10.00">httplib::Server::bind</text>
<text text-anchor="middle" x="537" y="-714" font-family="Helvetica,sans-Serif" font-size="10.00">_to_port</text>
</a>
</g>
</g>
<!-- Node21&#45;&gt;Node22 -->
<g id="edge25" class="edge">
<title>Node21&#45;&gt;Node22</title>
<path fill="none" stroke="midnightblue" d="M382.12,-579.4C395.08,-582.34 407.93,-587.43 418,-596 452.7,-625.54 421.65,-659.91 454,-692 458.92,-696.88 464.69,-700.97 470.86,-704.4"/>
<polygon fill="midnightblue" stroke="midnightblue" points="469.61,-707.69 480.12,-708.97 472.7,-701.41 469.61,-707.69"/>
</g>
<!-- Node29 -->
<g id="node29" class="node">
<title>Node29</title>
<g id="a_node29"><a xlink:href="classhttplib_1_1Server.html#a294f20bcfc35d82236ab92b76c16d862" target="_top" xlink:title=" ">
<polygon fill="white" stroke="black" points="477.5,-575 477.5,-605 596.5,-605 596.5,-575 477.5,-575"/>
<text text-anchor="start" x="485.5" y="-593" font-family="Helvetica,sans-Serif" font-size="10.00">httplib::Server::listen</text>
<text text-anchor="middle" x="537" y="-582" font-family="Helvetica,sans-Serif" font-size="10.00">_internal</text>
</a>
</g>
</g>
<!-- Node21&#45;&gt;Node29 -->
<g id="edge34" class="edge">
<title>Node21&#45;&gt;Node29</title>
<path fill="none" stroke="midnightblue" d="M382.13,-580.59C408.38,-582.19 439.53,-584.1 466.9,-585.77"/>
<polygon fill="midnightblue" stroke="midnightblue" points="467,-589.29 477.19,-586.4 467.43,-582.3 467,-589.29"/>
</g>
<!-- Node23 -->
<g id="node23" class="node">
<title>Node23</title>
<g id="a_node23"><a xlink:href="classhttplib_1_1Server.html#a238aa1a28613b9639977816292427208" target="_top" xlink:title=" ">
<polygon fill="white" stroke="black" points="691.5,-707 691.5,-737 804.5,-737 804.5,-707 691.5,-707"/>
<text text-anchor="start" x="699.5" y="-725" font-family="Helvetica,sans-Serif" font-size="10.00">httplib::Server::bind</text>
<text text-anchor="middle" x="748" y="-714" font-family="Helvetica,sans-Serif" font-size="10.00">_internal</text>
</a>
</g>
</g>
<!-- Node22&#45;&gt;Node23 -->
<g id="edge26" class="edge">
<title>Node22&#45;&gt;Node23</title>
<path fill="none" stroke="midnightblue" d="M593.73,-722C620.66,-722 653.15,-722 681.28,-722"/>
<polygon fill="midnightblue" stroke="midnightblue" points="681.42,-725.5 691.42,-722 681.42,-718.5 681.42,-725.5"/>
</g>
<!-- Node24 -->
<g id="node24" class="node">
<title>Node24</title>
<g id="a_node24"><a xlink:href="classhttplib_1_1Server.html#a95489183f727c825e8a9ff041d31c35a" target="_top" xlink:title=" ">
<polygon fill="white" stroke="black" points="901.5,-669 901.5,-699 1023.5,-699 1023.5,-669 901.5,-669"/>
<text text-anchor="start" x="909.5" y="-687" font-family="Helvetica,sans-Serif" font-size="10.00">httplib::Server::create</text>
<text text-anchor="middle" x="962.5" y="-676" font-family="Helvetica,sans-Serif" font-size="10.00">_server_socket</text>
</a>
</g>
</g>
<!-- Node23&#45;&gt;Node24 -->
<g id="edge27" class="edge">
<title>Node23&#45;&gt;Node24</title>
<path fill="none" stroke="midnightblue" d="M804.55,-712.07C831.06,-707.33 863.06,-701.6 891.23,-696.57"/>
<polygon fill="midnightblue" stroke="midnightblue" points="892.2,-699.95 901.42,-694.74 890.96,-693.06 892.2,-699.95"/>
</g>
<!-- Node28 -->
<g id="node28" class="node">
<title>Node28</title>
<g id="a_node28"><a xlink:href="classhttplib_1_1Server.html#a4f02314a47adbae984a7483e8e820c05" target="_top" xlink:title=" ">
<polygon fill="white" stroke="black" points="912.5,-718 912.5,-748 1012.5,-748 1012.5,-718 912.5,-718"/>
<text text-anchor="start" x="920.5" y="-736" font-family="Helvetica,sans-Serif" font-size="10.00">httplib::Server::is</text>
<text text-anchor="middle" x="962.5" y="-725" font-family="Helvetica,sans-Serif" font-size="10.00">_valid</text>
</a>
</g>
</g>
<!-- Node23&#45;&gt;Node28 -->
<g id="edge33" class="edge">
<title>Node23&#45;&gt;Node28</title>
<path fill="none" stroke="midnightblue" d="M804.55,-724.88C834.61,-726.43 871.72,-728.35 902.32,-729.94"/>
<polygon fill="midnightblue" stroke="midnightblue" points="902.26,-733.44 912.42,-730.46 902.62,-726.45 902.26,-733.44"/>
</g>
<!-- Node24&#45;&gt;Node21 -->
<g id="edge32" class="edge">
<title>Node24&#45;&gt;Node21</title>
<path fill="none" stroke="midnightblue" d="M901.46,-683.61C804.58,-681.27 608.97,-669.5 454,-615 436.93,-609 435.04,-602.07 418,-596 409.75,-593.06 400.93,-590.53 392.11,-588.37"/>
<polygon fill="midnightblue" stroke="midnightblue" points="392.72,-584.92 382.19,-586.07 391.14,-591.74 392.72,-584.92"/>
</g>
<!-- Node25 -->
<g id="node25" class="node">
<title>Node25</title>
<g id="a_node25"><a xlink:href="namespacehttplib_1_1detail.html#ae07e72bdc26c6ad27d8e3051bfe4d912" target="_top" xlink:title=" ">
<polygon fill="white" stroke="black" points="1100.5,-669 1100.5,-699 1219.5,-699 1219.5,-669 1100.5,-669"/>
<text text-anchor="start" x="1108.5" y="-687" font-family="Helvetica,sans-Serif" font-size="10.00">httplib::detail::create</text>
<text text-anchor="middle" x="1160" y="-676" font-family="Helvetica,sans-Serif" font-size="10.00">_socket</text>
</a>
</g>
</g>
<!-- Node24&#45;&gt;Node25 -->
<g id="edge28" class="edge">
<title>Node24&#45;&gt;Node25</title>
<path fill="none" stroke="midnightblue" d="M1023.75,-684C1044.77,-684 1068.51,-684 1090.17,-684"/>
<polygon fill="midnightblue" stroke="midnightblue" points="1090.29,-687.5 1100.29,-684 1090.29,-680.5 1090.29,-687.5"/>
</g>
<!-- Node27 -->
<g id="node27" class="node">
<title>Node27</title>
<g id="a_node27"><a xlink:href="FuzzerTracePC_8cpp.html#a04324001136ead9261bb82cc6bceea2f" target="_top" xlink:title=" ">
<polygon fill="white" stroke="black" points="1145.5,-529.5 1145.5,-548.5 1174.5,-548.5 1174.5,-529.5 1145.5,-529.5"/>
<text text-anchor="middle" x="1160" y="-536.5" font-family="Helvetica,sans-Serif" font-size="10.00">if</text>
</a>
</g>
</g>
<!-- Node24&#45;&gt;Node27 -->
<g id="edge31" class="edge">
<title>Node24&#45;&gt;Node27</title>
<path fill="none" stroke="midnightblue" d="M984.26,-668.76C1001.59,-656.02 1026.93,-637.36 1049,-621 1080.09,-597.96 1116.01,-571.15 1138.12,-554.62"/>
<polygon fill="midnightblue" stroke="midnightblue" points="1140.23,-557.41 1146.15,-548.62 1136.04,-551.8 1140.23,-557.41"/>
</g>
<!-- Node25&#45;&gt;Node10 -->
<g id="edge30" class="edge">
<title>Node25&#45;&gt;Node10</title>
<path fill="none" stroke="midnightblue" d="M1219.72,-693.17C1275.18,-698.86 1358.9,-699.54 1421,-665 1588.42,-571.88 1668.23,-328.04 1688.3,-257.42"/>
<polygon fill="midnightblue" stroke="midnightblue" points="1691.72,-258.2 1691.01,-247.63 1684.97,-256.33 1691.72,-258.2"/>
</g>
<!-- Node26 -->
<g id="node26" class="node">
<title>Node26</title>
<g id="a_node26"><a xlink:href="namespacehttplib_1_1detail.html#ab97ddef67a99aee8ed2aec5e20d90286" target="_top" xlink:title=" ">
<polygon fill="white" stroke="black" points="1289.5,-625 1289.5,-655 1402.5,-655 1402.5,-625 1289.5,-625"/>
<text text-anchor="start" x="1297.5" y="-643" font-family="Helvetica,sans-Serif" font-size="10.00">httplib::detail::close</text>
<text text-anchor="middle" x="1346" y="-632" font-family="Helvetica,sans-Serif" font-size="10.00">_socket</text>
</a>
</g>
</g>
<!-- Node25&#45;&gt;Node26 -->
<g id="edge29" class="edge">
<title>Node25&#45;&gt;Node26</title>
<path fill="none" stroke="midnightblue" d="M1219.72,-669.96C1238.8,-665.4 1260.08,-660.31 1279.61,-655.64"/>
<polygon fill="midnightblue" stroke="midnightblue" points="1280.43,-659.04 1289.34,-653.31 1278.8,-652.23 1280.43,-659.04"/>
</g>
<!-- Node29&#45;&gt;Node26 -->
<g id="edge35" class="edge">
<title>Node29&#45;&gt;Node26</title>
<path fill="none" stroke="midnightblue" d="M596.72,-604.88C604.55,-606.91 612.47,-608.99 620,-611 636.04,-615.28 639.58,-618.53 656,-621 882.74,-655.1 1156.06,-648.8 1279.2,-643.47"/>
<polygon fill="midnightblue" stroke="midnightblue" points="1279.39,-646.96 1289.22,-643.02 1279.08,-639.97 1279.39,-646.96"/>
</g>
<!-- Node30 -->
<g id="node30" class="node">
<title>Node30</title>
<g id="a_node30"><a xlink:href="namespacehttplib_1_1detail.html#ade5583c2e13e0822f2a90227894d92fe" target="_top" xlink:title=" ">
<polygon fill="white" stroke="black" points="676,-592.5 676,-611.5 820,-611.5 820,-592.5 676,-592.5"/>
<text text-anchor="middle" x="748" y="-599.5" font-family="Helvetica,sans-Serif" font-size="10.00">httplib::detail::select_read</text>
</a>
</g>
</g>
<!-- Node29&#45;&gt;Node30 -->
<g id="edge36" class="edge">
<title>Node29&#45;&gt;Node30</title>
<path fill="none" stroke="midnightblue" d="M596.77,-593.37C618.12,-594.6 642.65,-596.01 665.6,-597.33"/>
<polygon fill="midnightblue" stroke="midnightblue" points="665.49,-600.83 675.68,-597.9 665.89,-593.84 665.49,-600.83"/>
</g>
<!-- Node32 -->
<g id="node32" class="node">
<title>Node32</title>
<g id="a_node32"><a xlink:href="namespacehttplib_1_1detail.html#a6fe756f70ad6d331f8269d1504ecc296" target="_top" xlink:title=" ">
<polygon fill="white" stroke="black" points="680.5,-543 680.5,-573 815.5,-573 815.5,-543 680.5,-543"/>
<text text-anchor="start" x="688.5" y="-561" font-family="Helvetica,sans-Serif" font-size="10.00">httplib::detail::shutdown</text>
<text text-anchor="middle" x="748" y="-550" font-family="Helvetica,sans-Serif" font-size="10.00">_socket</text>
</a>
</g>
</g>
<!-- Node29&#45;&gt;Node32 -->
<g id="edge38" class="edge">
<title>Node29&#45;&gt;Node32</title>
<path fill="none" stroke="midnightblue" d="M596.77,-581C619.59,-577.51 646.03,-573.46 670.3,-569.74"/>
<polygon fill="midnightblue" stroke="midnightblue" points="670.85,-573.2 680.2,-568.23 669.79,-566.28 670.85,-573.2"/>
</g>
<!-- Node31 -->
<g id="node31" class="node">
<title>Node31</title>
<g id="a_node31"><a xlink:href="namespacehttplib_1_1detail.html#a8fbaa8fefb24f6dd249b62f832f64a84" target="_top" xlink:title=" ">
<polygon fill="white" stroke="black" points="902,-581 902,-611 1023,-611 1023,-581 902,-581"/>
<text text-anchor="start" x="910" y="-599" font-family="Helvetica,sans-Serif" font-size="10.00">httplib::detail::handle</text>
<text text-anchor="middle" x="962.5" y="-588" font-family="Helvetica,sans-Serif" font-size="10.00">_EINTR</text>
</a>
</g>
</g>
<!-- Node30&#45;&gt;Node31 -->
<g id="edge37" class="edge">
<title>Node30&#45;&gt;Node31</title>
<path fill="none" stroke="midnightblue" d="M820.05,-599.99C843.18,-599.34 868.81,-598.62 891.83,-597.97"/>
<polygon fill="midnightblue" stroke="midnightblue" points="891.96,-601.46 901.86,-597.68 891.76,-594.47 891.96,-601.46"/>
</g>
<!-- Node35 -->
<g id="node35" class="node">
<title>Node35</title>
<g id="a_node35"><a xlink:href="classhttplib_1_1Server.html#ab891c52f56857eaf596107b945f260de" target="_top" xlink:title=" ">
<polygon fill="white" stroke="black" points="477.5,-127 477.5,-157 596.5,-157 596.5,-127 477.5,-127"/>
<text text-anchor="start" x="485.5" y="-145" font-family="Helvetica,sans-Serif" font-size="10.00">httplib::Server::make</text>
<text text-anchor="middle" x="537" y="-134" font-family="Helvetica,sans-Serif" font-size="10.00">_matcher</text>
</a>
</g>
</g>
<!-- Node34&#45;&gt;Node35 -->
<g id="edge41" class="edge">
<title>Node34&#45;&gt;Node35</title>
<path fill="none" stroke="midnightblue" d="M379.05,-137.57C406,-138.33 438.62,-139.25 467.13,-140.06"/>
<polygon fill="midnightblue" stroke="midnightblue" points="467.33,-143.56 477.43,-140.35 467.53,-136.57 467.33,-143.56"/>
</g>
<!-- Node37 -->
<g id="node37" class="node">
<title>Node37</title>
<g id="a_node37"><a xlink:href="classnlohmann_1_1basic__json.html#a9286acdc0578fc66e9346323e69fc0e3" target="_top" xlink:title="check the existence of an element in a JSON object">
<polygon fill="white" stroke="black" points="476,-39 476,-69 598,-69 598,-39 476,-39"/>
<text text-anchor="start" x="484" y="-57" font-family="Helvetica,sans-Serif" font-size="10.00">nlohmann::basic_json</text>
<text text-anchor="middle" x="537" y="-46" font-family="Helvetica,sans-Serif" font-size="10.00">::contains</text>
</a>
</g>
</g>
<!-- Node36&#45;&gt;Node37 -->
<g id="edge43" class="edge">
<title>Node36&#45;&gt;Node37</title>
<path fill="none" stroke="midnightblue" d="M369.61,-88.45C397.7,-82.64 434.14,-75.09 465.76,-68.54"/>
<polygon fill="midnightblue" stroke="midnightblue" points="466.76,-71.91 475.85,-66.46 465.34,-65.06 466.76,-71.91"/>
</g>
<!-- Node39 -->
<g id="node39" class="node">
<title>Node39</title>
<g id="a_node39"><a xlink:href="classnlohmann_1_1basic__json.html#a6b187a22994c12c8cae0dd5ee99dc85e" target="_top" xlink:title="get special&#45;case overload">
<polygon fill="white" stroke="black" points="465,-88.5 465,-107.5 609,-107.5 609,-88.5 465,-88.5"/>
<text text-anchor="middle" x="537" y="-95.5" font-family="Helvetica,sans-Serif" font-size="10.00">nlohmann::basic_json::get</text>
</a>
</g>
</g>
<!-- Node36&#45;&gt;Node39 -->
<g id="edge45" class="edge">
<title>Node36&#45;&gt;Node39</title>
<path fill="none" stroke="midnightblue" d="M400.22,-98C417.81,-98 436.57,-98 454.36,-98"/>
<polygon fill="midnightblue" stroke="midnightblue" points="454.7,-101.5 464.7,-98 454.7,-94.5 454.7,-101.5"/>
</g>
<!-- Node38 -->
<g id="node38" class="node">
<title>Node38</title>
<g id="a_node38"><a xlink:href="classnlohmann_1_1basic__json.html#af8f511af124e82e4579f444b4175787c" target="_top" xlink:title="return whether value is an object">
<polygon fill="white" stroke="black" points="687,-39 687,-69 809,-69 809,-39 687,-39"/>
<text text-anchor="start" x="695" y="-57" font-family="Helvetica,sans-Serif" font-size="10.00">nlohmann::basic_json</text>
<text text-anchor="middle" x="748" y="-46" font-family="Helvetica,sans-Serif" font-size="10.00">::is_object</text>
</a>
</g>
</g>
<!-- Node37&#45;&gt;Node38 -->
<g id="edge44" class="edge">
<title>Node37&#45;&gt;Node38</title>
<path fill="none" stroke="midnightblue" d="M598.17,-54C622.65,-54 651.12,-54 676.57,-54"/>
<polygon fill="midnightblue" stroke="midnightblue" points="676.89,-57.5 686.89,-54 676.89,-50.5 676.89,-57.5"/>
</g>
<!-- Node40&#45;&gt;Node27 -->
<g id="edge47" class="edge">
<title>Node40&#45;&gt;Node27</title>
<path fill="none" stroke="midnightblue" d="M1049.25,-536.75C1080.7,-537.4 1113.84,-538.08 1135.36,-538.52"/>
<polygon fill="midnightblue" stroke="midnightblue" points="1135.42,-542.02 1145.49,-538.72 1135.56,-535.02 1135.42,-542.02"/>
</g>
<!-- Node41&#45;&gt;Node27 -->
<g id="edge49" class="edge">
<title>Node41&#45;&gt;Node27</title>
<path fill="none" stroke="midnightblue" d="M832.98,-485.52C893.27,-492.76 976.36,-503.58 1049,-516 1078.91,-521.11 1113.09,-528.5 1135.3,-533.52"/>
<polygon fill="midnightblue" stroke="midnightblue" points="1134.64,-536.96 1145.17,-535.77 1136.2,-530.13 1134.64,-536.96"/>
</g>
<!-- Node42&#45;&gt;Node19 -->
<g id="edge51" class="edge">
<title>Node42&#45;&gt;Node19</title>
<path fill="none" stroke="midnightblue" d="M345.74,-366.96C365.2,-353.58 394.02,-333.2 418,-314 434.71,-300.62 435.04,-291.94 454,-282 459.32,-279.21 465.04,-276.8 470.9,-274.72"/>
<polygon fill="midnightblue" stroke="midnightblue" points="472.38,-277.92 480.83,-271.53 470.24,-271.26 472.38,-277.92"/>
</g>
<!-- Node42&#45;&gt;Node33 -->
<g id="edge53" class="edge">
<title>Node42&#45;&gt;Node33</title>
<path fill="none" stroke="midnightblue" d="M378.24,-366.88C391.47,-362.61 405.41,-357.59 418,-352 434.93,-344.49 437.03,-338.42 454,-331 459.33,-328.67 464.94,-326.47 470.63,-324.41"/>
<polygon fill="midnightblue" stroke="midnightblue" points="471.92,-327.67 480.23,-321.09 469.63,-321.05 471.92,-327.67"/>
</g>
<!-- Node43 -->
<g id="node43" class="node">
<title>Node43</title>
<g id="a_node43"><a xlink:href="classnlohmann_1_1basic__json.html#afe3e137ace692efa08590d8df40f58dd" target="_top" xlink:title="helper to access iterator member functions in range&#45;based for">
<polygon fill="white" stroke="black" points="476,-379 476,-409 598,-409 598,-379 476,-379"/>
<text text-anchor="start" x="484" y="-397" font-family="Helvetica,sans-Serif" font-size="10.00">nlohmann::basic_json</text>
<text text-anchor="middle" x="537" y="-386" font-family="Helvetica,sans-Serif" font-size="10.00">::items</text>
</a>
</g>
</g>
<!-- Node42&#45;&gt;Node43 -->
<g id="edge52" class="edge">
<title>Node42&#45;&gt;Node43</title>
<path fill="none" stroke="midnightblue" d="M408.1,-386.78C427.24,-387.86 447.36,-388.99 465.83,-390.04"/>
<polygon fill="midnightblue" stroke="midnightblue" points="465.72,-393.54 475.9,-390.61 466.11,-386.55 465.72,-393.54"/>
</g>
<!-- Node44 -->
<g id="node44" class="node">
<title>Node44</title>
<g id="a_node44"><a xlink:href="classDatabaseHandler.html#a2ed186b5456e28d67f44b4c8b350a5ce" target="_top" xlink:title="Save the JSON file data to the database.">
<polygon fill="white" stroke="black" points="459.5,-340.5 459.5,-359.5 614.5,-359.5 614.5,-340.5 459.5,-340.5"/>
<text text-anchor="middle" x="537" y="-347.5" font-family="Helvetica,sans-Serif" font-size="10.00">DatabaseHandler::SaveData</text>
</a>
</g>
</g>
<!-- Node42&#45;&gt;Node44 -->
<g id="edge54" class="edge">
<title>Node42&#45;&gt;Node44</title>
<path fill="none" stroke="midnightblue" d="M408.1,-369.26C426.09,-366.55 444.95,-363.71 462.5,-361.07"/>
<polygon fill="midnightblue" stroke="midnightblue" points="463.29,-364.49 472.65,-359.54 462.24,-357.57 463.29,-364.49"/>
</g>
<!-- Node44&#45;&gt;Node4 -->
<g id="edge55" class="edge">
<title>Node44&#45;&gt;Node4</title>
<path fill="none" stroke="midnightblue" d="M614.64,-356.23C634.88,-357.88 656.62,-359.65 676.51,-361.27"/>
<polygon fill="midnightblue" stroke="midnightblue" points="676.48,-364.78 686.73,-362.1 677.05,-357.8 676.48,-364.78"/>
</g>
<!-- Node47&#45;&gt;Node19 -->
<g id="edge61" class="edge">
<title>Node47&#45;&gt;Node19</title>
<path fill="none" stroke="midnightblue" d="M362.97,-262C385.63,-262 415.11,-262 443.3,-262"/>
<polygon fill="midnightblue" stroke="midnightblue" points="443.61,-265.5 453.61,-262 443.61,-258.5 443.61,-265.5"/>
</g>
<!-- Node48 -->
<g id="node48" class="node">
<title>Node48</title>
<g id="a_node48"><a xlink:href="classDatabaseHandler.html#ad98a598001584e3a5c4e81980a8a8719" target="_top" xlink:title="Add events to the database.">
<polygon fill="white" stroke="black" points="457.5,-214.5 457.5,-233.5 616.5,-233.5 616.5,-214.5 457.5,-214.5"/>
<text text-anchor="middle" x="537" y="-221.5" font-family="Helvetica,sans-Serif" font-size="10.00">DatabaseHandler::AddEvents</text>
</a>
</g>
</g>
<!-- Node47&#45;&gt;Node48 -->
<g id="edge59" class="edge">
<title>Node47&#45;&gt;Node48</title>
<path fill="none" stroke="midnightblue" d="M362.97,-254.94C393.67,-249.45 436.87,-241.73 472.43,-235.37"/>
<polygon fill="midnightblue" stroke="midnightblue" points="473.49,-238.73 482.71,-233.53 472.25,-231.84 473.49,-238.73"/>
</g>
<!-- Node49 -->
<g id="node49" class="node">
<title>Node49</title>
<g id="a_node49"><a xlink:href="mco__utils_8cpp.html#a1712cb19121295fe68a905b3e5c496f9" target="_top" xlink:title=" ">
<polygon fill="white" stroke="black" points="490,-176.5 490,-195.5 584,-195.5 584,-176.5 490,-176.5"/>
<text text-anchor="middle" x="537" y="-183.5" font-family="Helvetica,sans-Serif" font-size="10.00">GetCurrentTime</text>
</a>
</g>
</g>
<!-- Node47&#45;&gt;Node49 -->
<g id="edge60" class="edge">
<title>Node47&#45;&gt;Node49</title>
<path fill="none" stroke="midnightblue" d="M362.6,-259.54C380.38,-257.1 401.16,-252.32 418,-243 438.36,-231.74 433.81,-216.56 454,-205 462.01,-200.41 471.06,-196.93 480.14,-194.29"/>
<polygon fill="midnightblue" stroke="midnightblue" points="481.17,-197.64 489.97,-191.75 479.41,-190.87 481.17,-197.64"/>
</g>
</g>
</svg>
