<?xml version="1.0" encoding="UTF-8" standalone="no"?>
<!DOCTYPE svg PUBLIC "-//W3C//DTD SVG 1.1//EN"
 "http://www.w3.org/Graphics/SVG/1.1/DTD/svg11.dtd">
<!-- Generated by graphviz version 2.43.0 (0)
 -->
<!-- Title: httplib::detail::stream_line_reader::size Pages: 1 -->
<svg width="1406pt" height="329pt"
 viewBox="0.00 0.00 1406.00 328.50" xmlns="http://www.w3.org/2000/svg" xmlns:xlink="http://www.w3.org/1999/xlink">
<g id="graph0" class="graph" transform="scale(1 1) rotate(0) translate(4 324.5)">
<title>httplib::detail::stream_line_reader::size</title>
<polygon fill="white" stroke="transparent" points="-4,4 -4,-324.5 1402,-324.5 1402,4 -4,4"/>
<!-- Node1 -->
<g id="node1" class="node">
<title>Node1</title>
<g id="a_node1"><a xlink:title=" ">
<polygon fill="#bfbfbf" stroke="black" points="1276,-122 1276,-152 1398,-152 1398,-122 1276,-122"/>
<text text-anchor="start" x="1284" y="-140" font-family="Helvetica,sans-Serif" font-size="10.00">httplib::detail::stream</text>
<text text-anchor="middle" x="1337" y="-129" font-family="Helvetica,sans-Serif" font-size="10.00">_line_reader::size</text>
</a>
</g>
</g>
<!-- Node2 -->
<g id="node2" class="node">
<title>Node2</title>
<g id="a_node2"><a xlink:href="classhttplib_1_1detail_1_1stream__line__reader.html#aa0776295bbb7bd734a00dd6ffc281c31" target="_top" xlink:title=" ">
<polygon fill="white" stroke="black" points="1092,-185 1092,-215 1240,-215 1240,-185 1092,-185"/>
<text text-anchor="start" x="1100" y="-203" font-family="Helvetica,sans-Serif" font-size="10.00">httplib::detail::stream</text>
<text text-anchor="middle" x="1166" y="-192" font-family="Helvetica,sans-Serif" font-size="10.00">_line_reader::end_with_crlf</text>
</a>
</g>
</g>
<!-- Node1&#45;&gt;Node2 -->
<g id="edge1" class="edge">
<title>Node1&#45;&gt;Node2</title>
<path fill="none" stroke="midnightblue" d="M1285.84,-155.7C1260.82,-165.02 1230.97,-176.15 1207.44,-184.92"/>
<polygon fill="midnightblue" stroke="midnightblue" points="1287.37,-158.86 1295.52,-152.09 1284.93,-152.3 1287.37,-158.86"/>
</g>
<!-- Node3 -->
<g id="node3" class="node">
<title>Node3</title>
<g id="a_node3"><a xlink:href="namespacehttplib_1_1detail.html#aeb8db950848e27227eb130f609b293cf" target="_top" xlink:title=" ">
<polygon fill="white" stroke="black" points="946,-149 946,-179 1056,-179 1056,-149 946,-149"/>
<text text-anchor="start" x="954" y="-167" font-family="Helvetica,sans-Serif" font-size="10.00">httplib::detail::read</text>
<text text-anchor="middle" x="1001" y="-156" font-family="Helvetica,sans-Serif" font-size="10.00">_headers</text>
</a>
</g>
</g>
<!-- Node1&#45;&gt;Node3 -->
<g id="edge22" class="edge">
<title>Node1&#45;&gt;Node3</title>
<path fill="none" stroke="midnightblue" d="M1265.73,-142.68C1203.23,-147.73 1113.13,-155.02 1056.09,-159.63"/>
<polygon fill="midnightblue" stroke="midnightblue" points="1266.22,-146.15 1275.9,-141.86 1265.65,-139.18 1266.22,-146.15"/>
</g>
<!-- Node4 -->
<g id="node4" class="node">
<title>Node4</title>
<g id="a_node4"><a xlink:href="classhttplib_1_1Server.html#a4e7c7c79cced3d61082df30b3eb97ed2" target="_top" xlink:title=" ">
<polygon fill="white" stroke="black" points="781,-103 781,-133 910,-133 910,-103 781,-103"/>
<text text-anchor="start" x="789" y="-121" font-family="Helvetica,sans-Serif" font-size="10.00">httplib::Server::process</text>
<text text-anchor="middle" x="845.5" y="-110" font-family="Helvetica,sans-Serif" font-size="10.00">_request</text>
</a>
</g>
</g>
<!-- Node1&#45;&gt;Node4 -->
<g id="edge20" class="edge">
<title>Node1&#45;&gt;Node4</title>
<path fill="none" stroke="midnightblue" d="M1265.87,-134.28C1170.65,-130.58 1001.84,-124.03 910.12,-120.47"/>
<polygon fill="midnightblue" stroke="midnightblue" points="1265.85,-137.78 1275.98,-134.67 1266.12,-130.78 1265.85,-137.78"/>
</g>
<!-- Node20 -->
<g id="node20" class="node">
<title>Node20</title>
<g id="a_node20"><a xlink:href="namespacehttplib_1_1detail.html#ae5193f6482cd847465c5b9d0be29fadd" target="_top" xlink:title=" ">
<polygon fill="white" stroke="black" points="1111,-59 1111,-89 1221,-89 1221,-59 1111,-59"/>
<text text-anchor="start" x="1119" y="-77" font-family="Helvetica,sans-Serif" font-size="10.00">httplib::detail::read</text>
<text text-anchor="middle" x="1166" y="-66" font-family="Helvetica,sans-Serif" font-size="10.00">_content_chunked</text>
</a>
</g>
</g>
<!-- Node1&#45;&gt;Node20 -->
<g id="edge21" class="edge">
<title>Node1&#45;&gt;Node20</title>
<path fill="none" stroke="midnightblue" d="M1285.84,-118.3C1260.82,-108.98 1230.97,-97.85 1207.44,-89.08"/>
<polygon fill="midnightblue" stroke="midnightblue" points="1284.93,-121.7 1295.52,-121.91 1287.37,-115.14 1284.93,-121.7"/>
</g>
<!-- Node2&#45;&gt;Node3 -->
<g id="edge2" class="edge">
<title>Node2&#45;&gt;Node3</title>
<path fill="none" stroke="midnightblue" d="M1086.86,-182.74C1076.43,-180.44 1065.93,-178.12 1056.04,-175.93"/>
<polygon fill="midnightblue" stroke="midnightblue" points="1086.3,-186.2 1096.82,-184.94 1087.81,-179.37 1086.3,-186.2"/>
</g>
<!-- Node3&#45;&gt;Node4 -->
<g id="edge3" class="edge">
<title>Node3&#45;&gt;Node4</title>
<path fill="none" stroke="midnightblue" d="M939.96,-146.01C925.62,-141.71 910.46,-137.17 896.61,-133.02"/>
<polygon fill="midnightblue" stroke="midnightblue" points="939.15,-149.42 949.74,-148.94 941.16,-142.71 939.15,-149.42"/>
</g>
<!-- Node6 -->
<g id="node6" class="node">
<title>Node6</title>
<g id="a_node6"><a xlink:href="classhttplib_1_1ClientImpl.html#aaf87765187adb847b44c102643704f3a" target="_top" xlink:title=" ">
<polygon fill="white" stroke="black" points="793.5,-152 793.5,-182 897.5,-182 897.5,-152 793.5,-152"/>
<text text-anchor="start" x="801.5" y="-170" font-family="Helvetica,sans-Serif" font-size="10.00">httplib::ClientImpl</text>
<text text-anchor="middle" x="845.5" y="-159" font-family="Helvetica,sans-Serif" font-size="10.00">::process_request</text>
</a>
</g>
</g>
<!-- Node3&#45;&gt;Node6 -->
<g id="edge5" class="edge">
<title>Node3&#45;&gt;Node6</title>
<path fill="none" stroke="midnightblue" d="M935.78,-165.26C923.03,-165.5 909.8,-165.76 897.56,-166"/>
<polygon fill="midnightblue" stroke="midnightblue" points="935.95,-168.75 945.88,-165.06 935.82,-161.75 935.95,-168.75"/>
</g>
<!-- Node5 -->
<g id="node5" class="node">
<title>Node5</title>
<g id="a_node5"><a xlink:href="classhttplib_1_1Server.html#a28221db99b5a35e45515553fdb9458a0" target="_top" xlink:title=" ">
<polygon fill="white" stroke="black" points="616,-103 616,-133 745,-133 745,-103 616,-103"/>
<text text-anchor="start" x="624" y="-121" font-family="Helvetica,sans-Serif" font-size="10.00">httplib::Server::process</text>
<text text-anchor="middle" x="680.5" y="-110" font-family="Helvetica,sans-Serif" font-size="10.00">_and_close_socket</text>
</a>
</g>
</g>
<!-- Node4&#45;&gt;Node5 -->
<g id="edge4" class="edge">
<title>Node4&#45;&gt;Node5</title>
<path fill="none" stroke="midnightblue" d="M770.31,-118C761.86,-118 753.3,-118 745,-118"/>
<polygon fill="midnightblue" stroke="midnightblue" points="770.55,-121.5 780.55,-118 770.55,-114.5 770.55,-121.5"/>
</g>
<!-- Node7 -->
<g id="node7" class="node">
<title>Node7</title>
<g id="a_node7"><a xlink:href="classhttplib_1_1ClientImpl.html#ac4e30af906067369892520eccd85c038" target="_top" xlink:title=" ">
<polygon fill="white" stroke="black" points="628.5,-152 628.5,-182 732.5,-182 732.5,-152 628.5,-152"/>
<text text-anchor="start" x="636.5" y="-170" font-family="Helvetica,sans-Serif" font-size="10.00">httplib::ClientImpl</text>
<text text-anchor="middle" x="680.5" y="-159" font-family="Helvetica,sans-Serif" font-size="10.00">::handle_request</text>
</a>
</g>
</g>
<!-- Node6&#45;&gt;Node7 -->
<g id="edge6" class="edge">
<title>Node6&#45;&gt;Node7</title>
<path fill="none" stroke="midnightblue" d="M783.2,-167C766.57,-167 748.74,-167 732.73,-167"/>
<polygon fill="midnightblue" stroke="midnightblue" points="783.37,-170.5 793.37,-167 783.37,-163.5 783.37,-170.5"/>
</g>
<!-- Node8 -->
<g id="node8" class="node">
<title>Node8</title>
<g id="a_node8"><a xlink:href="classhttplib_1_1ClientImpl.html#ab783868da89488b0bf734e8d83b5e569" target="_top" xlink:title=" ">
<polygon fill="white" stroke="black" points="476,-175 476,-205 580,-205 580,-175 476,-175"/>
<text text-anchor="start" x="484" y="-193" font-family="Helvetica,sans-Serif" font-size="10.00">httplib::ClientImpl</text>
<text text-anchor="middle" x="528" y="-182" font-family="Helvetica,sans-Serif" font-size="10.00">::send_</text>
</a>
</g>
</g>
<!-- Node7&#45;&gt;Node8 -->
<g id="edge7" class="edge">
<title>Node7&#45;&gt;Node8</title>
<path fill="none" stroke="midnightblue" d="M618.15,-176.38C605.52,-178.31 592.36,-180.32 580.14,-182.18"/>
<polygon fill="midnightblue" stroke="midnightblue" points="618.77,-179.82 628.13,-174.85 617.71,-172.9 618.77,-179.82"/>
</g>
<!-- Node9 -->
<g id="node9" class="node">
<title>Node9</title>
<g id="a_node9"><a xlink:href="classhttplib_1_1ClientImpl.html#a5973f9c3afa13416417fd7a317eb811b" target="_top" xlink:title=" ">
<polygon fill="white" stroke="black" points="324,-241 324,-271 428,-271 428,-241 324,-241"/>
<text text-anchor="start" x="332" y="-259" font-family="Helvetica,sans-Serif" font-size="10.00">httplib::ClientImpl</text>
<text text-anchor="middle" x="376" y="-248" font-family="Helvetica,sans-Serif" font-size="10.00">::Delete</text>
</a>
</g>
</g>
<!-- Node8&#45;&gt;Node9 -->
<g id="edge8" class="edge">
<title>Node8&#45;&gt;Node9</title>
<path fill="none" stroke="midnightblue" d="M486.91,-209.53C472.24,-216.51 455.46,-224.3 440,-231 432.33,-234.32 424.08,-237.73 416.14,-240.91"/>
<polygon fill="midnightblue" stroke="midnightblue" points="488.7,-212.56 496.21,-205.09 485.68,-206.24 488.7,-212.56"/>
</g>
<!-- Node10 -->
<g id="node10" class="node">
<title>Node10</title>
<g id="a_node10"><a xlink:href="classhttplib_1_1ClientImpl.html#ad073f1945ddc13fc4778449739430889" target="_top" xlink:title=" ">
<polygon fill="white" stroke="black" points="312,-202.5 312,-221.5 440,-221.5 440,-202.5 312,-202.5"/>
<text text-anchor="middle" x="376" y="-209.5" font-family="Helvetica,sans-Serif" font-size="10.00">httplib::ClientImpl::Get</text>
</a>
</g>
</g>
<!-- Node8&#45;&gt;Node10 -->
<g id="edge9" class="edge">
<title>Node8&#45;&gt;Node10</title>
<path fill="none" stroke="midnightblue" d="M465.68,-198.99C457.27,-200.23 448.62,-201.5 440.18,-202.73"/>
<polygon fill="midnightblue" stroke="midnightblue" points="466.41,-202.42 475.8,-197.51 465.4,-195.5 466.41,-202.42"/>
</g>
<!-- Node11 -->
<g id="node11" class="node">
<title>Node11</title>
<g id="a_node11"><a xlink:href="classhttplib_1_1ClientImpl.html#adf64c589c0334ccd516905484140e0d1" target="_top" xlink:title=" ">
<polygon fill="white" stroke="black" points="324,-153 324,-183 428,-183 428,-153 324,-153"/>
<text text-anchor="start" x="332" y="-171" font-family="Helvetica,sans-Serif" font-size="10.00">httplib::ClientImpl</text>
<text text-anchor="middle" x="376" y="-160" font-family="Helvetica,sans-Serif" font-size="10.00">::Head</text>
</a>
</g>
</g>
<!-- Node8&#45;&gt;Node11 -->
<g id="edge10" class="edge">
<title>Node8&#45;&gt;Node11</title>
<path fill="none" stroke="midnightblue" d="M465.53,-180.99C453.14,-179.17 440.23,-177.27 428.23,-175.51"/>
<polygon fill="midnightblue" stroke="midnightblue" points="465.4,-184.5 475.8,-182.49 466.41,-177.58 465.4,-184.5"/>
</g>
<!-- Node12 -->
<g id="node12" class="node">
<title>Node12</title>
<g id="a_node12"><a xlink:href="classhttplib_1_1ClientImpl.html#a0de10ef5e77b7c6cc83674bd86bc2e8a" target="_top" xlink:title=" ">
<polygon fill="white" stroke="black" points="324,-290 324,-320 428,-320 428,-290 324,-290"/>
<text text-anchor="start" x="332" y="-308" font-family="Helvetica,sans-Serif" font-size="10.00">httplib::ClientImpl</text>
<text text-anchor="middle" x="376" y="-297" font-family="Helvetica,sans-Serif" font-size="10.00">::Options</text>
</a>
</g>
</g>
<!-- Node8&#45;&gt;Node12 -->
<g id="edge11" class="edge">
<title>Node8&#45;&gt;Node12</title>
<path fill="none" stroke="midnightblue" d="M509.65,-213.31C493.54,-233.57 467.89,-262.49 440,-281 434.93,-284.37 429.32,-287.35 423.6,-289.98"/>
<polygon fill="midnightblue" stroke="midnightblue" points="512.57,-215.25 515.95,-205.21 507.05,-210.96 512.57,-215.25"/>
</g>
<!-- Node13 -->
<g id="node13" class="node">
<title>Node13</title>
<g id="a_node13"><a xlink:href="classhttplib_1_1ClientImpl.html#a618895e4b137663691fdc41fd998b843" target="_top" xlink:title=" ">
<polygon fill="white" stroke="black" points="324,-104 324,-134 428,-134 428,-104 324,-104"/>
<text text-anchor="start" x="332" y="-122" font-family="Helvetica,sans-Serif" font-size="10.00">httplib::ClientImpl</text>
<text text-anchor="middle" x="376" y="-111" font-family="Helvetica,sans-Serif" font-size="10.00">::send</text>
</a>
</g>
</g>
<!-- Node8&#45;&gt;Node13 -->
<g id="edge12" class="edge">
<title>Node8&#45;&gt;Node13</title>
<path fill="none" stroke="midnightblue" d="M491.54,-170.13C475.93,-161.68 457.25,-151.95 440,-144 432.63,-140.6 424.65,-137.22 416.93,-134.09"/>
<polygon fill="midnightblue" stroke="midnightblue" points="489.88,-173.22 500.34,-174.94 493.24,-167.07 489.88,-173.22"/>
</g>
<!-- Node13&#45;&gt;Node7 -->
<g id="edge13" class="edge">
<title>Node13&#45;&gt;Node7</title>
<path fill="none" stroke="midnightblue" d="M438.18,-128.71C494.03,-137.57 575.66,-150.52 628.18,-158.86"/>
<polygon fill="midnightblue" stroke="midnightblue" points="438.49,-125.21 428.06,-127.1 437.39,-132.13 438.49,-125.21"/>
</g>
<!-- Node14 -->
<g id="node14" class="node">
<title>Node14</title>
<g id="a_node14"><a xlink:href="classhttplib_1_1ClientImpl.html#ab81f0f3ff5031d8bb231928318cd95ff" target="_top" xlink:title=" ">
<polygon fill="white" stroke="black" points="167,-132 167,-162 271,-162 271,-132 167,-132"/>
<text text-anchor="start" x="175" y="-150" font-family="Helvetica,sans-Serif" font-size="10.00">httplib::ClientImpl</text>
<text text-anchor="middle" x="219" y="-139" font-family="Helvetica,sans-Serif" font-size="10.00">::send_</text>
</a>
</g>
</g>
<!-- Node13&#45;&gt;Node14 -->
<g id="edge14" class="edge">
<title>Node13&#45;&gt;Node14</title>
<path fill="none" stroke="midnightblue" d="M313.71,-130.07C299.6,-132.62 284.75,-135.3 271.13,-137.76"/>
<polygon fill="midnightblue" stroke="midnightblue" points="314.6,-133.47 323.82,-128.25 313.35,-126.58 314.6,-133.47"/>
</g>
<!-- Node15 -->
<g id="node15" class="node">
<title>Node15</title>
<g id="a_node15"><a xlink:href="classhttplib_1_1ClientImpl.html#ab3169b93b50fca58a21f2db0a2bdea88" target="_top" xlink:title=" ">
<polygon fill="white" stroke="black" points="162,-71.5 162,-112.5 276,-112.5 276,-71.5 162,-71.5"/>
<text text-anchor="start" x="170" y="-100.5" font-family="Helvetica,sans-Serif" font-size="10.00">httplib::ClientImpl</text>
<text text-anchor="start" x="170" y="-89.5" font-family="Helvetica,sans-Serif" font-size="10.00">::send_with_content</text>
<text text-anchor="middle" x="219" y="-78.5" font-family="Helvetica,sans-Serif" font-size="10.00">_provider</text>
</a>
</g>
</g>
<!-- Node13&#45;&gt;Node15 -->
<g id="edge15" class="edge">
<title>Node13&#45;&gt;Node15</title>
<path fill="none" stroke="midnightblue" d="M313.61,-108.31C301.27,-106.16 288.36,-103.91 276.21,-101.79"/>
<polygon fill="midnightblue" stroke="midnightblue" points="313.37,-111.82 323.82,-110.08 314.57,-104.92 313.37,-111.82"/>
</g>
<!-- Node16 -->
<g id="node16" class="node">
<title>Node16</title>
<g id="a_node16"><a xlink:href="classhttplib_1_1ClientImpl.html#ad454e536598fa610080587d8516b5c80" target="_top" xlink:title=" ">
<polygon fill="white" stroke="black" points="11,-148 11,-178 115,-178 115,-148 11,-148"/>
<text text-anchor="start" x="19" y="-166" font-family="Helvetica,sans-Serif" font-size="10.00">httplib::ClientImpl</text>
<text text-anchor="middle" x="63" y="-155" font-family="Helvetica,sans-Serif" font-size="10.00">::Patch</text>
</a>
</g>
</g>
<!-- Node15&#45;&gt;Node16 -->
<g id="edge16" class="edge">
<title>Node15&#45;&gt;Node16</title>
<path fill="none" stroke="midnightblue" d="M170.81,-117.28C156.56,-124.6 140.77,-132.39 126,-139 119.15,-142.06 111.78,-145.12 104.6,-147.97"/>
<polygon fill="midnightblue" stroke="midnightblue" points="172.66,-120.27 179.93,-112.56 169.44,-114.05 172.66,-120.27"/>
</g>
<!-- Node17 -->
<g id="node17" class="node">
<title>Node17</title>
<g id="a_node17"><a xlink:href="classhttplib_1_1ClientImpl.html#a31fe4e8466d44dc45e28d3e68db05e01" target="_top" xlink:title=" ">
<polygon fill="white" stroke="black" points="11,-99 11,-129 115,-129 115,-99 11,-99"/>
<text text-anchor="start" x="19" y="-117" font-family="Helvetica,sans-Serif" font-size="10.00">httplib::ClientImpl</text>
<text text-anchor="middle" x="63" y="-106" font-family="Helvetica,sans-Serif" font-size="10.00">::Post</text>
</a>
</g>
</g>
<!-- Node15&#45;&gt;Node17 -->
<g id="edge17" class="edge">
<title>Node15&#45;&gt;Node17</title>
<path fill="none" stroke="midnightblue" d="M151.78,-101.46C139.51,-103.21 126.87,-105.02 115.13,-106.7"/>
<polygon fill="midnightblue" stroke="midnightblue" points="152.56,-104.88 161.97,-100 151.57,-97.95 152.56,-104.88"/>
</g>
<!-- Node18 -->
<g id="node18" class="node">
<title>Node18</title>
<g id="a_node18"><a xlink:href="classhttplib_1_1ClientImpl.html#a048987c16a2f45382c1bb0d2102e4873" target="_top" xlink:title=" ">
<polygon fill="white" stroke="black" points="0,-60.5 0,-79.5 126,-79.5 126,-60.5 0,-60.5"/>
<text text-anchor="middle" x="63" y="-67.5" font-family="Helvetica,sans-Serif" font-size="10.00">httplib::ClientImpl::Put</text>
</a>
</g>
</g>
<!-- Node15&#45;&gt;Node18 -->
<g id="edge18" class="edge">
<title>Node15&#45;&gt;Node18</title>
<path fill="none" stroke="midnightblue" d="M152.03,-82.58C143.48,-81.35 134.73,-80.1 126.24,-78.89"/>
<polygon fill="midnightblue" stroke="midnightblue" points="151.57,-86.05 161.97,-84 152.56,-79.12 151.57,-86.05"/>
</g>
<!-- Node19 -->
<g id="node19" class="node">
<title>Node19</title>
<g id="a_node19"><a xlink:href="classhttplib_1_1ClientImpl.html#ac9d400990790ff3aa7f3639392181ddb" target="_top" xlink:title=" ">
<polygon fill="white" stroke="black" points="6,-0.5 6,-41.5 120,-41.5 120,-0.5 6,-0.5"/>
<text text-anchor="start" x="14" y="-29.5" font-family="Helvetica,sans-Serif" font-size="10.00">httplib::ClientImpl</text>
<text text-anchor="start" x="14" y="-18.5" font-family="Helvetica,sans-Serif" font-size="10.00">::send_with_content</text>
<text text-anchor="middle" x="63" y="-7.5" font-family="Helvetica,sans-Serif" font-size="10.00">_provider</text>
</a>
</g>
</g>
<!-- Node15&#45;&gt;Node19 -->
<g id="edge19" class="edge">
<title>Node15&#45;&gt;Node19</title>
<path fill="none" stroke="midnightblue" d="M164.18,-67.19C146.06,-58.83 126.05,-49.61 108.71,-41.61"/>
<polygon fill="midnightblue" stroke="midnightblue" points="162.91,-70.46 173.46,-71.46 165.84,-64.1 162.91,-70.46"/>
</g>
</g>
</svg>
