<?xml version="1.0" encoding="UTF-8" standalone="no"?>
<!DOCTYPE svg PUBLIC "-//W3C//DTD SVG 1.1//EN"
 "http://www.w3.org/Graphics/SVG/1.1/DTD/svg11.dtd">
<!-- Generated by graphviz version 2.43.0 (0)
 -->
<!-- Title: fuzzer::Fuzzer::PrintStats Pages: 1 -->
<svg width="1132pt" height="365pt"
 viewBox="0.00 0.00 1132.00 364.71" xmlns="http://www.w3.org/2000/svg" xmlns:xlink="http://www.w3.org/1999/xlink">
<g id="graph0" class="graph" transform="scale(1 1) rotate(0) translate(4 360.71)">
<title>fuzzer::Fuzzer::PrintStats</title>
<polygon fill="white" stroke="transparent" points="-4,4 -4,-360.71 1128,-360.71 1128,4 -4,4"/>
<!-- Node1 -->
<g id="node1" class="node">
<title>Node1</title>
<g id="a_node1"><a xlink:title=" ">
<polygon fill="#bfbfbf" stroke="black" points="987,-195 987,-214 1124,-214 1124,-195 987,-195"/>
<text text-anchor="middle" x="1055.5" y="-202" font-family="Helvetica,sans-Serif" font-size="10.00">fuzzer::Fuzzer::PrintStats</text>
</a>
</g>
</g>
<!-- Node2 -->
<g id="node2" class="node">
<title>Node2</title>
<g id="a_node2"><a xlink:href="classfuzzer_1_1Fuzzer.html#a960f37bdf1d61e7043609ace07d411e4" target="_top" xlink:title=" ">
<polygon fill="white" stroke="black" points="787,-317.5 787,-347.5 951,-347.5 951,-317.5 787,-317.5"/>
<text text-anchor="start" x="795" y="-335.5" font-family="Helvetica,sans-Serif" font-size="10.00">fuzzer::Fuzzer::CrashResistant</text>
<text text-anchor="middle" x="869" y="-324.5" font-family="Helvetica,sans-Serif" font-size="10.00">MergeInternalStep</text>
</a>
</g>
</g>
<!-- Node1&#45;&gt;Node2 -->
<g id="edge1" class="edge">
<title>Node1&#45;&gt;Node2</title>
<path fill="none" stroke="midnightblue" d="M1039.33,-221.76C1020.38,-242.49 986.13,-277.24 951,-299.5 939.97,-306.49 927.21,-312.51 915.12,-317.42"/>
<polygon fill="midnightblue" stroke="midnightblue" points="1042.18,-223.84 1046.26,-214.06 1036.97,-219.16 1042.18,-223.84"/>
</g>
<!-- Node5 -->
<g id="node5" class="node">
<title>Node5</title>
<g id="a_node5"><a xlink:href="classfuzzer_1_1Fuzzer.html#a6a4abd6692ba305867fcb7df7bfe79cc" target="_top" xlink:title=" ">
<polygon fill="white" stroke="black" points="424.5,-274.5 424.5,-304.5 559.5,-304.5 559.5,-274.5 424.5,-274.5"/>
<text text-anchor="start" x="432.5" y="-292.5" font-family="Helvetica,sans-Serif" font-size="10.00">fuzzer::Fuzzer::FindExtra</text>
<text text-anchor="middle" x="492" y="-281.5" font-family="Helvetica,sans-Serif" font-size="10.00">Units</text>
</a>
</g>
</g>
<!-- Node1&#45;&gt;Node5 -->
<g id="edge4" class="edge">
<title>Node1&#45;&gt;Node5</title>
<path fill="none" stroke="midnightblue" d="M1032.46,-219.79C1012.27,-232.89 981.04,-250.96 951,-259.5 816.1,-297.84 650.21,-297.64 559.7,-293.78"/>
<polygon fill="midnightblue" stroke="midnightblue" points="1034.52,-222.62 1040.91,-214.17 1030.65,-216.79 1034.52,-222.62"/>
</g>
<!-- Node7 -->
<g id="node7" class="node">
<title>Node7</title>
<g id="a_node7"><a xlink:href="classfuzzer_1_1Fuzzer.html#a0306e29f06ced3d24ed0417ea2fef34b" target="_top" xlink:title=" ">
<polygon fill="white" stroke="black" points="245.5,-167 245.5,-186 358.5,-186 358.5,-167 245.5,-167"/>
<text text-anchor="middle" x="302" y="-174" font-family="Helvetica,sans-Serif" font-size="10.00">fuzzer::Fuzzer::Loop</text>
</a>
</g>
</g>
<!-- Node1&#45;&gt;Node7 -->
<g id="edge7" class="edge">
<title>Node1&#45;&gt;Node7</title>
<path fill="none" stroke="midnightblue" d="M996.84,-215.83C883.47,-236.07 624.18,-272.24 413,-226.5 377.12,-218.73 338.89,-198.22 318.29,-186.02"/>
<polygon fill="midnightblue" stroke="midnightblue" points="997.49,-219.27 1006.71,-214.05 996.24,-212.38 997.49,-219.27"/>
</g>
<!-- Node8 -->
<g id="node8" class="node">
<title>Node8</title>
<g id="a_node8"><a xlink:href="classfuzzer_1_1Fuzzer.html#ac7f5f2abe2e381509015eae6bb588410" target="_top" xlink:title=" ">
<polygon fill="white" stroke="black" points="797.5,-145.5 797.5,-175.5 940.5,-175.5 940.5,-145.5 797.5,-145.5"/>
<text text-anchor="start" x="805.5" y="-163.5" font-family="Helvetica,sans-Serif" font-size="10.00">fuzzer::Fuzzer::PrintStatus</text>
<text text-anchor="middle" x="869" y="-152.5" font-family="Helvetica,sans-Serif" font-size="10.00">ForNewUnit</text>
</a>
</g>
</g>
<!-- Node1&#45;&gt;Node8 -->
<g id="edge9" class="edge">
<title>Node1&#45;&gt;Node8</title>
<path fill="none" stroke="midnightblue" d="M1004.67,-192.62C982.66,-187.37 956.53,-181.14 933.17,-175.57"/>
<polygon fill="midnightblue" stroke="midnightblue" points="1003.93,-196.04 1014.47,-194.95 1005.55,-189.23 1003.93,-196.04"/>
</g>
<!-- Node11 -->
<g id="node11" class="node">
<title>Node11</title>
<g id="a_node11"><a xlink:href="classfuzzer_1_1Fuzzer.html#a44506dc46253928eb73397091d6c4c32" target="_top" xlink:title=" ">
<polygon fill="white" stroke="black" points="413,-186.5 413,-216.5 571,-216.5 571,-186.5 413,-186.5"/>
<text text-anchor="start" x="421" y="-204.5" font-family="Helvetica,sans-Serif" font-size="10.00">fuzzer::Fuzzer::RereadOutput</text>
<text text-anchor="middle" x="492" y="-193.5" font-family="Helvetica,sans-Serif" font-size="10.00">Corpus</text>
</a>
</g>
</g>
<!-- Node1&#45;&gt;Node11 -->
<g id="edge13" class="edge">
<title>Node1&#45;&gt;Node11</title>
<path fill="none" stroke="midnightblue" d="M976.69,-204.08C869.78,-203.51 678.53,-202.49 571.34,-201.92"/>
<polygon fill="midnightblue" stroke="midnightblue" points="976.75,-207.58 986.77,-204.14 976.79,-200.58 976.75,-207.58"/>
</g>
<!-- Node12 -->
<g id="node12" class="node">
<title>Node12</title>
<g id="a_node12"><a xlink:href="classfuzzer_1_1Fuzzer.html#a89cb175e3dd6b4e14beb716a8a64f10c" target="_top" xlink:title=" ">
<polygon fill="white" stroke="black" points="615,-107 615,-126 743,-126 743,-107 615,-107"/>
<text text-anchor="middle" x="679" y="-114" font-family="Helvetica,sans-Serif" font-size="10.00">fuzzer::Fuzzer::RunOne</text>
</a>
</g>
</g>
<!-- Node1&#45;&gt;Node12 -->
<g id="edge15" class="edge">
<title>Node1&#45;&gt;Node12</title>
<path fill="none" stroke="midnightblue" d="M1036.23,-188.27C1016.68,-171.97 983.98,-147.7 951,-136.5 882.66,-113.28 799.2,-110.67 743.12,-112.33"/>
<polygon fill="midnightblue" stroke="midnightblue" points="1034.13,-191.08 1044.01,-194.91 1038.68,-185.76 1034.13,-191.08"/>
</g>
<!-- Node16 -->
<g id="node16" class="node">
<title>Node16</title>
<g id="a_node16"><a xlink:href="classfuzzer_1_1Fuzzer.html#a368fcca328a7e72c500caf081227f7ef" target="_top" xlink:title=" ">
<polygon fill="white" stroke="black" points="420.5,-0.5 420.5,-30.5 563.5,-30.5 563.5,-0.5 420.5,-0.5"/>
<text text-anchor="start" x="428.5" y="-18.5" font-family="Helvetica,sans-Serif" font-size="10.00">fuzzer::Fuzzer::ShuffleAnd</text>
<text text-anchor="middle" x="492" y="-7.5" font-family="Helvetica,sans-Serif" font-size="10.00">Minimize</text>
</a>
</g>
</g>
<!-- Node1&#45;&gt;Node16 -->
<g id="edge26" class="edge">
<title>Node1&#45;&gt;Node16</title>
<path fill="none" stroke="midnightblue" d="M1041.14,-187.03C1023.18,-164.84 989.08,-127.11 951,-107.5 824.82,-42.51 657.13,-23.38 563.64,-17.78"/>
<polygon fill="midnightblue" stroke="midnightblue" points="1038.47,-189.28 1047.41,-194.96 1043.96,-184.94 1038.47,-189.28"/>
</g>
<!-- Node3 -->
<g id="node3" class="node">
<title>Node3</title>
<g id="a_node3"><a xlink:href="namespacefuzzer.html#a78f142089de84c6cbf7b5cab5f766af7" target="_top" xlink:title=" ">
<polygon fill="white" stroke="black" points="77,-133 77,-152 191,-152 191,-133 77,-133"/>
<text text-anchor="middle" x="134" y="-140" font-family="Helvetica,sans-Serif" font-size="10.00">fuzzer::FuzzerDriver</text>
</a>
</g>
</g>
<!-- Node2&#45;&gt;Node3 -->
<g id="edge2" class="edge">
<title>Node2&#45;&gt;Node3</title>
<path fill="none" stroke="midnightblue" d="M776.58,-346.89C643.47,-362.76 394.02,-372.78 227,-259.5 183.8,-230.2 151.49,-174.29 139.79,-152.01"/>
<polygon fill="midnightblue" stroke="midnightblue" points="777.24,-350.34 786.74,-345.64 776.39,-343.39 777.24,-350.34"/>
</g>
<!-- Node4 -->
<g id="node4" class="node">
<title>Node4</title>
<g id="a_node4"><a xlink:href="FuzzerMain_8cpp.html#a3c04138a5bfe5d72780bb7e82a18e627" target="_top" xlink:title=" ">
<polygon fill="white" stroke="black" points="0,-133 0,-152 41,-152 41,-133 0,-133"/>
<text text-anchor="middle" x="20.5" y="-140" font-family="Helvetica,sans-Serif" font-size="10.00">main</text>
</a>
</g>
</g>
<!-- Node3&#45;&gt;Node4 -->
<g id="edge3" class="edge">
<title>Node3&#45;&gt;Node4</title>
<path fill="none" stroke="midnightblue" d="M66.7,-142.5C57.37,-142.5 48.45,-142.5 41.04,-142.5"/>
<polygon fill="midnightblue" stroke="midnightblue" points="66.92,-146 76.92,-142.5 66.92,-139 66.92,-146"/>
</g>
<!-- Node6 -->
<g id="node6" class="node">
<title>Node6</title>
<g id="a_node6"><a xlink:href="classfuzzer_1_1Fuzzer.html#aad1ef6d2a186b7b2462363111398e54e" target="_top" xlink:title=" ">
<polygon fill="white" stroke="black" points="241.5,-231 241.5,-250 362.5,-250 362.5,-231 241.5,-231"/>
<text text-anchor="middle" x="302" y="-238" font-family="Helvetica,sans-Serif" font-size="10.00">fuzzer::Fuzzer::Merge</text>
</a>
</g>
</g>
<!-- Node5&#45;&gt;Node6 -->
<g id="edge5" class="edge">
<title>Node5&#45;&gt;Node6</title>
<path fill="none" stroke="midnightblue" d="M423.47,-271.9C395.16,-264.52 363.37,-256.23 339.56,-250.03"/>
<polygon fill="midnightblue" stroke="midnightblue" points="422.76,-275.33 433.32,-274.47 424.52,-268.56 422.76,-275.33"/>
</g>
<!-- Node6&#45;&gt;Node3 -->
<g id="edge6" class="edge">
<title>Node6&#45;&gt;Node3</title>
<path fill="none" stroke="midnightblue" d="M275.83,-225.64C241.43,-205.33 180.69,-169.47 151.53,-152.26"/>
<polygon fill="midnightblue" stroke="midnightblue" points="274.39,-228.86 284.78,-230.92 277.95,-222.83 274.39,-228.86"/>
</g>
<!-- Node7&#45;&gt;Node3 -->
<g id="edge8" class="edge">
<title>Node7&#45;&gt;Node3</title>
<path fill="none" stroke="midnightblue" d="M244.49,-164.92C224.02,-160.73 201.14,-156.05 181.62,-152.05"/>
<polygon fill="midnightblue" stroke="midnightblue" points="243.82,-168.36 254.32,-166.94 245.22,-161.5 243.82,-168.36"/>
</g>
<!-- Node9 -->
<g id="node9" class="node">
<title>Node9</title>
<g id="a_node9"><a xlink:href="classfuzzer_1_1Fuzzer.html#a26b0af99479a986f0b3c67950085adf1" target="_top" xlink:title=" ">
<polygon fill="white" stroke="black" points="607,-145.5 607,-175.5 751,-175.5 751,-145.5 607,-145.5"/>
<text text-anchor="start" x="615" y="-163.5" font-family="Helvetica,sans-Serif" font-size="10.00">fuzzer::Fuzzer::ReportNew</text>
<text text-anchor="middle" x="679" y="-152.5" font-family="Helvetica,sans-Serif" font-size="10.00">Coverage</text>
</a>
</g>
</g>
<!-- Node8&#45;&gt;Node9 -->
<g id="edge10" class="edge">
<title>Node8&#45;&gt;Node9</title>
<path fill="none" stroke="midnightblue" d="M787.44,-160.5C775.41,-160.5 763.07,-160.5 751.25,-160.5"/>
<polygon fill="midnightblue" stroke="midnightblue" points="787.46,-164 797.46,-160.5 787.46,-157 787.46,-164"/>
</g>
<!-- Node10 -->
<g id="node10" class="node">
<title>Node10</title>
<g id="a_node10"><a xlink:href="classfuzzer_1_1Fuzzer.html#a9c3b80798ae30570306d7f938961dec3" target="_top" xlink:title=" ">
<polygon fill="white" stroke="black" points="420.5,-137.5 420.5,-167.5 563.5,-167.5 563.5,-137.5 420.5,-137.5"/>
<text text-anchor="start" x="428.5" y="-155.5" font-family="Helvetica,sans-Serif" font-size="10.00">fuzzer::Fuzzer::MutateAnd</text>
<text text-anchor="middle" x="492" y="-144.5" font-family="Helvetica,sans-Serif" font-size="10.00">TestOne</text>
</a>
</g>
</g>
<!-- Node9&#45;&gt;Node10 -->
<g id="edge11" class="edge">
<title>Node9&#45;&gt;Node10</title>
<path fill="none" stroke="midnightblue" d="M596.69,-156.98C585.67,-156.51 574.43,-156.02 563.61,-155.55"/>
<polygon fill="midnightblue" stroke="midnightblue" points="596.6,-160.48 606.74,-157.42 596.9,-153.49 596.6,-160.48"/>
</g>
<!-- Node10&#45;&gt;Node7 -->
<g id="edge12" class="edge">
<title>Node10&#45;&gt;Node7</title>
<path fill="none" stroke="midnightblue" d="M410.3,-162.8C392.89,-165.02 374.86,-167.33 358.66,-169.39"/>
<polygon fill="midnightblue" stroke="midnightblue" points="410.98,-166.24 420.46,-161.5 410.1,-159.3 410.98,-166.24"/>
</g>
<!-- Node11&#45;&gt;Node7 -->
<g id="edge14" class="edge">
<title>Node11&#45;&gt;Node7</title>
<path fill="none" stroke="midnightblue" d="M402.56,-189.74C387.56,-187.74 372.36,-185.72 358.52,-183.88"/>
<polygon fill="midnightblue" stroke="midnightblue" points="402.53,-193.27 412.9,-191.11 403.45,-186.33 402.53,-193.27"/>
</g>
<!-- Node12&#45;&gt;Node5 -->
<g id="edge16" class="edge">
<title>Node12&#45;&gt;Node5</title>
<path fill="none" stroke="midnightblue" d="M614.62,-130.8C611.91,-132.49 609.35,-134.38 607,-136.5 574.97,-165.31 596.59,-191.84 571,-226.5 556.53,-246.11 534.56,-263.11 517.62,-274.49"/>
<polygon fill="midnightblue" stroke="midnightblue" points="616.45,-133.79 623.67,-126.03 613.19,-127.59 616.45,-133.79"/>
</g>
<!-- Node12&#45;&gt;Node10 -->
<g id="edge20" class="edge">
<title>Node12&#45;&gt;Node10</title>
<path fill="none" stroke="midnightblue" d="M618.8,-128.02C601.22,-131.44 581.79,-135.22 563.57,-138.77"/>
<polygon fill="midnightblue" stroke="midnightblue" points="619.76,-131.4 628.91,-126.05 618.42,-124.53 619.76,-131.4"/>
</g>
<!-- Node12&#45;&gt;Node11 -->
<g id="edge21" class="edge">
<title>Node12&#45;&gt;Node11</title>
<path fill="none" stroke="midnightblue" d="M620.18,-129.66C615.58,-131.64 611.12,-133.91 607,-136.5 586.49,-149.43 591.36,-164.32 571,-177.5 565.77,-180.89 560.03,-183.82 554.11,-186.35"/>
<polygon fill="midnightblue" stroke="midnightblue" points="621.7,-132.83 629.79,-126 619.2,-126.29 621.7,-132.83"/>
</g>
<!-- Node13 -->
<g id="node13" class="node">
<title>Node13</title>
<g id="a_node13"><a xlink:href="classfuzzer_1_1Fuzzer.html#a54326d89b0de8eb858c70dfa78c5cc57" target="_top" xlink:title=" ">
<polygon fill="white" stroke="black" points="424.5,-88.5 424.5,-118.5 559.5,-118.5 559.5,-88.5 424.5,-88.5"/>
<text text-anchor="start" x="432.5" y="-106.5" font-family="Helvetica,sans-Serif" font-size="10.00">fuzzer::Fuzzer::Minimize</text>
<text text-anchor="middle" x="492" y="-95.5" font-family="Helvetica,sans-Serif" font-size="10.00">CrashLoop</text>
</a>
</g>
</g>
<!-- Node12&#45;&gt;Node13 -->
<g id="edge17" class="edge">
<title>Node12&#45;&gt;Node13</title>
<path fill="none" stroke="midnightblue" d="M604.69,-111.35C589.83,-110.3 574.27,-109.21 559.65,-108.18"/>
<polygon fill="midnightblue" stroke="midnightblue" points="604.63,-114.85 614.85,-112.06 605.12,-107.87 604.63,-114.85"/>
</g>
<!-- Node15 -->
<g id="node15" class="node">
<title>Node15</title>
<g id="a_node15"><a xlink:href="namespacefuzzer.html#a1fe190c22f9575ec572ce81d57c7e483" target="_top" xlink:title=" ">
<polygon fill="white" stroke="black" points="247,-63 247,-82 357,-82 357,-63 247,-63"/>
<text text-anchor="middle" x="302" y="-70" font-family="Helvetica,sans-Serif" font-size="10.00">fuzzer::RunOneTest</text>
</a>
</g>
</g>
<!-- Node12&#45;&gt;Node15 -->
<g id="edge22" class="edge">
<title>Node12&#45;&gt;Node15</title>
<path fill="none" stroke="midnightblue" d="M647.43,-103.11C626.39,-94.61 597.55,-84.32 571,-79.5 497.84,-66.22 411.63,-66.79 357.14,-69.09"/>
<polygon fill="midnightblue" stroke="midnightblue" points="646.22,-106.4 656.8,-106.99 648.9,-99.93 646.22,-106.4"/>
</g>
<!-- Node12&#45;&gt;Node16 -->
<g id="edge24" class="edge">
<title>Node12&#45;&gt;Node16</title>
<path fill="none" stroke="midnightblue" d="M657.22,-100.72C636.25,-85.28 602.55,-61.78 571,-45.5 560.3,-39.98 548.34,-34.88 537.06,-30.52"/>
<polygon fill="midnightblue" stroke="midnightblue" points="655.27,-103.63 665.38,-106.8 659.45,-98.02 655.27,-103.63"/>
</g>
<!-- Node14 -->
<g id="node14" class="node">
<title>Node14</title>
<g id="a_node14"><a xlink:href="namespacefuzzer.html#a1553a49adb4d4d19b4f4dd52ff54cb68" target="_top" xlink:title=" ">
<polygon fill="white" stroke="black" points="227,-103.5 227,-133.5 377,-133.5 377,-103.5 227,-103.5"/>
<text text-anchor="start" x="235" y="-121.5" font-family="Helvetica,sans-Serif" font-size="10.00">fuzzer::MinimizeCrashInput</text>
<text text-anchor="middle" x="302" y="-110.5" font-family="Helvetica,sans-Serif" font-size="10.00">InternalStep</text>
</a>
</g>
</g>
<!-- Node13&#45;&gt;Node14 -->
<g id="edge18" class="edge">
<title>Node13&#45;&gt;Node14</title>
<path fill="none" stroke="midnightblue" d="M414.27,-109.62C402.01,-110.6 389.34,-111.61 377.14,-112.58"/>
<polygon fill="midnightblue" stroke="midnightblue" points="414.76,-113.09 424.45,-108.81 414.21,-106.12 414.76,-113.09"/>
</g>
<!-- Node14&#45;&gt;Node3 -->
<g id="edge19" class="edge">
<title>Node14&#45;&gt;Node3</title>
<path fill="none" stroke="midnightblue" d="M216.65,-130.69C208.05,-131.94 199.46,-133.18 191.27,-134.36"/>
<polygon fill="midnightblue" stroke="midnightblue" points="217.34,-134.13 226.74,-129.24 216.34,-127.2 217.34,-134.13"/>
</g>
<!-- Node15&#45;&gt;Node3 -->
<g id="edge23" class="edge">
<title>Node15&#45;&gt;Node3</title>
<path fill="none" stroke="midnightblue" d="M253.96,-85C244.91,-87.83 235.58,-91.03 227,-94.5 199.45,-105.66 169.19,-122.38 151.17,-132.85"/>
<polygon fill="midnightblue" stroke="midnightblue" points="255.06,-88.33 263.63,-82.1 253.05,-81.62 255.06,-88.33"/>
</g>
<!-- Node16&#45;&gt;Node3 -->
<g id="edge25" class="edge">
<title>Node16&#45;&gt;Node3</title>
<path fill="none" stroke="midnightblue" d="M410.01,-14.39C355.73,-16.63 284.03,-25.54 227,-53.5 188.09,-72.58 155.08,-114.23 141.55,-133"/>
<polygon fill="midnightblue" stroke="midnightblue" points="410.41,-17.87 420.28,-14.03 410.17,-10.88 410.41,-17.87"/>
</g>
</g>
</svg>
