<?xml version="1.0" encoding="UTF-8" standalone="no"?>
<!DOCTYPE svg PUBLIC "-//W3C//DTD SVG 1.1//EN"
 "http://www.w3.org/Graphics/SVG/1.1/DTD/svg11.dtd">
<!-- Generated by graphviz version 2.43.0 (0)
 -->
<!-- Title: httplib::Server::write_response_core Pages: 1 -->
<svg width="1205pt" height="961pt"
 viewBox="0.00 0.00 1205.00 961.22" xmlns="http://www.w3.org/2000/svg" xmlns:xlink="http://www.w3.org/1999/xlink">
<g id="graph0" class="graph" transform="scale(1 1) rotate(0) translate(4 957.22)">
<title>httplib::Server::write_response_core</title>
<polygon fill="white" stroke="transparent" points="-4,4 -4,-957.22 1201,-957.22 1201,4 -4,4"/>
<!-- Node1 -->
<g id="node1" class="node">
<title>Node1</title>
<g id="a_node1"><a xlink:title=" ">
<polygon fill="#bfbfbf" stroke="black" points="0,-461.5 0,-491.5 116,-491.5 116,-461.5 0,-461.5"/>
<text text-anchor="start" x="8" y="-479.5" font-family="Helvetica,sans-Serif" font-size="10.00">httplib::Server::write</text>
<text text-anchor="middle" x="58" y="-468.5" font-family="Helvetica,sans-Serif" font-size="10.00">_response_core</text>
</a>
</g>
</g>
<!-- Node2 -->
<g id="node2" class="node">
<title>Node2</title>
<g id="a_node2"><a xlink:href="classhttplib_1_1Server.html#a57867122abf5979387bc3b704f877752" target="_top" xlink:title=" ">
<polygon fill="white" stroke="black" points="169,-681.5 169,-711.5 288,-711.5 288,-681.5 169,-681.5"/>
<text text-anchor="start" x="177" y="-699.5" font-family="Helvetica,sans-Serif" font-size="10.00">httplib::Server::apply</text>
<text text-anchor="middle" x="228.5" y="-688.5" font-family="Helvetica,sans-Serif" font-size="10.00">_ranges</text>
</a>
</g>
</g>
<!-- Node1&#45;&gt;Node2 -->
<g id="edge1" class="edge">
<title>Node1&#45;&gt;Node2</title>
<path fill="none" stroke="midnightblue" d="M70.34,-491.86C87.75,-515.37 122.17,-561.66 152,-600.5 171.24,-625.55 193.65,-653.95 209.03,-673.32"/>
<polygon fill="midnightblue" stroke="midnightblue" points="206.4,-675.64 215.36,-681.29 211.88,-671.28 206.4,-675.64"/>
</g>
<!-- Node3 -->
<g id="node3" class="node">
<title>Node3</title>
<g id="a_node3"><a xlink:href="FuzzerTracePC_8cpp.html#a1f10ac78bd11294b612636121065eb5b" target="_top" xlink:title=" ">
<polygon fill="white" stroke="black" points="964,-668 964,-687 1011,-687 1011,-668 964,-668"/>
<text text-anchor="middle" x="987.5" y="-675" font-family="Helvetica,sans-Serif" font-size="10.00">assert</text>
</a>
</g>
</g>
<!-- Node1&#45;&gt;Node3 -->
<g id="edge33" class="edge">
<title>Node1&#45;&gt;Node3</title>
<path fill="none" stroke="midnightblue" d="M62.03,-491.76C70.61,-532.16 98.01,-644.02 152,-720.5 215.64,-810.65 238.36,-841 341,-881.5 561.94,-968.68 677.44,-992.35 875,-860.5 935.27,-820.28 968.37,-735.33 980.76,-696.99"/>
<polygon fill="midnightblue" stroke="midnightblue" points="984.21,-697.68 983.83,-687.09 977.53,-695.61 984.21,-697.68"/>
</g>
<!-- Node8 -->
<g id="node8" class="node">
<title>Node8</title>
<g id="a_node8"><a xlink:href="structhttplib_1_1Request.html#a1a0ed323d53df032214a1729db175355" target="_top" xlink:title=" ">
<polygon fill="white" stroke="black" points="550.5,-498.5 550.5,-528.5 666.5,-528.5 666.5,-498.5 550.5,-498.5"/>
<text text-anchor="start" x="558.5" y="-516.5" font-family="Helvetica,sans-Serif" font-size="10.00">httplib::Request::get</text>
<text text-anchor="middle" x="608.5" y="-505.5" font-family="Helvetica,sans-Serif" font-size="10.00">_header_value</text>
</a>
</g>
</g>
<!-- Node1&#45;&gt;Node8 -->
<g id="edge35" class="edge">
<title>Node1&#45;&gt;Node8</title>
<path fill="none" stroke="midnightblue" d="M80.32,-491.6C98.43,-503.44 125.6,-518.97 152,-525.5 286.58,-558.78 450.36,-540.88 540.29,-526.26"/>
<polygon fill="midnightblue" stroke="midnightblue" points="541.07,-529.68 550.36,-524.59 539.92,-522.78 541.07,-529.68"/>
</g>
<!-- Node24 -->
<g id="node24" class="node">
<title>Node24</title>
<g id="a_node24"><a xlink:href="structhttplib_1_1Response.html#aed852614ede4a90a18decdda35d74a96" target="_top" xlink:title=" ">
<polygon fill="white" stroke="black" points="367,-574.5 367,-604.5 474,-604.5 474,-574.5 367,-574.5"/>
<text text-anchor="start" x="375" y="-592.5" font-family="Helvetica,sans-Serif" font-size="10.00">httplib::Response::</text>
<text text-anchor="middle" x="420.5" y="-581.5" font-family="Helvetica,sans-Serif" font-size="10.00">set_header</text>
</a>
</g>
</g>
<!-- Node1&#45;&gt;Node24 -->
<g id="edge37" class="edge">
<title>Node1&#45;&gt;Node24</title>
<path fill="none" stroke="midnightblue" d="M70.65,-491.53C86.66,-510.94 117.42,-544.05 152,-559.5 217.47,-588.75 300.57,-593.71 356.63,-593"/>
<polygon fill="midnightblue" stroke="midnightblue" points="356.85,-596.49 366.78,-592.8 356.71,-589.49 356.85,-596.49"/>
</g>
<!-- Node26 -->
<g id="node26" class="node">
<title>Node26</title>
<g id="a_node26"><a xlink:href="classhttplib_1_1detail_1_1BufferStream.html#ab81fc1737b7c08ce72790fe1c348fad0" target="_top" xlink:title=" ">
<polygon fill="white" stroke="black" points="152,-486.5 152,-516.5 305,-516.5 305,-486.5 152,-486.5"/>
<text text-anchor="start" x="160" y="-504.5" font-family="Helvetica,sans-Serif" font-size="10.00">httplib::detail::BufferStream</text>
<text text-anchor="middle" x="228.5" y="-493.5" font-family="Helvetica,sans-Serif" font-size="10.00">::get_buffer</text>
</a>
</g>
</g>
<!-- Node1&#45;&gt;Node26 -->
<g id="edge34" class="edge">
<title>Node1&#45;&gt;Node26</title>
<path fill="none" stroke="midnightblue" d="M116.05,-484.96C124.44,-486.21 133.24,-487.51 142.05,-488.82"/>
<polygon fill="midnightblue" stroke="midnightblue" points="141.59,-492.29 151.99,-490.3 142.61,-485.37 141.59,-492.29"/>
</g>
<!-- Node27 -->
<g id="node27" class="node">
<title>Node27</title>
<g id="a_node27"><a xlink:href="structhttplib_1_1Response.html#a6e55e134fff94fb7b2cedad09eec652c" target="_top" xlink:title=" ">
<polygon fill="white" stroke="black" points="175,-437.5 175,-467.5 282,-467.5 282,-437.5 175,-437.5"/>
<text text-anchor="start" x="183" y="-455.5" font-family="Helvetica,sans-Serif" font-size="10.00">httplib::Response::</text>
<text text-anchor="middle" x="228.5" y="-444.5" font-family="Helvetica,sans-Serif" font-size="10.00">has_header</text>
</a>
</g>
</g>
<!-- Node1&#45;&gt;Node27 -->
<g id="edge36" class="edge">
<title>Node1&#45;&gt;Node27</title>
<path fill="none" stroke="midnightblue" d="M116.05,-468.37C131.63,-466.15 148.61,-463.74 164.51,-461.47"/>
<polygon fill="midnightblue" stroke="midnightblue" points="165.36,-464.89 174.77,-460.01 164.38,-457.96 165.36,-464.89"/>
</g>
<!-- Node28 -->
<g id="node28" class="node">
<title>Node28</title>
<g id="a_node28"><a xlink:href="namespacehttplib.html#a7d92a38469467ffb0e2563e2cf8dea7f" target="_top" xlink:title=" ">
<polygon fill="white" stroke="black" points="161.5,-399 161.5,-418 295.5,-418 295.5,-399 161.5,-399"/>
<text text-anchor="middle" x="228.5" y="-406" font-family="Helvetica,sans-Serif" font-size="10.00">httplib::status_message</text>
</a>
</g>
</g>
<!-- Node1&#45;&gt;Node28 -->
<g id="edge38" class="edge">
<title>Node1&#45;&gt;Node28</title>
<path fill="none" stroke="midnightblue" d="M83.89,-461.29C102.2,-450.63 127.97,-436.7 152,-427.5 158.45,-425.03 165.32,-422.79 172.2,-420.79"/>
<polygon fill="midnightblue" stroke="midnightblue" points="173.53,-424.05 182.24,-418.02 171.67,-417.31 173.53,-424.05"/>
</g>
<!-- Node29 -->
<g id="node29" class="node">
<title>Node29</title>
<g id="a_node29"><a xlink:href="classhttplib_1_1Server.html#aef004bcdc946af56186dd226442691d4" target="_top" xlink:title=" ">
<polygon fill="white" stroke="black" points="163,-331.5 163,-361.5 294,-361.5 294,-331.5 163,-331.5"/>
<text text-anchor="start" x="171" y="-349.5" font-family="Helvetica,sans-Serif" font-size="10.00">httplib::Server::write</text>
<text text-anchor="middle" x="228.5" y="-338.5" font-family="Helvetica,sans-Serif" font-size="10.00">_content_with_provider</text>
</a>
</g>
</g>
<!-- Node1&#45;&gt;Node29 -->
<g id="edge39" class="edge">
<title>Node1&#45;&gt;Node29</title>
<path fill="none" stroke="midnightblue" d="M73.19,-461.19C90.66,-442.84 121.74,-411.79 152,-389.5 163.32,-381.16 176.41,-373.19 188.48,-366.43"/>
<polygon fill="midnightblue" stroke="midnightblue" points="190.38,-369.38 197.46,-361.51 187.01,-363.24 190.38,-369.38"/>
</g>
<!-- Node32 -->
<g id="node32" class="node">
<title>Node32</title>
<g id="a_node32"><a xlink:href="namespacehttplib_1_1detail.html#aefec7c4fea53eda1af3a7362002c5223" target="_top" xlink:title=" ">
<polygon fill="white" stroke="black" points="538.5,-50 538.5,-69 678.5,-69 678.5,-50 538.5,-50"/>
<text text-anchor="middle" x="608.5" y="-57" font-family="Helvetica,sans-Serif" font-size="10.00">httplib::detail::write_data</text>
</a>
</g>
</g>
<!-- Node1&#45;&gt;Node32 -->
<g id="edge61" class="edge">
<title>Node1&#45;&gt;Node32</title>
<path fill="none" stroke="midnightblue" d="M64.11,-461.16C85.7,-399.22 175.91,-166.65 341,-78.5 399.84,-47.08 476.66,-44.96 532.7,-49.14"/>
<polygon fill="midnightblue" stroke="midnightblue" points="532.66,-52.65 542.92,-49.99 533.24,-45.68 532.66,-52.65"/>
</g>
<!-- Node40 -->
<g id="node40" class="node">
<title>Node40</title>
<g id="a_node40"><a xlink:href="classhttplib_1_1Stream.html#a9892f60a65f59412ace397b7b6c4c93b" target="_top" xlink:title=" ">
<polygon fill="white" stroke="black" points="168.5,-0.5 168.5,-30.5 288.5,-30.5 288.5,-0.5 168.5,-0.5"/>
<text text-anchor="start" x="176.5" y="-18.5" font-family="Helvetica,sans-Serif" font-size="10.00">httplib::Stream::write</text>
<text text-anchor="middle" x="228.5" y="-7.5" font-family="Helvetica,sans-Serif" font-size="10.00">_format</text>
</a>
</g>
</g>
<!-- Node1&#45;&gt;Node40 -->
<g id="edge62" class="edge">
<title>Node1&#45;&gt;Node40</title>
<path fill="none" stroke="midnightblue" d="M60.4,-461.05C66.95,-391.84 96.6,-110.93 152,-45.5 155,-41.95 158.48,-38.82 162.27,-36.06"/>
<polygon fill="midnightblue" stroke="midnightblue" points="164.38,-38.87 170.98,-30.58 160.65,-32.94 164.38,-38.87"/>
</g>
<!-- Node2&#45;&gt;Node3 -->
<g id="edge2" class="edge">
<title>Node2&#45;&gt;Node3</title>
<path fill="none" stroke="midnightblue" d="M288.39,-685.48C402.06,-665.76 659.53,-628.64 875,-652.5 901.89,-655.48 931.78,-662.38 953.84,-668.18"/>
<polygon fill="midnightblue" stroke="midnightblue" points="953.12,-671.61 963.69,-670.83 954.94,-664.85 953.12,-671.61"/>
</g>
<!-- Node4 -->
<g id="node4" class="node">
<title>Node4</title>
<g id="a_node4"><a xlink:href="namespacehttplib_1_1detail.html#ab3d7a73532e427696847a2c77090729d" target="_top" xlink:title=" ">
<polygon fill="white" stroke="black" points="341,-452 341,-471 500,-471 500,-452 341,-452"/>
<text text-anchor="middle" x="420.5" y="-459" font-family="Helvetica,sans-Serif" font-size="10.00">httplib::detail::encoding_type</text>
</a>
</g>
</g>
<!-- Node2&#45;&gt;Node4 -->
<g id="edge3" class="edge">
<title>Node2&#45;&gt;Node4</title>
<path fill="none" stroke="midnightblue" d="M241.67,-681.44C275.31,-639.84 369.37,-523.5 405.3,-479.06"/>
<polygon fill="midnightblue" stroke="midnightblue" points="408.11,-481.15 411.68,-471.17 402.67,-476.75 408.11,-481.15"/>
</g>
<!-- Node14 -->
<g id="node14" class="node">
<title>Node14</title>
<g id="a_node14"><a xlink:href="namespacehttplib.html#a498c3a79825ecbcb15c52ec5fcfd5c11" target="_top" xlink:title=" ">
<polygon fill="white" stroke="black" points="1100,-826 1100,-845 1197,-845 1197,-826 1100,-826"/>
<text text-anchor="middle" x="1148.5" y="-833" font-family="Helvetica,sans-Serif" font-size="10.00">httplib::to_string</text>
</a>
</g>
</g>
<!-- Node2&#45;&gt;Node14 -->
<g id="edge32" class="edge">
<title>Node2&#45;&gt;Node14</title>
<path fill="none" stroke="midnightblue" d="M233.37,-711.72C243.65,-748.58 275.44,-842.44 341,-881.5 602.98,-1037.57 1001.75,-895.33 1115.95,-848.94"/>
<polygon fill="midnightblue" stroke="midnightblue" points="1117.58,-852.05 1125.5,-845.01 1114.92,-845.58 1117.58,-852.05"/>
</g>
<!-- Node17 -->
<g id="node17" class="node">
<title>Node17</title>
<g id="a_node17"><a xlink:href="namespacehttplib_1_1detail.html#ae57e812fd24b5e4acecb01ea4a947049" target="_top" xlink:title=" ">
<polygon fill="white" stroke="black" points="354.5,-700 354.5,-741 486.5,-741 486.5,-700 354.5,-700"/>
<text text-anchor="start" x="362.5" y="-729" font-family="Helvetica,sans-Serif" font-size="10.00">httplib::detail::get</text>
<text text-anchor="start" x="362.5" y="-718" font-family="Helvetica,sans-Serif" font-size="10.00">_multipart_ranges_data</text>
<text text-anchor="middle" x="420.5" y="-707" font-family="Helvetica,sans-Serif" font-size="10.00">_length</text>
</a>
</g>
</g>
<!-- Node2&#45;&gt;Node17 -->
<g id="edge17" class="edge">
<title>Node2&#45;&gt;Node17</title>
<path fill="none" stroke="midnightblue" d="M288.06,-703.9C305.8,-706.14 325.55,-708.63 344.23,-710.99"/>
<polygon fill="midnightblue" stroke="midnightblue" points="343.82,-714.47 354.18,-712.25 344.7,-707.52 343.82,-714.47"/>
</g>
<!-- Node19 -->
<g id="node19" class="node">
<title>Node19</title>
<g id="a_node19"><a xlink:href="namespacehttplib_1_1detail.html#af3ee387aa148fa5fe69d6355b5360e03" target="_top" xlink:title=" ">
<polygon fill="white" stroke="black" points="724.5,-662.5 724.5,-692.5 867.5,-692.5 867.5,-662.5 724.5,-662.5"/>
<text text-anchor="start" x="732.5" y="-680.5" font-family="Helvetica,sans-Serif" font-size="10.00">httplib::detail::get</text>
<text text-anchor="middle" x="796" y="-669.5" font-family="Helvetica,sans-Serif" font-size="10.00">_range_offset_and_length</text>
</a>
</g>
</g>
<!-- Node2&#45;&gt;Node19 -->
<g id="edge23" class="edge">
<title>Node2&#45;&gt;Node19</title>
<path fill="none" stroke="midnightblue" d="M288.22,-693.06C305.24,-692.14 323.86,-691.21 341,-690.5 471.48,-685.12 623.15,-681.26 713.98,-679.21"/>
<polygon fill="midnightblue" stroke="midnightblue" points="714.29,-682.7 724.21,-678.98 714.13,-675.7 714.29,-682.7"/>
</g>
<!-- Node20 -->
<g id="node20" class="node">
<title>Node20</title>
<g id="a_node20"><a xlink:href="namespacehttplib_1_1detail.html#ae93cf1427a53d3e03d83434d4a7229ef" target="_top" xlink:title=" ">
<polygon fill="white" stroke="black" points="717,-820.5 717,-850.5 875,-850.5 875,-820.5 717,-820.5"/>
<text text-anchor="start" x="725" y="-838.5" font-family="Helvetica,sans-Serif" font-size="10.00">httplib::detail::make</text>
<text text-anchor="middle" x="796" y="-827.5" font-family="Helvetica,sans-Serif" font-size="10.00">_content_range_header_field</text>
</a>
</g>
</g>
<!-- Node2&#45;&gt;Node20 -->
<g id="edge24" class="edge">
<title>Node2&#45;&gt;Node20</title>
<path fill="none" stroke="midnightblue" d="M235.14,-711.96C248.02,-744.61 282.99,-820 341,-849.5 471.08,-915.66 650.34,-878.85 739.7,-853.37"/>
<polygon fill="midnightblue" stroke="midnightblue" points="740.74,-856.71 749.37,-850.56 738.79,-849.99 740.74,-856.71"/>
</g>
<!-- Node21 -->
<g id="node21" class="node">
<title>Node21</title>
<g id="a_node21"><a xlink:href="namespacehttplib_1_1detail.html#ae144d55905f9808c3abae6e20bd9367a" target="_top" xlink:title=" ">
<polygon fill="white" stroke="black" points="348,-809.5 348,-839.5 493,-839.5 493,-809.5 348,-809.5"/>
<text text-anchor="start" x="356" y="-827.5" font-family="Helvetica,sans-Serif" font-size="10.00">httplib::detail::make</text>
<text text-anchor="middle" x="420.5" y="-816.5" font-family="Helvetica,sans-Serif" font-size="10.00">_multipart_data_boundary</text>
</a>
</g>
</g>
<!-- Node2&#45;&gt;Node21 -->
<g id="edge25" class="edge">
<title>Node2&#45;&gt;Node21</title>
<path fill="none" stroke="midnightblue" d="M241.61,-711.51C260.52,-734.01 299.28,-776.41 341,-800.5 344.05,-802.26 347.25,-803.91 350.54,-805.45"/>
<polygon fill="midnightblue" stroke="midnightblue" points="349.41,-808.77 359.98,-809.49 352.16,-802.34 349.41,-808.77"/>
</g>
<!-- Node23 -->
<g id="node23" class="node">
<title>Node23</title>
<g id="a_node23"><a xlink:href="namespacehttplib_1_1detail.html#a93c46a7c00e1f2faa9cbbf00d7889e40" target="_top" xlink:title=" ">
<polygon fill="white" stroke="black" points="354.5,-760.5 354.5,-790.5 486.5,-790.5 486.5,-760.5 354.5,-760.5"/>
<text text-anchor="start" x="362.5" y="-778.5" font-family="Helvetica,sans-Serif" font-size="10.00">httplib::detail::make</text>
<text text-anchor="middle" x="420.5" y="-767.5" font-family="Helvetica,sans-Serif" font-size="10.00">_multipart_ranges_data</text>
</a>
</g>
</g>
<!-- Node2&#45;&gt;Node23 -->
<g id="edge27" class="edge">
<title>Node2&#45;&gt;Node23</title>
<path fill="none" stroke="midnightblue" d="M257.87,-711.63C280.11,-723.15 312.03,-738.94 341,-750.5 346.75,-752.8 352.81,-755.03 358.9,-757.16"/>
<polygon fill="midnightblue" stroke="midnightblue" points="357.86,-760.5 368.45,-760.41 360.11,-753.88 357.86,-760.5"/>
</g>
<!-- Node2&#45;&gt;Node24 -->
<g id="edge30" class="edge">
<title>Node2&#45;&gt;Node24</title>
<path fill="none" stroke="midnightblue" d="M248.34,-681.39C269.82,-664.67 306.45,-637.7 341,-619.5 348.69,-615.45 357.05,-611.66 365.36,-608.23"/>
<polygon fill="midnightblue" stroke="midnightblue" points="366.68,-611.47 374.67,-604.51 364.09,-604.97 366.68,-611.47"/>
</g>
<!-- Node5 -->
<g id="node5" class="node">
<title>Node5</title>
<g id="a_node5"><a xlink:href="namespacehttplib_1_1detail.html#abe508674330c10dbe19fc1a33901c535" target="_top" xlink:title=" ">
<polygon fill="white" stroke="black" points="539.5,-361.5 539.5,-391.5 677.5,-391.5 677.5,-361.5 539.5,-361.5"/>
<text text-anchor="start" x="547.5" y="-379.5" font-family="Helvetica,sans-Serif" font-size="10.00">httplib::detail::can</text>
<text text-anchor="middle" x="608.5" y="-368.5" font-family="Helvetica,sans-Serif" font-size="10.00">_compress_content_type</text>
</a>
</g>
</g>
<!-- Node4&#45;&gt;Node5 -->
<g id="edge4" class="edge">
<title>Node4&#45;&gt;Node5</title>
<path fill="none" stroke="midnightblue" d="M442.48,-451.91C472.08,-438.39 526.77,-413.39 565.05,-395.9"/>
<polygon fill="midnightblue" stroke="midnightblue" points="566.76,-398.96 574.4,-391.63 563.85,-392.6 566.76,-398.96"/>
</g>
<!-- Node4&#45;&gt;Node8 -->
<g id="edge7" class="edge">
<title>Node4&#45;&gt;Node8</title>
<path fill="none" stroke="midnightblue" d="M455.62,-471.04C480.21,-477.91 514.13,-487.4 543.68,-495.66"/>
<polygon fill="midnightblue" stroke="midnightblue" points="542.94,-499.09 553.52,-498.41 544.83,-492.34 542.94,-499.09"/>
</g>
<!-- Node10 -->
<g id="node10" class="node">
<title>Node10</title>
<g id="a_node10"><a xlink:href="structhttplib_1_1Response.html#a2e047ef1c0de99ac521452f25a76c50a" target="_top" xlink:title=" ">
<polygon fill="white" stroke="black" points="555,-449.5 555,-479.5 662,-479.5 662,-449.5 555,-449.5"/>
<text text-anchor="start" x="563" y="-467.5" font-family="Helvetica,sans-Serif" font-size="10.00">httplib::Response::</text>
<text text-anchor="middle" x="608.5" y="-456.5" font-family="Helvetica,sans-Serif" font-size="10.00">get_header_value</text>
</a>
</g>
</g>
<!-- Node4&#45;&gt;Node10 -->
<g id="edge9" class="edge">
<title>Node4&#45;&gt;Node10</title>
<path fill="none" stroke="midnightblue" d="M500.11,-462.77C514.95,-463.01 530.29,-463.25 544.57,-463.49"/>
<polygon fill="midnightblue" stroke="midnightblue" points="544.71,-466.99 554.76,-463.65 544.82,-459.99 544.71,-466.99"/>
</g>
<!-- Node11 -->
<g id="node11" class="node">
<title>Node11</title>
<g id="a_node11"><a xlink:href="namespacenlohmann_1_1detail.html#a59fca69799f6b9e366710cb9043aa77d" target="_top" xlink:title=" ">
<polygon fill="white" stroke="black" points="545.5,-274 545.5,-293 671.5,-293 671.5,-274 545.5,-274"/>
<text text-anchor="middle" x="608.5" y="-281" font-family="Helvetica,sans-Serif" font-size="10.00">nlohmann::detail::void</text>
</a>
</g>
</g>
<!-- Node4&#45;&gt;Node11 -->
<g id="edge11" class="edge">
<title>Node4&#45;&gt;Node11</title>
<path fill="none" stroke="midnightblue" d="M429.7,-451.86C444.43,-434.35 476.09,-395.95 500,-361.5 517.51,-336.26 511.39,-320.88 536,-302.5 538.49,-300.64 541.15,-298.96 543.93,-297.45"/>
<polygon fill="midnightblue" stroke="midnightblue" points="545.54,-300.56 553.11,-293.15 542.57,-294.22 545.54,-300.56"/>
</g>
<!-- Node6 -->
<g id="node6" class="node">
<title>Node6</title>
<g id="a_node6"><a xlink:href="namespacehttplib_1_1detail.html#a8421d59405044ca97486b9b41d728b0b" target="_top" xlink:title=" ">
<polygon fill="white" stroke="black" points="735,-367 735,-386 857,-386 857,-367 735,-367"/>
<text text-anchor="middle" x="796" y="-374" font-family="Helvetica,sans-Serif" font-size="10.00">httplib::detail::str2tag</text>
</a>
</g>
</g>
<!-- Node5&#45;&gt;Node6 -->
<g id="edge5" class="edge">
<title>Node5&#45;&gt;Node6</title>
<path fill="none" stroke="midnightblue" d="M677.52,-376.5C692.96,-376.5 709.38,-376.5 724.9,-376.5"/>
<polygon fill="midnightblue" stroke="midnightblue" points="724.95,-380 734.95,-376.5 724.95,-373 724.95,-380"/>
</g>
<!-- Node7 -->
<g id="node7" class="node">
<title>Node7</title>
<g id="a_node7"><a xlink:href="namespacehttplib_1_1detail.html#afbbe1f2e45c67a29f1cb3cb68eadbfa6" target="_top" xlink:title=" ">
<polygon fill="white" stroke="black" points="913,-367 913,-386 1062,-386 1062,-367 913,-367"/>
<text text-anchor="middle" x="987.5" y="-374" font-family="Helvetica,sans-Serif" font-size="10.00">httplib::detail::str2tag_core</text>
</a>
</g>
</g>
<!-- Node6&#45;&gt;Node7 -->
<g id="edge6" class="edge">
<title>Node6&#45;&gt;Node7</title>
<path fill="none" stroke="midnightblue" d="M857.22,-376.5C871.71,-376.5 887.45,-376.5 902.8,-376.5"/>
<polygon fill="midnightblue" stroke="midnightblue" points="902.81,-380 912.81,-376.5 902.81,-373 902.81,-380"/>
</g>
<!-- Node9 -->
<g id="node9" class="node">
<title>Node9</title>
<g id="a_node9"><a xlink:href="namespacehttplib_1_1detail.html#a5182300d07532ca663dfa1b3ae0a352c" target="_top" xlink:title=" ">
<polygon fill="white" stroke="black" points="744,-474.5 744,-504.5 848,-504.5 848,-474.5 744,-474.5"/>
<text text-anchor="start" x="752" y="-492.5" font-family="Helvetica,sans-Serif" font-size="10.00">httplib::detail::get</text>
<text text-anchor="middle" x="796" y="-481.5" font-family="Helvetica,sans-Serif" font-size="10.00">_header_value</text>
</a>
</g>
</g>
<!-- Node8&#45;&gt;Node9 -->
<g id="edge8" class="edge">
<title>Node8&#45;&gt;Node9</title>
<path fill="none" stroke="midnightblue" d="M666.67,-506.1C687.99,-503.34 712.27,-500.2 733.93,-497.4"/>
<polygon fill="midnightblue" stroke="midnightblue" points="734.53,-500.85 744,-496.1 733.63,-493.91 734.53,-500.85"/>
</g>
<!-- Node10&#45;&gt;Node9 -->
<g id="edge10" class="edge">
<title>Node10&#45;&gt;Node9</title>
<path fill="none" stroke="midnightblue" d="M662.16,-471.6C684.46,-474.6 710.59,-478.12 733.75,-481.24"/>
<polygon fill="midnightblue" stroke="midnightblue" points="733.43,-484.73 743.81,-482.6 734.37,-477.8 733.43,-484.73"/>
</g>
<!-- Node12 -->
<g id="node12" class="node">
<title>Node12</title>
<g id="a_node12"><a xlink:href="classnlohmann_1_1detail_1_1type__error.html#aecc083aea4b698c33d042670ba50c10f" target="_top" xlink:title=" ">
<polygon fill="white" stroke="black" points="732.5,-268.5 732.5,-298.5 859.5,-298.5 859.5,-268.5 732.5,-268.5"/>
<text text-anchor="start" x="740.5" y="-286.5" font-family="Helvetica,sans-Serif" font-size="10.00">nlohmann::detail::type</text>
<text text-anchor="middle" x="796" y="-275.5" font-family="Helvetica,sans-Serif" font-size="10.00">_error::create</text>
</a>
</g>
</g>
<!-- Node11&#45;&gt;Node12 -->
<g id="edge12" class="edge">
<title>Node11&#45;&gt;Node12</title>
<path fill="none" stroke="midnightblue" d="M671.53,-283.5C687.75,-283.5 705.39,-283.5 722.12,-283.5"/>
<polygon fill="midnightblue" stroke="midnightblue" points="722.4,-287 732.4,-283.5 722.4,-280 722.4,-287"/>
</g>
<!-- Node16 -->
<g id="node16" class="node">
<title>Node16</title>
<g id="a_node16"><a xlink:href="namespacenlohmann_1_1detail.html#a40f7bb070a60e8ba14fffb9c117fcbd8" target="_top" xlink:title=" ">
<polygon fill="white" stroke="black" points="732,-317.5 732,-347.5 860,-347.5 860,-317.5 732,-317.5"/>
<text text-anchor="start" x="740" y="-335.5" font-family="Helvetica,sans-Serif" font-size="10.00">nlohmann::detail::from</text>
<text text-anchor="middle" x="796" y="-324.5" font-family="Helvetica,sans-Serif" font-size="10.00">_json_array_impl</text>
</a>
</g>
</g>
<!-- Node11&#45;&gt;Node16 -->
<g id="edge16" class="edge">
<title>Node11&#45;&gt;Node16</title>
<path fill="none" stroke="midnightblue" d="M645.71,-293.06C669.19,-299.27 700.5,-307.54 728.38,-314.9"/>
<polygon fill="midnightblue" stroke="midnightblue" points="727.51,-318.29 738.07,-317.46 729.3,-311.53 727.51,-318.29"/>
</g>
<!-- Node13 -->
<g id="node13" class="node">
<title>Node13</title>
<g id="a_node13"><a xlink:href="classnlohmann_1_1detail_1_1exception.html#abf41a7e9178356314082284e6cfea278" target="_top" xlink:title=" ">
<polygon fill="white" stroke="black" points="911,-268.5 911,-298.5 1064,-298.5 1064,-268.5 911,-268.5"/>
<text text-anchor="start" x="919" y="-286.5" font-family="Helvetica,sans-Serif" font-size="10.00">nlohmann::detail::exception</text>
<text text-anchor="middle" x="987.5" y="-275.5" font-family="Helvetica,sans-Serif" font-size="10.00">::name</text>
</a>
</g>
</g>
<!-- Node12&#45;&gt;Node13 -->
<g id="edge13" class="edge">
<title>Node12&#45;&gt;Node13</title>
<path fill="none" stroke="midnightblue" d="M859.57,-283.5C872.76,-283.5 886.89,-283.5 900.76,-283.5"/>
<polygon fill="midnightblue" stroke="midnightblue" points="900.8,-287 910.8,-283.5 900.8,-280 900.8,-287"/>
</g>
<!-- Node15 -->
<g id="node15" class="node">
<title>Node15</title>
<g id="a_node15"><a xlink:href="classnlohmann_1_1detail_1_1type__error.html#aa01edaa0bf18b853368f0b900e485cd7" target="_top" xlink:title=" ">
<polygon fill="white" stroke="black" points="924,-317.5 924,-347.5 1051,-347.5 1051,-317.5 924,-317.5"/>
<text text-anchor="start" x="932" y="-335.5" font-family="Helvetica,sans-Serif" font-size="10.00">nlohmann::detail::type</text>
<text text-anchor="middle" x="987.5" y="-324.5" font-family="Helvetica,sans-Serif" font-size="10.00">_error::type_error</text>
</a>
</g>
</g>
<!-- Node12&#45;&gt;Node15 -->
<g id="edge15" class="edge">
<title>Node12&#45;&gt;Node15</title>
<path fill="none" stroke="midnightblue" d="M855.14,-298.53C875.24,-303.73 897.94,-309.6 918.74,-314.98"/>
<polygon fill="midnightblue" stroke="midnightblue" points="917.91,-318.38 928.47,-317.49 919.66,-311.6 917.91,-318.38"/>
</g>
<!-- Node13&#45;&gt;Node14 -->
<g id="edge14" class="edge">
<title>Node13&#45;&gt;Node14</title>
<path fill="none" stroke="midnightblue" d="M1053.83,-298.57C1057.59,-301.1 1061.04,-304.06 1064,-307.5 1131.52,-386.06 1144.78,-729.12 1147.06,-815.63"/>
<polygon fill="midnightblue" stroke="midnightblue" points="1143.57,-815.97 1147.31,-825.89 1150.57,-815.8 1143.57,-815.97"/>
</g>
<!-- Node18 -->
<g id="node18" class="node">
<title>Node18</title>
<g id="a_node18"><a xlink:href="namespacehttplib_1_1detail.html#aa8bfc0f5ee915e4f92907ca646ba422a" target="_top" xlink:title=" ">
<polygon fill="white" stroke="black" points="542.5,-705.5 542.5,-735.5 674.5,-735.5 674.5,-705.5 542.5,-705.5"/>
<text text-anchor="start" x="550.5" y="-723.5" font-family="Helvetica,sans-Serif" font-size="10.00">httplib::detail::process</text>
<text text-anchor="middle" x="608.5" y="-712.5" font-family="Helvetica,sans-Serif" font-size="10.00">_multipart_ranges_data</text>
</a>
</g>
</g>
<!-- Node17&#45;&gt;Node18 -->
<g id="edge18" class="edge">
<title>Node17&#45;&gt;Node18</title>
<path fill="none" stroke="midnightblue" d="M486.55,-720.5C501.28,-720.5 517.03,-720.5 532.15,-720.5"/>
<polygon fill="midnightblue" stroke="midnightblue" points="532.48,-724 542.48,-720.5 532.48,-717 532.48,-724"/>
</g>
<!-- Node18&#45;&gt;Node19 -->
<g id="edge19" class="edge">
<title>Node18&#45;&gt;Node19</title>
<path fill="none" stroke="midnightblue" d="M674.38,-705.46C689.21,-702.02 705.08,-698.34 720.28,-694.82"/>
<polygon fill="midnightblue" stroke="midnightblue" points="721.21,-698.2 730.16,-692.53 719.63,-691.38 721.21,-698.2"/>
</g>
<!-- Node18&#45;&gt;Node20 -->
<g id="edge21" class="edge">
<title>Node18&#45;&gt;Node20</title>
<path fill="none" stroke="midnightblue" d="M633.75,-735.53C666.52,-755.85 725.08,-792.15 761.88,-814.97"/>
<polygon fill="midnightblue" stroke="midnightblue" points="760.4,-818.17 770.74,-820.46 764.09,-812.22 760.4,-818.17"/>
</g>
<!-- Node19&#45;&gt;Node3 -->
<g id="edge20" class="edge">
<title>Node19&#45;&gt;Node3</title>
<path fill="none" stroke="midnightblue" d="M867.56,-677.5C897.13,-677.5 930.06,-677.5 953.76,-677.5"/>
<polygon fill="midnightblue" stroke="midnightblue" points="953.96,-681 963.96,-677.5 953.96,-674 953.96,-681"/>
</g>
<!-- Node20&#45;&gt;Node14 -->
<g id="edge22" class="edge">
<title>Node20&#45;&gt;Node14</title>
<path fill="none" stroke="midnightblue" d="M875.22,-835.5C940.22,-835.5 1031.22,-835.5 1089.77,-835.5"/>
<polygon fill="midnightblue" stroke="midnightblue" points="1089.95,-839 1099.95,-835.5 1089.95,-832 1089.95,-839"/>
</g>
<!-- Node22 -->
<g id="node22" class="node">
<title>Node22</title>
<g id="a_node22"><a xlink:href="namespacehttplib_1_1detail.html#aa473f5aff2d646f2801456f003183b1b" target="_top" xlink:title=" ">
<polygon fill="white" stroke="black" points="546,-809.5 546,-839.5 671,-839.5 671,-809.5 546,-809.5"/>
<text text-anchor="start" x="554" y="-827.5" font-family="Helvetica,sans-Serif" font-size="10.00">httplib::detail::random</text>
<text text-anchor="middle" x="608.5" y="-816.5" font-family="Helvetica,sans-Serif" font-size="10.00">_string</text>
</a>
</g>
</g>
<!-- Node21&#45;&gt;Node22 -->
<g id="edge26" class="edge">
<title>Node21&#45;&gt;Node22</title>
<path fill="none" stroke="midnightblue" d="M493.15,-824.5C507.15,-824.5 521.83,-824.5 535.83,-824.5"/>
<polygon fill="midnightblue" stroke="midnightblue" points="535.88,-828 545.88,-824.5 535.88,-821 535.88,-828"/>
</g>
<!-- Node23&#45;&gt;Node3 -->
<g id="edge28" class="edge">
<title>Node23&#45;&gt;Node3</title>
<path fill="none" stroke="midnightblue" d="M486.55,-769.87C539.2,-764.86 615.15,-756.6 681,-745.5 781.17,-728.61 897.96,-700.12 953.68,-685.99"/>
<polygon fill="midnightblue" stroke="midnightblue" points="954.84,-689.3 963.67,-683.44 953.11,-682.52 954.84,-689.3"/>
</g>
<!-- Node23&#45;&gt;Node18 -->
<g id="edge29" class="edge">
<title>Node23&#45;&gt;Node18</title>
<path fill="none" stroke="midnightblue" d="M472.33,-760.47C495.39,-753.65 522.85,-745.53 546.97,-738.4"/>
<polygon fill="midnightblue" stroke="midnightblue" points="548.14,-741.7 556.74,-735.51 546.15,-734.99 548.14,-741.7"/>
</g>
<!-- Node25 -->
<g id="node25" class="node">
<title>Node25</title>
<g id="a_node25"><a xlink:href="namespacehttplib_1_1detail.html#a1bfcbc5ada5082188cc2b7399ed019f2" target="_top" xlink:title=" ">
<polygon fill="white" stroke="black" points="545.5,-586 545.5,-605 671.5,-605 671.5,-586 545.5,-586"/>
<text text-anchor="middle" x="608.5" y="-593" font-family="Helvetica,sans-Serif" font-size="10.00">httplib::detail::has_crlf</text>
</a>
</g>
</g>
<!-- Node24&#45;&gt;Node25 -->
<g id="edge31" class="edge">
<title>Node24&#45;&gt;Node25</title>
<path fill="none" stroke="midnightblue" d="M474.3,-591.2C493.23,-591.81 514.91,-592.51 535.2,-593.17"/>
<polygon fill="midnightblue" stroke="midnightblue" points="535.24,-596.67 545.35,-593.5 535.46,-589.67 535.24,-596.67"/>
</g>
<!-- Node29&#45;&gt;Node3 -->
<g id="edge40" class="edge">
<title>Node29&#45;&gt;Node3</title>
<path fill="none" stroke="midnightblue" d="M294.26,-357.96C456.73,-386.75 869.11,-460.16 875,-464.5 941.95,-513.8 972.22,-615.34 982.36,-657.98"/>
<polygon fill="midnightblue" stroke="midnightblue" points="978.98,-658.93 984.6,-667.92 985.81,-657.39 978.98,-658.93"/>
</g>
<!-- Node29&#45;&gt;Node4 -->
<g id="edge41" class="edge">
<title>Node29&#45;&gt;Node4</title>
<path fill="none" stroke="midnightblue" d="M262.1,-361.59C276.1,-368.93 292.15,-378.53 305,-389.5 324.48,-406.13 320.06,-419.75 341,-434.5 349.22,-440.29 358.79,-444.93 368.36,-448.61"/>
<polygon fill="midnightblue" stroke="midnightblue" points="367.28,-451.95 377.88,-451.99 369.62,-445.35 367.28,-451.95"/>
</g>
<!-- Node29&#45;&gt;Node19 -->
<g id="edge42" class="edge">
<title>Node29&#45;&gt;Node19</title>
<path fill="none" stroke="midnightblue" d="M267.25,-361.65C280.6,-368.51 294.81,-377.77 305,-389.5 333.51,-422.35 308.86,-451.2 341,-480.5 457.03,-586.29 542.74,-502.07 681,-576.5 718.7,-596.79 754.31,-631.82 775.4,-654.82"/>
<polygon fill="midnightblue" stroke="midnightblue" points="772.94,-657.32 782.23,-662.41 778.14,-652.64 772.94,-657.32"/>
</g>
<!-- Node30 -->
<g id="node30" class="node">
<title>Node30</title>
<g id="a_node30"><a xlink:href="namespacehttplib_1_1detail.html#ac17dd7d7a80ce12e5966f5f577b67a75" target="_top" xlink:title=" ">
<polygon fill="white" stroke="black" points="364,-88.5 364,-118.5 477,-118.5 477,-88.5 364,-88.5"/>
<text text-anchor="start" x="372" y="-106.5" font-family="Helvetica,sans-Serif" font-size="10.00">httplib::detail::write</text>
<text text-anchor="middle" x="420.5" y="-95.5" font-family="Helvetica,sans-Serif" font-size="10.00">_content</text>
</a>
</g>
</g>
<!-- Node29&#45;&gt;Node30 -->
<g id="edge43" class="edge">
<title>Node29&#45;&gt;Node30</title>
<path fill="none" stroke="midnightblue" d="M232.83,-331.46C242.35,-291.9 273.52,-184.14 341,-127.5 345.06,-124.09 349.59,-121.17 354.38,-118.66"/>
<polygon fill="midnightblue" stroke="midnightblue" points="356.2,-121.68 363.84,-114.33 353.29,-115.31 356.2,-121.68"/>
</g>
<!-- Node34 -->
<g id="node34" class="node">
<title>Node34</title>
<g id="a_node34"><a xlink:href="namespacehttplib_1_1detail.html#af586311a8460e53bac51d7d02802ede9" target="_top" xlink:title=" ">
<polygon fill="white" stroke="black" points="364,-186.5 364,-216.5 477,-216.5 477,-186.5 364,-186.5"/>
<text text-anchor="start" x="372" y="-204.5" font-family="Helvetica,sans-Serif" font-size="10.00">httplib::detail::write</text>
<text text-anchor="middle" x="420.5" y="-193.5" font-family="Helvetica,sans-Serif" font-size="10.00">_content_chunked</text>
</a>
</g>
</g>
<!-- Node29&#45;&gt;Node34 -->
<g id="edge47" class="edge">
<title>Node29&#45;&gt;Node34</title>
<path fill="none" stroke="midnightblue" d="M249.47,-331.26C283.49,-305.3 352.73,-252.45 391.54,-222.84"/>
<polygon fill="midnightblue" stroke="midnightblue" points="393.97,-225.39 399.79,-216.54 389.72,-219.82 393.97,-225.39"/>
</g>
<!-- Node37 -->
<g id="node37" class="node">
<title>Node37</title>
<g id="a_node37"><a xlink:href="namespacehttplib_1_1detail.html#a4b08839cc083b4d71b0a3961c9a1686d" target="_top" xlink:title=" ">
<polygon fill="white" stroke="black" points="352,-137.5 352,-167.5 489,-167.5 489,-137.5 352,-137.5"/>
<text text-anchor="start" x="360" y="-155.5" font-family="Helvetica,sans-Serif" font-size="10.00">httplib::detail::write</text>
<text text-anchor="middle" x="420.5" y="-144.5" font-family="Helvetica,sans-Serif" font-size="10.00">_content_without_length</text>
</a>
</g>
</g>
<!-- Node29&#45;&gt;Node37 -->
<g id="edge53" class="edge">
<title>Node29&#45;&gt;Node37</title>
<path fill="none" stroke="midnightblue" d="M235.16,-331.49C248.42,-298.39 284.67,-218.75 341,-176.5 342.85,-175.11 344.79,-173.8 346.78,-172.57"/>
<polygon fill="midnightblue" stroke="midnightblue" points="348.77,-175.47 355.89,-167.62 345.43,-169.32 348.77,-175.47"/>
</g>
<!-- Node38 -->
<g id="node38" class="node">
<title>Node38</title>
<g id="a_node38"><a xlink:href="namespacehttplib_1_1detail.html#ad7467069e85f955efc30627cff9dd327" target="_top" xlink:title=" ">
<polygon fill="white" stroke="black" points="354.5,-322.5 354.5,-352.5 486.5,-352.5 486.5,-322.5 354.5,-322.5"/>
<text text-anchor="start" x="362.5" y="-340.5" font-family="Helvetica,sans-Serif" font-size="10.00">httplib::detail::write</text>
<text text-anchor="middle" x="420.5" y="-329.5" font-family="Helvetica,sans-Serif" font-size="10.00">_multipart_ranges_data</text>
</a>
</g>
</g>
<!-- Node29&#45;&gt;Node38 -->
<g id="edge57" class="edge">
<title>Node29&#45;&gt;Node38</title>
<path fill="none" stroke="midnightblue" d="M294.09,-343.44C310.22,-342.68 327.65,-341.85 344.24,-341.06"/>
<polygon fill="midnightblue" stroke="midnightblue" points="344.62,-344.55 354.44,-340.58 344.29,-337.56 344.62,-344.55"/>
</g>
<!-- Node31 -->
<g id="node31" class="node">
<title>Node31</title>
<g id="a_node31"><a xlink:href="classhttplib_1_1Stream.html#ab10c55e43ccf0146c4d142e53a58a831" target="_top" xlink:title=" ">
<polygon fill="white" stroke="black" points="556.5,-88.5 556.5,-118.5 660.5,-118.5 660.5,-88.5 556.5,-88.5"/>
<text text-anchor="start" x="564.5" y="-106.5" font-family="Helvetica,sans-Serif" font-size="10.00">httplib::Stream::is</text>
<text text-anchor="middle" x="608.5" y="-95.5" font-family="Helvetica,sans-Serif" font-size="10.00">_writable</text>
</a>
</g>
</g>
<!-- Node30&#45;&gt;Node31 -->
<g id="edge44" class="edge">
<title>Node30&#45;&gt;Node31</title>
<path fill="none" stroke="midnightblue" d="M477.05,-103.5C498.87,-103.5 523.98,-103.5 546.32,-103.5"/>
<polygon fill="midnightblue" stroke="midnightblue" points="546.36,-107 556.36,-103.5 546.36,-100 546.36,-107"/>
</g>
<!-- Node30&#45;&gt;Node32 -->
<g id="edge45" class="edge">
<title>Node30&#45;&gt;Node32</title>
<path fill="none" stroke="midnightblue" d="M477.05,-90.36C502.55,-84.33 532.56,-77.23 557.36,-71.36"/>
<polygon fill="midnightblue" stroke="midnightblue" points="558.36,-74.72 567.29,-69.01 556.75,-67.91 558.36,-74.72"/>
</g>
<!-- Node33 -->
<g id="node33" class="node">
<title>Node33</title>
<g id="a_node33"><a xlink:href="classhttplib_1_1Stream.html#a4b94583ae90065c9e4e33a7752d9976f" target="_top" xlink:title=" ">
<polygon fill="white" stroke="black" points="736,-50 736,-69 856,-69 856,-50 736,-50"/>
<text text-anchor="middle" x="796" y="-57" font-family="Helvetica,sans-Serif" font-size="10.00">httplib::Stream::write</text>
</a>
</g>
</g>
<!-- Node32&#45;&gt;Node33 -->
<g id="edge46" class="edge">
<title>Node32&#45;&gt;Node33</title>
<path fill="none" stroke="midnightblue" d="M678.57,-59.5C694.04,-59.5 710.44,-59.5 725.91,-59.5"/>
<polygon fill="midnightblue" stroke="midnightblue" points="725.91,-63 735.91,-59.5 725.91,-56 725.91,-63"/>
</g>
<!-- Node34&#45;&gt;Node11 -->
<g id="edge51" class="edge">
<title>Node34&#45;&gt;Node11</title>
<path fill="none" stroke="midnightblue" d="M455.62,-216.54C490.17,-231.77 543.15,-255.13 576.53,-269.85"/>
<polygon fill="midnightblue" stroke="midnightblue" points="575.24,-273.1 585.81,-273.94 578.07,-266.7 575.24,-273.1"/>
</g>
<!-- Node34&#45;&gt;Node31 -->
<g id="edge50" class="edge">
<title>Node34&#45;&gt;Node31</title>
<path fill="none" stroke="midnightblue" d="M477.24,-188.62C485.28,-185.4 493.15,-181.42 500,-176.5 521.95,-160.74 514.17,-143.43 536,-127.5 539.45,-124.98 543.18,-122.72 547.07,-120.68"/>
<polygon fill="midnightblue" stroke="midnightblue" points="548.78,-123.74 556.36,-116.33 545.82,-117.4 548.78,-123.74"/>
</g>
<!-- Node34&#45;&gt;Node32 -->
<g id="edge52" class="edge">
<title>Node34&#45;&gt;Node32</title>
<path fill="none" stroke="midnightblue" d="M477.38,-190.75C485.69,-187.26 493.59,-182.63 500,-176.5 533.52,-144.41 501.71,-109.76 536,-78.5 537.74,-76.92 539.59,-75.47 541.53,-74.13"/>
<polygon fill="midnightblue" stroke="midnightblue" points="543.59,-76.99 550.56,-69.01 540.13,-70.9 543.59,-76.99"/>
</g>
<!-- Node35 -->
<g id="node35" class="node">
<title>Node35</title>
<g id="a_node35"><a xlink:href="classhttplib_1_1detail_1_1compressor.html#a7cf1de9ae8f5d01316de7b666e66192d" target="_top" xlink:title=" ">
<polygon fill="white" stroke="black" points="536,-186.5 536,-216.5 681,-216.5 681,-186.5 536,-186.5"/>
<text text-anchor="start" x="544" y="-204.5" font-family="Helvetica,sans-Serif" font-size="10.00">httplib::detail::compressor</text>
<text text-anchor="middle" x="608.5" y="-193.5" font-family="Helvetica,sans-Serif" font-size="10.00">::compress</text>
</a>
</g>
</g>
<!-- Node34&#45;&gt;Node35 -->
<g id="edge48" class="edge">
<title>Node34&#45;&gt;Node35</title>
<path fill="none" stroke="midnightblue" d="M477.05,-201.5C492.3,-201.5 509.16,-201.5 525.56,-201.5"/>
<polygon fill="midnightblue" stroke="midnightblue" points="525.69,-205 535.69,-201.5 525.69,-198 525.69,-205"/>
</g>
<!-- Node36 -->
<g id="node36" class="node">
<title>Node36</title>
<g id="a_node36"><a xlink:href="namespacehttplib_1_1detail.html#ac08f80eff074b5a4adcb6e160a1380a5" target="_top" xlink:title=" ">
<polygon fill="white" stroke="black" points="553,-137.5 553,-167.5 664,-167.5 664,-137.5 553,-137.5"/>
<text text-anchor="start" x="561" y="-155.5" font-family="Helvetica,sans-Serif" font-size="10.00">httplib::detail::from</text>
<text text-anchor="middle" x="608.5" y="-144.5" font-family="Helvetica,sans-Serif" font-size="10.00">_i_to_hex</text>
</a>
</g>
</g>
<!-- Node34&#45;&gt;Node36 -->
<g id="edge49" class="edge">
<title>Node34&#45;&gt;Node36</title>
<path fill="none" stroke="midnightblue" d="M477.05,-186.86C497.85,-181.39 521.64,-175.12 543.16,-169.45"/>
<polygon fill="midnightblue" stroke="midnightblue" points="544.09,-172.82 552.87,-166.89 542.31,-166.05 544.09,-172.82"/>
</g>
<!-- Node37&#45;&gt;Node11 -->
<g id="edge55" class="edge">
<title>Node37&#45;&gt;Node11</title>
<path fill="none" stroke="midnightblue" d="M484.12,-167.51C489.72,-170.06 495.12,-173.04 500,-176.5 522.04,-192.13 517.35,-205.94 536,-225.5 551.21,-241.46 570.79,-257.06 585.61,-268.05"/>
<polygon fill="midnightblue" stroke="midnightblue" points="583.57,-270.9 593.72,-273.96 587.7,-265.24 583.57,-270.9"/>
</g>
<!-- Node37&#45;&gt;Node31 -->
<g id="edge54" class="edge">
<title>Node37&#45;&gt;Node31</title>
<path fill="none" stroke="midnightblue" d="M478.57,-137.47C500.05,-131.81 524.56,-125.35 546.4,-119.6"/>
<polygon fill="midnightblue" stroke="midnightblue" points="547.45,-122.94 556.22,-117.01 545.66,-116.17 547.45,-122.94"/>
</g>
<!-- Node37&#45;&gt;Node32 -->
<g id="edge56" class="edge">
<title>Node37&#45;&gt;Node32</title>
<path fill="none" stroke="midnightblue" d="M482.52,-137.38C488.7,-134.6 494.66,-131.34 500,-127.5 521.95,-111.74 513.67,-93.72 536,-78.5 539.04,-76.42 542.3,-74.58 545.69,-72.93"/>
<polygon fill="midnightblue" stroke="midnightblue" points="547.06,-76.15 554.91,-69.02 544.33,-69.7 547.06,-76.15"/>
</g>
<!-- Node38&#45;&gt;Node18 -->
<g id="edge58" class="edge">
<title>Node38&#45;&gt;Node18</title>
<path fill="none" stroke="midnightblue" d="M436.42,-352.81C454.34,-372.1 483.98,-407.03 500,-442.5 532.14,-513.68 505.6,-542.56 536,-614.5 549.14,-645.59 571.89,-677.14 588.21,-697.64"/>
<polygon fill="midnightblue" stroke="midnightblue" points="585.52,-699.89 594.54,-705.45 590.96,-695.48 585.52,-699.89"/>
</g>
<!-- Node38&#45;&gt;Node33 -->
<g id="edge59" class="edge">
<title>Node38&#45;&gt;Node33</title>
<path fill="none" stroke="midnightblue" d="M441.13,-322.33C463.13,-305.98 500.41,-280.19 536,-264.5 597.07,-237.58 626.53,-264.05 681,-225.5 735.57,-186.88 772.22,-113.34 787.28,-78.59"/>
<polygon fill="midnightblue" stroke="midnightblue" points="790.6,-79.71 791.25,-69.13 784.15,-77 790.6,-79.71"/>
</g>
<!-- Node39 -->
<g id="node39" class="node">
<title>Node39</title>
<g id="a_node39"><a xlink:href="namespacehttplib_1_1detail.html#ae545b65e4ea144c8dbfb1dfb5991afa5" target="_top" xlink:title=" ">
<polygon fill="white" stroke="black" points="552,-312.5 552,-342.5 665,-342.5 665,-312.5 552,-312.5"/>
<text text-anchor="start" x="560" y="-330.5" font-family="Helvetica,sans-Serif" font-size="10.00">httplib::detail::write</text>
<text text-anchor="middle" x="608.5" y="-319.5" font-family="Helvetica,sans-Serif" font-size="10.00">_content</text>
</a>
</g>
</g>
<!-- Node38&#45;&gt;Node39 -->
<g id="edge60" class="edge">
<title>Node38&#45;&gt;Node39</title>
<path fill="none" stroke="midnightblue" d="M486.55,-334C504.41,-333.04 523.79,-332 541.69,-331.04"/>
<polygon fill="midnightblue" stroke="midnightblue" points="541.96,-334.53 551.75,-330.5 541.58,-327.54 541.96,-334.53"/>
</g>
<!-- Node40&#45;&gt;Node33 -->
<g id="edge63" class="edge">
<title>Node40&#45;&gt;Node33</title>
<path fill="none" stroke="midnightblue" d="M288.84,-16.71C375.31,-18.94 540.94,-25 681,-40.5 698.67,-42.46 717.77,-45.33 735.18,-48.26"/>
<polygon fill="midnightblue" stroke="midnightblue" points="734.77,-51.74 745.22,-49.98 735.96,-44.84 734.77,-51.74"/>
</g>
</g>
</svg>
