<?xml version="1.0" encoding="UTF-8" standalone="no"?>
<!DOCTYPE svg PUBLIC "-//W3C//DTD SVG 1.1//EN"
 "http://www.w3.org/Graphics/SVG/1.1/DTD/svg11.dtd">
<!-- Generated by graphviz version 2.43.0 (0)
 -->
<!-- Title: fuzzer::InputCorpus::DeleteInput Pages: 1 -->
<svg width="424pt" height="142pt"
 viewBox="0.00 0.00 424.00 142.00" xmlns="http://www.w3.org/2000/svg" xmlns:xlink="http://www.w3.org/1999/xlink">
<g id="graph0" class="graph" transform="scale(1 1) rotate(0) translate(4 138)">
<title>fuzzer::InputCorpus::DeleteInput</title>
<polygon fill="white" stroke="transparent" points="-4,4 -4,-138 420,-138 420,4 -4,4"/>
<!-- Node1 -->
<g id="node1" class="node">
<title>Node1</title>
<g id="a_node1"><a xlink:title=" ">
<polygon fill="#bfbfbf" stroke="black" points="0,-52 0,-82 111,-82 111,-52 0,-52"/>
<text text-anchor="start" x="8" y="-70" font-family="Helvetica,sans-Serif" font-size="10.00">fuzzer::InputCorpus</text>
<text text-anchor="middle" x="55.5" y="-59" font-family="Helvetica,sans-Serif" font-size="10.00">::DeleteInput</text>
</a>
</g>
</g>
<!-- Node2 -->
<g id="node2" class="node">
<title>Node2</title>
<g id="a_node2"><a xlink:href="namespacefuzzer.html#a874eb385b20be8a4df019f6ea8c5662b" target="_top" xlink:title=" ">
<polygon fill="white" stroke="black" points="153,-114.5 153,-133.5 257,-133.5 257,-114.5 153,-114.5"/>
<text text-anchor="middle" x="205" y="-121.5" font-family="Helvetica,sans-Serif" font-size="10.00">fuzzer::DirPlusFile</text>
</a>
</g>
</g>
<!-- Node1&#45;&gt;Node2 -->
<g id="edge1" class="edge">
<title>Node1&#45;&gt;Node2</title>
<path fill="none" stroke="midnightblue" d="M90.63,-82.05C107.48,-89.3 128.18,-97.92 147,-105 152.57,-107.09 158.48,-109.2 164.31,-111.2"/>
<polygon fill="midnightblue" stroke="midnightblue" points="163.38,-114.58 173.97,-114.46 165.62,-107.95 163.38,-114.58"/>
</g>
<!-- Node4 -->
<g id="node4" class="node">
<title>Node4</title>
<g id="a_node4"><a xlink:href="namespacefuzzer.html#afab785891fdb74f8fd33bca421bde935" target="_top" xlink:title=" ">
<polygon fill="white" stroke="black" points="165.5,-76.5 165.5,-95.5 244.5,-95.5 244.5,-76.5 165.5,-76.5"/>
<text text-anchor="middle" x="205" y="-83.5" font-family="Helvetica,sans-Serif" font-size="10.00">fuzzer::Printf</text>
</a>
</g>
</g>
<!-- Node1&#45;&gt;Node4 -->
<g id="edge3" class="edge">
<title>Node1&#45;&gt;Node4</title>
<path fill="none" stroke="midnightblue" d="M111,-74.02C125.53,-75.89 141.13,-77.9 155.32,-79.73"/>
<polygon fill="midnightblue" stroke="midnightblue" points="155.01,-83.22 165.38,-81.02 155.9,-76.28 155.01,-83.22"/>
</g>
<!-- Node5 -->
<g id="node5" class="node">
<title>Node5</title>
<g id="a_node5"><a xlink:href="namespacefuzzer.html#a6b7af8407fcc60013fa2cd588e4abf77" target="_top" xlink:title=" ">
<polygon fill="white" stroke="black" points="150,-38.5 150,-57.5 260,-57.5 260,-38.5 150,-38.5"/>
<text text-anchor="middle" x="205" y="-45.5" font-family="Helvetica,sans-Serif" font-size="10.00">fuzzer::RemoveFile</text>
</a>
</g>
</g>
<!-- Node1&#45;&gt;Node5 -->
<g id="edge4" class="edge">
<title>Node1&#45;&gt;Node5</title>
<path fill="none" stroke="midnightblue" d="M111,-59.98C120.29,-58.78 130,-57.53 139.51,-56.31"/>
<polygon fill="midnightblue" stroke="midnightblue" points="140.25,-59.74 149.72,-54.99 139.35,-52.8 140.25,-59.74"/>
</g>
<!-- Node6 -->
<g id="node6" class="node">
<title>Node6</title>
<g id="a_node6"><a xlink:href="namespacefuzzer.html#af169a5e81c6e590e4240ccfbb84b8b6a" target="_top" xlink:title=" ">
<polygon fill="white" stroke="black" points="147,-0.5 147,-19.5 263,-19.5 263,-0.5 147,-0.5"/>
<text text-anchor="middle" x="205" y="-7.5" font-family="Helvetica,sans-Serif" font-size="10.00">fuzzer::Sha1ToString</text>
</a>
</g>
</g>
<!-- Node1&#45;&gt;Node6 -->
<g id="edge5" class="edge">
<title>Node1&#45;&gt;Node6</title>
<path fill="none" stroke="midnightblue" d="M90.63,-51.95C107.48,-44.7 128.18,-36.08 147,-29 152.57,-26.91 158.48,-24.8 164.31,-22.8"/>
<polygon fill="midnightblue" stroke="midnightblue" points="165.62,-26.05 173.97,-19.54 163.38,-19.42 165.62,-26.05"/>
</g>
<!-- Node3 -->
<g id="node3" class="node">
<title>Node3</title>
<g id="a_node3"><a xlink:href="namespacefuzzer.html#aee6faff60741a0a94bccdce92887eec1" target="_top" xlink:title=" ">
<polygon fill="white" stroke="black" points="299,-114.5 299,-133.5 416,-133.5 416,-114.5 299,-114.5"/>
<text text-anchor="middle" x="357.5" y="-121.5" font-family="Helvetica,sans-Serif" font-size="10.00">fuzzer::GetSeparator</text>
</a>
</g>
</g>
<!-- Node2&#45;&gt;Node3 -->
<g id="edge2" class="edge">
<title>Node2&#45;&gt;Node3</title>
<path fill="none" stroke="midnightblue" d="M257.37,-124C267.5,-124 278.28,-124 288.85,-124"/>
<polygon fill="midnightblue" stroke="midnightblue" points="288.9,-127.5 298.9,-124 288.9,-120.5 288.9,-127.5"/>
</g>
</g>
</svg>
