<?xml version="1.0" encoding="UTF-8" standalone="no"?>
<!DOCTYPE svg PUBLIC "-//W3C//DTD SVG 1.1//EN"
 "http://www.w3.org/Graphics/SVG/1.1/DTD/svg11.dtd">
<!-- Generated by graphviz version 2.43.0 (0)
 -->
<!-- Title: nlohmann::basic_json::operator[] Pages: 1 -->
<svg width="395pt" height="71pt"
 viewBox="0.00 0.00 395.00 70.50" xmlns="http://www.w3.org/2000/svg" xmlns:xlink="http://www.w3.org/1999/xlink">
<g id="graph0" class="graph" transform="scale(1 1) rotate(0) translate(4 66.5)">
<title>nlohmann::basic_json::operator[]</title>
<polygon fill="white" stroke="transparent" points="-4,4 -4,-66.5 391,-66.5 391,4 -4,4"/>
<!-- Node1 -->
<g id="node1" class="node">
<title>Node1</title>
<g id="a_node1"><a xlink:title="access specified array element">
<polygon fill="#bfbfbf" stroke="black" points="265,-14 265,-44 387,-44 387,-14 265,-14"/>
<text text-anchor="start" x="273" y="-32" font-family="Helvetica,sans-Serif" font-size="10.00">nlohmann::basic_json</text>
<text text-anchor="middle" x="326" y="-21" font-family="Helvetica,sans-Serif" font-size="10.00">::operator[]</text>
</a>
</g>
</g>
<!-- Node2 -->
<g id="node2" class="node">
<title>Node2</title>
<g id="a_node2"><a xlink:href="classnlohmann_1_1basic__json.html#a7c43ed2a3004c1fa9543913f37b9fca9" target="_top" xlink:title="applies a JSON Merge Patch">
<polygon fill="white" stroke="black" points="107,-14 107,-44 229,-44 229,-14 107,-14"/>
<text text-anchor="start" x="115" y="-32" font-family="Helvetica,sans-Serif" font-size="10.00">nlohmann::basic_json</text>
<text text-anchor="middle" x="168" y="-21" font-family="Helvetica,sans-Serif" font-size="10.00">::merge_patch</text>
</a>
</g>
</g>
<!-- Node1&#45;&gt;Node2 -->
<g id="edge1" class="edge">
<title>Node1&#45;&gt;Node2</title>
<path fill="none" stroke="midnightblue" d="M254.46,-29C246.01,-29 237.44,-29 229.15,-29"/>
<polygon fill="midnightblue" stroke="midnightblue" points="254.69,-32.5 264.69,-29 254.69,-25.5 254.69,-32.5"/>
</g>
<!-- Node2&#45;&gt;Node2 -->
<g id="edge3" class="edge">
<title>Node2&#45;&gt;Node2</title>
<path fill="none" stroke="midnightblue" d="M191.45,-54.46C188.54,-59.18 180.73,-62.5 168,-62.5 147.12,-62.5 139.45,-53.56 145,-44.16"/>
<polygon fill="midnightblue" stroke="midnightblue" points="194.94,-54 191,-44.16 187.94,-54.3 194.94,-54"/>
</g>
<!-- Node3 -->
<g id="node3" class="node">
<title>Node3</title>
<g id="a_node3"><a xlink:href="merge__patch_8cpp.html#ae66f6b31b5ad750f1fe042a706a4e3d4" target="_top" xlink:title=" ">
<polygon fill="white" stroke="black" points="15,-38.5 15,-57.5 56,-57.5 56,-38.5 15,-38.5"/>
<text text-anchor="middle" x="35.5" y="-45.5" font-family="Helvetica,sans-Serif" font-size="10.00">main</text>
</a>
</g>
</g>
<!-- Node2&#45;&gt;Node3 -->
<g id="edge2" class="edge">
<title>Node2&#45;&gt;Node3</title>
<path fill="none" stroke="midnightblue" d="M96.41,-39.28C81.54,-41.44 67.05,-43.55 56.05,-45.15"/>
<polygon fill="midnightblue" stroke="midnightblue" points="97.32,-42.68 106.72,-37.78 96.32,-35.75 97.32,-42.68"/>
</g>
<!-- Node4 -->
<g id="node4" class="node">
<title>Node4</title>
<g id="a_node4"><a xlink:href="unit-merge__patch_8cpp.html#acda8f4852a31243aeb6390718cea13b5" target="_top" xlink:title=" ">
<polygon fill="white" stroke="black" points="0,-0.5 0,-19.5 71,-19.5 71,-0.5 0,-0.5"/>
<text text-anchor="middle" x="35.5" y="-7.5" font-family="Helvetica,sans-Serif" font-size="10.00">TEST_CASE</text>
</a>
</g>
</g>
<!-- Node2&#45;&gt;Node4 -->
<g id="edge4" class="edge">
<title>Node2&#45;&gt;Node4</title>
<path fill="none" stroke="midnightblue" d="M96.73,-18.77C87.9,-17.48 79.19,-16.22 71.26,-15.06"/>
<polygon fill="midnightblue" stroke="midnightblue" points="96.32,-22.25 106.72,-20.22 97.32,-15.32 96.32,-22.25"/>
</g>
</g>
</svg>
