<?xml version="1.0" encoding="UTF-8" standalone="no"?>
<!DOCTYPE svg PUBLIC "-//W3C//DTD SVG 1.1//EN"
 "http://www.w3.org/Graphics/SVG/1.1/DTD/svg11.dtd">
<!-- Generated by graphviz version 2.43.0 (0)
 -->
<!-- Title: K3sGetPodNameCommand Pages: 1 -->
<svg width="230pt" height="310pt"
 viewBox="0.00 0.00 230.00 310.00" xmlns="http://www.w3.org/2000/svg" xmlns:xlink="http://www.w3.org/1999/xlink">
<g id="graph0" class="graph" transform="scale(1 1) rotate(0) translate(4 306)">
<title>K3sGetPodNameCommand</title>
<polygon fill="white" stroke="transparent" points="-4,4 -4,-306 226,-306 226,4 -4,4"/>
<!-- Node1 -->
<g id="node1" class="node">
<title>Node1</title>
<g id="a_node1"><a xlink:title=" ">
<polygon fill="#bfbfbf" stroke="black" points="0,-0.5 0,-79.5 176,-79.5 176,-0.5 0,-0.5"/>
<text text-anchor="middle" x="88" y="-67.5" font-family="Helvetica,sans-Serif" font-size="10.00">K3sGetPodNameCommand</text>
<polyline fill="none" stroke="black" points="0,-60.5 176,-60.5 "/>
<text text-anchor="middle" x="88" y="-48.5" font-family="Helvetica,sans-Serif" font-size="10.00"> </text>
<polyline fill="none" stroke="black" points="0,-41.5 176,-41.5 "/>
<text text-anchor="start" x="8" y="-29.5" font-family="Helvetica,sans-Serif" font-size="10.00">+ K3sGetPodNameCommand()</text>
<text text-anchor="start" x="8" y="-18.5" font-family="Helvetica,sans-Serif" font-size="10.00">+ ~K3sGetPodNameCommand()</text>
<text text-anchor="start" x="8" y="-7.5" font-family="Helvetica,sans-Serif" font-size="10.00">+ Execute()</text>
</a>
</g>
</g>
<!-- Node2 -->
<g id="node2" class="node">
<title>Node2</title>
<g id="a_node2"><a xlink:href="classCommand.html" target="_top" xlink:title=" ">
<polygon fill="white" stroke="black" points="25,-127.5 25,-195.5 119,-195.5 119,-127.5 25,-127.5"/>
<text text-anchor="middle" x="72" y="-183.5" font-family="Helvetica,sans-Serif" font-size="10.00">Command</text>
<polyline fill="none" stroke="black" points="25,-176.5 119,-176.5 "/>
<text text-anchor="middle" x="72" y="-164.5" font-family="Helvetica,sans-Serif" font-size="10.00"> </text>
<polyline fill="none" stroke="black" points="25,-157.5 119,-157.5 "/>
<text text-anchor="start" x="33" y="-145.5" font-family="Helvetica,sans-Serif" font-size="10.00">+ Execute()</text>
<text text-anchor="start" x="33" y="-134.5" font-family="Helvetica,sans-Serif" font-size="10.00">+ ~Command()</text>
</a>
</g>
</g>
<!-- Node2&#45;&gt;Node1 -->
<g id="edge1" class="edge">
<title>Node2&#45;&gt;Node1</title>
<path fill="none" stroke="midnightblue" d="M77.8,-117.18C79.45,-104.89 81.23,-91.59 82.83,-79.6"/>
<polygon fill="none" stroke="midnightblue" points="74.32,-116.84 76.46,-127.21 81.25,-117.77 74.32,-116.84"/>
</g>
<!-- Node3 -->
<g id="node3" class="node">
<title>Node3</title>
<g id="a_node3"><a xlink:title="STL class.">
<polygon fill="white" stroke="#bfbfbf" points="137.5,-133 137.5,-190 202.5,-190 202.5,-133 137.5,-133"/>
<text text-anchor="middle" x="170" y="-178" font-family="Helvetica,sans-Serif" font-size="10.00">std::string</text>
<polyline fill="none" stroke="#bfbfbf" points="137.5,-171 202.5,-171 "/>
<text text-anchor="middle" x="170" y="-159" font-family="Helvetica,sans-Serif" font-size="10.00"> </text>
<polyline fill="none" stroke="#bfbfbf" points="137.5,-152 202.5,-152 "/>
<text text-anchor="middle" x="170" y="-140" font-family="Helvetica,sans-Serif" font-size="10.00"> </text>
</a>
</g>
</g>
<!-- Node3&#45;&gt;Node1 -->
<g id="edge2" class="edge">
<title>Node3&#45;&gt;Node1</title>
<path fill="none" stroke="#404040" d="M150.98,-132.78C142.22,-120.01 131.55,-104.47 121.5,-89.83"/>
<polygon fill="none" stroke="#404040" points="121.47,-89.78 114.78,-87.09 114.68,-79.88 121.37,-82.56 121.47,-89.78"/>
<text text-anchor="middle" x="165" y="-101" font-family="Helvetica,sans-Serif" font-size="10.00"> &#45;app_name_</text>
</g>
<!-- Node4 -->
<g id="node4" class="node">
<title>Node4</title>
<g id="a_node4"><a xlink:title="STL class.">
<polygon fill="white" stroke="#bfbfbf" points="118,-233.5 118,-301.5 222,-301.5 222,-233.5 118,-233.5"/>
<text text-anchor="start" x="126" y="-289.5" font-family="Helvetica,sans-Serif" font-size="10.00">std::basic_string&lt;</text>
<text text-anchor="middle" x="170" y="-278.5" font-family="Helvetica,sans-Serif" font-size="10.00"> char &gt;</text>
<polyline fill="none" stroke="#bfbfbf" points="118,-271.5 222,-271.5 "/>
<text text-anchor="middle" x="170" y="-259.5" font-family="Helvetica,sans-Serif" font-size="10.00"> </text>
<polyline fill="none" stroke="#bfbfbf" points="118,-252.5 222,-252.5 "/>
<text text-anchor="middle" x="170" y="-240.5" font-family="Helvetica,sans-Serif" font-size="10.00"> </text>
</a>
</g>
</g>
<!-- Node4&#45;&gt;Node3 -->
<g id="edge3" class="edge">
<title>Node4&#45;&gt;Node3</title>
<path fill="none" stroke="midnightblue" d="M170,-223.25C170,-212.05 170,-200.3 170,-190.15"/>
<polygon fill="none" stroke="midnightblue" points="166.5,-223.31 170,-233.31 173.5,-223.31 166.5,-223.31"/>
</g>
</g>
</svg>
