<?xml version="1.0" encoding="UTF-8" standalone="no"?>
<!DOCTYPE svg PUBLIC "-//W3C//DTD SVG 1.1//EN"
 "http://www.w3.org/Graphics/SVG/1.1/DTD/svg11.dtd">
<!-- Generated by graphviz version 2.43.0 (0)
 -->
<!-- Title: nlohmann::detail::other_error::create Pages: 1 -->
<svg width="416pt" height="102pt"
 viewBox="0.00 0.00 416.00 101.50" xmlns="http://www.w3.org/2000/svg" xmlns:xlink="http://www.w3.org/1999/xlink">
<g id="graph0" class="graph" transform="scale(1 1) rotate(0) translate(4 97.5)">
<title>nlohmann::detail::other_error::create</title>
<polygon fill="white" stroke="transparent" points="-4,4 -4,-97.5 412,-97.5 412,4 -4,4"/>
<!-- Node1 -->
<g id="node1" class="node">
<title>Node1</title>
<g id="a_node1"><a xlink:title=" ">
<polygon fill="#bfbfbf" stroke="black" points="277,-38 277,-68 408,-68 408,-38 277,-38"/>
<text text-anchor="start" x="285" y="-56" font-family="Helvetica,sans-Serif" font-size="10.00">nlohmann::detail::other</text>
<text text-anchor="middle" x="342.5" y="-45" font-family="Helvetica,sans-Serif" font-size="10.00">_error::create</text>
</a>
</g>
</g>
<!-- Node2 -->
<g id="node2" class="node">
<title>Node2</title>
<g id="a_node2"><a xlink:href="unionnlohmann_1_1basic__json_1_1json__value.html#a34114e47b2d6391ba97678cefef700c4" target="_top" xlink:title="constructor for empty values of a given type">
<polygon fill="white" stroke="black" points="107,-63 107,-93 241,-93 241,-63 107,-63"/>
<text text-anchor="start" x="115" y="-81" font-family="Helvetica,sans-Serif" font-size="10.00">nlohmann::basic_json</text>
<text text-anchor="middle" x="174" y="-70" font-family="Helvetica,sans-Serif" font-size="10.00">::json_value::json_value</text>
</a>
</g>
</g>
<!-- Node1&#45;&gt;Node2 -->
<g id="edge1" class="edge">
<title>Node1&#45;&gt;Node2</title>
<path fill="none" stroke="midnightblue" d="M266.69,-64.23C258.14,-65.52 249.47,-66.82 241.04,-68.08"/>
<polygon fill="midnightblue" stroke="midnightblue" points="267.28,-67.68 276.65,-62.74 266.24,-60.76 267.28,-67.68"/>
</g>
<!-- Node3 -->
<g id="node3" class="node">
<title>Node3</title>
<g id="a_node3"><a xlink:href="classnlohmann_1_1basic__json.html#a81e0c41a4a9dff4df2f6973f7f8b2a83" target="_top" xlink:title="applies a JSON patch">
<polygon fill="white" stroke="black" points="113,-14 113,-44 235,-44 235,-14 113,-14"/>
<text text-anchor="start" x="121" y="-32" font-family="Helvetica,sans-Serif" font-size="10.00">nlohmann::basic_json</text>
<text text-anchor="middle" x="174" y="-21" font-family="Helvetica,sans-Serif" font-size="10.00">::patch</text>
</a>
</g>
</g>
<!-- Node1&#45;&gt;Node3 -->
<g id="edge2" class="edge">
<title>Node1&#45;&gt;Node3</title>
<path fill="none" stroke="midnightblue" d="M266.6,-42.2C256.03,-40.68 245.29,-39.13 235.05,-37.66"/>
<polygon fill="midnightblue" stroke="midnightblue" points="266.25,-45.69 276.65,-43.65 267.25,-38.76 266.25,-45.69"/>
</g>
<!-- Node4 -->
<g id="node4" class="node">
<title>Node4</title>
<g id="a_node4"><a xlink:href="diff_8cpp.html#ae66f6b31b5ad750f1fe042a706a4e3d4" target="_top" xlink:title=" ">
<polygon fill="white" stroke="black" points="15,-38.5 15,-57.5 56,-57.5 56,-38.5 15,-38.5"/>
<text text-anchor="middle" x="35.5" y="-45.5" font-family="Helvetica,sans-Serif" font-size="10.00">main</text>
</a>
</g>
</g>
<!-- Node3&#45;&gt;Node4 -->
<g id="edge3" class="edge">
<title>Node3&#45;&gt;Node4</title>
<path fill="none" stroke="midnightblue" d="M102.63,-38.79C85.46,-41.18 68.47,-43.55 56.01,-45.28"/>
<polygon fill="midnightblue" stroke="midnightblue" points="103.31,-42.23 112.73,-37.39 102.34,-35.3 103.31,-42.23"/>
</g>
<!-- Node5 -->
<g id="node5" class="node">
<title>Node5</title>
<g id="a_node5"><a xlink:href="unit-json__patch_8cpp.html#a58658ae29d75546f62ea0ceb24fd3b20" target="_top" xlink:title=" ">
<polygon fill="white" stroke="black" points="0,-0.5 0,-19.5 71,-19.5 71,-0.5 0,-0.5"/>
<text text-anchor="middle" x="35.5" y="-7.5" font-family="Helvetica,sans-Serif" font-size="10.00">TEST_CASE</text>
</a>
</g>
</g>
<!-- Node3&#45;&gt;Node5 -->
<g id="edge4" class="edge">
<title>Node3&#45;&gt;Node5</title>
<path fill="none" stroke="midnightblue" d="M102.64,-19.21C91.64,-17.68 80.72,-16.16 71.01,-14.8"/>
<polygon fill="midnightblue" stroke="midnightblue" points="102.34,-22.7 112.73,-20.61 103.31,-15.77 102.34,-22.7"/>
</g>
</g>
</svg>
