<?xml version="1.0" encoding="UTF-8" standalone="no"?>
<!DOCTYPE svg PUBLIC "-//W3C//DTD SVG 1.1//EN"
 "http://www.w3.org/Graphics/SVG/1.1/DTD/svg11.dtd">
<!-- Generated by graphviz version 2.43.0 (0)
 -->
<!-- Title: httplib::ClientImpl::write_request Pages: 1 -->
<svg width="1130pt" height="632pt"
 viewBox="0.00 0.00 1130.00 631.66" xmlns="http://www.w3.org/2000/svg" xmlns:xlink="http://www.w3.org/1999/xlink">
<g id="graph0" class="graph" transform="scale(1 1) rotate(0) translate(4 627.66)">
<title>httplib::ClientImpl::write_request</title>
<polygon fill="white" stroke="transparent" points="-4,4 -4,-627.66 1126,-627.66 1126,4 -4,4"/>
<!-- Node1 -->
<g id="node1" class="node">
<title>Node1</title>
<g id="a_node1"><a xlink:title=" ">
<polygon fill="#bfbfbf" stroke="black" points="0,-352.66 0,-382.66 104,-382.66 104,-352.66 0,-352.66"/>
<text text-anchor="start" x="8" y="-370.66" font-family="Helvetica,sans-Serif" font-size="10.00">httplib::ClientImpl</text>
<text text-anchor="middle" x="52" y="-359.66" font-family="Helvetica,sans-Serif" font-size="10.00">::write_request</text>
</a>
</g>
</g>
<!-- Node2 -->
<g id="node2" class="node">
<title>Node2</title>
<g id="a_node2"><a xlink:href="namespacehttplib_1_1detail.html#af303bae3a748ade0f39ac8098fa50733" target="_top" xlink:title=" ">
<polygon fill="white" stroke="black" points="146,-604.16 146,-623.16 287,-623.16 287,-604.16 146,-604.16"/>
<text text-anchor="middle" x="216.5" y="-611.16" font-family="Helvetica,sans-Serif" font-size="10.00">httplib::detail::encode_url</text>
</a>
</g>
</g>
<!-- Node1&#45;&gt;Node2 -->
<g id="edge1" class="edge">
<title>Node1&#45;&gt;Node2</title>
<path fill="none" stroke="midnightblue" d="M54.13,-382.76C58.02,-423.51 74.49,-536.55 140,-594.66 141.77,-596.23 143.64,-597.67 145.61,-599"/>
<polygon fill="midnightblue" stroke="midnightblue" points="144.27,-602.26 154.7,-604.1 147.7,-596.16 144.27,-602.26"/>
</g>
<!-- Node4 -->
<g id="node4" class="node">
<title>Node4</title>
<g id="a_node4"><a xlink:href="classhttplib_1_1detail_1_1BufferStream.html#ab81fc1737b7c08ce72790fe1c348fad0" target="_top" xlink:title=" ">
<polygon fill="white" stroke="black" points="140,-554.66 140,-584.66 293,-584.66 293,-554.66 140,-554.66"/>
<text text-anchor="start" x="148" y="-572.66" font-family="Helvetica,sans-Serif" font-size="10.00">httplib::detail::BufferStream</text>
<text text-anchor="middle" x="216.5" y="-561.66" font-family="Helvetica,sans-Serif" font-size="10.00">::get_buffer</text>
</a>
</g>
</g>
<!-- Node1&#45;&gt;Node4 -->
<g id="edge3" class="edge">
<title>Node1&#45;&gt;Node4</title>
<path fill="none" stroke="midnightblue" d="M56.13,-382.78C64,-416.94 87.79,-500.61 140,-545.66 141.36,-546.84 142.78,-547.95 144.24,-549.02"/>
<polygon fill="midnightblue" stroke="midnightblue" points="142.76,-552.22 153.1,-554.52 146.46,-546.27 142.76,-552.22"/>
</g>
<!-- Node5 -->
<g id="node5" class="node">
<title>Node5</title>
<g id="a_node5"><a xlink:href="structhttplib_1_1Request.html#a15426727f1b20cfc4e021e97012ed541" target="_top" xlink:title=" ">
<polygon fill="white" stroke="black" points="158,-505.66 158,-535.66 275,-535.66 275,-505.66 158,-505.66"/>
<text text-anchor="start" x="166" y="-523.66" font-family="Helvetica,sans-Serif" font-size="10.00">httplib::Request::has</text>
<text text-anchor="middle" x="216.5" y="-512.66" font-family="Helvetica,sans-Serif" font-size="10.00">_header</text>
</a>
</g>
</g>
<!-- Node1&#45;&gt;Node5 -->
<g id="edge4" class="edge">
<title>Node1&#45;&gt;Node5</title>
<path fill="none" stroke="midnightblue" d="M59.17,-382.83C70.89,-409.74 98.91,-465.9 140,-496.66 142.78,-498.75 145.75,-500.65 148.84,-502.39"/>
<polygon fill="midnightblue" stroke="midnightblue" points="147.31,-505.54 157.82,-506.89 150.44,-499.28 147.31,-505.54"/>
</g>
<!-- Node7 -->
<g id="node7" class="node">
<title>Node7</title>
<g id="a_node7"><a xlink:href="classhttplib_1_1ClientImpl.html#a97baaca9b83724052db0897f306ca8a9" target="_top" xlink:title=" ">
<polygon fill="white" stroke="black" points="164.5,-456.66 164.5,-486.66 268.5,-486.66 268.5,-456.66 164.5,-456.66"/>
<text text-anchor="start" x="172.5" y="-474.66" font-family="Helvetica,sans-Serif" font-size="10.00">httplib::ClientImpl</text>
<text text-anchor="middle" x="216.5" y="-463.66" font-family="Helvetica,sans-Serif" font-size="10.00">::is_ssl</text>
</a>
</g>
</g>
<!-- Node1&#45;&gt;Node7 -->
<g id="edge6" class="edge">
<title>Node1&#45;&gt;Node7</title>
<path fill="none" stroke="midnightblue" d="M65.64,-382.76C81.36,-400.63 109.83,-430.16 140,-447.66 144.68,-450.38 149.71,-452.83 154.87,-455.03"/>
<polygon fill="midnightblue" stroke="midnightblue" points="153.66,-458.31 164.25,-458.72 156.23,-451.8 153.66,-458.31"/>
</g>
<!-- Node8 -->
<g id="node8" class="node">
<title>Node8</title>
<g id="a_node8"><a xlink:href="namespacehttplib.html#a6b202b4fd91bd8e6a10a83dba358bc02" target="_top" xlink:title=" ">
<polygon fill="white" stroke="black" points="151,-407.66 151,-437.66 282,-437.66 282,-407.66 151,-407.66"/>
<text text-anchor="start" x="159" y="-425.66" font-family="Helvetica,sans-Serif" font-size="10.00">httplib::make_basic</text>
<text text-anchor="middle" x="216.5" y="-414.66" font-family="Helvetica,sans-Serif" font-size="10.00">_authentication_header</text>
</a>
</g>
</g>
<!-- Node1&#45;&gt;Node8 -->
<g id="edge7" class="edge">
<title>Node1&#45;&gt;Node8</title>
<path fill="none" stroke="midnightblue" d="M96.33,-382.72C110.26,-387.53 125.77,-392.85 140,-397.66 146.42,-399.83 153.14,-402.09 159.83,-404.32"/>
<polygon fill="midnightblue" stroke="midnightblue" points="158.96,-407.72 169.55,-407.55 161.17,-401.07 158.96,-407.72"/>
</g>
<!-- Node10 -->
<g id="node10" class="node">
<title>Node10</title>
<g id="a_node10"><a xlink:href="namespacehttplib.html#aa082ee1ea10ce9c5132da091292799f3" target="_top" xlink:title=" ">
<polygon fill="white" stroke="black" points="154,-347.16 154,-388.16 279,-388.16 279,-347.16 154,-347.16"/>
<text text-anchor="start" x="162" y="-376.16" font-family="Helvetica,sans-Serif" font-size="10.00">httplib::make_bearer</text>
<text text-anchor="start" x="162" y="-365.16" font-family="Helvetica,sans-Serif" font-size="10.00">_token_authentication</text>
<text text-anchor="middle" x="216.5" y="-354.16" font-family="Helvetica,sans-Serif" font-size="10.00">_header</text>
</a>
</g>
</g>
<!-- Node1&#45;&gt;Node10 -->
<g id="edge9" class="edge">
<title>Node1&#45;&gt;Node10</title>
<path fill="none" stroke="midnightblue" d="M104.42,-367.66C116.94,-367.66 130.56,-367.66 143.83,-367.66"/>
<polygon fill="midnightblue" stroke="midnightblue" points="143.89,-371.16 153.89,-367.66 143.89,-364.16 143.89,-371.16"/>
</g>
<!-- Node11 -->
<g id="node11" class="node">
<title>Node11</title>
<g id="a_node11"><a xlink:href="structhttplib_1_1Request.html#af75d1bafb42f0a7f8a9f977b60324843" target="_top" xlink:title=" ">
<polygon fill="white" stroke="black" points="159,-297.66 159,-327.66 274,-327.66 274,-297.66 159,-297.66"/>
<text text-anchor="start" x="167" y="-315.66" font-family="Helvetica,sans-Serif" font-size="10.00">httplib::Request::set</text>
<text text-anchor="middle" x="216.5" y="-304.66" font-family="Helvetica,sans-Serif" font-size="10.00">_header</text>
</a>
</g>
</g>
<!-- Node1&#45;&gt;Node11 -->
<g id="edge10" class="edge">
<title>Node1&#45;&gt;Node11</title>
<path fill="none" stroke="midnightblue" d="M96.33,-352.6C110.26,-347.79 125.77,-342.47 140,-337.66 146.42,-335.5 153.14,-333.24 159.83,-331.01"/>
<polygon fill="midnightblue" stroke="midnightblue" points="161.17,-334.25 169.55,-327.78 158.96,-327.61 161.17,-334.25"/>
</g>
<!-- Node13 -->
<g id="node13" class="node">
<title>Node13</title>
<g id="a_node13"><a xlink:href="namespacehttplib.html#a498c3a79825ecbcb15c52ec5fcfd5c11" target="_top" xlink:title=" ">
<polygon fill="white" stroke="black" points="1025,-37.16 1025,-56.16 1122,-56.16 1122,-37.16 1025,-37.16"/>
<text text-anchor="middle" x="1073.5" y="-44.16" font-family="Helvetica,sans-Serif" font-size="10.00">httplib::to_string</text>
</a>
</g>
</g>
<!-- Node1&#45;&gt;Node13 -->
<g id="edge12" class="edge">
<title>Node1&#45;&gt;Node13</title>
<path fill="none" stroke="midnightblue" d="M55.63,-352.59C62.9,-314.81 86.36,-214.57 140,-151.66 224.47,-52.6 260.81,-0.66 391,-0.66 391,-0.66 391,-0.66 737,-0.66 849.32,-0.66 878.79,1.99 989,-19.66 1005.52,-22.91 1023.34,-28.38 1038.25,-33.56"/>
<polygon fill="midnightblue" stroke="midnightblue" points="1037.47,-36.99 1048.06,-37.06 1039.82,-30.4 1037.47,-36.99"/>
</g>
<!-- Node14 -->
<g id="node14" class="node">
<title>Node14</title>
<g id="a_node14"><a xlink:href="classhttplib_1_1ClientImpl.html#a32a67b25f6fbd37756192d7b840fc53f" target="_top" xlink:title=" ">
<polygon fill="white" stroke="black" points="158.5,-161.16 158.5,-202.16 274.5,-202.16 274.5,-161.16 158.5,-161.16"/>
<text text-anchor="start" x="166.5" y="-190.16" font-family="Helvetica,sans-Serif" font-size="10.00">httplib::ClientImpl</text>
<text text-anchor="start" x="166.5" y="-179.16" font-family="Helvetica,sans-Serif" font-size="10.00">::write_content_with</text>
<text text-anchor="middle" x="216.5" y="-168.16" font-family="Helvetica,sans-Serif" font-size="10.00">_provider</text>
</a>
</g>
</g>
<!-- Node1&#45;&gt;Node14 -->
<g id="edge13" class="edge">
<title>Node1&#45;&gt;Node14</title>
<path fill="none" stroke="midnightblue" d="M58.22,-352.36C69.06,-322.57 96.7,-256.29 140,-216.66 143.54,-213.42 147.44,-210.43 151.54,-207.68"/>
<polygon fill="midnightblue" stroke="midnightblue" points="153.5,-210.59 160.19,-202.37 149.83,-204.62 153.5,-210.59"/>
</g>
<!-- Node17 -->
<g id="node17" class="node">
<title>Node17</title>
<g id="a_node17"><a xlink:href="namespacehttplib_1_1detail.html#aefec7c4fea53eda1af3a7362002c5223" target="_top" xlink:title=" ">
<polygon fill="white" stroke="black" points="493.5,-221.16 493.5,-240.16 633.5,-240.16 633.5,-221.16 493.5,-221.16"/>
<text text-anchor="middle" x="563.5" y="-228.16" font-family="Helvetica,sans-Serif" font-size="10.00">httplib::detail::write_data</text>
</a>
</g>
</g>
<!-- Node1&#45;&gt;Node17 -->
<g id="edge29" class="edge">
<title>Node1&#45;&gt;Node17</title>
<path fill="none" stroke="midnightblue" d="M59.08,-352.44C70.48,-326.21 97.77,-273.15 140,-250.66 197.39,-220.1 377.58,-222.25 483.2,-226.48"/>
<polygon fill="midnightblue" stroke="midnightblue" points="483.36,-229.99 493.49,-226.91 483.65,-223 483.36,-229.99"/>
</g>
<!-- Node27 -->
<g id="node27" class="node">
<title>Node27</title>
<g id="a_node27"><a xlink:href="classhttplib_1_1Stream.html#a9892f60a65f59412ace397b7b6c4c93b" target="_top" xlink:title=" ">
<polygon fill="white" stroke="black" points="503.5,-259.66 503.5,-289.66 623.5,-289.66 623.5,-259.66 503.5,-259.66"/>
<text text-anchor="start" x="511.5" y="-277.66" font-family="Helvetica,sans-Serif" font-size="10.00">httplib::Stream::write</text>
<text text-anchor="middle" x="563.5" y="-266.66" font-family="Helvetica,sans-Serif" font-size="10.00">_format</text>
</a>
</g>
</g>
<!-- Node1&#45;&gt;Node27 -->
<g id="edge30" class="edge">
<title>Node1&#45;&gt;Node27</title>
<path fill="none" stroke="midnightblue" d="M63.93,-352.65C78.73,-333.7 107.1,-302 140,-288.66 256.78,-241.32 406.97,-251.18 493.22,-262.82"/>
<polygon fill="midnightblue" stroke="midnightblue" points="492.77,-266.29 503.16,-264.2 493.74,-259.35 492.77,-266.29"/>
</g>
<!-- Node3 -->
<g id="node3" class="node">
<title>Node3</title>
<g id="a_node3"><a xlink:href="FuzzerTracePC_8cpp.html#a1f10ac78bd11294b612636121065eb5b" target="_top" xlink:title=" ">
<polygon fill="white" stroke="black" points="368.5,-604.16 368.5,-623.16 415.5,-623.16 415.5,-604.16 368.5,-604.16"/>
<text text-anchor="middle" x="392" y="-611.16" font-family="Helvetica,sans-Serif" font-size="10.00">assert</text>
</a>
</g>
</g>
<!-- Node2&#45;&gt;Node3 -->
<g id="edge2" class="edge">
<title>Node2&#45;&gt;Node3</title>
<path fill="none" stroke="midnightblue" d="M287.07,-613.66C311.68,-613.66 338.22,-613.66 358.32,-613.66"/>
<polygon fill="midnightblue" stroke="midnightblue" points="358.48,-617.16 368.48,-613.66 358.48,-610.16 358.48,-617.16"/>
</g>
<!-- Node6 -->
<g id="node6" class="node">
<title>Node6</title>
<g id="a_node6"><a xlink:href="namespacehttplib_1_1detail.html#a275bacceee663280bb937fc79a7f3bce" target="_top" xlink:title=" ">
<polygon fill="white" stroke="black" points="339.5,-505.66 339.5,-535.66 444.5,-535.66 444.5,-505.66 339.5,-505.66"/>
<text text-anchor="start" x="347.5" y="-523.66" font-family="Helvetica,sans-Serif" font-size="10.00">httplib::detail::has</text>
<text text-anchor="middle" x="392" y="-512.66" font-family="Helvetica,sans-Serif" font-size="10.00">_header</text>
</a>
</g>
</g>
<!-- Node5&#45;&gt;Node6 -->
<g id="edge5" class="edge">
<title>Node5&#45;&gt;Node6</title>
<path fill="none" stroke="midnightblue" d="M275.27,-520.66C292.58,-520.66 311.62,-520.66 329.18,-520.66"/>
<polygon fill="midnightblue" stroke="midnightblue" points="329.32,-524.16 339.32,-520.66 329.31,-517.16 329.32,-524.16"/>
</g>
<!-- Node9 -->
<g id="node9" class="node">
<title>Node9</title>
<g id="a_node9"><a xlink:href="namespacehttplib_1_1detail.html#a455e8db9d2cc4c24565af6d9b884eeaf" target="_top" xlink:title=" ">
<polygon fill="white" stroke="black" points="330.5,-407.66 330.5,-437.66 453.5,-437.66 453.5,-407.66 330.5,-407.66"/>
<text text-anchor="start" x="338.5" y="-425.66" font-family="Helvetica,sans-Serif" font-size="10.00">httplib::detail::base64</text>
<text text-anchor="middle" x="392" y="-414.66" font-family="Helvetica,sans-Serif" font-size="10.00">_encode</text>
</a>
</g>
</g>
<!-- Node8&#45;&gt;Node9 -->
<g id="edge8" class="edge">
<title>Node8&#45;&gt;Node9</title>
<path fill="none" stroke="midnightblue" d="M282.1,-422.66C294.57,-422.66 307.69,-422.66 320.34,-422.66"/>
<polygon fill="midnightblue" stroke="midnightblue" points="320.36,-426.16 330.36,-422.66 320.36,-419.16 320.36,-426.16"/>
</g>
<!-- Node12 -->
<g id="node12" class="node">
<title>Node12</title>
<g id="a_node12"><a xlink:href="namespacehttplib_1_1detail.html#a1bfcbc5ada5082188cc2b7399ed019f2" target="_top" xlink:title=" ">
<polygon fill="white" stroke="black" points="329,-303.16 329,-322.16 455,-322.16 455,-303.16 329,-303.16"/>
<text text-anchor="middle" x="392" y="-310.16" font-family="Helvetica,sans-Serif" font-size="10.00">httplib::detail::has_crlf</text>
</a>
</g>
</g>
<!-- Node11&#45;&gt;Node12 -->
<g id="edge11" class="edge">
<title>Node11&#45;&gt;Node12</title>
<path fill="none" stroke="midnightblue" d="M274.31,-312.66C288.52,-312.66 303.96,-312.66 318.81,-312.66"/>
<polygon fill="midnightblue" stroke="midnightblue" points="318.97,-316.16 328.97,-312.66 318.97,-309.16 318.97,-316.16"/>
</g>
<!-- Node15 -->
<g id="node15" class="node">
<title>Node15</title>
<g id="a_node15"><a xlink:href="namespacehttplib_1_1detail.html#ac17dd7d7a80ce12e5966f5f577b67a75" target="_top" xlink:title=" ">
<polygon fill="white" stroke="black" points="335.5,-171.66 335.5,-201.66 448.5,-201.66 448.5,-171.66 335.5,-171.66"/>
<text text-anchor="start" x="343.5" y="-189.66" font-family="Helvetica,sans-Serif" font-size="10.00">httplib::detail::write</text>
<text text-anchor="middle" x="392" y="-178.66" font-family="Helvetica,sans-Serif" font-size="10.00">_content</text>
</a>
</g>
</g>
<!-- Node14&#45;&gt;Node15 -->
<g id="edge14" class="edge">
<title>Node14&#45;&gt;Node15</title>
<path fill="none" stroke="midnightblue" d="M274.79,-183.31C290.89,-183.78 308.53,-184.29 325.1,-184.76"/>
<polygon fill="midnightblue" stroke="midnightblue" points="325.15,-188.27 335.24,-185.06 325.35,-181.27 325.15,-188.27"/>
</g>
<!-- Node19 -->
<g id="node19" class="node">
<title>Node19</title>
<g id="a_node19"><a xlink:href="namespacehttplib_1_1detail.html#af586311a8460e53bac51d7d02802ede9" target="_top" xlink:title=" ">
<polygon fill="white" stroke="black" points="335.5,-122.66 335.5,-152.66 448.5,-152.66 448.5,-122.66 335.5,-122.66"/>
<text text-anchor="start" x="343.5" y="-140.66" font-family="Helvetica,sans-Serif" font-size="10.00">httplib::detail::write</text>
<text text-anchor="middle" x="392" y="-129.66" font-family="Helvetica,sans-Serif" font-size="10.00">_content_chunked</text>
</a>
</g>
</g>
<!-- Node14&#45;&gt;Node19 -->
<g id="edge18" class="edge">
<title>Node14&#45;&gt;Node19</title>
<path fill="none" stroke="midnightblue" d="M274.79,-167.13C290.89,-163.05 308.53,-158.58 325.1,-154.38"/>
<polygon fill="midnightblue" stroke="midnightblue" points="326.41,-157.65 335.24,-151.8 324.69,-150.87 326.41,-157.65"/>
</g>
<!-- Node16 -->
<g id="node16" class="node">
<title>Node16</title>
<g id="a_node16"><a xlink:href="classhttplib_1_1Stream.html#ab10c55e43ccf0146c4d142e53a58a831" target="_top" xlink:title=" ">
<polygon fill="white" stroke="black" points="511.5,-171.66 511.5,-201.66 615.5,-201.66 615.5,-171.66 511.5,-171.66"/>
<text text-anchor="start" x="519.5" y="-189.66" font-family="Helvetica,sans-Serif" font-size="10.00">httplib::Stream::is</text>
<text text-anchor="middle" x="563.5" y="-178.66" font-family="Helvetica,sans-Serif" font-size="10.00">_writable</text>
</a>
</g>
</g>
<!-- Node15&#45;&gt;Node16 -->
<g id="edge15" class="edge">
<title>Node15&#45;&gt;Node16</title>
<path fill="none" stroke="midnightblue" d="M448.5,-186.66C465.29,-186.66 483.83,-186.66 500.99,-186.66"/>
<polygon fill="midnightblue" stroke="midnightblue" points="501.46,-190.16 511.46,-186.66 501.46,-183.16 501.46,-190.16"/>
</g>
<!-- Node15&#45;&gt;Node17 -->
<g id="edge16" class="edge">
<title>Node15&#45;&gt;Node17</title>
<path fill="none" stroke="midnightblue" d="M448.5,-201.07C470.32,-206.74 495.09,-213.17 515.96,-218.58"/>
<polygon fill="midnightblue" stroke="midnightblue" points="515.3,-222.03 525.85,-221.15 517.05,-215.25 515.3,-222.03"/>
</g>
<!-- Node18 -->
<g id="node18" class="node">
<title>Node18</title>
<g id="a_node18"><a xlink:href="classhttplib_1_1Stream.html#a4b94583ae90065c9e4e33a7752d9976f" target="_top" xlink:title=" ">
<polygon fill="white" stroke="black" points="676,-243.16 676,-262.16 796,-262.16 796,-243.16 676,-243.16"/>
<text text-anchor="middle" x="736" y="-250.16" font-family="Helvetica,sans-Serif" font-size="10.00">httplib::Stream::write</text>
</a>
</g>
</g>
<!-- Node17&#45;&gt;Node18 -->
<g id="edge17" class="edge">
<title>Node17&#45;&gt;Node18</title>
<path fill="none" stroke="midnightblue" d="M633.85,-239.61C644.4,-240.97 655.29,-242.38 665.83,-243.74"/>
<polygon fill="midnightblue" stroke="midnightblue" points="665.45,-247.22 675.82,-245.03 666.35,-240.28 665.45,-247.22"/>
</g>
<!-- Node19&#45;&gt;Node16 -->
<g id="edge21" class="edge">
<title>Node19&#45;&gt;Node16</title>
<path fill="none" stroke="midnightblue" d="M445.24,-152.76C463.05,-157.91 483.12,-163.71 501.55,-169.04"/>
<polygon fill="midnightblue" stroke="midnightblue" points="500.73,-172.45 511.31,-171.86 502.67,-165.72 500.73,-172.45"/>
</g>
<!-- Node19&#45;&gt;Node17 -->
<g id="edge28" class="edge">
<title>Node19&#45;&gt;Node17</title>
<path fill="none" stroke="midnightblue" d="M438.96,-152.78C444.64,-155.61 450.14,-158.89 455,-162.66 476.34,-179.24 468.67,-196.44 491,-211.66 494.04,-213.74 497.3,-215.59 500.69,-217.24"/>
<polygon fill="midnightblue" stroke="midnightblue" points="499.33,-220.46 509.91,-221.14 502.06,-214.02 499.33,-220.46"/>
</g>
<!-- Node20 -->
<g id="node20" class="node">
<title>Node20</title>
<g id="a_node20"><a xlink:href="classhttplib_1_1detail_1_1compressor.html#a7cf1de9ae8f5d01316de7b666e66192d" target="_top" xlink:title=" ">
<polygon fill="white" stroke="black" points="491,-122.66 491,-152.66 636,-152.66 636,-122.66 491,-122.66"/>
<text text-anchor="start" x="499" y="-140.66" font-family="Helvetica,sans-Serif" font-size="10.00">httplib::detail::compressor</text>
<text text-anchor="middle" x="563.5" y="-129.66" font-family="Helvetica,sans-Serif" font-size="10.00">::compress</text>
</a>
</g>
</g>
<!-- Node19&#45;&gt;Node20 -->
<g id="edge19" class="edge">
<title>Node19&#45;&gt;Node20</title>
<path fill="none" stroke="midnightblue" d="M448.5,-137.66C458.85,-137.66 469.86,-137.66 480.81,-137.66"/>
<polygon fill="midnightblue" stroke="midnightblue" points="480.82,-141.16 490.82,-137.66 480.82,-134.16 480.82,-141.16"/>
</g>
<!-- Node21 -->
<g id="node21" class="node">
<title>Node21</title>
<g id="a_node21"><a xlink:href="namespacehttplib_1_1detail.html#ac08f80eff074b5a4adcb6e160a1380a5" target="_top" xlink:title=" ">
<polygon fill="white" stroke="black" points="508,-73.66 508,-103.66 619,-103.66 619,-73.66 508,-73.66"/>
<text text-anchor="start" x="516" y="-91.66" font-family="Helvetica,sans-Serif" font-size="10.00">httplib::detail::from</text>
<text text-anchor="middle" x="563.5" y="-80.66" font-family="Helvetica,sans-Serif" font-size="10.00">_i_to_hex</text>
</a>
</g>
</g>
<!-- Node19&#45;&gt;Node21 -->
<g id="edge20" class="edge">
<title>Node19&#45;&gt;Node21</title>
<path fill="none" stroke="midnightblue" d="M445.24,-122.56C462.8,-117.48 482.56,-111.77 500.78,-106.51"/>
<polygon fill="midnightblue" stroke="midnightblue" points="501.8,-109.85 510.43,-103.71 499.86,-103.13 501.8,-109.85"/>
</g>
<!-- Node22 -->
<g id="node22" class="node">
<title>Node22</title>
<g id="a_node22"><a xlink:href="namespacenlohmann_1_1detail.html#a59fca69799f6b9e366710cb9043aa77d" target="_top" xlink:title=" ">
<polygon fill="white" stroke="black" points="500.5,-35.16 500.5,-54.16 626.5,-54.16 626.5,-35.16 500.5,-35.16"/>
<text text-anchor="middle" x="563.5" y="-42.16" font-family="Helvetica,sans-Serif" font-size="10.00">nlohmann::detail::void</text>
</a>
</g>
</g>
<!-- Node19&#45;&gt;Node22 -->
<g id="edge22" class="edge">
<title>Node19&#45;&gt;Node22</title>
<path fill="none" stroke="midnightblue" d="M409.02,-122.4C427.42,-105.67 459.18,-79.16 491,-63.66 495.91,-61.27 501.16,-59.15 506.5,-57.28"/>
<polygon fill="midnightblue" stroke="midnightblue" points="507.71,-60.56 516.16,-54.17 505.57,-53.9 507.71,-60.56"/>
</g>
<!-- Node23 -->
<g id="node23" class="node">
<title>Node23</title>
<g id="a_node23"><a xlink:href="classnlohmann_1_1detail_1_1type__error.html#aecc083aea4b698c33d042670ba50c10f" target="_top" xlink:title=" ">
<polygon fill="white" stroke="black" points="672.5,-78.66 672.5,-108.66 799.5,-108.66 799.5,-78.66 672.5,-78.66"/>
<text text-anchor="start" x="680.5" y="-96.66" font-family="Helvetica,sans-Serif" font-size="10.00">nlohmann::detail::type</text>
<text text-anchor="middle" x="736" y="-85.66" font-family="Helvetica,sans-Serif" font-size="10.00">_error::create</text>
</a>
</g>
</g>
<!-- Node22&#45;&gt;Node23 -->
<g id="edge23" class="edge">
<title>Node22&#45;&gt;Node23</title>
<path fill="none" stroke="midnightblue" d="M601.31,-54.18C612.47,-57.14 624.76,-60.47 636,-63.66 649.28,-67.44 663.5,-71.65 676.91,-75.7"/>
<polygon fill="midnightblue" stroke="midnightblue" points="675.92,-79.05 686.51,-78.6 677.95,-72.35 675.92,-79.05"/>
</g>
<!-- Node26 -->
<g id="node26" class="node">
<title>Node26</title>
<g id="a_node26"><a xlink:href="namespacenlohmann_1_1detail.html#a40f7bb070a60e8ba14fffb9c117fcbd8" target="_top" xlink:title=" ">
<polygon fill="white" stroke="black" points="672,-29.66 672,-59.66 800,-59.66 800,-29.66 672,-29.66"/>
<text text-anchor="start" x="680" y="-47.66" font-family="Helvetica,sans-Serif" font-size="10.00">nlohmann::detail::from</text>
<text text-anchor="middle" x="736" y="-36.66" font-family="Helvetica,sans-Serif" font-size="10.00">_json_array_impl</text>
</a>
</g>
</g>
<!-- Node22&#45;&gt;Node26 -->
<g id="edge27" class="edge">
<title>Node22&#45;&gt;Node26</title>
<path fill="none" stroke="midnightblue" d="M626.54,-44.66C637.95,-44.66 649.97,-44.66 661.68,-44.66"/>
<polygon fill="midnightblue" stroke="midnightblue" points="661.87,-48.16 671.87,-44.66 661.87,-41.16 661.87,-48.16"/>
</g>
<!-- Node24 -->
<g id="node24" class="node">
<title>Node24</title>
<g id="a_node24"><a xlink:href="classnlohmann_1_1detail_1_1exception.html#abf41a7e9178356314082284e6cfea278" target="_top" xlink:title=" ">
<polygon fill="white" stroke="black" points="836,-78.66 836,-108.66 989,-108.66 989,-78.66 836,-78.66"/>
<text text-anchor="start" x="844" y="-96.66" font-family="Helvetica,sans-Serif" font-size="10.00">nlohmann::detail::exception</text>
<text text-anchor="middle" x="912.5" y="-85.66" font-family="Helvetica,sans-Serif" font-size="10.00">::name</text>
</a>
</g>
</g>
<!-- Node23&#45;&gt;Node24 -->
<g id="edge24" class="edge">
<title>Node23&#45;&gt;Node24</title>
<path fill="none" stroke="midnightblue" d="M799.51,-93.66C807.94,-93.66 816.71,-93.66 825.47,-93.66"/>
<polygon fill="midnightblue" stroke="midnightblue" points="825.72,-97.16 835.72,-93.66 825.72,-90.16 825.72,-97.16"/>
</g>
<!-- Node25 -->
<g id="node25" class="node">
<title>Node25</title>
<g id="a_node25"><a xlink:href="classnlohmann_1_1detail_1_1type__error.html#aa01edaa0bf18b853368f0b900e485cd7" target="_top" xlink:title=" ">
<polygon fill="white" stroke="black" points="849,-29.66 849,-59.66 976,-59.66 976,-29.66 849,-29.66"/>
<text text-anchor="start" x="857" y="-47.66" font-family="Helvetica,sans-Serif" font-size="10.00">nlohmann::detail::type</text>
<text text-anchor="middle" x="912.5" y="-36.66" font-family="Helvetica,sans-Serif" font-size="10.00">_error::type_error</text>
</a>
</g>
</g>
<!-- Node23&#45;&gt;Node25 -->
<g id="edge26" class="edge">
<title>Node23&#45;&gt;Node25</title>
<path fill="none" stroke="midnightblue" d="M790.78,-78.56C808.94,-73.46 829.39,-67.72 848.22,-62.43"/>
<polygon fill="midnightblue" stroke="midnightblue" points="849.22,-65.79 857.9,-59.71 847.32,-59.05 849.22,-65.79"/>
</g>
<!-- Node24&#45;&gt;Node13 -->
<g id="edge25" class="edge">
<title>Node24&#45;&gt;Node13</title>
<path fill="none" stroke="midnightblue" d="M964.25,-78.66C985.65,-72.34 1010.26,-65.06 1030.6,-59.05"/>
<polygon fill="midnightblue" stroke="midnightblue" points="1031.62,-62.4 1040.21,-56.21 1029.63,-55.69 1031.62,-62.4"/>
</g>
<!-- Node27&#45;&gt;Node18 -->
<g id="edge31" class="edge">
<title>Node27&#45;&gt;Node18</title>
<path fill="none" stroke="midnightblue" d="M623.65,-267.03C637.28,-265.27 651.88,-263.39 665.88,-261.58"/>
<polygon fill="midnightblue" stroke="midnightblue" points="666.48,-265.03 675.95,-260.28 665.58,-258.09 666.48,-265.03"/>
</g>
</g>
</svg>
