<?xml version="1.0" encoding="UTF-8" standalone="no"?>
<!DOCTYPE svg PUBLIC "-//W3C//DTD SVG 1.1//EN"
 "http://www.w3.org/Graphics/SVG/1.1/DTD/svg11.dtd">
<!-- Generated by graphviz version 2.43.0 (0)
 -->
<!-- Title: fuzzer::Fuzzer::TimedOut Pages: 1 -->
<svg width="729pt" height="78pt"
 viewBox="0.00 0.00 729.00 77.50" xmlns="http://www.w3.org/2000/svg" xmlns:xlink="http://www.w3.org/1999/xlink">
<g id="graph0" class="graph" transform="scale(1 1) rotate(0) translate(4 73.5)">
<title>fuzzer::Fuzzer::TimedOut</title>
<polygon fill="white" stroke="transparent" points="-4,4 -4,-73.5 725,-73.5 725,4 -4,4"/>
<!-- Node1 -->
<g id="node1" class="node">
<title>Node1</title>
<g id="a_node1"><a xlink:title=" ">
<polygon fill="#bfbfbf" stroke="black" points="584,-28 584,-47 721,-47 721,-28 584,-28"/>
<text text-anchor="middle" x="652.5" y="-35" font-family="Helvetica,sans-Serif" font-size="10.00">fuzzer::Fuzzer::TimedOut</text>
</a>
</g>
</g>
<!-- Node2 -->
<g id="node2" class="node">
<title>Node2</title>
<g id="a_node2"><a xlink:href="classfuzzer_1_1Fuzzer.html#a0306e29f06ced3d24ed0417ea2fef34b" target="_top" xlink:title=" ">
<polygon fill="white" stroke="black" points="245.5,-50 245.5,-69 358.5,-69 358.5,-50 245.5,-50"/>
<text text-anchor="middle" x="302" y="-57" font-family="Helvetica,sans-Serif" font-size="10.00">fuzzer::Fuzzer::Loop</text>
</a>
</g>
</g>
<!-- Node1&#45;&gt;Node2 -->
<g id="edge1" class="edge">
<title>Node1&#45;&gt;Node2</title>
<path fill="none" stroke="midnightblue" d="M573.65,-42.41C508.38,-46.54 416.77,-52.32 358.65,-55.99"/>
<polygon fill="midnightblue" stroke="midnightblue" points="574.13,-45.89 583.89,-41.77 573.69,-38.9 574.13,-45.89"/>
</g>
<!-- Node5 -->
<g id="node5" class="node">
<title>Node5</title>
<g id="a_node5"><a xlink:href="classfuzzer_1_1Fuzzer.html#a54326d89b0de8eb858c70dfa78c5cc57" target="_top" xlink:title=" ">
<polygon fill="white" stroke="black" points="413,-0.5 413,-30.5 548,-30.5 548,-0.5 413,-0.5"/>
<text text-anchor="start" x="421" y="-18.5" font-family="Helvetica,sans-Serif" font-size="10.00">fuzzer::Fuzzer::Minimize</text>
<text text-anchor="middle" x="480.5" y="-7.5" font-family="Helvetica,sans-Serif" font-size="10.00">CrashLoop</text>
</a>
</g>
</g>
<!-- Node1&#45;&gt;Node5 -->
<g id="edge4" class="edge">
<title>Node1&#45;&gt;Node5</title>
<path fill="none" stroke="midnightblue" d="M573.81,-27.45C565.23,-26.34 556.54,-25.21 548.11,-24.12"/>
<polygon fill="midnightblue" stroke="midnightblue" points="573.46,-30.93 583.82,-28.74 574.35,-23.99 573.46,-30.93"/>
</g>
<!-- Node3 -->
<g id="node3" class="node">
<title>Node3</title>
<g id="a_node3"><a xlink:href="namespacefuzzer.html#a78f142089de84c6cbf7b5cab5f766af7" target="_top" xlink:title=" ">
<polygon fill="white" stroke="black" points="77,-28 77,-47 191,-47 191,-28 77,-28"/>
<text text-anchor="middle" x="134" y="-35" font-family="Helvetica,sans-Serif" font-size="10.00">fuzzer::FuzzerDriver</text>
</a>
</g>
</g>
<!-- Node2&#45;&gt;Node3 -->
<g id="edge2" class="edge">
<title>Node2&#45;&gt;Node3</title>
<path fill="none" stroke="midnightblue" d="M235.29,-50.79C220.69,-48.86 205.34,-46.82 191.16,-44.94"/>
<polygon fill="midnightblue" stroke="midnightblue" points="234.89,-54.27 245.26,-52.11 235.81,-47.33 234.89,-54.27"/>
</g>
<!-- Node4 -->
<g id="node4" class="node">
<title>Node4</title>
<g id="a_node4"><a xlink:href="FuzzerMain_8cpp.html#a3c04138a5bfe5d72780bb7e82a18e627" target="_top" xlink:title=" ">
<polygon fill="white" stroke="black" points="0,-28 0,-47 41,-47 41,-28 0,-28"/>
<text text-anchor="middle" x="20.5" y="-35" font-family="Helvetica,sans-Serif" font-size="10.00">main</text>
</a>
</g>
</g>
<!-- Node3&#45;&gt;Node4 -->
<g id="edge3" class="edge">
<title>Node3&#45;&gt;Node4</title>
<path fill="none" stroke="midnightblue" d="M66.7,-37.5C57.37,-37.5 48.45,-37.5 41.04,-37.5"/>
<polygon fill="midnightblue" stroke="midnightblue" points="66.92,-41 76.92,-37.5 66.92,-34 66.92,-41"/>
</g>
<!-- Node6 -->
<g id="node6" class="node">
<title>Node6</title>
<g id="a_node6"><a xlink:href="namespacefuzzer.html#a1553a49adb4d4d19b4f4dd52ff54cb68" target="_top" xlink:title=" ">
<polygon fill="white" stroke="black" points="227,-0.5 227,-30.5 377,-30.5 377,-0.5 227,-0.5"/>
<text text-anchor="start" x="235" y="-18.5" font-family="Helvetica,sans-Serif" font-size="10.00">fuzzer::MinimizeCrashInput</text>
<text text-anchor="middle" x="302" y="-7.5" font-family="Helvetica,sans-Serif" font-size="10.00">InternalStep</text>
</a>
</g>
</g>
<!-- Node5&#45;&gt;Node6 -->
<g id="edge5" class="edge">
<title>Node5&#45;&gt;Node6</title>
<path fill="none" stroke="midnightblue" d="M402.59,-15.5C394.16,-15.5 385.6,-15.5 377.21,-15.5"/>
<polygon fill="midnightblue" stroke="midnightblue" points="402.77,-19 412.77,-15.5 402.77,-12 402.77,-19"/>
</g>
<!-- Node6&#45;&gt;Node3 -->
<g id="edge6" class="edge">
<title>Node6&#45;&gt;Node3</title>
<path fill="none" stroke="midnightblue" d="M216.65,-26.68C208.05,-27.82 199.46,-28.96 191.27,-30.04"/>
<polygon fill="midnightblue" stroke="midnightblue" points="217.29,-30.13 226.74,-25.34 216.37,-23.19 217.29,-30.13"/>
</g>
</g>
</svg>
