<?xml version="1.0" encoding="UTF-8" standalone="no"?>
<!DOCTYPE svg PUBLIC "-//W3C//DTD SVG 1.1//EN"
 "http://www.w3.org/Graphics/SVG/1.1/DTD/svg11.dtd">
<!-- Generated by graphviz version 2.43.0 (0)
 -->
<!-- Title: nlohmann::basic_json::insert Pages: 1 -->
<!--zoomable 210 -->
<svg id="main" version="1.1" xmlns="http://www.w3.org/2000/svg" xmlns:xlink="http://www.w3.org/1999/xlink" xml:space="preserve" onload="init(evt)">
<style type="text/css"><![CDATA[
.edge:hover path { stroke: red; }
.edge:hover polygon { stroke: red; fill: red; }
]]></style>
<script type="text/javascript"><![CDATA[
var edges = document.getElementsByTagName('g');
if (edges && edges.length) {
  for (var i=0;i<edges.length;i++) {
    if (edges[i].id.substr(0,4)=='edge') {
      edges[i].setAttribute('class','edge');
    }
  }
}
]]></script>
        <defs>
                <circle id="rim" cx="0" cy="0" r="7"/>
                <circle id="rim2" cx="0" cy="0" r="3.5"/>
                <g id="zoomPlus">
                        <use xlink:href="#rim" fill="#404040">
                                <set attributeName="fill" to="#808080" begin="zoomplus.mouseover" end="zoomplus.mouseout"/>
                        </use>
                        <path d="M-4,0h8M0,-4v8" fill="none" stroke="white" stroke-width="1.5" pointer-events="none"/>
                </g>
                <g id="zoomMin">
                        <use xlink:href="#rim" fill="#404040">
                                <set attributeName="fill" to="#808080" begin="zoomminus.mouseover" end="zoomminus.mouseout"/>
                        </use>
                        <path d="M-4,0h8" fill="none" stroke="white" stroke-width="1.5" pointer-events="none"/>
                </g>
                <g id="dirArrow">
                        <path fill="none" stroke="white" stroke-width="1.5" d="M0,-3.0v7 M-2.5,-0.5L0,-3.0L2.5,-0.5"/>
                </g>
               <g id="resetDef">
                       <use xlink:href="#rim2" fill="#404040">
                               <set attributeName="fill" to="#808080" begin="reset.mouseover" end="reset.mouseout"/>
                       </use>
               </g>
        </defs>

<script type="text/javascript">
var viewWidth = 626;
var viewHeight = 210;
var sectionId = 'dynsection-170';
</script>
<script xlink:href="svgpan.js"/>
<svg id="graph" class="graph">
<g id="viewport">
<title>nlohmann::basic_json::insert</title>
<polygon fill="white" stroke="transparent" points="-4,4 -4,-206 622,-206 622,4 -4,4"/>
<!-- Node1 -->
<g id="node1" class="node">
<title>Node1</title>
<g id="a_node1"><a xlink:title="inserts elements">
<polygon fill="#bfbfbf" stroke="black" points="0,-73.5 0,-103.5 122,-103.5 122,-73.5 0,-73.5"/>
<text text-anchor="start" x="8" y="-91.5" font-family="Helvetica,sans-Serif" font-size="10.00">nlohmann::basic_json</text>
<text text-anchor="middle" x="61" y="-80.5" font-family="Helvetica,sans-Serif" font-size="10.00">::insert</text>
</a>
</g>
</g>
<!-- Node2 -->
<g id="node2" class="node">
<title>Node2</title>
<g id="a_node2"><a xlink:href="classnlohmann_1_1detail_1_1invalid__iterator.html#a4e849260a3caa1b288c7e619130c6c09" target="_top" xlink:title=" ">
<polygon fill="white" stroke="black" points="158,-147.5 158,-177.5 296,-177.5 296,-147.5 158,-147.5"/>
<text text-anchor="start" x="166" y="-165.5" font-family="Helvetica,sans-Serif" font-size="10.00">nlohmann::detail::invalid</text>
<text text-anchor="middle" x="227" y="-154.5" font-family="Helvetica,sans-Serif" font-size="10.00">_iterator::create</text>
</a>
</g>
</g>
<!-- Node1&#45;&gt;Node2 -->
<g id="edge1" class="edge">
<title>Node1&#45;&gt;Node2</title>
<path fill="none" stroke="midnightblue" d="M89.31,-103.54C108.29,-113.73 134.34,-127.16 158,-137.5 162.78,-139.59 167.79,-141.65 172.83,-143.65"/>
<polygon fill="midnightblue" stroke="midnightblue" points="171.93,-147.06 182.52,-147.4 174.46,-140.53 171.93,-147.06"/>
</g>
<!-- Node6 -->
<g id="node6" class="node">
<title>Node6</title>
<g id="a_node6"><a xlink:href="classnlohmann_1_1detail_1_1type__error.html#aecc083aea4b698c33d042670ba50c10f" target="_top" xlink:title=" ">
<polygon fill="white" stroke="black" points="163.5,-98.5 163.5,-128.5 290.5,-128.5 290.5,-98.5 163.5,-98.5"/>
<text text-anchor="start" x="171.5" y="-116.5" font-family="Helvetica,sans-Serif" font-size="10.00">nlohmann::detail::type</text>
<text text-anchor="middle" x="227" y="-105.5" font-family="Helvetica,sans-Serif" font-size="10.00">_error::create</text>
</a>
</g>
</g>
<!-- Node1&#45;&gt;Node6 -->
<g id="edge5" class="edge">
<title>Node1&#45;&gt;Node6</title>
<path fill="none" stroke="midnightblue" d="M122.14,-97.67C132.32,-99.22 142.99,-100.85 153.45,-102.44"/>
<polygon fill="midnightblue" stroke="midnightblue" points="152.98,-105.91 163.39,-103.96 154.04,-98.99 152.98,-105.91"/>
</g>
<!-- Node8 -->
<g id="node8" class="node">
<title>Node8</title>
<g id="a_node8"><a xlink:href="classnlohmann_1_1basic__json.html#af8f511af124e82e4579f444b4175787c" target="_top" xlink:title="return whether value is an object">
<polygon fill="white" stroke="black" points="166,-49.5 166,-79.5 288,-79.5 288,-49.5 166,-49.5"/>
<text text-anchor="start" x="174" y="-67.5" font-family="Helvetica,sans-Serif" font-size="10.00">nlohmann::basic_json</text>
<text text-anchor="middle" x="227" y="-56.5" font-family="Helvetica,sans-Serif" font-size="10.00">::is_object</text>
</a>
</g>
</g>
<!-- Node1&#45;&gt;Node8 -->
<g id="edge8" class="edge">
<title>Node1&#45;&gt;Node8</title>
<path fill="none" stroke="midnightblue" d="M122.14,-79.7C133.05,-78.1 144.53,-76.42 155.71,-74.79"/>
<polygon fill="midnightblue" stroke="midnightblue" points="156.48,-78.21 165.87,-73.3 155.47,-71.28 156.48,-78.21"/>
</g>
<!-- Node9 -->
<g id="node9" class="node">
<title>Node9</title>
<g id="a_node9"><a xlink:href="classnlohmann_1_1basic__json.html#ad14563c53cf7ca9189bc164082367bf3" target="_top" xlink:title="return the type as string">
<polygon fill="white" stroke="black" points="166,-0.5 166,-30.5 288,-30.5 288,-0.5 166,-0.5"/>
<text text-anchor="start" x="174" y="-18.5" font-family="Helvetica,sans-Serif" font-size="10.00">nlohmann::basic_json</text>
<text text-anchor="middle" x="227" y="-7.5" font-family="Helvetica,sans-Serif" font-size="10.00">::type_name</text>
</a>
</g>
</g>
<!-- Node1&#45;&gt;Node9 -->
<g id="edge9" class="edge">
<title>Node1&#45;&gt;Node9</title>
<path fill="none" stroke="midnightblue" d="M89.26,-73.36C108.23,-63.13 134.27,-49.69 158,-39.5 162.19,-37.7 166.56,-35.93 170.98,-34.21"/>
<polygon fill="midnightblue" stroke="midnightblue" points="172.57,-37.35 180.69,-30.55 170.09,-30.81 172.57,-37.35"/>
</g>
<!-- Node3 -->
<g id="node3" class="node">
<title>Node3</title>
<g id="a_node3"><a xlink:href="classnlohmann_1_1detail_1_1invalid__iterator.html#adf4a6697420f3bddb4addfc0b98f6ee2" target="_top" xlink:title=" ">
<polygon fill="white" stroke="black" points="339.5,-171.5 339.5,-201.5 477.5,-201.5 477.5,-171.5 339.5,-171.5"/>
<text text-anchor="start" x="347.5" y="-189.5" font-family="Helvetica,sans-Serif" font-size="10.00">nlohmann::detail::invalid</text>
<text text-anchor="middle" x="408.5" y="-178.5" font-family="Helvetica,sans-Serif" font-size="10.00">_iterator::invalid_iterator</text>
</a>
</g>
</g>
<!-- Node2&#45;&gt;Node3 -->
<g id="edge2" class="edge">
<title>Node2&#45;&gt;Node3</title>
<path fill="none" stroke="midnightblue" d="M296.12,-171.61C306.98,-173.06 318.28,-174.57 329.35,-176.05"/>
<polygon fill="midnightblue" stroke="midnightblue" points="329.05,-179.54 339.43,-177.4 329.98,-172.6 329.05,-179.54"/>
</g>
<!-- Node4 -->
<g id="node4" class="node">
<title>Node4</title>
<g id="a_node4"><a xlink:href="classnlohmann_1_1detail_1_1exception.html#abf41a7e9178356314082284e6cfea278" target="_top" xlink:title=" ">
<polygon fill="white" stroke="black" points="332,-122.5 332,-152.5 485,-152.5 485,-122.5 332,-122.5"/>
<text text-anchor="start" x="340" y="-140.5" font-family="Helvetica,sans-Serif" font-size="10.00">nlohmann::detail::exception</text>
<text text-anchor="middle" x="408.5" y="-129.5" font-family="Helvetica,sans-Serif" font-size="10.00">::name</text>
</a>
</g>
</g>
<!-- Node2&#45;&gt;Node4 -->
<g id="edge3" class="edge">
<title>Node2&#45;&gt;Node4</title>
<path fill="none" stroke="midnightblue" d="M296.12,-153.01C304.53,-151.84 313.21,-150.63 321.84,-149.43"/>
<polygon fill="midnightblue" stroke="midnightblue" points="322.51,-152.87 331.93,-148.03 321.54,-145.94 322.51,-152.87"/>
</g>
<!-- Node5 -->
<g id="node5" class="node">
<title>Node5</title>
<g id="a_node5"><a xlink:href="namespacehttplib.html#a498c3a79825ecbcb15c52ec5fcfd5c11" target="_top" xlink:title=" ">
<polygon fill="white" stroke="black" points="521,-128 521,-147 618,-147 618,-128 521,-128"/>
<text text-anchor="middle" x="569.5" y="-135" font-family="Helvetica,sans-Serif" font-size="10.00">httplib::to_string</text>
</a>
</g>
</g>
<!-- Node4&#45;&gt;Node5 -->
<g id="edge4" class="edge">
<title>Node4&#45;&gt;Node5</title>
<path fill="none" stroke="midnightblue" d="M485.27,-137.5C493.82,-137.5 502.43,-137.5 510.7,-137.5"/>
<polygon fill="midnightblue" stroke="midnightblue" points="510.96,-141 520.96,-137.5 510.96,-134 510.96,-141"/>
</g>
<!-- Node6&#45;&gt;Node4 -->
<g id="edge6" class="edge">
<title>Node6&#45;&gt;Node4</title>
<path fill="none" stroke="midnightblue" d="M290.53,-121.86C300.65,-123.21 311.28,-124.64 321.84,-126.05"/>
<polygon fill="midnightblue" stroke="midnightblue" points="321.54,-129.54 331.91,-127.39 322.47,-122.6 321.54,-129.54"/>
</g>
<!-- Node7 -->
<g id="node7" class="node">
<title>Node7</title>
<g id="a_node7"><a xlink:href="classnlohmann_1_1detail_1_1type__error.html#aa01edaa0bf18b853368f0b900e485cd7" target="_top" xlink:title=" ">
<polygon fill="white" stroke="black" points="345,-73.5 345,-103.5 472,-103.5 472,-73.5 345,-73.5"/>
<text text-anchor="start" x="353" y="-91.5" font-family="Helvetica,sans-Serif" font-size="10.00">nlohmann::detail::type</text>
<text text-anchor="middle" x="408.5" y="-80.5" font-family="Helvetica,sans-Serif" font-size="10.00">_error::type_error</text>
</a>
</g>
</g>
<!-- Node6&#45;&gt;Node7 -->
<g id="edge7" class="edge">
<title>Node6&#45;&gt;Node7</title>
<path fill="none" stroke="midnightblue" d="M290.53,-104.79C304.83,-102.8 320.16,-100.66 334.84,-98.62"/>
<polygon fill="midnightblue" stroke="midnightblue" points="335.47,-102.07 344.89,-97.22 334.5,-95.13 335.47,-102.07"/>
</g>
</g>
</svg>
        <g id="navigator" transform="translate(0 0)" fill="#404254">
                <rect fill="#f2f5e9" fill-opacity="0.5" stroke="#606060" stroke-width=".5" x="0" y="0" width="60" height="60"/>
                <use id="zoomplus" xlink:href="#zoomPlus" x="17" y="9" onmousedown="handleZoom(evt,'in')"/>
                <use id="zoomminus" xlink:href="#zoomMin" x="42" y="9" onmousedown="handleZoom(evt,'out')"/>
                <use id="reset" xlink:href="#resetDef" x="30" y="36" onmousedown="handleReset()"/>
                <g id="arrowUp" xlink:href="#dirArrow" transform="translate(30 24)" onmousedown="handlePan(0,-1)">
                  <use xlink:href="#rim" fill="#404040">
                        <set attributeName="fill" to="#808080" begin="arrowUp.mouseover" end="arrowUp.mouseout"/>
                  </use>
                  <path fill="none" stroke="white" stroke-width="1.5" d="M0,-3.0v7 M-2.5,-0.5L0,-3.0L2.5,-0.5"/>
                </g>
                <g id="arrowRight" xlink:href="#dirArrow" transform="rotate(90) translate(36 -43)" onmousedown="handlePan(1,0)">
                  <use xlink:href="#rim" fill="#404040">
                        <set attributeName="fill" to="#808080" begin="arrowRight.mouseover" end="arrowRight.mouseout"/>
                  </use>
                  <path fill="none" stroke="white" stroke-width="1.5" d="M0,-3.0v7 M-2.5,-0.5L0,-3.0L2.5,-0.5"/>
                </g>
                <g id="arrowDown" xlink:href="#dirArrow" transform="rotate(180) translate(-30 -48)" onmousedown="handlePan(0,1)">
                  <use xlink:href="#rim" fill="#404040">
                        <set attributeName="fill" to="#808080" begin="arrowDown.mouseover" end="arrowDown.mouseout"/>
                  </use>
                  <path fill="none" stroke="white" stroke-width="1.5" d="M0,-3.0v7 M-2.5,-0.5L0,-3.0L2.5,-0.5"/>
                </g>
                <g id="arrowLeft" xlink:href="#dirArrow" transform="rotate(270) translate(-36 17)" onmousedown="handlePan(-1,0)">
                  <use xlink:href="#rim" fill="#404040">
                        <set attributeName="fill" to="#808080" begin="arrowLeft.mouseover" end="arrowLeft.mouseout"/>
                  </use>
                  <path fill="none" stroke="white" stroke-width="1.5" d="M0,-3.0v7 M-2.5,-0.5L0,-3.0L2.5,-0.5"/>
                </g>
        </g>
        <svg viewBox="0 0 15 15" width="100%" height="30px" preserveAspectRatio="xMaxYMin meet">
         <g id="arrow_out" transform="scale(0.3 0.3)">
          <a xlink:href="classnlohmann_1_1basic__json_a1b0a4e60d56f1fe80501ed941e122892_cgraph_org.svg" target="_base">
           <rect id="button" ry="5" rx="5" y="6" x="6" height="38" width="38"
                fill="#f2f5e9" fill-opacity="0.5" stroke="#606060" stroke-width="1.0"/>
           <path id="arrow"
             d="M 11.500037,31.436501 C 11.940474,20.09759 22.043105,11.32322 32.158766,21.979434 L 37.068811,17.246167 C 37.068811,17.246167 37.088388,32 37.088388,32 L 22.160133,31.978069 C 22.160133,31.978069 26.997745,27.140456 26.997745,27.140456 C 18.528582,18.264221 13.291696,25.230495 11.500037,31.436501 z"
             style="fill:#404040;"/>
          </a>
         </g>
        </svg>
</svg>
