<?xml version="1.0" encoding="UTF-8" standalone="no"?>
<!DOCTYPE svg PUBLIC "-//W3C//DTD SVG 1.1//EN"
 "http://www.w3.org/Graphics/SVG/1.1/DTD/svg11.dtd">
<!-- Generated by graphviz version 2.43.0 (0)
 -->
<!-- Title: nlohmann::basic_json::operator[] Pages: 1 -->
<svg width="615pt" height="176pt"
 viewBox="0.00 0.00 615.00 175.50" xmlns="http://www.w3.org/2000/svg" xmlns:xlink="http://www.w3.org/1999/xlink">
<g id="graph0" class="graph" transform="scale(1 1) rotate(0) translate(4 171.5)">
<title>nlohmann::basic_json::operator[]</title>
<polygon fill="white" stroke="transparent" points="-4,4 -4,-171.5 611,-171.5 611,4 -4,4"/>
<!-- Node1 -->
<g id="node1" class="node">
<title>Node1</title>
<g id="a_node1"><a xlink:title="read&#45;only access specified object element">
<polygon fill="#bfbfbf" stroke="black" points="0,-73.5 0,-103.5 122,-103.5 122,-73.5 0,-73.5"/>
<text text-anchor="start" x="8" y="-91.5" font-family="Helvetica,sans-Serif" font-size="10.00">nlohmann::basic_json</text>
<text text-anchor="middle" x="61" y="-80.5" font-family="Helvetica,sans-Serif" font-size="10.00">::operator[]</text>
</a>
</g>
</g>
<!-- Node2 -->
<g id="node2" class="node">
<title>Node2</title>
<g id="a_node2"><a xlink:href="FuzzerTracePC_8cpp.html#a1f10ac78bd11294b612636121065eb5b" target="_top" xlink:title=" ">
<polygon fill="white" stroke="black" points="198,-148 198,-167 245,-167 245,-148 198,-148"/>
<text text-anchor="middle" x="221.5" y="-155" font-family="Helvetica,sans-Serif" font-size="10.00">assert</text>
</a>
</g>
</g>
<!-- Node1&#45;&gt;Node2 -->
<g id="edge1" class="edge">
<title>Node1&#45;&gt;Node2</title>
<path fill="none" stroke="midnightblue" d="M87.86,-103.64C106.84,-114.33 133.47,-128.48 158,-138.5 167.58,-142.41 178.28,-145.95 188.08,-148.89"/>
<polygon fill="midnightblue" stroke="midnightblue" points="187.3,-152.3 197.88,-151.71 189.24,-145.58 187.3,-152.3"/>
</g>
<!-- Node3 -->
<g id="node3" class="node">
<title>Node3</title>
<g id="a_node3"><a xlink:href="classnlohmann_1_1detail_1_1type__error.html#aecc083aea4b698c33d042670ba50c10f" target="_top" xlink:title=" ">
<polygon fill="white" stroke="black" points="158,-98.5 158,-128.5 285,-128.5 285,-98.5 158,-98.5"/>
<text text-anchor="start" x="166" y="-116.5" font-family="Helvetica,sans-Serif" font-size="10.00">nlohmann::detail::type</text>
<text text-anchor="middle" x="221.5" y="-105.5" font-family="Helvetica,sans-Serif" font-size="10.00">_error::create</text>
</a>
</g>
</g>
<!-- Node1&#45;&gt;Node3 -->
<g id="edge2" class="edge">
<title>Node1&#45;&gt;Node3</title>
<path fill="none" stroke="midnightblue" d="M122.37,-98.02C130.74,-99.34 139.4,-100.71 147.95,-102.06"/>
<polygon fill="midnightblue" stroke="midnightblue" points="147.5,-105.53 157.93,-103.63 148.59,-98.61 147.5,-105.53"/>
</g>
<!-- Node7 -->
<g id="node7" class="node">
<title>Node7</title>
<g id="a_node7"><a xlink:href="classnlohmann_1_1basic__json.html#af8f511af124e82e4579f444b4175787c" target="_top" xlink:title="return whether value is an object">
<polygon fill="white" stroke="black" points="160.5,-49.5 160.5,-79.5 282.5,-79.5 282.5,-49.5 160.5,-49.5"/>
<text text-anchor="start" x="168.5" y="-67.5" font-family="Helvetica,sans-Serif" font-size="10.00">nlohmann::basic_json</text>
<text text-anchor="middle" x="221.5" y="-56.5" font-family="Helvetica,sans-Serif" font-size="10.00">::is_object</text>
</a>
</g>
</g>
<!-- Node1&#45;&gt;Node7 -->
<g id="edge6" class="edge">
<title>Node1&#45;&gt;Node7</title>
<path fill="none" stroke="midnightblue" d="M122.37,-79.36C131.5,-77.98 140.97,-76.54 150.28,-75.13"/>
<polygon fill="midnightblue" stroke="midnightblue" points="150.93,-78.57 160.29,-73.62 149.88,-71.65 150.93,-78.57"/>
</g>
<!-- Node8 -->
<g id="node8" class="node">
<title>Node8</title>
<g id="a_node8"><a xlink:href="classnlohmann_1_1basic__json.html#ad14563c53cf7ca9189bc164082367bf3" target="_top" xlink:title="return the type as string">
<polygon fill="white" stroke="black" points="160.5,-0.5 160.5,-30.5 282.5,-30.5 282.5,-0.5 160.5,-0.5"/>
<text text-anchor="start" x="168.5" y="-18.5" font-family="Helvetica,sans-Serif" font-size="10.00">nlohmann::basic_json</text>
<text text-anchor="middle" x="221.5" y="-7.5" font-family="Helvetica,sans-Serif" font-size="10.00">::type_name</text>
</a>
</g>
</g>
<!-- Node1&#45;&gt;Node8 -->
<g id="edge7" class="edge">
<title>Node1&#45;&gt;Node8</title>
<path fill="none" stroke="midnightblue" d="M89.77,-73.35C108.74,-63.24 134.58,-49.94 158,-39.5 161.88,-37.77 165.93,-36.04 170.02,-34.36"/>
<polygon fill="midnightblue" stroke="midnightblue" points="171.6,-37.49 179.57,-30.51 168.98,-31 171.6,-37.49"/>
</g>
<!-- Node4 -->
<g id="node4" class="node">
<title>Node4</title>
<g id="a_node4"><a xlink:href="classnlohmann_1_1detail_1_1exception.html#abf41a7e9178356314082284e6cfea278" target="_top" xlink:title=" ">
<polygon fill="white" stroke="black" points="321,-122.5 321,-152.5 474,-152.5 474,-122.5 321,-122.5"/>
<text text-anchor="start" x="329" y="-140.5" font-family="Helvetica,sans-Serif" font-size="10.00">nlohmann::detail::exception</text>
<text text-anchor="middle" x="397.5" y="-129.5" font-family="Helvetica,sans-Serif" font-size="10.00">::name</text>
</a>
</g>
</g>
<!-- Node3&#45;&gt;Node4 -->
<g id="edge3" class="edge">
<title>Node3&#45;&gt;Node4</title>
<path fill="none" stroke="midnightblue" d="M285.32,-122.16C293.57,-123.3 302.15,-124.49 310.7,-125.67"/>
<polygon fill="midnightblue" stroke="midnightblue" points="310.33,-129.15 320.72,-127.05 311.29,-122.21 310.33,-129.15"/>
</g>
<!-- Node6 -->
<g id="node6" class="node">
<title>Node6</title>
<g id="a_node6"><a xlink:href="classnlohmann_1_1detail_1_1type__error.html#aa01edaa0bf18b853368f0b900e485cd7" target="_top" xlink:title=" ">
<polygon fill="white" stroke="black" points="334,-73.5 334,-103.5 461,-103.5 461,-73.5 334,-73.5"/>
<text text-anchor="start" x="342" y="-91.5" font-family="Helvetica,sans-Serif" font-size="10.00">nlohmann::detail::type</text>
<text text-anchor="middle" x="397.5" y="-80.5" font-family="Helvetica,sans-Serif" font-size="10.00">_error::type_error</text>
</a>
</g>
</g>
<!-- Node3&#45;&gt;Node6 -->
<g id="edge5" class="edge">
<title>Node3&#45;&gt;Node6</title>
<path fill="none" stroke="midnightblue" d="M285.32,-104.47C297.76,-102.69 310.92,-100.8 323.67,-98.96"/>
<polygon fill="midnightblue" stroke="midnightblue" points="324.37,-102.4 333.77,-97.51 323.38,-95.47 324.37,-102.4"/>
</g>
<!-- Node5 -->
<g id="node5" class="node">
<title>Node5</title>
<g id="a_node5"><a xlink:href="namespacehttplib.html#a498c3a79825ecbcb15c52ec5fcfd5c11" target="_top" xlink:title=" ">
<polygon fill="white" stroke="black" points="510,-128 510,-147 607,-147 607,-128 510,-128"/>
<text text-anchor="middle" x="558.5" y="-135" font-family="Helvetica,sans-Serif" font-size="10.00">httplib::to_string</text>
</a>
</g>
</g>
<!-- Node4&#45;&gt;Node5 -->
<g id="edge4" class="edge">
<title>Node4&#45;&gt;Node5</title>
<path fill="none" stroke="midnightblue" d="M474.27,-137.5C482.82,-137.5 491.43,-137.5 499.7,-137.5"/>
<polygon fill="midnightblue" stroke="midnightblue" points="499.96,-141 509.96,-137.5 499.96,-134 499.96,-141"/>
</g>
</g>
</svg>
