<?xml version="1.0" encoding="UTF-8" standalone="no"?>
<!DOCTYPE svg PUBLIC "-//W3C//DTD SVG 1.1//EN"
 "http://www.w3.org/Graphics/SVG/1.1/DTD/svg11.dtd">
<!-- Generated by graphviz version 2.43.0 (0)
 -->
<!-- Title: nlohmann::detail::binary_reader::get_ignore_noop Pages: 1 -->
<!--zoomable 220 -->
<svg id="main" version="1.1" xmlns="http://www.w3.org/2000/svg" xmlns:xlink="http://www.w3.org/1999/xlink" xml:space="preserve" onload="init(evt)">
<style type="text/css"><![CDATA[
.edge:hover path { stroke: red; }
.edge:hover polygon { stroke: red; fill: red; }
]]></style>
<script type="text/javascript"><![CDATA[
var edges = document.getElementsByTagName('g');
if (edges && edges.length) {
  for (var i=0;i<edges.length;i++) {
    if (edges[i].id.substr(0,4)=='edge') {
      edges[i].setAttribute('class','edge');
    }
  }
}
]]></script>
        <defs>
                <circle id="rim" cx="0" cy="0" r="7"/>
                <circle id="rim2" cx="0" cy="0" r="3.5"/>
                <g id="zoomPlus">
                        <use xlink:href="#rim" fill="#404040">
                                <set attributeName="fill" to="#808080" begin="zoomplus.mouseover" end="zoomplus.mouseout"/>
                        </use>
                        <path d="M-4,0h8M0,-4v8" fill="none" stroke="white" stroke-width="1.5" pointer-events="none"/>
                </g>
                <g id="zoomMin">
                        <use xlink:href="#rim" fill="#404040">
                                <set attributeName="fill" to="#808080" begin="zoomminus.mouseover" end="zoomminus.mouseout"/>
                        </use>
                        <path d="M-4,0h8" fill="none" stroke="white" stroke-width="1.5" pointer-events="none"/>
                </g>
                <g id="dirArrow">
                        <path fill="none" stroke="white" stroke-width="1.5" d="M0,-3.0v7 M-2.5,-0.5L0,-3.0L2.5,-0.5"/>
                </g>
               <g id="resetDef">
                       <use xlink:href="#rim2" fill="#404040">
                               <set attributeName="fill" to="#808080" begin="reset.mouseover" end="reset.mouseout"/>
                       </use>
               </g>
        </defs>

<script type="text/javascript">
var viewWidth = 1566;
var viewHeight = 220;
var sectionId = 'dynsection-23';
</script>
<script xlink:href="svgpan.js"/>
<svg id="graph" class="graph">
<g id="viewport">
<title>nlohmann::detail::binary_reader::get_ignore_noop</title>
<polygon fill="white" stroke="transparent" points="-4,4 -4,-216.19 1562,-216.19 1562,4 -4,4"/>
<!-- Node1 -->
<g id="node1" class="node">
<title>Node1</title>
<g id="a_node1"><a xlink:title=" ">
<polygon fill="#bfbfbf" stroke="black" points="1418,-81 1418,-111 1558,-111 1558,-81 1418,-81"/>
<text text-anchor="start" x="1426" y="-99" font-family="Helvetica,sans-Serif" font-size="10.00">nlohmann::detail::binary</text>
<text text-anchor="middle" x="1488" y="-88" font-family="Helvetica,sans-Serif" font-size="10.00">_reader::get_ignore_noop</text>
</a>
</g>
</g>
<!-- Node2 -->
<g id="node2" class="node">
<title>Node2</title>
<g id="a_node2"><a xlink:href="classnlohmann_1_1detail_1_1binary__reader.html#a4e8ef9561d4403ea68e3c2712fd289e2" target="_top" xlink:title=" ">
<polygon fill="white" stroke="black" points="833,-105 833,-135 976,-135 976,-105 833,-105"/>
<text text-anchor="start" x="841" y="-123" font-family="Helvetica,sans-Serif" font-size="10.00">nlohmann::detail::binary</text>
<text text-anchor="middle" x="904.5" y="-112" font-family="Helvetica,sans-Serif" font-size="10.00">_reader::get_ubjson_array</text>
</a>
</g>
</g>
<!-- Node1&#45;&gt;Node2 -->
<g id="edge1" class="edge">
<title>Node1&#45;&gt;Node2</title>
<path fill="none" stroke="midnightblue" d="M1407.74,-97.82C1352.79,-99.2 1277.93,-101.32 1212,-104 1131.07,-107.29 1038.19,-112.31 976.09,-115.85"/>
<polygon fill="midnightblue" stroke="midnightblue" points="1407.85,-101.32 1417.76,-97.57 1407.68,-94.32 1407.85,-101.32"/>
</g>
<!-- Node4 -->
<g id="node4" class="node">
<title>Node4</title>
<g id="a_node4"><a xlink:href="classnlohmann_1_1detail_1_1binary__reader.html#ad0932dd568fcbbd2b4c2ccf9122544a5" target="_top" xlink:title=" ">
<polygon fill="white" stroke="black" points="265,-104 265,-134 413,-134 413,-104 265,-104"/>
<text text-anchor="start" x="273" y="-122" font-family="Helvetica,sans-Serif" font-size="10.00">nlohmann::detail::binary</text>
<text text-anchor="middle" x="339" y="-111" font-family="Helvetica,sans-Serif" font-size="10.00">_reader::get_ubjson_object</text>
</a>
</g>
</g>
<!-- Node1&#45;&gt;Node4 -->
<g id="edge12" class="edge">
<title>Node1&#45;&gt;Node4</title>
<path fill="none" stroke="midnightblue" d="M1467.88,-118.7C1448.61,-139.77 1416.81,-169.95 1382,-184 1263.43,-231.85 1222.86,-204 1095,-204 1095,-204 1095,-204 723.5,-204 600.15,-204 568.02,-195.42 449,-163 422.22,-155.71 393.13,-143.74 371.75,-134.13"/>
<polygon fill="midnightblue" stroke="midnightblue" points="1470.59,-120.91 1474.63,-111.12 1465.37,-116.26 1470.59,-120.91"/>
</g>
<!-- Node5 -->
<g id="node5" class="node">
<title>Node5</title>
<g id="a_node5"><a xlink:href="classnlohmann_1_1detail_1_1binary__reader.html#af60c6bba6f1301cb02e0186c99e25751" target="_top" xlink:title=" ">
<polygon fill="white" stroke="black" points="449,-51 449,-81 616,-81 616,-51 449,-51"/>
<text text-anchor="start" x="457" y="-69" font-family="Helvetica,sans-Serif" font-size="10.00">nlohmann::detail::binary</text>
<text text-anchor="middle" x="532.5" y="-58" font-family="Helvetica,sans-Serif" font-size="10.00">_reader::parse_ubjson_internal</text>
</a>
</g>
</g>
<!-- Node1&#45;&gt;Node5 -->
<g id="edge18" class="edge">
<title>Node1&#45;&gt;Node5</title>
<path fill="none" stroke="midnightblue" d="M1414.38,-78.73C1336.05,-61.63 1207.42,-38 1095,-38 1095,-38 1095,-38 903.5,-38 804.45,-38 690.92,-48.1 616.03,-56.17"/>
<polygon fill="midnightblue" stroke="midnightblue" points="1414.1,-82.25 1424.62,-80.99 1415.61,-75.42 1414.1,-82.25"/>
</g>
<!-- Node6 -->
<g id="node6" class="node">
<title>Node6</title>
<g id="a_node6"><a xlink:href="classnlohmann_1_1detail_1_1binary__reader.html#ab94a54d6e595c2620b07589cf4116256" target="_top" xlink:title=" ">
<polygon fill="white" stroke="black" points="271,-19 271,-49 407,-49 407,-19 271,-19"/>
<text text-anchor="start" x="279" y="-37" font-family="Helvetica,sans-Serif" font-size="10.00">nlohmann::detail::binary</text>
<text text-anchor="middle" x="339" y="-26" font-family="Helvetica,sans-Serif" font-size="10.00">_reader::sax_parse</text>
</a>
</g>
</g>
<!-- Node1&#45;&gt;Node6 -->
<g id="edge19" class="edge">
<title>Node1&#45;&gt;Node6</title>
<path fill="none" stroke="midnightblue" d="M1454.61,-75.8C1434.44,-64.13 1407.56,-50.19 1382,-42 1259.24,-2.65 1223.91,0 1095,0 1095,0 1095,0 723.5,0 612.21,0 483.46,-14.38 407.04,-24.44"/>
<polygon fill="midnightblue" stroke="midnightblue" points="1452.98,-78.9 1463.37,-80.97 1456.54,-72.87 1452.98,-78.9"/>
</g>
<!-- Node9 -->
<g id="node9" class="node">
<title>Node9</title>
<g id="a_node9"><a xlink:href="classnlohmann_1_1detail_1_1binary__reader.html#a4eae4604064b5dfe6d04e42ffc9e0753" target="_top" xlink:title="determine the type and size for a container">
<polygon fill="white" stroke="black" points="1012,-125 1012,-155 1176,-155 1176,-125 1012,-125"/>
<text text-anchor="start" x="1020" y="-143" font-family="Helvetica,sans-Serif" font-size="10.00">nlohmann::detail::binary</text>
<text text-anchor="middle" x="1094" y="-132" font-family="Helvetica,sans-Serif" font-size="10.00">_reader::get_ubjson_size_type</text>
</a>
</g>
</g>
<!-- Node1&#45;&gt;Node9 -->
<g id="edge13" class="edge">
<title>Node1&#45;&gt;Node9</title>
<path fill="none" stroke="midnightblue" d="M1407.68,-104.9C1340.26,-112.47 1243.9,-123.29 1176.01,-130.91"/>
<polygon fill="midnightblue" stroke="midnightblue" points="1408.27,-108.36 1417.82,-103.77 1407.49,-101.4 1408.27,-108.36"/>
</g>
<!-- Node10 -->
<g id="node10" class="node">
<title>Node10</title>
<g id="a_node10"><a xlink:href="classnlohmann_1_1detail_1_1binary__reader.html#a435be58e83c8491556d8f1a1b3439155" target="_top" xlink:title=" ">
<polygon fill="white" stroke="black" points="1212,-144 1212,-174 1382,-174 1382,-144 1212,-144"/>
<text text-anchor="start" x="1220" y="-162" font-family="Helvetica,sans-Serif" font-size="10.00">nlohmann::detail::binary</text>
<text text-anchor="middle" x="1297" y="-151" font-family="Helvetica,sans-Serif" font-size="10.00">_reader::get_ubjson_size_value</text>
</a>
</g>
</g>
<!-- Node1&#45;&gt;Node10 -->
<g id="edge16" class="edge">
<title>Node1&#45;&gt;Node10</title>
<path fill="none" stroke="midnightblue" d="M1432.02,-114.33C1403.82,-123.73 1369.89,-135.04 1343.23,-143.92"/>
<polygon fill="midnightblue" stroke="midnightblue" points="1433.35,-117.57 1441.73,-111.09 1431.14,-110.93 1433.35,-117.57"/>
</g>
<!-- Node3 -->
<g id="node3" class="node">
<title>Node3</title>
<g id="a_node3"><a xlink:href="classnlohmann_1_1detail_1_1binary__reader.html#a5f425199a77f403e32f076ff8487f853" target="_top" xlink:title=" ">
<polygon fill="white" stroke="black" points="652,-105 652,-135 797,-135 797,-105 652,-105"/>
<text text-anchor="start" x="660" y="-123" font-family="Helvetica,sans-Serif" font-size="10.00">nlohmann::detail::binary</text>
<text text-anchor="middle" x="724.5" y="-112" font-family="Helvetica,sans-Serif" font-size="10.00">_reader::get_ubjson_value</text>
</a>
</g>
</g>
<!-- Node2&#45;&gt;Node3 -->
<g id="edge2" class="edge">
<title>Node2&#45;&gt;Node3</title>
<path fill="none" stroke="midnightblue" d="M822.62,-113.28C814.14,-113.22 805.56,-113.25 797.19,-113.36"/>
<polygon fill="midnightblue" stroke="midnightblue" points="822.86,-116.78 832.89,-113.38 822.93,-109.78 822.86,-116.78"/>
</g>
<!-- Node3&#45;&gt;Node2 -->
<g id="edge3" class="edge">
<title>Node3&#45;&gt;Node2</title>
<path fill="none" stroke="midnightblue" d="M807.2,-126.73C815.78,-126.78 824.45,-126.74 832.89,-126.62"/>
<polygon fill="midnightblue" stroke="midnightblue" points="807.22,-123.23 797.19,-126.64 807.15,-130.23 807.22,-123.23"/>
</g>
<!-- Node3&#45;&gt;Node4 -->
<g id="edge4" class="edge">
<title>Node3&#45;&gt;Node4</title>
<path fill="none" stroke="midnightblue" d="M641.61,-114.14C573.88,-112.43 478.54,-112.25 413.29,-113.75"/>
<polygon fill="midnightblue" stroke="midnightblue" points="641.73,-117.64 651.82,-114.41 641.91,-110.64 641.73,-117.64"/>
</g>
<!-- Node3&#45;&gt;Node5 -->
<g id="edge6" class="edge">
<title>Node3&#45;&gt;Node5</title>
<path fill="none" stroke="midnightblue" d="M660.82,-102.19C636.75,-95.35 609.54,-87.61 586.47,-81.05"/>
<polygon fill="midnightblue" stroke="midnightblue" points="660,-105.59 670.57,-104.96 661.91,-98.86 660,-105.59"/>
</g>
<!-- Node4&#45;&gt;Node3 -->
<g id="edge5" class="edge">
<title>Node4&#45;&gt;Node3</title>
<path fill="none" stroke="midnightblue" d="M423.57,-124.9C491.75,-126.59 587.07,-126.74 651.82,-125.21"/>
<polygon fill="midnightblue" stroke="midnightblue" points="423.38,-121.4 413.29,-124.63 423.19,-128.4 423.38,-121.4"/>
</g>
<!-- Node5&#45;&gt;Node2 -->
<g id="edge7" class="edge">
<title>Node5&#45;&gt;Node2</title>
<path fill="none" stroke="midnightblue" d="M626.01,-73.42C676.71,-78.18 740.55,-85.3 797,-95 812.72,-97.7 829.59,-101.32 845.17,-104.97"/>
<polygon fill="midnightblue" stroke="midnightblue" points="626.33,-69.94 616.05,-72.5 625.68,-76.91 626.33,-69.94"/>
</g>
<!-- Node5&#45;&gt;Node4 -->
<g id="edge8" class="edge">
<title>Node5&#45;&gt;Node4</title>
<path fill="none" stroke="midnightblue" d="M467.22,-83.79C443.62,-90.32 417.16,-97.65 394.5,-103.92"/>
<polygon fill="midnightblue" stroke="midnightblue" points="468.43,-87.09 477.14,-81.05 466.56,-80.34 468.43,-87.09"/>
</g>
<!-- Node5&#45;&gt;Node6 -->
<g id="edge9" class="edge">
<title>Node5&#45;&gt;Node6</title>
<path fill="none" stroke="midnightblue" d="M439.03,-50.55C428.25,-48.75 417.41,-46.94 407.07,-45.21"/>
<polygon fill="midnightblue" stroke="midnightblue" points="438.46,-54 448.9,-52.2 439.61,-47.1 438.46,-54"/>
</g>
<!-- Node7 -->
<g id="node7" class="node">
<title>Node7</title>
<g id="a_node7"><a xlink:href="classnlohmann_1_1basic__json.html#a8a3dd150c2d1f0df3502d937de0871db" target="_top" xlink:title="generate SAX events">
<polygon fill="white" stroke="black" points="107,-19 107,-49 229,-49 229,-19 107,-19"/>
<text text-anchor="start" x="115" y="-37" font-family="Helvetica,sans-Serif" font-size="10.00">nlohmann::basic_json</text>
<text text-anchor="middle" x="168" y="-26" font-family="Helvetica,sans-Serif" font-size="10.00">::sax_parse</text>
</a>
</g>
</g>
<!-- Node6&#45;&gt;Node7 -->
<g id="edge10" class="edge">
<title>Node6&#45;&gt;Node7</title>
<path fill="none" stroke="midnightblue" d="M260.67,-34C250.11,-34 239.4,-34 229.21,-34"/>
<polygon fill="midnightblue" stroke="midnightblue" points="260.72,-37.5 270.72,-34 260.72,-30.5 260.72,-37.5"/>
</g>
<!-- Node8 -->
<g id="node8" class="node">
<title>Node8</title>
<g id="a_node8"><a xlink:href="unit-bson_8cpp.html#a73301d5e6d0f638e973f748287501dd6" target="_top" xlink:title=" ">
<polygon fill="white" stroke="black" points="0,-24.5 0,-43.5 71,-43.5 71,-24.5 0,-24.5"/>
<text text-anchor="middle" x="35.5" y="-31.5" font-family="Helvetica,sans-Serif" font-size="10.00">TEST_CASE</text>
</a>
</g>
</g>
<!-- Node7&#45;&gt;Node8 -->
<g id="edge11" class="edge">
<title>Node7&#45;&gt;Node8</title>
<path fill="none" stroke="midnightblue" d="M96.44,-34C87.71,-34 79.11,-34 71.26,-34"/>
<polygon fill="midnightblue" stroke="midnightblue" points="96.72,-37.5 106.72,-34 96.72,-30.5 96.72,-37.5"/>
</g>
<!-- Node9&#45;&gt;Node2 -->
<g id="edge14" class="edge">
<title>Node9&#45;&gt;Node2</title>
<path fill="none" stroke="midnightblue" d="M1001.78,-130.27C993.18,-129.35 984.55,-128.43 976.18,-127.54"/>
<polygon fill="midnightblue" stroke="midnightblue" points="1001.54,-133.76 1011.85,-131.34 1002.28,-126.8 1001.54,-133.76"/>
</g>
<!-- Node9&#45;&gt;Node4 -->
<g id="edge15" class="edge">
<title>Node9&#45;&gt;Node4</title>
<path fill="none" stroke="midnightblue" d="M1001.65,-143.42C992.98,-143.66 984.33,-143.86 976,-144 741.81,-148 681.79,-168.9 449,-143 432.05,-141.11 413.88,-137.69 397.32,-134.01"/>
<polygon fill="midnightblue" stroke="midnightblue" points="1001.92,-146.92 1011.82,-143.13 1001.72,-139.92 1001.92,-146.92"/>
</g>
<!-- Node10&#45;&gt;Node9 -->
<g id="edge17" class="edge">
<title>Node10&#45;&gt;Node9</title>
<path fill="none" stroke="midnightblue" d="M1201.88,-150.1C1193.29,-149.29 1184.63,-148.47 1176.17,-147.67"/>
<polygon fill="midnightblue" stroke="midnightblue" points="1201.64,-153.6 1211.92,-151.05 1202.3,-146.63 1201.64,-153.6"/>
</g>
</g>
</svg>
        <g id="navigator" transform="translate(0 0)" fill="#404254">
                <rect fill="#f2f5e9" fill-opacity="0.5" stroke="#606060" stroke-width=".5" x="0" y="0" width="60" height="60"/>
                <use id="zoomplus" xlink:href="#zoomPlus" x="17" y="9" onmousedown="handleZoom(evt,'in')"/>
                <use id="zoomminus" xlink:href="#zoomMin" x="42" y="9" onmousedown="handleZoom(evt,'out')"/>
                <use id="reset" xlink:href="#resetDef" x="30" y="36" onmousedown="handleReset()"/>
                <g id="arrowUp" xlink:href="#dirArrow" transform="translate(30 24)" onmousedown="handlePan(0,-1)">
                  <use xlink:href="#rim" fill="#404040">
                        <set attributeName="fill" to="#808080" begin="arrowUp.mouseover" end="arrowUp.mouseout"/>
                  </use>
                  <path fill="none" stroke="white" stroke-width="1.5" d="M0,-3.0v7 M-2.5,-0.5L0,-3.0L2.5,-0.5"/>
                </g>
                <g id="arrowRight" xlink:href="#dirArrow" transform="rotate(90) translate(36 -43)" onmousedown="handlePan(1,0)">
                  <use xlink:href="#rim" fill="#404040">
                        <set attributeName="fill" to="#808080" begin="arrowRight.mouseover" end="arrowRight.mouseout"/>
                  </use>
                  <path fill="none" stroke="white" stroke-width="1.5" d="M0,-3.0v7 M-2.5,-0.5L0,-3.0L2.5,-0.5"/>
                </g>
                <g id="arrowDown" xlink:href="#dirArrow" transform="rotate(180) translate(-30 -48)" onmousedown="handlePan(0,1)">
                  <use xlink:href="#rim" fill="#404040">
                        <set attributeName="fill" to="#808080" begin="arrowDown.mouseover" end="arrowDown.mouseout"/>
                  </use>
                  <path fill="none" stroke="white" stroke-width="1.5" d="M0,-3.0v7 M-2.5,-0.5L0,-3.0L2.5,-0.5"/>
                </g>
                <g id="arrowLeft" xlink:href="#dirArrow" transform="rotate(270) translate(-36 17)" onmousedown="handlePan(-1,0)">
                  <use xlink:href="#rim" fill="#404040">
                        <set attributeName="fill" to="#808080" begin="arrowLeft.mouseover" end="arrowLeft.mouseout"/>
                  </use>
                  <path fill="none" stroke="white" stroke-width="1.5" d="M0,-3.0v7 M-2.5,-0.5L0,-3.0L2.5,-0.5"/>
                </g>
        </g>
        <svg viewBox="0 0 15 15" width="100%" height="30px" preserveAspectRatio="xMaxYMin meet">
         <g id="arrow_out" transform="scale(0.3 0.3)">
          <a xlink:href="classnlohmann_1_1detail_1_1binary__reader_a11a145292c1cc44656c34a6aef38759c_icgraph_org.svg" target="_base">
           <rect id="button" ry="5" rx="5" y="6" x="6" height="38" width="38"
                fill="#f2f5e9" fill-opacity="0.5" stroke="#606060" stroke-width="1.0"/>
           <path id="arrow"
             d="M 11.500037,31.436501 C 11.940474,20.09759 22.043105,11.32322 32.158766,21.979434 L 37.068811,17.246167 C 37.068811,17.246167 37.088388,32 37.088388,32 L 22.160133,31.978069 C 22.160133,31.978069 26.997745,27.140456 26.997745,27.140456 C 18.528582,18.264221 13.291696,25.230495 11.500037,31.436501 z"
             style="fill:#404040;"/>
          </a>
         </g>
        </svg>
</svg>
