<?xml version="1.0" encoding="UTF-8" standalone="no"?>
<!DOCTYPE svg PUBLIC "-//W3C//DTD SVG 1.1//EN"
 "http://www.w3.org/Graphics/SVG/1.1/DTD/svg11.dtd">
<!-- Generated by graphviz version 2.43.0 (0)
 -->
<!-- Title: PodmanGetPodNameCommand Pages: 1 -->
<svg width="206pt" height="193pt"
 viewBox="0.00 0.00 206.00 193.00" xmlns="http://www.w3.org/2000/svg" xmlns:xlink="http://www.w3.org/1999/xlink">
<g id="graph0" class="graph" transform="scale(1 1) rotate(0) translate(4 189)">
<title>PodmanGetPodNameCommand</title>
<polygon fill="white" stroke="transparent" points="-4,4 -4,-189 202,-189 202,4 -4,4"/>
<!-- Node1 -->
<g id="node1" class="node">
<title>Node1</title>
<g id="a_node1"><a xlink:title=" ">
<polygon fill="#bfbfbf" stroke="black" points="0,-0.5 0,-79.5 198,-79.5 198,-0.5 0,-0.5"/>
<text text-anchor="middle" x="99" y="-67.5" font-family="Helvetica,sans-Serif" font-size="10.00">PodmanGetPodNameCommand</text>
<polyline fill="none" stroke="black" points="0,-60.5 198,-60.5 "/>
<text text-anchor="start" x="8" y="-48.5" font-family="Helvetica,sans-Serif" font-size="10.00">&#45; app_name_</text>
<polyline fill="none" stroke="black" points="0,-41.5 198,-41.5 "/>
<text text-anchor="start" x="8" y="-29.5" font-family="Helvetica,sans-Serif" font-size="10.00">+ PodmanGetPodNameCommand()</text>
<text text-anchor="start" x="8" y="-18.5" font-family="Helvetica,sans-Serif" font-size="10.00">+ ~PodmanGetPodNameCommand()</text>
<text text-anchor="start" x="8" y="-7.5" font-family="Helvetica,sans-Serif" font-size="10.00">+ Execute()</text>
</a>
</g>
</g>
<!-- Node2 -->
<g id="node2" class="node">
<title>Node2</title>
<g id="a_node2"><a xlink:href="classCommand.html" target="_top" xlink:title=" ">
<polygon fill="white" stroke="black" points="52,-116.5 52,-184.5 146,-184.5 146,-116.5 52,-116.5"/>
<text text-anchor="middle" x="99" y="-172.5" font-family="Helvetica,sans-Serif" font-size="10.00">Command</text>
<polyline fill="none" stroke="black" points="52,-165.5 146,-165.5 "/>
<text text-anchor="middle" x="99" y="-153.5" font-family="Helvetica,sans-Serif" font-size="10.00"> </text>
<polyline fill="none" stroke="black" points="52,-146.5 146,-146.5 "/>
<text text-anchor="start" x="60" y="-134.5" font-family="Helvetica,sans-Serif" font-size="10.00">+ Execute()</text>
<text text-anchor="start" x="60" y="-123.5" font-family="Helvetica,sans-Serif" font-size="10.00">+ ~Command()</text>
</a>
</g>
</g>
<!-- Node2&#45;&gt;Node1 -->
<g id="edge1" class="edge">
<title>Node2&#45;&gt;Node1</title>
<path fill="none" stroke="midnightblue" d="M99,-106.27C99,-97.48 99,-88.28 99,-79.65"/>
<polygon fill="none" stroke="midnightblue" points="95.5,-106.36 99,-116.36 102.5,-106.36 95.5,-106.36"/>
</g>
</g>
</svg>
