<?xml version="1.0" encoding="UTF-8" standalone="no"?>
<!DOCTYPE svg PUBLIC "-//W3C//DTD SVG 1.1//EN"
 "http://www.w3.org/Graphics/SVG/1.1/DTD/svg11.dtd">
<!-- Generated by graphviz version 2.43.0 (0)
 -->
<!-- Title: nlohmann::detail::binary_reader::get_ubjson_size_type Pages: 1 -->
<svg width="1184pt" height="116pt"
 viewBox="0.00 0.00 1184.00 116.00" xmlns="http://www.w3.org/2000/svg" xmlns:xlink="http://www.w3.org/1999/xlink">
<g id="graph0" class="graph" transform="scale(1 1) rotate(0) translate(4 112)">
<title>nlohmann::detail::binary_reader::get_ubjson_size_type</title>
<polygon fill="white" stroke="transparent" points="-4,4 -4,-112 1180,-112 1180,4 -4,4"/>
<!-- Node1 -->
<g id="node1" class="node">
<title>Node1</title>
<g id="a_node1"><a xlink:title="determine the type and size for a container">
<polygon fill="#bfbfbf" stroke="black" points="1012,-0.5 1012,-30.5 1176,-30.5 1176,-0.5 1012,-0.5"/>
<text text-anchor="start" x="1020" y="-18.5" font-family="Helvetica,sans-Serif" font-size="10.00">nlohmann::detail::binary</text>
<text text-anchor="middle" x="1094" y="-7.5" font-family="Helvetica,sans-Serif" font-size="10.00">_reader::get_ubjson_size_type</text>
</a>
</g>
</g>
<!-- Node2 -->
<g id="node2" class="node">
<title>Node2</title>
<g id="a_node2"><a xlink:href="classnlohmann_1_1detail_1_1binary__reader.html#a4e8ef9561d4403ea68e3c2712fd289e2" target="_top" xlink:title=" ">
<polygon fill="white" stroke="black" points="833,-24.5 833,-54.5 976,-54.5 976,-24.5 833,-24.5"/>
<text text-anchor="start" x="841" y="-42.5" font-family="Helvetica,sans-Serif" font-size="10.00">nlohmann::detail::binary</text>
<text text-anchor="middle" x="904.5" y="-31.5" font-family="Helvetica,sans-Serif" font-size="10.00">_reader::get_ubjson_array</text>
</a>
</g>
</g>
<!-- Node1&#45;&gt;Node2 -->
<g id="edge1" class="edge">
<title>Node1&#45;&gt;Node2</title>
<path fill="none" stroke="midnightblue" d="M1001.78,-27.18C993.18,-28.28 984.55,-29.38 976.18,-30.45"/>
<polygon fill="midnightblue" stroke="midnightblue" points="1002.38,-30.63 1011.85,-25.89 1001.49,-23.69 1002.38,-30.63"/>
</g>
<!-- Node4 -->
<g id="node4" class="node">
<title>Node4</title>
<g id="a_node4"><a xlink:href="classnlohmann_1_1detail_1_1binary__reader.html#ad0932dd568fcbbd2b4c2ccf9122544a5" target="_top" xlink:title=" ">
<polygon fill="white" stroke="black" points="265,-24.5 265,-54.5 413,-54.5 413,-24.5 265,-24.5"/>
<text text-anchor="start" x="273" y="-42.5" font-family="Helvetica,sans-Serif" font-size="10.00">nlohmann::detail::binary</text>
<text text-anchor="middle" x="339" y="-31.5" font-family="Helvetica,sans-Serif" font-size="10.00">_reader::get_ubjson_object</text>
</a>
</g>
</g>
<!-- Node1&#45;&gt;Node4 -->
<g id="edge12" class="edge">
<title>Node1&#45;&gt;Node4</title>
<path fill="none" stroke="midnightblue" d="M1001.64,-14.64C992.98,-14.59 984.32,-14.54 976,-14.5 832,-13.88 795.88,-8.74 652,-14.5 570.01,-17.78 476.19,-25.89 413.03,-31.99"/>
<polygon fill="midnightblue" stroke="midnightblue" points="1001.78,-18.14 1011.81,-14.72 1001.83,-11.15 1001.78,-18.14"/>
</g>
<!-- Node3 -->
<g id="node3" class="node">
<title>Node3</title>
<g id="a_node3"><a xlink:href="classnlohmann_1_1detail_1_1binary__reader.html#a5f425199a77f403e32f076ff8487f853" target="_top" xlink:title=" ">
<polygon fill="white" stroke="black" points="652,-24.5 652,-54.5 797,-54.5 797,-24.5 652,-24.5"/>
<text text-anchor="start" x="660" y="-42.5" font-family="Helvetica,sans-Serif" font-size="10.00">nlohmann::detail::binary</text>
<text text-anchor="middle" x="724.5" y="-31.5" font-family="Helvetica,sans-Serif" font-size="10.00">_reader::get_ubjson_value</text>
</a>
</g>
</g>
<!-- Node2&#45;&gt;Node3 -->
<g id="edge2" class="edge">
<title>Node2&#45;&gt;Node3</title>
<path fill="none" stroke="midnightblue" d="M822.62,-32.78C814.14,-32.72 805.56,-32.75 797.19,-32.86"/>
<polygon fill="midnightblue" stroke="midnightblue" points="822.86,-36.28 832.89,-32.88 822.93,-29.28 822.86,-36.28"/>
</g>
<!-- Node3&#45;&gt;Node2 -->
<g id="edge3" class="edge">
<title>Node3&#45;&gt;Node2</title>
<path fill="none" stroke="midnightblue" d="M807.2,-46.23C815.78,-46.28 824.45,-46.24 832.89,-46.12"/>
<polygon fill="midnightblue" stroke="midnightblue" points="807.22,-42.73 797.19,-46.14 807.15,-49.73 807.22,-42.73"/>
</g>
<!-- Node3&#45;&gt;Node4 -->
<g id="edge4" class="edge">
<title>Node3&#45;&gt;Node4</title>
<path fill="none" stroke="midnightblue" d="M641.61,-33.85C573.88,-32.32 478.54,-32.39 413.29,-34.06"/>
<polygon fill="midnightblue" stroke="midnightblue" points="641.73,-37.36 651.82,-34.1 641.9,-30.36 641.73,-37.36"/>
</g>
<!-- Node5 -->
<g id="node5" class="node">
<title>Node5</title>
<g id="a_node5"><a xlink:href="classnlohmann_1_1detail_1_1binary__reader.html#af60c6bba6f1301cb02e0186c99e25751" target="_top" xlink:title=" ">
<polygon fill="white" stroke="black" points="449,-77.5 449,-107.5 616,-107.5 616,-77.5 449,-77.5"/>
<text text-anchor="start" x="457" y="-95.5" font-family="Helvetica,sans-Serif" font-size="10.00">nlohmann::detail::binary</text>
<text text-anchor="middle" x="532.5" y="-84.5" font-family="Helvetica,sans-Serif" font-size="10.00">_reader::parse_ubjson_internal</text>
</a>
</g>
</g>
<!-- Node3&#45;&gt;Node5 -->
<g id="edge6" class="edge">
<title>Node3&#45;&gt;Node5</title>
<path fill="none" stroke="midnightblue" d="M659.72,-57.29C636.31,-63.82 610.05,-71.15 587.57,-77.42"/>
<polygon fill="midnightblue" stroke="midnightblue" points="660.87,-60.6 669.56,-54.55 658.99,-53.86 660.87,-60.6"/>
</g>
<!-- Node4&#45;&gt;Node3 -->
<g id="edge5" class="edge">
<title>Node4&#45;&gt;Node3</title>
<path fill="none" stroke="midnightblue" d="M423.57,-45.19C491.75,-46.69 587.07,-46.6 651.82,-44.9"/>
<polygon fill="midnightblue" stroke="midnightblue" points="423.37,-41.68 413.29,-44.94 423.2,-48.68 423.37,-41.68"/>
</g>
<!-- Node5&#45;&gt;Node2 -->
<g id="edge7" class="edge">
<title>Node5&#45;&gt;Node2</title>
<path fill="none" stroke="midnightblue" d="M626.33,-85.48C676.98,-80.94 740.67,-74.07 797,-64.5 812.82,-61.81 829.8,-58.18 845.45,-54.51"/>
<polygon fill="midnightblue" stroke="midnightblue" points="625.71,-82.02 616.05,-86.39 626.32,-89 625.71,-82.02"/>
</g>
<!-- Node5&#45;&gt;Node4 -->
<g id="edge8" class="edge">
<title>Node5&#45;&gt;Node4</title>
<path fill="none" stroke="midnightblue" d="M467.22,-74.71C443.62,-68.18 417.16,-60.85 394.5,-54.58"/>
<polygon fill="midnightblue" stroke="midnightblue" points="466.56,-78.16 477.14,-77.45 468.43,-71.41 466.56,-78.16"/>
</g>
<!-- Node6 -->
<g id="node6" class="node">
<title>Node6</title>
<g id="a_node6"><a xlink:href="classnlohmann_1_1detail_1_1binary__reader.html#ab94a54d6e595c2620b07589cf4116256" target="_top" xlink:title=" ">
<polygon fill="white" stroke="black" points="271,-77.5 271,-107.5 407,-107.5 407,-77.5 271,-77.5"/>
<text text-anchor="start" x="279" y="-95.5" font-family="Helvetica,sans-Serif" font-size="10.00">nlohmann::detail::binary</text>
<text text-anchor="middle" x="339" y="-84.5" font-family="Helvetica,sans-Serif" font-size="10.00">_reader::sax_parse</text>
</a>
</g>
</g>
<!-- Node5&#45;&gt;Node6 -->
<g id="edge9" class="edge">
<title>Node5&#45;&gt;Node6</title>
<path fill="none" stroke="midnightblue" d="M438.7,-92.5C428.03,-92.5 417.31,-92.5 407.07,-92.5"/>
<polygon fill="midnightblue" stroke="midnightblue" points="438.9,-96 448.9,-92.5 438.9,-89 438.9,-96"/>
</g>
<!-- Node7 -->
<g id="node7" class="node">
<title>Node7</title>
<g id="a_node7"><a xlink:href="classnlohmann_1_1basic__json.html#a8a3dd150c2d1f0df3502d937de0871db" target="_top" xlink:title="generate SAX events">
<polygon fill="white" stroke="black" points="107,-77.5 107,-107.5 229,-107.5 229,-77.5 107,-77.5"/>
<text text-anchor="start" x="115" y="-95.5" font-family="Helvetica,sans-Serif" font-size="10.00">nlohmann::basic_json</text>
<text text-anchor="middle" x="168" y="-84.5" font-family="Helvetica,sans-Serif" font-size="10.00">::sax_parse</text>
</a>
</g>
</g>
<!-- Node6&#45;&gt;Node7 -->
<g id="edge10" class="edge">
<title>Node6&#45;&gt;Node7</title>
<path fill="none" stroke="midnightblue" d="M260.67,-92.5C250.11,-92.5 239.4,-92.5 229.21,-92.5"/>
<polygon fill="midnightblue" stroke="midnightblue" points="260.72,-96 270.72,-92.5 260.72,-89 260.72,-96"/>
</g>
<!-- Node8 -->
<g id="node8" class="node">
<title>Node8</title>
<g id="a_node8"><a xlink:href="unit-bson_8cpp.html#a73301d5e6d0f638e973f748287501dd6" target="_top" xlink:title=" ">
<polygon fill="white" stroke="black" points="0,-83 0,-102 71,-102 71,-83 0,-83"/>
<text text-anchor="middle" x="35.5" y="-90" font-family="Helvetica,sans-Serif" font-size="10.00">TEST_CASE</text>
</a>
</g>
</g>
<!-- Node7&#45;&gt;Node8 -->
<g id="edge11" class="edge">
<title>Node7&#45;&gt;Node8</title>
<path fill="none" stroke="midnightblue" d="M96.44,-92.5C87.71,-92.5 79.11,-92.5 71.26,-92.5"/>
<polygon fill="midnightblue" stroke="midnightblue" points="96.72,-96 106.72,-92.5 96.72,-89 96.72,-96"/>
</g>
</g>
</svg>
