<?xml version="1.0" encoding="UTF-8" standalone="no"?>
<!DOCTYPE svg PUBLIC "-//W3C//DTD SVG 1.1//EN"
 "http://www.w3.org/Graphics/SVG/1.1/DTD/svg11.dtd">
<!-- Generated by graphviz version 2.43.0 (0)
 -->
<!-- Title: fuzzer::MutationDispatcher::PrintRecommendedDictionary Pages: 1 -->
<svg width="481pt" height="85pt"
 viewBox="0.00 0.00 481.00 85.00" xmlns="http://www.w3.org/2000/svg" xmlns:xlink="http://www.w3.org/1999/xlink">
<g id="graph0" class="graph" transform="scale(1 1) rotate(0) translate(4 81)">
<title>fuzzer::MutationDispatcher::PrintRecommendedDictionary</title>
<polygon fill="white" stroke="transparent" points="-4,4 -4,-81 477,-81 477,4 -4,4"/>
<!-- Node1 -->
<g id="node1" class="node">
<title>Node1</title>
<g id="a_node1"><a xlink:title=" ">
<polygon fill="#bfbfbf" stroke="black" points="0,-14 0,-44 169,-44 169,-14 0,-14"/>
<text text-anchor="start" x="8" y="-32" font-family="Helvetica,sans-Serif" font-size="10.00">fuzzer::MutationDispatcher</text>
<text text-anchor="middle" x="84.5" y="-21" font-family="Helvetica,sans-Serif" font-size="10.00">::PrintRecommendedDictionary</text>
</a>
</g>
</g>
<!-- Node2 -->
<g id="node2" class="node">
<title>Node2</title>
<g id="a_node2"><a xlink:href="namespacefuzzer.html#a9745d98c9dbd0f6cf52f2a71ebf3f778" target="_top" xlink:title=" ">
<polygon fill="white" stroke="black" points="205,-38.5 205,-57.5 306,-57.5 306,-38.5 205,-38.5"/>
<text text-anchor="middle" x="255.5" y="-45.5" font-family="Helvetica,sans-Serif" font-size="10.00">fuzzer::PrintASCII</text>
</a>
</g>
</g>
<!-- Node1&#45;&gt;Node2 -->
<g id="edge1" class="edge">
<title>Node1&#45;&gt;Node2</title>
<path fill="none" stroke="midnightblue" d="M169.01,-38.39C177.76,-39.37 186.52,-40.36 194.93,-41.3"/>
<polygon fill="midnightblue" stroke="midnightblue" points="194.64,-44.79 204.97,-42.43 195.43,-37.84 194.64,-44.79"/>
</g>
<!-- Node5 -->
<g id="node5" class="node">
<title>Node5</title>
<g id="a_node5"><a xlink:href="namespacefuzzer.html#afab785891fdb74f8fd33bca421bde935" target="_top" xlink:title=" ">
<polygon fill="white" stroke="black" points="216,-0.5 216,-19.5 295,-19.5 295,-0.5 216,-0.5"/>
<text text-anchor="middle" x="255.5" y="-7.5" font-family="Helvetica,sans-Serif" font-size="10.00">fuzzer::Printf</text>
</a>
</g>
</g>
<!-- Node1&#45;&gt;Node5 -->
<g id="edge4" class="edge">
<title>Node1&#45;&gt;Node5</title>
<path fill="none" stroke="midnightblue" d="M169.01,-19.61C181.49,-18.21 194,-16.8 205.44,-15.52"/>
<polygon fill="midnightblue" stroke="midnightblue" points="206.08,-18.97 215.63,-14.37 205.3,-12.01 206.08,-18.97"/>
</g>
<!-- Node3 -->
<g id="node3" class="node">
<title>Node3</title>
<g id="a_node3"><a xlink:href="classfuzzer_1_1FixedWord.html#a14fbd18b5b0868f5d7f2d50a85d0b09e" target="_top" xlink:title=" ">
<polygon fill="white" stroke="black" points="342,-57.5 342,-76.5 473,-76.5 473,-57.5 342,-57.5"/>
<text text-anchor="middle" x="407.5" y="-64.5" font-family="Helvetica,sans-Serif" font-size="10.00">fuzzer::FixedWord::data</text>
</a>
</g>
</g>
<!-- Node2&#45;&gt;Node3 -->
<g id="edge2" class="edge">
<title>Node2&#45;&gt;Node3</title>
<path fill="none" stroke="midnightblue" d="M306.03,-54.27C314.25,-55.32 322.93,-56.41 331.61,-57.51"/>
<polygon fill="midnightblue" stroke="midnightblue" points="331.41,-61.02 341.77,-58.8 332.29,-54.07 331.41,-61.02"/>
</g>
<!-- Node4 -->
<g id="node4" class="node">
<title>Node4</title>
<g id="a_node4"><a xlink:href="classfuzzer_1_1FixedWord.html#a97ffcbd9ec743adabd6bdf85f0911e53" target="_top" xlink:title=" ">
<polygon fill="white" stroke="black" points="343,-19.5 343,-38.5 472,-38.5 472,-19.5 343,-19.5"/>
<text text-anchor="middle" x="407.5" y="-26.5" font-family="Helvetica,sans-Serif" font-size="10.00">fuzzer::FixedWord::size</text>
</a>
</g>
</g>
<!-- Node2&#45;&gt;Node4 -->
<g id="edge3" class="edge">
<title>Node2&#45;&gt;Node4</title>
<path fill="none" stroke="midnightblue" d="M306.03,-41.73C314.59,-40.64 323.65,-39.49 332.68,-38.35"/>
<polygon fill="midnightblue" stroke="midnightblue" points="333.36,-41.79 342.84,-37.06 332.48,-34.85 333.36,-41.79"/>
</g>
</g>
</svg>
