<?xml version="1.0" encoding="UTF-8" standalone="no"?>
<!DOCTYPE svg PUBLIC "-//W3C//DTD SVG 1.1//EN"
 "http://www.w3.org/Graphics/SVG/1.1/DTD/svg11.dtd">
<!-- Generated by graphviz version 2.43.0 (0)
 -->
<!-- Title: K3sCheckPodStatusCommand::Execute Pages: 1 -->
<svg width="1628pt" height="351pt"
 viewBox="0.00 0.00 1628.00 350.62" xmlns="http://www.w3.org/2000/svg" xmlns:xlink="http://www.w3.org/1999/xlink">
<g id="graph0" class="graph" transform="scale(1 1) rotate(0) translate(4 346.62)">
<title>K3sCheckPodStatusCommand::Execute</title>
<polygon fill="white" stroke="transparent" points="-4,4 -4,-346.62 1624,-346.62 1624,4 -4,4"/>
<!-- Node1 -->
<g id="node1" class="node">
<title>Node1</title>
<g id="a_node1"><a xlink:title=" ">
<polygon fill="#bfbfbf" stroke="black" points="0,-224.5 0,-254.5 164,-254.5 164,-224.5 0,-224.5"/>
<text text-anchor="start" x="8" y="-242.5" font-family="Helvetica,sans-Serif" font-size="10.00">K3sCheckPodStatusCommand</text>
<text text-anchor="middle" x="82" y="-231.5" font-family="Helvetica,sans-Serif" font-size="10.00">::Execute</text>
</a>
</g>
</g>
<!-- Node2 -->
<g id="node2" class="node">
<title>Node2</title>
<g id="a_node2"><a xlink:href="classDatabaseHandler.html#aeb2cfac9504d4c44c6f23a87cb06b75a" target="_top" xlink:title="Get the singleton instance of the DatabaseHandler class.">
<polygon fill="white" stroke="black" points="201.5,-249 201.5,-268 367.5,-268 367.5,-249 201.5,-249"/>
<text text-anchor="middle" x="284.5" y="-256" font-family="Helvetica,sans-Serif" font-size="10.00">DatabaseHandler::GetInstance</text>
</a>
</g>
</g>
<!-- Node1&#45;&gt;Node2 -->
<g id="edge1" class="edge">
<title>Node1&#45;&gt;Node2</title>
<path fill="none" stroke="midnightblue" d="M164.26,-247.2C173.17,-248.05 182.29,-248.91 191.33,-249.77"/>
<polygon fill="midnightblue" stroke="midnightblue" points="191.18,-253.27 201.47,-250.73 191.85,-246.3 191.18,-253.27"/>
</g>
<!-- Node3 -->
<g id="node3" class="node">
<title>Node3</title>
<g id="a_node3"><a xlink:href="classDatabaseHandler.html#aac7e80ab286a7f5078d6cc715e3cab9b" target="_top" xlink:title="Modify the value of the key in the database.">
<polygon fill="white" stroke="black" points="200,-211 200,-230 369,-230 369,-211 200,-211"/>
<text text-anchor="middle" x="284.5" y="-218" font-family="Helvetica,sans-Serif" font-size="10.00">DatabaseHandler::ModifyValue</text>
</a>
</g>
</g>
<!-- Node1&#45;&gt;Node3 -->
<g id="edge2" class="edge">
<title>Node1&#45;&gt;Node3</title>
<path fill="none" stroke="midnightblue" d="M164.26,-231.8C172.69,-231 181.3,-230.18 189.85,-229.37"/>
<polygon fill="midnightblue" stroke="midnightblue" points="190.21,-232.86 199.84,-228.43 189.55,-225.89 190.21,-232.86"/>
</g>
<!-- Node4 -->
<g id="node4" class="node">
<title>Node4</title>
<g id="a_node4"><a xlink:href="classDatabaseHandler.html#a51bb2f3e9a4c847e65fdccab307a542c" target="_top" xlink:title="Read the data from the database.">
<polygon fill="white" stroke="black" points="405,-233 405,-252 560,-252 560,-233 405,-233"/>
<text text-anchor="middle" x="482.5" y="-240" font-family="Helvetica,sans-Serif" font-size="10.00">DatabaseHandler::ReadData</text>
</a>
</g>
</g>
<!-- Node3&#45;&gt;Node4 -->
<g id="edge3" class="edge">
<title>Node3&#45;&gt;Node4</title>
<path fill="none" stroke="midnightblue" d="M369.19,-229.89C377.72,-230.85 386.39,-231.82 394.94,-232.78"/>
<polygon fill="midnightblue" stroke="midnightblue" points="394.59,-236.27 404.92,-233.9 395.37,-229.31 394.59,-236.27"/>
</g>
<!-- Node8 -->
<g id="node8" class="node">
<title>Node8</title>
<g id="a_node8"><a xlink:href="classDatabaseHandler.html#a2ed186b5456e28d67f44b4c8b350a5ce" target="_top" xlink:title="Save the JSON file data to the database.">
<polygon fill="white" stroke="black" points="405,-192 405,-211 560,-211 560,-192 405,-192"/>
<text text-anchor="middle" x="482.5" y="-199" font-family="Helvetica,sans-Serif" font-size="10.00">DatabaseHandler::SaveData</text>
</a>
</g>
</g>
<!-- Node3&#45;&gt;Node8 -->
<g id="edge7" class="edge">
<title>Node3&#45;&gt;Node8</title>
<path fill="none" stroke="midnightblue" d="M369.19,-212.39C377.72,-211.56 386.39,-210.72 394.94,-209.89"/>
<polygon fill="midnightblue" stroke="midnightblue" points="395.3,-213.37 404.92,-208.92 394.63,-206.41 395.3,-213.37"/>
</g>
<!-- Node5 -->
<g id="node5" class="node">
<title>Node5</title>
<g id="a_node5"><a xlink:href="classnlohmann_1_1basic__json.html#a9286acdc0578fc66e9346323e69fc0e3" target="_top" xlink:title="check the existence of an element in a JSON object">
<polygon fill="white" stroke="black" points="607,-271.5 607,-301.5 729,-301.5 729,-271.5 607,-271.5"/>
<text text-anchor="start" x="615" y="-289.5" font-family="Helvetica,sans-Serif" font-size="10.00">nlohmann::basic_json</text>
<text text-anchor="middle" x="668" y="-278.5" font-family="Helvetica,sans-Serif" font-size="10.00">::contains</text>
</a>
</g>
</g>
<!-- Node4&#45;&gt;Node5 -->
<g id="edge4" class="edge">
<title>Node4&#45;&gt;Node5</title>
<path fill="none" stroke="midnightblue" d="M523.32,-252.05C544.81,-257.2 571.98,-263.72 596.89,-269.69"/>
<polygon fill="midnightblue" stroke="midnightblue" points="596.13,-273.11 606.67,-272.03 597.76,-266.3 596.13,-273.11"/>
</g>
<!-- Node7 -->
<g id="node7" class="node">
<title>Node7</title>
<g id="a_node7"><a xlink:href="classnlohmann_1_1basic__json.html#a6b187a22994c12c8cae0dd5ee99dc85e" target="_top" xlink:title="get special&#45;case overload">
<polygon fill="white" stroke="black" points="596,-233 596,-252 740,-252 740,-233 596,-233"/>
<text text-anchor="middle" x="668" y="-240" font-family="Helvetica,sans-Serif" font-size="10.00">nlohmann::basic_json::get</text>
</a>
</g>
</g>
<!-- Node4&#45;&gt;Node7 -->
<g id="edge6" class="edge">
<title>Node4&#45;&gt;Node7</title>
<path fill="none" stroke="midnightblue" d="M560.26,-242.5C568.64,-242.5 577.19,-242.5 585.62,-242.5"/>
<polygon fill="midnightblue" stroke="midnightblue" points="585.82,-246 595.82,-242.5 585.82,-239 585.82,-246"/>
</g>
<!-- Node6 -->
<g id="node6" class="node">
<title>Node6</title>
<g id="a_node6"><a xlink:href="classnlohmann_1_1basic__json.html#af8f511af124e82e4579f444b4175787c" target="_top" xlink:title="return whether value is an object">
<polygon fill="white" stroke="black" points="790,-271.5 790,-301.5 912,-301.5 912,-271.5 790,-271.5"/>
<text text-anchor="start" x="798" y="-289.5" font-family="Helvetica,sans-Serif" font-size="10.00">nlohmann::basic_json</text>
<text text-anchor="middle" x="851" y="-278.5" font-family="Helvetica,sans-Serif" font-size="10.00">::is_object</text>
</a>
</g>
</g>
<!-- Node5&#45;&gt;Node6 -->
<g id="edge5" class="edge">
<title>Node5&#45;&gt;Node6</title>
<path fill="none" stroke="midnightblue" d="M729.02,-286.5C745.21,-286.5 762.88,-286.5 779.58,-286.5"/>
<polygon fill="midnightblue" stroke="midnightblue" points="779.83,-290 789.83,-286.5 779.83,-283 779.83,-290"/>
</g>
<!-- Node9 -->
<g id="node9" class="node">
<title>Node9</title>
<g id="a_node9"><a xlink:href="classnlohmann_1_1basic__json.html#a50ec80b02d0f3f51130d4abb5d1cfdc5" target="_top" xlink:title="serialization">
<polygon fill="white" stroke="black" points="607,-183.5 607,-213.5 729,-213.5 729,-183.5 607,-183.5"/>
<text text-anchor="start" x="615" y="-201.5" font-family="Helvetica,sans-Serif" font-size="10.00">nlohmann::basic_json</text>
<text text-anchor="middle" x="668" y="-190.5" font-family="Helvetica,sans-Serif" font-size="10.00">::dump</text>
</a>
</g>
</g>
<!-- Node8&#45;&gt;Node9 -->
<g id="edge8" class="edge">
<title>Node8&#45;&gt;Node9</title>
<path fill="none" stroke="midnightblue" d="M560.26,-200.25C572.26,-200.05 584.61,-199.85 596.47,-199.65"/>
<polygon fill="midnightblue" stroke="midnightblue" points="596.79,-203.15 606.73,-199.49 596.68,-196.15 596.79,-203.15"/>
</g>
<!-- Node10 -->
<g id="node10" class="node">
<title>Node10</title>
<g id="a_node10"><a xlink:href="classnlohmann_1_1detail_1_1serializer.html#a95460ebd1a535a543e5a0ec52e00f48b" target="_top" xlink:title="internal implementation of the serialization function">
<polygon fill="white" stroke="black" points="776,-183.5 776,-213.5 926,-213.5 926,-183.5 776,-183.5"/>
<text text-anchor="start" x="784" y="-201.5" font-family="Helvetica,sans-Serif" font-size="10.00">nlohmann::detail::serializer</text>
<text text-anchor="middle" x="851" y="-190.5" font-family="Helvetica,sans-Serif" font-size="10.00">::dump</text>
</a>
</g>
</g>
<!-- Node9&#45;&gt;Node10 -->
<g id="edge9" class="edge">
<title>Node9&#45;&gt;Node10</title>
<path fill="none" stroke="midnightblue" d="M729.02,-198.5C740.76,-198.5 753.27,-198.5 765.63,-198.5"/>
<polygon fill="midnightblue" stroke="midnightblue" points="765.95,-202 775.95,-198.5 765.95,-195 765.95,-202"/>
</g>
<!-- Node11 -->
<g id="node11" class="node">
<title>Node11</title>
<g id="a_node11"><a xlink:href="FuzzerTracePC_8cpp.html#a1f10ac78bd11294b612636121065eb5b" target="_top" xlink:title=" ">
<polygon fill="white" stroke="black" points="1387,-301 1387,-320 1434,-320 1434,-301 1387,-301"/>
<text text-anchor="middle" x="1410.5" y="-308" font-family="Helvetica,sans-Serif" font-size="10.00">assert</text>
</a>
</g>
</g>
<!-- Node10&#45;&gt;Node11 -->
<g id="edge10" class="edge">
<title>Node10&#45;&gt;Node11</title>
<path fill="none" stroke="midnightblue" d="M869.87,-213.87C898.31,-238.21 951.71,-283.42 962,-288.5 1097.02,-355.23 1148.11,-347.15 1298,-332.5 1324.79,-329.88 1354.68,-323.81 1376.77,-318.71"/>
<polygon fill="midnightblue" stroke="midnightblue" points="1377.71,-322.08 1386.63,-316.37 1376.09,-315.27 1377.71,-322.08"/>
</g>
<!-- Node12 -->
<g id="node12" class="node">
<title>Node12</title>
<g id="a_node12"><a xlink:href="classnlohmann_1_1detail_1_1serializer.html#ac1f8d1165b44149bd8be397dce68ea05" target="_top" xlink:title="dump escaped string">
<polygon fill="white" stroke="black" points="962,-142.5 962,-172.5 1112,-172.5 1112,-142.5 962,-142.5"/>
<text text-anchor="start" x="970" y="-160.5" font-family="Helvetica,sans-Serif" font-size="10.00">nlohmann::detail::serializer</text>
<text text-anchor="middle" x="1037" y="-149.5" font-family="Helvetica,sans-Serif" font-size="10.00">::dump_escaped</text>
</a>
</g>
</g>
<!-- Node10&#45;&gt;Node12 -->
<g id="edge11" class="edge">
<title>Node10&#45;&gt;Node12</title>
<path fill="none" stroke="midnightblue" d="M919.47,-183.47C932.22,-180.62 945.65,-177.63 958.67,-174.73"/>
<polygon fill="midnightblue" stroke="midnightblue" points="959.54,-178.12 968.54,-172.53 958.02,-171.29 959.54,-178.12"/>
</g>
<!-- Node19 -->
<g id="node19" class="node">
<title>Node19</title>
<g id="a_node19"><a xlink:href="classnlohmann_1_1detail_1_1serializer.html#a6d652a3bfa581cf1cd7790d6d11ea52f" target="_top" xlink:title="dump a floating&#45;point number">
<polygon fill="white" stroke="black" points="962,-93.5 962,-123.5 1112,-123.5 1112,-93.5 962,-93.5"/>
<text text-anchor="start" x="970" y="-111.5" font-family="Helvetica,sans-Serif" font-size="10.00">nlohmann::detail::serializer</text>
<text text-anchor="middle" x="1037" y="-100.5" font-family="Helvetica,sans-Serif" font-size="10.00">::dump_float</text>
</a>
</g>
</g>
<!-- Node10&#45;&gt;Node19 -->
<g id="edge20" class="edge">
<title>Node10&#45;&gt;Node19</title>
<path fill="none" stroke="midnightblue" d="M873.94,-183.3C895.58,-168.8 929.97,-147.07 962,-132.5 966.12,-130.62 970.43,-128.83 974.81,-127.12"/>
<polygon fill="midnightblue" stroke="midnightblue" points="976.31,-130.3 984.47,-123.54 973.88,-123.74 976.31,-130.3"/>
</g>
<!-- Node20 -->
<g id="node20" class="node">
<title>Node20</title>
<g id="a_node20"><a xlink:href="classnlohmann_1_1detail_1_1serializer.html#a944f6dea8dbe2961da145d2f62fa2c2f" target="_top" xlink:title="dump an integer">
<polygon fill="white" stroke="black" points="962,-248.5 962,-278.5 1112,-278.5 1112,-248.5 962,-248.5"/>
<text text-anchor="start" x="970" y="-266.5" font-family="Helvetica,sans-Serif" font-size="10.00">nlohmann::detail::serializer</text>
<text text-anchor="middle" x="1037" y="-255.5" font-family="Helvetica,sans-Serif" font-size="10.00">::dump_integer</text>
</a>
</g>
</g>
<!-- Node10&#45;&gt;Node20 -->
<g id="edge21" class="edge">
<title>Node10&#45;&gt;Node20</title>
<path fill="none" stroke="midnightblue" d="M894.68,-213.58C921.17,-222.94 955.42,-235.03 983.56,-244.97"/>
<polygon fill="midnightblue" stroke="midnightblue" points="982.64,-248.36 993.24,-248.39 984.97,-241.76 982.64,-248.36"/>
</g>
<!-- Node12&#45;&gt;Node11 -->
<g id="edge12" class="edge">
<title>Node12&#45;&gt;Node11</title>
<path fill="none" stroke="midnightblue" d="M1112.19,-169.94C1177.09,-181.56 1265.87,-199.48 1298,-215.5 1337.55,-235.22 1374.79,-271.95 1394.63,-293.51"/>
<polygon fill="midnightblue" stroke="midnightblue" points="1392.05,-295.87 1401.35,-300.96 1397.25,-291.19 1392.05,-295.87"/>
</g>
<!-- Node13 -->
<g id="node13" class="node">
<title>Node13</title>
<g id="a_node13"><a xlink:href="classnlohmann_1_1detail_1_1type__error.html#aecc083aea4b698c33d042670ba50c10f" target="_top" xlink:title=" ">
<polygon fill="white" stroke="black" points="1159.5,-98.5 1159.5,-128.5 1286.5,-128.5 1286.5,-98.5 1159.5,-98.5"/>
<text text-anchor="start" x="1167.5" y="-116.5" font-family="Helvetica,sans-Serif" font-size="10.00">nlohmann::detail::type</text>
<text text-anchor="middle" x="1223" y="-105.5" font-family="Helvetica,sans-Serif" font-size="10.00">_error::create</text>
</a>
</g>
</g>
<!-- Node12&#45;&gt;Node13 -->
<g id="edge13" class="edge">
<title>Node12&#45;&gt;Node13</title>
<path fill="none" stroke="midnightblue" d="M1100.81,-142.48C1116.5,-138.73 1133.45,-134.67 1149.57,-130.82"/>
<polygon fill="midnightblue" stroke="midnightblue" points="1150.56,-134.18 1159.48,-128.45 1148.94,-127.37 1150.56,-134.18"/>
</g>
<!-- Node15 -->
<g id="node15" class="node">
<title>Node15</title>
<g id="a_node15"><a xlink:href="namespacehttplib.html#a498c3a79825ecbcb15c52ec5fcfd5c11" target="_top" xlink:title=" ">
<polygon fill="white" stroke="black" points="1523,-126 1523,-145 1620,-145 1620,-126 1523,-126"/>
<text text-anchor="middle" x="1571.5" y="-133" font-family="Helvetica,sans-Serif" font-size="10.00">httplib::to_string</text>
</a>
</g>
</g>
<!-- Node12&#45;&gt;Node15 -->
<g id="edge19" class="edge">
<title>Node12&#45;&gt;Node15</title>
<path fill="none" stroke="midnightblue" d="M1112.04,-154.44C1219.16,-150.02 1415.16,-141.92 1512.49,-137.9"/>
<polygon fill="midnightblue" stroke="midnightblue" points="1512.88,-141.38 1522.72,-137.47 1512.59,-134.39 1512.88,-141.38"/>
</g>
<!-- Node17 -->
<g id="node17" class="node">
<title>Node17</title>
<g id="a_node17"><a xlink:href="classnlohmann_1_1detail_1_1serializer.html#abdcc4fd1dc5d3afb6c0817e4c89b1242" target="_top" xlink:title="check whether a string is UTF&#45;8 encoded">
<polygon fill="white" stroke="black" points="1148,-49.5 1148,-79.5 1298,-79.5 1298,-49.5 1148,-49.5"/>
<text text-anchor="start" x="1156" y="-67.5" font-family="Helvetica,sans-Serif" font-size="10.00">nlohmann::detail::serializer</text>
<text text-anchor="middle" x="1223" y="-56.5" font-family="Helvetica,sans-Serif" font-size="10.00">::decode</text>
</a>
</g>
</g>
<!-- Node12&#45;&gt;Node17 -->
<g id="edge17" class="edge">
<title>Node12&#45;&gt;Node17</title>
<path fill="none" stroke="midnightblue" d="M1093.8,-142.48C1100.2,-139.66 1106.42,-136.36 1112,-132.5 1132.78,-118.12 1127.14,-102.75 1148,-88.5 1150.27,-86.95 1152.66,-85.49 1155.11,-84.12"/>
<polygon fill="midnightblue" stroke="midnightblue" points="1156.89,-87.14 1164.28,-79.55 1153.77,-80.88 1156.89,-87.14"/>
</g>
<!-- Node18 -->
<g id="node18" class="node">
<title>Node18</title>
<g id="a_node18"><a xlink:href="classnlohmann_1_1detail_1_1binary__writer.html#ab77aa48692bd4e64e4f051ce6aeb6d2d" target="_top" xlink:title=" ">
<polygon fill="white" stroke="black" points="1155,-0.5 1155,-30.5 1291,-30.5 1291,-0.5 1155,-0.5"/>
<text text-anchor="start" x="1163" y="-18.5" font-family="Helvetica,sans-Serif" font-size="10.00">nlohmann::detail::binary</text>
<text text-anchor="middle" x="1223" y="-7.5" font-family="Helvetica,sans-Serif" font-size="10.00">_writer::to_char_type</text>
</a>
</g>
</g>
<!-- Node12&#45;&gt;Node18 -->
<g id="edge18" class="edge">
<title>Node12&#45;&gt;Node18</title>
<path fill="none" stroke="midnightblue" d="M1098.42,-142.35C1103.36,-139.6 1107.98,-136.34 1112,-132.5 1144.02,-101.85 1115.8,-69.96 1148,-39.5 1149.13,-38.43 1150.32,-37.4 1151.54,-36.42"/>
<polygon fill="midnightblue" stroke="midnightblue" points="1153.83,-39.1 1160.16,-30.6 1149.92,-33.3 1153.83,-39.1"/>
</g>
<!-- Node14 -->
<g id="node14" class="node">
<title>Node14</title>
<g id="a_node14"><a xlink:href="classnlohmann_1_1detail_1_1exception.html#abf41a7e9178356314082284e6cfea278" target="_top" xlink:title=" ">
<polygon fill="white" stroke="black" points="1334,-98.5 1334,-128.5 1487,-128.5 1487,-98.5 1334,-98.5"/>
<text text-anchor="start" x="1342" y="-116.5" font-family="Helvetica,sans-Serif" font-size="10.00">nlohmann::detail::exception</text>
<text text-anchor="middle" x="1410.5" y="-105.5" font-family="Helvetica,sans-Serif" font-size="10.00">::name</text>
</a>
</g>
</g>
<!-- Node13&#45;&gt;Node14 -->
<g id="edge14" class="edge">
<title>Node13&#45;&gt;Node14</title>
<path fill="none" stroke="midnightblue" d="M1286.54,-113.5C1298.38,-113.5 1310.95,-113.5 1323.36,-113.5"/>
<polygon fill="midnightblue" stroke="midnightblue" points="1323.72,-117 1333.72,-113.5 1323.72,-110 1323.72,-117"/>
</g>
<!-- Node16 -->
<g id="node16" class="node">
<title>Node16</title>
<g id="a_node16"><a xlink:href="classnlohmann_1_1detail_1_1type__error.html#aa01edaa0bf18b853368f0b900e485cd7" target="_top" xlink:title=" ">
<polygon fill="white" stroke="black" points="1347,-49.5 1347,-79.5 1474,-79.5 1474,-49.5 1347,-49.5"/>
<text text-anchor="start" x="1355" y="-67.5" font-family="Helvetica,sans-Serif" font-size="10.00">nlohmann::detail::type</text>
<text text-anchor="middle" x="1410.5" y="-56.5" font-family="Helvetica,sans-Serif" font-size="10.00">_error::type_error</text>
</a>
</g>
</g>
<!-- Node13&#45;&gt;Node16 -->
<g id="edge16" class="edge">
<title>Node13&#45;&gt;Node16</title>
<path fill="none" stroke="midnightblue" d="M1280.92,-98.47C1300.5,-93.29 1322.61,-87.45 1342.9,-82.09"/>
<polygon fill="midnightblue" stroke="midnightblue" points="1343.92,-85.44 1352.69,-79.51 1342.13,-78.68 1343.92,-85.44"/>
</g>
<!-- Node14&#45;&gt;Node15 -->
<g id="edge15" class="edge">
<title>Node14&#45;&gt;Node15</title>
<path fill="none" stroke="midnightblue" d="M1487.27,-123.98C1495.92,-125.18 1504.62,-126.38 1512.97,-127.54"/>
<polygon fill="midnightblue" stroke="midnightblue" points="1512.57,-131.02 1522.96,-128.92 1513.53,-124.08 1512.57,-131.02"/>
</g>
<!-- Node20&#45;&gt;Node11 -->
<g id="edge22" class="edge">
<title>Node20&#45;&gt;Node11</title>
<path fill="none" stroke="midnightblue" d="M1063.14,-278.69C1084.77,-290.82 1117.25,-306.84 1148,-313.5 1228.61,-330.96 1326.5,-322.13 1376.55,-315.53"/>
<polygon fill="midnightblue" stroke="midnightblue" points="1377.34,-318.95 1386.77,-314.12 1376.39,-312.02 1377.34,-318.95"/>
</g>
<!-- Node21 -->
<g id="node21" class="node">
<title>Node21</title>
<g id="a_node21"><a xlink:href="classnlohmann_1_1detail_1_1serializer.html#a10692e98ea1f5a64de1d0b8e0e724b99" target="_top" xlink:title="count digits">
<polygon fill="white" stroke="black" points="1148,-224.5 1148,-254.5 1298,-254.5 1298,-224.5 1148,-224.5"/>
<text text-anchor="start" x="1156" y="-242.5" font-family="Helvetica,sans-Serif" font-size="10.00">nlohmann::detail::serializer</text>
<text text-anchor="middle" x="1223" y="-231.5" font-family="Helvetica,sans-Serif" font-size="10.00">::count_digits</text>
</a>
</g>
</g>
<!-- Node20&#45;&gt;Node21 -->
<g id="edge23" class="edge">
<title>Node20&#45;&gt;Node21</title>
<path fill="none" stroke="midnightblue" d="M1112.04,-253.84C1120.51,-252.74 1129.19,-251.61 1137.78,-250.48"/>
<polygon fill="midnightblue" stroke="midnightblue" points="1138.34,-253.94 1147.81,-249.18 1137.44,-247 1138.34,-253.94"/>
</g>
<!-- Node22 -->
<g id="node22" class="node">
<title>Node22</title>
<g id="a_node22"><a xlink:href="classnlohmann_1_1detail_1_1serializer.html#a45bcb8ea41e4db5461e979d4b1d5e5e7" target="_top" xlink:title=" ">
<polygon fill="white" stroke="black" points="1148,-273.5 1148,-303.5 1298,-303.5 1298,-273.5 1148,-273.5"/>
<text text-anchor="start" x="1156" y="-291.5" font-family="Helvetica,sans-Serif" font-size="10.00">nlohmann::detail::serializer</text>
<text text-anchor="middle" x="1223" y="-280.5" font-family="Helvetica,sans-Serif" font-size="10.00">::remove_sign</text>
</a>
</g>
</g>
<!-- Node20&#45;&gt;Node22 -->
<g id="edge24" class="edge">
<title>Node20&#45;&gt;Node22</title>
<path fill="none" stroke="midnightblue" d="M1112.04,-273.56C1120.51,-274.71 1129.19,-275.89 1137.78,-277.06"/>
<polygon fill="midnightblue" stroke="midnightblue" points="1137.43,-280.54 1147.81,-278.42 1138.37,-273.6 1137.43,-280.54"/>
</g>
<!-- Node22&#45;&gt;Node11 -->
<g id="edge25" class="edge">
<title>Node22&#45;&gt;Node11</title>
<path fill="none" stroke="midnightblue" d="M1298.11,-297.29C1325.35,-300.52 1354.81,-304.01 1376.59,-306.6"/>
<polygon fill="midnightblue" stroke="midnightblue" points="1376.28,-310.09 1386.63,-307.79 1377.11,-303.13 1376.28,-310.09"/>
</g>
</g>
</svg>
