<?xml version="1.0" encoding="UTF-8" standalone="no"?>
<!DOCTYPE svg PUBLIC "-//W3C//DTD SVG 1.1//EN"
 "http://www.w3.org/Graphics/SVG/1.1/DTD/svg11.dtd">
<!-- Generated by graphviz version 2.43.0 (0)
 -->
<!-- Title: fuzzer::Fuzzer::CrashResistantMergeInternalStep Pages: 1 -->
<svg width="1090pt" height="1016pt"
 viewBox="0.00 0.00 1090.00 1016.00" xmlns="http://www.w3.org/2000/svg" xmlns:xlink="http://www.w3.org/1999/xlink">
<g id="graph0" class="graph" transform="scale(1 1) rotate(0) translate(4 1012)">
<title>fuzzer::Fuzzer::CrashResistantMergeInternalStep</title>
<polygon fill="white" stroke="transparent" points="-4,4 -4,-1012 1086,-1012 1086,4 -4,4"/>
<!-- Node1 -->
<g id="node1" class="node">
<title>Node1</title>
<g id="a_node1"><a xlink:title=" ">
<polygon fill="#bfbfbf" stroke="black" points="0,-597.5 0,-627.5 164,-627.5 164,-597.5 0,-597.5"/>
<text text-anchor="start" x="8" y="-615.5" font-family="Helvetica,sans-Serif" font-size="10.00">fuzzer::Fuzzer::CrashResistant</text>
<text text-anchor="middle" x="82" y="-604.5" font-family="Helvetica,sans-Serif" font-size="10.00">MergeInternalStep</text>
</a>
</g>
</g>
<!-- Node2 -->
<g id="node2" class="node">
<title>Node2</title>
<g id="a_node2"><a xlink:href="classfuzzer_1_1TracePC.html#a55ed957cdbb049a9e2d5bb4fb9455d79" target="_top" xlink:title=" ">
<polygon fill="white" stroke="black" points="422,-835.5 422,-865.5 553,-865.5 553,-835.5 422,-835.5"/>
<text text-anchor="start" x="430" y="-853.5" font-family="Helvetica,sans-Serif" font-size="10.00">fuzzer::TracePC::Collect</text>
<text text-anchor="middle" x="487.5" y="-842.5" font-family="Helvetica,sans-Serif" font-size="10.00">Features</text>
</a>
</g>
</g>
<!-- Node1&#45;&gt;Node2 -->
<g id="edge1" class="edge">
<title>Node1&#45;&gt;Node2</title>
<path fill="none" stroke="midnightblue" d="M91.18,-627.62C107.8,-656.95 148.37,-721.83 200,-757.5 264.19,-801.85 350.87,-826.09 412.02,-838.6"/>
<polygon fill="midnightblue" stroke="midnightblue" points="411.5,-842.07 421.99,-840.59 412.86,-835.2 411.5,-842.07"/>
</g>
<!-- Node7 -->
<g id="node7" class="node">
<title>Node7</title>
<g id="a_node7"><a xlink:href="classfuzzer_1_1Fuzzer.html#a5a299bed53a0c2d2ffd6557c173f7e40" target="_top" xlink:title=" ">
<polygon fill="white" stroke="black" points="200,-729 200,-748 371,-748 371,-729 200,-729"/>
<text text-anchor="middle" x="285.5" y="-736" font-family="Helvetica,sans-Serif" font-size="10.00">fuzzer::Fuzzer::ExecuteCallback</text>
</a>
</g>
</g>
<!-- Node1&#45;&gt;Node7 -->
<g id="edge6" class="edge">
<title>Node1&#45;&gt;Node7</title>
<path fill="none" stroke="midnightblue" d="M107.31,-627.7C146.26,-652.06 222.21,-699.55 260.78,-723.67"/>
<polygon fill="midnightblue" stroke="midnightblue" points="258.97,-726.66 269.3,-729 262.68,-720.73 258.97,-726.66"/>
</g>
<!-- Node10 -->
<g id="node10" class="node">
<title>Node10</title>
<g id="a_node10"><a xlink:href="classfuzzer_1_1TracePC.html#ab843236d692511688e9d754f926de962" target="_top" xlink:title=" ">
<polygon fill="white" stroke="black" points="411.5,-923 411.5,-942 563.5,-942 563.5,-923 411.5,-923"/>
<text text-anchor="middle" x="487.5" y="-930" font-family="Helvetica,sans-Serif" font-size="10.00">fuzzer::TracePC::ResetMaps</text>
</a>
</g>
</g>
<!-- Node1&#45;&gt;Node10 -->
<g id="edge44" class="edge">
<title>Node1&#45;&gt;Node10</title>
<path fill="none" stroke="midnightblue" d="M88.65,-627.6C102.58,-663.11 141.75,-753.03 200,-807.5 266.69,-869.86 369.47,-904.24 432.1,-920.49"/>
<polygon fill="midnightblue" stroke="midnightblue" points="431.24,-923.88 441.79,-922.94 432.96,-917.1 431.24,-923.88"/>
</g>
<!-- Node13 -->
<g id="node13" class="node">
<title>Node13</title>
<g id="a_node13"><a xlink:href="namespacefuzzer.html#afab785891fdb74f8fd33bca421bde935" target="_top" xlink:title=" ">
<polygon fill="white" stroke="black" points="642.5,-497 642.5,-516 721.5,-516 721.5,-497 642.5,-497"/>
<text text-anchor="middle" x="682" y="-504" font-family="Helvetica,sans-Serif" font-size="10.00">fuzzer::Printf</text>
</a>
</g>
</g>
<!-- Node1&#45;&gt;Node13 -->
<g id="edge28" class="edge">
<title>Node1&#45;&gt;Node13</title>
<path fill="none" stroke="midnightblue" d="M89.65,-597.43C104.3,-566.34 142.7,-495.77 200,-468.5 354.14,-395.14 567.67,-462.65 648.37,-493.25"/>
<polygon fill="midnightblue" stroke="midnightblue" points="647.39,-496.62 657.98,-496.95 649.91,-490.09 647.39,-496.62"/>
</g>
<!-- Node21 -->
<g id="node21" class="node">
<title>Node21</title>
<g id="a_node21"><a xlink:href="namespacefuzzer.html#ad0d32f18af1b62563991edc4642a6fa0" target="_top" xlink:title=" ">
<polygon fill="white" stroke="black" points="230,-478 230,-497 341,-497 341,-478 230,-478"/>
<text text-anchor="middle" x="285.5" y="-485" font-family="Helvetica,sans-Serif" font-size="10.00">fuzzer::FileToVector</text>
</a>
</g>
</g>
<!-- Node1&#45;&gt;Node21 -->
<g id="edge22" class="edge">
<title>Node1&#45;&gt;Node21</title>
<path fill="none" stroke="midnightblue" d="M107.31,-597.42C146.16,-573.32 221.83,-526.38 260.5,-502.39"/>
<polygon fill="midnightblue" stroke="midnightblue" points="262.39,-505.33 269.04,-497.09 258.7,-499.39 262.39,-505.33"/>
</g>
<!-- Node22 -->
<g id="node22" class="node">
<title>Node22</title>
<g id="a_node22"><a xlink:href="structfuzzer_1_1Merger.html#a00d5bdf3131e81ca24b31af530bbe6db" target="_top" xlink:title=" ">
<polygon fill="white" stroke="black" points="210.5,-603 210.5,-622 360.5,-622 360.5,-603 210.5,-603"/>
<text text-anchor="middle" x="285.5" y="-610" font-family="Helvetica,sans-Serif" font-size="10.00">fuzzer::Merger::ParseOrExit</text>
</a>
</g>
</g>
<!-- Node1&#45;&gt;Node22 -->
<g id="edge24" class="edge">
<title>Node1&#45;&gt;Node22</title>
<path fill="none" stroke="midnightblue" d="M164.09,-612.5C176.05,-612.5 188.39,-612.5 200.41,-612.5"/>
<polygon fill="midnightblue" stroke="midnightblue" points="200.42,-616 210.42,-612.5 200.42,-609 200.42,-616"/>
</g>
<!-- Node24 -->
<g id="node24" class="node">
<title>Node24</title>
<g id="a_node24"><a xlink:href="classfuzzer_1_1Fuzzer.html#a8f5aa23c9773c86b0b57362a36c81247" target="_top" xlink:title=" ">
<polygon fill="white" stroke="black" points="217,-246 217,-265 354,-265 354,-246 217,-246"/>
<text text-anchor="middle" x="285.5" y="-253" font-family="Helvetica,sans-Serif" font-size="10.00">fuzzer::Fuzzer::PrintStats</text>
</a>
</g>
</g>
<!-- Node1&#45;&gt;Node24 -->
<g id="edge29" class="edge">
<title>Node1&#45;&gt;Node24</title>
<path fill="none" stroke="midnightblue" d="M91.66,-597.16C124.19,-539.52 239.06,-336.01 274.2,-273.74"/>
<polygon fill="midnightblue" stroke="midnightblue" points="277.27,-275.43 279.14,-265 271.17,-271.99 277.27,-275.43"/>
</g>
<!-- Node3 -->
<g id="node3" class="node">
<title>Node3</title>
<g id="a_node3"><a xlink:href="FuzzerTracePC_8cpp.html#a1f10ac78bd11294b612636121065eb5b" target="_top" xlink:title=" ">
<polygon fill="white" stroke="black" points="658.5,-680 658.5,-699 705.5,-699 705.5,-680 658.5,-680"/>
<text text-anchor="middle" x="682" y="-687" font-family="Helvetica,sans-Serif" font-size="10.00">assert</text>
</a>
</g>
</g>
<!-- Node2&#45;&gt;Node3 -->
<g id="edge2" class="edge">
<title>Node2&#45;&gt;Node3</title>
<path fill="none" stroke="midnightblue" d="M553.13,-836.16C558.56,-833.24 563.64,-829.73 568,-825.5 602.83,-791.76 570.91,-757.95 604,-722.5 615.81,-709.85 633.26,-701.84 648.57,-696.87"/>
<polygon fill="midnightblue" stroke="midnightblue" points="649.63,-700.21 658.24,-694.04 647.66,-693.49 649.63,-700.21"/>
</g>
<!-- Node4 -->
<g id="node4" class="node">
<title>Node4</title>
<g id="a_node4"><a xlink:href="structfuzzer_1_1ValueBitMap.html#a152e13d2af4b78d639e4225f2dd2f040" target="_top" xlink:title=" ">
<polygon fill="white" stroke="black" points="624.5,-781.5 624.5,-811.5 739.5,-811.5 739.5,-781.5 624.5,-781.5"/>
<text text-anchor="start" x="632.5" y="-799.5" font-family="Helvetica,sans-Serif" font-size="10.00">fuzzer::ValueBitMap</text>
<text text-anchor="middle" x="682" y="-788.5" font-family="Helvetica,sans-Serif" font-size="10.00">::ForEach</text>
</a>
</g>
</g>
<!-- Node2&#45;&gt;Node4 -->
<g id="edge3" class="edge">
<title>Node2&#45;&gt;Node4</title>
<path fill="none" stroke="midnightblue" d="M542.12,-835.46C565.49,-828.9 593.06,-821.17 617.45,-814.33"/>
<polygon fill="midnightblue" stroke="midnightblue" points="618.65,-817.63 627.33,-811.55 616.76,-810.89 618.65,-817.63"/>
</g>
<!-- Node5 -->
<g id="node5" class="node">
<title>Node5</title>
<g id="a_node5"><a xlink:href="namespacefuzzer.html#a5d55e117eab080df334785a11032f9a1" target="_top" xlink:title=" ">
<polygon fill="white" stroke="black" points="837,-514 837,-533 908,-533 908,-514 837,-514"/>
<text text-anchor="middle" x="872.5" y="-521" font-family="Helvetica,sans-Serif" font-size="10.00">fuzzer::Min</text>
</a>
</g>
</g>
<!-- Node2&#45;&gt;Node5 -->
<g id="edge4" class="edge">
<title>Node2&#45;&gt;Node5</title>
<path fill="none" stroke="midnightblue" d="M551.29,-835.32C557.22,-832.57 562.91,-829.32 568,-825.5 591.07,-808.19 581.63,-789.71 604,-771.5 661.99,-724.29 703.11,-757.02 760,-708.5 815.32,-661.33 850.8,-579.51 864.76,-542.57"/>
<polygon fill="midnightblue" stroke="midnightblue" points="868.1,-543.61 868.26,-533.02 861.53,-541.2 868.1,-543.61"/>
</g>
<!-- Node6 -->
<g id="node6" class="node">
<title>Node6</title>
<g id="a_node6"><a xlink:href="classfuzzer_1_1TracePC.html#a29a541c6620ce8b571bc0657205134e6" target="_top" xlink:title=" ">
<polygon fill="white" stroke="black" points="606,-830.5 606,-860.5 758,-860.5 758,-830.5 606,-830.5"/>
<text text-anchor="start" x="614" y="-848.5" font-family="Helvetica,sans-Serif" font-size="10.00">fuzzer::TracePC::UsingTrace</text>
<text text-anchor="middle" x="682" y="-837.5" font-family="Helvetica,sans-Serif" font-size="10.00">PcGuard</text>
</a>
</g>
</g>
<!-- Node2&#45;&gt;Node6 -->
<g id="edge5" class="edge">
<title>Node2&#45;&gt;Node6</title>
<path fill="none" stroke="midnightblue" d="M553.14,-848.82C566.76,-848.47 581.33,-848.09 595.59,-847.72"/>
<polygon fill="midnightblue" stroke="midnightblue" points="595.98,-851.21 605.89,-847.45 595.8,-844.21 595.98,-851.21"/>
</g>
<!-- Node7&#45;&gt;Node3 -->
<g id="edge7" class="edge">
<title>Node7&#45;&gt;Node3</title>
<path fill="none" stroke="midnightblue" d="M363.03,-728.99C449.45,-718.26 586.1,-701.29 648.27,-693.57"/>
<polygon fill="midnightblue" stroke="midnightblue" points="648.8,-697.03 658.29,-692.32 647.93,-690.08 648.8,-697.03"/>
</g>
<!-- Node8 -->
<g id="node8" class="node">
<title>Node8</title>
<g id="a_node8"><a xlink:href="classfuzzer_1_1Fuzzer.html#a6b8043b43eaa243299df6d64ba8413b6" target="_top" xlink:title=" ">
<polygon fill="white" stroke="black" points="419.5,-786.5 419.5,-816.5 555.5,-816.5 555.5,-786.5 419.5,-786.5"/>
<text text-anchor="start" x="427.5" y="-804.5" font-family="Helvetica,sans-Serif" font-size="10.00">fuzzer::Fuzzer::InFuzzing</text>
<text text-anchor="middle" x="487.5" y="-793.5" font-family="Helvetica,sans-Serif" font-size="10.00">Thread</text>
</a>
</g>
</g>
<!-- Node7&#45;&gt;Node8 -->
<g id="edge8" class="edge">
<title>Node7&#45;&gt;Node8</title>
<path fill="none" stroke="midnightblue" d="M316.71,-748.03C341.08,-755.72 376.24,-766.81 407,-776.5 414.02,-778.71 421.39,-781.03 428.69,-783.33"/>
<polygon fill="midnightblue" stroke="midnightblue" points="427.98,-786.77 438.57,-786.44 430.08,-780.1 427.98,-786.77"/>
</g>
<!-- Node9 -->
<g id="node9" class="node">
<title>Node9</title>
<g id="a_node9"><a xlink:href="classfuzzer_1_1Fuzzer.html#aae1fc306bbc4d6094da5a7bb530abd79" target="_top" xlink:title=" ">
<polygon fill="white" stroke="black" points="407,-748 407,-767 568,-767 568,-748 407,-748"/>
<text text-anchor="middle" x="487.5" y="-755" font-family="Helvetica,sans-Serif" font-size="10.00">fuzzer::Fuzzer::ResetCounters</text>
</a>
</g>
</g>
<!-- Node7&#45;&gt;Node9 -->
<g id="edge9" class="edge">
<title>Node7&#45;&gt;Node9</title>
<path fill="none" stroke="midnightblue" d="M371.03,-746.53C379.53,-747.34 388.19,-748.16 396.75,-748.97"/>
<polygon fill="midnightblue" stroke="midnightblue" points="396.45,-752.46 406.73,-749.92 397.11,-745.49 396.45,-752.46"/>
</g>
<!-- Node7&#45;&gt;Node10 -->
<g id="edge10" class="edge">
<title>Node7&#45;&gt;Node10</title>
<path fill="none" stroke="midnightblue" d="M290.24,-748.31C302.19,-778.28 342.51,-869.27 407,-913.5 409.9,-915.49 412.98,-917.27 416.18,-918.86"/>
<polygon fill="midnightblue" stroke="midnightblue" points="414.89,-922.12 425.46,-922.88 417.68,-915.7 414.89,-922.12"/>
</g>
<!-- Node12 -->
<g id="node12" class="node">
<title>Node12</title>
<g id="a_node12"><a xlink:href="structfuzzer_1_1MallocFreeTracer.html#a33e0a6e9470e71e395f44b3e285cc747" target="_top" xlink:title=" ">
<polygon fill="white" stroke="black" points="419.5,-573.5 419.5,-603.5 555.5,-603.5 555.5,-573.5 419.5,-573.5"/>
<text text-anchor="start" x="427.5" y="-591.5" font-family="Helvetica,sans-Serif" font-size="10.00">fuzzer::MallocFreeTracer</text>
<text text-anchor="middle" x="487.5" y="-580.5" font-family="Helvetica,sans-Serif" font-size="10.00">::Start</text>
</a>
</g>
</g>
<!-- Node7&#45;&gt;Node12 -->
<g id="edge12" class="edge">
<title>Node7&#45;&gt;Node12</title>
<path fill="none" stroke="midnightblue" d="M293.12,-728.67C309.55,-705.04 354.63,-644.64 407,-612.5 409.76,-610.8 412.66,-609.22 415.63,-607.74"/>
<polygon fill="midnightblue" stroke="midnightblue" points="417.1,-610.92 424.77,-603.62 414.22,-604.54 417.1,-610.92"/>
</g>
<!-- Node14 -->
<g id="node14" class="node">
<title>Node14</title>
<g id="a_node14"><a xlink:href="structfuzzer_1_1MallocFreeTracer.html#aeea33120b85a8a1fddf17646449c40cf" target="_top" xlink:title=" ">
<polygon fill="white" stroke="black" points="419.5,-622.5 419.5,-652.5 555.5,-652.5 555.5,-622.5 419.5,-622.5"/>
<text text-anchor="start" x="427.5" y="-640.5" font-family="Helvetica,sans-Serif" font-size="10.00">fuzzer::MallocFreeTracer</text>
<text text-anchor="middle" x="487.5" y="-629.5" font-family="Helvetica,sans-Serif" font-size="10.00">::Stop</text>
</a>
</g>
</g>
<!-- Node7&#45;&gt;Node14 -->
<g id="edge14" class="edge">
<title>Node7&#45;&gt;Node14</title>
<path fill="none" stroke="midnightblue" d="M299.24,-728.9C320.56,-713.19 365.25,-681.83 407,-662.5 411.92,-660.22 417.11,-658.07 422.38,-656.07"/>
<polygon fill="midnightblue" stroke="midnightblue" points="423.7,-659.31 431.91,-652.61 421.31,-652.73 423.7,-659.31"/>
</g>
<!-- Node15 -->
<g id="node15" class="node">
<title>Node15</title>
<g id="a_node15"><a xlink:href="namespacenlohmann_1_1detail.html#a59fca69799f6b9e366710cb9043aa77d" target="_top" xlink:title=" ">
<polygon fill="white" stroke="black" points="424.5,-885 424.5,-904 550.5,-904 550.5,-885 424.5,-885"/>
<text text-anchor="middle" x="487.5" y="-892" font-family="Helvetica,sans-Serif" font-size="10.00">nlohmann::detail::void</text>
</a>
</g>
</g>
<!-- Node7&#45;&gt;Node15 -->
<g id="edge16" class="edge">
<title>Node7&#45;&gt;Node15</title>
<path fill="none" stroke="midnightblue" d="M292.14,-748.17C307.28,-773.25 351.47,-840.75 407,-874.5 411.37,-877.16 416.09,-879.46 420.96,-881.46"/>
<polygon fill="midnightblue" stroke="midnightblue" points="419.88,-884.79 430.47,-884.94 422.28,-878.22 419.88,-884.79"/>
</g>
<!-- Node11 -->
<g id="node11" class="node">
<title>Node11</title>
<g id="a_node11"><a xlink:href="structfuzzer_1_1ValueBitMap.html#a7e0a77c4c7b3631b136ea7f2d3f6ceaf" target="_top" xlink:title=" ">
<polygon fill="white" stroke="black" points="624.5,-977.5 624.5,-1007.5 739.5,-1007.5 739.5,-977.5 624.5,-977.5"/>
<text text-anchor="start" x="632.5" y="-995.5" font-family="Helvetica,sans-Serif" font-size="10.00">fuzzer::ValueBitMap</text>
<text text-anchor="middle" x="682" y="-984.5" font-family="Helvetica,sans-Serif" font-size="10.00">::Reset</text>
</a>
</g>
</g>
<!-- Node10&#45;&gt;Node11 -->
<g id="edge11" class="edge">
<title>Node10&#45;&gt;Node11</title>
<path fill="none" stroke="midnightblue" d="M519,-942.01C546.79,-950.67 588.59,-963.7 622.76,-974.35"/>
<polygon fill="midnightblue" stroke="midnightblue" points="622.05,-977.79 632.64,-977.43 624.14,-971.11 622.05,-977.79"/>
</g>
<!-- Node12&#45;&gt;Node13 -->
<g id="edge13" class="edge">
<title>Node12&#45;&gt;Node13</title>
<path fill="none" stroke="midnightblue" d="M529.98,-573.48C542.29,-568.85 555.75,-563.62 568,-558.5 596.94,-546.4 629.42,-531.29 652.1,-520.48"/>
<polygon fill="midnightblue" stroke="midnightblue" points="653.68,-523.61 661.18,-516.13 650.65,-517.29 653.68,-523.61"/>
</g>
<!-- Node14&#45;&gt;Node13 -->
<g id="edge15" class="edge">
<title>Node14&#45;&gt;Node13</title>
<path fill="none" stroke="midnightblue" d="M547.12,-622.41C554.37,-619.58 561.51,-616.3 568,-612.5 608.95,-588.56 647.1,-547.3 666.88,-523.95"/>
<polygon fill="midnightblue" stroke="midnightblue" points="669.61,-526.15 673.31,-516.22 664.22,-521.67 669.61,-526.15"/>
</g>
<!-- Node16 -->
<g id="node16" class="node">
<title>Node16</title>
<g id="a_node16"><a xlink:href="classnlohmann_1_1detail_1_1type__error.html#aecc083aea4b698c33d042670ba50c10f" target="_top" xlink:title=" ">
<polygon fill="white" stroke="black" points="618.5,-928.5 618.5,-958.5 745.5,-958.5 745.5,-928.5 618.5,-928.5"/>
<text text-anchor="start" x="626.5" y="-946.5" font-family="Helvetica,sans-Serif" font-size="10.00">nlohmann::detail::type</text>
<text text-anchor="middle" x="682" y="-935.5" font-family="Helvetica,sans-Serif" font-size="10.00">_error::create</text>
</a>
</g>
</g>
<!-- Node15&#45;&gt;Node16 -->
<g id="edge17" class="edge">
<title>Node15&#45;&gt;Node16</title>
<path fill="none" stroke="midnightblue" d="M529.4,-904.07C541.81,-907.03 555.48,-910.34 568,-913.5 583.42,-917.39 599.98,-921.71 615.55,-925.83"/>
<polygon fill="midnightblue" stroke="midnightblue" points="615.04,-929.31 625.61,-928.5 616.84,-922.55 615.04,-929.31"/>
</g>
<!-- Node20 -->
<g id="node20" class="node">
<title>Node20</title>
<g id="a_node20"><a xlink:href="namespacenlohmann_1_1detail.html#a40f7bb070a60e8ba14fffb9c117fcbd8" target="_top" xlink:title=" ">
<polygon fill="white" stroke="black" points="618,-879.5 618,-909.5 746,-909.5 746,-879.5 618,-879.5"/>
<text text-anchor="start" x="626" y="-897.5" font-family="Helvetica,sans-Serif" font-size="10.00">nlohmann::detail::from</text>
<text text-anchor="middle" x="682" y="-886.5" font-family="Helvetica,sans-Serif" font-size="10.00">_json_array_impl</text>
</a>
</g>
</g>
<!-- Node15&#45;&gt;Node20 -->
<g id="edge21" class="edge">
<title>Node15&#45;&gt;Node20</title>
<path fill="none" stroke="midnightblue" d="M550.73,-894.5C568.98,-894.5 589.11,-894.5 607.96,-894.5"/>
<polygon fill="midnightblue" stroke="midnightblue" points="607.99,-898 617.99,-894.5 607.99,-891 607.99,-898"/>
</g>
<!-- Node17 -->
<g id="node17" class="node">
<title>Node17</title>
<g id="a_node17"><a xlink:href="classnlohmann_1_1detail_1_1exception.html#abf41a7e9178356314082284e6cfea278" target="_top" xlink:title=" ">
<polygon fill="white" stroke="black" points="796,-903.5 796,-933.5 949,-933.5 949,-903.5 796,-903.5"/>
<text text-anchor="start" x="804" y="-921.5" font-family="Helvetica,sans-Serif" font-size="10.00">nlohmann::detail::exception</text>
<text text-anchor="middle" x="872.5" y="-910.5" font-family="Helvetica,sans-Serif" font-size="10.00">::name</text>
</a>
</g>
</g>
<!-- Node16&#45;&gt;Node17 -->
<g id="edge18" class="edge">
<title>Node16&#45;&gt;Node17</title>
<path fill="none" stroke="midnightblue" d="M745.51,-935.21C758.32,-933.51 772.01,-931.69 785.48,-929.91"/>
<polygon fill="midnightblue" stroke="midnightblue" points="786.27,-933.33 795.72,-928.55 785.35,-926.4 786.27,-933.33"/>
</g>
<!-- Node19 -->
<g id="node19" class="node">
<title>Node19</title>
<g id="a_node19"><a xlink:href="classnlohmann_1_1detail_1_1type__error.html#aa01edaa0bf18b853368f0b900e485cd7" target="_top" xlink:title=" ">
<polygon fill="white" stroke="black" points="809,-952.5 809,-982.5 936,-982.5 936,-952.5 809,-952.5"/>
<text text-anchor="start" x="817" y="-970.5" font-family="Helvetica,sans-Serif" font-size="10.00">nlohmann::detail::type</text>
<text text-anchor="middle" x="872.5" y="-959.5" font-family="Helvetica,sans-Serif" font-size="10.00">_error::type_error</text>
</a>
</g>
</g>
<!-- Node16&#45;&gt;Node19 -->
<g id="edge20" class="edge">
<title>Node16&#45;&gt;Node19</title>
<path fill="none" stroke="midnightblue" d="M745.51,-951.46C762.53,-953.63 781.11,-955.99 798.65,-958.23"/>
<polygon fill="midnightblue" stroke="midnightblue" points="798.48,-961.73 808.84,-959.52 799.36,-954.79 798.48,-961.73"/>
</g>
<!-- Node18 -->
<g id="node18" class="node">
<title>Node18</title>
<g id="a_node18"><a xlink:href="namespacehttplib.html#a498c3a79825ecbcb15c52ec5fcfd5c11" target="_top" xlink:title=" ">
<polygon fill="white" stroke="black" points="985,-909 985,-928 1082,-928 1082,-909 985,-909"/>
<text text-anchor="middle" x="1033.5" y="-916" font-family="Helvetica,sans-Serif" font-size="10.00">httplib::to_string</text>
</a>
</g>
</g>
<!-- Node17&#45;&gt;Node18 -->
<g id="edge19" class="edge">
<title>Node17&#45;&gt;Node18</title>
<path fill="none" stroke="midnightblue" d="M949.27,-918.5C957.82,-918.5 966.43,-918.5 974.7,-918.5"/>
<polygon fill="midnightblue" stroke="midnightblue" points="974.96,-922 984.96,-918.5 974.96,-915 974.96,-922"/>
</g>
<!-- Node21&#45;&gt;Node13 -->
<g id="edge23" class="edge">
<title>Node21&#45;&gt;Node13</title>
<path fill="none" stroke="midnightblue" d="M341.1,-484.82C397.9,-482.65 489.35,-480.93 568,-487.5 589.19,-489.27 612.38,-492.87 632.21,-496.47"/>
<polygon fill="midnightblue" stroke="midnightblue" points="631.77,-499.95 642.24,-498.34 633.05,-493.07 631.77,-499.95"/>
</g>
<!-- Node22&#45;&gt;Node13 -->
<g id="edge27" class="edge">
<title>Node22&#45;&gt;Node13</title>
<path fill="none" stroke="midnightblue" d="M306.98,-602.84C330.64,-591.99 370.92,-574.49 407,-563.5 448.5,-550.86 565.44,-528.12 632.37,-515.52"/>
<polygon fill="midnightblue" stroke="midnightblue" points="633.08,-518.94 642.26,-513.66 631.79,-512.07 633.08,-518.94"/>
</g>
<!-- Node23 -->
<g id="node23" class="node">
<title>Node23</title>
<g id="a_node23"><a xlink:href="structfuzzer_1_1Merger.html#afba7dc09bb870f1c2ed72e33f1d31f12" target="_top" xlink:title=" ">
<polygon fill="white" stroke="black" points="427.5,-672 427.5,-691 547.5,-691 547.5,-672 427.5,-672"/>
<text text-anchor="middle" x="487.5" y="-679" font-family="Helvetica,sans-Serif" font-size="10.00">fuzzer::Merger::Parse</text>
</a>
</g>
</g>
<!-- Node22&#45;&gt;Node23 -->
<g id="edge25" class="edge">
<title>Node22&#45;&gt;Node23</title>
<path fill="none" stroke="midnightblue" d="M307.5,-622.09C331.28,-632.7 371.37,-649.84 407,-661.5 415.74,-664.36 425.14,-667.05 434.3,-669.48"/>
<polygon fill="midnightblue" stroke="midnightblue" points="433.55,-672.9 444.1,-672 435.29,-666.12 433.55,-672.9"/>
</g>
<!-- Node23&#45;&gt;Node3 -->
<g id="edge26" class="edge">
<title>Node23&#45;&gt;Node3</title>
<path fill="none" stroke="midnightblue" d="M547.56,-683.95C580.54,-685.33 620.4,-686.98 647.92,-688.13"/>
<polygon fill="midnightblue" stroke="midnightblue" points="648.05,-691.63 658.18,-688.55 648.34,-684.64 648.05,-691.63"/>
</g>
<!-- Node24&#45;&gt;Node13 -->
<g id="edge41" class="edge">
<title>Node24&#45;&gt;Node13</title>
<path fill="none" stroke="midnightblue" d="M293.49,-265.02C310.39,-287.33 355.85,-343.3 407,-372.5 471.42,-409.28 501.85,-382.93 568,-416.5 606.1,-435.84 643.54,-469.3 664.32,-489.52"/>
<polygon fill="midnightblue" stroke="midnightblue" points="662.11,-492.26 671.68,-496.81 667.04,-487.29 662.11,-492.26"/>
</g>
<!-- Node25 -->
<g id="node25" class="node">
<title>Node25</title>
<g id="a_node25"><a xlink:href="classfuzzer_1_1InputCorpus.html#a47f292603c1bc491e0f8c9f9131fb5c7" target="_top" xlink:title=" ">
<polygon fill="white" stroke="black" points="432,-284.5 432,-314.5 543,-314.5 543,-284.5 432,-284.5"/>
<text text-anchor="start" x="440" y="-302.5" font-family="Helvetica,sans-Serif" font-size="10.00">fuzzer::InputCorpus</text>
<text text-anchor="middle" x="487.5" y="-291.5" font-family="Helvetica,sans-Serif" font-size="10.00">::empty</text>
</a>
</g>
</g>
<!-- Node24&#45;&gt;Node25 -->
<g id="edge30" class="edge">
<title>Node24&#45;&gt;Node25</title>
<path fill="none" stroke="midnightblue" d="M329.9,-265.05C356.73,-270.95 391.68,-278.64 421.75,-285.25"/>
<polygon fill="midnightblue" stroke="midnightblue" points="421.22,-288.72 431.74,-287.45 422.73,-281.89 421.22,-288.72"/>
</g>
<!-- Node26 -->
<g id="node26" class="node">
<title>Node26</title>
<g id="a_node26"><a xlink:href="classfuzzer_1_1Fuzzer.html#aa88607925eeffcf7d373ac58e767d7d5" target="_top" xlink:title=" ">
<polygon fill="white" stroke="black" points="414.5,-246 414.5,-265 560.5,-265 560.5,-246 414.5,-246"/>
<text text-anchor="middle" x="487.5" y="-253" font-family="Helvetica,sans-Serif" font-size="10.00">fuzzer::Fuzzer::execPerSec</text>
</a>
</g>
</g>
<!-- Node24&#45;&gt;Node26 -->
<g id="edge31" class="edge">
<title>Node24&#45;&gt;Node26</title>
<path fill="none" stroke="midnightblue" d="M354.21,-255.5C370.26,-255.5 387.55,-255.5 404.17,-255.5"/>
<polygon fill="midnightblue" stroke="midnightblue" points="404.41,-259 414.41,-255.5 404.41,-252 404.41,-259"/>
</g>
<!-- Node27 -->
<g id="node27" class="node">
<title>Node27</title>
<g id="a_node27"><a xlink:href="structfuzzer_1_1ValueBitMap.html#a9a08a418bc1f5db612aea10ca6d8a587" target="_top" xlink:title=" ">
<polygon fill="white" stroke="black" points="408,-196.5 408,-226.5 567,-226.5 567,-196.5 408,-196.5"/>
<text text-anchor="start" x="416" y="-214.5" font-family="Helvetica,sans-Serif" font-size="10.00">fuzzer::ValueBitMap</text>
<text text-anchor="middle" x="487.5" y="-203.5" font-family="Helvetica,sans-Serif" font-size="10.00">::GetNumBitsSinceLastMerge</text>
</a>
</g>
</g>
<!-- Node24&#45;&gt;Node27 -->
<g id="edge32" class="edge">
<title>Node24&#45;&gt;Node27</title>
<path fill="none" stroke="midnightblue" d="M329.9,-245.95C352.72,-240.93 381.4,-234.62 407.96,-228.78"/>
<polygon fill="midnightblue" stroke="midnightblue" points="409.01,-232.13 418.02,-226.57 407.5,-225.3 409.01,-232.13"/>
</g>
<!-- Node28 -->
<g id="node28" class="node">
<title>Node28</title>
<g id="a_node28"><a xlink:href="namespacefuzzer.html#a68e55a0d2097c32deccec92e71c73048" target="_top" xlink:title=" ">
<polygon fill="white" stroke="black" points="423.5,-497 423.5,-516 551.5,-516 551.5,-497 423.5,-497"/>
<text text-anchor="middle" x="487.5" y="-504" font-family="Helvetica,sans-Serif" font-size="10.00">fuzzer::GetPeakRSSMb</text>
</a>
</g>
</g>
<!-- Node24&#45;&gt;Node28 -->
<g id="edge33" class="edge">
<title>Node24&#45;&gt;Node28</title>
<path fill="none" stroke="midnightblue" d="M294.1,-265.03C323.92,-302.46 433.28,-439.71 472.44,-488.85"/>
<polygon fill="midnightblue" stroke="midnightblue" points="469.93,-491.32 478.9,-496.96 475.4,-486.96 469.93,-491.32"/>
</g>
<!-- Node29 -->
<g id="node29" class="node">
<title>Node29</title>
<g id="a_node29"><a xlink:href="classfuzzer_1_1TracePC.html#a888cf0015b8ac746350399865731e503" target="_top" xlink:title=" ">
<polygon fill="white" stroke="black" points="418.5,-98.5 418.5,-128.5 556.5,-128.5 556.5,-98.5 418.5,-98.5"/>
<text text-anchor="start" x="426.5" y="-116.5" font-family="Helvetica,sans-Serif" font-size="10.00">fuzzer::TracePC::GetTotal</text>
<text text-anchor="middle" x="487.5" y="-105.5" font-family="Helvetica,sans-Serif" font-size="10.00">PCCoverage</text>
</a>
</g>
</g>
<!-- Node24&#45;&gt;Node29 -->
<g id="edge35" class="edge">
<title>Node24&#45;&gt;Node29</title>
<path fill="none" stroke="midnightblue" d="M293.53,-245.98C310.5,-223.67 356.09,-167.61 407,-137.5 409.85,-135.81 412.84,-134.23 415.9,-132.76"/>
<polygon fill="midnightblue" stroke="midnightblue" points="417.55,-135.86 425.3,-128.64 414.74,-129.45 417.55,-135.86"/>
</g>
<!-- Node31 -->
<g id="node31" class="node">
<title>Node31</title>
<g id="a_node31"><a xlink:href="classfuzzer_1_1InputCorpus.html#aeced0e36172d275d60e6b3aab7e176e6" target="_top" xlink:title=" ">
<polygon fill="white" stroke="black" points="432,-147.5 432,-177.5 543,-177.5 543,-147.5 432,-147.5"/>
<text text-anchor="start" x="440" y="-165.5" font-family="Helvetica,sans-Serif" font-size="10.00">fuzzer::InputCorpus</text>
<text text-anchor="middle" x="487.5" y="-154.5" font-family="Helvetica,sans-Serif" font-size="10.00">::NumActiveUnits</text>
</a>
</g>
</g>
<!-- Node24&#45;&gt;Node31 -->
<g id="edge38" class="edge">
<title>Node24&#45;&gt;Node31</title>
<path fill="none" stroke="midnightblue" d="M300.78,-245.89C322.8,-231.41 366.7,-203.85 407,-186.5 411.76,-184.45 416.75,-182.5 421.82,-180.67"/>
<polygon fill="midnightblue" stroke="midnightblue" points="423.29,-183.86 431.6,-177.29 421.01,-177.25 423.29,-183.86"/>
</g>
<!-- Node32 -->
<g id="node32" class="node">
<title>Node32</title>
<g id="a_node32"><a xlink:href="classfuzzer_1_1InputCorpus.html#a9c696dfbff62d817a51d74cb0cae17fa" target="_top" xlink:title=" ">
<polygon fill="white" stroke="black" points="432,-0.5 432,-30.5 543,-30.5 543,-0.5 432,-0.5"/>
<text text-anchor="start" x="440" y="-18.5" font-family="Helvetica,sans-Serif" font-size="10.00">fuzzer::InputCorpus</text>
<text text-anchor="middle" x="487.5" y="-7.5" font-family="Helvetica,sans-Serif" font-size="10.00">::NumFeatures</text>
</a>
</g>
</g>
<!-- Node24&#45;&gt;Node32 -->
<g id="edge39" class="edge">
<title>Node24&#45;&gt;Node32</title>
<path fill="none" stroke="midnightblue" d="M289.11,-245.59C298.63,-211.44 334.74,-97.65 407,-39.5 411.68,-35.74 416.94,-32.56 422.46,-29.89"/>
<polygon fill="midnightblue" stroke="midnightblue" points="424.14,-32.98 431.97,-25.83 421.39,-26.54 424.14,-32.98"/>
</g>
<!-- Node34 -->
<g id="node34" class="node">
<title>Node34</title>
<g id="a_node34"><a xlink:href="classfuzzer_1_1InputCorpus.html#ac1fec5aeae69ce462d167a7b9e2d85e4" target="_top" xlink:title=" ">
<polygon fill="white" stroke="black" points="432,-49.5 432,-79.5 543,-79.5 543,-49.5 432,-49.5"/>
<text text-anchor="start" x="440" y="-67.5" font-family="Helvetica,sans-Serif" font-size="10.00">fuzzer::InputCorpus</text>
<text text-anchor="middle" x="487.5" y="-56.5" font-family="Helvetica,sans-Serif" font-size="10.00">::size</text>
</a>
</g>
</g>
<!-- Node24&#45;&gt;Node34 -->
<g id="edge42" class="edge">
<title>Node24&#45;&gt;Node34</title>
<path fill="none" stroke="midnightblue" d="M290.67,-245.89C303.55,-217.35 345.58,-132.3 407,-88.5 411.74,-85.12 416.96,-82.21 422.39,-79.71"/>
<polygon fill="midnightblue" stroke="midnightblue" points="423.78,-82.92 431.68,-75.86 421.11,-76.45 423.78,-82.92"/>
</g>
<!-- Node35 -->
<g id="node35" class="node">
<title>Node35</title>
<g id="a_node35"><a xlink:href="classfuzzer_1_1InputCorpus.html#a9a602fd6b54d45aed0ff4d99b10676d0" target="_top" xlink:title=" ">
<polygon fill="white" stroke="black" points="432,-333.5 432,-363.5 543,-363.5 543,-333.5 432,-333.5"/>
<text text-anchor="start" x="440" y="-351.5" font-family="Helvetica,sans-Serif" font-size="10.00">fuzzer::InputCorpus</text>
<text text-anchor="middle" x="487.5" y="-340.5" font-family="Helvetica,sans-Serif" font-size="10.00">::SizeInBytes</text>
</a>
</g>
</g>
<!-- Node24&#45;&gt;Node35 -->
<g id="edge43" class="edge">
<title>Node24&#45;&gt;Node35</title>
<path fill="none" stroke="midnightblue" d="M301.2,-265.14C323.39,-279.37 367.11,-306.2 407,-323.5 412.36,-325.82 418,-328.04 423.71,-330.11"/>
<polygon fill="midnightblue" stroke="midnightblue" points="422.74,-333.48 433.33,-333.48 425.05,-326.88 422.74,-333.48"/>
</g>
<!-- Node28&#45;&gt;Node3 -->
<g id="edge34" class="edge">
<title>Node28&#45;&gt;Node3</title>
<path fill="none" stroke="midnightblue" d="M503.89,-516.09C520.47,-526.74 547.26,-544.91 568,-563.5 607.14,-598.59 646.76,-646.17 667.08,-671.65"/>
<polygon fill="midnightblue" stroke="midnightblue" points="664.48,-674.01 673.43,-679.68 669.97,-669.67 664.48,-674.01"/>
</g>
<!-- Node30 -->
<g id="node30" class="node">
<title>Node30</title>
<g id="a_node30"><a xlink:href="classfuzzer_1_1TracePC.html#a29c324a4bb01920cc5e6d322c112fea3" target="_top" xlink:title=" ">
<polygon fill="white" stroke="black" points="604,-263 604,-282 760,-282 760,-263 604,-263"/>
<text text-anchor="middle" x="682" y="-270" font-family="Helvetica,sans-Serif" font-size="10.00">fuzzer::TracePC::GetNumPCs</text>
</a>
</g>
</g>
<!-- Node29&#45;&gt;Node30 -->
<g id="edge36" class="edge">
<title>Node29&#45;&gt;Node30</title>
<path fill="none" stroke="midnightblue" d="M551.28,-128.6C557.15,-131.14 562.83,-134.08 568,-137.5 614.98,-168.52 652.85,-224.78 670.4,-253.91"/>
<polygon fill="midnightblue" stroke="midnightblue" points="667.47,-255.83 675.56,-262.67 673.5,-252.28 667.47,-255.83"/>
</g>
<!-- Node30&#45;&gt;Node5 -->
<g id="edge37" class="edge">
<title>Node30&#45;&gt;Node5</title>
<path fill="none" stroke="midnightblue" d="M690.16,-282.03C718.27,-319.46 821.34,-456.71 858.25,-505.85"/>
<polygon fill="midnightblue" stroke="midnightblue" points="855.53,-508.06 864.33,-513.96 861.13,-503.86 855.53,-508.06"/>
</g>
<!-- Node33 -->
<g id="node33" class="node">
<title>Node33</title>
<g id="a_node33"><a xlink:href="classfuzzer_1_1InputCorpus.html#a72af33665b2df6c5668cec3fb3219cbb" target="_top" xlink:title=" ">
<polygon fill="white" stroke="black" points="626.5,-0.5 626.5,-30.5 737.5,-30.5 737.5,-0.5 626.5,-0.5"/>
<text text-anchor="start" x="634.5" y="-18.5" font-family="Helvetica,sans-Serif" font-size="10.00">fuzzer::InputCorpus</text>
<text text-anchor="middle" x="682" y="-7.5" font-family="Helvetica,sans-Serif" font-size="10.00">::GetFeature</text>
</a>
</g>
</g>
<!-- Node32&#45;&gt;Node33 -->
<g id="edge40" class="edge">
<title>Node32&#45;&gt;Node33</title>
<path fill="none" stroke="midnightblue" d="M543.15,-15.5C565.81,-15.5 592.27,-15.5 615.92,-15.5"/>
<polygon fill="midnightblue" stroke="midnightblue" points="616.22,-19 626.22,-15.5 616.22,-12 616.22,-19"/>
</g>
</g>
</svg>
