<?xml version="1.0" encoding="UTF-8" standalone="no"?>
<!DOCTYPE svg PUBLIC "-//W3C//DTD SVG 1.1//EN"
 "http://www.w3.org/Graphics/SVG/1.1/DTD/svg11.dtd">
<!-- Generated by graphviz version 2.43.0 (0)
 -->
<!-- Title: fuzzer::Fuzzer::secondsSinceProcessStartUp Pages: 1 -->
<svg width="935pt" height="296pt"
 viewBox="0.00 0.00 935.00 296.30" xmlns="http://www.w3.org/2000/svg" xmlns:xlink="http://www.w3.org/1999/xlink">
<g id="graph0" class="graph" transform="scale(1 1) rotate(0) translate(4 292.3)">
<title>fuzzer::Fuzzer::secondsSinceProcessStartUp</title>
<polygon fill="white" stroke="transparent" points="-4,4 -4,-292.3 931,-292.3 931,4 -4,4"/>
<!-- Node1 -->
<g id="node1" class="node">
<title>Node1</title>
<g id="a_node1"><a xlink:title=" ">
<polygon fill="#bfbfbf" stroke="black" points="771,-189.5 771,-219.5 927,-219.5 927,-189.5 771,-189.5"/>
<text text-anchor="start" x="779" y="-207.5" font-family="Helvetica,sans-Serif" font-size="10.00">fuzzer::Fuzzer::secondsSince</text>
<text text-anchor="middle" x="849" y="-196.5" font-family="Helvetica,sans-Serif" font-size="10.00">ProcessStartUp</text>
</a>
</g>
</g>
<!-- Node2 -->
<g id="node2" class="node">
<title>Node2</title>
<g id="a_node2"><a xlink:href="namespacefuzzer.html#a78f142089de84c6cbf7b5cab5f766af7" target="_top" xlink:title=" ">
<polygon fill="white" stroke="black" points="77,-147 77,-166 191,-166 191,-147 77,-147"/>
<text text-anchor="middle" x="134" y="-154" font-family="Helvetica,sans-Serif" font-size="10.00">fuzzer::FuzzerDriver</text>
</a>
</g>
</g>
<!-- Node1&#45;&gt;Node2 -->
<g id="edge1" class="edge">
<title>Node1&#45;&gt;Node2</title>
<path fill="none" stroke="midnightblue" d="M798.29,-222.93C689.37,-260.21 423.68,-333.95 227,-247.5 186.69,-229.78 154.18,-185.85 141.15,-166.23"/>
<polygon fill="midnightblue" stroke="midnightblue" points="799.73,-226.14 808.03,-219.55 797.43,-219.53 799.73,-226.14"/>
</g>
<!-- Node4 -->
<g id="node4" class="node">
<title>Node4</title>
<g id="a_node4"><a xlink:href="classfuzzer_1_1Fuzzer.html#a89cb175e3dd6b4e14beb716a8a64f10c" target="_top" xlink:title=" ">
<polygon fill="white" stroke="black" points="607,-124 607,-143 735,-143 735,-124 607,-124"/>
<text text-anchor="middle" x="671" y="-131" font-family="Helvetica,sans-Serif" font-size="10.00">fuzzer::Fuzzer::RunOne</text>
</a>
</g>
</g>
<!-- Node1&#45;&gt;Node4 -->
<g id="edge3" class="edge">
<title>Node1&#45;&gt;Node4</title>
<path fill="none" stroke="midnightblue" d="M801.4,-185.7C767.41,-171.99 722.76,-153.98 695.78,-143.09"/>
<polygon fill="midnightblue" stroke="midnightblue" points="800.09,-188.95 810.67,-189.44 802.71,-182.46 800.09,-188.95"/>
</g>
<!-- Node3 -->
<g id="node3" class="node">
<title>Node3</title>
<g id="a_node3"><a xlink:href="FuzzerMain_8cpp.html#a3c04138a5bfe5d72780bb7e82a18e627" target="_top" xlink:title=" ">
<polygon fill="white" stroke="black" points="0,-147 0,-166 41,-166 41,-147 0,-147"/>
<text text-anchor="middle" x="20.5" y="-154" font-family="Helvetica,sans-Serif" font-size="10.00">main</text>
</a>
</g>
</g>
<!-- Node2&#45;&gt;Node3 -->
<g id="edge2" class="edge">
<title>Node2&#45;&gt;Node3</title>
<path fill="none" stroke="midnightblue" d="M66.7,-156.5C57.37,-156.5 48.45,-156.5 41.04,-156.5"/>
<polygon fill="midnightblue" stroke="midnightblue" points="66.92,-160 76.92,-156.5 66.92,-153 66.92,-160"/>
</g>
<!-- Node5 -->
<g id="node5" class="node">
<title>Node5</title>
<g id="a_node5"><a xlink:href="classfuzzer_1_1Fuzzer.html#a6a4abd6692ba305867fcb7df7bfe79cc" target="_top" xlink:title=" ">
<polygon fill="white" stroke="black" points="424.5,-216.5 424.5,-246.5 559.5,-246.5 559.5,-216.5 424.5,-216.5"/>
<text text-anchor="start" x="432.5" y="-234.5" font-family="Helvetica,sans-Serif" font-size="10.00">fuzzer::Fuzzer::FindExtra</text>
<text text-anchor="middle" x="492" y="-223.5" font-family="Helvetica,sans-Serif" font-size="10.00">Units</text>
</a>
</g>
</g>
<!-- Node4&#45;&gt;Node5 -->
<g id="edge4" class="edge">
<title>Node4&#45;&gt;Node5</title>
<path fill="none" stroke="midnightblue" d="M652.3,-149.73C633.41,-166.29 601.99,-191.75 571,-207.5 564.43,-210.84 557.31,-213.81 550.14,-216.43"/>
<polygon fill="midnightblue" stroke="midnightblue" points="654.69,-152.29 659.82,-143.02 650.03,-147.06 654.69,-152.29"/>
</g>
<!-- Node7 -->
<g id="node7" class="node">
<title>Node7</title>
<g id="a_node7"><a xlink:href="classfuzzer_1_1Fuzzer.html#a54326d89b0de8eb858c70dfa78c5cc57" target="_top" xlink:title=" ">
<polygon fill="white" stroke="black" points="424.5,-167.5 424.5,-197.5 559.5,-197.5 559.5,-167.5 424.5,-167.5"/>
<text text-anchor="start" x="432.5" y="-185.5" font-family="Helvetica,sans-Serif" font-size="10.00">fuzzer::Fuzzer::Minimize</text>
<text text-anchor="middle" x="492" y="-174.5" font-family="Helvetica,sans-Serif" font-size="10.00">CrashLoop</text>
</a>
</g>
</g>
<!-- Node4&#45;&gt;Node7 -->
<g id="edge7" class="edge">
<title>Node4&#45;&gt;Node7</title>
<path fill="none" stroke="midnightblue" d="M625.65,-145.78C601.9,-152.35 572.44,-160.51 547.32,-167.46"/>
<polygon fill="midnightblue" stroke="midnightblue" points="626.75,-149.11 635.45,-143.06 624.88,-142.36 626.75,-149.11"/>
</g>
<!-- Node9 -->
<g id="node9" class="node">
<title>Node9</title>
<g id="a_node9"><a xlink:href="classfuzzer_1_1Fuzzer.html#a9c3b80798ae30570306d7f938961dec3" target="_top" xlink:title=" ">
<polygon fill="white" stroke="black" points="420.5,-118.5 420.5,-148.5 563.5,-148.5 563.5,-118.5 420.5,-118.5"/>
<text text-anchor="start" x="428.5" y="-136.5" font-family="Helvetica,sans-Serif" font-size="10.00">fuzzer::Fuzzer::MutateAnd</text>
<text text-anchor="middle" x="492" y="-125.5" font-family="Helvetica,sans-Serif" font-size="10.00">TestOne</text>
</a>
</g>
</g>
<!-- Node4&#45;&gt;Node9 -->
<g id="edge10" class="edge">
<title>Node4&#45;&gt;Node9</title>
<path fill="none" stroke="midnightblue" d="M596.37,-133.5C585.59,-133.5 574.5,-133.5 563.77,-133.5"/>
<polygon fill="midnightblue" stroke="midnightblue" points="596.6,-137 606.6,-133.5 596.6,-130 596.6,-137"/>
</g>
<!-- Node11 -->
<g id="node11" class="node">
<title>Node11</title>
<g id="a_node11"><a xlink:href="classfuzzer_1_1Fuzzer.html#a44506dc46253928eb73397091d6c4c32" target="_top" xlink:title=" ">
<polygon fill="white" stroke="black" points="413,-69.5 413,-99.5 571,-99.5 571,-69.5 413,-69.5"/>
<text text-anchor="start" x="421" y="-87.5" font-family="Helvetica,sans-Serif" font-size="10.00">fuzzer::Fuzzer::RereadOutput</text>
<text text-anchor="middle" x="492" y="-76.5" font-family="Helvetica,sans-Serif" font-size="10.00">Corpus</text>
</a>
</g>
</g>
<!-- Node4&#45;&gt;Node11 -->
<g id="edge13" class="edge">
<title>Node4&#45;&gt;Node11</title>
<path fill="none" stroke="midnightblue" d="M625.65,-121.22C601.9,-114.65 572.44,-106.49 547.32,-99.54"/>
<polygon fill="midnightblue" stroke="midnightblue" points="624.88,-124.64 635.45,-123.94 626.75,-117.89 624.88,-124.64"/>
</g>
<!-- Node12 -->
<g id="node12" class="node">
<title>Node12</title>
<g id="a_node12"><a xlink:href="namespacefuzzer.html#a1fe190c22f9575ec572ce81d57c7e483" target="_top" xlink:title=" ">
<polygon fill="white" stroke="black" points="247,-74 247,-93 357,-93 357,-74 247,-74"/>
<text text-anchor="middle" x="302" y="-81" font-family="Helvetica,sans-Serif" font-size="10.00">fuzzer::RunOneTest</text>
</a>
</g>
</g>
<!-- Node4&#45;&gt;Node12 -->
<g id="edge15" class="edge">
<title>Node4&#45;&gt;Node12</title>
<path fill="none" stroke="midnightblue" d="M653.98,-116.48C635.83,-98.57 604.42,-71.49 571,-60.5 487.16,-32.93 381.04,-58.61 331.23,-73.93"/>
<polygon fill="midnightblue" stroke="midnightblue" points="651.83,-119.29 661.34,-123.97 656.83,-114.39 651.83,-119.29"/>
</g>
<!-- Node13 -->
<g id="node13" class="node">
<title>Node13</title>
<g id="a_node13"><a xlink:href="classfuzzer_1_1Fuzzer.html#a368fcca328a7e72c500caf081227f7ef" target="_top" xlink:title=" ">
<polygon fill="white" stroke="black" points="230.5,-0.5 230.5,-30.5 373.5,-30.5 373.5,-0.5 230.5,-0.5"/>
<text text-anchor="start" x="238.5" y="-18.5" font-family="Helvetica,sans-Serif" font-size="10.00">fuzzer::Fuzzer::ShuffleAnd</text>
<text text-anchor="middle" x="302" y="-7.5" font-family="Helvetica,sans-Serif" font-size="10.00">Minimize</text>
</a>
</g>
</g>
<!-- Node4&#45;&gt;Node13 -->
<g id="edge17" class="edge">
<title>Node4&#45;&gt;Node13</title>
<path fill="none" stroke="midnightblue" d="M656.56,-116.05C639.28,-95.07 607.17,-60.65 571,-44.5 508.29,-16.49 429.41,-11.07 373.51,-11.54"/>
<polygon fill="midnightblue" stroke="midnightblue" points="653.84,-118.26 662.83,-123.88 659.31,-113.89 653.84,-118.26"/>
</g>
<!-- Node6 -->
<g id="node6" class="node">
<title>Node6</title>
<g id="a_node6"><a xlink:href="classfuzzer_1_1Fuzzer.html#aad1ef6d2a186b7b2462363111398e54e" target="_top" xlink:title=" ">
<polygon fill="white" stroke="black" points="241.5,-219 241.5,-238 362.5,-238 362.5,-219 241.5,-219"/>
<text text-anchor="middle" x="302" y="-226" font-family="Helvetica,sans-Serif" font-size="10.00">fuzzer::Fuzzer::Merge</text>
</a>
</g>
</g>
<!-- Node5&#45;&gt;Node6 -->
<g id="edge5" class="edge">
<title>Node5&#45;&gt;Node6</title>
<path fill="none" stroke="midnightblue" d="M414.39,-230.28C397.11,-230 379.02,-229.71 362.57,-229.45"/>
<polygon fill="midnightblue" stroke="midnightblue" points="414.4,-233.78 424.45,-230.44 414.51,-226.78 414.4,-233.78"/>
</g>
<!-- Node6&#45;&gt;Node2 -->
<g id="edge6" class="edge">
<title>Node6&#45;&gt;Node2</title>
<path fill="none" stroke="midnightblue" d="M255.7,-215.9C246.1,-212.82 236.12,-209.31 227,-205.5 199.28,-193.93 168.82,-176.76 150.84,-166.12"/>
<polygon fill="midnightblue" stroke="midnightblue" points="254.92,-219.33 265.51,-218.95 257,-212.64 254.92,-219.33"/>
</g>
<!-- Node8 -->
<g id="node8" class="node">
<title>Node8</title>
<g id="a_node8"><a xlink:href="namespacefuzzer.html#a1553a49adb4d4d19b4f4dd52ff54cb68" target="_top" xlink:title=" ">
<polygon fill="white" stroke="black" points="227,-165.5 227,-195.5 377,-195.5 377,-165.5 227,-165.5"/>
<text text-anchor="start" x="235" y="-183.5" font-family="Helvetica,sans-Serif" font-size="10.00">fuzzer::MinimizeCrashInput</text>
<text text-anchor="middle" x="302" y="-172.5" font-family="Helvetica,sans-Serif" font-size="10.00">InternalStep</text>
</a>
</g>
</g>
<!-- Node7&#45;&gt;Node8 -->
<g id="edge8" class="edge">
<title>Node7&#45;&gt;Node8</title>
<path fill="none" stroke="midnightblue" d="M414.27,-181.68C402.01,-181.55 389.34,-181.42 377.14,-181.29"/>
<polygon fill="midnightblue" stroke="midnightblue" points="414.42,-185.19 424.45,-181.79 414.49,-178.19 414.42,-185.19"/>
</g>
<!-- Node8&#45;&gt;Node2 -->
<g id="edge9" class="edge">
<title>Node8&#45;&gt;Node2</title>
<path fill="none" stroke="midnightblue" d="M216.65,-168.31C208.05,-167.06 199.46,-165.82 191.27,-164.64"/>
<polygon fill="midnightblue" stroke="midnightblue" points="216.34,-171.8 226.74,-169.76 217.34,-164.87 216.34,-171.8"/>
</g>
<!-- Node10 -->
<g id="node10" class="node">
<title>Node10</title>
<g id="a_node10"><a xlink:href="classfuzzer_1_1Fuzzer.html#a0306e29f06ced3d24ed0417ea2fef34b" target="_top" xlink:title=" ">
<polygon fill="white" stroke="black" points="245.5,-124 245.5,-143 358.5,-143 358.5,-124 245.5,-124"/>
<text text-anchor="middle" x="302" y="-131" font-family="Helvetica,sans-Serif" font-size="10.00">fuzzer::Fuzzer::Loop</text>
</a>
</g>
</g>
<!-- Node9&#45;&gt;Node10 -->
<g id="edge11" class="edge">
<title>Node9&#45;&gt;Node10</title>
<path fill="none" stroke="midnightblue" d="M410.3,-133.5C392.89,-133.5 374.86,-133.5 358.66,-133.5"/>
<polygon fill="midnightblue" stroke="midnightblue" points="410.46,-137 420.46,-133.5 410.46,-130 410.46,-137"/>
</g>
<!-- Node10&#45;&gt;Node2 -->
<g id="edge12" class="edge">
<title>Node10&#45;&gt;Node2</title>
<path fill="none" stroke="midnightblue" d="M235.29,-142.6C220.69,-144.63 205.34,-146.75 191.16,-148.72"/>
<polygon fill="midnightblue" stroke="midnightblue" points="235.84,-146.06 245.26,-141.22 234.88,-139.13 235.84,-146.06"/>
</g>
<!-- Node11&#45;&gt;Node10 -->
<g id="edge14" class="edge">
<title>Node11&#45;&gt;Node10</title>
<path fill="none" stroke="midnightblue" d="M423.47,-102.1C395.16,-109.48 363.37,-117.77 339.56,-123.97"/>
<polygon fill="midnightblue" stroke="midnightblue" points="424.52,-105.44 433.32,-99.53 422.76,-98.67 424.52,-105.44"/>
</g>
<!-- Node12&#45;&gt;Node2 -->
<g id="edge16" class="edge">
<title>Node12&#45;&gt;Node2</title>
<path fill="none" stroke="midnightblue" d="M268.19,-96.98C255.31,-102.35 240.42,-108.63 227,-114.5 202.23,-125.34 173.97,-138.34 155.38,-146.97"/>
<polygon fill="midnightblue" stroke="midnightblue" points="269.69,-100.15 277.59,-93.09 267.01,-93.68 269.69,-100.15"/>
</g>
<!-- Node13&#45;&gt;Node2 -->
<g id="edge18" class="edge">
<title>Node13&#45;&gt;Node2</title>
<path fill="none" stroke="midnightblue" d="M266.84,-36.09C253.95,-44.37 239.41,-54.36 227,-64.5 193.59,-91.8 158.82,-129.58 143.32,-147"/>
<polygon fill="midnightblue" stroke="midnightblue" points="268.87,-38.94 275.45,-30.64 265.13,-33.02 268.87,-38.94"/>
</g>
</g>
</svg>
