<?xml version="1.0" encoding="UTF-8" standalone="no"?>
<!DOCTYPE svg PUBLIC "-//W3C//DTD SVG 1.1//EN"
 "http://www.w3.org/Graphics/SVG/1.1/DTD/svg11.dtd">
<!-- Generated by graphviz version 2.43.0 (0)
 -->
<!-- Title: nlohmann::detail::binary_reader::get_cbor_array Pages: 1 -->
<svg width="1543pt" height="539pt"
 viewBox="0.00 0.00 1543.00 538.54" xmlns="http://www.w3.org/2000/svg" xmlns:xlink="http://www.w3.org/1999/xlink">
<g id="graph0" class="graph" transform="scale(1 1) rotate(0) translate(4 534.54)">
<title>nlohmann::detail::binary_reader::get_cbor_array</title>
<polygon fill="white" stroke="transparent" points="-4,4 -4,-534.54 1539,-534.54 1539,4 -4,4"/>
<!-- Node1 -->
<g id="node1" class="node">
<title>Node1</title>
<g id="a_node1"><a xlink:title=" ">
<polygon fill="#bfbfbf" stroke="black" points="0,-291.54 0,-321.54 136,-321.54 136,-291.54 0,-291.54"/>
<text text-anchor="start" x="8" y="-309.54" font-family="Helvetica,sans-Serif" font-size="10.00">nlohmann::detail::binary</text>
<text text-anchor="middle" x="68" y="-298.54" font-family="Helvetica,sans-Serif" font-size="10.00">_reader::get_cbor_array</text>
</a>
</g>
</g>
<!-- Node2 -->
<g id="node2" class="node">
<title>Node2</title>
<g id="a_node2"><a xlink:href="classnlohmann_1_1detail_1_1binary__reader.html#af70e7d5f19a2ee196e24f58acf579411" target="_top" xlink:title="get next character from the input">
<polygon fill="white" stroke="black" points="884,-357.54 884,-387.54 1020,-387.54 1020,-357.54 884,-357.54"/>
<text text-anchor="start" x="892" y="-375.54" font-family="Helvetica,sans-Serif" font-size="10.00">nlohmann::detail::binary</text>
<text text-anchor="middle" x="952" y="-364.54" font-family="Helvetica,sans-Serif" font-size="10.00">_reader::get</text>
</a>
</g>
</g>
<!-- Node1&#45;&gt;Node2 -->
<g id="edge1" class="edge">
<title>Node1&#45;&gt;Node2</title>
<path fill="none" stroke="midnightblue" d="M81.33,-321.58C123.99,-371.81 271.39,-530.54 430.5,-530.54 430.5,-530.54 430.5,-530.54 605,-530.54 735.02,-530.54 869.71,-437.08 924.98,-393.92"/>
<polygon fill="midnightblue" stroke="midnightblue" points="927.18,-396.64 932.85,-387.69 922.83,-391.15 927.18,-396.64"/>
</g>
<!-- Node3 -->
<g id="node3" class="node">
<title>Node3</title>
<g id="a_node3"><a xlink:href="classnlohmann_1_1detail_1_1binary__reader.html#a2fc47768d484a22fcd04e20106da1399" target="_top" xlink:title=" ">
<polygon fill="white" stroke="black" points="172,-291.54 172,-321.54 327,-321.54 327,-291.54 172,-291.54"/>
<text text-anchor="start" x="180" y="-309.54" font-family="Helvetica,sans-Serif" font-size="10.00">nlohmann::detail::binary</text>
<text text-anchor="middle" x="249.5" y="-298.54" font-family="Helvetica,sans-Serif" font-size="10.00">_reader::parse_cbor_internal</text>
</a>
</g>
</g>
<!-- Node1&#45;&gt;Node3 -->
<g id="edge2" class="edge">
<title>Node1&#45;&gt;Node3</title>
<path fill="none" stroke="midnightblue" d="M136.09,-299.98C144.47,-299.84 153.12,-299.77 161.74,-299.79"/>
<polygon fill="midnightblue" stroke="midnightblue" points="161.8,-303.29 171.82,-299.85 161.85,-296.29 161.8,-303.29"/>
</g>
<!-- Node3&#45;&gt;Node1 -->
<g id="edge13" class="edge">
<title>Node3&#45;&gt;Node1</title>
<path fill="none" stroke="midnightblue" d="M171.82,-313.22C163.38,-313.31 154.77,-313.31 146.31,-313.23"/>
<polygon fill="midnightblue" stroke="midnightblue" points="146.14,-309.73 136.09,-313.09 146.05,-316.73 146.14,-309.73"/>
</g>
<!-- Node3&#45;&gt;Node2 -->
<g id="edge12" class="edge">
<title>Node3&#45;&gt;Node2</title>
<path fill="none" stroke="midnightblue" d="M281.35,-321.6C303.58,-331.92 334.56,-345.2 363,-353.54 512.41,-397.37 552.88,-400.93 708,-414.54 769.98,-419.98 786.94,-426.51 848,-414.54 870.53,-410.12 894.36,-400.75 913.41,-391.97"/>
<polygon fill="midnightblue" stroke="midnightblue" points="915.09,-395.05 922.63,-387.6 912.09,-388.72 915.09,-395.05"/>
</g>
<!-- Node4 -->
<g id="node4" class="node">
<title>Node4</title>
<g id="a_node4"><a xlink:href="FuzzerTracePC_8cpp.html#a1f10ac78bd11294b612636121065eb5b" target="_top" xlink:title=" ">
<polygon fill="white" stroke="black" points="1302,-20.04 1302,-39.04 1349,-39.04 1349,-20.04 1302,-20.04"/>
<text text-anchor="middle" x="1325.5" y="-27.04" font-family="Helvetica,sans-Serif" font-size="10.00">assert</text>
</a>
</g>
</g>
<!-- Node3&#45;&gt;Node4 -->
<g id="edge3" class="edge">
<title>Node3&#45;&gt;Node4</title>
<path fill="none" stroke="midnightblue" d="M252.86,-291.51C260.41,-248.7 287.99,-125.18 363,-62.54 447.56,8.08 492.83,-0.54 603,-0.54 603,-0.54 603,-0.54 953,-0.54 1078.63,-0.54 1227.43,-17.23 1291.96,-25.28"/>
<polygon fill="midnightblue" stroke="midnightblue" points="1291.57,-28.76 1301.93,-26.54 1292.45,-21.82 1291.57,-28.76"/>
</g>
<!-- Node5 -->
<g id="node5" class="node">
<title>Node5</title>
<g id="a_node5"><a xlink:href="classnlohmann_1_1detail_1_1parse__error.html#a137ea4d27de45d8a844fd13451d40f3d" target="_top" xlink:title="create a parse error exception">
<polygon fill="white" stroke="black" points="1068.5,-225.54 1068.5,-255.54 1200.5,-255.54 1200.5,-225.54 1068.5,-225.54"/>
<text text-anchor="start" x="1076.5" y="-243.54" font-family="Helvetica,sans-Serif" font-size="10.00">nlohmann::detail::parse</text>
<text text-anchor="middle" x="1134.5" y="-232.54" font-family="Helvetica,sans-Serif" font-size="10.00">_error::create</text>
</a>
</g>
</g>
<!-- Node3&#45;&gt;Node5 -->
<g id="edge4" class="edge">
<title>Node3&#45;&gt;Node5</title>
<path fill="none" stroke="midnightblue" d="M265.81,-321.76C312.21,-366.18 457,-492.54 603,-492.54 603,-492.54 603,-492.54 779,-492.54 894.13,-492.54 929.06,-468.14 1020,-397.54 1067.39,-360.74 1103.85,-298.99 1121.6,-264.93"/>
<polygon fill="midnightblue" stroke="midnightblue" points="1124.88,-266.21 1126.3,-255.71 1118.64,-263.03 1124.88,-266.21"/>
</g>
<!-- Node10 -->
<g id="node10" class="node">
<title>Node10</title>
<g id="a_node10"><a xlink:href="classnlohmann_1_1detail_1_1binary__reader.html#a82b86133c98a0565446a44dfd3e418e6" target="_top" xlink:title=" ">
<polygon fill="white" stroke="black" points="1056,-71.54 1056,-101.54 1213,-101.54 1213,-71.54 1056,-71.54"/>
<text text-anchor="start" x="1064" y="-89.54" font-family="Helvetica,sans-Serif" font-size="10.00">nlohmann::detail::binary</text>
<text text-anchor="middle" x="1134.5" y="-78.54" font-family="Helvetica,sans-Serif" font-size="10.00">_reader::exception_message</text>
</a>
</g>
</g>
<!-- Node3&#45;&gt;Node10 -->
<g id="edge10" class="edge">
<title>Node3&#45;&gt;Node10</title>
<path fill="none" stroke="midnightblue" d="M259.91,-291.36C296.36,-234.67 434.64,-38.54 603,-38.54 603,-38.54 603,-38.54 779,-38.54 874.2,-38.54 982.5,-55.75 1054.07,-69.56"/>
<polygon fill="midnightblue" stroke="midnightblue" points="1053.44,-73 1063.92,-71.48 1054.78,-66.13 1053.44,-73"/>
</g>
<!-- Node11 -->
<g id="node11" class="node">
<title>Node11</title>
<g id="a_node11"><a xlink:href="classnlohmann_1_1detail_1_1binary__reader.html#a2fcc776cd2c7bb52bbc511e97d36978a" target="_top" xlink:title=" ">
<polygon fill="white" stroke="black" points="363,-291.54 363,-321.54 500,-321.54 500,-291.54 363,-291.54"/>
<text text-anchor="start" x="371" y="-309.54" font-family="Helvetica,sans-Serif" font-size="10.00">nlohmann::detail::binary</text>
<text text-anchor="middle" x="431.5" y="-298.54" font-family="Helvetica,sans-Serif" font-size="10.00">_reader::get_cbor_object</text>
</a>
</g>
</g>
<!-- Node3&#45;&gt;Node11 -->
<g id="edge14" class="edge">
<title>Node3&#45;&gt;Node11</title>
<path fill="none" stroke="midnightblue" d="M327.1,-299.86C335.53,-299.77 344.13,-299.77 352.58,-299.84"/>
<polygon fill="midnightblue" stroke="midnightblue" points="352.75,-303.35 362.8,-299.98 352.84,-296.35 352.75,-303.35"/>
</g>
<!-- Node12 -->
<g id="node12" class="node">
<title>Node12</title>
<g id="a_node12"><a xlink:href="classnlohmann_1_1detail_1_1binary__reader.html#acca76844160000e1d8215cb5c7afbba1" target="_top" xlink:title="reads a CBOR string">
<polygon fill="white" stroke="black" points="536,-247.54 536,-277.54 672,-277.54 672,-247.54 536,-247.54"/>
<text text-anchor="start" x="544" y="-265.54" font-family="Helvetica,sans-Serif" font-size="10.00">nlohmann::detail::binary</text>
<text text-anchor="middle" x="604" y="-254.54" font-family="Helvetica,sans-Serif" font-size="10.00">_reader::get_cbor_string</text>
</a>
</g>
</g>
<!-- Node3&#45;&gt;Node12 -->
<g id="edge31" class="edge">
<title>Node3&#45;&gt;Node12</title>
<path fill="none" stroke="midnightblue" d="M310.93,-291.48C327.7,-287.75 345.98,-284.09 363,-281.54 417.11,-273.43 478.63,-268.64 525.84,-265.9"/>
<polygon fill="midnightblue" stroke="midnightblue" points="526.2,-269.39 535.99,-265.33 525.81,-262.4 526.2,-269.39"/>
</g>
<!-- Node13 -->
<g id="node13" class="node">
<title>Node13</title>
<g id="a_node13"><a xlink:href="classnlohmann_1_1detail_1_1binary__reader.html#a161cda5919ea2436b7999c2a76656aba" target="_top" xlink:title=" ">
<polygon fill="white" stroke="black" points="710,-143.54 710,-173.54 846,-173.54 846,-143.54 710,-143.54"/>
<text text-anchor="start" x="718" y="-161.54" font-family="Helvetica,sans-Serif" font-size="10.00">nlohmann::detail::binary</text>
<text text-anchor="middle" x="778" y="-150.54" font-family="Helvetica,sans-Serif" font-size="10.00">_reader::get_number</text>
</a>
</g>
</g>
<!-- Node3&#45;&gt;Node13 -->
<g id="edge32" class="edge">
<title>Node3&#45;&gt;Node13</title>
<path fill="none" stroke="midnightblue" d="M287.65,-291.53C309.41,-283.03 337.54,-272.53 363,-264.54 478.99,-228.15 616.08,-194.92 699.76,-175.71"/>
<polygon fill="midnightblue" stroke="midnightblue" points="700.73,-179.08 709.7,-173.44 699.17,-172.26 700.73,-179.08"/>
</g>
<!-- Node14 -->
<g id="node14" class="node">
<title>Node14</title>
<g id="a_node14"><a xlink:href="classnlohmann_1_1detail_1_1binary__reader.html#a91dd7341d9d74c58866877ddfe58dd03" target="_top" xlink:title=" ">
<polygon fill="white" stroke="black" points="884,-162.54 884,-192.54 1020,-192.54 1020,-162.54 884,-162.54"/>
<text text-anchor="start" x="892" y="-180.54" font-family="Helvetica,sans-Serif" font-size="10.00">nlohmann::detail::binary</text>
<text text-anchor="middle" x="952" y="-169.54" font-family="Helvetica,sans-Serif" font-size="10.00">_reader::unexpect_eof</text>
</a>
</g>
</g>
<!-- Node3&#45;&gt;Node14 -->
<g id="edge34" class="edge">
<title>Node3&#45;&gt;Node14</title>
<path fill="none" stroke="midnightblue" d="M266.72,-291.4C287.49,-272.81 325.33,-241.52 363,-223.54 506,-155.27 550.82,-153.7 708,-133.54 769.72,-125.62 787.04,-121.06 848,-133.54 871.25,-138.3 895.74,-148.52 915,-157.91"/>
<polygon fill="midnightblue" stroke="midnightblue" points="913.5,-161.07 924.01,-162.43 916.64,-154.82 913.5,-161.07"/>
</g>
<!-- Node16 -->
<g id="node16" class="node">
<title>Node16</title>
<g id="a_node16"><a xlink:href="classnlohmann_1_1detail_1_1binary__reader.html#acf8d3f7b17efd05655fcb6f47a2eaa79" target="_top" xlink:title=" ">
<polygon fill="white" stroke="black" points="708,-357.54 708,-387.54 848,-387.54 848,-357.54 708,-357.54"/>
<text text-anchor="start" x="716" y="-375.54" font-family="Helvetica,sans-Serif" font-size="10.00">nlohmann::detail::binary</text>
<text text-anchor="middle" x="778" y="-364.54" font-family="Helvetica,sans-Serif" font-size="10.00">_reader::get_token_string</text>
</a>
</g>
</g>
<!-- Node3&#45;&gt;Node16 -->
<g id="edge33" class="edge">
<title>Node3&#45;&gt;Node16</title>
<path fill="none" stroke="midnightblue" d="M315.12,-321.59C330.73,-324.87 347.41,-328.09 363,-330.54 478.79,-348.71 614.09,-360.72 697.66,-367.07"/>
<polygon fill="midnightblue" stroke="midnightblue" points="697.61,-370.58 707.85,-367.84 698.14,-363.6 697.61,-370.58"/>
</g>
<!-- Node6 -->
<g id="node6" class="node">
<title>Node6</title>
<g id="a_node6"><a xlink:href="classnlohmann_1_1detail_1_1exception.html#abf41a7e9178356314082284e6cfea278" target="_top" xlink:title=" ">
<polygon fill="white" stroke="black" points="1249,-225.54 1249,-255.54 1402,-255.54 1402,-225.54 1249,-225.54"/>
<text text-anchor="start" x="1257" y="-243.54" font-family="Helvetica,sans-Serif" font-size="10.00">nlohmann::detail::exception</text>
<text text-anchor="middle" x="1325.5" y="-232.54" font-family="Helvetica,sans-Serif" font-size="10.00">::name</text>
</a>
</g>
</g>
<!-- Node5&#45;&gt;Node6 -->
<g id="edge5" class="edge">
<title>Node5&#45;&gt;Node6</title>
<path fill="none" stroke="midnightblue" d="M1200.54,-240.54C1212.84,-240.54 1225.89,-240.54 1238.71,-240.54"/>
<polygon fill="midnightblue" stroke="midnightblue" points="1238.93,-244.04 1248.93,-240.54 1238.93,-237.04 1238.93,-244.04"/>
</g>
<!-- Node8 -->
<g id="node8" class="node">
<title>Node8</title>
<g id="a_node8"><a xlink:href="classnlohmann_1_1detail_1_1parse__error.html#a0ea816ea3521d7109407948cb1b850f7" target="_top" xlink:title=" ">
<polygon fill="white" stroke="black" points="1259.5,-274.54 1259.5,-304.54 1391.5,-304.54 1391.5,-274.54 1259.5,-274.54"/>
<text text-anchor="start" x="1267.5" y="-292.54" font-family="Helvetica,sans-Serif" font-size="10.00">nlohmann::detail::parse</text>
<text text-anchor="middle" x="1325.5" y="-281.54" font-family="Helvetica,sans-Serif" font-size="10.00">_error::parse_error</text>
</a>
</g>
</g>
<!-- Node5&#45;&gt;Node8 -->
<g id="edge7" class="edge">
<title>Node5&#45;&gt;Node8</title>
<path fill="none" stroke="midnightblue" d="M1193.49,-255.57C1213.54,-260.77 1236.17,-266.64 1256.92,-272.02"/>
<polygon fill="midnightblue" stroke="midnightblue" points="1256.06,-275.41 1266.62,-274.53 1257.82,-268.63 1256.06,-275.41"/>
</g>
<!-- Node9 -->
<g id="node9" class="node">
<title>Node9</title>
<g id="a_node9"><a xlink:href="classnlohmann_1_1detail_1_1parse__error.html#aefe74adeaa48781464ba2fd2ec63d221" target="_top" xlink:title=" ">
<polygon fill="white" stroke="black" points="1259.5,-176.54 1259.5,-206.54 1391.5,-206.54 1391.5,-176.54 1259.5,-176.54"/>
<text text-anchor="start" x="1267.5" y="-194.54" font-family="Helvetica,sans-Serif" font-size="10.00">nlohmann::detail::parse</text>
<text text-anchor="middle" x="1325.5" y="-183.54" font-family="Helvetica,sans-Serif" font-size="10.00">_error::position_string</text>
</a>
</g>
</g>
<!-- Node5&#45;&gt;Node9 -->
<g id="edge8" class="edge">
<title>Node5&#45;&gt;Node9</title>
<path fill="none" stroke="midnightblue" d="M1193.49,-225.5C1213.54,-220.31 1236.17,-214.44 1256.92,-209.06"/>
<polygon fill="midnightblue" stroke="midnightblue" points="1257.82,-212.44 1266.62,-206.54 1256.06,-205.67 1257.82,-212.44"/>
</g>
<!-- Node7 -->
<g id="node7" class="node">
<title>Node7</title>
<g id="a_node7"><a xlink:href="namespacehttplib.html#a498c3a79825ecbcb15c52ec5fcfd5c11" target="_top" xlink:title=" ">
<polygon fill="white" stroke="black" points="1438,-206.04 1438,-225.04 1535,-225.04 1535,-206.04 1438,-206.04"/>
<text text-anchor="middle" x="1486.5" y="-213.04" font-family="Helvetica,sans-Serif" font-size="10.00">httplib::to_string</text>
</a>
</g>
</g>
<!-- Node6&#45;&gt;Node7 -->
<g id="edge6" class="edge">
<title>Node6&#45;&gt;Node7</title>
<path fill="none" stroke="midnightblue" d="M1402.27,-228.62C1410.92,-227.27 1419.62,-225.9 1427.97,-224.58"/>
<polygon fill="midnightblue" stroke="midnightblue" points="1428.62,-228.02 1437.96,-223.01 1427.53,-221.11 1428.62,-228.02"/>
</g>
<!-- Node9&#45;&gt;Node7 -->
<g id="edge9" class="edge">
<title>Node9&#45;&gt;Node7</title>
<path fill="none" stroke="midnightblue" d="M1391.63,-201.37C1403.57,-203.17 1415.96,-205.04 1427.66,-206.81"/>
<polygon fill="midnightblue" stroke="midnightblue" points="1427.34,-210.3 1437.75,-208.33 1428.39,-203.38 1427.34,-210.3"/>
</g>
<!-- Node10&#45;&gt;Node4 -->
<g id="edge11" class="edge">
<title>Node10&#45;&gt;Node4</title>
<path fill="none" stroke="midnightblue" d="M1185.65,-71.41C1219.3,-61.26 1262.66,-48.19 1291.9,-39.37"/>
<polygon fill="midnightblue" stroke="midnightblue" points="1293.05,-42.68 1301.61,-36.44 1291.03,-35.98 1293.05,-42.68"/>
</g>
<!-- Node11&#45;&gt;Node2 -->
<g id="edge15" class="edge">
<title>Node11&#45;&gt;Node2</title>
<path fill="none" stroke="midnightblue" d="M466.41,-321.66C517.54,-343.56 617.98,-383.06 708,-397.54 769.43,-407.42 786.22,-404.93 848,-397.54 861.67,-395.9 876.15,-393.09 889.8,-389.92"/>
<polygon fill="midnightblue" stroke="midnightblue" points="890.67,-393.31 899.57,-387.57 889.03,-386.51 890.67,-393.31"/>
</g>
<!-- Node11&#45;&gt;Node3 -->
<g id="edge30" class="edge">
<title>Node11&#45;&gt;Node3</title>
<path fill="none" stroke="midnightblue" d="M362.8,-313.1C354.42,-313.24 345.77,-313.31 337.16,-313.28"/>
<polygon fill="midnightblue" stroke="midnightblue" points="337.12,-309.78 327.1,-313.22 337.08,-316.78 337.12,-309.78"/>
</g>
<!-- Node11&#45;&gt;Node12 -->
<g id="edge16" class="edge">
<title>Node11&#45;&gt;Node12</title>
<path fill="none" stroke="midnightblue" d="M490.7,-291.52C504.89,-287.86 520.19,-283.91 534.79,-280.14"/>
<polygon fill="midnightblue" stroke="midnightblue" points="535.97,-283.45 544.77,-277.56 534.22,-276.67 535.97,-283.45"/>
</g>
<!-- Node12&#45;&gt;Node2 -->
<g id="edge19" class="edge">
<title>Node12&#45;&gt;Node2</title>
<path fill="none" stroke="midnightblue" d="M635.12,-277.55C655.38,-287.26 682.88,-299.69 708,-308.54 739.42,-319.61 819.86,-340.26 879.63,-355.11"/>
<polygon fill="midnightblue" stroke="midnightblue" points="878.86,-358.52 889.41,-357.53 880.55,-351.73 878.86,-358.52"/>
</g>
<!-- Node12&#45;&gt;Node5 -->
<g id="edge17" class="edge">
<title>Node12&#45;&gt;Node5</title>
<path fill="none" stroke="midnightblue" d="M672.2,-259.74C771.08,-255.63 955.18,-247.96 1058.39,-243.67"/>
<polygon fill="midnightblue" stroke="midnightblue" points="1058.58,-247.16 1068.42,-243.25 1058.29,-240.17 1058.58,-247.16"/>
</g>
<!-- Node12&#45;&gt;Node10 -->
<g id="edge18" class="edge">
<title>Node12&#45;&gt;Node10</title>
<path fill="none" stroke="midnightblue" d="M612.06,-247.36C625.96,-219.38 659.8,-160.09 708,-133.54 813.31,-75.53 955.43,-72.07 1045.79,-77.37"/>
<polygon fill="midnightblue" stroke="midnightblue" points="1045.8,-80.88 1056,-78.03 1046.24,-73.9 1045.8,-80.88"/>
</g>
<!-- Node12&#45;&gt;Node13 -->
<g id="edge20" class="edge">
<title>Node12&#45;&gt;Node13</title>
<path fill="none" stroke="midnightblue" d="M625.49,-247.46C653.01,-227.26 699.48,-193.38 708,-188.54 714.56,-184.81 721.67,-181.24 728.75,-177.94"/>
<polygon fill="midnightblue" stroke="midnightblue" points="730.65,-180.93 738.33,-173.63 727.78,-174.54 730.65,-180.93"/>
</g>
<!-- Node12&#45;&gt;Node14 -->
<g id="edge29" class="edge">
<title>Node12&#45;&gt;Node14</title>
<path fill="none" stroke="midnightblue" d="M644.22,-247.41C663.27,-240.42 686.63,-232.4 708,-226.54 762.83,-211.51 825.78,-198.94 873.87,-190.3"/>
<polygon fill="midnightblue" stroke="midnightblue" points="874.66,-193.71 883.9,-188.51 873.44,-186.82 874.66,-193.71"/>
</g>
<!-- Node15 -->
<g id="node15" class="node">
<title>Node15</title>
<g id="a_node15"><a xlink:href="classnlohmann_1_1detail_1_1binary__reader.html#a1f4b5da029a561c8711426b0a7316ec6" target="_top" xlink:title="create a string by reading characters from the input">
<polygon fill="white" stroke="black" points="710,-269.54 710,-299.54 846,-299.54 846,-269.54 710,-269.54"/>
<text text-anchor="start" x="718" y="-287.54" font-family="Helvetica,sans-Serif" font-size="10.00">nlohmann::detail::binary</text>
<text text-anchor="middle" x="778" y="-276.54" font-family="Helvetica,sans-Serif" font-size="10.00">_reader::get_string</text>
</a>
</g>
</g>
<!-- Node12&#45;&gt;Node15 -->
<g id="edge25" class="edge">
<title>Node12&#45;&gt;Node15</title>
<path fill="none" stroke="midnightblue" d="M672.49,-271.17C681.44,-272.32 690.68,-273.5 699.79,-274.66"/>
<polygon fill="midnightblue" stroke="midnightblue" points="699.63,-278.17 709.99,-275.97 700.52,-271.23 699.63,-278.17"/>
</g>
<!-- Node12&#45;&gt;Node16 -->
<g id="edge28" class="edge">
<title>Node12&#45;&gt;Node16</title>
<path fill="none" stroke="midnightblue" d="M621.9,-277.83C641.55,-295.08 675.48,-323.25 708,-342.54 714.41,-346.34 721.39,-349.94 728.37,-353.23"/>
<polygon fill="midnightblue" stroke="midnightblue" points="727.28,-356.58 737.83,-357.53 730.18,-350.21 727.28,-356.58"/>
</g>
<!-- Node13&#45;&gt;Node2 -->
<g id="edge21" class="edge">
<title>Node13&#45;&gt;Node2</title>
<path fill="none" stroke="midnightblue" d="M791.09,-173.59C820.76,-210.5 897.29,-305.72 932.62,-349.68"/>
<polygon fill="midnightblue" stroke="midnightblue" points="929.93,-351.91 938.92,-357.51 935.38,-347.52 929.93,-351.91"/>
</g>
<!-- Node13&#45;&gt;Node14 -->
<g id="edge22" class="edge">
<title>Node13&#45;&gt;Node14</title>
<path fill="none" stroke="midnightblue" d="M846.49,-165.99C855.44,-166.98 864.68,-168 873.79,-169.01"/>
<polygon fill="midnightblue" stroke="midnightblue" points="873.67,-172.52 883.99,-170.14 874.44,-165.56 873.67,-172.52"/>
</g>
<!-- Node14&#45;&gt;Node5 -->
<g id="edge23" class="edge">
<title>Node14&#45;&gt;Node5</title>
<path fill="none" stroke="midnightblue" d="M996.23,-192.63C1021.59,-201.48 1053.82,-212.73 1080.68,-222.1"/>
<polygon fill="midnightblue" stroke="midnightblue" points="1079.71,-225.47 1090.31,-225.46 1082.02,-218.86 1079.71,-225.47"/>
</g>
<!-- Node14&#45;&gt;Node10 -->
<g id="edge24" class="edge">
<title>Node14&#45;&gt;Node10</title>
<path fill="none" stroke="midnightblue" d="M982.81,-162.51C1013.38,-147.1 1061.07,-123.06 1094.6,-106.15"/>
<polygon fill="midnightblue" stroke="midnightblue" points="1096.3,-109.21 1103.65,-101.59 1093.14,-102.96 1096.3,-109.21"/>
</g>
<!-- Node15&#45;&gt;Node2 -->
<g id="edge26" class="edge">
<title>Node15&#45;&gt;Node2</title>
<path fill="none" stroke="midnightblue" d="M815.49,-299.57C826.08,-304.16 837.59,-309.36 848,-314.54 871.58,-326.27 897.41,-340.81 917.3,-352.4"/>
<polygon fill="midnightblue" stroke="midnightblue" points="915.6,-355.46 925.99,-357.5 919.14,-349.42 915.6,-355.46"/>
</g>
<!-- Node15&#45;&gt;Node14 -->
<g id="edge27" class="edge">
<title>Node15&#45;&gt;Node14</title>
<path fill="none" stroke="midnightblue" d="M803.28,-269.44C833.37,-250.72 884.77,-218.74 918.31,-197.88"/>
<polygon fill="midnightblue" stroke="midnightblue" points="920.2,-200.82 926.84,-192.57 916.51,-194.88 920.2,-200.82"/>
</g>
</g>
</svg>
