<?xml version="1.0" encoding="UTF-8" standalone="no"?>
<!DOCTYPE svg PUBLIC "-//W3C//DTD SVG 1.1//EN"
 "http://www.w3.org/Graphics/SVG/1.1/DTD/svg11.dtd">
<!-- Generated by graphviz version 2.43.0 (0)
 -->
<!-- Title: nlohmann::json_pointer::get_checked Pages: 1 -->
<svg width="313pt" height="78pt"
 viewBox="0.00 0.00 313.00 77.50" xmlns="http://www.w3.org/2000/svg" xmlns:xlink="http://www.w3.org/1999/xlink">
<g id="graph0" class="graph" transform="scale(1 1) rotate(0) translate(4 73.5)">
<title>nlohmann::json_pointer::get_checked</title>
<polygon fill="white" stroke="transparent" points="-4,4 -4,-73.5 309,-73.5 309,4 -4,4"/>
<!-- Node1 -->
<g id="node1" class="node">
<title>Node1</title>
<g id="a_node1"><a xlink:title=" ">
<polygon fill="#bfbfbf" stroke="black" points="174,-22.5 174,-52.5 305,-52.5 305,-22.5 174,-22.5"/>
<text text-anchor="start" x="182" y="-40.5" font-family="Helvetica,sans-Serif" font-size="10.00">nlohmann::json_pointer</text>
<text text-anchor="middle" x="239.5" y="-29.5" font-family="Helvetica,sans-Serif" font-size="10.00">::get_checked</text>
</a>
</g>
</g>
<!-- Node2 -->
<g id="node2" class="node">
<title>Node2</title>
<g id="a_node2"><a xlink:href="classnlohmann_1_1basic__json.html#a8ab61397c10f18b305520da7073b2b45" target="_top" xlink:title="access specified element via JSON Pointer">
<polygon fill="white" stroke="black" points="0,-50 0,-69 138,-69 138,-50 0,-50"/>
<text text-anchor="middle" x="69" y="-57" font-family="Helvetica,sans-Serif" font-size="10.00">nlohmann::basic_json::at</text>
</a>
</g>
</g>
<!-- Node1&#45;&gt;Node2 -->
<g id="edge1" class="edge">
<title>Node1&#45;&gt;Node2</title>
<path fill="none" stroke="midnightblue" d="M163.86,-47.24C155.3,-48.36 146.6,-49.5 138.13,-50.61"/>
<polygon fill="midnightblue" stroke="midnightblue" points="164.37,-50.71 173.84,-45.94 163.47,-43.77 164.37,-50.71"/>
</g>
<!-- Node3 -->
<g id="node3" class="node">
<title>Node3</title>
<g id="a_node3"><a xlink:href="classnlohmann_1_1basic__json.html#a671aea68432ecb28770bbc482918f023" target="_top" xlink:title="access specified object element via JSON Pointer with default value">
<polygon fill="white" stroke="black" points="8,-0.5 8,-30.5 130,-30.5 130,-0.5 8,-0.5"/>
<text text-anchor="start" x="16" y="-18.5" font-family="Helvetica,sans-Serif" font-size="10.00">nlohmann::basic_json</text>
<text text-anchor="middle" x="69" y="-7.5" font-family="Helvetica,sans-Serif" font-size="10.00">::value</text>
</a>
</g>
</g>
<!-- Node1&#45;&gt;Node3 -->
<g id="edge2" class="edge">
<title>Node1&#45;&gt;Node3</title>
<path fill="none" stroke="midnightblue" d="M163.61,-27.72C152.38,-26.26 140.93,-24.76 130.07,-23.34"/>
<polygon fill="midnightblue" stroke="midnightblue" points="163.47,-31.23 173.84,-29.06 164.37,-24.29 163.47,-31.23"/>
</g>
</g>
</svg>
