<?xml version="1.0" encoding="UTF-8" standalone="no"?>
<!DOCTYPE svg PUBLIC "-//W3C//DTD SVG 1.1//EN"
 "http://www.w3.org/Graphics/SVG/1.1/DTD/svg11.dtd">
<!-- Generated by graphviz version 2.43.0 (0)
 -->
<!-- Title: benchmark::BenchmarkReporter Pages: 1 -->
<svg width="183pt" height="577pt"
 viewBox="0.00 0.00 183.00 577.00" xmlns="http://www.w3.org/2000/svg" xmlns:xlink="http://www.w3.org/1999/xlink">
<g id="graph0" class="graph" transform="scale(1 1) rotate(0) translate(4 573)">
<title>benchmark::BenchmarkReporter</title>
<polygon fill="white" stroke="transparent" points="-4,4 -4,-573 179,-573 179,4 -4,4"/>
<!-- Node1 -->
<g id="node1" class="node">
<title>Node1</title>
<g id="a_node1"><a xlink:title=" ">
<polygon fill="#bfbfbf" stroke="black" points="0,-0.5 0,-156.5 175,-156.5 175,-0.5 0,-0.5"/>
<text text-anchor="middle" x="87.5" y="-144.5" font-family="Helvetica,sans-Serif" font-size="10.00">benchmark::BenchmarkReporter</text>
<polyline fill="none" stroke="black" points="0,-137.5 175,-137.5 "/>
<text text-anchor="middle" x="87.5" y="-125.5" font-family="Helvetica,sans-Serif" font-size="10.00"> </text>
<polyline fill="none" stroke="black" points="0,-118.5 175,-118.5 "/>
<text text-anchor="start" x="8" y="-106.5" font-family="Helvetica,sans-Serif" font-size="10.00">+ BenchmarkReporter()</text>
<text text-anchor="start" x="8" y="-95.5" font-family="Helvetica,sans-Serif" font-size="10.00">+ ReportContext()</text>
<text text-anchor="start" x="8" y="-84.5" font-family="Helvetica,sans-Serif" font-size="10.00">+ ReportRuns()</text>
<text text-anchor="start" x="8" y="-73.5" font-family="Helvetica,sans-Serif" font-size="10.00">+ Finalize()</text>
<text text-anchor="start" x="8" y="-62.5" font-family="Helvetica,sans-Serif" font-size="10.00">+ SetOutputStream()</text>
<text text-anchor="start" x="8" y="-51.5" font-family="Helvetica,sans-Serif" font-size="10.00">+ SetErrorStream()</text>
<text text-anchor="start" x="8" y="-40.5" font-family="Helvetica,sans-Serif" font-size="10.00">+ GetOutputStream()</text>
<text text-anchor="start" x="8" y="-29.5" font-family="Helvetica,sans-Serif" font-size="10.00">+ GetErrorStream()</text>
<text text-anchor="start" x="8" y="-18.5" font-family="Helvetica,sans-Serif" font-size="10.00">+ ~BenchmarkReporter()</text>
<text text-anchor="start" x="8" y="-7.5" font-family="Helvetica,sans-Serif" font-size="10.00">+ PrintBasicContext()</text>
</a>
</g>
</g>
<!-- Node2 -->
<g id="node2" class="node">
<title>Node2</title>
<g id="a_node2"><a xlink:title="STL class.">
<polygon fill="white" stroke="#bfbfbf" points="48.5,-215.5 48.5,-272.5 126.5,-272.5 126.5,-215.5 48.5,-215.5"/>
<text text-anchor="middle" x="87.5" y="-260.5" font-family="Helvetica,sans-Serif" font-size="10.00">std::ostream</text>
<polyline fill="none" stroke="#bfbfbf" points="48.5,-253.5 126.5,-253.5 "/>
<text text-anchor="middle" x="87.5" y="-241.5" font-family="Helvetica,sans-Serif" font-size="10.00"> </text>
<polyline fill="none" stroke="#bfbfbf" points="48.5,-234.5 126.5,-234.5 "/>
<text text-anchor="middle" x="87.5" y="-222.5" font-family="Helvetica,sans-Serif" font-size="10.00"> </text>
</a>
</g>
</g>
<!-- Node2&#45;&gt;Node1 -->
<g id="edge1" class="edge">
<title>Node2&#45;&gt;Node1</title>
<path fill="none" stroke="#404040" d="M87.5,-215.26C87.5,-202.21 87.5,-185.84 87.5,-169.02"/>
<polygon fill="none" stroke="#404040" points="87.5,-168.74 83.5,-162.74 87.5,-156.74 91.5,-162.74 87.5,-168.74"/>
<text text-anchor="middle" x="128" y="-189" font-family="Helvetica,sans-Serif" font-size="10.00"> &#45;error_stream_</text>
<text text-anchor="middle" x="128" y="-178" font-family="Helvetica,sans-Serif" font-size="10.00">&#45;output_stream_</text>
</g>
<!-- Node3 -->
<g id="node3" class="node">
<title>Node3</title>
<g id="a_node3"><a xlink:title="STL class.">
<polygon fill="white" stroke="#bfbfbf" points="33,-310.5 33,-378.5 142,-378.5 142,-310.5 33,-310.5"/>
<text text-anchor="start" x="41" y="-366.5" font-family="Helvetica,sans-Serif" font-size="10.00">std::basic_ostream</text>
<text text-anchor="middle" x="87.5" y="-355.5" font-family="Helvetica,sans-Serif" font-size="10.00">&lt; char &gt;</text>
<polyline fill="none" stroke="#bfbfbf" points="33,-348.5 142,-348.5 "/>
<text text-anchor="middle" x="87.5" y="-336.5" font-family="Helvetica,sans-Serif" font-size="10.00"> </text>
<polyline fill="none" stroke="#bfbfbf" points="33,-329.5 142,-329.5 "/>
<text text-anchor="middle" x="87.5" y="-317.5" font-family="Helvetica,sans-Serif" font-size="10.00"> </text>
</a>
</g>
</g>
<!-- Node3&#45;&gt;Node2 -->
<g id="edge2" class="edge">
<title>Node3&#45;&gt;Node2</title>
<path fill="none" stroke="midnightblue" d="M87.5,-300.38C87.5,-290.94 87.5,-281.2 87.5,-272.57"/>
<polygon fill="none" stroke="midnightblue" points="84,-300.43 87.5,-310.43 91,-300.43 84,-300.43"/>
</g>
<!-- Node4 -->
<g id="node4" class="node">
<title>Node4</title>
<g id="a_node4"><a xlink:title="STL class.">
<polygon fill="white" stroke="#bfbfbf" points="23.5,-416.5 23.5,-473.5 151.5,-473.5 151.5,-416.5 23.5,-416.5"/>
<text text-anchor="middle" x="87.5" y="-461.5" font-family="Helvetica,sans-Serif" font-size="10.00">std::basic_ios&lt; Char &gt;</text>
<polyline fill="none" stroke="#bfbfbf" points="23.5,-454.5 151.5,-454.5 "/>
<text text-anchor="middle" x="87.5" y="-442.5" font-family="Helvetica,sans-Serif" font-size="10.00"> </text>
<polyline fill="none" stroke="#bfbfbf" points="23.5,-435.5 151.5,-435.5 "/>
<text text-anchor="middle" x="87.5" y="-423.5" font-family="Helvetica,sans-Serif" font-size="10.00"> </text>
</a>
</g>
</g>
<!-- Node4&#45;&gt;Node3 -->
<g id="edge3" class="edge">
<title>Node4&#45;&gt;Node3</title>
<path fill="none" stroke="midnightblue" d="M87.5,-406.01C87.5,-396.96 87.5,-387.38 87.5,-378.58"/>
<polygon fill="none" stroke="midnightblue" points="84,-406.3 87.5,-416.3 91,-406.3 84,-406.3"/>
</g>
<!-- Node5 -->
<g id="node5" class="node">
<title>Node5</title>
<g id="a_node5"><a xlink:title="STL class.">
<polygon fill="white" stroke="#bfbfbf" points="47.5,-511.5 47.5,-568.5 127.5,-568.5 127.5,-511.5 47.5,-511.5"/>
<text text-anchor="middle" x="87.5" y="-556.5" font-family="Helvetica,sans-Serif" font-size="10.00">std::ios_base</text>
<polyline fill="none" stroke="#bfbfbf" points="47.5,-549.5 127.5,-549.5 "/>
<text text-anchor="middle" x="87.5" y="-537.5" font-family="Helvetica,sans-Serif" font-size="10.00"> </text>
<polyline fill="none" stroke="#bfbfbf" points="47.5,-530.5 127.5,-530.5 "/>
<text text-anchor="middle" x="87.5" y="-518.5" font-family="Helvetica,sans-Serif" font-size="10.00"> </text>
</a>
</g>
</g>
<!-- Node5&#45;&gt;Node4 -->
<g id="edge4" class="edge">
<title>Node5&#45;&gt;Node4</title>
<path fill="none" stroke="midnightblue" d="M87.5,-501.24C87.5,-492.03 87.5,-482.35 87.5,-473.71"/>
<polygon fill="none" stroke="midnightblue" points="84,-501.35 87.5,-511.35 91,-501.35 84,-501.35"/>
</g>
</g>
</svg>
