<?xml version="1.0" encoding="UTF-8" standalone="no"?>
<!DOCTYPE svg PUBLIC "-//W3C//DTD SVG 1.1//EN"
 "http://www.w3.org/Graphics/SVG/1.1/DTD/svg11.dtd">
<!-- Generated by graphviz version 2.43.0 (0)
 -->
<!-- Title: benchmark::State::FinishKeepRunning Pages: 1 -->
<!--zoomable 143 -->
<svg id="main" version="1.1" xmlns="http://www.w3.org/2000/svg" xmlns:xlink="http://www.w3.org/1999/xlink" xml:space="preserve" onload="init(evt)">
<style type="text/css"><![CDATA[
.edge:hover path { stroke: red; }
.edge:hover polygon { stroke: red; fill: red; }
]]></style>
<script type="text/javascript"><![CDATA[
var edges = document.getElementsByTagName('g');
if (edges && edges.length) {
  for (var i=0;i<edges.length;i++) {
    if (edges[i].id.substr(0,4)=='edge') {
      edges[i].setAttribute('class','edge');
    }
  }
}
]]></script>
        <defs>
                <circle id="rim" cx="0" cy="0" r="7"/>
                <circle id="rim2" cx="0" cy="0" r="3.5"/>
                <g id="zoomPlus">
                        <use xlink:href="#rim" fill="#404040">
                                <set attributeName="fill" to="#808080" begin="zoomplus.mouseover" end="zoomplus.mouseout"/>
                        </use>
                        <path d="M-4,0h8M0,-4v8" fill="none" stroke="white" stroke-width="1.5" pointer-events="none"/>
                </g>
                <g id="zoomMin">
                        <use xlink:href="#rim" fill="#404040">
                                <set attributeName="fill" to="#808080" begin="zoomminus.mouseover" end="zoomminus.mouseout"/>
                        </use>
                        <path d="M-4,0h8" fill="none" stroke="white" stroke-width="1.5" pointer-events="none"/>
                </g>
                <g id="dirArrow">
                        <path fill="none" stroke="white" stroke-width="1.5" d="M0,-3.0v7 M-2.5,-0.5L0,-3.0L2.5,-0.5"/>
                </g>
               <g id="resetDef">
                       <use xlink:href="#rim2" fill="#404040">
                               <set attributeName="fill" to="#808080" begin="reset.mouseover" end="reset.mouseout"/>
                       </use>
               </g>
        </defs>

<script type="text/javascript">
var viewWidth = 671;
var viewHeight = 143;
var sectionId = 'dynsection-2';
</script>
<script xlink:href="svgpan.js"/>
<svg id="graph" class="graph">
<g id="viewport">
<title>benchmark::State::FinishKeepRunning</title>
<polygon fill="white" stroke="transparent" points="-4,4 -4,-138.5 667,-138.5 667,4 -4,4"/>
<!-- Node1 -->
<g id="node1" class="node">
<title>Node1</title>
<g id="a_node1"><a xlink:title=" ">
<polygon fill="#bfbfbf" stroke="black" points="526,-24.5 526,-54.5 663,-54.5 663,-24.5 526,-24.5"/>
<text text-anchor="start" x="534" y="-42.5" font-family="Helvetica,sans-Serif" font-size="10.00">benchmark::State::Finish</text>
<text text-anchor="middle" x="594.5" y="-31.5" font-family="Helvetica,sans-Serif" font-size="10.00">KeepRunning</text>
</a>
</g>
</g>
<!-- Node2 -->
<g id="node2" class="node">
<title>Node2</title>
<g id="a_node2"><a xlink:href="classbenchmark_1_1State.html#a84d9963091449d5ff7bde5a6035d5a45" target="_top" xlink:title=" ">
<polygon fill="white" stroke="black" points="317,-49.5 317,-79.5 490,-79.5 490,-49.5 317,-49.5"/>
<text text-anchor="start" x="325" y="-67.5" font-family="Helvetica,sans-Serif" font-size="10.00">benchmark::State::KeepRunning</text>
<text text-anchor="middle" x="403.5" y="-56.5" font-family="Helvetica,sans-Serif" font-size="10.00">Internal</text>
</a>
</g>
</g>
<!-- Node1&#45;&gt;Node2 -->
<g id="edge1" class="edge">
<title>Node1&#45;&gt;Node2</title>
<path fill="none" stroke="midnightblue" d="M515.66,-49.8C507.26,-50.91 498.68,-52.04 490.19,-53.17"/>
<polygon fill="midnightblue" stroke="midnightblue" points="516.35,-53.24 525.8,-48.45 515.43,-46.3 516.35,-53.24"/>
</g>
<!-- Node8 -->
<g id="node8" class="node">
<title>Node8</title>
<g id="a_node8"><a xlink:href="structbenchmark_1_1State_1_1StateIterator.html#a62d00213bce4c63aa16270a8cb66b489" target="_top" xlink:title=" ">
<polygon fill="white" stroke="black" points="318.5,-0.5 318.5,-30.5 488.5,-30.5 488.5,-0.5 318.5,-0.5"/>
<text text-anchor="start" x="326.5" y="-18.5" font-family="Helvetica,sans-Serif" font-size="10.00">benchmark::State::StateIterator</text>
<text text-anchor="middle" x="403.5" y="-7.5" font-family="Helvetica,sans-Serif" font-size="10.00">::operator!=</text>
</a>
</g>
</g>
<!-- Node1&#45;&gt;Node8 -->
<g id="edge7" class="edge">
<title>Node1&#45;&gt;Node8</title>
<path fill="none" stroke="midnightblue" d="M515.77,-29.63C506.79,-28.49 497.61,-27.32 488.55,-26.17"/>
<polygon fill="midnightblue" stroke="midnightblue" points="515.44,-33.12 525.8,-30.9 516.32,-26.17 515.44,-33.12"/>
</g>
<!-- Node3 -->
<g id="node3" class="node">
<title>Node3</title>
<g id="a_node3"><a xlink:href="classbenchmark_1_1State.html#a2188056d2b8b203d0de4166f7eca2648" target="_top" xlink:title=" ">
<polygon fill="white" stroke="black" points="108,-77 108,-96 281,-96 281,-77 108,-77"/>
<text text-anchor="middle" x="194.5" y="-84" font-family="Helvetica,sans-Serif" font-size="10.00">benchmark::State::KeepRunning</text>
</a>
</g>
</g>
<!-- Node2&#45;&gt;Node3 -->
<g id="edge2" class="edge">
<title>Node2&#45;&gt;Node3</title>
<path fill="none" stroke="midnightblue" d="M306.8,-74.67C298.24,-75.58 289.6,-76.5 281.12,-77.4"/>
<polygon fill="midnightblue" stroke="midnightblue" points="307.24,-78.14 316.81,-73.61 306.5,-71.18 307.24,-78.14"/>
</g>
<!-- Node7 -->
<g id="node7" class="node">
<title>Node7</title>
<g id="a_node7"><a xlink:href="classbenchmark_1_1State.html#a226c7db9cdc39a32d41dbb32ae22dc06" target="_top" xlink:title=" ">
<polygon fill="white" stroke="black" points="108,-27.5 108,-57.5 281,-57.5 281,-27.5 108,-27.5"/>
<text text-anchor="start" x="116" y="-45.5" font-family="Helvetica,sans-Serif" font-size="10.00">benchmark::State::KeepRunning</text>
<text text-anchor="middle" x="194.5" y="-34.5" font-family="Helvetica,sans-Serif" font-size="10.00">Batch</text>
</a>
</g>
</g>
<!-- Node2&#45;&gt;Node7 -->
<g id="edge6" class="edge">
<title>Node2&#45;&gt;Node7</title>
<path fill="none" stroke="midnightblue" d="M306.8,-54.33C298.24,-53.42 289.6,-52.5 281.12,-51.6"/>
<polygon fill="midnightblue" stroke="midnightblue" points="306.5,-57.82 316.81,-55.39 307.24,-50.86 306.5,-57.82"/>
</g>
<!-- Node4 -->
<g id="node4" class="node">
<title>Node4</title>
<g id="a_node4"><a xlink:href="benchmarks_8cpp.html#a127b432467f7f5f314bd6455584269e0" target="_top" xlink:title=" ">
<polygon fill="white" stroke="black" points="13,-115 13,-134 59,-134 59,-115 13,-115"/>
<text text-anchor="middle" x="36" y="-122" font-family="Helvetica,sans-Serif" font-size="10.00">Dump</text>
</a>
</g>
</g>
<!-- Node3&#45;&gt;Node4 -->
<g id="edge3" class="edge">
<title>Node3&#45;&gt;Node4</title>
<path fill="none" stroke="midnightblue" d="M144.19,-98.47C115.62,-105.41 81.08,-113.8 59.07,-119.14"/>
<polygon fill="midnightblue" stroke="midnightblue" points="145.12,-101.85 154.01,-96.09 143.46,-95.05 145.12,-101.85"/>
</g>
<!-- Node5 -->
<g id="node5" class="node">
<title>Node5</title>
<g id="a_node5"><a xlink:href="benchmarks_8cpp.html#acaf833f136690a0b9eb55539d792d694" target="_top" xlink:title=" ">
<polygon fill="white" stroke="black" points="6,-77 6,-96 66,-96 66,-77 6,-77"/>
<text text-anchor="middle" x="36" y="-84" font-family="Helvetica,sans-Serif" font-size="10.00">ParseFile</text>
</a>
</g>
</g>
<!-- Node3&#45;&gt;Node5 -->
<g id="edge4" class="edge">
<title>Node3&#45;&gt;Node5</title>
<path fill="none" stroke="midnightblue" d="M97.82,-86.5C86.44,-86.5 75.59,-86.5 66.28,-86.5"/>
<polygon fill="midnightblue" stroke="midnightblue" points="97.92,-90 107.92,-86.5 97.92,-83 97.92,-90"/>
</g>
<!-- Node6 -->
<g id="node6" class="node">
<title>Node6</title>
<g id="a_node6"><a xlink:href="benchmarks_8cpp.html#a57ec848ad2646d54d57787f0afaa8abb" target="_top" xlink:title=" ">
<polygon fill="white" stroke="black" points="0,-39 0,-58 72,-58 72,-39 0,-39"/>
<text text-anchor="middle" x="36" y="-46" font-family="Helvetica,sans-Serif" font-size="10.00">ParseString</text>
</a>
</g>
</g>
<!-- Node3&#45;&gt;Node6 -->
<g id="edge5" class="edge">
<title>Node3&#45;&gt;Node6</title>
<path fill="none" stroke="midnightblue" d="M142.39,-74.71C131.05,-72.05 119.11,-69.21 108,-66.5 96.39,-63.67 83.73,-60.49 72.36,-57.6"/>
<polygon fill="midnightblue" stroke="midnightblue" points="141.62,-78.12 152.15,-76.99 143.21,-71.3 141.62,-78.12"/>
</g>
</g>
</svg>
        <g id="navigator" transform="translate(0 0)" fill="#404254">
                <rect fill="#f2f5e9" fill-opacity="0.5" stroke="#606060" stroke-width=".5" x="0" y="0" width="60" height="60"/>
                <use id="zoomplus" xlink:href="#zoomPlus" x="17" y="9" onmousedown="handleZoom(evt,'in')"/>
                <use id="zoomminus" xlink:href="#zoomMin" x="42" y="9" onmousedown="handleZoom(evt,'out')"/>
                <use id="reset" xlink:href="#resetDef" x="30" y="36" onmousedown="handleReset()"/>
                <g id="arrowUp" xlink:href="#dirArrow" transform="translate(30 24)" onmousedown="handlePan(0,-1)">
                  <use xlink:href="#rim" fill="#404040">
                        <set attributeName="fill" to="#808080" begin="arrowUp.mouseover" end="arrowUp.mouseout"/>
                  </use>
                  <path fill="none" stroke="white" stroke-width="1.5" d="M0,-3.0v7 M-2.5,-0.5L0,-3.0L2.5,-0.5"/>
                </g>
                <g id="arrowRight" xlink:href="#dirArrow" transform="rotate(90) translate(36 -43)" onmousedown="handlePan(1,0)">
                  <use xlink:href="#rim" fill="#404040">
                        <set attributeName="fill" to="#808080" begin="arrowRight.mouseover" end="arrowRight.mouseout"/>
                  </use>
                  <path fill="none" stroke="white" stroke-width="1.5" d="M0,-3.0v7 M-2.5,-0.5L0,-3.0L2.5,-0.5"/>
                </g>
                <g id="arrowDown" xlink:href="#dirArrow" transform="rotate(180) translate(-30 -48)" onmousedown="handlePan(0,1)">
                  <use xlink:href="#rim" fill="#404040">
                        <set attributeName="fill" to="#808080" begin="arrowDown.mouseover" end="arrowDown.mouseout"/>
                  </use>
                  <path fill="none" stroke="white" stroke-width="1.5" d="M0,-3.0v7 M-2.5,-0.5L0,-3.0L2.5,-0.5"/>
                </g>
                <g id="arrowLeft" xlink:href="#dirArrow" transform="rotate(270) translate(-36 17)" onmousedown="handlePan(-1,0)">
                  <use xlink:href="#rim" fill="#404040">
                        <set attributeName="fill" to="#808080" begin="arrowLeft.mouseover" end="arrowLeft.mouseout"/>
                  </use>
                  <path fill="none" stroke="white" stroke-width="1.5" d="M0,-3.0v7 M-2.5,-0.5L0,-3.0L2.5,-0.5"/>
                </g>
        </g>
        <svg viewBox="0 0 15 15" width="100%" height="30px" preserveAspectRatio="xMaxYMin meet">
         <g id="arrow_out" transform="scale(0.3 0.3)">
          <a xlink:href="classbenchmark_1_1State_a4fb09efb9288d0004feb90a6f7b34df7_icgraph_org.svg" target="_base">
           <rect id="button" ry="5" rx="5" y="6" x="6" height="38" width="38"
                fill="#f2f5e9" fill-opacity="0.5" stroke="#606060" stroke-width="1.0"/>
           <path id="arrow"
             d="M 11.500037,31.436501 C 11.940474,20.09759 22.043105,11.32322 32.158766,21.979434 L 37.068811,17.246167 C 37.068811,17.246167 37.088388,32 37.088388,32 L 22.160133,31.978069 C 22.160133,31.978069 26.997745,27.140456 26.997745,27.140456 C 18.528582,18.264221 13.291696,25.230495 11.500037,31.436501 z"
             style="fill:#404040;"/>
          </a>
         </g>
        </svg>
</svg>
