<?xml version="1.0" encoding="UTF-8" standalone="no"?>
<!DOCTYPE svg PUBLIC "-//W3C//DTD SVG 1.1//EN"
 "http://www.w3.org/Graphics/SVG/1.1/DTD/svg11.dtd">
<!-- Generated by graphviz version 2.43.0 (0)
 -->
<!-- Title: nlohmann::detail::binary_reader::get_ubjson_value Pages: 1 -->
<svg width="805pt" height="145pt"
 viewBox="0.00 0.00 805.00 145.00" xmlns="http://www.w3.org/2000/svg" xmlns:xlink="http://www.w3.org/1999/xlink">
<g id="graph0" class="graph" transform="scale(1 1) rotate(0) translate(4 141)">
<title>nlohmann::detail::binary_reader::get_ubjson_value</title>
<polygon fill="white" stroke="transparent" points="-4,4 -4,-141 801,-141 801,4 -4,4"/>
<!-- Node1 -->
<g id="node1" class="node">
<title>Node1</title>
<g id="a_node1"><a xlink:title=" ">
<polygon fill="#bfbfbf" stroke="black" points="652,-53.5 652,-83.5 797,-83.5 797,-53.5 652,-53.5"/>
<text text-anchor="start" x="660" y="-71.5" font-family="Helvetica,sans-Serif" font-size="10.00">nlohmann::detail::binary</text>
<text text-anchor="middle" x="724.5" y="-60.5" font-family="Helvetica,sans-Serif" font-size="10.00">_reader::get_ubjson_value</text>
</a>
</g>
</g>
<!-- Node2 -->
<g id="node2" class="node">
<title>Node2</title>
<g id="a_node2"><a xlink:href="classnlohmann_1_1detail_1_1binary__reader.html#a4e8ef9561d4403ea68e3c2712fd289e2" target="_top" xlink:title=" ">
<polygon fill="white" stroke="black" points="267.5,-106.5 267.5,-136.5 410.5,-136.5 410.5,-106.5 267.5,-106.5"/>
<text text-anchor="start" x="275.5" y="-124.5" font-family="Helvetica,sans-Serif" font-size="10.00">nlohmann::detail::binary</text>
<text text-anchor="middle" x="339" y="-113.5" font-family="Helvetica,sans-Serif" font-size="10.00">_reader::get_ubjson_array</text>
</a>
</g>
</g>
<!-- Node1&#45;&gt;Node2 -->
<g id="edge1" class="edge">
<title>Node1&#45;&gt;Node2</title>
<path fill="none" stroke="midnightblue" d="M641.95,-79.66C633.22,-81.42 624.45,-83.1 616,-84.5 546.64,-96.04 466.62,-103.52 410.66,-109.49"/>
<polygon fill="midnightblue" stroke="midnightblue" points="642.67,-83.08 651.76,-77.64 641.26,-76.23 642.67,-83.08"/>
</g>
<!-- Node3 -->
<g id="node3" class="node">
<title>Node3</title>
<g id="a_node3"><a xlink:href="classnlohmann_1_1detail_1_1binary__reader.html#ad0932dd568fcbbd2b4c2ccf9122544a5" target="_top" xlink:title=" ">
<polygon fill="white" stroke="black" points="265,-0.5 265,-30.5 413,-30.5 413,-0.5 265,-0.5"/>
<text text-anchor="start" x="273" y="-18.5" font-family="Helvetica,sans-Serif" font-size="10.00">nlohmann::detail::binary</text>
<text text-anchor="middle" x="339" y="-7.5" font-family="Helvetica,sans-Serif" font-size="10.00">_reader::get_ubjson_object</text>
</a>
</g>
</g>
<!-- Node1&#45;&gt;Node3 -->
<g id="edge3" class="edge">
<title>Node1&#45;&gt;Node3</title>
<path fill="none" stroke="midnightblue" d="M684.2,-50.53C663.94,-44.77 638.76,-39.22 616,-35.5 547.65,-24.32 469.03,-16.55 413.23,-13.48"/>
<polygon fill="midnightblue" stroke="midnightblue" points="683.44,-53.95 694.02,-53.46 685.44,-47.25 683.44,-53.95"/>
</g>
<!-- Node4 -->
<g id="node4" class="node">
<title>Node4</title>
<g id="a_node4"><a xlink:href="classnlohmann_1_1detail_1_1binary__reader.html#af60c6bba6f1301cb02e0186c99e25751" target="_top" xlink:title=" ">
<polygon fill="white" stroke="black" points="449,-53.5 449,-83.5 616,-83.5 616,-53.5 449,-53.5"/>
<text text-anchor="start" x="457" y="-71.5" font-family="Helvetica,sans-Serif" font-size="10.00">nlohmann::detail::binary</text>
<text text-anchor="middle" x="532.5" y="-60.5" font-family="Helvetica,sans-Serif" font-size="10.00">_reader::parse_ubjson_internal</text>
</a>
</g>
</g>
<!-- Node1&#45;&gt;Node4 -->
<g id="edge5" class="edge">
<title>Node1&#45;&gt;Node4</title>
<path fill="none" stroke="midnightblue" d="M641.71,-68.5C633.24,-68.5 624.64,-68.5 616.17,-68.5"/>
<polygon fill="midnightblue" stroke="midnightblue" points="641.94,-72 651.94,-68.5 641.94,-65 641.94,-72"/>
</g>
<!-- Node2&#45;&gt;Node1 -->
<g id="edge2" class="edge">
<title>Node2&#45;&gt;Node1</title>
<path fill="none" stroke="midnightblue" d="M420.74,-123.64C475.96,-120.63 550.7,-113.36 616,-102.5 643.03,-98 673.4,-90.73 694.95,-83.62"/>
<polygon fill="midnightblue" stroke="midnightblue" points="420.47,-120.15 410.66,-124.15 420.83,-127.14 420.47,-120.15"/>
</g>
<!-- Node3&#45;&gt;Node1 -->
<g id="edge4" class="edge">
<title>Node3&#45;&gt;Node1</title>
<path fill="none" stroke="midnightblue" d="M423.27,-29.41C478.21,-35.47 551.65,-42.97 616,-53.5 627.61,-55.4 639.84,-57.77 651.73,-60.15"/>
<polygon fill="midnightblue" stroke="midnightblue" points="423.56,-25.92 413.23,-28.29 422.79,-32.88 423.56,-25.92"/>
</g>
<!-- Node4&#45;&gt;Node2 -->
<g id="edge6" class="edge">
<title>Node4&#45;&gt;Node2</title>
<path fill="none" stroke="midnightblue" d="M467.22,-86.29C443.62,-92.82 417.16,-100.15 394.5,-106.42"/>
<polygon fill="midnightblue" stroke="midnightblue" points="468.43,-89.59 477.14,-83.55 466.56,-82.84 468.43,-89.59"/>
</g>
<!-- Node4&#45;&gt;Node3 -->
<g id="edge7" class="edge">
<title>Node4&#45;&gt;Node3</title>
<path fill="none" stroke="midnightblue" d="M467.22,-50.71C443.62,-44.18 417.16,-36.85 394.5,-30.58"/>
<polygon fill="midnightblue" stroke="midnightblue" points="466.56,-54.16 477.14,-53.45 468.43,-47.41 466.56,-54.16"/>
</g>
<!-- Node5 -->
<g id="node5" class="node">
<title>Node5</title>
<g id="a_node5"><a xlink:href="classnlohmann_1_1detail_1_1binary__reader.html#ab94a54d6e595c2620b07589cf4116256" target="_top" xlink:title=" ">
<polygon fill="white" stroke="black" points="271,-53.5 271,-83.5 407,-83.5 407,-53.5 271,-53.5"/>
<text text-anchor="start" x="279" y="-71.5" font-family="Helvetica,sans-Serif" font-size="10.00">nlohmann::detail::binary</text>
<text text-anchor="middle" x="339" y="-60.5" font-family="Helvetica,sans-Serif" font-size="10.00">_reader::sax_parse</text>
</a>
</g>
</g>
<!-- Node4&#45;&gt;Node5 -->
<g id="edge8" class="edge">
<title>Node4&#45;&gt;Node5</title>
<path fill="none" stroke="midnightblue" d="M438.7,-68.5C428.03,-68.5 417.31,-68.5 407.07,-68.5"/>
<polygon fill="midnightblue" stroke="midnightblue" points="438.9,-72 448.9,-68.5 438.9,-65 438.9,-72"/>
</g>
<!-- Node6 -->
<g id="node6" class="node">
<title>Node6</title>
<g id="a_node6"><a xlink:href="classnlohmann_1_1basic__json.html#a8a3dd150c2d1f0df3502d937de0871db" target="_top" xlink:title="generate SAX events">
<polygon fill="white" stroke="black" points="107,-53.5 107,-83.5 229,-83.5 229,-53.5 107,-53.5"/>
<text text-anchor="start" x="115" y="-71.5" font-family="Helvetica,sans-Serif" font-size="10.00">nlohmann::basic_json</text>
<text text-anchor="middle" x="168" y="-60.5" font-family="Helvetica,sans-Serif" font-size="10.00">::sax_parse</text>
</a>
</g>
</g>
<!-- Node5&#45;&gt;Node6 -->
<g id="edge9" class="edge">
<title>Node5&#45;&gt;Node6</title>
<path fill="none" stroke="midnightblue" d="M260.67,-68.5C250.11,-68.5 239.4,-68.5 229.21,-68.5"/>
<polygon fill="midnightblue" stroke="midnightblue" points="260.72,-72 270.72,-68.5 260.72,-65 260.72,-72"/>
</g>
<!-- Node7 -->
<g id="node7" class="node">
<title>Node7</title>
<g id="a_node7"><a xlink:href="unit-bson_8cpp.html#a73301d5e6d0f638e973f748287501dd6" target="_top" xlink:title=" ">
<polygon fill="white" stroke="black" points="0,-59 0,-78 71,-78 71,-59 0,-59"/>
<text text-anchor="middle" x="35.5" y="-66" font-family="Helvetica,sans-Serif" font-size="10.00">TEST_CASE</text>
</a>
</g>
</g>
<!-- Node6&#45;&gt;Node7 -->
<g id="edge10" class="edge">
<title>Node6&#45;&gt;Node7</title>
<path fill="none" stroke="midnightblue" d="M96.44,-68.5C87.71,-68.5 79.11,-68.5 71.26,-68.5"/>
<polygon fill="midnightblue" stroke="midnightblue" points="96.72,-72 106.72,-68.5 96.72,-65 96.72,-72"/>
</g>
</g>
</svg>
