<?xml version="1.0" encoding="UTF-8" standalone="no"?>
<!DOCTYPE svg PUBLIC "-//W3C//DTD SVG 1.1//EN"
 "http://www.w3.org/Graphics/SVG/1.1/DTD/svg11.dtd">
<!-- Generated by graphviz version 2.43.0 (0)
 -->
<!-- Title: nlohmann::detail::binary_reader::get_cbor_string Pages: 1 -->
<svg width="1007pt" height="304pt"
 viewBox="0.00 0.00 1007.00 304.00" xmlns="http://www.w3.org/2000/svg" xmlns:xlink="http://www.w3.org/1999/xlink">
<g id="graph0" class="graph" transform="scale(1 1) rotate(0) translate(4 300)">
<title>nlohmann::detail::binary_reader::get_cbor_string</title>
<polygon fill="white" stroke="transparent" points="-4,4 -4,-300 1003,-300 1003,4 -4,4"/>
<!-- Node1 -->
<g id="node1" class="node">
<title>Node1</title>
<g id="a_node1"><a xlink:title="reads a CBOR string">
<polygon fill="#bfbfbf" stroke="black" points="0,-126.5 0,-156.5 136,-156.5 136,-126.5 0,-126.5"/>
<text text-anchor="start" x="8" y="-144.5" font-family="Helvetica,sans-Serif" font-size="10.00">nlohmann::detail::binary</text>
<text text-anchor="middle" x="68" y="-133.5" font-family="Helvetica,sans-Serif" font-size="10.00">_reader::get_cbor_string</text>
</a>
</g>
</g>
<!-- Node1&#45;&gt;Node1 -->
<g id="edge10" class="edge">
<title>Node1&#45;&gt;Node1</title>
<path fill="none" stroke="midnightblue" d="M37.68,-156.66C30.36,-166.06 40.47,-175 68,-175 84.77,-175 95.08,-171.68 98.92,-166.96"/>
<polygon fill="midnightblue" stroke="midnightblue" points="102.39,-166.44 98.32,-156.66 95.41,-166.84 102.39,-166.44"/>
</g>
<!-- Node2 -->
<g id="node2" class="node">
<title>Node2</title>
<g id="a_node2"><a xlink:href="classnlohmann_1_1detail_1_1parse__error.html#a137ea4d27de45d8a844fd13451d40f3d" target="_top" xlink:title="create a parse error exception">
<polygon fill="white" stroke="black" points="532.5,-216.5 532.5,-246.5 664.5,-246.5 664.5,-216.5 532.5,-216.5"/>
<text text-anchor="start" x="540.5" y="-234.5" font-family="Helvetica,sans-Serif" font-size="10.00">nlohmann::detail::parse</text>
<text text-anchor="middle" x="598.5" y="-223.5" font-family="Helvetica,sans-Serif" font-size="10.00">_error::create</text>
</a>
</g>
</g>
<!-- Node1&#45;&gt;Node2 -->
<g id="edge1" class="edge">
<title>Node1&#45;&gt;Node2</title>
<path fill="none" stroke="midnightblue" d="M79.86,-156.74C96.66,-178.84 131.3,-218.84 172,-234.5 287.85,-279.06 434.93,-263.84 522.33,-248.11"/>
<polygon fill="midnightblue" stroke="midnightblue" points="522.97,-251.55 532.16,-246.29 521.7,-244.67 522.97,-251.55"/>
</g>
<!-- Node7 -->
<g id="node7" class="node">
<title>Node7</title>
<g id="a_node7"><a xlink:href="classnlohmann_1_1detail_1_1binary__reader.html#a82b86133c98a0565446a44dfd3e418e6" target="_top" xlink:title=" ">
<polygon fill="white" stroke="black" points="520,-104.5 520,-134.5 677,-134.5 677,-104.5 520,-104.5"/>
<text text-anchor="start" x="528" y="-122.5" font-family="Helvetica,sans-Serif" font-size="10.00">nlohmann::detail::binary</text>
<text text-anchor="middle" x="598.5" y="-111.5" font-family="Helvetica,sans-Serif" font-size="10.00">_reader::exception_message</text>
</a>
</g>
</g>
<!-- Node1&#45;&gt;Node7 -->
<g id="edge7" class="edge">
<title>Node1&#45;&gt;Node7</title>
<path fill="none" stroke="midnightblue" d="M105,-126.48C124.46,-119.17 149.13,-111.18 172,-107.5 287.63,-88.91 423.16,-97.93 509.64,-107.51"/>
<polygon fill="midnightblue" stroke="midnightblue" points="509.34,-111 519.67,-108.65 510.13,-104.04 509.34,-111"/>
</g>
<!-- Node9 -->
<g id="node9" class="node">
<title>Node9</title>
<g id="a_node9"><a xlink:href="classnlohmann_1_1detail_1_1binary__reader.html#af70e7d5f19a2ee196e24f58acf579411" target="_top" xlink:title="get next character from the input">
<polygon fill="white" stroke="black" points="348,-126.5 348,-156.5 484,-156.5 484,-126.5 348,-126.5"/>
<text text-anchor="start" x="356" y="-144.5" font-family="Helvetica,sans-Serif" font-size="10.00">nlohmann::detail::binary</text>
<text text-anchor="middle" x="416" y="-133.5" font-family="Helvetica,sans-Serif" font-size="10.00">_reader::get</text>
</a>
</g>
</g>
<!-- Node1&#45;&gt;Node9 -->
<g id="edge9" class="edge">
<title>Node1&#45;&gt;Node9</title>
<path fill="none" stroke="midnightblue" d="M120.43,-126.47C136.77,-122.39 155.01,-118.53 172,-116.5 233.78,-109.11 250.22,-109.11 312,-116.5 325.67,-118.14 340.15,-120.95 353.8,-124.12"/>
<polygon fill="midnightblue" stroke="midnightblue" points="353.03,-127.53 363.57,-126.47 354.67,-120.73 353.03,-127.53"/>
</g>
<!-- Node10 -->
<g id="node10" class="node">
<title>Node10</title>
<g id="a_node10"><a xlink:href="classnlohmann_1_1detail_1_1binary__reader.html#a161cda5919ea2436b7999c2a76656aba" target="_top" xlink:title=" ">
<polygon fill="white" stroke="black" points="174,-126.5 174,-156.5 310,-156.5 310,-126.5 174,-126.5"/>
<text text-anchor="start" x="182" y="-144.5" font-family="Helvetica,sans-Serif" font-size="10.00">nlohmann::detail::binary</text>
<text text-anchor="middle" x="242" y="-133.5" font-family="Helvetica,sans-Serif" font-size="10.00">_reader::get_number</text>
</a>
</g>
</g>
<!-- Node1&#45;&gt;Node10 -->
<g id="edge11" class="edge">
<title>Node1&#45;&gt;Node10</title>
<path fill="none" stroke="midnightblue" d="M136.49,-141.5C145.44,-141.5 154.68,-141.5 163.79,-141.5"/>
<polygon fill="midnightblue" stroke="midnightblue" points="163.99,-145 173.99,-141.5 163.99,-138 163.99,-145"/>
</g>
<!-- Node11 -->
<g id="node11" class="node">
<title>Node11</title>
<g id="a_node11"><a xlink:href="classnlohmann_1_1detail_1_1binary__reader.html#a91dd7341d9d74c58866877ddfe58dd03" target="_top" xlink:title=" ">
<polygon fill="white" stroke="black" points="348,-175.5 348,-205.5 484,-205.5 484,-175.5 348,-175.5"/>
<text text-anchor="start" x="356" y="-193.5" font-family="Helvetica,sans-Serif" font-size="10.00">nlohmann::detail::binary</text>
<text text-anchor="middle" x="416" y="-182.5" font-family="Helvetica,sans-Serif" font-size="10.00">_reader::unexpect_eof</text>
</a>
</g>
</g>
<!-- Node1&#45;&gt;Node11 -->
<g id="edge20" class="edge">
<title>Node1&#45;&gt;Node11</title>
<path fill="none" stroke="midnightblue" d="M83.67,-156.74C102.24,-174.82 136.16,-203.96 172,-215.5 234.82,-235.73 311.07,-222.12 361.2,-208.35"/>
<polygon fill="midnightblue" stroke="midnightblue" points="362.2,-211.7 370.86,-205.6 360.29,-204.97 362.2,-211.7"/>
</g>
<!-- Node12 -->
<g id="node12" class="node">
<title>Node12</title>
<g id="a_node12"><a xlink:href="classnlohmann_1_1detail_1_1binary__reader.html#a1f4b5da029a561c8711426b0a7316ec6" target="_top" xlink:title="create a string by reading characters from the input">
<polygon fill="white" stroke="black" points="174,-175.5 174,-205.5 310,-205.5 310,-175.5 174,-175.5"/>
<text text-anchor="start" x="182" y="-193.5" font-family="Helvetica,sans-Serif" font-size="10.00">nlohmann::detail::binary</text>
<text text-anchor="middle" x="242" y="-182.5" font-family="Helvetica,sans-Serif" font-size="10.00">_reader::get_string</text>
</a>
</g>
</g>
<!-- Node1&#45;&gt;Node12 -->
<g id="edge16" class="edge">
<title>Node1&#45;&gt;Node12</title>
<path fill="none" stroke="midnightblue" d="M122.01,-156.6C139.83,-161.68 159.88,-167.39 178.37,-172.66"/>
<polygon fill="midnightblue" stroke="midnightblue" points="177.59,-176.07 188.17,-175.45 179.51,-169.34 177.59,-176.07"/>
</g>
<!-- Node13 -->
<g id="node13" class="node">
<title>Node13</title>
<g id="a_node13"><a xlink:href="classnlohmann_1_1detail_1_1binary__reader.html#acf8d3f7b17efd05655fcb6f47a2eaa79" target="_top" xlink:title=" ">
<polygon fill="white" stroke="black" points="172,-0.5 172,-30.5 312,-30.5 312,-0.5 172,-0.5"/>
<text text-anchor="start" x="180" y="-18.5" font-family="Helvetica,sans-Serif" font-size="10.00">nlohmann::detail::binary</text>
<text text-anchor="middle" x="242" y="-7.5" font-family="Helvetica,sans-Serif" font-size="10.00">_reader::get_token_string</text>
</a>
</g>
</g>
<!-- Node1&#45;&gt;Node13 -->
<g id="edge19" class="edge">
<title>Node1&#45;&gt;Node13</title>
<path fill="none" stroke="midnightblue" d="M82.03,-126.49C100.43,-106.03 135.81,-69.22 172,-45.5 177.8,-41.7 184.16,-38.19 190.6,-35"/>
<polygon fill="midnightblue" stroke="midnightblue" points="192.46,-37.99 200.03,-30.58 189.49,-31.65 192.46,-37.99"/>
</g>
<!-- Node3 -->
<g id="node3" class="node">
<title>Node3</title>
<g id="a_node3"><a xlink:href="classnlohmann_1_1detail_1_1exception.html#abf41a7e9178356314082284e6cfea278" target="_top" xlink:title=" ">
<polygon fill="white" stroke="black" points="713,-265.5 713,-295.5 866,-295.5 866,-265.5 713,-265.5"/>
<text text-anchor="start" x="721" y="-283.5" font-family="Helvetica,sans-Serif" font-size="10.00">nlohmann::detail::exception</text>
<text text-anchor="middle" x="789.5" y="-272.5" font-family="Helvetica,sans-Serif" font-size="10.00">::name</text>
</a>
</g>
</g>
<!-- Node2&#45;&gt;Node3 -->
<g id="edge2" class="edge">
<title>Node2&#45;&gt;Node3</title>
<path fill="none" stroke="midnightblue" d="M657.49,-246.53C677.54,-251.73 700.17,-257.6 720.92,-262.98"/>
<polygon fill="midnightblue" stroke="midnightblue" points="720.06,-266.37 730.62,-265.49 721.82,-259.6 720.06,-266.37"/>
</g>
<!-- Node5 -->
<g id="node5" class="node">
<title>Node5</title>
<g id="a_node5"><a xlink:href="classnlohmann_1_1detail_1_1parse__error.html#a0ea816ea3521d7109407948cb1b850f7" target="_top" xlink:title=" ">
<polygon fill="white" stroke="black" points="723.5,-167.5 723.5,-197.5 855.5,-197.5 855.5,-167.5 723.5,-167.5"/>
<text text-anchor="start" x="731.5" y="-185.5" font-family="Helvetica,sans-Serif" font-size="10.00">nlohmann::detail::parse</text>
<text text-anchor="middle" x="789.5" y="-174.5" font-family="Helvetica,sans-Serif" font-size="10.00">_error::parse_error</text>
</a>
</g>
</g>
<!-- Node2&#45;&gt;Node5 -->
<g id="edge4" class="edge">
<title>Node2&#45;&gt;Node5</title>
<path fill="none" stroke="midnightblue" d="M657.49,-216.47C677.54,-211.27 700.17,-205.4 720.92,-200.02"/>
<polygon fill="midnightblue" stroke="midnightblue" points="721.82,-203.4 730.62,-197.51 720.06,-196.63 721.82,-203.4"/>
</g>
<!-- Node6 -->
<g id="node6" class="node">
<title>Node6</title>
<g id="a_node6"><a xlink:href="classnlohmann_1_1detail_1_1parse__error.html#aefe74adeaa48781464ba2fd2ec63d221" target="_top" xlink:title=" ">
<polygon fill="white" stroke="black" points="723.5,-216.5 723.5,-246.5 855.5,-246.5 855.5,-216.5 723.5,-216.5"/>
<text text-anchor="start" x="731.5" y="-234.5" font-family="Helvetica,sans-Serif" font-size="10.00">nlohmann::detail::parse</text>
<text text-anchor="middle" x="789.5" y="-223.5" font-family="Helvetica,sans-Serif" font-size="10.00">_error::position_string</text>
</a>
</g>
</g>
<!-- Node2&#45;&gt;Node6 -->
<g id="edge5" class="edge">
<title>Node2&#45;&gt;Node6</title>
<path fill="none" stroke="midnightblue" d="M664.54,-231.5C680.13,-231.5 696.91,-231.5 712.94,-231.5"/>
<polygon fill="midnightblue" stroke="midnightblue" points="713.34,-235 723.34,-231.5 713.34,-228 713.34,-235"/>
</g>
<!-- Node4 -->
<g id="node4" class="node">
<title>Node4</title>
<g id="a_node4"><a xlink:href="namespacehttplib.html#a498c3a79825ecbcb15c52ec5fcfd5c11" target="_top" xlink:title=" ">
<polygon fill="white" stroke="black" points="902,-246 902,-265 999,-265 999,-246 902,-246"/>
<text text-anchor="middle" x="950.5" y="-253" font-family="Helvetica,sans-Serif" font-size="10.00">httplib::to_string</text>
</a>
</g>
</g>
<!-- Node3&#45;&gt;Node4 -->
<g id="edge3" class="edge">
<title>Node3&#45;&gt;Node4</title>
<path fill="none" stroke="midnightblue" d="M866.27,-268.59C874.92,-267.23 883.62,-265.86 891.97,-264.55"/>
<polygon fill="midnightblue" stroke="midnightblue" points="892.62,-267.99 901.96,-262.98 891.53,-261.07 892.62,-267.99"/>
</g>
<!-- Node6&#45;&gt;Node4 -->
<g id="edge6" class="edge">
<title>Node6&#45;&gt;Node4</title>
<path fill="none" stroke="midnightblue" d="M855.63,-241.33C867.57,-243.13 879.96,-245 891.66,-246.77"/>
<polygon fill="midnightblue" stroke="midnightblue" points="891.34,-250.26 901.75,-248.29 892.39,-243.34 891.34,-250.26"/>
</g>
<!-- Node8 -->
<g id="node8" class="node">
<title>Node8</title>
<g id="a_node8"><a xlink:href="FuzzerTracePC_8cpp.html#a1f10ac78bd11294b612636121065eb5b" target="_top" xlink:title=" ">
<polygon fill="white" stroke="black" points="766,-110 766,-129 813,-129 813,-110 766,-110"/>
<text text-anchor="middle" x="789.5" y="-117" font-family="Helvetica,sans-Serif" font-size="10.00">assert</text>
</a>
</g>
</g>
<!-- Node7&#45;&gt;Node8 -->
<g id="edge8" class="edge">
<title>Node7&#45;&gt;Node8</title>
<path fill="none" stroke="midnightblue" d="M677.19,-119.5C704.54,-119.5 733.83,-119.5 755.5,-119.5"/>
<polygon fill="midnightblue" stroke="midnightblue" points="755.78,-123 765.78,-119.5 755.78,-116 755.78,-123"/>
</g>
<!-- Node10&#45;&gt;Node9 -->
<g id="edge12" class="edge">
<title>Node10&#45;&gt;Node9</title>
<path fill="none" stroke="midnightblue" d="M310.49,-141.5C319.44,-141.5 328.68,-141.5 337.79,-141.5"/>
<polygon fill="midnightblue" stroke="midnightblue" points="337.99,-145 347.99,-141.5 337.99,-138 337.99,-145"/>
</g>
<!-- Node10&#45;&gt;Node11 -->
<g id="edge13" class="edge">
<title>Node10&#45;&gt;Node11</title>
<path fill="none" stroke="midnightblue" d="M296.01,-156.6C313.83,-161.68 333.88,-167.39 352.37,-172.66"/>
<polygon fill="midnightblue" stroke="midnightblue" points="351.59,-176.07 362.17,-175.45 353.51,-169.34 351.59,-176.07"/>
</g>
<!-- Node11&#45;&gt;Node2 -->
<g id="edge14" class="edge">
<title>Node11&#45;&gt;Node2</title>
<path fill="none" stroke="midnightblue" d="M483.19,-205.53C495.93,-208.43 509.37,-211.48 522.38,-214.44"/>
<polygon fill="midnightblue" stroke="midnightblue" points="521.7,-217.87 532.23,-216.67 523.25,-211.04 521.7,-217.87"/>
</g>
<!-- Node11&#45;&gt;Node7 -->
<g id="edge15" class="edge">
<title>Node11&#45;&gt;Node7</title>
<path fill="none" stroke="midnightblue" d="M460.01,-175.44C468.01,-172.54 476.28,-169.48 484,-166.5 506.95,-157.64 532.26,-147.23 553.14,-138.46"/>
<polygon fill="midnightblue" stroke="midnightblue" points="554.55,-141.66 562.4,-134.55 551.83,-135.21 554.55,-141.66"/>
</g>
<!-- Node12&#45;&gt;Node9 -->
<g id="edge17" class="edge">
<title>Node12&#45;&gt;Node9</title>
<path fill="none" stroke="midnightblue" d="M296.01,-175.4C313.83,-170.32 333.88,-164.61 352.37,-159.34"/>
<polygon fill="midnightblue" stroke="midnightblue" points="353.51,-162.66 362.17,-156.55 351.59,-155.93 353.51,-162.66"/>
</g>
<!-- Node12&#45;&gt;Node11 -->
<g id="edge18" class="edge">
<title>Node12&#45;&gt;Node11</title>
<path fill="none" stroke="midnightblue" d="M310.49,-190.5C319.44,-190.5 328.68,-190.5 337.79,-190.5"/>
<polygon fill="midnightblue" stroke="midnightblue" points="337.99,-194 347.99,-190.5 337.99,-187 337.99,-194"/>
</g>
</g>
</svg>
