<?xml version="1.0" encoding="UTF-8" standalone="no"?>
<!DOCTYPE svg PUBLIC "-//W3C//DTD SVG 1.1//EN"
 "http://www.w3.org/Graphics/SVG/1.1/DTD/svg11.dtd">
<!-- Generated by graphviz version 2.43.0 (0)
 -->
<!-- Title: nlohmann::detail::binary_reader::get_ubjson_array Pages: 1 -->
<svg width="984pt" height="92pt"
 viewBox="0.00 0.00 984.00 92.00" xmlns="http://www.w3.org/2000/svg" xmlns:xlink="http://www.w3.org/1999/xlink">
<g id="graph0" class="graph" transform="scale(1 1) rotate(0) translate(4 88)">
<title>nlohmann::detail::binary_reader::get_ubjson_array</title>
<polygon fill="white" stroke="transparent" points="-4,4 -4,-88 980,-88 980,4 -4,4"/>
<!-- Node1 -->
<g id="node1" class="node">
<title>Node1</title>
<g id="a_node1"><a xlink:title=" ">
<polygon fill="#bfbfbf" stroke="black" points="833,-50.5 833,-80.5 976,-80.5 976,-50.5 833,-50.5"/>
<text text-anchor="start" x="841" y="-68.5" font-family="Helvetica,sans-Serif" font-size="10.00">nlohmann::detail::binary</text>
<text text-anchor="middle" x="904.5" y="-57.5" font-family="Helvetica,sans-Serif" font-size="10.00">_reader::get_ubjson_array</text>
</a>
</g>
</g>
<!-- Node2 -->
<g id="node2" class="node">
<title>Node2</title>
<g id="a_node2"><a xlink:href="classnlohmann_1_1detail_1_1binary__reader.html#a5f425199a77f403e32f076ff8487f853" target="_top" xlink:title=" ">
<polygon fill="white" stroke="black" points="652,-50.5 652,-80.5 797,-80.5 797,-50.5 652,-50.5"/>
<text text-anchor="start" x="660" y="-68.5" font-family="Helvetica,sans-Serif" font-size="10.00">nlohmann::detail::binary</text>
<text text-anchor="middle" x="724.5" y="-57.5" font-family="Helvetica,sans-Serif" font-size="10.00">_reader::get_ubjson_value</text>
</a>
</g>
</g>
<!-- Node1&#45;&gt;Node2 -->
<g id="edge1" class="edge">
<title>Node1&#45;&gt;Node2</title>
<path fill="none" stroke="midnightblue" d="M822.62,-58.78C814.14,-58.72 805.56,-58.75 797.19,-58.86"/>
<polygon fill="midnightblue" stroke="midnightblue" points="822.86,-62.28 832.89,-58.88 822.93,-55.28 822.86,-62.28"/>
</g>
<!-- Node2&#45;&gt;Node1 -->
<g id="edge2" class="edge">
<title>Node2&#45;&gt;Node1</title>
<path fill="none" stroke="midnightblue" d="M807.2,-72.23C815.78,-72.28 824.45,-72.24 832.89,-72.12"/>
<polygon fill="midnightblue" stroke="midnightblue" points="807.22,-68.73 797.19,-72.14 807.15,-75.73 807.22,-68.73"/>
</g>
<!-- Node3 -->
<g id="node3" class="node">
<title>Node3</title>
<g id="a_node3"><a xlink:href="classnlohmann_1_1detail_1_1binary__reader.html#ad0932dd568fcbbd2b4c2ccf9122544a5" target="_top" xlink:title=" ">
<polygon fill="white" stroke="black" points="265,-53.5 265,-83.5 413,-83.5 413,-53.5 265,-53.5"/>
<text text-anchor="start" x="273" y="-71.5" font-family="Helvetica,sans-Serif" font-size="10.00">nlohmann::detail::binary</text>
<text text-anchor="middle" x="339" y="-60.5" font-family="Helvetica,sans-Serif" font-size="10.00">_reader::get_ubjson_object</text>
</a>
</g>
</g>
<!-- Node2&#45;&gt;Node3 -->
<g id="edge3" class="edge">
<title>Node2&#45;&gt;Node3</title>
<path fill="none" stroke="midnightblue" d="M641.61,-60.49C573.88,-59.49 478.54,-60.3 413.29,-62.49"/>
<polygon fill="midnightblue" stroke="midnightblue" points="641.76,-63.99 651.82,-60.66 641.88,-57 641.76,-63.99"/>
</g>
<!-- Node4 -->
<g id="node4" class="node">
<title>Node4</title>
<g id="a_node4"><a xlink:href="classnlohmann_1_1detail_1_1binary__reader.html#af60c6bba6f1301cb02e0186c99e25751" target="_top" xlink:title=" ">
<polygon fill="white" stroke="black" points="449,-0.5 449,-30.5 616,-30.5 616,-0.5 449,-0.5"/>
<text text-anchor="start" x="457" y="-18.5" font-family="Helvetica,sans-Serif" font-size="10.00">nlohmann::detail::binary</text>
<text text-anchor="middle" x="532.5" y="-7.5" font-family="Helvetica,sans-Serif" font-size="10.00">_reader::parse_ubjson_internal</text>
</a>
</g>
</g>
<!-- Node2&#45;&gt;Node4 -->
<g id="edge5" class="edge">
<title>Node2&#45;&gt;Node4</title>
<path fill="none" stroke="midnightblue" d="M656.77,-47.94C635.24,-42.27 611.58,-36.05 590.79,-30.58"/>
<polygon fill="midnightblue" stroke="midnightblue" points="655.93,-51.34 666.49,-50.5 657.71,-44.57 655.93,-51.34"/>
</g>
<!-- Node3&#45;&gt;Node2 -->
<g id="edge4" class="edge">
<title>Node3&#45;&gt;Node2</title>
<path fill="none" stroke="midnightblue" d="M423.57,-73.53C491.75,-74.51 587.07,-73.67 651.82,-71.46"/>
<polygon fill="midnightblue" stroke="midnightblue" points="423.34,-70.03 413.29,-73.37 423.23,-77.03 423.34,-70.03"/>
</g>
<!-- Node4&#45;&gt;Node1 -->
<g id="edge6" class="edge">
<title>Node4&#45;&gt;Node1</title>
<path fill="none" stroke="midnightblue" d="M626.34,-21.21C676.99,-25.1 740.68,-31.26 797,-40.5 812.93,-43.11 830.02,-46.75 845.75,-50.44"/>
<polygon fill="midnightblue" stroke="midnightblue" points="626.29,-17.7 616.06,-20.44 625.77,-24.68 626.29,-17.7"/>
</g>
<!-- Node4&#45;&gt;Node3 -->
<g id="edge7" class="edge">
<title>Node4&#45;&gt;Node3</title>
<path fill="none" stroke="midnightblue" d="M467.22,-33.29C443.62,-39.82 417.16,-47.15 394.5,-53.42"/>
<polygon fill="midnightblue" stroke="midnightblue" points="468.43,-36.59 477.14,-30.55 466.56,-29.84 468.43,-36.59"/>
</g>
<!-- Node5 -->
<g id="node5" class="node">
<title>Node5</title>
<g id="a_node5"><a xlink:href="classnlohmann_1_1detail_1_1binary__reader.html#ab94a54d6e595c2620b07589cf4116256" target="_top" xlink:title=" ">
<polygon fill="white" stroke="black" points="271,-0.5 271,-30.5 407,-30.5 407,-0.5 271,-0.5"/>
<text text-anchor="start" x="279" y="-18.5" font-family="Helvetica,sans-Serif" font-size="10.00">nlohmann::detail::binary</text>
<text text-anchor="middle" x="339" y="-7.5" font-family="Helvetica,sans-Serif" font-size="10.00">_reader::sax_parse</text>
</a>
</g>
</g>
<!-- Node4&#45;&gt;Node5 -->
<g id="edge8" class="edge">
<title>Node4&#45;&gt;Node5</title>
<path fill="none" stroke="midnightblue" d="M438.7,-15.5C428.03,-15.5 417.31,-15.5 407.07,-15.5"/>
<polygon fill="midnightblue" stroke="midnightblue" points="438.9,-19 448.9,-15.5 438.9,-12 438.9,-19"/>
</g>
<!-- Node6 -->
<g id="node6" class="node">
<title>Node6</title>
<g id="a_node6"><a xlink:href="classnlohmann_1_1basic__json.html#a8a3dd150c2d1f0df3502d937de0871db" target="_top" xlink:title="generate SAX events">
<polygon fill="white" stroke="black" points="107,-0.5 107,-30.5 229,-30.5 229,-0.5 107,-0.5"/>
<text text-anchor="start" x="115" y="-18.5" font-family="Helvetica,sans-Serif" font-size="10.00">nlohmann::basic_json</text>
<text text-anchor="middle" x="168" y="-7.5" font-family="Helvetica,sans-Serif" font-size="10.00">::sax_parse</text>
</a>
</g>
</g>
<!-- Node5&#45;&gt;Node6 -->
<g id="edge9" class="edge">
<title>Node5&#45;&gt;Node6</title>
<path fill="none" stroke="midnightblue" d="M260.67,-15.5C250.11,-15.5 239.4,-15.5 229.21,-15.5"/>
<polygon fill="midnightblue" stroke="midnightblue" points="260.72,-19 270.72,-15.5 260.72,-12 260.72,-19"/>
</g>
<!-- Node7 -->
<g id="node7" class="node">
<title>Node7</title>
<g id="a_node7"><a xlink:href="unit-bson_8cpp.html#a73301d5e6d0f638e973f748287501dd6" target="_top" xlink:title=" ">
<polygon fill="white" stroke="black" points="0,-6 0,-25 71,-25 71,-6 0,-6"/>
<text text-anchor="middle" x="35.5" y="-13" font-family="Helvetica,sans-Serif" font-size="10.00">TEST_CASE</text>
</a>
</g>
</g>
<!-- Node6&#45;&gt;Node7 -->
<g id="edge10" class="edge">
<title>Node6&#45;&gt;Node7</title>
<path fill="none" stroke="midnightblue" d="M96.44,-15.5C87.71,-15.5 79.11,-15.5 71.26,-15.5"/>
<polygon fill="midnightblue" stroke="midnightblue" points="96.72,-19 106.72,-15.5 96.72,-12 96.72,-19"/>
</g>
</g>
</svg>
