<?xml version="1.0" encoding="UTF-8" standalone="no"?>
<!DOCTYPE svg PUBLIC "-//W3C//DTD SVG 1.1//EN"
 "http://www.w3.org/Graphics/SVG/1.1/DTD/svg11.dtd">
<!-- Generated by graphviz version 2.43.0 (0)
 -->
<!-- Title: nlohmann::basic_json::object Pages: 1 -->
<svg width="710pt" height="582pt"
 viewBox="0.00 0.00 710.00 581.50" xmlns="http://www.w3.org/2000/svg" xmlns:xlink="http://www.w3.org/1999/xlink">
<g id="graph0" class="graph" transform="scale(1 1) rotate(0) translate(4 577.5)">
<title>nlohmann::basic_json::object</title>
<polygon fill="white" stroke="transparent" points="-4,4 -4,-577.5 706,-577.5 706,4 -4,4"/>
<!-- Node1 -->
<g id="node1" class="node">
<title>Node1</title>
<g id="a_node1"><a xlink:title="explicitly create an object from an initializer list">
<polygon fill="#bfbfbf" stroke="black" points="580,-235 580,-265 702,-265 702,-235 580,-235"/>
<text text-anchor="start" x="588" y="-253" font-family="Helvetica,sans-Serif" font-size="10.00">nlohmann::basic_json</text>
<text text-anchor="middle" x="641" y="-242" font-family="Helvetica,sans-Serif" font-size="10.00">::object</text>
</a>
</g>
</g>
<!-- Node2 -->
<g id="node2" class="node">
<title>Node2</title>
<g id="a_node2"><a xlink:href="classDatabaseHandler.html#a7a38f8acc49ef0b1418716fa7ebf824e" target="_top" xlink:title="Read the data from the database.">
<polygon fill="white" stroke="black" points="377,-504.5 377,-523.5 544,-523.5 544,-504.5 377,-504.5"/>
<text text-anchor="middle" x="460.5" y="-511.5" font-family="Helvetica,sans-Serif" font-size="10.00">DatabaseHandler::AppendData</text>
</a>
</g>
</g>
<!-- Node1&#45;&gt;Node2 -->
<g id="edge1" class="edge">
<title>Node1&#45;&gt;Node2</title>
<path fill="none" stroke="midnightblue" d="M634.59,-274.84C623.98,-318.55 596.72,-410.08 544,-468 528.77,-484.74 505.98,-496.79 488.22,-504.36"/>
<polygon fill="midnightblue" stroke="midnightblue" points="638.01,-275.58 636.88,-265.04 631.2,-273.98 638.01,-275.58"/>
</g>
<!-- Node5 -->
<g id="node5" class="node">
<title>Node5</title>
<g id="a_node5"><a xlink:href="classnlohmann_1_1basic__json.html#a7b3ddcc9fb62cc378b0d431c430b91af" target="_top" xlink:title="helper for exception&#45;safe object creation">
<polygon fill="white" stroke="black" points="399.5,-428 399.5,-458 521.5,-458 521.5,-428 399.5,-428"/>
<text text-anchor="start" x="407.5" y="-446" font-family="Helvetica,sans-Serif" font-size="10.00">nlohmann::basic_json</text>
<text text-anchor="middle" x="460.5" y="-435" font-family="Helvetica,sans-Serif" font-size="10.00">::create</text>
</a>
</g>
</g>
<!-- Node1&#45;&gt;Node5 -->
<g id="edge4" class="edge">
<title>Node1&#45;&gt;Node5</title>
<path fill="none" stroke="midnightblue" d="M632.47,-275.19C620.11,-312.24 591.96,-381.11 544,-419 537.45,-424.18 529.81,-428.24 521.88,-431.42"/>
<polygon fill="midnightblue" stroke="midnightblue" points="635.95,-275.8 635.68,-265.21 629.29,-273.66 635.95,-275.8"/>
</g>
<!-- Node6 -->
<g id="node6" class="node">
<title>Node6</title>
<g id="a_node6"><a xlink:href="classnlohmann_1_1basic__json.html#a9c4f3554773649beef69461a10a3de87" target="_top" xlink:title="creates a diff as a JSON patch">
<polygon fill="white" stroke="black" points="399.5,-379 399.5,-409 521.5,-409 521.5,-379 399.5,-379"/>
<text text-anchor="start" x="407.5" y="-397" font-family="Helvetica,sans-Serif" font-size="10.00">nlohmann::basic_json</text>
<text text-anchor="middle" x="460.5" y="-386" font-family="Helvetica,sans-Serif" font-size="10.00">::diff</text>
</a>
</g>
</g>
<!-- Node1&#45;&gt;Node6 -->
<g id="edge5" class="edge">
<title>Node1&#45;&gt;Node6</title>
<path fill="none" stroke="midnightblue" d="M625.43,-273.81C608.68,-299.37 578.95,-339.58 544,-364 535.5,-369.94 525.7,-374.83 515.88,-378.83"/>
<polygon fill="midnightblue" stroke="midnightblue" points="628.55,-275.42 631,-265.12 622.66,-271.65 628.55,-275.42"/>
</g>
<!-- Node10 -->
<g id="node10" class="node">
<title>Node10</title>
<g id="a_node10"><a xlink:href="classUserAppControlHandler.html#a405532812369082c6893c30bdae67c62" target="_top" xlink:title="Initialize User App Control Handler.">
<polygon fill="white" stroke="black" points="0,-206 0,-236 131,-236 131,-206 0,-206"/>
<text text-anchor="start" x="8" y="-224" font-family="Helvetica,sans-Serif" font-size="10.00">UserAppControlHandler</text>
<text text-anchor="middle" x="65.5" y="-213" font-family="Helvetica,sans-Serif" font-size="10.00">::Init</text>
</a>
</g>
</g>
<!-- Node1&#45;&gt;Node10 -->
<g id="edge9" class="edge">
<title>Node1&#45;&gt;Node10</title>
<path fill="none" stroke="midnightblue" d="M621.38,-272.91C603.8,-292.57 575.5,-319.49 544,-331 474.29,-356.48 450.84,-338.48 377,-331 282.22,-321.4 254.93,-324.66 167,-288 135.64,-274.93 103.73,-251.57 84.52,-236.18"/>
<polygon fill="midnightblue" stroke="midnightblue" points="624.11,-275.11 628.01,-265.26 618.82,-270.52 624.11,-275.11"/>
</g>
<!-- Node11 -->
<g id="node11" class="node">
<title>Node11</title>
<g id="a_node11"><a xlink:href="object_8cpp.html#ae66f6b31b5ad750f1fe042a706a4e3d4" target="_top" xlink:title=" ">
<polygon fill="white" stroke="black" points="440,-302.5 440,-321.5 481,-321.5 481,-302.5 440,-302.5"/>
<text text-anchor="middle" x="460.5" y="-309.5" font-family="Helvetica,sans-Serif" font-size="10.00">main</text>
</a>
</g>
</g>
<!-- Node1&#45;&gt;Node11 -->
<g id="edge10" class="edge">
<title>Node1&#45;&gt;Node11</title>
<path fill="none" stroke="midnightblue" d="M601.16,-269.47C583.96,-277.55 563.28,-286.53 544,-293 522.96,-300.06 498.04,-305.4 481.13,-308.6"/>
<polygon fill="midnightblue" stroke="midnightblue" points="602.82,-272.56 610.34,-265.1 599.8,-266.24 602.82,-272.56"/>
</g>
<!-- Node12 -->
<g id="node12" class="node">
<title>Node12</title>
<g id="a_node12"><a xlink:href="classnlohmann_1_1basic__json.html#a7c43ed2a3004c1fa9543913f37b9fca9" target="_top" xlink:title="applies a JSON Merge Patch">
<polygon fill="white" stroke="black" points="399.5,-235 399.5,-265 521.5,-265 521.5,-235 399.5,-235"/>
<text text-anchor="start" x="407.5" y="-253" font-family="Helvetica,sans-Serif" font-size="10.00">nlohmann::basic_json</text>
<text text-anchor="middle" x="460.5" y="-242" font-family="Helvetica,sans-Serif" font-size="10.00">::merge_patch</text>
</a>
</g>
</g>
<!-- Node1&#45;&gt;Node12 -->
<g id="edge11" class="edge">
<title>Node1&#45;&gt;Node12</title>
<path fill="none" stroke="midnightblue" d="M569.32,-250C553.51,-250 536.9,-250 521.57,-250"/>
<polygon fill="midnightblue" stroke="midnightblue" points="569.57,-253.5 579.57,-250 569.57,-246.5 569.57,-253.5"/>
</g>
<!-- Node15 -->
<g id="node15" class="node">
<title>Node15</title>
<g id="a_node15"><a xlink:href="classUserAppControlHandler.html#aa7090082a9d4cf39d3a6b8a1e1334a3a" target="_top" xlink:title="Unpause ASIL App selected by User from Vehicle State UI.">
<polygon fill="white" stroke="black" points="395,-186 395,-216 526,-216 526,-186 395,-186"/>
<text text-anchor="start" x="403" y="-204" font-family="Helvetica,sans-Serif" font-size="10.00">UserAppControlHandler</text>
<text text-anchor="middle" x="460.5" y="-193" font-family="Helvetica,sans-Serif" font-size="10.00">::PlayAsilApp</text>
</a>
</g>
</g>
<!-- Node1&#45;&gt;Node15 -->
<g id="edge15" class="edge">
<title>Node1&#45;&gt;Node15</title>
<path fill="none" stroke="midnightblue" d="M575.08,-232.18C555.81,-226.89 534.9,-221.15 516.33,-216.05"/>
<polygon fill="midnightblue" stroke="midnightblue" points="574.42,-235.63 584.99,-234.9 576.27,-228.88 574.42,-235.63"/>
</g>
<!-- Node16 -->
<g id="node16" class="node">
<title>Node16</title>
<g id="a_node16"><a xlink:href="classUserAppControlHandler.html#a5bee2fdba62376c62ee8dd29bbb4fb6d" target="_top" xlink:title="Play QM App selected by User from Infotainment UI.">
<polygon fill="white" stroke="black" points="395,-137 395,-167 526,-167 526,-137 395,-137"/>
<text text-anchor="start" x="403" y="-155" font-family="Helvetica,sans-Serif" font-size="10.00">UserAppControlHandler</text>
<text text-anchor="middle" x="460.5" y="-144" font-family="Helvetica,sans-Serif" font-size="10.00">::PlayQmApp</text>
</a>
</g>
</g>
<!-- Node1&#45;&gt;Node16 -->
<g id="edge16" class="edge">
<title>Node1&#45;&gt;Node16</title>
<path fill="none" stroke="midnightblue" d="M616.7,-227.98C598.24,-211.6 571.13,-189.78 544,-176 537.35,-172.62 530.15,-169.65 522.87,-167.05"/>
<polygon fill="midnightblue" stroke="midnightblue" points="614.53,-230.74 624.3,-234.86 619.23,-225.55 614.53,-230.74"/>
</g>
<!-- Node17 -->
<g id="node17" class="node">
<title>Node17</title>
<g id="a_node17"><a xlink:href="classUserAppControlHandler.html#a668e04c325692c11f03208ea46483d51" target="_top" xlink:title="Pause ASIL App selected by User from Vehicle State UI.">
<polygon fill="white" stroke="black" points="395,-88 395,-118 526,-118 526,-88 395,-88"/>
<text text-anchor="start" x="403" y="-106" font-family="Helvetica,sans-Serif" font-size="10.00">UserAppControlHandler</text>
<text text-anchor="middle" x="460.5" y="-95" font-family="Helvetica,sans-Serif" font-size="10.00">::StopAsilApp</text>
</a>
</g>
</g>
<!-- Node1&#45;&gt;Node17 -->
<g id="edge17" class="edge">
<title>Node1&#45;&gt;Node17</title>
<path fill="none" stroke="midnightblue" d="M627.17,-225.53C611.3,-197.62 581.71,-152.56 544,-127 538.57,-123.32 532.56,-120.19 526.35,-117.54"/>
<polygon fill="midnightblue" stroke="midnightblue" points="624.3,-227.57 632.2,-234.62 630.43,-224.18 624.3,-227.57"/>
</g>
<!-- Node18 -->
<g id="node18" class="node">
<title>Node18</title>
<g id="a_node18"><a xlink:href="classUserAppControlHandler.html#a032624472da74d1abdf2f4b974965bc8" target="_top" xlink:title="Stop QM App selected by User from Infotainment UI.">
<polygon fill="white" stroke="black" points="395,-39 395,-69 526,-69 526,-39 395,-39"/>
<text text-anchor="start" x="403" y="-57" font-family="Helvetica,sans-Serif" font-size="10.00">UserAppControlHandler</text>
<text text-anchor="middle" x="460.5" y="-46" font-family="Helvetica,sans-Serif" font-size="10.00">::StopQmApp</text>
</a>
</g>
</g>
<!-- Node1&#45;&gt;Node18 -->
<g id="edge18" class="edge">
<title>Node1&#45;&gt;Node18</title>
<path fill="none" stroke="midnightblue" d="M632.85,-225.13C620.78,-187.62 592.79,-116.84 544,-78 538.63,-73.73 532.53,-70.21 526.13,-67.33"/>
<polygon fill="midnightblue" stroke="midnightblue" points="629.53,-226.26 635.84,-234.77 636.22,-224.19 629.53,-226.26"/>
</g>
<!-- Node20 -->
<g id="node20" class="node">
<title>Node20</title>
<g id="a_node20"><a xlink:href="unit-bson_8cpp.html#a41b0446157df6aab7cc9846226fe71fc" target="_top" xlink:title=" ">
<polygon fill="white" stroke="black" points="425,-0.5 425,-19.5 496,-19.5 496,-0.5 425,-0.5"/>
<text text-anchor="middle" x="460.5" y="-7.5" font-family="Helvetica,sans-Serif" font-size="10.00">TEST_CASE</text>
</a>
</g>
</g>
<!-- Node1&#45;&gt;Node20 -->
<g id="edge21" class="edge">
<title>Node1&#45;&gt;Node20</title>
<path fill="none" stroke="midnightblue" d="M636.54,-224.83C628.79,-178.62 605.64,-80.25 544,-29 530.78,-18.01 512.41,-13.09 496.36,-11"/>
<polygon fill="midnightblue" stroke="midnightblue" points="633.11,-225.56 638.11,-234.89 640.02,-224.47 633.11,-225.56"/>
</g>
<!-- Node3 -->
<g id="node3" class="node">
<title>Node3</title>
<g id="a_node3"><a xlink:href="classQmOtaHandler.html#a6ccbedb2878978ac7073ef4e10be6220" target="_top" xlink:title="Check for successful OTA download.">
<polygon fill="white" stroke="black" points="173.5,-543 173.5,-573 334.5,-573 334.5,-543 173.5,-543"/>
<text text-anchor="start" x="181.5" y="-561" font-family="Helvetica,sans-Serif" font-size="10.00">QmOtaHandler::OtaDownload</text>
<text text-anchor="middle" x="254" y="-550" font-family="Helvetica,sans-Serif" font-size="10.00">Successful</text>
</a>
</g>
</g>
<!-- Node2&#45;&gt;Node3 -->
<g id="edge2" class="edge">
<title>Node2&#45;&gt;Node3</title>
<path fill="none" stroke="midnightblue" d="M405.25,-525.67C380.65,-530.96 351.26,-537.29 325.02,-542.93"/>
<polygon fill="midnightblue" stroke="midnightblue" points="406.09,-529.07 415.13,-523.55 404.61,-522.23 406.09,-529.07"/>
</g>
<!-- Node4 -->
<g id="node4" class="node">
<title>Node4</title>
<g id="a_node4"><a xlink:href="classConfigHandler.html#a969e3ca03c0a638d455ac8935522aaef" target="_top" xlink:title="Save the initial JSON file content to the database.">
<polygon fill="white" stroke="black" points="167,-504.5 167,-523.5 341,-523.5 341,-504.5 167,-504.5"/>
<text text-anchor="middle" x="254" y="-511.5" font-family="Helvetica,sans-Serif" font-size="10.00">ConfigHandler::UpdateDatabase</text>
</a>
</g>
</g>
<!-- Node2&#45;&gt;Node4 -->
<g id="edge3" class="edge">
<title>Node2&#45;&gt;Node4</title>
<path fill="none" stroke="midnightblue" d="M366.65,-514C358.18,-514 349.63,-514 341.23,-514"/>
<polygon fill="midnightblue" stroke="midnightblue" points="366.91,-517.5 376.91,-514 366.91,-510.5 366.91,-517.5"/>
</g>
<!-- Node7 -->
<g id="node7" class="node">
<title>Node7</title>
<g id="a_node7"><a xlink:href="classnlohmann_1_1basic__json.html#a543bd5f7490de54c875b2c0912dc9a49" target="_top" xlink:title="creates a diff as a JSON patch">
<polygon fill="white" stroke="black" points="193,-455 193,-485 315,-485 315,-455 193,-455"/>
<text text-anchor="start" x="201" y="-473" font-family="Helvetica,sans-Serif" font-size="10.00">nlohmann::basic_json</text>
<text text-anchor="middle" x="254" y="-462" font-family="Helvetica,sans-Serif" font-size="10.00">::diff</text>
</a>
</g>
</g>
<!-- Node6&#45;&gt;Node7 -->
<g id="edge6" class="edge">
<title>Node6&#45;&gt;Node7</title>
<path fill="none" stroke="midnightblue" d="M391.32,-412.68C386.4,-414.63 381.58,-416.73 377,-419 359.31,-427.76 358.74,-436.34 341,-445 332.9,-448.96 324.05,-452.4 315.21,-455.37"/>
<polygon fill="midnightblue" stroke="midnightblue" points="392.72,-415.89 400.87,-409.12 390.28,-409.33 392.72,-415.89"/>
</g>
<!-- Node8 -->
<g id="node8" class="node">
<title>Node8</title>
<g id="a_node8"><a xlink:href="diff_8cpp.html#ae66f6b31b5ad750f1fe042a706a4e3d4" target="_top" xlink:title=" ">
<polygon fill="white" stroke="black" points="233.5,-416.5 233.5,-435.5 274.5,-435.5 274.5,-416.5 233.5,-416.5"/>
<text text-anchor="middle" x="254" y="-423.5" font-family="Helvetica,sans-Serif" font-size="10.00">main</text>
</a>
</g>
</g>
<!-- Node6&#45;&gt;Node8 -->
<g id="edge7" class="edge">
<title>Node6&#45;&gt;Node8</title>
<path fill="none" stroke="midnightblue" d="M389.17,-405.01C348.83,-411.32 301.13,-418.78 274.85,-422.89"/>
<polygon fill="midnightblue" stroke="midnightblue" points="389.91,-408.43 399.25,-403.43 388.83,-401.52 389.91,-408.43"/>
</g>
<!-- Node9 -->
<g id="node9" class="node">
<title>Node9</title>
<g id="a_node9"><a xlink:href="unit-json__patch_8cpp.html#a58658ae29d75546f62ea0ceb24fd3b20" target="_top" xlink:title=" ">
<polygon fill="white" stroke="black" points="218.5,-378.5 218.5,-397.5 289.5,-397.5 289.5,-378.5 218.5,-378.5"/>
<text text-anchor="middle" x="254" y="-385.5" font-family="Helvetica,sans-Serif" font-size="10.00">TEST_CASE</text>
</a>
</g>
</g>
<!-- Node6&#45;&gt;Node9 -->
<g id="edge8" class="edge">
<title>Node6&#45;&gt;Node9</title>
<path fill="none" stroke="midnightblue" d="M389.01,-391.93C355.43,-390.95 316.78,-389.81 289.64,-389.02"/>
<polygon fill="midnightblue" stroke="midnightblue" points="389.15,-395.44 399.25,-392.23 389.36,-388.44 389.15,-395.44"/>
</g>
<!-- Node12&#45;&gt;Node12 -->
<g id="edge13" class="edge">
<title>Node12&#45;&gt;Node12</title>
<path fill="none" stroke="midnightblue" d="M492.48,-275.46C488.51,-280.18 477.85,-283.5 460.5,-283.5 432.02,-283.5 421.57,-274.56 429.13,-265.16"/>
<polygon fill="midnightblue" stroke="midnightblue" points="495.96,-274.93 491.87,-265.16 488.97,-275.35 495.96,-274.93"/>
</g>
<!-- Node13 -->
<g id="node13" class="node">
<title>Node13</title>
<g id="a_node13"><a xlink:href="merge__patch_8cpp.html#ae66f6b31b5ad750f1fe042a706a4e3d4" target="_top" xlink:title=" ">
<polygon fill="white" stroke="black" points="233.5,-259.5 233.5,-278.5 274.5,-278.5 274.5,-259.5 233.5,-259.5"/>
<text text-anchor="middle" x="254" y="-266.5" font-family="Helvetica,sans-Serif" font-size="10.00">main</text>
</a>
</g>
</g>
<!-- Node12&#45;&gt;Node13 -->
<g id="edge12" class="edge">
<title>Node12&#45;&gt;Node13</title>
<path fill="none" stroke="midnightblue" d="M389.17,-256.53C348.83,-260.28 301.13,-264.71 274.85,-267.16"/>
<polygon fill="midnightblue" stroke="midnightblue" points="389.62,-260.01 399.25,-255.6 388.97,-253.04 389.62,-260.01"/>
</g>
<!-- Node14 -->
<g id="node14" class="node">
<title>Node14</title>
<g id="a_node14"><a xlink:href="unit-merge__patch_8cpp.html#acda8f4852a31243aeb6390718cea13b5" target="_top" xlink:title=" ">
<polygon fill="white" stroke="black" points="218.5,-221.5 218.5,-240.5 289.5,-240.5 289.5,-221.5 218.5,-221.5"/>
<text text-anchor="middle" x="254" y="-228.5" font-family="Helvetica,sans-Serif" font-size="10.00">TEST_CASE</text>
</a>
</g>
</g>
<!-- Node12&#45;&gt;Node14 -->
<g id="edge14" class="edge">
<title>Node12&#45;&gt;Node14</title>
<path fill="none" stroke="midnightblue" d="M389.01,-243.45C355.43,-240.33 316.78,-236.74 289.64,-234.22"/>
<polygon fill="midnightblue" stroke="midnightblue" points="388.97,-246.96 399.25,-244.4 389.62,-239.99 388.97,-246.96"/>
</g>
<!-- Node19 -->
<g id="node19" class="node">
<title>Node19</title>
<g id="a_node19"><a xlink:href="mco__utils_8cpp.html#abcd741ece666318a44dddecfe1d5db1f" target="_top" xlink:title=" ">
<polygon fill="white" stroke="black" points="193,-115 193,-145 315,-145 315,-115 193,-115"/>
<text text-anchor="start" x="201" y="-133" font-family="Helvetica,sans-Serif" font-size="10.00">update_qm_available</text>
<text text-anchor="middle" x="254" y="-122" font-family="Helvetica,sans-Serif" font-size="10.00">_resource</text>
</a>
</g>
</g>
<!-- Node18&#45;&gt;Node19 -->
<g id="edge19" class="edge">
<title>Node18&#45;&gt;Node19</title>
<path fill="none" stroke="midnightblue" d="M394.29,-72.18C388.41,-74.06 382.58,-76.01 377,-78 346.1,-89.03 311.8,-103.9 287.46,-114.91"/>
<polygon fill="midnightblue" stroke="midnightblue" points="395.67,-75.41 404.18,-69.1 393.59,-68.73 395.67,-75.41"/>
</g>
<!-- Node19&#45;&gt;Node10 -->
<g id="edge20" class="edge">
<title>Node19&#45;&gt;Node10</title>
<path fill="none" stroke="midnightblue" d="M212.85,-149.59C178.23,-166.49 128.95,-190.53 97.34,-205.95"/>
<polygon fill="midnightblue" stroke="midnightblue" points="214.75,-152.56 222.2,-145.03 211.68,-146.27 214.75,-152.56"/>
</g>
</g>
</svg>
