<?xml version="1.0" encoding="UTF-8" standalone="no"?>
<!DOCTYPE svg PUBLIC "-//W3C//DTD SVG 1.1//EN"
 "http://www.w3.org/Graphics/SVG/1.1/DTD/svg11.dtd">
<!-- Generated by graphviz version 2.43.0 (0)
 -->
<!-- Title: httplib::Server::read_content_with_content_receiver Pages: 1 -->
<svg width="1184pt" height="532pt"
 viewBox="0.00 0.00 1184.00 532.00" xmlns="http://www.w3.org/2000/svg" xmlns:xlink="http://www.w3.org/1999/xlink">
<g id="graph0" class="graph" transform="scale(1 1) rotate(0) translate(4 528)">
<title>httplib::Server::read_content_with_content_receiver</title>
<polygon fill="white" stroke="transparent" points="-4,4 -4,-528 1180,-528 1180,4 -4,4"/>
<!-- Node1 -->
<g id="node1" class="node">
<title>Node1</title>
<g id="a_node1"><a xlink:title=" ">
<polygon fill="#bfbfbf" stroke="black" points="0,-166 0,-207 127,-207 127,-166 0,-166"/>
<text text-anchor="start" x="8" y="-195" font-family="Helvetica,sans-Serif" font-size="10.00">httplib::Server::read</text>
<text text-anchor="start" x="8" y="-184" font-family="Helvetica,sans-Serif" font-size="10.00">_content_with_content</text>
<text text-anchor="middle" x="63.5" y="-173" font-family="Helvetica,sans-Serif" font-size="10.00">_receiver</text>
</a>
</g>
</g>
<!-- Node2 -->
<g id="node2" class="node">
<title>Node2</title>
<g id="a_node2"><a xlink:href="classhttplib_1_1Server.html#a1fc26b4f3c6d53b4400f643ddd360d35" target="_top" xlink:title=" ">
<polygon fill="white" stroke="black" points="163,-171.5 163,-201.5 276,-201.5 276,-171.5 163,-171.5"/>
<text text-anchor="start" x="171" y="-189.5" font-family="Helvetica,sans-Serif" font-size="10.00">httplib::Server::read</text>
<text text-anchor="middle" x="219.5" y="-178.5" font-family="Helvetica,sans-Serif" font-size="10.00">_content_core</text>
</a>
</g>
</g>
<!-- Node1&#45;&gt;Node2 -->
<g id="edge1" class="edge">
<title>Node1&#45;&gt;Node2</title>
<path fill="none" stroke="midnightblue" d="M127.14,-186.5C135.54,-186.5 144.19,-186.5 152.65,-186.5"/>
<polygon fill="midnightblue" stroke="midnightblue" points="152.85,-190 162.85,-186.5 152.85,-183 152.85,-190"/>
</g>
<!-- Node3 -->
<g id="node3" class="node">
<title>Node3</title>
<g id="a_node3"><a xlink:href="structhttplib_1_1Request.html#a1a0ed323d53df032214a1729db175355" target="_top" xlink:title=" ">
<polygon fill="white" stroke="black" points="337.5,-493.5 337.5,-523.5 453.5,-523.5 453.5,-493.5 337.5,-493.5"/>
<text text-anchor="start" x="345.5" y="-511.5" font-family="Helvetica,sans-Serif" font-size="10.00">httplib::Request::get</text>
<text text-anchor="middle" x="395.5" y="-500.5" font-family="Helvetica,sans-Serif" font-size="10.00">_header_value</text>
</a>
</g>
</g>
<!-- Node2&#45;&gt;Node3 -->
<g id="edge2" class="edge">
<title>Node2&#45;&gt;Node3</title>
<path fill="none" stroke="midnightblue" d="M222.12,-201.53C227.49,-245.16 248.17,-373.91 312,-455.5 322.51,-468.94 337.43,-479.97 351.7,-488.43"/>
<polygon fill="midnightblue" stroke="midnightblue" points="350.03,-491.51 360.46,-493.36 353.46,-485.41 350.03,-491.51"/>
</g>
<!-- Node5 -->
<g id="node5" class="node">
<title>Node5</title>
<g id="a_node5"><a xlink:href="structhttplib_1_1Request.html#a15426727f1b20cfc4e021e97012ed541" target="_top" xlink:title=" ">
<polygon fill="white" stroke="black" points="337,-147.5 337,-177.5 454,-177.5 454,-147.5 337,-147.5"/>
<text text-anchor="start" x="345" y="-165.5" font-family="Helvetica,sans-Serif" font-size="10.00">httplib::Request::has</text>
<text text-anchor="middle" x="395.5" y="-154.5" font-family="Helvetica,sans-Serif" font-size="10.00">_header</text>
</a>
</g>
</g>
<!-- Node2&#45;&gt;Node5 -->
<g id="edge4" class="edge">
<title>Node2&#45;&gt;Node5</title>
<path fill="none" stroke="midnightblue" d="M276.03,-178.84C292.09,-176.62 309.81,-174.18 326.54,-171.87"/>
<polygon fill="midnightblue" stroke="midnightblue" points="327.37,-175.29 336.8,-170.46 326.41,-168.36 327.37,-175.29"/>
</g>
<!-- Node7 -->
<g id="node7" class="node">
<title>Node7</title>
<g id="a_node7"><a xlink:href="structhttplib_1_1Request.html#a9be91099296a3c65ae972cc2bfaf578a" target="_top" xlink:title=" ">
<polygon fill="white" stroke="black" points="334.5,-415.5 334.5,-445.5 456.5,-445.5 456.5,-415.5 334.5,-415.5"/>
<text text-anchor="start" x="342.5" y="-433.5" font-family="Helvetica,sans-Serif" font-size="10.00">httplib::Request::is</text>
<text text-anchor="middle" x="395.5" y="-422.5" font-family="Helvetica,sans-Serif" font-size="10.00">_multipart_form_data</text>
</a>
</g>
</g>
<!-- Node2&#45;&gt;Node7 -->
<g id="edge6" class="edge">
<title>Node2&#45;&gt;Node7</title>
<path fill="none" stroke="midnightblue" d="M227.27,-201.75C240.92,-231.67 273.75,-299.5 312,-349.5 328.82,-371.48 351.45,-393.28 368.76,-408.72"/>
<polygon fill="midnightblue" stroke="midnightblue" points="366.47,-411.37 376.29,-415.34 371.09,-406.11 366.47,-411.37"/>
</g>
<!-- Node8 -->
<g id="node8" class="node">
<title>Node8</title>
<g id="a_node8"><a xlink:href="classhttplib_1_1detail_1_1MultipartFormDataParser.html#a48c95a9bd0a1724cbbee8d1dfda7d7af" target="_top" xlink:title=" ">
<polygon fill="white" stroke="black" points="326,-98.5 326,-128.5 465,-128.5 465,-98.5 326,-98.5"/>
<text text-anchor="start" x="334" y="-116.5" font-family="Helvetica,sans-Serif" font-size="10.00">httplib::detail::Multipart</text>
<text text-anchor="middle" x="395.5" y="-105.5" font-family="Helvetica,sans-Serif" font-size="10.00">FormDataParser::is_valid</text>
</a>
</g>
</g>
<!-- Node2&#45;&gt;Node8 -->
<g id="edge8" class="edge">
<title>Node2&#45;&gt;Node8</title>
<path fill="none" stroke="midnightblue" d="M245.45,-171.31C263.47,-160.79 288.64,-147.03 312,-137.5 316.8,-135.54 321.81,-133.67 326.9,-131.91"/>
<polygon fill="midnightblue" stroke="midnightblue" points="328.34,-135.12 336.72,-128.64 326.13,-128.48 328.34,-135.12"/>
</g>
<!-- Node9 -->
<g id="node9" class="node">
<title>Node9</title>
<g id="a_node9"><a xlink:href="classhttplib_1_1detail_1_1MultipartFormDataParser.html#a07ea9b252463277e35c5a7114ba7e332" target="_top" xlink:title=" ">
<polygon fill="white" stroke="black" points="329.5,-309.5 329.5,-339.5 461.5,-339.5 461.5,-309.5 329.5,-309.5"/>
<text text-anchor="start" x="337.5" y="-327.5" font-family="Helvetica,sans-Serif" font-size="10.00">httplib::detail::Multipart</text>
<text text-anchor="middle" x="395.5" y="-316.5" font-family="Helvetica,sans-Serif" font-size="10.00">FormDataParser::parse</text>
</a>
</g>
</g>
<!-- Node2&#45;&gt;Node9 -->
<g id="edge9" class="edge">
<title>Node2&#45;&gt;Node9</title>
<path fill="none" stroke="midnightblue" d="M239.45,-201.53C270.44,-226.11 332.04,-274.97 367.56,-303.13"/>
<polygon fill="midnightblue" stroke="midnightblue" points="365.56,-306.02 375.57,-309.49 369.91,-300.53 365.56,-306.02"/>
</g>
<!-- Node21 -->
<g id="node21" class="node">
<title>Node21</title>
<g id="a_node21"><a xlink:href="namespacehttplib_1_1detail.html#ab575e708f5bc8388244b79a7bb020547" target="_top" xlink:title=" ">
<polygon fill="white" stroke="black" points="336.5,-49.5 336.5,-79.5 454.5,-79.5 454.5,-49.5 336.5,-49.5"/>
<text text-anchor="start" x="344.5" y="-67.5" font-family="Helvetica,sans-Serif" font-size="10.00">httplib::detail::parse</text>
<text text-anchor="middle" x="395.5" y="-56.5" font-family="Helvetica,sans-Serif" font-size="10.00">_multipart_boundary</text>
</a>
</g>
</g>
<!-- Node2&#45;&gt;Node21 -->
<g id="edge24" class="edge">
<title>Node2&#45;&gt;Node21</title>
<path fill="none" stroke="midnightblue" d="M230.72,-171.16C245.92,-149.54 276.51,-110.33 312,-88.5 316.69,-85.62 321.73,-83.07 326.94,-80.82"/>
<polygon fill="midnightblue" stroke="midnightblue" points="328.42,-83.99 336.44,-77.07 325.86,-77.48 328.42,-83.99"/>
</g>
<!-- Node23 -->
<g id="node23" class="node">
<title>Node23</title>
<g id="a_node23"><a xlink:href="namespacehttplib_1_1detail.html#a471b40288a374b94e0957ce380ba01dd" target="_top" xlink:title=" ">
<polygon fill="white" stroke="black" points="340.5,-196.5 340.5,-226.5 450.5,-226.5 450.5,-196.5 340.5,-196.5"/>
<text text-anchor="start" x="348.5" y="-214.5" font-family="Helvetica,sans-Serif" font-size="10.00">httplib::detail::read</text>
<text text-anchor="middle" x="395.5" y="-203.5" font-family="Helvetica,sans-Serif" font-size="10.00">_content</text>
</a>
</g>
</g>
<!-- Node2&#45;&gt;Node23 -->
<g id="edge26" class="edge">
<title>Node2&#45;&gt;Node23</title>
<path fill="none" stroke="midnightblue" d="M276.03,-194.48C293.24,-196.95 312.35,-199.7 330.11,-202.25"/>
<polygon fill="midnightblue" stroke="midnightblue" points="329.99,-205.77 340.39,-203.72 330.98,-198.84 329.99,-205.77"/>
</g>
<!-- Node31 -->
<g id="node31" class="node">
<title>Node31</title>
<g id="a_node31"><a xlink:href="classhttplib_1_1detail_1_1MultipartFormDataParser.html#a58af0ae22ba5dcb352365dd3e277b0fe" target="_top" xlink:title=" ">
<polygon fill="white" stroke="black" points="312,-0.5 312,-30.5 479,-30.5 479,-0.5 312,-0.5"/>
<text text-anchor="start" x="320" y="-18.5" font-family="Helvetica,sans-Serif" font-size="10.00">httplib::detail::Multipart</text>
<text text-anchor="middle" x="395.5" y="-7.5" font-family="Helvetica,sans-Serif" font-size="10.00">FormDataParser::set_boundary</text>
</a>
</g>
</g>
<!-- Node2&#45;&gt;Node31 -->
<g id="edge37" class="edge">
<title>Node2&#45;&gt;Node31</title>
<path fill="none" stroke="midnightblue" d="M225.65,-171.47C236.65,-141.67 265.28,-74.91 312,-39.5 313.84,-38.11 315.75,-36.8 317.73,-35.56"/>
<polygon fill="midnightblue" stroke="midnightblue" points="319.65,-38.5 326.74,-30.62 316.29,-32.36 319.65,-38.5"/>
</g>
<!-- Node4 -->
<g id="node4" class="node">
<title>Node4</title>
<g id="a_node4"><a xlink:href="namespacehttplib_1_1detail.html#a5182300d07532ca663dfa1b3ae0a352c" target="_top" xlink:title=" ">
<polygon fill="white" stroke="black" points="732.5,-484.5 732.5,-514.5 836.5,-514.5 836.5,-484.5 732.5,-484.5"/>
<text text-anchor="start" x="740.5" y="-502.5" font-family="Helvetica,sans-Serif" font-size="10.00">httplib::detail::get</text>
<text text-anchor="middle" x="784.5" y="-491.5" font-family="Helvetica,sans-Serif" font-size="10.00">_header_value</text>
</a>
</g>
</g>
<!-- Node3&#45;&gt;Node4 -->
<g id="edge3" class="edge">
<title>Node3&#45;&gt;Node4</title>
<path fill="none" stroke="midnightblue" d="M453.65,-512.19C509.03,-515.14 595.34,-518.09 670,-513.5 686.99,-512.46 705.32,-510.54 722.2,-508.46"/>
<polygon fill="midnightblue" stroke="midnightblue" points="723.01,-511.88 732.49,-507.14 722.13,-504.94 723.01,-511.88"/>
</g>
<!-- Node6 -->
<g id="node6" class="node">
<title>Node6</title>
<g id="a_node6"><a xlink:href="namespacehttplib_1_1detail.html#a275bacceee663280bb937fc79a7f3bce" target="_top" xlink:title=" ">
<polygon fill="white" stroke="black" points="540,-79.5 540,-109.5 645,-109.5 645,-79.5 540,-79.5"/>
<text text-anchor="start" x="548" y="-97.5" font-family="Helvetica,sans-Serif" font-size="10.00">httplib::detail::has</text>
<text text-anchor="middle" x="592.5" y="-86.5" font-family="Helvetica,sans-Serif" font-size="10.00">_header</text>
</a>
</g>
</g>
<!-- Node5&#45;&gt;Node6 -->
<g id="edge5" class="edge">
<title>Node5&#45;&gt;Node6</title>
<path fill="none" stroke="midnightblue" d="M451.6,-147.41C460.85,-144.42 470.28,-141.08 479,-137.5 495.73,-130.62 498.3,-125.46 515,-118.5 519.78,-116.51 524.78,-114.59 529.84,-112.77"/>
<polygon fill="midnightblue" stroke="midnightblue" points="531.3,-115.96 539.6,-109.38 529.01,-109.35 531.3,-115.96"/>
</g>
<!-- Node7&#45;&gt;Node4 -->
<g id="edge7" class="edge">
<title>Node7&#45;&gt;Node4</title>
<path fill="none" stroke="midnightblue" d="M428.95,-445.59C452.35,-455.78 484.97,-468.6 515,-475.5 584.84,-491.56 667.2,-497 722.11,-498.77"/>
<polygon fill="midnightblue" stroke="midnightblue" points="722.28,-502.28 732.38,-499.07 722.48,-495.28 722.28,-502.28"/>
</g>
<!-- Node10 -->
<g id="node10" class="node">
<title>Node10</title>
<g id="a_node10"><a xlink:href="namespacehttplib_1_1detail.html#ad9a33d8ea46a298f605165c2d7a11626" target="_top" xlink:title=" ">
<polygon fill="white" stroke="black" points="714,-445 714,-464 855,-464 855,-445 714,-445"/>
<text text-anchor="middle" x="784.5" y="-452" font-family="Helvetica,sans-Serif" font-size="10.00">httplib::detail::decode_url</text>
</a>
</g>
</g>
<!-- Node9&#45;&gt;Node10 -->
<g id="edge10" class="edge">
<title>Node9&#45;&gt;Node10</title>
<path fill="none" stroke="midnightblue" d="M411.72,-339.6C428.28,-356.04 455.55,-383.12 479,-406.5 495.02,-422.48 494.29,-433.38 515,-442.5 577.21,-469.91 655.56,-470.01 711.55,-465.01"/>
<polygon fill="midnightblue" stroke="midnightblue" points="712.12,-468.47 721.73,-464.02 711.44,-461.5 712.12,-468.47"/>
</g>
<!-- Node14 -->
<g id="node14" class="node">
<title>Node14</title>
<g id="a_node14"><a xlink:href="namespacehttplib_1_1detail.html#a827f8fddf677ea989f099cc59692cf2b" target="_top" xlink:title=" ">
<polygon fill="white" stroke="black" points="534,-265.5 534,-295.5 651,-295.5 651,-265.5 534,-265.5"/>
<text text-anchor="start" x="542" y="-283.5" font-family="Helvetica,sans-Serif" font-size="10.00">httplib::detail::parse</text>
<text text-anchor="middle" x="592.5" y="-272.5" font-family="Helvetica,sans-Serif" font-size="10.00">_disposition_params</text>
</a>
</g>
</g>
<!-- Node9&#45;&gt;Node14 -->
<g id="edge14" class="edge">
<title>Node9&#45;&gt;Node14</title>
<path fill="none" stroke="midnightblue" d="M461.7,-309.79C481.69,-305.28 503.71,-300.31 523.86,-295.76"/>
<polygon fill="midnightblue" stroke="midnightblue" points="524.9,-299.11 533.89,-293.5 523.36,-292.29 524.9,-299.11"/>
</g>
<!-- Node18 -->
<g id="node18" class="node">
<title>Node18</title>
<g id="a_node18"><a xlink:href="namespacehttplib_1_1detail.html#a9f88ca460e7fee64d3598e4d79349f9a" target="_top" xlink:title=" ">
<polygon fill="white" stroke="black" points="535,-353.5 535,-383.5 650,-383.5 650,-353.5 535,-353.5"/>
<text text-anchor="start" x="543" y="-371.5" font-family="Helvetica,sans-Serif" font-size="10.00">httplib::detail::parse</text>
<text text-anchor="middle" x="592.5" y="-360.5" font-family="Helvetica,sans-Serif" font-size="10.00">_header</text>
</a>
</g>
</g>
<!-- Node9&#45;&gt;Node18 -->
<g id="edge18" class="edge">
<title>Node9&#45;&gt;Node18</title>
<path fill="none" stroke="midnightblue" d="M461.7,-339.21C482.07,-343.81 504.55,-348.88 525,-353.49"/>
<polygon fill="midnightblue" stroke="midnightblue" points="524.33,-356.93 534.85,-355.72 525.87,-350.1 524.33,-356.93"/>
</g>
<!-- Node20 -->
<g id="node20" class="node">
<title>Node20</title>
<g id="a_node20"><a xlink:href="namespacehttplib_1_1detail.html#a43195f9bc4116e2472476caa1c0fc062" target="_top" xlink:title=" ">
<polygon fill="white" stroke="black" points="716,-315 716,-334 853,-334 853,-315 716,-315"/>
<text text-anchor="middle" x="784.5" y="-322" font-family="Helvetica,sans-Serif" font-size="10.00">httplib::detail::trim_copy</text>
</a>
</g>
</g>
<!-- Node9&#45;&gt;Node20 -->
<g id="edge22" class="edge">
<title>Node9&#45;&gt;Node20</title>
<path fill="none" stroke="midnightblue" d="M461.71,-324.5C528.95,-324.5 633.81,-324.5 705.43,-324.5"/>
<polygon fill="midnightblue" stroke="midnightblue" points="705.74,-328 715.74,-324.5 705.74,-321 705.74,-328"/>
</g>
<!-- Node11 -->
<g id="node11" class="node">
<title>Node11</title>
<g id="a_node11"><a xlink:href="namespacehttplib_1_1detail.html#a62592aa626f8ab0e3af59e681a28ac1b" target="_top" xlink:title=" ">
<polygon fill="white" stroke="black" points="904.5,-461.5 904.5,-491.5 1015.5,-491.5 1015.5,-461.5 904.5,-461.5"/>
<text text-anchor="start" x="912.5" y="-479.5" font-family="Helvetica,sans-Serif" font-size="10.00">httplib::detail::from</text>
<text text-anchor="middle" x="960" y="-468.5" font-family="Helvetica,sans-Serif" font-size="10.00">_hex_to_i</text>
</a>
</g>
</g>
<!-- Node10&#45;&gt;Node11 -->
<g id="edge11" class="edge">
<title>Node10&#45;&gt;Node11</title>
<path fill="none" stroke="midnightblue" d="M855.07,-463.32C868.01,-464.96 881.49,-466.67 894.28,-468.29"/>
<polygon fill="midnightblue" stroke="midnightblue" points="894.01,-471.79 904.37,-469.57 894.89,-464.84 894.01,-471.79"/>
</g>
<!-- Node13 -->
<g id="node13" class="node">
<title>Node13</title>
<g id="a_node13"><a xlink:href="namespacehttplib_1_1detail.html#a011d617356300d12aeb93d2dda1560b9" target="_top" xlink:title=" ">
<polygon fill="white" stroke="black" points="899,-423 899,-442 1021,-442 1021,-423 899,-423"/>
<text text-anchor="middle" x="960" y="-430" font-family="Helvetica,sans-Serif" font-size="10.00">httplib::detail::to_utf8</text>
</a>
</g>
</g>
<!-- Node10&#45;&gt;Node13 -->
<g id="edge13" class="edge">
<title>Node10&#45;&gt;Node13</title>
<path fill="none" stroke="midnightblue" d="M855.07,-445.68C866.19,-444.27 877.69,-442.81 888.82,-441.4"/>
<polygon fill="midnightblue" stroke="midnightblue" points="889.43,-444.85 898.92,-440.12 888.55,-437.9 889.43,-444.85"/>
</g>
<!-- Node12 -->
<g id="node12" class="node">
<title>Node12</title>
<g id="a_node12"><a xlink:href="namespacehttplib_1_1detail.html#a4a74a4e9cde826f1a91894f63ddb2d9a" target="_top" xlink:title=" ">
<polygon fill="white" stroke="black" points="1057,-467 1057,-486 1176,-486 1176,-467 1057,-467"/>
<text text-anchor="middle" x="1116.5" y="-474" font-family="Helvetica,sans-Serif" font-size="10.00">httplib::detail::is_hex</text>
</a>
</g>
</g>
<!-- Node11&#45;&gt;Node12 -->
<g id="edge12" class="edge">
<title>Node11&#45;&gt;Node12</title>
<path fill="none" stroke="midnightblue" d="M1015.91,-476.5C1025.86,-476.5 1036.35,-476.5 1046.65,-476.5"/>
<polygon fill="midnightblue" stroke="midnightblue" points="1046.84,-480 1056.84,-476.5 1046.84,-473 1046.84,-480"/>
</g>
<!-- Node15 -->
<g id="node15" class="node">
<title>Node15</title>
<g id="a_node15"><a xlink:href="namespacehttplib_1_1detail.html#a870b64c5e47d81e83ec023160df1984a" target="_top" xlink:title=" ">
<polygon fill="white" stroke="black" points="730,-274 730,-293 839,-293 839,-274 730,-274"/>
<text text-anchor="middle" x="784.5" y="-281" font-family="Helvetica,sans-Serif" font-size="10.00">httplib::detail::split</text>
</a>
</g>
</g>
<!-- Node14&#45;&gt;Node15 -->
<g id="edge15" class="edge">
<title>Node14&#45;&gt;Node15</title>
<path fill="none" stroke="midnightblue" d="M651.02,-281.41C672.71,-281.75 697.51,-282.14 719.73,-282.49"/>
<polygon fill="midnightblue" stroke="midnightblue" points="719.69,-285.99 729.75,-282.65 719.8,-278.99 719.69,-285.99"/>
</g>
<!-- Node16 -->
<g id="node16" class="node">
<title>Node16</title>
<g id="a_node16"><a xlink:href="namespacehttplib_1_1detail.html#a684e5b601171494a4e06c6ff05a60522" target="_top" xlink:title=" ">
<polygon fill="white" stroke="black" points="906,-315 906,-334 1014,-334 1014,-315 906,-315"/>
<text text-anchor="middle" x="960" y="-322" font-family="Helvetica,sans-Serif" font-size="10.00">httplib::detail::trim</text>
</a>
</g>
</g>
<!-- Node15&#45;&gt;Node16 -->
<g id="edge16" class="edge">
<title>Node15&#45;&gt;Node16</title>
<path fill="none" stroke="midnightblue" d="M825.74,-293.01C850.51,-298.86 882.45,-306.41 908.86,-312.65"/>
<polygon fill="midnightblue" stroke="midnightblue" points="908.14,-316.08 918.68,-314.97 909.75,-309.27 908.14,-316.08"/>
</g>
<!-- Node17 -->
<g id="node17" class="node">
<title>Node17</title>
<g id="a_node17"><a xlink:href="namespacehttplib_1_1detail.html#a516825616cd42123cbe974a9f42718aa" target="_top" xlink:title=" ">
<polygon fill="white" stroke="black" points="1068.5,-329.5 1068.5,-359.5 1164.5,-359.5 1164.5,-329.5 1068.5,-329.5"/>
<text text-anchor="start" x="1076.5" y="-347.5" font-family="Helvetica,sans-Serif" font-size="10.00">httplib::detail::is</text>
<text text-anchor="middle" x="1116.5" y="-336.5" font-family="Helvetica,sans-Serif" font-size="10.00">_space_or_tab</text>
</a>
</g>
</g>
<!-- Node16&#45;&gt;Node17 -->
<g id="edge17" class="edge">
<title>Node16&#45;&gt;Node17</title>
<path fill="none" stroke="midnightblue" d="M1014.17,-331.38C1028.36,-333.22 1043.75,-335.21 1058.15,-337.08"/>
<polygon fill="midnightblue" stroke="midnightblue" points="1058.07,-340.59 1068.43,-338.41 1058.97,-333.65 1058.07,-340.59"/>
</g>
<!-- Node18&#45;&gt;Node10 -->
<g id="edge20" class="edge">
<title>Node18&#45;&gt;Node10</title>
<path fill="none" stroke="midnightblue" d="M650.26,-383.2C657.18,-386.09 663.93,-389.5 670,-393.5 690.24,-406.85 685.34,-421.8 706,-434.5 710.33,-437.16 715,-439.47 719.83,-441.47"/>
<polygon fill="midnightblue" stroke="midnightblue" points="718.67,-444.78 729.26,-444.96 721.1,-438.21 718.67,-444.78"/>
</g>
<!-- Node18&#45;&gt;Node17 -->
<g id="edge21" class="edge">
<title>Node18&#45;&gt;Node17</title>
<path fill="none" stroke="midnightblue" d="M650.36,-365.89C750.53,-361.28 957.35,-351.77 1057.99,-347.14"/>
<polygon fill="midnightblue" stroke="midnightblue" points="1058.43,-350.63 1068.26,-346.67 1058.11,-343.63 1058.43,-350.63"/>
</g>
<!-- Node19 -->
<g id="node19" class="node">
<title>Node19</title>
<g id="a_node19"><a xlink:href="namespacehttplib_1_1detail.html#a3f97283ac7e814cd7501a15c19f300d9" target="_top" xlink:title=" ">
<polygon fill="white" stroke="black" points="719,-394.5 719,-424.5 850,-424.5 850,-394.5 719,-394.5"/>
<text text-anchor="start" x="727" y="-412.5" font-family="Helvetica,sans-Serif" font-size="10.00">httplib::detail::compare</text>
<text text-anchor="middle" x="784.5" y="-401.5" font-family="Helvetica,sans-Serif" font-size="10.00">_case_ignore</text>
</a>
</g>
</g>
<!-- Node18&#45;&gt;Node19 -->
<g id="edge19" class="edge">
<title>Node18&#45;&gt;Node19</title>
<path fill="none" stroke="midnightblue" d="M650.25,-380.75C668.68,-384.72 689.41,-389.2 708.94,-393.41"/>
<polygon fill="midnightblue" stroke="midnightblue" points="708.2,-396.83 718.71,-395.52 709.67,-389.99 708.2,-396.83"/>
</g>
<!-- Node20&#45;&gt;Node16 -->
<g id="edge23" class="edge">
<title>Node20&#45;&gt;Node16</title>
<path fill="none" stroke="midnightblue" d="M853.08,-324.5C867.03,-324.5 881.68,-324.5 895.48,-324.5"/>
<polygon fill="midnightblue" stroke="midnightblue" points="895.84,-328 905.84,-324.5 895.84,-321 895.84,-328"/>
</g>
<!-- Node22 -->
<g id="node22" class="node">
<title>Node22</title>
<g id="a_node22"><a xlink:href="namespacehttplib_1_1detail.html#a0b5f3f1c3270d5e213e85dd07f0417a4" target="_top" xlink:title=" ">
<polygon fill="white" stroke="black" points="531.5,-30.5 531.5,-60.5 653.5,-60.5 653.5,-30.5 531.5,-30.5"/>
<text text-anchor="start" x="539.5" y="-48.5" font-family="Helvetica,sans-Serif" font-size="10.00">httplib::detail::trim</text>
<text text-anchor="middle" x="592.5" y="-37.5" font-family="Helvetica,sans-Serif" font-size="10.00">_double_quotes_copy</text>
</a>
</g>
</g>
<!-- Node21&#45;&gt;Node22 -->
<g id="edge25" class="edge">
<title>Node21&#45;&gt;Node22</title>
<path fill="none" stroke="midnightblue" d="M454.74,-58.83C475.57,-56.8 499.27,-54.49 521.02,-52.37"/>
<polygon fill="midnightblue" stroke="midnightblue" points="521.58,-55.83 531.19,-51.38 520.9,-48.86 521.58,-55.83"/>
</g>
<!-- Node23&#45;&gt;Node6 -->
<g id="edge27" class="edge">
<title>Node23&#45;&gt;Node6</title>
<path fill="none" stroke="midnightblue" d="M450.65,-202.53C460.81,-199.05 470.81,-194.21 479,-187.5 505.75,-165.58 488.48,-140.7 515,-118.5 519.58,-114.67 524.78,-111.44 530.25,-108.73"/>
<polygon fill="midnightblue" stroke="midnightblue" points="531.89,-111.83 539.67,-104.64 529.1,-105.41 531.89,-111.83"/>
</g>
<!-- Node24 -->
<g id="node24" class="node">
<title>Node24</title>
<g id="a_node24"><a xlink:href="FuzzerTracePC_8cpp.html#a04324001136ead9261bb82cc6bceea2f" target="_top" xlink:title=" ">
<polygon fill="white" stroke="black" points="578,-178 578,-197 607,-197 607,-178 578,-178"/>
<text text-anchor="middle" x="592.5" y="-185" font-family="Helvetica,sans-Serif" font-size="10.00">if</text>
</a>
</g>
</g>
<!-- Node23&#45;&gt;Node24 -->
<g id="edge28" class="edge">
<title>Node23&#45;&gt;Node24</title>
<path fill="none" stroke="midnightblue" d="M450.56,-204.85C489.14,-200.1 539.12,-193.95 568.02,-190.39"/>
<polygon fill="midnightblue" stroke="midnightblue" points="568.5,-193.86 578,-189.16 567.65,-186.91 568.5,-193.86"/>
</g>
<!-- Node25 -->
<g id="node25" class="node">
<title>Node25</title>
<g id="a_node25"><a xlink:href="namespacehttplib_1_1detail.html#abd6e246430f90f7881c9475acb026d00" target="_top" xlink:title=" ">
<polygon fill="white" stroke="black" points="515,-402.5 515,-432.5 670,-432.5 670,-402.5 515,-402.5"/>
<text text-anchor="start" x="523" y="-420.5" font-family="Helvetica,sans-Serif" font-size="10.00">httplib::detail::is</text>
<text text-anchor="middle" x="592.5" y="-409.5" font-family="Helvetica,sans-Serif" font-size="10.00">_chunked_transfer_encoding</text>
</a>
</g>
</g>
<!-- Node23&#45;&gt;Node25 -->
<g id="edge29" class="edge">
<title>Node23&#45;&gt;Node25</title>
<path fill="none" stroke="midnightblue" d="M414.05,-226.67C432.33,-243.26 460.8,-271.37 479,-300.5 502.48,-338.09 482.65,-363.2 515,-393.5 516.14,-394.57 517.33,-395.59 518.56,-396.57"/>
<polygon fill="midnightblue" stroke="midnightblue" points="516.96,-399.71 527.22,-402.38 520.87,-393.9 516.96,-399.71"/>
</g>
<!-- Node26 -->
<g id="node26" class="node">
<title>Node26</title>
<g id="a_node26"><a xlink:href="namespacehttplib_1_1detail.html#adde3b6920db2d9d0065c119a8b255b7c" target="_top" xlink:title=" ">
<polygon fill="white" stroke="black" points="530,-128.5 530,-158.5 655,-158.5 655,-128.5 530,-128.5"/>
<text text-anchor="start" x="538" y="-146.5" font-family="Helvetica,sans-Serif" font-size="10.00">httplib::detail::prepare</text>
<text text-anchor="middle" x="592.5" y="-135.5" font-family="Helvetica,sans-Serif" font-size="10.00">_content_receiver</text>
</a>
</g>
</g>
<!-- Node23&#45;&gt;Node26 -->
<g id="edge32" class="edge">
<title>Node23&#45;&gt;Node26</title>
<path fill="none" stroke="midnightblue" d="M450.73,-197.43C460.27,-194.47 470.01,-191.14 479,-187.5 495.77,-180.72 498.34,-175.56 515,-168.5 520.36,-166.23 526,-164.04 531.68,-161.96"/>
<polygon fill="midnightblue" stroke="midnightblue" points="533,-165.2 541.26,-158.57 530.66,-158.61 533,-165.2"/>
</g>
<!-- Node29 -->
<g id="node29" class="node">
<title>Node29</title>
<g id="a_node29"><a xlink:href="namespacehttplib_1_1detail.html#abe909e9a9ee7454dbc9bd814f390bdf0" target="_top" xlink:title=" ">
<polygon fill="white" stroke="black" points="532,-216.5 532,-246.5 653,-246.5 653,-216.5 532,-216.5"/>
<text text-anchor="start" x="540" y="-234.5" font-family="Helvetica,sans-Serif" font-size="10.00">httplib::detail::read</text>
<text text-anchor="middle" x="592.5" y="-223.5" font-family="Helvetica,sans-Serif" font-size="10.00">_content_with_length</text>
</a>
</g>
</g>
<!-- Node23&#45;&gt;Node29 -->
<g id="edge35" class="edge">
<title>Node23&#45;&gt;Node29</title>
<path fill="none" stroke="midnightblue" d="M450.56,-217.04C472.55,-219.3 498.25,-221.94 521.64,-224.33"/>
<polygon fill="midnightblue" stroke="midnightblue" points="521.55,-227.84 531.85,-225.38 522.26,-220.88 521.55,-227.84"/>
</g>
<!-- Node25&#45;&gt;Node4 -->
<g id="edge31" class="edge">
<title>Node25&#45;&gt;Node4</title>
<path fill="none" stroke="midnightblue" d="M621.2,-432.64C643.67,-444.58 676.37,-461.22 706,-473.5 712.25,-476.09 718.87,-478.62 725.49,-481.02"/>
<polygon fill="midnightblue" stroke="midnightblue" points="724.57,-484.4 735.16,-484.43 726.9,-477.8 724.57,-484.4"/>
</g>
<!-- Node25&#45;&gt;Node19 -->
<g id="edge30" class="edge">
<title>Node25&#45;&gt;Node19</title>
<path fill="none" stroke="midnightblue" d="M670.23,-414.27C682.99,-413.73 696.21,-413.18 708.91,-412.64"/>
<polygon fill="midnightblue" stroke="midnightblue" points="709.13,-416.13 718.97,-412.22 708.83,-409.14 709.13,-416.13"/>
</g>
<!-- Node27 -->
<g id="node27" class="node">
<title>Node27</title>
<g id="a_node27"><a xlink:href="classhttplib_1_1detail_1_1decompressor.html#ad4fcf7cd57cd8e0b66e5a4d101fffc2e" target="_top" xlink:title=" ">
<polygon fill="white" stroke="black" points="706,-150.5 706,-180.5 863,-180.5 863,-150.5 706,-150.5"/>
<text text-anchor="start" x="714" y="-168.5" font-family="Helvetica,sans-Serif" font-size="10.00">httplib::detail::decompressor</text>
<text text-anchor="middle" x="784.5" y="-157.5" font-family="Helvetica,sans-Serif" font-size="10.00">::decompress</text>
</a>
</g>
</g>
<!-- Node26&#45;&gt;Node27 -->
<g id="edge33" class="edge">
<title>Node26&#45;&gt;Node27</title>
<path fill="none" stroke="midnightblue" d="M655.19,-150.64C668.18,-152.15 682.12,-153.76 695.86,-155.35"/>
<polygon fill="midnightblue" stroke="midnightblue" points="695.47,-158.83 705.81,-156.5 696.28,-151.88 695.47,-158.83"/>
</g>
<!-- Node28 -->
<g id="node28" class="node">
<title>Node28</title>
<g id="a_node28"><a xlink:href="classhttplib_1_1detail_1_1decompressor.html#adf987b42198e8f9fdd555ce9577341ba" target="_top" xlink:title=" ">
<polygon fill="white" stroke="black" points="706,-101.5 706,-131.5 863,-131.5 863,-101.5 706,-101.5"/>
<text text-anchor="start" x="714" y="-119.5" font-family="Helvetica,sans-Serif" font-size="10.00">httplib::detail::decompressor</text>
<text text-anchor="middle" x="784.5" y="-108.5" font-family="Helvetica,sans-Serif" font-size="10.00">::is_valid</text>
</a>
</g>
</g>
<!-- Node26&#45;&gt;Node28 -->
<g id="edge34" class="edge">
<title>Node26&#45;&gt;Node28</title>
<path fill="none" stroke="midnightblue" d="M655.19,-134.73C668.18,-132.89 682.12,-130.91 695.86,-128.95"/>
<polygon fill="midnightblue" stroke="midnightblue" points="696.4,-132.41 705.81,-127.54 695.42,-125.48 696.4,-132.41"/>
</g>
<!-- Node30 -->
<g id="node30" class="node">
<title>Node30</title>
<g id="a_node30"><a xlink:href="classhttplib_1_1Stream.html#a58adfc27d0672f6a2f293168757861b2" target="_top" xlink:title=" ">
<polygon fill="white" stroke="black" points="726,-222 726,-241 843,-241 843,-222 726,-222"/>
<text text-anchor="middle" x="784.5" y="-229" font-family="Helvetica,sans-Serif" font-size="10.00">httplib::Stream::read</text>
</a>
</g>
</g>
<!-- Node29&#45;&gt;Node30 -->
<g id="edge36" class="edge">
<title>Node29&#45;&gt;Node30</title>
<path fill="none" stroke="midnightblue" d="M653.1,-231.5C672.93,-231.5 695.16,-231.5 715.57,-231.5"/>
<polygon fill="midnightblue" stroke="midnightblue" points="715.74,-235 725.74,-231.5 715.74,-228 715.74,-235"/>
</g>
</g>
</svg>
