<?xml version="1.0" encoding="UTF-8" standalone="no"?>
<!DOCTYPE svg PUBLIC "-//W3C//DTD SVG 1.1//EN"
 "http://www.w3.org/Graphics/SVG/1.1/DTD/svg11.dtd">
<!-- Generated by graphviz version 2.43.0 (0)
 -->
<!-- Title: httplib::ThreadPool Pages: 1 -->
<svg width="506pt" height="386pt"
 viewBox="0.00 0.00 506.00 386.00" xmlns="http://www.w3.org/2000/svg" xmlns:xlink="http://www.w3.org/1999/xlink">
<g id="graph0" class="graph" transform="scale(1 1) rotate(0) translate(4 382)">
<title>httplib::ThreadPool</title>
<polygon fill="white" stroke="transparent" points="-4,4 -4,-382 502,-382 502,4 -4,4"/>
<!-- Node1 -->
<g id="node1" class="node">
<title>Node1</title>
<g id="a_node1"><a xlink:title=" ">
<polygon fill="#bfbfbf" stroke="black" points="241,-0.5 241,-123.5 380,-123.5 380,-0.5 241,-0.5"/>
<text text-anchor="middle" x="310.5" y="-111.5" font-family="Helvetica,sans-Serif" font-size="10.00">httplib::ThreadPool</text>
<polyline fill="none" stroke="black" points="241,-104.5 380,-104.5 "/>
<text text-anchor="start" x="249" y="-92.5" font-family="Helvetica,sans-Serif" font-size="10.00">&#45; shutdown_</text>
<text text-anchor="start" x="249" y="-81.5" font-family="Helvetica,sans-Serif" font-size="10.00">&#45; max_queued_requests_</text>
<text text-anchor="start" x="249" y="-70.5" font-family="Helvetica,sans-Serif" font-size="10.00">&#45; cond_</text>
<polyline fill="none" stroke="black" points="241,-63.5 380,-63.5 "/>
<text text-anchor="start" x="249" y="-51.5" font-family="Helvetica,sans-Serif" font-size="10.00">+ ThreadPool()</text>
<text text-anchor="start" x="249" y="-40.5" font-family="Helvetica,sans-Serif" font-size="10.00">+ ThreadPool()</text>
<text text-anchor="start" x="249" y="-29.5" font-family="Helvetica,sans-Serif" font-size="10.00">+ ~ThreadPool()</text>
<text text-anchor="start" x="249" y="-18.5" font-family="Helvetica,sans-Serif" font-size="10.00">+ enqueue()</text>
<text text-anchor="start" x="249" y="-7.5" font-family="Helvetica,sans-Serif" font-size="10.00">+ shutdown()</text>
</a>
</g>
</g>
<!-- Node2 -->
<g id="node2" class="node">
<title>Node2</title>
<g id="a_node2"><a xlink:href="classhttplib_1_1TaskQueue.html" target="_top" xlink:title=" ">
<polygon fill="white" stroke="black" points="0,-171.5 0,-272.5 107,-272.5 107,-171.5 0,-171.5"/>
<text text-anchor="middle" x="53.5" y="-260.5" font-family="Helvetica,sans-Serif" font-size="10.00">httplib::TaskQueue</text>
<polyline fill="none" stroke="black" points="0,-253.5 107,-253.5 "/>
<text text-anchor="middle" x="53.5" y="-241.5" font-family="Helvetica,sans-Serif" font-size="10.00"> </text>
<polyline fill="none" stroke="black" points="0,-234.5 107,-234.5 "/>
<text text-anchor="start" x="8" y="-222.5" font-family="Helvetica,sans-Serif" font-size="10.00">+ TaskQueue()</text>
<text text-anchor="start" x="8" y="-211.5" font-family="Helvetica,sans-Serif" font-size="10.00">+ ~TaskQueue()</text>
<text text-anchor="start" x="8" y="-200.5" font-family="Helvetica,sans-Serif" font-size="10.00">+ enqueue()</text>
<text text-anchor="start" x="8" y="-189.5" font-family="Helvetica,sans-Serif" font-size="10.00">+ shutdown()</text>
<text text-anchor="start" x="8" y="-178.5" font-family="Helvetica,sans-Serif" font-size="10.00">+ on_idle()</text>
</a>
</g>
</g>
<!-- Node2&#45;&gt;Node1 -->
<g id="edge1" class="edge">
<title>Node2&#45;&gt;Node1</title>
<path fill="none" stroke="midnightblue" d="M115.24,-171.17C115.33,-171.12 115.41,-171.06 115.5,-171 155.48,-144.1 202.69,-117.83 240.65,-97.92"/>
<polygon fill="none" stroke="midnightblue" points="113.38,-168.21 107.18,-176.8 117.39,-173.95 113.38,-168.21"/>
</g>
<!-- Node3 -->
<g id="node3" class="node">
<title>Node3</title>
<g id="a_node3"><a xlink:title=" ">
<polygon fill="white" stroke="#bfbfbf" points="125,-193.5 125,-250.5 268,-250.5 268,-193.5 125,-193.5"/>
<text text-anchor="middle" x="196.5" y="-238.5" font-family="Helvetica,sans-Serif" font-size="10.00">std::vector&lt; std::thread &gt;</text>
<polyline fill="none" stroke="#bfbfbf" points="125,-231.5 268,-231.5 "/>
<text text-anchor="middle" x="196.5" y="-219.5" font-family="Helvetica,sans-Serif" font-size="10.00"> </text>
<polyline fill="none" stroke="#bfbfbf" points="125,-212.5 268,-212.5 "/>
<text text-anchor="middle" x="196.5" y="-200.5" font-family="Helvetica,sans-Serif" font-size="10.00"> </text>
</a>
</g>
</g>
<!-- Node3&#45;&gt;Node1 -->
<g id="edge2" class="edge">
<title>Node3&#45;&gt;Node1</title>
<path fill="none" stroke="#404040" d="M216.36,-193.48C228.36,-176.84 244.26,-154.8 259.57,-133.59"/>
<polygon fill="none" stroke="#404040" points="259.76,-133.32 260.03,-126.12 266.78,-123.59 266.51,-130.8 259.76,-133.32"/>
<text text-anchor="middle" x="278" y="-145" font-family="Helvetica,sans-Serif" font-size="10.00"> &#45;threads_</text>
</g>
<!-- Node4 -->
<g id="node4" class="node">
<title>Node4</title>
<g id="a_node4"><a xlink:title="STL class.">
<polygon fill="white" stroke="#bfbfbf" points="162,-320.5 162,-377.5 231,-377.5 231,-320.5 162,-320.5"/>
<text text-anchor="middle" x="196.5" y="-365.5" font-family="Helvetica,sans-Serif" font-size="10.00">std::thread</text>
<polyline fill="none" stroke="#bfbfbf" points="162,-358.5 231,-358.5 "/>
<text text-anchor="middle" x="196.5" y="-346.5" font-family="Helvetica,sans-Serif" font-size="10.00"> </text>
<polyline fill="none" stroke="#bfbfbf" points="162,-339.5 231,-339.5 "/>
<text text-anchor="middle" x="196.5" y="-327.5" font-family="Helvetica,sans-Serif" font-size="10.00"> </text>
</a>
</g>
</g>
<!-- Node4&#45;&gt;Node3 -->
<g id="edge3" class="edge">
<title>Node4&#45;&gt;Node3</title>
<path fill="none" stroke="#404040" d="M196.5,-320.26C196.5,-303.35 196.5,-281.46 196.5,-262.73"/>
<polygon fill="none" stroke="#404040" points="196.5,-262.66 192.5,-256.66 196.5,-250.66 200.5,-256.66 196.5,-262.66"/>
<text text-anchor="middle" x="225.5" y="-294" font-family="Helvetica,sans-Serif" font-size="10.00"> +elements</text>
</g>
<!-- Node5 -->
<g id="node5" class="node">
<title>Node5</title>
<g id="a_node5"><a xlink:title=" ">
<polygon fill="white" stroke="#bfbfbf" points="286,-188 286,-256 411,-256 411,-188 286,-188"/>
<text text-anchor="start" x="294" y="-244" font-family="Helvetica,sans-Serif" font-size="10.00">std::list&lt; std::function</text>
<text text-anchor="middle" x="348.5" y="-233" font-family="Helvetica,sans-Serif" font-size="10.00">&lt; void()&gt; &gt;</text>
<polyline fill="none" stroke="#bfbfbf" points="286,-226 411,-226 "/>
<text text-anchor="start" x="294" y="-214" font-family="Helvetica,sans-Serif" font-size="10.00">+ elements</text>
<polyline fill="none" stroke="#bfbfbf" points="286,-207 411,-207 "/>
<text text-anchor="middle" x="348.5" y="-195" font-family="Helvetica,sans-Serif" font-size="10.00"> </text>
</a>
</g>
</g>
<!-- Node5&#45;&gt;Node1 -->
<g id="edge4" class="edge">
<title>Node5&#45;&gt;Node1</title>
<path fill="none" stroke="#404040" d="M340.53,-187.88C336.84,-172.51 332.29,-153.61 327.86,-135.2"/>
<polygon fill="none" stroke="#404040" points="327.86,-135.19 322.57,-130.29 325.06,-123.52 330.35,-128.42 327.86,-135.19"/>
<text text-anchor="middle" x="349" y="-145" font-family="Helvetica,sans-Serif" font-size="10.00"> &#45;jobs_</text>
</g>
<!-- Node6 -->
<g id="node6" class="node">
<title>Node6</title>
<g id="a_node6"><a xlink:title="STL class.">
<polygon fill="white" stroke="#bfbfbf" points="429,-193.5 429,-250.5 498,-250.5 498,-193.5 429,-193.5"/>
<text text-anchor="middle" x="463.5" y="-238.5" font-family="Helvetica,sans-Serif" font-size="10.00">std::mutex</text>
<polyline fill="none" stroke="#bfbfbf" points="429,-231.5 498,-231.5 "/>
<text text-anchor="middle" x="463.5" y="-219.5" font-family="Helvetica,sans-Serif" font-size="10.00"> </text>
<polyline fill="none" stroke="#bfbfbf" points="429,-212.5 498,-212.5 "/>
<text text-anchor="middle" x="463.5" y="-200.5" font-family="Helvetica,sans-Serif" font-size="10.00"> </text>
</a>
</g>
</g>
<!-- Node6&#45;&gt;Node1 -->
<g id="edge5" class="edge">
<title>Node6&#45;&gt;Node1</title>
<path fill="none" stroke="#404040" d="M439.85,-193.45C433.36,-186.07 426.24,-178.15 419.5,-171 407.55,-158.32 394.59,-145.07 381.92,-132.37"/>
<polygon fill="none" stroke="#404040" points="381.7,-132.15 374.63,-130.75 373.21,-123.68 380.28,-125.08 381.7,-132.15"/>
<text text-anchor="middle" x="424.5" y="-145" font-family="Helvetica,sans-Serif" font-size="10.00"> &#45;mutex_</text>
</g>
</g>
</svg>
