<?xml version="1.0" encoding="UTF-8" standalone="no"?>
<!DOCTYPE svg PUBLIC "-//W3C//DTD SVG 1.1//EN"
 "http://www.w3.org/Graphics/SVG/1.1/DTD/svg11.dtd">
<!-- Generated by graphviz version 2.43.0 (0)
 -->
<!-- Title: httplib::ClientImpl::Get Pages: 1 -->
<svg width="620pt" height="78pt"
 viewBox="0.00 0.00 620.00 77.50" xmlns="http://www.w3.org/2000/svg" xmlns:xlink="http://www.w3.org/1999/xlink">
<g id="graph0" class="graph" transform="scale(1 1) rotate(0) translate(4 73.5)">
<title>httplib::ClientImpl::Get</title>
<polygon fill="white" stroke="transparent" points="-4,4 -4,-73.5 616,-73.5 616,4 -4,4"/>
<!-- Node1 -->
<g id="node1" class="node">
<title>Node1</title>
<g id="a_node1"><a xlink:title=" ">
<polygon fill="#bfbfbf" stroke="black" points="0,-22.5 0,-41.5 128,-41.5 128,-22.5 0,-22.5"/>
<text text-anchor="middle" x="64" y="-29.5" font-family="Helvetica,sans-Serif" font-size="10.00">httplib::ClientImpl::Get</text>
</a>
</g>
</g>
<!-- Node2 -->
<g id="node2" class="node">
<title>Node2</title>
<g id="a_node2"><a xlink:href="namespacehttplib.html#aefcf9d8f28e6903e783c9e310a752348" target="_top" xlink:title=" ">
<polygon fill="white" stroke="black" points="166.5,-39 166.5,-69 289.5,-69 289.5,-39 166.5,-39"/>
<text text-anchor="start" x="174.5" y="-57" font-family="Helvetica,sans-Serif" font-size="10.00">httplib::append_query</text>
<text text-anchor="middle" x="228" y="-46" font-family="Helvetica,sans-Serif" font-size="10.00">_params</text>
</a>
</g>
</g>
<!-- Node1&#45;&gt;Node2 -->
<g id="edge1" class="edge">
<title>Node1&#45;&gt;Node2</title>
<path fill="none" stroke="midnightblue" d="M128.1,-40.57C137.36,-41.83 146.96,-43.13 156.36,-44.41"/>
<polygon fill="midnightblue" stroke="midnightblue" points="156.08,-47.9 166.46,-45.78 157.03,-40.97 156.08,-47.9"/>
</g>
<!-- Node5 -->
<g id="node5" class="node">
<title>Node5</title>
<g id="a_node5"><a xlink:href="classhttplib_1_1ClientImpl.html#a7c3402a1b405804efe9f6a4894eceeb1" target="_top" xlink:title=" ">
<polygon fill="white" stroke="black" points="164,-0.5 164,-19.5 292,-19.5 292,-0.5 164,-0.5"/>
<text text-anchor="middle" x="228" y="-7.5" font-family="Helvetica,sans-Serif" font-size="10.00">httplib::ClientImpl::Get</text>
</a>
</g>
</g>
<!-- Node1&#45;&gt;Node5 -->
<g id="edge4" class="edge">
<title>Node1&#45;&gt;Node5</title>
<path fill="none" stroke="midnightblue" d="M128.1,-23.43C136.53,-22.29 145.23,-21.1 153.81,-19.94"/>
<polygon fill="midnightblue" stroke="midnightblue" points="154.37,-23.4 163.81,-18.58 153.43,-16.46 154.37,-23.4"/>
</g>
<!-- Node3 -->
<g id="node3" class="node">
<title>Node3</title>
<g id="a_node3"><a xlink:href="namespacehttplib_1_1detail.html#ab7b74c41eee2905c0d828e5819514a17" target="_top" xlink:title=" ">
<polygon fill="white" stroke="black" points="328,-39 328,-69 453,-69 453,-39 328,-39"/>
<text text-anchor="start" x="336" y="-57" font-family="Helvetica,sans-Serif" font-size="10.00">httplib::detail::params</text>
<text text-anchor="middle" x="390.5" y="-46" font-family="Helvetica,sans-Serif" font-size="10.00">_to_query_str</text>
</a>
</g>
</g>
<!-- Node2&#45;&gt;Node3 -->
<g id="edge2" class="edge">
<title>Node2&#45;&gt;Node3</title>
<path fill="none" stroke="midnightblue" d="M289.68,-54C298.87,-54 308.43,-54 317.83,-54"/>
<polygon fill="midnightblue" stroke="midnightblue" points="317.94,-57.5 327.94,-54 317.94,-50.5 317.94,-57.5"/>
</g>
<!-- Node4 -->
<g id="node4" class="node">
<title>Node4</title>
<g id="a_node4"><a xlink:href="namespacehttplib_1_1detail.html#ac15d5d0e71ad0968279824f83b398b6c" target="_top" xlink:title=" ">
<polygon fill="white" stroke="black" points="489,-39 489,-69 612,-69 612,-39 489,-39"/>
<text text-anchor="start" x="497" y="-57" font-family="Helvetica,sans-Serif" font-size="10.00">httplib::detail::encode</text>
<text text-anchor="middle" x="550.5" y="-46" font-family="Helvetica,sans-Serif" font-size="10.00">_query_param</text>
</a>
</g>
</g>
<!-- Node3&#45;&gt;Node4 -->
<g id="edge3" class="edge">
<title>Node3&#45;&gt;Node4</title>
<path fill="none" stroke="midnightblue" d="M453.04,-54C461.51,-54 470.26,-54 478.88,-54"/>
<polygon fill="midnightblue" stroke="midnightblue" points="478.91,-57.5 488.91,-54 478.91,-50.5 478.91,-57.5"/>
</g>
</g>
</svg>
