<?xml version="1.0" encoding="UTF-8" standalone="no"?>
<!DOCTYPE svg PUBLIC "-//W3C//DTD SVG 1.1//EN"
 "http://www.w3.org/Graphics/SVG/1.1/DTD/svg11.dtd">
<!-- Generated by graphviz version 2.43.0 (0)
 -->
<!-- Title: nlohmann::basic_json::is_number_float Pages: 1 -->
<svg width="553pt" height="192pt"
 viewBox="0.00 0.00 553.00 191.50" xmlns="http://www.w3.org/2000/svg" xmlns:xlink="http://www.w3.org/1999/xlink">
<g id="graph0" class="graph" transform="scale(1 1) rotate(0) translate(4 187.5)">
<title>nlohmann::basic_json::is_number_float</title>
<polygon fill="white" stroke="transparent" points="-4,4 -4,-187.5 549,-187.5 549,4 -4,4"/>
<!-- Node1 -->
<g id="node1" class="node">
<title>Node1</title>
<g id="a_node1"><a xlink:title="return whether value is a floating&#45;point number">
<polygon fill="#bfbfbf" stroke="black" points="423,-55 423,-85 545,-85 545,-55 423,-55"/>
<text text-anchor="start" x="431" y="-73" font-family="Helvetica,sans-Serif" font-size="10.00">nlohmann::basic_json</text>
<text text-anchor="middle" x="484" y="-62" font-family="Helvetica,sans-Serif" font-size="10.00">::is_number_float</text>
</a>
</g>
</g>
<!-- Node2 -->
<g id="node2" class="node">
<title>Node2</title>
<g id="a_node2"><a xlink:href="classnlohmann_1_1basic__json.html#a01e81365c2c6897b39b793530e02aca5" target="_top" xlink:title="get a pointer to the value (floating&#45;point number)">
<polygon fill="white" stroke="black" points="265,-126 265,-156 387,-156 387,-126 265,-126"/>
<text text-anchor="start" x="273" y="-144" font-family="Helvetica,sans-Serif" font-size="10.00">nlohmann::basic_json</text>
<text text-anchor="middle" x="326" y="-133" font-family="Helvetica,sans-Serif" font-size="10.00">::get_impl_ptr</text>
</a>
</g>
</g>
<!-- Node1&#45;&gt;Node2 -->
<g id="edge1" class="edge">
<title>Node1&#45;&gt;Node2</title>
<path fill="none" stroke="midnightblue" d="M443.3,-89.6C426.09,-97.94 405.65,-107.66 387,-116 379.58,-119.32 371.59,-122.75 363.94,-125.96"/>
<polygon fill="midnightblue" stroke="midnightblue" points="445.03,-92.64 452.49,-85.12 441.97,-86.35 445.03,-92.64"/>
</g>
<!-- Node3 -->
<g id="node3" class="node">
<title>Node3</title>
<g id="a_node3"><a xlink:href="classnlohmann_1_1basic__json.html#a2b9852390abb4b1ef5fac6984e2fc0f3" target="_top" xlink:title="return whether value is a number">
<polygon fill="white" stroke="black" points="265,-77 265,-107 387,-107 387,-77 265,-77"/>
<text text-anchor="start" x="273" y="-95" font-family="Helvetica,sans-Serif" font-size="10.00">nlohmann::basic_json</text>
<text text-anchor="middle" x="326" y="-84" font-family="Helvetica,sans-Serif" font-size="10.00">::is_number</text>
</a>
</g>
</g>
<!-- Node1&#45;&gt;Node3 -->
<g id="edge2" class="edge">
<title>Node1&#45;&gt;Node3</title>
<path fill="none" stroke="midnightblue" d="M412.74,-79.91C404.2,-81.11 395.53,-82.34 387.15,-83.52"/>
<polygon fill="midnightblue" stroke="midnightblue" points="413.27,-83.37 422.69,-78.51 412.3,-76.44 413.27,-83.37"/>
</g>
<!-- Node6 -->
<g id="node6" class="node">
<title>Node6</title>
<g id="a_node6"><a xlink:href="unit-inspection_8cpp.html#a7c45242f718e95a5a52e19e456f8e228" target="_top" xlink:title=" ">
<polygon fill="white" stroke="black" points="0,-114.5 0,-133.5 71,-133.5 71,-114.5 0,-114.5"/>
<text text-anchor="middle" x="35.5" y="-121.5" font-family="Helvetica,sans-Serif" font-size="10.00">TEST_CASE</text>
</a>
</g>
</g>
<!-- Node1&#45;&gt;Node6 -->
<g id="edge9" class="edge">
<title>Node1&#45;&gt;Node6</title>
<path fill="none" stroke="midnightblue" d="M412.86,-55.54C335.53,-42.72 208.6,-31.07 107,-67 80.29,-76.45 56.29,-100.79 44.39,-114.41"/>
<polygon fill="midnightblue" stroke="midnightblue" points="412.53,-59.03 422.97,-57.27 413.71,-52.13 412.53,-59.03"/>
</g>
<!-- Node8 -->
<g id="node8" class="node">
<title>Node8</title>
<g id="a_node8"><a xlink:href="is__number__float_8cpp.html#ae66f6b31b5ad750f1fe042a706a4e3d4" target="_top" xlink:title=" ">
<polygon fill="white" stroke="black" points="305.5,-0.5 305.5,-19.5 346.5,-19.5 346.5,-0.5 305.5,-0.5"/>
<text text-anchor="middle" x="326" y="-7.5" font-family="Helvetica,sans-Serif" font-size="10.00">main</text>
</a>
</g>
</g>
<!-- Node1&#45;&gt;Node8 -->
<g id="edge8" class="edge">
<title>Node1&#45;&gt;Node8</title>
<path fill="none" stroke="midnightblue" d="M433.92,-51.12C404.48,-39.8 368.63,-26.01 346.83,-17.63"/>
<polygon fill="midnightblue" stroke="midnightblue" points="433.04,-54.54 443.63,-54.86 435.56,-48 433.04,-54.54"/>
</g>
<!-- Node4 -->
<g id="node4" class="node">
<title>Node4</title>
<g id="a_node4"><a xlink:href="classnlohmann_1_1basic__json.html#a6362b88718eb5c6d4fed6a61eed44b95" target="_top" xlink:title="return whether type is primitive">
<polygon fill="white" stroke="black" points="107,-153 107,-183 229,-183 229,-153 107,-153"/>
<text text-anchor="start" x="115" y="-171" font-family="Helvetica,sans-Serif" font-size="10.00">nlohmann::basic_json</text>
<text text-anchor="middle" x="168" y="-160" font-family="Helvetica,sans-Serif" font-size="10.00">::is_primitive</text>
</a>
</g>
</g>
<!-- Node3&#45;&gt;Node4 -->
<g id="edge3" class="edge">
<title>Node3&#45;&gt;Node4</title>
<path fill="none" stroke="midnightblue" d="M275.25,-111.14C271.75,-112.72 268.3,-114.34 265,-116 248.24,-124.4 245.4,-128.91 229,-138 219.83,-143.08 209.69,-148.3 200.4,-152.93"/>
<polygon fill="midnightblue" stroke="midnightblue" points="276.79,-114.29 284.57,-107.09 274,-107.87 276.79,-114.29"/>
</g>
<!-- Node3&#45;&gt;Node6 -->
<g id="edge7" class="edge">
<title>Node3&#45;&gt;Node6</title>
<path fill="none" stroke="midnightblue" d="M254.76,-101.81C246.09,-102.93 237.34,-104.02 229,-105 173.96,-111.44 109.9,-117.47 71.32,-120.95"/>
<polygon fill="midnightblue" stroke="midnightblue" points="255.41,-105.25 264.87,-100.48 254.5,-98.31 255.41,-105.25"/>
</g>
<!-- Node7 -->
<g id="node7" class="node">
<title>Node7</title>
<g id="a_node7"><a xlink:href="is__number_8cpp.html#ae66f6b31b5ad750f1fe042a706a4e3d4" target="_top" xlink:title=" ">
<polygon fill="white" stroke="black" points="147.5,-76.5 147.5,-95.5 188.5,-95.5 188.5,-76.5 147.5,-76.5"/>
<text text-anchor="middle" x="168" y="-83.5" font-family="Helvetica,sans-Serif" font-size="10.00">main</text>
</a>
</g>
</g>
<!-- Node3&#45;&gt;Node7 -->
<g id="edge6" class="edge">
<title>Node3&#45;&gt;Node7</title>
<path fill="none" stroke="midnightblue" d="M254.48,-89.29C230.46,-88.36 205.49,-87.4 188.78,-86.76"/>
<polygon fill="midnightblue" stroke="midnightblue" points="254.56,-92.79 264.69,-89.68 254.83,-85.8 254.56,-92.79"/>
</g>
<!-- Node5 -->
<g id="node5" class="node">
<title>Node5</title>
<g id="a_node5"><a xlink:href="is__primitive_8cpp.html#ae66f6b31b5ad750f1fe042a706a4e3d4" target="_top" xlink:title=" ">
<polygon fill="white" stroke="black" points="15,-158.5 15,-177.5 56,-177.5 56,-158.5 15,-158.5"/>
<text text-anchor="middle" x="35.5" y="-165.5" font-family="Helvetica,sans-Serif" font-size="10.00">main</text>
</a>
</g>
</g>
<!-- Node4&#45;&gt;Node5 -->
<g id="edge4" class="edge">
<title>Node4&#45;&gt;Node5</title>
<path fill="none" stroke="midnightblue" d="M96.41,-168C81.54,-168 67.05,-168 56.05,-168"/>
<polygon fill="midnightblue" stroke="midnightblue" points="96.72,-171.5 106.72,-168 96.72,-164.5 96.72,-171.5"/>
</g>
<!-- Node4&#45;&gt;Node6 -->
<g id="edge5" class="edge">
<title>Node4&#45;&gt;Node6</title>
<path fill="none" stroke="midnightblue" d="M112.9,-149.76C96.42,-144.2 78.97,-138.32 64.91,-133.58"/>
<polygon fill="midnightblue" stroke="midnightblue" points="111.86,-153.1 122.45,-152.98 114.1,-146.47 111.86,-153.1"/>
</g>
</g>
</svg>
