<?xml version="1.0" encoding="UTF-8" standalone="no"?>
<!DOCTYPE svg PUBLIC "-//W3C//DTD SVG 1.1//EN"
 "http://www.w3.org/Graphics/SVG/1.1/DTD/svg11.dtd">
<!-- Generated by graphviz version 2.43.0 (0)
 -->
<!-- Title: httplib::Server::read_content_with_content_receiver Pages: 1 -->
<svg width="627pt" height="50pt"
 viewBox="0.00 0.00 627.00 50.00" xmlns="http://www.w3.org/2000/svg" xmlns:xlink="http://www.w3.org/1999/xlink">
<g id="graph0" class="graph" transform="scale(1 1) rotate(0) translate(4 46)">
<title>httplib::Server::read_content_with_content_receiver</title>
<polygon fill="white" stroke="transparent" points="-4,4 -4,-46 623,-46 623,4 -4,4"/>
<!-- Node1 -->
<g id="node1" class="node">
<title>Node1</title>
<g id="a_node1"><a xlink:title=" ">
<polygon fill="#bfbfbf" stroke="black" points="492,-0.5 492,-41.5 619,-41.5 619,-0.5 492,-0.5"/>
<text text-anchor="start" x="500" y="-29.5" font-family="Helvetica,sans-Serif" font-size="10.00">httplib::Server::read</text>
<text text-anchor="start" x="500" y="-18.5" font-family="Helvetica,sans-Serif" font-size="10.00">_content_with_content</text>
<text text-anchor="middle" x="555.5" y="-7.5" font-family="Helvetica,sans-Serif" font-size="10.00">_receiver</text>
</a>
</g>
</g>
<!-- Node2 -->
<g id="node2" class="node">
<title>Node2</title>
<g id="a_node2"><a xlink:href="classhttplib_1_1Server.html#affee90a82135504bd0945a22d9bf16f5" target="_top" xlink:title=" ">
<polygon fill="white" stroke="black" points="330,-11.5 330,-30.5 456,-30.5 456,-11.5 330,-11.5"/>
<text text-anchor="middle" x="393" y="-18.5" font-family="Helvetica,sans-Serif" font-size="10.00">httplib::Server::routing</text>
</a>
</g>
</g>
<!-- Node1&#45;&gt;Node2 -->
<g id="edge1" class="edge">
<title>Node1&#45;&gt;Node2</title>
<path fill="none" stroke="midnightblue" d="M481.93,-21C473.3,-21 464.55,-21 456.08,-21"/>
<polygon fill="midnightblue" stroke="midnightblue" points="481.99,-24.5 491.99,-21 481.99,-17.5 481.99,-24.5"/>
</g>
<!-- Node3 -->
<g id="node3" class="node">
<title>Node3</title>
<g id="a_node3"><a xlink:href="classhttplib_1_1Server.html#a4e7c7c79cced3d61082df30b3eb97ed2" target="_top" xlink:title=" ">
<polygon fill="white" stroke="black" points="165,-6 165,-36 294,-36 294,-6 165,-6"/>
<text text-anchor="start" x="173" y="-24" font-family="Helvetica,sans-Serif" font-size="10.00">httplib::Server::process</text>
<text text-anchor="middle" x="229.5" y="-13" font-family="Helvetica,sans-Serif" font-size="10.00">_request</text>
</a>
</g>
</g>
<!-- Node2&#45;&gt;Node3 -->
<g id="edge2" class="edge">
<title>Node2&#45;&gt;Node3</title>
<path fill="none" stroke="midnightblue" d="M319.37,-21C310.94,-21 302.4,-21 294.11,-21"/>
<polygon fill="midnightblue" stroke="midnightblue" points="319.56,-24.5 329.56,-21 319.56,-17.5 319.56,-24.5"/>
</g>
<!-- Node4 -->
<g id="node4" class="node">
<title>Node4</title>
<g id="a_node4"><a xlink:href="classhttplib_1_1Server.html#a28221db99b5a35e45515553fdb9458a0" target="_top" xlink:title=" ">
<polygon fill="white" stroke="black" points="0,-6 0,-36 129,-36 129,-6 0,-6"/>
<text text-anchor="start" x="8" y="-24" font-family="Helvetica,sans-Serif" font-size="10.00">httplib::Server::process</text>
<text text-anchor="middle" x="64.5" y="-13" font-family="Helvetica,sans-Serif" font-size="10.00">_and_close_socket</text>
</a>
</g>
</g>
<!-- Node3&#45;&gt;Node4 -->
<g id="edge3" class="edge">
<title>Node3&#45;&gt;Node4</title>
<path fill="none" stroke="midnightblue" d="M154.31,-21C145.86,-21 137.3,-21 129,-21"/>
<polygon fill="midnightblue" stroke="midnightblue" points="154.55,-24.5 164.55,-21 154.55,-17.5 154.55,-24.5"/>
</g>
</g>
</svg>
