<?xml version="1.0" encoding="UTF-8" standalone="no"?>
<!DOCTYPE svg PUBLIC "-//W3C//DTD SVG 1.1//EN"
 "http://www.w3.org/Graphics/SVG/1.1/DTD/svg11.dtd">
<!-- Generated by graphviz version 2.43.0 (0)
 -->
<!-- Title: DatabaseHandler::ModifyValue Pages: 1 -->
<svg width="1428pt" height="351pt"
 viewBox="0.00 0.00 1428.00 350.62" xmlns="http://www.w3.org/2000/svg" xmlns:xlink="http://www.w3.org/1999/xlink">
<g id="graph0" class="graph" transform="scale(1 1) rotate(0) translate(4 346.62)">
<title>DatabaseHandler::ModifyValue</title>
<polygon fill="white" stroke="transparent" points="-4,4 -4,-346.62 1424,-346.62 1424,4 -4,4"/>
<!-- Node1 -->
<g id="node1" class="node">
<title>Node1</title>
<g id="a_node1"><a xlink:title="Modify the value of the key in the database.">
<polygon fill="#bfbfbf" stroke="black" points="0,-211 0,-230 169,-230 169,-211 0,-211"/>
<text text-anchor="middle" x="84.5" y="-218" font-family="Helvetica,sans-Serif" font-size="10.00">DatabaseHandler::ModifyValue</text>
</a>
</g>
</g>
<!-- Node2 -->
<g id="node2" class="node">
<title>Node2</title>
<g id="a_node2"><a xlink:href="classDatabaseHandler.html#a51bb2f3e9a4c847e65fdccab307a542c" target="_top" xlink:title="Read the data from the database.">
<polygon fill="white" stroke="black" points="205,-233 205,-252 360,-252 360,-233 205,-233"/>
<text text-anchor="middle" x="282.5" y="-240" font-family="Helvetica,sans-Serif" font-size="10.00">DatabaseHandler::ReadData</text>
</a>
</g>
</g>
<!-- Node1&#45;&gt;Node2 -->
<g id="edge1" class="edge">
<title>Node1&#45;&gt;Node2</title>
<path fill="none" stroke="midnightblue" d="M169.19,-229.89C177.72,-230.85 186.39,-231.82 194.94,-232.78"/>
<polygon fill="midnightblue" stroke="midnightblue" points="194.59,-236.27 204.92,-233.9 195.37,-229.31 194.59,-236.27"/>
</g>
<!-- Node6 -->
<g id="node6" class="node">
<title>Node6</title>
<g id="a_node6"><a xlink:href="classDatabaseHandler.html#a2ed186b5456e28d67f44b4c8b350a5ce" target="_top" xlink:title="Save the JSON file data to the database.">
<polygon fill="white" stroke="black" points="205,-192 205,-211 360,-211 360,-192 205,-192"/>
<text text-anchor="middle" x="282.5" y="-199" font-family="Helvetica,sans-Serif" font-size="10.00">DatabaseHandler::SaveData</text>
</a>
</g>
</g>
<!-- Node1&#45;&gt;Node6 -->
<g id="edge5" class="edge">
<title>Node1&#45;&gt;Node6</title>
<path fill="none" stroke="midnightblue" d="M169.19,-212.39C177.72,-211.56 186.39,-210.72 194.94,-209.89"/>
<polygon fill="midnightblue" stroke="midnightblue" points="195.3,-213.37 204.92,-208.92 194.63,-206.41 195.3,-213.37"/>
</g>
<!-- Node3 -->
<g id="node3" class="node">
<title>Node3</title>
<g id="a_node3"><a xlink:href="classnlohmann_1_1basic__json.html#a9286acdc0578fc66e9346323e69fc0e3" target="_top" xlink:title="check the existence of an element in a JSON object">
<polygon fill="white" stroke="black" points="407,-271.5 407,-301.5 529,-301.5 529,-271.5 407,-271.5"/>
<text text-anchor="start" x="415" y="-289.5" font-family="Helvetica,sans-Serif" font-size="10.00">nlohmann::basic_json</text>
<text text-anchor="middle" x="468" y="-278.5" font-family="Helvetica,sans-Serif" font-size="10.00">::contains</text>
</a>
</g>
</g>
<!-- Node2&#45;&gt;Node3 -->
<g id="edge2" class="edge">
<title>Node2&#45;&gt;Node3</title>
<path fill="none" stroke="midnightblue" d="M323.32,-252.05C344.81,-257.2 371.98,-263.72 396.89,-269.69"/>
<polygon fill="midnightblue" stroke="midnightblue" points="396.13,-273.11 406.67,-272.03 397.76,-266.3 396.13,-273.11"/>
</g>
<!-- Node5 -->
<g id="node5" class="node">
<title>Node5</title>
<g id="a_node5"><a xlink:href="classnlohmann_1_1basic__json.html#a6b187a22994c12c8cae0dd5ee99dc85e" target="_top" xlink:title="get special&#45;case overload">
<polygon fill="white" stroke="black" points="396,-233 396,-252 540,-252 540,-233 396,-233"/>
<text text-anchor="middle" x="468" y="-240" font-family="Helvetica,sans-Serif" font-size="10.00">nlohmann::basic_json::get</text>
</a>
</g>
</g>
<!-- Node2&#45;&gt;Node5 -->
<g id="edge4" class="edge">
<title>Node2&#45;&gt;Node5</title>
<path fill="none" stroke="midnightblue" d="M360.26,-242.5C368.64,-242.5 377.19,-242.5 385.62,-242.5"/>
<polygon fill="midnightblue" stroke="midnightblue" points="385.82,-246 395.82,-242.5 385.82,-239 385.82,-246"/>
</g>
<!-- Node4 -->
<g id="node4" class="node">
<title>Node4</title>
<g id="a_node4"><a xlink:href="classnlohmann_1_1basic__json.html#af8f511af124e82e4579f444b4175787c" target="_top" xlink:title="return whether value is an object">
<polygon fill="white" stroke="black" points="590,-271.5 590,-301.5 712,-301.5 712,-271.5 590,-271.5"/>
<text text-anchor="start" x="598" y="-289.5" font-family="Helvetica,sans-Serif" font-size="10.00">nlohmann::basic_json</text>
<text text-anchor="middle" x="651" y="-278.5" font-family="Helvetica,sans-Serif" font-size="10.00">::is_object</text>
</a>
</g>
</g>
<!-- Node3&#45;&gt;Node4 -->
<g id="edge3" class="edge">
<title>Node3&#45;&gt;Node4</title>
<path fill="none" stroke="midnightblue" d="M529.02,-286.5C545.21,-286.5 562.88,-286.5 579.58,-286.5"/>
<polygon fill="midnightblue" stroke="midnightblue" points="579.83,-290 589.83,-286.5 579.83,-283 579.83,-290"/>
</g>
<!-- Node7 -->
<g id="node7" class="node">
<title>Node7</title>
<g id="a_node7"><a xlink:href="classnlohmann_1_1basic__json.html#a50ec80b02d0f3f51130d4abb5d1cfdc5" target="_top" xlink:title="serialization">
<polygon fill="white" stroke="black" points="407,-183.5 407,-213.5 529,-213.5 529,-183.5 407,-183.5"/>
<text text-anchor="start" x="415" y="-201.5" font-family="Helvetica,sans-Serif" font-size="10.00">nlohmann::basic_json</text>
<text text-anchor="middle" x="468" y="-190.5" font-family="Helvetica,sans-Serif" font-size="10.00">::dump</text>
</a>
</g>
</g>
<!-- Node6&#45;&gt;Node7 -->
<g id="edge6" class="edge">
<title>Node6&#45;&gt;Node7</title>
<path fill="none" stroke="midnightblue" d="M360.26,-200.25C372.26,-200.05 384.61,-199.85 396.47,-199.65"/>
<polygon fill="midnightblue" stroke="midnightblue" points="396.79,-203.15 406.73,-199.49 396.68,-196.15 396.79,-203.15"/>
</g>
<!-- Node8 -->
<g id="node8" class="node">
<title>Node8</title>
<g id="a_node8"><a xlink:href="classnlohmann_1_1detail_1_1serializer.html#a95460ebd1a535a543e5a0ec52e00f48b" target="_top" xlink:title="internal implementation of the serialization function">
<polygon fill="white" stroke="black" points="576,-183.5 576,-213.5 726,-213.5 726,-183.5 576,-183.5"/>
<text text-anchor="start" x="584" y="-201.5" font-family="Helvetica,sans-Serif" font-size="10.00">nlohmann::detail::serializer</text>
<text text-anchor="middle" x="651" y="-190.5" font-family="Helvetica,sans-Serif" font-size="10.00">::dump</text>
</a>
</g>
</g>
<!-- Node7&#45;&gt;Node8 -->
<g id="edge7" class="edge">
<title>Node7&#45;&gt;Node8</title>
<path fill="none" stroke="midnightblue" d="M529.02,-198.5C540.76,-198.5 553.27,-198.5 565.63,-198.5"/>
<polygon fill="midnightblue" stroke="midnightblue" points="565.95,-202 575.95,-198.5 565.95,-195 565.95,-202"/>
</g>
<!-- Node9 -->
<g id="node9" class="node">
<title>Node9</title>
<g id="a_node9"><a xlink:href="FuzzerTracePC_8cpp.html#a1f10ac78bd11294b612636121065eb5b" target="_top" xlink:title=" ">
<polygon fill="white" stroke="black" points="1187,-301 1187,-320 1234,-320 1234,-301 1187,-301"/>
<text text-anchor="middle" x="1210.5" y="-308" font-family="Helvetica,sans-Serif" font-size="10.00">assert</text>
</a>
</g>
</g>
<!-- Node8&#45;&gt;Node9 -->
<g id="edge8" class="edge">
<title>Node8&#45;&gt;Node9</title>
<path fill="none" stroke="midnightblue" d="M669.87,-213.87C698.31,-238.21 751.71,-283.42 762,-288.5 897.02,-355.23 948.11,-347.15 1098,-332.5 1124.79,-329.88 1154.68,-323.81 1176.77,-318.71"/>
<polygon fill="midnightblue" stroke="midnightblue" points="1177.71,-322.08 1186.63,-316.37 1176.09,-315.27 1177.71,-322.08"/>
</g>
<!-- Node10 -->
<g id="node10" class="node">
<title>Node10</title>
<g id="a_node10"><a xlink:href="classnlohmann_1_1detail_1_1serializer.html#ac1f8d1165b44149bd8be397dce68ea05" target="_top" xlink:title="dump escaped string">
<polygon fill="white" stroke="black" points="762,-142.5 762,-172.5 912,-172.5 912,-142.5 762,-142.5"/>
<text text-anchor="start" x="770" y="-160.5" font-family="Helvetica,sans-Serif" font-size="10.00">nlohmann::detail::serializer</text>
<text text-anchor="middle" x="837" y="-149.5" font-family="Helvetica,sans-Serif" font-size="10.00">::dump_escaped</text>
</a>
</g>
</g>
<!-- Node8&#45;&gt;Node10 -->
<g id="edge9" class="edge">
<title>Node8&#45;&gt;Node10</title>
<path fill="none" stroke="midnightblue" d="M719.47,-183.47C732.22,-180.62 745.65,-177.63 758.67,-174.73"/>
<polygon fill="midnightblue" stroke="midnightblue" points="759.54,-178.12 768.54,-172.53 758.02,-171.29 759.54,-178.12"/>
</g>
<!-- Node17 -->
<g id="node17" class="node">
<title>Node17</title>
<g id="a_node17"><a xlink:href="classnlohmann_1_1detail_1_1serializer.html#a6d652a3bfa581cf1cd7790d6d11ea52f" target="_top" xlink:title="dump a floating&#45;point number">
<polygon fill="white" stroke="black" points="762,-93.5 762,-123.5 912,-123.5 912,-93.5 762,-93.5"/>
<text text-anchor="start" x="770" y="-111.5" font-family="Helvetica,sans-Serif" font-size="10.00">nlohmann::detail::serializer</text>
<text text-anchor="middle" x="837" y="-100.5" font-family="Helvetica,sans-Serif" font-size="10.00">::dump_float</text>
</a>
</g>
</g>
<!-- Node8&#45;&gt;Node17 -->
<g id="edge18" class="edge">
<title>Node8&#45;&gt;Node17</title>
<path fill="none" stroke="midnightblue" d="M673.94,-183.3C695.58,-168.8 729.97,-147.07 762,-132.5 766.12,-130.62 770.43,-128.83 774.81,-127.12"/>
<polygon fill="midnightblue" stroke="midnightblue" points="776.31,-130.3 784.47,-123.54 773.88,-123.74 776.31,-130.3"/>
</g>
<!-- Node18 -->
<g id="node18" class="node">
<title>Node18</title>
<g id="a_node18"><a xlink:href="classnlohmann_1_1detail_1_1serializer.html#a944f6dea8dbe2961da145d2f62fa2c2f" target="_top" xlink:title="dump an integer">
<polygon fill="white" stroke="black" points="762,-248.5 762,-278.5 912,-278.5 912,-248.5 762,-248.5"/>
<text text-anchor="start" x="770" y="-266.5" font-family="Helvetica,sans-Serif" font-size="10.00">nlohmann::detail::serializer</text>
<text text-anchor="middle" x="837" y="-255.5" font-family="Helvetica,sans-Serif" font-size="10.00">::dump_integer</text>
</a>
</g>
</g>
<!-- Node8&#45;&gt;Node18 -->
<g id="edge19" class="edge">
<title>Node8&#45;&gt;Node18</title>
<path fill="none" stroke="midnightblue" d="M694.68,-213.58C721.17,-222.94 755.42,-235.03 783.56,-244.97"/>
<polygon fill="midnightblue" stroke="midnightblue" points="782.64,-248.36 793.24,-248.39 784.97,-241.76 782.64,-248.36"/>
</g>
<!-- Node10&#45;&gt;Node9 -->
<g id="edge10" class="edge">
<title>Node10&#45;&gt;Node9</title>
<path fill="none" stroke="midnightblue" d="M912.19,-169.94C977.09,-181.56 1065.87,-199.48 1098,-215.5 1137.55,-235.22 1174.79,-271.95 1194.63,-293.51"/>
<polygon fill="midnightblue" stroke="midnightblue" points="1192.05,-295.87 1201.35,-300.96 1197.25,-291.19 1192.05,-295.87"/>
</g>
<!-- Node11 -->
<g id="node11" class="node">
<title>Node11</title>
<g id="a_node11"><a xlink:href="classnlohmann_1_1detail_1_1type__error.html#aecc083aea4b698c33d042670ba50c10f" target="_top" xlink:title=" ">
<polygon fill="white" stroke="black" points="959.5,-98.5 959.5,-128.5 1086.5,-128.5 1086.5,-98.5 959.5,-98.5"/>
<text text-anchor="start" x="967.5" y="-116.5" font-family="Helvetica,sans-Serif" font-size="10.00">nlohmann::detail::type</text>
<text text-anchor="middle" x="1023" y="-105.5" font-family="Helvetica,sans-Serif" font-size="10.00">_error::create</text>
</a>
</g>
</g>
<!-- Node10&#45;&gt;Node11 -->
<g id="edge11" class="edge">
<title>Node10&#45;&gt;Node11</title>
<path fill="none" stroke="midnightblue" d="M900.81,-142.48C916.5,-138.73 933.45,-134.67 949.57,-130.82"/>
<polygon fill="midnightblue" stroke="midnightblue" points="950.56,-134.18 959.48,-128.45 948.94,-127.37 950.56,-134.18"/>
</g>
<!-- Node13 -->
<g id="node13" class="node">
<title>Node13</title>
<g id="a_node13"><a xlink:href="namespacehttplib.html#a498c3a79825ecbcb15c52ec5fcfd5c11" target="_top" xlink:title=" ">
<polygon fill="white" stroke="black" points="1323,-126 1323,-145 1420,-145 1420,-126 1323,-126"/>
<text text-anchor="middle" x="1371.5" y="-133" font-family="Helvetica,sans-Serif" font-size="10.00">httplib::to_string</text>
</a>
</g>
</g>
<!-- Node10&#45;&gt;Node13 -->
<g id="edge17" class="edge">
<title>Node10&#45;&gt;Node13</title>
<path fill="none" stroke="midnightblue" d="M912.04,-154.44C1019.16,-150.02 1215.16,-141.92 1312.49,-137.9"/>
<polygon fill="midnightblue" stroke="midnightblue" points="1312.88,-141.38 1322.72,-137.47 1312.59,-134.39 1312.88,-141.38"/>
</g>
<!-- Node15 -->
<g id="node15" class="node">
<title>Node15</title>
<g id="a_node15"><a xlink:href="classnlohmann_1_1detail_1_1serializer.html#abdcc4fd1dc5d3afb6c0817e4c89b1242" target="_top" xlink:title="check whether a string is UTF&#45;8 encoded">
<polygon fill="white" stroke="black" points="948,-49.5 948,-79.5 1098,-79.5 1098,-49.5 948,-49.5"/>
<text text-anchor="start" x="956" y="-67.5" font-family="Helvetica,sans-Serif" font-size="10.00">nlohmann::detail::serializer</text>
<text text-anchor="middle" x="1023" y="-56.5" font-family="Helvetica,sans-Serif" font-size="10.00">::decode</text>
</a>
</g>
</g>
<!-- Node10&#45;&gt;Node15 -->
<g id="edge15" class="edge">
<title>Node10&#45;&gt;Node15</title>
<path fill="none" stroke="midnightblue" d="M893.8,-142.48C900.2,-139.66 906.42,-136.36 912,-132.5 932.78,-118.12 927.14,-102.75 948,-88.5 950.27,-86.95 952.66,-85.49 955.11,-84.12"/>
<polygon fill="midnightblue" stroke="midnightblue" points="956.89,-87.14 964.28,-79.55 953.77,-80.88 956.89,-87.14"/>
</g>
<!-- Node16 -->
<g id="node16" class="node">
<title>Node16</title>
<g id="a_node16"><a xlink:href="classnlohmann_1_1detail_1_1binary__writer.html#ab77aa48692bd4e64e4f051ce6aeb6d2d" target="_top" xlink:title=" ">
<polygon fill="white" stroke="black" points="955,-0.5 955,-30.5 1091,-30.5 1091,-0.5 955,-0.5"/>
<text text-anchor="start" x="963" y="-18.5" font-family="Helvetica,sans-Serif" font-size="10.00">nlohmann::detail::binary</text>
<text text-anchor="middle" x="1023" y="-7.5" font-family="Helvetica,sans-Serif" font-size="10.00">_writer::to_char_type</text>
</a>
</g>
</g>
<!-- Node10&#45;&gt;Node16 -->
<g id="edge16" class="edge">
<title>Node10&#45;&gt;Node16</title>
<path fill="none" stroke="midnightblue" d="M898.42,-142.35C903.36,-139.6 907.98,-136.34 912,-132.5 944.02,-101.85 915.8,-69.96 948,-39.5 949.13,-38.43 950.32,-37.4 951.54,-36.42"/>
<polygon fill="midnightblue" stroke="midnightblue" points="953.83,-39.1 960.16,-30.6 949.92,-33.3 953.83,-39.1"/>
</g>
<!-- Node12 -->
<g id="node12" class="node">
<title>Node12</title>
<g id="a_node12"><a xlink:href="classnlohmann_1_1detail_1_1exception.html#abf41a7e9178356314082284e6cfea278" target="_top" xlink:title=" ">
<polygon fill="white" stroke="black" points="1134,-98.5 1134,-128.5 1287,-128.5 1287,-98.5 1134,-98.5"/>
<text text-anchor="start" x="1142" y="-116.5" font-family="Helvetica,sans-Serif" font-size="10.00">nlohmann::detail::exception</text>
<text text-anchor="middle" x="1210.5" y="-105.5" font-family="Helvetica,sans-Serif" font-size="10.00">::name</text>
</a>
</g>
</g>
<!-- Node11&#45;&gt;Node12 -->
<g id="edge12" class="edge">
<title>Node11&#45;&gt;Node12</title>
<path fill="none" stroke="midnightblue" d="M1086.54,-113.5C1098.38,-113.5 1110.95,-113.5 1123.36,-113.5"/>
<polygon fill="midnightblue" stroke="midnightblue" points="1123.72,-117 1133.72,-113.5 1123.72,-110 1123.72,-117"/>
</g>
<!-- Node14 -->
<g id="node14" class="node">
<title>Node14</title>
<g id="a_node14"><a xlink:href="classnlohmann_1_1detail_1_1type__error.html#aa01edaa0bf18b853368f0b900e485cd7" target="_top" xlink:title=" ">
<polygon fill="white" stroke="black" points="1147,-49.5 1147,-79.5 1274,-79.5 1274,-49.5 1147,-49.5"/>
<text text-anchor="start" x="1155" y="-67.5" font-family="Helvetica,sans-Serif" font-size="10.00">nlohmann::detail::type</text>
<text text-anchor="middle" x="1210.5" y="-56.5" font-family="Helvetica,sans-Serif" font-size="10.00">_error::type_error</text>
</a>
</g>
</g>
<!-- Node11&#45;&gt;Node14 -->
<g id="edge14" class="edge">
<title>Node11&#45;&gt;Node14</title>
<path fill="none" stroke="midnightblue" d="M1080.92,-98.47C1100.5,-93.29 1122.61,-87.45 1142.9,-82.09"/>
<polygon fill="midnightblue" stroke="midnightblue" points="1143.92,-85.44 1152.69,-79.51 1142.13,-78.68 1143.92,-85.44"/>
</g>
<!-- Node12&#45;&gt;Node13 -->
<g id="edge13" class="edge">
<title>Node12&#45;&gt;Node13</title>
<path fill="none" stroke="midnightblue" d="M1287.27,-123.98C1295.92,-125.18 1304.62,-126.38 1312.97,-127.54"/>
<polygon fill="midnightblue" stroke="midnightblue" points="1312.57,-131.02 1322.96,-128.92 1313.53,-124.08 1312.57,-131.02"/>
</g>
<!-- Node18&#45;&gt;Node9 -->
<g id="edge20" class="edge">
<title>Node18&#45;&gt;Node9</title>
<path fill="none" stroke="midnightblue" d="M863.14,-278.69C884.77,-290.82 917.25,-306.84 948,-313.5 1028.61,-330.96 1126.5,-322.13 1176.55,-315.53"/>
<polygon fill="midnightblue" stroke="midnightblue" points="1177.34,-318.95 1186.77,-314.12 1176.39,-312.02 1177.34,-318.95"/>
</g>
<!-- Node19 -->
<g id="node19" class="node">
<title>Node19</title>
<g id="a_node19"><a xlink:href="classnlohmann_1_1detail_1_1serializer.html#a10692e98ea1f5a64de1d0b8e0e724b99" target="_top" xlink:title="count digits">
<polygon fill="white" stroke="black" points="948,-224.5 948,-254.5 1098,-254.5 1098,-224.5 948,-224.5"/>
<text text-anchor="start" x="956" y="-242.5" font-family="Helvetica,sans-Serif" font-size="10.00">nlohmann::detail::serializer</text>
<text text-anchor="middle" x="1023" y="-231.5" font-family="Helvetica,sans-Serif" font-size="10.00">::count_digits</text>
</a>
</g>
</g>
<!-- Node18&#45;&gt;Node19 -->
<g id="edge21" class="edge">
<title>Node18&#45;&gt;Node19</title>
<path fill="none" stroke="midnightblue" d="M912.04,-253.84C920.51,-252.74 929.19,-251.61 937.78,-250.48"/>
<polygon fill="midnightblue" stroke="midnightblue" points="938.34,-253.94 947.81,-249.18 937.44,-247 938.34,-253.94"/>
</g>
<!-- Node20 -->
<g id="node20" class="node">
<title>Node20</title>
<g id="a_node20"><a xlink:href="classnlohmann_1_1detail_1_1serializer.html#a45bcb8ea41e4db5461e979d4b1d5e5e7" target="_top" xlink:title=" ">
<polygon fill="white" stroke="black" points="948,-273.5 948,-303.5 1098,-303.5 1098,-273.5 948,-273.5"/>
<text text-anchor="start" x="956" y="-291.5" font-family="Helvetica,sans-Serif" font-size="10.00">nlohmann::detail::serializer</text>
<text text-anchor="middle" x="1023" y="-280.5" font-family="Helvetica,sans-Serif" font-size="10.00">::remove_sign</text>
</a>
</g>
</g>
<!-- Node18&#45;&gt;Node20 -->
<g id="edge22" class="edge">
<title>Node18&#45;&gt;Node20</title>
<path fill="none" stroke="midnightblue" d="M912.04,-273.56C920.51,-274.71 929.19,-275.89 937.78,-277.06"/>
<polygon fill="midnightblue" stroke="midnightblue" points="937.43,-280.54 947.81,-278.42 938.37,-273.6 937.43,-280.54"/>
</g>
<!-- Node20&#45;&gt;Node9 -->
<g id="edge23" class="edge">
<title>Node20&#45;&gt;Node9</title>
<path fill="none" stroke="midnightblue" d="M1098.11,-297.29C1125.35,-300.52 1154.81,-304.01 1176.59,-306.6"/>
<polygon fill="midnightblue" stroke="midnightblue" points="1176.28,-310.09 1186.63,-307.79 1177.11,-303.13 1176.28,-310.09"/>
</g>
</g>
</svg>
