<?xml version="1.0" encoding="UTF-8" standalone="no"?>
<!DOCTYPE svg PUBLIC "-//W3C//DTD SVG 1.1//EN"
 "http://www.w3.org/Graphics/SVG/1.1/DTD/svg11.dtd">
<!-- Generated by graphviz version 2.43.0 (0)
 -->
<!-- Title: fuzzer::TraceState::TraceMemcmpCallback Pages: 1 -->
<!--zoomable 378 -->
<svg id="main" version="1.1" xmlns="http://www.w3.org/2000/svg" xmlns:xlink="http://www.w3.org/1999/xlink" xml:space="preserve" onload="init(evt)">
<style type="text/css"><![CDATA[
.edge:hover path { stroke: red; }
.edge:hover polygon { stroke: red; fill: red; }
]]></style>
<script type="text/javascript"><![CDATA[
var edges = document.getElementsByTagName('g');
if (edges && edges.length) {
  for (var i=0;i<edges.length;i++) {
    if (edges[i].id.substr(0,4)=='edge') {
      edges[i].setAttribute('class','edge');
    }
  }
}
]]></script>
        <defs>
                <circle id="rim" cx="0" cy="0" r="7"/>
                <circle id="rim2" cx="0" cy="0" r="3.5"/>
                <g id="zoomPlus">
                        <use xlink:href="#rim" fill="#404040">
                                <set attributeName="fill" to="#808080" begin="zoomplus.mouseover" end="zoomplus.mouseout"/>
                        </use>
                        <path d="M-4,0h8M0,-4v8" fill="none" stroke="white" stroke-width="1.5" pointer-events="none"/>
                </g>
                <g id="zoomMin">
                        <use xlink:href="#rim" fill="#404040">
                                <set attributeName="fill" to="#808080" begin="zoomminus.mouseover" end="zoomminus.mouseout"/>
                        </use>
                        <path d="M-4,0h8" fill="none" stroke="white" stroke-width="1.5" pointer-events="none"/>
                </g>
                <g id="dirArrow">
                        <path fill="none" stroke="white" stroke-width="1.5" d="M0,-3.0v7 M-2.5,-0.5L0,-3.0L2.5,-0.5"/>
                </g>
               <g id="resetDef">
                       <use xlink:href="#rim2" fill="#404040">
                               <set attributeName="fill" to="#808080" begin="reset.mouseover" end="reset.mouseout"/>
                       </use>
               </g>
        </defs>

<script type="text/javascript">
var viewWidth = 711;
var viewHeight = 378;
var sectionId = 'dynsection-10';
</script>
<script xlink:href="svgpan.js"/>
<svg id="graph" class="graph">
<g id="viewport">
<title>fuzzer::TraceState::TraceMemcmpCallback</title>
<polygon fill="white" stroke="transparent" points="-4,4 -4,-374 707,-374 707,4 -4,4"/>
<!-- Node1 -->
<g id="node1" class="node">
<title>Node1</title>
<g id="a_node1"><a xlink:title=" ">
<polygon fill="#bfbfbf" stroke="black" points="0,-257.5 0,-287.5 137,-287.5 137,-257.5 0,-257.5"/>
<text text-anchor="start" x="8" y="-275.5" font-family="Helvetica,sans-Serif" font-size="10.00">fuzzer::TraceState</text>
<text text-anchor="middle" x="68.5" y="-264.5" font-family="Helvetica,sans-Serif" font-size="10.00">::TraceMemcmpCallback</text>
</a>
</g>
</g>
<!-- Node2 -->
<g id="node2" class="node">
<title>Node2</title>
<g id="a_node2"><a xlink:href="classfuzzer_1_1FixedWord.html#a84e8edae6226d23a367c854de3c90a41" target="_top" xlink:title=" ">
<polygon fill="white" stroke="black" points="181,-339.5 181,-369.5 293,-369.5 293,-339.5 181,-339.5"/>
<text text-anchor="start" x="189" y="-357.5" font-family="Helvetica,sans-Serif" font-size="10.00">fuzzer::FixedWord&lt;</text>
<text text-anchor="middle" x="237" y="-346.5" font-family="Helvetica,sans-Serif" font-size="10.00"> 27 &gt;::GetMaxSize</text>
</a>
</g>
</g>
<!-- Node1&#45;&gt;Node2 -->
<g id="edge1" class="edge">
<title>Node1&#45;&gt;Node2</title>
<path fill="none" stroke="midnightblue" d="M99.31,-287.69C119.94,-298.15 148.07,-312.3 173,-324.5 180.04,-327.94 187.54,-331.56 194.83,-335.05"/>
<polygon fill="midnightblue" stroke="midnightblue" points="193.35,-338.22 203.89,-339.37 196.37,-331.9 193.35,-338.22"/>
</g>
<!-- Node3 -->
<g id="node3" class="node">
<title>Node3</title>
<g id="a_node3"><a xlink:href="classfuzzer_1_1Fuzzer.html#a6b8043b43eaa243299df6d64ba8413b6" target="_top" xlink:title=" ">
<polygon fill="white" stroke="black" points="560.5,-210.5 560.5,-240.5 696.5,-240.5 696.5,-210.5 560.5,-210.5"/>
<text text-anchor="start" x="568.5" y="-228.5" font-family="Helvetica,sans-Serif" font-size="10.00">fuzzer::Fuzzer::InFuzzing</text>
<text text-anchor="middle" x="628.5" y="-217.5" font-family="Helvetica,sans-Serif" font-size="10.00">Thread</text>
</a>
</g>
</g>
<!-- Node1&#45;&gt;Node3 -->
<g id="edge2" class="edge">
<title>Node1&#45;&gt;Node3</title>
<path fill="none" stroke="midnightblue" d="M134.05,-287.52C222.5,-305.36 385.47,-328.35 518,-291.5 549.2,-282.82 580.4,-262.6 601.47,-246.81"/>
<polygon fill="midnightblue" stroke="midnightblue" points="603.78,-249.45 609.58,-240.58 599.52,-243.9 603.78,-249.45"/>
</g>
<!-- Node4 -->
<g id="node4" class="node">
<title>Node4</title>
<g id="a_node4"><a xlink:href="namespacefuzzer.html#a9745d98c9dbd0f6cf52f2a71ebf3f778" target="_top" xlink:title=" ">
<polygon fill="white" stroke="black" points="186.5,-263 186.5,-282 287.5,-282 287.5,-263 186.5,-263"/>
<text text-anchor="middle" x="237" y="-270" font-family="Helvetica,sans-Serif" font-size="10.00">fuzzer::PrintASCII</text>
</a>
</g>
</g>
<!-- Node1&#45;&gt;Node4 -->
<g id="edge3" class="edge">
<title>Node1&#45;&gt;Node4</title>
<path fill="none" stroke="midnightblue" d="M137.22,-272.5C150.22,-272.5 163.75,-272.5 176.47,-272.5"/>
<polygon fill="midnightblue" stroke="midnightblue" points="176.47,-276 186.47,-272.5 176.47,-269 176.47,-276"/>
</g>
<!-- Node7 -->
<g id="node7" class="node">
<title>Node7</title>
<g id="a_node7"><a xlink:href="namespacefuzzer.html#afab785891fdb74f8fd33bca421bde935" target="_top" xlink:title=" ">
<polygon fill="white" stroke="black" points="197.5,-225 197.5,-244 276.5,-244 276.5,-225 197.5,-225"/>
<text text-anchor="middle" x="237" y="-232" font-family="Helvetica,sans-Serif" font-size="10.00">fuzzer::Printf</text>
</a>
</g>
</g>
<!-- Node1&#45;&gt;Node7 -->
<g id="edge6" class="edge">
<title>Node1&#45;&gt;Node7</title>
<path fill="none" stroke="midnightblue" d="M135.31,-257.48C152.62,-253.53 170.99,-249.34 187.23,-245.63"/>
<polygon fill="midnightblue" stroke="midnightblue" points="188.06,-249.03 197.04,-243.39 186.51,-242.21 188.06,-249.03"/>
</g>
<!-- Node8 -->
<g id="node8" class="node">
<title>Node8</title>
<g id="a_node8"><a xlink:href="classfuzzer_1_1TraceState.html#acf2bff66ee5368a9ca0d44d2926a5d6c" target="_top" xlink:title=" ">
<polygon fill="white" stroke="black" points="173,-104.5 173,-134.5 301,-134.5 301,-104.5 173,-104.5"/>
<text text-anchor="start" x="181" y="-122.5" font-family="Helvetica,sans-Serif" font-size="10.00">fuzzer::TraceState</text>
<text text-anchor="middle" x="237" y="-111.5" font-family="Helvetica,sans-Serif" font-size="10.00">::TryToAddDesiredData</text>
</a>
</g>
</g>
<!-- Node1&#45;&gt;Node8 -->
<g id="edge7" class="edge">
<title>Node1&#45;&gt;Node8</title>
<path fill="none" stroke="midnightblue" d="M86.07,-257.27C115.62,-230.12 177.5,-173.25 211.81,-141.73"/>
<polygon fill="midnightblue" stroke="midnightblue" points="214.5,-144.01 219.49,-134.67 209.76,-138.86 214.5,-144.01"/>
</g>
<!-- Node5 -->
<g id="node5" class="node">
<title>Node5</title>
<g id="a_node5"><a xlink:href="classfuzzer_1_1FixedWord.html#a14fbd18b5b0868f5d7f2d50a85d0b09e" target="_top" xlink:title=" ">
<polygon fill="white" stroke="black" points="362,-263 362,-282 493,-282 493,-263 362,-263"/>
<text text-anchor="middle" x="427.5" y="-270" font-family="Helvetica,sans-Serif" font-size="10.00">fuzzer::FixedWord::data</text>
</a>
</g>
</g>
<!-- Node4&#45;&gt;Node5 -->
<g id="edge4" class="edge">
<title>Node4&#45;&gt;Node5</title>
<path fill="none" stroke="midnightblue" d="M287.53,-272.5C307.11,-272.5 330.05,-272.5 351.59,-272.5"/>
<polygon fill="midnightblue" stroke="midnightblue" points="351.69,-276 361.69,-272.5 351.69,-269 351.69,-276"/>
</g>
<!-- Node6 -->
<g id="node6" class="node">
<title>Node6</title>
<g id="a_node6"><a xlink:href="classfuzzer_1_1FixedWord.html#a97ffcbd9ec743adabd6bdf85f0911e53" target="_top" xlink:title=" ">
<polygon fill="white" stroke="black" points="363,-225 363,-244 492,-244 492,-225 363,-225"/>
<text text-anchor="middle" x="427.5" y="-232" font-family="Helvetica,sans-Serif" font-size="10.00">fuzzer::FixedWord::size</text>
</a>
</g>
</g>
<!-- Node4&#45;&gt;Node6 -->
<g id="edge5" class="edge">
<title>Node4&#45;&gt;Node6</title>
<path fill="none" stroke="midnightblue" d="M285.57,-262.91C311,-257.78 342.5,-251.43 369.27,-246.04"/>
<polygon fill="midnightblue" stroke="midnightblue" points="370.16,-249.43 379.28,-244.02 368.78,-242.57 370.16,-249.43"/>
</g>
<!-- Node9 -->
<g id="node9" class="node">
<title>Node9</title>
<g id="a_node9"><a xlink:href="classfuzzer_1_1TraceState.html#a3cfaba51f138339caf55beb176fd25d2" target="_top" xlink:title=" ">
<polygon fill="white" stroke="black" points="375.5,-175.5 375.5,-205.5 479.5,-205.5 479.5,-175.5 375.5,-175.5"/>
<text text-anchor="start" x="383.5" y="-193.5" font-family="Helvetica,sans-Serif" font-size="10.00">fuzzer::TraceState</text>
<text text-anchor="middle" x="427.5" y="-182.5" font-family="Helvetica,sans-Serif" font-size="10.00">::AddMutation</text>
</a>
</g>
</g>
<!-- Node8&#45;&gt;Node9 -->
<g id="edge8" class="edge">
<title>Node8&#45;&gt;Node9</title>
<path fill="none" stroke="midnightblue" d="M267.36,-134.68C286.78,-144.33 313,-156.64 337,-165.5 346.19,-168.89 356.06,-172.09 365.77,-174.98"/>
<polygon fill="midnightblue" stroke="midnightblue" points="364.82,-178.35 375.4,-177.77 366.77,-171.62 364.82,-178.35"/>
</g>
<!-- Node10 -->
<g id="node10" class="node">
<title>Node10</title>
<g id="a_node10"><a xlink:href="FuzzerTracePC_8cpp.html#a1f10ac78bd11294b612636121065eb5b" target="_top" xlink:title=" ">
<polygon fill="white" stroke="black" points="605,-88 605,-107 652,-107 652,-88 605,-88"/>
<text text-anchor="middle" x="628.5" y="-95" font-family="Helvetica,sans-Serif" font-size="10.00">assert</text>
</a>
</g>
</g>
<!-- Node8&#45;&gt;Node10 -->
<g id="edge9" class="edge">
<title>Node8&#45;&gt;Node10</title>
<path fill="none" stroke="midnightblue" d="M301.01,-115.94C384.84,-111.21 529.96,-103.01 594.69,-99.35"/>
<polygon fill="midnightblue" stroke="midnightblue" points="594.94,-102.84 604.73,-98.79 594.55,-95.86 594.94,-102.84"/>
</g>
<!-- Node11 -->
<g id="node11" class="node">
<title>Node11</title>
<g id="a_node11"><a xlink:href="classfuzzer_1_1Fuzzer.html#af1d13fc1411234ad0cb2b10175d71141" target="_top" xlink:title=" ">
<polygon fill="white" stroke="black" points="356,-126.5 356,-156.5 499,-156.5 499,-126.5 356,-126.5"/>
<text text-anchor="start" x="364" y="-144.5" font-family="Helvetica,sans-Serif" font-size="10.00">fuzzer::Fuzzer::GetCurrent</text>
<text text-anchor="middle" x="427.5" y="-133.5" font-family="Helvetica,sans-Serif" font-size="10.00">UnitInFuzzingThead</text>
</a>
</g>
</g>
<!-- Node8&#45;&gt;Node11 -->
<g id="edge10" class="edge">
<title>Node8&#45;&gt;Node11</title>
<path fill="none" stroke="midnightblue" d="M301.03,-126.86C315.29,-128.52 330.63,-130.31 345.51,-132.05"/>
<polygon fill="midnightblue" stroke="midnightblue" points="345.39,-135.56 355.73,-133.24 346.2,-128.6 345.39,-135.56"/>
</g>
<!-- Node12 -->
<g id="node12" class="node">
<title>Node12</title>
<g id="a_node12"><a xlink:href="namespacefuzzer.html#a9b4934ed79a55b68a755460b14bca579" target="_top" xlink:title=" ">
<polygon fill="white" stroke="black" points="364.5,-50 364.5,-69 490.5,-69 490.5,-50 364.5,-50"/>
<text text-anchor="middle" x="427.5" y="-57" font-family="Helvetica,sans-Serif" font-size="10.00">fuzzer::SearchMemory</text>
</a>
</g>
</g>
<!-- Node8&#45;&gt;Node12 -->
<g id="edge13" class="edge">
<title>Node8&#45;&gt;Node12</title>
<path fill="none" stroke="midnightblue" d="M277.23,-104.34C295.31,-97.59 317.12,-89.77 337,-83.5 350.2,-79.34 364.65,-75.26 378,-71.68"/>
<polygon fill="midnightblue" stroke="midnightblue" points="379.19,-74.99 387.96,-69.05 377.4,-68.22 379.19,-74.99"/>
</g>
<!-- Node13 -->
<g id="node13" class="node">
<title>Node13</title>
<g id="a_node13"><a xlink:href="classfuzzer_1_1TraceState.html#a6271f1ea9d8d46b0dc542f25dd89dc3b" target="_top" xlink:title=" ">
<polygon fill="white" stroke="black" points="337,-0.5 337,-30.5 518,-30.5 518,-0.5 337,-0.5"/>
<text text-anchor="start" x="345" y="-18.5" font-family="Helvetica,sans-Serif" font-size="10.00">fuzzer::TraceState</text>
<text text-anchor="middle" x="427.5" y="-7.5" font-family="Helvetica,sans-Serif" font-size="10.00">::WantToHandleOneMoreMutation</text>
</a>
</g>
</g>
<!-- Node8&#45;&gt;Node13 -->
<g id="edge14" class="edge">
<title>Node8&#45;&gt;Node13</title>
<path fill="none" stroke="midnightblue" d="M253.07,-104.19C271.37,-86.43 303.92,-57.43 337,-40.5 341.55,-38.17 346.35,-36.04 351.26,-34.08"/>
<polygon fill="midnightblue" stroke="midnightblue" points="352.64,-37.3 360.81,-30.54 350.21,-30.74 352.64,-37.3"/>
</g>
<!-- Node11&#45;&gt;Node3 -->
<g id="edge12" class="edge">
<title>Node11&#45;&gt;Node3</title>
<path fill="none" stroke="midnightblue" d="M492.2,-156.56C500.97,-159.22 509.79,-162.2 518,-165.5 545.11,-176.38 574.02,-192.43 595.32,-205.19"/>
<polygon fill="midnightblue" stroke="midnightblue" points="593.59,-208.24 603.96,-210.44 597.23,-202.25 593.59,-208.24"/>
</g>
<!-- Node11&#45;&gt;Node10 -->
<g id="edge11" class="edge">
<title>Node11&#45;&gt;Node10</title>
<path fill="none" stroke="midnightblue" d="M496.43,-126.48C529.63,-119.14 568.06,-110.64 594.69,-104.76"/>
<polygon fill="midnightblue" stroke="midnightblue" points="595.62,-108.13 604.63,-102.56 594.11,-101.3 595.62,-108.13"/>
</g>
<!-- Node13&#45;&gt;Node10 -->
<g id="edge15" class="edge">
<title>Node13&#45;&gt;Node10</title>
<path fill="none" stroke="midnightblue" d="M489.24,-30.63C498.97,-33.57 508.85,-36.88 518,-40.5 548.21,-52.43 581.03,-70.22 602.78,-82.74"/>
<polygon fill="midnightblue" stroke="midnightblue" points="601.27,-85.91 611.67,-87.92 604.79,-79.86 601.27,-85.91"/>
</g>
<!-- Node14 -->
<g id="node14" class="node">
<title>Node14</title>
<g id="a_node14"><a xlink:href="classfuzzer_1_1MutationDispatcher.html#a22242737e63376b4ab6c22210c42c8ab" target="_top" xlink:title=" ">
<polygon fill="white" stroke="black" points="554,-0.5 554,-30.5 703,-30.5 703,-0.5 554,-0.5"/>
<text text-anchor="start" x="562" y="-18.5" font-family="Helvetica,sans-Serif" font-size="10.00">fuzzer::MutationDispatcher</text>
<text text-anchor="middle" x="628.5" y="-7.5" font-family="Helvetica,sans-Serif" font-size="10.00">::GetRand</text>
</a>
</g>
</g>
<!-- Node13&#45;&gt;Node14 -->
<g id="edge16" class="edge">
<title>Node13&#45;&gt;Node14</title>
<path fill="none" stroke="midnightblue" d="M518.1,-15.5C526.61,-15.5 535.22,-15.5 543.67,-15.5"/>
<polygon fill="midnightblue" stroke="midnightblue" points="543.88,-19 553.88,-15.5 543.88,-12 543.88,-19"/>
</g>
</g>
</svg>
        <g id="navigator" transform="translate(0 0)" fill="#404254">
                <rect fill="#f2f5e9" fill-opacity="0.5" stroke="#606060" stroke-width=".5" x="0" y="0" width="60" height="60"/>
                <use id="zoomplus" xlink:href="#zoomPlus" x="17" y="9" onmousedown="handleZoom(evt,'in')"/>
                <use id="zoomminus" xlink:href="#zoomMin" x="42" y="9" onmousedown="handleZoom(evt,'out')"/>
                <use id="reset" xlink:href="#resetDef" x="30" y="36" onmousedown="handleReset()"/>
                <g id="arrowUp" xlink:href="#dirArrow" transform="translate(30 24)" onmousedown="handlePan(0,-1)">
                  <use xlink:href="#rim" fill="#404040">
                        <set attributeName="fill" to="#808080" begin="arrowUp.mouseover" end="arrowUp.mouseout"/>
                  </use>
                  <path fill="none" stroke="white" stroke-width="1.5" d="M0,-3.0v7 M-2.5,-0.5L0,-3.0L2.5,-0.5"/>
                </g>
                <g id="arrowRight" xlink:href="#dirArrow" transform="rotate(90) translate(36 -43)" onmousedown="handlePan(1,0)">
                  <use xlink:href="#rim" fill="#404040">
                        <set attributeName="fill" to="#808080" begin="arrowRight.mouseover" end="arrowRight.mouseout"/>
                  </use>
                  <path fill="none" stroke="white" stroke-width="1.5" d="M0,-3.0v7 M-2.5,-0.5L0,-3.0L2.5,-0.5"/>
                </g>
                <g id="arrowDown" xlink:href="#dirArrow" transform="rotate(180) translate(-30 -48)" onmousedown="handlePan(0,1)">
                  <use xlink:href="#rim" fill="#404040">
                        <set attributeName="fill" to="#808080" begin="arrowDown.mouseover" end="arrowDown.mouseout"/>
                  </use>
                  <path fill="none" stroke="white" stroke-width="1.5" d="M0,-3.0v7 M-2.5,-0.5L0,-3.0L2.5,-0.5"/>
                </g>
                <g id="arrowLeft" xlink:href="#dirArrow" transform="rotate(270) translate(-36 17)" onmousedown="handlePan(-1,0)">
                  <use xlink:href="#rim" fill="#404040">
                        <set attributeName="fill" to="#808080" begin="arrowLeft.mouseover" end="arrowLeft.mouseout"/>
                  </use>
                  <path fill="none" stroke="white" stroke-width="1.5" d="M0,-3.0v7 M-2.5,-0.5L0,-3.0L2.5,-0.5"/>
                </g>
        </g>
        <svg viewBox="0 0 15 15" width="100%" height="30px" preserveAspectRatio="xMaxYMin meet">
         <g id="arrow_out" transform="scale(0.3 0.3)">
          <a xlink:href="classfuzzer_1_1TraceState_a19ca7e78b3705def9767cef2d55d04ca_cgraph_org.svg" target="_base">
           <rect id="button" ry="5" rx="5" y="6" x="6" height="38" width="38"
                fill="#f2f5e9" fill-opacity="0.5" stroke="#606060" stroke-width="1.0"/>
           <path id="arrow"
             d="M 11.500037,31.436501 C 11.940474,20.09759 22.043105,11.32322 32.158766,21.979434 L 37.068811,17.246167 C 37.068811,17.246167 37.088388,32 37.088388,32 L 22.160133,31.978069 C 22.160133,31.978069 26.997745,27.140456 26.997745,27.140456 C 18.528582,18.264221 13.291696,25.230495 11.500037,31.436501 z"
             style="fill:#404040;"/>
          </a>
         </g>
        </svg>
</svg>
