<?xml version="1.0" encoding="UTF-8" standalone="no"?>
<!DOCTYPE svg PUBLIC "-//W3C//DTD SVG 1.1//EN"
 "http://www.w3.org/Graphics/SVG/1.1/DTD/svg11.dtd">
<!-- Generated by graphviz version 2.43.0 (0)
 -->
<!-- Title: nlohmann::detail::output_stream_adapter&lt; CharType &gt; Pages: 1 -->
<svg width="328pt" height="493pt"
 viewBox="0.00 0.00 328.00 493.00" xmlns="http://www.w3.org/2000/svg" xmlns:xlink="http://www.w3.org/1999/xlink">
<g id="graph0" class="graph" transform="scale(1 1) rotate(0) translate(4 489)">
<title>nlohmann::detail::output_stream_adapter&lt; CharType &gt;</title>
<polygon fill="white" stroke="transparent" points="-4,4 -4,-489 324,-489 324,4 -4,4"/>
<!-- Node1 -->
<g id="node1" class="node">
<title>Node1</title>
<g id="a_node1"><a xlink:title="output adapter for output streams">
<polygon fill="#bfbfbf" stroke="black" points="18.5,-0.5 18.5,-123.5 185.5,-123.5 185.5,-0.5 18.5,-0.5"/>
<text text-anchor="start" x="26.5" y="-111.5" font-family="Helvetica,sans-Serif" font-size="10.00">nlohmann::detail::output</text>
<text text-anchor="middle" x="102" y="-100.5" font-family="Helvetica,sans-Serif" font-size="10.00">_stream_adapter&lt; CharType &gt;</text>
<polyline fill="none" stroke="black" points="18.5,-93.5 185.5,-93.5 "/>
<text text-anchor="middle" x="102" y="-81.5" font-family="Helvetica,sans-Serif" font-size="10.00"> </text>
<polyline fill="none" stroke="black" points="18.5,-74.5 185.5,-74.5 "/>
<text text-anchor="start" x="26.5" y="-62.5" font-family="Helvetica,sans-Serif" font-size="10.00">+ output_stream_adapter()</text>
<text text-anchor="start" x="26.5" y="-51.5" font-family="Helvetica,sans-Serif" font-size="10.00">+ write_character()</text>
<text text-anchor="start" x="26.5" y="-40.5" font-family="Helvetica,sans-Serif" font-size="10.00">+ write_characters()</text>
<text text-anchor="start" x="26.5" y="-29.5" font-family="Helvetica,sans-Serif" font-size="10.00">+ output_stream_adapter()</text>
<text text-anchor="start" x="26.5" y="-18.5" font-family="Helvetica,sans-Serif" font-size="10.00">+ write_character()</text>
<text text-anchor="start" x="26.5" y="-7.5" font-family="Helvetica,sans-Serif" font-size="10.00">+ write_characters()</text>
</a>
</g>
</g>
<!-- Node2 -->
<g id="node2" class="node">
<title>Node2</title>
<g id="a_node2"><a xlink:href="structnlohmann_1_1detail_1_1output__adapter__protocol.html" target="_top" xlink:title="abstract output adapter interface">
<polygon fill="white" stroke="black" points="0,-171.5 0,-294.5 172,-294.5 172,-171.5 0,-171.5"/>
<text text-anchor="start" x="8" y="-282.5" font-family="Helvetica,sans-Serif" font-size="10.00">nlohmann::detail::output</text>
<text text-anchor="middle" x="86" y="-271.5" font-family="Helvetica,sans-Serif" font-size="10.00">_adapter_protocol&lt; CharType &gt;</text>
<polyline fill="none" stroke="black" points="0,-264.5 172,-264.5 "/>
<text text-anchor="middle" x="86" y="-252.5" font-family="Helvetica,sans-Serif" font-size="10.00"> </text>
<polyline fill="none" stroke="black" points="0,-245.5 172,-245.5 "/>
<text text-anchor="start" x="8" y="-233.5" font-family="Helvetica,sans-Serif" font-size="10.00">+ write_character()</text>
<text text-anchor="start" x="8" y="-222.5" font-family="Helvetica,sans-Serif" font-size="10.00">+ write_characters()</text>
<text text-anchor="start" x="8" y="-211.5" font-family="Helvetica,sans-Serif" font-size="10.00">+ ~output_adapter_protocol()</text>
<text text-anchor="start" x="8" y="-200.5" font-family="Helvetica,sans-Serif" font-size="10.00">+ write_character()</text>
<text text-anchor="start" x="8" y="-189.5" font-family="Helvetica,sans-Serif" font-size="10.00">+ write_characters()</text>
<text text-anchor="start" x="8" y="-178.5" font-family="Helvetica,sans-Serif" font-size="10.00">+ ~output_adapter_protocol()</text>
</a>
</g>
</g>
<!-- Node2&#45;&gt;Node1 -->
<g id="edge1" class="edge">
<title>Node2&#45;&gt;Node1</title>
<path fill="none" stroke="midnightblue" d="M92.67,-161.5C93.86,-148.93 95.09,-135.94 96.26,-123.68"/>
<polygon fill="none" stroke="midnightblue" points="89.19,-161.18 91.73,-171.46 96.16,-161.84 89.19,-161.18"/>
</g>
<!-- Node3 -->
<g id="node3" class="node">
<title>Node3</title>
<g id="a_node3"><a xlink:title=" ">
<polygon fill="white" stroke="#bfbfbf" points="190.5,-199 190.5,-267 299.5,-267 299.5,-199 190.5,-199"/>
<text text-anchor="start" x="198.5" y="-255" font-family="Helvetica,sans-Serif" font-size="10.00">std::basic_ostream</text>
<text text-anchor="middle" x="245" y="-244" font-family="Helvetica,sans-Serif" font-size="10.00">&lt; CharType &gt;</text>
<polyline fill="none" stroke="#bfbfbf" points="190.5,-237 299.5,-237 "/>
<text text-anchor="middle" x="245" y="-225" font-family="Helvetica,sans-Serif" font-size="10.00"> </text>
<polyline fill="none" stroke="#bfbfbf" points="190.5,-218 299.5,-218 "/>
<text text-anchor="middle" x="245" y="-206" font-family="Helvetica,sans-Serif" font-size="10.00"> </text>
</a>
</g>
</g>
<!-- Node3&#45;&gt;Node1 -->
<g id="edge2" class="edge">
<title>Node3&#45;&gt;Node1</title>
<path fill="none" stroke="#404040" d="M216.75,-198.61C200.87,-179.84 180.42,-155.68 161.2,-132.97"/>
<polygon fill="none" stroke="#404040" points="161.1,-132.84 154.17,-130.85 153.35,-123.68 160.27,-125.68 161.1,-132.84"/>
<text text-anchor="middle" x="198" y="-145" font-family="Helvetica,sans-Serif" font-size="10.00"> &#45;stream</text>
</g>
<!-- Node4 -->
<g id="node4" class="node">
<title>Node4</title>
<g id="a_node4"><a xlink:title="STL class.">
<polygon fill="white" stroke="#bfbfbf" points="170,-332.5 170,-389.5 320,-389.5 320,-332.5 170,-332.5"/>
<text text-anchor="middle" x="245" y="-377.5" font-family="Helvetica,sans-Serif" font-size="10.00">std::basic_ios&lt; CharType &gt;</text>
<polyline fill="none" stroke="#bfbfbf" points="170,-370.5 320,-370.5 "/>
<text text-anchor="middle" x="245" y="-358.5" font-family="Helvetica,sans-Serif" font-size="10.00"> </text>
<polyline fill="none" stroke="#bfbfbf" points="170,-351.5 320,-351.5 "/>
<text text-anchor="middle" x="245" y="-339.5" font-family="Helvetica,sans-Serif" font-size="10.00"> </text>
</a>
</g>
</g>
<!-- Node4&#45;&gt;Node3 -->
<g id="edge3" class="edge">
<title>Node4&#45;&gt;Node3</title>
<path fill="none" stroke="midnightblue" d="M245,-321.98C245,-304.6 245,-284.19 245,-267.41"/>
<polygon fill="none" stroke="midnightblue" points="241.5,-322.35 245,-332.35 248.5,-322.35 241.5,-322.35"/>
</g>
<!-- Node5 -->
<g id="node5" class="node">
<title>Node5</title>
<g id="a_node5"><a xlink:title="STL class.">
<polygon fill="white" stroke="#bfbfbf" points="205,-427.5 205,-484.5 285,-484.5 285,-427.5 205,-427.5"/>
<text text-anchor="middle" x="245" y="-472.5" font-family="Helvetica,sans-Serif" font-size="10.00">std::ios_base</text>
<polyline fill="none" stroke="#bfbfbf" points="205,-465.5 285,-465.5 "/>
<text text-anchor="middle" x="245" y="-453.5" font-family="Helvetica,sans-Serif" font-size="10.00"> </text>
<polyline fill="none" stroke="#bfbfbf" points="205,-446.5 285,-446.5 "/>
<text text-anchor="middle" x="245" y="-434.5" font-family="Helvetica,sans-Serif" font-size="10.00"> </text>
</a>
</g>
</g>
<!-- Node5&#45;&gt;Node4 -->
<g id="edge4" class="edge">
<title>Node5&#45;&gt;Node4</title>
<path fill="none" stroke="midnightblue" d="M245,-417.24C245,-408.03 245,-398.35 245,-389.71"/>
<polygon fill="none" stroke="midnightblue" points="241.5,-417.35 245,-427.35 248.5,-417.35 241.5,-417.35"/>
</g>
</g>
</svg>
