<?xml version="1.0" encoding="UTF-8" standalone="no"?>
<!DOCTYPE svg PUBLIC "-//W3C//DTD SVG 1.1//EN"
 "http://www.w3.org/Graphics/SVG/1.1/DTD/svg11.dtd">
<!-- Generated by graphviz version 2.43.0 (0)
 -->
<!-- Title: nlohmann::detail::lexer::skip_bom Pages: 1 -->
<svg width="409pt" height="78pt"
 viewBox="0.00 0.00 409.00 77.50" xmlns="http://www.w3.org/2000/svg" xmlns:xlink="http://www.w3.org/1999/xlink">
<g id="graph0" class="graph" transform="scale(1 1) rotate(0) translate(4 73.5)">
<title>nlohmann::detail::lexer::skip_bom</title>
<polygon fill="white" stroke="transparent" points="-4,4 -4,-73.5 405,-73.5 405,4 -4,4"/>
<!-- Node1 -->
<g id="node1" class="node">
<title>Node1</title>
<g id="a_node1"><a xlink:title="skip the UTF&#45;8 byte order mark">
<polygon fill="#bfbfbf" stroke="black" points="0,-22.5 0,-52.5 130,-52.5 130,-22.5 0,-22.5"/>
<text text-anchor="start" x="8" y="-40.5" font-family="Helvetica,sans-Serif" font-size="10.00">nlohmann::detail::lexer</text>
<text text-anchor="middle" x="65" y="-29.5" font-family="Helvetica,sans-Serif" font-size="10.00">::skip_bom</text>
</a>
</g>
</g>
<!-- Node2 -->
<g id="node2" class="node">
<title>Node2</title>
<g id="a_node2"><a xlink:href="classnlohmann_1_1detail_1_1lexer.html#a901e45a34e1fb1d97ab62350b0c3ef26" target="_top" xlink:title=" ">
<polygon fill="white" stroke="black" points="166,-50 166,-69 318,-69 318,-50 166,-50"/>
<text text-anchor="middle" x="242" y="-57" font-family="Helvetica,sans-Serif" font-size="10.00">nlohmann::detail::lexer::get</text>
</a>
</g>
</g>
<!-- Node1&#45;&gt;Node2 -->
<g id="edge1" class="edge">
<title>Node1&#45;&gt;Node2</title>
<path fill="none" stroke="midnightblue" d="M130.17,-45.57C138.51,-46.62 147.16,-47.7 155.78,-48.79"/>
<polygon fill="midnightblue" stroke="midnightblue" points="155.51,-52.28 165.87,-50.05 156.38,-45.33 155.51,-52.28"/>
</g>
<!-- Node3 -->
<g id="node3" class="node">
<title>Node3</title>
<g id="a_node3"><a xlink:href="classnlohmann_1_1detail_1_1lexer.html#a626f145768762057dc68a4666eb577db" target="_top" xlink:title="unget current character (read it again on next get)">
<polygon fill="white" stroke="black" points="177,-0.5 177,-30.5 307,-30.5 307,-0.5 177,-0.5"/>
<text text-anchor="start" x="185" y="-18.5" font-family="Helvetica,sans-Serif" font-size="10.00">nlohmann::detail::lexer</text>
<text text-anchor="middle" x="242" y="-7.5" font-family="Helvetica,sans-Serif" font-size="10.00">::unget</text>
</a>
</g>
</g>
<!-- Node1&#45;&gt;Node3 -->
<g id="edge2" class="edge">
<title>Node1&#45;&gt;Node3</title>
<path fill="none" stroke="midnightblue" d="M130.17,-29.43C142.06,-27.94 154.57,-26.37 166.73,-24.84"/>
<polygon fill="midnightblue" stroke="midnightblue" points="167.35,-28.29 176.84,-23.57 166.48,-21.34 167.35,-28.29"/>
</g>
<!-- Node4 -->
<g id="node4" class="node">
<title>Node4</title>
<g id="a_node4"><a xlink:href="FuzzerTracePC_8cpp.html#a1f10ac78bd11294b612636121065eb5b" target="_top" xlink:title=" ">
<polygon fill="white" stroke="black" points="354,-6 354,-25 401,-25 401,-6 354,-6"/>
<text text-anchor="middle" x="377.5" y="-13" font-family="Helvetica,sans-Serif" font-size="10.00">assert</text>
</a>
</g>
</g>
<!-- Node3&#45;&gt;Node4 -->
<g id="edge3" class="edge">
<title>Node3&#45;&gt;Node4</title>
<path fill="none" stroke="midnightblue" d="M307.01,-15.5C319.79,-15.5 332.71,-15.5 343.87,-15.5"/>
<polygon fill="midnightblue" stroke="midnightblue" points="343.99,-19 353.99,-15.5 343.99,-12 343.99,-19"/>
</g>
</g>
</svg>
