<?xml version="1.0" encoding="UTF-8" standalone="no"?>
<!DOCTYPE svg PUBLIC "-//W3C//DTD SVG 1.1//EN"
 "http://www.w3.org/Graphics/SVG/1.1/DTD/svg11.dtd">
<!-- Generated by graphviz version 2.43.0 (0)
 -->
<!-- Title: nlohmann::detail::iter_impl::set_end Pages: 1 -->
<svg width="315pt" height="78pt"
 viewBox="0.00 0.00 315.00 77.50" xmlns="http://www.w3.org/2000/svg" xmlns:xlink="http://www.w3.org/1999/xlink">
<g id="graph0" class="graph" transform="scale(1 1) rotate(0) translate(4 73.5)">
<title>nlohmann::detail::iter_impl::set_end</title>
<polygon fill="white" stroke="transparent" points="-4,4 -4,-73.5 311,-73.5 311,4 -4,4"/>
<!-- Node1 -->
<g id="node1" class="node">
<title>Node1</title>
<g id="a_node1"><a xlink:title="set the iterator past the last value">
<polygon fill="#bfbfbf" stroke="black" points="0,-22.5 0,-52.5 122,-52.5 122,-22.5 0,-22.5"/>
<text text-anchor="start" x="8" y="-40.5" font-family="Helvetica,sans-Serif" font-size="10.00">nlohmann::detail::iter</text>
<text text-anchor="middle" x="61" y="-29.5" font-family="Helvetica,sans-Serif" font-size="10.00">_impl::set_end</text>
</a>
</g>
</g>
<!-- Node2 -->
<g id="node2" class="node">
<title>Node2</title>
<g id="a_node2"><a xlink:href="FuzzerTracePC_8cpp.html#a1f10ac78bd11294b612636121065eb5b" target="_top" xlink:title=" ">
<polygon fill="white" stroke="black" points="209,-50 209,-69 256,-69 256,-50 209,-50"/>
<text text-anchor="middle" x="232.5" y="-57" font-family="Helvetica,sans-Serif" font-size="10.00">assert</text>
</a>
</g>
</g>
<!-- Node1&#45;&gt;Node2 -->
<g id="edge1" class="edge">
<title>Node1&#45;&gt;Node2</title>
<path fill="none" stroke="midnightblue" d="M122.24,-45.32C148.08,-48.67 177.24,-52.46 198.94,-55.27"/>
<polygon fill="midnightblue" stroke="midnightblue" points="198.58,-58.76 208.94,-56.57 199.48,-51.81 198.58,-58.76"/>
</g>
<!-- Node3 -->
<g id="node3" class="node">
<title>Node3</title>
<g id="a_node3"><a xlink:href="classnlohmann_1_1detail_1_1primitive__iterator__t.html#ad26a823483846a12d890c3feed3097eb" target="_top" xlink:title="set iterator to a defined past the end">
<polygon fill="white" stroke="black" points="158,-0.5 158,-30.5 307,-30.5 307,-0.5 158,-0.5"/>
<text text-anchor="start" x="166" y="-18.5" font-family="Helvetica,sans-Serif" font-size="10.00">nlohmann::detail::primitive</text>
<text text-anchor="middle" x="232.5" y="-7.5" font-family="Helvetica,sans-Serif" font-size="10.00">_iterator_t::set_end</text>
</a>
</g>
</g>
<!-- Node1&#45;&gt;Node3 -->
<g id="edge2" class="edge">
<title>Node1&#45;&gt;Node3</title>
<path fill="none" stroke="midnightblue" d="M122.24,-29.68C130.51,-28.61 139.13,-27.49 147.73,-26.37"/>
<polygon fill="midnightblue" stroke="midnightblue" points="148.34,-29.82 157.8,-25.07 147.44,-22.88 148.34,-29.82"/>
</g>
</g>
</svg>
