<?xml version="1.0" encoding="UTF-8" standalone="no"?>
<!DOCTYPE svg PUBLIC "-//W3C//DTD SVG 1.1//EN"
 "http://www.w3.org/Graphics/SVG/1.1/DTD/svg11.dtd">
<!-- Generated by graphviz version 2.43.0 (0)
 -->
<!-- Title: httplib::detail::nocompressor Pages: 1 -->
<svg width="165pt" height="182pt"
 viewBox="0.00 0.00 165.00 182.00" xmlns="http://www.w3.org/2000/svg" xmlns:xlink="http://www.w3.org/1999/xlink">
<g id="graph0" class="graph" transform="scale(1 1) rotate(0) translate(4 178)">
<title>httplib::detail::nocompressor</title>
<polygon fill="white" stroke="transparent" points="-4,4 -4,-178 161,-178 161,4 -4,4"/>
<!-- Node1 -->
<g id="node1" class="node">
<title>Node1</title>
<g id="a_node1"><a xlink:title=" ">
<polygon fill="#bfbfbf" stroke="black" points="0,-0.5 0,-68.5 157,-68.5 157,-0.5 0,-0.5"/>
<text text-anchor="middle" x="78.5" y="-56.5" font-family="Helvetica,sans-Serif" font-size="10.00">httplib::detail::nocompressor</text>
<polyline fill="none" stroke="black" points="0,-49.5 157,-49.5 "/>
<text text-anchor="middle" x="78.5" y="-37.5" font-family="Helvetica,sans-Serif" font-size="10.00"> </text>
<polyline fill="none" stroke="black" points="0,-30.5 157,-30.5 "/>
<text text-anchor="start" x="8" y="-18.5" font-family="Helvetica,sans-Serif" font-size="10.00">+ ~nocompressor()</text>
<text text-anchor="start" x="8" y="-7.5" font-family="Helvetica,sans-Serif" font-size="10.00">+ compress()</text>
</a>
</g>
</g>
<!-- Node2 -->
<g id="node2" class="node">
<title>Node2</title>
<g id="a_node2"><a xlink:href="classhttplib_1_1detail_1_1compressor.html" target="_top" xlink:title=" ">
<polygon fill="white" stroke="black" points="6,-105.5 6,-173.5 151,-173.5 151,-105.5 6,-105.5"/>
<text text-anchor="middle" x="78.5" y="-161.5" font-family="Helvetica,sans-Serif" font-size="10.00">httplib::detail::compressor</text>
<polyline fill="none" stroke="black" points="6,-154.5 151,-154.5 "/>
<text text-anchor="middle" x="78.5" y="-142.5" font-family="Helvetica,sans-Serif" font-size="10.00"> </text>
<polyline fill="none" stroke="black" points="6,-135.5 151,-135.5 "/>
<text text-anchor="start" x="14" y="-123.5" font-family="Helvetica,sans-Serif" font-size="10.00">+ ~compressor()</text>
<text text-anchor="start" x="14" y="-112.5" font-family="Helvetica,sans-Serif" font-size="10.00">+ compress()</text>
</a>
</g>
</g>
<!-- Node2&#45;&gt;Node1 -->
<g id="edge1" class="edge">
<title>Node2&#45;&gt;Node1</title>
<path fill="none" stroke="midnightblue" d="M78.5,-95.14C78.5,-86.26 78.5,-77.04 78.5,-68.59"/>
<polygon fill="none" stroke="midnightblue" points="75,-95.34 78.5,-105.34 82,-95.34 75,-95.34"/>
</g>
</g>
</svg>
