<?xml version="1.0" encoding="UTF-8" standalone="no"?>
<!DOCTYPE svg PUBLIC "-//W3C//DTD SVG 1.1//EN"
 "http://www.w3.org/Graphics/SVG/1.1/DTD/svg11.dtd">
<!-- Generated by graphviz version 2.43.0 (0)
 -->
<!-- Title: nlohmann::json_pointer::array_index Pages: 1 -->
<svg width="480pt" height="298pt"
 viewBox="0.00 0.00 480.00 297.50" xmlns="http://www.w3.org/2000/svg" xmlns:xlink="http://www.w3.org/1999/xlink">
<g id="graph0" class="graph" transform="scale(1 1) rotate(0) translate(4 293.5)">
<title>nlohmann::json_pointer::array_index</title>
<polygon fill="white" stroke="transparent" points="-4,4 -4,-293.5 476,-293.5 476,4 -4,4"/>
<!-- Node1 -->
<g id="node1" class="node">
<title>Node1</title>
<g id="a_node1"><a xlink:title=" ">
<polygon fill="#bfbfbf" stroke="black" points="341,-136 341,-166 472,-166 472,-136 341,-136"/>
<text text-anchor="start" x="349" y="-154" font-family="Helvetica,sans-Serif" font-size="10.00">nlohmann::json_pointer</text>
<text text-anchor="middle" x="406.5" y="-143" font-family="Helvetica,sans-Serif" font-size="10.00">::array_index</text>
</a>
</g>
</g>
<!-- Node2 -->
<g id="node2" class="node">
<title>Node2</title>
<g id="a_node2"><a xlink:href="classnlohmann_1_1json__pointer.html#a90d38e45e2d3add52d824bc55da8f772" target="_top" xlink:title=" ">
<polygon fill="white" stroke="black" points="174,-259 174,-289 305,-289 305,-259 174,-259"/>
<text text-anchor="start" x="182" y="-277" font-family="Helvetica,sans-Serif" font-size="10.00">nlohmann::json_pointer</text>
<text text-anchor="middle" x="239.5" y="-266" font-family="Helvetica,sans-Serif" font-size="10.00">::contains</text>
</a>
</g>
</g>
<!-- Node1&#45;&gt;Node2 -->
<g id="edge1" class="edge">
<title>Node1&#45;&gt;Node2</title>
<path fill="none" stroke="midnightblue" d="M387.2,-173.98C368.55,-196.07 337.79,-229.12 305,-250 299.76,-253.34 293.99,-256.31 288.11,-258.93"/>
<polygon fill="midnightblue" stroke="midnightblue" points="390.05,-176.02 393.73,-166.09 384.65,-171.56 390.05,-176.02"/>
</g>
<!-- Node4 -->
<g id="node4" class="node">
<title>Node4</title>
<g id="a_node4"><a xlink:href="classnlohmann_1_1json__pointer.html#a583c726016f440ffe65553935c101ff5" target="_top" xlink:title="create and return a reference to the pointed to value">
<polygon fill="white" stroke="black" points="174,-210 174,-240 305,-240 305,-210 174,-210"/>
<text text-anchor="start" x="182" y="-228" font-family="Helvetica,sans-Serif" font-size="10.00">nlohmann::json_pointer</text>
<text text-anchor="middle" x="239.5" y="-217" font-family="Helvetica,sans-Serif" font-size="10.00">::get_and_create</text>
</a>
</g>
</g>
<!-- Node1&#45;&gt;Node4 -->
<g id="edge3" class="edge">
<title>Node1&#45;&gt;Node4</title>
<path fill="none" stroke="midnightblue" d="M368.2,-170.73C349.46,-180.34 326.26,-191.79 305,-201 297.98,-204.04 290.44,-207.06 283.08,-209.88"/>
<polygon fill="midnightblue" stroke="midnightblue" points="370.01,-173.74 377.29,-166.04 366.8,-167.52 370.01,-173.74"/>
</g>
<!-- Node5 -->
<g id="node5" class="node">
<title>Node5</title>
<g id="a_node5"><a xlink:href="classnlohmann_1_1json__pointer.html#a366d68a67e40d86676d3bdb52e167294" target="_top" xlink:title=" ">
<polygon fill="white" stroke="black" points="174,-161 174,-191 305,-191 305,-161 174,-161"/>
<text text-anchor="start" x="182" y="-179" font-family="Helvetica,sans-Serif" font-size="10.00">nlohmann::json_pointer</text>
<text text-anchor="middle" x="239.5" y="-168" font-family="Helvetica,sans-Serif" font-size="10.00">::get_checked</text>
</a>
</g>
</g>
<!-- Node1&#45;&gt;Node5 -->
<g id="edge4" class="edge">
<title>Node1&#45;&gt;Node5</title>
<path fill="none" stroke="midnightblue" d="M330.76,-162.32C322.18,-163.62 313.48,-164.94 305.05,-166.22"/>
<polygon fill="midnightblue" stroke="midnightblue" points="331.4,-165.77 340.76,-160.81 330.35,-158.85 331.4,-165.77"/>
</g>
<!-- Node8 -->
<g id="node8" class="node">
<title>Node8</title>
<g id="a_node8"><a xlink:href="classnlohmann_1_1json__pointer.html#a577512ee6b7f030e8872b4d29fa5c3e5" target="_top" xlink:title="return a reference to the pointed to value">
<polygon fill="white" stroke="black" points="174,-112 174,-142 305,-142 305,-112 174,-112"/>
<text text-anchor="start" x="182" y="-130" font-family="Helvetica,sans-Serif" font-size="10.00">nlohmann::json_pointer</text>
<text text-anchor="middle" x="239.5" y="-119" font-family="Helvetica,sans-Serif" font-size="10.00">::get_unchecked</text>
</a>
</g>
</g>
<!-- Node1&#45;&gt;Node8 -->
<g id="edge7" class="edge">
<title>Node1&#45;&gt;Node8</title>
<path fill="none" stroke="midnightblue" d="M330.76,-140.13C322.18,-138.88 313.48,-137.62 305.05,-136.39"/>
<polygon fill="midnightblue" stroke="midnightblue" points="330.36,-143.61 340.76,-141.58 331.37,-136.68 330.36,-143.61"/>
</g>
<!-- Node10 -->
<g id="node10" class="node">
<title>Node10</title>
<g id="a_node10"><a xlink:href="classnlohmann_1_1json__pointer.html#a64c8401529131bad1e486d91d703795f" target="_top" xlink:title="append an array index at the end of this JSON pointer">
<polygon fill="white" stroke="black" points="174,-63 174,-93 305,-93 305,-63 174,-63"/>
<text text-anchor="start" x="182" y="-81" font-family="Helvetica,sans-Serif" font-size="10.00">nlohmann::json_pointer</text>
<text text-anchor="middle" x="239.5" y="-70" font-family="Helvetica,sans-Serif" font-size="10.00">::operator/=</text>
</a>
</g>
</g>
<!-- Node1&#45;&gt;Node10 -->
<g id="edge9" class="edge">
<title>Node1&#45;&gt;Node10</title>
<path fill="none" stroke="midnightblue" d="M366.43,-131.49C347.96,-122.49 325.5,-111.85 305,-103 297.17,-99.62 288.72,-96.19 280.6,-93"/>
<polygon fill="midnightblue" stroke="midnightblue" points="364.91,-134.64 375.43,-135.9 367.99,-128.36 364.91,-134.64"/>
</g>
<!-- Node11 -->
<g id="node11" class="node">
<title>Node11</title>
<g id="a_node11"><a xlink:href="classnlohmann_1_1basic__json.html#a81e0c41a4a9dff4df2f6973f7f8b2a83" target="_top" xlink:title="applies a JSON patch">
<polygon fill="white" stroke="black" points="178.5,-14 178.5,-44 300.5,-44 300.5,-14 178.5,-14"/>
<text text-anchor="start" x="186.5" y="-32" font-family="Helvetica,sans-Serif" font-size="10.00">nlohmann::basic_json</text>
<text text-anchor="middle" x="239.5" y="-21" font-family="Helvetica,sans-Serif" font-size="10.00">::patch</text>
</a>
</g>
</g>
<!-- Node1&#45;&gt;Node11 -->
<g id="edge10" class="edge">
<title>Node1&#45;&gt;Node11</title>
<path fill="none" stroke="midnightblue" d="M386.84,-127.9C368.13,-106.03 337.5,-73.58 305,-53 299.75,-49.68 293.97,-46.71 288.1,-44.1"/>
<polygon fill="midnightblue" stroke="midnightblue" points="384.29,-130.31 393.4,-135.71 389.65,-125.81 384.29,-130.31"/>
</g>
<!-- Node3 -->
<g id="node3" class="node">
<title>Node3</title>
<g id="a_node3"><a xlink:href="classnlohmann_1_1basic__json.html#ab23b04802eb9da97dc3f664e54e09cb3" target="_top" xlink:title="check the existence of an element in a JSON object given a JSON pointer">
<polygon fill="white" stroke="black" points="8,-259 8,-289 130,-289 130,-259 8,-259"/>
<text text-anchor="start" x="16" y="-277" font-family="Helvetica,sans-Serif" font-size="10.00">nlohmann::basic_json</text>
<text text-anchor="middle" x="69" y="-266" font-family="Helvetica,sans-Serif" font-size="10.00">::contains</text>
</a>
</g>
</g>
<!-- Node2&#45;&gt;Node3 -->
<g id="edge2" class="edge">
<title>Node2&#45;&gt;Node3</title>
<path fill="none" stroke="midnightblue" d="M163.61,-274C152.38,-274 140.93,-274 130.07,-274"/>
<polygon fill="midnightblue" stroke="midnightblue" points="163.84,-277.5 173.84,-274 163.84,-270.5 163.84,-277.5"/>
</g>
<!-- Node6 -->
<g id="node6" class="node">
<title>Node6</title>
<g id="a_node6"><a xlink:href="classnlohmann_1_1basic__json.html#a8ab61397c10f18b305520da7073b2b45" target="_top" xlink:title="access specified element via JSON Pointer">
<polygon fill="white" stroke="black" points="0,-210.5 0,-229.5 138,-229.5 138,-210.5 0,-210.5"/>
<text text-anchor="middle" x="69" y="-217.5" font-family="Helvetica,sans-Serif" font-size="10.00">nlohmann::basic_json::at</text>
</a>
</g>
</g>
<!-- Node5&#45;&gt;Node6 -->
<g id="edge5" class="edge">
<title>Node5&#45;&gt;Node6</title>
<path fill="none" stroke="midnightblue" d="M171.28,-193.55C149.15,-199.33 125.38,-205.54 106.43,-210.49"/>
<polygon fill="midnightblue" stroke="midnightblue" points="172.19,-196.93 180.98,-191.02 170.42,-190.16 172.19,-196.93"/>
</g>
<!-- Node7 -->
<g id="node7" class="node">
<title>Node7</title>
<g id="a_node7"><a xlink:href="classnlohmann_1_1basic__json.html#a671aea68432ecb28770bbc482918f023" target="_top" xlink:title="access specified object element via JSON Pointer with default value">
<polygon fill="white" stroke="black" points="8,-161 8,-191 130,-191 130,-161 8,-161"/>
<text text-anchor="start" x="16" y="-179" font-family="Helvetica,sans-Serif" font-size="10.00">nlohmann::basic_json</text>
<text text-anchor="middle" x="69" y="-168" font-family="Helvetica,sans-Serif" font-size="10.00">::value</text>
</a>
</g>
</g>
<!-- Node5&#45;&gt;Node7 -->
<g id="edge6" class="edge">
<title>Node5&#45;&gt;Node7</title>
<path fill="none" stroke="midnightblue" d="M163.61,-176C152.38,-176 140.93,-176 130.07,-176"/>
<polygon fill="midnightblue" stroke="midnightblue" points="163.84,-179.5 173.84,-176 163.84,-172.5 163.84,-179.5"/>
</g>
<!-- Node9 -->
<g id="node9" class="node">
<title>Node9</title>
<g id="a_node9"><a xlink:href="classnlohmann_1_1basic__json.html#ac6946dffeb3be5aa173645f0467a44b3" target="_top" xlink:title="access specified element via JSON Pointer">
<polygon fill="white" stroke="black" points="8,-112 8,-142 130,-142 130,-112 8,-112"/>
<text text-anchor="start" x="16" y="-130" font-family="Helvetica,sans-Serif" font-size="10.00">nlohmann::basic_json</text>
<text text-anchor="middle" x="69" y="-119" font-family="Helvetica,sans-Serif" font-size="10.00">::operator[]</text>
</a>
</g>
</g>
<!-- Node8&#45;&gt;Node9 -->
<g id="edge8" class="edge">
<title>Node8&#45;&gt;Node9</title>
<path fill="none" stroke="midnightblue" d="M163.61,-127C152.38,-127 140.93,-127 130.07,-127"/>
<polygon fill="midnightblue" stroke="midnightblue" points="163.84,-130.5 173.84,-127 163.84,-123.5 163.84,-130.5"/>
</g>
<!-- Node12 -->
<g id="node12" class="node">
<title>Node12</title>
<g id="a_node12"><a xlink:href="diff_8cpp.html#ae66f6b31b5ad750f1fe042a706a4e3d4" target="_top" xlink:title=" ">
<polygon fill="white" stroke="black" points="48.5,-38.5 48.5,-57.5 89.5,-57.5 89.5,-38.5 48.5,-38.5"/>
<text text-anchor="middle" x="69" y="-45.5" font-family="Helvetica,sans-Serif" font-size="10.00">main</text>
</a>
</g>
</g>
<!-- Node11&#45;&gt;Node12 -->
<g id="edge11" class="edge">
<title>Node11&#45;&gt;Node12</title>
<path fill="none" stroke="midnightblue" d="M167.84,-36.97C139.53,-40.16 109.13,-43.59 89.86,-45.76"/>
<polygon fill="midnightblue" stroke="midnightblue" points="168.6,-40.4 178.14,-35.81 167.81,-33.45 168.6,-40.4"/>
</g>
<!-- Node13 -->
<g id="node13" class="node">
<title>Node13</title>
<g id="a_node13"><a xlink:href="unit-json__patch_8cpp.html#a58658ae29d75546f62ea0ceb24fd3b20" target="_top" xlink:title=" ">
<polygon fill="white" stroke="black" points="33.5,-0.5 33.5,-19.5 104.5,-19.5 104.5,-0.5 33.5,-0.5"/>
<text text-anchor="middle" x="69" y="-7.5" font-family="Helvetica,sans-Serif" font-size="10.00">TEST_CASE</text>
</a>
</g>
</g>
<!-- Node11&#45;&gt;Node13 -->
<g id="edge12" class="edge">
<title>Node11&#45;&gt;Node13</title>
<path fill="none" stroke="midnightblue" d="M167.93,-21.04C146.19,-18.59 123.2,-16 104.96,-13.94"/>
<polygon fill="midnightblue" stroke="midnightblue" points="167.81,-24.55 178.14,-22.19 168.6,-17.6 167.81,-24.55"/>
</g>
</g>
</svg>
