<?xml version="1.0" encoding="UTF-8" standalone="no"?>
<!DOCTYPE svg PUBLIC "-//W3C//DTD SVG 1.1//EN"
 "http://www.w3.org/Graphics/SVG/1.1/DTD/svg11.dtd">
<!-- Generated by graphviz version 2.43.0 (0)
 -->
<!-- Title: nlohmann::detail::binary_reader::get_ubjson_object Pages: 1 -->
<!--zoomable 778 -->
<svg id="main" version="1.1" xmlns="http://www.w3.org/2000/svg" xmlns:xlink="http://www.w3.org/1999/xlink" xml:space="preserve" onload="init(evt)">
<style type="text/css"><![CDATA[
.edge:hover path { stroke: red; }
.edge:hover polygon { stroke: red; fill: red; }
]]></style>
<script type="text/javascript"><![CDATA[
var edges = document.getElementsByTagName('g');
if (edges && edges.length) {
  for (var i=0;i<edges.length;i++) {
    if (edges[i].id.substr(0,4)=='edge') {
      edges[i].setAttribute('class','edge');
    }
  }
}
]]></script>
        <defs>
                <circle id="rim" cx="0" cy="0" r="7"/>
                <circle id="rim2" cx="0" cy="0" r="3.5"/>
                <g id="zoomPlus">
                        <use xlink:href="#rim" fill="#404040">
                                <set attributeName="fill" to="#808080" begin="zoomplus.mouseover" end="zoomplus.mouseout"/>
                        </use>
                        <path d="M-4,0h8M0,-4v8" fill="none" stroke="white" stroke-width="1.5" pointer-events="none"/>
                </g>
                <g id="zoomMin">
                        <use xlink:href="#rim" fill="#404040">
                                <set attributeName="fill" to="#808080" begin="zoomminus.mouseover" end="zoomminus.mouseout"/>
                        </use>
                        <path d="M-4,0h8" fill="none" stroke="white" stroke-width="1.5" pointer-events="none"/>
                </g>
                <g id="dirArrow">
                        <path fill="none" stroke="white" stroke-width="1.5" d="M0,-3.0v7 M-2.5,-0.5L0,-3.0L2.5,-0.5"/>
                </g>
               <g id="resetDef">
                       <use xlink:href="#rim2" fill="#404040">
                               <set attributeName="fill" to="#808080" begin="reset.mouseover" end="reset.mouseout"/>
                       </use>
               </g>
        </defs>

<script type="text/javascript">
var viewWidth = 1788;
var viewHeight = 778;
var sectionId = 'dynsection-44';
</script>
<script xlink:href="svgpan.js"/>
<svg id="graph" class="graph">
<g id="viewport">
<title>nlohmann::detail::binary_reader::get_ubjson_object</title>
<polygon fill="white" stroke="transparent" points="-4,4 -4,-774 1784,-774 1784,4 -4,4"/>
<!-- Node1 -->
<g id="node1" class="node">
<title>Node1</title>
<g id="a_node1"><a xlink:title=" ">
<polygon fill="#bfbfbf" stroke="black" points="0,-467 0,-497 148,-497 148,-467 0,-467"/>
<text text-anchor="start" x="8" y="-485" font-family="Helvetica,sans-Serif" font-size="10.00">nlohmann::detail::binary</text>
<text text-anchor="middle" x="74" y="-474" font-family="Helvetica,sans-Serif" font-size="10.00">_reader::get_ubjson_object</text>
</a>
</g>
</g>
<!-- Node2 -->
<g id="node2" class="node">
<title>Node2</title>
<g id="a_node2"><a xlink:href="classnlohmann_1_1detail_1_1binary__reader.html#a11a145292c1cc44656c34a6aef38759c" target="_top" xlink:title=" ">
<polygon fill="white" stroke="black" points="953,-638 953,-668 1093,-668 1093,-638 953,-638"/>
<text text-anchor="start" x="961" y="-656" font-family="Helvetica,sans-Serif" font-size="10.00">nlohmann::detail::binary</text>
<text text-anchor="middle" x="1023" y="-645" font-family="Helvetica,sans-Serif" font-size="10.00">_reader::get_ignore_noop</text>
</a>
</g>
</g>
<!-- Node1&#45;&gt;Node2 -->
<g id="edge1" class="edge">
<title>Node1&#45;&gt;Node2</title>
<path fill="none" stroke="midnightblue" d="M83.68,-497.08C119.06,-556.34 258.86,-770 435.5,-770 435.5,-770 435.5,-770 628.5,-770 763.62,-770 914.42,-705.83 983.57,-672.54"/>
<polygon fill="midnightblue" stroke="midnightblue" points="985.32,-675.58 992.77,-668.06 982.25,-669.29 985.32,-675.58"/>
</g>
<!-- Node4 -->
<g id="node4" class="node">
<title>Node4</title>
<g id="a_node4"><a xlink:href="classnlohmann_1_1detail_1_1binary__reader.html#a4eae4604064b5dfe6d04e42ffc9e0753" target="_top" xlink:title="determine the type and size for a container">
<polygon fill="white" stroke="black" points="545.5,-477 545.5,-507 709.5,-507 709.5,-477 545.5,-477"/>
<text text-anchor="start" x="553.5" y="-495" font-family="Helvetica,sans-Serif" font-size="10.00">nlohmann::detail::binary</text>
<text text-anchor="middle" x="627.5" y="-484" font-family="Helvetica,sans-Serif" font-size="10.00">_reader::get_ubjson_size_type</text>
</a>
</g>
</g>
<!-- Node1&#45;&gt;Node4 -->
<g id="edge3" class="edge">
<title>Node1&#45;&gt;Node4</title>
<path fill="none" stroke="midnightblue" d="M148.23,-483.33C248.01,-485.14 426.61,-488.38 535.06,-490.34"/>
<polygon fill="midnightblue" stroke="midnightblue" points="535.27,-493.85 545.33,-490.53 535.4,-486.85 535.27,-493.85"/>
</g>
<!-- Node16 -->
<g id="node16" class="node">
<title>Node16</title>
<g id="a_node16"><a xlink:href="classnlohmann_1_1detail_1_1binary__reader.html#a2e01eab458020d18c975e8df55b20eca" target="_top" xlink:title="reads a UBJSON string">
<polygon fill="white" stroke="black" points="759,-257 759,-287 905,-287 905,-257 759,-257"/>
<text text-anchor="start" x="767" y="-275" font-family="Helvetica,sans-Serif" font-size="10.00">nlohmann::detail::binary</text>
<text text-anchor="middle" x="832" y="-264" font-family="Helvetica,sans-Serif" font-size="10.00">_reader::get_ubjson_string</text>
</a>
</g>
</g>
<!-- Node1&#45;&gt;Node16 -->
<g id="edge26" class="edge">
<title>Node1&#45;&gt;Node16</title>
<path fill="none" stroke="midnightblue" d="M90.27,-466.76C130.8,-427.39 246.17,-322.27 365,-278 492.42,-230.53 653.36,-242.8 748.91,-256.83"/>
<polygon fill="midnightblue" stroke="midnightblue" points="748.39,-260.29 758.8,-258.32 749.44,-253.37 748.39,-260.29"/>
</g>
<!-- Node18 -->
<g id="node18" class="node">
<title>Node18</title>
<g id="a_node18"><a xlink:href="classnlohmann_1_1detail_1_1binary__reader.html#a5f425199a77f403e32f076ff8487f853" target="_top" xlink:title=" ">
<polygon fill="white" stroke="black" points="184,-423 184,-453 329,-453 329,-423 184,-423"/>
<text text-anchor="start" x="192" y="-441" font-family="Helvetica,sans-Serif" font-size="10.00">nlohmann::detail::binary</text>
<text text-anchor="middle" x="256.5" y="-430" font-family="Helvetica,sans-Serif" font-size="10.00">_reader::get_ubjson_value</text>
</a>
</g>
</g>
<!-- Node1&#45;&gt;Node18 -->
<g id="edge36" class="edge">
<title>Node1&#45;&gt;Node18</title>
<path fill="none" stroke="midnightblue" d="M113.72,-466.9C131.34,-461.77 152.89,-456.16 173.83,-451.19"/>
<polygon fill="midnightblue" stroke="midnightblue" points="174.77,-454.56 183.71,-448.88 173.18,-447.74 174.77,-454.56"/>
</g>
<!-- Node20 -->
<g id="node20" class="node">
<title>Node20</title>
<g id="a_node20"><a xlink:href="classnlohmann_1_1detail_1_1binary__reader.html#af60c6bba6f1301cb02e0186c99e25751" target="_top" xlink:title=" ">
<polygon fill="white" stroke="black" points="544,-673 544,-703 711,-703 711,-673 544,-673"/>
<text text-anchor="start" x="552" y="-691" font-family="Helvetica,sans-Serif" font-size="10.00">nlohmann::detail::binary</text>
<text text-anchor="middle" x="627.5" y="-680" font-family="Helvetica,sans-Serif" font-size="10.00">_reader::parse_ubjson_internal</text>
</a>
</g>
</g>
<!-- Node1&#45;&gt;Node20 -->
<g id="edge52" class="edge">
<title>Node1&#45;&gt;Node20</title>
<path fill="none" stroke="midnightblue" d="M110.47,-497.05C164.88,-519.97 272.38,-564.58 365,-599 435.04,-625.02 516.69,-652.34 569.87,-669.73"/>
<polygon fill="midnightblue" stroke="midnightblue" points="568.87,-673.09 579.46,-672.86 571.04,-666.43 568.87,-673.09"/>
</g>
<!-- Node3 -->
<g id="node3" class="node">
<title>Node3</title>
<g id="a_node3"><a xlink:href="classnlohmann_1_1detail_1_1binary__reader.html#af70e7d5f19a2ee196e24f58acf579411" target="_top" xlink:title="get next character from the input">
<polygon fill="white" stroke="black" points="1129,-367 1129,-397 1265,-397 1265,-367 1129,-367"/>
<text text-anchor="start" x="1137" y="-385" font-family="Helvetica,sans-Serif" font-size="10.00">nlohmann::detail::binary</text>
<text text-anchor="middle" x="1197" y="-374" font-family="Helvetica,sans-Serif" font-size="10.00">_reader::get</text>
</a>
</g>
</g>
<!-- Node2&#45;&gt;Node3 -->
<g id="edge2" class="edge">
<title>Node2&#45;&gt;Node3</title>
<path fill="none" stroke="midnightblue" d="M1033.74,-637.65C1062.36,-592.56 1146.34,-460.25 1180.89,-405.81"/>
<polygon fill="midnightblue" stroke="midnightblue" points="1183.96,-407.5 1186.37,-397.18 1178.05,-403.75 1183.96,-407.5"/>
</g>
<!-- Node4&#45;&gt;Node2 -->
<g id="edge13" class="edge">
<title>Node4&#45;&gt;Node2</title>
<path fill="none" stroke="midnightblue" d="M641.39,-507.13C661.53,-529.74 702.75,-572.02 747,-594 780.87,-610.82 874.41,-628.89 943.03,-640.53"/>
<polygon fill="midnightblue" stroke="midnightblue" points="942.52,-643.99 952.96,-642.2 943.68,-637.09 942.52,-643.99"/>
</g>
<!-- Node4&#45;&gt;Node3 -->
<g id="edge12" class="edge">
<title>Node4&#45;&gt;Node3</title>
<path fill="none" stroke="midnightblue" d="M709.65,-494.91C823.87,-497.91 1025.65,-498.95 1093,-472 1127.99,-458 1159.19,-426.76 1177.84,-405.04"/>
<polygon fill="midnightblue" stroke="midnightblue" points="1180.64,-407.16 1184.36,-397.24 1175.26,-402.67 1180.64,-407.16"/>
</g>
<!-- Node5 -->
<g id="node5" class="node">
<title>Node5</title>
<g id="a_node5"><a xlink:href="classnlohmann_1_1detail_1_1parse__error.html#a137ea4d27de45d8a844fd13451d40f3d" target="_top" xlink:title="create a parse error exception">
<polygon fill="white" stroke="black" points="1313.5,-99 1313.5,-129 1445.5,-129 1445.5,-99 1313.5,-99"/>
<text text-anchor="start" x="1321.5" y="-117" font-family="Helvetica,sans-Serif" font-size="10.00">nlohmann::detail::parse</text>
<text text-anchor="middle" x="1379.5" y="-106" font-family="Helvetica,sans-Serif" font-size="10.00">_error::create</text>
</a>
</g>
</g>
<!-- Node4&#45;&gt;Node5 -->
<g id="edge4" class="edge">
<title>Node4&#45;&gt;Node5</title>
<path fill="none" stroke="midnightblue" d="M629,-476.92C631.61,-425.04 647.72,-252.74 747,-172 908.55,-40.62 1176.07,-71.71 1304.81,-96.91"/>
<polygon fill="midnightblue" stroke="midnightblue" points="1304.47,-100.41 1314.96,-98.94 1305.84,-93.55 1304.47,-100.41"/>
</g>
<!-- Node10 -->
<g id="node10" class="node">
<title>Node10</title>
<g id="a_node10"><a xlink:href="classnlohmann_1_1detail_1_1binary__reader.html#a82b86133c98a0565446a44dfd3e418e6" target="_top" xlink:title=" ">
<polygon fill="white" stroke="black" points="1301,-553 1301,-583 1458,-583 1458,-553 1301,-553"/>
<text text-anchor="start" x="1309" y="-571" font-family="Helvetica,sans-Serif" font-size="10.00">nlohmann::detail::binary</text>
<text text-anchor="middle" x="1379.5" y="-560" font-family="Helvetica,sans-Serif" font-size="10.00">_reader::exception_message</text>
</a>
</g>
</g>
<!-- Node4&#45;&gt;Node10 -->
<g id="edge10" class="edge">
<title>Node4&#45;&gt;Node10</title>
<path fill="none" stroke="midnightblue" d="M666.55,-507.02C680.92,-513.33 697.13,-521.24 711,-530 728.61,-541.12 727.54,-552.58 747,-560 843.7,-596.88 1141.21,-583.72 1290.76,-574.26"/>
<polygon fill="midnightblue" stroke="midnightblue" points="1291.08,-577.75 1300.83,-573.62 1290.63,-570.76 1291.08,-577.75"/>
</g>
<!-- Node12 -->
<g id="node12" class="node">
<title>Node12</title>
<g id="a_node12"><a xlink:href="classnlohmann_1_1detail_1_1binary__reader.html#acf8d3f7b17efd05655fcb6f47a2eaa79" target="_top" xlink:title=" ">
<polygon fill="white" stroke="black" points="953,-433 953,-463 1093,-463 1093,-433 953,-433"/>
<text text-anchor="start" x="961" y="-451" font-family="Helvetica,sans-Serif" font-size="10.00">nlohmann::detail::binary</text>
<text text-anchor="middle" x="1023" y="-440" font-family="Helvetica,sans-Serif" font-size="10.00">_reader::get_token_string</text>
</a>
</g>
</g>
<!-- Node4&#45;&gt;Node12 -->
<g id="edge14" class="edge">
<title>Node4&#45;&gt;Node12</title>
<path fill="none" stroke="midnightblue" d="M709.76,-482.3C722.23,-480.84 734.96,-479.37 747,-478 812.92,-470.51 887.78,-462.37 942.74,-456.46"/>
<polygon fill="midnightblue" stroke="midnightblue" points="943.19,-459.93 952.76,-455.38 942.44,-452.97 943.19,-459.93"/>
</g>
<!-- Node13 -->
<g id="node13" class="node">
<title>Node13</title>
<g id="a_node13"><a xlink:href="classnlohmann_1_1detail_1_1binary__reader.html#a435be58e83c8491556d8f1a1b3439155" target="_top" xlink:title=" ">
<polygon fill="white" stroke="black" points="747,-521 747,-551 917,-551 917,-521 747,-521"/>
<text text-anchor="start" x="755" y="-539" font-family="Helvetica,sans-Serif" font-size="10.00">nlohmann::detail::binary</text>
<text text-anchor="middle" x="832" y="-528" font-family="Helvetica,sans-Serif" font-size="10.00">_reader::get_ubjson_size_value</text>
</a>
</g>
</g>
<!-- Node4&#45;&gt;Node13 -->
<g id="edge15" class="edge">
<title>Node4&#45;&gt;Node13</title>
<path fill="none" stroke="midnightblue" d="M697.62,-507.02C715.12,-510.82 734.05,-514.93 751.99,-518.83"/>
<polygon fill="midnightblue" stroke="midnightblue" points="751.33,-522.27 761.85,-520.97 752.82,-515.43 751.33,-522.27"/>
</g>
<!-- Node15 -->
<g id="node15" class="node">
<title>Node15</title>
<g id="a_node15"><a xlink:href="classnlohmann_1_1detail_1_1binary__reader.html#a91dd7341d9d74c58866877ddfe58dd03" target="_top" xlink:title=" ">
<polygon fill="white" stroke="black" points="1129,-169 1129,-199 1265,-199 1265,-169 1129,-169"/>
<text text-anchor="start" x="1137" y="-187" font-family="Helvetica,sans-Serif" font-size="10.00">nlohmann::detail::binary</text>
<text text-anchor="middle" x="1197" y="-176" font-family="Helvetica,sans-Serif" font-size="10.00">_reader::unexpect_eof</text>
</a>
</g>
</g>
<!-- Node4&#45;&gt;Node15 -->
<g id="edge25" class="edge">
<title>Node4&#45;&gt;Node15</title>
<path fill="none" stroke="midnightblue" d="M631.41,-476.72C640.38,-433.77 671.73,-310.93 747,-247 851.16,-158.54 1020.54,-161.08 1118.77,-171.89"/>
<polygon fill="midnightblue" stroke="midnightblue" points="1118.6,-175.39 1128.93,-173.06 1119.4,-168.44 1118.6,-175.39"/>
</g>
<!-- Node6 -->
<g id="node6" class="node">
<title>Node6</title>
<g id="a_node6"><a xlink:href="classnlohmann_1_1detail_1_1exception.html#abf41a7e9178356314082284e6cfea278" target="_top" xlink:title=" ">
<polygon fill="white" stroke="black" points="1494,-99 1494,-129 1647,-129 1647,-99 1494,-99"/>
<text text-anchor="start" x="1502" y="-117" font-family="Helvetica,sans-Serif" font-size="10.00">nlohmann::detail::exception</text>
<text text-anchor="middle" x="1570.5" y="-106" font-family="Helvetica,sans-Serif" font-size="10.00">::name</text>
</a>
</g>
</g>
<!-- Node5&#45;&gt;Node6 -->
<g id="edge5" class="edge">
<title>Node5&#45;&gt;Node6</title>
<path fill="none" stroke="midnightblue" d="M1445.54,-114C1457.84,-114 1470.89,-114 1483.71,-114"/>
<polygon fill="midnightblue" stroke="midnightblue" points="1483.93,-117.5 1493.93,-114 1483.93,-110.5 1483.93,-117.5"/>
</g>
<!-- Node8 -->
<g id="node8" class="node">
<title>Node8</title>
<g id="a_node8"><a xlink:href="classnlohmann_1_1detail_1_1parse__error.html#a0ea816ea3521d7109407948cb1b850f7" target="_top" xlink:title=" ">
<polygon fill="white" stroke="black" points="1504.5,-50 1504.5,-80 1636.5,-80 1636.5,-50 1504.5,-50"/>
<text text-anchor="start" x="1512.5" y="-68" font-family="Helvetica,sans-Serif" font-size="10.00">nlohmann::detail::parse</text>
<text text-anchor="middle" x="1570.5" y="-57" font-family="Helvetica,sans-Serif" font-size="10.00">_error::parse_error</text>
</a>
</g>
</g>
<!-- Node5&#45;&gt;Node8 -->
<g id="edge7" class="edge">
<title>Node5&#45;&gt;Node8</title>
<path fill="none" stroke="midnightblue" d="M1438.49,-98.97C1458.54,-93.77 1481.17,-87.9 1501.92,-82.52"/>
<polygon fill="midnightblue" stroke="midnightblue" points="1502.82,-85.9 1511.62,-80.01 1501.06,-79.13 1502.82,-85.9"/>
</g>
<!-- Node9 -->
<g id="node9" class="node">
<title>Node9</title>
<g id="a_node9"><a xlink:href="classnlohmann_1_1detail_1_1parse__error.html#aefe74adeaa48781464ba2fd2ec63d221" target="_top" xlink:title=" ">
<polygon fill="white" stroke="black" points="1504.5,-148 1504.5,-178 1636.5,-178 1636.5,-148 1504.5,-148"/>
<text text-anchor="start" x="1512.5" y="-166" font-family="Helvetica,sans-Serif" font-size="10.00">nlohmann::detail::parse</text>
<text text-anchor="middle" x="1570.5" y="-155" font-family="Helvetica,sans-Serif" font-size="10.00">_error::position_string</text>
</a>
</g>
</g>
<!-- Node5&#45;&gt;Node9 -->
<g id="edge8" class="edge">
<title>Node5&#45;&gt;Node9</title>
<path fill="none" stroke="midnightblue" d="M1438.49,-129.03C1458.54,-134.23 1481.17,-140.1 1501.92,-145.48"/>
<polygon fill="midnightblue" stroke="midnightblue" points="1501.06,-148.87 1511.62,-147.99 1502.82,-142.1 1501.06,-148.87"/>
</g>
<!-- Node7 -->
<g id="node7" class="node">
<title>Node7</title>
<g id="a_node7"><a xlink:href="namespacehttplib.html#a498c3a79825ecbcb15c52ec5fcfd5c11" target="_top" xlink:title=" ">
<polygon fill="white" stroke="black" points="1683,-128.5 1683,-147.5 1780,-147.5 1780,-128.5 1683,-128.5"/>
<text text-anchor="middle" x="1731.5" y="-135.5" font-family="Helvetica,sans-Serif" font-size="10.00">httplib::to_string</text>
</a>
</g>
</g>
<!-- Node6&#45;&gt;Node7 -->
<g id="edge6" class="edge">
<title>Node6&#45;&gt;Node7</title>
<path fill="none" stroke="midnightblue" d="M1647.27,-125.44C1655.92,-126.74 1664.62,-128.06 1672.97,-129.32"/>
<polygon fill="midnightblue" stroke="midnightblue" points="1672.55,-132.79 1682.96,-130.82 1673.59,-125.87 1672.55,-132.79"/>
</g>
<!-- Node9&#45;&gt;Node7 -->
<g id="edge9" class="edge">
<title>Node9&#45;&gt;Node7</title>
<path fill="none" stroke="midnightblue" d="M1636.63,-152.76C1648.57,-150.88 1660.96,-148.93 1672.66,-147.09"/>
<polygon fill="midnightblue" stroke="midnightblue" points="1673.42,-150.52 1682.75,-145.51 1672.33,-143.6 1673.42,-150.52"/>
</g>
<!-- Node11 -->
<g id="node11" class="node">
<title>Node11</title>
<g id="a_node11"><a xlink:href="FuzzerTracePC_8cpp.html#a1f10ac78bd11294b612636121065eb5b" target="_top" xlink:title=" ">
<polygon fill="white" stroke="black" points="1547,-558.5 1547,-577.5 1594,-577.5 1594,-558.5 1547,-558.5"/>
<text text-anchor="middle" x="1570.5" y="-565.5" font-family="Helvetica,sans-Serif" font-size="10.00">assert</text>
</a>
</g>
</g>
<!-- Node10&#45;&gt;Node11 -->
<g id="edge11" class="edge">
<title>Node10&#45;&gt;Node11</title>
<path fill="none" stroke="midnightblue" d="M1458.19,-568C1485.54,-568 1514.83,-568 1536.5,-568"/>
<polygon fill="midnightblue" stroke="midnightblue" points="1536.78,-571.5 1546.78,-568 1536.78,-564.5 1536.78,-571.5"/>
</g>
<!-- Node13&#45;&gt;Node2 -->
<g id="edge18" class="edge">
<title>Node13&#45;&gt;Node2</title>
<path fill="none" stroke="midnightblue" d="M857.32,-551.06C890.83,-571.8 951.29,-609.23 988.9,-632.51"/>
<polygon fill="midnightblue" stroke="midnightblue" points="987.13,-635.53 997.47,-637.82 990.81,-629.58 987.13,-635.53"/>
</g>
<!-- Node13&#45;&gt;Node5 -->
<g id="edge16" class="edge">
<title>Node13&#45;&gt;Node5</title>
<path fill="none" stroke="midnightblue" d="M917.4,-535.46C1015.96,-530 1176.72,-505.15 1265,-406 1336.88,-325.26 1365.56,-193.89 1374.79,-139.17"/>
<polygon fill="midnightblue" stroke="midnightblue" points="1378.25,-139.71 1376.39,-129.28 1371.34,-138.6 1378.25,-139.71"/>
</g>
<!-- Node13&#45;&gt;Node10 -->
<g id="edge17" class="edge">
<title>Node13&#45;&gt;Node10</title>
<path fill="none" stroke="midnightblue" d="M917.24,-541.73C929.24,-542.51 941.43,-543.29 953,-544 1069.86,-551.19 1204.82,-558.66 1290.86,-563.32"/>
<polygon fill="midnightblue" stroke="midnightblue" points="1290.67,-566.81 1300.84,-563.86 1291.05,-559.82 1290.67,-566.81"/>
</g>
<!-- Node13&#45;&gt;Node12 -->
<g id="edge24" class="edge">
<title>Node13&#45;&gt;Node12</title>
<path fill="none" stroke="midnightblue" d="M865.49,-520.87C897.23,-506.09 945.68,-483.54 980.26,-467.44"/>
<polygon fill="midnightblue" stroke="midnightblue" points="982.03,-470.47 989.62,-463.08 979.08,-464.13 982.03,-470.47"/>
</g>
<!-- Node14 -->
<g id="node14" class="node">
<title>Node14</title>
<g id="a_node14"><a xlink:href="classnlohmann_1_1detail_1_1binary__reader.html#a161cda5919ea2436b7999c2a76656aba" target="_top" xlink:title=" ">
<polygon fill="white" stroke="black" points="955,-345 955,-375 1091,-375 1091,-345 955,-345"/>
<text text-anchor="start" x="963" y="-363" font-family="Helvetica,sans-Serif" font-size="10.00">nlohmann::detail::binary</text>
<text text-anchor="middle" x="1023" y="-352" font-family="Helvetica,sans-Serif" font-size="10.00">_reader::get_number</text>
</a>
</g>
</g>
<!-- Node13&#45;&gt;Node14 -->
<g id="edge19" class="edge">
<title>Node13&#45;&gt;Node14</title>
<path fill="none" stroke="midnightblue" d="M848.84,-520.93C871.74,-499.2 915.44,-457.83 953,-423 967.68,-409.39 984.24,-394.26 997.45,-382.25"/>
<polygon fill="midnightblue" stroke="midnightblue" points="1000.15,-384.52 1005.2,-375.2 995.45,-379.34 1000.15,-384.52"/>
</g>
<!-- Node14&#45;&gt;Node3 -->
<g id="edge20" class="edge">
<title>Node14&#45;&gt;Node3</title>
<path fill="none" stroke="midnightblue" d="M1091.49,-368.63C1100.44,-369.78 1109.68,-370.96 1118.79,-372.12"/>
<polygon fill="midnightblue" stroke="midnightblue" points="1118.63,-375.63 1128.99,-373.43 1119.52,-368.69 1118.63,-375.63"/>
</g>
<!-- Node14&#45;&gt;Node15 -->
<g id="edge21" class="edge">
<title>Node14&#45;&gt;Node15</title>
<path fill="none" stroke="midnightblue" d="M1041.08,-344.85C1055.27,-332.1 1075.82,-313.25 1093,-296 1122.85,-266.03 1155.65,-229.73 1176.04,-206.75"/>
<polygon fill="midnightblue" stroke="midnightblue" points="1178.7,-209.02 1182.71,-199.21 1173.46,-204.38 1178.7,-209.02"/>
</g>
<!-- Node15&#45;&gt;Node5 -->
<g id="edge22" class="edge">
<title>Node15&#45;&gt;Node5</title>
<path fill="none" stroke="midnightblue" d="M1236.72,-168.98C1263.99,-158.41 1300.7,-144.17 1329.93,-132.84"/>
<polygon fill="midnightblue" stroke="midnightblue" points="1331.47,-135.99 1339.53,-129.11 1328.94,-129.47 1331.47,-135.99"/>
</g>
<!-- Node15&#45;&gt;Node10 -->
<g id="edge23" class="edge">
<title>Node15&#45;&gt;Node10</title>
<path fill="none" stroke="midnightblue" d="M1245.35,-199.06C1252.65,-203.01 1259.56,-207.92 1265,-214 1352.91,-312.22 1372.79,-479.04 1377.24,-542.48"/>
<polygon fill="midnightblue" stroke="midnightblue" points="1373.76,-542.99 1377.88,-552.75 1380.75,-542.55 1373.76,-542.99"/>
</g>
<!-- Node16&#45;&gt;Node3 -->
<g id="edge29" class="edge">
<title>Node16&#45;&gt;Node3</title>
<path fill="none" stroke="midnightblue" d="M905.23,-285.65C958.01,-296.54 1030.89,-313.52 1093,-335 1115.03,-342.62 1138.75,-353.26 1157.87,-362.5"/>
<polygon fill="midnightblue" stroke="midnightblue" points="1156.34,-365.65 1166.86,-366.9 1159.42,-359.36 1156.34,-365.65"/>
</g>
<!-- Node16&#45;&gt;Node5 -->
<g id="edge27" class="edge">
<title>Node16&#45;&gt;Node5</title>
<path fill="none" stroke="midnightblue" d="M849,-256.8C870.72,-237.1 911.59,-203.25 953,-186 1069.09,-137.64 1215.87,-121.74 1303.19,-116.53"/>
<polygon fill="midnightblue" stroke="midnightblue" points="1303.49,-120.02 1313.28,-115.96 1303.1,-113.03 1303.49,-120.02"/>
</g>
<!-- Node16&#45;&gt;Node10 -->
<g id="edge28" class="edge">
<title>Node16&#45;&gt;Node10</title>
<path fill="none" stroke="midnightblue" d="M880.5,-256.94C933.41,-242.56 1020.97,-225.94 1093,-247 1180.09,-272.47 1203.3,-290.46 1265,-357 1318.17,-414.34 1354.46,-501.26 1369.98,-543.38"/>
<polygon fill="midnightblue" stroke="midnightblue" points="1366.71,-544.63 1373.4,-552.85 1373.3,-542.25 1366.71,-544.63"/>
</g>
<!-- Node16&#45;&gt;Node12 -->
<g id="edge34" class="edge">
<title>Node16&#45;&gt;Node12</title>
<path fill="none" stroke="midnightblue" d="M849.29,-287.23C872.35,-308.8 915.86,-349.45 953,-384 968,-397.96 984.86,-413.59 998.16,-425.92"/>
<polygon fill="midnightblue" stroke="midnightblue" points="995.82,-428.53 1005.54,-432.76 1000.58,-423.39 995.82,-428.53"/>
</g>
<!-- Node16&#45;&gt;Node14 -->
<g id="edge30" class="edge">
<title>Node16&#45;&gt;Node14</title>
<path fill="none" stroke="midnightblue" d="M863.42,-287.12C887.58,-299.03 922.29,-315.91 953,-330 960.77,-333.56 969.07,-337.26 977.12,-340.8"/>
<polygon fill="midnightblue" stroke="midnightblue" points="975.86,-344.06 986.42,-344.86 978.66,-337.65 975.86,-344.06"/>
</g>
<!-- Node16&#45;&gt;Node15 -->
<g id="edge35" class="edge">
<title>Node16&#45;&gt;Node15</title>
<path fill="none" stroke="midnightblue" d="M858.23,-256.77C881.86,-243.26 918.6,-224.14 953,-214 1007.06,-198.07 1070.29,-190.6 1118.7,-187.09"/>
<polygon fill="midnightblue" stroke="midnightblue" points="1119.06,-190.57 1128.8,-186.4 1118.58,-183.59 1119.06,-190.57"/>
</g>
<!-- Node17 -->
<g id="node17" class="node">
<title>Node17</title>
<g id="a_node17"><a xlink:href="classnlohmann_1_1detail_1_1binary__reader.html#a1f4b5da029a561c8711426b0a7316ec6" target="_top" xlink:title="create a string by reading characters from the input">
<polygon fill="white" stroke="black" points="955,-257 955,-287 1091,-287 1091,-257 955,-257"/>
<text text-anchor="start" x="963" y="-275" font-family="Helvetica,sans-Serif" font-size="10.00">nlohmann::detail::binary</text>
<text text-anchor="middle" x="1023" y="-264" font-family="Helvetica,sans-Serif" font-size="10.00">_reader::get_string</text>
</a>
</g>
</g>
<!-- Node16&#45;&gt;Node17 -->
<g id="edge31" class="edge">
<title>Node16&#45;&gt;Node17</title>
<path fill="none" stroke="midnightblue" d="M905.26,-272C918.09,-272 931.5,-272 944.46,-272"/>
<polygon fill="midnightblue" stroke="midnightblue" points="944.75,-275.5 954.75,-272 944.75,-268.5 944.75,-275.5"/>
</g>
<!-- Node17&#45;&gt;Node3 -->
<g id="edge32" class="edge">
<title>Node17&#45;&gt;Node3</title>
<path fill="none" stroke="midnightblue" d="M1063.17,-287.01C1073.14,-291.37 1083.67,-296.47 1093,-302 1121.59,-318.95 1151.25,-342.76 1171.36,-360"/>
<polygon fill="midnightblue" stroke="midnightblue" points="1169.25,-362.8 1179.1,-366.71 1173.84,-357.51 1169.25,-362.8"/>
</g>
<!-- Node17&#45;&gt;Node15 -->
<g id="edge33" class="edge">
<title>Node17&#45;&gt;Node15</title>
<path fill="none" stroke="midnightblue" d="M1053.57,-256.87C1082.33,-242.16 1126.17,-219.73 1157.61,-203.64"/>
<polygon fill="midnightblue" stroke="midnightblue" points="1159.22,-206.75 1166.53,-199.08 1156.03,-200.52 1159.22,-206.75"/>
</g>
<!-- Node18&#45;&gt;Node1 -->
<g id="edge49" class="edge">
<title>Node18&#45;&gt;Node1</title>
<path fill="none" stroke="midnightblue" d="M216.66,-453.13C199.47,-458.14 178.56,-463.6 158.13,-468.47"/>
<polygon fill="midnightblue" stroke="midnightblue" points="157.09,-465.12 148.16,-470.81 158.69,-471.93 157.09,-465.12"/>
</g>
<!-- Node18&#45;&gt;Node3 -->
<g id="edge39" class="edge">
<title>Node18&#45;&gt;Node3</title>
<path fill="none" stroke="midnightblue" d="M329.2,-433.27C341.15,-432.5 353.43,-431.72 365,-431 642.32,-413.79 971.81,-394.8 1118.68,-386.4"/>
<polygon fill="midnightblue" stroke="midnightblue" points="1119.16,-389.88 1128.94,-385.81 1118.76,-382.89 1119.16,-389.88"/>
</g>
<!-- Node18&#45;&gt;Node5 -->
<g id="edge37" class="edge">
<title>Node18&#45;&gt;Node5</title>
<path fill="none" stroke="midnightblue" d="M257.99,-422.77C260.46,-371.02 275.34,-199.89 365,-104 450.42,-12.64 501.42,0 626.5,0 626.5,0 626.5,0 1024,0 1145.45,0 1279.55,-61.39 1342.33,-94.07"/>
<polygon fill="midnightblue" stroke="midnightblue" points="1340.95,-97.29 1351.43,-98.86 1344.21,-91.1 1340.95,-97.29"/>
</g>
<!-- Node18&#45;&gt;Node10 -->
<g id="edge38" class="edge">
<title>Node18&#45;&gt;Node10</title>
<path fill="none" stroke="midnightblue" d="M264.92,-453.26C280.3,-483.74 318.16,-553.16 365,-599 458.19,-690.2 496.11,-732 626.5,-732 626.5,-732 626.5,-732 1024,-732 1158.16,-732 1296.69,-634.05 1352.7,-589.55"/>
<polygon fill="midnightblue" stroke="midnightblue" points="1355.07,-592.13 1360.66,-583.13 1350.68,-586.68 1355.07,-592.13"/>
</g>
<!-- Node18&#45;&gt;Node12 -->
<g id="edge41" class="edge">
<title>Node18&#45;&gt;Node12</title>
<path fill="none" stroke="midnightblue" d="M329.2,-435.72C341.15,-435.42 353.43,-435.16 365,-435 573.59,-432.09 819.41,-439.97 942.84,-444.71"/>
<polygon fill="midnightblue" stroke="midnightblue" points="942.83,-448.21 952.95,-445.1 943.1,-441.22 942.83,-448.21"/>
</g>
<!-- Node18&#45;&gt;Node14 -->
<g id="edge40" class="edge">
<title>Node18&#45;&gt;Node14</title>
<path fill="none" stroke="midnightblue" d="M272.96,-422.78C292.49,-404.73 328.04,-375.62 365,-364 566.3,-300.74 819.75,-326.82 944.86,-346.15"/>
<polygon fill="midnightblue" stroke="midnightblue" points="944.31,-349.61 954.74,-347.7 945.4,-342.69 944.31,-349.61"/>
</g>
<!-- Node18&#45;&gt;Node15 -->
<g id="edge51" class="edge">
<title>Node18&#45;&gt;Node15</title>
<path fill="none" stroke="midnightblue" d="M272.2,-422.95C287.62,-406.64 311.95,-379.4 329,-353 349.06,-321.94 341.74,-306.74 365,-278 457.38,-163.83 479.64,-76 626.5,-76 626.5,-76 626.5,-76 833,-76 955.83,-76 1092.7,-133.51 1157.7,-164.6"/>
<polygon fill="midnightblue" stroke="midnightblue" points="1156.24,-167.78 1166.76,-168.98 1159.29,-161.48 1156.24,-167.78"/>
</g>
<!-- Node18&#45;&gt;Node16 -->
<g id="edge50" class="edge">
<title>Node18&#45;&gt;Node16</title>
<path fill="none" stroke="midnightblue" d="M266.88,-422.86C283.3,-397.84 319.85,-348.4 365,-326 488.31,-264.81 651.92,-260.88 748.87,-265.27"/>
<polygon fill="midnightblue" stroke="midnightblue" points="748.75,-268.77 758.91,-265.77 749.09,-261.78 748.75,-268.77"/>
</g>
<!-- Node19 -->
<g id="node19" class="node">
<title>Node19</title>
<g id="a_node19"><a xlink:href="classnlohmann_1_1detail_1_1binary__reader.html#a4e8ef9561d4403ea68e3c2712fd289e2" target="_top" xlink:title=" ">
<polygon fill="white" stroke="black" points="365,-445 365,-475 508,-475 508,-445 365,-445"/>
<text text-anchor="start" x="373" y="-463" font-family="Helvetica,sans-Serif" font-size="10.00">nlohmann::detail::binary</text>
<text text-anchor="middle" x="436.5" y="-452" font-family="Helvetica,sans-Serif" font-size="10.00">_reader::get_ubjson_array</text>
</a>
</g>
</g>
<!-- Node18&#45;&gt;Node19 -->
<g id="edge42" class="edge">
<title>Node18&#45;&gt;Node19</title>
<path fill="none" stroke="midnightblue" d="M329.13,-440.22C338.35,-441.23 347.83,-442.38 357.16,-443.61"/>
<polygon fill="midnightblue" stroke="midnightblue" points="356.81,-447.1 367.19,-444.97 357.75,-440.16 356.81,-447.1"/>
</g>
<!-- Node19&#45;&gt;Node2 -->
<g id="edge43" class="edge">
<title>Node19&#45;&gt;Node2</title>
<path fill="none" stroke="midnightblue" d="M457.91,-475.12C505.59,-509.52 629.2,-593.41 747,-629 810.92,-648.31 886.72,-653.71 942.53,-654.62"/>
<polygon fill="midnightblue" stroke="midnightblue" points="942.68,-658.12 952.72,-654.74 942.76,-651.13 942.68,-658.12"/>
</g>
<!-- Node19&#45;&gt;Node4 -->
<g id="edge44" class="edge">
<title>Node19&#45;&gt;Node4</title>
<path fill="none" stroke="midnightblue" d="M508.15,-471.96C517.08,-473.47 526.31,-475.04 535.51,-476.59"/>
<polygon fill="midnightblue" stroke="midnightblue" points="535,-480.06 545.45,-478.28 536.17,-473.16 535,-480.06"/>
</g>
<!-- Node19&#45;&gt;Node18 -->
<g id="edge45" class="edge">
<title>Node19&#45;&gt;Node18</title>
<path fill="none" stroke="midnightblue" d="M364.72,-457.87C355.2,-456.83 345.4,-455.65 335.77,-454.38"/>
<polygon fill="midnightblue" stroke="midnightblue" points="336.19,-450.91 325.81,-453.03 335.25,-457.84 336.19,-450.91"/>
</g>
<!-- Node19&#45;&gt;Node20 -->
<g id="edge46" class="edge">
<title>Node19&#45;&gt;Node20</title>
<path fill="none" stroke="midnightblue" d="M451.04,-475.15C466.53,-493.13 491.84,-524.51 508,-555 530.71,-597.85 509.93,-623.5 544,-658 547.65,-661.7 551.8,-664.95 556.24,-667.8"/>
<polygon fill="midnightblue" stroke="midnightblue" points="554.67,-670.93 565.1,-672.8 558.11,-664.83 554.67,-670.93"/>
</g>
<!-- Node20&#45;&gt;Node2 -->
<g id="edge47" class="edge">
<title>Node20&#45;&gt;Node2</title>
<path fill="none" stroke="midnightblue" d="M711.07,-685C768.86,-682.38 847.8,-677.74 917,-670 925.38,-669.06 934.1,-667.92 942.79,-666.67"/>
<polygon fill="midnightblue" stroke="midnightblue" points="943.56,-670.1 952.94,-665.17 942.54,-663.17 943.56,-670.1"/>
</g>
<!-- Node20&#45;&gt;Node18 -->
<g id="edge48" class="edge">
<title>Node20&#45;&gt;Node18</title>
<path fill="none" stroke="midnightblue" d="M577.43,-672.95C566.15,-668.74 554.42,-663.72 544,-658 437.19,-599.4 327.51,-503.05 280.82,-459.99"/>
<polygon fill="midnightblue" stroke="midnightblue" points="283.07,-457.31 273.36,-453.07 278.31,-462.44 283.07,-457.31"/>
</g>
</g>
</svg>
        <g id="navigator" transform="translate(0 0)" fill="#404254">
                <rect fill="#f2f5e9" fill-opacity="0.5" stroke="#606060" stroke-width=".5" x="0" y="0" width="60" height="60"/>
                <use id="zoomplus" xlink:href="#zoomPlus" x="17" y="9" onmousedown="handleZoom(evt,'in')"/>
                <use id="zoomminus" xlink:href="#zoomMin" x="42" y="9" onmousedown="handleZoom(evt,'out')"/>
                <use id="reset" xlink:href="#resetDef" x="30" y="36" onmousedown="handleReset()"/>
                <g id="arrowUp" xlink:href="#dirArrow" transform="translate(30 24)" onmousedown="handlePan(0,-1)">
                  <use xlink:href="#rim" fill="#404040">
                        <set attributeName="fill" to="#808080" begin="arrowUp.mouseover" end="arrowUp.mouseout"/>
                  </use>
                  <path fill="none" stroke="white" stroke-width="1.5" d="M0,-3.0v7 M-2.5,-0.5L0,-3.0L2.5,-0.5"/>
                </g>
                <g id="arrowRight" xlink:href="#dirArrow" transform="rotate(90) translate(36 -43)" onmousedown="handlePan(1,0)">
                  <use xlink:href="#rim" fill="#404040">
                        <set attributeName="fill" to="#808080" begin="arrowRight.mouseover" end="arrowRight.mouseout"/>
                  </use>
                  <path fill="none" stroke="white" stroke-width="1.5" d="M0,-3.0v7 M-2.5,-0.5L0,-3.0L2.5,-0.5"/>
                </g>
                <g id="arrowDown" xlink:href="#dirArrow" transform="rotate(180) translate(-30 -48)" onmousedown="handlePan(0,1)">
                  <use xlink:href="#rim" fill="#404040">
                        <set attributeName="fill" to="#808080" begin="arrowDown.mouseover" end="arrowDown.mouseout"/>
                  </use>
                  <path fill="none" stroke="white" stroke-width="1.5" d="M0,-3.0v7 M-2.5,-0.5L0,-3.0L2.5,-0.5"/>
                </g>
                <g id="arrowLeft" xlink:href="#dirArrow" transform="rotate(270) translate(-36 17)" onmousedown="handlePan(-1,0)">
                  <use xlink:href="#rim" fill="#404040">
                        <set attributeName="fill" to="#808080" begin="arrowLeft.mouseover" end="arrowLeft.mouseout"/>
                  </use>
                  <path fill="none" stroke="white" stroke-width="1.5" d="M0,-3.0v7 M-2.5,-0.5L0,-3.0L2.5,-0.5"/>
                </g>
        </g>
        <svg viewBox="0 0 15 15" width="100%" height="30px" preserveAspectRatio="xMaxYMin meet">
         <g id="arrow_out" transform="scale(0.3 0.3)">
          <a xlink:href="classnlohmann_1_1detail_1_1binary__reader_ad0932dd568fcbbd2b4c2ccf9122544a5_cgraph_org.svg" target="_base">
           <rect id="button" ry="5" rx="5" y="6" x="6" height="38" width="38"
                fill="#f2f5e9" fill-opacity="0.5" stroke="#606060" stroke-width="1.0"/>
           <path id="arrow"
             d="M 11.500037,31.436501 C 11.940474,20.09759 22.043105,11.32322 32.158766,21.979434 L 37.068811,17.246167 C 37.068811,17.246167 37.088388,32 37.088388,32 L 22.160133,31.978069 C 22.160133,31.978069 26.997745,27.140456 26.997745,27.140456 C 18.528582,18.264221 13.291696,25.230495 11.500037,31.436501 z"
             style="fill:#404040;"/>
          </a>
         </g>
        </svg>
</svg>
