<?xml version="1.0" encoding="UTF-8" standalone="no"?>
<!DOCTYPE svg PUBLIC "-//W3C//DTD SVG 1.1//EN"
 "http://www.w3.org/Graphics/SVG/1.1/DTD/svg11.dtd">
<!-- Generated by graphviz version 2.43.0 (0)
 -->
<!-- Title: benchmark::internal::ThreadManager Pages: 1 -->
<svg width="538pt" height="696pt"
 viewBox="0.00 0.00 537.50 696.00" xmlns="http://www.w3.org/2000/svg" xmlns:xlink="http://www.w3.org/1999/xlink">
<g id="graph0" class="graph" transform="scale(1 1) rotate(0) translate(4 692)">
<title>benchmark::internal::ThreadManager</title>
<polygon fill="white" stroke="transparent" points="-4,4 -4,-692 533.5,-692 533.5,4 -4,4"/>
<!-- Node1 -->
<g id="node1" class="node">
<title>Node1</title>
<g id="a_node1"><a xlink:title=" ">
<polygon fill="#bfbfbf" stroke="black" points="194.5,-0.5 194.5,-112.5 340.5,-112.5 340.5,-0.5 194.5,-0.5"/>
<text text-anchor="start" x="202.5" y="-100.5" font-family="Helvetica,sans-Serif" font-size="10.00">benchmark::internal</text>
<text text-anchor="middle" x="267.5" y="-89.5" font-family="Helvetica,sans-Serif" font-size="10.00">::ThreadManager</text>
<polyline fill="none" stroke="black" points="194.5,-82.5 340.5,-82.5 "/>
<text text-anchor="start" x="202.5" y="-70.5" font-family="Helvetica,sans-Serif" font-size="10.00">&#45; end_condition_</text>
<polyline fill="none" stroke="black" points="194.5,-63.5 340.5,-63.5 "/>
<text text-anchor="start" x="202.5" y="-51.5" font-family="Helvetica,sans-Serif" font-size="10.00">+ ThreadManager()</text>
<text text-anchor="start" x="202.5" y="-40.5" font-family="Helvetica,sans-Serif" font-size="10.00">+ GetBenchmarkMutex()</text>
<text text-anchor="start" x="202.5" y="-29.5" font-family="Helvetica,sans-Serif" font-size="10.00">+ StartStopBarrier()</text>
<text text-anchor="start" x="202.5" y="-18.5" font-family="Helvetica,sans-Serif" font-size="10.00">+ NotifyThreadComplete()</text>
<text text-anchor="start" x="202.5" y="-7.5" font-family="Helvetica,sans-Serif" font-size="10.00">+ WaitForAllThreads()</text>
</a>
</g>
</g>
<!-- Node2 -->
<g id="node2" class="node">
<title>Node2</title>
<g id="a_node2"><a xlink:title=" ">
<polygon fill="white" stroke="#bfbfbf" points="0,-204.5 0,-261.5 107,-261.5 107,-204.5 0,-204.5"/>
<text text-anchor="middle" x="53.5" y="-249.5" font-family="Helvetica,sans-Serif" font-size="10.00">std::atomic&lt; int &gt;</text>
<polyline fill="none" stroke="#bfbfbf" points="0,-242.5 107,-242.5 "/>
<text text-anchor="start" x="8" y="-230.5" font-family="Helvetica,sans-Serif" font-size="10.00">+ ptr</text>
<polyline fill="none" stroke="#bfbfbf" points="0,-223.5 107,-223.5 "/>
<text text-anchor="middle" x="53.5" y="-211.5" font-family="Helvetica,sans-Serif" font-size="10.00"> </text>
</a>
</g>
</g>
<!-- Node2&#45;&gt;Node1 -->
<g id="edge1" class="edge">
<title>Node2&#45;&gt;Node1</title>
<path fill="none" stroke="#404040" d="M75.94,-204.49C87.59,-190.7 102.32,-174 116.5,-160 136.53,-140.22 160.85,-121.82 184.06,-106.23"/>
<polygon fill="none" stroke="#404040" points="184.26,-106.1 187.07,-99.46 194.28,-99.5 191.47,-106.14 184.26,-106.1"/>
<text text-anchor="middle" x="186" y="-134" font-family="Helvetica,sans-Serif" font-size="10.00"> &#45;alive_threads_</text>
</g>
<!-- Node3 -->
<g id="node3" class="node">
<title>Node3</title>
<g id="a_node3"><a xlink:href="structbenchmark_1_1internal_1_1ThreadManager_1_1Result.html" target="_top" xlink:title=" ">
<polygon fill="white" stroke="black" points="125.5,-160.5 125.5,-305.5 261.5,-305.5 261.5,-160.5 125.5,-160.5"/>
<text text-anchor="start" x="133.5" y="-293.5" font-family="Helvetica,sans-Serif" font-size="10.00">benchmark::internal</text>
<text text-anchor="middle" x="193.5" y="-282.5" font-family="Helvetica,sans-Serif" font-size="10.00">::ThreadManager::Result</text>
<polyline fill="none" stroke="black" points="125.5,-275.5 261.5,-275.5 "/>
<text text-anchor="start" x="133.5" y="-263.5" font-family="Helvetica,sans-Serif" font-size="10.00">+ iterations</text>
<text text-anchor="start" x="133.5" y="-252.5" font-family="Helvetica,sans-Serif" font-size="10.00">+ real_time_used</text>
<text text-anchor="start" x="133.5" y="-241.5" font-family="Helvetica,sans-Serif" font-size="10.00">+ cpu_time_used</text>
<text text-anchor="start" x="133.5" y="-230.5" font-family="Helvetica,sans-Serif" font-size="10.00">+ manual_time_used</text>
<text text-anchor="start" x="133.5" y="-219.5" font-family="Helvetica,sans-Serif" font-size="10.00">+ bytes_processed</text>
<text text-anchor="start" x="133.5" y="-208.5" font-family="Helvetica,sans-Serif" font-size="10.00">+ items_processed</text>
<text text-anchor="start" x="133.5" y="-197.5" font-family="Helvetica,sans-Serif" font-size="10.00">+ complexity_n</text>
<text text-anchor="start" x="133.5" y="-186.5" font-family="Helvetica,sans-Serif" font-size="10.00">+ has_error_</text>
<polyline fill="none" stroke="black" points="125.5,-179.5 261.5,-179.5 "/>
<text text-anchor="middle" x="193.5" y="-167.5" font-family="Helvetica,sans-Serif" font-size="10.00"> </text>
</a>
</g>
</g>
<!-- Node3&#45;&gt;Node1 -->
<g id="edge2" class="edge">
<title>Node3&#45;&gt;Node1</title>
<path fill="none" stroke="#404040" d="M223.92,-160.27C229.02,-148.23 234.3,-135.78 239.35,-123.89"/>
<polygon fill="none" stroke="#404040" points="239.41,-123.73 238.07,-116.64 244.1,-112.68 245.44,-119.77 239.41,-123.73"/>
<text text-anchor="middle" x="258" y="-134" font-family="Helvetica,sans-Serif" font-size="10.00"> +results</text>
</g>
<!-- Node4 -->
<g id="node4" class="node">
<title>Node4</title>
<g id="a_node4"><a xlink:title="STL class.">
<polygon fill="white" stroke="#bfbfbf" points="190,-508 190,-565 255,-565 255,-508 190,-508"/>
<text text-anchor="middle" x="222.5" y="-553" font-family="Helvetica,sans-Serif" font-size="10.00">std::string</text>
<polyline fill="none" stroke="#bfbfbf" points="190,-546 255,-546 "/>
<text text-anchor="middle" x="222.5" y="-534" font-family="Helvetica,sans-Serif" font-size="10.00"> </text>
<polyline fill="none" stroke="#bfbfbf" points="190,-527 255,-527 "/>
<text text-anchor="middle" x="222.5" y="-515" font-family="Helvetica,sans-Serif" font-size="10.00"> </text>
</a>
</g>
</g>
<!-- Node4&#45;&gt;Node3 -->
<g id="edge3" class="edge">
<title>Node4&#45;&gt;Node3</title>
<path fill="none" stroke="#404040" d="M221.81,-507.69C220.56,-467.17 217.32,-389.57 209.5,-324 209.25,-321.94 208.99,-319.86 208.72,-317.76"/>
<polygon fill="none" stroke="#404040" points="208.68,-317.49 203.88,-312.11 206.99,-305.61 211.8,-310.99 208.68,-317.49"/>
<text text-anchor="middle" x="263" y="-401.5" font-family="Helvetica,sans-Serif" font-size="10.00"> +report_label_</text>
<text text-anchor="middle" x="263" y="-390.5" font-family="Helvetica,sans-Serif" font-size="10.00">+error_message_</text>
</g>
<!-- Node6 -->
<g id="node6" class="node">
<title>Node6</title>
<g id="a_node6"><a xlink:title=" ">
<polygon fill="white" stroke="#bfbfbf" points="65.5,-364.5 65.5,-432.5 187.5,-432.5 187.5,-364.5 65.5,-364.5"/>
<text text-anchor="start" x="73.5" y="-420.5" font-family="Helvetica,sans-Serif" font-size="10.00">std::map&lt; std::string,</text>
<text text-anchor="middle" x="126.5" y="-409.5" font-family="Helvetica,sans-Serif" font-size="10.00"> Counter &gt;</text>
<polyline fill="none" stroke="#bfbfbf" points="65.5,-402.5 187.5,-402.5 "/>
<text text-anchor="middle" x="126.5" y="-390.5" font-family="Helvetica,sans-Serif" font-size="10.00"> </text>
<polyline fill="none" stroke="#bfbfbf" points="65.5,-383.5 187.5,-383.5 "/>
<text text-anchor="middle" x="126.5" y="-371.5" font-family="Helvetica,sans-Serif" font-size="10.00"> </text>
</a>
</g>
</g>
<!-- Node4&#45;&gt;Node6 -->
<g id="edge6" class="edge">
<title>Node4&#45;&gt;Node6</title>
<path fill="none" stroke="#404040" d="M201.1,-507.75C192.95,-497 183.66,-484.52 175.5,-473 168.66,-463.34 161.49,-452.82 154.81,-442.85"/>
<polygon fill="none" stroke="#404040" points="154.7,-442.69 148.05,-439.91 148.06,-432.7 154.71,-435.48 154.7,-442.69"/>
<text text-anchor="middle" x="192.5" y="-465" font-family="Helvetica,sans-Serif" font-size="10.00"> +keys</text>
</g>
<!-- Node5 -->
<g id="node5" class="node">
<title>Node5</title>
<g id="a_node5"><a xlink:title="STL class.">
<polygon fill="white" stroke="#bfbfbf" points="170.5,-619.5 170.5,-687.5 274.5,-687.5 274.5,-619.5 170.5,-619.5"/>
<text text-anchor="start" x="178.5" y="-675.5" font-family="Helvetica,sans-Serif" font-size="10.00">std::basic_string&lt;</text>
<text text-anchor="middle" x="222.5" y="-664.5" font-family="Helvetica,sans-Serif" font-size="10.00"> char &gt;</text>
<polyline fill="none" stroke="#bfbfbf" points="170.5,-657.5 274.5,-657.5 "/>
<text text-anchor="middle" x="222.5" y="-645.5" font-family="Helvetica,sans-Serif" font-size="10.00"> </text>
<polyline fill="none" stroke="#bfbfbf" points="170.5,-638.5 274.5,-638.5 "/>
<text text-anchor="middle" x="222.5" y="-626.5" font-family="Helvetica,sans-Serif" font-size="10.00"> </text>
</a>
</g>
</g>
<!-- Node5&#45;&gt;Node4 -->
<g id="edge4" class="edge">
<title>Node5&#45;&gt;Node4</title>
<path fill="none" stroke="midnightblue" d="M222.5,-608.87C222.5,-594.23 222.5,-578.33 222.5,-565.25"/>
<polygon fill="none" stroke="midnightblue" points="219,-609.24 222.5,-619.24 226,-609.24 219,-609.24"/>
</g>
<!-- Node6&#45;&gt;Node3 -->
<g id="edge5" class="edge">
<title>Node6&#45;&gt;Node3</title>
<path fill="none" stroke="#404040" d="M139.47,-364.14C144.42,-351.53 150.16,-337.08 155.5,-324 156.45,-321.67 157.42,-319.31 158.4,-316.92"/>
<polygon fill="none" stroke="#404040" points="158.47,-316.75 157.07,-309.67 163.06,-305.66 164.47,-312.73 158.47,-316.75"/>
<text text-anchor="middle" x="182.5" y="-327" font-family="Helvetica,sans-Serif" font-size="10.00"> +counters</text>
</g>
<!-- Node7 -->
<g id="node7" class="node">
<title>Node7</title>
<g id="a_node7"><a xlink:href="classbenchmark_1_1Counter.html" target="_top" xlink:title=" ">
<polygon fill="white" stroke="black" points="17.5,-491.5 17.5,-581.5 169.5,-581.5 169.5,-491.5 17.5,-491.5"/>
<text text-anchor="middle" x="93.5" y="-569.5" font-family="Helvetica,sans-Serif" font-size="10.00">benchmark::Counter</text>
<polyline fill="none" stroke="black" points="17.5,-562.5 169.5,-562.5 "/>
<text text-anchor="start" x="25.5" y="-550.5" font-family="Helvetica,sans-Serif" font-size="10.00">+ value</text>
<text text-anchor="start" x="25.5" y="-539.5" font-family="Helvetica,sans-Serif" font-size="10.00">+ flags</text>
<polyline fill="none" stroke="black" points="17.5,-532.5 169.5,-532.5 "/>
<text text-anchor="start" x="25.5" y="-520.5" font-family="Helvetica,sans-Serif" font-size="10.00">+ Counter()</text>
<text text-anchor="start" x="25.5" y="-509.5" font-family="Helvetica,sans-Serif" font-size="10.00">+ operator double const &amp;()</text>
<text text-anchor="start" x="25.5" y="-498.5" font-family="Helvetica,sans-Serif" font-size="10.00">+ operator double &amp;()</text>
</a>
</g>
</g>
<!-- Node7&#45;&gt;Node6 -->
<g id="edge7" class="edge">
<title>Node7&#45;&gt;Node6</title>
<path fill="none" stroke="#404040" d="M90.83,-491.16C91.15,-481.44 92.19,-471.29 94.5,-462 96,-455.94 98.19,-449.81 100.71,-443.87"/>
<polygon fill="none" stroke="#404040" points="100.83,-443.64 99.75,-436.51 105.92,-432.77 106.99,-439.9 100.83,-443.64"/>
<text text-anchor="middle" x="123.5" y="-465" font-family="Helvetica,sans-Serif" font-size="10.00"> +elements</text>
</g>
<!-- Node8 -->
<g id="node8" class="node">
<title>Node8</title>
<g id="a_node8"><a xlink:href="classbenchmark_1_1Mutex.html" target="_top" xlink:title=" ">
<polygon fill="white" stroke="black" points="389.5,-353.5 389.5,-443.5 497.5,-443.5 497.5,-353.5 389.5,-353.5"/>
<text text-anchor="middle" x="443.5" y="-431.5" font-family="Helvetica,sans-Serif" font-size="10.00">benchmark::Mutex</text>
<polyline fill="none" stroke="black" points="389.5,-424.5 497.5,-424.5 "/>
<text text-anchor="middle" x="443.5" y="-412.5" font-family="Helvetica,sans-Serif" font-size="10.00"> </text>
<polyline fill="none" stroke="black" points="389.5,-405.5 497.5,-405.5 "/>
<text text-anchor="start" x="397.5" y="-393.5" font-family="Helvetica,sans-Serif" font-size="10.00">+ Mutex()</text>
<text text-anchor="start" x="397.5" y="-382.5" font-family="Helvetica,sans-Serif" font-size="10.00">+ lock()</text>
<text text-anchor="start" x="397.5" y="-371.5" font-family="Helvetica,sans-Serif" font-size="10.00">+ unlock()</text>
<text text-anchor="start" x="397.5" y="-360.5" font-family="Helvetica,sans-Serif" font-size="10.00">+ native_handle()</text>
</a>
</g>
</g>
<!-- Node8&#45;&gt;Node1 -->
<g id="edge8" class="edge">
<title>Node8&#45;&gt;Node1</title>
<path fill="none" stroke="#404040" d="M389.5,-375.07C360.08,-359.96 325.83,-337.09 306.5,-306 265.08,-239.38 296.97,-208.28 283.5,-131 283.15,-128.97 282.77,-126.9 282.39,-124.82"/>
<polygon fill="none" stroke="#404040" points="282.34,-124.57 277.27,-119.44 280.05,-112.79 285.12,-117.91 282.34,-124.57"/>
<text text-anchor="middle" x="358.5" y="-236" font-family="Helvetica,sans-Serif" font-size="10.00"> &#45;benchmark_mutex_</text>
<text text-anchor="middle" x="358.5" y="-225" font-family="Helvetica,sans-Serif" font-size="10.00">&#45;end_cond_mutex_</text>
</g>
<!-- Node10 -->
<g id="node10" class="node">
<title>Node10</title>
<g id="a_node10"><a xlink:href="classbenchmark_1_1Barrier.html" target="_top" xlink:title=" ">
<polygon fill="white" stroke="black" points="419.5,-171.5 419.5,-294.5 529.5,-294.5 529.5,-171.5 419.5,-171.5"/>
<text text-anchor="middle" x="474.5" y="-282.5" font-family="Helvetica,sans-Serif" font-size="10.00">benchmark::Barrier</text>
<polyline fill="none" stroke="black" points="419.5,-275.5 529.5,-275.5 "/>
<text text-anchor="start" x="427.5" y="-263.5" font-family="Helvetica,sans-Serif" font-size="10.00">&#45; phase_condition_</text>
<text text-anchor="start" x="427.5" y="-252.5" font-family="Helvetica,sans-Serif" font-size="10.00">&#45; running_threads_</text>
<text text-anchor="start" x="427.5" y="-241.5" font-family="Helvetica,sans-Serif" font-size="10.00">&#45; phase_number_</text>
<text text-anchor="start" x="427.5" y="-230.5" font-family="Helvetica,sans-Serif" font-size="10.00">&#45; entered_</text>
<polyline fill="none" stroke="black" points="419.5,-223.5 529.5,-223.5 "/>
<text text-anchor="start" x="427.5" y="-211.5" font-family="Helvetica,sans-Serif" font-size="10.00">+ Barrier()</text>
<text text-anchor="start" x="427.5" y="-200.5" font-family="Helvetica,sans-Serif" font-size="10.00">+ wait()</text>
<text text-anchor="start" x="427.5" y="-189.5" font-family="Helvetica,sans-Serif" font-size="10.00">+ removeThread()</text>
<text text-anchor="start" x="427.5" y="-178.5" font-family="Helvetica,sans-Serif" font-size="10.00">&#45; createBarrier()</text>
</a>
</g>
</g>
<!-- Node8&#45;&gt;Node10 -->
<g id="edge11" class="edge">
<title>Node8&#45;&gt;Node10</title>
<path fill="none" stroke="#404040" d="M451.89,-353.25C454.62,-338.86 457.72,-322.49 460.74,-306.58"/>
<polygon fill="none" stroke="#404040" points="460.78,-306.34 457.97,-299.7 463.02,-294.55 465.83,-301.19 460.78,-306.34"/>
<text text-anchor="middle" x="473" y="-327" font-family="Helvetica,sans-Serif" font-size="10.00"> &#45;lock_</text>
</g>
<!-- Node9 -->
<g id="node9" class="node">
<title>Node9</title>
<g id="a_node9"><a xlink:title="STL class.">
<polygon fill="white" stroke="#bfbfbf" points="409,-508 409,-565 478,-565 478,-508 409,-508"/>
<text text-anchor="middle" x="443.5" y="-553" font-family="Helvetica,sans-Serif" font-size="10.00">std::mutex</text>
<polyline fill="none" stroke="#bfbfbf" points="409,-546 478,-546 "/>
<text text-anchor="middle" x="443.5" y="-534" font-family="Helvetica,sans-Serif" font-size="10.00"> </text>
<polyline fill="none" stroke="#bfbfbf" points="409,-527 478,-527 "/>
<text text-anchor="middle" x="443.5" y="-515" font-family="Helvetica,sans-Serif" font-size="10.00"> </text>
</a>
</g>
</g>
<!-- Node9&#45;&gt;Node8 -->
<g id="edge9" class="edge">
<title>Node9&#45;&gt;Node8</title>
<path fill="none" stroke="#404040" d="M443.5,-507.98C443.5,-492.97 443.5,-473.82 443.5,-455.81"/>
<polygon fill="none" stroke="#404040" points="443.5,-455.58 439.5,-449.58 443.5,-443.58 447.5,-449.58 443.5,-455.58"/>
<text text-anchor="middle" x="459.5" y="-465" font-family="Helvetica,sans-Serif" font-size="10.00"> &#45;mut_</text>
</g>
<!-- Node10&#45;&gt;Node1 -->
<g id="edge10" class="edge">
<title>Node10&#45;&gt;Node1</title>
<path fill="none" stroke="#404040" d="M419.18,-172.63C414.64,-168.27 410.04,-164.01 405.5,-160 388.25,-144.79 368.88,-129.44 350.23,-115.43"/>
<polygon fill="none" stroke="#404040" points="350.18,-115.39 342.98,-115.02 340.56,-108.23 347.76,-108.6 350.18,-115.39"/>
<text text-anchor="middle" x="434" y="-134" font-family="Helvetica,sans-Serif" font-size="10.00"> &#45;start_stop_barrier_</text>
</g>
</g>
</svg>
