<?xml version="1.0" encoding="UTF-8" standalone="no"?>
<!DOCTYPE svg PUBLIC "-//W3C//DTD SVG 1.1//EN"
 "http://www.w3.org/Graphics/SVG/1.1/DTD/svg11.dtd">
<!-- Generated by graphviz version 2.43.0 (0)
 -->
<!-- Title: benchmark::State::KeepRunningInternal Pages: 1 -->
<svg width="373pt" height="127pt"
 viewBox="0.00 0.00 373.00 126.50" xmlns="http://www.w3.org/2000/svg" xmlns:xlink="http://www.w3.org/1999/xlink">
<g id="graph0" class="graph" transform="scale(1 1) rotate(0) translate(4 122.5)">
<title>benchmark::State::KeepRunningInternal</title>
<polygon fill="white" stroke="transparent" points="-4,4 -4,-122.5 369,-122.5 369,4 -4,4"/>
<!-- Node1 -->
<g id="node1" class="node">
<title>Node1</title>
<g id="a_node1"><a xlink:title=" ">
<polygon fill="#bfbfbf" stroke="black" points="0,-49.5 0,-79.5 173,-79.5 173,-49.5 0,-49.5"/>
<text text-anchor="start" x="8" y="-67.5" font-family="Helvetica,sans-Serif" font-size="10.00">benchmark::State::KeepRunning</text>
<text text-anchor="middle" x="86.5" y="-56.5" font-family="Helvetica,sans-Serif" font-size="10.00">Internal</text>
</a>
</g>
</g>
<!-- Node2 -->
<g id="node2" class="node">
<title>Node2</title>
<g id="a_node2"><a xlink:href="FuzzerTracePC_8cpp.html#a1f10ac78bd11294b612636121065eb5b" target="_top" xlink:title=" ">
<polygon fill="white" stroke="black" points="263.5,-99 263.5,-118 310.5,-118 310.5,-99 263.5,-99"/>
<text text-anchor="middle" x="287" y="-106" font-family="Helvetica,sans-Serif" font-size="10.00">assert</text>
</a>
</g>
</g>
<!-- Node1&#45;&gt;Node2 -->
<g id="edge1" class="edge">
<title>Node1&#45;&gt;Node2</title>
<path fill="none" stroke="midnightblue" d="M155.26,-79.52C188.37,-86.86 226.71,-95.36 253.27,-101.24"/>
<polygon fill="midnightblue" stroke="midnightblue" points="252.66,-104.7 263.18,-103.44 254.18,-97.86 252.66,-104.7"/>
</g>
<!-- Node3 -->
<g id="node3" class="node">
<title>Node3</title>
<g id="a_node3"><a xlink:href="classbenchmark_1_1State.html#a4fb09efb9288d0004feb90a6f7b34df7" target="_top" xlink:title=" ">
<polygon fill="white" stroke="black" points="218.5,-49.5 218.5,-79.5 355.5,-79.5 355.5,-49.5 218.5,-49.5"/>
<text text-anchor="start" x="226.5" y="-67.5" font-family="Helvetica,sans-Serif" font-size="10.00">benchmark::State::Finish</text>
<text text-anchor="middle" x="287" y="-56.5" font-family="Helvetica,sans-Serif" font-size="10.00">KeepRunning</text>
</a>
</g>
</g>
<!-- Node1&#45;&gt;Node3 -->
<g id="edge2" class="edge">
<title>Node1&#45;&gt;Node3</title>
<path fill="none" stroke="midnightblue" d="M173.12,-64.5C184.81,-64.5 196.75,-64.5 208.29,-64.5"/>
<polygon fill="midnightblue" stroke="midnightblue" points="208.3,-68 218.3,-64.5 208.3,-61 208.3,-68"/>
</g>
<!-- Node4 -->
<g id="node4" class="node">
<title>Node4</title>
<g id="a_node4"><a xlink:href="classbenchmark_1_1State.html#a6d2c1f9ef85c06e960287b615ff39d4e" target="_top" xlink:title=" ">
<polygon fill="white" stroke="black" points="209,-0.5 209,-30.5 365,-30.5 365,-0.5 209,-0.5"/>
<text text-anchor="start" x="217" y="-18.5" font-family="Helvetica,sans-Serif" font-size="10.00">benchmark::State::StartKeep</text>
<text text-anchor="middle" x="287" y="-7.5" font-family="Helvetica,sans-Serif" font-size="10.00">Running</text>
</a>
</g>
</g>
<!-- Node1&#45;&gt;Node4 -->
<g id="edge3" class="edge">
<title>Node1&#45;&gt;Node4</title>
<path fill="none" stroke="midnightblue" d="M148.41,-49.47C169.55,-44.24 193.45,-38.35 215.32,-32.95"/>
<polygon fill="midnightblue" stroke="midnightblue" points="216.34,-36.3 225.21,-30.51 214.66,-29.5 216.34,-36.3"/>
</g>
</g>
</svg>
