<?xml version="1.0" encoding="UTF-8" standalone="no"?>
<!DOCTYPE svg PUBLIC "-//W3C//DTD SVG 1.1//EN"
 "http://www.w3.org/Graphics/SVG/1.1/DTD/svg11.dtd">
<!-- Generated by graphviz version 2.43.0 (0)
 -->
<!-- Title: nlohmann::detail::binary_reader::parse_ubjson_internal Pages: 1 -->
<svg width="719pt" height="165pt"
 viewBox="0.00 0.00 719.00 165.00" xmlns="http://www.w3.org/2000/svg" xmlns:xlink="http://www.w3.org/1999/xlink">
<g id="graph0" class="graph" transform="scale(1 1) rotate(0) translate(4 161)">
<title>nlohmann::detail::binary_reader::parse_ubjson_internal</title>
<polygon fill="white" stroke="transparent" points="-4,4 -4,-161 715,-161 715,4 -4,4"/>
<!-- Node1 -->
<g id="node1" class="node">
<title>Node1</title>
<g id="a_node1"><a xlink:title=" ">
<polygon fill="#bfbfbf" stroke="black" points="544,-63.5 544,-93.5 711,-93.5 711,-63.5 544,-63.5"/>
<text text-anchor="start" x="552" y="-81.5" font-family="Helvetica,sans-Serif" font-size="10.00">nlohmann::detail::binary</text>
<text text-anchor="middle" x="627.5" y="-70.5" font-family="Helvetica,sans-Serif" font-size="10.00">_reader::parse_ubjson_internal</text>
</a>
</g>
</g>
<!-- Node2 -->
<g id="node2" class="node">
<title>Node2</title>
<g id="a_node2"><a xlink:href="classnlohmann_1_1detail_1_1binary__reader.html#a4e8ef9561d4403ea68e3c2712fd289e2" target="_top" xlink:title=" ">
<polygon fill="white" stroke="black" points="365,-126.5 365,-156.5 508,-156.5 508,-126.5 365,-126.5"/>
<text text-anchor="start" x="373" y="-144.5" font-family="Helvetica,sans-Serif" font-size="10.00">nlohmann::detail::binary</text>
<text text-anchor="middle" x="436.5" y="-133.5" font-family="Helvetica,sans-Serif" font-size="10.00">_reader::get_ubjson_array</text>
</a>
</g>
</g>
<!-- Node1&#45;&gt;Node2 -->
<g id="edge1" class="edge">
<title>Node1&#45;&gt;Node2</title>
<path fill="none" stroke="midnightblue" d="M571.52,-96.83C543.32,-106.23 509.39,-117.54 482.73,-126.42"/>
<polygon fill="midnightblue" stroke="midnightblue" points="572.85,-100.07 581.23,-93.59 570.64,-93.43 572.85,-100.07"/>
</g>
<!-- Node4 -->
<g id="node4" class="node">
<title>Node4</title>
<g id="a_node4"><a xlink:href="classnlohmann_1_1detail_1_1binary__reader.html#ad0932dd568fcbbd2b4c2ccf9122544a5" target="_top" xlink:title=" ">
<polygon fill="white" stroke="black" points="0,-107.5 0,-137.5 148,-137.5 148,-107.5 0,-107.5"/>
<text text-anchor="start" x="8" y="-125.5" font-family="Helvetica,sans-Serif" font-size="10.00">nlohmann::detail::binary</text>
<text text-anchor="middle" x="74" y="-114.5" font-family="Helvetica,sans-Serif" font-size="10.00">_reader::get_ubjson_object</text>
</a>
</g>
</g>
<!-- Node1&#45;&gt;Node4 -->
<g id="edge7" class="edge">
<title>Node1&#45;&gt;Node4</title>
<path fill="none" stroke="midnightblue" d="M533.58,-77.96C443.75,-78.55 304,-82.42 184,-98.5 167.87,-100.66 150.59,-103.99 134.65,-107.48"/>
<polygon fill="midnightblue" stroke="midnightblue" points="533.76,-81.46 543.74,-77.91 533.73,-74.46 533.76,-81.46"/>
</g>
<!-- Node5 -->
<g id="node5" class="node">
<title>Node5</title>
<g id="a_node5"><a xlink:href="classnlohmann_1_1detail_1_1binary__reader.html#ab94a54d6e595c2620b07589cf4116256" target="_top" xlink:title=" ">
<polygon fill="white" stroke="black" points="368.5,-0.5 368.5,-30.5 504.5,-30.5 504.5,-0.5 368.5,-0.5"/>
<text text-anchor="start" x="376.5" y="-18.5" font-family="Helvetica,sans-Serif" font-size="10.00">nlohmann::detail::binary</text>
<text text-anchor="middle" x="436.5" y="-7.5" font-family="Helvetica,sans-Serif" font-size="10.00">_reader::sax_parse</text>
</a>
</g>
</g>
<!-- Node1&#45;&gt;Node5 -->
<g id="edge8" class="edge">
<title>Node1&#45;&gt;Node5</title>
<path fill="none" stroke="midnightblue" d="M571.52,-60.17C543.32,-50.77 509.39,-39.46 482.73,-30.58"/>
<polygon fill="midnightblue" stroke="midnightblue" points="570.64,-63.57 581.23,-63.41 572.85,-56.93 570.64,-63.57"/>
</g>
<!-- Node3 -->
<g id="node3" class="node">
<title>Node3</title>
<g id="a_node3"><a xlink:href="classnlohmann_1_1detail_1_1binary__reader.html#a5f425199a77f403e32f076ff8487f853" target="_top" xlink:title=" ">
<polygon fill="white" stroke="black" points="184,-107.5 184,-137.5 329,-137.5 329,-107.5 184,-107.5"/>
<text text-anchor="start" x="192" y="-125.5" font-family="Helvetica,sans-Serif" font-size="10.00">nlohmann::detail::binary</text>
<text text-anchor="middle" x="256.5" y="-114.5" font-family="Helvetica,sans-Serif" font-size="10.00">_reader::get_ubjson_value</text>
</a>
</g>
</g>
<!-- Node2&#45;&gt;Node3 -->
<g id="edge2" class="edge">
<title>Node2&#45;&gt;Node3</title>
<path fill="none" stroke="midnightblue" d="M354.9,-126.17C346.32,-125.2 337.65,-124.31 329.19,-123.52"/>
<polygon fill="midnightblue" stroke="midnightblue" points="354.55,-129.66 364.89,-127.34 355.37,-122.7 354.55,-129.66"/>
</g>
<!-- Node3&#45;&gt;Node1 -->
<g id="edge6" class="edge">
<title>Node3&#45;&gt;Node1</title>
<path fill="none" stroke="midnightblue" d="M339.08,-112.77C399.88,-105.52 482.6,-95.66 543.69,-88.37"/>
<polygon fill="midnightblue" stroke="midnightblue" points="338.66,-109.3 329.14,-113.96 339.49,-116.25 338.66,-109.3"/>
</g>
<!-- Node3&#45;&gt;Node2 -->
<g id="edge3" class="edge">
<title>Node3&#45;&gt;Node2</title>
<path fill="none" stroke="midnightblue" d="M339.2,-137.95C347.78,-138.91 356.45,-139.8 364.89,-140.58"/>
<polygon fill="midnightblue" stroke="midnightblue" points="339.52,-134.46 329.19,-136.79 338.72,-141.42 339.52,-134.46"/>
</g>
<!-- Node3&#45;&gt;Node4 -->
<g id="edge4" class="edge">
<title>Node3&#45;&gt;Node4</title>
<path fill="none" stroke="midnightblue" d="M173.66,-115.78C165.2,-115.72 156.64,-115.75 148.29,-115.86"/>
<polygon fill="midnightblue" stroke="midnightblue" points="173.87,-119.28 183.9,-115.88 173.94,-112.28 173.87,-119.28"/>
</g>
<!-- Node4&#45;&gt;Node3 -->
<g id="edge5" class="edge">
<title>Node4&#45;&gt;Node3</title>
<path fill="none" stroke="midnightblue" d="M158.56,-129.23C167.03,-129.28 175.58,-129.24 183.9,-129.12"/>
<polygon fill="midnightblue" stroke="midnightblue" points="158.32,-125.73 148.29,-129.14 158.25,-132.73 158.32,-125.73"/>
</g>
<!-- Node6 -->
<g id="node6" class="node">
<title>Node6</title>
<g id="a_node6"><a xlink:href="classnlohmann_1_1basic__json.html#a8a3dd150c2d1f0df3502d937de0871db" target="_top" xlink:title="generate SAX events">
<polygon fill="white" stroke="black" points="195.5,-0.5 195.5,-30.5 317.5,-30.5 317.5,-0.5 195.5,-0.5"/>
<text text-anchor="start" x="203.5" y="-18.5" font-family="Helvetica,sans-Serif" font-size="10.00">nlohmann::basic_json</text>
<text text-anchor="middle" x="256.5" y="-7.5" font-family="Helvetica,sans-Serif" font-size="10.00">::sax_parse</text>
</a>
</g>
</g>
<!-- Node5&#45;&gt;Node6 -->
<g id="edge9" class="edge">
<title>Node5&#45;&gt;Node6</title>
<path fill="none" stroke="midnightblue" d="M358.2,-15.5C344.65,-15.5 330.74,-15.5 317.75,-15.5"/>
<polygon fill="midnightblue" stroke="midnightblue" points="358.46,-19 368.46,-15.5 358.46,-12 358.46,-19"/>
</g>
<!-- Node7 -->
<g id="node7" class="node">
<title>Node7</title>
<g id="a_node7"><a xlink:href="unit-bson_8cpp.html#a73301d5e6d0f638e973f748287501dd6" target="_top" xlink:title=" ">
<polygon fill="white" stroke="black" points="38.5,-6 38.5,-25 109.5,-25 109.5,-6 38.5,-6"/>
<text text-anchor="middle" x="74" y="-13" font-family="Helvetica,sans-Serif" font-size="10.00">TEST_CASE</text>
</a>
</g>
</g>
<!-- Node6&#45;&gt;Node7 -->
<g id="edge10" class="edge">
<title>Node6&#45;&gt;Node7</title>
<path fill="none" stroke="midnightblue" d="M185.21,-15.5C159.26,-15.5 131,-15.5 109.59,-15.5"/>
<polygon fill="midnightblue" stroke="midnightblue" points="185.4,-19 195.4,-15.5 185.4,-12 185.4,-19"/>
</g>
</g>
</svg>
