<?xml version="1.0" encoding="UTF-8" standalone="no"?>
<!DOCTYPE svg PUBLIC "-//W3C//DTD SVG 1.1//EN"
 "http://www.w3.org/Graphics/SVG/1.1/DTD/svg11.dtd">
<!-- Generated by graphviz version 2.43.0 (0)
 -->
<!-- Title: nlohmann::detail::lexer::token_type_name Pages: 1 -->
<svg width="933pt" height="112pt"
 viewBox="0.00 0.00 933.00 111.50" xmlns="http://www.w3.org/2000/svg" xmlns:xlink="http://www.w3.org/1999/xlink">
<g id="graph0" class="graph" transform="scale(1 1) rotate(0) translate(4 107.5)">
<title>nlohmann::detail::lexer::token_type_name</title>
<polygon fill="white" stroke="transparent" points="-4,4 -4,-107.5 929,-107.5 929,4 -4,4"/>
<!-- Node1 -->
<g id="node1" class="node">
<title>Node1</title>
<g id="a_node1"><a xlink:title="return name of values of type token_type (only used for errors)">
<polygon fill="#bfbfbf" stroke="black" points="795,-17 795,-47 925,-47 925,-17 795,-17"/>
<text text-anchor="start" x="803" y="-35" font-family="Helvetica,sans-Serif" font-size="10.00">nlohmann::detail::lexer</text>
<text text-anchor="middle" x="860" y="-24" font-family="Helvetica,sans-Serif" font-size="10.00">::token_type_name</text>
</a>
</g>
</g>
<!-- Node2 -->
<g id="node2" class="node">
<title>Node2</title>
<g id="a_node2"><a xlink:href="classnlohmann_1_1detail_1_1parser.html#a1328166d9e9b655399fdc890d47e4990" target="_top" xlink:title=" ">
<polygon fill="white" stroke="black" points="623,-39 623,-69 759,-69 759,-39 623,-39"/>
<text text-anchor="start" x="631" y="-57" font-family="Helvetica,sans-Serif" font-size="10.00">nlohmann::detail::parser</text>
<text text-anchor="middle" x="691" y="-46" font-family="Helvetica,sans-Serif" font-size="10.00">::exception_message</text>
</a>
</g>
</g>
<!-- Node1&#45;&gt;Node2 -->
<g id="edge1" class="edge">
<title>Node1&#45;&gt;Node2</title>
<path fill="none" stroke="midnightblue" d="M784.95,-41.76C776.39,-42.88 767.7,-44.03 759.24,-45.14"/>
<polygon fill="midnightblue" stroke="midnightblue" points="785.45,-45.22 794.91,-40.44 784.54,-38.28 785.45,-45.22"/>
</g>
<!-- Node8 -->
<g id="node8" class="node">
<title>Node8</title>
<g id="a_node8"><a xlink:href="unit-class__lexer_8cpp.html#ae42391c57fced9295c42fc68a09919ad" target="_top" xlink:title=" ">
<polygon fill="white" stroke="black" points="655.5,-0.5 655.5,-19.5 726.5,-19.5 726.5,-0.5 655.5,-0.5"/>
<text text-anchor="middle" x="691" y="-7.5" font-family="Helvetica,sans-Serif" font-size="10.00">TEST_CASE</text>
</a>
</g>
</g>
<!-- Node1&#45;&gt;Node8 -->
<g id="edge9" class="edge">
<title>Node1&#45;&gt;Node8</title>
<path fill="none" stroke="midnightblue" d="M784.75,-22.22C764.54,-19.56 743.59,-16.8 726.73,-14.58"/>
<polygon fill="midnightblue" stroke="midnightblue" points="784.54,-25.72 794.91,-23.56 785.45,-18.78 784.54,-25.72"/>
</g>
<!-- Node3 -->
<g id="node3" class="node">
<title>Node3</title>
<g id="a_node3"><a xlink:href="classnlohmann_1_1detail_1_1parser.html#a14338d8f3174601c0b2b7ef28752ab17" target="_top" xlink:title="public parser interface">
<polygon fill="white" stroke="black" points="279,-73 279,-103 415,-103 415,-73 279,-73"/>
<text text-anchor="start" x="287" y="-91" font-family="Helvetica,sans-Serif" font-size="10.00">nlohmann::detail::parser</text>
<text text-anchor="middle" x="347" y="-80" font-family="Helvetica,sans-Serif" font-size="10.00">::parse</text>
</a>
</g>
</g>
<!-- Node2&#45;&gt;Node3 -->
<g id="edge2" class="edge">
<title>Node2&#45;&gt;Node3</title>
<path fill="none" stroke="midnightblue" d="M627.04,-71.39C613.9,-74.43 600.07,-77.19 587,-79 529.32,-87 463.1,-88.94 415.02,-89.05"/>
<polygon fill="midnightblue" stroke="midnightblue" points="628.02,-74.76 636.93,-69.03 626.39,-67.95 628.02,-74.76"/>
</g>
<!-- Node4 -->
<g id="node4" class="node">
<title>Node4</title>
<g id="a_node4"><a xlink:href="classnlohmann_1_1detail_1_1parser.html#a14e34931965064b26e118eb72cbd5e25" target="_top" xlink:title=" ">
<polygon fill="white" stroke="black" points="279,-14 279,-44 415,-44 415,-14 279,-14"/>
<text text-anchor="start" x="287" y="-32" font-family="Helvetica,sans-Serif" font-size="10.00">nlohmann::detail::parser</text>
<text text-anchor="middle" x="347" y="-21" font-family="Helvetica,sans-Serif" font-size="10.00">::sax_parse</text>
</a>
</g>
</g>
<!-- Node2&#45;&gt;Node4 -->
<g id="edge3" class="edge">
<title>Node2&#45;&gt;Node4</title>
<path fill="none" stroke="midnightblue" d="M628.8,-36.62C615.15,-33.45 600.67,-30.64 587,-29 529.32,-22.1 463.25,-22.75 415.22,-24.75"/>
<polygon fill="midnightblue" stroke="midnightblue" points="628.03,-40.03 638.57,-38.97 629.67,-33.23 628.03,-40.03"/>
</g>
<!-- Node7 -->
<g id="node7" class="node">
<title>Node7</title>
<g id="a_node7"><a xlink:href="classnlohmann_1_1detail_1_1parser.html#ad256ac6f45b213d29096a04b5aa3c587" target="_top" xlink:title=" ">
<polygon fill="white" stroke="black" points="451,-39 451,-69 587,-69 587,-39 451,-39"/>
<text text-anchor="start" x="459" y="-57" font-family="Helvetica,sans-Serif" font-size="10.00">nlohmann::detail::parser</text>
<text text-anchor="middle" x="519" y="-46" font-family="Helvetica,sans-Serif" font-size="10.00">::sax_parse_internal</text>
</a>
</g>
</g>
<!-- Node2&#45;&gt;Node7 -->
<g id="edge6" class="edge">
<title>Node2&#45;&gt;Node7</title>
<path fill="none" stroke="midnightblue" d="M612.58,-54C604.12,-54 595.57,-54 587.26,-54"/>
<polygon fill="midnightblue" stroke="midnightblue" points="612.81,-57.5 622.81,-54 612.81,-50.5 612.81,-57.5"/>
</g>
<!-- Node5 -->
<g id="node5" class="node">
<title>Node5</title>
<g id="a_node5"><a xlink:href="classnlohmann_1_1detail_1_1parser.html#a20997b42262856935b60fc91bf05bf3f" target="_top" xlink:title="public accept interface">
<polygon fill="white" stroke="black" points="107,-14 107,-44 243,-44 243,-14 107,-14"/>
<text text-anchor="start" x="115" y="-32" font-family="Helvetica,sans-Serif" font-size="10.00">nlohmann::detail::parser</text>
<text text-anchor="middle" x="175" y="-21" font-family="Helvetica,sans-Serif" font-size="10.00">::accept</text>
</a>
</g>
</g>
<!-- Node4&#45;&gt;Node5 -->
<g id="edge4" class="edge">
<title>Node4&#45;&gt;Node5</title>
<path fill="none" stroke="midnightblue" d="M268.58,-29C260.12,-29 251.57,-29 243.26,-29"/>
<polygon fill="midnightblue" stroke="midnightblue" points="268.81,-32.5 278.81,-29 268.81,-25.5 268.81,-32.5"/>
</g>
<!-- Node6 -->
<g id="node6" class="node">
<title>Node6</title>
<g id="a_node6"><a xlink:href="unit-class__parser_8cpp.html#aa0249936738cc61255ba7c8cb7c7cf16" target="_top" xlink:title=" ">
<polygon fill="white" stroke="black" points="0,-19.5 0,-38.5 71,-38.5 71,-19.5 0,-19.5"/>
<text text-anchor="middle" x="35.5" y="-26.5" font-family="Helvetica,sans-Serif" font-size="10.00">TEST_CASE</text>
</a>
</g>
</g>
<!-- Node5&#45;&gt;Node6 -->
<g id="edge5" class="edge">
<title>Node5&#45;&gt;Node6</title>
<path fill="none" stroke="midnightblue" d="M96.7,-29C87.75,-29 78.99,-29 71.05,-29"/>
<polygon fill="midnightblue" stroke="midnightblue" points="96.86,-32.5 106.86,-29 96.86,-25.5 96.86,-32.5"/>
</g>
<!-- Node7&#45;&gt;Node3 -->
<g id="edge7" class="edge">
<title>Node7&#45;&gt;Node3</title>
<path fill="none" stroke="midnightblue" d="M440.85,-69.43C432.31,-71.14 423.66,-72.87 415.26,-74.55"/>
<polygon fill="midnightblue" stroke="midnightblue" points="441.69,-72.83 450.81,-67.44 440.32,-65.97 441.69,-72.83"/>
</g>
<!-- Node7&#45;&gt;Node4 -->
<g id="edge8" class="edge">
<title>Node7&#45;&gt;Node4</title>
<path fill="none" stroke="midnightblue" d="M440.85,-42.65C432.31,-41.4 423.66,-40.13 415.26,-38.89"/>
<polygon fill="midnightblue" stroke="midnightblue" points="440.41,-46.13 450.81,-44.12 441.43,-39.2 440.41,-46.13"/>
</g>
</g>
</svg>
