<?xml version="1.0" encoding="UTF-8" standalone="no"?>
<!DOCTYPE svg PUBLIC "-//W3C//DTD SVG 1.1//EN"
 "http://www.w3.org/Graphics/SVG/1.1/DTD/svg11.dtd">
<!-- Generated by graphviz version 2.43.0 (0)
 -->
<!-- Title: nlohmann::detail::binary_writer::write_number_with_ubjson_prefix Pages: 1 -->
<svg width="652pt" height="200pt"
 viewBox="0.00 0.00 652.00 200.00" xmlns="http://www.w3.org/2000/svg" xmlns:xlink="http://www.w3.org/1999/xlink">
<g id="graph0" class="graph" transform="scale(1 1) rotate(0) translate(4 196)">
<title>nlohmann::detail::binary_writer::write_number_with_ubjson_prefix</title>
<polygon fill="white" stroke="transparent" points="-4,4 -4,-196 648,-196 648,4 -4,4"/>
<!-- Node1 -->
<g id="node1" class="node">
<title>Node1</title>
<g id="a_node1"><a xlink:title=" ">
<polygon fill="#bfbfbf" stroke="black" points="0,-61 0,-102 150,-102 150,-61 0,-61"/>
<text text-anchor="start" x="8" y="-90" font-family="Helvetica,sans-Serif" font-size="10.00">nlohmann::detail::binary</text>
<text text-anchor="start" x="8" y="-79" font-family="Helvetica,sans-Serif" font-size="10.00">_writer::write_number_with</text>
<text text-anchor="middle" x="75" y="-68" font-family="Helvetica,sans-Serif" font-size="10.00">_ubjson_prefix</text>
</a>
</g>
</g>
<!-- Node2 -->
<g id="node2" class="node">
<title>Node2</title>
<g id="a_node2"><a xlink:href="classnlohmann_1_1detail_1_1out__of__range.html#a3f6d82a6f967c4728a1ec735a7867073" target="_top" xlink:title=" ">
<polygon fill="white" stroke="black" points="193.5,-137.5 193.5,-167.5 314.5,-167.5 314.5,-137.5 193.5,-137.5"/>
<text text-anchor="start" x="201.5" y="-155.5" font-family="Helvetica,sans-Serif" font-size="10.00">nlohmann::detail::out</text>
<text text-anchor="middle" x="254" y="-144.5" font-family="Helvetica,sans-Serif" font-size="10.00">_of_range::create</text>
</a>
</g>
</g>
<!-- Node1&#45;&gt;Node2 -->
<g id="edge1" class="edge">
<title>Node1&#45;&gt;Node2</title>
<path fill="none" stroke="midnightblue" d="M124.02,-102.06C143.23,-110.16 165.6,-119.43 186,-127.5 191.2,-129.55 196.63,-131.66 202.07,-133.73"/>
<polygon fill="midnightblue" stroke="midnightblue" points="201.21,-137.15 211.8,-137.42 203.69,-130.6 201.21,-137.15"/>
</g>
<!-- Node6 -->
<g id="node6" class="node">
<title>Node6</title>
<g id="a_node6"><a xlink:href="classnlohmann_1_1detail_1_1binary__writer.html#ab77aa48692bd4e64e4f051ce6aeb6d2d" target="_top" xlink:title=" ">
<polygon fill="white" stroke="black" points="186,-88.5 186,-118.5 322,-118.5 322,-88.5 186,-88.5"/>
<text text-anchor="start" x="194" y="-106.5" font-family="Helvetica,sans-Serif" font-size="10.00">nlohmann::detail::binary</text>
<text text-anchor="middle" x="254" y="-95.5" font-family="Helvetica,sans-Serif" font-size="10.00">_writer::to_char_type</text>
</a>
</g>
</g>
<!-- Node1&#45;&gt;Node6 -->
<g id="edge5" class="edge">
<title>Node1&#45;&gt;Node6</title>
<path fill="none" stroke="midnightblue" d="M150.04,-90.7C158.55,-91.76 167.24,-92.84 175.8,-93.9"/>
<polygon fill="midnightblue" stroke="midnightblue" points="175.39,-97.38 185.75,-95.14 176.26,-90.43 175.39,-97.38"/>
</g>
<!-- Node7 -->
<g id="node7" class="node">
<title>Node7</title>
<g id="a_node7"><a xlink:href="namespacenlohmann.html#ad675d1c22f5240b2b3065c241b204477" target="_top" xlink:title="user&#45;defined to_string function for JSON values">
<polygon fill="white" stroke="black" points="197,-50 197,-69 311,-69 311,-50 197,-50"/>
<text text-anchor="middle" x="254" y="-57" font-family="Helvetica,sans-Serif" font-size="10.00">nlohmann::to_string</text>
</a>
</g>
</g>
<!-- Node1&#45;&gt;Node7 -->
<g id="edge6" class="edge">
<title>Node1&#45;&gt;Node7</title>
<path fill="none" stroke="midnightblue" d="M150.04,-72.3C162.13,-70.79 174.59,-69.25 186.48,-67.77"/>
<polygon fill="midnightblue" stroke="midnightblue" points="187.27,-71.2 196.76,-66.49 186.41,-64.25 187.27,-71.2"/>
</g>
<!-- Node8 -->
<g id="node8" class="node">
<title>Node8</title>
<g id="a_node8"><a xlink:href="classnlohmann_1_1detail_1_1binary__writer.html#a6e11b7227fcecc25a548ed45507b7d1c" target="_top" xlink:title=" ">
<polygon fill="white" stroke="black" points="186,-0.5 186,-30.5 322,-30.5 322,-0.5 186,-0.5"/>
<text text-anchor="start" x="194" y="-18.5" font-family="Helvetica,sans-Serif" font-size="10.00">nlohmann::detail::binary</text>
<text text-anchor="middle" x="254" y="-7.5" font-family="Helvetica,sans-Serif" font-size="10.00">_writer::write_number</text>
</a>
</g>
</g>
<!-- Node1&#45;&gt;Node8 -->
<g id="edge7" class="edge">
<title>Node1&#45;&gt;Node8</title>
<path fill="none" stroke="midnightblue" d="M131.03,-60.98C154.02,-52.41 180.53,-42.52 202.96,-34.16"/>
<polygon fill="midnightblue" stroke="midnightblue" points="204.47,-37.33 212.62,-30.56 202.03,-30.77 204.47,-37.33"/>
</g>
<!-- Node3 -->
<g id="node3" class="node">
<title>Node3</title>
<g id="a_node3"><a xlink:href="classnlohmann_1_1detail_1_1exception.html#abf41a7e9178356314082284e6cfea278" target="_top" xlink:title=" ">
<polygon fill="white" stroke="black" points="358,-161.5 358,-191.5 511,-191.5 511,-161.5 358,-161.5"/>
<text text-anchor="start" x="366" y="-179.5" font-family="Helvetica,sans-Serif" font-size="10.00">nlohmann::detail::exception</text>
<text text-anchor="middle" x="434.5" y="-168.5" font-family="Helvetica,sans-Serif" font-size="10.00">::name</text>
</a>
</g>
</g>
<!-- Node2&#45;&gt;Node3 -->
<g id="edge2" class="edge">
<title>Node2&#45;&gt;Node3</title>
<path fill="none" stroke="midnightblue" d="M314.93,-160.56C325.48,-161.98 336.64,-163.48 347.73,-164.97"/>
<polygon fill="midnightblue" stroke="midnightblue" points="347.5,-168.47 357.87,-166.33 348.43,-161.53 347.5,-168.47"/>
</g>
<!-- Node5 -->
<g id="node5" class="node">
<title>Node5</title>
<g id="a_node5"><a xlink:href="classnlohmann_1_1detail_1_1out__of__range.html#ab5fe402019dba957558499502f0fd731" target="_top" xlink:title=" ">
<polygon fill="white" stroke="black" points="367.5,-112.5 367.5,-142.5 501.5,-142.5 501.5,-112.5 367.5,-112.5"/>
<text text-anchor="start" x="375.5" y="-130.5" font-family="Helvetica,sans-Serif" font-size="10.00">nlohmann::detail::out</text>
<text text-anchor="middle" x="434.5" y="-119.5" font-family="Helvetica,sans-Serif" font-size="10.00">_of_range::out_of_range</text>
</a>
</g>
</g>
<!-- Node2&#45;&gt;Node5 -->
<g id="edge4" class="edge">
<title>Node2&#45;&gt;Node5</title>
<path fill="none" stroke="midnightblue" d="M314.93,-144.11C328.46,-142.21 343,-140.17 357.11,-138.2"/>
<polygon fill="midnightblue" stroke="midnightblue" points="357.86,-141.63 367.28,-136.77 356.89,-134.7 357.86,-141.63"/>
</g>
<!-- Node4 -->
<g id="node4" class="node">
<title>Node4</title>
<g id="a_node4"><a xlink:href="namespacehttplib.html#a498c3a79825ecbcb15c52ec5fcfd5c11" target="_top" xlink:title=" ">
<polygon fill="white" stroke="black" points="547,-167 547,-186 644,-186 644,-167 547,-167"/>
<text text-anchor="middle" x="595.5" y="-174" font-family="Helvetica,sans-Serif" font-size="10.00">httplib::to_string</text>
</a>
</g>
</g>
<!-- Node3&#45;&gt;Node4 -->
<g id="edge3" class="edge">
<title>Node3&#45;&gt;Node4</title>
<path fill="none" stroke="midnightblue" d="M511.27,-176.5C519.82,-176.5 528.43,-176.5 536.7,-176.5"/>
<polygon fill="midnightblue" stroke="midnightblue" points="536.96,-180 546.96,-176.5 536.96,-173 536.96,-180"/>
</g>
</g>
</svg>
