<?xml version="1.0" encoding="UTF-8" standalone="no"?>
<!DOCTYPE svg PUBLIC "-//W3C//DTD SVG 1.1//EN"
 "http://www.w3.org/Graphics/SVG/1.1/DTD/svg11.dtd">
<!-- Generated by graphviz version 2.43.0 (0)
 -->
<!-- Title: nlohmann::basic_json::basic_json Pages: 1 -->
<svg width="389pt" height="78pt"
 viewBox="0.00 0.00 389.00 77.50" xmlns="http://www.w3.org/2000/svg" xmlns:xlink="http://www.w3.org/1999/xlink">
<g id="graph0" class="graph" transform="scale(1 1) rotate(0) translate(4 73.5)">
<title>nlohmann::basic_json::basic_json</title>
<polygon fill="white" stroke="transparent" points="-4,4 -4,-73.5 385,-73.5 385,4 -4,4"/>
<!-- Node1 -->
<g id="node1" class="node">
<title>Node1</title>
<g id="a_node1"><a xlink:title="create a JSON value">
<polygon fill="#bfbfbf" stroke="black" points="0,-17 0,-47 122,-47 122,-17 0,-17"/>
<text text-anchor="start" x="8" y="-35" font-family="Helvetica,sans-Serif" font-size="10.00">nlohmann::basic_json</text>
<text text-anchor="middle" x="61" y="-24" font-family="Helvetica,sans-Serif" font-size="10.00">::basic_json</text>
</a>
</g>
</g>
<!-- Node2 -->
<g id="node2" class="node">
<title>Node2</title>
<g id="a_node2"><a xlink:href="classnlohmann_1_1basic__json.html#a4a82d3fb7a111641decf35c2fb707c7f" target="_top" xlink:title="checks the class invariants">
<polygon fill="white" stroke="black" points="167,-39 167,-69 289,-69 289,-39 167,-39"/>
<text text-anchor="start" x="175" y="-57" font-family="Helvetica,sans-Serif" font-size="10.00">nlohmann::basic_json</text>
<text text-anchor="middle" x="228" y="-46" font-family="Helvetica,sans-Serif" font-size="10.00">::assert_invariant</text>
</a>
</g>
</g>
<!-- Node1&#45;&gt;Node2 -->
<g id="edge1" class="edge">
<title>Node1&#45;&gt;Node2</title>
<path fill="none" stroke="midnightblue" d="M122.04,-40C133.3,-41.51 145.16,-43.09 156.7,-44.63"/>
<polygon fill="midnightblue" stroke="midnightblue" points="156.36,-48.11 166.73,-45.96 157.28,-41.17 156.36,-48.11"/>
</g>
<!-- Node4 -->
<g id="node4" class="node">
<title>Node4</title>
<g id="a_node4"><a xlink:href="namespacenlohmann_1_1detail.html#a1a804b98cbe89b7e44b698f2ca860490" target="_top" xlink:title=" ">
<polygon fill="white" stroke="black" points="158,-0.5 158,-19.5 298,-19.5 298,-0.5 158,-0.5"/>
<text text-anchor="middle" x="228" y="-7.5" font-family="Helvetica,sans-Serif" font-size="10.00">nlohmann::detail::to_json</text>
</a>
</g>
</g>
<!-- Node1&#45;&gt;Node4 -->
<g id="edge3" class="edge">
<title>Node1&#45;&gt;Node4</title>
<path fill="none" stroke="midnightblue" d="M122.04,-24C130.38,-22.88 139.06,-21.73 147.69,-20.58"/>
<polygon fill="midnightblue" stroke="midnightblue" points="148.32,-24.02 157.77,-19.23 147.4,-17.08 148.32,-24.02"/>
</g>
<!-- Node3 -->
<g id="node3" class="node">
<title>Node3</title>
<g id="a_node3"><a xlink:href="FuzzerTracePC_8cpp.html#a1f10ac78bd11294b612636121065eb5b" target="_top" xlink:title=" ">
<polygon fill="white" stroke="black" points="334,-44.5 334,-63.5 381,-63.5 381,-44.5 334,-44.5"/>
<text text-anchor="middle" x="357.5" y="-51.5" font-family="Helvetica,sans-Serif" font-size="10.00">assert</text>
</a>
</g>
</g>
<!-- Node2&#45;&gt;Node3 -->
<g id="edge2" class="edge">
<title>Node2&#45;&gt;Node3</title>
<path fill="none" stroke="midnightblue" d="M289.02,-54C301.03,-54 313.22,-54 323.88,-54"/>
<polygon fill="midnightblue" stroke="midnightblue" points="323.95,-57.5 333.95,-54 323.95,-50.5 323.95,-57.5"/>
</g>
</g>
</svg>
