<?xml version="1.0" encoding="UTF-8" standalone="no"?>
<!DOCTYPE svg PUBLIC "-//W3C//DTD SVG 1.1//EN"
 "http://www.w3.org/Graphics/SVG/1.1/DTD/svg11.dtd">
<!-- Generated by graphviz version 2.43.0 (0)
 -->
<!-- Title: fuzzer::Random::Rand Pages: 1 -->
<!--zoomable 159 -->
<svg id="main" version="1.1" xmlns="http://www.w3.org/2000/svg" xmlns:xlink="http://www.w3.org/1999/xlink" xml:space="preserve" onload="init(evt)">
<style type="text/css"><![CDATA[
.edge:hover path { stroke: red; }
.edge:hover polygon { stroke: red; fill: red; }
]]></style>
<script type="text/javascript"><![CDATA[
var edges = document.getElementsByTagName('g');
if (edges && edges.length) {
  for (var i=0;i<edges.length;i++) {
    if (edges[i].id.substr(0,4)=='edge') {
      edges[i].setAttribute('class','edge');
    }
  }
}
]]></script>
        <defs>
                <circle id="rim" cx="0" cy="0" r="7"/>
                <circle id="rim2" cx="0" cy="0" r="3.5"/>
                <g id="zoomPlus">
                        <use xlink:href="#rim" fill="#404040">
                                <set attributeName="fill" to="#808080" begin="zoomplus.mouseover" end="zoomplus.mouseout"/>
                        </use>
                        <path d="M-4,0h8M0,-4v8" fill="none" stroke="white" stroke-width="1.5" pointer-events="none"/>
                </g>
                <g id="zoomMin">
                        <use xlink:href="#rim" fill="#404040">
                                <set attributeName="fill" to="#808080" begin="zoomminus.mouseover" end="zoomminus.mouseout"/>
                        </use>
                        <path d="M-4,0h8" fill="none" stroke="white" stroke-width="1.5" pointer-events="none"/>
                </g>
                <g id="dirArrow">
                        <path fill="none" stroke="white" stroke-width="1.5" d="M0,-3.0v7 M-2.5,-0.5L0,-3.0L2.5,-0.5"/>
                </g>
               <g id="resetDef">
                       <use xlink:href="#rim2" fill="#404040">
                               <set attributeName="fill" to="#808080" begin="reset.mouseover" end="reset.mouseout"/>
                       </use>
               </g>
        </defs>

<script type="text/javascript">
var viewWidth = 769;
var viewHeight = 159;
var sectionId = 'dynsection-5';
</script>
<script xlink:href="svgpan.js"/>
<svg id="graph" class="graph">
<g id="viewport">
<title>fuzzer::Random::Rand</title>
<polygon fill="white" stroke="transparent" points="-4,4 -4,-154.5 765,-154.5 765,4 -4,4"/>
<!-- Node1 -->
<g id="node1" class="node">
<title>Node1</title>
<g id="a_node1"><a xlink:title=" ">
<polygon fill="#bfbfbf" stroke="black" points="637,-112 637,-131 761,-131 761,-112 637,-112"/>
<text text-anchor="middle" x="699" y="-119" font-family="Helvetica,sans-Serif" font-size="10.00">fuzzer::Random::Rand</text>
</a>
</g>
</g>
<!-- Node2 -->
<g id="node2" class="node">
<title>Node2</title>
<g id="a_node2"><a xlink:href="classfuzzer_1_1Random.html#ae60979187cdba1590c49ec3bcb7bd38c" target="_top" xlink:title=" ">
<polygon fill="white" stroke="black" points="453,-131 453,-150 601,-150 601,-131 453,-131"/>
<text text-anchor="middle" x="527" y="-138" font-family="Helvetica,sans-Serif" font-size="10.00">fuzzer::Random::operator()</text>
</a>
</g>
</g>
<!-- Node1&#45;&gt;Node2 -->
<g id="edge1" class="edge">
<title>Node1&#45;&gt;Node2</title>
<path fill="none" stroke="midnightblue" d="M626.51,-129.49C618.13,-130.43 609.56,-131.38 601.16,-132.32"/>
<polygon fill="midnightblue" stroke="midnightblue" points="627.08,-132.95 636.63,-128.36 626.3,-125.99 627.08,-132.95"/>
</g>
<!-- Node4 -->
<g id="node4" class="node">
<title>Node4</title>
<g id="a_node4"><a xlink:href="classfuzzer_1_1Random.html#ad1b676d839fb8857db1e222f4c8d66a8" target="_top" xlink:title=" ">
<polygon fill="white" stroke="black" points="454,-93 454,-112 600,-112 600,-93 454,-93"/>
<text text-anchor="middle" x="527" y="-100" font-family="Helvetica,sans-Serif" font-size="10.00">fuzzer::Random::RandBool</text>
</a>
</g>
</g>
<!-- Node1&#45;&gt;Node4 -->
<g id="edge3" class="edge">
<title>Node1&#45;&gt;Node4</title>
<path fill="none" stroke="midnightblue" d="M626.54,-113.51C617.86,-112.54 608.98,-111.55 600.28,-110.58"/>
<polygon fill="midnightblue" stroke="midnightblue" points="626.3,-117.01 636.63,-114.64 627.08,-110.05 626.3,-117.01"/>
</g>
<!-- Node3 -->
<g id="node3" class="node">
<title>Node3</title>
<g id="a_node3"><a xlink:href="classfuzzer_1_1Random.html#aa3c0366c346fa592693643c6fae04c92" target="_top" xlink:title=" ">
<polygon fill="white" stroke="black" points="265.5,-131 265.5,-150 413.5,-150 413.5,-131 265.5,-131"/>
<text text-anchor="middle" x="339.5" y="-138" font-family="Helvetica,sans-Serif" font-size="10.00">fuzzer::Random::operator()</text>
</a>
</g>
</g>
<!-- Node2&#45;&gt;Node3 -->
<g id="edge2" class="edge">
<title>Node2&#45;&gt;Node3</title>
<path fill="none" stroke="midnightblue" d="M442.91,-140.5C433.2,-140.5 423.35,-140.5 413.79,-140.5"/>
<polygon fill="midnightblue" stroke="midnightblue" points="442.95,-144 452.95,-140.5 442.95,-137 442.95,-144"/>
</g>
<!-- Node5 -->
<g id="node5" class="node">
<title>Node5</title>
<g id="a_node5"><a xlink:href="namespacefuzzer.html#a70215656fdeb45e8bae36ee4228c5228" target="_top" xlink:title=" ">
<polygon fill="white" stroke="black" points="262,-93 262,-112 417,-112 417,-93 262,-93"/>
<text text-anchor="middle" x="339.5" y="-100" font-family="Helvetica,sans-Serif" font-size="10.00">fuzzer::ChangeBinaryInteger</text>
</a>
</g>
</g>
<!-- Node4&#45;&gt;Node5 -->
<g id="edge4" class="edge">
<title>Node4&#45;&gt;Node5</title>
<path fill="none" stroke="midnightblue" d="M443.53,-102.5C434.75,-102.5 425.85,-102.5 417.15,-102.5"/>
<polygon fill="midnightblue" stroke="midnightblue" points="443.75,-106 453.75,-102.5 443.75,-99 443.75,-106"/>
</g>
<!-- Node6 -->
<g id="node6" class="node">
<title>Node6</title>
<g id="a_node6"><a xlink:href="namespacefuzzer.html#afbf5901773bce162915317caf3f15cfe" target="_top" xlink:title=" ">
<polygon fill="white" stroke="black" points="294.5,-55 294.5,-74 384.5,-74 384.5,-55 294.5,-55"/>
<text text-anchor="middle" x="339.5" y="-62" font-family="Helvetica,sans-Serif" font-size="10.00">fuzzer::RandCh</text>
</a>
</g>
</g>
<!-- Node4&#45;&gt;Node6 -->
<g id="edge5" class="edge">
<title>Node4&#45;&gt;Node6</title>
<path fill="none" stroke="midnightblue" d="M469.06,-90.84C441.94,-85.28 410,-78.74 384.74,-73.56"/>
<polygon fill="midnightblue" stroke="midnightblue" points="468.69,-94.33 479.19,-92.91 470.1,-87.48 468.69,-94.33"/>
</g>
<!-- Node7 -->
<g id="node7" class="node">
<title>Node7</title>
<g id="a_node7"><a xlink:href="classfuzzer_1_1MutationDispatcher.html#a3edae850d46dd6b8524c2f04b2c0e0b1" target="_top" xlink:title="Mutates data by chanding one byte.">
<polygon fill="white" stroke="black" points="77,-98.5 77,-128.5 226,-128.5 226,-98.5 77,-98.5"/>
<text text-anchor="start" x="85" y="-116.5" font-family="Helvetica,sans-Serif" font-size="10.00">fuzzer::MutationDispatcher</text>
<text text-anchor="middle" x="151.5" y="-105.5" font-family="Helvetica,sans-Serif" font-size="10.00">::Mutate_ChangeByte</text>
</a>
</g>
</g>
<!-- Node6&#45;&gt;Node7 -->
<g id="edge6" class="edge">
<title>Node6&#45;&gt;Node7</title>
<path fill="none" stroke="midnightblue" d="M289.41,-76.51C280.29,-78.79 270.85,-81.19 262,-83.5 243.88,-88.23 224.13,-93.58 206.46,-98.44"/>
<polygon fill="midnightblue" stroke="midnightblue" points="290.29,-79.9 299.14,-74.08 288.59,-73.1 290.29,-79.9"/>
</g>
<!-- Node9 -->
<g id="node9" class="node">
<title>Node9</title>
<g id="a_node9"><a xlink:href="classfuzzer_1_1MutationDispatcher.html#a82cdbe976a909974101ef04396209115" target="_top" xlink:title="Mutates data by inserting a byte.">
<polygon fill="white" stroke="black" points="77,-49.5 77,-79.5 226,-79.5 226,-49.5 77,-49.5"/>
<text text-anchor="start" x="85" y="-67.5" font-family="Helvetica,sans-Serif" font-size="10.00">fuzzer::MutationDispatcher</text>
<text text-anchor="middle" x="151.5" y="-56.5" font-family="Helvetica,sans-Serif" font-size="10.00">::Mutate_InsertByte</text>
</a>
</g>
</g>
<!-- Node6&#45;&gt;Node9 -->
<g id="edge8" class="edge">
<title>Node6&#45;&gt;Node9</title>
<path fill="none" stroke="midnightblue" d="M284.3,-64.5C266.11,-64.5 245.5,-64.5 226.07,-64.5"/>
<polygon fill="midnightblue" stroke="midnightblue" points="284.42,-68 294.42,-64.5 284.42,-61 284.42,-68"/>
</g>
<!-- Node11 -->
<g id="node11" class="node">
<title>Node11</title>
<g id="a_node11"><a xlink:href="classfuzzer_1_1MutationDispatcher.html#aba5f8a20129a3fcdff37226e471d1a33" target="_top" xlink:title=" ">
<polygon fill="white" stroke="black" points="77,-0.5 77,-30.5 226,-30.5 226,-0.5 77,-0.5"/>
<text text-anchor="start" x="85" y="-18.5" font-family="Helvetica,sans-Serif" font-size="10.00">fuzzer::MutationDispatcher</text>
<text text-anchor="middle" x="151.5" y="-7.5" font-family="Helvetica,sans-Serif" font-size="10.00">::MutateImpl</text>
</a>
</g>
</g>
<!-- Node6&#45;&gt;Node11 -->
<g id="edge10" class="edge">
<title>Node6&#45;&gt;Node11</title>
<path fill="none" stroke="midnightblue" d="M292.23,-52.31C267.21,-45.72 236.09,-37.52 209.58,-30.54"/>
<polygon fill="midnightblue" stroke="midnightblue" points="291.63,-55.77 302.2,-54.94 293.42,-49 291.63,-55.77"/>
</g>
<!-- Node8 -->
<g id="node8" class="node">
<title>Node8</title>
<g id="a_node8"><a xlink:href="FuzzerUnittest_8cpp.html#a33ed921173886eb5f10cb05e2beafc8b" target="_top" xlink:title=" ">
<polygon fill="white" stroke="black" points="0,-104 0,-123 41,-123 41,-104 0,-104"/>
<text text-anchor="middle" x="20.5" y="-111" font-family="Helvetica,sans-Serif" font-size="10.00">TEST</text>
</a>
</g>
</g>
<!-- Node7&#45;&gt;Node8 -->
<g id="edge7" class="edge">
<title>Node7&#45;&gt;Node8</title>
<path fill="none" stroke="midnightblue" d="M66.86,-113.5C57.34,-113.5 48.44,-113.5 41.08,-113.5"/>
<polygon fill="midnightblue" stroke="midnightblue" points="66.96,-117 76.96,-113.5 66.96,-110 66.96,-117"/>
</g>
<!-- Node10 -->
<g id="node10" class="node">
<title>Node10</title>
<g id="a_node10"><a xlink:href="FuzzerUnittest_8cpp.html#a156e979cefb0dda232dd8c36ef52647b" target="_top" xlink:title=" ">
<polygon fill="white" stroke="black" points="0,-55 0,-74 41,-74 41,-55 0,-55"/>
<text text-anchor="middle" x="20.5" y="-62" font-family="Helvetica,sans-Serif" font-size="10.00">TEST</text>
</a>
</g>
</g>
<!-- Node9&#45;&gt;Node10 -->
<g id="edge9" class="edge">
<title>Node9&#45;&gt;Node10</title>
<path fill="none" stroke="midnightblue" d="M66.86,-64.5C57.34,-64.5 48.44,-64.5 41.08,-64.5"/>
<polygon fill="midnightblue" stroke="midnightblue" points="66.96,-68 76.96,-64.5 66.96,-61 66.96,-68"/>
</g>
</g>
</svg>
        <g id="navigator" transform="translate(0 0)" fill="#404254">
                <rect fill="#f2f5e9" fill-opacity="0.5" stroke="#606060" stroke-width=".5" x="0" y="0" width="60" height="60"/>
                <use id="zoomplus" xlink:href="#zoomPlus" x="17" y="9" onmousedown="handleZoom(evt,'in')"/>
                <use id="zoomminus" xlink:href="#zoomMin" x="42" y="9" onmousedown="handleZoom(evt,'out')"/>
                <use id="reset" xlink:href="#resetDef" x="30" y="36" onmousedown="handleReset()"/>
                <g id="arrowUp" xlink:href="#dirArrow" transform="translate(30 24)" onmousedown="handlePan(0,-1)">
                  <use xlink:href="#rim" fill="#404040">
                        <set attributeName="fill" to="#808080" begin="arrowUp.mouseover" end="arrowUp.mouseout"/>
                  </use>
                  <path fill="none" stroke="white" stroke-width="1.5" d="M0,-3.0v7 M-2.5,-0.5L0,-3.0L2.5,-0.5"/>
                </g>
                <g id="arrowRight" xlink:href="#dirArrow" transform="rotate(90) translate(36 -43)" onmousedown="handlePan(1,0)">
                  <use xlink:href="#rim" fill="#404040">
                        <set attributeName="fill" to="#808080" begin="arrowRight.mouseover" end="arrowRight.mouseout"/>
                  </use>
                  <path fill="none" stroke="white" stroke-width="1.5" d="M0,-3.0v7 M-2.5,-0.5L0,-3.0L2.5,-0.5"/>
                </g>
                <g id="arrowDown" xlink:href="#dirArrow" transform="rotate(180) translate(-30 -48)" onmousedown="handlePan(0,1)">
                  <use xlink:href="#rim" fill="#404040">
                        <set attributeName="fill" to="#808080" begin="arrowDown.mouseover" end="arrowDown.mouseout"/>
                  </use>
                  <path fill="none" stroke="white" stroke-width="1.5" d="M0,-3.0v7 M-2.5,-0.5L0,-3.0L2.5,-0.5"/>
                </g>
                <g id="arrowLeft" xlink:href="#dirArrow" transform="rotate(270) translate(-36 17)" onmousedown="handlePan(-1,0)">
                  <use xlink:href="#rim" fill="#404040">
                        <set attributeName="fill" to="#808080" begin="arrowLeft.mouseover" end="arrowLeft.mouseout"/>
                  </use>
                  <path fill="none" stroke="white" stroke-width="1.5" d="M0,-3.0v7 M-2.5,-0.5L0,-3.0L2.5,-0.5"/>
                </g>
        </g>
        <svg viewBox="0 0 15 15" width="100%" height="30px" preserveAspectRatio="xMaxYMin meet">
         <g id="arrow_out" transform="scale(0.3 0.3)">
          <a xlink:href="classfuzzer_1_1Random_afe62c39a4f5590cf858998e73aad3a23_icgraph_org.svg" target="_base">
           <rect id="button" ry="5" rx="5" y="6" x="6" height="38" width="38"
                fill="#f2f5e9" fill-opacity="0.5" stroke="#606060" stroke-width="1.0"/>
           <path id="arrow"
             d="M 11.500037,31.436501 C 11.940474,20.09759 22.043105,11.32322 32.158766,21.979434 L 37.068811,17.246167 C 37.068811,17.246167 37.088388,32 37.088388,32 L 22.160133,31.978069 C 22.160133,31.978069 26.997745,27.140456 26.997745,27.140456 C 18.528582,18.264221 13.291696,25.230495 11.500037,31.436501 z"
             style="fill:#404040;"/>
          </a>
         </g>
        </svg>
</svg>
