<?xml version="1.0" encoding="UTF-8" standalone="no"?>
<!DOCTYPE svg PUBLIC "-//W3C//DTD SVG 1.1//EN"
 "http://www.w3.org/Graphics/SVG/1.1/DTD/svg11.dtd">
<!-- Generated by graphviz version 2.43.0 (0)
 -->
<!-- Title: benchmark::internal::CheckHandler Pages: 1 -->
<svg width="152pt" height="671pt"
 viewBox="0.00 0.00 152.00 671.00" xmlns="http://www.w3.org/2000/svg" xmlns:xlink="http://www.w3.org/1999/xlink">
<g id="graph0" class="graph" transform="scale(1 1) rotate(0) translate(4 667)">
<title>benchmark::internal::CheckHandler</title>
<polygon fill="white" stroke="transparent" points="-4,4 -4,-667 148,-667 148,4 -4,4"/>
<!-- Node1 -->
<g id="node1" class="node">
<title>Node1</title>
<g id="a_node1"><a xlink:title=" ">
<polygon fill="#bfbfbf" stroke="black" points="14.5,-0.5 14.5,-123.5 129.5,-123.5 129.5,-0.5 14.5,-0.5"/>
<text text-anchor="start" x="22.5" y="-111.5" font-family="Helvetica,sans-Serif" font-size="10.00">benchmark::internal</text>
<text text-anchor="middle" x="72" y="-100.5" font-family="Helvetica,sans-Serif" font-size="10.00">::CheckHandler</text>
<polyline fill="none" stroke="black" points="14.5,-93.5 129.5,-93.5 "/>
<text text-anchor="middle" x="72" y="-81.5" font-family="Helvetica,sans-Serif" font-size="10.00"> </text>
<polyline fill="none" stroke="black" points="14.5,-74.5 129.5,-74.5 "/>
<text text-anchor="start" x="22.5" y="-62.5" font-family="Helvetica,sans-Serif" font-size="10.00">+ CheckHandler()</text>
<text text-anchor="start" x="22.5" y="-51.5" font-family="Helvetica,sans-Serif" font-size="10.00">+ GetLog()</text>
<text text-anchor="start" x="22.5" y="-40.5" font-family="Helvetica,sans-Serif" font-size="10.00">+ ~CheckHandler()</text>
<text text-anchor="start" x="22.5" y="-29.5" font-family="Helvetica,sans-Serif" font-size="10.00">+ operator=()</text>
<text text-anchor="start" x="22.5" y="-18.5" font-family="Helvetica,sans-Serif" font-size="10.00">+ CheckHandler()</text>
<text text-anchor="start" x="22.5" y="-7.5" font-family="Helvetica,sans-Serif" font-size="10.00">+ CheckHandler()</text>
</a>
</g>
</g>
<!-- Node2 -->
<g id="node2" class="node">
<title>Node2</title>
<g id="a_node2"><a xlink:href="classbenchmark_1_1internal_1_1LogType.html" target="_top" xlink:title=" ">
<polygon fill="white" stroke="black" points="0,-171.5 0,-261.5 144,-261.5 144,-171.5 0,-171.5"/>
<text text-anchor="start" x="8" y="-249.5" font-family="Helvetica,sans-Serif" font-size="10.00">benchmark::internal</text>
<text text-anchor="middle" x="72" y="-238.5" font-family="Helvetica,sans-Serif" font-size="10.00">::LogType</text>
<polyline fill="none" stroke="black" points="0,-231.5 144,-231.5 "/>
<text text-anchor="middle" x="72" y="-219.5" font-family="Helvetica,sans-Serif" font-size="10.00"> </text>
<polyline fill="none" stroke="black" points="0,-212.5 144,-212.5 "/>
<text text-anchor="start" x="8" y="-200.5" font-family="Helvetica,sans-Serif" font-size="10.00">&#45; LogType()</text>
<text text-anchor="start" x="8" y="-189.5" font-family="Helvetica,sans-Serif" font-size="10.00">&#45; BENCHMARK_DISALLOW</text>
<text text-anchor="start" x="8" y="-178.5" font-family="Helvetica,sans-Serif" font-size="10.00">_COPY_AND_ASSIGN()</text>
</a>
</g>
</g>
<!-- Node2&#45;&gt;Node1 -->
<g id="edge1" class="edge">
<title>Node2&#45;&gt;Node1</title>
<path fill="none" stroke="#404040" d="M72,-171.39C72,-160.24 72,-147.97 72,-135.81"/>
<polygon fill="none" stroke="#404040" points="72,-135.74 68,-129.74 72,-123.74 76,-129.74 72,-135.74"/>
<text text-anchor="middle" x="86" y="-145" font-family="Helvetica,sans-Serif" font-size="10.00"> &#45;log_</text>
</g>
<!-- Node3 -->
<g id="node3" class="node">
<title>Node3</title>
<g id="a_node3"><a xlink:title="STL class.">
<polygon fill="white" stroke="#bfbfbf" points="33,-309.5 33,-366.5 111,-366.5 111,-309.5 33,-309.5"/>
<text text-anchor="middle" x="72" y="-354.5" font-family="Helvetica,sans-Serif" font-size="10.00">std::ostream</text>
<polyline fill="none" stroke="#bfbfbf" points="33,-347.5 111,-347.5 "/>
<text text-anchor="middle" x="72" y="-335.5" font-family="Helvetica,sans-Serif" font-size="10.00"> </text>
<polyline fill="none" stroke="#bfbfbf" points="33,-328.5 111,-328.5 "/>
<text text-anchor="middle" x="72" y="-316.5" font-family="Helvetica,sans-Serif" font-size="10.00"> </text>
</a>
</g>
</g>
<!-- Node3&#45;&gt;Node2 -->
<g id="edge2" class="edge">
<title>Node3&#45;&gt;Node2</title>
<path fill="none" stroke="#404040" d="M72,-309.28C72,-298.73 72,-286.29 72,-274.03"/>
<polygon fill="none" stroke="#404040" points="72,-273.91 68,-267.91 72,-261.91 76,-267.91 72,-273.91"/>
<text text-anchor="middle" x="86" y="-283" font-family="Helvetica,sans-Serif" font-size="10.00"> &#45;out_</text>
</g>
<!-- Node4 -->
<g id="node4" class="node">
<title>Node4</title>
<g id="a_node4"><a xlink:title="STL class.">
<polygon fill="white" stroke="#bfbfbf" points="17.5,-404.5 17.5,-472.5 126.5,-472.5 126.5,-404.5 17.5,-404.5"/>
<text text-anchor="start" x="25.5" y="-460.5" font-family="Helvetica,sans-Serif" font-size="10.00">std::basic_ostream</text>
<text text-anchor="middle" x="72" y="-449.5" font-family="Helvetica,sans-Serif" font-size="10.00">&lt; char &gt;</text>
<polyline fill="none" stroke="#bfbfbf" points="17.5,-442.5 126.5,-442.5 "/>
<text text-anchor="middle" x="72" y="-430.5" font-family="Helvetica,sans-Serif" font-size="10.00"> </text>
<polyline fill="none" stroke="#bfbfbf" points="17.5,-423.5 126.5,-423.5 "/>
<text text-anchor="middle" x="72" y="-411.5" font-family="Helvetica,sans-Serif" font-size="10.00"> </text>
</a>
</g>
</g>
<!-- Node4&#45;&gt;Node3 -->
<g id="edge3" class="edge">
<title>Node4&#45;&gt;Node3</title>
<path fill="none" stroke="midnightblue" d="M72,-394.38C72,-384.94 72,-375.2 72,-366.57"/>
<polygon fill="none" stroke="midnightblue" points="68.5,-394.43 72,-404.43 75.5,-394.43 68.5,-394.43"/>
</g>
<!-- Node5 -->
<g id="node5" class="node">
<title>Node5</title>
<g id="a_node5"><a xlink:title="STL class.">
<polygon fill="white" stroke="#bfbfbf" points="8,-510.5 8,-567.5 136,-567.5 136,-510.5 8,-510.5"/>
<text text-anchor="middle" x="72" y="-555.5" font-family="Helvetica,sans-Serif" font-size="10.00">std::basic_ios&lt; Char &gt;</text>
<polyline fill="none" stroke="#bfbfbf" points="8,-548.5 136,-548.5 "/>
<text text-anchor="middle" x="72" y="-536.5" font-family="Helvetica,sans-Serif" font-size="10.00"> </text>
<polyline fill="none" stroke="#bfbfbf" points="8,-529.5 136,-529.5 "/>
<text text-anchor="middle" x="72" y="-517.5" font-family="Helvetica,sans-Serif" font-size="10.00"> </text>
</a>
</g>
</g>
<!-- Node5&#45;&gt;Node4 -->
<g id="edge4" class="edge">
<title>Node5&#45;&gt;Node4</title>
<path fill="none" stroke="midnightblue" d="M72,-500.01C72,-490.96 72,-481.38 72,-472.58"/>
<polygon fill="none" stroke="midnightblue" points="68.5,-500.3 72,-510.3 75.5,-500.3 68.5,-500.3"/>
</g>
<!-- Node6 -->
<g id="node6" class="node">
<title>Node6</title>
<g id="a_node6"><a xlink:title="STL class.">
<polygon fill="white" stroke="#bfbfbf" points="32,-605.5 32,-662.5 112,-662.5 112,-605.5 32,-605.5"/>
<text text-anchor="middle" x="72" y="-650.5" font-family="Helvetica,sans-Serif" font-size="10.00">std::ios_base</text>
<polyline fill="none" stroke="#bfbfbf" points="32,-643.5 112,-643.5 "/>
<text text-anchor="middle" x="72" y="-631.5" font-family="Helvetica,sans-Serif" font-size="10.00"> </text>
<polyline fill="none" stroke="#bfbfbf" points="32,-624.5 112,-624.5 "/>
<text text-anchor="middle" x="72" y="-612.5" font-family="Helvetica,sans-Serif" font-size="10.00"> </text>
</a>
</g>
</g>
<!-- Node6&#45;&gt;Node5 -->
<g id="edge5" class="edge">
<title>Node6&#45;&gt;Node5</title>
<path fill="none" stroke="midnightblue" d="M72,-595.24C72,-586.03 72,-576.35 72,-567.71"/>
<polygon fill="none" stroke="midnightblue" points="68.5,-595.35 72,-605.35 75.5,-595.35 68.5,-595.35"/>
</g>
</g>
</svg>
