<?xml version="1.0" encoding="UTF-8" standalone="no"?>
<!DOCTYPE svg PUBLIC "-//W3C//DTD SVG 1.1//EN"
 "http://www.w3.org/Graphics/SVG/1.1/DTD/svg11.dtd">
<!-- Generated by graphviz version 2.43.0 (0)
 -->
<!-- Title: BluechiGetUnitNameCommand::Execute Pages: 1 -->
<svg width="1634pt" height="351pt"
 viewBox="0.00 0.00 1634.00 350.62" xmlns="http://www.w3.org/2000/svg" xmlns:xlink="http://www.w3.org/1999/xlink">
<g id="graph0" class="graph" transform="scale(1 1) rotate(0) translate(4 346.62)">
<title>BluechiGetUnitNameCommand::Execute</title>
<polygon fill="white" stroke="transparent" points="-4,4 -4,-346.62 1630,-346.62 1630,4 -4,4"/>
<!-- Node1 -->
<g id="node1" class="node">
<title>Node1</title>
<g id="a_node1"><a xlink:title=" ">
<polygon fill="#bfbfbf" stroke="black" points="0,-224.5 0,-254.5 170,-254.5 170,-224.5 0,-224.5"/>
<text text-anchor="start" x="8" y="-242.5" font-family="Helvetica,sans-Serif" font-size="10.00">BluechiGetUnitNameCommand</text>
<text text-anchor="middle" x="85" y="-231.5" font-family="Helvetica,sans-Serif" font-size="10.00">::Execute</text>
</a>
</g>
</g>
<!-- Node2 -->
<g id="node2" class="node">
<title>Node2</title>
<g id="a_node2"><a xlink:href="classDatabaseHandler.html#aeb2cfac9504d4c44c6f23a87cb06b75a" target="_top" xlink:title="Get the singleton instance of the DatabaseHandler class.">
<polygon fill="white" stroke="black" points="207.5,-249 207.5,-268 373.5,-268 373.5,-249 207.5,-249"/>
<text text-anchor="middle" x="290.5" y="-256" font-family="Helvetica,sans-Serif" font-size="10.00">DatabaseHandler::GetInstance</text>
</a>
</g>
</g>
<!-- Node1&#45;&gt;Node2 -->
<g id="edge1" class="edge">
<title>Node1&#45;&gt;Node2</title>
<path fill="none" stroke="midnightblue" d="M170.24,-247.37C179.14,-248.2 188.22,-249.04 197.2,-249.88"/>
<polygon fill="midnightblue" stroke="midnightblue" points="197.01,-253.38 207.29,-250.82 197.66,-246.41 197.01,-253.38"/>
</g>
<!-- Node3 -->
<g id="node3" class="node">
<title>Node3</title>
<g id="a_node3"><a xlink:href="classDatabaseHandler.html#aac7e80ab286a7f5078d6cc715e3cab9b" target="_top" xlink:title="Modify the value of the key in the database.">
<polygon fill="white" stroke="black" points="206,-211 206,-230 375,-230 375,-211 206,-211"/>
<text text-anchor="middle" x="290.5" y="-218" font-family="Helvetica,sans-Serif" font-size="10.00">DatabaseHandler::ModifyValue</text>
</a>
</g>
</g>
<!-- Node1&#45;&gt;Node3 -->
<g id="edge2" class="edge">
<title>Node1&#45;&gt;Node3</title>
<path fill="none" stroke="midnightblue" d="M170.24,-231.63C178.73,-230.84 187.38,-230.03 195.96,-229.23"/>
<polygon fill="midnightblue" stroke="midnightblue" points="196.35,-232.71 205.98,-228.3 195.7,-225.74 196.35,-232.71"/>
</g>
<!-- Node4 -->
<g id="node4" class="node">
<title>Node4</title>
<g id="a_node4"><a xlink:href="classDatabaseHandler.html#a51bb2f3e9a4c847e65fdccab307a542c" target="_top" xlink:title="Read the data from the database.">
<polygon fill="white" stroke="black" points="411,-233 411,-252 566,-252 566,-233 411,-233"/>
<text text-anchor="middle" x="488.5" y="-240" font-family="Helvetica,sans-Serif" font-size="10.00">DatabaseHandler::ReadData</text>
</a>
</g>
</g>
<!-- Node3&#45;&gt;Node4 -->
<g id="edge3" class="edge">
<title>Node3&#45;&gt;Node4</title>
<path fill="none" stroke="midnightblue" d="M375.19,-229.89C383.72,-230.85 392.39,-231.82 400.94,-232.78"/>
<polygon fill="midnightblue" stroke="midnightblue" points="400.59,-236.27 410.92,-233.9 401.37,-229.31 400.59,-236.27"/>
</g>
<!-- Node8 -->
<g id="node8" class="node">
<title>Node8</title>
<g id="a_node8"><a xlink:href="classDatabaseHandler.html#a2ed186b5456e28d67f44b4c8b350a5ce" target="_top" xlink:title="Save the JSON file data to the database.">
<polygon fill="white" stroke="black" points="411,-192 411,-211 566,-211 566,-192 411,-192"/>
<text text-anchor="middle" x="488.5" y="-199" font-family="Helvetica,sans-Serif" font-size="10.00">DatabaseHandler::SaveData</text>
</a>
</g>
</g>
<!-- Node3&#45;&gt;Node8 -->
<g id="edge7" class="edge">
<title>Node3&#45;&gt;Node8</title>
<path fill="none" stroke="midnightblue" d="M375.19,-212.39C383.72,-211.56 392.39,-210.72 400.94,-209.89"/>
<polygon fill="midnightblue" stroke="midnightblue" points="401.3,-213.37 410.92,-208.92 400.63,-206.41 401.3,-213.37"/>
</g>
<!-- Node5 -->
<g id="node5" class="node">
<title>Node5</title>
<g id="a_node5"><a xlink:href="classnlohmann_1_1basic__json.html#a9286acdc0578fc66e9346323e69fc0e3" target="_top" xlink:title="check the existence of an element in a JSON object">
<polygon fill="white" stroke="black" points="613,-271.5 613,-301.5 735,-301.5 735,-271.5 613,-271.5"/>
<text text-anchor="start" x="621" y="-289.5" font-family="Helvetica,sans-Serif" font-size="10.00">nlohmann::basic_json</text>
<text text-anchor="middle" x="674" y="-278.5" font-family="Helvetica,sans-Serif" font-size="10.00">::contains</text>
</a>
</g>
</g>
<!-- Node4&#45;&gt;Node5 -->
<g id="edge4" class="edge">
<title>Node4&#45;&gt;Node5</title>
<path fill="none" stroke="midnightblue" d="M529.32,-252.05C550.81,-257.2 577.98,-263.72 602.89,-269.69"/>
<polygon fill="midnightblue" stroke="midnightblue" points="602.13,-273.11 612.67,-272.03 603.76,-266.3 602.13,-273.11"/>
</g>
<!-- Node7 -->
<g id="node7" class="node">
<title>Node7</title>
<g id="a_node7"><a xlink:href="classnlohmann_1_1basic__json.html#a6b187a22994c12c8cae0dd5ee99dc85e" target="_top" xlink:title="get special&#45;case overload">
<polygon fill="white" stroke="black" points="602,-233 602,-252 746,-252 746,-233 602,-233"/>
<text text-anchor="middle" x="674" y="-240" font-family="Helvetica,sans-Serif" font-size="10.00">nlohmann::basic_json::get</text>
</a>
</g>
</g>
<!-- Node4&#45;&gt;Node7 -->
<g id="edge6" class="edge">
<title>Node4&#45;&gt;Node7</title>
<path fill="none" stroke="midnightblue" d="M566.26,-242.5C574.64,-242.5 583.19,-242.5 591.62,-242.5"/>
<polygon fill="midnightblue" stroke="midnightblue" points="591.82,-246 601.82,-242.5 591.82,-239 591.82,-246"/>
</g>
<!-- Node6 -->
<g id="node6" class="node">
<title>Node6</title>
<g id="a_node6"><a xlink:href="classnlohmann_1_1basic__json.html#af8f511af124e82e4579f444b4175787c" target="_top" xlink:title="return whether value is an object">
<polygon fill="white" stroke="black" points="796,-271.5 796,-301.5 918,-301.5 918,-271.5 796,-271.5"/>
<text text-anchor="start" x="804" y="-289.5" font-family="Helvetica,sans-Serif" font-size="10.00">nlohmann::basic_json</text>
<text text-anchor="middle" x="857" y="-278.5" font-family="Helvetica,sans-Serif" font-size="10.00">::is_object</text>
</a>
</g>
</g>
<!-- Node5&#45;&gt;Node6 -->
<g id="edge5" class="edge">
<title>Node5&#45;&gt;Node6</title>
<path fill="none" stroke="midnightblue" d="M735.02,-286.5C751.21,-286.5 768.88,-286.5 785.58,-286.5"/>
<polygon fill="midnightblue" stroke="midnightblue" points="785.83,-290 795.83,-286.5 785.83,-283 785.83,-290"/>
</g>
<!-- Node9 -->
<g id="node9" class="node">
<title>Node9</title>
<g id="a_node9"><a xlink:href="classnlohmann_1_1basic__json.html#a50ec80b02d0f3f51130d4abb5d1cfdc5" target="_top" xlink:title="serialization">
<polygon fill="white" stroke="black" points="613,-183.5 613,-213.5 735,-213.5 735,-183.5 613,-183.5"/>
<text text-anchor="start" x="621" y="-201.5" font-family="Helvetica,sans-Serif" font-size="10.00">nlohmann::basic_json</text>
<text text-anchor="middle" x="674" y="-190.5" font-family="Helvetica,sans-Serif" font-size="10.00">::dump</text>
</a>
</g>
</g>
<!-- Node8&#45;&gt;Node9 -->
<g id="edge8" class="edge">
<title>Node8&#45;&gt;Node9</title>
<path fill="none" stroke="midnightblue" d="M566.26,-200.25C578.26,-200.05 590.61,-199.85 602.47,-199.65"/>
<polygon fill="midnightblue" stroke="midnightblue" points="602.79,-203.15 612.73,-199.49 602.68,-196.15 602.79,-203.15"/>
</g>
<!-- Node10 -->
<g id="node10" class="node">
<title>Node10</title>
<g id="a_node10"><a xlink:href="classnlohmann_1_1detail_1_1serializer.html#a95460ebd1a535a543e5a0ec52e00f48b" target="_top" xlink:title="internal implementation of the serialization function">
<polygon fill="white" stroke="black" points="782,-183.5 782,-213.5 932,-213.5 932,-183.5 782,-183.5"/>
<text text-anchor="start" x="790" y="-201.5" font-family="Helvetica,sans-Serif" font-size="10.00">nlohmann::detail::serializer</text>
<text text-anchor="middle" x="857" y="-190.5" font-family="Helvetica,sans-Serif" font-size="10.00">::dump</text>
</a>
</g>
</g>
<!-- Node9&#45;&gt;Node10 -->
<g id="edge9" class="edge">
<title>Node9&#45;&gt;Node10</title>
<path fill="none" stroke="midnightblue" d="M735.02,-198.5C746.76,-198.5 759.27,-198.5 771.63,-198.5"/>
<polygon fill="midnightblue" stroke="midnightblue" points="771.95,-202 781.95,-198.5 771.95,-195 771.95,-202"/>
</g>
<!-- Node11 -->
<g id="node11" class="node">
<title>Node11</title>
<g id="a_node11"><a xlink:href="FuzzerTracePC_8cpp.html#a1f10ac78bd11294b612636121065eb5b" target="_top" xlink:title=" ">
<polygon fill="white" stroke="black" points="1393,-301 1393,-320 1440,-320 1440,-301 1393,-301"/>
<text text-anchor="middle" x="1416.5" y="-308" font-family="Helvetica,sans-Serif" font-size="10.00">assert</text>
</a>
</g>
</g>
<!-- Node10&#45;&gt;Node11 -->
<g id="edge10" class="edge">
<title>Node10&#45;&gt;Node11</title>
<path fill="none" stroke="midnightblue" d="M875.87,-213.87C904.31,-238.21 957.71,-283.42 968,-288.5 1103.02,-355.23 1154.11,-347.15 1304,-332.5 1330.79,-329.88 1360.68,-323.81 1382.77,-318.71"/>
<polygon fill="midnightblue" stroke="midnightblue" points="1383.71,-322.08 1392.63,-316.37 1382.09,-315.27 1383.71,-322.08"/>
</g>
<!-- Node12 -->
<g id="node12" class="node">
<title>Node12</title>
<g id="a_node12"><a xlink:href="classnlohmann_1_1detail_1_1serializer.html#ac1f8d1165b44149bd8be397dce68ea05" target="_top" xlink:title="dump escaped string">
<polygon fill="white" stroke="black" points="968,-142.5 968,-172.5 1118,-172.5 1118,-142.5 968,-142.5"/>
<text text-anchor="start" x="976" y="-160.5" font-family="Helvetica,sans-Serif" font-size="10.00">nlohmann::detail::serializer</text>
<text text-anchor="middle" x="1043" y="-149.5" font-family="Helvetica,sans-Serif" font-size="10.00">::dump_escaped</text>
</a>
</g>
</g>
<!-- Node10&#45;&gt;Node12 -->
<g id="edge11" class="edge">
<title>Node10&#45;&gt;Node12</title>
<path fill="none" stroke="midnightblue" d="M925.47,-183.47C938.22,-180.62 951.65,-177.63 964.67,-174.73"/>
<polygon fill="midnightblue" stroke="midnightblue" points="965.54,-178.12 974.54,-172.53 964.02,-171.29 965.54,-178.12"/>
</g>
<!-- Node19 -->
<g id="node19" class="node">
<title>Node19</title>
<g id="a_node19"><a xlink:href="classnlohmann_1_1detail_1_1serializer.html#a6d652a3bfa581cf1cd7790d6d11ea52f" target="_top" xlink:title="dump a floating&#45;point number">
<polygon fill="white" stroke="black" points="968,-93.5 968,-123.5 1118,-123.5 1118,-93.5 968,-93.5"/>
<text text-anchor="start" x="976" y="-111.5" font-family="Helvetica,sans-Serif" font-size="10.00">nlohmann::detail::serializer</text>
<text text-anchor="middle" x="1043" y="-100.5" font-family="Helvetica,sans-Serif" font-size="10.00">::dump_float</text>
</a>
</g>
</g>
<!-- Node10&#45;&gt;Node19 -->
<g id="edge20" class="edge">
<title>Node10&#45;&gt;Node19</title>
<path fill="none" stroke="midnightblue" d="M879.94,-183.3C901.58,-168.8 935.97,-147.07 968,-132.5 972.12,-130.62 976.43,-128.83 980.81,-127.12"/>
<polygon fill="midnightblue" stroke="midnightblue" points="982.31,-130.3 990.47,-123.54 979.88,-123.74 982.31,-130.3"/>
</g>
<!-- Node20 -->
<g id="node20" class="node">
<title>Node20</title>
<g id="a_node20"><a xlink:href="classnlohmann_1_1detail_1_1serializer.html#a944f6dea8dbe2961da145d2f62fa2c2f" target="_top" xlink:title="dump an integer">
<polygon fill="white" stroke="black" points="968,-248.5 968,-278.5 1118,-278.5 1118,-248.5 968,-248.5"/>
<text text-anchor="start" x="976" y="-266.5" font-family="Helvetica,sans-Serif" font-size="10.00">nlohmann::detail::serializer</text>
<text text-anchor="middle" x="1043" y="-255.5" font-family="Helvetica,sans-Serif" font-size="10.00">::dump_integer</text>
</a>
</g>
</g>
<!-- Node10&#45;&gt;Node20 -->
<g id="edge21" class="edge">
<title>Node10&#45;&gt;Node20</title>
<path fill="none" stroke="midnightblue" d="M900.68,-213.58C927.17,-222.94 961.42,-235.03 989.56,-244.97"/>
<polygon fill="midnightblue" stroke="midnightblue" points="988.64,-248.36 999.24,-248.39 990.97,-241.76 988.64,-248.36"/>
</g>
<!-- Node12&#45;&gt;Node11 -->
<g id="edge12" class="edge">
<title>Node12&#45;&gt;Node11</title>
<path fill="none" stroke="midnightblue" d="M1118.19,-169.94C1183.09,-181.56 1271.87,-199.48 1304,-215.5 1343.55,-235.22 1380.79,-271.95 1400.63,-293.51"/>
<polygon fill="midnightblue" stroke="midnightblue" points="1398.05,-295.87 1407.35,-300.96 1403.25,-291.19 1398.05,-295.87"/>
</g>
<!-- Node13 -->
<g id="node13" class="node">
<title>Node13</title>
<g id="a_node13"><a xlink:href="classnlohmann_1_1detail_1_1type__error.html#aecc083aea4b698c33d042670ba50c10f" target="_top" xlink:title=" ">
<polygon fill="white" stroke="black" points="1165.5,-98.5 1165.5,-128.5 1292.5,-128.5 1292.5,-98.5 1165.5,-98.5"/>
<text text-anchor="start" x="1173.5" y="-116.5" font-family="Helvetica,sans-Serif" font-size="10.00">nlohmann::detail::type</text>
<text text-anchor="middle" x="1229" y="-105.5" font-family="Helvetica,sans-Serif" font-size="10.00">_error::create</text>
</a>
</g>
</g>
<!-- Node12&#45;&gt;Node13 -->
<g id="edge13" class="edge">
<title>Node12&#45;&gt;Node13</title>
<path fill="none" stroke="midnightblue" d="M1106.81,-142.48C1122.5,-138.73 1139.45,-134.67 1155.57,-130.82"/>
<polygon fill="midnightblue" stroke="midnightblue" points="1156.56,-134.18 1165.48,-128.45 1154.94,-127.37 1156.56,-134.18"/>
</g>
<!-- Node15 -->
<g id="node15" class="node">
<title>Node15</title>
<g id="a_node15"><a xlink:href="namespacehttplib.html#a498c3a79825ecbcb15c52ec5fcfd5c11" target="_top" xlink:title=" ">
<polygon fill="white" stroke="black" points="1529,-126 1529,-145 1626,-145 1626,-126 1529,-126"/>
<text text-anchor="middle" x="1577.5" y="-133" font-family="Helvetica,sans-Serif" font-size="10.00">httplib::to_string</text>
</a>
</g>
</g>
<!-- Node12&#45;&gt;Node15 -->
<g id="edge19" class="edge">
<title>Node12&#45;&gt;Node15</title>
<path fill="none" stroke="midnightblue" d="M1118.04,-154.44C1225.16,-150.02 1421.16,-141.92 1518.49,-137.9"/>
<polygon fill="midnightblue" stroke="midnightblue" points="1518.88,-141.38 1528.72,-137.47 1518.59,-134.39 1518.88,-141.38"/>
</g>
<!-- Node17 -->
<g id="node17" class="node">
<title>Node17</title>
<g id="a_node17"><a xlink:href="classnlohmann_1_1detail_1_1serializer.html#abdcc4fd1dc5d3afb6c0817e4c89b1242" target="_top" xlink:title="check whether a string is UTF&#45;8 encoded">
<polygon fill="white" stroke="black" points="1154,-49.5 1154,-79.5 1304,-79.5 1304,-49.5 1154,-49.5"/>
<text text-anchor="start" x="1162" y="-67.5" font-family="Helvetica,sans-Serif" font-size="10.00">nlohmann::detail::serializer</text>
<text text-anchor="middle" x="1229" y="-56.5" font-family="Helvetica,sans-Serif" font-size="10.00">::decode</text>
</a>
</g>
</g>
<!-- Node12&#45;&gt;Node17 -->
<g id="edge17" class="edge">
<title>Node12&#45;&gt;Node17</title>
<path fill="none" stroke="midnightblue" d="M1099.8,-142.48C1106.2,-139.66 1112.42,-136.36 1118,-132.5 1138.78,-118.12 1133.14,-102.75 1154,-88.5 1156.27,-86.95 1158.66,-85.49 1161.11,-84.12"/>
<polygon fill="midnightblue" stroke="midnightblue" points="1162.89,-87.14 1170.28,-79.55 1159.77,-80.88 1162.89,-87.14"/>
</g>
<!-- Node18 -->
<g id="node18" class="node">
<title>Node18</title>
<g id="a_node18"><a xlink:href="classnlohmann_1_1detail_1_1binary__writer.html#ab77aa48692bd4e64e4f051ce6aeb6d2d" target="_top" xlink:title=" ">
<polygon fill="white" stroke="black" points="1161,-0.5 1161,-30.5 1297,-30.5 1297,-0.5 1161,-0.5"/>
<text text-anchor="start" x="1169" y="-18.5" font-family="Helvetica,sans-Serif" font-size="10.00">nlohmann::detail::binary</text>
<text text-anchor="middle" x="1229" y="-7.5" font-family="Helvetica,sans-Serif" font-size="10.00">_writer::to_char_type</text>
</a>
</g>
</g>
<!-- Node12&#45;&gt;Node18 -->
<g id="edge18" class="edge">
<title>Node12&#45;&gt;Node18</title>
<path fill="none" stroke="midnightblue" d="M1104.42,-142.35C1109.36,-139.6 1113.98,-136.34 1118,-132.5 1150.02,-101.85 1121.8,-69.96 1154,-39.5 1155.13,-38.43 1156.32,-37.4 1157.54,-36.42"/>
<polygon fill="midnightblue" stroke="midnightblue" points="1159.83,-39.1 1166.16,-30.6 1155.92,-33.3 1159.83,-39.1"/>
</g>
<!-- Node14 -->
<g id="node14" class="node">
<title>Node14</title>
<g id="a_node14"><a xlink:href="classnlohmann_1_1detail_1_1exception.html#abf41a7e9178356314082284e6cfea278" target="_top" xlink:title=" ">
<polygon fill="white" stroke="black" points="1340,-98.5 1340,-128.5 1493,-128.5 1493,-98.5 1340,-98.5"/>
<text text-anchor="start" x="1348" y="-116.5" font-family="Helvetica,sans-Serif" font-size="10.00">nlohmann::detail::exception</text>
<text text-anchor="middle" x="1416.5" y="-105.5" font-family="Helvetica,sans-Serif" font-size="10.00">::name</text>
</a>
</g>
</g>
<!-- Node13&#45;&gt;Node14 -->
<g id="edge14" class="edge">
<title>Node13&#45;&gt;Node14</title>
<path fill="none" stroke="midnightblue" d="M1292.54,-113.5C1304.38,-113.5 1316.95,-113.5 1329.36,-113.5"/>
<polygon fill="midnightblue" stroke="midnightblue" points="1329.72,-117 1339.72,-113.5 1329.72,-110 1329.72,-117"/>
</g>
<!-- Node16 -->
<g id="node16" class="node">
<title>Node16</title>
<g id="a_node16"><a xlink:href="classnlohmann_1_1detail_1_1type__error.html#aa01edaa0bf18b853368f0b900e485cd7" target="_top" xlink:title=" ">
<polygon fill="white" stroke="black" points="1353,-49.5 1353,-79.5 1480,-79.5 1480,-49.5 1353,-49.5"/>
<text text-anchor="start" x="1361" y="-67.5" font-family="Helvetica,sans-Serif" font-size="10.00">nlohmann::detail::type</text>
<text text-anchor="middle" x="1416.5" y="-56.5" font-family="Helvetica,sans-Serif" font-size="10.00">_error::type_error</text>
</a>
</g>
</g>
<!-- Node13&#45;&gt;Node16 -->
<g id="edge16" class="edge">
<title>Node13&#45;&gt;Node16</title>
<path fill="none" stroke="midnightblue" d="M1286.92,-98.47C1306.5,-93.29 1328.61,-87.45 1348.9,-82.09"/>
<polygon fill="midnightblue" stroke="midnightblue" points="1349.92,-85.44 1358.69,-79.51 1348.13,-78.68 1349.92,-85.44"/>
</g>
<!-- Node14&#45;&gt;Node15 -->
<g id="edge15" class="edge">
<title>Node14&#45;&gt;Node15</title>
<path fill="none" stroke="midnightblue" d="M1493.27,-123.98C1501.92,-125.18 1510.62,-126.38 1518.97,-127.54"/>
<polygon fill="midnightblue" stroke="midnightblue" points="1518.57,-131.02 1528.96,-128.92 1519.53,-124.08 1518.57,-131.02"/>
</g>
<!-- Node20&#45;&gt;Node11 -->
<g id="edge22" class="edge">
<title>Node20&#45;&gt;Node11</title>
<path fill="none" stroke="midnightblue" d="M1069.14,-278.69C1090.77,-290.82 1123.25,-306.84 1154,-313.5 1234.61,-330.96 1332.5,-322.13 1382.55,-315.53"/>
<polygon fill="midnightblue" stroke="midnightblue" points="1383.34,-318.95 1392.77,-314.12 1382.39,-312.02 1383.34,-318.95"/>
</g>
<!-- Node21 -->
<g id="node21" class="node">
<title>Node21</title>
<g id="a_node21"><a xlink:href="classnlohmann_1_1detail_1_1serializer.html#a10692e98ea1f5a64de1d0b8e0e724b99" target="_top" xlink:title="count digits">
<polygon fill="white" stroke="black" points="1154,-224.5 1154,-254.5 1304,-254.5 1304,-224.5 1154,-224.5"/>
<text text-anchor="start" x="1162" y="-242.5" font-family="Helvetica,sans-Serif" font-size="10.00">nlohmann::detail::serializer</text>
<text text-anchor="middle" x="1229" y="-231.5" font-family="Helvetica,sans-Serif" font-size="10.00">::count_digits</text>
</a>
</g>
</g>
<!-- Node20&#45;&gt;Node21 -->
<g id="edge23" class="edge">
<title>Node20&#45;&gt;Node21</title>
<path fill="none" stroke="midnightblue" d="M1118.04,-253.84C1126.51,-252.74 1135.19,-251.61 1143.78,-250.48"/>
<polygon fill="midnightblue" stroke="midnightblue" points="1144.34,-253.94 1153.81,-249.18 1143.44,-247 1144.34,-253.94"/>
</g>
<!-- Node22 -->
<g id="node22" class="node">
<title>Node22</title>
<g id="a_node22"><a xlink:href="classnlohmann_1_1detail_1_1serializer.html#a45bcb8ea41e4db5461e979d4b1d5e5e7" target="_top" xlink:title=" ">
<polygon fill="white" stroke="black" points="1154,-273.5 1154,-303.5 1304,-303.5 1304,-273.5 1154,-273.5"/>
<text text-anchor="start" x="1162" y="-291.5" font-family="Helvetica,sans-Serif" font-size="10.00">nlohmann::detail::serializer</text>
<text text-anchor="middle" x="1229" y="-280.5" font-family="Helvetica,sans-Serif" font-size="10.00">::remove_sign</text>
</a>
</g>
</g>
<!-- Node20&#45;&gt;Node22 -->
<g id="edge24" class="edge">
<title>Node20&#45;&gt;Node22</title>
<path fill="none" stroke="midnightblue" d="M1118.04,-273.56C1126.51,-274.71 1135.19,-275.89 1143.78,-277.06"/>
<polygon fill="midnightblue" stroke="midnightblue" points="1143.43,-280.54 1153.81,-278.42 1144.37,-273.6 1143.43,-280.54"/>
</g>
<!-- Node22&#45;&gt;Node11 -->
<g id="edge25" class="edge">
<title>Node22&#45;&gt;Node11</title>
<path fill="none" stroke="midnightblue" d="M1304.11,-297.29C1331.35,-300.52 1360.81,-304.01 1382.59,-306.6"/>
<polygon fill="midnightblue" stroke="midnightblue" points="1382.28,-310.09 1392.63,-307.79 1383.11,-303.13 1382.28,-310.09"/>
</g>
</g>
</svg>
