<?xml version="1.0" encoding="UTF-8" standalone="no"?>
<!DOCTYPE svg PUBLIC "-//W3C//DTD SVG 1.1//EN"
 "http://www.w3.org/Graphics/SVG/1.1/DTD/svg11.dtd">
<!-- Generated by graphviz version 2.43.0 (0)
 -->
<!-- Title: nlohmann::basic_json::push_back Pages: 1 -->
<!--zoomable 346 -->
<svg id="main" version="1.1" xmlns="http://www.w3.org/2000/svg" xmlns:xlink="http://www.w3.org/1999/xlink" xml:space="preserve" onload="init(evt)">
<style type="text/css"><![CDATA[
.edge:hover path { stroke: red; }
.edge:hover polygon { stroke: red; fill: red; }
]]></style>
<script type="text/javascript"><![CDATA[
var edges = document.getElementsByTagName('g');
if (edges && edges.length) {
  for (var i=0;i<edges.length;i++) {
    if (edges[i].id.substr(0,4)=='edge') {
      edges[i].setAttribute('class','edge');
    }
  }
}
]]></script>
        <defs>
                <circle id="rim" cx="0" cy="0" r="7"/>
                <circle id="rim2" cx="0" cy="0" r="3.5"/>
                <g id="zoomPlus">
                        <use xlink:href="#rim" fill="#404040">
                                <set attributeName="fill" to="#808080" begin="zoomplus.mouseover" end="zoomplus.mouseout"/>
                        </use>
                        <path d="M-4,0h8M0,-4v8" fill="none" stroke="white" stroke-width="1.5" pointer-events="none"/>
                </g>
                <g id="zoomMin">
                        <use xlink:href="#rim" fill="#404040">
                                <set attributeName="fill" to="#808080" begin="zoomminus.mouseover" end="zoomminus.mouseout"/>
                        </use>
                        <path d="M-4,0h8" fill="none" stroke="white" stroke-width="1.5" pointer-events="none"/>
                </g>
                <g id="dirArrow">
                        <path fill="none" stroke="white" stroke-width="1.5" d="M0,-3.0v7 M-2.5,-0.5L0,-3.0L2.5,-0.5"/>
                </g>
               <g id="resetDef">
                       <use xlink:href="#rim2" fill="#404040">
                               <set attributeName="fill" to="#808080" begin="reset.mouseover" end="reset.mouseout"/>
                       </use>
               </g>
        </defs>

<script type="text/javascript">
var viewWidth = 543;
var viewHeight = 346;
var sectionId = 'dynsection-246';
</script>
<script xlink:href="svgpan.js"/>
<svg id="graph" class="graph">
<g id="viewport">
<title>nlohmann::basic_json::push_back</title>
<polygon fill="white" stroke="transparent" points="-4,4 -4,-341.5 539,-341.5 539,4 -4,4"/>
<!-- Node1 -->
<g id="node1" class="node">
<title>Node1</title>
<g id="a_node1"><a xlink:title="add an object to an array">
<polygon fill="#bfbfbf" stroke="black" points="413,-137 413,-167 535,-167 535,-137 413,-137"/>
<text text-anchor="start" x="421" y="-155" font-family="Helvetica,sans-Serif" font-size="10.00">nlohmann::basic_json</text>
<text text-anchor="middle" x="474" y="-144" font-family="Helvetica,sans-Serif" font-size="10.00">::push_back</text>
</a>
</g>
</g>
<!-- Node2 -->
<g id="node2" class="node">
<title>Node2</title>
<g id="a_node2"><a xlink:href="classDatabaseHandler.html#a7a38f8acc49ef0b1418716fa7ebf824e" target="_top" xlink:title="Read the data from the database.">
<polygon fill="white" stroke="black" points="210,-268.5 210,-287.5 377,-287.5 377,-268.5 210,-268.5"/>
<text text-anchor="middle" x="293.5" y="-275.5" font-family="Helvetica,sans-Serif" font-size="10.00">DatabaseHandler::AppendData</text>
</a>
</g>
</g>
<!-- Node1&#45;&gt;Node2 -->
<g id="edge1" class="edge">
<title>Node1&#45;&gt;Node2</title>
<path fill="none" stroke="midnightblue" d="M456.69,-175.17C439.39,-198.1 410.05,-232.62 377,-253 366.17,-259.68 353.44,-264.68 341.26,-268.37"/>
<polygon fill="midnightblue" stroke="midnightblue" points="459.59,-177.14 462.71,-167.01 453.95,-172.98 459.59,-177.14"/>
</g>
<!-- Node5 -->
<g id="node5" class="node">
<title>Node5</title>
<g id="a_node5"><a xlink:href="mco__utils_8cpp.html#a38abadf67ee2fe7e5e5919a2714d3561" target="_top" xlink:title=" ">
<polygon fill="white" stroke="black" points="221,-224.5 221,-243.5 366,-243.5 366,-224.5 221,-224.5"/>
<text text-anchor="middle" x="293.5" y="-231.5" font-family="Helvetica,sans-Serif" font-size="10.00">checkResourceAvailability</text>
</a>
</g>
</g>
<!-- Node1&#45;&gt;Node5 -->
<g id="edge4" class="edge">
<title>Node1&#45;&gt;Node5</title>
<path fill="none" stroke="midnightblue" d="M446.09,-173.41C427.62,-187.14 402.01,-204.32 377,-215 368.08,-218.81 358.27,-221.92 348.63,-224.43"/>
<polygon fill="midnightblue" stroke="midnightblue" points="448.45,-176.02 454.3,-167.19 444.22,-170.44 448.45,-176.02"/>
</g>
<!-- Node8 -->
<g id="node8" class="node">
<title>Node8</title>
<g id="a_node8"><a xlink:href="push__back____initializer__list_8cpp.html#ae66f6b31b5ad750f1fe042a706a4e3d4" target="_top" xlink:title=" ">
<polygon fill="white" stroke="black" points="273,-186.5 273,-205.5 314,-205.5 314,-186.5 273,-186.5"/>
<text text-anchor="middle" x="293.5" y="-193.5" font-family="Helvetica,sans-Serif" font-size="10.00">main</text>
</a>
</g>
</g>
<!-- Node1&#45;&gt;Node8 -->
<g id="edge7" class="edge">
<title>Node1&#45;&gt;Node8</title>
<path fill="none" stroke="midnightblue" d="M406.64,-169.54C396.71,-172.09 386.6,-174.65 377,-177 355.59,-182.25 330.94,-187.87 314.21,-191.63"/>
<polygon fill="midnightblue" stroke="midnightblue" points="407.66,-172.89 416.47,-167.01 405.91,-166.12 407.66,-172.89"/>
</g>
<!-- Node9 -->
<g id="node9" class="node">
<title>Node9</title>
<g id="a_node9"><a xlink:href="classnlohmann_1_1basic__json.html#aea1085f2d35cc0e1ce119cf0110119e6" target="_top" xlink:title="add an object to an array">
<polygon fill="white" stroke="black" points="232.5,-137 232.5,-167 354.5,-167 354.5,-137 232.5,-137"/>
<text text-anchor="start" x="240.5" y="-155" font-family="Helvetica,sans-Serif" font-size="10.00">nlohmann::basic_json</text>
<text text-anchor="middle" x="293.5" y="-144" font-family="Helvetica,sans-Serif" font-size="10.00">::operator+=</text>
</a>
</g>
</g>
<!-- Node1&#45;&gt;Node9 -->
<g id="edge8" class="edge">
<title>Node1&#45;&gt;Node9</title>
<path fill="none" stroke="midnightblue" d="M402.32,-152C386.51,-152 369.9,-152 354.57,-152"/>
<polygon fill="midnightblue" stroke="midnightblue" points="402.57,-155.5 412.57,-152 402.57,-148.5 402.57,-155.5"/>
</g>
<!-- Node10 -->
<g id="node10" class="node">
<title>Node10</title>
<g id="a_node10"><a xlink:href="classnlohmann_1_1basic__json.html#a81e0c41a4a9dff4df2f6973f7f8b2a83" target="_top" xlink:title="applies a JSON patch">
<polygon fill="white" stroke="black" points="232.5,-88 232.5,-118 354.5,-118 354.5,-88 232.5,-88"/>
<text text-anchor="start" x="240.5" y="-106" font-family="Helvetica,sans-Serif" font-size="10.00">nlohmann::basic_json</text>
<text text-anchor="middle" x="293.5" y="-95" font-family="Helvetica,sans-Serif" font-size="10.00">::patch</text>
</a>
</g>
</g>
<!-- Node1&#45;&gt;Node10 -->
<g id="edge9" class="edge">
<title>Node1&#45;&gt;Node10</title>
<path fill="none" stroke="midnightblue" d="M408.08,-134.18C388.81,-128.89 367.9,-123.15 349.33,-118.05"/>
<polygon fill="midnightblue" stroke="midnightblue" points="407.42,-137.63 417.99,-136.9 409.27,-130.88 407.42,-137.63"/>
</g>
<!-- Node13 -->
<g id="node13" class="node">
<title>Node13</title>
<g id="a_node13"><a xlink:href="classnlohmann_1_1basic__json.html#a1be31ef2d2934d37a818083a4af44f99" target="_top" xlink:title="add an object to an object">
<polygon fill="white" stroke="black" points="232.5,-39 232.5,-69 354.5,-69 354.5,-39 232.5,-39"/>
<text text-anchor="start" x="240.5" y="-57" font-family="Helvetica,sans-Serif" font-size="10.00">nlohmann::basic_json</text>
<text text-anchor="middle" x="293.5" y="-46" font-family="Helvetica,sans-Serif" font-size="10.00">::push_back</text>
</a>
</g>
</g>
<!-- Node1&#45;&gt;Node13 -->
<g id="edge12" class="edge">
<title>Node1&#45;&gt;Node13</title>
<path fill="none" stroke="midnightblue" d="M449.7,-129.98C431.24,-113.6 404.13,-91.78 377,-78 369.95,-74.42 362.28,-71.29 354.56,-68.59"/>
<polygon fill="midnightblue" stroke="midnightblue" points="447.53,-132.74 457.3,-136.86 452.23,-127.55 447.53,-132.74"/>
</g>
<!-- Node14 -->
<g id="node14" class="node">
<title>Node14</title>
<g id="a_node14"><a xlink:href="unit-modifiers_8cpp.html#ae2e88fedf427cb288c85ef149fe2214a" target="_top" xlink:title=" ">
<polygon fill="white" stroke="black" points="258,-0.5 258,-19.5 329,-19.5 329,-0.5 258,-0.5"/>
<text text-anchor="middle" x="293.5" y="-7.5" font-family="Helvetica,sans-Serif" font-size="10.00">TEST_CASE</text>
</a>
</g>
</g>
<!-- Node1&#45;&gt;Node14 -->
<g id="edge13" class="edge">
<title>Node1&#45;&gt;Node14</title>
<path fill="none" stroke="midnightblue" d="M460.87,-127.96C445.36,-99.76 415.79,-53.71 377,-29 362.74,-19.92 344.65,-15.16 329.04,-12.68"/>
<polygon fill="midnightblue" stroke="midnightblue" points="457.79,-129.62 465.59,-136.79 463.96,-126.32 457.79,-129.62"/>
</g>
<!-- Node3 -->
<g id="node3" class="node">
<title>Node3</title>
<g id="a_node3"><a xlink:href="classQmOtaHandler.html#a6ccbedb2878978ac7073ef4e10be6220" target="_top" xlink:title="Check for successful OTA download.">
<polygon fill="white" stroke="black" points="6.5,-307 6.5,-337 167.5,-337 167.5,-307 6.5,-307"/>
<text text-anchor="start" x="14.5" y="-325" font-family="Helvetica,sans-Serif" font-size="10.00">QmOtaHandler::OtaDownload</text>
<text text-anchor="middle" x="87" y="-314" font-family="Helvetica,sans-Serif" font-size="10.00">Successful</text>
</a>
</g>
</g>
<!-- Node2&#45;&gt;Node3 -->
<g id="edge2" class="edge">
<title>Node2&#45;&gt;Node3</title>
<path fill="none" stroke="midnightblue" d="M238.25,-289.67C213.65,-294.96 184.26,-301.29 158.02,-306.93"/>
<polygon fill="midnightblue" stroke="midnightblue" points="239.09,-293.07 248.13,-287.55 237.61,-286.23 239.09,-293.07"/>
</g>
<!-- Node4 -->
<g id="node4" class="node">
<title>Node4</title>
<g id="a_node4"><a xlink:href="classConfigHandler.html#a969e3ca03c0a638d455ac8935522aaef" target="_top" xlink:title="Save the initial JSON file content to the database.">
<polygon fill="white" stroke="black" points="0,-268.5 0,-287.5 174,-287.5 174,-268.5 0,-268.5"/>
<text text-anchor="middle" x="87" y="-275.5" font-family="Helvetica,sans-Serif" font-size="10.00">ConfigHandler::UpdateDatabase</text>
</a>
</g>
</g>
<!-- Node2&#45;&gt;Node4 -->
<g id="edge3" class="edge">
<title>Node2&#45;&gt;Node4</title>
<path fill="none" stroke="midnightblue" d="M199.65,-278C191.18,-278 182.63,-278 174.23,-278"/>
<polygon fill="midnightblue" stroke="midnightblue" points="199.91,-281.5 209.91,-278 199.91,-274.5 199.91,-281.5"/>
</g>
<!-- Node6 -->
<g id="node6" class="node">
<title>Node6</title>
<g id="a_node6"><a xlink:href="classUserAppControlHandler.html#aa7090082a9d4cf39d3a6b8a1e1334a3a" target="_top" xlink:title="Unpause ASIL App selected by User from Vehicle State UI.">
<polygon fill="white" stroke="black" points="21.5,-219 21.5,-249 152.5,-249 152.5,-219 21.5,-219"/>
<text text-anchor="start" x="29.5" y="-237" font-family="Helvetica,sans-Serif" font-size="10.00">UserAppControlHandler</text>
<text text-anchor="middle" x="87" y="-226" font-family="Helvetica,sans-Serif" font-size="10.00">::PlayAsilApp</text>
</a>
</g>
</g>
<!-- Node5&#45;&gt;Node6 -->
<g id="edge5" class="edge">
<title>Node5&#45;&gt;Node6</title>
<path fill="none" stroke="midnightblue" d="M210.95,-234C191.57,-234 171.15,-234 152.65,-234"/>
<polygon fill="midnightblue" stroke="midnightblue" points="210.98,-237.5 220.98,-234 210.98,-230.5 210.98,-237.5"/>
</g>
<!-- Node7 -->
<g id="node7" class="node">
<title>Node7</title>
<g id="a_node7"><a xlink:href="classUserAppControlHandler.html#a5bee2fdba62376c62ee8dd29bbb4fb6d" target="_top" xlink:title="Play QM App selected by User from Infotainment UI.">
<polygon fill="white" stroke="black" points="21.5,-170 21.5,-200 152.5,-200 152.5,-170 21.5,-170"/>
<text text-anchor="start" x="29.5" y="-188" font-family="Helvetica,sans-Serif" font-size="10.00">UserAppControlHandler</text>
<text text-anchor="middle" x="87" y="-177" font-family="Helvetica,sans-Serif" font-size="10.00">::PlayQmApp</text>
</a>
</g>
</g>
<!-- Node5&#45;&gt;Node7 -->
<g id="edge6" class="edge">
<title>Node5&#45;&gt;Node7</title>
<path fill="none" stroke="midnightblue" d="M240.54,-222.16C230.41,-219.81 219.87,-217.35 210,-215 189.95,-210.23 168.08,-204.89 148.46,-200.05"/>
<polygon fill="midnightblue" stroke="midnightblue" points="239.97,-225.62 250.5,-224.45 241.54,-218.8 239.97,-225.62"/>
</g>
<!-- Node11 -->
<g id="node11" class="node">
<title>Node11</title>
<g id="a_node11"><a xlink:href="diff_8cpp.html#ae66f6b31b5ad750f1fe042a706a4e3d4" target="_top" xlink:title=" ">
<polygon fill="white" stroke="black" points="66.5,-112.5 66.5,-131.5 107.5,-131.5 107.5,-112.5 66.5,-112.5"/>
<text text-anchor="middle" x="87" y="-119.5" font-family="Helvetica,sans-Serif" font-size="10.00">main</text>
</a>
</g>
</g>
<!-- Node10&#45;&gt;Node11 -->
<g id="edge10" class="edge">
<title>Node10&#45;&gt;Node11</title>
<path fill="none" stroke="midnightblue" d="M222.17,-109.53C181.83,-113.28 134.13,-117.71 107.85,-120.16"/>
<polygon fill="midnightblue" stroke="midnightblue" points="222.62,-113.01 232.25,-108.6 221.97,-106.04 222.62,-113.01"/>
</g>
<!-- Node12 -->
<g id="node12" class="node">
<title>Node12</title>
<g id="a_node12"><a xlink:href="unit-json__patch_8cpp.html#a58658ae29d75546f62ea0ceb24fd3b20" target="_top" xlink:title=" ">
<polygon fill="white" stroke="black" points="51.5,-74.5 51.5,-93.5 122.5,-93.5 122.5,-74.5 51.5,-74.5"/>
<text text-anchor="middle" x="87" y="-81.5" font-family="Helvetica,sans-Serif" font-size="10.00">TEST_CASE</text>
</a>
</g>
</g>
<!-- Node10&#45;&gt;Node12 -->
<g id="edge11" class="edge">
<title>Node10&#45;&gt;Node12</title>
<path fill="none" stroke="midnightblue" d="M222.01,-96.45C188.43,-93.33 149.78,-89.74 122.64,-87.22"/>
<polygon fill="midnightblue" stroke="midnightblue" points="221.97,-99.96 232.25,-97.4 222.62,-92.99 221.97,-99.96"/>
</g>
</g>
</svg>
        <g id="navigator" transform="translate(0 0)" fill="#404254">
                <rect fill="#f2f5e9" fill-opacity="0.5" stroke="#606060" stroke-width=".5" x="0" y="0" width="60" height="60"/>
                <use id="zoomplus" xlink:href="#zoomPlus" x="17" y="9" onmousedown="handleZoom(evt,'in')"/>
                <use id="zoomminus" xlink:href="#zoomMin" x="42" y="9" onmousedown="handleZoom(evt,'out')"/>
                <use id="reset" xlink:href="#resetDef" x="30" y="36" onmousedown="handleReset()"/>
                <g id="arrowUp" xlink:href="#dirArrow" transform="translate(30 24)" onmousedown="handlePan(0,-1)">
                  <use xlink:href="#rim" fill="#404040">
                        <set attributeName="fill" to="#808080" begin="arrowUp.mouseover" end="arrowUp.mouseout"/>
                  </use>
                  <path fill="none" stroke="white" stroke-width="1.5" d="M0,-3.0v7 M-2.5,-0.5L0,-3.0L2.5,-0.5"/>
                </g>
                <g id="arrowRight" xlink:href="#dirArrow" transform="rotate(90) translate(36 -43)" onmousedown="handlePan(1,0)">
                  <use xlink:href="#rim" fill="#404040">
                        <set attributeName="fill" to="#808080" begin="arrowRight.mouseover" end="arrowRight.mouseout"/>
                  </use>
                  <path fill="none" stroke="white" stroke-width="1.5" d="M0,-3.0v7 M-2.5,-0.5L0,-3.0L2.5,-0.5"/>
                </g>
                <g id="arrowDown" xlink:href="#dirArrow" transform="rotate(180) translate(-30 -48)" onmousedown="handlePan(0,1)">
                  <use xlink:href="#rim" fill="#404040">
                        <set attributeName="fill" to="#808080" begin="arrowDown.mouseover" end="arrowDown.mouseout"/>
                  </use>
                  <path fill="none" stroke="white" stroke-width="1.5" d="M0,-3.0v7 M-2.5,-0.5L0,-3.0L2.5,-0.5"/>
                </g>
                <g id="arrowLeft" xlink:href="#dirArrow" transform="rotate(270) translate(-36 17)" onmousedown="handlePan(-1,0)">
                  <use xlink:href="#rim" fill="#404040">
                        <set attributeName="fill" to="#808080" begin="arrowLeft.mouseover" end="arrowLeft.mouseout"/>
                  </use>
                  <path fill="none" stroke="white" stroke-width="1.5" d="M0,-3.0v7 M-2.5,-0.5L0,-3.0L2.5,-0.5"/>
                </g>
        </g>
        <svg viewBox="0 0 15 15" width="100%" height="30px" preserveAspectRatio="xMaxYMin meet">
         <g id="arrow_out" transform="scale(0.3 0.3)">
          <a xlink:href="classnlohmann_1_1basic__json_ac8e523ddc8c2dd7e5d2daf0d49a9c0d7_icgraph_org.svg" target="_base">
           <rect id="button" ry="5" rx="5" y="6" x="6" height="38" width="38"
                fill="#f2f5e9" fill-opacity="0.5" stroke="#606060" stroke-width="1.0"/>
           <path id="arrow"
             d="M 11.500037,31.436501 C 11.940474,20.09759 22.043105,11.32322 32.158766,21.979434 L 37.068811,17.246167 C 37.068811,17.246167 37.088388,32 37.088388,32 L 22.160133,31.978069 C 22.160133,31.978069 26.997745,27.140456 26.997745,27.140456 C 18.528582,18.264221 13.291696,25.230495 11.500037,31.436501 z"
             style="fill:#404040;"/>
          </a>
         </g>
        </svg>
</svg>
