<?xml version="1.0" encoding="UTF-8" standalone="no"?>
<!DOCTYPE svg PUBLIC "-//W3C//DTD SVG 1.1//EN"
 "http://www.w3.org/Graphics/SVG/1.1/DTD/svg11.dtd">
<!-- Generated by graphviz version 2.43.0 (0)
 -->
<!-- Title: nlohmann::json_pointer::contains Pages: 1 -->
<!--zoomable 186 -->
<svg id="main" version="1.1" xmlns="http://www.w3.org/2000/svg" xmlns:xlink="http://www.w3.org/1999/xlink" xml:space="preserve" onload="init(evt)">
<style type="text/css"><![CDATA[
.edge:hover path { stroke: red; }
.edge:hover polygon { stroke: red; fill: red; }
]]></style>
<script type="text/javascript"><![CDATA[
var edges = document.getElementsByTagName('g');
if (edges && edges.length) {
  for (var i=0;i<edges.length;i++) {
    if (edges[i].id.substr(0,4)=='edge') {
      edges[i].setAttribute('class','edge');
    }
  }
}
]]></script>
        <defs>
                <circle id="rim" cx="0" cy="0" r="7"/>
                <circle id="rim2" cx="0" cy="0" r="3.5"/>
                <g id="zoomPlus">
                        <use xlink:href="#rim" fill="#404040">
                                <set attributeName="fill" to="#808080" begin="zoomplus.mouseover" end="zoomplus.mouseout"/>
                        </use>
                        <path d="M-4,0h8M0,-4v8" fill="none" stroke="white" stroke-width="1.5" pointer-events="none"/>
                </g>
                <g id="zoomMin">
                        <use xlink:href="#rim" fill="#404040">
                                <set attributeName="fill" to="#808080" begin="zoomminus.mouseover" end="zoomminus.mouseout"/>
                        </use>
                        <path d="M-4,0h8" fill="none" stroke="white" stroke-width="1.5" pointer-events="none"/>
                </g>
                <g id="dirArrow">
                        <path fill="none" stroke="white" stroke-width="1.5" d="M0,-3.0v7 M-2.5,-0.5L0,-3.0L2.5,-0.5"/>
                </g>
               <g id="resetDef">
                       <use xlink:href="#rim2" fill="#404040">
                               <set attributeName="fill" to="#808080" begin="reset.mouseover" end="reset.mouseout"/>
                       </use>
               </g>
        </defs>

<script type="text/javascript">
var viewWidth = 796;
var viewHeight = 186;
var sectionId = 'dynsection-8';
</script>
<script xlink:href="svgpan.js"/>
<svg id="graph" class="graph">
<g id="viewport">
<title>nlohmann::json_pointer::contains</title>
<polygon fill="white" stroke="transparent" points="-4,4 -4,-182 792,-182 792,4 -4,4"/>
<!-- Node1 -->
<g id="node1" class="node">
<title>Node1</title>
<g id="a_node1"><a xlink:title=" ">
<polygon fill="#bfbfbf" stroke="black" points="0,-73.5 0,-103.5 131,-103.5 131,-73.5 0,-73.5"/>
<text text-anchor="start" x="8" y="-91.5" font-family="Helvetica,sans-Serif" font-size="10.00">nlohmann::json_pointer</text>
<text text-anchor="middle" x="65.5" y="-80.5" font-family="Helvetica,sans-Serif" font-size="10.00">::contains</text>
</a>
</g>
</g>
<!-- Node2 -->
<g id="node2" class="node">
<title>Node2</title>
<g id="a_node2"><a xlink:href="classnlohmann_1_1json__pointer.html#ac53f5b79dd91da78743c437832f57ce4" target="_top" xlink:title=" ">
<polygon fill="white" stroke="black" points="167,-96.5 167,-126.5 298,-126.5 298,-96.5 167,-96.5"/>
<text text-anchor="start" x="175" y="-114.5" font-family="Helvetica,sans-Serif" font-size="10.00">nlohmann::json_pointer</text>
<text text-anchor="middle" x="232.5" y="-103.5" font-family="Helvetica,sans-Serif" font-size="10.00">::array_index</text>
</a>
</g>
</g>
<!-- Node1&#45;&gt;Node2 -->
<g id="edge1" class="edge">
<title>Node1&#45;&gt;Node2</title>
<path fill="none" stroke="midnightblue" d="M131.24,-97.52C139.67,-98.7 148.37,-99.91 156.95,-101.11"/>
<polygon fill="midnightblue" stroke="midnightblue" points="156.56,-104.59 166.95,-102.5 157.53,-97.65 156.56,-104.59"/>
</g>
<!-- Node7 -->
<g id="node7" class="node">
<title>Node7</title>
<g id="a_node7"><a xlink:href="classnlohmann_1_1detail_1_1parse__error.html#a137ea4d27de45d8a844fd13451d40f3d" target="_top" xlink:title="create a parse error exception">
<polygon fill="white" stroke="black" points="334,-49.5 334,-79.5 466,-79.5 466,-49.5 334,-49.5"/>
<text text-anchor="start" x="342" y="-67.5" font-family="Helvetica,sans-Serif" font-size="10.00">nlohmann::detail::parse</text>
<text text-anchor="middle" x="400" y="-56.5" font-family="Helvetica,sans-Serif" font-size="10.00">_error::create</text>
</a>
</g>
</g>
<!-- Node1&#45;&gt;Node7 -->
<g id="edge6" class="edge">
<title>Node1&#45;&gt;Node7</title>
<path fill="none" stroke="midnightblue" d="M131,-83.84C186.14,-79.86 265.55,-74.13 323.61,-69.94"/>
<polygon fill="midnightblue" stroke="midnightblue" points="324.1,-73.42 333.82,-69.2 323.6,-66.43 324.1,-73.42"/>
</g>
<!-- Node3 -->
<g id="node3" class="node">
<title>Node3</title>
<g id="a_node3"><a xlink:href="classnlohmann_1_1detail_1_1out__of__range.html#a3f6d82a6f967c4728a1ec735a7867073" target="_top" xlink:title=" ">
<polygon fill="white" stroke="black" points="339.5,-98.5 339.5,-128.5 460.5,-128.5 460.5,-98.5 339.5,-98.5"/>
<text text-anchor="start" x="347.5" y="-116.5" font-family="Helvetica,sans-Serif" font-size="10.00">nlohmann::detail::out</text>
<text text-anchor="middle" x="400" y="-105.5" font-family="Helvetica,sans-Serif" font-size="10.00">_of_range::create</text>
</a>
</g>
</g>
<!-- Node2&#45;&gt;Node3 -->
<g id="edge2" class="edge">
<title>Node2&#45;&gt;Node3</title>
<path fill="none" stroke="midnightblue" d="M298.43,-112.28C308.55,-112.41 319.05,-112.53 329.27,-112.66"/>
<polygon fill="midnightblue" stroke="midnightblue" points="329.33,-116.16 339.38,-112.78 329.42,-109.16 329.33,-116.16"/>
</g>
<!-- Node4 -->
<g id="node4" class="node">
<title>Node4</title>
<g id="a_node4"><a xlink:href="classnlohmann_1_1detail_1_1exception.html#abf41a7e9178356314082284e6cfea278" target="_top" xlink:title=" ">
<polygon fill="white" stroke="black" points="502,-98.5 502,-128.5 655,-128.5 655,-98.5 502,-98.5"/>
<text text-anchor="start" x="510" y="-116.5" font-family="Helvetica,sans-Serif" font-size="10.00">nlohmann::detail::exception</text>
<text text-anchor="middle" x="578.5" y="-105.5" font-family="Helvetica,sans-Serif" font-size="10.00">::name</text>
</a>
</g>
</g>
<!-- Node3&#45;&gt;Node4 -->
<g id="edge3" class="edge">
<title>Node3&#45;&gt;Node4</title>
<path fill="none" stroke="midnightblue" d="M460.75,-113.5C470.76,-113.5 481.31,-113.5 491.81,-113.5"/>
<polygon fill="midnightblue" stroke="midnightblue" points="491.85,-117 501.85,-113.5 491.85,-110 491.85,-117"/>
</g>
<!-- Node6 -->
<g id="node6" class="node">
<title>Node6</title>
<g id="a_node6"><a xlink:href="classnlohmann_1_1detail_1_1out__of__range.html#ab5fe402019dba957558499502f0fd731" target="_top" xlink:title=" ">
<polygon fill="white" stroke="black" points="511.5,-147.5 511.5,-177.5 645.5,-177.5 645.5,-147.5 511.5,-147.5"/>
<text text-anchor="start" x="519.5" y="-165.5" font-family="Helvetica,sans-Serif" font-size="10.00">nlohmann::detail::out</text>
<text text-anchor="middle" x="578.5" y="-154.5" font-family="Helvetica,sans-Serif" font-size="10.00">_of_range::out_of_range</text>
</a>
</g>
</g>
<!-- Node3&#45;&gt;Node6 -->
<g id="edge5" class="edge">
<title>Node3&#45;&gt;Node6</title>
<path fill="none" stroke="midnightblue" d="M455.4,-128.6C473.77,-133.7 494.45,-139.44 513.49,-144.73"/>
<polygon fill="midnightblue" stroke="midnightblue" points="512.71,-148.15 523.28,-147.45 514.58,-141.4 512.71,-148.15"/>
</g>
<!-- Node5 -->
<g id="node5" class="node">
<title>Node5</title>
<g id="a_node5"><a xlink:href="namespacehttplib.html#a498c3a79825ecbcb15c52ec5fcfd5c11" target="_top" xlink:title=" ">
<polygon fill="white" stroke="black" points="691,-55 691,-74 788,-74 788,-55 691,-55"/>
<text text-anchor="middle" x="739.5" y="-62" font-family="Helvetica,sans-Serif" font-size="10.00">httplib::to_string</text>
</a>
</g>
</g>
<!-- Node4&#45;&gt;Node5 -->
<g id="edge4" class="edge">
<title>Node4&#45;&gt;Node5</title>
<path fill="none" stroke="midnightblue" d="M628.5,-98.4C650.72,-91.55 676.67,-83.55 697.79,-77.04"/>
<polygon fill="midnightblue" stroke="midnightblue" points="698.9,-80.37 707.43,-74.08 696.84,-73.68 698.9,-80.37"/>
</g>
<!-- Node7&#45;&gt;Node4 -->
<g id="edge7" class="edge">
<title>Node7&#45;&gt;Node4</title>
<path fill="none" stroke="midnightblue" d="M455.4,-79.6C473.77,-84.7 494.45,-90.44 513.49,-95.73"/>
<polygon fill="midnightblue" stroke="midnightblue" points="512.71,-99.15 523.28,-98.45 514.58,-92.4 512.71,-99.15"/>
</g>
<!-- Node8 -->
<g id="node8" class="node">
<title>Node8</title>
<g id="a_node8"><a xlink:href="classnlohmann_1_1detail_1_1parse__error.html#a0ea816ea3521d7109407948cb1b850f7" target="_top" xlink:title=" ">
<polygon fill="white" stroke="black" points="512.5,-49.5 512.5,-79.5 644.5,-79.5 644.5,-49.5 512.5,-49.5"/>
<text text-anchor="start" x="520.5" y="-67.5" font-family="Helvetica,sans-Serif" font-size="10.00">nlohmann::detail::parse</text>
<text text-anchor="middle" x="578.5" y="-56.5" font-family="Helvetica,sans-Serif" font-size="10.00">_error::parse_error</text>
</a>
</g>
</g>
<!-- Node7&#45;&gt;Node8 -->
<g id="edge8" class="edge">
<title>Node7&#45;&gt;Node8</title>
<path fill="none" stroke="midnightblue" d="M466.22,-64.5C477.84,-64.5 490.03,-64.5 501.92,-64.5"/>
<polygon fill="midnightblue" stroke="midnightblue" points="502.25,-68 512.25,-64.5 502.25,-61 502.25,-68"/>
</g>
<!-- Node9 -->
<g id="node9" class="node">
<title>Node9</title>
<g id="a_node9"><a xlink:href="classnlohmann_1_1detail_1_1parse__error.html#aefe74adeaa48781464ba2fd2ec63d221" target="_top" xlink:title=" ">
<polygon fill="white" stroke="black" points="512.5,-0.5 512.5,-30.5 644.5,-30.5 644.5,-0.5 512.5,-0.5"/>
<text text-anchor="start" x="520.5" y="-18.5" font-family="Helvetica,sans-Serif" font-size="10.00">nlohmann::detail::parse</text>
<text text-anchor="middle" x="578.5" y="-7.5" font-family="Helvetica,sans-Serif" font-size="10.00">_error::position_string</text>
</a>
</g>
</g>
<!-- Node7&#45;&gt;Node9 -->
<g id="edge9" class="edge">
<title>Node7&#45;&gt;Node9</title>
<path fill="none" stroke="midnightblue" d="M455.4,-49.4C473.77,-44.3 494.45,-38.56 513.49,-33.27"/>
<polygon fill="midnightblue" stroke="midnightblue" points="514.58,-36.6 523.28,-30.55 512.71,-29.85 514.58,-36.6"/>
</g>
<!-- Node9&#45;&gt;Node5 -->
<g id="edge10" class="edge">
<title>Node9&#45;&gt;Node5</title>
<path fill="none" stroke="midnightblue" d="M628.5,-30.6C650.72,-37.45 676.67,-45.45 697.79,-51.96"/>
<polygon fill="midnightblue" stroke="midnightblue" points="696.84,-55.32 707.43,-54.92 698.9,-48.63 696.84,-55.32"/>
</g>
</g>
</svg>
        <g id="navigator" transform="translate(0 0)" fill="#404254">
                <rect fill="#f2f5e9" fill-opacity="0.5" stroke="#606060" stroke-width=".5" x="0" y="0" width="60" height="60"/>
                <use id="zoomplus" xlink:href="#zoomPlus" x="17" y="9" onmousedown="handleZoom(evt,'in')"/>
                <use id="zoomminus" xlink:href="#zoomMin" x="42" y="9" onmousedown="handleZoom(evt,'out')"/>
                <use id="reset" xlink:href="#resetDef" x="30" y="36" onmousedown="handleReset()"/>
                <g id="arrowUp" xlink:href="#dirArrow" transform="translate(30 24)" onmousedown="handlePan(0,-1)">
                  <use xlink:href="#rim" fill="#404040">
                        <set attributeName="fill" to="#808080" begin="arrowUp.mouseover" end="arrowUp.mouseout"/>
                  </use>
                  <path fill="none" stroke="white" stroke-width="1.5" d="M0,-3.0v7 M-2.5,-0.5L0,-3.0L2.5,-0.5"/>
                </g>
                <g id="arrowRight" xlink:href="#dirArrow" transform="rotate(90) translate(36 -43)" onmousedown="handlePan(1,0)">
                  <use xlink:href="#rim" fill="#404040">
                        <set attributeName="fill" to="#808080" begin="arrowRight.mouseover" end="arrowRight.mouseout"/>
                  </use>
                  <path fill="none" stroke="white" stroke-width="1.5" d="M0,-3.0v7 M-2.5,-0.5L0,-3.0L2.5,-0.5"/>
                </g>
                <g id="arrowDown" xlink:href="#dirArrow" transform="rotate(180) translate(-30 -48)" onmousedown="handlePan(0,1)">
                  <use xlink:href="#rim" fill="#404040">
                        <set attributeName="fill" to="#808080" begin="arrowDown.mouseover" end="arrowDown.mouseout"/>
                  </use>
                  <path fill="none" stroke="white" stroke-width="1.5" d="M0,-3.0v7 M-2.5,-0.5L0,-3.0L2.5,-0.5"/>
                </g>
                <g id="arrowLeft" xlink:href="#dirArrow" transform="rotate(270) translate(-36 17)" onmousedown="handlePan(-1,0)">
                  <use xlink:href="#rim" fill="#404040">
                        <set attributeName="fill" to="#808080" begin="arrowLeft.mouseover" end="arrowLeft.mouseout"/>
                  </use>
                  <path fill="none" stroke="white" stroke-width="1.5" d="M0,-3.0v7 M-2.5,-0.5L0,-3.0L2.5,-0.5"/>
                </g>
        </g>
        <svg viewBox="0 0 15 15" width="100%" height="30px" preserveAspectRatio="xMaxYMin meet">
         <g id="arrow_out" transform="scale(0.3 0.3)">
          <a xlink:href="classnlohmann_1_1json__pointer_a90d38e45e2d3add52d824bc55da8f772_cgraph_org.svg" target="_base">
           <rect id="button" ry="5" rx="5" y="6" x="6" height="38" width="38"
                fill="#f2f5e9" fill-opacity="0.5" stroke="#606060" stroke-width="1.0"/>
           <path id="arrow"
             d="M 11.500037,31.436501 C 11.940474,20.09759 22.043105,11.32322 32.158766,21.979434 L 37.068811,17.246167 C 37.068811,17.246167 37.088388,32 37.088388,32 L 22.160133,31.978069 C 22.160133,31.978069 26.997745,27.140456 26.997745,27.140456 C 18.528582,18.264221 13.291696,25.230495 11.500037,31.436501 z"
             style="fill:#404040;"/>
          </a>
         </g>
        </svg>
</svg>
