<?xml version="1.0" encoding="UTF-8" standalone="no"?>
<!DOCTYPE svg PUBLIC "-//W3C//DTD SVG 1.1//EN"
 "http://www.w3.org/Graphics/SVG/1.1/DTD/svg11.dtd">
<!-- Generated by graphviz version 2.43.0 (0)
 -->
<!-- Title: nlohmann::detail::binary_reader::get_msgpack_string Pages: 1 -->
<svg width="990pt" height="94pt"
 viewBox="0.00 0.00 990.00 93.50" xmlns="http://www.w3.org/2000/svg" xmlns:xlink="http://www.w3.org/1999/xlink">
<g id="graph0" class="graph" transform="scale(1 1) rotate(0) translate(4 89.5)">
<title>nlohmann::detail::binary_reader::get_msgpack_string</title>
<polygon fill="white" stroke="transparent" points="-4,4 -4,-89.5 986,-89.5 986,4 -4,4"/>
<!-- Node1 -->
<g id="node1" class="node">
<title>Node1</title>
<g id="a_node1"><a xlink:title="reads a MessagePack string">
<polygon fill="#bfbfbf" stroke="black" points="824,-27.5 824,-57.5 982,-57.5 982,-27.5 824,-27.5"/>
<text text-anchor="start" x="832" y="-45.5" font-family="Helvetica,sans-Serif" font-size="10.00">nlohmann::detail::binary</text>
<text text-anchor="middle" x="903" y="-34.5" font-family="Helvetica,sans-Serif" font-size="10.00">_reader::get_msgpack_string</text>
</a>
</g>
</g>
<!-- Node2 -->
<g id="node2" class="node">
<title>Node2</title>
<g id="a_node2"><a xlink:href="classnlohmann_1_1detail_1_1binary__reader.html#ad1190bb3499e243b0bbf795743a35563" target="_top" xlink:title=" ">
<polygon fill="white" stroke="black" points="628,-49.5 628,-79.5 788,-79.5 788,-49.5 628,-49.5"/>
<text text-anchor="start" x="636" y="-67.5" font-family="Helvetica,sans-Serif" font-size="10.00">nlohmann::detail::binary</text>
<text text-anchor="middle" x="708" y="-56.5" font-family="Helvetica,sans-Serif" font-size="10.00">_reader::get_msgpack_object</text>
</a>
</g>
</g>
<!-- Node1&#45;&gt;Node2 -->
<g id="edge1" class="edge">
<title>Node1&#45;&gt;Node2</title>
<path fill="none" stroke="midnightblue" d="M813.83,-52.55C805.31,-53.52 796.7,-54.5 788.28,-55.46"/>
<polygon fill="midnightblue" stroke="midnightblue" points="814.24,-56.03 823.78,-51.42 813.45,-49.07 814.24,-56.03"/>
</g>
<!-- Node3 -->
<g id="node3" class="node">
<title>Node3</title>
<g id="a_node3"><a xlink:href="classnlohmann_1_1detail_1_1binary__reader.html#a81611d8a5faec1348d31f7e98fcd05ef" target="_top" xlink:title=" ">
<polygon fill="white" stroke="black" points="456,-44 456,-85 592,-85 592,-44 456,-44"/>
<text text-anchor="start" x="464" y="-73" font-family="Helvetica,sans-Serif" font-size="10.00">nlohmann::detail::binary</text>
<text text-anchor="start" x="464" y="-62" font-family="Helvetica,sans-Serif" font-size="10.00">_reader::parse_msgpack</text>
<text text-anchor="middle" x="524" y="-51" font-family="Helvetica,sans-Serif" font-size="10.00">_internal</text>
</a>
</g>
</g>
<!-- Node1&#45;&gt;Node3 -->
<g id="edge9" class="edge">
<title>Node1&#45;&gt;Node3</title>
<path fill="none" stroke="midnightblue" d="M813.58,-36.42C759.76,-34.07 689.71,-33.41 628,-40.5 616.33,-41.84 604.05,-44.01 592.21,-46.51"/>
<polygon fill="midnightblue" stroke="midnightblue" points="813.63,-39.93 823.78,-36.9 813.95,-32.94 813.63,-39.93"/>
</g>
<!-- Node2&#45;&gt;Node3 -->
<g id="edge2" class="edge">
<title>Node2&#45;&gt;Node3</title>
<path fill="none" stroke="midnightblue" d="M617.88,-57.75C609.27,-57.74 600.63,-57.81 592.28,-57.96"/>
<polygon fill="midnightblue" stroke="midnightblue" points="617.95,-61.25 627.97,-57.8 617.98,-54.25 617.95,-61.25"/>
</g>
<!-- Node3&#45;&gt;Node2 -->
<g id="edge5" class="edge">
<title>Node3&#45;&gt;Node2</title>
<path fill="none" stroke="midnightblue" d="M602.47,-71.18C610.91,-71.27 619.51,-71.27 627.97,-71.2"/>
<polygon fill="midnightblue" stroke="midnightblue" points="602.33,-67.68 592.28,-71.04 602.23,-74.68 602.33,-67.68"/>
</g>
<!-- Node4 -->
<g id="node4" class="node">
<title>Node4</title>
<g id="a_node4"><a xlink:href="classnlohmann_1_1detail_1_1binary__reader.html#a09d3eed7523da6f61e7ffa98823aae2b" target="_top" xlink:title=" ">
<polygon fill="white" stroke="black" points="265,-49.5 265,-79.5 420,-79.5 420,-49.5 265,-49.5"/>
<text text-anchor="start" x="273" y="-67.5" font-family="Helvetica,sans-Serif" font-size="10.00">nlohmann::detail::binary</text>
<text text-anchor="middle" x="342.5" y="-56.5" font-family="Helvetica,sans-Serif" font-size="10.00">_reader::get_msgpack_array</text>
</a>
</g>
</g>
<!-- Node3&#45;&gt;Node4 -->
<g id="edge3" class="edge">
<title>Node3&#45;&gt;Node4</title>
<path fill="none" stroke="midnightblue" d="M445.69,-57.81C437.23,-57.73 428.62,-57.73 420.18,-57.81"/>
<polygon fill="midnightblue" stroke="midnightblue" points="445.86,-61.31 455.91,-57.94 445.95,-54.31 445.86,-61.31"/>
</g>
<!-- Node5 -->
<g id="node5" class="node">
<title>Node5</title>
<g id="a_node5"><a xlink:href="classnlohmann_1_1detail_1_1binary__reader.html#ab94a54d6e595c2620b07589cf4116256" target="_top" xlink:title=" ">
<polygon fill="white" stroke="black" points="274.5,-0.5 274.5,-30.5 410.5,-30.5 410.5,-0.5 274.5,-0.5"/>
<text text-anchor="start" x="282.5" y="-18.5" font-family="Helvetica,sans-Serif" font-size="10.00">nlohmann::detail::binary</text>
<text text-anchor="middle" x="342.5" y="-7.5" font-family="Helvetica,sans-Serif" font-size="10.00">_reader::sax_parse</text>
</a>
</g>
</g>
<!-- Node3&#45;&gt;Node5 -->
<g id="edge6" class="edge">
<title>Node3&#45;&gt;Node5</title>
<path fill="none" stroke="midnightblue" d="M446.04,-43.49C430.05,-39.13 413.51,-34.61 398.51,-30.52"/>
<polygon fill="midnightblue" stroke="midnightblue" points="445.34,-46.93 455.91,-46.18 447.18,-40.17 445.34,-46.93"/>
</g>
<!-- Node4&#45;&gt;Node3 -->
<g id="edge4" class="edge">
<title>Node4&#45;&gt;Node3</title>
<path fill="none" stroke="midnightblue" d="M430.26,-71.25C438.88,-71.27 447.53,-71.2 455.91,-71.06"/>
<polygon fill="midnightblue" stroke="midnightblue" points="430.2,-67.75 420.18,-71.19 430.15,-74.75 430.2,-67.75"/>
</g>
<!-- Node6 -->
<g id="node6" class="node">
<title>Node6</title>
<g id="a_node6"><a xlink:href="classnlohmann_1_1basic__json.html#a8a3dd150c2d1f0df3502d937de0871db" target="_top" xlink:title="generate SAX events">
<polygon fill="white" stroke="black" points="107,-0.5 107,-30.5 229,-30.5 229,-0.5 107,-0.5"/>
<text text-anchor="start" x="115" y="-18.5" font-family="Helvetica,sans-Serif" font-size="10.00">nlohmann::basic_json</text>
<text text-anchor="middle" x="168" y="-7.5" font-family="Helvetica,sans-Serif" font-size="10.00">::sax_parse</text>
</a>
</g>
</g>
<!-- Node5&#45;&gt;Node6 -->
<g id="edge7" class="edge">
<title>Node5&#45;&gt;Node6</title>
<path fill="none" stroke="midnightblue" d="M264.12,-15.5C252.43,-15.5 240.52,-15.5 229.26,-15.5"/>
<polygon fill="midnightblue" stroke="midnightblue" points="264.31,-19 274.31,-15.5 264.31,-12 264.31,-19"/>
</g>
<!-- Node7 -->
<g id="node7" class="node">
<title>Node7</title>
<g id="a_node7"><a xlink:href="unit-bson_8cpp.html#a73301d5e6d0f638e973f748287501dd6" target="_top" xlink:title=" ">
<polygon fill="white" stroke="black" points="0,-6 0,-25 71,-25 71,-6 0,-6"/>
<text text-anchor="middle" x="35.5" y="-13" font-family="Helvetica,sans-Serif" font-size="10.00">TEST_CASE</text>
</a>
</g>
</g>
<!-- Node6&#45;&gt;Node7 -->
<g id="edge8" class="edge">
<title>Node6&#45;&gt;Node7</title>
<path fill="none" stroke="midnightblue" d="M96.44,-15.5C87.71,-15.5 79.11,-15.5 71.26,-15.5"/>
<polygon fill="midnightblue" stroke="midnightblue" points="96.72,-19 106.72,-15.5 96.72,-12 96.72,-19"/>
</g>
</g>
</svg>
