<?xml version="1.0" encoding="UTF-8" standalone="no"?>
<!DOCTYPE svg PUBLIC "-//W3C//DTD SVG 1.1//EN"
 "http://www.w3.org/Graphics/SVG/1.1/DTD/svg11.dtd">
<!-- Generated by graphviz version 2.43.0 (0)
 -->
<!-- Title: nlohmann::detail::wide_string_input_adapter&lt; WideStringType &gt; Pages: 1 -->
<svg width="307pt" height="430pt"
 viewBox="0.00 0.00 306.50 430.00" xmlns="http://www.w3.org/2000/svg" xmlns:xlink="http://www.w3.org/1999/xlink">
<g id="graph0" class="graph" transform="scale(1 1) rotate(0) translate(4 426)">
<title>nlohmann::detail::wide_string_input_adapter&lt; WideStringType &gt;</title>
<polygon fill="white" stroke="transparent" points="-4,4 -4,-426 302.5,-426 302.5,4 -4,4"/>
<!-- Node1 -->
<g id="node1" class="node">
<title>Node1</title>
<g id="a_node1"><a xlink:title=" ">
<polygon fill="#bfbfbf" stroke="black" points="42,-0.5 42,-167.5 206,-167.5 206,-0.5 42,-0.5"/>
<text text-anchor="start" x="50" y="-155.5" font-family="Helvetica,sans-Serif" font-size="10.00">nlohmann::detail::wide</text>
<text text-anchor="start" x="50" y="-144.5" font-family="Helvetica,sans-Serif" font-size="10.00">_string_input_adapter</text>
<text text-anchor="middle" x="124" y="-133.5" font-family="Helvetica,sans-Serif" font-size="10.00">&lt; WideStringType &gt;</text>
<polyline fill="none" stroke="black" points="42,-126.5 206,-126.5 "/>
<text text-anchor="start" x="50" y="-114.5" font-family="Helvetica,sans-Serif" font-size="10.00">&#45; str</text>
<text text-anchor="start" x="50" y="-103.5" font-family="Helvetica,sans-Serif" font-size="10.00">&#45; current_wchar</text>
<text text-anchor="start" x="50" y="-92.5" font-family="Helvetica,sans-Serif" font-size="10.00">&#45; utf8_bytes_index</text>
<text text-anchor="start" x="50" y="-81.5" font-family="Helvetica,sans-Serif" font-size="10.00">&#45; utf8_bytes_filled</text>
<polyline fill="none" stroke="black" points="42,-74.5 206,-74.5 "/>
<text text-anchor="start" x="50" y="-62.5" font-family="Helvetica,sans-Serif" font-size="10.00">+ wide_string_input_adapter()</text>
<text text-anchor="start" x="50" y="-51.5" font-family="Helvetica,sans-Serif" font-size="10.00">+ get_character()</text>
<text text-anchor="start" x="50" y="-40.5" font-family="Helvetica,sans-Serif" font-size="10.00">+ wide_string_input_adapter()</text>
<text text-anchor="start" x="50" y="-29.5" font-family="Helvetica,sans-Serif" font-size="10.00">+ get_character()</text>
<text text-anchor="start" x="50" y="-18.5" font-family="Helvetica,sans-Serif" font-size="10.00">&#45; fill_buffer()</text>
<text text-anchor="start" x="50" y="-7.5" font-family="Helvetica,sans-Serif" font-size="10.00">&#45; fill_buffer()</text>
</a>
</g>
</g>
<!-- Node2 -->
<g id="node2" class="node">
<title>Node2</title>
<g id="a_node2"><a xlink:href="structnlohmann_1_1detail_1_1input__adapter__protocol.html" target="_top" xlink:title="abstract input adapter interface">
<polygon fill="white" stroke="black" points="0,-215.5 0,-316.5 156,-316.5 156,-215.5 0,-215.5"/>
<text text-anchor="start" x="8" y="-304.5" font-family="Helvetica,sans-Serif" font-size="10.00">nlohmann::detail::input</text>
<text text-anchor="middle" x="78" y="-293.5" font-family="Helvetica,sans-Serif" font-size="10.00">_adapter_protocol</text>
<polyline fill="none" stroke="black" points="0,-286.5 156,-286.5 "/>
<text text-anchor="middle" x="78" y="-274.5" font-family="Helvetica,sans-Serif" font-size="10.00"> </text>
<polyline fill="none" stroke="black" points="0,-267.5 156,-267.5 "/>
<text text-anchor="start" x="8" y="-255.5" font-family="Helvetica,sans-Serif" font-size="10.00">+ get_character()</text>
<text text-anchor="start" x="8" y="-244.5" font-family="Helvetica,sans-Serif" font-size="10.00">+ ~input_adapter_protocol()</text>
<text text-anchor="start" x="8" y="-233.5" font-family="Helvetica,sans-Serif" font-size="10.00">+ get_character()</text>
<text text-anchor="start" x="8" y="-222.5" font-family="Helvetica,sans-Serif" font-size="10.00">+ ~input_adapter_protocol()</text>
</a>
</g>
</g>
<!-- Node2&#45;&gt;Node1 -->
<g id="edge1" class="edge">
<title>Node2&#45;&gt;Node1</title>
<path fill="none" stroke="midnightblue" d="M93.23,-205.4C96.32,-193.31 99.62,-180.39 102.87,-167.67"/>
<polygon fill="none" stroke="midnightblue" points="89.78,-204.78 90.69,-215.34 96.56,-206.52 89.78,-204.78"/>
</g>
<!-- Node3 -->
<g id="node3" class="node">
<title>Node3</title>
<g id="a_node3"><a xlink:title=" ">
<polygon fill="white" stroke="#bfbfbf" points="174,-226.5 174,-305.5 290,-305.5 290,-226.5 174,-226.5"/>
<text text-anchor="start" x="182" y="-293.5" font-family="Helvetica,sans-Serif" font-size="10.00">std::array&lt; std::char</text>
<text text-anchor="start" x="182" y="-282.5" font-family="Helvetica,sans-Serif" font-size="10.00">_traits&lt; char &gt;::int</text>
<text text-anchor="middle" x="232" y="-271.5" font-family="Helvetica,sans-Serif" font-size="10.00">_type, 4 &gt;</text>
<polyline fill="none" stroke="#bfbfbf" points="174,-264.5 290,-264.5 "/>
<text text-anchor="middle" x="232" y="-252.5" font-family="Helvetica,sans-Serif" font-size="10.00"> </text>
<polyline fill="none" stroke="#bfbfbf" points="174,-245.5 290,-245.5 "/>
<text text-anchor="middle" x="232" y="-233.5" font-family="Helvetica,sans-Serif" font-size="10.00"> </text>
</a>
</g>
</g>
<!-- Node3&#45;&gt;Node1 -->
<g id="edge2" class="edge">
<title>Node3&#45;&gt;Node1</title>
<path fill="none" stroke="#404040" d="M208.83,-226.39C200.26,-212.1 190.13,-195.22 179.91,-178.18"/>
<polygon fill="none" stroke="#404040" points="179.72,-177.86 173.2,-174.78 173.54,-167.57 180.06,-170.66 179.72,-177.86"/>
<text text-anchor="middle" x="219.5" y="-189" font-family="Helvetica,sans-Serif" font-size="10.00"> &#45;utf8_bytes</text>
</g>
<!-- Node4 -->
<g id="node4" class="node">
<title>Node4</title>
<g id="a_node4"><a xlink:href="structstd_1_1char__traits.html" target="_top" xlink:title=" ">
<polygon fill="white" stroke="black" points="165.5,-364.5 165.5,-421.5 298.5,-421.5 298.5,-364.5 165.5,-364.5"/>
<text text-anchor="middle" x="232" y="-409.5" font-family="Helvetica,sans-Serif" font-size="10.00">std::char_traits&lt; char &gt;</text>
<polyline fill="none" stroke="black" points="165.5,-402.5 298.5,-402.5 "/>
<text text-anchor="middle" x="232" y="-390.5" font-family="Helvetica,sans-Serif" font-size="10.00"> </text>
<polyline fill="none" stroke="black" points="165.5,-383.5 298.5,-383.5 "/>
<text text-anchor="middle" x="232" y="-371.5" font-family="Helvetica,sans-Serif" font-size="10.00"> </text>
</a>
</g>
</g>
<!-- Node4&#45;&gt;Node3 -->
<g id="edge3" class="edge">
<title>Node4&#45;&gt;Node3</title>
<path fill="none" stroke="#404040" d="M232,-364.26C232,-350.64 232,-333.79 232,-317.96"/>
<polygon fill="none" stroke="#404040" points="232,-317.57 228,-311.57 232,-305.57 236,-311.57 232,-317.57"/>
<text text-anchor="middle" x="261" y="-338" font-family="Helvetica,sans-Serif" font-size="10.00"> +elements</text>
</g>
</g>
</svg>
