<?xml version="1.0" encoding="UTF-8" standalone="no"?>
<!DOCTYPE svg PUBLIC "-//W3C//DTD SVG 1.1//EN"
 "http://www.w3.org/Graphics/SVG/1.1/DTD/svg11.dtd">
<!-- Generated by graphviz version 2.43.0 (0)
 -->
<!-- Title: doctest::detail::ContextScopeBase Pages: 1 -->
<svg width="139pt" height="204pt"
 viewBox="0.00 0.00 139.00 204.00" xmlns="http://www.w3.org/2000/svg" xmlns:xlink="http://www.w3.org/1999/xlink">
<g id="graph0" class="graph" transform="scale(1 1) rotate(0) translate(4 200)">
<title>doctest::detail::ContextScopeBase</title>
<polygon fill="white" stroke="transparent" points="-4,4 -4,-200 135,-200 135,4 -4,4"/>
<!-- Node1 -->
<g id="node1" class="node">
<title>Node1</title>
<g id="a_node1"><a xlink:title=" ">
<polygon fill="#bfbfbf" stroke="black" points="0,-0.5 0,-79.5 131,-79.5 131,-0.5 0,-0.5"/>
<text text-anchor="start" x="8" y="-67.5" font-family="Helvetica,sans-Serif" font-size="10.00">doctest::detail::Context</text>
<text text-anchor="middle" x="65.5" y="-56.5" font-family="Helvetica,sans-Serif" font-size="10.00">ScopeBase</text>
<polyline fill="none" stroke="black" points="0,-49.5 131,-49.5 "/>
<text text-anchor="middle" x="65.5" y="-37.5" font-family="Helvetica,sans-Serif" font-size="10.00"> </text>
<polyline fill="none" stroke="black" points="0,-30.5 131,-30.5 "/>
<text text-anchor="start" x="8" y="-18.5" font-family="Helvetica,sans-Serif" font-size="10.00"># ContextScopeBase()</text>
<text text-anchor="start" x="8" y="-7.5" font-family="Helvetica,sans-Serif" font-size="10.00"># destroy()</text>
</a>
</g>
</g>
<!-- Node2 -->
<g id="node2" class="node">
<title>Node2</title>
<g id="a_node2"><a xlink:href="structdoctest_1_1IContextScope.html" target="_top" xlink:title=" ">
<polygon fill="white" stroke="black" points="1,-116.5 1,-195.5 130,-195.5 130,-116.5 1,-116.5"/>
<text text-anchor="middle" x="65.5" y="-183.5" font-family="Helvetica,sans-Serif" font-size="10.00">doctest::IContextScope</text>
<polyline fill="none" stroke="black" points="1,-176.5 130,-176.5 "/>
<text text-anchor="middle" x="65.5" y="-164.5" font-family="Helvetica,sans-Serif" font-size="10.00"> </text>
<polyline fill="none" stroke="black" points="1,-157.5 130,-157.5 "/>
<text text-anchor="start" x="9" y="-145.5" font-family="Helvetica,sans-Serif" font-size="10.00">+ IContextScope()</text>
<text text-anchor="start" x="9" y="-134.5" font-family="Helvetica,sans-Serif" font-size="10.00">+ ~IContextScope()</text>
<text text-anchor="start" x="9" y="-123.5" font-family="Helvetica,sans-Serif" font-size="10.00">+ stringify()</text>
</a>
</g>
</g>
<!-- Node2&#45;&gt;Node1 -->
<g id="edge1" class="edge">
<title>Node2&#45;&gt;Node1</title>
<path fill="none" stroke="midnightblue" d="M65.5,-106.15C65.5,-97.26 65.5,-88.1 65.5,-79.56"/>
<polygon fill="none" stroke="midnightblue" points="62,-106.4 65.5,-116.4 69,-106.4 62,-106.4"/>
</g>
</g>
</svg>
