<?xml version="1.0" encoding="UTF-8" standalone="no"?>
<!DOCTYPE svg PUBLIC "-//W3C//DTD SVG 1.1//EN"
 "http://www.w3.org/Graphics/SVG/1.1/DTD/svg11.dtd">
<!-- Generated by graphviz version 2.43.0 (0)
 -->
<!-- Title: httplib::Server Pages: 1 -->
<svg width="1150pt" height="1838pt"
 viewBox="0.00 0.00 1149.50 1838.00" xmlns="http://www.w3.org/2000/svg" xmlns:xlink="http://www.w3.org/1999/xlink">
<g id="graph0" class="graph" transform="scale(1 1) rotate(0) translate(4 1834)">
<title>httplib::Server</title>
<polygon fill="white" stroke="transparent" points="-4,4 -4,-1834 1145.5,-1834 1145.5,4 -4,4"/>
<!-- Node1 -->
<g id="node1" class="node">
<title>Node1</title>
<g id="a_node1"><a xlink:title=" ">
<polygon fill="#bfbfbf" stroke="black" points="493.5,-0.5 493.5,-1080.5 660.5,-1080.5 660.5,-0.5 493.5,-0.5"/>
<text text-anchor="middle" x="577" y="-1068.5" font-family="Helvetica,sans-Serif" font-size="10.00">httplib::Server</text>
<polyline fill="none" stroke="black" points="493.5,-1061.5 660.5,-1061.5 "/>
<text text-anchor="start" x="501.5" y="-1049.5" font-family="Helvetica,sans-Serif" font-size="10.00">+ new_task_queue</text>
<text text-anchor="start" x="501.5" y="-1038.5" font-family="Helvetica,sans-Serif" font-size="10.00"># keep_alive_max_count_</text>
<text text-anchor="start" x="501.5" y="-1027.5" font-family="Helvetica,sans-Serif" font-size="10.00"># keep_alive_timeout_sec_</text>
<text text-anchor="start" x="501.5" y="-1016.5" font-family="Helvetica,sans-Serif" font-size="10.00"># read_timeout_sec_</text>
<text text-anchor="start" x="501.5" y="-1005.5" font-family="Helvetica,sans-Serif" font-size="10.00"># read_timeout_usec_</text>
<text text-anchor="start" x="501.5" y="-994.5" font-family="Helvetica,sans-Serif" font-size="10.00"># write_timeout_sec_</text>
<text text-anchor="start" x="501.5" y="-983.5" font-family="Helvetica,sans-Serif" font-size="10.00"># write_timeout_usec_</text>
<text text-anchor="start" x="501.5" y="-972.5" font-family="Helvetica,sans-Serif" font-size="10.00"># idle_interval_sec_</text>
<text text-anchor="start" x="501.5" y="-961.5" font-family="Helvetica,sans-Serif" font-size="10.00"># idle_interval_usec_</text>
<text text-anchor="start" x="501.5" y="-950.5" font-family="Helvetica,sans-Serif" font-size="10.00"># payload_max_length_</text>
<text text-anchor="start" x="501.5" y="-939.5" font-family="Helvetica,sans-Serif" font-size="10.00">&#45; file_request_handler_</text>
<text text-anchor="start" x="501.5" y="-928.5" font-family="Helvetica,sans-Serif" font-size="10.00">&#45; error_handler_</text>
<text text-anchor="start" x="501.5" y="-917.5" font-family="Helvetica,sans-Serif" font-size="10.00">&#45; exception_handler_</text>
<text text-anchor="start" x="501.5" y="-906.5" font-family="Helvetica,sans-Serif" font-size="10.00">&#45; pre_routing_handler_</text>
<text text-anchor="start" x="501.5" y="-895.5" font-family="Helvetica,sans-Serif" font-size="10.00">&#45; post_routing_handler_</text>
<text text-anchor="start" x="501.5" y="-884.5" font-family="Helvetica,sans-Serif" font-size="10.00">&#45; expect_100_continue</text>
<text text-anchor="start" x="501.5" y="-873.5" font-family="Helvetica,sans-Serif" font-size="10.00">_handler_</text>
<text text-anchor="start" x="501.5" y="-862.5" font-family="Helvetica,sans-Serif" font-size="10.00">&#45; logger_</text>
<text text-anchor="start" x="501.5" y="-851.5" font-family="Helvetica,sans-Serif" font-size="10.00">&#45; address_family_</text>
<text text-anchor="start" x="501.5" y="-840.5" font-family="Helvetica,sans-Serif" font-size="10.00">&#45; tcp_nodelay_</text>
<text text-anchor="start" x="501.5" y="-829.5" font-family="Helvetica,sans-Serif" font-size="10.00">&#45; socket_options_</text>
<text text-anchor="start" x="501.5" y="-818.5" font-family="Helvetica,sans-Serif" font-size="10.00">&#45; header_writer_</text>
<polyline fill="none" stroke="black" points="493.5,-811.5 660.5,-811.5 "/>
<text text-anchor="start" x="501.5" y="-799.5" font-family="Helvetica,sans-Serif" font-size="10.00">+ Server()</text>
<text text-anchor="start" x="501.5" y="-788.5" font-family="Helvetica,sans-Serif" font-size="10.00">+ ~Server()</text>
<text text-anchor="start" x="501.5" y="-777.5" font-family="Helvetica,sans-Serif" font-size="10.00">+ is_valid()</text>
<text text-anchor="start" x="501.5" y="-766.5" font-family="Helvetica,sans-Serif" font-size="10.00">+ Get()</text>
<text text-anchor="start" x="501.5" y="-755.5" font-family="Helvetica,sans-Serif" font-size="10.00">+ Post()</text>
<text text-anchor="start" x="501.5" y="-744.5" font-family="Helvetica,sans-Serif" font-size="10.00">+ Post()</text>
<text text-anchor="start" x="501.5" y="-733.5" font-family="Helvetica,sans-Serif" font-size="10.00">+ Put()</text>
<text text-anchor="start" x="501.5" y="-722.5" font-family="Helvetica,sans-Serif" font-size="10.00">+ Put()</text>
<text text-anchor="start" x="501.5" y="-711.5" font-family="Helvetica,sans-Serif" font-size="10.00">+ Patch()</text>
<text text-anchor="start" x="501.5" y="-700.5" font-family="Helvetica,sans-Serif" font-size="10.00">+ Patch()</text>
<text text-anchor="start" x="501.5" y="-689.5" font-family="Helvetica,sans-Serif" font-size="10.00">+ Delete()</text>
<text text-anchor="start" x="501.5" y="-678.5" font-family="Helvetica,sans-Serif" font-size="10.00">+ Delete()</text>
<text text-anchor="start" x="501.5" y="-667.5" font-family="Helvetica,sans-Serif" font-size="10.00">+ Options()</text>
<text text-anchor="start" x="501.5" y="-656.5" font-family="Helvetica,sans-Serif" font-size="10.00">+ set_base_dir()</text>
<text text-anchor="start" x="501.5" y="-645.5" font-family="Helvetica,sans-Serif" font-size="10.00">+ set_mount_point()</text>
<text text-anchor="start" x="501.5" y="-634.5" font-family="Helvetica,sans-Serif" font-size="10.00">+ remove_mount_point()</text>
<text text-anchor="start" x="501.5" y="-623.5" font-family="Helvetica,sans-Serif" font-size="10.00">+ set_file_extension</text>
<text text-anchor="start" x="501.5" y="-612.5" font-family="Helvetica,sans-Serif" font-size="10.00">_and_mimetype_mapping()</text>
<text text-anchor="start" x="501.5" y="-601.5" font-family="Helvetica,sans-Serif" font-size="10.00">+ set_default_file_mimetype()</text>
<text text-anchor="start" x="501.5" y="-590.5" font-family="Helvetica,sans-Serif" font-size="10.00">+ set_file_request_handler()</text>
<text text-anchor="start" x="501.5" y="-579.5" font-family="Helvetica,sans-Serif" font-size="10.00">+ set_error_handler()</text>
<text text-anchor="start" x="501.5" y="-568.5" font-family="Helvetica,sans-Serif" font-size="10.00">+ set_error_handler()</text>
<text text-anchor="start" x="501.5" y="-557.5" font-family="Helvetica,sans-Serif" font-size="10.00">+ set_exception_handler()</text>
<text text-anchor="start" x="501.5" y="-546.5" font-family="Helvetica,sans-Serif" font-size="10.00">+ set_pre_routing_handler()</text>
<text text-anchor="start" x="501.5" y="-535.5" font-family="Helvetica,sans-Serif" font-size="10.00">+ set_post_routing_handler()</text>
<text text-anchor="start" x="501.5" y="-524.5" font-family="Helvetica,sans-Serif" font-size="10.00">+ set_expect_100_continue</text>
<text text-anchor="start" x="501.5" y="-513.5" font-family="Helvetica,sans-Serif" font-size="10.00">_handler()</text>
<text text-anchor="start" x="501.5" y="-502.5" font-family="Helvetica,sans-Serif" font-size="10.00">+ set_logger()</text>
<text text-anchor="start" x="501.5" y="-491.5" font-family="Helvetica,sans-Serif" font-size="10.00">+ set_address_family()</text>
<text text-anchor="start" x="501.5" y="-480.5" font-family="Helvetica,sans-Serif" font-size="10.00">+ set_tcp_nodelay()</text>
<text text-anchor="start" x="501.5" y="-469.5" font-family="Helvetica,sans-Serif" font-size="10.00">+ set_socket_options()</text>
<text text-anchor="start" x="501.5" y="-458.5" font-family="Helvetica,sans-Serif" font-size="10.00">+ set_default_headers()</text>
<text text-anchor="start" x="501.5" y="-447.5" font-family="Helvetica,sans-Serif" font-size="10.00">+ set_header_writer()</text>
<text text-anchor="start" x="501.5" y="-436.5" font-family="Helvetica,sans-Serif" font-size="10.00">+ set_keep_alive_max</text>
<text text-anchor="start" x="501.5" y="-425.5" font-family="Helvetica,sans-Serif" font-size="10.00">_count()</text>
<text text-anchor="start" x="501.5" y="-414.5" font-family="Helvetica,sans-Serif" font-size="10.00">+ set_keep_alive_timeout()</text>
<text text-anchor="start" x="501.5" y="-403.5" font-family="Helvetica,sans-Serif" font-size="10.00">+ set_read_timeout()</text>
<text text-anchor="start" x="501.5" y="-392.5" font-family="Helvetica,sans-Serif" font-size="10.00">+ set_read_timeout()</text>
<text text-anchor="start" x="501.5" y="-381.5" font-family="Helvetica,sans-Serif" font-size="10.00">+ set_write_timeout()</text>
<text text-anchor="start" x="501.5" y="-370.5" font-family="Helvetica,sans-Serif" font-size="10.00">+ set_write_timeout()</text>
<text text-anchor="start" x="501.5" y="-359.5" font-family="Helvetica,sans-Serif" font-size="10.00">+ set_idle_interval()</text>
<text text-anchor="start" x="501.5" y="-348.5" font-family="Helvetica,sans-Serif" font-size="10.00">+ set_idle_interval()</text>
<text text-anchor="start" x="501.5" y="-337.5" font-family="Helvetica,sans-Serif" font-size="10.00">+ set_payload_max_length()</text>
<text text-anchor="start" x="501.5" y="-326.5" font-family="Helvetica,sans-Serif" font-size="10.00">+ bind_to_port()</text>
<text text-anchor="start" x="501.5" y="-315.5" font-family="Helvetica,sans-Serif" font-size="10.00">+ bind_to_any_port()</text>
<text text-anchor="start" x="501.5" y="-304.5" font-family="Helvetica,sans-Serif" font-size="10.00">+ listen_after_bind()</text>
<text text-anchor="start" x="501.5" y="-293.5" font-family="Helvetica,sans-Serif" font-size="10.00">+ listen()</text>
<text text-anchor="start" x="501.5" y="-282.5" font-family="Helvetica,sans-Serif" font-size="10.00">+ is_running()</text>
<text text-anchor="start" x="501.5" y="-271.5" font-family="Helvetica,sans-Serif" font-size="10.00">+ wait_until_ready()</text>
<text text-anchor="start" x="501.5" y="-260.5" font-family="Helvetica,sans-Serif" font-size="10.00">+ stop()</text>
<text text-anchor="start" x="501.5" y="-249.5" font-family="Helvetica,sans-Serif" font-size="10.00"># process_request()</text>
<text text-anchor="start" x="501.5" y="-238.5" font-family="Helvetica,sans-Serif" font-size="10.00">&#45; create_server_socket()</text>
<text text-anchor="start" x="501.5" y="-227.5" font-family="Helvetica,sans-Serif" font-size="10.00">&#45; bind_internal()</text>
<text text-anchor="start" x="501.5" y="-216.5" font-family="Helvetica,sans-Serif" font-size="10.00">&#45; listen_internal()</text>
<text text-anchor="start" x="501.5" y="-205.5" font-family="Helvetica,sans-Serif" font-size="10.00">&#45; routing()</text>
<text text-anchor="start" x="501.5" y="-194.5" font-family="Helvetica,sans-Serif" font-size="10.00">&#45; handle_file_request()</text>
<text text-anchor="start" x="501.5" y="-183.5" font-family="Helvetica,sans-Serif" font-size="10.00">&#45; dispatch_request()</text>
<text text-anchor="start" x="501.5" y="-172.5" font-family="Helvetica,sans-Serif" font-size="10.00">&#45; dispatch_request_for</text>
<text text-anchor="start" x="501.5" y="-161.5" font-family="Helvetica,sans-Serif" font-size="10.00">_content_reader()</text>
<text text-anchor="start" x="501.5" y="-150.5" font-family="Helvetica,sans-Serif" font-size="10.00">&#45; parse_request_line()</text>
<text text-anchor="start" x="501.5" y="-139.5" font-family="Helvetica,sans-Serif" font-size="10.00">&#45; apply_ranges()</text>
<text text-anchor="start" x="501.5" y="-128.5" font-family="Helvetica,sans-Serif" font-size="10.00">&#45; write_response()</text>
<text text-anchor="start" x="501.5" y="-117.5" font-family="Helvetica,sans-Serif" font-size="10.00">&#45; write_response_with</text>
<text text-anchor="start" x="501.5" y="-106.5" font-family="Helvetica,sans-Serif" font-size="10.00">_content()</text>
<text text-anchor="start" x="501.5" y="-95.5" font-family="Helvetica,sans-Serif" font-size="10.00">&#45; write_response_core()</text>
<text text-anchor="start" x="501.5" y="-84.5" font-family="Helvetica,sans-Serif" font-size="10.00">&#45; write_content_with</text>
<text text-anchor="start" x="501.5" y="-73.5" font-family="Helvetica,sans-Serif" font-size="10.00">_provider()</text>
<text text-anchor="start" x="501.5" y="-62.5" font-family="Helvetica,sans-Serif" font-size="10.00">&#45; read_content()</text>
<text text-anchor="start" x="501.5" y="-51.5" font-family="Helvetica,sans-Serif" font-size="10.00">&#45; read_content_with_content</text>
<text text-anchor="start" x="501.5" y="-40.5" font-family="Helvetica,sans-Serif" font-size="10.00">_receiver()</text>
<text text-anchor="start" x="501.5" y="-29.5" font-family="Helvetica,sans-Serif" font-size="10.00">&#45; read_content_core()</text>
<text text-anchor="start" x="501.5" y="-18.5" font-family="Helvetica,sans-Serif" font-size="10.00">&#45; process_and_close_socket()</text>
<text text-anchor="start" x="501.5" y="-7.5" font-family="Helvetica,sans-Serif" font-size="10.00">&#45; make_matcher()</text>
</a>
</g>
</g>
<!-- Node2 -->
<g id="node2" class="node">
<title>Node2</title>
<g id="a_node2"><a xlink:title=" ">
<polygon fill="white" stroke="#bfbfbf" points="0,-1222 0,-1279 134,-1279 134,-1222 0,-1222"/>
<text text-anchor="middle" x="67" y="-1267" font-family="Helvetica,sans-Serif" font-size="10.00">std::atomic&lt; socket_t &gt;</text>
<polyline fill="none" stroke="#bfbfbf" points="0,-1260 134,-1260 "/>
<text text-anchor="start" x="8" y="-1248" font-family="Helvetica,sans-Serif" font-size="10.00">+ ptr</text>
<polyline fill="none" stroke="#bfbfbf" points="0,-1241 134,-1241 "/>
<text text-anchor="middle" x="67" y="-1229" font-family="Helvetica,sans-Serif" font-size="10.00"> </text>
</a>
</g>
</g>
<!-- Node2&#45;&gt;Node1 -->
<g id="edge1" class="edge">
<title>Node2&#45;&gt;Node1</title>
<path fill="none" stroke="#404040" d="M78.94,-1222C92.76,-1191.14 117,-1140.05 143,-1099 248.54,-932.36 392.74,-755.08 485.39,-646.29"/>
<polygon fill="none" stroke="#404040" points="485.56,-646.09 486.42,-638.93 493.35,-636.96 492.5,-644.12 485.56,-646.09"/>
<text text-anchor="middle" x="173" y="-1140.5" font-family="Helvetica,sans-Serif" font-size="10.00"> #svr_sock_</text>
</g>
<!-- Node3 -->
<g id="node3" class="node">
<title>Node3</title>
<g id="a_node3"><a xlink:title=" ">
<polygon fill="white" stroke="#bfbfbf" points="152.5,-1222 152.5,-1279 267.5,-1279 267.5,-1222 152.5,-1222"/>
<text text-anchor="middle" x="210" y="-1267" font-family="Helvetica,sans-Serif" font-size="10.00">std::atomic&lt; bool &gt;</text>
<polyline fill="none" stroke="#bfbfbf" points="152.5,-1260 267.5,-1260 "/>
<text text-anchor="start" x="160.5" y="-1248" font-family="Helvetica,sans-Serif" font-size="10.00">+ ptr</text>
<polyline fill="none" stroke="#bfbfbf" points="152.5,-1241 267.5,-1241 "/>
<text text-anchor="middle" x="210" y="-1229" font-family="Helvetica,sans-Serif" font-size="10.00"> </text>
</a>
</g>
</g>
<!-- Node3&#45;&gt;Node1 -->
<g id="edge2" class="edge">
<title>Node3&#45;&gt;Node1</title>
<path fill="none" stroke="#404040" d="M207.54,-1221.81C205.74,-1191.02 205.57,-1140.18 219,-1099 275.61,-925.44 399.62,-752.81 485.71,-646.66"/>
<polygon fill="none" stroke="#404040" points="485.81,-646.53 486.51,-639.35 493.4,-637.23 492.71,-644.41 485.81,-646.53"/>
<text text-anchor="middle" x="250.5" y="-1146" font-family="Helvetica,sans-Serif" font-size="10.00"> &#45;is_running_</text>
<text text-anchor="middle" x="250.5" y="-1135" font-family="Helvetica,sans-Serif" font-size="10.00">&#45;done_</text>
</g>
<!-- Node4 -->
<g id="node4" class="node">
<title>Node4</title>
<g id="a_node4"><a xlink:title=" ">
<polygon fill="white" stroke="#bfbfbf" points="434,-1216.5 434,-1284.5 586,-1284.5 586,-1216.5 434,-1216.5"/>
<text text-anchor="start" x="442" y="-1272.5" font-family="Helvetica,sans-Serif" font-size="10.00">std::vector&lt; httplib</text>
<text text-anchor="middle" x="510" y="-1261.5" font-family="Helvetica,sans-Serif" font-size="10.00">::Server::MountPointEntry &gt;</text>
<polyline fill="none" stroke="#bfbfbf" points="434,-1254.5 586,-1254.5 "/>
<text text-anchor="middle" x="510" y="-1242.5" font-family="Helvetica,sans-Serif" font-size="10.00"> </text>
<polyline fill="none" stroke="#bfbfbf" points="434,-1235.5 586,-1235.5 "/>
<text text-anchor="middle" x="510" y="-1223.5" font-family="Helvetica,sans-Serif" font-size="10.00"> </text>
</a>
</g>
</g>
<!-- Node4&#45;&gt;Node1 -->
<g id="edge3" class="edge">
<title>Node4&#45;&gt;Node1</title>
<path fill="none" stroke="#404040" d="M513.14,-1216.3C515.79,-1188.34 519.92,-1144.63 524.85,-1092.58"/>
<polygon fill="none" stroke="#404040" points="524.85,-1092.57 521.43,-1086.22 525.98,-1080.63 529.4,-1086.98 524.85,-1092.57"/>
<text text-anchor="middle" x="552.5" y="-1140.5" font-family="Helvetica,sans-Serif" font-size="10.00"> &#45;base_dirs_</text>
</g>
<!-- Node5 -->
<g id="node5" class="node">
<title>Node5</title>
<g id="a_node5"><a xlink:href="structhttplib_1_1Server_1_1MountPointEntry.html" target="_top" xlink:title=" ">
<polygon fill="white" stroke="black" points="438.5,-1354.5 438.5,-1422.5 585.5,-1422.5 585.5,-1354.5 438.5,-1354.5"/>
<text text-anchor="start" x="446.5" y="-1410.5" font-family="Helvetica,sans-Serif" font-size="10.00">httplib::Server::MountPoint</text>
<text text-anchor="middle" x="512" y="-1399.5" font-family="Helvetica,sans-Serif" font-size="10.00">Entry</text>
<polyline fill="none" stroke="black" points="438.5,-1392.5 585.5,-1392.5 "/>
<text text-anchor="middle" x="512" y="-1380.5" font-family="Helvetica,sans-Serif" font-size="10.00"> </text>
<polyline fill="none" stroke="black" points="438.5,-1373.5 585.5,-1373.5 "/>
<text text-anchor="middle" x="512" y="-1361.5" font-family="Helvetica,sans-Serif" font-size="10.00"> </text>
</a>
</g>
</g>
<!-- Node5&#45;&gt;Node4 -->
<g id="edge4" class="edge">
<title>Node5&#45;&gt;Node4</title>
<path fill="none" stroke="#404040" d="M511.51,-1354.23C511.26,-1337.02 510.95,-1315.76 510.67,-1297.06"/>
<polygon fill="none" stroke="#404040" points="510.67,-1296.9 506.58,-1290.96 510.49,-1284.9 514.58,-1290.84 510.67,-1296.9"/>
<text text-anchor="middle" x="541" y="-1322.5" font-family="Helvetica,sans-Serif" font-size="10.00"> +elements</text>
</g>
<!-- Node6 -->
<g id="node6" class="node">
<title>Node6</title>
<g id="a_node6"><a xlink:title=" ">
<polygon fill="white" stroke="#bfbfbf" points="558.5,-1528.5 558.5,-1607.5 669.5,-1607.5 669.5,-1528.5 558.5,-1528.5"/>
<text text-anchor="start" x="566.5" y="-1595.5" font-family="Helvetica,sans-Serif" font-size="10.00">std::multimap&lt; std</text>
<text text-anchor="start" x="566.5" y="-1584.5" font-family="Helvetica,sans-Serif" font-size="10.00">::string, std::string,</text>
<text text-anchor="middle" x="614" y="-1573.5" font-family="Helvetica,sans-Serif" font-size="10.00"> detail::ci &gt;</text>
<polyline fill="none" stroke="#bfbfbf" points="558.5,-1566.5 669.5,-1566.5 "/>
<text text-anchor="middle" x="614" y="-1554.5" font-family="Helvetica,sans-Serif" font-size="10.00"> </text>
<polyline fill="none" stroke="#bfbfbf" points="558.5,-1547.5 669.5,-1547.5 "/>
<text text-anchor="middle" x="614" y="-1535.5" font-family="Helvetica,sans-Serif" font-size="10.00"> </text>
</a>
</g>
</g>
<!-- Node6&#45;&gt;Node1 -->
<g id="edge10" class="edge">
<title>Node6&#45;&gt;Node1</title>
<path fill="none" stroke="#404040" d="M612.61,-1528.36C609.87,-1452.61 603.5,-1275.93 596.89,-1092.67"/>
<polygon fill="none" stroke="#404040" points="596.88,-1092.58 592.67,-1086.73 596.45,-1080.59 600.66,-1086.44 596.88,-1092.58"/>
<text text-anchor="middle" x="651.5" y="-1322.5" font-family="Helvetica,sans-Serif" font-size="10.00"> &#45;default_headers_</text>
</g>
<!-- Node6&#45;&gt;Node5 -->
<g id="edge5" class="edge">
<title>Node6&#45;&gt;Node5</title>
<path fill="none" stroke="#404040" d="M563.71,-1528.25C558.24,-1522.55 553.16,-1516.43 549,-1510 534.27,-1487.24 525.13,-1458.28 519.62,-1434.46"/>
<polygon fill="none" stroke="#404040" points="519.58,-1434.26 514.41,-1429.24 517.06,-1422.53 522.23,-1427.56 519.58,-1434.26"/>
<text text-anchor="middle" x="574.5" y="-1473" font-family="Helvetica,sans-Serif" font-size="10.00"> +headers</text>
</g>
<!-- Node7 -->
<g id="node7" class="node">
<title>Node7</title>
<g id="a_node7"><a xlink:title="STL class.">
<polygon fill="white" stroke="#bfbfbf" points="481.5,-1666.5 481.5,-1723.5 546.5,-1723.5 546.5,-1666.5 481.5,-1666.5"/>
<text text-anchor="middle" x="514" y="-1711.5" font-family="Helvetica,sans-Serif" font-size="10.00">std::string</text>
<polyline fill="none" stroke="#bfbfbf" points="481.5,-1704.5 546.5,-1704.5 "/>
<text text-anchor="middle" x="514" y="-1692.5" font-family="Helvetica,sans-Serif" font-size="10.00"> </text>
<polyline fill="none" stroke="#bfbfbf" points="481.5,-1685.5 546.5,-1685.5 "/>
<text text-anchor="middle" x="514" y="-1673.5" font-family="Helvetica,sans-Serif" font-size="10.00"> </text>
</a>
</g>
</g>
<!-- Node7&#45;&gt;Node1 -->
<g id="edge12" class="edge">
<title>Node7&#45;&gt;Node1</title>
<path fill="none" stroke="#404040" d="M481.36,-1690.38C420.55,-1681.64 296,-1653.42 296,-1569 296,-1569 296,-1569 296,-1249.5 296,-1038.77 404.87,-816.07 487.08,-677.94"/>
<polygon fill="none" stroke="#404040" points="487.28,-677.61 486.94,-670.41 493.45,-667.32 493.8,-674.52 487.28,-677.61"/>
<text text-anchor="middle" x="358" y="-1386" font-family="Helvetica,sans-Serif" font-size="10.00"> &#45;default_file_mimetype_</text>
</g>
<!-- Node7&#45;&gt;Node5 -->
<g id="edge8" class="edge">
<title>Node7&#45;&gt;Node5</title>
<path fill="none" stroke="#404040" d="M499.47,-1666.19C491.71,-1649.75 482.96,-1628.25 479,-1608 467.29,-1548.16 482.84,-1478.41 496.31,-1434.11"/>
<polygon fill="none" stroke="#404040" points="496.34,-1434.04 494.32,-1427.12 499.94,-1422.6 501.95,-1429.52 496.34,-1434.04"/>
<text text-anchor="middle" x="514" y="-1571" font-family="Helvetica,sans-Serif" font-size="10.00"> +base_dir</text>
<text text-anchor="middle" x="514" y="-1560" font-family="Helvetica,sans-Serif" font-size="10.00">+mount_point</text>
</g>
<!-- Node7&#45;&gt;Node6 -->
<g id="edge6" class="edge">
<title>Node7&#45;&gt;Node6</title>
<path fill="none" stroke="#404040" d="M536.19,-1666.26C547.74,-1651.83 562.18,-1633.77 575.48,-1617.15"/>
<polygon fill="none" stroke="#404040" points="575.65,-1616.94 576.27,-1609.75 583.15,-1607.57 582.52,-1614.75 575.65,-1616.94"/>
<text text-anchor="middle" x="596" y="-1640" font-family="Helvetica,sans-Serif" font-size="10.00"> +elements</text>
<text text-anchor="middle" x="596" y="-1629" font-family="Helvetica,sans-Serif" font-size="10.00">+keys</text>
</g>
<!-- Node11 -->
<g id="node11" class="node">
<title>Node11</title>
<g id="a_node11"><a xlink:title=" ">
<polygon fill="white" stroke="#bfbfbf" points="652,-1441.5 652,-1509.5 774,-1509.5 774,-1441.5 652,-1441.5"/>
<text text-anchor="start" x="660" y="-1497.5" font-family="Helvetica,sans-Serif" font-size="10.00">std::map&lt; std::string,</text>
<text text-anchor="middle" x="713" y="-1486.5" font-family="Helvetica,sans-Serif" font-size="10.00"> std::string &gt;</text>
<polyline fill="none" stroke="#bfbfbf" points="652,-1479.5 774,-1479.5 "/>
<text text-anchor="middle" x="713" y="-1467.5" font-family="Helvetica,sans-Serif" font-size="10.00"> </text>
<polyline fill="none" stroke="#bfbfbf" points="652,-1460.5 774,-1460.5 "/>
<text text-anchor="middle" x="713" y="-1448.5" font-family="Helvetica,sans-Serif" font-size="10.00"> </text>
</a>
</g>
</g>
<!-- Node7&#45;&gt;Node11 -->
<g id="edge14" class="edge">
<title>Node7&#45;&gt;Node11</title>
<path fill="none" stroke="#404040" d="M546.71,-1687.04C585.4,-1676.91 648.27,-1654.06 678,-1608 694.7,-1582.13 703.47,-1548.51 708.05,-1521.74"/>
<polygon fill="none" stroke="#404040" points="708.1,-1521.45 705.06,-1514.91 709.93,-1509.59 712.97,-1516.13 708.1,-1521.45"/>
<text text-anchor="middle" x="692" y="-1640" font-family="Helvetica,sans-Serif" font-size="10.00"> +elements</text>
<text text-anchor="middle" x="692" y="-1629" font-family="Helvetica,sans-Serif" font-size="10.00">+keys</text>
</g>
<!-- Node8 -->
<g id="node8" class="node">
<title>Node8</title>
<g id="a_node8"><a xlink:title="STL class.">
<polygon fill="white" stroke="#bfbfbf" points="462,-1761.5 462,-1829.5 566,-1829.5 566,-1761.5 462,-1761.5"/>
<text text-anchor="start" x="470" y="-1817.5" font-family="Helvetica,sans-Serif" font-size="10.00">std::basic_string&lt;</text>
<text text-anchor="middle" x="514" y="-1806.5" font-family="Helvetica,sans-Serif" font-size="10.00"> char &gt;</text>
<polyline fill="none" stroke="#bfbfbf" points="462,-1799.5 566,-1799.5 "/>
<text text-anchor="middle" x="514" y="-1787.5" font-family="Helvetica,sans-Serif" font-size="10.00"> </text>
<polyline fill="none" stroke="#bfbfbf" points="462,-1780.5 566,-1780.5 "/>
<text text-anchor="middle" x="514" y="-1768.5" font-family="Helvetica,sans-Serif" font-size="10.00"> </text>
</a>
</g>
</g>
<!-- Node8&#45;&gt;Node7 -->
<g id="edge7" class="edge">
<title>Node8&#45;&gt;Node7</title>
<path fill="none" stroke="midnightblue" d="M514,-1751.38C514,-1741.94 514,-1732.2 514,-1723.57"/>
<polygon fill="none" stroke="midnightblue" points="510.5,-1751.43 514,-1761.43 517.5,-1751.43 510.5,-1751.43"/>
</g>
<!-- Node9 -->
<g id="node9" class="node">
<title>Node9</title>
<g id="a_node9"><a xlink:title=" ">
<polygon fill="white" stroke="#bfbfbf" points="756,-1211 756,-1290 920,-1290 920,-1211 756,-1211"/>
<text text-anchor="start" x="764" y="-1278" font-family="Helvetica,sans-Serif" font-size="10.00">std::vector&lt; std::pair</text>
<text text-anchor="start" x="764" y="-1267" font-family="Helvetica,sans-Serif" font-size="10.00">&lt; std::unique_ptr&lt; detail</text>
<text text-anchor="middle" x="838" y="-1256" font-family="Helvetica,sans-Serif" font-size="10.00">::MatcherBase &gt;, Handler &gt; &gt;</text>
<polyline fill="none" stroke="#bfbfbf" points="756,-1249 920,-1249 "/>
<text text-anchor="start" x="764" y="-1237" font-family="Helvetica,sans-Serif" font-size="10.00">+ elements</text>
<polyline fill="none" stroke="#bfbfbf" points="756,-1230 920,-1230 "/>
<text text-anchor="middle" x="838" y="-1218" font-family="Helvetica,sans-Serif" font-size="10.00"> </text>
</a>
</g>
</g>
<!-- Node9&#45;&gt;Node1 -->
<g id="edge9" class="edge">
<title>Node9&#45;&gt;Node1</title>
<path fill="none" stroke="#404040" d="M823.78,-1210.93C793.99,-1130.13 722.97,-937.46 664.72,-779.47"/>
<polygon fill="none" stroke="#404040" points="664.7,-779.41 658.88,-775.17 660.55,-768.15 666.38,-772.4 664.7,-779.41"/>
<text text-anchor="middle" x="859" y="-1168" font-family="Helvetica,sans-Serif" font-size="10.00"> &#45;options_handlers_</text>
<text text-anchor="middle" x="859" y="-1157" font-family="Helvetica,sans-Serif" font-size="10.00">&#45;patch_handlers_</text>
<text text-anchor="middle" x="859" y="-1146" font-family="Helvetica,sans-Serif" font-size="10.00">&#45;put_handlers_</text>
<text text-anchor="middle" x="859" y="-1135" font-family="Helvetica,sans-Serif" font-size="10.00">&#45;delete_handlers_</text>
<text text-anchor="middle" x="859" y="-1124" font-family="Helvetica,sans-Serif" font-size="10.00">&#45;get_handlers_</text>
<text text-anchor="middle" x="859" y="-1113" font-family="Helvetica,sans-Serif" font-size="10.00">&#45;post_handlers_</text>
</g>
<!-- Node10 -->
<g id="node10" class="node">
<title>Node10</title>
<g id="a_node10"><a xlink:title=" ">
<polygon fill="white" stroke="#bfbfbf" points="938.5,-1205.5 938.5,-1295.5 1141.5,-1295.5 1141.5,-1205.5 938.5,-1205.5"/>
<text text-anchor="start" x="946.5" y="-1283.5" font-family="Helvetica,sans-Serif" font-size="10.00">std::vector&lt; std::pair</text>
<text text-anchor="start" x="946.5" y="-1272.5" font-family="Helvetica,sans-Serif" font-size="10.00">&lt; std::unique_ptr&lt; detail</text>
<text text-anchor="start" x="946.5" y="-1261.5" font-family="Helvetica,sans-Serif" font-size="10.00">::MatcherBase &gt;, HandlerWithContent</text>
<text text-anchor="middle" x="1040" y="-1250.5" font-family="Helvetica,sans-Serif" font-size="10.00">Reader &gt; &gt;</text>
<polyline fill="none" stroke="#bfbfbf" points="938.5,-1243.5 1141.5,-1243.5 "/>
<text text-anchor="start" x="946.5" y="-1231.5" font-family="Helvetica,sans-Serif" font-size="10.00">+ elements</text>
<polyline fill="none" stroke="#bfbfbf" points="938.5,-1224.5 1141.5,-1224.5 "/>
<text text-anchor="middle" x="1040" y="-1212.5" font-family="Helvetica,sans-Serif" font-size="10.00"> </text>
</a>
</g>
</g>
<!-- Node10&#45;&gt;Node1 -->
<g id="edge11" class="edge">
<title>Node10&#45;&gt;Node1</title>
<path fill="none" stroke="#404040" d="M1011.21,-1205.48C943.82,-1102.43 773.5,-841.97 667.31,-679.59"/>
<polygon fill="none" stroke="#404040" points="667.29,-679.57 660.66,-676.73 660.72,-669.52 667.35,-672.35 667.29,-679.57"/>
<text text-anchor="start" x="991" y="-1179" font-family="Helvetica,sans-Serif" font-size="10.00"> &#45;put_handlers_for_content</text>
<text text-anchor="middle" x="1057.5" y="-1168" font-family="Helvetica,sans-Serif" font-size="10.00">_reader_</text>
<text text-anchor="start" x="991" y="-1157" font-family="Helvetica,sans-Serif" font-size="10.00">&#45;delete_handlers_for</text>
<text text-anchor="middle" x="1057.5" y="-1146" font-family="Helvetica,sans-Serif" font-size="10.00">_content_reader_</text>
<text text-anchor="start" x="991" y="-1135" font-family="Helvetica,sans-Serif" font-size="10.00">&#45;post_handlers_for_content</text>
<text text-anchor="middle" x="1057.5" y="-1124" font-family="Helvetica,sans-Serif" font-size="10.00">_reader_</text>
<text text-anchor="start" x="991" y="-1113" font-family="Helvetica,sans-Serif" font-size="10.00">&#45;patch_handlers_for</text>
<text text-anchor="middle" x="1057.5" y="-1102" font-family="Helvetica,sans-Serif" font-size="10.00">_content_reader_</text>
</g>
<!-- Node11&#45;&gt;Node1 -->
<g id="edge13" class="edge">
<title>Node11&#45;&gt;Node1</title>
<path fill="none" stroke="#404040" d="M712.73,-1441.21C712.19,-1408.69 710.6,-1357.83 706,-1314 695.18,-1210.89 679.37,-1100.67 662.49,-996.72"/>
<polygon fill="none" stroke="#404040" points="662.46,-996.58 657.55,-991.3 660.53,-984.73 665.44,-990.01 662.46,-996.58"/>
<text text-anchor="start" x="709" y="-1328" font-family="Helvetica,sans-Serif" font-size="10.00"> &#45;file_extension_and</text>
<text text-anchor="middle" x="759" y="-1317" font-family="Helvetica,sans-Serif" font-size="10.00">_mimetype_map_</text>
</g>
</g>
</svg>
