<?xml version="1.0" encoding="UTF-8" standalone="no"?>
<!DOCTYPE svg PUBLIC "-//W3C//DTD SVG 1.1//EN"
 "http://www.w3.org/Graphics/SVG/1.1/DTD/svg11.dtd">
<!-- Generated by graphviz version 2.43.0 (0)
 -->
<!-- Title: fuzzer::MutationDispatcher::PrintMutationSequence Pages: 1 -->
<svg width="461pt" height="85pt"
 viewBox="0.00 0.00 461.00 85.00" xmlns="http://www.w3.org/2000/svg" xmlns:xlink="http://www.w3.org/1999/xlink">
<g id="graph0" class="graph" transform="scale(1 1) rotate(0) translate(4 81)">
<title>fuzzer::MutationDispatcher::PrintMutationSequence</title>
<polygon fill="white" stroke="transparent" points="-4,4 -4,-81 457,-81 457,4 -4,4"/>
<!-- Node1 -->
<g id="node1" class="node">
<title>Node1</title>
<g id="a_node1"><a xlink:title="Print the current sequence of mutations.">
<polygon fill="#bfbfbf" stroke="black" points="0,-14 0,-44 149,-44 149,-14 0,-14"/>
<text text-anchor="start" x="8" y="-32" font-family="Helvetica,sans-Serif" font-size="10.00">fuzzer::MutationDispatcher</text>
<text text-anchor="middle" x="74.5" y="-21" font-family="Helvetica,sans-Serif" font-size="10.00">::PrintMutationSequence</text>
</a>
</g>
</g>
<!-- Node2 -->
<g id="node2" class="node">
<title>Node2</title>
<g id="a_node2"><a xlink:href="namespacefuzzer.html#a9745d98c9dbd0f6cf52f2a71ebf3f778" target="_top" xlink:title=" ">
<polygon fill="white" stroke="black" points="185,-38.5 185,-57.5 286,-57.5 286,-38.5 185,-38.5"/>
<text text-anchor="middle" x="235.5" y="-45.5" font-family="Helvetica,sans-Serif" font-size="10.00">fuzzer::PrintASCII</text>
</a>
</g>
</g>
<!-- Node1&#45;&gt;Node2 -->
<g id="edge1" class="edge">
<title>Node1&#45;&gt;Node2</title>
<path fill="none" stroke="midnightblue" d="M149.41,-37.83C157.95,-38.85 166.57,-39.88 174.88,-40.88"/>
<polygon fill="midnightblue" stroke="midnightblue" points="174.49,-44.35 184.83,-42.06 175.32,-37.4 174.49,-44.35"/>
</g>
<!-- Node5 -->
<g id="node5" class="node">
<title>Node5</title>
<g id="a_node5"><a xlink:href="namespacefuzzer.html#afab785891fdb74f8fd33bca421bde935" target="_top" xlink:title=" ">
<polygon fill="white" stroke="black" points="196,-0.5 196,-19.5 275,-19.5 275,-0.5 196,-0.5"/>
<text text-anchor="middle" x="235.5" y="-7.5" font-family="Helvetica,sans-Serif" font-size="10.00">fuzzer::Printf</text>
</a>
</g>
</g>
<!-- Node1&#45;&gt;Node5 -->
<g id="edge4" class="edge">
<title>Node1&#45;&gt;Node5</title>
<path fill="none" stroke="midnightblue" d="M149.41,-20.17C161.71,-18.7 174.18,-17.21 185.65,-15.84"/>
<polygon fill="midnightblue" stroke="midnightblue" points="186.35,-19.28 195.86,-14.62 185.52,-12.33 186.35,-19.28"/>
</g>
<!-- Node3 -->
<g id="node3" class="node">
<title>Node3</title>
<g id="a_node3"><a xlink:href="classfuzzer_1_1FixedWord.html#a14fbd18b5b0868f5d7f2d50a85d0b09e" target="_top" xlink:title=" ">
<polygon fill="white" stroke="black" points="322,-57.5 322,-76.5 453,-76.5 453,-57.5 322,-57.5"/>
<text text-anchor="middle" x="387.5" y="-64.5" font-family="Helvetica,sans-Serif" font-size="10.00">fuzzer::FixedWord::data</text>
</a>
</g>
</g>
<!-- Node2&#45;&gt;Node3 -->
<g id="edge2" class="edge">
<title>Node2&#45;&gt;Node3</title>
<path fill="none" stroke="midnightblue" d="M286.03,-54.27C294.25,-55.32 302.93,-56.41 311.61,-57.51"/>
<polygon fill="midnightblue" stroke="midnightblue" points="311.41,-61.02 321.77,-58.8 312.29,-54.07 311.41,-61.02"/>
</g>
<!-- Node4 -->
<g id="node4" class="node">
<title>Node4</title>
<g id="a_node4"><a xlink:href="classfuzzer_1_1FixedWord.html#a97ffcbd9ec743adabd6bdf85f0911e53" target="_top" xlink:title=" ">
<polygon fill="white" stroke="black" points="323,-19.5 323,-38.5 452,-38.5 452,-19.5 323,-19.5"/>
<text text-anchor="middle" x="387.5" y="-26.5" font-family="Helvetica,sans-Serif" font-size="10.00">fuzzer::FixedWord::size</text>
</a>
</g>
</g>
<!-- Node2&#45;&gt;Node4 -->
<g id="edge3" class="edge">
<title>Node2&#45;&gt;Node4</title>
<path fill="none" stroke="midnightblue" d="M286.03,-41.73C294.59,-40.64 303.65,-39.49 312.68,-38.35"/>
<polygon fill="midnightblue" stroke="midnightblue" points="313.36,-41.79 322.84,-37.06 312.48,-34.85 313.36,-41.79"/>
</g>
</g>
</svg>
