<?xml version="1.0" encoding="UTF-8" standalone="no"?>
<!DOCTYPE svg PUBLIC "-//W3C//DTD SVG 1.1//EN"
 "http://www.w3.org/Graphics/SVG/1.1/DTD/svg11.dtd">
<!-- Generated by graphviz version 2.43.0 (0)
 -->
<!-- Title: httplib::detail::SocketStream::write Pages: 1 -->
<!--zoomable 162 -->
<svg id="main" version="1.1" xmlns="http://www.w3.org/2000/svg" xmlns:xlink="http://www.w3.org/1999/xlink" xml:space="preserve" onload="init(evt)">
<style type="text/css"><![CDATA[
.edge:hover path { stroke: red; }
.edge:hover polygon { stroke: red; fill: red; }
]]></style>
<script type="text/javascript"><![CDATA[
var edges = document.getElementsByTagName('g');
if (edges && edges.length) {
  for (var i=0;i<edges.length;i++) {
    if (edges[i].id.substr(0,4)=='edge') {
      edges[i].setAttribute('class','edge');
    }
  }
}
]]></script>
        <defs>
                <circle id="rim" cx="0" cy="0" r="7"/>
                <circle id="rim2" cx="0" cy="0" r="3.5"/>
                <g id="zoomPlus">
                        <use xlink:href="#rim" fill="#404040">
                                <set attributeName="fill" to="#808080" begin="zoomplus.mouseover" end="zoomplus.mouseout"/>
                        </use>
                        <path d="M-4,0h8M0,-4v8" fill="none" stroke="white" stroke-width="1.5" pointer-events="none"/>
                </g>
                <g id="zoomMin">
                        <use xlink:href="#rim" fill="#404040">
                                <set attributeName="fill" to="#808080" begin="zoomminus.mouseover" end="zoomminus.mouseout"/>
                        </use>
                        <path d="M-4,0h8" fill="none" stroke="white" stroke-width="1.5" pointer-events="none"/>
                </g>
                <g id="dirArrow">
                        <path fill="none" stroke="white" stroke-width="1.5" d="M0,-3.0v7 M-2.5,-0.5L0,-3.0L2.5,-0.5"/>
                </g>
               <g id="resetDef">
                       <use xlink:href="#rim2" fill="#404040">
                               <set attributeName="fill" to="#808080" begin="reset.mouseover" end="reset.mouseout"/>
                       </use>
               </g>
        </defs>

<script type="text/javascript">
var viewWidth = 844;
var viewHeight = 162;
var sectionId = 'dynsection-9';
</script>
<script xlink:href="svgpan.js"/>
<svg id="graph" class="graph">
<g id="viewport">
<title>httplib::detail::SocketStream::write</title>
<polygon fill="white" stroke="transparent" points="-4,4 -4,-158 840,-158 840,4 -4,4"/>
<!-- Node1 -->
<g id="node1" class="node">
<title>Node1</title>
<g id="a_node1"><a xlink:title=" ">
<polygon fill="#bfbfbf" stroke="black" points="0,-24.5 0,-54.5 155,-54.5 155,-24.5 0,-24.5"/>
<text text-anchor="start" x="8" y="-42.5" font-family="Helvetica,sans-Serif" font-size="10.00">httplib::detail::SocketStream</text>
<text text-anchor="middle" x="77.5" y="-31.5" font-family="Helvetica,sans-Serif" font-size="10.00">::write</text>
</a>
</g>
</g>
<!-- Node2 -->
<g id="node2" class="node">
<title>Node2</title>
<g id="a_node2"><a xlink:href="classhttplib_1_1detail_1_1SocketStream.html#aa5bf41c972f307030f34de1c7dbb25d9" target="_top" xlink:title=" ">
<polygon fill="white" stroke="black" points="191,-49.5 191,-79.5 346,-79.5 346,-49.5 191,-49.5"/>
<text text-anchor="start" x="199" y="-67.5" font-family="Helvetica,sans-Serif" font-size="10.00">httplib::detail::SocketStream</text>
<text text-anchor="middle" x="268.5" y="-56.5" font-family="Helvetica,sans-Serif" font-size="10.00">::is_writable</text>
</a>
</g>
</g>
<!-- Node1&#45;&gt;Node2 -->
<g id="edge1" class="edge">
<title>Node1&#45;&gt;Node2</title>
<path fill="none" stroke="midnightblue" d="M155.1,-49.63C163.56,-50.75 172.22,-51.9 180.79,-53.03"/>
<polygon fill="midnightblue" stroke="midnightblue" points="180.42,-56.51 190.79,-54.35 181.34,-49.57 180.42,-56.51"/>
</g>
<!-- Node8 -->
<g id="node8" class="node">
<title>Node8</title>
<g id="a_node8"><a xlink:href="namespacehttplib_1_1detail.html#a0bbe1467db354fe890383ee516e65ebc" target="_top" xlink:title=" ">
<polygon fill="white" stroke="black" points="213,-0.5 213,-30.5 324,-30.5 324,-0.5 213,-0.5"/>
<text text-anchor="start" x="221" y="-18.5" font-family="Helvetica,sans-Serif" font-size="10.00">httplib::detail::send</text>
<text text-anchor="middle" x="268.5" y="-7.5" font-family="Helvetica,sans-Serif" font-size="10.00">_socket</text>
</a>
</g>
</g>
<!-- Node1&#45;&gt;Node8 -->
<g id="edge9" class="edge">
<title>Node1&#45;&gt;Node8</title>
<path fill="none" stroke="midnightblue" d="M155.1,-29.77C170.81,-27.78 187.21,-25.7 202.47,-23.76"/>
<polygon fill="midnightblue" stroke="midnightblue" points="203.35,-27.17 212.83,-22.44 202.47,-20.23 203.35,-27.17"/>
</g>
<!-- Node3 -->
<g id="node3" class="node">
<title>Node3</title>
<g id="a_node3"><a xlink:href="namespacehttplib_1_1detail.html#a261b439327ed5df0ce9044ca2731d3de" target="_top" xlink:title=" ">
<polygon fill="white" stroke="black" points="392.5,-93.5 392.5,-123.5 488.5,-123.5 488.5,-93.5 392.5,-93.5"/>
<text text-anchor="start" x="400.5" y="-111.5" font-family="Helvetica,sans-Serif" font-size="10.00">httplib::detail::is</text>
<text text-anchor="middle" x="440.5" y="-100.5" font-family="Helvetica,sans-Serif" font-size="10.00">_socket_alive</text>
</a>
</g>
</g>
<!-- Node2&#45;&gt;Node3 -->
<g id="edge2" class="edge">
<title>Node2&#45;&gt;Node3</title>
<path fill="none" stroke="midnightblue" d="M327.53,-79.52C345.22,-84.1 364.65,-89.13 382.28,-93.69"/>
<polygon fill="midnightblue" stroke="midnightblue" points="381.87,-97.2 392.43,-96.32 383.63,-90.42 381.87,-97.2"/>
</g>
<!-- Node7 -->
<g id="node7" class="node">
<title>Node7</title>
<g id="a_node7"><a xlink:href="namespacehttplib_1_1detail.html#a904dd937c3c0a43da925cab16b8b896b" target="_top" xlink:title=" ">
<polygon fill="white" stroke="black" points="382,-44.5 382,-74.5 499,-74.5 499,-44.5 382,-44.5"/>
<text text-anchor="start" x="390" y="-62.5" font-family="Helvetica,sans-Serif" font-size="10.00">httplib::detail::select</text>
<text text-anchor="middle" x="440.5" y="-51.5" font-family="Helvetica,sans-Serif" font-size="10.00">_write</text>
</a>
</g>
</g>
<!-- Node2&#45;&gt;Node7 -->
<g id="edge7" class="edge">
<title>Node2&#45;&gt;Node7</title>
<path fill="none" stroke="midnightblue" d="M346.05,-62.25C354.63,-62 363.33,-61.74 371.79,-61.49"/>
<polygon fill="midnightblue" stroke="midnightblue" points="372.08,-64.98 381.97,-61.19 371.87,-57.99 372.08,-64.98"/>
</g>
<!-- Node4 -->
<g id="node4" class="node">
<title>Node4</title>
<g id="a_node4"><a xlink:href="namespacehttplib_1_1detail.html#ab57c043e9d70df4cace18a07f9fbeeea" target="_top" xlink:title=" ">
<polygon fill="white" stroke="black" points="552,-123.5 552,-153.5 662,-153.5 662,-123.5 552,-123.5"/>
<text text-anchor="start" x="560" y="-141.5" font-family="Helvetica,sans-Serif" font-size="10.00">httplib::detail::read</text>
<text text-anchor="middle" x="607" y="-130.5" font-family="Helvetica,sans-Serif" font-size="10.00">_socket</text>
</a>
</g>
</g>
<!-- Node3&#45;&gt;Node4 -->
<g id="edge3" class="edge">
<title>Node3&#45;&gt;Node4</title>
<path fill="none" stroke="midnightblue" d="M488.64,-117.1C505.15,-120.11 523.98,-123.54 541.65,-126.76"/>
<polygon fill="midnightblue" stroke="midnightblue" points="541.43,-130.28 551.89,-128.63 542.68,-123.4 541.43,-130.28"/>
</g>
<!-- Node6 -->
<g id="node6" class="node">
<title>Node6</title>
<g id="a_node6"><a xlink:href="namespacehttplib_1_1detail.html#ade5583c2e13e0822f2a90227894d92fe" target="_top" xlink:title=" ">
<polygon fill="white" stroke="black" points="535,-85 535,-104 679,-104 679,-85 535,-85"/>
<text text-anchor="middle" x="607" y="-92" font-family="Helvetica,sans-Serif" font-size="10.00">httplib::detail::select_read</text>
</a>
</g>
</g>
<!-- Node3&#45;&gt;Node6 -->
<g id="edge5" class="edge">
<title>Node3&#45;&gt;Node6</title>
<path fill="none" stroke="midnightblue" d="M488.64,-104.49C499.91,-103.53 512.27,-102.48 524.6,-101.43"/>
<polygon fill="midnightblue" stroke="midnightblue" points="525.26,-104.88 534.93,-100.55 524.67,-97.91 525.26,-104.88"/>
</g>
<!-- Node5 -->
<g id="node5" class="node">
<title>Node5</title>
<g id="a_node5"><a xlink:href="namespacehttplib_1_1detail.html#a8fbaa8fefb24f6dd249b62f832f64a84" target="_top" xlink:title=" ">
<polygon fill="white" stroke="black" points="715,-60.5 715,-90.5 836,-90.5 836,-60.5 715,-60.5"/>
<text text-anchor="start" x="723" y="-78.5" font-family="Helvetica,sans-Serif" font-size="10.00">httplib::detail::handle</text>
<text text-anchor="middle" x="775.5" y="-67.5" font-family="Helvetica,sans-Serif" font-size="10.00">_EINTR</text>
</a>
</g>
</g>
<!-- Node4&#45;&gt;Node5 -->
<g id="edge4" class="edge">
<title>Node4&#45;&gt;Node5</title>
<path fill="none" stroke="midnightblue" d="M651.66,-123.44C660.72,-120.22 670.19,-116.8 679,-113.5 695.05,-107.48 712.5,-100.63 728.04,-94.42"/>
<polygon fill="midnightblue" stroke="midnightblue" points="729.47,-97.62 737.45,-90.65 726.86,-91.12 729.47,-97.62"/>
</g>
<!-- Node6&#45;&gt;Node5 -->
<g id="edge6" class="edge">
<title>Node6&#45;&gt;Node5</title>
<path fill="none" stroke="midnightblue" d="M679.09,-86.39C687.58,-85.42 696.23,-84.43 704.7,-83.47"/>
<polygon fill="midnightblue" stroke="midnightblue" points="705.36,-86.91 714.9,-82.3 704.57,-79.96 705.36,-86.91"/>
</g>
<!-- Node7&#45;&gt;Node5 -->
<g id="edge8" class="edge">
<title>Node7&#45;&gt;Node5</title>
<path fill="none" stroke="midnightblue" d="M499.12,-62.27C556.14,-65.01 643.48,-69.2 704.47,-72.14"/>
<polygon fill="midnightblue" stroke="midnightblue" points="704.62,-75.65 714.78,-72.63 704.96,-68.65 704.62,-75.65"/>
</g>
<!-- Node8&#45;&gt;Node5 -->
<g id="edge10" class="edge">
<title>Node8&#45;&gt;Node5</title>
<path fill="none" stroke="midnightblue" d="M324.3,-19.18C370.85,-22.51 439.39,-27.9 499,-34.5 579.28,-43.39 599.16,-47.27 679,-59.5 687.36,-60.78 696.12,-62.18 704.81,-63.59"/>
<polygon fill="midnightblue" stroke="midnightblue" points="704.5,-67.09 714.94,-65.26 705.64,-60.18 704.5,-67.09"/>
</g>
</g>
</svg>
        <g id="navigator" transform="translate(0 0)" fill="#404254">
                <rect fill="#f2f5e9" fill-opacity="0.5" stroke="#606060" stroke-width=".5" x="0" y="0" width="60" height="60"/>
                <use id="zoomplus" xlink:href="#zoomPlus" x="17" y="9" onmousedown="handleZoom(evt,'in')"/>
                <use id="zoomminus" xlink:href="#zoomMin" x="42" y="9" onmousedown="handleZoom(evt,'out')"/>
                <use id="reset" xlink:href="#resetDef" x="30" y="36" onmousedown="handleReset()"/>
                <g id="arrowUp" xlink:href="#dirArrow" transform="translate(30 24)" onmousedown="handlePan(0,-1)">
                  <use xlink:href="#rim" fill="#404040">
                        <set attributeName="fill" to="#808080" begin="arrowUp.mouseover" end="arrowUp.mouseout"/>
                  </use>
                  <path fill="none" stroke="white" stroke-width="1.5" d="M0,-3.0v7 M-2.5,-0.5L0,-3.0L2.5,-0.5"/>
                </g>
                <g id="arrowRight" xlink:href="#dirArrow" transform="rotate(90) translate(36 -43)" onmousedown="handlePan(1,0)">
                  <use xlink:href="#rim" fill="#404040">
                        <set attributeName="fill" to="#808080" begin="arrowRight.mouseover" end="arrowRight.mouseout"/>
                  </use>
                  <path fill="none" stroke="white" stroke-width="1.5" d="M0,-3.0v7 M-2.5,-0.5L0,-3.0L2.5,-0.5"/>
                </g>
                <g id="arrowDown" xlink:href="#dirArrow" transform="rotate(180) translate(-30 -48)" onmousedown="handlePan(0,1)">
                  <use xlink:href="#rim" fill="#404040">
                        <set attributeName="fill" to="#808080" begin="arrowDown.mouseover" end="arrowDown.mouseout"/>
                  </use>
                  <path fill="none" stroke="white" stroke-width="1.5" d="M0,-3.0v7 M-2.5,-0.5L0,-3.0L2.5,-0.5"/>
                </g>
                <g id="arrowLeft" xlink:href="#dirArrow" transform="rotate(270) translate(-36 17)" onmousedown="handlePan(-1,0)">
                  <use xlink:href="#rim" fill="#404040">
                        <set attributeName="fill" to="#808080" begin="arrowLeft.mouseover" end="arrowLeft.mouseout"/>
                  </use>
                  <path fill="none" stroke="white" stroke-width="1.5" d="M0,-3.0v7 M-2.5,-0.5L0,-3.0L2.5,-0.5"/>
                </g>
        </g>
        <svg viewBox="0 0 15 15" width="100%" height="30px" preserveAspectRatio="xMaxYMin meet">
         <g id="arrow_out" transform="scale(0.3 0.3)">
          <a xlink:href="classhttplib_1_1detail_1_1SocketStream_a5758d225d89517db2a637fac308f041a_cgraph_org.svg" target="_base">
           <rect id="button" ry="5" rx="5" y="6" x="6" height="38" width="38"
                fill="#f2f5e9" fill-opacity="0.5" stroke="#606060" stroke-width="1.0"/>
           <path id="arrow"
             d="M 11.500037,31.436501 C 11.940474,20.09759 22.043105,11.32322 32.158766,21.979434 L 37.068811,17.246167 C 37.068811,17.246167 37.088388,32 37.088388,32 L 22.160133,31.978069 C 22.160133,31.978069 26.997745,27.140456 26.997745,27.140456 C 18.528582,18.264221 13.291696,25.230495 11.500037,31.436501 z"
             style="fill:#404040;"/>
          </a>
         </g>
        </svg>
</svg>
