<?xml version="1.0" encoding="UTF-8" standalone="no"?>
<!DOCTYPE svg PUBLIC "-//W3C//DTD SVG 1.1//EN"
 "http://www.w3.org/Graphics/SVG/1.1/DTD/svg11.dtd">
<!-- Generated by graphviz version 2.43.0 (0)
 -->
<!-- Title: fuzzer::Fuzzer::PrintStatusForNewUnit Pages: 1 -->
<svg width="886pt" height="39pt"
 viewBox="0.00 0.00 886.00 39.00" xmlns="http://www.w3.org/2000/svg" xmlns:xlink="http://www.w3.org/1999/xlink">
<g id="graph0" class="graph" transform="scale(1 1) rotate(0) translate(4 35)">
<title>fuzzer::Fuzzer::PrintStatusForNewUnit</title>
<polygon fill="white" stroke="transparent" points="-4,4 -4,-35 882,-35 882,4 -4,4"/>
<!-- Node1 -->
<g id="node1" class="node">
<title>Node1</title>
<g id="a_node1"><a xlink:title=" ">
<polygon fill="#bfbfbf" stroke="black" points="735,-0.5 735,-30.5 878,-30.5 878,-0.5 735,-0.5"/>
<text text-anchor="start" x="743" y="-18.5" font-family="Helvetica,sans-Serif" font-size="10.00">fuzzer::Fuzzer::PrintStatus</text>
<text text-anchor="middle" x="806.5" y="-7.5" font-family="Helvetica,sans-Serif" font-size="10.00">ForNewUnit</text>
</a>
</g>
</g>
<!-- Node2 -->
<g id="node2" class="node">
<title>Node2</title>
<g id="a_node2"><a xlink:href="classfuzzer_1_1Fuzzer.html#a26b0af99479a986f0b3c67950085adf1" target="_top" xlink:title=" ">
<polygon fill="white" stroke="black" points="555,-0.5 555,-30.5 699,-30.5 699,-0.5 555,-0.5"/>
<text text-anchor="start" x="563" y="-18.5" font-family="Helvetica,sans-Serif" font-size="10.00">fuzzer::Fuzzer::ReportNew</text>
<text text-anchor="middle" x="627" y="-7.5" font-family="Helvetica,sans-Serif" font-size="10.00">Coverage</text>
</a>
</g>
</g>
<!-- Node1&#45;&gt;Node2 -->
<g id="edge1" class="edge">
<title>Node1&#45;&gt;Node2</title>
<path fill="none" stroke="midnightblue" d="M724.6,-15.5C716.16,-15.5 707.62,-15.5 699.29,-15.5"/>
<polygon fill="midnightblue" stroke="midnightblue" points="724.84,-19 734.84,-15.5 724.84,-12 724.84,-19"/>
</g>
<!-- Node3 -->
<g id="node3" class="node">
<title>Node3</title>
<g id="a_node3"><a xlink:href="classfuzzer_1_1Fuzzer.html#a9c3b80798ae30570306d7f938961dec3" target="_top" xlink:title=" ">
<polygon fill="white" stroke="black" points="376,-0.5 376,-30.5 519,-30.5 519,-0.5 376,-0.5"/>
<text text-anchor="start" x="384" y="-18.5" font-family="Helvetica,sans-Serif" font-size="10.00">fuzzer::Fuzzer::MutateAnd</text>
<text text-anchor="middle" x="447.5" y="-7.5" font-family="Helvetica,sans-Serif" font-size="10.00">TestOne</text>
</a>
</g>
</g>
<!-- Node2&#45;&gt;Node3 -->
<g id="edge2" class="edge">
<title>Node2&#45;&gt;Node3</title>
<path fill="none" stroke="midnightblue" d="M544.82,-15.5C536.23,-15.5 527.56,-15.5 519.11,-15.5"/>
<polygon fill="midnightblue" stroke="midnightblue" points="544.83,-19 554.83,-15.5 544.83,-12 544.83,-19"/>
</g>
<!-- Node4 -->
<g id="node4" class="node">
<title>Node4</title>
<g id="a_node4"><a xlink:href="classfuzzer_1_1Fuzzer.html#a0306e29f06ced3d24ed0417ea2fef34b" target="_top" xlink:title=" ">
<polygon fill="white" stroke="black" points="227,-6 227,-25 340,-25 340,-6 227,-6"/>
<text text-anchor="middle" x="283.5" y="-13" font-family="Helvetica,sans-Serif" font-size="10.00">fuzzer::Fuzzer::Loop</text>
</a>
</g>
</g>
<!-- Node3&#45;&gt;Node4 -->
<g id="edge3" class="edge">
<title>Node3&#45;&gt;Node4</title>
<path fill="none" stroke="midnightblue" d="M365.79,-15.5C357.15,-15.5 348.5,-15.5 340.24,-15.5"/>
<polygon fill="midnightblue" stroke="midnightblue" points="365.92,-19 375.92,-15.5 365.92,-12 365.92,-19"/>
</g>
<!-- Node5 -->
<g id="node5" class="node">
<title>Node5</title>
<g id="a_node5"><a xlink:href="namespacefuzzer.html#a78f142089de84c6cbf7b5cab5f766af7" target="_top" xlink:title=" ">
<polygon fill="white" stroke="black" points="77,-6 77,-25 191,-25 191,-6 77,-6"/>
<text text-anchor="middle" x="134" y="-13" font-family="Helvetica,sans-Serif" font-size="10.00">fuzzer::FuzzerDriver</text>
</a>
</g>
</g>
<!-- Node4&#45;&gt;Node5 -->
<g id="edge4" class="edge">
<title>Node4&#45;&gt;Node5</title>
<path fill="none" stroke="midnightblue" d="M216.56,-15.5C208.14,-15.5 199.58,-15.5 191.33,-15.5"/>
<polygon fill="midnightblue" stroke="midnightblue" points="216.74,-19 226.74,-15.5 216.74,-12 216.74,-19"/>
</g>
<!-- Node6 -->
<g id="node6" class="node">
<title>Node6</title>
<g id="a_node6"><a xlink:href="FuzzerMain_8cpp.html#a3c04138a5bfe5d72780bb7e82a18e627" target="_top" xlink:title=" ">
<polygon fill="white" stroke="black" points="0,-6 0,-25 41,-25 41,-6 0,-6"/>
<text text-anchor="middle" x="20.5" y="-13" font-family="Helvetica,sans-Serif" font-size="10.00">main</text>
</a>
</g>
</g>
<!-- Node5&#45;&gt;Node6 -->
<g id="edge5" class="edge">
<title>Node5&#45;&gt;Node6</title>
<path fill="none" stroke="midnightblue" d="M66.7,-15.5C57.37,-15.5 48.45,-15.5 41.04,-15.5"/>
<polygon fill="midnightblue" stroke="midnightblue" points="66.92,-19 76.92,-15.5 66.92,-12 66.92,-19"/>
</g>
</g>
</svg>
