<?xml version="1.0" encoding="UTF-8" standalone="no"?>
<!DOCTYPE svg PUBLIC "-//W3C//DTD SVG 1.1//EN"
 "http://www.w3.org/Graphics/SVG/1.1/DTD/svg11.dtd">
<!-- Generated by graphviz version 2.43.0 (0)
 -->
<!-- Title: mc_orchestrator/json&#45;3.7.3/benchmarks/thirdparty/benchmark/src/commandlineflags.h Pages: 1 -->
<svg width="202pt" height="106pt"
 viewBox="0.00 0.00 202.00 106.00" xmlns="http://www.w3.org/2000/svg" xmlns:xlink="http://www.w3.org/1999/xlink">
<g id="graph0" class="graph" transform="scale(1 1) rotate(0) translate(4 102)">
<title>mc_orchestrator/json&#45;3.7.3/benchmarks/thirdparty/benchmark/src/commandlineflags.h</title>
<polygon fill="white" stroke="transparent" points="-4,4 -4,-102 198,-102 198,4 -4,4"/>
<!-- Node1 -->
<g id="node1" class="node">
<title>Node1</title>
<g id="a_node1"><a xlink:title=" ">
<polygon fill="#bfbfbf" stroke="black" points="0,-56.5 0,-97.5 194,-97.5 194,-56.5 0,-56.5"/>
<text text-anchor="start" x="8" y="-85.5" font-family="Helvetica,sans-Serif" font-size="10.00">mc_orchestrator/json</text>
<text text-anchor="start" x="8" y="-74.5" font-family="Helvetica,sans-Serif" font-size="10.00">&#45;3.7.3/benchmarks/thirdparty</text>
<text text-anchor="middle" x="97" y="-63.5" font-family="Helvetica,sans-Serif" font-size="10.00">/benchmark/src/commandlineflags.h</text>
</a>
</g>
</g>
<!-- Node2 -->
<g id="node2" class="node">
<title>Node2</title>
<g id="a_node2"><a xlink:title=" ">
<polygon fill="white" stroke="#bfbfbf" points="40,-0.5 40,-19.5 90,-19.5 90,-0.5 40,-0.5"/>
<text text-anchor="middle" x="65" y="-7.5" font-family="Helvetica,sans-Serif" font-size="10.00">cstdint</text>
</a>
</g>
</g>
<!-- Node1&#45;&gt;Node2 -->
<g id="edge1" class="edge">
<title>Node1&#45;&gt;Node2</title>
<path fill="none" stroke="midnightblue" d="M87.4,-56.5C83.06,-47.68 77.97,-37.34 73.74,-28.74"/>
<polygon fill="midnightblue" stroke="midnightblue" points="76.82,-27.08 69.26,-19.65 70.54,-30.17 76.82,-27.08"/>
</g>
<!-- Node3 -->
<g id="node3" class="node">
<title>Node3</title>
<g id="a_node3"><a xlink:title=" ">
<polygon fill="white" stroke="#bfbfbf" points="108,-0.5 108,-19.5 152,-19.5 152,-0.5 108,-0.5"/>
<text text-anchor="middle" x="130" y="-7.5" font-family="Helvetica,sans-Serif" font-size="10.00">string</text>
</a>
</g>
</g>
<!-- Node1&#45;&gt;Node3 -->
<g id="edge2" class="edge">
<title>Node1&#45;&gt;Node3</title>
<path fill="none" stroke="midnightblue" d="M106.9,-56.5C111.38,-47.68 116.63,-37.34 120.99,-28.74"/>
<polygon fill="midnightblue" stroke="midnightblue" points="124.2,-30.15 125.61,-19.65 117.96,-26.98 124.2,-30.15"/>
</g>
</g>
</svg>
