<?xml version="1.0" encoding="UTF-8" standalone="no"?>
<!DOCTYPE svg PUBLIC "-//W3C//DTD SVG 1.1//EN"
 "http://www.w3.org/Graphics/SVG/1.1/DTD/svg11.dtd">
<!-- Generated by graphviz version 2.43.0 (0)
 -->
<!-- Title: mc_orchestrator/json&#45;3.7.3/benchmarks/thirdparty/benchmark/src/complexity.h Pages: 1 -->
<!--zoomable 162 -->
<svg id="main" version="1.1" xmlns="http://www.w3.org/2000/svg" xmlns:xlink="http://www.w3.org/1999/xlink" xml:space="preserve" onload="init(evt)">
<style type="text/css"><![CDATA[
.edge:hover path { stroke: red; }
.edge:hover polygon { stroke: red; fill: red; }
]]></style>
<script type="text/javascript"><![CDATA[
var edges = document.getElementsByTagName('g');
if (edges && edges.length) {
  for (var i=0;i<edges.length;i++) {
    if (edges[i].id.substr(0,4)=='edge') {
      edges[i].setAttribute('class','edge');
    }
  }
}
]]></script>
        <defs>
                <circle id="rim" cx="0" cy="0" r="7"/>
                <circle id="rim2" cx="0" cy="0" r="3.5"/>
                <g id="zoomPlus">
                        <use xlink:href="#rim" fill="#404040">
                                <set attributeName="fill" to="#808080" begin="zoomplus.mouseover" end="zoomplus.mouseout"/>
                        </use>
                        <path d="M-4,0h8M0,-4v8" fill="none" stroke="white" stroke-width="1.5" pointer-events="none"/>
                </g>
                <g id="zoomMin">
                        <use xlink:href="#rim" fill="#404040">
                                <set attributeName="fill" to="#808080" begin="zoomminus.mouseover" end="zoomminus.mouseout"/>
                        </use>
                        <path d="M-4,0h8" fill="none" stroke="white" stroke-width="1.5" pointer-events="none"/>
                </g>
                <g id="dirArrow">
                        <path fill="none" stroke="white" stroke-width="1.5" d="M0,-3.0v7 M-2.5,-0.5L0,-3.0L2.5,-0.5"/>
                </g>
               <g id="resetDef">
                       <use xlink:href="#rim2" fill="#404040">
                               <set attributeName="fill" to="#808080" begin="reset.mouseover" end="reset.mouseout"/>
                       </use>
               </g>
        </defs>

<script type="text/javascript">
var viewWidth = 587;
var viewHeight = 162;
var sectionId = 'dynsection-0';
</script>
<script xlink:href="svgpan.js"/>
<svg id="graph" class="graph">
<g id="viewport">
<title>mc_orchestrator/json&#45;3.7.3/benchmarks/thirdparty/benchmark/src/complexity.h</title>
<polygon fill="white" stroke="transparent" points="-4,4 -4,-158 583,-158 583,4 -4,4"/>
<!-- Node1 -->
<g id="node1" class="node">
<title>Node1</title>
<g id="a_node1"><a xlink:title=" ">
<polygon fill="#bfbfbf" stroke="black" points="7,-112.5 7,-153.5 165,-153.5 165,-112.5 7,-112.5"/>
<text text-anchor="start" x="15" y="-141.5" font-family="Helvetica,sans-Serif" font-size="10.00">mc_orchestrator/json</text>
<text text-anchor="start" x="15" y="-130.5" font-family="Helvetica,sans-Serif" font-size="10.00">&#45;3.7.3/benchmarks/thirdparty</text>
<text text-anchor="middle" x="86" y="-119.5" font-family="Helvetica,sans-Serif" font-size="10.00">/benchmark/src/complexity.h</text>
</a>
</g>
</g>
<!-- Node2 -->
<g id="node2" class="node">
<title>Node2</title>
<g id="a_node2"><a xlink:title=" ">
<polygon fill="white" stroke="#bfbfbf" points="0,-0.5 0,-19.5 44,-19.5 44,-0.5 0,-0.5"/>
<text text-anchor="middle" x="22" y="-7.5" font-family="Helvetica,sans-Serif" font-size="10.00">string</text>
</a>
</g>
</g>
<!-- Node1&#45;&gt;Node2 -->
<g id="edge1" class="edge">
<title>Node1&#45;&gt;Node2</title>
<path fill="none" stroke="midnightblue" d="M75.57,-112.29C63.29,-89.06 43.06,-50.82 31.29,-28.56"/>
<polygon fill="midnightblue" stroke="midnightblue" points="34.3,-26.78 26.54,-19.57 28.12,-30.05 34.3,-26.78"/>
</g>
<!-- Node3 -->
<g id="node3" class="node">
<title>Node3</title>
<g id="a_node3"><a xlink:title=" ">
<polygon fill="white" stroke="#bfbfbf" points="62.5,-0.5 62.5,-19.5 109.5,-19.5 109.5,-0.5 62.5,-0.5"/>
<text text-anchor="middle" x="86" y="-7.5" font-family="Helvetica,sans-Serif" font-size="10.00">vector</text>
</a>
</g>
</g>
<!-- Node1&#45;&gt;Node3 -->
<g id="edge2" class="edge">
<title>Node1&#45;&gt;Node3</title>
<path fill="none" stroke="midnightblue" d="M86,-112.29C86,-89.48 86,-52.19 86,-29.78"/>
<polygon fill="midnightblue" stroke="midnightblue" points="89.5,-29.57 86,-19.57 82.5,-29.57 89.5,-29.57"/>
</g>
<!-- Node4 -->
<g id="node4" class="node">
<title>Node4</title>
<g id="a_node4"><a xlink:href="benchmark_8h.html" target="_top" xlink:title=" ">
<polygon fill="white" stroke="black" points="174,-56.5 174,-75.5 312,-75.5 312,-56.5 174,-56.5"/>
<text text-anchor="middle" x="243" y="-63.5" font-family="Helvetica,sans-Serif" font-size="10.00">benchmark/benchmark.h</text>
</a>
</g>
</g>
<!-- Node1&#45;&gt;Node4 -->
<g id="edge3" class="edge">
<title>Node1&#45;&gt;Node4</title>
<path fill="none" stroke="midnightblue" d="M133.11,-112.5C158.91,-101.81 190.14,-88.89 212.7,-79.54"/>
<polygon fill="midnightblue" stroke="midnightblue" points="214.2,-82.71 222.1,-75.65 211.52,-76.24 214.2,-82.71"/>
</g>
<!-- Node4&#45;&gt;Node2 -->
<g id="edge9" class="edge">
<title>Node4&#45;&gt;Node2</title>
<path fill="none" stroke="midnightblue" d="M204.29,-56.43C167.9,-48.24 111.69,-35.25 54.29,-20.25"/>
<polygon fill="midnightblue" stroke="midnightblue" points="54.88,-16.78 44.31,-17.62 53.09,-23.55 54.88,-16.78"/>
</g>
<!-- Node4&#45;&gt;Node3 -->
<g id="edge10" class="edge">
<title>Node4&#45;&gt;Node3</title>
<path fill="none" stroke="midnightblue" d="M218.12,-56.44C191.4,-47.25 148.8,-32.6 119.22,-22.43"/>
<polygon fill="midnightblue" stroke="midnightblue" points="120.33,-19.11 109.73,-19.16 118.05,-25.73 120.33,-19.11"/>
</g>
<!-- Node5 -->
<g id="node5" class="node">
<title>Node5</title>
<g id="a_node5"><a xlink:title=" ">
<polygon fill="white" stroke="#bfbfbf" points="178.5,-0.5 178.5,-19.5 231.5,-19.5 231.5,-0.5 178.5,-0.5"/>
<text text-anchor="middle" x="205" y="-7.5" font-family="Helvetica,sans-Serif" font-size="10.00">stdint.h</text>
</a>
</g>
</g>
<!-- Node4&#45;&gt;Node5 -->
<g id="edge4" class="edge">
<title>Node4&#45;&gt;Node5</title>
<path fill="none" stroke="midnightblue" d="M236.73,-56.08C231.36,-48.46 223.48,-37.26 216.92,-27.94"/>
<polygon fill="midnightblue" stroke="midnightblue" points="219.78,-25.91 211.16,-19.75 214.05,-29.94 219.78,-25.91"/>
</g>
<!-- Node6 -->
<g id="node6" class="node">
<title>Node6</title>
<g id="a_node6"><a xlink:title=" ">
<polygon fill="white" stroke="#bfbfbf" points="250,-0.5 250,-19.5 314,-19.5 314,-0.5 250,-0.5"/>
<text text-anchor="middle" x="282" y="-7.5" font-family="Helvetica,sans-Serif" font-size="10.00">algorithm</text>
</a>
</g>
</g>
<!-- Node4&#45;&gt;Node6 -->
<g id="edge5" class="edge">
<title>Node4&#45;&gt;Node6</title>
<path fill="none" stroke="midnightblue" d="M249.44,-56.08C254.95,-48.46 263.03,-37.26 269.76,-27.94"/>
<polygon fill="midnightblue" stroke="midnightblue" points="272.66,-29.91 275.68,-19.75 266.99,-25.81 272.66,-29.91"/>
</g>
<!-- Node7 -->
<g id="node7" class="node">
<title>Node7</title>
<g id="a_node7"><a xlink:title=" ">
<polygon fill="white" stroke="#bfbfbf" points="332,-0.5 332,-19.5 384,-19.5 384,-0.5 332,-0.5"/>
<text text-anchor="middle" x="358" y="-7.5" font-family="Helvetica,sans-Serif" font-size="10.00">cassert</text>
</a>
</g>
</g>
<!-- Node4&#45;&gt;Node7 -->
<g id="edge6" class="edge">
<title>Node4&#45;&gt;Node7</title>
<path fill="none" stroke="midnightblue" d="M261.22,-56.44C279.9,-47.68 309.16,-33.94 330.62,-23.86"/>
<polygon fill="midnightblue" stroke="midnightblue" points="332.3,-26.93 339.86,-19.52 329.32,-20.6 332.3,-26.93"/>
</g>
<!-- Node8 -->
<g id="node8" class="node">
<title>Node8</title>
<g id="a_node8"><a xlink:title=" ">
<polygon fill="white" stroke="#bfbfbf" points="402.5,-0.5 402.5,-19.5 455.5,-19.5 455.5,-0.5 402.5,-0.5"/>
<text text-anchor="middle" x="429" y="-7.5" font-family="Helvetica,sans-Serif" font-size="10.00">cstddef</text>
</a>
</g>
</g>
<!-- Node4&#45;&gt;Node8 -->
<g id="edge7" class="edge">
<title>Node4&#45;&gt;Node8</title>
<path fill="none" stroke="midnightblue" d="M272.47,-56.44C305.01,-47 357.42,-31.78 392.52,-21.59"/>
<polygon fill="midnightblue" stroke="midnightblue" points="393.75,-24.88 402.38,-18.73 391.8,-18.16 393.75,-24.88"/>
</g>
<!-- Node9 -->
<g id="node9" class="node">
<title>Node9</title>
<g id="a_node9"><a xlink:title=" ">
<polygon fill="white" stroke="#bfbfbf" points="473.5,-0.5 473.5,-19.5 522.5,-19.5 522.5,-0.5 473.5,-0.5"/>
<text text-anchor="middle" x="498" y="-7.5" font-family="Helvetica,sans-Serif" font-size="10.00">iosfwd</text>
</a>
</g>
</g>
<!-- Node4&#45;&gt;Node9 -->
<g id="edge8" class="edge">
<title>Node4&#45;&gt;Node9</title>
<path fill="none" stroke="midnightblue" d="M289.54,-56.5C332.4,-48.46 397.95,-35.64 463.14,-20.33"/>
<polygon fill="midnightblue" stroke="midnightblue" points="464.25,-23.67 473.18,-17.96 462.64,-16.86 464.25,-23.67"/>
</g>
<!-- Node10 -->
<g id="node10" class="node">
<title>Node10</title>
<g id="a_node10"><a xlink:title=" ">
<polygon fill="white" stroke="#bfbfbf" points="541,-0.5 541,-19.5 579,-19.5 579,-0.5 541,-0.5"/>
<text text-anchor="middle" x="560" y="-7.5" font-family="Helvetica,sans-Serif" font-size="10.00">map</text>
</a>
</g>
</g>
<!-- Node4&#45;&gt;Node10 -->
<g id="edge11" class="edge">
<title>Node4&#45;&gt;Node10</title>
<path fill="none" stroke="midnightblue" d="M312.2,-57.32C368.81,-50.32 451.04,-38.56 531.08,-19.91"/>
<polygon fill="midnightblue" stroke="midnightblue" points="531.91,-23.31 540.83,-17.6 530.29,-16.5 531.91,-23.31"/>
</g>
<!-- Node11 -->
<g id="node11" class="node">
<title>Node11</title>
<g id="a_node11"><a xlink:title=" ">
<polygon fill="white" stroke="#bfbfbf" points="128,-0.5 128,-19.5 160,-19.5 160,-0.5 128,-0.5"/>
<text text-anchor="middle" x="144" y="-7.5" font-family="Helvetica,sans-Serif" font-size="10.00">set</text>
</a>
</g>
</g>
<!-- Node4&#45;&gt;Node11 -->
<g id="edge12" class="edge">
<title>Node4&#45;&gt;Node11</title>
<path fill="none" stroke="midnightblue" d="M227.09,-56.32C211.36,-47.74 187.06,-34.49 168.79,-24.52"/>
<polygon fill="midnightblue" stroke="midnightblue" points="170.32,-21.37 159.87,-19.65 166.97,-27.52 170.32,-21.37"/>
</g>
</g>
</svg>
        <g id="navigator" transform="translate(0 0)" fill="#404254">
                <rect fill="#f2f5e9" fill-opacity="0.5" stroke="#606060" stroke-width=".5" x="0" y="0" width="60" height="60"/>
                <use id="zoomplus" xlink:href="#zoomPlus" x="17" y="9" onmousedown="handleZoom(evt,'in')"/>
                <use id="zoomminus" xlink:href="#zoomMin" x="42" y="9" onmousedown="handleZoom(evt,'out')"/>
                <use id="reset" xlink:href="#resetDef" x="30" y="36" onmousedown="handleReset()"/>
                <g id="arrowUp" xlink:href="#dirArrow" transform="translate(30 24)" onmousedown="handlePan(0,-1)">
                  <use xlink:href="#rim" fill="#404040">
                        <set attributeName="fill" to="#808080" begin="arrowUp.mouseover" end="arrowUp.mouseout"/>
                  </use>
                  <path fill="none" stroke="white" stroke-width="1.5" d="M0,-3.0v7 M-2.5,-0.5L0,-3.0L2.5,-0.5"/>
                </g>
                <g id="arrowRight" xlink:href="#dirArrow" transform="rotate(90) translate(36 -43)" onmousedown="handlePan(1,0)">
                  <use xlink:href="#rim" fill="#404040">
                        <set attributeName="fill" to="#808080" begin="arrowRight.mouseover" end="arrowRight.mouseout"/>
                  </use>
                  <path fill="none" stroke="white" stroke-width="1.5" d="M0,-3.0v7 M-2.5,-0.5L0,-3.0L2.5,-0.5"/>
                </g>
                <g id="arrowDown" xlink:href="#dirArrow" transform="rotate(180) translate(-30 -48)" onmousedown="handlePan(0,1)">
                  <use xlink:href="#rim" fill="#404040">
                        <set attributeName="fill" to="#808080" begin="arrowDown.mouseover" end="arrowDown.mouseout"/>
                  </use>
                  <path fill="none" stroke="white" stroke-width="1.5" d="M0,-3.0v7 M-2.5,-0.5L0,-3.0L2.5,-0.5"/>
                </g>
                <g id="arrowLeft" xlink:href="#dirArrow" transform="rotate(270) translate(-36 17)" onmousedown="handlePan(-1,0)">
                  <use xlink:href="#rim" fill="#404040">
                        <set attributeName="fill" to="#808080" begin="arrowLeft.mouseover" end="arrowLeft.mouseout"/>
                  </use>
                  <path fill="none" stroke="white" stroke-width="1.5" d="M0,-3.0v7 M-2.5,-0.5L0,-3.0L2.5,-0.5"/>
                </g>
        </g>
        <svg viewBox="0 0 15 15" width="100%" height="30px" preserveAspectRatio="xMaxYMin meet">
         <g id="arrow_out" transform="scale(0.3 0.3)">
          <a xlink:href="complexity_8h__incl_org.svg" target="_base">
           <rect id="button" ry="5" rx="5" y="6" x="6" height="38" width="38"
                fill="#f2f5e9" fill-opacity="0.5" stroke="#606060" stroke-width="1.0"/>
           <path id="arrow"
             d="M 11.500037,31.436501 C 11.940474,20.09759 22.043105,11.32322 32.158766,21.979434 L 37.068811,17.246167 C 37.068811,17.246167 37.088388,32 37.088388,32 L 22.160133,31.978069 C 22.160133,31.978069 26.997745,27.140456 26.997745,27.140456 C 18.528582,18.264221 13.291696,25.230495 11.500037,31.436501 z"
             style="fill:#404040;"/>
          </a>
         </g>
        </svg>
</svg>
