<?xml version="1.0" encoding="UTF-8" standalone="no"?>
<!DOCTYPE svg PUBLIC "-//W3C//DTD SVG 1.1//EN"
 "http://www.w3.org/Graphics/SVG/1.1/DTD/svg11.dtd">
<!-- Generated by graphviz version 2.43.0 (0)
 -->
<!-- Title: mc_orchestrator/json&#45;3.7.3/include/nlohmann/detail/meta/cpp_future.hpp Pages: 1 -->
<svg width="221pt" height="106pt"
 viewBox="0.00 0.00 220.50 106.00" xmlns="http://www.w3.org/2000/svg" xmlns:xlink="http://www.w3.org/1999/xlink">
<g id="graph0" class="graph" transform="scale(1 1) rotate(0) translate(4 102)">
<title>mc_orchestrator/json&#45;3.7.3/include/nlohmann/detail/meta/cpp_future.hpp</title>
<polygon fill="white" stroke="transparent" points="-4,4 -4,-102 216.5,-102 216.5,4 -4,4"/>
<!-- Node1 -->
<g id="node1" class="node">
<title>Node1</title>
<g id="a_node1"><a xlink:title=" ">
<polygon fill="#bfbfbf" stroke="black" points="23,-56.5 23,-97.5 175,-97.5 175,-56.5 23,-56.5"/>
<text text-anchor="start" x="31" y="-85.5" font-family="Helvetica,sans-Serif" font-size="10.00">mc_orchestrator/json</text>
<text text-anchor="start" x="31" y="-74.5" font-family="Helvetica,sans-Serif" font-size="10.00">&#45;3.7.3/include/nlohmann</text>
<text text-anchor="middle" x="99" y="-63.5" font-family="Helvetica,sans-Serif" font-size="10.00">/detail/meta/cpp_future.hpp</text>
</a>
</g>
</g>
<!-- Node2 -->
<g id="node2" class="node">
<title>Node2</title>
<g id="a_node2"><a xlink:title=" ">
<polygon fill="white" stroke="#bfbfbf" points="0,-0.5 0,-19.5 54,-19.5 54,-0.5 0,-0.5"/>
<text text-anchor="middle" x="27" y="-7.5" font-family="Helvetica,sans-Serif" font-size="10.00">ciso646</text>
</a>
</g>
</g>
<!-- Node1&#45;&gt;Node2 -->
<g id="edge1" class="edge">
<title>Node1&#45;&gt;Node2</title>
<path fill="none" stroke="midnightblue" d="M77.4,-56.5C66.78,-46.92 54.17,-35.53 44.22,-26.54"/>
<polygon fill="midnightblue" stroke="midnightblue" points="46.35,-23.76 36.58,-19.65 41.66,-28.95 46.35,-23.76"/>
</g>
<!-- Node3 -->
<g id="node3" class="node">
<title>Node3</title>
<g id="a_node3"><a xlink:title=" ">
<polygon fill="white" stroke="#bfbfbf" points="72.5,-0.5 72.5,-19.5 125.5,-19.5 125.5,-0.5 72.5,-0.5"/>
<text text-anchor="middle" x="99" y="-7.5" font-family="Helvetica,sans-Serif" font-size="10.00">cstddef</text>
</a>
</g>
</g>
<!-- Node1&#45;&gt;Node3 -->
<g id="edge2" class="edge">
<title>Node1&#45;&gt;Node3</title>
<path fill="none" stroke="midnightblue" d="M99,-56.5C99,-48.07 99,-38.24 99,-29.87"/>
<polygon fill="midnightblue" stroke="midnightblue" points="102.5,-29.65 99,-19.65 95.5,-29.65 102.5,-29.65"/>
</g>
<!-- Node4 -->
<g id="node4" class="node">
<title>Node4</title>
<g id="a_node4"><a xlink:title=" ">
<polygon fill="white" stroke="#bfbfbf" points="143.5,-0.5 143.5,-19.5 212.5,-19.5 212.5,-0.5 143.5,-0.5"/>
<text text-anchor="middle" x="178" y="-7.5" font-family="Helvetica,sans-Serif" font-size="10.00">type_traits</text>
</a>
</g>
</g>
<!-- Node1&#45;&gt;Node4 -->
<g id="edge3" class="edge">
<title>Node1&#45;&gt;Node4</title>
<path fill="none" stroke="midnightblue" d="M122.7,-56.5C134.58,-46.72 148.74,-35.07 159.76,-26.01"/>
<polygon fill="midnightblue" stroke="midnightblue" points="161.99,-28.71 167.48,-19.65 157.54,-23.3 161.99,-28.71"/>
</g>
</g>
</svg>
