<?xml version="1.0" encoding="UTF-8" standalone="no"?>
<!DOCTYPE svg PUBLIC "-//W3C//DTD SVG 1.1//EN"
 "http://www.w3.org/Graphics/SVG/1.1/DTD/svg11.dtd">
<!-- Generated by graphviz version 2.43.0 (0)
 -->
<!-- Title: mc_orchestrator/json&#45;3.7.3/include/nlohmann/detail/meta/detected.hpp Pages: 1 -->
<svg width="820pt" height="551pt"
 viewBox="0.00 0.00 820.48 551.00" xmlns="http://www.w3.org/2000/svg" xmlns:xlink="http://www.w3.org/1999/xlink">
<g id="graph0" class="graph" transform="scale(1 1) rotate(0) translate(4 547)">
<title>mc_orchestrator/json&#45;3.7.3/include/nlohmann/detail/meta/detected.hpp</title>
<polygon fill="white" stroke="transparent" points="-4,4 -4,-547 816.48,-547 816.48,4 -4,4"/>
<!-- Node1 -->
<g id="node1" class="node">
<title>Node1</title>
<g id="a_node1"><a xlink:title=" ">
<polygon fill="#bfbfbf" stroke="black" points="322.41,-501.5 322.41,-542.5 465.41,-542.5 465.41,-501.5 322.41,-501.5"/>
<text text-anchor="start" x="330.41" y="-530.5" font-family="Helvetica,sans-Serif" font-size="10.00">mc_orchestrator/json</text>
<text text-anchor="start" x="330.41" y="-519.5" font-family="Helvetica,sans-Serif" font-size="10.00">&#45;3.7.3/include/nlohmann</text>
<text text-anchor="middle" x="393.91" y="-508.5" font-family="Helvetica,sans-Serif" font-size="10.00">/detail/meta/detected.hpp</text>
</a>
</g>
</g>
<!-- Node2 -->
<g id="node2" class="node">
<title>Node2</title>
<g id="a_node2"><a xlink:href="is__sax_8hpp.html" target="_top" xlink:title=" ">
<polygon fill="white" stroke="black" points="226.91,-345.5 226.91,-386.5 360.91,-386.5 360.91,-345.5 226.91,-345.5"/>
<text text-anchor="start" x="234.91" y="-374.5" font-family="Helvetica,sans-Serif" font-size="10.00">mc_orchestrator/json</text>
<text text-anchor="start" x="234.91" y="-363.5" font-family="Helvetica,sans-Serif" font-size="10.00">&#45;3.7.3/include/nlohmann</text>
<text text-anchor="middle" x="293.91" y="-352.5" font-family="Helvetica,sans-Serif" font-size="10.00">/detail/meta/is_sax.hpp</text>
</a>
</g>
</g>
<!-- Node1&#45;&gt;Node2 -->
<g id="edge1" class="edge">
<title>Node1&#45;&gt;Node2</title>
<path fill="none" stroke="midnightblue" d="M375.7,-492.96C355.77,-462.26 324.31,-413.82 306.78,-386.83"/>
<polygon fill="midnightblue" stroke="midnightblue" points="372.86,-495.01 381.24,-501.5 378.73,-491.2 372.86,-495.01"/>
</g>
<!-- Node8 -->
<g id="node8" class="node">
<title>Node8</title>
<g id="a_node8"><a xlink:href="type__traits_8hpp.html" target="_top" xlink:title=" ">
<polygon fill="white" stroke="black" points="383.91,-423.5 383.91,-464.5 535.91,-464.5 535.91,-423.5 383.91,-423.5"/>
<text text-anchor="start" x="391.91" y="-452.5" font-family="Helvetica,sans-Serif" font-size="10.00">mc_orchestrator/json</text>
<text text-anchor="start" x="391.91" y="-441.5" font-family="Helvetica,sans-Serif" font-size="10.00">&#45;3.7.3/include/nlohmann</text>
<text text-anchor="middle" x="459.91" y="-430.5" font-family="Helvetica,sans-Serif" font-size="10.00">/detail/meta/type_traits.hpp</text>
</a>
</g>
</g>
<!-- Node1&#45;&gt;Node8 -->
<g id="edge10" class="edge">
<title>Node1&#45;&gt;Node8</title>
<path fill="none" stroke="midnightblue" d="M417.68,-493.63C426.05,-483.99 435.28,-473.36 442.97,-464.51"/>
<polygon fill="midnightblue" stroke="midnightblue" points="414.82,-491.58 410.9,-501.43 420.1,-496.17 414.82,-491.58"/>
</g>
<!-- Node3 -->
<g id="node3" class="node">
<title>Node3</title>
<g id="a_node3"><a xlink:href="binary__reader_8hpp.html" target="_top" xlink:title=" ">
<polygon fill="white" stroke="black" points="41.41,-262 41.41,-303 208.41,-303 208.41,-262 41.41,-262"/>
<text text-anchor="start" x="49.41" y="-291" font-family="Helvetica,sans-Serif" font-size="10.00">mc_orchestrator/json</text>
<text text-anchor="start" x="49.41" y="-280" font-family="Helvetica,sans-Serif" font-size="10.00">&#45;3.7.3/include/nlohmann</text>
<text text-anchor="middle" x="124.91" y="-269" font-family="Helvetica,sans-Serif" font-size="10.00">/detail/input/binary_reader.hpp</text>
</a>
</g>
</g>
<!-- Node2&#45;&gt;Node3 -->
<g id="edge2" class="edge">
<title>Node2&#45;&gt;Node3</title>
<path fill="none" stroke="midnightblue" d="M244.41,-341.13C219.26,-329 189.08,-314.45 165.35,-303"/>
<polygon fill="midnightblue" stroke="midnightblue" points="242.9,-344.29 253.43,-345.48 245.94,-337.98 242.9,-344.29"/>
</g>
<!-- Node7 -->
<g id="node7" class="node">
<title>Node7</title>
<g id="a_node7"><a xlink:href="parser_8hpp.html" target="_top" xlink:title=" ">
<polygon fill="white" stroke="black" points="226.91,-262 226.91,-303 360.91,-303 360.91,-262 226.91,-262"/>
<text text-anchor="start" x="234.91" y="-291" font-family="Helvetica,sans-Serif" font-size="10.00">mc_orchestrator/json</text>
<text text-anchor="start" x="234.91" y="-280" font-family="Helvetica,sans-Serif" font-size="10.00">&#45;3.7.3/include/nlohmann</text>
<text text-anchor="middle" x="293.91" y="-269" font-family="Helvetica,sans-Serif" font-size="10.00">/detail/input/parser.hpp</text>
</a>
</g>
</g>
<!-- Node2&#45;&gt;Node7 -->
<g id="edge8" class="edge">
<title>Node2&#45;&gt;Node7</title>
<path fill="none" stroke="midnightblue" d="M293.91,-335.06C293.91,-324.38 293.91,-312.63 293.91,-303.05"/>
<polygon fill="midnightblue" stroke="midnightblue" points="290.41,-335.27 293.91,-345.27 297.41,-335.27 290.41,-335.27"/>
</g>
<!-- Node4 -->
<g id="node4" class="node">
<title>Node4</title>
<g id="a_node4"><a xlink:href="binary__writer_8hpp.html" target="_top" xlink:title=" ">
<polygon fill="white" stroke="black" points="0.91,-173 0.91,-214 170.91,-214 170.91,-173 0.91,-173"/>
<text text-anchor="start" x="8.91" y="-202" font-family="Helvetica,sans-Serif" font-size="10.00">mc_orchestrator/json</text>
<text text-anchor="start" x="8.91" y="-191" font-family="Helvetica,sans-Serif" font-size="10.00">&#45;3.7.3/include/nlohmann</text>
<text text-anchor="middle" x="85.91" y="-180" font-family="Helvetica,sans-Serif" font-size="10.00">/detail/output/binary_writer.hpp</text>
</a>
</g>
</g>
<!-- Node3&#45;&gt;Node4 -->
<g id="edge3" class="edge">
<title>Node3&#45;&gt;Node4</title>
<path fill="none" stroke="midnightblue" d="M111.93,-252.56C106.28,-239.95 99.8,-225.5 94.72,-214.16"/>
<polygon fill="midnightblue" stroke="midnightblue" points="108.77,-254.06 116.06,-261.76 115.16,-251.2 108.77,-254.06"/>
</g>
<!-- Node6 -->
<g id="node6" class="node">
<title>Node6</title>
<g id="a_node6"><a xlink:href="include_2nlohmann_2json_8hpp.html" target="_top" xlink:title=" ">
<polygon fill="white" stroke="black" points="323.91,-0.5 323.91,-41.5 457.91,-41.5 457.91,-0.5 323.91,-0.5"/>
<text text-anchor="start" x="331.91" y="-29.5" font-family="Helvetica,sans-Serif" font-size="10.00">mc_orchestrator/json</text>
<text text-anchor="start" x="331.91" y="-18.5" font-family="Helvetica,sans-Serif" font-size="10.00">&#45;3.7.3/include/nlohmann</text>
<text text-anchor="middle" x="390.91" y="-7.5" font-family="Helvetica,sans-Serif" font-size="10.00">/json.hpp</text>
</a>
</g>
</g>
<!-- Node3&#45;&gt;Node6 -->
<g id="edge7" class="edge">
<title>Node3&#45;&gt;Node6</title>
<path fill="none" stroke="midnightblue" d="M151.3,-254.31C160.79,-243.95 171.28,-231.79 179.91,-220 223.22,-160.83 209.07,-126.68 263.91,-78 281.66,-62.24 304.55,-50.32 326,-41.62"/>
<polygon fill="midnightblue" stroke="midnightblue" points="148.54,-252.14 144.28,-261.85 153.66,-256.91 148.54,-252.14"/>
</g>
<!-- Node5 -->
<g id="node5" class="node">
<title>Node5</title>
<g id="a_node5"><a xlink:href="serializer_8hpp.html" target="_top" xlink:title=" ">
<polygon fill="white" stroke="black" points="19.41,-84 19.41,-125 170.41,-125 170.41,-84 19.41,-84"/>
<text text-anchor="start" x="27.41" y="-113" font-family="Helvetica,sans-Serif" font-size="10.00">mc_orchestrator/json</text>
<text text-anchor="start" x="27.41" y="-102" font-family="Helvetica,sans-Serif" font-size="10.00">&#45;3.7.3/include/nlohmann</text>
<text text-anchor="middle" x="94.91" y="-91" font-family="Helvetica,sans-Serif" font-size="10.00">/detail/output/serializer.hpp</text>
</a>
</g>
</g>
<!-- Node4&#45;&gt;Node5 -->
<g id="edge4" class="edge">
<title>Node4&#45;&gt;Node5</title>
<path fill="none" stroke="midnightblue" d="M89.02,-162.44C90.29,-150.1 91.73,-136.16 92.87,-125.16"/>
<polygon fill="midnightblue" stroke="midnightblue" points="85.5,-162.45 87.95,-172.76 92.46,-163.17 85.5,-162.45"/>
</g>
<!-- Node4&#45;&gt;Node6 -->
<g id="edge6" class="edge">
<title>Node4&#45;&gt;Node6</title>
<path fill="none" stroke="midnightblue" d="M41.18,-166.94C28.73,-157.39 16.74,-145.33 9.91,-131 -0.24,-109.74 -5.49,-95.83 9.91,-78 49.68,-31.96 225.47,-23.08 323.77,-21.79"/>
<polygon fill="midnightblue" stroke="midnightblue" points="39.23,-169.84 49.39,-172.84 43.32,-164.16 39.23,-169.84"/>
</g>
<!-- Node5&#45;&gt;Node6 -->
<g id="edge5" class="edge">
<title>Node5&#45;&gt;Node6</title>
<path fill="none" stroke="midnightblue" d="M173.4,-81.21C177.29,-80.12 181.14,-79.05 184.91,-78 231.15,-65.16 283.33,-50.98 323.59,-40.1"/>
<polygon fill="midnightblue" stroke="midnightblue" points="172.36,-77.86 163.68,-83.93 174.25,-84.6 172.36,-77.86"/>
</g>
<!-- Node7&#45;&gt;Node6 -->
<g id="edge9" class="edge">
<title>Node7&#45;&gt;Node6</title>
<path fill="none" stroke="midnightblue" d="M272.08,-253.49C265.55,-243.49 259.25,-231.77 255.91,-220 249.47,-197.34 250.14,-189.84 255.91,-167 266.91,-123.43 273.38,-110.98 303.91,-78 317.33,-63.5 335.28,-51.12 351.39,-41.72"/>
<polygon fill="midnightblue" stroke="midnightblue" points="269.25,-255.55 277.8,-261.8 275.01,-251.58 269.25,-255.55"/>
</g>
<!-- Node8&#45;&gt;Node2 -->
<g id="edge25" class="edge">
<title>Node8&#45;&gt;Node2</title>
<path fill="none" stroke="midnightblue" d="M407.9,-419.19C384.93,-408.67 358.27,-396.47 336.51,-386.51"/>
<polygon fill="midnightblue" stroke="midnightblue" points="406.61,-422.45 417.16,-423.43 409.52,-416.08 406.61,-422.45"/>
</g>
<!-- Node8&#45;&gt;Node6 -->
<g id="edge26" class="edge">
<title>Node8&#45;&gt;Node6</title>
<path fill="none" stroke="midnightblue" d="M546.26,-439.32C632.29,-433.8 756.28,-420.17 789.91,-387 823.2,-354.15 808.91,-330.27 808.91,-283.5 808.91,-283.5 808.91,-283.5 808.91,-192.5 808.91,-129.12 777.96,-111.1 723.91,-78 680.41,-51.37 542.2,-35.07 458.13,-27.36"/>
<polygon fill="midnightblue" stroke="midnightblue" points="546,-435.83 536.23,-439.94 546.43,-442.82 546,-435.83"/>
</g>
<!-- Node9 -->
<g id="node9" class="node">
<title>Node9</title>
<g id="a_node9"><a xlink:href="from__json_8hpp.html" target="_top" xlink:title=" ">
<polygon fill="white" stroke="black" points="265.41,-167.5 265.41,-219.5 400.41,-219.5 400.41,-167.5 265.41,-167.5"/>
<text text-anchor="start" x="273.41" y="-207.5" font-family="Helvetica,sans-Serif" font-size="10.00">mc_orchestrator/json</text>
<text text-anchor="start" x="273.41" y="-196.5" font-family="Helvetica,sans-Serif" font-size="10.00">&#45;3.7.3/include/nlohmann</text>
<text text-anchor="start" x="273.41" y="-185.5" font-family="Helvetica,sans-Serif" font-size="10.00">/detail/conversions/from</text>
<text text-anchor="middle" x="332.91" y="-174.5" font-family="Helvetica,sans-Serif" font-size="10.00">_json.hpp</text>
</a>
</g>
</g>
<!-- Node8&#45;&gt;Node9 -->
<g id="edge11" class="edge">
<title>Node8&#45;&gt;Node9</title>
<path fill="none" stroke="midnightblue" d="M447.01,-414.1C430.22,-376.99 399.53,-310.86 369.91,-256 363.34,-243.83 355.51,-230.65 348.75,-219.63"/>
<polygon fill="midnightblue" stroke="midnightblue" points="443.87,-415.64 451.17,-423.32 450.25,-412.76 443.87,-415.64"/>
</g>
<!-- Node11 -->
<g id="node11" class="node">
<title>Node11</title>
<g id="a_node11"><a xlink:href="to__json_8hpp.html" target="_top" xlink:title=" ">
<polygon fill="white" stroke="black" points="418.91,-167.5 418.91,-219.5 552.91,-219.5 552.91,-167.5 418.91,-167.5"/>
<text text-anchor="start" x="426.91" y="-207.5" font-family="Helvetica,sans-Serif" font-size="10.00">mc_orchestrator/json</text>
<text text-anchor="start" x="426.91" y="-196.5" font-family="Helvetica,sans-Serif" font-size="10.00">&#45;3.7.3/include/nlohmann</text>
<text text-anchor="start" x="426.91" y="-185.5" font-family="Helvetica,sans-Serif" font-size="10.00">/detail/conversions/to</text>
<text text-anchor="middle" x="485.91" y="-174.5" font-family="Helvetica,sans-Serif" font-size="10.00">_json.hpp</text>
</a>
</g>
</g>
<!-- Node8&#45;&gt;Node11 -->
<g id="edge15" class="edge">
<title>Node8&#45;&gt;Node11</title>
<path fill="none" stroke="midnightblue" d="M451.36,-413.65C441.88,-376.23 429.91,-309.92 445.91,-256 449.75,-243.06 457.26,-230.29 464.76,-219.77"/>
<polygon fill="midnightblue" stroke="midnightblue" points="447.99,-414.63 453.94,-423.4 454.76,-412.84 447.99,-414.63"/>
</g>
<!-- Node12 -->
<g id="node12" class="node">
<title>Node12</title>
<g id="a_node12"><a xlink:href="iter__impl_8hpp.html" target="_top" xlink:title=" ">
<polygon fill="white" stroke="black" points="551.91,-78.5 551.91,-130.5 685.91,-130.5 685.91,-78.5 551.91,-78.5"/>
<text text-anchor="start" x="559.91" y="-118.5" font-family="Helvetica,sans-Serif" font-size="10.00">mc_orchestrator/json</text>
<text text-anchor="start" x="559.91" y="-107.5" font-family="Helvetica,sans-Serif" font-size="10.00">&#45;3.7.3/include/nlohmann</text>
<text text-anchor="start" x="559.91" y="-96.5" font-family="Helvetica,sans-Serif" font-size="10.00">/detail/iterators/iter</text>
<text text-anchor="middle" x="618.91" y="-85.5" font-family="Helvetica,sans-Serif" font-size="10.00">_impl.hpp</text>
</a>
</g>
</g>
<!-- Node8&#45;&gt;Node12 -->
<g id="edge18" class="edge">
<title>Node8&#45;&gt;Node12</title>
<path fill="none" stroke="midnightblue" d="M499.48,-417.38C532.52,-393.61 577.66,-355.02 599.91,-309 628.32,-250.22 625.7,-170.81 621.99,-130.79"/>
<polygon fill="midnightblue" stroke="midnightblue" points="497.1,-414.78 490.94,-423.4 501.13,-420.5 497.1,-414.78"/>
</g>
<!-- Node13 -->
<g id="node13" class="node">
<title>Node13</title>
<g id="a_node13"><a xlink:href="iteration__proxy_8hpp.html" target="_top" xlink:title=" ">
<polygon fill="white" stroke="black" points="454.91,-256.5 454.91,-308.5 590.91,-308.5 590.91,-256.5 454.91,-256.5"/>
<text text-anchor="start" x="462.91" y="-296.5" font-family="Helvetica,sans-Serif" font-size="10.00">mc_orchestrator/json</text>
<text text-anchor="start" x="462.91" y="-285.5" font-family="Helvetica,sans-Serif" font-size="10.00">&#45;3.7.3/include/nlohmann</text>
<text text-anchor="start" x="462.91" y="-274.5" font-family="Helvetica,sans-Serif" font-size="10.00">/detail/iterators/iteration</text>
<text text-anchor="middle" x="522.91" y="-263.5" font-family="Helvetica,sans-Serif" font-size="10.00">_proxy.hpp</text>
</a>
</g>
</g>
<!-- Node8&#45;&gt;Node13 -->
<g id="edge20" class="edge">
<title>Node8&#45;&gt;Node13</title>
<path fill="none" stroke="midnightblue" d="M471.39,-413.92C483.28,-383.83 501.65,-337.33 512.94,-308.74"/>
<polygon fill="midnightblue" stroke="midnightblue" points="468.05,-412.86 467.63,-423.44 474.56,-415.43 468.05,-412.86"/>
</g>
<!-- Node14 -->
<g id="node14" class="node">
<title>Node14</title>
<g id="a_node14"><a xlink:href="json__ref_8hpp.html" target="_top" xlink:title=" ">
<polygon fill="white" stroke="black" points="646.91,-345.5 646.91,-386.5 780.91,-386.5 780.91,-345.5 646.91,-345.5"/>
<text text-anchor="start" x="654.91" y="-374.5" font-family="Helvetica,sans-Serif" font-size="10.00">mc_orchestrator/json</text>
<text text-anchor="start" x="654.91" y="-363.5" font-family="Helvetica,sans-Serif" font-size="10.00">&#45;3.7.3/include/nlohmann</text>
<text text-anchor="middle" x="713.91" y="-352.5" font-family="Helvetica,sans-Serif" font-size="10.00">/detail/json_ref.hpp</text>
</a>
</g>
</g>
<!-- Node8&#45;&gt;Node14 -->
<g id="edge23" class="edge">
<title>Node8&#45;&gt;Node14</title>
<path fill="none" stroke="midnightblue" d="M535.3,-420.44C571.35,-409.66 614.09,-396.87 648.72,-386.51"/>
<polygon fill="midnightblue" stroke="midnightblue" points="533.9,-417.21 525.32,-423.43 535.9,-423.91 533.9,-417.21"/>
</g>
<!-- Node9&#45;&gt;Node6 -->
<g id="edge14" class="edge">
<title>Node9&#45;&gt;Node6</title>
<path fill="none" stroke="midnightblue" d="M317.02,-157.87C308.61,-134.23 302.36,-102.83 314.91,-78 322.59,-62.79 336.58,-50.69 350.47,-41.69"/>
<polygon fill="midnightblue" stroke="midnightblue" points="313.86,-159.4 320.71,-167.48 320.4,-156.89 313.86,-159.4"/>
</g>
<!-- Node10 -->
<g id="node10" class="node">
<title>Node10</title>
<g id="a_node10"><a xlink:href="adl__serializer_8hpp.html" target="_top" xlink:title=" ">
<polygon fill="white" stroke="black" points="323.91,-84 323.91,-125 457.91,-125 457.91,-84 323.91,-84"/>
<text text-anchor="start" x="331.91" y="-113" font-family="Helvetica,sans-Serif" font-size="10.00">mc_orchestrator/json</text>
<text text-anchor="start" x="331.91" y="-102" font-family="Helvetica,sans-Serif" font-size="10.00">&#45;3.7.3/include/nlohmann</text>
<text text-anchor="middle" x="390.91" y="-91" font-family="Helvetica,sans-Serif" font-size="10.00">/adl_serializer.hpp</text>
</a>
</g>
</g>
<!-- Node9&#45;&gt;Node10 -->
<g id="edge12" class="edge">
<title>Node9&#45;&gt;Node10</title>
<path fill="none" stroke="midnightblue" d="M355.35,-158.84C362.96,-147.42 371.22,-135.04 377.85,-125.08"/>
<polygon fill="midnightblue" stroke="midnightblue" points="352.32,-157.07 349.68,-167.34 358.14,-160.96 352.32,-157.07"/>
</g>
<!-- Node10&#45;&gt;Node6 -->
<g id="edge13" class="edge">
<title>Node10&#45;&gt;Node6</title>
<path fill="none" stroke="midnightblue" d="M390.91,-73.56C390.91,-62.88 390.91,-51.13 390.91,-41.55"/>
<polygon fill="midnightblue" stroke="midnightblue" points="387.41,-73.77 390.91,-83.77 394.41,-73.77 387.41,-73.77"/>
</g>
<!-- Node11&#45;&gt;Node6 -->
<g id="edge17" class="edge">
<title>Node11&#45;&gt;Node6</title>
<path fill="none" stroke="midnightblue" d="M486.79,-157.32C485.86,-133.35 481.5,-101.79 466.91,-78 457.74,-63.05 442.96,-50.81 428.86,-41.64"/>
<polygon fill="midnightblue" stroke="midnightblue" points="483.3,-157.48 487,-167.4 490.29,-157.33 483.3,-157.48"/>
</g>
<!-- Node11&#45;&gt;Node10 -->
<g id="edge16" class="edge">
<title>Node11&#45;&gt;Node10</title>
<path fill="none" stroke="midnightblue" d="M450.98,-160.51C438.01,-148.64 423.69,-135.53 412.29,-125.08"/>
<polygon fill="midnightblue" stroke="midnightblue" points="448.69,-163.16 458.43,-167.34 453.42,-158 448.69,-163.16"/>
</g>
<!-- Node12&#45;&gt;Node6 -->
<g id="edge19" class="edge">
<title>Node12&#45;&gt;Node6</title>
<path fill="none" stroke="midnightblue" d="M542.08,-76.04C510.48,-64.74 474.6,-51.92 445.73,-41.6"/>
<polygon fill="midnightblue" stroke="midnightblue" points="541.14,-79.42 551.73,-79.49 543.49,-72.83 541.14,-79.42"/>
</g>
<!-- Node13&#45;&gt;Node6 -->
<g id="edge22" class="edge">
<title>Node13&#45;&gt;Node6</title>
<path fill="none" stroke="midnightblue" d="M548.98,-247.85C554.29,-239.22 559.11,-229.64 561.91,-220 568.47,-197.38 569.76,-189.21 561.91,-167 553.42,-143.02 509.32,-94.44 489.91,-78 473.03,-63.71 451.97,-51.2 433.62,-41.66"/>
<polygon fill="midnightblue" stroke="midnightblue" points="545.89,-246.17 543.33,-256.45 551.74,-250.01 545.89,-246.17"/>
</g>
<!-- Node13&#45;&gt;Node11 -->
<g id="edge21" class="edge">
<title>Node13&#45;&gt;Node11</title>
<path fill="none" stroke="midnightblue" d="M508.26,-247.06C504.36,-237.9 500.23,-228.17 496.58,-219.61"/>
<polygon fill="midnightblue" stroke="midnightblue" points="505.07,-248.5 512.2,-256.34 511.51,-245.76 505.07,-248.5"/>
</g>
<!-- Node14&#45;&gt;Node6 -->
<g id="edge24" class="edge">
<title>Node14&#45;&gt;Node6</title>
<path fill="none" stroke="midnightblue" d="M722.45,-335.32C737.03,-277.77 759.3,-150.33 694.91,-78 664.26,-43.58 537.91,-30.14 458.06,-25.02"/>
<polygon fill="midnightblue" stroke="midnightblue" points="719.01,-334.66 719.84,-345.23 725.78,-336.45 719.01,-334.66"/>
</g>
</g>
</svg>
