<?xml version="1.0" encoding="UTF-8" standalone="no"?>
<!DOCTYPE svg PUBLIC "-//W3C//DTD SVG 1.1//EN"
 "http://www.w3.org/Graphics/SVG/1.1/DTD/svg11.dtd">
<!-- Generated by graphviz version 2.43.0 (0)
 -->
<!-- Title: mc_orchestrator/json&#45;3.7.3/include/nlohmann Pages: 1 -->
<svg width="194pt" height="183pt"
 viewBox="0.00 0.00 194.00 183.00" xmlns="http://www.w3.org/2000/svg" xmlns:xlink="http://www.w3.org/1999/xlink">
<g id="graph0" class="graph" transform="scale(1 1) rotate(0) translate(4 179)">
<title>mc_orchestrator/json&#45;3.7.3/include/nlohmann</title>
<polygon fill="white" stroke="transparent" points="-4,4 -4,-179 190,-179 190,4 -4,4"/>
<g id="clust1" class="cluster">
<title>clusterdir_62918ac9866b0d52cf4f49b3e9f04c1f</title>
<g id="a_clust1"><a xlink:href="dir_62918ac9866b0d52cf4f49b3e9f04c1f.html" target="_top" xlink:title="include">
<polygon fill="#ddddee" stroke="black" points="8,-8 8,-167 178,-167 178,-8 8,-8"/>
<text text-anchor="middle" x="93" y="-155" font-family="Helvetica,sans-Serif" font-size="10.00">include</text>
</a>
</g>
</g>
<g id="clust2" class="cluster">
<title>clusterdir_15195f739026034c1d1f0ee73a451723</title>
<g id="a_clust2"><a xlink:href="dir_15195f739026034c1d1f0ee73a451723.html" target="_top">
<polygon fill="#eeeeff" stroke="black" points="16,-16 16,-140 170,-140 170,-16 16,-16"/>
</a>
</g>
</g>
<!-- dir_15195f739026034c1d1f0ee73a451723 -->
<g id="node1" class="node">
<title>dir_15195f739026034c1d1f0ee73a451723</title>
<text text-anchor="middle" x="129" y="-111.5" font-family="Helvetica,sans-Serif" font-size="10.00">nlohmann</text>
</g>
<!-- dir_b0a066263fb63c019733971af5d20ce4 -->
<g id="node2" class="node">
<title>dir_b0a066263fb63c019733971af5d20ce4</title>
<g id="a_node2"><a xlink:href="dir_b0a066263fb63c019733971af5d20ce4.html" target="_top" xlink:title="detail">
<polygon fill="white" stroke="red" points="78,-132 24,-132 24,-96 78,-96 78,-132"/>
<text text-anchor="middle" x="51" y="-111.5" font-family="Helvetica,sans-Serif" font-size="10.00">detail</text>
</a>
</g>
</g>
<!-- dir_a35c5dadc7a696ad1d0d58fd2d05b41c -->
<g id="node3" class="node">
<title>dir_a35c5dadc7a696ad1d0d58fd2d05b41c</title>
<g id="a_node3"><a xlink:href="dir_a35c5dadc7a696ad1d0d58fd2d05b41c.html" target="_top" xlink:title="thirdparty">
<polygon fill="white" stroke="red" points="89.5,-60 24.5,-60 24.5,-24 89.5,-24 89.5,-60"/>
<text text-anchor="middle" x="57" y="-39.5" font-family="Helvetica,sans-Serif" font-size="10.00">thirdparty</text>
</a>
</g>
</g>
<!-- dir_b0a066263fb63c019733971af5d20ce4&#45;&gt;dir_a35c5dadc7a696ad1d0d58fd2d05b41c -->
<g id="edge1" class="edge">
<title>dir_b0a066263fb63c019733971af5d20ce4&#45;&gt;dir_a35c5dadc7a696ad1d0d58fd2d05b41c</title>
<path fill="none" stroke="black" d="M52.48,-95.7C53.14,-87.98 53.94,-78.71 54.68,-70.11"/>
<polygon fill="black" stroke="black" points="58.17,-70.37 55.53,-60.1 51.19,-69.77 58.17,-70.37"/>
<g id="a_edge1&#45;headlabel"><a xlink:href="dir_000031_000039.html" target="_top" xlink:title="2">
<text text-anchor="middle" x="60.69" y="-71.69" font-family="Helvetica,sans-Serif" font-size="10.00">2</text>
</a>
</g>
</g>
</g>
</svg>
