<?xml version="1.0" encoding="UTF-8" standalone="no"?>
<!DOCTYPE svg PUBLIC "-//W3C//DTD SVG 1.1//EN"
 "http://www.w3.org/Graphics/SVG/1.1/DTD/svg11.dtd">
<!-- Generated by graphviz version 2.43.0 (0)
 -->
<!-- Title: mc_orchestrator/json&#45;3.7.3/test Pages: 1 -->
<svg width="586pt" height="183pt"
 viewBox="0.00 0.00 586.00 183.00" xmlns="http://www.w3.org/2000/svg" xmlns:xlink="http://www.w3.org/1999/xlink">
<g id="graph0" class="graph" transform="scale(1 1) rotate(0) translate(4 179)">
<title>mc_orchestrator/json&#45;3.7.3/test</title>
<polygon fill="white" stroke="transparent" points="-4,4 -4,-179 582,-179 582,4 -4,4"/>
<g id="clust1" class="cluster">
<title>clusterdir_fcac3879cba5e7ec487737cba71727b1</title>
<g id="a_clust1"><a xlink:href="dir_fcac3879cba5e7ec487737cba71727b1.html" target="_top" xlink:title="json&#45;3.7.3">
<polygon fill="#ddddee" stroke="black" points="8,-8 8,-167 570,-167 570,-8 8,-8"/>
<text text-anchor="middle" x="289" y="-155" font-family="Helvetica,sans-Serif" font-size="10.00">json&#45;3.7.3</text>
</a>
</g>
</g>
<g id="clust2" class="cluster">
<title>clusterdir_c7ababa6662d908d7a15a090454f164e</title>
<g id="a_clust2"><a xlink:href="dir_c7ababa6662d908d7a15a090454f164e.html" target="_top">
<polygon fill="#eeeeff" stroke="black" points="16,-16 16,-140 562,-140 562,-16 16,-16"/>
</a>
</g>
</g>
<!-- dir_c7ababa6662d908d7a15a090454f164e -->
<g id="node1" class="node">
<title>dir_c7ababa6662d908d7a15a090454f164e</title>
<text text-anchor="middle" x="527" y="-111.5" font-family="Helvetica,sans-Serif" font-size="10.00">test</text>
</g>
<!-- dir_d5f0ed22252702ede891e6fc444c6622 -->
<g id="node2" class="node">
<title>dir_d5f0ed22252702ede891e6fc444c6622</title>
<g id="a_node2"><a xlink:href="dir_d5f0ed22252702ede891e6fc444c6622.html" target="_top" xlink:title="cmake_add_subdirectory">
<polygon fill="white" stroke="red" points="482,-132 344,-132 344,-96 482,-96 482,-132"/>
<text text-anchor="middle" x="413" y="-111.5" font-family="Helvetica,sans-Serif" font-size="10.00">cmake_add_subdirectory</text>
</a>
</g>
</g>
<!-- dir_3296914edc0fe31419f9883d2ac56837 -->
<g id="node3" class="node">
<title>dir_3296914edc0fe31419f9883d2ac56837</title>
<g id="a_node3"><a xlink:href="dir_3296914edc0fe31419f9883d2ac56837.html" target="_top" xlink:title="cmake_import">
<polygon fill="white" stroke="red" points="326,-132 240,-132 240,-96 326,-96 326,-132"/>
<text text-anchor="middle" x="283" y="-111.5" font-family="Helvetica,sans-Serif" font-size="10.00">cmake_import</text>
</a>
</g>
</g>
<!-- dir_339c2adef6bbd07c7f23ff8872fc5cec -->
<g id="node4" class="node">
<title>dir_339c2adef6bbd07c7f23ff8872fc5cec</title>
<g id="a_node4"><a xlink:href="dir_339c2adef6bbd07c7f23ff8872fc5cec.html" target="_top" xlink:title="cmake_import_minver">
<polygon fill="white" stroke="red" points="222,-132 96,-132 96,-96 222,-96 222,-132"/>
<text text-anchor="middle" x="159" y="-111.5" font-family="Helvetica,sans-Serif" font-size="10.00">cmake_import_minver</text>
</a>
</g>
</g>
<!-- dir_14b347072b0e1a0c2adcc1dbf92c22f0 -->
<g id="node5" class="node">
<title>dir_14b347072b0e1a0c2adcc1dbf92c22f0</title>
<g id="a_node5"><a xlink:href="dir_14b347072b0e1a0c2adcc1dbf92c22f0.html" target="_top" xlink:title="src">
<polygon fill="white" stroke="black" points="78,-132 24,-132 24,-96 78,-96 78,-132"/>
<text text-anchor="middle" x="51" y="-111.5" font-family="Helvetica,sans-Serif" font-size="10.00">src</text>
</a>
</g>
</g>
<!-- dir_2df8757c892ed587ff410eb48d941a4c -->
<g id="node6" class="node">
<title>dir_2df8757c892ed587ff410eb48d941a4c</title>
<g id="a_node6"><a xlink:href="dir_2df8757c892ed587ff410eb48d941a4c.html" target="_top" xlink:title="thirdparty">
<polygon fill="white" stroke="red" points="89.5,-60 24.5,-60 24.5,-24 89.5,-24 89.5,-60"/>
<text text-anchor="middle" x="57" y="-39.5" font-family="Helvetica,sans-Serif" font-size="10.00">thirdparty</text>
</a>
</g>
</g>
<!-- dir_14b347072b0e1a0c2adcc1dbf92c22f0&#45;&gt;dir_2df8757c892ed587ff410eb48d941a4c -->
<g id="edge1" class="edge">
<title>dir_14b347072b0e1a0c2adcc1dbf92c22f0&#45;&gt;dir_2df8757c892ed587ff410eb48d941a4c</title>
<path fill="none" stroke="black" d="M52.48,-95.7C53.14,-87.98 53.94,-78.71 54.68,-70.11"/>
<polygon fill="black" stroke="black" points="58.17,-70.37 55.53,-60.1 51.19,-69.77 58.17,-70.37"/>
<g id="a_edge1&#45;headlabel"><a xlink:href="dir_000048_000049.html" target="_top" xlink:title="44">
<text text-anchor="middle" x="60.69" y="-71.69" font-family="Helvetica,sans-Serif" font-size="10.00">44</text>
</a>
</g>
</g>
</g>
</svg>
