<?xml version="1.0" encoding="UTF-8" standalone="no"?>
<!DOCTYPE svg PUBLIC "-//W3C//DTD SVG 1.1//EN"
 "http://www.w3.org/Graphics/SVG/1.1/DTD/svg11.dtd">
<!-- Generated by graphviz version 2.43.0 (0)
 -->
<!-- Title: mc_orchestrator/bl/src Pages: 1 -->
<svg width="197pt" height="295pt"
 viewBox="0.00 0.00 196.61 295.00" xmlns="http://www.w3.org/2000/svg" xmlns:xlink="http://www.w3.org/1999/xlink">
<g id="graph0" class="graph" transform="scale(1 1) rotate(0) translate(4 291)">
<title>mc_orchestrator/bl/src</title>
<polygon fill="white" stroke="transparent" points="-4,4 -4,-291 192.61,-291 192.61,4 -4,4"/>
<g id="clust1" class="cluster">
<title>clusterdir_cc8dab04ab9e85c0eec241213a5370b6</title>
<g id="a_clust1"><a xlink:href="dir_cc8dab04ab9e85c0eec241213a5370b6.html" target="_top" xlink:title="bl">
<polygon fill="#ddddee" stroke="black" points="79.5,-208 79.5,-279 149.5,-279 149.5,-208 79.5,-208"/>
<text text-anchor="middle" x="114.5" y="-267" font-family="Helvetica,sans-Serif" font-size="10.00">bl</text>
</a>
</g>
</g>
<!-- dir_be99c1addd3d15cb3a87ff35c38ecf27 -->
<g id="node1" class="node">
<title>dir_be99c1addd3d15cb3a87ff35c38ecf27</title>
<g id="a_node1"><a xlink:href="dir_be99c1addd3d15cb3a87ff35c38ecf27.html" target="_top" xlink:title="src">
<polygon fill="#eeeeff" stroke="black" points="141.5,-252 87.5,-252 87.5,-216 141.5,-216 141.5,-252"/>
<text text-anchor="middle" x="114.5" y="-231.5" font-family="Helvetica,sans-Serif" font-size="10.00">src</text>
</a>
</g>
</g>
<!-- dir_88bffa0ce8ed38d66e02dcd4b7bf88b0 -->
<g id="node2" class="node">
<title>dir_88bffa0ce8ed38d66e02dcd4b7bf88b0</title>
<g id="a_node2"><a xlink:href="dir_88bffa0ce8ed38d66e02dcd4b7bf88b0.html" target="_top" xlink:title="httplib">
<polygon fill="none" stroke="black" points="169.5,-108 115.5,-108 115.5,-72 169.5,-72 169.5,-108"/>
<text text-anchor="middle" x="142.5" y="-87.5" font-family="Helvetica,sans-Serif" font-size="10.00">httplib</text>
</a>
</g>
</g>
<!-- dir_be99c1addd3d15cb3a87ff35c38ecf27&#45;&gt;dir_88bffa0ce8ed38d66e02dcd4b7bf88b0 -->
<g id="edge1" class="edge">
<title>dir_be99c1addd3d15cb3a87ff35c38ecf27&#45;&gt;dir_88bffa0ce8ed38d66e02dcd4b7bf88b0</title>
<path fill="none" stroke="black" d="M117.88,-215.87C122.67,-191.56 131.49,-146.82 137.17,-118.01"/>
<polygon fill="black" stroke="black" points="140.61,-118.68 139.11,-108.19 133.74,-117.32 140.61,-118.68"/>
<g id="a_edge1&#45;headlabel"><a xlink:href="dir_000006_000018.html" target="_top" xlink:title="2">
<text text-anchor="middle" x="142.7" y="-120.25" font-family="Helvetica,sans-Serif" font-size="10.00">2</text>
</a>
</g>
</g>
<!-- dir_b1abadb884893af9d7c857de54ce671b -->
<g id="node3" class="node">
<title>dir_b1abadb884893af9d7c857de54ce671b</title>
<g id="a_node3"><a xlink:href="dir_b1abadb884893af9d7c857de54ce671b.html" target="_top" xlink:title="inc">
<polygon fill="none" stroke="black" points="85.5,-36 31.5,-36 31.5,0 85.5,0 85.5,-36"/>
<text text-anchor="middle" x="58.5" y="-15.5" font-family="Helvetica,sans-Serif" font-size="10.00">inc</text>
</a>
</g>
</g>
<!-- dir_be99c1addd3d15cb3a87ff35c38ecf27&#45;&gt;dir_b1abadb884893af9d7c857de54ce671b -->
<g id="edge2" class="edge">
<title>dir_be99c1addd3d15cb3a87ff35c38ecf27&#45;&gt;dir_b1abadb884893af9d7c857de54ce671b</title>
<path fill="none" stroke="black" d="M131.29,-215.96C159.33,-185.38 209.7,-119.88 178.5,-72 160.29,-44.04 123.62,-30.73 95.58,-24.45"/>
<polygon fill="black" stroke="black" points="96.19,-21 85.69,-22.44 94.8,-27.86 96.19,-21"/>
<g id="a_edge2&#45;headlabel"><a xlink:href="dir_000006_000005.html" target="_top" xlink:title="6">
<text text-anchor="middle" x="100.28" y="-16.44" font-family="Helvetica,sans-Serif" font-size="10.00">6</text>
</a>
</g>
</g>
<!-- dir_cce7d7c5339ac116ffa1124abc3c0fc5 -->
<g id="node4" class="node">
<title>dir_cce7d7c5339ac116ffa1124abc3c0fc5</title>
<g id="a_node4"><a xlink:href="dir_cce7d7c5339ac116ffa1124abc3c0fc5.html" target="_top" xlink:title="common">
<polygon fill="white" stroke="red" points="59,-108 0,-108 0,-72 59,-72 59,-108"/>
<text text-anchor="middle" x="29.5" y="-87.5" font-family="Helvetica,sans-Serif" font-size="10.00">common</text>
</a>
</g>
</g>
<!-- dir_be99c1addd3d15cb3a87ff35c38ecf27&#45;&gt;dir_cce7d7c5339ac116ffa1124abc3c0fc5 -->
<g id="edge3" class="edge">
<title>dir_be99c1addd3d15cb3a87ff35c38ecf27&#45;&gt;dir_cce7d7c5339ac116ffa1124abc3c0fc5</title>
<path fill="none" stroke="black" d="M87.4,-217.06C74.04,-207.85 58.84,-195.11 49.5,-180 38.01,-161.42 33.1,-137.03 31.01,-118.48"/>
<polygon fill="black" stroke="black" points="34.47,-117.96 30.07,-108.32 27.5,-118.6 34.47,-117.96"/>
<g id="a_edge3&#45;headlabel"><a xlink:href="dir_000006_000015.html" target="_top" xlink:title="14">
<text text-anchor="middle" x="37.63" y="-118.78" font-family="Helvetica,sans-Serif" font-size="10.00">14</text>
</a>
</g>
</g>
<!-- dir_116066ec8b304df45b697ffe7b3201a5 -->
<g id="node5" class="node">
<title>dir_116066ec8b304df45b697ffe7b3201a5</title>
<g id="a_node5"><a xlink:href="dir_116066ec8b304df45b697ffe7b3201a5.html" target="_top" xlink:title="runtime">
<polygon fill="white" stroke="red" points="114,-180 59,-180 59,-144 114,-144 114,-180"/>
<text text-anchor="middle" x="86.5" y="-159.5" font-family="Helvetica,sans-Serif" font-size="10.00">runtime</text>
</a>
</g>
</g>
<!-- dir_be99c1addd3d15cb3a87ff35c38ecf27&#45;&gt;dir_116066ec8b304df45b697ffe7b3201a5 -->
<g id="edge4" class="edge">
<title>dir_be99c1addd3d15cb3a87ff35c38ecf27&#45;&gt;dir_116066ec8b304df45b697ffe7b3201a5</title>
<path fill="none" stroke="black" d="M107.58,-215.7C104.43,-207.81 100.62,-198.3 97.12,-189.55"/>
<polygon fill="black" stroke="black" points="100.31,-188.09 93.34,-180.1 93.81,-190.69 100.31,-188.09"/>
<g id="a_edge4&#45;headlabel"><a xlink:href="dir_000006_000055.html" target="_top" xlink:title="14">
<text text-anchor="middle" x="104.28" y="-187.87" font-family="Helvetica,sans-Serif" font-size="10.00">14</text>
</a>
</g>
</g>
<!-- dir_b1abadb884893af9d7c857de54ce671b&#45;&gt;dir_cce7d7c5339ac116ffa1124abc3c0fc5 -->
<g id="edge5" class="edge">
<title>dir_b1abadb884893af9d7c857de54ce671b&#45;&gt;dir_cce7d7c5339ac116ffa1124abc3c0fc5</title>
<path fill="none" stroke="black" d="M57.31,-36.1C54.85,-44.04 51.09,-53.67 47.04,-62.51"/>
<polygon fill="black" stroke="black" points="43.8,-61.17 42.58,-71.7 50.1,-64.23 43.8,-61.17"/>
<g id="a_edge5&#45;headlabel"><a xlink:href="dir_000005_000015.html" target="_top" xlink:title="9">
<text text-anchor="middle" x="42.82" y="-54.2" font-family="Helvetica,sans-Serif" font-size="10.00">9</text>
</a>
</g>
</g>
<!-- dir_b1abadb884893af9d7c857de54ce671b&#45;&gt;dir_116066ec8b304df45b697ffe7b3201a5 -->
<g id="edge6" class="edge">
<title>dir_b1abadb884893af9d7c857de54ce671b&#45;&gt;dir_116066ec8b304df45b697ffe7b3201a5</title>
<path fill="none" stroke="black" d="M61.89,-36.19C66.69,-60.53 75.51,-105.28 81.19,-134.06"/>
<polygon fill="black" stroke="black" points="77.75,-134.74 83.12,-143.87 84.62,-133.38 77.75,-134.74"/>
<g id="a_edge6&#45;headlabel"><a xlink:href="dir_000005_000055.html" target="_top" xlink:title="12">
<text text-anchor="middle" x="74.27" y="-129.26" font-family="Helvetica,sans-Serif" font-size="10.00">12</text>
</a>
</g>
</g>
<!-- dir_cce7d7c5339ac116ffa1124abc3c0fc5&#45;&gt;dir_b1abadb884893af9d7c857de54ce671b -->
<g id="edge7" class="edge">
<title>dir_cce7d7c5339ac116ffa1124abc3c0fc5&#45;&gt;dir_b1abadb884893af9d7c857de54ce671b</title>
<path fill="none" stroke="black" d="M30.75,-71.7C33.23,-63.73 37.01,-54.1 41.06,-45.26"/>
<polygon fill="black" stroke="black" points="44.29,-46.63 45.52,-36.1 37.99,-43.56 44.29,-46.63"/>
<g id="a_edge7&#45;headlabel"><a xlink:href="dir_000015_000005.html" target="_top" xlink:title="1">
<text text-anchor="middle" x="45.27" y="-48.6" font-family="Helvetica,sans-Serif" font-size="10.00">1</text>
</a>
</g>
</g>
<!-- dir_cce7d7c5339ac116ffa1124abc3c0fc5&#45;&gt;dir_116066ec8b304df45b697ffe7b3201a5 -->
<g id="edge8" class="edge">
<title>dir_cce7d7c5339ac116ffa1124abc3c0fc5&#45;&gt;dir_116066ec8b304df45b697ffe7b3201a5</title>
<path fill="none" stroke="black" d="M49.32,-108.1C56.93,-116.38 65.37,-126.49 72.37,-135.64"/>
<polygon fill="black" stroke="black" points="69.57,-137.74 78.33,-143.7 75.19,-133.58 69.57,-137.74"/>
<g id="a_edge8&#45;headlabel"><a xlink:href="dir_000015_000055.html" target="_top" xlink:title="2">
<text text-anchor="middle" x="65.15" y="-134.04" font-family="Helvetica,sans-Serif" font-size="10.00">2</text>
</a>
</g>
</g>
<!-- dir_116066ec8b304df45b697ffe7b3201a5&#45;&gt;dir_88bffa0ce8ed38d66e02dcd4b7bf88b0 -->
<g id="edge9" class="edge">
<title>dir_116066ec8b304df45b697ffe7b3201a5&#45;&gt;dir_88bffa0ce8ed38d66e02dcd4b7bf88b0</title>
<path fill="none" stroke="black" d="M100.34,-143.7C106.99,-135.39 115.08,-125.28 122.39,-116.14"/>
<polygon fill="black" stroke="black" points="125.3,-118.1 128.82,-108.1 119.84,-113.73 125.3,-118.1"/>
<g id="a_edge9&#45;headlabel"><a xlink:href="dir_000055_000018.html" target="_top" xlink:title="3">
<text text-anchor="middle" x="125.27" y="-120.18" font-family="Helvetica,sans-Serif" font-size="10.00">3</text>
</a>
</g>
</g>
<!-- dir_116066ec8b304df45b697ffe7b3201a5&#45;&gt;dir_cce7d7c5339ac116ffa1124abc3c0fc5 -->
<g id="edge10" class="edge">
<title>dir_116066ec8b304df45b697ffe7b3201a5&#45;&gt;dir_cce7d7c5339ac116ffa1124abc3c0fc5</title>
<path fill="none" stroke="black" d="M66.49,-143.7C58.95,-135.47 50.61,-125.48 43.68,-116.42"/>
<polygon fill="black" stroke="black" points="46.29,-114.07 37.53,-108.1 40.66,-118.23 46.29,-114.07"/>
<g id="a_edge10&#45;headlabel"><a xlink:href="dir_000055_000015.html" target="_top" xlink:title="7">
<text text-anchor="middle" x="50.71" y="-112.77" font-family="Helvetica,sans-Serif" font-size="10.00">7</text>
</a>
</g>
</g>
</g>
</svg>
