<?xml version="1.0" encoding="UTF-8" standalone="no"?>
<!DOCTYPE svg PUBLIC "-//W3C//DTD SVG 1.1//EN"
 "http://www.w3.org/Graphics/SVG/1.1/DTD/svg11.dtd">
<!-- Generated by graphviz version 2.43.0 (0)
 -->
<!-- Title: mc_orchestrator/json&#45;3.7.3/include/nlohmann/detail/conversions Pages: 1 -->
<svg width="118pt" height="223pt"
 viewBox="0.00 0.00 118.00 223.00" xmlns="http://www.w3.org/2000/svg" xmlns:xlink="http://www.w3.org/1999/xlink">
<g id="graph0" class="graph" transform="scale(1 1) rotate(0) translate(4 219)">
<title>mc_orchestrator/json&#45;3.7.3/include/nlohmann/detail/conversions</title>
<polygon fill="white" stroke="transparent" points="-4,4 -4,-219 114,-219 114,4 -4,4"/>
<g id="clust1" class="cluster">
<title>clusterdir_b0a066263fb63c019733971af5d20ce4</title>
<g id="a_clust1"><a xlink:href="dir_b0a066263fb63c019733971af5d20ce4.html" target="_top" xlink:title="detail">
<polygon fill="#ddddee" stroke="black" points="12,-136 12,-207 102,-207 102,-136 12,-136"/>
<text text-anchor="middle" x="57" y="-195" font-family="Helvetica,sans-Serif" font-size="10.00">detail</text>
</a>
</g>
</g>
<!-- dir_59d5327bd6a3b4f45a772e7a4f56420b -->
<g id="node1" class="node">
<title>dir_59d5327bd6a3b4f45a772e7a4f56420b</title>
<g id="a_node1"><a xlink:href="dir_59d5327bd6a3b4f45a772e7a4f56420b.html" target="_top" xlink:title="conversions">
<polygon fill="#eeeeff" stroke="black" points="94.5,-180 19.5,-180 19.5,-144 94.5,-144 94.5,-180"/>
<text text-anchor="middle" x="57" y="-159.5" font-family="Helvetica,sans-Serif" font-size="10.00">conversions</text>
</a>
</g>
</g>
<!-- dir_8695c6927c0976d11102caec3dd28b0f -->
<g id="node2" class="node">
<title>dir_8695c6927c0976d11102caec3dd28b0f</title>
<g id="a_node2"><a xlink:href="dir_8695c6927c0976d11102caec3dd28b0f.html" target="_top" xlink:title="meta">
<polygon fill="none" stroke="black" points="56,-108 2,-108 2,-72 56,-72 56,-108"/>
<text text-anchor="middle" x="29" y="-87.5" font-family="Helvetica,sans-Serif" font-size="10.00">meta</text>
</a>
</g>
</g>
<!-- dir_59d5327bd6a3b4f45a772e7a4f56420b&#45;&gt;dir_8695c6927c0976d11102caec3dd28b0f -->
<g id="edge2" class="edge">
<title>dir_59d5327bd6a3b4f45a772e7a4f56420b&#45;&gt;dir_8695c6927c0976d11102caec3dd28b0f</title>
<path fill="none" stroke="black" d="M50.08,-143.7C46.93,-135.81 43.12,-126.3 39.62,-117.55"/>
<polygon fill="black" stroke="black" points="42.81,-116.09 35.84,-108.1 36.31,-118.69 42.81,-116.09"/>
<g id="a_edge2&#45;headlabel"><a xlink:href="dir_000032_000035.html" target="_top" xlink:title="4">
<text text-anchor="middle" x="46.78" y="-115.87" font-family="Helvetica,sans-Serif" font-size="10.00">4</text>
</a>
</g>
</g>
<!-- dir_f6136ff446219f5d686e99ab8d6fd3bc -->
<g id="node3" class="node">
<title>dir_f6136ff446219f5d686e99ab8d6fd3bc</title>
<g id="a_node3"><a xlink:href="dir_f6136ff446219f5d686e99ab8d6fd3bc.html" target="_top" xlink:title="iterators">
<polygon fill="none" stroke="black" points="58,-36 0,-36 0,0 58,0 58,-36"/>
<text text-anchor="middle" x="29" y="-15.5" font-family="Helvetica,sans-Serif" font-size="10.00">iterators</text>
</a>
</g>
</g>
<!-- dir_59d5327bd6a3b4f45a772e7a4f56420b&#45;&gt;dir_f6136ff446219f5d686e99ab8d6fd3bc -->
<g id="edge3" class="edge">
<title>dir_59d5327bd6a3b4f45a772e7a4f56420b&#45;&gt;dir_f6136ff446219f5d686e99ab8d6fd3bc</title>
<path fill="none" stroke="black" d="M62.34,-143.87C67.16,-125.64 72.43,-96.17 65,-72 61.99,-62.22 56.49,-52.62 50.68,-44.33"/>
<polygon fill="black" stroke="black" points="53.41,-42.13 44.61,-36.23 47.81,-46.33 53.41,-42.13"/>
<g id="a_edge3&#45;headlabel"><a xlink:href="dir_000032_000034.html" target="_top" xlink:title="1">
<text text-anchor="middle" x="57.83" y="-40.8" font-family="Helvetica,sans-Serif" font-size="10.00">1</text>
</a>
</g>
</g>
<!-- dir_8695c6927c0976d11102caec3dd28b0f&#45;&gt;dir_f6136ff446219f5d686e99ab8d6fd3bc -->
<g id="edge1" class="edge">
<title>dir_8695c6927c0976d11102caec3dd28b0f&#45;&gt;dir_f6136ff446219f5d686e99ab8d6fd3bc</title>
<path fill="none" stroke="black" d="M23.08,-71.7C22.29,-63.98 22.06,-54.71 22.4,-46.11"/>
<polygon fill="black" stroke="black" points="25.9,-46.32 23.1,-36.1 18.92,-45.84 25.9,-46.32"/>
<g id="a_edge1&#45;headlabel"><a xlink:href="dir_000035_000034.html" target="_top" xlink:title="1">
<text text-anchor="middle" x="28.48" y="-47.61" font-family="Helvetica,sans-Serif" font-size="10.00">1</text>
</a>
</g>
</g>
<!-- dir_f6136ff446219f5d686e99ab8d6fd3bc&#45;&gt;dir_8695c6927c0976d11102caec3dd28b0f -->
<g id="edge4" class="edge">
<title>dir_f6136ff446219f5d686e99ab8d6fd3bc&#45;&gt;dir_8695c6927c0976d11102caec3dd28b0f</title>
<path fill="none" stroke="black" d="M34.9,-36.1C35.7,-43.79 35.94,-53.05 35.6,-61.67"/>
<polygon fill="black" stroke="black" points="32.11,-61.48 34.92,-71.7 39.09,-61.96 32.11,-61.48"/>
<g id="a_edge4&#45;headlabel"><a xlink:href="dir_000034_000035.html" target="_top" xlink:title="5">
<text text-anchor="middle" x="29.52" y="-55.2" font-family="Helvetica,sans-Serif" font-size="10.00">5</text>
</a>
</g>
</g>
</g>
</svg>
