<?xml version="1.0" encoding="UTF-8" standalone="no"?>
<!DOCTYPE svg PUBLIC "-//W3C//DTD SVG 1.1//EN"
 "http://www.w3.org/Graphics/SVG/1.1/DTD/svg11.dtd">
<!-- Generated by graphviz version 2.43.0 (0)
 -->
<!-- Title: mc_orchestrator/json&#45;3.7.3/benchmarks/thirdparty/benchmark Pages: 1 -->
<svg width="200pt" height="255pt"
 viewBox="0.00 0.00 200.00 255.00" xmlns="http://www.w3.org/2000/svg" xmlns:xlink="http://www.w3.org/1999/xlink">
<g id="graph0" class="graph" transform="scale(1 1) rotate(0) translate(4 251)">
<title>mc_orchestrator/json&#45;3.7.3/benchmarks/thirdparty/benchmark</title>
<polygon fill="white" stroke="transparent" points="-4,4 -4,-251 196,-251 196,4 -4,4"/>
<g id="clust1" class="cluster">
<title>clusterdir_448cb951ee4db7137f35ab3469fea4ff</title>
<g id="a_clust1"><a xlink:href="dir_448cb951ee4db7137f35ab3469fea4ff.html" target="_top" xlink:title="thirdparty">
<polygon fill="#ddddee" stroke="black" points="8,-8 8,-239 184,-239 184,-8 8,-8"/>
<text text-anchor="middle" x="96" y="-227" font-family="Helvetica,sans-Serif" font-size="10.00">thirdparty</text>
</a>
</g>
</g>
<g id="clust2" class="cluster">
<title>clusterdir_ff29c04595398f7906dc53e7d68c5a23</title>
<g id="a_clust2"><a xlink:href="dir_ff29c04595398f7906dc53e7d68c5a23.html" target="_top">
<polygon fill="#eeeeff" stroke="black" points="16,-16 16,-212 176,-212 176,-16 16,-16"/>
</a>
</g>
</g>
<!-- dir_ff29c04595398f7906dc53e7d68c5a23 -->
<g id="node1" class="node">
<title>dir_ff29c04595398f7906dc53e7d68c5a23</title>
<text text-anchor="middle" x="132" y="-183.5" font-family="Helvetica,sans-Serif" font-size="10.00">benchmark</text>
</g>
<!-- dir_9a1c2a479c92ed81e2174bc6a5105e23 -->
<g id="node2" class="node">
<title>dir_9a1c2a479c92ed81e2174bc6a5105e23</title>
<g id="a_node2"><a xlink:href="dir_9a1c2a479c92ed81e2174bc6a5105e23.html" target="_top" xlink:title="cmake">
<polygon fill="white" stroke="black" points="78,-204 24,-204 24,-168 78,-168 78,-204"/>
<text text-anchor="middle" x="51" y="-183.5" font-family="Helvetica,sans-Serif" font-size="10.00">cmake</text>
</a>
</g>
</g>
<!-- dir_18061653d002345c67ddd7a06ff8e3b3 -->
<g id="node4" class="node">
<title>dir_18061653d002345c67ddd7a06ff8e3b3</title>
<g id="a_node4"><a xlink:href="dir_18061653d002345c67ddd7a06ff8e3b3.html" target="_top" xlink:title="src">
<polygon fill="white" stroke="black" points="78,-132 24,-132 24,-96 78,-96 78,-132"/>
<text text-anchor="middle" x="51" y="-111.5" font-family="Helvetica,sans-Serif" font-size="10.00">src</text>
</a>
</g>
</g>
<!-- dir_9a1c2a479c92ed81e2174bc6a5105e23&#45;&gt;dir_18061653d002345c67ddd7a06ff8e3b3 -->
<g id="edge1" class="edge">
<title>dir_9a1c2a479c92ed81e2174bc6a5105e23&#45;&gt;dir_18061653d002345c67ddd7a06ff8e3b3</title>
<path fill="none" stroke="black" d="M51,-167.7C51,-159.98 51,-150.71 51,-142.11"/>
<polygon fill="black" stroke="black" points="54.5,-142.1 51,-132.1 47.5,-142.1 54.5,-142.1"/>
<g id="a_edge1&#45;headlabel"><a xlink:href="dir_000023_000026.html" target="_top" xlink:title="1">
<text text-anchor="middle" x="57.34" y="-143.2" font-family="Helvetica,sans-Serif" font-size="10.00">1</text>
</a>
</g>
</g>
<!-- dir_75a5f04e9305df8cf9d94e448c9f3a82 -->
<g id="node3" class="node">
<title>dir_75a5f04e9305df8cf9d94e448c9f3a82</title>
<g id="a_node3"><a xlink:href="dir_75a5f04e9305df8cf9d94e448c9f3a82.html" target="_top" xlink:title="include">
<polygon fill="white" stroke="red" points="78,-60 24,-60 24,-24 78,-24 78,-60"/>
<text text-anchor="middle" x="51" y="-39.5" font-family="Helvetica,sans-Serif" font-size="10.00">include</text>
</a>
</g>
</g>
<!-- dir_18061653d002345c67ddd7a06ff8e3b3&#45;&gt;dir_75a5f04e9305df8cf9d94e448c9f3a82 -->
<g id="edge2" class="edge">
<title>dir_18061653d002345c67ddd7a06ff8e3b3&#45;&gt;dir_75a5f04e9305df8cf9d94e448c9f3a82</title>
<path fill="none" stroke="black" d="M51,-95.7C51,-87.98 51,-78.71 51,-70.11"/>
<polygon fill="black" stroke="black" points="54.5,-70.1 51,-60.1 47.5,-70.1 54.5,-70.1"/>
<g id="a_edge2&#45;headlabel"><a xlink:href="dir_000026_000024.html" target="_top" xlink:title="8">
<text text-anchor="middle" x="57.34" y="-71.2" font-family="Helvetica,sans-Serif" font-size="10.00">8</text>
</a>
</g>
</g>
</g>
</svg>
