<?xml version="1.0" encoding="UTF-8" standalone="no"?>
<!DOCTYPE svg PUBLIC "-//W3C//DTD SVG 1.1//EN"
 "http://www.w3.org/Graphics/SVG/1.1/DTD/svg11.dtd">
<!-- Generated by graphviz version 2.43.0 (0)
 -->
<!-- Title: mc_orchestrator/runtime/src Pages: 1 -->
<svg width="156pt" height="223pt"
 viewBox="0.00 0.00 155.50 223.00" xmlns="http://www.w3.org/2000/svg" xmlns:xlink="http://www.w3.org/1999/xlink">
<g id="graph0" class="graph" transform="scale(1 1) rotate(0) translate(4 219)">
<title>mc_orchestrator/runtime/src</title>
<polygon fill="white" stroke="transparent" points="-4,4 -4,-219 151.5,-219 151.5,4 -4,4"/>
<g id="clust1" class="cluster">
<title>clusterdir_116066ec8b304df45b697ffe7b3201a5</title>
<g id="a_clust1"><a xlink:href="dir_116066ec8b304df45b697ffe7b3201a5.html" target="_top" xlink:title="runtime">
<polygon fill="#ddddee" stroke="black" points="8,-136 8,-207 78,-207 78,-136 8,-136"/>
<text text-anchor="middle" x="43" y="-195" font-family="Helvetica,sans-Serif" font-size="10.00">runtime</text>
</a>
</g>
</g>
<!-- dir_6a6f9aece71eeb5999fcfc918f40c176 -->
<g id="node1" class="node">
<title>dir_6a6f9aece71eeb5999fcfc918f40c176</title>
<g id="a_node1"><a xlink:href="dir_6a6f9aece71eeb5999fcfc918f40c176.html" target="_top" xlink:title="src">
<polygon fill="#eeeeff" stroke="black" points="70,-180 16,-180 16,-144 70,-144 70,-180"/>
<text text-anchor="middle" x="43" y="-159.5" font-family="Helvetica,sans-Serif" font-size="10.00">src</text>
</a>
</g>
</g>
<!-- dir_9936629b329739b78b79ab44133e2b4b -->
<g id="node2" class="node">
<title>dir_9936629b329739b78b79ab44133e2b4b</title>
<g id="a_node2"><a xlink:href="dir_9936629b329739b78b79ab44133e2b4b.html" target="_top" xlink:title="inc">
<polygon fill="none" stroke="black" points="80,-36 26,-36 26,0 80,0 80,-36"/>
<text text-anchor="middle" x="53" y="-15.5" font-family="Helvetica,sans-Serif" font-size="10.00">inc</text>
</a>
</g>
</g>
<!-- dir_6a6f9aece71eeb5999fcfc918f40c176&#45;&gt;dir_9936629b329739b78b79ab44133e2b4b -->
<g id="edge1" class="edge">
<title>dir_6a6f9aece71eeb5999fcfc918f40c176&#45;&gt;dir_9936629b329739b78b79ab44133e2b4b</title>
<path fill="none" stroke="black" d="M27.39,-143.77C19.63,-134.03 11.05,-121.18 7,-108 2.3,-92.71 1.4,-86.99 7,-72 10.88,-61.62 17.8,-51.93 25.12,-43.74"/>
<polygon fill="black" stroke="black" points="27.78,-46.03 32.18,-36.38 22.73,-41.18 27.78,-46.03"/>
<g id="a_edge1&#45;headlabel"><a xlink:href="dir_000057_000056.html" target="_top" xlink:title="7">
<text text-anchor="middle" x="27.35" y="-48.09" font-family="Helvetica,sans-Serif" font-size="10.00">7</text>
</a>
</g>
</g>
<!-- dir_88bffa0ce8ed38d66e02dcd4b7bf88b0 -->
<g id="node3" class="node">
<title>dir_88bffa0ce8ed38d66e02dcd4b7bf88b0</title>
<g id="a_node3"><a xlink:href="dir_88bffa0ce8ed38d66e02dcd4b7bf88b0.html" target="_top" xlink:title="httplib">
<polygon fill="none" stroke="black" points="70,-108 16,-108 16,-72 70,-72 70,-108"/>
<text text-anchor="middle" x="43" y="-87.5" font-family="Helvetica,sans-Serif" font-size="10.00">httplib</text>
</a>
</g>
</g>
<!-- dir_6a6f9aece71eeb5999fcfc918f40c176&#45;&gt;dir_88bffa0ce8ed38d66e02dcd4b7bf88b0 -->
<g id="edge2" class="edge">
<title>dir_6a6f9aece71eeb5999fcfc918f40c176&#45;&gt;dir_88bffa0ce8ed38d66e02dcd4b7bf88b0</title>
<path fill="none" stroke="black" d="M43,-143.7C43,-135.98 43,-126.71 43,-118.11"/>
<polygon fill="black" stroke="black" points="46.5,-118.1 43,-108.1 39.5,-118.1 46.5,-118.1"/>
<g id="a_edge2&#45;headlabel"><a xlink:href="dir_000057_000018.html" target="_top" xlink:title="3">
<text text-anchor="middle" x="49.34" y="-119.2" font-family="Helvetica,sans-Serif" font-size="10.00">3</text>
</a>
</g>
</g>
<!-- dir_cce7d7c5339ac116ffa1124abc3c0fc5 -->
<g id="node4" class="node">
<title>dir_cce7d7c5339ac116ffa1124abc3c0fc5</title>
<g id="a_node4"><a xlink:href="dir_cce7d7c5339ac116ffa1124abc3c0fc5.html" target="_top" xlink:title="common">
<polygon fill="white" stroke="red" points="147.5,-108 88.5,-108 88.5,-72 147.5,-72 147.5,-108"/>
<text text-anchor="middle" x="118" y="-87.5" font-family="Helvetica,sans-Serif" font-size="10.00">common</text>
</a>
</g>
</g>
<!-- dir_6a6f9aece71eeb5999fcfc918f40c176&#45;&gt;dir_cce7d7c5339ac116ffa1124abc3c0fc5 -->
<g id="edge3" class="edge">
<title>dir_6a6f9aece71eeb5999fcfc918f40c176&#45;&gt;dir_cce7d7c5339ac116ffa1124abc3c0fc5</title>
<path fill="none" stroke="black" d="M61.54,-143.7C70.8,-135.05 82.16,-124.45 92.26,-115.03"/>
<polygon fill="black" stroke="black" points="94.75,-117.49 99.67,-108.1 89.98,-112.37 94.75,-117.49"/>
<g id="a_edge3&#45;headlabel"><a xlink:href="dir_000057_000015.html" target="_top" xlink:title="7">
<text text-anchor="middle" x="94.06" y="-119.51" font-family="Helvetica,sans-Serif" font-size="10.00">7</text>
</a>
</g>
</g>
<!-- dir_cce7d7c5339ac116ffa1124abc3c0fc5&#45;&gt;dir_9936629b329739b78b79ab44133e2b4b -->
<g id="edge4" class="edge">
<title>dir_cce7d7c5339ac116ffa1124abc3c0fc5&#45;&gt;dir_9936629b329739b78b79ab44133e2b4b</title>
<path fill="none" stroke="black" d="M101.93,-71.7C94.06,-63.22 84.44,-52.86 75.83,-43.58"/>
<polygon fill="black" stroke="black" points="78.25,-41.05 68.88,-36.1 73.12,-45.81 78.25,-41.05"/>
<g id="a_edge4&#45;headlabel"><a xlink:href="dir_000015_000056.html" target="_top" xlink:title="2">
<text text-anchor="middle" x="82.78" y="-39.25" font-family="Helvetica,sans-Serif" font-size="10.00">2</text>
</a>
</g>
</g>
</g>
</svg>
