<?xml version="1.0" encoding="UTF-8" standalone="no"?>
<!DOCTYPE svg PUBLIC "-//W3C//DTD SVG 1.1//EN"
 "http://www.w3.org/Graphics/SVG/1.1/DTD/svg11.dtd">
<!-- Generated by graphviz version 2.43.0 (0)
 -->
<!-- Title: mc_orchestrator/json&#45;3.7.3/include/nlohmann/detail/iterators Pages: 1 -->
<svg width="98pt" height="151pt"
 viewBox="0.00 0.00 98.00 151.00" xmlns="http://www.w3.org/2000/svg" xmlns:xlink="http://www.w3.org/1999/xlink">
<g id="graph0" class="graph" transform="scale(1 1) rotate(0) translate(4 147)">
<title>mc_orchestrator/json&#45;3.7.3/include/nlohmann/detail/iterators</title>
<polygon fill="white" stroke="transparent" points="-4,4 -4,-147 94,-147 94,4 -4,4"/>
<g id="clust1" class="cluster">
<title>clusterdir_b0a066263fb63c019733971af5d20ce4</title>
<g id="a_clust1"><a xlink:href="dir_b0a066263fb63c019733971af5d20ce4.html" target="_top" xlink:title="detail">
<polygon fill="#ddddee" stroke="black" points="8,-64 8,-135 82,-135 82,-64 8,-64"/>
<text text-anchor="middle" x="45" y="-123" font-family="Helvetica,sans-Serif" font-size="10.00">detail</text>
</a>
</g>
</g>
<!-- dir_f6136ff446219f5d686e99ab8d6fd3bc -->
<g id="node1" class="node">
<title>dir_f6136ff446219f5d686e99ab8d6fd3bc</title>
<g id="a_node1"><a xlink:href="dir_f6136ff446219f5d686e99ab8d6fd3bc.html" target="_top" xlink:title="iterators">
<polygon fill="#eeeeff" stroke="black" points="74,-108 16,-108 16,-72 74,-72 74,-108"/>
<text text-anchor="middle" x="45" y="-87.5" font-family="Helvetica,sans-Serif" font-size="10.00">iterators</text>
</a>
</g>
</g>
<!-- dir_8695c6927c0976d11102caec3dd28b0f -->
<g id="node2" class="node">
<title>dir_8695c6927c0976d11102caec3dd28b0f</title>
<g id="a_node2"><a xlink:href="dir_8695c6927c0976d11102caec3dd28b0f.html" target="_top" xlink:title="meta">
<polygon fill="none" stroke="black" points="72,-36 18,-36 18,0 72,0 72,-36"/>
<text text-anchor="middle" x="45" y="-15.5" font-family="Helvetica,sans-Serif" font-size="10.00">meta</text>
</a>
</g>
</g>
<!-- dir_f6136ff446219f5d686e99ab8d6fd3bc&#45;&gt;dir_8695c6927c0976d11102caec3dd28b0f -->
<g id="edge2" class="edge">
<title>dir_f6136ff446219f5d686e99ab8d6fd3bc&#45;&gt;dir_8695c6927c0976d11102caec3dd28b0f</title>
<path fill="none" stroke="black" d="M39.08,-71.7C38.29,-63.98 38.06,-54.71 38.4,-46.11"/>
<polygon fill="black" stroke="black" points="41.9,-46.32 39.1,-36.1 34.92,-45.84 41.9,-46.32"/>
<g id="a_edge2&#45;headlabel"><a xlink:href="dir_000034_000035.html" target="_top" xlink:title="5">
<text text-anchor="middle" x="44.48" y="-47.61" font-family="Helvetica,sans-Serif" font-size="10.00">5</text>
</a>
</g>
</g>
<!-- dir_8695c6927c0976d11102caec3dd28b0f&#45;&gt;dir_f6136ff446219f5d686e99ab8d6fd3bc -->
<g id="edge1" class="edge">
<title>dir_8695c6927c0976d11102caec3dd28b0f&#45;&gt;dir_f6136ff446219f5d686e99ab8d6fd3bc</title>
<path fill="none" stroke="black" d="M50.9,-36.1C51.7,-43.79 51.94,-53.05 51.6,-61.67"/>
<polygon fill="black" stroke="black" points="48.11,-61.48 50.92,-71.7 55.09,-61.96 48.11,-61.48"/>
<g id="a_edge1&#45;headlabel"><a xlink:href="dir_000035_000034.html" target="_top" xlink:title="1">
<text text-anchor="middle" x="45.52" y="-55.2" font-family="Helvetica,sans-Serif" font-size="10.00">1</text>
</a>
</g>
</g>
</g>
</svg>
