<?xml version="1.0" encoding="UTF-8" standalone="no"?>
<!DOCTYPE svg PUBLIC "-//W3C//DTD SVG 1.1//EN"
 "http://www.w3.org/Graphics/SVG/1.1/DTD/svg11.dtd">
<!-- Generated by graphviz version 2.43.0 (0)
 -->
<!-- Title: mc_orchestrator/json&#45;3.7.3/include/nlohmann/detail/output Pages: 1 -->
<svg width="168pt" height="223pt"
 viewBox="0.00 0.00 168.20 223.00" xmlns="http://www.w3.org/2000/svg" xmlns:xlink="http://www.w3.org/1999/xlink">
<g id="graph0" class="graph" transform="scale(1 1) rotate(0) translate(4 219)">
<title>mc_orchestrator/json&#45;3.7.3/include/nlohmann/detail/output</title>
<polygon fill="white" stroke="transparent" points="-4,4 -4,-219 164.2,-219 164.2,4 -4,4"/>
<g id="clust1" class="cluster">
<title>clusterdir_b0a066263fb63c019733971af5d20ce4</title>
<g id="a_clust1"><a xlink:href="dir_b0a066263fb63c019733971af5d20ce4.html" target="_top" xlink:title="detail">
<polygon fill="#ddddee" stroke="black" points="15.2,-136 15.2,-207 85.2,-207 85.2,-136 15.2,-136"/>
<text text-anchor="middle" x="50.2" y="-195" font-family="Helvetica,sans-Serif" font-size="10.00">detail</text>
</a>
</g>
</g>
<!-- dir_f697ddc64d44f307f08cc7839c5dc7b2 -->
<g id="node1" class="node">
<title>dir_f697ddc64d44f307f08cc7839c5dc7b2</title>
<g id="a_node1"><a xlink:href="dir_f697ddc64d44f307f08cc7839c5dc7b2.html" target="_top" xlink:title="output">
<polygon fill="#eeeeff" stroke="black" points="77.2,-180 23.2,-180 23.2,-144 77.2,-144 77.2,-180"/>
<text text-anchor="middle" x="50.2" y="-159.5" font-family="Helvetica,sans-Serif" font-size="10.00">output</text>
</a>
</g>
</g>
<!-- dir_8695c6927c0976d11102caec3dd28b0f -->
<g id="node2" class="node">
<title>dir_8695c6927c0976d11102caec3dd28b0f</title>
<g id="a_node2"><a xlink:href="dir_8695c6927c0976d11102caec3dd28b0f.html" target="_top" xlink:title="meta">
<polygon fill="none" stroke="black" points="77.2,-36 23.2,-36 23.2,0 77.2,0 77.2,-36"/>
<text text-anchor="middle" x="50.2" y="-15.5" font-family="Helvetica,sans-Serif" font-size="10.00">meta</text>
</a>
</g>
</g>
<!-- dir_f697ddc64d44f307f08cc7839c5dc7b2&#45;&gt;dir_8695c6927c0976d11102caec3dd28b0f -->
<g id="edge1" class="edge">
<title>dir_f697ddc64d44f307f08cc7839c5dc7b2&#45;&gt;dir_8695c6927c0976d11102caec3dd28b0f</title>
<path fill="none" stroke="black" d="M29.38,-143.62C19.74,-134.2 9.31,-121.7 4.2,-108 -1.4,-93.01 -1.4,-86.99 4.2,-72 8.07,-61.62 15,-51.93 22.32,-43.74"/>
<polygon fill="black" stroke="black" points="24.98,-46.03 29.38,-36.38 19.93,-41.18 24.98,-46.03"/>
<g id="a_edge1&#45;headlabel"><a xlink:href="dir_000036_000035.html" target="_top" xlink:title="1">
<text text-anchor="middle" x="24.54" y="-48.09" font-family="Helvetica,sans-Serif" font-size="10.00">1</text>
</a>
</g>
</g>
<!-- dir_59d5327bd6a3b4f45a772e7a4f56420b -->
<g id="node3" class="node">
<title>dir_59d5327bd6a3b4f45a772e7a4f56420b</title>
<g id="a_node3"><a xlink:href="dir_59d5327bd6a3b4f45a772e7a4f56420b.html" target="_top" xlink:title="conversions">
<polygon fill="none" stroke="black" points="87.7,-108 12.7,-108 12.7,-72 87.7,-72 87.7,-108"/>
<text text-anchor="middle" x="50.2" y="-87.5" font-family="Helvetica,sans-Serif" font-size="10.00">conversions</text>
</a>
</g>
</g>
<!-- dir_f697ddc64d44f307f08cc7839c5dc7b2&#45;&gt;dir_59d5327bd6a3b4f45a772e7a4f56420b -->
<g id="edge2" class="edge">
<title>dir_f697ddc64d44f307f08cc7839c5dc7b2&#45;&gt;dir_59d5327bd6a3b4f45a772e7a4f56420b</title>
<path fill="none" stroke="black" d="M50.2,-143.7C50.2,-135.98 50.2,-126.71 50.2,-118.11"/>
<polygon fill="black" stroke="black" points="53.7,-118.1 50.2,-108.1 46.7,-118.1 53.7,-118.1"/>
<g id="a_edge2&#45;headlabel"><a xlink:href="dir_000036_000032.html" target="_top" xlink:title="1">
<text text-anchor="middle" x="56.54" y="-119.2" font-family="Helvetica,sans-Serif" font-size="10.00">1</text>
</a>
</g>
</g>
<!-- dir_c12bf262a15fa5adbd3b285421cf16be -->
<g id="node4" class="node">
<title>dir_c12bf262a15fa5adbd3b285421cf16be</title>
<g id="a_node4"><a xlink:href="dir_c12bf262a15fa5adbd3b285421cf16be.html" target="_top" xlink:title="input">
<polygon fill="none" stroke="black" points="160.2,-108 106.2,-108 106.2,-72 160.2,-72 160.2,-108"/>
<text text-anchor="middle" x="133.2" y="-87.5" font-family="Helvetica,sans-Serif" font-size="10.00">input</text>
</a>
</g>
</g>
<!-- dir_f697ddc64d44f307f08cc7839c5dc7b2&#45;&gt;dir_c12bf262a15fa5adbd3b285421cf16be -->
<g id="edge3" class="edge">
<title>dir_f697ddc64d44f307f08cc7839c5dc7b2&#45;&gt;dir_c12bf262a15fa5adbd3b285421cf16be</title>
<path fill="none" stroke="black" d="M70.71,-143.7C81.07,-134.97 93.78,-124.24 105.04,-114.75"/>
<polygon fill="black" stroke="black" points="107.53,-117.23 112.92,-108.1 103.02,-111.88 107.53,-117.23"/>
<g id="a_edge3&#45;headlabel"><a xlink:href="dir_000036_000033.html" target="_top" xlink:title="1">
<text text-anchor="middle" x="106.61" y="-119.21" font-family="Helvetica,sans-Serif" font-size="10.00">1</text>
</a>
</g>
</g>
<!-- dir_59d5327bd6a3b4f45a772e7a4f56420b&#45;&gt;dir_8695c6927c0976d11102caec3dd28b0f -->
<g id="edge4" class="edge">
<title>dir_59d5327bd6a3b4f45a772e7a4f56420b&#45;&gt;dir_8695c6927c0976d11102caec3dd28b0f</title>
<path fill="none" stroke="black" d="M50.2,-71.7C50.2,-63.98 50.2,-54.71 50.2,-46.11"/>
<polygon fill="black" stroke="black" points="53.7,-46.1 50.2,-36.1 46.7,-46.1 53.7,-46.1"/>
<g id="a_edge4&#45;headlabel"><a xlink:href="dir_000032_000035.html" target="_top" xlink:title="4">
<text text-anchor="middle" x="56.54" y="-47.2" font-family="Helvetica,sans-Serif" font-size="10.00">4</text>
</a>
</g>
</g>
<!-- dir_c12bf262a15fa5adbd3b285421cf16be&#45;&gt;dir_8695c6927c0976d11102caec3dd28b0f -->
<g id="edge5" class="edge">
<title>dir_c12bf262a15fa5adbd3b285421cf16be&#45;&gt;dir_8695c6927c0976d11102caec3dd28b0f</title>
<path fill="none" stroke="black" d="M112.68,-71.7C102.33,-62.97 89.61,-52.24 78.36,-42.75"/>
<polygon fill="black" stroke="black" points="80.38,-39.88 70.48,-36.1 75.87,-45.23 80.38,-39.88"/>
<g id="a_edge5&#45;headlabel"><a xlink:href="dir_000033_000035.html" target="_top" xlink:title="2">
<text text-anchor="middle" x="84.96" y="-37.52" font-family="Helvetica,sans-Serif" font-size="10.00">2</text>
</a>
</g>
</g>
</g>
</svg>
