<?xml version="1.0" encoding="UTF-8" standalone="no"?>
<!DOCTYPE svg PUBLIC "-//W3C//DTD SVG 1.1//EN"
 "http://www.w3.org/Graphics/SVG/1.1/DTD/svg11.dtd">
<!-- Generated by graphviz version 2.43.0 (0)
 -->
<!-- Title: mc_orchestrator/json&#45;3.7.3/test/thirdparty/doctest/doctest_compatibility.h Pages: 1 -->
<svg width="5925pt" height="128pt"
 viewBox="0.00 0.00 5925.00 128.00" xmlns="http://www.w3.org/2000/svg" xmlns:xlink="http://www.w3.org/1999/xlink">
<g id="graph0" class="graph" transform="scale(1 1) rotate(0) translate(4 124)">
<title>mc_orchestrator/json&#45;3.7.3/test/thirdparty/doctest/doctest_compatibility.h</title>
<polygon fill="white" stroke="transparent" points="-4,4 -4,-124 5921,-124 5921,4 -4,4"/>
<!-- Node1 -->
<g id="node1" class="node">
<title>Node1</title>
<g id="a_node1"><a xlink:title=" ">
<polygon fill="#bfbfbf" stroke="black" points="2882.5,-78.5 2882.5,-119.5 3054.5,-119.5 3054.5,-78.5 2882.5,-78.5"/>
<text text-anchor="start" x="2890.5" y="-107.5" font-family="Helvetica,sans-Serif" font-size="10.00">mc_orchestrator/json</text>
<text text-anchor="start" x="2890.5" y="-96.5" font-family="Helvetica,sans-Serif" font-size="10.00">&#45;3.7.3/test/thirdparty</text>
<text text-anchor="middle" x="2968.5" y="-85.5" font-family="Helvetica,sans-Serif" font-size="10.00">/doctest/doctest_compatibility.h</text>
</a>
</g>
</g>
<!-- Node2 -->
<g id="node2" class="node">
<title>Node2</title>
<g id="a_node2"><a xlink:href="unit-algorithms_8cpp.html" target="_top" xlink:title=" ">
<polygon fill="white" stroke="black" points="0,-0.5 0,-41.5 119,-41.5 119,-0.5 0,-0.5"/>
<text text-anchor="start" x="8" y="-29.5" font-family="Helvetica,sans-Serif" font-size="10.00">mc_orchestrator/json</text>
<text text-anchor="start" x="8" y="-18.5" font-family="Helvetica,sans-Serif" font-size="10.00">&#45;3.7.3/test/src/unit</text>
<text text-anchor="middle" x="59.5" y="-7.5" font-family="Helvetica,sans-Serif" font-size="10.00">&#45;algorithms.cpp</text>
</a>
</g>
</g>
<!-- Node1&#45;&gt;Node2 -->
<g id="edge1" class="edge">
<title>Node1&#45;&gt;Node2</title>
<path fill="none" stroke="midnightblue" d="M2872.45,-97.62C2407.67,-95.6 403.08,-84.46 127.5,-42 124.7,-41.57 121.86,-41.05 119,-40.47"/>
<polygon fill="midnightblue" stroke="midnightblue" points="2872.47,-101.12 2882.49,-97.67 2872.5,-94.12 2872.47,-101.12"/>
</g>
<!-- Node3 -->
<g id="node3" class="node">
<title>Node3</title>
<g id="a_node3"><a xlink:href="unit-allocator_8cpp.html" target="_top" xlink:title=" ">
<polygon fill="white" stroke="black" points="137,-0.5 137,-41.5 256,-41.5 256,-0.5 137,-0.5"/>
<text text-anchor="start" x="145" y="-29.5" font-family="Helvetica,sans-Serif" font-size="10.00">mc_orchestrator/json</text>
<text text-anchor="start" x="145" y="-18.5" font-family="Helvetica,sans-Serif" font-size="10.00">&#45;3.7.3/test/src/unit</text>
<text text-anchor="middle" x="196.5" y="-7.5" font-family="Helvetica,sans-Serif" font-size="10.00">&#45;allocator.cpp</text>
</a>
</g>
</g>
<!-- Node1&#45;&gt;Node3 -->
<g id="edge2" class="edge">
<title>Node1&#45;&gt;Node3</title>
<path fill="none" stroke="midnightblue" d="M2872.33,-97.52C2421.23,-95.06 525.85,-82.4 264.5,-42 261.7,-41.57 258.86,-41.05 256,-40.47"/>
<polygon fill="midnightblue" stroke="midnightblue" points="2872.38,-101.02 2882.4,-97.57 2872.42,-94.02 2872.38,-101.02"/>
</g>
<!-- Node4 -->
<g id="node4" class="node">
<title>Node4</title>
<g id="a_node4"><a xlink:href="unit-alt-string_8cpp.html" target="_top" xlink:title=" ">
<polygon fill="white" stroke="black" points="274,-0.5 274,-41.5 393,-41.5 393,-0.5 274,-0.5"/>
<text text-anchor="start" x="282" y="-29.5" font-family="Helvetica,sans-Serif" font-size="10.00">mc_orchestrator/json</text>
<text text-anchor="start" x="282" y="-18.5" font-family="Helvetica,sans-Serif" font-size="10.00">&#45;3.7.3/test/src/unit</text>
<text text-anchor="middle" x="333.5" y="-7.5" font-family="Helvetica,sans-Serif" font-size="10.00">&#45;alt&#45;string.cpp</text>
</a>
</g>
</g>
<!-- Node1&#45;&gt;Node4 -->
<g id="edge3" class="edge">
<title>Node1&#45;&gt;Node4</title>
<path fill="none" stroke="midnightblue" d="M2872.23,-97.4C2435.22,-94.5 648.64,-80.35 401.5,-42 398.7,-41.57 395.86,-41.05 393,-40.47"/>
<polygon fill="midnightblue" stroke="midnightblue" points="2872.28,-100.9 2882.3,-97.47 2872.33,-93.9 2872.28,-100.9"/>
</g>
<!-- Node5 -->
<g id="node5" class="node">
<title>Node5</title>
<g id="a_node5"><a xlink:href="unit-bson_8cpp.html" target="_top" xlink:title=" ">
<polygon fill="white" stroke="black" points="411,-0.5 411,-41.5 530,-41.5 530,-0.5 411,-0.5"/>
<text text-anchor="start" x="419" y="-29.5" font-family="Helvetica,sans-Serif" font-size="10.00">mc_orchestrator/json</text>
<text text-anchor="start" x="419" y="-18.5" font-family="Helvetica,sans-Serif" font-size="10.00">&#45;3.7.3/test/src/unit</text>
<text text-anchor="middle" x="470.5" y="-7.5" font-family="Helvetica,sans-Serif" font-size="10.00">&#45;bson.cpp</text>
</a>
</g>
</g>
<!-- Node1&#45;&gt;Node5 -->
<g id="edge4" class="edge">
<title>Node1&#45;&gt;Node5</title>
<path fill="none" stroke="midnightblue" d="M2872.2,-97.28C2449.78,-93.9 771.47,-78.29 538.5,-42 535.7,-41.56 532.86,-41.05 530,-40.46"/>
<polygon fill="midnightblue" stroke="midnightblue" points="2872.21,-100.78 2882.24,-97.36 2872.27,-93.78 2872.21,-100.78"/>
</g>
<!-- Node6 -->
<g id="node6" class="node">
<title>Node6</title>
<g id="a_node6"><a xlink:href="unit-capacity_8cpp.html" target="_top" xlink:title=" ">
<polygon fill="white" stroke="black" points="548,-0.5 548,-41.5 667,-41.5 667,-0.5 548,-0.5"/>
<text text-anchor="start" x="556" y="-29.5" font-family="Helvetica,sans-Serif" font-size="10.00">mc_orchestrator/json</text>
<text text-anchor="start" x="556" y="-18.5" font-family="Helvetica,sans-Serif" font-size="10.00">&#45;3.7.3/test/src/unit</text>
<text text-anchor="middle" x="607.5" y="-7.5" font-family="Helvetica,sans-Serif" font-size="10.00">&#45;capacity.cpp</text>
</a>
</g>
</g>
<!-- Node1&#45;&gt;Node6 -->
<g id="edge5" class="edge">
<title>Node1&#45;&gt;Node6</title>
<path fill="none" stroke="midnightblue" d="M2871.99,-97.13C2464.32,-93.26 894.3,-76.24 675.5,-42 672.7,-41.56 669.86,-41.04 667,-40.46"/>
<polygon fill="midnightblue" stroke="midnightblue" points="2872.24,-100.63 2882.27,-97.23 2872.3,-93.63 2872.24,-100.63"/>
</g>
<!-- Node7 -->
<g id="node7" class="node">
<title>Node7</title>
<g id="a_node7"><a xlink:href="unit-cbor_8cpp.html" target="_top" xlink:title=" ">
<polygon fill="white" stroke="black" points="685,-0.5 685,-41.5 804,-41.5 804,-0.5 685,-0.5"/>
<text text-anchor="start" x="693" y="-29.5" font-family="Helvetica,sans-Serif" font-size="10.00">mc_orchestrator/json</text>
<text text-anchor="start" x="693" y="-18.5" font-family="Helvetica,sans-Serif" font-size="10.00">&#45;3.7.3/test/src/unit</text>
<text text-anchor="middle" x="744.5" y="-7.5" font-family="Helvetica,sans-Serif" font-size="10.00">&#45;cbor.cpp</text>
</a>
</g>
</g>
<!-- Node1&#45;&gt;Node7 -->
<g id="edge6" class="edge">
<title>Node1&#45;&gt;Node7</title>
<path fill="none" stroke="midnightblue" d="M2872.32,-96.95C2480.83,-92.48 1018.21,-73.79 813.5,-42 810.42,-41.52 807.28,-40.95 804.13,-40.3"/>
<polygon fill="midnightblue" stroke="midnightblue" points="2872.44,-100.45 2882.48,-97.07 2872.52,-93.45 2872.44,-100.45"/>
</g>
<!-- Node8 -->
<g id="node8" class="node">
<title>Node8</title>
<g id="a_node8"><a xlink:href="unit-class__const__iterator_8cpp.html" target="_top" xlink:title=" ">
<polygon fill="white" stroke="black" points="822.5,-0.5 822.5,-41.5 960.5,-41.5 960.5,-0.5 822.5,-0.5"/>
<text text-anchor="start" x="830.5" y="-29.5" font-family="Helvetica,sans-Serif" font-size="10.00">mc_orchestrator/json</text>
<text text-anchor="start" x="830.5" y="-18.5" font-family="Helvetica,sans-Serif" font-size="10.00">&#45;3.7.3/test/src/unit</text>
<text text-anchor="middle" x="891.5" y="-7.5" font-family="Helvetica,sans-Serif" font-size="10.00">&#45;class_const_iterator.cpp</text>
</a>
</g>
</g>
<!-- Node1&#45;&gt;Node8 -->
<g id="edge7" class="edge">
<title>Node1&#45;&gt;Node8</title>
<path fill="none" stroke="midnightblue" d="M2872.07,-98.14C2525.46,-98.22 1343.48,-94.51 969.5,-42 966.59,-41.59 963.64,-41.12 960.66,-40.59"/>
<polygon fill="midnightblue" stroke="midnightblue" points="2872.33,-101.64 2882.33,-98.14 2872.33,-94.64 2872.33,-101.64"/>
</g>
<!-- Node9 -->
<g id="node9" class="node">
<title>Node9</title>
<g id="a_node9"><a xlink:href="unit-class__iterator_8cpp.html" target="_top" xlink:title=" ">
<polygon fill="white" stroke="black" points="979,-0.5 979,-41.5 1098,-41.5 1098,-0.5 979,-0.5"/>
<text text-anchor="start" x="987" y="-29.5" font-family="Helvetica,sans-Serif" font-size="10.00">mc_orchestrator/json</text>
<text text-anchor="start" x="987" y="-18.5" font-family="Helvetica,sans-Serif" font-size="10.00">&#45;3.7.3/test/src/unit</text>
<text text-anchor="middle" x="1038.5" y="-7.5" font-family="Helvetica,sans-Serif" font-size="10.00">&#45;class_iterator.cpp</text>
</a>
</g>
</g>
<!-- Node1&#45;&gt;Node9 -->
<g id="edge8" class="edge">
<title>Node1&#45;&gt;Node9</title>
<path fill="none" stroke="midnightblue" d="M2872.22,-98.35C2541.24,-99.05 1451.65,-97.01 1106.5,-42 1103.7,-41.55 1100.86,-41.03 1098.01,-40.44"/>
<polygon fill="midnightblue" stroke="midnightblue" points="2872.27,-101.85 2882.26,-98.33 2872.25,-94.85 2872.27,-101.85"/>
</g>
<!-- Node10 -->
<g id="node10" class="node">
<title>Node10</title>
<g id="a_node10"><a xlink:href="unit-class__lexer_8cpp.html" target="_top" xlink:title=" ">
<polygon fill="white" stroke="black" points="1116,-0.5 1116,-41.5 1235,-41.5 1235,-0.5 1116,-0.5"/>
<text text-anchor="start" x="1124" y="-29.5" font-family="Helvetica,sans-Serif" font-size="10.00">mc_orchestrator/json</text>
<text text-anchor="start" x="1124" y="-18.5" font-family="Helvetica,sans-Serif" font-size="10.00">&#45;3.7.3/test/src/unit</text>
<text text-anchor="middle" x="1175.5" y="-7.5" font-family="Helvetica,sans-Serif" font-size="10.00">&#45;class_lexer.cpp</text>
</a>
</g>
</g>
<!-- Node1&#45;&gt;Node10 -->
<g id="edge9" class="edge">
<title>Node1&#45;&gt;Node10</title>
<path fill="none" stroke="midnightblue" d="M2872.42,-98.08C2557.85,-97.84 1560.86,-92.97 1243.5,-42 1240.71,-41.55 1237.86,-41.02 1235.01,-40.43"/>
<polygon fill="midnightblue" stroke="midnightblue" points="2872.42,-101.58 2882.42,-98.09 2872.42,-94.58 2872.42,-101.58"/>
</g>
<!-- Node11 -->
<g id="node11" class="node">
<title>Node11</title>
<g id="a_node11"><a xlink:href="unit-class__parser_8cpp.html" target="_top" xlink:title=" ">
<polygon fill="white" stroke="black" points="1253,-0.5 1253,-41.5 1372,-41.5 1372,-0.5 1253,-0.5"/>
<text text-anchor="start" x="1261" y="-29.5" font-family="Helvetica,sans-Serif" font-size="10.00">mc_orchestrator/json</text>
<text text-anchor="start" x="1261" y="-18.5" font-family="Helvetica,sans-Serif" font-size="10.00">&#45;3.7.3/test/src/unit</text>
<text text-anchor="middle" x="1312.5" y="-7.5" font-family="Helvetica,sans-Serif" font-size="10.00">&#45;class_parser.cpp</text>
</a>
</g>
</g>
<!-- Node1&#45;&gt;Node11 -->
<g id="edge10" class="edge">
<title>Node1&#45;&gt;Node11</title>
<path fill="none" stroke="midnightblue" d="M2872.03,-97.76C2573.89,-96.53 1669.97,-88.91 1380.5,-42 1377.71,-41.55 1374.87,-41.01 1372.01,-40.42"/>
<polygon fill="midnightblue" stroke="midnightblue" points="2872.36,-101.26 2882.38,-97.8 2872.39,-94.26 2872.36,-101.26"/>
</g>
<!-- Node12 -->
<g id="node12" class="node">
<title>Node12</title>
<g id="a_node12"><a xlink:href="unit-comparison_8cpp.html" target="_top" xlink:title=" ">
<polygon fill="white" stroke="black" points="1390,-0.5 1390,-41.5 1509,-41.5 1509,-0.5 1390,-0.5"/>
<text text-anchor="start" x="1398" y="-29.5" font-family="Helvetica,sans-Serif" font-size="10.00">mc_orchestrator/json</text>
<text text-anchor="start" x="1398" y="-18.5" font-family="Helvetica,sans-Serif" font-size="10.00">&#45;3.7.3/test/src/unit</text>
<text text-anchor="middle" x="1449.5" y="-7.5" font-family="Helvetica,sans-Serif" font-size="10.00">&#45;comparison.cpp</text>
</a>
</g>
</g>
<!-- Node1&#45;&gt;Node12 -->
<g id="edge11" class="edge">
<title>Node1&#45;&gt;Node12</title>
<path fill="none" stroke="midnightblue" d="M2872.19,-97.39C2591.81,-95.11 1779.37,-84.88 1517.5,-42 1514.71,-41.54 1511.87,-41.01 1509.01,-40.41"/>
<polygon fill="midnightblue" stroke="midnightblue" points="2872.31,-100.89 2882.34,-97.47 2872.37,-93.89 2872.31,-100.89"/>
</g>
<!-- Node13 -->
<g id="node13" class="node">
<title>Node13</title>
<g id="a_node13"><a xlink:href="unit-concepts_8cpp.html" target="_top" xlink:title=" ">
<polygon fill="white" stroke="black" points="1527,-0.5 1527,-41.5 1646,-41.5 1646,-0.5 1527,-0.5"/>
<text text-anchor="start" x="1535" y="-29.5" font-family="Helvetica,sans-Serif" font-size="10.00">mc_orchestrator/json</text>
<text text-anchor="start" x="1535" y="-18.5" font-family="Helvetica,sans-Serif" font-size="10.00">&#45;3.7.3/test/src/unit</text>
<text text-anchor="middle" x="1586.5" y="-7.5" font-family="Helvetica,sans-Serif" font-size="10.00">&#45;concepts.cpp</text>
</a>
</g>
</g>
<!-- Node1&#45;&gt;Node13 -->
<g id="edge12" class="edge">
<title>Node1&#45;&gt;Node13</title>
<path fill="none" stroke="midnightblue" d="M2871.84,-96.93C2609.6,-93.53 1888.73,-80.84 1654.5,-42 1651.71,-41.54 1648.87,-41 1646.01,-40.39"/>
<polygon fill="midnightblue" stroke="midnightblue" points="2872.06,-100.43 2882.1,-97.06 2872.15,-93.43 2872.06,-100.43"/>
</g>
<!-- Node14 -->
<g id="node14" class="node">
<title>Node14</title>
<g id="a_node14"><a xlink:href="unit-constructor1_8cpp.html" target="_top" xlink:title=" ">
<polygon fill="white" stroke="black" points="1664,-0.5 1664,-41.5 1783,-41.5 1783,-0.5 1664,-0.5"/>
<text text-anchor="start" x="1672" y="-29.5" font-family="Helvetica,sans-Serif" font-size="10.00">mc_orchestrator/json</text>
<text text-anchor="start" x="1672" y="-18.5" font-family="Helvetica,sans-Serif" font-size="10.00">&#45;3.7.3/test/src/unit</text>
<text text-anchor="middle" x="1723.5" y="-7.5" font-family="Helvetica,sans-Serif" font-size="10.00">&#45;constructor1.cpp</text>
</a>
</g>
</g>
<!-- Node1&#45;&gt;Node14 -->
<g id="edge13" class="edge">
<title>Node1&#45;&gt;Node14</title>
<path fill="none" stroke="midnightblue" d="M2872.22,-96.37C2629.73,-91.81 1998.46,-76.84 1791.5,-42 1788.71,-41.53 1785.87,-40.98 1783.02,-40.38"/>
<polygon fill="midnightblue" stroke="midnightblue" points="2872.37,-99.88 2882.43,-96.57 2872.5,-92.88 2872.37,-99.88"/>
</g>
<!-- Node15 -->
<g id="node15" class="node">
<title>Node15</title>
<g id="a_node15"><a xlink:href="unit-constructor2_8cpp.html" target="_top" xlink:title=" ">
<polygon fill="white" stroke="black" points="1801,-0.5 1801,-41.5 1920,-41.5 1920,-0.5 1801,-0.5"/>
<text text-anchor="start" x="1809" y="-29.5" font-family="Helvetica,sans-Serif" font-size="10.00">mc_orchestrator/json</text>
<text text-anchor="start" x="1809" y="-18.5" font-family="Helvetica,sans-Serif" font-size="10.00">&#45;3.7.3/test/src/unit</text>
<text text-anchor="middle" x="1860.5" y="-7.5" font-family="Helvetica,sans-Serif" font-size="10.00">&#45;constructor2.cpp</text>
</a>
</g>
</g>
<!-- Node1&#45;&gt;Node15 -->
<g id="edge14" class="edge">
<title>Node1&#45;&gt;Node15</title>
<path fill="none" stroke="midnightblue" d="M2872.15,-95.67C2650.21,-89.84 2108.2,-72.83 1928.5,-42 1925.71,-41.52 1922.87,-40.97 1920.02,-40.36"/>
<polygon fill="midnightblue" stroke="midnightblue" points="2872.39,-99.18 2882.48,-95.94 2872.57,-92.18 2872.39,-99.18"/>
</g>
<!-- Node16 -->
<g id="node16" class="node">
<title>Node16</title>
<g id="a_node16"><a xlink:href="unit-convenience_8cpp.html" target="_top" xlink:title=" ">
<polygon fill="white" stroke="black" points="1938,-0.5 1938,-41.5 2057,-41.5 2057,-0.5 1938,-0.5"/>
<text text-anchor="start" x="1946" y="-29.5" font-family="Helvetica,sans-Serif" font-size="10.00">mc_orchestrator/json</text>
<text text-anchor="start" x="1946" y="-18.5" font-family="Helvetica,sans-Serif" font-size="10.00">&#45;3.7.3/test/src/unit</text>
<text text-anchor="middle" x="1997.5" y="-7.5" font-family="Helvetica,sans-Serif" font-size="10.00">&#45;convenience.cpp</text>
</a>
</g>
</g>
<!-- Node1&#45;&gt;Node16 -->
<g id="edge15" class="edge">
<title>Node1&#45;&gt;Node16</title>
<path fill="none" stroke="midnightblue" d="M2871.97,-94.75C2671.94,-87.57 2218.13,-68.83 2065.5,-42 2062.71,-41.51 2059.88,-40.95 2057.02,-40.33"/>
<polygon fill="midnightblue" stroke="midnightblue" points="2872.05,-98.26 2882.17,-95.11 2872.3,-91.26 2872.05,-98.26"/>
</g>
<!-- Node17 -->
<g id="node17" class="node">
<title>Node17</title>
<g id="a_node17"><a xlink:href="unit-conversions_8cpp.html" target="_top" xlink:title=" ">
<polygon fill="white" stroke="black" points="2075,-0.5 2075,-41.5 2194,-41.5 2194,-0.5 2075,-0.5"/>
<text text-anchor="start" x="2083" y="-29.5" font-family="Helvetica,sans-Serif" font-size="10.00">mc_orchestrator/json</text>
<text text-anchor="start" x="2083" y="-18.5" font-family="Helvetica,sans-Serif" font-size="10.00">&#45;3.7.3/test/src/unit</text>
<text text-anchor="middle" x="2134.5" y="-7.5" font-family="Helvetica,sans-Serif" font-size="10.00">&#45;conversions.cpp</text>
</a>
</g>
</g>
<!-- Node1&#45;&gt;Node17 -->
<g id="edge16" class="edge">
<title>Node1&#45;&gt;Node17</title>
<path fill="none" stroke="midnightblue" d="M2872.19,-97.51C2726.19,-95.3 2440.65,-85.22 2202.5,-42 2199.72,-41.49 2196.88,-40.92 2194.03,-40.29"/>
<polygon fill="midnightblue" stroke="midnightblue" points="2872.4,-101.02 2882.45,-97.66 2872.5,-94.02 2872.4,-101.02"/>
</g>
<!-- Node18 -->
<g id="node18" class="node">
<title>Node18</title>
<g id="a_node18"><a xlink:href="unit-deserialization_8cpp.html" target="_top" xlink:title=" ">
<polygon fill="white" stroke="black" points="2212,-0.5 2212,-41.5 2331,-41.5 2331,-0.5 2212,-0.5"/>
<text text-anchor="start" x="2220" y="-29.5" font-family="Helvetica,sans-Serif" font-size="10.00">mc_orchestrator/json</text>
<text text-anchor="start" x="2220" y="-18.5" font-family="Helvetica,sans-Serif" font-size="10.00">&#45;3.7.3/test/src/unit</text>
<text text-anchor="middle" x="2271.5" y="-7.5" font-family="Helvetica,sans-Serif" font-size="10.00">&#45;deserialization.cpp</text>
</a>
</g>
</g>
<!-- Node1&#45;&gt;Node18 -->
<g id="edge17" class="edge">
<title>Node1&#45;&gt;Node18</title>
<path fill="none" stroke="midnightblue" d="M2872.07,-95.31C2747.92,-90.51 2525.99,-77.37 2339.5,-42 2336.72,-41.47 2333.89,-40.88 2331.04,-40.23"/>
<polygon fill="midnightblue" stroke="midnightblue" points="2872.18,-98.82 2882.3,-95.7 2872.44,-91.82 2872.18,-98.82"/>
</g>
<!-- Node19 -->
<g id="node19" class="node">
<title>Node19</title>
<g id="a_node19"><a xlink:href="unit-element__access1_8cpp.html" target="_top" xlink:title=" ">
<polygon fill="white" stroke="black" points="2349,-0.5 2349,-41.5 2474,-41.5 2474,-0.5 2349,-0.5"/>
<text text-anchor="start" x="2357" y="-29.5" font-family="Helvetica,sans-Serif" font-size="10.00">mc_orchestrator/json</text>
<text text-anchor="start" x="2357" y="-18.5" font-family="Helvetica,sans-Serif" font-size="10.00">&#45;3.7.3/test/src/unit</text>
<text text-anchor="middle" x="2411.5" y="-7.5" font-family="Helvetica,sans-Serif" font-size="10.00">&#45;element_access1.cpp</text>
</a>
</g>
</g>
<!-- Node1&#45;&gt;Node19 -->
<g id="edge18" class="edge">
<title>Node1&#45;&gt;Node19</title>
<path fill="none" stroke="midnightblue" d="M2872.02,-91.45C2773.45,-83.7 2616.3,-68.38 2482.5,-42 2479.74,-41.46 2476.92,-40.86 2474.09,-40.22"/>
<polygon fill="midnightblue" stroke="midnightblue" points="2872.02,-94.96 2882.26,-92.25 2872.56,-87.98 2872.02,-94.96"/>
</g>
<!-- Node20 -->
<g id="node20" class="node">
<title>Node20</title>
<g id="a_node20"><a xlink:href="unit-element__access2_8cpp.html" target="_top" xlink:title=" ">
<polygon fill="white" stroke="black" points="2492,-0.5 2492,-41.5 2617,-41.5 2617,-0.5 2492,-0.5"/>
<text text-anchor="start" x="2500" y="-29.5" font-family="Helvetica,sans-Serif" font-size="10.00">mc_orchestrator/json</text>
<text text-anchor="start" x="2500" y="-18.5" font-family="Helvetica,sans-Serif" font-size="10.00">&#45;3.7.3/test/src/unit</text>
<text text-anchor="middle" x="2554.5" y="-7.5" font-family="Helvetica,sans-Serif" font-size="10.00">&#45;element_access2.cpp</text>
</a>
</g>
</g>
<!-- Node1&#45;&gt;Node20 -->
<g id="edge19" class="edge">
<title>Node1&#45;&gt;Node20</title>
<path fill="none" stroke="midnightblue" d="M2872.36,-85.26C2803.29,-75.39 2708.17,-60.33 2625.5,-42 2622.75,-41.39 2619.95,-40.74 2617.12,-40.05"/>
<polygon fill="midnightblue" stroke="midnightblue" points="2871.96,-88.74 2882.36,-86.68 2872.95,-81.81 2871.96,-88.74"/>
</g>
<!-- Node21 -->
<g id="node21" class="node">
<title>Node21</title>
<g id="a_node21"><a xlink:href="unit-inspection_8cpp.html" target="_top" xlink:title=" ">
<polygon fill="white" stroke="black" points="2635,-0.5 2635,-41.5 2754,-41.5 2754,-0.5 2635,-0.5"/>
<text text-anchor="start" x="2643" y="-29.5" font-family="Helvetica,sans-Serif" font-size="10.00">mc_orchestrator/json</text>
<text text-anchor="start" x="2643" y="-18.5" font-family="Helvetica,sans-Serif" font-size="10.00">&#45;3.7.3/test/src/unit</text>
<text text-anchor="middle" x="2694.5" y="-7.5" font-family="Helvetica,sans-Serif" font-size="10.00">&#45;inspection.cpp</text>
</a>
</g>
</g>
<!-- Node1&#45;&gt;Node21 -->
<g id="edge20" class="edge">
<title>Node1&#45;&gt;Node21</title>
<path fill="none" stroke="midnightblue" d="M2885.11,-75.75C2847.59,-65.63 2802.77,-53.39 2762.5,-42 2759.78,-41.23 2756.99,-40.44 2754.18,-39.63"/>
<polygon fill="midnightblue" stroke="midnightblue" points="2884.42,-79.19 2894.99,-78.41 2886.24,-72.43 2884.42,-79.19"/>
</g>
<!-- Node22 -->
<g id="node22" class="node">
<title>Node22</title>
<g id="a_node22"><a xlink:href="unit-items_8cpp.html" target="_top" xlink:title=" ">
<polygon fill="white" stroke="black" points="2772,-0.5 2772,-41.5 2891,-41.5 2891,-0.5 2772,-0.5"/>
<text text-anchor="start" x="2780" y="-29.5" font-family="Helvetica,sans-Serif" font-size="10.00">mc_orchestrator/json</text>
<text text-anchor="start" x="2780" y="-18.5" font-family="Helvetica,sans-Serif" font-size="10.00">&#45;3.7.3/test/src/unit</text>
<text text-anchor="middle" x="2831.5" y="-7.5" font-family="Helvetica,sans-Serif" font-size="10.00">&#45;items.cpp</text>
</a>
</g>
</g>
<!-- Node1&#45;&gt;Node22 -->
<g id="edge21" class="edge">
<title>Node1&#45;&gt;Node22</title>
<path fill="none" stroke="midnightblue" d="M2924.31,-73.49C2905.65,-63.13 2884.22,-51.25 2866.66,-41.51"/>
<polygon fill="midnightblue" stroke="midnightblue" points="2922.78,-76.64 2933.22,-78.43 2926.17,-70.52 2922.78,-76.64"/>
</g>
<!-- Node23 -->
<g id="node23" class="node">
<title>Node23</title>
<g id="a_node23"><a xlink:href="unit-iterators1_8cpp.html" target="_top" xlink:title=" ">
<polygon fill="white" stroke="black" points="2909,-0.5 2909,-41.5 3028,-41.5 3028,-0.5 2909,-0.5"/>
<text text-anchor="start" x="2917" y="-29.5" font-family="Helvetica,sans-Serif" font-size="10.00">mc_orchestrator/json</text>
<text text-anchor="start" x="2917" y="-18.5" font-family="Helvetica,sans-Serif" font-size="10.00">&#45;3.7.3/test/src/unit</text>
<text text-anchor="middle" x="2968.5" y="-7.5" font-family="Helvetica,sans-Serif" font-size="10.00">&#45;iterators1.cpp</text>
</a>
</g>
</g>
<!-- Node1&#45;&gt;Node23 -->
<g id="edge22" class="edge">
<title>Node1&#45;&gt;Node23</title>
<path fill="none" stroke="midnightblue" d="M2968.5,-68.3C2968.5,-59.3 2968.5,-49.65 2968.5,-41.51"/>
<polygon fill="midnightblue" stroke="midnightblue" points="2965,-68.43 2968.5,-78.43 2972,-68.43 2965,-68.43"/>
</g>
<!-- Node24 -->
<g id="node24" class="node">
<title>Node24</title>
<g id="a_node24"><a xlink:href="unit-iterators2_8cpp.html" target="_top" xlink:title=" ">
<polygon fill="white" stroke="black" points="3046,-0.5 3046,-41.5 3165,-41.5 3165,-0.5 3046,-0.5"/>
<text text-anchor="start" x="3054" y="-29.5" font-family="Helvetica,sans-Serif" font-size="10.00">mc_orchestrator/json</text>
<text text-anchor="start" x="3054" y="-18.5" font-family="Helvetica,sans-Serif" font-size="10.00">&#45;3.7.3/test/src/unit</text>
<text text-anchor="middle" x="3105.5" y="-7.5" font-family="Helvetica,sans-Serif" font-size="10.00">&#45;iterators2.cpp</text>
</a>
</g>
</g>
<!-- Node1&#45;&gt;Node24 -->
<g id="edge23" class="edge">
<title>Node1&#45;&gt;Node24</title>
<path fill="none" stroke="midnightblue" d="M3012.69,-73.49C3031.35,-63.13 3052.78,-51.25 3070.34,-41.51"/>
<polygon fill="midnightblue" stroke="midnightblue" points="3010.83,-70.52 3003.78,-78.43 3014.22,-76.64 3010.83,-70.52"/>
</g>
<!-- Node25 -->
<g id="node25" class="node">
<title>Node25</title>
<g id="a_node25"><a xlink:href="unit-json__patch_8cpp.html" target="_top" xlink:title=" ">
<polygon fill="white" stroke="black" points="3183,-0.5 3183,-41.5 3302,-41.5 3302,-0.5 3183,-0.5"/>
<text text-anchor="start" x="3191" y="-29.5" font-family="Helvetica,sans-Serif" font-size="10.00">mc_orchestrator/json</text>
<text text-anchor="start" x="3191" y="-18.5" font-family="Helvetica,sans-Serif" font-size="10.00">&#45;3.7.3/test/src/unit</text>
<text text-anchor="middle" x="3242.5" y="-7.5" font-family="Helvetica,sans-Serif" font-size="10.00">&#45;json_patch.cpp</text>
</a>
</g>
</g>
<!-- Node1&#45;&gt;Node25 -->
<g id="edge24" class="edge">
<title>Node1&#45;&gt;Node25</title>
<path fill="none" stroke="midnightblue" d="M3051.89,-75.75C3089.41,-65.63 3134.23,-53.39 3174.5,-42 3177.22,-41.23 3180.01,-40.44 3182.82,-39.63"/>
<polygon fill="midnightblue" stroke="midnightblue" points="3050.76,-72.43 3042.01,-78.41 3052.58,-79.19 3050.76,-72.43"/>
</g>
<!-- Node26 -->
<g id="node26" class="node">
<title>Node26</title>
<g id="a_node26"><a xlink:href="unit-json__pointer_8cpp.html" target="_top" xlink:title=" ">
<polygon fill="white" stroke="black" points="3320,-0.5 3320,-41.5 3439,-41.5 3439,-0.5 3320,-0.5"/>
<text text-anchor="start" x="3328" y="-29.5" font-family="Helvetica,sans-Serif" font-size="10.00">mc_orchestrator/json</text>
<text text-anchor="start" x="3328" y="-18.5" font-family="Helvetica,sans-Serif" font-size="10.00">&#45;3.7.3/test/src/unit</text>
<text text-anchor="middle" x="3379.5" y="-7.5" font-family="Helvetica,sans-Serif" font-size="10.00">&#45;json_pointer.cpp</text>
</a>
</g>
</g>
<!-- Node1&#45;&gt;Node26 -->
<g id="edge25" class="edge">
<title>Node1&#45;&gt;Node26</title>
<path fill="none" stroke="midnightblue" d="M3064.71,-85.55C3133.81,-75.82 3228.93,-60.81 3311.5,-42 3314.26,-41.37 3317.07,-40.69 3319.91,-39.98"/>
<polygon fill="midnightblue" stroke="midnightblue" points="3064.13,-82.1 3054.71,-86.95 3065.09,-89.03 3064.13,-82.1"/>
</g>
<!-- Node27 -->
<g id="node27" class="node">
<title>Node27</title>
<g id="a_node27"><a xlink:href="unit-large__json_8cpp.html" target="_top" xlink:title=" ">
<polygon fill="white" stroke="black" points="3457,-0.5 3457,-41.5 3576,-41.5 3576,-0.5 3457,-0.5"/>
<text text-anchor="start" x="3465" y="-29.5" font-family="Helvetica,sans-Serif" font-size="10.00">mc_orchestrator/json</text>
<text text-anchor="start" x="3465" y="-18.5" font-family="Helvetica,sans-Serif" font-size="10.00">&#45;3.7.3/test/src/unit</text>
<text text-anchor="middle" x="3516.5" y="-7.5" font-family="Helvetica,sans-Serif" font-size="10.00">&#45;large_json.cpp</text>
</a>
</g>
</g>
<!-- Node1&#45;&gt;Node27 -->
<g id="edge26" class="edge">
<title>Node1&#45;&gt;Node27</title>
<path fill="none" stroke="midnightblue" d="M3064.73,-91.61C3162.19,-84 3316.9,-68.83 3448.5,-42 3451.27,-41.43 3454.1,-40.81 3456.94,-40.14"/>
<polygon fill="midnightblue" stroke="midnightblue" points="3064.3,-88.13 3054.6,-92.38 3064.84,-95.11 3064.3,-88.13"/>
</g>
<!-- Node28 -->
<g id="node28" class="node">
<title>Node28</title>
<g id="a_node28"><a xlink:href="unit-merge__patch_8cpp.html" target="_top" xlink:title=" ">
<polygon fill="white" stroke="black" points="3594,-0.5 3594,-41.5 3713,-41.5 3713,-0.5 3594,-0.5"/>
<text text-anchor="start" x="3602" y="-29.5" font-family="Helvetica,sans-Serif" font-size="10.00">mc_orchestrator/json</text>
<text text-anchor="start" x="3602" y="-18.5" font-family="Helvetica,sans-Serif" font-size="10.00">&#45;3.7.3/test/src/unit</text>
<text text-anchor="middle" x="3653.5" y="-7.5" font-family="Helvetica,sans-Serif" font-size="10.00">&#45;merge_patch.cpp</text>
</a>
</g>
</g>
<!-- Node1&#45;&gt;Node28 -->
<g id="edge27" class="edge">
<title>Node1&#45;&gt;Node28</title>
<path fill="none" stroke="midnightblue" d="M3064.64,-95.09C3186.7,-90.07 3403.34,-76.71 3585.5,-42 3588.28,-41.47 3591.11,-40.87 3593.96,-40.23"/>
<polygon fill="midnightblue" stroke="midnightblue" points="3064.42,-91.59 3054.57,-95.49 3064.7,-98.59 3064.42,-91.59"/>
</g>
<!-- Node29 -->
<g id="node29" class="node">
<title>Node29</title>
<g id="a_node29"><a xlink:href="unit-meta_8cpp.html" target="_top" xlink:title=" ">
<polygon fill="white" stroke="black" points="3731,-0.5 3731,-41.5 3850,-41.5 3850,-0.5 3731,-0.5"/>
<text text-anchor="start" x="3739" y="-29.5" font-family="Helvetica,sans-Serif" font-size="10.00">mc_orchestrator/json</text>
<text text-anchor="start" x="3739" y="-18.5" font-family="Helvetica,sans-Serif" font-size="10.00">&#45;3.7.3/test/src/unit</text>
<text text-anchor="middle" x="3790.5" y="-7.5" font-family="Helvetica,sans-Serif" font-size="10.00">&#45;meta.cpp</text>
</a>
</g>
</g>
<!-- Node1&#45;&gt;Node29 -->
<g id="edge28" class="edge">
<title>Node1&#45;&gt;Node29</title>
<path fill="none" stroke="midnightblue" d="M3064.76,-97.35C3208.91,-94.92 3488.87,-84.54 3722.5,-42 3725.28,-41.49 3728.12,-40.92 3730.97,-40.28"/>
<polygon fill="midnightblue" stroke="midnightblue" points="3064.56,-93.85 3054.62,-97.51 3064.67,-100.85 3064.56,-93.85"/>
</g>
<!-- Node30 -->
<g id="node30" class="node">
<title>Node30</title>
<g id="a_node30"><a xlink:href="unit-modifiers_8cpp.html" target="_top" xlink:title=" ">
<polygon fill="white" stroke="black" points="3868,-0.5 3868,-41.5 3987,-41.5 3987,-0.5 3868,-0.5"/>
<text text-anchor="start" x="3876" y="-29.5" font-family="Helvetica,sans-Serif" font-size="10.00">mc_orchestrator/json</text>
<text text-anchor="start" x="3876" y="-18.5" font-family="Helvetica,sans-Serif" font-size="10.00">&#45;3.7.3/test/src/unit</text>
<text text-anchor="middle" x="3927.5" y="-7.5" font-family="Helvetica,sans-Serif" font-size="10.00">&#45;modifiers.cpp</text>
</a>
</g>
</g>
<!-- Node1&#45;&gt;Node30 -->
<g id="edge29" class="edge">
<title>Node1&#45;&gt;Node30</title>
<path fill="none" stroke="midnightblue" d="M3064.72,-98.95C3229,-99.02 3573.56,-92.38 3859.5,-42 3862.29,-41.51 3865.12,-40.94 3867.98,-40.32"/>
<polygon fill="midnightblue" stroke="midnightblue" points="3064.64,-95.45 3054.64,-98.94 3064.64,-102.45 3064.64,-95.45"/>
</g>
<!-- Node31 -->
<g id="node31" class="node">
<title>Node31</title>
<g id="a_node31"><a xlink:href="unit-msgpack_8cpp.html" target="_top" xlink:title=" ">
<polygon fill="white" stroke="black" points="4005,-0.5 4005,-41.5 4124,-41.5 4124,-0.5 4005,-0.5"/>
<text text-anchor="start" x="4013" y="-29.5" font-family="Helvetica,sans-Serif" font-size="10.00">mc_orchestrator/json</text>
<text text-anchor="start" x="4013" y="-18.5" font-family="Helvetica,sans-Serif" font-size="10.00">&#45;3.7.3/test/src/unit</text>
<text text-anchor="middle" x="4064.5" y="-7.5" font-family="Helvetica,sans-Serif" font-size="10.00">&#45;msgpack.cpp</text>
</a>
</g>
</g>
<!-- Node1&#45;&gt;Node31 -->
<g id="edge30" class="edge">
<title>Node1&#45;&gt;Node31</title>
<path fill="none" stroke="midnightblue" d="M3064.95,-95.6C3285.08,-89.65 3819.2,-72.48 3996.5,-42 3999.29,-41.52 4002.13,-40.97 4004.98,-40.35"/>
<polygon fill="midnightblue" stroke="midnightblue" points="3064.61,-92.11 3054.7,-95.87 3064.79,-99.1 3064.61,-92.11"/>
</g>
<!-- Node32 -->
<g id="node32" class="node">
<title>Node32</title>
<g id="a_node32"><a xlink:href="unit-noexcept_8cpp.html" target="_top" xlink:title=" ">
<polygon fill="white" stroke="black" points="4142,-0.5 4142,-41.5 4261,-41.5 4261,-0.5 4142,-0.5"/>
<text text-anchor="start" x="4150" y="-29.5" font-family="Helvetica,sans-Serif" font-size="10.00">mc_orchestrator/json</text>
<text text-anchor="start" x="4150" y="-18.5" font-family="Helvetica,sans-Serif" font-size="10.00">&#45;3.7.3/test/src/unit</text>
<text text-anchor="middle" x="4201.5" y="-7.5" font-family="Helvetica,sans-Serif" font-size="10.00">&#45;noexcept.cpp</text>
</a>
</g>
</g>
<!-- Node1&#45;&gt;Node32 -->
<g id="edge31" class="edge">
<title>Node1&#45;&gt;Node32</title>
<path fill="none" stroke="midnightblue" d="M3064.66,-96.32C3305.31,-91.65 3928.9,-76.5 4133.5,-42 4136.29,-41.53 4139.13,-40.98 4141.98,-40.38"/>
<polygon fill="midnightblue" stroke="midnightblue" points="3064.46,-92.83 3054.53,-96.52 3064.6,-99.82 3064.46,-92.83"/>
</g>
<!-- Node33 -->
<g id="node33" class="node">
<title>Node33</title>
<g id="a_node33"><a xlink:href="unit-pointer__access_8cpp.html" target="_top" xlink:title=" ">
<polygon fill="white" stroke="black" points="4279,-0.5 4279,-41.5 4398,-41.5 4398,-0.5 4279,-0.5"/>
<text text-anchor="start" x="4287" y="-29.5" font-family="Helvetica,sans-Serif" font-size="10.00">mc_orchestrator/json</text>
<text text-anchor="start" x="4287" y="-18.5" font-family="Helvetica,sans-Serif" font-size="10.00">&#45;3.7.3/test/src/unit</text>
<text text-anchor="middle" x="4338.5" y="-7.5" font-family="Helvetica,sans-Serif" font-size="10.00">&#45;pointer_access.cpp</text>
</a>
</g>
</g>
<!-- Node1&#45;&gt;Node33 -->
<g id="edge32" class="edge">
<title>Node1&#45;&gt;Node33</title>
<path fill="none" stroke="midnightblue" d="M3064.74,-96.89C3324.97,-93.4 4038.55,-80.51 4270.5,-42 4273.29,-41.54 4276.13,-40.99 4278.99,-40.39"/>
<polygon fill="midnightblue" stroke="midnightblue" points="3064.51,-93.39 3054.56,-97.02 3064.6,-100.39 3064.51,-93.39"/>
</g>
<!-- Node34 -->
<g id="node34" class="node">
<title>Node34</title>
<g id="a_node34"><a xlink:href="unit-readme_8cpp.html" target="_top" xlink:title=" ">
<polygon fill="white" stroke="black" points="4416,-0.5 4416,-41.5 4535,-41.5 4535,-0.5 4416,-0.5"/>
<text text-anchor="start" x="4424" y="-29.5" font-family="Helvetica,sans-Serif" font-size="10.00">mc_orchestrator/json</text>
<text text-anchor="start" x="4424" y="-18.5" font-family="Helvetica,sans-Serif" font-size="10.00">&#45;3.7.3/test/src/unit</text>
<text text-anchor="middle" x="4475.5" y="-7.5" font-family="Helvetica,sans-Serif" font-size="10.00">&#45;readme.cpp</text>
</a>
</g>
</g>
<!-- Node1&#45;&gt;Node34 -->
<g id="edge33" class="edge">
<title>Node1&#45;&gt;Node34</title>
<path fill="none" stroke="midnightblue" d="M3064.99,-97.35C3343.97,-94.97 4148.1,-84.52 4407.5,-42 4410.29,-41.54 4413.13,-41.01 4415.99,-40.41"/>
<polygon fill="midnightblue" stroke="midnightblue" points="3064.86,-93.85 3054.89,-97.43 3064.92,-100.85 3064.86,-93.85"/>
</g>
<!-- Node35 -->
<g id="node35" class="node">
<title>Node35</title>
<g id="a_node35"><a xlink:href="unit-reference__access_8cpp.html" target="_top" xlink:title=" ">
<polygon fill="white" stroke="black" points="4553,-0.5 4553,-41.5 4678,-41.5 4678,-0.5 4553,-0.5"/>
<text text-anchor="start" x="4561" y="-29.5" font-family="Helvetica,sans-Serif" font-size="10.00">mc_orchestrator/json</text>
<text text-anchor="start" x="4561" y="-18.5" font-family="Helvetica,sans-Serif" font-size="10.00">&#45;3.7.3/test/src/unit</text>
<text text-anchor="middle" x="4615.5" y="-7.5" font-family="Helvetica,sans-Serif" font-size="10.00">&#45;reference_access.cpp</text>
</a>
</g>
</g>
<!-- Node1&#45;&gt;Node35 -->
<g id="edge34" class="edge">
<title>Node1&#45;&gt;Node35</title>
<path fill="none" stroke="midnightblue" d="M3065.25,-97.59C3362.12,-95.84 4257.29,-86.89 4544.5,-42 4547.28,-41.56 4550.11,-41.06 4552.96,-40.49"/>
<polygon fill="midnightblue" stroke="midnightblue" points="3064.93,-94.09 3054.95,-97.65 3064.97,-101.09 3064.93,-94.09"/>
</g>
<!-- Node36 -->
<g id="node36" class="node">
<title>Node36</title>
<g id="a_node36"><a xlink:href="unit-regression_8cpp.html" target="_top" xlink:title=" ">
<polygon fill="white" stroke="black" points="4696,-0.5 4696,-41.5 4815,-41.5 4815,-0.5 4696,-0.5"/>
<text text-anchor="start" x="4704" y="-29.5" font-family="Helvetica,sans-Serif" font-size="10.00">mc_orchestrator/json</text>
<text text-anchor="start" x="4704" y="-18.5" font-family="Helvetica,sans-Serif" font-size="10.00">&#45;3.7.3/test/src/unit</text>
<text text-anchor="middle" x="4755.5" y="-7.5" font-family="Helvetica,sans-Serif" font-size="10.00">&#45;regression.cpp</text>
</a>
</g>
</g>
<!-- Node1&#45;&gt;Node36 -->
<g id="edge35" class="edge">
<title>Node1&#45;&gt;Node36</title>
<path fill="none" stroke="midnightblue" d="M3064.99,-98.07C3379.28,-97.78 4371.49,-92.77 4687.5,-42 4690.29,-41.55 4693.14,-41.02 4695.99,-40.43"/>
<polygon fill="midnightblue" stroke="midnightblue" points="3064.54,-94.57 3054.54,-98.07 3064.54,-101.57 3064.54,-94.57"/>
</g>
<!-- Node37 -->
<g id="node37" class="node">
<title>Node37</title>
<g id="a_node37"><a xlink:href="unit-serialization_8cpp.html" target="_top" xlink:title=" ">
<polygon fill="white" stroke="black" points="4833,-0.5 4833,-41.5 4952,-41.5 4952,-0.5 4833,-0.5"/>
<text text-anchor="start" x="4841" y="-29.5" font-family="Helvetica,sans-Serif" font-size="10.00">mc_orchestrator/json</text>
<text text-anchor="start" x="4841" y="-18.5" font-family="Helvetica,sans-Serif" font-size="10.00">&#45;3.7.3/test/src/unit</text>
<text text-anchor="middle" x="4892.5" y="-7.5" font-family="Helvetica,sans-Serif" font-size="10.00">&#45;serialization.cpp</text>
</a>
</g>
</g>
<!-- Node1&#45;&gt;Node37 -->
<g id="edge36" class="edge">
<title>Node1&#45;&gt;Node37</title>
<path fill="none" stroke="midnightblue" d="M3064.76,-98.34C3395,-99 4480.57,-96.84 4824.5,-42 4827.29,-41.55 4830.14,-41.03 4832.99,-40.44"/>
<polygon fill="midnightblue" stroke="midnightblue" points="3064.74,-94.84 3054.74,-98.32 3064.73,-101.84 3064.74,-94.84"/>
</g>
<!-- Node38 -->
<g id="node38" class="node">
<title>Node38</title>
<g id="a_node38"><a xlink:href="unit-testsuites_8cpp.html" target="_top" xlink:title=" ">
<polygon fill="white" stroke="black" points="4970,-0.5 4970,-41.5 5089,-41.5 5089,-0.5 4970,-0.5"/>
<text text-anchor="start" x="4978" y="-29.5" font-family="Helvetica,sans-Serif" font-size="10.00">mc_orchestrator/json</text>
<text text-anchor="start" x="4978" y="-18.5" font-family="Helvetica,sans-Serif" font-size="10.00">&#45;3.7.3/test/src/unit</text>
<text text-anchor="middle" x="5029.5" y="-7.5" font-family="Helvetica,sans-Serif" font-size="10.00">&#45;testsuites.cpp</text>
</a>
</g>
</g>
<!-- Node1&#45;&gt;Node38 -->
<g id="edge37" class="edge">
<title>Node1&#45;&gt;Node38</title>
<path fill="none" stroke="midnightblue" d="M3064.8,-96.75C3437.46,-91.72 4773.52,-71.77 4961.5,-42 4964.3,-41.56 4967.14,-41.03 4970,-40.44"/>
<polygon fill="midnightblue" stroke="midnightblue" points="3064.54,-93.25 3054.59,-96.89 3064.63,-100.25 3064.54,-93.25"/>
</g>
<!-- Node39 -->
<g id="node39" class="node">
<title>Node39</title>
<g id="a_node39"><a xlink:href="unit-to__chars_8cpp.html" target="_top" xlink:title=" ">
<polygon fill="white" stroke="black" points="5107,-0.5 5107,-41.5 5226,-41.5 5226,-0.5 5107,-0.5"/>
<text text-anchor="start" x="5115" y="-29.5" font-family="Helvetica,sans-Serif" font-size="10.00">mc_orchestrator/json</text>
<text text-anchor="start" x="5115" y="-18.5" font-family="Helvetica,sans-Serif" font-size="10.00">&#45;3.7.3/test/src/unit</text>
<text text-anchor="middle" x="5166.5" y="-7.5" font-family="Helvetica,sans-Serif" font-size="10.00">&#45;to_chars.cpp</text>
</a>
</g>
</g>
<!-- Node1&#45;&gt;Node39 -->
<g id="edge38" class="edge">
<title>Node1&#45;&gt;Node39</title>
<path fill="none" stroke="midnightblue" d="M3064.87,-96.94C3453.76,-92.45 4896.46,-73.81 5098.5,-42 5101.3,-41.56 5104.14,-41.04 5107,-40.45"/>
<polygon fill="midnightblue" stroke="midnightblue" points="3064.73,-93.44 3054.77,-97.05 3064.81,-100.44 3064.73,-93.44"/>
</g>
<!-- Node40 -->
<g id="node40" class="node">
<title>Node40</title>
<g id="a_node40"><a xlink:href="unit-ubjson_8cpp.html" target="_top" xlink:title=" ">
<polygon fill="white" stroke="black" points="5244,-0.5 5244,-41.5 5363,-41.5 5363,-0.5 5244,-0.5"/>
<text text-anchor="start" x="5252" y="-29.5" font-family="Helvetica,sans-Serif" font-size="10.00">mc_orchestrator/json</text>
<text text-anchor="start" x="5252" y="-18.5" font-family="Helvetica,sans-Serif" font-size="10.00">&#45;3.7.3/test/src/unit</text>
<text text-anchor="middle" x="5303.5" y="-7.5" font-family="Helvetica,sans-Serif" font-size="10.00">&#45;ubjson.cpp</text>
</a>
</g>
</g>
<!-- Node1&#45;&gt;Node40 -->
<g id="edge39" class="edge">
<title>Node1&#45;&gt;Node40</title>
<path fill="none" stroke="midnightblue" d="M3064.93,-97.1C3469.55,-93.14 5019.37,-75.85 5235.5,-42 5238.3,-41.56 5241.14,-41.04 5244,-40.46"/>
<polygon fill="midnightblue" stroke="midnightblue" points="3064.69,-93.6 3054.72,-97.2 3064.76,-100.6 3064.69,-93.6"/>
</g>
<!-- Node41 -->
<g id="node41" class="node">
<title>Node41</title>
<g id="a_node41"><a xlink:href="unit-udt_8cpp.html" target="_top" xlink:title=" ">
<polygon fill="white" stroke="black" points="5381,-0.5 5381,-41.5 5500,-41.5 5500,-0.5 5381,-0.5"/>
<text text-anchor="start" x="5389" y="-29.5" font-family="Helvetica,sans-Serif" font-size="10.00">mc_orchestrator/json</text>
<text text-anchor="start" x="5389" y="-18.5" font-family="Helvetica,sans-Serif" font-size="10.00">&#45;3.7.3/test/src/unit</text>
<text text-anchor="middle" x="5440.5" y="-7.5" font-family="Helvetica,sans-Serif" font-size="10.00">&#45;udt.cpp</text>
</a>
</g>
</g>
<!-- Node1&#45;&gt;Node41 -->
<g id="edge40" class="edge">
<title>Node1&#45;&gt;Node41</title>
<path fill="none" stroke="midnightblue" d="M3064.78,-97.25C3484.32,-93.78 5142.21,-77.91 5372.5,-42 5375.3,-41.56 5378.14,-41.04 5381,-40.46"/>
<polygon fill="midnightblue" stroke="midnightblue" points="3064.47,-93.75 3054.5,-97.34 3064.53,-100.75 3064.47,-93.75"/>
</g>
<!-- Node42 -->
<g id="node42" class="node">
<title>Node42</title>
<g id="a_node42"><a xlink:href="unit-unicode_8cpp.html" target="_top" xlink:title=" ">
<polygon fill="white" stroke="black" points="5518,-0.5 5518,-41.5 5637,-41.5 5637,-0.5 5518,-0.5"/>
<text text-anchor="start" x="5526" y="-29.5" font-family="Helvetica,sans-Serif" font-size="10.00">mc_orchestrator/json</text>
<text text-anchor="start" x="5526" y="-18.5" font-family="Helvetica,sans-Serif" font-size="10.00">&#45;3.7.3/test/src/unit</text>
<text text-anchor="middle" x="5577.5" y="-7.5" font-family="Helvetica,sans-Serif" font-size="10.00">&#45;unicode.cpp</text>
</a>
</g>
</g>
<!-- Node1&#45;&gt;Node42 -->
<g id="edge41" class="edge">
<title>Node1&#45;&gt;Node42</title>
<path fill="none" stroke="midnightblue" d="M3064.83,-97.38C3499.21,-94.38 5265.06,-79.95 5509.5,-42 5512.3,-41.57 5515.14,-41.05 5518,-40.47"/>
<polygon fill="midnightblue" stroke="midnightblue" points="3064.49,-93.88 3054.51,-97.45 3064.54,-100.88 3064.49,-93.88"/>
</g>
<!-- Node43 -->
<g id="node43" class="node">
<title>Node43</title>
<g id="a_node43"><a xlink:href="unit-wstring_8cpp.html" target="_top" xlink:title=" ">
<polygon fill="white" stroke="black" points="5655,-0.5 5655,-41.5 5774,-41.5 5774,-0.5 5655,-0.5"/>
<text text-anchor="start" x="5663" y="-29.5" font-family="Helvetica,sans-Serif" font-size="10.00">mc_orchestrator/json</text>
<text text-anchor="start" x="5663" y="-18.5" font-family="Helvetica,sans-Serif" font-size="10.00">&#45;3.7.3/test/src/unit</text>
<text text-anchor="middle" x="5714.5" y="-7.5" font-family="Helvetica,sans-Serif" font-size="10.00">&#45;wstring.cpp</text>
</a>
</g>
</g>
<!-- Node1&#45;&gt;Node43 -->
<g id="edge42" class="edge">
<title>Node1&#45;&gt;Node43</title>
<path fill="none" stroke="midnightblue" d="M3064.85,-97.5C3513.61,-94.95 5387.88,-82.01 5646.5,-42 5649.3,-41.57 5652.14,-41.05 5655,-40.47"/>
<polygon fill="midnightblue" stroke="midnightblue" points="3064.81,-94 3054.83,-97.55 3064.85,-101 3064.81,-94"/>
</g>
<!-- Node44 -->
<g id="node44" class="node">
<title>Node44</title>
<g id="a_node44"><a xlink:href="unit_8cpp.html" target="_top" xlink:title=" ">
<polygon fill="white" stroke="black" points="5792,-6 5792,-36 5917,-36 5917,-6 5792,-6"/>
<text text-anchor="start" x="5800" y="-24" font-family="Helvetica,sans-Serif" font-size="10.00">mc_orchestrator/json</text>
<text text-anchor="middle" x="5854.5" y="-13" font-family="Helvetica,sans-Serif" font-size="10.00">&#45;3.7.3/test/src/unit.cpp</text>
</a>
</g>
</g>
<!-- Node1&#45;&gt;Node44 -->
<g id="edge43" class="edge">
<title>Node1&#45;&gt;Node44</title>
<path fill="none" stroke="midnightblue" d="M3065.14,-97.54C3528.38,-95.12 5510.5,-82.49 5783.5,-42 5792.62,-40.65 5802.23,-38.47 5811.32,-36.05"/>
<polygon fill="midnightblue" stroke="midnightblue" points="3064.79,-94.04 3054.81,-97.59 3064.83,-101.04 3064.79,-94.04"/>
</g>
</g>
</svg>
