<?xml version="1.0" encoding="UTF-8" standalone="no"?>
<!DOCTYPE svg PUBLIC "-//W3C//DTD SVG 1.1//EN"
 "http://www.w3.org/Graphics/SVG/1.1/DTD/svg11.dtd">
<!-- Generated by graphviz version 2.43.0 (0)
 -->
<!-- Title: main Pages: 1 -->
<!--zoomable 351 -->
<svg id="main" version="1.1" xmlns="http://www.w3.org/2000/svg" xmlns:xlink="http://www.w3.org/1999/xlink" xml:space="preserve" onload="init(evt)">
<style type="text/css"><![CDATA[
.edge:hover path { stroke: red; }
.edge:hover polygon { stroke: red; fill: red; }
]]></style>
<script type="text/javascript"><![CDATA[
var edges = document.getElementsByTagName('g');
if (edges && edges.length) {
  for (var i=0;i<edges.length;i++) {
    if (edges[i].id.substr(0,4)=='edge') {
      edges[i].setAttribute('class','edge');
    }
  }
}
]]></script>
        <defs>
                <circle id="rim" cx="0" cy="0" r="7"/>
                <circle id="rim2" cx="0" cy="0" r="3.5"/>
                <g id="zoomPlus">
                        <use xlink:href="#rim" fill="#404040">
                                <set attributeName="fill" to="#808080" begin="zoomplus.mouseover" end="zoomplus.mouseout"/>
                        </use>
                        <path d="M-4,0h8M0,-4v8" fill="none" stroke="white" stroke-width="1.5" pointer-events="none"/>
                </g>
                <g id="zoomMin">
                        <use xlink:href="#rim" fill="#404040">
                                <set attributeName="fill" to="#808080" begin="zoomminus.mouseover" end="zoomminus.mouseout"/>
                        </use>
                        <path d="M-4,0h8" fill="none" stroke="white" stroke-width="1.5" pointer-events="none"/>
                </g>
                <g id="dirArrow">
                        <path fill="none" stroke="white" stroke-width="1.5" d="M0,-3.0v7 M-2.5,-0.5L0,-3.0L2.5,-0.5"/>
                </g>
               <g id="resetDef">
                       <use xlink:href="#rim2" fill="#404040">
                               <set attributeName="fill" to="#808080" begin="reset.mouseover" end="reset.mouseout"/>
                       </use>
               </g>
        </defs>

<script type="text/javascript">
var viewWidth = 1118;
var viewHeight = 351;
var sectionId = 'dynsection-1';
</script>
<script xlink:href="svgpan.js"/>
<svg id="graph" class="graph">
<g id="viewport">
<title>main</title>
<polygon fill="white" stroke="transparent" points="-4,4 -4,-346.62 1114,-346.62 1114,4 -4,4"/>
<!-- Node1 -->
<g id="node1" class="node">
<title>Node1</title>
<g id="a_node1"><a xlink:title=" ">
<polygon fill="#bfbfbf" stroke="black" points="0,-164 0,-183 41,-183 41,-164 0,-164"/>
<text text-anchor="middle" x="20.5" y="-171" font-family="Helvetica,sans-Serif" font-size="10.00">main</text>
</a>
</g>
</g>
<!-- Node2 -->
<g id="node2" class="node">
<title>Node2</title>
<g id="a_node2"><a xlink:href="classnlohmann_1_1basic__json.html#a50ec80b02d0f3f51130d4abb5d1cfdc5" target="_top" xlink:title="serialization">
<polygon fill="white" stroke="black" points="92.5,-183.5 92.5,-213.5 214.5,-213.5 214.5,-183.5 92.5,-183.5"/>
<text text-anchor="start" x="100.5" y="-201.5" font-family="Helvetica,sans-Serif" font-size="10.00">nlohmann::basic_json</text>
<text text-anchor="middle" x="153.5" y="-190.5" font-family="Helvetica,sans-Serif" font-size="10.00">::dump</text>
</a>
</g>
</g>
<!-- Node1&#45;&gt;Node2 -->
<g id="edge1" class="edge">
<title>Node1&#45;&gt;Node2</title>
<path fill="none" stroke="midnightblue" d="M41.11,-177.24C52.35,-179.39 67.22,-182.23 82.42,-185.13"/>
<polygon fill="midnightblue" stroke="midnightblue" points="81.94,-188.6 92.42,-187.03 83.25,-181.72 81.94,-188.6"/>
</g>
<!-- Node16 -->
<g id="node16" class="node">
<title>Node16</title>
<g id="a_node16"><a xlink:href="classnlohmann_1_1detail_1_1exception.html#a11fe48748e811531614c84883b00ccd5" target="_top" xlink:title="returns the explanatory string">
<polygon fill="white" stroke="black" points="77,-134.5 77,-164.5 230,-164.5 230,-134.5 77,-134.5"/>
<text text-anchor="start" x="85" y="-152.5" font-family="Helvetica,sans-Serif" font-size="10.00">nlohmann::detail::exception</text>
<text text-anchor="middle" x="153.5" y="-141.5" font-family="Helvetica,sans-Serif" font-size="10.00">::what</text>
</a>
</g>
</g>
<!-- Node1&#45;&gt;Node16 -->
<g id="edge19" class="edge">
<title>Node1&#45;&gt;Node16</title>
<path fill="none" stroke="midnightblue" d="M41.11,-169.91C48.42,-168.57 57.27,-166.95 66.74,-165.21"/>
<polygon fill="midnightblue" stroke="midnightblue" points="67.59,-168.61 76.79,-163.37 66.33,-161.73 67.59,-168.61"/>
</g>
<!-- Node3 -->
<g id="node3" class="node">
<title>Node3</title>
<g id="a_node3"><a xlink:href="classnlohmann_1_1detail_1_1serializer.html#a95460ebd1a535a543e5a0ec52e00f48b" target="_top" xlink:title="internal implementation of the serialization function">
<polygon fill="white" stroke="black" points="266,-183.5 266,-213.5 416,-213.5 416,-183.5 266,-183.5"/>
<text text-anchor="start" x="274" y="-201.5" font-family="Helvetica,sans-Serif" font-size="10.00">nlohmann::detail::serializer</text>
<text text-anchor="middle" x="341" y="-190.5" font-family="Helvetica,sans-Serif" font-size="10.00">::dump</text>
</a>
</g>
</g>
<!-- Node2&#45;&gt;Node3 -->
<g id="edge2" class="edge">
<title>Node2&#45;&gt;Node3</title>
<path fill="none" stroke="midnightblue" d="M214.73,-198.5C227.84,-198.5 241.94,-198.5 255.79,-198.5"/>
<polygon fill="midnightblue" stroke="midnightblue" points="255.8,-202 265.8,-198.5 255.8,-195 255.8,-202"/>
</g>
<!-- Node4 -->
<g id="node4" class="node">
<title>Node4</title>
<g id="a_node4"><a xlink:href="FuzzerTracePC_8cpp.html#a1f10ac78bd11294b612636121065eb5b" target="_top" xlink:title=" ">
<polygon fill="white" stroke="black" points="877,-301 877,-320 924,-320 924,-301 877,-301"/>
<text text-anchor="middle" x="900.5" y="-308" font-family="Helvetica,sans-Serif" font-size="10.00">assert</text>
</a>
</g>
</g>
<!-- Node3&#45;&gt;Node4 -->
<g id="edge3" class="edge">
<title>Node3&#45;&gt;Node4</title>
<path fill="none" stroke="midnightblue" d="M356.11,-213.74C375.68,-233.94 413.07,-269.26 452,-288.5 587.02,-355.23 638.11,-347.15 788,-332.5 814.79,-329.88 844.68,-323.81 866.77,-318.71"/>
<polygon fill="midnightblue" stroke="midnightblue" points="867.71,-322.08 876.63,-316.37 866.09,-315.27 867.71,-322.08"/>
</g>
<!-- Node5 -->
<g id="node5" class="node">
<title>Node5</title>
<g id="a_node5"><a xlink:href="classnlohmann_1_1detail_1_1serializer.html#ac1f8d1165b44149bd8be397dce68ea05" target="_top" xlink:title="dump escaped string">
<polygon fill="white" stroke="black" points="452,-142.5 452,-172.5 602,-172.5 602,-142.5 452,-142.5"/>
<text text-anchor="start" x="460" y="-160.5" font-family="Helvetica,sans-Serif" font-size="10.00">nlohmann::detail::serializer</text>
<text text-anchor="middle" x="527" y="-149.5" font-family="Helvetica,sans-Serif" font-size="10.00">::dump_escaped</text>
</a>
</g>
</g>
<!-- Node3&#45;&gt;Node5 -->
<g id="edge4" class="edge">
<title>Node3&#45;&gt;Node5</title>
<path fill="none" stroke="midnightblue" d="M409.47,-183.47C422.22,-180.62 435.65,-177.63 448.67,-174.73"/>
<polygon fill="midnightblue" stroke="midnightblue" points="449.54,-178.12 458.54,-172.53 448.02,-171.29 449.54,-178.12"/>
</g>
<!-- Node12 -->
<g id="node12" class="node">
<title>Node12</title>
<g id="a_node12"><a xlink:href="classnlohmann_1_1detail_1_1serializer.html#a6d652a3bfa581cf1cd7790d6d11ea52f" target="_top" xlink:title="dump a floating&#45;point number">
<polygon fill="white" stroke="black" points="452,-93.5 452,-123.5 602,-123.5 602,-93.5 452,-93.5"/>
<text text-anchor="start" x="460" y="-111.5" font-family="Helvetica,sans-Serif" font-size="10.00">nlohmann::detail::serializer</text>
<text text-anchor="middle" x="527" y="-100.5" font-family="Helvetica,sans-Serif" font-size="10.00">::dump_float</text>
</a>
</g>
</g>
<!-- Node3&#45;&gt;Node12 -->
<g id="edge13" class="edge">
<title>Node3&#45;&gt;Node12</title>
<path fill="none" stroke="midnightblue" d="M363.94,-183.3C385.58,-168.8 419.97,-147.07 452,-132.5 456.12,-130.62 460.43,-128.83 464.81,-127.12"/>
<polygon fill="midnightblue" stroke="midnightblue" points="466.31,-130.3 474.47,-123.54 463.88,-123.74 466.31,-130.3"/>
</g>
<!-- Node13 -->
<g id="node13" class="node">
<title>Node13</title>
<g id="a_node13"><a xlink:href="classnlohmann_1_1detail_1_1serializer.html#a944f6dea8dbe2961da145d2f62fa2c2f" target="_top" xlink:title="dump an integer">
<polygon fill="white" stroke="black" points="452,-248.5 452,-278.5 602,-278.5 602,-248.5 452,-248.5"/>
<text text-anchor="start" x="460" y="-266.5" font-family="Helvetica,sans-Serif" font-size="10.00">nlohmann::detail::serializer</text>
<text text-anchor="middle" x="527" y="-255.5" font-family="Helvetica,sans-Serif" font-size="10.00">::dump_integer</text>
</a>
</g>
</g>
<!-- Node3&#45;&gt;Node13 -->
<g id="edge14" class="edge">
<title>Node3&#45;&gt;Node13</title>
<path fill="none" stroke="midnightblue" d="M384.68,-213.58C411.17,-222.94 445.42,-235.03 473.56,-244.97"/>
<polygon fill="midnightblue" stroke="midnightblue" points="472.64,-248.36 483.24,-248.39 474.97,-241.76 472.64,-248.36"/>
</g>
<!-- Node5&#45;&gt;Node4 -->
<g id="edge5" class="edge">
<title>Node5&#45;&gt;Node4</title>
<path fill="none" stroke="midnightblue" d="M602.19,-169.94C667.09,-181.56 755.87,-199.48 788,-215.5 827.55,-235.22 864.79,-271.95 884.63,-293.51"/>
<polygon fill="midnightblue" stroke="midnightblue" points="882.05,-295.87 891.35,-300.96 887.25,-291.19 882.05,-295.87"/>
</g>
<!-- Node6 -->
<g id="node6" class="node">
<title>Node6</title>
<g id="a_node6"><a xlink:href="classnlohmann_1_1detail_1_1type__error.html#aecc083aea4b698c33d042670ba50c10f" target="_top" xlink:title=" ">
<polygon fill="white" stroke="black" points="649.5,-98.5 649.5,-128.5 776.5,-128.5 776.5,-98.5 649.5,-98.5"/>
<text text-anchor="start" x="657.5" y="-116.5" font-family="Helvetica,sans-Serif" font-size="10.00">nlohmann::detail::type</text>
<text text-anchor="middle" x="713" y="-105.5" font-family="Helvetica,sans-Serif" font-size="10.00">_error::create</text>
</a>
</g>
</g>
<!-- Node5&#45;&gt;Node6 -->
<g id="edge6" class="edge">
<title>Node5&#45;&gt;Node6</title>
<path fill="none" stroke="midnightblue" d="M590.81,-142.48C606.5,-138.73 623.45,-134.67 639.57,-130.82"/>
<polygon fill="midnightblue" stroke="midnightblue" points="640.56,-134.18 649.48,-128.45 638.94,-127.37 640.56,-134.18"/>
</g>
<!-- Node8 -->
<g id="node8" class="node">
<title>Node8</title>
<g id="a_node8"><a xlink:href="namespacehttplib.html#a498c3a79825ecbcb15c52ec5fcfd5c11" target="_top" xlink:title=" ">
<polygon fill="white" stroke="black" points="1013,-126 1013,-145 1110,-145 1110,-126 1013,-126"/>
<text text-anchor="middle" x="1061.5" y="-133" font-family="Helvetica,sans-Serif" font-size="10.00">httplib::to_string</text>
</a>
</g>
</g>
<!-- Node5&#45;&gt;Node8 -->
<g id="edge12" class="edge">
<title>Node5&#45;&gt;Node8</title>
<path fill="none" stroke="midnightblue" d="M602.04,-154.44C709.16,-150.02 905.16,-141.92 1002.49,-137.9"/>
<polygon fill="midnightblue" stroke="midnightblue" points="1002.88,-141.38 1012.72,-137.47 1002.59,-134.39 1002.88,-141.38"/>
</g>
<!-- Node10 -->
<g id="node10" class="node">
<title>Node10</title>
<g id="a_node10"><a xlink:href="classnlohmann_1_1detail_1_1serializer.html#abdcc4fd1dc5d3afb6c0817e4c89b1242" target="_top" xlink:title="check whether a string is UTF&#45;8 encoded">
<polygon fill="white" stroke="black" points="638,-49.5 638,-79.5 788,-79.5 788,-49.5 638,-49.5"/>
<text text-anchor="start" x="646" y="-67.5" font-family="Helvetica,sans-Serif" font-size="10.00">nlohmann::detail::serializer</text>
<text text-anchor="middle" x="713" y="-56.5" font-family="Helvetica,sans-Serif" font-size="10.00">::decode</text>
</a>
</g>
</g>
<!-- Node5&#45;&gt;Node10 -->
<g id="edge10" class="edge">
<title>Node5&#45;&gt;Node10</title>
<path fill="none" stroke="midnightblue" d="M583.8,-142.48C590.2,-139.66 596.42,-136.36 602,-132.5 622.78,-118.12 617.14,-102.75 638,-88.5 640.27,-86.95 642.66,-85.49 645.11,-84.12"/>
<polygon fill="midnightblue" stroke="midnightblue" points="646.89,-87.14 654.28,-79.55 643.77,-80.88 646.89,-87.14"/>
</g>
<!-- Node11 -->
<g id="node11" class="node">
<title>Node11</title>
<g id="a_node11"><a xlink:href="classnlohmann_1_1detail_1_1binary__writer.html#ab77aa48692bd4e64e4f051ce6aeb6d2d" target="_top" xlink:title=" ">
<polygon fill="white" stroke="black" points="645,-0.5 645,-30.5 781,-30.5 781,-0.5 645,-0.5"/>
<text text-anchor="start" x="653" y="-18.5" font-family="Helvetica,sans-Serif" font-size="10.00">nlohmann::detail::binary</text>
<text text-anchor="middle" x="713" y="-7.5" font-family="Helvetica,sans-Serif" font-size="10.00">_writer::to_char_type</text>
</a>
</g>
</g>
<!-- Node5&#45;&gt;Node11 -->
<g id="edge11" class="edge">
<title>Node5&#45;&gt;Node11</title>
<path fill="none" stroke="midnightblue" d="M588.42,-142.35C593.36,-139.6 597.98,-136.34 602,-132.5 634.02,-101.85 605.8,-69.96 638,-39.5 639.13,-38.43 640.32,-37.4 641.54,-36.42"/>
<polygon fill="midnightblue" stroke="midnightblue" points="643.83,-39.1 650.16,-30.6 639.92,-33.3 643.83,-39.1"/>
</g>
<!-- Node7 -->
<g id="node7" class="node">
<title>Node7</title>
<g id="a_node7"><a xlink:href="classnlohmann_1_1detail_1_1exception.html#abf41a7e9178356314082284e6cfea278" target="_top" xlink:title=" ">
<polygon fill="white" stroke="black" points="824,-98.5 824,-128.5 977,-128.5 977,-98.5 824,-98.5"/>
<text text-anchor="start" x="832" y="-116.5" font-family="Helvetica,sans-Serif" font-size="10.00">nlohmann::detail::exception</text>
<text text-anchor="middle" x="900.5" y="-105.5" font-family="Helvetica,sans-Serif" font-size="10.00">::name</text>
</a>
</g>
</g>
<!-- Node6&#45;&gt;Node7 -->
<g id="edge7" class="edge">
<title>Node6&#45;&gt;Node7</title>
<path fill="none" stroke="midnightblue" d="M776.54,-113.5C788.38,-113.5 800.95,-113.5 813.36,-113.5"/>
<polygon fill="midnightblue" stroke="midnightblue" points="813.72,-117 823.72,-113.5 813.72,-110 813.72,-117"/>
</g>
<!-- Node9 -->
<g id="node9" class="node">
<title>Node9</title>
<g id="a_node9"><a xlink:href="classnlohmann_1_1detail_1_1type__error.html#aa01edaa0bf18b853368f0b900e485cd7" target="_top" xlink:title=" ">
<polygon fill="white" stroke="black" points="837,-49.5 837,-79.5 964,-79.5 964,-49.5 837,-49.5"/>
<text text-anchor="start" x="845" y="-67.5" font-family="Helvetica,sans-Serif" font-size="10.00">nlohmann::detail::type</text>
<text text-anchor="middle" x="900.5" y="-56.5" font-family="Helvetica,sans-Serif" font-size="10.00">_error::type_error</text>
</a>
</g>
</g>
<!-- Node6&#45;&gt;Node9 -->
<g id="edge9" class="edge">
<title>Node6&#45;&gt;Node9</title>
<path fill="none" stroke="midnightblue" d="M770.92,-98.47C790.5,-93.29 812.61,-87.45 832.9,-82.09"/>
<polygon fill="midnightblue" stroke="midnightblue" points="833.92,-85.44 842.69,-79.51 832.13,-78.68 833.92,-85.44"/>
</g>
<!-- Node7&#45;&gt;Node8 -->
<g id="edge8" class="edge">
<title>Node7&#45;&gt;Node8</title>
<path fill="none" stroke="midnightblue" d="M977.27,-123.98C985.92,-125.18 994.62,-126.38 1002.97,-127.54"/>
<polygon fill="midnightblue" stroke="midnightblue" points="1002.57,-131.02 1012.96,-128.92 1003.53,-124.08 1002.57,-131.02"/>
</g>
<!-- Node13&#45;&gt;Node4 -->
<g id="edge15" class="edge">
<title>Node13&#45;&gt;Node4</title>
<path fill="none" stroke="midnightblue" d="M553.14,-278.69C574.77,-290.82 607.25,-306.84 638,-313.5 718.61,-330.96 816.5,-322.13 866.55,-315.53"/>
<polygon fill="midnightblue" stroke="midnightblue" points="867.34,-318.95 876.77,-314.12 866.39,-312.02 867.34,-318.95"/>
</g>
<!-- Node14 -->
<g id="node14" class="node">
<title>Node14</title>
<g id="a_node14"><a xlink:href="classnlohmann_1_1detail_1_1serializer.html#a10692e98ea1f5a64de1d0b8e0e724b99" target="_top" xlink:title="count digits">
<polygon fill="white" stroke="black" points="638,-224.5 638,-254.5 788,-254.5 788,-224.5 638,-224.5"/>
<text text-anchor="start" x="646" y="-242.5" font-family="Helvetica,sans-Serif" font-size="10.00">nlohmann::detail::serializer</text>
<text text-anchor="middle" x="713" y="-231.5" font-family="Helvetica,sans-Serif" font-size="10.00">::count_digits</text>
</a>
</g>
</g>
<!-- Node13&#45;&gt;Node14 -->
<g id="edge16" class="edge">
<title>Node13&#45;&gt;Node14</title>
<path fill="none" stroke="midnightblue" d="M602.04,-253.84C610.51,-252.74 619.19,-251.61 627.78,-250.48"/>
<polygon fill="midnightblue" stroke="midnightblue" points="628.34,-253.94 637.81,-249.18 627.44,-247 628.34,-253.94"/>
</g>
<!-- Node15 -->
<g id="node15" class="node">
<title>Node15</title>
<g id="a_node15"><a xlink:href="classnlohmann_1_1detail_1_1serializer.html#a45bcb8ea41e4db5461e979d4b1d5e5e7" target="_top" xlink:title=" ">
<polygon fill="white" stroke="black" points="638,-273.5 638,-303.5 788,-303.5 788,-273.5 638,-273.5"/>
<text text-anchor="start" x="646" y="-291.5" font-family="Helvetica,sans-Serif" font-size="10.00">nlohmann::detail::serializer</text>
<text text-anchor="middle" x="713" y="-280.5" font-family="Helvetica,sans-Serif" font-size="10.00">::remove_sign</text>
</a>
</g>
</g>
<!-- Node13&#45;&gt;Node15 -->
<g id="edge17" class="edge">
<title>Node13&#45;&gt;Node15</title>
<path fill="none" stroke="midnightblue" d="M602.04,-273.56C610.51,-274.71 619.19,-275.89 627.78,-277.06"/>
<polygon fill="midnightblue" stroke="midnightblue" points="627.43,-280.54 637.81,-278.42 628.37,-273.6 627.43,-280.54"/>
</g>
<!-- Node15&#45;&gt;Node4 -->
<g id="edge18" class="edge">
<title>Node15&#45;&gt;Node4</title>
<path fill="none" stroke="midnightblue" d="M788.11,-297.29C815.35,-300.52 844.81,-304.01 866.59,-306.6"/>
<polygon fill="midnightblue" stroke="midnightblue" points="866.28,-310.09 876.63,-307.79 867.11,-303.13 866.28,-310.09"/>
</g>
</g>
</svg>
        <g id="navigator" transform="translate(0 0)" fill="#404254">
                <rect fill="#f2f5e9" fill-opacity="0.5" stroke="#606060" stroke-width=".5" x="0" y="0" width="60" height="60"/>
                <use id="zoomplus" xlink:href="#zoomPlus" x="17" y="9" onmousedown="handleZoom(evt,'in')"/>
                <use id="zoomminus" xlink:href="#zoomMin" x="42" y="9" onmousedown="handleZoom(evt,'out')"/>
                <use id="reset" xlink:href="#resetDef" x="30" y="36" onmousedown="handleReset()"/>
                <g id="arrowUp" xlink:href="#dirArrow" transform="translate(30 24)" onmousedown="handlePan(0,-1)">
                  <use xlink:href="#rim" fill="#404040">
                        <set attributeName="fill" to="#808080" begin="arrowUp.mouseover" end="arrowUp.mouseout"/>
                  </use>
                  <path fill="none" stroke="white" stroke-width="1.5" d="M0,-3.0v7 M-2.5,-0.5L0,-3.0L2.5,-0.5"/>
                </g>
                <g id="arrowRight" xlink:href="#dirArrow" transform="rotate(90) translate(36 -43)" onmousedown="handlePan(1,0)">
                  <use xlink:href="#rim" fill="#404040">
                        <set attributeName="fill" to="#808080" begin="arrowRight.mouseover" end="arrowRight.mouseout"/>
                  </use>
                  <path fill="none" stroke="white" stroke-width="1.5" d="M0,-3.0v7 M-2.5,-0.5L0,-3.0L2.5,-0.5"/>
                </g>
                <g id="arrowDown" xlink:href="#dirArrow" transform="rotate(180) translate(-30 -48)" onmousedown="handlePan(0,1)">
                  <use xlink:href="#rim" fill="#404040">
                        <set attributeName="fill" to="#808080" begin="arrowDown.mouseover" end="arrowDown.mouseout"/>
                  </use>
                  <path fill="none" stroke="white" stroke-width="1.5" d="M0,-3.0v7 M-2.5,-0.5L0,-3.0L2.5,-0.5"/>
                </g>
                <g id="arrowLeft" xlink:href="#dirArrow" transform="rotate(270) translate(-36 17)" onmousedown="handlePan(-1,0)">
                  <use xlink:href="#rim" fill="#404040">
                        <set attributeName="fill" to="#808080" begin="arrowLeft.mouseover" end="arrowLeft.mouseout"/>
                  </use>
                  <path fill="none" stroke="white" stroke-width="1.5" d="M0,-3.0v7 M-2.5,-0.5L0,-3.0L2.5,-0.5"/>
                </g>
        </g>
        <svg viewBox="0 0 15 15" width="100%" height="30px" preserveAspectRatio="xMaxYMin meet">
         <g id="arrow_out" transform="scale(0.3 0.3)">
          <a xlink:href="dump_8cpp_ae66f6b31b5ad750f1fe042a706a4e3d4_cgraph_org.svg" target="_base">
           <rect id="button" ry="5" rx="5" y="6" x="6" height="38" width="38"
                fill="#f2f5e9" fill-opacity="0.5" stroke="#606060" stroke-width="1.0"/>
           <path id="arrow"
             d="M 11.500037,31.436501 C 11.940474,20.09759 22.043105,11.32322 32.158766,21.979434 L 37.068811,17.246167 C 37.068811,17.246167 37.088388,32 37.088388,32 L 22.160133,31.978069 C 22.160133,31.978069 26.997745,27.140456 26.997745,27.140456 C 18.528582,18.264221 13.291696,25.230495 11.500037,31.436501 z"
             style="fill:#404040;"/>
          </a>
         </g>
        </svg>
</svg>
