<?xml version="1.0" encoding="UTF-8" standalone="no"?>
<!DOCTYPE svg PUBLIC "-//W3C//DTD SVG 1.1//EN"
 "http://www.w3.org/Graphics/SVG/1.1/DTD/svg11.dtd">
<!-- Generated by graphviz version 2.43.0 (0)
 -->
<!-- Title: main Pages: 1 -->
<svg width="692pt" height="284pt"
 viewBox="0.00 0.00 692.00 284.00" xmlns="http://www.w3.org/2000/svg" xmlns:xlink="http://www.w3.org/1999/xlink">
<g id="graph0" class="graph" transform="scale(1 1) rotate(0) translate(4 280)">
<title>main</title>
<polygon fill="white" stroke="transparent" points="-4,4 -4,-280 688,-280 688,4 -4,4"/>
<!-- Node1 -->
<g id="node1" class="node">
<title>Node1</title>
<g id="a_node1"><a xlink:title=" ">
<polygon fill="#bfbfbf" stroke="black" points="0,-128 0,-147 41,-147 41,-128 0,-128"/>
<text text-anchor="middle" x="20.5" y="-135" font-family="Helvetica,sans-Serif" font-size="10.00">main</text>
</a>
</g>
</g>
<!-- Node2 -->
<g id="node2" class="node">
<title>Node2</title>
<g id="a_node2"><a xlink:href="classnlohmann_1_1basic__json.html#a5338e282d1d02bed389d852dd670d98d" target="_top" xlink:title="add an object to an object if key does not exist">
<polygon fill="white" stroke="black" points="77,-122.5 77,-152.5 199,-152.5 199,-122.5 77,-122.5"/>
<text text-anchor="start" x="85" y="-140.5" font-family="Helvetica,sans-Serif" font-size="10.00">nlohmann::basic_json</text>
<text text-anchor="middle" x="138" y="-129.5" font-family="Helvetica,sans-Serif" font-size="10.00">::emplace</text>
</a>
</g>
</g>
<!-- Node1&#45;&gt;Node2 -->
<g id="edge1" class="edge">
<title>Node1&#45;&gt;Node2</title>
<path fill="none" stroke="midnightblue" d="M41.09,-137.5C48.47,-137.5 57.34,-137.5 66.68,-137.5"/>
<polygon fill="midnightblue" stroke="midnightblue" points="66.94,-141 76.94,-137.5 66.94,-134 66.94,-141"/>
</g>
<!-- Node3 -->
<g id="node3" class="node">
<title>Node3</title>
<g id="a_node3"><a xlink:href="classnlohmann_1_1basic__json.html#a4a82d3fb7a111641decf35c2fb707c7f" target="_top" xlink:title="checks the class invariants">
<polygon fill="white" stroke="black" points="237.5,-245.5 237.5,-275.5 359.5,-275.5 359.5,-245.5 237.5,-245.5"/>
<text text-anchor="start" x="245.5" y="-263.5" font-family="Helvetica,sans-Serif" font-size="10.00">nlohmann::basic_json</text>
<text text-anchor="middle" x="298.5" y="-252.5" font-family="Helvetica,sans-Serif" font-size="10.00">::assert_invariant</text>
</a>
</g>
</g>
<!-- Node2&#45;&gt;Node3 -->
<g id="edge2" class="edge">
<title>Node2&#45;&gt;Node3</title>
<path fill="none" stroke="midnightblue" d="M150.13,-152.57C166.55,-173.89 199.24,-212.88 235,-236.5 237.29,-238.01 239.68,-239.44 242.14,-240.81"/>
<polygon fill="midnightblue" stroke="midnightblue" points="240.79,-244.04 251.3,-245.41 243.94,-237.79 240.79,-244.04"/>
</g>
<!-- Node5 -->
<g id="node5" class="node">
<title>Node5</title>
<g id="a_node5"><a xlink:href="classnlohmann_1_1basic__json.html#a0ff28dac23f2bdecee9564d07f51dcdc" target="_top" xlink:title="returns an iterator to the first element">
<polygon fill="white" stroke="black" points="237.5,-196.5 237.5,-226.5 359.5,-226.5 359.5,-196.5 237.5,-196.5"/>
<text text-anchor="start" x="245.5" y="-214.5" font-family="Helvetica,sans-Serif" font-size="10.00">nlohmann::basic_json</text>
<text text-anchor="middle" x="298.5" y="-203.5" font-family="Helvetica,sans-Serif" font-size="10.00">::begin</text>
</a>
</g>
</g>
<!-- Node2&#45;&gt;Node5 -->
<g id="edge4" class="edge">
<title>Node2&#45;&gt;Node5</title>
<path fill="none" stroke="midnightblue" d="M165.91,-152.56C184.93,-162.95 211.19,-176.77 235,-187.5 238.81,-189.22 242.79,-190.93 246.81,-192.6"/>
<polygon fill="midnightblue" stroke="midnightblue" points="245.63,-195.9 256.21,-196.41 248.26,-189.41 245.63,-195.9"/>
</g>
<!-- Node6 -->
<g id="node6" class="node">
<title>Node6</title>
<g id="a_node6"><a xlink:href="classnlohmann_1_1detail_1_1type__error.html#aecc083aea4b698c33d042670ba50c10f" target="_top" xlink:title=" ">
<polygon fill="white" stroke="black" points="235,-147.5 235,-177.5 362,-177.5 362,-147.5 235,-147.5"/>
<text text-anchor="start" x="243" y="-165.5" font-family="Helvetica,sans-Serif" font-size="10.00">nlohmann::detail::type</text>
<text text-anchor="middle" x="298.5" y="-154.5" font-family="Helvetica,sans-Serif" font-size="10.00">_error::create</text>
</a>
</g>
</g>
<!-- Node2&#45;&gt;Node6 -->
<g id="edge5" class="edge">
<title>Node2&#45;&gt;Node6</title>
<path fill="none" stroke="midnightblue" d="M199.37,-147.02C207.74,-148.34 216.4,-149.71 224.95,-151.06"/>
<polygon fill="midnightblue" stroke="midnightblue" points="224.5,-154.53 234.93,-152.63 225.59,-147.61 224.5,-154.53"/>
</g>
<!-- Node10 -->
<g id="node10" class="node">
<title>Node10</title>
<g id="a_node10"><a xlink:href="classnlohmann_1_1basic__json.html#a8faa039ca82427ed29c486ffd00600c3" target="_top" xlink:title="return whether value is null">
<polygon fill="white" stroke="black" points="237.5,-98.5 237.5,-128.5 359.5,-128.5 359.5,-98.5 237.5,-98.5"/>
<text text-anchor="start" x="245.5" y="-116.5" font-family="Helvetica,sans-Serif" font-size="10.00">nlohmann::basic_json</text>
<text text-anchor="middle" x="298.5" y="-105.5" font-family="Helvetica,sans-Serif" font-size="10.00">::is_null</text>
</a>
</g>
</g>
<!-- Node2&#45;&gt;Node10 -->
<g id="edge9" class="edge">
<title>Node2&#45;&gt;Node10</title>
<path fill="none" stroke="midnightblue" d="M199.37,-128.36C208.5,-126.98 217.97,-125.54 227.28,-124.13"/>
<polygon fill="midnightblue" stroke="midnightblue" points="227.93,-127.57 237.29,-122.62 226.88,-120.65 227.93,-127.57"/>
</g>
<!-- Node11 -->
<g id="node11" class="node">
<title>Node11</title>
<g id="a_node11"><a xlink:href="classnlohmann_1_1basic__json.html#af8f511af124e82e4579f444b4175787c" target="_top" xlink:title="return whether value is an object">
<polygon fill="white" stroke="black" points="237.5,-49.5 237.5,-79.5 359.5,-79.5 359.5,-49.5 237.5,-49.5"/>
<text text-anchor="start" x="245.5" y="-67.5" font-family="Helvetica,sans-Serif" font-size="10.00">nlohmann::basic_json</text>
<text text-anchor="middle" x="298.5" y="-56.5" font-family="Helvetica,sans-Serif" font-size="10.00">::is_object</text>
</a>
</g>
</g>
<!-- Node2&#45;&gt;Node11 -->
<g id="edge10" class="edge">
<title>Node2&#45;&gt;Node11</title>
<path fill="none" stroke="midnightblue" d="M166.77,-122.35C185.74,-112.24 211.58,-98.94 235,-88.5 238.88,-86.77 242.93,-85.04 247.02,-83.36"/>
<polygon fill="midnightblue" stroke="midnightblue" points="248.6,-86.49 256.57,-79.51 245.98,-80 248.6,-86.49"/>
</g>
<!-- Node12 -->
<g id="node12" class="node">
<title>Node12</title>
<g id="a_node12"><a xlink:href="classnlohmann_1_1basic__json.html#ad14563c53cf7ca9189bc164082367bf3" target="_top" xlink:title="return the type as string">
<polygon fill="white" stroke="black" points="237.5,-0.5 237.5,-30.5 359.5,-30.5 359.5,-0.5 237.5,-0.5"/>
<text text-anchor="start" x="245.5" y="-18.5" font-family="Helvetica,sans-Serif" font-size="10.00">nlohmann::basic_json</text>
<text text-anchor="middle" x="298.5" y="-7.5" font-family="Helvetica,sans-Serif" font-size="10.00">::type_name</text>
</a>
</g>
</g>
<!-- Node2&#45;&gt;Node12 -->
<g id="edge11" class="edge">
<title>Node2&#45;&gt;Node12</title>
<path fill="none" stroke="midnightblue" d="M150.44,-122.23C167,-101.06 199.57,-62.77 235,-39.5 237.29,-38 239.69,-36.57 242.15,-35.21"/>
<polygon fill="midnightblue" stroke="midnightblue" points="243.95,-38.22 251.31,-30.61 240.8,-31.97 243.95,-38.22"/>
</g>
<!-- Node4 -->
<g id="node4" class="node">
<title>Node4</title>
<g id="a_node4"><a xlink:href="FuzzerTracePC_8cpp.html#a1f10ac78bd11294b612636121065eb5b" target="_top" xlink:title=" ">
<polygon fill="white" stroke="black" points="451,-251 451,-270 498,-270 498,-251 451,-251"/>
<text text-anchor="middle" x="474.5" y="-258" font-family="Helvetica,sans-Serif" font-size="10.00">assert</text>
</a>
</g>
</g>
<!-- Node3&#45;&gt;Node4 -->
<g id="edge3" class="edge">
<title>Node3&#45;&gt;Node4</title>
<path fill="none" stroke="midnightblue" d="M359.87,-260.5C386.98,-260.5 417.92,-260.5 440.66,-260.5"/>
<polygon fill="midnightblue" stroke="midnightblue" points="440.8,-264 450.8,-260.5 440.8,-257 440.8,-264"/>
</g>
<!-- Node7 -->
<g id="node7" class="node">
<title>Node7</title>
<g id="a_node7"><a xlink:href="classnlohmann_1_1detail_1_1exception.html#abf41a7e9178356314082284e6cfea278" target="_top" xlink:title=" ">
<polygon fill="white" stroke="black" points="398,-171.5 398,-201.5 551,-201.5 551,-171.5 398,-171.5"/>
<text text-anchor="start" x="406" y="-189.5" font-family="Helvetica,sans-Serif" font-size="10.00">nlohmann::detail::exception</text>
<text text-anchor="middle" x="474.5" y="-178.5" font-family="Helvetica,sans-Serif" font-size="10.00">::name</text>
</a>
</g>
</g>
<!-- Node6&#45;&gt;Node7 -->
<g id="edge6" class="edge">
<title>Node6&#45;&gt;Node7</title>
<path fill="none" stroke="midnightblue" d="M362.32,-171.16C370.57,-172.3 379.15,-173.49 387.7,-174.67"/>
<polygon fill="midnightblue" stroke="midnightblue" points="387.33,-178.15 397.72,-176.05 388.29,-171.21 387.33,-178.15"/>
</g>
<!-- Node9 -->
<g id="node9" class="node">
<title>Node9</title>
<g id="a_node9"><a xlink:href="classnlohmann_1_1detail_1_1type__error.html#aa01edaa0bf18b853368f0b900e485cd7" target="_top" xlink:title=" ">
<polygon fill="white" stroke="black" points="411,-122.5 411,-152.5 538,-152.5 538,-122.5 411,-122.5"/>
<text text-anchor="start" x="419" y="-140.5" font-family="Helvetica,sans-Serif" font-size="10.00">nlohmann::detail::type</text>
<text text-anchor="middle" x="474.5" y="-129.5" font-family="Helvetica,sans-Serif" font-size="10.00">_error::type_error</text>
</a>
</g>
</g>
<!-- Node6&#45;&gt;Node9 -->
<g id="edge8" class="edge">
<title>Node6&#45;&gt;Node9</title>
<path fill="none" stroke="midnightblue" d="M362.32,-153.47C374.76,-151.69 387.92,-149.8 400.67,-147.96"/>
<polygon fill="midnightblue" stroke="midnightblue" points="401.37,-151.4 410.77,-146.51 400.38,-144.47 401.37,-151.4"/>
</g>
<!-- Node8 -->
<g id="node8" class="node">
<title>Node8</title>
<g id="a_node8"><a xlink:href="namespacehttplib.html#a498c3a79825ecbcb15c52ec5fcfd5c11" target="_top" xlink:title=" ">
<polygon fill="white" stroke="black" points="587,-177 587,-196 684,-196 684,-177 587,-177"/>
<text text-anchor="middle" x="635.5" y="-184" font-family="Helvetica,sans-Serif" font-size="10.00">httplib::to_string</text>
</a>
</g>
</g>
<!-- Node7&#45;&gt;Node8 -->
<g id="edge7" class="edge">
<title>Node7&#45;&gt;Node8</title>
<path fill="none" stroke="midnightblue" d="M551.27,-186.5C559.82,-186.5 568.43,-186.5 576.7,-186.5"/>
<polygon fill="midnightblue" stroke="midnightblue" points="576.96,-190 586.96,-186.5 576.96,-183 576.96,-190"/>
</g>
</g>
</svg>
