<?xml version="1.0" encoding="UTF-8" standalone="no"?>
<!DOCTYPE svg PUBLIC "-//W3C//DTD SVG 1.1//EN"
 "http://www.w3.org/Graphics/SVG/1.1/DTD/svg11.dtd">
<!-- Generated by graphviz version 2.43.0 (0)
 -->
<!-- Title: mc_orchestrator/json&#45;3.7.3/test/thirdparty/Fuzzer/test/EmptyTest.cpp Pages: 1 -->
<svg width="155pt" height="106pt"
 viewBox="0.00 0.00 155.00 106.00" xmlns="http://www.w3.org/2000/svg" xmlns:xlink="http://www.w3.org/1999/xlink">
<g id="graph0" class="graph" transform="scale(1 1) rotate(0) translate(4 102)">
<title>mc_orchestrator/json&#45;3.7.3/test/thirdparty/Fuzzer/test/EmptyTest.cpp</title>
<polygon fill="white" stroke="transparent" points="-4,4 -4,-102 151,-102 151,4 -4,4"/>
<!-- Node1 -->
<g id="node1" class="node">
<title>Node1</title>
<g id="a_node1"><a xlink:title=" ">
<polygon fill="#bfbfbf" stroke="black" points="0,-56.5 0,-97.5 147,-97.5 147,-56.5 0,-56.5"/>
<text text-anchor="start" x="8" y="-85.5" font-family="Helvetica,sans-Serif" font-size="10.00">mc_orchestrator/json</text>
<text text-anchor="start" x="8" y="-74.5" font-family="Helvetica,sans-Serif" font-size="10.00">&#45;3.7.3/test/thirdparty</text>
<text text-anchor="middle" x="73.5" y="-63.5" font-family="Helvetica,sans-Serif" font-size="10.00">/Fuzzer/test/EmptyTest.cpp</text>
</a>
</g>
</g>
<!-- Node2 -->
<g id="node2" class="node">
<title>Node2</title>
<g id="a_node2"><a xlink:title=" ">
<polygon fill="white" stroke="#bfbfbf" points="14.5,-0.5 14.5,-19.5 64.5,-19.5 64.5,-0.5 14.5,-0.5"/>
<text text-anchor="middle" x="39.5" y="-7.5" font-family="Helvetica,sans-Serif" font-size="10.00">cstdint</text>
</a>
</g>
</g>
<!-- Node1&#45;&gt;Node2 -->
<g id="edge1" class="edge">
<title>Node1&#45;&gt;Node2</title>
<path fill="none" stroke="midnightblue" d="M63.3,-56.5C58.69,-47.68 53.28,-37.34 48.78,-28.74"/>
<polygon fill="midnightblue" stroke="midnightblue" points="51.76,-26.89 44.03,-19.65 45.56,-30.14 51.76,-26.89"/>
</g>
<!-- Node3 -->
<g id="node3" class="node">
<title>Node3</title>
<g id="a_node3"><a xlink:title=" ">
<polygon fill="white" stroke="#bfbfbf" points="83,-0.5 83,-19.5 132,-19.5 132,-0.5 83,-0.5"/>
<text text-anchor="middle" x="107.5" y="-7.5" font-family="Helvetica,sans-Serif" font-size="10.00">cstdlib</text>
</a>
</g>
</g>
<!-- Node1&#45;&gt;Node3 -->
<g id="edge2" class="edge">
<title>Node1&#45;&gt;Node3</title>
<path fill="none" stroke="midnightblue" d="M83.7,-56.5C88.31,-47.68 93.72,-37.34 98.22,-28.74"/>
<polygon fill="midnightblue" stroke="midnightblue" points="101.44,-30.14 102.97,-19.65 95.24,-26.89 101.44,-30.14"/>
</g>
</g>
</svg>
