<?xml version="1.0" encoding="UTF-8" standalone="no"?>
<!DOCTYPE svg PUBLIC "-//W3C//DTD SVG 1.1//EN"
 "http://www.w3.org/Graphics/SVG/1.1/DTD/svg11.dtd">
<!-- Generated by graphviz version 2.43.0 (0)
 -->
<!-- Title: mc_orchestrator/json&#45;3.7.3/include/nlohmann/detail/exceptions.hpp Pages: 1 -->
<svg width="584pt" height="184pt"
 viewBox="0.00 0.00 584.00 184.00" xmlns="http://www.w3.org/2000/svg" xmlns:xlink="http://www.w3.org/1999/xlink">
<g id="graph0" class="graph" transform="scale(1 1) rotate(0) translate(4 180)">
<title>mc_orchestrator/json&#45;3.7.3/include/nlohmann/detail/exceptions.hpp</title>
<polygon fill="white" stroke="transparent" points="-4,4 -4,-180 580,-180 580,4 -4,4"/>
<!-- Node1 -->
<g id="node1" class="node">
<title>Node1</title>
<g id="a_node1"><a xlink:title=" ">
<polygon fill="#bfbfbf" stroke="black" points="121.5,-134.5 121.5,-175.5 255.5,-175.5 255.5,-134.5 121.5,-134.5"/>
<text text-anchor="start" x="129.5" y="-163.5" font-family="Helvetica,sans-Serif" font-size="10.00">mc_orchestrator/json</text>
<text text-anchor="start" x="129.5" y="-152.5" font-family="Helvetica,sans-Serif" font-size="10.00">&#45;3.7.3/include/nlohmann</text>
<text text-anchor="middle" x="188.5" y="-141.5" font-family="Helvetica,sans-Serif" font-size="10.00">/detail/exceptions.hpp</text>
</a>
</g>
</g>
<!-- Node2 -->
<g id="node2" class="node">
<title>Node2</title>
<g id="a_node2"><a xlink:title=" ">
<polygon fill="white" stroke="#bfbfbf" points="0,-73 0,-92 65,-92 65,-73 0,-73"/>
<text text-anchor="middle" x="32.5" y="-80" font-family="Helvetica,sans-Serif" font-size="10.00">exception</text>
</a>
</g>
</g>
<!-- Node1&#45;&gt;Node2 -->
<g id="edge1" class="edge">
<title>Node1&#45;&gt;Node2</title>
<path fill="none" stroke="midnightblue" d="M145.05,-134.36C118.22,-122.24 84.57,-107.03 61.09,-96.42"/>
<polygon fill="midnightblue" stroke="midnightblue" points="62.25,-93.1 51.69,-92.17 59.36,-99.48 62.25,-93.1"/>
</g>
<!-- Node3 -->
<g id="node3" class="node">
<title>Node3</title>
<g id="a_node3"><a xlink:title=" ">
<polygon fill="white" stroke="#bfbfbf" points="83,-73 83,-92 148,-92 148,-73 83,-73"/>
<text text-anchor="middle" x="115.5" y="-80" font-family="Helvetica,sans-Serif" font-size="10.00">stdexcept</text>
</a>
</g>
</g>
<!-- Node1&#45;&gt;Node3 -->
<g id="edge2" class="edge">
<title>Node1&#45;&gt;Node3</title>
<path fill="none" stroke="midnightblue" d="M168.17,-134.36C156.74,-123.32 142.65,-109.72 131.93,-99.37"/>
<polygon fill="midnightblue" stroke="midnightblue" points="134.11,-96.6 124.48,-92.17 129.24,-101.64 134.11,-96.6"/>
</g>
<!-- Node4 -->
<g id="node4" class="node">
<title>Node4</title>
<g id="a_node4"><a xlink:title=" ">
<polygon fill="white" stroke="#bfbfbf" points="166.5,-73 166.5,-92 210.5,-92 210.5,-73 166.5,-73"/>
<text text-anchor="middle" x="188.5" y="-80" font-family="Helvetica,sans-Serif" font-size="10.00">string</text>
</a>
</g>
</g>
<!-- Node1&#45;&gt;Node4 -->
<g id="edge3" class="edge">
<title>Node1&#45;&gt;Node4</title>
<path fill="none" stroke="midnightblue" d="M188.5,-134.36C188.5,-124.3 188.5,-112.1 188.5,-102.18"/>
<polygon fill="midnightblue" stroke="midnightblue" points="192,-102.17 188.5,-92.17 185,-102.17 192,-102.17"/>
</g>
<!-- Node5 -->
<g id="node5" class="node">
<title>Node5</title>
<g id="a_node5"><a xlink:href="position__t_8hpp.html" target="_top" xlink:title=" ">
<polygon fill="white" stroke="black" points="228.5,-67.5 228.5,-97.5 352.5,-97.5 352.5,-67.5 228.5,-67.5"/>
<text text-anchor="start" x="236.5" y="-85.5" font-family="Helvetica,sans-Serif" font-size="10.00">nlohmann/detail/input</text>
<text text-anchor="middle" x="290.5" y="-74.5" font-family="Helvetica,sans-Serif" font-size="10.00">/position_t.hpp</text>
</a>
</g>
</g>
<!-- Node1&#45;&gt;Node5 -->
<g id="edge4" class="edge">
<title>Node1&#45;&gt;Node5</title>
<path fill="none" stroke="midnightblue" d="M216.91,-134.36C230.87,-124.71 247.67,-113.11 261.68,-103.42"/>
<polygon fill="midnightblue" stroke="midnightblue" points="263.76,-106.24 270,-97.67 259.78,-100.48 263.76,-106.24"/>
</g>
<!-- Node7 -->
<g id="node7" class="node">
<title>Node7</title>
<g id="a_node7"><a xlink:href="macro__scope_8hpp.html" target="_top" xlink:title=" ">
<polygon fill="white" stroke="black" points="380.5,-67.5 380.5,-97.5 510.5,-97.5 510.5,-67.5 380.5,-67.5"/>
<text text-anchor="start" x="388.5" y="-85.5" font-family="Helvetica,sans-Serif" font-size="10.00">nlohmann/detail/macro</text>
<text text-anchor="middle" x="445.5" y="-74.5" font-family="Helvetica,sans-Serif" font-size="10.00">_scope.hpp</text>
</a>
</g>
</g>
<!-- Node1&#45;&gt;Node7 -->
<g id="edge6" class="edge">
<title>Node1&#45;&gt;Node7</title>
<path fill="none" stroke="midnightblue" d="M255.69,-135.57C295.42,-124.67 345.36,-110.97 384.04,-100.36"/>
<polygon fill="midnightblue" stroke="midnightblue" points="385.41,-103.61 394.13,-97.59 383.56,-96.86 385.41,-103.61"/>
</g>
<!-- Node6 -->
<g id="node6" class="node">
<title>Node6</title>
<g id="a_node6"><a xlink:title=" ">
<polygon fill="white" stroke="#bfbfbf" points="258,-6 258,-25 311,-25 311,-6 258,-6"/>
<text text-anchor="middle" x="284.5" y="-13" font-family="Helvetica,sans-Serif" font-size="10.00">cstddef</text>
</a>
</g>
</g>
<!-- Node5&#45;&gt;Node6 -->
<g id="edge5" class="edge">
<title>Node5&#45;&gt;Node6</title>
<path fill="none" stroke="midnightblue" d="M289.2,-67.4C288.33,-57.96 287.17,-45.45 286.23,-35.19"/>
<polygon fill="midnightblue" stroke="midnightblue" points="289.71,-34.83 285.3,-25.19 282.74,-35.47 289.71,-34.83"/>
</g>
<!-- Node8 -->
<g id="node8" class="node">
<title>Node8</title>
<g id="a_node8"><a xlink:title=" ">
<polygon fill="white" stroke="#bfbfbf" points="329,-6 329,-25 374,-25 374,-6 329,-6"/>
<text text-anchor="middle" x="351.5" y="-13" font-family="Helvetica,sans-Serif" font-size="10.00">utility</text>
</a>
</g>
</g>
<!-- Node7&#45;&gt;Node8 -->
<g id="edge7" class="edge">
<title>Node7&#45;&gt;Node8</title>
<path fill="none" stroke="midnightblue" d="M425.1,-67.4C409.49,-56.6 388.02,-41.76 372.31,-30.89"/>
<polygon fill="midnightblue" stroke="midnightblue" points="374.02,-27.82 363.8,-25.01 370.04,-33.57 374.02,-27.82"/>
</g>
<!-- Node9 -->
<g id="node9" class="node">
<title>Node9</title>
<g id="a_node9"><a xlink:href="hedley_8hpp.html" target="_top" xlink:title=" ">
<polygon fill="white" stroke="black" points="392.5,-0.5 392.5,-30.5 508.5,-30.5 508.5,-0.5 392.5,-0.5"/>
<text text-anchor="start" x="400.5" y="-18.5" font-family="Helvetica,sans-Serif" font-size="10.00">nlohmann/thirdparty</text>
<text text-anchor="middle" x="450.5" y="-7.5" font-family="Helvetica,sans-Serif" font-size="10.00">/hedley/hedley.hpp</text>
</a>
</g>
</g>
<!-- Node7&#45;&gt;Node9 -->
<g id="edge8" class="edge">
<title>Node7&#45;&gt;Node9</title>
<path fill="none" stroke="midnightblue" d="M446.58,-67.4C447.19,-59.56 447.95,-49.6 448.65,-40.57"/>
<polygon fill="midnightblue" stroke="midnightblue" points="452.14,-40.82 449.42,-30.58 445.16,-40.28 452.14,-40.82"/>
</g>
<!-- Node10 -->
<g id="node10" class="node">
<title>Node10</title>
<g id="a_node10"><a xlink:title=" ">
<polygon fill="white" stroke="#bfbfbf" points="527,-6 527,-25 576,-25 576,-6 527,-6"/>
<text text-anchor="middle" x="551.5" y="-13" font-family="Helvetica,sans-Serif" font-size="10.00">cstdlib</text>
</a>
</g>
</g>
<!-- Node7&#45;&gt;Node10 -->
<g id="edge9" class="edge">
<title>Node7&#45;&gt;Node10</title>
<path fill="none" stroke="midnightblue" d="M468.5,-67.4C486.44,-56.39 511.22,-41.2 529.02,-30.28"/>
<polygon fill="midnightblue" stroke="midnightblue" points="530.93,-33.22 537.63,-25.01 527.27,-27.25 530.93,-33.22"/>
</g>
</g>
</svg>
