<?xml version="1.0" encoding="UTF-8" standalone="no"?>
<!DOCTYPE svg PUBLIC "-//W3C//DTD SVG 1.1//EN"
 "http://www.w3.org/Graphics/SVG/1.1/DTD/svg11.dtd">
<!-- Generated by graphviz version 2.43.0 (0)
 -->
<!-- Title: mc_orchestrator/json&#45;3.7.3/test/thirdparty/fifo_map/fifo_map.hpp Pages: 1 -->
<svg width="735pt" height="106pt"
 viewBox="0.00 0.00 734.50 106.00" xmlns="http://www.w3.org/2000/svg" xmlns:xlink="http://www.w3.org/1999/xlink">
<g id="graph0" class="graph" transform="scale(1 1) rotate(0) translate(4 102)">
<title>mc_orchestrator/json&#45;3.7.3/test/thirdparty/fifo_map/fifo_map.hpp</title>
<polygon fill="white" stroke="transparent" points="-4,4 -4,-102 730.5,-102 730.5,4 -4,4"/>
<!-- Node1 -->
<g id="node1" class="node">
<title>Node1</title>
<g id="a_node1"><a xlink:title=" ">
<polygon fill="#bfbfbf" stroke="black" points="296.5,-56.5 296.5,-97.5 427.5,-97.5 427.5,-56.5 296.5,-56.5"/>
<text text-anchor="start" x="304.5" y="-85.5" font-family="Helvetica,sans-Serif" font-size="10.00">mc_orchestrator/json</text>
<text text-anchor="start" x="304.5" y="-74.5" font-family="Helvetica,sans-Serif" font-size="10.00">&#45;3.7.3/test/thirdparty</text>
<text text-anchor="middle" x="362" y="-63.5" font-family="Helvetica,sans-Serif" font-size="10.00">/fifo_map/fifo_map.hpp</text>
</a>
</g>
</g>
<!-- Node2 -->
<g id="node2" class="node">
<title>Node2</title>
<g id="a_node2"><a xlink:title=" ">
<polygon fill="white" stroke="#bfbfbf" points="0,-0.5 0,-19.5 64,-19.5 64,-0.5 0,-0.5"/>
<text text-anchor="middle" x="32" y="-7.5" font-family="Helvetica,sans-Serif" font-size="10.00">algorithm</text>
</a>
</g>
</g>
<!-- Node1&#45;&gt;Node2 -->
<g id="edge1" class="edge">
<title>Node1&#45;&gt;Node2</title>
<path fill="none" stroke="midnightblue" d="M296.48,-63.78C240.14,-53.17 156.43,-37.13 74.23,-20.22"/>
<polygon fill="midnightblue" stroke="midnightblue" points="74.71,-16.74 64.21,-18.15 73.3,-23.6 74.71,-16.74"/>
</g>
<!-- Node3 -->
<g id="node3" class="node">
<title>Node3</title>
<g id="a_node3"><a xlink:title=" ">
<polygon fill="white" stroke="#bfbfbf" points="82.5,-0.5 82.5,-19.5 131.5,-19.5 131.5,-0.5 82.5,-0.5"/>
<text text-anchor="middle" x="107" y="-7.5" font-family="Helvetica,sans-Serif" font-size="10.00">cstdlib</text>
</a>
</g>
</g>
<!-- Node1&#45;&gt;Node3 -->
<g id="edge2" class="edge">
<title>Node1&#45;&gt;Node3</title>
<path fill="none" stroke="midnightblue" d="M296.35,-59.79C254.53,-49.38 198.96,-35.4 141.79,-20.44"/>
<polygon fill="midnightblue" stroke="midnightblue" points="142.41,-16.98 131.85,-17.83 140.64,-23.76 142.41,-16.98"/>
</g>
<!-- Node4 -->
<g id="node4" class="node">
<title>Node4</title>
<g id="a_node4"><a xlink:title=" ">
<polygon fill="white" stroke="#bfbfbf" points="149.5,-0.5 149.5,-19.5 214.5,-19.5 214.5,-0.5 149.5,-0.5"/>
<text text-anchor="middle" x="182" y="-7.5" font-family="Helvetica,sans-Serif" font-size="10.00">functional</text>
</a>
</g>
</g>
<!-- Node1&#45;&gt;Node4 -->
<g id="edge3" class="edge">
<title>Node1&#45;&gt;Node4</title>
<path fill="none" stroke="midnightblue" d="M307.99,-56.5C278.01,-45.67 241.64,-32.54 215.7,-23.17"/>
<polygon fill="midnightblue" stroke="midnightblue" points="216.56,-19.76 205.96,-19.65 214.18,-26.34 216.56,-19.76"/>
</g>
<!-- Node5 -->
<g id="node5" class="node">
<title>Node5</title>
<g id="a_node5"><a xlink:title=" ">
<polygon fill="white" stroke="#bfbfbf" points="233,-0.5 233,-19.5 293,-19.5 293,-0.5 233,-0.5"/>
<text text-anchor="middle" x="263" y="-7.5" font-family="Helvetica,sans-Serif" font-size="10.00">iostream</text>
</a>
</g>
</g>
<!-- Node1&#45;&gt;Node5 -->
<g id="edge4" class="edge">
<title>Node1&#45;&gt;Node5</title>
<path fill="none" stroke="midnightblue" d="M332.3,-56.5C316.97,-46.44 298.62,-34.38 284.65,-25.21"/>
<polygon fill="midnightblue" stroke="midnightblue" points="286.46,-22.22 276.18,-19.65 282.62,-28.07 286.46,-22.22"/>
</g>
<!-- Node6 -->
<g id="node6" class="node">
<title>Node6</title>
<g id="a_node6"><a xlink:title=" ">
<polygon fill="white" stroke="#bfbfbf" points="311,-0.5 311,-19.5 355,-19.5 355,-0.5 311,-0.5"/>
<text text-anchor="middle" x="333" y="-7.5" font-family="Helvetica,sans-Serif" font-size="10.00">limits</text>
</a>
</g>
</g>
<!-- Node1&#45;&gt;Node6 -->
<g id="edge5" class="edge">
<title>Node1&#45;&gt;Node6</title>
<path fill="none" stroke="midnightblue" d="M353.3,-56.5C349.41,-47.78 344.85,-37.56 341.04,-29.02"/>
<polygon fill="midnightblue" stroke="midnightblue" points="344.13,-27.36 336.86,-19.65 337.74,-30.21 344.13,-27.36"/>
</g>
<!-- Node7 -->
<g id="node7" class="node">
<title>Node7</title>
<g id="a_node7"><a xlink:title=" ">
<polygon fill="white" stroke="#bfbfbf" points="373,-0.5 373,-19.5 411,-19.5 411,-0.5 373,-0.5"/>
<text text-anchor="middle" x="392" y="-7.5" font-family="Helvetica,sans-Serif" font-size="10.00">map</text>
</a>
</g>
</g>
<!-- Node1&#45;&gt;Node7 -->
<g id="edge6" class="edge">
<title>Node1&#45;&gt;Node7</title>
<path fill="none" stroke="midnightblue" d="M371,-56.5C375.07,-47.68 379.84,-37.34 383.81,-28.74"/>
<polygon fill="midnightblue" stroke="midnightblue" points="386.99,-30.2 388.01,-19.65 380.64,-27.27 386.99,-30.2"/>
</g>
<!-- Node8 -->
<g id="node8" class="node">
<title>Node8</title>
<g id="a_node8"><a xlink:title=" ">
<polygon fill="white" stroke="#bfbfbf" points="429,-0.5 429,-19.5 487,-19.5 487,-0.5 429,-0.5"/>
<text text-anchor="middle" x="458" y="-7.5" font-family="Helvetica,sans-Serif" font-size="10.00">memory</text>
</a>
</g>
</g>
<!-- Node1&#45;&gt;Node8 -->
<g id="edge7" class="edge">
<title>Node1&#45;&gt;Node8</title>
<path fill="none" stroke="midnightblue" d="M390.8,-56.5C405.52,-46.53 423.12,-34.61 436.62,-25.48"/>
<polygon fill="midnightblue" stroke="midnightblue" points="438.9,-28.16 445.22,-19.65 434.98,-22.36 438.9,-28.16"/>
</g>
<!-- Node9 -->
<g id="node9" class="node">
<title>Node9</title>
<g id="a_node9"><a xlink:title=" ">
<polygon fill="white" stroke="#bfbfbf" points="505.5,-0.5 505.5,-19.5 598.5,-19.5 598.5,-0.5 505.5,-0.5"/>
<text text-anchor="middle" x="552" y="-7.5" font-family="Helvetica,sans-Serif" font-size="10.00">unordered_map</text>
</a>
</g>
</g>
<!-- Node1&#45;&gt;Node9 -->
<g id="edge8" class="edge">
<title>Node1&#45;&gt;Node9</title>
<path fill="none" stroke="midnightblue" d="M419.01,-56.5C450.94,-45.57 489.73,-32.3 517.15,-22.92"/>
<polygon fill="midnightblue" stroke="midnightblue" points="518.38,-26.2 526.71,-19.65 516.11,-19.58 518.38,-26.2"/>
</g>
<!-- Node10 -->
<g id="node10" class="node">
<title>Node10</title>
<g id="a_node10"><a xlink:title=" ">
<polygon fill="white" stroke="#bfbfbf" points="616.5,-0.5 616.5,-19.5 661.5,-19.5 661.5,-0.5 616.5,-0.5"/>
<text text-anchor="middle" x="639" y="-7.5" font-family="Helvetica,sans-Serif" font-size="10.00">utility</text>
</a>
</g>
</g>
<!-- Node1&#45;&gt;Node10 -->
<g id="edge9" class="edge">
<title>Node1&#45;&gt;Node10</title>
<path fill="none" stroke="midnightblue" d="M427.51,-62.18C474.89,-51.94 540.64,-37.2 606.62,-20.26"/>
<polygon fill="midnightblue" stroke="midnightblue" points="607.55,-23.63 616.36,-17.74 605.8,-16.85 607.55,-23.63"/>
</g>
<!-- Node11 -->
<g id="node11" class="node">
<title>Node11</title>
<g id="a_node11"><a xlink:title=" ">
<polygon fill="white" stroke="#bfbfbf" points="679.5,-0.5 679.5,-19.5 726.5,-19.5 726.5,-0.5 679.5,-0.5"/>
<text text-anchor="middle" x="703" y="-7.5" font-family="Helvetica,sans-Serif" font-size="10.00">vector</text>
</a>
</g>
</g>
<!-- Node1&#45;&gt;Node11 -->
<g id="edge10" class="edge">
<title>Node1&#45;&gt;Node11</title>
<path fill="none" stroke="midnightblue" d="M427.77,-65.94C488.31,-56.25 580.75,-40.41 669.35,-20.22"/>
<polygon fill="midnightblue" stroke="midnightblue" points="670.34,-23.59 679.3,-17.94 668.77,-16.77 670.34,-23.59"/>
</g>
</g>
</svg>
