<?xml version="1.0" encoding="UTF-8" standalone="no"?>
<!DOCTYPE svg PUBLIC "-//W3C//DTD SVG 1.1//EN"
 "http://www.w3.org/Graphics/SVG/1.1/DTD/svg11.dtd">
<!-- Generated by graphviz version 2.43.0 (0)
 -->
<!-- Title: mc_orchestrator/json&#45;3.7.3/test/thirdparty/Fuzzer/FuzzerInternal.h Pages: 1 -->
<!--zoomable 218 -->
<svg id="main" version="1.1" xmlns="http://www.w3.org/2000/svg" xmlns:xlink="http://www.w3.org/1999/xlink" xml:space="preserve" onload="init(evt)">
<style type="text/css"><![CDATA[
.edge:hover path { stroke: red; }
.edge:hover polygon { stroke: red; fill: red; }
]]></style>
<script type="text/javascript"><![CDATA[
var edges = document.getElementsByTagName('g');
if (edges && edges.length) {
  for (var i=0;i<edges.length;i++) {
    if (edges[i].id.substr(0,4)=='edge') {
      edges[i].setAttribute('class','edge');
    }
  }
}
]]></script>
        <defs>
                <circle id="rim" cx="0" cy="0" r="7"/>
                <circle id="rim2" cx="0" cy="0" r="3.5"/>
                <g id="zoomPlus">
                        <use xlink:href="#rim" fill="#404040">
                                <set attributeName="fill" to="#808080" begin="zoomplus.mouseover" end="zoomplus.mouseout"/>
                        </use>
                        <path d="M-4,0h8M0,-4v8" fill="none" stroke="white" stroke-width="1.5" pointer-events="none"/>
                </g>
                <g id="zoomMin">
                        <use xlink:href="#rim" fill="#404040">
                                <set attributeName="fill" to="#808080" begin="zoomminus.mouseover" end="zoomminus.mouseout"/>
                        </use>
                        <path d="M-4,0h8" fill="none" stroke="white" stroke-width="1.5" pointer-events="none"/>
                </g>
                <g id="dirArrow">
                        <path fill="none" stroke="white" stroke-width="1.5" d="M0,-3.0v7 M-2.5,-0.5L0,-3.0L2.5,-0.5"/>
                </g>
               <g id="resetDef">
                       <use xlink:href="#rim2" fill="#404040">
                               <set attributeName="fill" to="#808080" begin="reset.mouseover" end="reset.mouseout"/>
                       </use>
               </g>
        </defs>

<script type="text/javascript">
var viewWidth = 1092;
var viewHeight = 218;
var sectionId = 'dynsection-0';
</script>
<script xlink:href="svgpan.js"/>
<svg id="graph" class="graph">
<g id="viewport">
<title>mc_orchestrator/json&#45;3.7.3/test/thirdparty/Fuzzer/FuzzerInternal.h</title>
<polygon fill="white" stroke="transparent" points="-4,4 -4,-214 1087.5,-214 1087.5,4 -4,4"/>
<!-- Node1 -->
<g id="node1" class="node">
<title>Node1</title>
<g id="a_node1"><a xlink:title=" ">
<polygon fill="#bfbfbf" stroke="black" points="588,-168.5 588,-209.5 720,-209.5 720,-168.5 588,-168.5"/>
<text text-anchor="start" x="596" y="-197.5" font-family="Helvetica,sans-Serif" font-size="10.00">mc_orchestrator/json</text>
<text text-anchor="start" x="596" y="-186.5" font-family="Helvetica,sans-Serif" font-size="10.00">&#45;3.7.3/test/thirdparty</text>
<text text-anchor="middle" x="654" y="-175.5" font-family="Helvetica,sans-Serif" font-size="10.00">/Fuzzer/FuzzerInternal.h</text>
</a>
</g>
</g>
<!-- Node2 -->
<g id="node2" class="node">
<title>Node2</title>
<g id="a_node2"><a xlink:href="FuzzerDefs_8h.html" target="_top" xlink:title=" ">
<polygon fill="white" stroke="black" points="148,-56.5 148,-75.5 228,-75.5 228,-56.5 148,-56.5"/>
<text text-anchor="middle" x="188" y="-63.5" font-family="Helvetica,sans-Serif" font-size="10.00">FuzzerDefs.h</text>
</a>
</g>
</g>
<!-- Node1&#45;&gt;Node2 -->
<g id="edge1" class="edge">
<title>Node1&#45;&gt;Node2</title>
<path fill="none" stroke="midnightblue" d="M587.83,-186.67C440.38,-183.03 94.99,-170.45 60,-132 32.88,-102.21 91.04,-84.12 137.6,-74.84"/>
<polygon fill="midnightblue" stroke="midnightblue" points="138.45,-78.24 147.62,-72.94 137.14,-71.36 138.45,-78.24"/>
</g>
<!-- Node9 -->
<g id="node9" class="node">
<title>Node9</title>
<g id="a_node9"><a xlink:href="FuzzerExtFunctions_8h.html" target="_top" xlink:title=" ">
<polygon fill="white" stroke="black" points="539.5,-112.5 539.5,-131.5 658.5,-131.5 658.5,-112.5 539.5,-112.5"/>
<text text-anchor="middle" x="599" y="-119.5" font-family="Helvetica,sans-Serif" font-size="10.00">FuzzerExtFunctions.h</text>
</a>
</g>
</g>
<!-- Node1&#45;&gt;Node9 -->
<g id="edge8" class="edge">
<title>Node1&#45;&gt;Node9</title>
<path fill="none" stroke="midnightblue" d="M637.5,-168.5C629.63,-159.2 620.33,-148.21 612.84,-139.36"/>
<polygon fill="midnightblue" stroke="midnightblue" points="615.45,-137.03 606.32,-131.65 610.11,-141.55 615.45,-137.03"/>
</g>
<!-- Node13 -->
<g id="node13" class="node">
<title>Node13</title>
<g id="a_node13"><a xlink:href="FuzzerInterface_8h.html" target="_top" xlink:title=" ">
<polygon fill="white" stroke="black" points="420.5,-112.5 420.5,-131.5 521.5,-131.5 521.5,-112.5 420.5,-112.5"/>
<text text-anchor="middle" x="471" y="-119.5" font-family="Helvetica,sans-Serif" font-size="10.00">FuzzerInterface.h</text>
</a>
</g>
</g>
<!-- Node1&#45;&gt;Node13 -->
<g id="edge12" class="edge">
<title>Node1&#45;&gt;Node13</title>
<path fill="none" stroke="midnightblue" d="M599.09,-168.5C568.47,-157.62 531.31,-144.42 504.91,-135.05"/>
<polygon fill="midnightblue" stroke="midnightblue" points="505.95,-131.7 495.36,-131.65 503.61,-138.3 505.95,-131.7"/>
</g>
<!-- Node14 -->
<g id="node14" class="node">
<title>Node14</title>
<g id="a_node14"><a xlink:href="FuzzerOptions_8h.html" target="_top" xlink:title=" ">
<polygon fill="white" stroke="black" points="69.5,-112.5 69.5,-131.5 164.5,-131.5 164.5,-112.5 69.5,-112.5"/>
<text text-anchor="middle" x="117" y="-119.5" font-family="Helvetica,sans-Serif" font-size="10.00">FuzzerOptions.h</text>
</a>
</g>
</g>
<!-- Node1&#45;&gt;Node14 -->
<g id="edge15" class="edge">
<title>Node1&#45;&gt;Node14</title>
<path fill="none" stroke="midnightblue" d="M587.75,-181.21C496.89,-171.69 328.26,-153.29 174.73,-132.19"/>
<polygon fill="midnightblue" stroke="midnightblue" points="175.02,-128.7 164.64,-130.8 174.07,-135.64 175.02,-128.7"/>
</g>
<!-- Node15 -->
<g id="node15" class="node">
<title>Node15</title>
<g id="a_node15"><a xlink:href="FuzzerSHA1_8h.html" target="_top" xlink:title=" ">
<polygon fill="white" stroke="black" points="319.5,-112.5 319.5,-131.5 402.5,-131.5 402.5,-112.5 319.5,-112.5"/>
<text text-anchor="middle" x="361" y="-119.5" font-family="Helvetica,sans-Serif" font-size="10.00">FuzzerSHA1.h</text>
</a>
</g>
</g>
<!-- Node1&#45;&gt;Node15 -->
<g id="edge17" class="edge">
<title>Node1&#45;&gt;Node15</title>
<path fill="none" stroke="midnightblue" d="M587.88,-173.33C533.67,-161.31 458.2,-144.56 409.47,-133.75"/>
<polygon fill="midnightblue" stroke="midnightblue" points="410.02,-130.29 399.5,-131.54 408.5,-137.12 410.02,-130.29"/>
</g>
<!-- Node16 -->
<g id="node16" class="node">
<title>Node16</title>
<g id="a_node16"><a xlink:href="FuzzerValueBitMap_8h.html" target="_top" xlink:title=" ">
<polygon fill="white" stroke="black" points="182.5,-112.5 182.5,-131.5 301.5,-131.5 301.5,-112.5 182.5,-112.5"/>
<text text-anchor="middle" x="242" y="-119.5" font-family="Helvetica,sans-Serif" font-size="10.00">FuzzerValueBitMap.h</text>
</a>
</g>
</g>
<!-- Node1&#45;&gt;Node16 -->
<g id="edge21" class="edge">
<title>Node1&#45;&gt;Node16</title>
<path fill="none" stroke="midnightblue" d="M587.81,-177.56C510.31,-165.33 382.82,-145.22 306.2,-133.13"/>
<polygon fill="midnightblue" stroke="midnightblue" points="306.62,-129.65 296.19,-131.55 305.53,-136.57 306.62,-129.65"/>
</g>
<!-- Node17 -->
<g id="node17" class="node">
<title>Node17</title>
<g id="a_node17"><a xlink:title=" ">
<polygon fill="white" stroke="#bfbfbf" points="677,-112.5 677,-131.5 741,-131.5 741,-112.5 677,-112.5"/>
<text text-anchor="middle" x="709" y="-119.5" font-family="Helvetica,sans-Serif" font-size="10.00">algorithm</text>
</a>
</g>
</g>
<!-- Node1&#45;&gt;Node17 -->
<g id="edge23" class="edge">
<title>Node1&#45;&gt;Node17</title>
<path fill="none" stroke="midnightblue" d="M670.5,-168.5C678.37,-159.2 687.67,-148.21 695.16,-139.36"/>
<polygon fill="midnightblue" stroke="midnightblue" points="697.89,-141.55 701.68,-131.65 692.55,-137.03 697.89,-141.55"/>
</g>
<!-- Node18 -->
<g id="node18" class="node">
<title>Node18</title>
<g id="a_node18"><a xlink:title=" ">
<polygon fill="white" stroke="#bfbfbf" points="759,-112.5 759,-131.5 809,-131.5 809,-112.5 759,-112.5"/>
<text text-anchor="middle" x="784" y="-119.5" font-family="Helvetica,sans-Serif" font-size="10.00">atomic</text>
</a>
</g>
</g>
<!-- Node1&#45;&gt;Node18 -->
<g id="edge24" class="edge">
<title>Node1&#45;&gt;Node18</title>
<path fill="none" stroke="midnightblue" d="M693,-168.5C713.89,-158.05 739.07,-145.46 757.64,-136.18"/>
<polygon fill="midnightblue" stroke="midnightblue" points="759.32,-139.26 766.7,-131.65 756.19,-132.99 759.32,-139.26"/>
</g>
<!-- Node19 -->
<g id="node19" class="node">
<title>Node19</title>
<g id="a_node19"><a xlink:title=" ">
<polygon fill="white" stroke="#bfbfbf" points="827,-112.5 827,-131.5 877,-131.5 877,-112.5 827,-112.5"/>
<text text-anchor="middle" x="852" y="-119.5" font-family="Helvetica,sans-Serif" font-size="10.00">chrono</text>
</a>
</g>
</g>
<!-- Node1&#45;&gt;Node19 -->
<g id="edge25" class="edge">
<title>Node1&#45;&gt;Node19</title>
<path fill="none" stroke="midnightblue" d="M713.41,-168.5C747.34,-157.36 788.7,-143.78 817.36,-134.37"/>
<polygon fill="midnightblue" stroke="midnightblue" points="818.52,-137.67 826.93,-131.23 816.34,-131.02 818.52,-137.67"/>
</g>
<!-- Node20 -->
<g id="node20" class="node">
<title>Node20</title>
<g id="a_node20"><a xlink:title=" ">
<polygon fill="white" stroke="#bfbfbf" points="895,-112.5 895,-131.5 945,-131.5 945,-112.5 895,-112.5"/>
<text text-anchor="middle" x="920" y="-119.5" font-family="Helvetica,sans-Serif" font-size="10.00">climits</text>
</a>
</g>
</g>
<!-- Node1&#45;&gt;Node20 -->
<g id="edge26" class="edge">
<title>Node1&#45;&gt;Node20</title>
<path fill="none" stroke="midnightblue" d="M720.1,-172.45C764.21,-161.98 823.75,-147.67 884.93,-132.23"/>
<polygon fill="midnightblue" stroke="midnightblue" points="885.93,-135.59 894.76,-129.75 884.21,-128.8 885.93,-135.59"/>
</g>
<!-- Node21 -->
<g id="node21" class="node">
<title>Node21</title>
<g id="a_node21"><a xlink:title=" ">
<polygon fill="white" stroke="#bfbfbf" points="963.5,-112.5 963.5,-131.5 1012.5,-131.5 1012.5,-112.5 963.5,-112.5"/>
<text text-anchor="middle" x="988" y="-119.5" font-family="Helvetica,sans-Serif" font-size="10.00">cstdlib</text>
</a>
</g>
</g>
<!-- Node1&#45;&gt;Node21 -->
<g id="edge27" class="edge">
<title>Node1&#45;&gt;Node21</title>
<path fill="none" stroke="midnightblue" d="M720.13,-177.11C778.84,-167.11 867.16,-151.26 953.23,-132.04"/>
<polygon fill="midnightblue" stroke="midnightblue" points="954.18,-135.41 963.17,-129.8 952.65,-128.58 954.18,-135.41"/>
</g>
<!-- Node22 -->
<g id="node22" class="node">
<title>Node22</title>
<g id="a_node22"><a xlink:title=" ">
<polygon fill="white" stroke="#bfbfbf" points="1030.5,-112.5 1030.5,-131.5 1083.5,-131.5 1083.5,-112.5 1030.5,-112.5"/>
<text text-anchor="middle" x="1057" y="-119.5" font-family="Helvetica,sans-Serif" font-size="10.00">string.h</text>
</a>
</g>
</g>
<!-- Node1&#45;&gt;Node22 -->
<g id="edge28" class="edge">
<title>Node1&#45;&gt;Node22</title>
<path fill="none" stroke="midnightblue" d="M720.17,-179.97C791.94,-170.8 910.04,-154.39 1020.35,-132.18"/>
<polygon fill="midnightblue" stroke="midnightblue" points="1021.21,-135.58 1030.31,-130.16 1019.81,-128.72 1021.21,-135.58"/>
</g>
<!-- Node3 -->
<g id="node3" class="node">
<title>Node3</title>
<g id="a_node3"><a xlink:title=" ">
<polygon fill="white" stroke="#bfbfbf" points="128,-0.5 128,-19.5 180,-19.5 180,-0.5 128,-0.5"/>
<text text-anchor="middle" x="154" y="-7.5" font-family="Helvetica,sans-Serif" font-size="10.00">cassert</text>
</a>
</g>
</g>
<!-- Node2&#45;&gt;Node3 -->
<g id="edge2" class="edge">
<title>Node2&#45;&gt;Node3</title>
<path fill="none" stroke="midnightblue" d="M182.39,-56.08C177.63,-48.53 170.68,-37.49 164.85,-28.23"/>
<polygon fill="midnightblue" stroke="midnightblue" points="167.8,-26.35 159.51,-19.75 161.88,-30.08 167.8,-26.35"/>
</g>
<!-- Node4 -->
<g id="node4" class="node">
<title>Node4</title>
<g id="a_node4"><a xlink:title=" ">
<polygon fill="white" stroke="#bfbfbf" points="334.5,-0.5 334.5,-19.5 387.5,-19.5 387.5,-0.5 334.5,-0.5"/>
<text text-anchor="middle" x="361" y="-7.5" font-family="Helvetica,sans-Serif" font-size="10.00">cstddef</text>
</a>
</g>
</g>
<!-- Node2&#45;&gt;Node4 -->
<g id="edge3" class="edge">
<title>Node2&#45;&gt;Node4</title>
<path fill="none" stroke="midnightblue" d="M215.41,-56.44C244.94,-47.23 292.07,-32.52 324.67,-22.34"/>
<polygon fill="midnightblue" stroke="midnightblue" points="325.78,-25.66 334.28,-19.34 323.7,-18.98 325.78,-25.66"/>
</g>
<!-- Node5 -->
<g id="node5" class="node">
<title>Node5</title>
<g id="a_node5"><a xlink:title=" ">
<polygon fill="white" stroke="#bfbfbf" points="198,-0.5 198,-19.5 248,-19.5 248,-0.5 198,-0.5"/>
<text text-anchor="middle" x="223" y="-7.5" font-family="Helvetica,sans-Serif" font-size="10.00">cstdint</text>
</a>
</g>
</g>
<!-- Node2&#45;&gt;Node5 -->
<g id="edge4" class="edge">
<title>Node2&#45;&gt;Node5</title>
<path fill="none" stroke="midnightblue" d="M193.78,-56.08C198.67,-48.53 205.83,-37.49 211.83,-28.23"/>
<polygon fill="midnightblue" stroke="midnightblue" points="214.83,-30.05 217.33,-19.75 208.95,-26.24 214.83,-30.05"/>
</g>
<!-- Node6 -->
<g id="node6" class="node">
<title>Node6</title>
<g id="a_node6"><a xlink:title=" ">
<polygon fill="white" stroke="#bfbfbf" points="266,-0.5 266,-19.5 316,-19.5 316,-0.5 266,-0.5"/>
<text text-anchor="middle" x="291" y="-7.5" font-family="Helvetica,sans-Serif" font-size="10.00">cstring</text>
</a>
</g>
</g>
<!-- Node2&#45;&gt;Node6 -->
<g id="edge5" class="edge">
<title>Node2&#45;&gt;Node6</title>
<path fill="none" stroke="midnightblue" d="M204.55,-56.32C220.99,-47.7 246.43,-34.36 265.47,-24.39"/>
<polygon fill="midnightblue" stroke="midnightblue" points="267.26,-27.4 274.49,-19.65 264.01,-21.2 267.26,-27.4"/>
</g>
<!-- Node7 -->
<g id="node7" class="node">
<title>Node7</title>
<g id="a_node7"><a xlink:title=" ">
<polygon fill="white" stroke="#bfbfbf" points="0,-0.5 0,-19.5 44,-19.5 44,-0.5 0,-0.5"/>
<text text-anchor="middle" x="22" y="-7.5" font-family="Helvetica,sans-Serif" font-size="10.00">string</text>
</a>
</g>
</g>
<!-- Node2&#45;&gt;Node7 -->
<g id="edge6" class="edge">
<title>Node2&#45;&gt;Node7</title>
<path fill="none" stroke="midnightblue" d="M161.7,-56.44C132.41,-46.92 85.09,-31.52 53.76,-21.33"/>
<polygon fill="midnightblue" stroke="midnightblue" points="54.79,-17.99 44.2,-18.22 52.62,-24.64 54.79,-17.99"/>
</g>
<!-- Node8 -->
<g id="node8" class="node">
<title>Node8</title>
<g id="a_node8"><a xlink:title=" ">
<polygon fill="white" stroke="#bfbfbf" points="62.5,-0.5 62.5,-19.5 109.5,-19.5 109.5,-0.5 62.5,-0.5"/>
<text text-anchor="middle" x="86" y="-7.5" font-family="Helvetica,sans-Serif" font-size="10.00">vector</text>
</a>
</g>
</g>
<!-- Node2&#45;&gt;Node8 -->
<g id="edge7" class="edge">
<title>Node2&#45;&gt;Node8</title>
<path fill="none" stroke="midnightblue" d="M171.61,-56.32C155.33,-47.7 130.13,-34.36 111.28,-24.39"/>
<polygon fill="midnightblue" stroke="midnightblue" points="112.82,-21.24 102.35,-19.65 109.55,-27.43 112.82,-21.24"/>
</g>
<!-- Node10 -->
<g id="node10" class="node">
<title>Node10</title>
<g id="a_node10"><a xlink:title=" ">
<polygon fill="white" stroke="#bfbfbf" points="488,-56.5 488,-75.5 544,-75.5 544,-56.5 488,-56.5"/>
<text text-anchor="middle" x="516" y="-63.5" font-family="Helvetica,sans-Serif" font-size="10.00">stddef.h</text>
</a>
</g>
</g>
<!-- Node9&#45;&gt;Node10 -->
<g id="edge9" class="edge">
<title>Node9&#45;&gt;Node10</title>
<path fill="none" stroke="midnightblue" d="M585.66,-112.32C572.84,-103.98 553.22,-91.21 538.06,-81.35"/>
<polygon fill="midnightblue" stroke="midnightblue" points="539.59,-78.17 529.3,-75.65 535.78,-84.04 539.59,-78.17"/>
</g>
<!-- Node11 -->
<g id="node11" class="node">
<title>Node11</title>
<g id="a_node11"><a xlink:title=" ">
<polygon fill="white" stroke="#bfbfbf" points="416.5,-56.5 416.5,-75.5 469.5,-75.5 469.5,-56.5 416.5,-56.5"/>
<text text-anchor="middle" x="443" y="-63.5" font-family="Helvetica,sans-Serif" font-size="10.00">stdint.h</text>
</a>
</g>
</g>
<!-- Node9&#45;&gt;Node11 -->
<g id="edge10" class="edge">
<title>Node9&#45;&gt;Node11</title>
<path fill="none" stroke="midnightblue" d="M574.28,-112.44C548.15,-103.4 506.74,-89.06 477.42,-78.92"/>
<polygon fill="midnightblue" stroke="midnightblue" points="478.2,-75.48 467.6,-75.52 475.91,-82.1 478.2,-75.48"/>
</g>
<!-- Node12 -->
<g id="node12" class="node">
<title>Node12</title>
<g id="a_node12"><a xlink:title=" ">
<polygon fill="white" stroke="#bfbfbf" points="562.5,-56.5 562.5,-75.5 691.5,-75.5 691.5,-56.5 562.5,-56.5"/>
<text text-anchor="middle" x="627" y="-63.5" font-family="Helvetica,sans-Serif" font-size="10.00">FuzzerExtFunctions.def</text>
</a>
</g>
</g>
<!-- Node9&#45;&gt;Node12 -->
<g id="edge11" class="edge">
<title>Node9&#45;&gt;Node12</title>
<path fill="none" stroke="midnightblue" d="M603.62,-112.08C607.46,-104.69 613.02,-93.95 617.76,-84.81"/>
<polygon fill="midnightblue" stroke="midnightblue" points="620.97,-86.24 622.46,-75.75 614.75,-83.02 620.97,-86.24"/>
</g>
<!-- Node13&#45;&gt;Node10 -->
<g id="edge13" class="edge">
<title>Node13&#45;&gt;Node10</title>
<path fill="none" stroke="midnightblue" d="M478.43,-112.08C484.85,-104.38 494.31,-93.03 502.12,-83.65"/>
<polygon fill="midnightblue" stroke="midnightblue" points="504.99,-85.67 508.71,-75.75 499.62,-81.19 504.99,-85.67"/>
</g>
<!-- Node13&#45;&gt;Node11 -->
<g id="edge14" class="edge">
<title>Node13&#45;&gt;Node11</title>
<path fill="none" stroke="midnightblue" d="M466.38,-112.08C462.54,-104.69 456.98,-93.95 452.24,-84.81"/>
<polygon fill="midnightblue" stroke="midnightblue" points="455.25,-83.02 447.54,-75.75 449.03,-86.24 455.25,-83.02"/>
</g>
<!-- Node14&#45;&gt;Node2 -->
<g id="edge16" class="edge">
<title>Node14&#45;&gt;Node2</title>
<path fill="none" stroke="midnightblue" d="M128.41,-112.32C139.11,-104.18 155.34,-91.84 168.16,-82.09"/>
<polygon fill="midnightblue" stroke="midnightblue" points="170.54,-84.67 176.39,-75.83 166.31,-79.1 170.54,-84.67"/>
</g>
<!-- Node15&#45;&gt;Node2 -->
<g id="edge18" class="edge">
<title>Node15&#45;&gt;Node2</title>
<path fill="none" stroke="midnightblue" d="M333.59,-112.44C304.23,-103.28 257.48,-88.69 224.9,-78.52"/>
<polygon fill="midnightblue" stroke="midnightblue" points="225.87,-75.16 215.28,-75.52 223.79,-81.84 225.87,-75.16"/>
</g>
<!-- Node15&#45;&gt;Node4 -->
<g id="edge19" class="edge">
<title>Node15&#45;&gt;Node4</title>
<path fill="none" stroke="midnightblue" d="M361,-112.37C361,-94.62 361,-53.67 361,-29.6"/>
<polygon fill="midnightblue" stroke="midnightblue" points="364.5,-29.59 361,-19.59 357.5,-29.59 364.5,-29.59"/>
</g>
<!-- Node15&#45;&gt;Node11 -->
<g id="edge20" class="edge">
<title>Node15&#45;&gt;Node11</title>
<path fill="none" stroke="midnightblue" d="M374.17,-112.32C386.85,-103.98 406.23,-91.21 421.21,-81.35"/>
<polygon fill="midnightblue" stroke="midnightblue" points="423.43,-84.08 429.86,-75.65 419.58,-78.23 423.43,-84.08"/>
</g>
<!-- Node16&#45;&gt;Node2 -->
<g id="edge22" class="edge">
<title>Node16&#45;&gt;Node2</title>
<path fill="none" stroke="midnightblue" d="M233.08,-112.08C225.22,-104.22 213.57,-92.57 204.08,-83.08"/>
<polygon fill="midnightblue" stroke="midnightblue" points="206.3,-80.35 196.75,-75.75 201.35,-85.3 206.3,-80.35"/>
</g>
</g>
</svg>
        <g id="navigator" transform="translate(0 0)" fill="#404254">
                <rect fill="#f2f5e9" fill-opacity="0.5" stroke="#606060" stroke-width=".5" x="0" y="0" width="60" height="60"/>
                <use id="zoomplus" xlink:href="#zoomPlus" x="17" y="9" onmousedown="handleZoom(evt,'in')"/>
                <use id="zoomminus" xlink:href="#zoomMin" x="42" y="9" onmousedown="handleZoom(evt,'out')"/>
                <use id="reset" xlink:href="#resetDef" x="30" y="36" onmousedown="handleReset()"/>
                <g id="arrowUp" xlink:href="#dirArrow" transform="translate(30 24)" onmousedown="handlePan(0,-1)">
                  <use xlink:href="#rim" fill="#404040">
                        <set attributeName="fill" to="#808080" begin="arrowUp.mouseover" end="arrowUp.mouseout"/>
                  </use>
                  <path fill="none" stroke="white" stroke-width="1.5" d="M0,-3.0v7 M-2.5,-0.5L0,-3.0L2.5,-0.5"/>
                </g>
                <g id="arrowRight" xlink:href="#dirArrow" transform="rotate(90) translate(36 -43)" onmousedown="handlePan(1,0)">
                  <use xlink:href="#rim" fill="#404040">
                        <set attributeName="fill" to="#808080" begin="arrowRight.mouseover" end="arrowRight.mouseout"/>
                  </use>
                  <path fill="none" stroke="white" stroke-width="1.5" d="M0,-3.0v7 M-2.5,-0.5L0,-3.0L2.5,-0.5"/>
                </g>
                <g id="arrowDown" xlink:href="#dirArrow" transform="rotate(180) translate(-30 -48)" onmousedown="handlePan(0,1)">
                  <use xlink:href="#rim" fill="#404040">
                        <set attributeName="fill" to="#808080" begin="arrowDown.mouseover" end="arrowDown.mouseout"/>
                  </use>
                  <path fill="none" stroke="white" stroke-width="1.5" d="M0,-3.0v7 M-2.5,-0.5L0,-3.0L2.5,-0.5"/>
                </g>
                <g id="arrowLeft" xlink:href="#dirArrow" transform="rotate(270) translate(-36 17)" onmousedown="handlePan(-1,0)">
                  <use xlink:href="#rim" fill="#404040">
                        <set attributeName="fill" to="#808080" begin="arrowLeft.mouseover" end="arrowLeft.mouseout"/>
                  </use>
                  <path fill="none" stroke="white" stroke-width="1.5" d="M0,-3.0v7 M-2.5,-0.5L0,-3.0L2.5,-0.5"/>
                </g>
        </g>
        <svg viewBox="0 0 15 15" width="100%" height="30px" preserveAspectRatio="xMaxYMin meet">
         <g id="arrow_out" transform="scale(0.3 0.3)">
          <a xlink:href="FuzzerInternal_8h__incl_org.svg" target="_base">
           <rect id="button" ry="5" rx="5" y="6" x="6" height="38" width="38"
                fill="#f2f5e9" fill-opacity="0.5" stroke="#606060" stroke-width="1.0"/>
           <path id="arrow"
             d="M 11.500037,31.436501 C 11.940474,20.09759 22.043105,11.32322 32.158766,21.979434 L 37.068811,17.246167 C 37.068811,17.246167 37.088388,32 37.088388,32 L 22.160133,31.978069 C 22.160133,31.978069 26.997745,27.140456 26.997745,27.140456 C 18.528582,18.264221 13.291696,25.230495 11.500037,31.436501 z"
             style="fill:#404040;"/>
          </a>
         </g>
        </svg>
</svg>
