<?xml version="1.0" encoding="UTF-8" standalone="no"?>
<!DOCTYPE svg PUBLIC "-//W3C//DTD SVG 1.1//EN"
 "http://www.w3.org/Graphics/SVG/1.1/DTD/svg11.dtd">
<!-- Generated by graphviz version 2.43.0 (0)
 -->
<!-- Title: mc_orchestrator/json&#45;3.7.3/test/thirdparty/Fuzzer/FuzzerCorpus.h Pages: 1 -->
<svg width="799pt" height="128pt"
 viewBox="0.00 0.00 798.50 128.00" xmlns="http://www.w3.org/2000/svg" xmlns:xlink="http://www.w3.org/1999/xlink">
<g id="graph0" class="graph" transform="scale(1 1) rotate(0) translate(4 124)">
<title>mc_orchestrator/json&#45;3.7.3/test/thirdparty/Fuzzer/FuzzerCorpus.h</title>
<polygon fill="white" stroke="transparent" points="-4,4 -4,-124 794.5,-124 794.5,4 -4,4"/>
<!-- Node1 -->
<g id="node1" class="node">
<title>Node1</title>
<g id="a_node1"><a xlink:title=" ">
<polygon fill="#bfbfbf" stroke="black" points="308,-78.5 308,-119.5 436,-119.5 436,-78.5 308,-78.5"/>
<text text-anchor="start" x="316" y="-107.5" font-family="Helvetica,sans-Serif" font-size="10.00">mc_orchestrator/json</text>
<text text-anchor="start" x="316" y="-96.5" font-family="Helvetica,sans-Serif" font-size="10.00">&#45;3.7.3/test/thirdparty</text>
<text text-anchor="middle" x="372" y="-85.5" font-family="Helvetica,sans-Serif" font-size="10.00">/Fuzzer/FuzzerCorpus.h</text>
</a>
</g>
</g>
<!-- Node2 -->
<g id="node2" class="node">
<title>Node2</title>
<g id="a_node2"><a xlink:href="FuzzerDriver_8cpp.html" target="_top" xlink:title=" ">
<polygon fill="white" stroke="black" points="0,-0.5 0,-41.5 136,-41.5 136,-0.5 0,-0.5"/>
<text text-anchor="start" x="8" y="-29.5" font-family="Helvetica,sans-Serif" font-size="10.00">mc_orchestrator/json</text>
<text text-anchor="start" x="8" y="-18.5" font-family="Helvetica,sans-Serif" font-size="10.00">&#45;3.7.3/test/thirdparty</text>
<text text-anchor="middle" x="68" y="-7.5" font-family="Helvetica,sans-Serif" font-size="10.00">/Fuzzer/FuzzerDriver.cpp</text>
</a>
</g>
</g>
<!-- Node1&#45;&gt;Node2 -->
<g id="edge1" class="edge">
<title>Node1&#45;&gt;Node2</title>
<path fill="none" stroke="midnightblue" d="M298.02,-79.99C253.62,-69.12 196.03,-54.92 145,-42 142.05,-41.25 139.05,-40.49 136.01,-39.71"/>
<polygon fill="midnightblue" stroke="midnightblue" points="297.31,-83.42 307.86,-82.4 298.98,-76.62 297.31,-83.42"/>
</g>
<!-- Node3 -->
<g id="node3" class="node">
<title>Node3</title>
<g id="a_node3"><a xlink:href="FuzzerLoop_8cpp.html" target="_top" xlink:title=" ">
<polygon fill="white" stroke="black" points="154.5,-0.5 154.5,-41.5 283.5,-41.5 283.5,-0.5 154.5,-0.5"/>
<text text-anchor="start" x="162.5" y="-29.5" font-family="Helvetica,sans-Serif" font-size="10.00">mc_orchestrator/json</text>
<text text-anchor="start" x="162.5" y="-18.5" font-family="Helvetica,sans-Serif" font-size="10.00">&#45;3.7.3/test/thirdparty</text>
<text text-anchor="middle" x="219" y="-7.5" font-family="Helvetica,sans-Serif" font-size="10.00">/Fuzzer/FuzzerLoop.cpp</text>
</a>
</g>
</g>
<!-- Node1&#45;&gt;Node3 -->
<g id="edge2" class="edge">
<title>Node1&#45;&gt;Node3</title>
<path fill="none" stroke="midnightblue" d="M323.5,-73.91C302.46,-63.46 278.15,-51.38 258.27,-41.51"/>
<polygon fill="midnightblue" stroke="midnightblue" points="322.09,-77.11 332.6,-78.43 325.2,-70.84 322.09,-77.11"/>
</g>
<!-- Node4 -->
<g id="node4" class="node">
<title>Node4</title>
<g id="a_node4"><a xlink:href="FuzzerMutate_8cpp.html" target="_top" xlink:title=" ">
<polygon fill="white" stroke="black" points="302,-0.5 302,-41.5 442,-41.5 442,-0.5 302,-0.5"/>
<text text-anchor="start" x="310" y="-29.5" font-family="Helvetica,sans-Serif" font-size="10.00">mc_orchestrator/json</text>
<text text-anchor="start" x="310" y="-18.5" font-family="Helvetica,sans-Serif" font-size="10.00">&#45;3.7.3/test/thirdparty</text>
<text text-anchor="middle" x="372" y="-7.5" font-family="Helvetica,sans-Serif" font-size="10.00">/Fuzzer/FuzzerMutate.cpp</text>
</a>
</g>
</g>
<!-- Node1&#45;&gt;Node4 -->
<g id="edge3" class="edge">
<title>Node1&#45;&gt;Node4</title>
<path fill="none" stroke="midnightblue" d="M372,-68.3C372,-59.3 372,-49.65 372,-41.51"/>
<polygon fill="midnightblue" stroke="midnightblue" points="368.5,-68.43 372,-78.43 375.5,-68.43 368.5,-68.43"/>
</g>
<!-- Node5 -->
<g id="node5" class="node">
<title>Node5</title>
<g id="a_node5"><a xlink:href="FuzzerTracePC_8cpp.html" target="_top" xlink:title=" ">
<polygon fill="white" stroke="black" points="460.5,-0.5 460.5,-41.5 605.5,-41.5 605.5,-0.5 460.5,-0.5"/>
<text text-anchor="start" x="468.5" y="-29.5" font-family="Helvetica,sans-Serif" font-size="10.00">mc_orchestrator/json</text>
<text text-anchor="start" x="468.5" y="-18.5" font-family="Helvetica,sans-Serif" font-size="10.00">&#45;3.7.3/test/thirdparty</text>
<text text-anchor="middle" x="533" y="-7.5" font-family="Helvetica,sans-Serif" font-size="10.00">/Fuzzer/FuzzerTracePC.cpp</text>
</a>
</g>
</g>
<!-- Node1&#45;&gt;Node5 -->
<g id="edge4" class="edge">
<title>Node1&#45;&gt;Node5</title>
<path fill="none" stroke="midnightblue" d="M422.74,-74.05C444.94,-63.57 470.67,-51.42 491.68,-41.51"/>
<polygon fill="midnightblue" stroke="midnightblue" points="421.01,-70.99 413.46,-78.43 424,-77.32 421.01,-70.99"/>
</g>
<!-- Node6 -->
<g id="node6" class="node">
<title>Node6</title>
<g id="a_node6"><a xlink:href="FuzzerUnittest_8cpp.html" target="_top" xlink:title=" ">
<polygon fill="white" stroke="black" points="623.5,-0.5 623.5,-41.5 790.5,-41.5 790.5,-0.5 623.5,-0.5"/>
<text text-anchor="start" x="631.5" y="-29.5" font-family="Helvetica,sans-Serif" font-size="10.00">mc_orchestrator/json</text>
<text text-anchor="start" x="631.5" y="-18.5" font-family="Helvetica,sans-Serif" font-size="10.00">&#45;3.7.3/test/thirdparty</text>
<text text-anchor="middle" x="707" y="-7.5" font-family="Helvetica,sans-Serif" font-size="10.00">/Fuzzer/test/FuzzerUnittest.cpp</text>
</a>
</g>
</g>
<!-- Node1&#45;&gt;Node6 -->
<g id="edge5" class="edge">
<title>Node1&#45;&gt;Node6</title>
<path fill="none" stroke="midnightblue" d="M446.1,-81.19C498.53,-69.3 568.9,-53.33 623.35,-40.98"/>
<polygon fill="midnightblue" stroke="midnightblue" points="445.17,-77.81 436.19,-83.44 446.72,-84.64 445.17,-77.81"/>
</g>
</g>
</svg>
