<?xml version="1.0" encoding="UTF-8" standalone="no"?>
<!DOCTYPE svg PUBLIC "-//W3C//DTD SVG 1.1//EN"
 "http://www.w3.org/Graphics/SVG/1.1/DTD/svg11.dtd">
<!-- Generated by graphviz version 2.43.0 (0)
 -->
<!-- Title: mc_orchestrator/json&#45;3.7.3/test/thirdparty/Fuzzer/FuzzerSHA1.h Pages: 1 -->
<svg width="1272pt" height="206pt"
 viewBox="0.00 0.00 1272.00 206.00" xmlns="http://www.w3.org/2000/svg" xmlns:xlink="http://www.w3.org/1999/xlink">
<g id="graph0" class="graph" transform="scale(1 1) rotate(0) translate(4 202)">
<title>mc_orchestrator/json&#45;3.7.3/test/thirdparty/Fuzzer/FuzzerSHA1.h</title>
<polygon fill="white" stroke="transparent" points="-4,4 -4,-202 1268,-202 1268,4 -4,4"/>
<!-- Node1 -->
<g id="node1" class="node">
<title>Node1</title>
<g id="a_node1"><a xlink:title=" ">
<polygon fill="#bfbfbf" stroke="black" points="715,-156.5 715,-197.5 836,-197.5 836,-156.5 715,-156.5"/>
<text text-anchor="start" x="723" y="-185.5" font-family="Helvetica,sans-Serif" font-size="10.00">mc_orchestrator/json</text>
<text text-anchor="start" x="723" y="-174.5" font-family="Helvetica,sans-Serif" font-size="10.00">&#45;3.7.3/test/thirdparty</text>
<text text-anchor="middle" x="775.5" y="-163.5" font-family="Helvetica,sans-Serif" font-size="10.00">/Fuzzer/FuzzerSHA1.h</text>
</a>
</g>
</g>
<!-- Node2 -->
<g id="node2" class="node">
<title>Node2</title>
<g id="a_node2"><a xlink:href="FuzzerCorpus_8h.html" target="_top" xlink:title=" ">
<polygon fill="white" stroke="black" points="711.5,-78.5 711.5,-119.5 839.5,-119.5 839.5,-78.5 711.5,-78.5"/>
<text text-anchor="start" x="719.5" y="-107.5" font-family="Helvetica,sans-Serif" font-size="10.00">mc_orchestrator/json</text>
<text text-anchor="start" x="719.5" y="-96.5" font-family="Helvetica,sans-Serif" font-size="10.00">&#45;3.7.3/test/thirdparty</text>
<text text-anchor="middle" x="775.5" y="-85.5" font-family="Helvetica,sans-Serif" font-size="10.00">/Fuzzer/FuzzerCorpus.h</text>
</a>
</g>
</g>
<!-- Node1&#45;&gt;Node2 -->
<g id="edge1" class="edge">
<title>Node1&#45;&gt;Node2</title>
<path fill="none" stroke="midnightblue" d="M775.5,-146.3C775.5,-137.3 775.5,-127.65 775.5,-119.51"/>
<polygon fill="midnightblue" stroke="midnightblue" points="772,-146.43 775.5,-156.43 779,-146.43 772,-146.43"/>
</g>
<!-- Node8 -->
<g id="node8" class="node">
<title>Node8</title>
<g id="a_node8"><a xlink:href="FuzzerInternal_8h.html" target="_top" xlink:title=" ">
<polygon fill="white" stroke="black" points="475.5,-78.5 475.5,-119.5 607.5,-119.5 607.5,-78.5 475.5,-78.5"/>
<text text-anchor="start" x="483.5" y="-107.5" font-family="Helvetica,sans-Serif" font-size="10.00">mc_orchestrator/json</text>
<text text-anchor="start" x="483.5" y="-96.5" font-family="Helvetica,sans-Serif" font-size="10.00">&#45;3.7.3/test/thirdparty</text>
<text text-anchor="middle" x="541.5" y="-85.5" font-family="Helvetica,sans-Serif" font-size="10.00">/Fuzzer/FuzzerInternal.h</text>
</a>
</g>
</g>
<!-- Node1&#45;&gt;Node8 -->
<g id="edge7" class="edge">
<title>Node1&#45;&gt;Node8</title>
<path fill="none" stroke="midnightblue" d="M705.62,-153.3C672.5,-142.55 633.32,-129.82 601.56,-119.51"/>
<polygon fill="midnightblue" stroke="midnightblue" points="704.65,-156.67 715.24,-156.43 706.81,-150.01 704.65,-156.67"/>
</g>
<!-- Node12 -->
<g id="node12" class="node">
<title>Node12</title>
<g id="a_node12"><a xlink:href="FuzzerSHA1_8cpp.html" target="_top" xlink:title=" ">
<polygon fill="white" stroke="black" points="857.5,-78.5 857.5,-119.5 989.5,-119.5 989.5,-78.5 857.5,-78.5"/>
<text text-anchor="start" x="865.5" y="-107.5" font-family="Helvetica,sans-Serif" font-size="10.00">mc_orchestrator/json</text>
<text text-anchor="start" x="865.5" y="-96.5" font-family="Helvetica,sans-Serif" font-size="10.00">&#45;3.7.3/test/thirdparty</text>
<text text-anchor="middle" x="923.5" y="-85.5" font-family="Helvetica,sans-Serif" font-size="10.00">/Fuzzer/FuzzerSHA1.cpp</text>
</a>
</g>
</g>
<!-- Node1&#45;&gt;Node12 -->
<g id="edge14" class="edge">
<title>Node1&#45;&gt;Node12</title>
<path fill="none" stroke="midnightblue" d="M822.69,-151.77C842.98,-141.35 866.37,-129.34 885.52,-119.51"/>
<polygon fill="midnightblue" stroke="midnightblue" points="820.91,-148.75 813.61,-156.43 824.11,-154.97 820.91,-148.75"/>
</g>
<!-- Node3 -->
<g id="node3" class="node">
<title>Node3</title>
<g id="a_node3"><a xlink:href="FuzzerDriver_8cpp.html" target="_top" xlink:title=" ">
<polygon fill="white" stroke="black" points="473.5,-0.5 473.5,-41.5 609.5,-41.5 609.5,-0.5 473.5,-0.5"/>
<text text-anchor="start" x="481.5" y="-29.5" font-family="Helvetica,sans-Serif" font-size="10.00">mc_orchestrator/json</text>
<text text-anchor="start" x="481.5" y="-18.5" font-family="Helvetica,sans-Serif" font-size="10.00">&#45;3.7.3/test/thirdparty</text>
<text text-anchor="middle" x="541.5" y="-7.5" font-family="Helvetica,sans-Serif" font-size="10.00">/Fuzzer/FuzzerDriver.cpp</text>
</a>
</g>
</g>
<!-- Node2&#45;&gt;Node3 -->
<g id="edge2" class="edge">
<title>Node2&#45;&gt;Node3</title>
<path fill="none" stroke="midnightblue" d="M705.62,-75.3C672.5,-64.55 633.32,-51.82 601.56,-41.51"/>
<polygon fill="midnightblue" stroke="midnightblue" points="704.65,-78.67 715.24,-78.43 706.81,-72.01 704.65,-78.67"/>
</g>
<!-- Node4 -->
<g id="node4" class="node">
<title>Node4</title>
<g id="a_node4"><a xlink:href="FuzzerLoop_8cpp.html" target="_top" xlink:title=" ">
<polygon fill="white" stroke="black" points="628,-0.5 628,-41.5 757,-41.5 757,-0.5 628,-0.5"/>
<text text-anchor="start" x="636" y="-29.5" font-family="Helvetica,sans-Serif" font-size="10.00">mc_orchestrator/json</text>
<text text-anchor="start" x="636" y="-18.5" font-family="Helvetica,sans-Serif" font-size="10.00">&#45;3.7.3/test/thirdparty</text>
<text text-anchor="middle" x="692.5" y="-7.5" font-family="Helvetica,sans-Serif" font-size="10.00">/Fuzzer/FuzzerLoop.cpp</text>
</a>
</g>
</g>
<!-- Node2&#45;&gt;Node4 -->
<g id="edge3" class="edge">
<title>Node2&#45;&gt;Node4</title>
<path fill="none" stroke="midnightblue" d="M746.55,-71.49C735.78,-61.63 723.76,-50.63 713.8,-41.51"/>
<polygon fill="midnightblue" stroke="midnightblue" points="744.39,-74.26 754.13,-78.43 749.11,-69.09 744.39,-74.26"/>
</g>
<!-- Node5 -->
<g id="node5" class="node">
<title>Node5</title>
<g id="a_node5"><a xlink:href="FuzzerMutate_8cpp.html" target="_top" xlink:title=" ">
<polygon fill="white" stroke="black" points="960.5,-0.5 960.5,-41.5 1100.5,-41.5 1100.5,-0.5 960.5,-0.5"/>
<text text-anchor="start" x="968.5" y="-29.5" font-family="Helvetica,sans-Serif" font-size="10.00">mc_orchestrator/json</text>
<text text-anchor="start" x="968.5" y="-18.5" font-family="Helvetica,sans-Serif" font-size="10.00">&#45;3.7.3/test/thirdparty</text>
<text text-anchor="middle" x="1030.5" y="-7.5" font-family="Helvetica,sans-Serif" font-size="10.00">/Fuzzer/FuzzerMutate.cpp</text>
</a>
</g>
</g>
<!-- Node2&#45;&gt;Node5 -->
<g id="edge4" class="edge">
<title>Node2&#45;&gt;Node5</title>
<path fill="none" stroke="midnightblue" d="M849.12,-76.06C885.61,-65.18 929.31,-52.16 964.68,-41.62"/>
<polygon fill="midnightblue" stroke="midnightblue" points="848.1,-72.71 839.52,-78.92 850.1,-79.42 848.1,-72.71"/>
</g>
<!-- Node6 -->
<g id="node6" class="node">
<title>Node6</title>
<g id="a_node6"><a xlink:href="FuzzerTracePC_8cpp.html" target="_top" xlink:title=" ">
<polygon fill="white" stroke="black" points="1119,-0.5 1119,-41.5 1264,-41.5 1264,-0.5 1119,-0.5"/>
<text text-anchor="start" x="1127" y="-29.5" font-family="Helvetica,sans-Serif" font-size="10.00">mc_orchestrator/json</text>
<text text-anchor="start" x="1127" y="-18.5" font-family="Helvetica,sans-Serif" font-size="10.00">&#45;3.7.3/test/thirdparty</text>
<text text-anchor="middle" x="1191.5" y="-7.5" font-family="Helvetica,sans-Serif" font-size="10.00">/Fuzzer/FuzzerTracePC.cpp</text>
</a>
</g>
</g>
<!-- Node2&#45;&gt;Node6 -->
<g id="edge5" class="edge">
<title>Node2&#45;&gt;Node6</title>
<path fill="none" stroke="midnightblue" d="M849.79,-77.87C964.98,-54.97 997.61,-63.3 1109.5,-42 1112.52,-41.42 1115.6,-40.81 1118.71,-40.16"/>
<polygon fill="midnightblue" stroke="midnightblue" points="848.98,-74.46 839.88,-79.87 850.37,-81.32 848.98,-74.46"/>
</g>
<!-- Node7 -->
<g id="node7" class="node">
<title>Node7</title>
<g id="a_node7"><a xlink:href="FuzzerUnittest_8cpp.html" target="_top" xlink:title=" ">
<polygon fill="white" stroke="black" points="775,-0.5 775,-41.5 942,-41.5 942,-0.5 775,-0.5"/>
<text text-anchor="start" x="783" y="-29.5" font-family="Helvetica,sans-Serif" font-size="10.00">mc_orchestrator/json</text>
<text text-anchor="start" x="783" y="-18.5" font-family="Helvetica,sans-Serif" font-size="10.00">&#45;3.7.3/test/thirdparty</text>
<text text-anchor="middle" x="858.5" y="-7.5" font-family="Helvetica,sans-Serif" font-size="10.00">/Fuzzer/test/FuzzerUnittest.cpp</text>
</a>
</g>
</g>
<!-- Node2&#45;&gt;Node7 -->
<g id="edge6" class="edge">
<title>Node2&#45;&gt;Node7</title>
<path fill="none" stroke="midnightblue" d="M804.45,-71.49C815.22,-61.63 827.24,-50.63 837.2,-41.51"/>
<polygon fill="midnightblue" stroke="midnightblue" points="801.89,-69.09 796.87,-78.43 806.61,-74.26 801.89,-69.09"/>
</g>
<!-- Node8&#45;&gt;Node3 -->
<g id="edge8" class="edge">
<title>Node8&#45;&gt;Node3</title>
<path fill="none" stroke="midnightblue" d="M541.5,-68.3C541.5,-59.3 541.5,-49.65 541.5,-41.51"/>
<polygon fill="midnightblue" stroke="midnightblue" points="538,-68.43 541.5,-78.43 545,-68.43 538,-68.43"/>
</g>
<!-- Node8&#45;&gt;Node4 -->
<g id="edge9" class="edge">
<title>Node8&#45;&gt;Node4</title>
<path fill="none" stroke="midnightblue" d="M589.37,-73.91C610.13,-63.46 634.13,-51.38 653.75,-41.51"/>
<polygon fill="midnightblue" stroke="midnightblue" points="587.75,-70.81 580.39,-78.43 590.89,-77.06 587.75,-70.81"/>
</g>
<!-- Node8&#45;&gt;Node7 -->
<g id="edge13" class="edge">
<title>Node8&#45;&gt;Node7</title>
<path fill="none" stroke="midnightblue" d="M617.31,-79.82C665.48,-68.28 727.8,-53.33 777.02,-41.53"/>
<polygon fill="midnightblue" stroke="midnightblue" points="616.48,-76.43 607.57,-82.16 618.11,-83.23 616.48,-76.43"/>
</g>
<!-- Node9 -->
<g id="node9" class="node">
<title>Node9</title>
<g id="a_node9"><a xlink:href="FuzzerMerge_8cpp.html" target="_top" xlink:title=" ">
<polygon fill="white" stroke="black" points="0,-0.5 0,-41.5 137,-41.5 137,-0.5 0,-0.5"/>
<text text-anchor="start" x="8" y="-29.5" font-family="Helvetica,sans-Serif" font-size="10.00">mc_orchestrator/json</text>
<text text-anchor="start" x="8" y="-18.5" font-family="Helvetica,sans-Serif" font-size="10.00">&#45;3.7.3/test/thirdparty</text>
<text text-anchor="middle" x="68.5" y="-7.5" font-family="Helvetica,sans-Serif" font-size="10.00">/Fuzzer/FuzzerMerge.cpp</text>
</a>
</g>
</g>
<!-- Node8&#45;&gt;Node9 -->
<g id="edge10" class="edge">
<title>Node8&#45;&gt;Node9</title>
<path fill="none" stroke="midnightblue" d="M465.46,-89.74C385.61,-80.48 256.6,-63.85 146.5,-42 143.48,-41.4 140.41,-40.76 137.31,-40.08"/>
<polygon fill="midnightblue" stroke="midnightblue" points="465.09,-93.22 475.43,-90.89 465.89,-86.27 465.09,-93.22"/>
</g>
<!-- Node10 -->
<g id="node10" class="node">
<title>Node10</title>
<g id="a_node10"><a xlink:href="FuzzerTraceState_8cpp.html" target="_top" xlink:title=" ">
<polygon fill="white" stroke="black" points="155.5,-0.5 155.5,-41.5 313.5,-41.5 313.5,-0.5 155.5,-0.5"/>
<text text-anchor="start" x="163.5" y="-29.5" font-family="Helvetica,sans-Serif" font-size="10.00">mc_orchestrator/json</text>
<text text-anchor="start" x="163.5" y="-18.5" font-family="Helvetica,sans-Serif" font-size="10.00">&#45;3.7.3/test/thirdparty</text>
<text text-anchor="middle" x="234.5" y="-7.5" font-family="Helvetica,sans-Serif" font-size="10.00">/Fuzzer/FuzzerTraceState.cpp</text>
</a>
</g>
</g>
<!-- Node8&#45;&gt;Node10 -->
<g id="edge11" class="edge">
<title>Node8&#45;&gt;Node10</title>
<path fill="none" stroke="midnightblue" d="M465.3,-79.14C419.05,-67.69 360.13,-53.1 313.4,-41.53"/>
<polygon fill="midnightblue" stroke="midnightblue" points="464.72,-82.6 475.26,-81.6 466.4,-75.8 464.72,-82.6"/>
</g>
<!-- Node11 -->
<g id="node11" class="node">
<title>Node11</title>
<g id="a_node11"><a xlink:href="FuzzerUtil_8cpp.html" target="_top" xlink:title=" ">
<polygon fill="white" stroke="black" points="332,-0.5 332,-41.5 455,-41.5 455,-0.5 332,-0.5"/>
<text text-anchor="start" x="340" y="-29.5" font-family="Helvetica,sans-Serif" font-size="10.00">mc_orchestrator/json</text>
<text text-anchor="start" x="340" y="-18.5" font-family="Helvetica,sans-Serif" font-size="10.00">&#45;3.7.3/test/thirdparty</text>
<text text-anchor="middle" x="393.5" y="-7.5" font-family="Helvetica,sans-Serif" font-size="10.00">/Fuzzer/FuzzerUtil.cpp</text>
</a>
</g>
</g>
<!-- Node8&#45;&gt;Node11 -->
<g id="edge12" class="edge">
<title>Node8&#45;&gt;Node11</title>
<path fill="none" stroke="midnightblue" d="M494.31,-73.77C474.02,-63.35 450.63,-51.34 431.48,-41.51"/>
<polygon fill="midnightblue" stroke="midnightblue" points="492.89,-76.97 503.39,-78.43 496.09,-70.75 492.89,-76.97"/>
</g>
</g>
</svg>
