<?xml version="1.0" encoding="UTF-8" standalone="no"?>
<!DOCTYPE svg PUBLIC "-//W3C//DTD SVG 1.1//EN"
 "http://www.w3.org/Graphics/SVG/1.1/DTD/svg11.dtd">
<!-- Generated by graphviz version 2.43.0 (0)
 -->
<!-- Title: __sanitizer_weak_hook_strncasecmp Pages: 1 -->
<svg width="1082pt" height="427pt"
 viewBox="0.00 0.00 1082.00 427.00" xmlns="http://www.w3.org/2000/svg" xmlns:xlink="http://www.w3.org/1999/xlink">
<g id="graph0" class="graph" transform="scale(1 1) rotate(0) translate(4 423)">
<title>__sanitizer_weak_hook_strncasecmp</title>
<polygon fill="white" stroke="transparent" points="-4,4 -4,-423 1078,-423 1078,4 -4,4"/>
<!-- Node1 -->
<g id="node1" class="node">
<title>Node1</title>
<g id="a_node1"><a xlink:title=" ">
<polygon fill="#bfbfbf" stroke="black" points="0,-332.5 0,-362.5 130,-362.5 130,-332.5 0,-332.5"/>
<text text-anchor="start" x="8" y="-350.5" font-family="Helvetica,sans-Serif" font-size="10.00">__sanitizer_weak_hook</text>
<text text-anchor="middle" x="65" y="-339.5" font-family="Helvetica,sans-Serif" font-size="10.00">_strncasecmp</text>
</a>
</g>
</g>
<!-- Node2 -->
<g id="node2" class="node">
<title>Node2</title>
<g id="a_node2"><a xlink:href="FuzzerTraceState_8cpp.html#a000b7fe9a111a8b501ddef439f95e065" target="_top" xlink:title=" ">
<polygon fill="white" stroke="black" points="166,-332.5 166,-362.5 296,-362.5 296,-332.5 166,-332.5"/>
<text text-anchor="start" x="174" y="-350.5" font-family="Helvetica,sans-Serif" font-size="10.00">__sanitizer_weak_hook</text>
<text text-anchor="middle" x="231" y="-339.5" font-family="Helvetica,sans-Serif" font-size="10.00">_strncmp</text>
</a>
</g>
</g>
<!-- Node1&#45;&gt;Node2 -->
<g id="edge1" class="edge">
<title>Node1&#45;&gt;Node2</title>
<path fill="none" stroke="midnightblue" d="M130.35,-347.5C138.64,-347.5 147.19,-347.5 155.62,-347.5"/>
<polygon fill="midnightblue" stroke="midnightblue" points="155.84,-351 165.84,-347.5 155.84,-344 155.84,-351"/>
</g>
<!-- Node3 -->
<g id="node3" class="node">
<title>Node3</title>
<g id="a_node3"><a xlink:href="classfuzzer_1_1TracePC.html#a2dfb83f24f9feeacd9d88c91a5927d20" target="_top" xlink:title=" ">
<polygon fill="white" stroke="black" points="332,-382.5 332,-412.5 476,-412.5 476,-382.5 332,-382.5"/>
<text text-anchor="start" x="340" y="-400.5" font-family="Helvetica,sans-Serif" font-size="10.00">fuzzer::TracePC::AddValue</text>
<text text-anchor="middle" x="404" y="-389.5" font-family="Helvetica,sans-Serif" font-size="10.00">ForStrcmp</text>
</a>
</g>
</g>
<!-- Node2&#45;&gt;Node3 -->
<g id="edge2" class="edge">
<title>Node2&#45;&gt;Node3</title>
<path fill="none" stroke="midnightblue" d="M283.31,-362.5C301.65,-367.87 322.51,-373.97 341.62,-379.55"/>
<polygon fill="midnightblue" stroke="midnightblue" points="340.85,-382.98 351.44,-382.42 342.82,-376.26 340.85,-382.98"/>
</g>
<!-- Node6 -->
<g id="node6" class="node">
<title>Node6</title>
<g id="a_node6"><a xlink:href="namespacefuzzer.html#ae946686cbc51969f2975098e37f264e8" target="_top" xlink:title=" ">
<polygon fill="white" stroke="black" points="341.5,-338 341.5,-357 466.5,-357 466.5,-338 341.5,-338"/>
<text text-anchor="middle" x="404" y="-345" font-family="Helvetica,sans-Serif" font-size="10.00">fuzzer::InternalStrnlen</text>
</a>
</g>
</g>
<!-- Node2&#45;&gt;Node6 -->
<g id="edge5" class="edge">
<title>Node2&#45;&gt;Node6</title>
<path fill="none" stroke="midnightblue" d="M296.16,-347.5C307.6,-347.5 319.57,-347.5 331.2,-347.5"/>
<polygon fill="midnightblue" stroke="midnightblue" points="331.31,-351 341.31,-347.5 331.31,-344 331.31,-351"/>
</g>
<!-- Node7 -->
<g id="node7" class="node">
<title>Node7</title>
<g id="a_node7"><a xlink:href="classfuzzer_1_1TraceState.html#a19ca7e78b3705def9767cef2d55d04ca" target="_top" xlink:title=" ">
<polygon fill="white" stroke="black" points="335.5,-276.5 335.5,-306.5 472.5,-306.5 472.5,-276.5 335.5,-276.5"/>
<text text-anchor="start" x="343.5" y="-294.5" font-family="Helvetica,sans-Serif" font-size="10.00">fuzzer::TraceState</text>
<text text-anchor="middle" x="404" y="-283.5" font-family="Helvetica,sans-Serif" font-size="10.00">::TraceMemcmpCallback</text>
</a>
</g>
</g>
<!-- Node2&#45;&gt;Node7 -->
<g id="edge6" class="edge">
<title>Node2&#45;&gt;Node7</title>
<path fill="none" stroke="midnightblue" d="M277.82,-332.49C299.2,-325.49 324.82,-317.1 347.3,-309.74"/>
<polygon fill="midnightblue" stroke="midnightblue" points="348.63,-312.99 357.05,-306.55 346.46,-306.33 348.63,-312.99"/>
</g>
<!-- Node4 -->
<g id="node4" class="node">
<title>Node4</title>
<g id="a_node4"><a xlink:href="classfuzzer_1_1TracePC.html#a55700216637d404ebbdfd2329c9b57a0" target="_top" xlink:title=" ">
<polygon fill="white" stroke="black" points="512,-388.5 512,-418.5 672,-418.5 672,-388.5 512,-388.5"/>
<text text-anchor="start" x="520" y="-406.5" font-family="Helvetica,sans-Serif" font-size="10.00">fuzzer::TracePC::HandleValue</text>
<text text-anchor="middle" x="592" y="-395.5" font-family="Helvetica,sans-Serif" font-size="10.00">Profile</text>
</a>
</g>
</g>
<!-- Node3&#45;&gt;Node4 -->
<g id="edge3" class="edge">
<title>Node3&#45;&gt;Node4</title>
<path fill="none" stroke="midnightblue" d="M476.11,-399.79C484.52,-400.07 493.17,-400.34 501.79,-400.62"/>
<polygon fill="midnightblue" stroke="midnightblue" points="501.75,-404.12 511.86,-400.95 501.98,-397.13 501.75,-404.12"/>
</g>
<!-- Node5 -->
<g id="node5" class="node">
<title>Node5</title>
<g id="a_node5"><a xlink:href="structfuzzer_1_1ValueBitMap.html#a716c1fc151b968063db3e37955ef530d" target="_top" xlink:title=" ">
<polygon fill="white" stroke="black" points="741,-388.5 741,-418.5 856,-418.5 856,-388.5 741,-388.5"/>
<text text-anchor="start" x="749" y="-406.5" font-family="Helvetica,sans-Serif" font-size="10.00">fuzzer::ValueBitMap</text>
<text text-anchor="middle" x="798.5" y="-395.5" font-family="Helvetica,sans-Serif" font-size="10.00">::AddValue</text>
</a>
</g>
</g>
<!-- Node4&#45;&gt;Node5 -->
<g id="edge4" class="edge">
<title>Node4&#45;&gt;Node5</title>
<path fill="none" stroke="midnightblue" d="M672.07,-403.5C691.41,-403.5 711.93,-403.5 730.64,-403.5"/>
<polygon fill="midnightblue" stroke="midnightblue" points="730.83,-407 740.83,-403.5 730.83,-400 730.83,-407"/>
</g>
<!-- Node8 -->
<g id="node8" class="node">
<title>Node8</title>
<g id="a_node8"><a xlink:href="classfuzzer_1_1FixedWord.html#a84e8edae6226d23a367c854de3c90a41" target="_top" xlink:title=" ">
<polygon fill="white" stroke="black" points="536,-339.5 536,-369.5 648,-369.5 648,-339.5 536,-339.5"/>
<text text-anchor="start" x="544" y="-357.5" font-family="Helvetica,sans-Serif" font-size="10.00">fuzzer::FixedWord&lt;</text>
<text text-anchor="middle" x="592" y="-346.5" font-family="Helvetica,sans-Serif" font-size="10.00"> 27 &gt;::GetMaxSize</text>
</a>
</g>
</g>
<!-- Node7&#45;&gt;Node8 -->
<g id="edge7" class="edge">
<title>Node7&#45;&gt;Node8</title>
<path fill="none" stroke="midnightblue" d="M449.55,-306.59C475.8,-315.48 509.19,-326.79 536.93,-336.19"/>
<polygon fill="midnightblue" stroke="midnightblue" points="535.9,-339.53 546.49,-339.42 538.14,-332.9 535.9,-339.53"/>
</g>
<!-- Node9 -->
<g id="node9" class="node">
<title>Node9</title>
<g id="a_node9"><a xlink:href="classfuzzer_1_1Fuzzer.html#a6b8043b43eaa243299df6d64ba8413b6" target="_top" xlink:title=" ">
<polygon fill="white" stroke="black" points="931.5,-210.5 931.5,-240.5 1067.5,-240.5 1067.5,-210.5 931.5,-210.5"/>
<text text-anchor="start" x="939.5" y="-228.5" font-family="Helvetica,sans-Serif" font-size="10.00">fuzzer::Fuzzer::InFuzzing</text>
<text text-anchor="middle" x="999.5" y="-217.5" font-family="Helvetica,sans-Serif" font-size="10.00">Thread</text>
</a>
</g>
</g>
<!-- Node7&#45;&gt;Node9 -->
<g id="edge8" class="edge">
<title>Node7&#45;&gt;Node9</title>
<path fill="none" stroke="midnightblue" d="M472.68,-302.72C567.69,-315.96 745.1,-331.51 889,-291.5 920.2,-282.82 951.4,-262.6 972.47,-246.81"/>
<polygon fill="midnightblue" stroke="midnightblue" points="974.78,-249.45 980.58,-240.58 970.52,-243.9 974.78,-249.45"/>
</g>
<!-- Node10 -->
<g id="node10" class="node">
<title>Node10</title>
<g id="a_node10"><a xlink:href="namespacefuzzer.html#a9745d98c9dbd0f6cf52f2a71ebf3f778" target="_top" xlink:title=" ">
<polygon fill="white" stroke="black" points="541.5,-263 541.5,-282 642.5,-282 642.5,-263 541.5,-263"/>
<text text-anchor="middle" x="592" y="-270" font-family="Helvetica,sans-Serif" font-size="10.00">fuzzer::PrintASCII</text>
</a>
</g>
</g>
<!-- Node7&#45;&gt;Node10 -->
<g id="edge9" class="edge">
<title>Node7&#45;&gt;Node10</title>
<path fill="none" stroke="midnightblue" d="M472.68,-284.59C491.87,-282.63 512.62,-280.51 531.31,-278.6"/>
<polygon fill="midnightblue" stroke="midnightblue" points="531.86,-282.06 541.45,-277.56 531.15,-275.1 531.86,-282.06"/>
</g>
<!-- Node13 -->
<g id="node13" class="node">
<title>Node13</title>
<g id="a_node13"><a xlink:href="namespacefuzzer.html#afab785891fdb74f8fd33bca421bde935" target="_top" xlink:title=" ">
<polygon fill="white" stroke="black" points="552.5,-225 552.5,-244 631.5,-244 631.5,-225 552.5,-225"/>
<text text-anchor="middle" x="592" y="-232" font-family="Helvetica,sans-Serif" font-size="10.00">fuzzer::Printf</text>
</a>
</g>
</g>
<!-- Node7&#45;&gt;Node13 -->
<g id="edge12" class="edge">
<title>Node7&#45;&gt;Node13</title>
<path fill="none" stroke="midnightblue" d="M444.31,-276.42C464.39,-269 489.32,-260.23 512,-253.5 521.74,-250.61 532.25,-247.84 542.32,-245.36"/>
<polygon fill="midnightblue" stroke="midnightblue" points="543.31,-248.72 552.21,-242.97 541.67,-241.91 543.31,-248.72"/>
</g>
<!-- Node14 -->
<g id="node14" class="node">
<title>Node14</title>
<g id="a_node14"><a xlink:href="classfuzzer_1_1TraceState.html#acf2bff66ee5368a9ca0d44d2926a5d6c" target="_top" xlink:title=" ">
<polygon fill="white" stroke="black" points="528,-104.5 528,-134.5 656,-134.5 656,-104.5 528,-104.5"/>
<text text-anchor="start" x="536" y="-122.5" font-family="Helvetica,sans-Serif" font-size="10.00">fuzzer::TraceState</text>
<text text-anchor="middle" x="592" y="-111.5" font-family="Helvetica,sans-Serif" font-size="10.00">::TryToAddDesiredData</text>
</a>
</g>
</g>
<!-- Node7&#45;&gt;Node14 -->
<g id="edge13" class="edge">
<title>Node7&#45;&gt;Node14</title>
<path fill="none" stroke="midnightblue" d="M421.51,-276.24C454.46,-245.76 528.52,-177.27 566.91,-141.78"/>
<polygon fill="midnightblue" stroke="midnightblue" points="569.57,-144.09 574.53,-134.73 564.81,-138.95 569.57,-144.09"/>
</g>
<!-- Node11 -->
<g id="node11" class="node">
<title>Node11</title>
<g id="a_node11"><a xlink:href="classfuzzer_1_1FixedWord.html#a14fbd18b5b0868f5d7f2d50a85d0b09e" target="_top" xlink:title=" ">
<polygon fill="white" stroke="black" points="733,-263 733,-282 864,-282 864,-263 733,-263"/>
<text text-anchor="middle" x="798.5" y="-270" font-family="Helvetica,sans-Serif" font-size="10.00">fuzzer::FixedWord::data</text>
</a>
</g>
</g>
<!-- Node10&#45;&gt;Node11 -->
<g id="edge10" class="edge">
<title>Node10&#45;&gt;Node11</title>
<path fill="none" stroke="midnightblue" d="M642.5,-272.5C666.61,-272.5 696.11,-272.5 722.87,-272.5"/>
<polygon fill="midnightblue" stroke="midnightblue" points="722.98,-276 732.98,-272.5 722.98,-269 722.98,-276"/>
</g>
<!-- Node12 -->
<g id="node12" class="node">
<title>Node12</title>
<g id="a_node12"><a xlink:href="classfuzzer_1_1FixedWord.html#a97ffcbd9ec743adabd6bdf85f0911e53" target="_top" xlink:title=" ">
<polygon fill="white" stroke="black" points="734,-225 734,-244 863,-244 863,-225 734,-225"/>
<text text-anchor="middle" x="798.5" y="-232" font-family="Helvetica,sans-Serif" font-size="10.00">fuzzer::FixedWord::size</text>
</a>
</g>
</g>
<!-- Node10&#45;&gt;Node12 -->
<g id="edge11" class="edge">
<title>Node10&#45;&gt;Node12</title>
<path fill="none" stroke="midnightblue" d="M642.5,-263.3C670.75,-258.05 706.4,-251.43 736.38,-245.86"/>
<polygon fill="midnightblue" stroke="midnightblue" points="737.12,-249.28 746.32,-244.01 735.85,-242.4 737.12,-249.28"/>
</g>
<!-- Node15 -->
<g id="node15" class="node">
<title>Node15</title>
<g id="a_node15"><a xlink:href="classfuzzer_1_1TraceState.html#a3cfaba51f138339caf55beb176fd25d2" target="_top" xlink:title=" ">
<polygon fill="white" stroke="black" points="746.5,-175.5 746.5,-205.5 850.5,-205.5 850.5,-175.5 746.5,-175.5"/>
<text text-anchor="start" x="754.5" y="-193.5" font-family="Helvetica,sans-Serif" font-size="10.00">fuzzer::TraceState</text>
<text text-anchor="middle" x="798.5" y="-182.5" font-family="Helvetica,sans-Serif" font-size="10.00">::AddMutation</text>
</a>
</g>
</g>
<!-- Node14&#45;&gt;Node15 -->
<g id="edge14" class="edge">
<title>Node14&#45;&gt;Node15</title>
<path fill="none" stroke="midnightblue" d="M627.86,-134.59C650.48,-144.09 680.71,-156.26 708,-165.5 717.07,-168.57 726.75,-171.56 736.27,-174.35"/>
<polygon fill="midnightblue" stroke="midnightblue" points="735.51,-177.77 746.09,-177.17 737.45,-171.04 735.51,-177.77"/>
</g>
<!-- Node16 -->
<g id="node16" class="node">
<title>Node16</title>
<g id="a_node16"><a xlink:href="FuzzerTracePC_8cpp.html#a1f10ac78bd11294b612636121065eb5b" target="_top" xlink:title=" ">
<polygon fill="white" stroke="black" points="976,-88 976,-107 1023,-107 1023,-88 976,-88"/>
<text text-anchor="middle" x="999.5" y="-95" font-family="Helvetica,sans-Serif" font-size="10.00">assert</text>
</a>
</g>
</g>
<!-- Node14&#45;&gt;Node16 -->
<g id="edge15" class="edge">
<title>Node14&#45;&gt;Node16</title>
<path fill="none" stroke="midnightblue" d="M656.36,-116.06C743.89,-111.31 898.61,-102.92 965.82,-99.27"/>
<polygon fill="midnightblue" stroke="midnightblue" points="966.03,-102.77 975.83,-98.73 965.65,-95.78 966.03,-102.77"/>
</g>
<!-- Node17 -->
<g id="node17" class="node">
<title>Node17</title>
<g id="a_node17"><a xlink:href="classfuzzer_1_1Fuzzer.html#af1d13fc1411234ad0cb2b10175d71141" target="_top" xlink:title=" ">
<polygon fill="white" stroke="black" points="727,-126.5 727,-156.5 870,-156.5 870,-126.5 727,-126.5"/>
<text text-anchor="start" x="735" y="-144.5" font-family="Helvetica,sans-Serif" font-size="10.00">fuzzer::Fuzzer::GetCurrent</text>
<text text-anchor="middle" x="798.5" y="-133.5" font-family="Helvetica,sans-Serif" font-size="10.00">UnitInFuzzingThead</text>
</a>
</g>
</g>
<!-- Node14&#45;&gt;Node17 -->
<g id="edge16" class="edge">
<title>Node14&#45;&gt;Node17</title>
<path fill="none" stroke="midnightblue" d="M656.03,-126.28C675.2,-128.34 696.55,-130.64 716.72,-132.81"/>
<polygon fill="midnightblue" stroke="midnightblue" points="716.52,-136.31 726.83,-133.9 717.26,-129.35 716.52,-136.31"/>
</g>
<!-- Node18 -->
<g id="node18" class="node">
<title>Node18</title>
<g id="a_node18"><a xlink:href="namespacefuzzer.html#a9b4934ed79a55b68a755460b14bca579" target="_top" xlink:title=" ">
<polygon fill="white" stroke="black" points="735.5,-50 735.5,-69 861.5,-69 861.5,-50 735.5,-50"/>
<text text-anchor="middle" x="798.5" y="-57" font-family="Helvetica,sans-Serif" font-size="10.00">fuzzer::SearchMemory</text>
</a>
</g>
</g>
<!-- Node14&#45;&gt;Node18 -->
<g id="edge19" class="edge">
<title>Node14&#45;&gt;Node18</title>
<path fill="none" stroke="midnightblue" d="M639.59,-104.43C660.45,-97.81 685.4,-90.06 708,-83.5 721.8,-79.49 736.86,-75.36 750.63,-71.68"/>
<polygon fill="midnightblue" stroke="midnightblue" points="751.63,-75.03 760.39,-69.08 749.83,-68.27 751.63,-75.03"/>
</g>
<!-- Node19 -->
<g id="node19" class="node">
<title>Node19</title>
<g id="a_node19"><a xlink:href="classfuzzer_1_1TraceState.html#a6271f1ea9d8d46b0dc542f25dd89dc3b" target="_top" xlink:title=" ">
<polygon fill="white" stroke="black" points="708,-0.5 708,-30.5 889,-30.5 889,-0.5 708,-0.5"/>
<text text-anchor="start" x="716" y="-18.5" font-family="Helvetica,sans-Serif" font-size="10.00">fuzzer::TraceState</text>
<text text-anchor="middle" x="798.5" y="-7.5" font-family="Helvetica,sans-Serif" font-size="10.00">::WantToHandleOneMoreMutation</text>
</a>
</g>
</g>
<!-- Node14&#45;&gt;Node19 -->
<g id="edge20" class="edge">
<title>Node14&#45;&gt;Node19</title>
<path fill="none" stroke="midnightblue" d="M610.97,-104.33C632.68,-86.71 670.91,-57.83 708,-40.5 713.02,-38.15 718.31,-35.98 723.7,-33.99"/>
<polygon fill="midnightblue" stroke="midnightblue" points="725.19,-37.18 733.49,-30.59 722.89,-30.57 725.19,-37.18"/>
</g>
<!-- Node17&#45;&gt;Node9 -->
<g id="edge18" class="edge">
<title>Node17&#45;&gt;Node9</title>
<path fill="none" stroke="midnightblue" d="M863.2,-156.56C871.97,-159.22 880.79,-162.2 889,-165.5 916.11,-176.38 945.02,-192.43 966.32,-205.19"/>
<polygon fill="midnightblue" stroke="midnightblue" points="964.59,-208.24 974.96,-210.44 968.23,-202.25 964.59,-208.24"/>
</g>
<!-- Node17&#45;&gt;Node16 -->
<g id="edge17" class="edge">
<title>Node17&#45;&gt;Node16</title>
<path fill="none" stroke="midnightblue" d="M867.43,-126.48C900.63,-119.14 939.06,-110.64 965.69,-104.76"/>
<polygon fill="midnightblue" stroke="midnightblue" points="966.62,-108.13 975.63,-102.56 965.11,-101.3 966.62,-108.13"/>
</g>
<!-- Node19&#45;&gt;Node16 -->
<g id="edge21" class="edge">
<title>Node19&#45;&gt;Node16</title>
<path fill="none" stroke="midnightblue" d="M860.24,-30.63C869.97,-33.57 879.85,-36.88 889,-40.5 919.21,-52.43 952.03,-70.22 973.78,-82.74"/>
<polygon fill="midnightblue" stroke="midnightblue" points="972.27,-85.91 982.67,-87.92 975.79,-79.86 972.27,-85.91"/>
</g>
<!-- Node20 -->
<g id="node20" class="node">
<title>Node20</title>
<g id="a_node20"><a xlink:href="classfuzzer_1_1MutationDispatcher.html#a22242737e63376b4ab6c22210c42c8ab" target="_top" xlink:title=" ">
<polygon fill="white" stroke="black" points="925,-0.5 925,-30.5 1074,-30.5 1074,-0.5 925,-0.5"/>
<text text-anchor="start" x="933" y="-18.5" font-family="Helvetica,sans-Serif" font-size="10.00">fuzzer::MutationDispatcher</text>
<text text-anchor="middle" x="999.5" y="-7.5" font-family="Helvetica,sans-Serif" font-size="10.00">::GetRand</text>
</a>
</g>
</g>
<!-- Node19&#45;&gt;Node20 -->
<g id="edge22" class="edge">
<title>Node19&#45;&gt;Node20</title>
<path fill="none" stroke="midnightblue" d="M889.1,-15.5C897.61,-15.5 906.22,-15.5 914.67,-15.5"/>
<polygon fill="midnightblue" stroke="midnightblue" points="914.88,-19 924.88,-15.5 914.88,-12 914.88,-19"/>
</g>
</g>
</svg>
