<?xml version="1.0" encoding="UTF-8" standalone="no"?>
<!DOCTYPE svg PUBLIC "-//W3C//DTD SVG 1.1//EN"
 "http://www.w3.org/Graphics/SVG/1.1/DTD/svg11.dtd">
<!-- Generated by graphviz version 2.43.0 (0)
 -->
<!-- Title: LLVMFuzzerCustomMutator Pages: 1 -->
<svg width="486pt" height="116pt"
 viewBox="0.00 0.00 486.00 116.00" xmlns="http://www.w3.org/2000/svg" xmlns:xlink="http://www.w3.org/1999/xlink">
<g id="graph0" class="graph" transform="scale(1 1) rotate(0) translate(4 112)">
<title>LLVMFuzzerCustomMutator</title>
<polygon fill="white" stroke="transparent" points="-4,4 -4,-112 482,-112 482,4 -4,4"/>
<!-- Node1 -->
<g id="node1" class="node">
<title>Node1</title>
<g id="a_node1"><a xlink:title=" ">
<polygon fill="#bfbfbf" stroke="black" points="0,-44.5 0,-63.5 149,-63.5 149,-44.5 0,-44.5"/>
<text text-anchor="middle" x="74.5" y="-51.5" font-family="Helvetica,sans-Serif" font-size="10.00">LLVMFuzzerCustomMutator</text>
</a>
</g>
</g>
<!-- Node2 -->
<g id="node2" class="node">
<title>Node2</title>
<g id="a_node2"><a xlink:href="FuzzerInterface_8h.html#a707cf06cec36db401461e605e1515f51" target="_top" xlink:title=" ">
<polygon fill="white" stroke="black" points="185,-44.5 185,-63.5 293,-63.5 293,-44.5 185,-44.5"/>
<text text-anchor="middle" x="239" y="-51.5" font-family="Helvetica,sans-Serif" font-size="10.00">LLVMFuzzerMutate</text>
</a>
</g>
</g>
<!-- Node1&#45;&gt;Node2 -->
<g id="edge1" class="edge">
<title>Node1&#45;&gt;Node2</title>
<path fill="none" stroke="midnightblue" d="M149.14,-54C157.62,-54 166.21,-54 174.54,-54"/>
<polygon fill="midnightblue" stroke="midnightblue" points="174.54,-57.5 184.54,-54 174.54,-50.5 174.54,-57.5"/>
</g>
<!-- Node3 -->
<g id="node3" class="node">
<title>Node3</title>
<g id="a_node3"><a xlink:href="FuzzerTracePC_8cpp.html#a1f10ac78bd11294b612636121065eb5b" target="_top" xlink:title=" ">
<polygon fill="white" stroke="black" points="380,-88.5 380,-107.5 427,-107.5 427,-88.5 380,-88.5"/>
<text text-anchor="middle" x="403.5" y="-95.5" font-family="Helvetica,sans-Serif" font-size="10.00">assert</text>
</a>
</g>
</g>
<!-- Node2&#45;&gt;Node3 -->
<g id="edge2" class="edge">
<title>Node2&#45;&gt;Node3</title>
<path fill="none" stroke="midnightblue" d="M273.34,-63.54C290.03,-68.28 310.56,-74.03 329,-79 342.46,-82.63 357.33,-86.5 370.17,-89.8"/>
<polygon fill="midnightblue" stroke="midnightblue" points="369.39,-93.21 379.95,-92.3 371.13,-86.43 369.39,-93.21"/>
</g>
<!-- Node4 -->
<g id="node4" class="node">
<title>Node4</title>
<g id="a_node4"><a xlink:href="classfuzzer_1_1MutationDispatcher.html#a8c0a901b3167282ed07de767de9ed01f" target="_top" xlink:title=" ">
<polygon fill="white" stroke="black" points="329,-39 329,-69 478,-69 478,-39 329,-39"/>
<text text-anchor="start" x="337" y="-57" font-family="Helvetica,sans-Serif" font-size="10.00">fuzzer::MutationDispatcher</text>
<text text-anchor="middle" x="403.5" y="-46" font-family="Helvetica,sans-Serif" font-size="10.00">::DefaultMutate</text>
</a>
</g>
</g>
<!-- Node2&#45;&gt;Node4 -->
<g id="edge3" class="edge">
<title>Node2&#45;&gt;Node4</title>
<path fill="none" stroke="midnightblue" d="M293.21,-54C301.39,-54 310.01,-54 318.66,-54"/>
<polygon fill="midnightblue" stroke="midnightblue" points="318.82,-57.5 328.82,-54 318.82,-50.5 318.82,-57.5"/>
</g>
<!-- Node5 -->
<g id="node5" class="node">
<title>Node5</title>
<g id="a_node5"><a xlink:href="classfuzzer_1_1Fuzzer.html#a505a66d146838185619375121b9e0f89" target="_top" xlink:title=" ">
<polygon fill="white" stroke="black" points="341.5,-0.5 341.5,-19.5 465.5,-19.5 465.5,-0.5 341.5,-0.5"/>
<text text-anchor="middle" x="403.5" y="-7.5" font-family="Helvetica,sans-Serif" font-size="10.00">fuzzer::Fuzzer::GetMD</text>
</a>
</g>
</g>
<!-- Node2&#45;&gt;Node5 -->
<g id="edge4" class="edge">
<title>Node2&#45;&gt;Node5</title>
<path fill="none" stroke="midnightblue" d="M275.26,-44.45C299.32,-37.94 331.41,-29.25 357.34,-22.23"/>
<polygon fill="midnightblue" stroke="midnightblue" points="358.57,-25.52 367.31,-19.53 356.74,-18.76 358.57,-25.52"/>
</g>
</g>
</svg>
