<?xml version="1.0" encoding="UTF-8" standalone="no"?>
<!DOCTYPE svg PUBLIC "-//W3C//DTD SVG 1.1//EN"
 "http://www.w3.org/Graphics/SVG/1.1/DTD/svg11.dtd">
<!-- Generated by graphviz version 2.43.0 (0)
 -->
<!-- Title: mc_orchestrator/json&#45;3.7.3/test/thirdparty/Fuzzer/FuzzerMerge.h Pages: 1 -->
<svg width="396pt" height="162pt"
 viewBox="0.00 0.00 395.50 162.00" xmlns="http://www.w3.org/2000/svg" xmlns:xlink="http://www.w3.org/1999/xlink">
<g id="graph0" class="graph" transform="scale(1 1) rotate(0) translate(4 158)">
<title>mc_orchestrator/json&#45;3.7.3/test/thirdparty/Fuzzer/FuzzerMerge.h</title>
<polygon fill="white" stroke="transparent" points="-4,4 -4,-158 391.5,-158 391.5,4 -4,4"/>
<!-- Node1 -->
<g id="node1" class="node">
<title>Node1</title>
<g id="a_node1"><a xlink:title=" ">
<polygon fill="#bfbfbf" stroke="black" points="223.5,-112.5 223.5,-153.5 348.5,-153.5 348.5,-112.5 223.5,-112.5"/>
<text text-anchor="start" x="231.5" y="-141.5" font-family="Helvetica,sans-Serif" font-size="10.00">mc_orchestrator/json</text>
<text text-anchor="start" x="231.5" y="-130.5" font-family="Helvetica,sans-Serif" font-size="10.00">&#45;3.7.3/test/thirdparty</text>
<text text-anchor="middle" x="286" y="-119.5" font-family="Helvetica,sans-Serif" font-size="10.00">/Fuzzer/FuzzerMerge.h</text>
</a>
</g>
</g>
<!-- Node2 -->
<g id="node2" class="node">
<title>Node2</title>
<g id="a_node2"><a xlink:href="FuzzerDefs_8h.html" target="_top" xlink:title=" ">
<polygon fill="white" stroke="black" points="161,-56.5 161,-75.5 241,-75.5 241,-56.5 161,-56.5"/>
<text text-anchor="middle" x="201" y="-63.5" font-family="Helvetica,sans-Serif" font-size="10.00">FuzzerDefs.h</text>
</a>
</g>
</g>
<!-- Node1&#45;&gt;Node2 -->
<g id="edge1" class="edge">
<title>Node1&#45;&gt;Node2</title>
<path fill="none" stroke="midnightblue" d="M260.5,-112.5C247.59,-102.63 232.18,-90.84 220.28,-81.74"/>
<polygon fill="midnightblue" stroke="midnightblue" points="222.38,-78.95 212.31,-75.65 218.13,-84.51 222.38,-78.95"/>
</g>
<!-- Node9 -->
<g id="node9" class="node">
<title>Node9</title>
<g id="a_node9"><a xlink:title=" ">
<polygon fill="white" stroke="#bfbfbf" points="259,-56.5 259,-75.5 313,-75.5 313,-56.5 259,-56.5"/>
<text text-anchor="middle" x="286" y="-63.5" font-family="Helvetica,sans-Serif" font-size="10.00">istream</text>
</a>
</g>
</g>
<!-- Node1&#45;&gt;Node9 -->
<g id="edge8" class="edge">
<title>Node1&#45;&gt;Node9</title>
<path fill="none" stroke="midnightblue" d="M286,-112.5C286,-104.07 286,-94.24 286,-85.87"/>
<polygon fill="midnightblue" stroke="midnightblue" points="289.5,-85.65 286,-75.65 282.5,-85.65 289.5,-85.65"/>
</g>
<!-- Node10 -->
<g id="node10" class="node">
<title>Node10</title>
<g id="a_node10"><a xlink:title=" ">
<polygon fill="white" stroke="#bfbfbf" points="331,-56.5 331,-75.5 363,-75.5 363,-56.5 331,-56.5"/>
<text text-anchor="middle" x="347" y="-63.5" font-family="Helvetica,sans-Serif" font-size="10.00">set</text>
</a>
</g>
</g>
<!-- Node1&#45;&gt;Node10 -->
<g id="edge9" class="edge">
<title>Node1&#45;&gt;Node10</title>
<path fill="none" stroke="midnightblue" d="M304.3,-112.5C313.11,-103.11 323.55,-91.98 331.91,-83.08"/>
<polygon fill="midnightblue" stroke="midnightblue" points="334.59,-85.34 338.88,-75.65 329.48,-80.55 334.59,-85.34"/>
</g>
<!-- Node3 -->
<g id="node3" class="node">
<title>Node3</title>
<g id="a_node3"><a xlink:title=" ">
<polygon fill="white" stroke="#bfbfbf" points="0,-0.5 0,-19.5 52,-19.5 52,-0.5 0,-0.5"/>
<text text-anchor="middle" x="26" y="-7.5" font-family="Helvetica,sans-Serif" font-size="10.00">cassert</text>
</a>
</g>
</g>
<!-- Node2&#45;&gt;Node3 -->
<g id="edge2" class="edge">
<title>Node2&#45;&gt;Node3</title>
<path fill="none" stroke="midnightblue" d="M173.27,-56.44C143.14,-47.15 94.89,-32.26 61.89,-22.07"/>
<polygon fill="midnightblue" stroke="midnightblue" points="62.76,-18.68 52.17,-19.08 60.69,-25.37 62.76,-18.68"/>
</g>
<!-- Node4 -->
<g id="node4" class="node">
<title>Node4</title>
<g id="a_node4"><a xlink:title=" ">
<polygon fill="white" stroke="#bfbfbf" points="70.5,-0.5 70.5,-19.5 123.5,-19.5 123.5,-0.5 70.5,-0.5"/>
<text text-anchor="middle" x="97" y="-7.5" font-family="Helvetica,sans-Serif" font-size="10.00">cstddef</text>
</a>
</g>
</g>
<!-- Node2&#45;&gt;Node4 -->
<g id="edge3" class="edge">
<title>Node2&#45;&gt;Node4</title>
<path fill="none" stroke="midnightblue" d="M184.29,-56.32C167.69,-47.7 142,-34.36 122.78,-24.39"/>
<polygon fill="midnightblue" stroke="midnightblue" points="124.16,-21.16 113.67,-19.65 120.93,-27.37 124.16,-21.16"/>
</g>
<!-- Node5 -->
<g id="node5" class="node">
<title>Node5</title>
<g id="a_node5"><a xlink:title=" ">
<polygon fill="white" stroke="#bfbfbf" points="142,-0.5 142,-19.5 192,-19.5 192,-0.5 142,-0.5"/>
<text text-anchor="middle" x="167" y="-7.5" font-family="Helvetica,sans-Serif" font-size="10.00">cstdint</text>
</a>
</g>
</g>
<!-- Node2&#45;&gt;Node5 -->
<g id="edge4" class="edge">
<title>Node2&#45;&gt;Node5</title>
<path fill="none" stroke="midnightblue" d="M195.39,-56.08C190.63,-48.53 183.68,-37.49 177.85,-28.23"/>
<polygon fill="midnightblue" stroke="midnightblue" points="180.8,-26.35 172.51,-19.75 174.88,-30.08 180.8,-26.35"/>
</g>
<!-- Node6 -->
<g id="node6" class="node">
<title>Node6</title>
<g id="a_node6"><a xlink:title=" ">
<polygon fill="white" stroke="#bfbfbf" points="210,-0.5 210,-19.5 260,-19.5 260,-0.5 210,-0.5"/>
<text text-anchor="middle" x="235" y="-7.5" font-family="Helvetica,sans-Serif" font-size="10.00">cstring</text>
</a>
</g>
</g>
<!-- Node2&#45;&gt;Node6 -->
<g id="edge5" class="edge">
<title>Node2&#45;&gt;Node6</title>
<path fill="none" stroke="midnightblue" d="M206.61,-56.08C211.37,-48.53 218.32,-37.49 224.15,-28.23"/>
<polygon fill="midnightblue" stroke="midnightblue" points="227.12,-30.08 229.49,-19.75 221.2,-26.35 227.12,-30.08"/>
</g>
<!-- Node7 -->
<g id="node7" class="node">
<title>Node7</title>
<g id="a_node7"><a xlink:title=" ">
<polygon fill="white" stroke="#bfbfbf" points="278,-0.5 278,-19.5 322,-19.5 322,-0.5 278,-0.5"/>
<text text-anchor="middle" x="300" y="-7.5" font-family="Helvetica,sans-Serif" font-size="10.00">string</text>
</a>
</g>
</g>
<!-- Node2&#45;&gt;Node7 -->
<g id="edge6" class="edge">
<title>Node2&#45;&gt;Node7</title>
<path fill="none" stroke="midnightblue" d="M216.91,-56.32C232.64,-47.74 256.94,-34.49 275.21,-24.52"/>
<polygon fill="midnightblue" stroke="midnightblue" points="277.03,-27.52 284.13,-19.65 273.68,-21.37 277.03,-27.52"/>
</g>
<!-- Node8 -->
<g id="node8" class="node">
<title>Node8</title>
<g id="a_node8"><a xlink:title=" ">
<polygon fill="white" stroke="#bfbfbf" points="340.5,-0.5 340.5,-19.5 387.5,-19.5 387.5,-0.5 340.5,-0.5"/>
<text text-anchor="middle" x="364" y="-7.5" font-family="Helvetica,sans-Serif" font-size="10.00">vector</text>
</a>
</g>
</g>
<!-- Node2&#45;&gt;Node8 -->
<g id="edge7" class="edge">
<title>Node2&#45;&gt;Node8</title>
<path fill="none" stroke="midnightblue" d="M226.83,-56.44C254.89,-47.15 299.83,-32.26 330.57,-22.07"/>
<polygon fill="midnightblue" stroke="midnightblue" points="332.02,-25.28 340.41,-18.82 329.82,-18.64 332.02,-25.28"/>
</g>
</g>
</svg>
