<?xml version="1.0" encoding="UTF-8" standalone="no"?>
<!DOCTYPE svg PUBLIC "-//W3C//DTD SVG 1.1//EN"
 "http://www.w3.org/Graphics/SVG/1.1/DTD/svg11.dtd">
<!-- Generated by graphviz version 2.43.0 (0)
 -->
<!-- Title: LLVMFuzzerTestOneInput Pages: 1 -->
<svg width="702pt" height="107pt"
 viewBox="0.00 0.00 702.00 107.43" xmlns="http://www.w3.org/2000/svg" xmlns:xlink="http://www.w3.org/1999/xlink">
<g id="graph0" class="graph" transform="scale(1 1) rotate(0) translate(4 103.43)">
<title>LLVMFuzzerTestOneInput</title>
<polygon fill="white" stroke="transparent" points="-4,4 -4,-103.43 698,-103.43 698,4 -4,4"/>
<!-- Node1 -->
<g id="node1" class="node">
<title>Node1</title>
<g id="a_node1"><a xlink:title=" ">
<polygon fill="#bfbfbf" stroke="black" points="0,-55 0,-74 137,-74 137,-55 0,-55"/>
<text text-anchor="middle" x="68.5" y="-62" font-family="Helvetica,sans-Serif" font-size="10.00">LLVMFuzzerTestOneInput</text>
</a>
</g>
</g>
<!-- Node2 -->
<g id="node2" class="node">
<title>Node2</title>
<g id="a_node2"><a xlink:href="FuzzerTracePC_8cpp.html#a1f10ac78bd11294b612636121065eb5b" target="_top" xlink:title=" ">
<polygon fill="white" stroke="black" points="647,-77 647,-96 694,-96 694,-77 647,-77"/>
<text text-anchor="middle" x="670.5" y="-84" font-family="Helvetica,sans-Serif" font-size="10.00">assert</text>
</a>
</g>
</g>
<!-- Node1&#45;&gt;Node2 -->
<g id="edge1" class="edge">
<title>Node1&#45;&gt;Node2</title>
<path fill="none" stroke="midnightblue" d="M102.26,-74.11C122.45,-79.53 148.99,-85.75 173,-88.5 346.4,-108.34 556.1,-95.55 636.2,-89.33"/>
<polygon fill="midnightblue" stroke="midnightblue" points="636.94,-92.78 646.63,-88.5 636.38,-85.8 636.94,-92.78"/>
</g>
<!-- Node3 -->
<g id="node3" class="node">
<title>Node3</title>
<g id="a_node3"><a xlink:href="classnlohmann_1_1basic__json.html#a1d568ba1bd6978d80db42aa76626e2cf" target="_top" xlink:title="create a JSON value from an input in CBOR format">
<polygon fill="white" stroke="black" points="173,-49.5 173,-79.5 295,-79.5 295,-49.5 173,-49.5"/>
<text text-anchor="start" x="181" y="-67.5" font-family="Helvetica,sans-Serif" font-size="10.00">nlohmann::basic_json</text>
<text text-anchor="middle" x="234" y="-56.5" font-family="Helvetica,sans-Serif" font-size="10.00">::from_cbor</text>
</a>
</g>
</g>
<!-- Node1&#45;&gt;Node3 -->
<g id="edge2" class="edge">
<title>Node1&#45;&gt;Node3</title>
<path fill="none" stroke="midnightblue" d="M137.42,-64.5C145.78,-64.5 154.33,-64.5 162.73,-64.5"/>
<polygon fill="midnightblue" stroke="midnightblue" points="162.86,-68 172.86,-64.5 162.86,-61 162.86,-68"/>
</g>
<!-- Node6 -->
<g id="node6" class="node">
<title>Node6</title>
<g id="a_node6"><a xlink:href="classnlohmann_1_1basic__json.html#a2566783e190dec524bf3445b322873b8" target="_top" xlink:title="create a CBOR serialization of a given JSON value">
<polygon fill="white" stroke="black" points="173,-0.5 173,-30.5 295,-30.5 295,-0.5 173,-0.5"/>
<text text-anchor="start" x="181" y="-18.5" font-family="Helvetica,sans-Serif" font-size="10.00">nlohmann::basic_json</text>
<text text-anchor="middle" x="234" y="-7.5" font-family="Helvetica,sans-Serif" font-size="10.00">::to_cbor</text>
</a>
</g>
</g>
<!-- Node1&#45;&gt;Node6 -->
<g id="edge6" class="edge">
<title>Node1&#45;&gt;Node6</title>
<path fill="none" stroke="midnightblue" d="M101.41,-54.94C121.75,-48.84 148.74,-40.75 172.99,-33.49"/>
<polygon fill="midnightblue" stroke="midnightblue" points="174.25,-36.76 182.83,-30.54 172.24,-30.06 174.25,-36.76"/>
</g>
<!-- Node4 -->
<g id="node4" class="node">
<title>Node4</title>
<g id="a_node4"><a xlink:href="classnlohmann_1_1basic__json.html#aed115142bd0c6c66c864700e0467df55" target="_top" xlink:title="create an empty value with a given type">
<polygon fill="white" stroke="black" points="331,-49.5 331,-79.5 453,-79.5 453,-49.5 331,-49.5"/>
<text text-anchor="start" x="339" y="-67.5" font-family="Helvetica,sans-Serif" font-size="10.00">nlohmann::basic_json</text>
<text text-anchor="middle" x="392" y="-56.5" font-family="Helvetica,sans-Serif" font-size="10.00">::basic_json</text>
</a>
</g>
</g>
<!-- Node3&#45;&gt;Node4 -->
<g id="edge3" class="edge">
<title>Node3&#45;&gt;Node4</title>
<path fill="none" stroke="midnightblue" d="M295.31,-64.5C303.6,-64.5 312.17,-64.5 320.63,-64.5"/>
<polygon fill="midnightblue" stroke="midnightblue" points="320.85,-68 330.85,-64.5 320.85,-61 320.85,-68"/>
</g>
<!-- Node5 -->
<g id="node5" class="node">
<title>Node5</title>
<g id="a_node5"><a xlink:href="classnlohmann_1_1basic__json.html#a4a82d3fb7a111641decf35c2fb707c7f" target="_top" xlink:title="checks the class invariants">
<polygon fill="white" stroke="black" points="489,-49.5 489,-79.5 611,-79.5 611,-49.5 489,-49.5"/>
<text text-anchor="start" x="497" y="-67.5" font-family="Helvetica,sans-Serif" font-size="10.00">nlohmann::basic_json</text>
<text text-anchor="middle" x="550" y="-56.5" font-family="Helvetica,sans-Serif" font-size="10.00">::assert_invariant</text>
</a>
</g>
</g>
<!-- Node4&#45;&gt;Node5 -->
<g id="edge4" class="edge">
<title>Node4&#45;&gt;Node5</title>
<path fill="none" stroke="midnightblue" d="M453.31,-64.5C461.6,-64.5 470.17,-64.5 478.63,-64.5"/>
<polygon fill="midnightblue" stroke="midnightblue" points="478.85,-68 488.85,-64.5 478.85,-61 478.85,-68"/>
</g>
<!-- Node5&#45;&gt;Node2 -->
<g id="edge5" class="edge">
<title>Node5&#45;&gt;Node2</title>
<path fill="none" stroke="midnightblue" d="M611.29,-75.69C620.12,-77.33 628.91,-78.96 636.89,-80.45"/>
<polygon fill="midnightblue" stroke="midnightblue" points="636.38,-83.91 646.85,-82.29 637.65,-77.03 636.38,-83.91"/>
</g>
</g>
</svg>
