<?xml version="1.0" encoding="UTF-8" standalone="no"?>
<!DOCTYPE svg PUBLIC "-//W3C//DTD SVG 1.1//EN"
 "http://www.w3.org/Graphics/SVG/1.1/DTD/svg11.dtd">
<!-- Generated by graphviz version 2.43.0 (0)
 -->
<!-- Title: mc_orchestrator/json&#45;3.7.3/test/thirdparty/Fuzzer/FuzzerMerge.h Pages: 1 -->
<svg width="330pt" height="128pt"
 viewBox="0.00 0.00 330.00 128.00" xmlns="http://www.w3.org/2000/svg" xmlns:xlink="http://www.w3.org/1999/xlink">
<g id="graph0" class="graph" transform="scale(1 1) rotate(0) translate(4 124)">
<title>mc_orchestrator/json&#45;3.7.3/test/thirdparty/Fuzzer/FuzzerMerge.h</title>
<polygon fill="white" stroke="transparent" points="-4,4 -4,-124 326,-124 326,4 -4,4"/>
<!-- Node1 -->
<g id="node1" class="node">
<title>Node1</title>
<g id="a_node1"><a xlink:title=" ">
<polygon fill="#bfbfbf" stroke="black" points="91,-78.5 91,-119.5 216,-119.5 216,-78.5 91,-78.5"/>
<text text-anchor="start" x="99" y="-107.5" font-family="Helvetica,sans-Serif" font-size="10.00">mc_orchestrator/json</text>
<text text-anchor="start" x="99" y="-96.5" font-family="Helvetica,sans-Serif" font-size="10.00">&#45;3.7.3/test/thirdparty</text>
<text text-anchor="middle" x="153.5" y="-85.5" font-family="Helvetica,sans-Serif" font-size="10.00">/Fuzzer/FuzzerMerge.h</text>
</a>
</g>
</g>
<!-- Node2 -->
<g id="node2" class="node">
<title>Node2</title>
<g id="a_node2"><a xlink:href="FuzzerMerge_8cpp.html" target="_top" xlink:title=" ">
<polygon fill="white" stroke="black" points="0,-0.5 0,-41.5 137,-41.5 137,-0.5 0,-0.5"/>
<text text-anchor="start" x="8" y="-29.5" font-family="Helvetica,sans-Serif" font-size="10.00">mc_orchestrator/json</text>
<text text-anchor="start" x="8" y="-18.5" font-family="Helvetica,sans-Serif" font-size="10.00">&#45;3.7.3/test/thirdparty</text>
<text text-anchor="middle" x="68.5" y="-7.5" font-family="Helvetica,sans-Serif" font-size="10.00">/Fuzzer/FuzzerMerge.cpp</text>
</a>
</g>
</g>
<!-- Node1&#45;&gt;Node2 -->
<g id="edge1" class="edge">
<title>Node1&#45;&gt;Node2</title>
<path fill="none" stroke="midnightblue" d="M123.85,-71.49C112.82,-61.63 100.52,-50.63 90.32,-41.51"/>
<polygon fill="midnightblue" stroke="midnightblue" points="121.82,-74.37 131.61,-78.43 126.49,-69.15 121.82,-74.37"/>
</g>
<!-- Node3 -->
<g id="node3" class="node">
<title>Node3</title>
<g id="a_node3"><a xlink:href="FuzzerUnittest_8cpp.html" target="_top" xlink:title=" ">
<polygon fill="white" stroke="black" points="155,-0.5 155,-41.5 322,-41.5 322,-0.5 155,-0.5"/>
<text text-anchor="start" x="163" y="-29.5" font-family="Helvetica,sans-Serif" font-size="10.00">mc_orchestrator/json</text>
<text text-anchor="start" x="163" y="-18.5" font-family="Helvetica,sans-Serif" font-size="10.00">&#45;3.7.3/test/thirdparty</text>
<text text-anchor="middle" x="238.5" y="-7.5" font-family="Helvetica,sans-Serif" font-size="10.00">/Fuzzer/test/FuzzerUnittest.cpp</text>
</a>
</g>
</g>
<!-- Node1&#45;&gt;Node3 -->
<g id="edge2" class="edge">
<title>Node1&#45;&gt;Node3</title>
<path fill="none" stroke="midnightblue" d="M183.15,-71.49C194.18,-61.63 206.48,-50.63 216.68,-41.51"/>
<polygon fill="midnightblue" stroke="midnightblue" points="180.51,-69.15 175.39,-78.43 185.18,-74.37 180.51,-69.15"/>
</g>
</g>
</svg>
