<?xml version="1.0" encoding="UTF-8" standalone="no"?>
<!DOCTYPE svg PUBLIC "-//W3C//DTD SVG 1.1//EN"
 "http://www.w3.org/Graphics/SVG/1.1/DTD/svg11.dtd">
<!-- Generated by graphviz version 2.43.0 (0)
 -->
<!-- Title: mc_orchestrator/json&#45;3.7.3/test/thirdparty/Fuzzer/FuzzerMerge.cpp Pages: 1 -->
<svg width="1336pt" height="274pt"
 viewBox="0.00 0.00 1336.00 274.00" xmlns="http://www.w3.org/2000/svg" xmlns:xlink="http://www.w3.org/1999/xlink">
<g id="graph0" class="graph" transform="scale(1 1) rotate(0) translate(4 270)">
<title>mc_orchestrator/json&#45;3.7.3/test/thirdparty/Fuzzer/FuzzerMerge.cpp</title>
<polygon fill="white" stroke="transparent" points="-4,4 -4,-270 1332,-270 1332,4 -4,4"/>
<!-- Node1 -->
<g id="node1" class="node">
<title>Node1</title>
<g id="a_node1"><a xlink:title=" ">
<polygon fill="#bfbfbf" stroke="black" points="475.5,-224.5 475.5,-265.5 612.5,-265.5 612.5,-224.5 475.5,-224.5"/>
<text text-anchor="start" x="483.5" y="-253.5" font-family="Helvetica,sans-Serif" font-size="10.00">mc_orchestrator/json</text>
<text text-anchor="start" x="483.5" y="-242.5" font-family="Helvetica,sans-Serif" font-size="10.00">&#45;3.7.3/test/thirdparty</text>
<text text-anchor="middle" x="544" y="-231.5" font-family="Helvetica,sans-Serif" font-size="10.00">/Fuzzer/FuzzerMerge.cpp</text>
</a>
</g>
</g>
<!-- Node2 -->
<g id="node2" class="node">
<title>Node2</title>
<g id="a_node2"><a xlink:href="FuzzerInternal_8h.html" target="_top" xlink:title=" ">
<polygon fill="white" stroke="black" points="573.5,-168.5 573.5,-187.5 668.5,-187.5 668.5,-168.5 573.5,-168.5"/>
<text text-anchor="middle" x="621" y="-175.5" font-family="Helvetica,sans-Serif" font-size="10.00">FuzzerInternal.h</text>
</a>
</g>
</g>
<!-- Node1&#45;&gt;Node2 -->
<g id="edge1" class="edge">
<title>Node1&#45;&gt;Node2</title>
<path fill="none" stroke="midnightblue" d="M567.1,-224.5C578.57,-214.82 592.21,-203.3 602.91,-194.27"/>
<polygon fill="midnightblue" stroke="midnightblue" points="605.37,-196.78 610.75,-187.65 600.85,-191.43 605.37,-196.78"/>
</g>
<!-- Node24 -->
<g id="node24" class="node">
<title>Node24</title>
<g id="a_node24"><a xlink:href="FuzzerIO_8h.html" target="_top" xlink:title=" ">
<polygon fill="white" stroke="black" points="460,-168.5 460,-187.5 528,-187.5 528,-168.5 460,-168.5"/>
<text text-anchor="middle" x="494" y="-175.5" font-family="Helvetica,sans-Serif" font-size="10.00">FuzzerIO.h</text>
</a>
</g>
</g>
<!-- Node1&#45;&gt;Node24 -->
<g id="edge30" class="edge">
<title>Node1&#45;&gt;Node24</title>
<path fill="none" stroke="midnightblue" d="M529,-224.5C521.92,-215.3 513.57,-204.44 506.79,-195.63"/>
<polygon fill="midnightblue" stroke="midnightblue" points="509.53,-193.44 500.66,-187.65 503.98,-197.71 509.53,-193.44"/>
</g>
<!-- Node25 -->
<g id="node25" class="node">
<title>Node25</title>
<g id="a_node25"><a xlink:href="FuzzerMerge_8h.html" target="_top" xlink:title=" ">
<polygon fill="white" stroke="black" points="97,-168.5 97,-187.5 185,-187.5 185,-168.5 97,-168.5"/>
<text text-anchor="middle" x="141" y="-175.5" font-family="Helvetica,sans-Serif" font-size="10.00">FuzzerMerge.h</text>
</a>
</g>
</g>
<!-- Node1&#45;&gt;Node25 -->
<g id="edge32" class="edge">
<title>Node1&#45;&gt;Node25</title>
<path fill="none" stroke="midnightblue" d="M475.18,-232.9C396.11,-220.15 267.99,-199.48 195.51,-187.79"/>
<polygon fill="midnightblue" stroke="midnightblue" points="195.66,-184.27 185.23,-186.13 194.55,-191.18 195.66,-184.27"/>
</g>
<!-- Node28 -->
<g id="node28" class="node">
<title>Node28</title>
<g id="a_node28"><a xlink:href="FuzzerTracePC_8h.html" target="_top" xlink:title=" ">
<polygon fill="white" stroke="black" points="233,-168.5 233,-187.5 329,-187.5 329,-168.5 233,-168.5"/>
<text text-anchor="middle" x="281" y="-175.5" font-family="Helvetica,sans-Serif" font-size="10.00">FuzzerTracePC.h</text>
</a>
</g>
</g>
<!-- Node1&#45;&gt;Node28 -->
<g id="edge36" class="edge">
<title>Node1&#45;&gt;Node28</title>
<path fill="none" stroke="midnightblue" d="M475.24,-227.01C427.96,-215.32 366.54,-200.14 325.55,-190.01"/>
<polygon fill="midnightblue" stroke="midnightblue" points="326.14,-186.55 315.59,-187.55 324.46,-193.35 326.14,-186.55"/>
</g>
<!-- Node29 -->
<g id="node29" class="node">
<title>Node29</title>
<g id="a_node29"><a xlink:href="FuzzerUtil_8h.html" target="_top" xlink:title=" ">
<polygon fill="white" stroke="black" points="0,-168.5 0,-187.5 74,-187.5 74,-168.5 0,-168.5"/>
<text text-anchor="middle" x="37" y="-175.5" font-family="Helvetica,sans-Serif" font-size="10.00">FuzzerUtil.h</text>
</a>
</g>
</g>
<!-- Node1&#45;&gt;Node29 -->
<g id="edge40" class="edge">
<title>Node1&#45;&gt;Node29</title>
<path fill="none" stroke="midnightblue" d="M475.48,-236.72C386.13,-226.97 225.06,-208.5 88,-188 86.72,-187.81 85.43,-187.61 84.13,-187.41"/>
<polygon fill="midnightblue" stroke="midnightblue" points="84.44,-183.91 74.01,-185.77 83.32,-190.82 84.44,-183.91"/>
</g>
<!-- Node30 -->
<g id="node30" class="node">
<title>Node30</title>
<g id="a_node30"><a xlink:title=" ">
<polygon fill="white" stroke="#bfbfbf" points="686.5,-168.5 686.5,-187.5 741.5,-187.5 741.5,-168.5 686.5,-168.5"/>
<text text-anchor="middle" x="714" y="-175.5" font-family="Helvetica,sans-Serif" font-size="10.00">fstream</text>
</a>
</g>
</g>
<!-- Node1&#45;&gt;Node30 -->
<g id="edge42" class="edge">
<title>Node1&#45;&gt;Node30</title>
<path fill="none" stroke="midnightblue" d="M595.01,-224.5C623.2,-213.72 657.37,-200.65 681.85,-191.29"/>
<polygon fill="midnightblue" stroke="midnightblue" points="683.28,-194.49 691.37,-187.65 680.78,-187.95 683.28,-194.49"/>
</g>
<!-- Node31 -->
<g id="node31" class="node">
<title>Node31</title>
<g id="a_node31"><a xlink:title=" ">
<polygon fill="white" stroke="#bfbfbf" points="759.5,-168.5 759.5,-187.5 812.5,-187.5 812.5,-168.5 759.5,-168.5"/>
<text text-anchor="middle" x="786" y="-175.5" font-family="Helvetica,sans-Serif" font-size="10.00">iterator</text>
</a>
</g>
</g>
<!-- Node1&#45;&gt;Node31 -->
<g id="edge43" class="edge">
<title>Node1&#45;&gt;Node31</title>
<path fill="none" stroke="midnightblue" d="M612.7,-225.55C657.09,-213.63 713.1,-198.58 749.23,-188.88"/>
<polygon fill="midnightblue" stroke="midnightblue" points="750.57,-192.14 759.32,-186.17 748.75,-185.38 750.57,-192.14"/>
</g>
<!-- Node32 -->
<g id="node32" class="node">
<title>Node32</title>
<g id="a_node32"><a xlink:title=" ">
<polygon fill="white" stroke="#bfbfbf" points="831,-168.5 831,-187.5 887,-187.5 887,-168.5 831,-168.5"/>
<text text-anchor="middle" x="859" y="-175.5" font-family="Helvetica,sans-Serif" font-size="10.00">sstream</text>
</a>
</g>
</g>
<!-- Node1&#45;&gt;Node32 -->
<g id="edge44" class="edge">
<title>Node1&#45;&gt;Node32</title>
<path fill="none" stroke="midnightblue" d="M612.71,-230.95C666.76,-220.5 744.2,-205.13 820.91,-188.18"/>
<polygon fill="midnightblue" stroke="midnightblue" points="821.74,-191.58 830.75,-186 820.22,-184.75 821.74,-191.58"/>
</g>
<!-- Node3 -->
<g id="node3" class="node">
<title>Node3</title>
<g id="a_node3"><a xlink:href="FuzzerDefs_8h.html" target="_top" xlink:title=" ">
<polygon fill="white" stroke="black" points="293,-56.5 293,-75.5 373,-75.5 373,-56.5 293,-56.5"/>
<text text-anchor="middle" x="333" y="-63.5" font-family="Helvetica,sans-Serif" font-size="10.00">FuzzerDefs.h</text>
</a>
</g>
</g>
<!-- Node2&#45;&gt;Node3 -->
<g id="edge2" class="edge">
<title>Node2&#45;&gt;Node3</title>
<path fill="none" stroke="midnightblue" d="M573.16,-169.05C536.16,-161.96 484.14,-149.9 441,-132 423.64,-124.8 380.96,-98 354.75,-81.15"/>
<polygon fill="midnightblue" stroke="midnightblue" points="356.54,-78.13 346.24,-75.65 352.74,-84.01 356.54,-78.13"/>
</g>
<!-- Node10 -->
<g id="node10" class="node">
<title>Node10</title>
<g id="a_node10"><a xlink:href="FuzzerExtFunctions_8h.html" target="_top" xlink:title=" ">
<polygon fill="white" stroke="black" points="1140.5,-112.5 1140.5,-131.5 1259.5,-131.5 1259.5,-112.5 1140.5,-112.5"/>
<text text-anchor="middle" x="1200" y="-119.5" font-family="Helvetica,sans-Serif" font-size="10.00">FuzzerExtFunctions.h</text>
</a>
</g>
</g>
<!-- Node2&#45;&gt;Node10 -->
<g id="edge9" class="edge">
<title>Node2&#45;&gt;Node10</title>
<path fill="none" stroke="midnightblue" d="M668.55,-169.21C671.74,-168.77 674.92,-168.37 678,-168 875.77,-144.58 929.01,-153 1130.31,-132.13"/>
<polygon fill="midnightblue" stroke="midnightblue" points="1130.74,-135.6 1140.32,-131.08 1130.01,-128.64 1130.74,-135.6"/>
</g>
<!-- Node14 -->
<g id="node14" class="node">
<title>Node14</title>
<g id="a_node14"><a xlink:href="FuzzerInterface_8h.html" target="_top" xlink:title=" ">
<polygon fill="white" stroke="black" points="1021.5,-112.5 1021.5,-131.5 1122.5,-131.5 1122.5,-112.5 1021.5,-112.5"/>
<text text-anchor="middle" x="1072" y="-119.5" font-family="Helvetica,sans-Serif" font-size="10.00">FuzzerInterface.h</text>
</a>
</g>
</g>
<!-- Node2&#45;&gt;Node14 -->
<g id="edge13" class="edge">
<title>Node2&#45;&gt;Node14</title>
<path fill="none" stroke="midnightblue" d="M668.56,-169.31C671.75,-168.85 674.92,-168.41 678,-168 822.83,-148.77 862.24,-150.97 1011.3,-132.04"/>
<polygon fill="midnightblue" stroke="midnightblue" points="1011.81,-135.5 1021.28,-130.76 1010.92,-128.56 1011.81,-135.5"/>
</g>
<!-- Node15 -->
<g id="node15" class="node">
<title>Node15</title>
<g id="a_node15"><a xlink:href="FuzzerOptions_8h.html" target="_top" xlink:title=" ">
<polygon fill="white" stroke="black" points="449.5,-112.5 449.5,-131.5 544.5,-131.5 544.5,-112.5 449.5,-112.5"/>
<text text-anchor="middle" x="497" y="-119.5" font-family="Helvetica,sans-Serif" font-size="10.00">FuzzerOptions.h</text>
</a>
</g>
</g>
<!-- Node2&#45;&gt;Node15 -->
<g id="edge16" class="edge">
<title>Node2&#45;&gt;Node15</title>
<path fill="none" stroke="midnightblue" d="M601.35,-168.44C581.04,-159.6 549.1,-145.69 525.9,-135.59"/>
<polygon fill="midnightblue" stroke="midnightblue" points="527.12,-132.3 516.56,-131.52 524.33,-138.72 527.12,-132.3"/>
</g>
<!-- Node16 -->
<g id="node16" class="node">
<title>Node16</title>
<g id="a_node16"><a xlink:href="FuzzerSHA1_8h.html" target="_top" xlink:title=" ">
<polygon fill="white" stroke="black" points="783.5,-112.5 783.5,-131.5 866.5,-131.5 866.5,-112.5 783.5,-112.5"/>
<text text-anchor="middle" x="825" y="-119.5" font-family="Helvetica,sans-Serif" font-size="10.00">FuzzerSHA1.h</text>
</a>
</g>
</g>
<!-- Node2&#45;&gt;Node16 -->
<g id="edge18" class="edge">
<title>Node2&#45;&gt;Node16</title>
<path fill="none" stroke="midnightblue" d="M653.32,-168.44C688.39,-159.16 744.5,-144.31 782.96,-134.13"/>
<polygon fill="midnightblue" stroke="midnightblue" points="784.06,-137.46 792.83,-131.52 782.26,-130.69 784.06,-137.46"/>
</g>
<!-- Node17 -->
<g id="node17" class="node">
<title>Node17</title>
<g id="a_node17"><a xlink:href="FuzzerValueBitMap_8h.html" target="_top" xlink:title=" ">
<polygon fill="white" stroke="black" points="273.5,-112.5 273.5,-131.5 392.5,-131.5 392.5,-112.5 273.5,-112.5"/>
<text text-anchor="middle" x="333" y="-119.5" font-family="Helvetica,sans-Serif" font-size="10.00">FuzzerValueBitMap.h</text>
</a>
</g>
</g>
<!-- Node2&#45;&gt;Node17 -->
<g id="edge22" class="edge">
<title>Node2&#45;&gt;Node17</title>
<path fill="none" stroke="midnightblue" d="M575.37,-168.44C524.7,-158.94 442.93,-143.61 388.57,-133.42"/>
<polygon fill="midnightblue" stroke="midnightblue" points="388.89,-129.92 378.42,-131.52 387.6,-136.8 388.89,-129.92"/>
</g>
<!-- Node18 -->
<g id="node18" class="node">
<title>Node18</title>
<g id="a_node18"><a xlink:title=" ">
<polygon fill="white" stroke="#bfbfbf" points="701,-112.5 701,-131.5 765,-131.5 765,-112.5 701,-112.5"/>
<text text-anchor="middle" x="733" y="-119.5" font-family="Helvetica,sans-Serif" font-size="10.00">algorithm</text>
</a>
</g>
</g>
<!-- Node2&#45;&gt;Node18 -->
<g id="edge24" class="edge">
<title>Node2&#45;&gt;Node18</title>
<path fill="none" stroke="midnightblue" d="M638.99,-168.32C657.04,-159.62 685.05,-146.12 705.8,-136.11"/>
<polygon fill="midnightblue" stroke="midnightblue" points="707.56,-139.15 715.05,-131.65 704.52,-132.84 707.56,-139.15"/>
</g>
<!-- Node19 -->
<g id="node19" class="node">
<title>Node19</title>
<g id="a_node19"><a xlink:title=" ">
<polygon fill="white" stroke="#bfbfbf" points="885,-112.5 885,-131.5 935,-131.5 935,-112.5 885,-112.5"/>
<text text-anchor="middle" x="910" y="-119.5" font-family="Helvetica,sans-Serif" font-size="10.00">atomic</text>
</a>
</g>
</g>
<!-- Node2&#45;&gt;Node19 -->
<g id="edge25" class="edge">
<title>Node2&#45;&gt;Node19</title>
<path fill="none" stroke="midnightblue" d="M668.56,-169.1C727,-159.31 823.79,-142.82 874.92,-132.06"/>
<polygon fill="midnightblue" stroke="midnightblue" points="875.77,-135.46 884.81,-129.92 874.29,-128.61 875.77,-135.46"/>
</g>
<!-- Node20 -->
<g id="node20" class="node">
<title>Node20</title>
<g id="a_node20"><a xlink:title=" ">
<polygon fill="white" stroke="#bfbfbf" points="953,-112.5 953,-131.5 1003,-131.5 1003,-112.5 953,-112.5"/>
<text text-anchor="middle" x="978" y="-119.5" font-family="Helvetica,sans-Serif" font-size="10.00">chrono</text>
</a>
</g>
</g>
<!-- Node2&#45;&gt;Node20 -->
<g id="edge26" class="edge">
<title>Node2&#45;&gt;Node20</title>
<path fill="none" stroke="midnightblue" d="M668.57,-169.41C671.76,-168.92 674.93,-168.45 678,-168 792.81,-151.17 825.24,-155.07 942.72,-132.04"/>
<polygon fill="midnightblue" stroke="midnightblue" points="943.7,-135.42 952.83,-130.04 942.34,-128.55 943.7,-135.42"/>
</g>
<!-- Node21 -->
<g id="node21" class="node">
<title>Node21</title>
<g id="a_node21"><a xlink:title=" ">
<polygon fill="white" stroke="#bfbfbf" points="1278,-112.5 1278,-131.5 1328,-131.5 1328,-112.5 1278,-112.5"/>
<text text-anchor="middle" x="1303" y="-119.5" font-family="Helvetica,sans-Serif" font-size="10.00">climits</text>
</a>
</g>
</g>
<!-- Node2&#45;&gt;Node21 -->
<g id="edge27" class="edge">
<title>Node2&#45;&gt;Node21</title>
<path fill="none" stroke="midnightblue" d="M668.54,-169.14C671.74,-168.72 674.91,-168.34 678,-168 936.28,-139.81 1007.4,-173.01 1267.73,-131.87"/>
<polygon fill="midnightblue" stroke="midnightblue" points="1268.55,-135.28 1277.87,-130.25 1267.44,-128.37 1268.55,-135.28"/>
</g>
<!-- Node22 -->
<g id="node22" class="node">
<title>Node22</title>
<g id="a_node22"><a xlink:title=" ">
<polygon fill="white" stroke="#bfbfbf" points="562.5,-112.5 562.5,-131.5 611.5,-131.5 611.5,-112.5 562.5,-112.5"/>
<text text-anchor="middle" x="587" y="-119.5" font-family="Helvetica,sans-Serif" font-size="10.00">cstdlib</text>
</a>
</g>
</g>
<!-- Node2&#45;&gt;Node22 -->
<g id="edge28" class="edge">
<title>Node2&#45;&gt;Node22</title>
<path fill="none" stroke="midnightblue" d="M615.39,-168.08C610.63,-160.53 603.68,-149.49 597.85,-140.23"/>
<polygon fill="midnightblue" stroke="midnightblue" points="600.8,-138.35 592.51,-131.75 594.88,-142.08 600.8,-138.35"/>
</g>
<!-- Node23 -->
<g id="node23" class="node">
<title>Node23</title>
<g id="a_node23"><a xlink:title=" ">
<polygon fill="white" stroke="#bfbfbf" points="629.5,-112.5 629.5,-131.5 682.5,-131.5 682.5,-112.5 629.5,-112.5"/>
<text text-anchor="middle" x="656" y="-119.5" font-family="Helvetica,sans-Serif" font-size="10.00">string.h</text>
</a>
</g>
</g>
<!-- Node2&#45;&gt;Node23 -->
<g id="edge29" class="edge">
<title>Node2&#45;&gt;Node23</title>
<path fill="none" stroke="midnightblue" d="M626.78,-168.08C631.67,-160.53 638.83,-149.49 644.83,-140.23"/>
<polygon fill="midnightblue" stroke="midnightblue" points="647.83,-142.05 650.33,-131.75 641.95,-138.24 647.83,-142.05"/>
</g>
<!-- Node4 -->
<g id="node4" class="node">
<title>Node4</title>
<g id="a_node4"><a xlink:title=" ">
<polygon fill="white" stroke="#bfbfbf" points="170,-0.5 170,-19.5 222,-19.5 222,-0.5 170,-0.5"/>
<text text-anchor="middle" x="196" y="-7.5" font-family="Helvetica,sans-Serif" font-size="10.00">cassert</text>
</a>
</g>
</g>
<!-- Node3&#45;&gt;Node4 -->
<g id="edge3" class="edge">
<title>Node3&#45;&gt;Node4</title>
<path fill="none" stroke="midnightblue" d="M311.29,-56.44C288.65,-47.52 252.93,-33.44 227.25,-23.32"/>
<polygon fill="midnightblue" stroke="midnightblue" points="228.19,-19.93 217.61,-19.52 225.63,-26.44 228.19,-19.93"/>
</g>
<!-- Node5 -->
<g id="node5" class="node">
<title>Node5</title>
<g id="a_node5"><a xlink:title=" ">
<polygon fill="white" stroke="#bfbfbf" points="577.5,-0.5 577.5,-19.5 630.5,-19.5 630.5,-0.5 577.5,-0.5"/>
<text text-anchor="middle" x="604" y="-7.5" font-family="Helvetica,sans-Serif" font-size="10.00">cstddef</text>
</a>
</g>
</g>
<!-- Node3&#45;&gt;Node5 -->
<g id="edge4" class="edge">
<title>Node3&#45;&gt;Node5</title>
<path fill="none" stroke="midnightblue" d="M373.28,-56.97C425.83,-46.5 517.04,-28.33 567.6,-18.25"/>
<polygon fill="midnightblue" stroke="midnightblue" points="568.33,-21.68 577.45,-16.29 566.96,-14.81 568.33,-21.68"/>
</g>
<!-- Node6 -->
<g id="node6" class="node">
<title>Node6</title>
<g id="a_node6"><a xlink:title=" ">
<polygon fill="white" stroke="#bfbfbf" points="240,-0.5 240,-19.5 290,-19.5 290,-0.5 240,-0.5"/>
<text text-anchor="middle" x="265" y="-7.5" font-family="Helvetica,sans-Serif" font-size="10.00">cstdint</text>
</a>
</g>
</g>
<!-- Node3&#45;&gt;Node6 -->
<g id="edge5" class="edge">
<title>Node3&#45;&gt;Node6</title>
<path fill="none" stroke="midnightblue" d="M322.07,-56.32C311.83,-48.18 296.28,-35.84 284,-26.09"/>
<polygon fill="midnightblue" stroke="midnightblue" points="286.13,-23.31 276.12,-19.83 281.78,-28.79 286.13,-23.31"/>
</g>
<!-- Node7 -->
<g id="node7" class="node">
<title>Node7</title>
<g id="a_node7"><a xlink:title=" ">
<polygon fill="white" stroke="#bfbfbf" points="308,-0.5 308,-19.5 358,-19.5 358,-0.5 308,-0.5"/>
<text text-anchor="middle" x="333" y="-7.5" font-family="Helvetica,sans-Serif" font-size="10.00">cstring</text>
</a>
</g>
</g>
<!-- Node3&#45;&gt;Node7 -->
<g id="edge6" class="edge">
<title>Node3&#45;&gt;Node7</title>
<path fill="none" stroke="midnightblue" d="M333,-56.08C333,-49.01 333,-38.86 333,-29.99"/>
<polygon fill="midnightblue" stroke="midnightblue" points="336.5,-29.75 333,-19.75 329.5,-29.75 336.5,-29.75"/>
</g>
<!-- Node8 -->
<g id="node8" class="node">
<title>Node8</title>
<g id="a_node8"><a xlink:title=" ">
<polygon fill="white" stroke="#bfbfbf" points="376,-0.5 376,-19.5 420,-19.5 420,-0.5 376,-0.5"/>
<text text-anchor="middle" x="398" y="-7.5" font-family="Helvetica,sans-Serif" font-size="10.00">string</text>
</a>
</g>
</g>
<!-- Node3&#45;&gt;Node8 -->
<g id="edge7" class="edge">
<title>Node3&#45;&gt;Node8</title>
<path fill="none" stroke="midnightblue" d="M343.44,-56.32C353.15,-48.26 367.82,-36.08 379.5,-26.37"/>
<polygon fill="midnightblue" stroke="midnightblue" points="381.91,-28.92 387.37,-19.83 377.44,-23.53 381.91,-28.92"/>
</g>
<!-- Node9 -->
<g id="node9" class="node">
<title>Node9</title>
<g id="a_node9"><a xlink:title=" ">
<polygon fill="white" stroke="#bfbfbf" points="438.5,-0.5 438.5,-19.5 485.5,-19.5 485.5,-0.5 438.5,-0.5"/>
<text text-anchor="middle" x="462" y="-7.5" font-family="Helvetica,sans-Serif" font-size="10.00">vector</text>
</a>
</g>
</g>
<!-- Node3&#45;&gt;Node9 -->
<g id="edge8" class="edge">
<title>Node3&#45;&gt;Node9</title>
<path fill="none" stroke="midnightblue" d="M353.44,-56.44C374.67,-47.56 408.1,-33.56 432.25,-23.45"/>
<polygon fill="midnightblue" stroke="midnightblue" points="433.78,-26.61 441.66,-19.52 431.08,-20.15 433.78,-26.61"/>
</g>
<!-- Node11 -->
<g id="node11" class="node">
<title>Node11</title>
<g id="a_node11"><a xlink:title=" ">
<polygon fill="white" stroke="#bfbfbf" points="1089,-56.5 1089,-75.5 1145,-75.5 1145,-56.5 1089,-56.5"/>
<text text-anchor="middle" x="1117" y="-63.5" font-family="Helvetica,sans-Serif" font-size="10.00">stddef.h</text>
</a>
</g>
</g>
<!-- Node10&#45;&gt;Node11 -->
<g id="edge10" class="edge">
<title>Node10&#45;&gt;Node11</title>
<path fill="none" stroke="midnightblue" d="M1186.66,-112.32C1173.84,-103.98 1154.22,-91.21 1139.06,-81.35"/>
<polygon fill="midnightblue" stroke="midnightblue" points="1140.59,-78.17 1130.3,-75.65 1136.78,-84.04 1140.59,-78.17"/>
</g>
<!-- Node12 -->
<g id="node12" class="node">
<title>Node12</title>
<g id="a_node12"><a xlink:title=" ">
<polygon fill="white" stroke="#bfbfbf" points="1017.5,-56.5 1017.5,-75.5 1070.5,-75.5 1070.5,-56.5 1017.5,-56.5"/>
<text text-anchor="middle" x="1044" y="-63.5" font-family="Helvetica,sans-Serif" font-size="10.00">stdint.h</text>
</a>
</g>
</g>
<!-- Node10&#45;&gt;Node12 -->
<g id="edge11" class="edge">
<title>Node10&#45;&gt;Node12</title>
<path fill="none" stroke="midnightblue" d="M1175.28,-112.44C1149.15,-103.4 1107.74,-89.06 1078.42,-78.92"/>
<polygon fill="midnightblue" stroke="midnightblue" points="1079.2,-75.48 1068.6,-75.52 1076.91,-82.1 1079.2,-75.48"/>
</g>
<!-- Node13 -->
<g id="node13" class="node">
<title>Node13</title>
<g id="a_node13"><a xlink:title=" ">
<polygon fill="white" stroke="#bfbfbf" points="1163.5,-56.5 1163.5,-75.5 1292.5,-75.5 1292.5,-56.5 1163.5,-56.5"/>
<text text-anchor="middle" x="1228" y="-63.5" font-family="Helvetica,sans-Serif" font-size="10.00">FuzzerExtFunctions.def</text>
</a>
</g>
</g>
<!-- Node10&#45;&gt;Node13 -->
<g id="edge12" class="edge">
<title>Node10&#45;&gt;Node13</title>
<path fill="none" stroke="midnightblue" d="M1204.62,-112.08C1208.46,-104.69 1214.02,-93.95 1218.76,-84.81"/>
<polygon fill="midnightblue" stroke="midnightblue" points="1221.97,-86.24 1223.46,-75.75 1215.75,-83.02 1221.97,-86.24"/>
</g>
<!-- Node14&#45;&gt;Node11 -->
<g id="edge14" class="edge">
<title>Node14&#45;&gt;Node11</title>
<path fill="none" stroke="midnightblue" d="M1079.43,-112.08C1085.85,-104.38 1095.31,-93.03 1103.12,-83.65"/>
<polygon fill="midnightblue" stroke="midnightblue" points="1105.99,-85.67 1109.71,-75.75 1100.62,-81.19 1105.99,-85.67"/>
</g>
<!-- Node14&#45;&gt;Node12 -->
<g id="edge15" class="edge">
<title>Node14&#45;&gt;Node12</title>
<path fill="none" stroke="midnightblue" d="M1067.38,-112.08C1063.54,-104.69 1057.98,-93.95 1053.24,-84.81"/>
<polygon fill="midnightblue" stroke="midnightblue" points="1056.25,-83.02 1048.54,-75.75 1050.03,-86.24 1056.25,-83.02"/>
</g>
<!-- Node15&#45;&gt;Node3 -->
<g id="edge17" class="edge">
<title>Node15&#45;&gt;Node3</title>
<path fill="none" stroke="midnightblue" d="M471.01,-112.44C443.3,-103.32 399.25,-88.81 368.38,-78.65"/>
<polygon fill="midnightblue" stroke="midnightblue" points="369.46,-75.32 358.86,-75.52 367.27,-81.97 369.46,-75.32"/>
</g>
<!-- Node16&#45;&gt;Node3 -->
<g id="edge19" class="edge">
<title>Node16&#45;&gt;Node3</title>
<path fill="none" stroke="midnightblue" d="M783.29,-113.38C780.15,-112.89 777.03,-112.42 774,-112 632.92,-92.38 465.32,-77.61 383.3,-70.93"/>
<polygon fill="midnightblue" stroke="midnightblue" points="383.5,-67.43 373.25,-70.12 382.93,-74.41 383.5,-67.43"/>
</g>
<!-- Node16&#45;&gt;Node5 -->
<g id="edge20" class="edge">
<title>Node16&#45;&gt;Node5</title>
<path fill="none" stroke="midnightblue" d="M807.66,-112.37C769.09,-93.17 676.01,-46.84 630.27,-24.07"/>
<polygon fill="midnightblue" stroke="midnightblue" points="631.77,-20.91 621.26,-19.59 628.65,-27.18 631.77,-20.91"/>
</g>
<!-- Node16&#45;&gt;Node12 -->
<g id="edge21" class="edge">
<title>Node16&#45;&gt;Node12</title>
<path fill="none" stroke="midnightblue" d="M859.7,-112.44C900.06,-102.49 966.39,-86.14 1007.51,-76"/>
<polygon fill="midnightblue" stroke="midnightblue" points="1008.51,-79.36 1017.38,-73.56 1006.84,-72.56 1008.51,-79.36"/>
</g>
<!-- Node17&#45;&gt;Node3 -->
<g id="edge23" class="edge">
<title>Node17&#45;&gt;Node3</title>
<path fill="none" stroke="midnightblue" d="M333,-112.08C333,-105.01 333,-94.86 333,-85.99"/>
<polygon fill="midnightblue" stroke="midnightblue" points="336.5,-85.75 333,-75.75 329.5,-85.75 336.5,-85.75"/>
</g>
<!-- Node24&#45;&gt;Node3 -->
<g id="edge31" class="edge">
<title>Node24&#45;&gt;Node3</title>
<path fill="none" stroke="midnightblue" d="M459.69,-175.42C401.95,-171.95 289.26,-161.49 265,-132 248.81,-112.32 277.63,-92.48 302.6,-79.98"/>
<polygon fill="midnightblue" stroke="midnightblue" points="304.35,-83.03 311.88,-75.57 301.34,-76.71 304.35,-83.03"/>
</g>
<!-- Node25&#45;&gt;Node3 -->
<g id="edge33" class="edge">
<title>Node25&#45;&gt;Node3</title>
<path fill="none" stroke="midnightblue" d="M137.35,-168.33C132.27,-154.73 125.06,-128.27 138,-112 155.79,-89.63 231.26,-77.43 282.92,-71.56"/>
<polygon fill="midnightblue" stroke="midnightblue" points="283.35,-75.04 292.91,-70.47 282.59,-68.08 283.35,-75.04"/>
</g>
<!-- Node26 -->
<g id="node26" class="node">
<title>Node26</title>
<g id="a_node26"><a xlink:title=" ">
<polygon fill="white" stroke="#bfbfbf" points="37,-112.5 37,-131.5 91,-131.5 91,-112.5 37,-112.5"/>
<text text-anchor="middle" x="64" y="-119.5" font-family="Helvetica,sans-Serif" font-size="10.00">istream</text>
</a>
</g>
</g>
<!-- Node25&#45;&gt;Node26 -->
<g id="edge34" class="edge">
<title>Node25&#45;&gt;Node26</title>
<path fill="none" stroke="midnightblue" d="M128.63,-168.32C116.84,-160.06 98.87,-147.45 84.86,-137.63"/>
<polygon fill="midnightblue" stroke="midnightblue" points="86.54,-134.53 76.34,-131.65 82.52,-140.26 86.54,-134.53"/>
</g>
<!-- Node27 -->
<g id="node27" class="node">
<title>Node27</title>
<g id="a_node27"><a xlink:title=" ">
<polygon fill="white" stroke="#bfbfbf" points="147,-112.5 147,-131.5 179,-131.5 179,-112.5 147,-112.5"/>
<text text-anchor="middle" x="163" y="-119.5" font-family="Helvetica,sans-Serif" font-size="10.00">set</text>
</a>
</g>
</g>
<!-- Node25&#45;&gt;Node27 -->
<g id="edge35" class="edge">
<title>Node25&#45;&gt;Node27</title>
<path fill="none" stroke="midnightblue" d="M144.63,-168.08C147.61,-160.77 151.93,-150.18 155.62,-141.1"/>
<polygon fill="midnightblue" stroke="midnightblue" points="158.9,-142.33 159.43,-131.75 152.42,-139.69 158.9,-142.33"/>
</g>
<!-- Node28&#45;&gt;Node3 -->
<g id="edge37" class="edge">
<title>Node28&#45;&gt;Node3</title>
<path fill="none" stroke="midnightblue" d="M266.05,-168.49C246.74,-156.36 217.16,-133.23 231,-112 242.71,-94.04 263.39,-83.19 283.08,-76.67"/>
<polygon fill="midnightblue" stroke="midnightblue" points="284.35,-79.94 292.92,-73.72 282.34,-73.24 284.35,-79.94"/>
</g>
<!-- Node28&#45;&gt;Node17 -->
<g id="edge38" class="edge">
<title>Node28&#45;&gt;Node17</title>
<path fill="none" stroke="midnightblue" d="M289.59,-168.08C297.16,-160.22 308.38,-148.57 317.51,-139.08"/>
<polygon fill="midnightblue" stroke="midnightblue" points="320.16,-141.38 324.57,-131.75 315.12,-136.53 320.16,-141.38"/>
</g>
<!-- Node28&#45;&gt;Node27 -->
<g id="edge39" class="edge">
<title>Node28&#45;&gt;Node27</title>
<path fill="none" stroke="midnightblue" d="M262.3,-168.44C242.38,-159.32 210.7,-144.83 188.5,-134.67"/>
<polygon fill="midnightblue" stroke="midnightblue" points="189.88,-131.45 179.33,-130.47 186.97,-137.82 189.88,-131.45"/>
</g>
<!-- Node29&#45;&gt;Node3 -->
<g id="edge41" class="edge">
<title>Node29&#45;&gt;Node3</title>
<path fill="none" stroke="midnightblue" d="M32.01,-168.23C24.94,-154.5 14.3,-127.87 28,-112 60.3,-74.58 204.77,-67.73 282.73,-66.82"/>
<polygon fill="midnightblue" stroke="midnightblue" points="282.84,-70.32 292.81,-66.73 282.78,-63.32 282.84,-70.32"/>
</g>
</g>
</svg>
