<?xml version="1.0" encoding="UTF-8" standalone="no"?>
<!DOCTYPE svg PUBLIC "-//W3C//DTD SVG 1.1//EN"
 "http://www.w3.org/Graphics/SVG/1.1/DTD/svg11.dtd">
<!-- Generated by graphviz version 2.43.0 (0)
 -->
<!-- Title: TEST Pages: 1 -->
<svg width="426pt" height="88pt"
 viewBox="0.00 0.00 426.00 88.00" xmlns="http://www.w3.org/2000/svg" xmlns:xlink="http://www.w3.org/1999/xlink">
<g id="graph0" class="graph" transform="scale(1 1) rotate(0) translate(4 84)">
<title>TEST</title>
<polygon fill="white" stroke="transparent" points="-4,4 -4,-84 422,-84 422,4 -4,4"/>
<!-- Node1 -->
<g id="node1" class="node">
<title>Node1</title>
<g id="a_node1"><a xlink:title=" ">
<polygon fill="#bfbfbf" stroke="black" points="0,-30 0,-49 41,-49 41,-30 0,-30"/>
<text text-anchor="middle" x="20.5" y="-37" font-family="Helvetica,sans-Serif" font-size="10.00">TEST</text>
</a>
</g>
</g>
<!-- Node2 -->
<g id="node2" class="node">
<title>Node2</title>
<g id="a_node2"><a xlink:href="classfuzzer_1_1MutationDispatcher.html#afa4f730fc79863d8b145b5ba0dea19f5" target="_top" xlink:title=" ">
<polygon fill="white" stroke="black" points="80,-49.5 80,-79.5 229,-79.5 229,-49.5 80,-49.5"/>
<text text-anchor="start" x="88" y="-67.5" font-family="Helvetica,sans-Serif" font-size="10.00">fuzzer::MutationDispatcher</text>
<text text-anchor="middle" x="154.5" y="-56.5" font-family="Helvetica,sans-Serif" font-size="10.00">::Mutate</text>
</a>
</g>
</g>
<!-- Node1&#45;&gt;Node2 -->
<g id="edge1" class="edge">
<title>Node1&#45;&gt;Node2</title>
<path fill="none" stroke="midnightblue" d="M41.26,-43.24C49.36,-44.78 59.32,-46.66 69.93,-48.67"/>
<polygon fill="midnightblue" stroke="midnightblue" points="69.35,-52.12 79.82,-50.55 70.65,-45.25 69.35,-52.12"/>
</g>
<!-- Node3 -->
<g id="node3" class="node">
<title>Node3</title>
<g id="a_node3"><a xlink:href="FuzzerUnittest_8cpp.html#abaa5673e660442bca4e55dd4b1fa58a6" target="_top" xlink:title=" ">
<polygon fill="white" stroke="black" points="77,-0.5 77,-30.5 232,-30.5 232,-0.5 77,-0.5"/>
<text text-anchor="start" x="85" y="-18.5" font-family="Helvetica,sans-Serif" font-size="10.00">TestAddWordFromDictionary</text>
<text text-anchor="middle" x="154.5" y="-7.5" font-family="Helvetica,sans-Serif" font-size="10.00">WithHint</text>
</a>
</g>
</g>
<!-- Node1&#45;&gt;Node3 -->
<g id="edge2" class="edge">
<title>Node1&#45;&gt;Node3</title>
<path fill="none" stroke="midnightblue" d="M41.26,-35.91C48.57,-34.58 57.41,-32.97 66.87,-31.25"/>
<polygon fill="midnightblue" stroke="midnightblue" points="67.71,-34.65 76.93,-29.42 66.46,-27.77 67.71,-34.65"/>
</g>
<!-- Node4 -->
<g id="node4" class="node">
<title>Node4</title>
<g id="a_node4"><a xlink:href="classfuzzer_1_1MutationDispatcher.html#a8260971a12fd061d7b5cc0f8d4f2aa50" target="_top" xlink:title=" ">
<polygon fill="white" stroke="black" points="268,-0.5 268,-30.5 418,-30.5 418,-0.5 268,-0.5"/>
<text text-anchor="start" x="276" y="-18.5" font-family="Helvetica,sans-Serif" font-size="10.00">fuzzer::MutationDispatcher</text>
<text text-anchor="middle" x="343" y="-7.5" font-family="Helvetica,sans-Serif" font-size="10.00">::AddWordToAutoDictionary</text>
</a>
</g>
</g>
<!-- Node3&#45;&gt;Node4 -->
<g id="edge3" class="edge">
<title>Node3&#45;&gt;Node4</title>
<path fill="none" stroke="midnightblue" d="M232.16,-15.5C240.52,-15.5 249.06,-15.5 257.51,-15.5"/>
<polygon fill="midnightblue" stroke="midnightblue" points="257.74,-19 267.74,-15.5 257.74,-12 257.74,-19"/>
</g>
</g>
</svg>
