<?xml version="1.0" encoding="UTF-8" standalone="no"?>
<!DOCTYPE svg PUBLIC "-//W3C//DTD SVG 1.1//EN"
 "http://www.w3.org/Graphics/SVG/1.1/DTD/svg11.dtd">
<!-- Generated by graphviz version 2.43.0 (0)
 -->
<!-- Title: mc_orchestrator/json&#45;3.7.3/test/thirdparty/Fuzzer/test/FuzzerUnittest.cpp Pages: 1 -->
<svg width="1782pt" height="330pt"
 viewBox="0.00 0.00 1782.00 330.00" xmlns="http://www.w3.org/2000/svg" xmlns:xlink="http://www.w3.org/1999/xlink">
<g id="graph0" class="graph" transform="scale(1 1) rotate(0) translate(4 326)">
<title>mc_orchestrator/json&#45;3.7.3/test/thirdparty/Fuzzer/test/FuzzerUnittest.cpp</title>
<polygon fill="white" stroke="transparent" points="-4,4 -4,-326 1778,-326 1778,4 -4,4"/>
<!-- Node1 -->
<g id="node1" class="node">
<title>Node1</title>
<g id="a_node1"><a xlink:title=" ">
<polygon fill="#bfbfbf" stroke="black" points="1170.5,-280.5 1170.5,-321.5 1337.5,-321.5 1337.5,-280.5 1170.5,-280.5"/>
<text text-anchor="start" x="1178.5" y="-309.5" font-family="Helvetica,sans-Serif" font-size="10.00">mc_orchestrator/json</text>
<text text-anchor="start" x="1178.5" y="-298.5" font-family="Helvetica,sans-Serif" font-size="10.00">&#45;3.7.3/test/thirdparty</text>
<text text-anchor="middle" x="1254" y="-287.5" font-family="Helvetica,sans-Serif" font-size="10.00">/Fuzzer/test/FuzzerUnittest.cpp</text>
</a>
</g>
</g>
<!-- Node2 -->
<g id="node2" class="node">
<title>Node2</title>
<g id="a_node2"><a xlink:href="FuzzerCorpus_8h.html" target="_top" xlink:title=" ">
<polygon fill="white" stroke="black" points="1208.5,-224.5 1208.5,-243.5 1299.5,-243.5 1299.5,-224.5 1208.5,-224.5"/>
<text text-anchor="middle" x="1254" y="-231.5" font-family="Helvetica,sans-Serif" font-size="10.00">FuzzerCorpus.h</text>
</a>
</g>
</g>
<!-- Node1&#45;&gt;Node2 -->
<g id="edge1" class="edge">
<title>Node1&#45;&gt;Node2</title>
<path fill="none" stroke="midnightblue" d="M1254,-280.5C1254,-272.07 1254,-262.24 1254,-253.87"/>
<polygon fill="midnightblue" stroke="midnightblue" points="1257.5,-253.65 1254,-243.65 1250.5,-253.65 1257.5,-253.65"/>
</g>
<!-- Node11 -->
<g id="node11" class="node">
<title>Node11</title>
<g id="a_node11"><a xlink:href="FuzzerRandom_8h.html" target="_top" xlink:title=" ">
<polygon fill="white" stroke="black" points="1022,-168.5 1022,-187.5 1120,-187.5 1120,-168.5 1022,-168.5"/>
<text text-anchor="middle" x="1071" y="-175.5" font-family="Helvetica,sans-Serif" font-size="10.00">FuzzerRandom.h</text>
</a>
</g>
</g>
<!-- Node1&#45;&gt;Node11 -->
<g id="edge59" class="edge">
<title>Node1&#45;&gt;Node11</title>
<path fill="none" stroke="midnightblue" d="M1224.19,-280.29C1187.16,-255.81 1124.9,-214.64 1092.32,-193.1"/>
<polygon fill="midnightblue" stroke="midnightblue" points="1094.24,-190.17 1083.97,-187.57 1090.38,-196.01 1094.24,-190.17"/>
</g>
<!-- Node17 -->
<g id="node17" class="node">
<title>Node17</title>
<g id="a_node17"><a xlink:title=" ">
<polygon fill="white" stroke="#bfbfbf" points="1538,-112.5 1538,-131.5 1570,-131.5 1570,-112.5 1538,-112.5"/>
<text text-anchor="middle" x="1554" y="-119.5" font-family="Helvetica,sans-Serif" font-size="10.00">set</text>
</a>
</g>
</g>
<!-- Node1&#45;&gt;Node17 -->
<g id="edge62" class="edge">
<title>Node1&#45;&gt;Node17</title>
<path fill="none" stroke="midnightblue" d="M1337.78,-286.87C1400.42,-272.79 1483.77,-244.34 1535,-188 1546.48,-175.37 1551.05,-156.16 1552.86,-141.89"/>
<polygon fill="midnightblue" stroke="midnightblue" points="1556.36,-142.01 1553.79,-131.73 1549.39,-141.37 1556.36,-142.01"/>
</g>
<!-- Node20 -->
<g id="node20" class="node">
<title>Node20</title>
<g id="a_node20"><a xlink:href="FuzzerInternal_8h.html" target="_top" xlink:title=" ">
<polygon fill="white" stroke="black" points="839.5,-168.5 839.5,-187.5 934.5,-187.5 934.5,-168.5 839.5,-168.5"/>
<text text-anchor="middle" x="887" y="-175.5" font-family="Helvetica,sans-Serif" font-size="10.00">FuzzerInternal.h</text>
</a>
</g>
</g>
<!-- Node1&#45;&gt;Node20 -->
<g id="edge25" class="edge">
<title>Node1&#45;&gt;Node20</title>
<path fill="none" stroke="midnightblue" d="M1194.63,-280.42C1117.6,-255.03 985.64,-211.52 922.58,-190.73"/>
<polygon fill="midnightblue" stroke="midnightblue" points="923.67,-187.4 913.07,-187.6 921.47,-194.05 923.67,-187.4"/>
</g>
<!-- Node32 -->
<g id="node32" class="node">
<title>Node32</title>
<g id="a_node32"><a xlink:href="FuzzerDictionary_8h.html" target="_top" xlink:title=" ">
<polygon fill="white" stroke="black" points="411,-168.5 411,-187.5 517,-187.5 517,-168.5 411,-168.5"/>
<text text-anchor="middle" x="464" y="-175.5" font-family="Helvetica,sans-Serif" font-size="10.00">FuzzerDictionary.h</text>
</a>
</g>
</g>
<!-- Node1&#45;&gt;Node32 -->
<g id="edge44" class="edge">
<title>Node1&#45;&gt;Node32</title>
<path fill="none" stroke="midnightblue" d="M1170.17,-291.57C1078.14,-281.9 926.14,-264.67 796,-244 694.69,-227.91 577.08,-203.52 512.57,-189.64"/>
<polygon fill="midnightblue" stroke="midnightblue" points="513.2,-186.2 502.69,-187.51 511.72,-193.04 513.2,-186.2"/>
</g>
<!-- Node35 -->
<g id="node35" class="node">
<title>Node35</title>
<g id="a_node35"><a xlink:href="FuzzerMerge_8h.html" target="_top" xlink:title=" ">
<polygon fill="white" stroke="black" points="1582,-168.5 1582,-187.5 1670,-187.5 1670,-168.5 1582,-168.5"/>
<text text-anchor="middle" x="1626" y="-175.5" font-family="Helvetica,sans-Serif" font-size="10.00">FuzzerMerge.h</text>
</a>
</g>
</g>
<!-- Node1&#45;&gt;Node35 -->
<g id="edge51" class="edge">
<title>Node1&#45;&gt;Node35</title>
<path fill="none" stroke="midnightblue" d="M1337.65,-299.78C1403.95,-296.27 1496.93,-283.69 1568,-244 1588.34,-232.64 1605.2,-211.42 1615.41,-196.32"/>
<polygon fill="midnightblue" stroke="midnightblue" points="1618.39,-198.15 1620.87,-187.85 1612.51,-194.35 1618.39,-198.15"/>
</g>
<!-- Node37 -->
<g id="node37" class="node">
<title>Node37</title>
<g id="a_node37"><a xlink:href="FuzzerMutate_8h.html" target="_top" xlink:title=" ">
<polygon fill="white" stroke="black" points="805,-224.5 805,-243.5 897,-243.5 897,-224.5 805,-224.5"/>
<text text-anchor="middle" x="851" y="-231.5" font-family="Helvetica,sans-Serif" font-size="10.00">FuzzerMutate.h</text>
</a>
</g>
</g>
<!-- Node1&#45;&gt;Node37 -->
<g id="edge55" class="edge">
<title>Node1&#45;&gt;Node37</title>
<path fill="none" stroke="midnightblue" d="M1170.5,-286.53C1091.66,-273.82 975.62,-255.1 907.23,-244.07"/>
<polygon fill="midnightblue" stroke="midnightblue" points="907.52,-240.57 897.09,-242.43 906.4,-247.48 907.52,-240.57"/>
</g>
<!-- Node38 -->
<g id="node38" class="node">
<title>Node38</title>
<g id="a_node38"><a xlink:title=" ">
<polygon fill="white" stroke="#bfbfbf" points="1620,-224.5 1620,-243.5 1698,-243.5 1698,-224.5 1620,-224.5"/>
<text text-anchor="middle" x="1659" y="-231.5" font-family="Helvetica,sans-Serif" font-size="10.00">gtest/gtest.h</text>
</a>
</g>
</g>
<!-- Node1&#45;&gt;Node38 -->
<g id="edge60" class="edge">
<title>Node1&#45;&gt;Node38</title>
<path fill="none" stroke="midnightblue" d="M1337.61,-286.95C1408.95,-275.75 1514.26,-259.09 1606,-244 1607.27,-243.79 1608.56,-243.58 1609.85,-243.36"/>
<polygon fill="midnightblue" stroke="midnightblue" points="1610.65,-246.78 1619.93,-241.68 1609.49,-239.88 1610.65,-246.78"/>
</g>
<!-- Node39 -->
<g id="node39" class="node">
<title>Node39</title>
<g id="a_node39"><a xlink:title=" ">
<polygon fill="white" stroke="#bfbfbf" points="1716,-224.5 1716,-243.5 1774,-243.5 1774,-224.5 1716,-224.5"/>
<text text-anchor="middle" x="1745" y="-231.5" font-family="Helvetica,sans-Serif" font-size="10.00">memory</text>
</a>
</g>
</g>
<!-- Node1&#45;&gt;Node39 -->
<g id="edge61" class="edge">
<title>Node1&#45;&gt;Node39</title>
<path fill="none" stroke="midnightblue" d="M1337.9,-292.41C1426.92,-283.72 1571.8,-267.78 1705.59,-244.09"/>
<polygon fill="midnightblue" stroke="midnightblue" points="1706.38,-247.5 1715.61,-242.3 1705.15,-240.61 1706.38,-247.5"/>
</g>
<!-- Node3 -->
<g id="node3" class="node">
<title>Node3</title>
<g id="a_node3"><a xlink:href="FuzzerDefs_8h.html" target="_top" xlink:title=" ">
<polygon fill="white" stroke="black" points="1014,-56.5 1014,-75.5 1094,-75.5 1094,-56.5 1014,-56.5"/>
<text text-anchor="middle" x="1054" y="-63.5" font-family="Helvetica,sans-Serif" font-size="10.00">FuzzerDefs.h</text>
</a>
</g>
</g>
<!-- Node2&#45;&gt;Node3 -->
<g id="edge2" class="edge">
<title>Node2&#45;&gt;Node3</title>
<path fill="none" stroke="midnightblue" d="M1264.26,-224.35C1280.77,-210.79 1314.66,-184.37 1347,-168 1394.54,-143.93 1488.5,-151.73 1453,-112 1430.13,-86.4 1206.21,-73.55 1104.19,-68.99"/>
<polygon fill="midnightblue" stroke="midnightblue" points="1104.27,-65.49 1094.12,-68.55 1103.96,-72.48 1104.27,-65.49"/>
</g>
<!-- Node10 -->
<g id="node10" class="node">
<title>Node10</title>
<g id="a_node10"><a xlink:href="FuzzerIO_8h.html" target="_top" xlink:title=" ">
<polygon fill="white" stroke="black" points="449,-112.5 449,-131.5 517,-131.5 517,-112.5 449,-112.5"/>
<text text-anchor="middle" x="483" y="-119.5" font-family="Helvetica,sans-Serif" font-size="10.00">FuzzerIO.h</text>
</a>
</g>
</g>
<!-- Node2&#45;&gt;Node10 -->
<g id="edge9" class="edge">
<title>Node2&#45;&gt;Node10</title>
<path fill="none" stroke="midnightblue" d="M1208.36,-229.35C1130.51,-222.87 967.15,-208.09 830,-188 720.63,-171.98 593.14,-146.27 527.34,-132.48"/>
<polygon fill="midnightblue" stroke="midnightblue" points="527.83,-129 517.32,-130.37 526.39,-135.85 527.83,-129"/>
</g>
<!-- Node2&#45;&gt;Node11 -->
<g id="edge11" class="edge">
<title>Node2&#45;&gt;Node11</title>
<path fill="none" stroke="midnightblue" d="M1225,-224.44C1193.82,-215.24 1144.07,-200.56 1109.59,-190.39"/>
<polygon fill="midnightblue" stroke="midnightblue" points="1110.44,-186.99 1099.86,-187.52 1108.46,-193.7 1110.44,-186.99"/>
</g>
<!-- Node12 -->
<g id="node12" class="node">
<title>Node12</title>
<g id="a_node12"><a xlink:title=" ">
<polygon fill="white" stroke="#bfbfbf" points="1252,-112.5 1252,-131.5 1306,-131.5 1306,-112.5 1252,-112.5"/>
<text text-anchor="middle" x="1279" y="-119.5" font-family="Helvetica,sans-Serif" font-size="10.00">random</text>
</a>
</g>
</g>
<!-- Node2&#45;&gt;Node12 -->
<g id="edge23" class="edge">
<title>Node2&#45;&gt;Node12</title>
<path fill="none" stroke="midnightblue" d="M1258.03,-224.23C1261.96,-215.31 1267.8,-200.97 1271,-188 1274.79,-172.63 1276.82,-154.76 1277.89,-141.64"/>
<polygon fill="midnightblue" stroke="midnightblue" points="1281.39,-141.75 1278.6,-131.53 1274.41,-141.26 1281.39,-141.75"/>
</g>
<!-- Node13 -->
<g id="node13" class="node">
<title>Node13</title>
<g id="a_node13"><a xlink:href="FuzzerSHA1_8h.html" target="_top" xlink:title=" ">
<polygon fill="white" stroke="black" points="1150.5,-112.5 1150.5,-131.5 1233.5,-131.5 1233.5,-112.5 1150.5,-112.5"/>
<text text-anchor="middle" x="1192" y="-119.5" font-family="Helvetica,sans-Serif" font-size="10.00">FuzzerSHA1.h</text>
</a>
</g>
</g>
<!-- Node2&#45;&gt;Node13 -->
<g id="edge13" class="edge">
<title>Node2&#45;&gt;Node13</title>
<path fill="none" stroke="midnightblue" d="M1218.99,-224.45C1200.07,-217.84 1178.32,-206.59 1167,-188 1157.72,-172.75 1167.46,-153.47 1177.37,-139.88"/>
<polygon fill="midnightblue" stroke="midnightblue" points="1180.25,-141.88 1183.71,-131.87 1174.76,-137.54 1180.25,-141.88"/>
</g>
<!-- Node15 -->
<g id="node15" class="node">
<title>Node15</title>
<g id="a_node15"><a xlink:href="FuzzerTracePC_8h.html" target="_top" xlink:title=" ">
<polygon fill="white" stroke="black" points="1356,-168.5 1356,-187.5 1452,-187.5 1452,-168.5 1356,-168.5"/>
<text text-anchor="middle" x="1404" y="-175.5" font-family="Helvetica,sans-Serif" font-size="10.00">FuzzerTracePC.h</text>
</a>
</g>
</g>
<!-- Node2&#45;&gt;Node15 -->
<g id="edge17" class="edge">
<title>Node2&#45;&gt;Node15</title>
<path fill="none" stroke="midnightblue" d="M1277.77,-224.44C1302.89,-215.4 1342.71,-201.06 1370.9,-190.92"/>
<polygon fill="midnightblue" stroke="midnightblue" points="1372.12,-194.2 1380.34,-187.52 1369.75,-187.61 1372.12,-194.2"/>
</g>
<!-- Node18 -->
<g id="node18" class="node">
<title>Node18</title>
<g id="a_node18"><a xlink:title=" ">
<polygon fill="white" stroke="#bfbfbf" points="1470,-168.5 1470,-187.5 1526,-187.5 1526,-168.5 1470,-168.5"/>
<text text-anchor="middle" x="1498" y="-175.5" font-family="Helvetica,sans-Serif" font-size="10.00">numeric</text>
</a>
</g>
</g>
<!-- Node2&#45;&gt;Node18 -->
<g id="edge22" class="edge">
<title>Node2&#45;&gt;Node18</title>
<path fill="none" stroke="midnightblue" d="M1294.52,-224.5C1334.18,-216.11 1396.56,-202.73 1459.61,-188.28"/>
<polygon fill="midnightblue" stroke="midnightblue" points="1460.77,-191.6 1469.74,-185.95 1459.21,-184.78 1460.77,-191.6"/>
</g>
<!-- Node19 -->
<g id="node19" class="node">
<title>Node19</title>
<g id="a_node19"><a xlink:title=" ">
<polygon fill="white" stroke="#bfbfbf" points="1176,-168.5 1176,-187.5 1262,-187.5 1262,-168.5 1176,-168.5"/>
<text text-anchor="middle" x="1219" y="-175.5" font-family="Helvetica,sans-Serif" font-size="10.00">unordered_set</text>
</a>
</g>
</g>
<!-- Node2&#45;&gt;Node19 -->
<g id="edge24" class="edge">
<title>Node2&#45;&gt;Node19</title>
<path fill="none" stroke="midnightblue" d="M1248.22,-224.08C1243.33,-216.53 1236.17,-205.49 1230.17,-196.23"/>
<polygon fill="midnightblue" stroke="midnightblue" points="1233.05,-194.24 1224.67,-187.75 1227.17,-198.05 1233.05,-194.24"/>
</g>
<!-- Node4 -->
<g id="node4" class="node">
<title>Node4</title>
<g id="a_node4"><a xlink:title=" ">
<polygon fill="white" stroke="#bfbfbf" points="897,-0.5 897,-19.5 949,-19.5 949,-0.5 897,-0.5"/>
<text text-anchor="middle" x="923" y="-7.5" font-family="Helvetica,sans-Serif" font-size="10.00">cassert</text>
</a>
</g>
</g>
<!-- Node3&#45;&gt;Node4 -->
<g id="edge3" class="edge">
<title>Node3&#45;&gt;Node4</title>
<path fill="none" stroke="midnightblue" d="M1033.24,-56.44C1011.68,-47.56 977.74,-33.56 953.21,-23.45"/>
<polygon fill="midnightblue" stroke="midnightblue" points="954.24,-20.09 943.66,-19.52 951.57,-26.56 954.24,-20.09"/>
</g>
<!-- Node5 -->
<g id="node5" class="node">
<title>Node5</title>
<g id="a_node5"><a xlink:title=" ">
<polygon fill="white" stroke="#bfbfbf" points="1165.5,-0.5 1165.5,-19.5 1218.5,-19.5 1218.5,-0.5 1165.5,-0.5"/>
<text text-anchor="middle" x="1192" y="-7.5" font-family="Helvetica,sans-Serif" font-size="10.00">cstddef</text>
</a>
</g>
</g>
<!-- Node3&#45;&gt;Node5 -->
<g id="edge4" class="edge">
<title>Node3&#45;&gt;Node5</title>
<path fill="none" stroke="midnightblue" d="M1075.87,-56.44C1098.78,-47.48 1134.98,-33.31 1160.87,-23.18"/>
<polygon fill="midnightblue" stroke="midnightblue" points="1162.2,-26.42 1170.24,-19.52 1159.65,-19.9 1162.2,-26.42"/>
</g>
<!-- Node6 -->
<g id="node6" class="node">
<title>Node6</title>
<g id="a_node6"><a xlink:title=" ">
<polygon fill="white" stroke="#bfbfbf" points="967,-0.5 967,-19.5 1017,-19.5 1017,-0.5 967,-0.5"/>
<text text-anchor="middle" x="992" y="-7.5" font-family="Helvetica,sans-Serif" font-size="10.00">cstdint</text>
</a>
</g>
</g>
<!-- Node3&#45;&gt;Node6 -->
<g id="edge5" class="edge">
<title>Node3&#45;&gt;Node6</title>
<path fill="none" stroke="midnightblue" d="M1044.04,-56.32C1034.87,-48.34 1021.06,-36.31 1009.97,-26.65"/>
<polygon fill="midnightblue" stroke="midnightblue" points="1011.98,-23.76 1002.14,-19.83 1007.38,-29.04 1011.98,-23.76"/>
</g>
<!-- Node7 -->
<g id="node7" class="node">
<title>Node7</title>
<g id="a_node7"><a xlink:title=" ">
<polygon fill="white" stroke="#bfbfbf" points="1035,-0.5 1035,-19.5 1085,-19.5 1085,-0.5 1035,-0.5"/>
<text text-anchor="middle" x="1060" y="-7.5" font-family="Helvetica,sans-Serif" font-size="10.00">cstring</text>
</a>
</g>
</g>
<!-- Node3&#45;&gt;Node7 -->
<g id="edge6" class="edge">
<title>Node3&#45;&gt;Node7</title>
<path fill="none" stroke="midnightblue" d="M1054.99,-56.08C1055.79,-48.93 1056.93,-38.64 1057.92,-29.69"/>
<polygon fill="midnightblue" stroke="midnightblue" points="1061.4,-30.08 1059.03,-19.75 1054.44,-29.3 1061.4,-30.08"/>
</g>
<!-- Node8 -->
<g id="node8" class="node">
<title>Node8</title>
<g id="a_node8"><a xlink:title=" ">
<polygon fill="white" stroke="#bfbfbf" points="1103,-0.5 1103,-19.5 1147,-19.5 1147,-0.5 1103,-0.5"/>
<text text-anchor="middle" x="1125" y="-7.5" font-family="Helvetica,sans-Serif" font-size="10.00">string</text>
</a>
</g>
</g>
<!-- Node3&#45;&gt;Node8 -->
<g id="edge7" class="edge">
<title>Node3&#45;&gt;Node8</title>
<path fill="none" stroke="midnightblue" d="M1065.41,-56.32C1076.11,-48.18 1092.34,-35.84 1105.16,-26.09"/>
<polygon fill="midnightblue" stroke="midnightblue" points="1107.54,-28.67 1113.39,-19.83 1103.31,-23.1 1107.54,-28.67"/>
</g>
<!-- Node9 -->
<g id="node9" class="node">
<title>Node9</title>
<g id="a_node9"><a xlink:title=" ">
<polygon fill="white" stroke="#bfbfbf" points="831.5,-0.5 831.5,-19.5 878.5,-19.5 878.5,-0.5 831.5,-0.5"/>
<text text-anchor="middle" x="855" y="-7.5" font-family="Helvetica,sans-Serif" font-size="10.00">vector</text>
</a>
</g>
</g>
<!-- Node3&#45;&gt;Node9 -->
<g id="edge8" class="edge">
<title>Node3&#45;&gt;Node9</title>
<path fill="none" stroke="midnightblue" d="M1022.48,-56.47C991.04,-47.96 941.11,-34.43 888.62,-20.17"/>
<polygon fill="midnightblue" stroke="midnightblue" points="889.36,-16.74 878.79,-17.49 887.52,-23.49 889.36,-16.74"/>
</g>
<!-- Node10&#45;&gt;Node3 -->
<g id="edge10" class="edge">
<title>Node10&#45;&gt;Node3</title>
<path fill="none" stroke="midnightblue" d="M517.02,-114.19C521.71,-113.38 526.46,-112.62 531,-112 703.76,-88.43 910.42,-74.96 1003.81,-69.65"/>
<polygon fill="midnightblue" stroke="midnightblue" points="1004.04,-73.14 1013.83,-69.09 1003.64,-66.16 1004.04,-73.14"/>
</g>
<!-- Node11&#45;&gt;Node12 -->
<g id="edge12" class="edge">
<title>Node11&#45;&gt;Node12</title>
<path fill="none" stroke="midnightblue" d="M1103.96,-168.44C1141.58,-158.68 1202.95,-142.74 1242.13,-132.57"/>
<polygon fill="midnightblue" stroke="midnightblue" points="1243.03,-135.95 1251.83,-130.05 1241.27,-129.18 1243.03,-135.95"/>
</g>
<!-- Node13&#45;&gt;Node3 -->
<g id="edge14" class="edge">
<title>Node13&#45;&gt;Node3</title>
<path fill="none" stroke="midnightblue" d="M1170.13,-112.44C1147.22,-103.48 1111.02,-89.31 1085.13,-79.18"/>
<polygon fill="midnightblue" stroke="midnightblue" points="1086.35,-75.9 1075.76,-75.52 1083.8,-82.42 1086.35,-75.9"/>
</g>
<!-- Node13&#45;&gt;Node5 -->
<g id="edge15" class="edge">
<title>Node13&#45;&gt;Node5</title>
<path fill="none" stroke="midnightblue" d="M1192,-112.37C1192,-94.62 1192,-53.67 1192,-29.6"/>
<polygon fill="midnightblue" stroke="midnightblue" points="1195.5,-29.59 1192,-19.59 1188.5,-29.59 1195.5,-29.59"/>
</g>
<!-- Node14 -->
<g id="node14" class="node">
<title>Node14</title>
<g id="a_node14"><a xlink:title=" ">
<polygon fill="white" stroke="#bfbfbf" points="251.5,-56.5 251.5,-75.5 304.5,-75.5 304.5,-56.5 251.5,-56.5"/>
<text text-anchor="middle" x="278" y="-63.5" font-family="Helvetica,sans-Serif" font-size="10.00">stdint.h</text>
</a>
</g>
</g>
<!-- Node13&#45;&gt;Node14 -->
<g id="edge16" class="edge">
<title>Node13&#45;&gt;Node14</title>
<path fill="none" stroke="midnightblue" d="M1150.31,-113.21C1147.17,-112.76 1144.04,-112.35 1141,-112 822.3,-75.71 434.01,-68.65 314.64,-67.31"/>
<polygon fill="midnightblue" stroke="midnightblue" points="314.62,-63.81 304.58,-67.2 314.54,-70.81 314.62,-63.81"/>
</g>
<!-- Node15&#45;&gt;Node3 -->
<g id="edge18" class="edge">
<title>Node15&#45;&gt;Node3</title>
<path fill="none" stroke="midnightblue" d="M1430.36,-168.49C1461.67,-157.07 1507.16,-135.48 1486,-112 1460.81,-84.05 1212.38,-72.33 1104.06,-68.52"/>
<polygon fill="midnightblue" stroke="midnightblue" points="1104.14,-65.02 1094.03,-68.18 1103.9,-72.02 1104.14,-65.02"/>
</g>
<!-- Node16 -->
<g id="node16" class="node">
<title>Node16</title>
<g id="a_node16"><a xlink:href="FuzzerValueBitMap_8h.html" target="_top" xlink:title=" ">
<polygon fill="white" stroke="black" points="1324.5,-112.5 1324.5,-131.5 1443.5,-131.5 1443.5,-112.5 1324.5,-112.5"/>
<text text-anchor="middle" x="1384" y="-119.5" font-family="Helvetica,sans-Serif" font-size="10.00">FuzzerValueBitMap.h</text>
</a>
</g>
</g>
<!-- Node15&#45;&gt;Node16 -->
<g id="edge19" class="edge">
<title>Node15&#45;&gt;Node16</title>
<path fill="none" stroke="midnightblue" d="M1400.7,-168.08C1398.02,-160.85 1394.15,-150.41 1390.81,-141.4"/>
<polygon fill="midnightblue" stroke="midnightblue" points="1394,-139.91 1387.24,-131.75 1387.43,-142.34 1394,-139.91"/>
</g>
<!-- Node15&#45;&gt;Node17 -->
<g id="edge21" class="edge">
<title>Node15&#45;&gt;Node17</title>
<path fill="none" stroke="midnightblue" d="M1427.77,-168.44C1455.14,-158.59 1499.94,-142.46 1528.16,-132.3"/>
<polygon fill="midnightblue" stroke="midnightblue" points="1529.52,-135.53 1537.74,-128.85 1527.15,-128.95 1529.52,-135.53"/>
</g>
<!-- Node16&#45;&gt;Node3 -->
<g id="edge20" class="edge">
<title>Node16&#45;&gt;Node3</title>
<path fill="none" stroke="midnightblue" d="M1331.71,-112.44C1269.35,-102.24 1165.83,-85.3 1104.34,-75.24"/>
<polygon fill="midnightblue" stroke="midnightblue" points="1104.54,-71.72 1094.11,-73.56 1103.41,-78.63 1104.54,-71.72"/>
</g>
<!-- Node20&#45;&gt;Node3 -->
<g id="edge26" class="edge">
<title>Node20&#45;&gt;Node3</title>
<path fill="none" stroke="midnightblue" d="M934.68,-174.07C967.07,-169.6 1008.65,-158.63 1035,-132 1047,-119.87 1051.5,-100.59 1053.15,-86.17"/>
<polygon fill="midnightblue" stroke="midnightblue" points="1056.66,-86.12 1053.95,-75.88 1049.68,-85.58 1056.66,-86.12"/>
</g>
<!-- Node20&#45;&gt;Node13 -->
<g id="edge36" class="edge">
<title>Node20&#45;&gt;Node13</title>
<path fill="none" stroke="midnightblue" d="M934.66,-168.56C990.45,-158.68 1082.53,-142.38 1140.09,-132.19"/>
<polygon fill="midnightblue" stroke="midnightblue" points="1140.83,-135.61 1150.07,-130.42 1139.61,-128.72 1140.83,-135.61"/>
</g>
<!-- Node20&#45;&gt;Node16 -->
<g id="edge37" class="edge">
<title>Node20&#45;&gt;Node16</title>
<path fill="none" stroke="midnightblue" d="M934.54,-172.39C1011.81,-164.82 1169.69,-148.99 1314.23,-132.06"/>
<polygon fill="midnightblue" stroke="midnightblue" points="1314.65,-135.54 1324.17,-130.9 1313.83,-128.59 1314.65,-135.54"/>
</g>
<!-- Node21 -->
<g id="node21" class="node">
<title>Node21</title>
<g id="a_node21"><a xlink:href="FuzzerExtFunctions_8h.html" target="_top" xlink:title=" ">
<polygon fill="white" stroke="black" points="62.5,-112.5 62.5,-131.5 181.5,-131.5 181.5,-112.5 62.5,-112.5"/>
<text text-anchor="middle" x="122" y="-119.5" font-family="Helvetica,sans-Serif" font-size="10.00">FuzzerExtFunctions.h</text>
</a>
</g>
</g>
<!-- Node20&#45;&gt;Node21 -->
<g id="edge27" class="edge">
<title>Node20&#45;&gt;Node21</title>
<path fill="none" stroke="midnightblue" d="M839.16,-175.02C727.57,-170.16 441.15,-156.32 191.66,-132.1"/>
<polygon fill="midnightblue" stroke="midnightblue" points="191.97,-128.62 181.68,-131.13 191.29,-135.59 191.97,-128.62"/>
</g>
<!-- Node24 -->
<g id="node24" class="node">
<title>Node24</title>
<g id="a_node24"><a xlink:href="FuzzerInterface_8h.html" target="_top" xlink:title=" ">
<polygon fill="white" stroke="black" points="199.5,-112.5 199.5,-131.5 300.5,-131.5 300.5,-112.5 199.5,-112.5"/>
<text text-anchor="middle" x="250" y="-119.5" font-family="Helvetica,sans-Serif" font-size="10.00">FuzzerInterface.h</text>
</a>
</g>
</g>
<!-- Node20&#45;&gt;Node24 -->
<g id="edge31" class="edge">
<title>Node20&#45;&gt;Node24</title>
<path fill="none" stroke="midnightblue" d="M839.39,-174.44C742.14,-168.95 513.45,-154.77 310.65,-131.99"/>
<polygon fill="midnightblue" stroke="midnightblue" points="311.04,-128.51 300.71,-130.86 310.25,-135.47 311.04,-128.51"/>
</g>
<!-- Node25 -->
<g id="node25" class="node">
<title>Node25</title>
<g id="a_node25"><a xlink:href="FuzzerOptions_8h.html" target="_top" xlink:title=" ">
<polygon fill="white" stroke="black" points="930.5,-112.5 930.5,-131.5 1025.5,-131.5 1025.5,-112.5 930.5,-112.5"/>
<text text-anchor="middle" x="978" y="-119.5" font-family="Helvetica,sans-Serif" font-size="10.00">FuzzerOptions.h</text>
</a>
</g>
</g>
<!-- Node20&#45;&gt;Node25 -->
<g id="edge34" class="edge">
<title>Node20&#45;&gt;Node25</title>
<path fill="none" stroke="midnightblue" d="M901.62,-168.32C915.95,-159.82 938.01,-146.73 954.75,-136.8"/>
<polygon fill="midnightblue" stroke="midnightblue" points="956.6,-139.77 963.42,-131.65 953.03,-133.75 956.6,-139.77"/>
</g>
<!-- Node26 -->
<g id="node26" class="node">
<title>Node26</title>
<g id="a_node26"><a xlink:title=" ">
<polygon fill="white" stroke="#bfbfbf" points="573,-112.5 573,-131.5 637,-131.5 637,-112.5 573,-112.5"/>
<text text-anchor="middle" x="605" y="-119.5" font-family="Helvetica,sans-Serif" font-size="10.00">algorithm</text>
</a>
</g>
</g>
<!-- Node20&#45;&gt;Node26 -->
<g id="edge38" class="edge">
<title>Node20&#45;&gt;Node26</title>
<path fill="none" stroke="midnightblue" d="M839.36,-168.56C792.87,-160.22 719.87,-146.86 647.42,-132.24"/>
<polygon fill="midnightblue" stroke="midnightblue" points="647.7,-128.73 637.21,-130.17 646.31,-135.59 647.7,-128.73"/>
</g>
<!-- Node27 -->
<g id="node27" class="node">
<title>Node27</title>
<g id="a_node27"><a xlink:title=" ">
<polygon fill="white" stroke="#bfbfbf" points="794,-112.5 794,-131.5 844,-131.5 844,-112.5 794,-112.5"/>
<text text-anchor="middle" x="819" y="-119.5" font-family="Helvetica,sans-Serif" font-size="10.00">atomic</text>
</a>
</g>
</g>
<!-- Node20&#45;&gt;Node27 -->
<g id="edge39" class="edge">
<title>Node20&#45;&gt;Node27</title>
<path fill="none" stroke="midnightblue" d="M876.07,-168.32C865.83,-160.18 850.28,-147.84 838,-138.09"/>
<polygon fill="midnightblue" stroke="midnightblue" points="840.13,-135.31 830.12,-131.83 835.78,-140.79 840.13,-135.31"/>
</g>
<!-- Node28 -->
<g id="node28" class="node">
<title>Node28</title>
<g id="a_node28"><a xlink:title=" ">
<polygon fill="white" stroke="#bfbfbf" points="862,-112.5 862,-131.5 912,-131.5 912,-112.5 862,-112.5"/>
<text text-anchor="middle" x="887" y="-119.5" font-family="Helvetica,sans-Serif" font-size="10.00">chrono</text>
</a>
</g>
</g>
<!-- Node20&#45;&gt;Node28 -->
<g id="edge40" class="edge">
<title>Node20&#45;&gt;Node28</title>
<path fill="none" stroke="midnightblue" d="M887,-168.08C887,-161.01 887,-150.86 887,-141.99"/>
<polygon fill="midnightblue" stroke="midnightblue" points="890.5,-141.75 887,-131.75 883.5,-141.75 890.5,-141.75"/>
</g>
<!-- Node29 -->
<g id="node29" class="node">
<title>Node29</title>
<g id="a_node29"><a xlink:title=" ">
<polygon fill="white" stroke="#bfbfbf" points="1082,-112.5 1082,-131.5 1132,-131.5 1132,-112.5 1082,-112.5"/>
<text text-anchor="middle" x="1107" y="-119.5" font-family="Helvetica,sans-Serif" font-size="10.00">climits</text>
</a>
</g>
</g>
<!-- Node20&#45;&gt;Node29 -->
<g id="edge41" class="edge">
<title>Node20&#45;&gt;Node29</title>
<path fill="none" stroke="midnightblue" d="M921.86,-168.44C962.96,-158.35 1030.88,-141.68 1072.03,-131.58"/>
<polygon fill="midnightblue" stroke="midnightblue" points="1073.01,-134.95 1081.88,-129.16 1071.34,-128.15 1073.01,-134.95"/>
</g>
<!-- Node30 -->
<g id="node30" class="node">
<title>Node30</title>
<g id="a_node30"><a xlink:title=" ">
<polygon fill="white" stroke="#bfbfbf" points="655.5,-112.5 655.5,-131.5 704.5,-131.5 704.5,-112.5 655.5,-112.5"/>
<text text-anchor="middle" x="680" y="-119.5" font-family="Helvetica,sans-Serif" font-size="10.00">cstdlib</text>
</a>
</g>
</g>
<!-- Node20&#45;&gt;Node30 -->
<g id="edge42" class="edge">
<title>Node20&#45;&gt;Node30</title>
<path fill="none" stroke="midnightblue" d="M853.28,-168.42C820.26,-159.99 768.25,-146.62 714.84,-132.47"/>
<polygon fill="midnightblue" stroke="midnightblue" points="715.42,-129 704.86,-129.82 713.62,-135.77 715.42,-129"/>
</g>
<!-- Node31 -->
<g id="node31" class="node">
<title>Node31</title>
<g id="a_node31"><a xlink:title=" ">
<polygon fill="white" stroke="#bfbfbf" points="722.5,-112.5 722.5,-131.5 775.5,-131.5 775.5,-112.5 722.5,-112.5"/>
<text text-anchor="middle" x="749" y="-119.5" font-family="Helvetica,sans-Serif" font-size="10.00">string.h</text>
</a>
</g>
</g>
<!-- Node20&#45;&gt;Node31 -->
<g id="edge43" class="edge">
<title>Node20&#45;&gt;Node31</title>
<path fill="none" stroke="midnightblue" d="M865.13,-168.44C842.22,-159.48 806.02,-145.31 780.13,-135.18"/>
<polygon fill="midnightblue" stroke="midnightblue" points="781.35,-131.9 770.76,-131.52 778.8,-138.42 781.35,-131.9"/>
</g>
<!-- Node21&#45;&gt;Node14 -->
<g id="edge29" class="edge">
<title>Node21&#45;&gt;Node14</title>
<path fill="none" stroke="midnightblue" d="M146.72,-112.44C172.85,-103.4 214.26,-89.06 243.58,-78.92"/>
<polygon fill="midnightblue" stroke="midnightblue" points="245.09,-82.1 253.4,-75.52 242.8,-75.48 245.09,-82.1"/>
</g>
<!-- Node22 -->
<g id="node22" class="node">
<title>Node22</title>
<g id="a_node22"><a xlink:title=" ">
<polygon fill="white" stroke="#bfbfbf" points="177,-56.5 177,-75.5 233,-75.5 233,-56.5 177,-56.5"/>
<text text-anchor="middle" x="205" y="-63.5" font-family="Helvetica,sans-Serif" font-size="10.00">stddef.h</text>
</a>
</g>
</g>
<!-- Node21&#45;&gt;Node22 -->
<g id="edge28" class="edge">
<title>Node21&#45;&gt;Node22</title>
<path fill="none" stroke="midnightblue" d="M135.34,-112.32C148.16,-103.98 167.78,-91.21 182.94,-81.35"/>
<polygon fill="midnightblue" stroke="midnightblue" points="185.22,-84.04 191.7,-75.65 181.41,-78.17 185.22,-84.04"/>
</g>
<!-- Node23 -->
<g id="node23" class="node">
<title>Node23</title>
<g id="a_node23"><a xlink:title=" ">
<polygon fill="white" stroke="#bfbfbf" points="29.5,-56.5 29.5,-75.5 158.5,-75.5 158.5,-56.5 29.5,-56.5"/>
<text text-anchor="middle" x="94" y="-63.5" font-family="Helvetica,sans-Serif" font-size="10.00">FuzzerExtFunctions.def</text>
</a>
</g>
</g>
<!-- Node21&#45;&gt;Node23 -->
<g id="edge30" class="edge">
<title>Node21&#45;&gt;Node23</title>
<path fill="none" stroke="midnightblue" d="M117.38,-112.08C113.54,-104.69 107.98,-93.95 103.24,-84.81"/>
<polygon fill="midnightblue" stroke="midnightblue" points="106.25,-83.02 98.54,-75.75 100.03,-86.24 106.25,-83.02"/>
</g>
<!-- Node24&#45;&gt;Node14 -->
<g id="edge33" class="edge">
<title>Node24&#45;&gt;Node14</title>
<path fill="none" stroke="midnightblue" d="M254.62,-112.08C258.46,-104.69 264.02,-93.95 268.76,-84.81"/>
<polygon fill="midnightblue" stroke="midnightblue" points="271.97,-86.24 273.46,-75.75 265.75,-83.02 271.97,-86.24"/>
</g>
<!-- Node24&#45;&gt;Node22 -->
<g id="edge32" class="edge">
<title>Node24&#45;&gt;Node22</title>
<path fill="none" stroke="midnightblue" d="M242.57,-112.08C236.15,-104.38 226.69,-93.03 218.88,-83.65"/>
<polygon fill="midnightblue" stroke="midnightblue" points="221.38,-81.19 212.29,-75.75 216.01,-85.67 221.38,-81.19"/>
</g>
<!-- Node25&#45;&gt;Node3 -->
<g id="edge35" class="edge">
<title>Node25&#45;&gt;Node3</title>
<path fill="none" stroke="midnightblue" d="M990.21,-112.32C1001.78,-104.11 1019.38,-91.6 1033.16,-81.81"/>
<polygon fill="midnightblue" stroke="midnightblue" points="1035.44,-84.48 1041.57,-75.83 1031.39,-78.77 1035.44,-84.48"/>
</g>
<!-- Node32&#45;&gt;Node3 -->
<g id="edge45" class="edge">
<title>Node32&#45;&gt;Node3</title>
<path fill="none" stroke="midnightblue" d="M455.8,-168.31C443.92,-154.7 424.93,-128.21 440,-112 478.07,-71.04 864.17,-66.98 1003.88,-66.86"/>
<polygon fill="midnightblue" stroke="midnightblue" points="1003.9,-70.36 1013.9,-66.85 1003.9,-63.36 1003.9,-70.36"/>
</g>
<!-- Node32&#45;&gt;Node10 -->
<g id="edge46" class="edge">
<title>Node32&#45;&gt;Node10</title>
<path fill="none" stroke="midnightblue" d="M467.14,-168.08C469.68,-160.85 473.36,-150.41 476.53,-141.4"/>
<polygon fill="midnightblue" stroke="midnightblue" points="479.9,-142.35 479.92,-131.75 473.3,-140.02 479.9,-142.35"/>
</g>
<!-- Node32&#45;&gt;Node26 -->
<g id="edge49" class="edge">
<title>Node32&#45;&gt;Node26</title>
<path fill="none" stroke="midnightblue" d="M486.34,-168.44C509.75,-159.48 546.74,-145.31 573.19,-135.18"/>
<polygon fill="midnightblue" stroke="midnightblue" points="574.68,-138.36 582.76,-131.52 572.17,-131.82 574.68,-138.36"/>
</g>
<!-- Node33 -->
<g id="node33" class="node">
<title>Node33</title>
<g id="a_node33"><a xlink:href="FuzzerUtil_8h.html" target="_top" xlink:title=" ">
<polygon fill="white" stroke="black" points="319,-112.5 319,-131.5 393,-131.5 393,-112.5 319,-112.5"/>
<text text-anchor="middle" x="356" y="-119.5" font-family="Helvetica,sans-Serif" font-size="10.00">FuzzerUtil.h</text>
</a>
</g>
</g>
<!-- Node32&#45;&gt;Node33 -->
<g id="edge47" class="edge">
<title>Node32&#45;&gt;Node33</title>
<path fill="none" stroke="midnightblue" d="M446.65,-168.32C429.33,-159.66 402.48,-146.24 382.5,-136.25"/>
<polygon fill="midnightblue" stroke="midnightblue" points="383.82,-133 373.31,-131.65 380.69,-139.26 383.82,-133"/>
</g>
<!-- Node34 -->
<g id="node34" class="node">
<title>Node34</title>
<g id="a_node34"><a xlink:title=" ">
<polygon fill="white" stroke="#bfbfbf" points="0,-112.5 0,-131.5 44,-131.5 44,-112.5 0,-112.5"/>
<text text-anchor="middle" x="22" y="-119.5" font-family="Helvetica,sans-Serif" font-size="10.00">limits</text>
</a>
</g>
</g>
<!-- Node32&#45;&gt;Node34 -->
<g id="edge50" class="edge">
<title>Node32&#45;&gt;Node34</title>
<path fill="none" stroke="midnightblue" d="M410.68,-174.12C333.79,-169.33 187.29,-157.76 54.2,-131.92"/>
<polygon fill="midnightblue" stroke="midnightblue" points="54.73,-128.46 44.24,-129.96 53.37,-135.33 54.73,-128.46"/>
</g>
<!-- Node33&#45;&gt;Node3 -->
<g id="edge48" class="edge">
<title>Node33&#45;&gt;Node3</title>
<path fill="none" stroke="midnightblue" d="M393.26,-113.96C397.87,-113.22 402.54,-112.55 407,-112 628.41,-84.84 894.6,-72.77 1003.67,-68.7"/>
<polygon fill="midnightblue" stroke="midnightblue" points="1003.87,-72.19 1013.73,-68.33 1003.61,-65.2 1003.87,-72.19"/>
</g>
<!-- Node35&#45;&gt;Node3 -->
<g id="edge52" class="edge">
<title>Node35&#45;&gt;Node3</title>
<path fill="none" stroke="midnightblue" d="M1622.64,-168.41C1616.45,-153.91 1601.78,-124.9 1579,-112 1538.34,-88.98 1228.23,-74.04 1104.62,-68.95"/>
<polygon fill="midnightblue" stroke="midnightblue" points="1104.43,-65.44 1094.3,-68.53 1104.15,-72.43 1104.43,-65.44"/>
</g>
<!-- Node35&#45;&gt;Node17 -->
<g id="edge54" class="edge">
<title>Node35&#45;&gt;Node17</title>
<path fill="none" stroke="midnightblue" d="M1614.43,-168.32C1603.58,-160.18 1587.12,-147.84 1574.12,-138.09"/>
<polygon fill="midnightblue" stroke="midnightblue" points="1575.88,-135.03 1565.78,-131.83 1571.68,-140.63 1575.88,-135.03"/>
</g>
<!-- Node36 -->
<g id="node36" class="node">
<title>Node36</title>
<g id="a_node36"><a xlink:title=" ">
<polygon fill="white" stroke="#bfbfbf" points="1626,-112.5 1626,-131.5 1680,-131.5 1680,-112.5 1626,-112.5"/>
<text text-anchor="middle" x="1653" y="-119.5" font-family="Helvetica,sans-Serif" font-size="10.00">istream</text>
</a>
</g>
</g>
<!-- Node35&#45;&gt;Node36 -->
<g id="edge53" class="edge">
<title>Node35&#45;&gt;Node36</title>
<path fill="none" stroke="midnightblue" d="M1630.46,-168.08C1634.15,-160.69 1639.52,-149.95 1644.09,-140.81"/>
<polygon fill="midnightblue" stroke="midnightblue" points="1647.28,-142.26 1648.62,-131.75 1641.02,-139.13 1647.28,-142.26"/>
</g>
<!-- Node37&#45;&gt;Node3 -->
<g id="edge56" class="edge">
<title>Node37&#45;&gt;Node3</title>
<path fill="none" stroke="midnightblue" d="M812.84,-224.43C726.67,-204.23 527.24,-152.3 564,-112 593.24,-79.95 884.55,-70.43 1003.66,-67.86"/>
<polygon fill="midnightblue" stroke="midnightblue" points="1004.03,-71.36 1013.96,-67.65 1003.89,-64.36 1004.03,-71.36"/>
</g>
<!-- Node37&#45;&gt;Node11 -->
<g id="edge58" class="edge">
<title>Node37&#45;&gt;Node11</title>
<path fill="none" stroke="midnightblue" d="M885.86,-224.44C923.92,-215.1 984.96,-200.12 1026.46,-189.93"/>
<polygon fill="midnightblue" stroke="midnightblue" points="1027.43,-193.3 1036.3,-187.52 1025.76,-186.5 1027.43,-193.3"/>
</g>
<!-- Node37&#45;&gt;Node32 -->
<g id="edge57" class="edge">
<title>Node37&#45;&gt;Node32</title>
<path fill="none" stroke="midnightblue" d="M804.7,-226.54C735.58,-216.89 605.21,-198.7 527.32,-187.84"/>
<polygon fill="midnightblue" stroke="midnightblue" points="527.55,-184.33 517.16,-186.42 526.58,-191.27 527.55,-184.33"/>
</g>
</g>
</svg>
