<?xml version="1.0" encoding="UTF-8" standalone="no"?>
<!DOCTYPE svg PUBLIC "-//W3C//DTD SVG 1.1//EN"
 "http://www.w3.org/Graphics/SVG/1.1/DTD/svg11.dtd">
<!-- Generated by graphviz version 2.43.0 (0)
 -->
<!-- Title: mc_orchestrator/json&#45;3.7.3/test/thirdparty/Fuzzer/FuzzerCorpus.h Pages: 1 -->
<svg width="544pt" height="274pt"
 viewBox="0.00 0.00 544.46 274.00" xmlns="http://www.w3.org/2000/svg" xmlns:xlink="http://www.w3.org/1999/xlink">
<g id="graph0" class="graph" transform="scale(1 1) rotate(0) translate(4 270)">
<title>mc_orchestrator/json&#45;3.7.3/test/thirdparty/Fuzzer/FuzzerCorpus.h</title>
<polygon fill="white" stroke="transparent" points="-4,4 -4,-270 540.46,-270 540.46,4 -4,4"/>
<!-- Node1 -->
<g id="node1" class="node">
<title>Node1</title>
<g id="a_node1"><a xlink:title=" ">
<polygon fill="#bfbfbf" stroke="black" points="170.46,-224.5 170.46,-265.5 298.46,-265.5 298.46,-224.5 170.46,-224.5"/>
<text text-anchor="start" x="178.46" y="-253.5" font-family="Helvetica,sans-Serif" font-size="10.00">mc_orchestrator/json</text>
<text text-anchor="start" x="178.46" y="-242.5" font-family="Helvetica,sans-Serif" font-size="10.00">&#45;3.7.3/test/thirdparty</text>
<text text-anchor="middle" x="234.46" y="-231.5" font-family="Helvetica,sans-Serif" font-size="10.00">/Fuzzer/FuzzerCorpus.h</text>
</a>
</g>
</g>
<!-- Node2 -->
<g id="node2" class="node">
<title>Node2</title>
<g id="a_node2"><a xlink:href="FuzzerDefs_8h.html" target="_top" xlink:title=" ">
<polygon fill="white" stroke="black" points="143.46,-56.5 143.46,-75.5 223.46,-75.5 223.46,-56.5 143.46,-56.5"/>
<text text-anchor="middle" x="183.46" y="-63.5" font-family="Helvetica,sans-Serif" font-size="10.00">FuzzerDefs.h</text>
</a>
</g>
</g>
<!-- Node1&#45;&gt;Node2 -->
<g id="edge1" class="edge">
<title>Node1&#45;&gt;Node2</title>
<path fill="none" stroke="midnightblue" d="M170.36,-236.84C110.39,-226.04 26.66,-199.08 3.46,-132 0.56,-123.6 -2.01,-119.01 3.46,-112 19.3,-91.72 85.48,-79.22 133,-72.7"/>
<polygon fill="midnightblue" stroke="midnightblue" points="133.68,-76.14 143.13,-71.36 132.76,-69.2 133.68,-76.14"/>
</g>
<!-- Node9 -->
<g id="node9" class="node">
<title>Node9</title>
<g id="a_node9"><a xlink:href="FuzzerIO_8h.html" target="_top" xlink:title=" ">
<polygon fill="white" stroke="black" points="12.46,-112.5 12.46,-131.5 80.46,-131.5 80.46,-112.5 12.46,-112.5"/>
<text text-anchor="middle" x="46.46" y="-119.5" font-family="Helvetica,sans-Serif" font-size="10.00">FuzzerIO.h</text>
</a>
</g>
</g>
<!-- Node1&#45;&gt;Node9 -->
<g id="edge8" class="edge">
<title>Node1&#45;&gt;Node9</title>
<path fill="none" stroke="midnightblue" d="M170.15,-238.64C133.38,-232.21 89.2,-218.24 61.46,-188 50.1,-175.61 46.8,-156.37 46.07,-142.03"/>
<polygon fill="midnightblue" stroke="midnightblue" points="49.57,-141.76 45.94,-131.81 42.57,-141.85 49.57,-141.76"/>
</g>
<!-- Node10 -->
<g id="node10" class="node">
<title>Node10</title>
<g id="a_node10"><a xlink:href="FuzzerRandom_8h.html" target="_top" xlink:title=" ">
<polygon fill="white" stroke="black" points="70.46,-168.5 70.46,-187.5 168.46,-187.5 168.46,-168.5 70.46,-168.5"/>
<text text-anchor="middle" x="119.46" y="-175.5" font-family="Helvetica,sans-Serif" font-size="10.00">FuzzerRandom.h</text>
</a>
</g>
</g>
<!-- Node1&#45;&gt;Node10 -->
<g id="edge10" class="edge">
<title>Node1&#45;&gt;Node10</title>
<path fill="none" stroke="midnightblue" d="M199.96,-224.5C181.82,-214.24 160.02,-201.93 143.69,-192.69"/>
<polygon fill="midnightblue" stroke="midnightblue" points="145.2,-189.53 134.77,-187.65 141.75,-195.62 145.2,-189.53"/>
</g>
<!-- Node11 -->
<g id="node11" class="node">
<title>Node11</title>
<g id="a_node11"><a xlink:title=" ">
<polygon fill="white" stroke="#bfbfbf" points="98.46,-112.5 98.46,-131.5 152.46,-131.5 152.46,-112.5 98.46,-112.5"/>
<text text-anchor="middle" x="125.46" y="-119.5" font-family="Helvetica,sans-Serif" font-size="10.00">random</text>
</a>
</g>
</g>
<!-- Node1&#45;&gt;Node11 -->
<g id="edge22" class="edge">
<title>Node1&#45;&gt;Node11</title>
<path fill="none" stroke="midnightblue" d="M221.48,-224.37C210.56,-208.46 194.11,-185.85 177.46,-168 167.41,-157.22 154.96,-146.38 144.77,-138.03"/>
<polygon fill="midnightblue" stroke="midnightblue" points="146.82,-135.2 136.83,-131.67 142.44,-140.66 146.82,-135.2"/>
</g>
<!-- Node12 -->
<g id="node12" class="node">
<title>Node12</title>
<g id="a_node12"><a xlink:href="FuzzerSHA1_8h.html" target="_top" xlink:title=" ">
<polygon fill="white" stroke="black" points="396.96,-112.5 396.96,-131.5 479.96,-131.5 479.96,-112.5 396.96,-112.5"/>
<text text-anchor="middle" x="438.46" y="-119.5" font-family="Helvetica,sans-Serif" font-size="10.00">FuzzerSHA1.h</text>
</a>
</g>
</g>
<!-- Node1&#45;&gt;Node12 -->
<g id="edge12" class="edge">
<title>Node1&#45;&gt;Node12</title>
<path fill="none" stroke="midnightblue" d="M267.9,-224.34C286.11,-213.62 309.04,-200.11 329.46,-188 359.15,-170.4 393.31,-150.01 415.36,-136.82"/>
<polygon fill="midnightblue" stroke="midnightblue" points="417.23,-139.78 424.02,-131.65 413.64,-133.77 417.23,-139.78"/>
</g>
<!-- Node14 -->
<g id="node14" class="node">
<title>Node14</title>
<g id="a_node14"><a xlink:href="FuzzerTracePC_8h.html" target="_top" xlink:title=" ">
<polygon fill="white" stroke="black" points="224.46,-168.5 224.46,-187.5 320.46,-187.5 320.46,-168.5 224.46,-168.5"/>
<text text-anchor="middle" x="272.46" y="-175.5" font-family="Helvetica,sans-Serif" font-size="10.00">FuzzerTracePC.h</text>
</a>
</g>
</g>
<!-- Node1&#45;&gt;Node14 -->
<g id="edge16" class="edge">
<title>Node1&#45;&gt;Node14</title>
<path fill="none" stroke="midnightblue" d="M245.86,-224.5C251.07,-215.59 257.2,-205.11 262.25,-196.46"/>
<polygon fill="midnightblue" stroke="midnightblue" points="265.38,-198.05 267.4,-187.65 259.33,-194.52 265.38,-198.05"/>
</g>
<!-- Node17 -->
<g id="node17" class="node">
<title>Node17</title>
<g id="a_node17"><a xlink:title=" ">
<polygon fill="white" stroke="#bfbfbf" points="376.46,-168.5 376.46,-187.5 432.46,-187.5 432.46,-168.5 376.46,-168.5"/>
<text text-anchor="middle" x="404.46" y="-175.5" font-family="Helvetica,sans-Serif" font-size="10.00">numeric</text>
</a>
</g>
</g>
<!-- Node1&#45;&gt;Node17 -->
<g id="edge21" class="edge">
<title>Node1&#45;&gt;Node17</title>
<path fill="none" stroke="midnightblue" d="M285.47,-224.5C313.66,-213.72 347.83,-200.65 372.31,-191.29"/>
<polygon fill="midnightblue" stroke="midnightblue" points="373.74,-194.49 381.83,-187.65 371.24,-187.95 373.74,-194.49"/>
</g>
<!-- Node18 -->
<g id="node18" class="node">
<title>Node18</title>
<g id="a_node18"><a xlink:title=" ">
<polygon fill="white" stroke="#bfbfbf" points="450.46,-168.5 450.46,-187.5 536.46,-187.5 536.46,-168.5 450.46,-168.5"/>
<text text-anchor="middle" x="493.46" y="-175.5" font-family="Helvetica,sans-Serif" font-size="10.00">unordered_set</text>
</a>
</g>
</g>
<!-- Node1&#45;&gt;Node18 -->
<g id="edge23" class="edge">
<title>Node1&#45;&gt;Node18</title>
<path fill="none" stroke="midnightblue" d="M298.48,-227.93C345.54,-216.12 408.24,-200.39 449.68,-189.99"/>
<polygon fill="midnightblue" stroke="midnightblue" points="450.63,-193.36 459.48,-187.53 448.93,-186.57 450.63,-193.36"/>
</g>
<!-- Node3 -->
<g id="node3" class="node">
<title>Node3</title>
<g id="a_node3"><a xlink:title=" ">
<polygon fill="white" stroke="#bfbfbf" points="20.46,-0.5 20.46,-19.5 72.46,-19.5 72.46,-0.5 20.46,-0.5"/>
<text text-anchor="middle" x="46.46" y="-7.5" font-family="Helvetica,sans-Serif" font-size="10.00">cassert</text>
</a>
</g>
</g>
<!-- Node2&#45;&gt;Node3 -->
<g id="edge2" class="edge">
<title>Node2&#45;&gt;Node3</title>
<path fill="none" stroke="midnightblue" d="M161.75,-56.44C139.11,-47.52 103.39,-33.44 77.71,-23.32"/>
<polygon fill="midnightblue" stroke="midnightblue" points="78.65,-19.93 68.07,-19.52 76.09,-26.44 78.65,-19.93"/>
</g>
<!-- Node4 -->
<g id="node4" class="node">
<title>Node4</title>
<g id="a_node4"><a xlink:title=" ">
<polygon fill="white" stroke="#bfbfbf" points="354.96,-0.5 354.96,-19.5 407.96,-19.5 407.96,-0.5 354.96,-0.5"/>
<text text-anchor="middle" x="381.46" y="-7.5" font-family="Helvetica,sans-Serif" font-size="10.00">cstddef</text>
</a>
</g>
</g>
<!-- Node2&#45;&gt;Node4 -->
<g id="edge3" class="edge">
<title>Node2&#45;&gt;Node4</title>
<path fill="none" stroke="midnightblue" d="M214.84,-56.44C250.12,-46.82 307.36,-31.21 344.71,-21.02"/>
<polygon fill="midnightblue" stroke="midnightblue" points="345.95,-24.31 354.68,-18.3 344.11,-17.56 345.95,-24.31"/>
</g>
<!-- Node5 -->
<g id="node5" class="node">
<title>Node5</title>
<g id="a_node5"><a xlink:title=" ">
<polygon fill="white" stroke="#bfbfbf" points="90.46,-0.5 90.46,-19.5 140.46,-19.5 140.46,-0.5 90.46,-0.5"/>
<text text-anchor="middle" x="115.46" y="-7.5" font-family="Helvetica,sans-Serif" font-size="10.00">cstdint</text>
</a>
</g>
</g>
<!-- Node2&#45;&gt;Node5 -->
<g id="edge4" class="edge">
<title>Node2&#45;&gt;Node5</title>
<path fill="none" stroke="midnightblue" d="M172.54,-56.32C162.29,-48.18 146.74,-35.84 134.46,-26.09"/>
<polygon fill="midnightblue" stroke="midnightblue" points="136.59,-23.31 126.59,-19.83 132.24,-28.79 136.59,-23.31"/>
</g>
<!-- Node6 -->
<g id="node6" class="node">
<title>Node6</title>
<g id="a_node6"><a xlink:title=" ">
<polygon fill="white" stroke="#bfbfbf" points="158.46,-0.5 158.46,-19.5 208.46,-19.5 208.46,-0.5 158.46,-0.5"/>
<text text-anchor="middle" x="183.46" y="-7.5" font-family="Helvetica,sans-Serif" font-size="10.00">cstring</text>
</a>
</g>
</g>
<!-- Node2&#45;&gt;Node6 -->
<g id="edge5" class="edge">
<title>Node2&#45;&gt;Node6</title>
<path fill="none" stroke="midnightblue" d="M183.46,-56.08C183.46,-49.01 183.46,-38.86 183.46,-29.99"/>
<polygon fill="midnightblue" stroke="midnightblue" points="186.96,-29.75 183.46,-19.75 179.96,-29.75 186.96,-29.75"/>
</g>
<!-- Node7 -->
<g id="node7" class="node">
<title>Node7</title>
<g id="a_node7"><a xlink:title=" ">
<polygon fill="white" stroke="#bfbfbf" points="226.46,-0.5 226.46,-19.5 270.46,-19.5 270.46,-0.5 226.46,-0.5"/>
<text text-anchor="middle" x="248.46" y="-7.5" font-family="Helvetica,sans-Serif" font-size="10.00">string</text>
</a>
</g>
</g>
<!-- Node2&#45;&gt;Node7 -->
<g id="edge6" class="edge">
<title>Node2&#45;&gt;Node7</title>
<path fill="none" stroke="midnightblue" d="M193.9,-56.32C203.61,-48.26 218.28,-36.08 229.96,-26.37"/>
<polygon fill="midnightblue" stroke="midnightblue" points="232.37,-28.92 237.83,-19.83 227.9,-23.53 232.37,-28.92"/>
</g>
<!-- Node8 -->
<g id="node8" class="node">
<title>Node8</title>
<g id="a_node8"><a xlink:title=" ">
<polygon fill="white" stroke="#bfbfbf" points="288.96,-0.5 288.96,-19.5 335.96,-19.5 335.96,-0.5 288.96,-0.5"/>
<text text-anchor="middle" x="312.46" y="-7.5" font-family="Helvetica,sans-Serif" font-size="10.00">vector</text>
</a>
</g>
</g>
<!-- Node2&#45;&gt;Node8 -->
<g id="edge7" class="edge">
<title>Node2&#45;&gt;Node8</title>
<path fill="none" stroke="midnightblue" d="M203.9,-56.44C225.13,-47.56 258.56,-33.56 282.72,-23.45"/>
<polygon fill="midnightblue" stroke="midnightblue" points="284.24,-26.61 292.12,-19.52 281.54,-20.15 284.24,-26.61"/>
</g>
<!-- Node9&#45;&gt;Node2 -->
<g id="edge9" class="edge">
<title>Node9&#45;&gt;Node2</title>
<path fill="none" stroke="midnightblue" d="M68.17,-112.44C90.82,-103.52 126.53,-89.44 152.21,-79.32"/>
<polygon fill="midnightblue" stroke="midnightblue" points="153.84,-82.44 161.86,-75.52 151.27,-75.93 153.84,-82.44"/>
</g>
<!-- Node10&#45;&gt;Node11 -->
<g id="edge11" class="edge">
<title>Node10&#45;&gt;Node11</title>
<path fill="none" stroke="midnightblue" d="M120.45,-168.08C121.25,-160.93 122.39,-150.64 123.38,-141.69"/>
<polygon fill="midnightblue" stroke="midnightblue" points="126.86,-142.08 124.49,-131.75 119.91,-141.3 126.86,-142.08"/>
</g>
<!-- Node12&#45;&gt;Node2 -->
<g id="edge13" class="edge">
<title>Node12&#45;&gt;Node2</title>
<path fill="none" stroke="midnightblue" d="M398.06,-112.44C353.48,-103 281.69,-87.8 233.57,-77.61"/>
<polygon fill="midnightblue" stroke="midnightblue" points="234.19,-74.16 223.68,-75.52 232.74,-81.01 234.19,-74.16"/>
</g>
<!-- Node12&#45;&gt;Node4 -->
<g id="edge14" class="edge">
<title>Node12&#45;&gt;Node4</title>
<path fill="none" stroke="midnightblue" d="M430.26,-112.32C422.47,-103.68 410.87,-89.77 403.46,-76 395.52,-61.25 389.67,-43.09 386,-29.72"/>
<polygon fill="midnightblue" stroke="midnightblue" points="389.33,-28.6 383.44,-19.79 382.55,-30.35 389.33,-28.6"/>
</g>
<!-- Node13 -->
<g id="node13" class="node">
<title>Node13</title>
<g id="a_node13"><a xlink:title=" ">
<polygon fill="white" stroke="#bfbfbf" points="411.96,-56.5 411.96,-75.5 464.96,-75.5 464.96,-56.5 411.96,-56.5"/>
<text text-anchor="middle" x="438.46" y="-63.5" font-family="Helvetica,sans-Serif" font-size="10.00">stdint.h</text>
</a>
</g>
</g>
<!-- Node12&#45;&gt;Node13 -->
<g id="edge15" class="edge">
<title>Node12&#45;&gt;Node13</title>
<path fill="none" stroke="midnightblue" d="M438.46,-112.08C438.46,-105.01 438.46,-94.86 438.46,-85.99"/>
<polygon fill="midnightblue" stroke="midnightblue" points="441.96,-85.75 438.46,-75.75 434.96,-85.75 441.96,-85.75"/>
</g>
<!-- Node14&#45;&gt;Node2 -->
<g id="edge17" class="edge">
<title>Node14&#45;&gt;Node2</title>
<path fill="none" stroke="midnightblue" d="M250.06,-168.36C233.95,-161.03 212.95,-148.98 200.46,-132 190.64,-118.64 186.48,-100.07 184.73,-86.2"/>
<polygon fill="midnightblue" stroke="midnightblue" points="188.18,-85.49 183.75,-75.87 181.21,-86.15 188.18,-85.49"/>
</g>
<!-- Node15 -->
<g id="node15" class="node">
<title>Node15</title>
<g id="a_node15"><a xlink:href="FuzzerValueBitMap_8h.html" target="_top" xlink:title=" ">
<polygon fill="white" stroke="black" points="208.96,-112.5 208.96,-131.5 327.96,-131.5 327.96,-112.5 208.96,-112.5"/>
<text text-anchor="middle" x="268.46" y="-119.5" font-family="Helvetica,sans-Serif" font-size="10.00">FuzzerValueBitMap.h</text>
</a>
</g>
</g>
<!-- Node14&#45;&gt;Node15 -->
<g id="edge18" class="edge">
<title>Node14&#45;&gt;Node15</title>
<path fill="none" stroke="midnightblue" d="M271.8,-168.08C271.28,-161.01 270.53,-150.86 269.87,-141.99"/>
<polygon fill="midnightblue" stroke="midnightblue" points="273.34,-141.47 269.11,-131.75 266.36,-141.98 273.34,-141.47"/>
</g>
<!-- Node16 -->
<g id="node16" class="node">
<title>Node16</title>
<g id="a_node16"><a xlink:title=" ">
<polygon fill="white" stroke="#bfbfbf" points="346.46,-112.5 346.46,-131.5 378.46,-131.5 378.46,-112.5 346.46,-112.5"/>
<text text-anchor="middle" x="362.46" y="-119.5" font-family="Helvetica,sans-Serif" font-size="10.00">set</text>
</a>
</g>
</g>
<!-- Node14&#45;&gt;Node16 -->
<g id="edge20" class="edge">
<title>Node14&#45;&gt;Node16</title>
<path fill="none" stroke="midnightblue" d="M286.92,-168.32C300.96,-159.9 322.51,-146.97 339,-137.07"/>
<polygon fill="midnightblue" stroke="midnightblue" points="341.26,-139.8 348.04,-131.65 337.66,-133.8 341.26,-139.8"/>
</g>
<!-- Node15&#45;&gt;Node2 -->
<g id="edge19" class="edge">
<title>Node15&#45;&gt;Node2</title>
<path fill="none" stroke="midnightblue" d="M254.8,-112.32C241.55,-103.9 221.19,-90.97 205.62,-81.07"/>
<polygon fill="midnightblue" stroke="midnightblue" points="207.4,-78.06 197.08,-75.65 203.65,-83.97 207.4,-78.06"/>
</g>
</g>
</svg>
