<?xml version="1.0" encoding="UTF-8" standalone="no"?>
<!DOCTYPE svg PUBLIC "-//W3C//DTD SVG 1.1//EN"
 "http://www.w3.org/Graphics/SVG/1.1/DTD/svg11.dtd">
<!-- Generated by graphviz version 2.43.0 (0)
 -->
<!-- Title: TEST Pages: 1 -->
<svg width="317pt" height="39pt"
 viewBox="0.00 0.00 317.00 39.00" xmlns="http://www.w3.org/2000/svg" xmlns:xlink="http://www.w3.org/1999/xlink">
<g id="graph0" class="graph" transform="scale(1 1) rotate(0) translate(4 35)">
<title>TEST</title>
<polygon fill="white" stroke="transparent" points="-4,4 -4,-35 313,-35 313,4 -4,4"/>
<!-- Node1 -->
<g id="node1" class="node">
<title>Node1</title>
<g id="a_node1"><a xlink:title=" ">
<polygon fill="#bfbfbf" stroke="black" points="0,-6 0,-25 41,-25 41,-6 0,-6"/>
<text text-anchor="middle" x="20.5" y="-13" font-family="Helvetica,sans-Serif" font-size="10.00">TEST</text>
</a>
</g>
</g>
<!-- Node2 -->
<g id="node2" class="node">
<title>Node2</title>
<g id="a_node2"><a xlink:href="namespacefuzzer.html#ad59287c2a560adb283485b9a1d783498" target="_top" xlink:title=" ">
<polygon fill="white" stroke="black" points="77,-0.5 77,-30.5 226,-30.5 226,-0.5 77,-0.5"/>
<text text-anchor="start" x="85" y="-18.5" font-family="Helvetica,sans-Serif" font-size="10.00">fuzzer::ParseOneDictionary</text>
<text text-anchor="middle" x="151.5" y="-7.5" font-family="Helvetica,sans-Serif" font-size="10.00">Entry</text>
</a>
</g>
</g>
<!-- Node1&#45;&gt;Node2 -->
<g id="edge1" class="edge">
<title>Node1&#45;&gt;Node2</title>
<path fill="none" stroke="midnightblue" d="M41.09,-15.5C48.42,-15.5 57.27,-15.5 66.74,-15.5"/>
<polygon fill="midnightblue" stroke="midnightblue" points="66.79,-19 76.79,-15.5 66.79,-12 66.79,-19"/>
</g>
<!-- Node3 -->
<g id="node3" class="node">
<title>Node3</title>
<g id="a_node3"><a xlink:href="FuzzerTracePC_8cpp.html#a1f10ac78bd11294b612636121065eb5b" target="_top" xlink:title=" ">
<polygon fill="white" stroke="black" points="262,-6 262,-25 309,-25 309,-6 262,-6"/>
<text text-anchor="middle" x="285.5" y="-13" font-family="Helvetica,sans-Serif" font-size="10.00">assert</text>
</a>
</g>
</g>
<!-- Node2&#45;&gt;Node3 -->
<g id="edge2" class="edge">
<title>Node2&#45;&gt;Node3</title>
<path fill="none" stroke="midnightblue" d="M226.22,-15.5C235.15,-15.5 243.89,-15.5 251.77,-15.5"/>
<polygon fill="midnightblue" stroke="midnightblue" points="251.93,-19 261.93,-15.5 251.93,-12 251.93,-19"/>
</g>
</g>
</svg>
