<?xml version="1.0" encoding="UTF-8" standalone="no"?>
<!DOCTYPE svg PUBLIC "-//W3C//DTD SVG 1.1//EN"
 "http://www.w3.org/Graphics/SVG/1.1/DTD/svg11.dtd">
<!-- Generated by graphviz version 2.43.0 (0)
 -->
<!-- Title: LLVMFuzzerMutate Pages: 1 -->
<svg width="301pt" height="116pt"
 viewBox="0.00 0.00 301.00 116.00" xmlns="http://www.w3.org/2000/svg" xmlns:xlink="http://www.w3.org/1999/xlink">
<g id="graph0" class="graph" transform="scale(1 1) rotate(0) translate(4 112)">
<title>LLVMFuzzerMutate</title>
<polygon fill="white" stroke="transparent" points="-4,4 -4,-112 297,-112 297,4 -4,4"/>
<!-- Node1 -->
<g id="node1" class="node">
<title>Node1</title>
<g id="a_node1"><a xlink:title=" ">
<polygon fill="#bfbfbf" stroke="black" points="0,-44.5 0,-63.5 108,-63.5 108,-44.5 0,-44.5"/>
<text text-anchor="middle" x="54" y="-51.5" font-family="Helvetica,sans-Serif" font-size="10.00">LLVMFuzzerMutate</text>
</a>
</g>
</g>
<!-- Node2 -->
<g id="node2" class="node">
<title>Node2</title>
<g id="a_node2"><a xlink:href="FuzzerTracePC_8cpp.html#a1f10ac78bd11294b612636121065eb5b" target="_top" xlink:title=" ">
<polygon fill="white" stroke="black" points="195,-88.5 195,-107.5 242,-107.5 242,-88.5 195,-88.5"/>
<text text-anchor="middle" x="218.5" y="-95.5" font-family="Helvetica,sans-Serif" font-size="10.00">assert</text>
</a>
</g>
</g>
<!-- Node1&#45;&gt;Node2 -->
<g id="edge1" class="edge">
<title>Node1&#45;&gt;Node2</title>
<path fill="none" stroke="midnightblue" d="M88.34,-63.54C105.03,-68.28 125.56,-74.03 144,-79 157.46,-82.63 172.33,-86.5 185.17,-89.8"/>
<polygon fill="midnightblue" stroke="midnightblue" points="184.39,-93.21 194.95,-92.3 186.13,-86.43 184.39,-93.21"/>
</g>
<!-- Node3 -->
<g id="node3" class="node">
<title>Node3</title>
<g id="a_node3"><a xlink:href="classfuzzer_1_1MutationDispatcher.html#a8c0a901b3167282ed07de767de9ed01f" target="_top" xlink:title=" ">
<polygon fill="white" stroke="black" points="144,-39 144,-69 293,-69 293,-39 144,-39"/>
<text text-anchor="start" x="152" y="-57" font-family="Helvetica,sans-Serif" font-size="10.00">fuzzer::MutationDispatcher</text>
<text text-anchor="middle" x="218.5" y="-46" font-family="Helvetica,sans-Serif" font-size="10.00">::DefaultMutate</text>
</a>
</g>
</g>
<!-- Node1&#45;&gt;Node3 -->
<g id="edge2" class="edge">
<title>Node1&#45;&gt;Node3</title>
<path fill="none" stroke="midnightblue" d="M108.21,-54C116.39,-54 125.01,-54 133.66,-54"/>
<polygon fill="midnightblue" stroke="midnightblue" points="133.82,-57.5 143.82,-54 133.82,-50.5 133.82,-57.5"/>
</g>
<!-- Node4 -->
<g id="node4" class="node">
<title>Node4</title>
<g id="a_node4"><a xlink:href="classfuzzer_1_1Fuzzer.html#a505a66d146838185619375121b9e0f89" target="_top" xlink:title=" ">
<polygon fill="white" stroke="black" points="156.5,-0.5 156.5,-19.5 280.5,-19.5 280.5,-0.5 156.5,-0.5"/>
<text text-anchor="middle" x="218.5" y="-7.5" font-family="Helvetica,sans-Serif" font-size="10.00">fuzzer::Fuzzer::GetMD</text>
</a>
</g>
</g>
<!-- Node1&#45;&gt;Node4 -->
<g id="edge3" class="edge">
<title>Node1&#45;&gt;Node4</title>
<path fill="none" stroke="midnightblue" d="M90.26,-44.45C114.32,-37.94 146.41,-29.25 172.34,-22.23"/>
<polygon fill="midnightblue" stroke="midnightblue" points="173.57,-25.52 182.31,-19.53 171.74,-18.76 173.57,-25.52"/>
</g>
</g>
</svg>
