<?xml version="1.0" encoding="UTF-8" standalone="no"?>
<!DOCTYPE svg PUBLIC "-//W3C//DTD SVG 1.1//EN"
 "http://www.w3.org/Graphics/SVG/1.1/DTD/svg11.dtd">
<!-- Generated by graphviz version 2.43.0 (0)
 -->
<!-- Title: mc_orchestrator/json&#45;3.7.3/test/thirdparty/Fuzzer/FuzzerUtil.h Pages: 1 -->
<svg width="1107pt" height="284pt"
 viewBox="0.00 0.00 1107.00 284.00" xmlns="http://www.w3.org/2000/svg" xmlns:xlink="http://www.w3.org/1999/xlink">
<g id="graph0" class="graph" transform="scale(1 1) rotate(0) translate(4 280)">
<title>mc_orchestrator/json&#45;3.7.3/test/thirdparty/Fuzzer/FuzzerUtil.h</title>
<polygon fill="white" stroke="transparent" points="-4,4 -4,-280 1103,-280 1103,4 -4,4"/>
<!-- Node1 -->
<g id="node1" class="node">
<title>Node1</title>
<g id="a_node1"><a xlink:title=" ">
<polygon fill="#bfbfbf" stroke="black" points="830,-234.5 830,-275.5 949,-275.5 949,-234.5 830,-234.5"/>
<text text-anchor="start" x="838" y="-263.5" font-family="Helvetica,sans-Serif" font-size="10.00">mc_orchestrator/json</text>
<text text-anchor="start" x="838" y="-252.5" font-family="Helvetica,sans-Serif" font-size="10.00">&#45;3.7.3/test/thirdparty</text>
<text text-anchor="middle" x="889.5" y="-241.5" font-family="Helvetica,sans-Serif" font-size="10.00">/Fuzzer/FuzzerUtil.h</text>
</a>
</g>
</g>
<!-- Node2 -->
<g id="node2" class="node">
<title>Node2</title>
<g id="a_node2"><a xlink:href="FuzzerDictionary_8h.html" target="_top" xlink:title=" ">
<polygon fill="white" stroke="black" points="660,-156.5 660,-197.5 803,-197.5 803,-156.5 660,-156.5"/>
<text text-anchor="start" x="668" y="-185.5" font-family="Helvetica,sans-Serif" font-size="10.00">mc_orchestrator/json</text>
<text text-anchor="start" x="668" y="-174.5" font-family="Helvetica,sans-Serif" font-size="10.00">&#45;3.7.3/test/thirdparty</text>
<text text-anchor="middle" x="731.5" y="-163.5" font-family="Helvetica,sans-Serif" font-size="10.00">/Fuzzer/FuzzerDictionary.h</text>
</a>
</g>
</g>
<!-- Node1&#45;&gt;Node2 -->
<g id="edge1" class="edge">
<title>Node1&#45;&gt;Node2</title>
<path fill="none" stroke="midnightblue" d="M839.71,-230.05C817.91,-219.57 792.67,-207.42 772.05,-197.51"/>
<polygon fill="midnightblue" stroke="midnightblue" points="838.28,-233.25 848.81,-234.43 841.32,-226.94 838.28,-233.25"/>
</g>
<!-- Node11 -->
<g id="node11" class="node">
<title>Node11</title>
<g id="a_node11"><a xlink:href="FuzzerMerge_8cpp.html" target="_top" xlink:title=" ">
<polygon fill="white" stroke="black" points="821,-156.5 821,-197.5 958,-197.5 958,-156.5 821,-156.5"/>
<text text-anchor="start" x="829" y="-185.5" font-family="Helvetica,sans-Serif" font-size="10.00">mc_orchestrator/json</text>
<text text-anchor="start" x="829" y="-174.5" font-family="Helvetica,sans-Serif" font-size="10.00">&#45;3.7.3/test/thirdparty</text>
<text text-anchor="middle" x="889.5" y="-163.5" font-family="Helvetica,sans-Serif" font-size="10.00">/Fuzzer/FuzzerMerge.cpp</text>
</a>
</g>
</g>
<!-- Node1&#45;&gt;Node11 -->
<g id="edge12" class="edge">
<title>Node1&#45;&gt;Node11</title>
<path fill="none" stroke="midnightblue" d="M889.5,-224.3C889.5,-215.3 889.5,-205.65 889.5,-197.51"/>
<polygon fill="midnightblue" stroke="midnightblue" points="886,-224.43 889.5,-234.43 893,-224.43 886,-224.43"/>
</g>
<!-- Node12 -->
<g id="node12" class="node">
<title>Node12</title>
<g id="a_node12"><a xlink:href="FuzzerUtil_8cpp.html" target="_top" xlink:title=" ">
<polygon fill="white" stroke="black" points="976,-156.5 976,-197.5 1099,-197.5 1099,-156.5 976,-156.5"/>
<text text-anchor="start" x="984" y="-185.5" font-family="Helvetica,sans-Serif" font-size="10.00">mc_orchestrator/json</text>
<text text-anchor="start" x="984" y="-174.5" font-family="Helvetica,sans-Serif" font-size="10.00">&#45;3.7.3/test/thirdparty</text>
<text text-anchor="middle" x="1037.5" y="-163.5" font-family="Helvetica,sans-Serif" font-size="10.00">/Fuzzer/FuzzerUtil.cpp</text>
</a>
</g>
</g>
<!-- Node1&#45;&gt;Node12 -->
<g id="edge13" class="edge">
<title>Node1&#45;&gt;Node12</title>
<path fill="none" stroke="midnightblue" d="M936.69,-229.77C956.98,-219.35 980.37,-207.34 999.52,-197.51"/>
<polygon fill="midnightblue" stroke="midnightblue" points="934.91,-226.75 927.61,-234.43 938.11,-232.97 934.91,-226.75"/>
</g>
<!-- Node3 -->
<g id="node3" class="node">
<title>Node3</title>
<g id="a_node3"><a xlink:href="FuzzerMutate_8h.html" target="_top" xlink:title=" ">
<polygon fill="white" stroke="black" points="483,-78.5 483,-119.5 612,-119.5 612,-78.5 483,-78.5"/>
<text text-anchor="start" x="491" y="-107.5" font-family="Helvetica,sans-Serif" font-size="10.00">mc_orchestrator/json</text>
<text text-anchor="start" x="491" y="-96.5" font-family="Helvetica,sans-Serif" font-size="10.00">&#45;3.7.3/test/thirdparty</text>
<text text-anchor="middle" x="547.5" y="-85.5" font-family="Helvetica,sans-Serif" font-size="10.00">/Fuzzer/FuzzerMutate.h</text>
</a>
</g>
</g>
<!-- Node2&#45;&gt;Node3 -->
<g id="edge2" class="edge">
<title>Node2&#45;&gt;Node3</title>
<path fill="none" stroke="midnightblue" d="M674.87,-152.61C649.19,-142 619.17,-129.6 594.72,-119.51"/>
<polygon fill="midnightblue" stroke="midnightblue" points="673.54,-155.85 684.12,-156.43 676.21,-149.38 673.54,-155.85"/>
</g>
<!-- Node8 -->
<g id="node8" class="node">
<title>Node8</title>
<g id="a_node8"><a xlink:href="FuzzerTraceState_8cpp.html" target="_top" xlink:title=" ">
<polygon fill="white" stroke="black" points="633.5,-0.5 633.5,-41.5 791.5,-41.5 791.5,-0.5 633.5,-0.5"/>
<text text-anchor="start" x="641.5" y="-29.5" font-family="Helvetica,sans-Serif" font-size="10.00">mc_orchestrator/json</text>
<text text-anchor="start" x="641.5" y="-18.5" font-family="Helvetica,sans-Serif" font-size="10.00">&#45;3.7.3/test/thirdparty</text>
<text text-anchor="middle" x="712.5" y="-7.5" font-family="Helvetica,sans-Serif" font-size="10.00">/Fuzzer/FuzzerTraceState.cpp</text>
</a>
</g>
</g>
<!-- Node2&#45;&gt;Node8 -->
<g id="edge10" class="edge">
<title>Node2&#45;&gt;Node8</title>
<path fill="none" stroke="midnightblue" d="M727.84,-146.36C724.05,-115.61 718.22,-68.36 714.95,-41.83"/>
<polygon fill="midnightblue" stroke="midnightblue" points="724.4,-147 729.09,-156.5 731.34,-146.14 724.4,-147"/>
</g>
<!-- Node9 -->
<g id="node9" class="node">
<title>Node9</title>
<g id="a_node9"><a xlink:href="FuzzerUnittest_8cpp.html" target="_top" xlink:title=" ">
<polygon fill="white" stroke="black" points="809,-0.5 809,-41.5 976,-41.5 976,-0.5 809,-0.5"/>
<text text-anchor="start" x="817" y="-29.5" font-family="Helvetica,sans-Serif" font-size="10.00">mc_orchestrator/json</text>
<text text-anchor="start" x="817" y="-18.5" font-family="Helvetica,sans-Serif" font-size="10.00">&#45;3.7.3/test/thirdparty</text>
<text text-anchor="middle" x="892.5" y="-7.5" font-family="Helvetica,sans-Serif" font-size="10.00">/Fuzzer/test/FuzzerUnittest.cpp</text>
</a>
</g>
</g>
<!-- Node2&#45;&gt;Node9 -->
<g id="edge11" class="edge">
<title>Node2&#45;&gt;Node9</title>
<path fill="none" stroke="midnightblue" d="M737.09,-146.52C742.46,-125.2 752.51,-96.94 770.5,-78 785.75,-61.95 806.48,-50.1 826.52,-41.54"/>
<polygon fill="midnightblue" stroke="midnightblue" points="733.66,-145.82 734.81,-156.35 740.48,-147.4 733.66,-145.82"/>
</g>
<!-- Node10 -->
<g id="node10" class="node">
<title>Node10</title>
<g id="a_node10"><a xlink:href="FuzzerTracePC_8cpp.html" target="_top" xlink:title=" ">
<polygon fill="white" stroke="black" points="779,-78.5 779,-119.5 924,-119.5 924,-78.5 779,-78.5"/>
<text text-anchor="start" x="787" y="-107.5" font-family="Helvetica,sans-Serif" font-size="10.00">mc_orchestrator/json</text>
<text text-anchor="start" x="787" y="-96.5" font-family="Helvetica,sans-Serif" font-size="10.00">&#45;3.7.3/test/thirdparty</text>
<text text-anchor="middle" x="851.5" y="-85.5" font-family="Helvetica,sans-Serif" font-size="10.00">/Fuzzer/FuzzerTracePC.cpp</text>
</a>
</g>
</g>
<!-- Node2&#45;&gt;Node10 -->
<g id="edge9" class="edge">
<title>Node2&#45;&gt;Node10</title>
<path fill="none" stroke="midnightblue" d="M771.1,-150.92C787.23,-140.7 805.6,-129.07 820.7,-119.51"/>
<polygon fill="midnightblue" stroke="midnightblue" points="768.98,-148.12 762.4,-156.43 772.72,-154.03 768.98,-148.12"/>
</g>
<!-- Node4 -->
<g id="node4" class="node">
<title>Node4</title>
<g id="a_node4"><a xlink:href="FuzzerCrossOver_8cpp.html" target="_top" xlink:title=" ">
<polygon fill="white" stroke="black" points="305.5,-0.5 305.5,-41.5 461.5,-41.5 461.5,-0.5 305.5,-0.5"/>
<text text-anchor="start" x="313.5" y="-29.5" font-family="Helvetica,sans-Serif" font-size="10.00">mc_orchestrator/json</text>
<text text-anchor="start" x="313.5" y="-18.5" font-family="Helvetica,sans-Serif" font-size="10.00">&#45;3.7.3/test/thirdparty</text>
<text text-anchor="middle" x="383.5" y="-7.5" font-family="Helvetica,sans-Serif" font-size="10.00">/Fuzzer/FuzzerCrossOver.cpp</text>
</a>
</g>
</g>
<!-- Node3&#45;&gt;Node4 -->
<g id="edge3" class="edge">
<title>Node3&#45;&gt;Node4</title>
<path fill="none" stroke="midnightblue" d="M496.12,-74.19C473.43,-63.67 447.09,-51.47 425.59,-41.51"/>
<polygon fill="midnightblue" stroke="midnightblue" points="494.72,-77.4 505.27,-78.43 497.66,-71.05 494.72,-77.4"/>
</g>
<!-- Node5 -->
<g id="node5" class="node">
<title>Node5</title>
<g id="a_node5"><a xlink:href="FuzzerDriver_8cpp.html" target="_top" xlink:title=" ">
<polygon fill="white" stroke="black" points="479.5,-0.5 479.5,-41.5 615.5,-41.5 615.5,-0.5 479.5,-0.5"/>
<text text-anchor="start" x="487.5" y="-29.5" font-family="Helvetica,sans-Serif" font-size="10.00">mc_orchestrator/json</text>
<text text-anchor="start" x="487.5" y="-18.5" font-family="Helvetica,sans-Serif" font-size="10.00">&#45;3.7.3/test/thirdparty</text>
<text text-anchor="middle" x="547.5" y="-7.5" font-family="Helvetica,sans-Serif" font-size="10.00">/Fuzzer/FuzzerDriver.cpp</text>
</a>
</g>
</g>
<!-- Node3&#45;&gt;Node5 -->
<g id="edge4" class="edge">
<title>Node3&#45;&gt;Node5</title>
<path fill="none" stroke="midnightblue" d="M547.5,-68.3C547.5,-59.3 547.5,-49.65 547.5,-41.51"/>
<polygon fill="midnightblue" stroke="midnightblue" points="544,-68.43 547.5,-78.43 551,-68.43 544,-68.43"/>
</g>
<!-- Node6 -->
<g id="node6" class="node">
<title>Node6</title>
<g id="a_node6"><a xlink:href="FuzzerLoop_8cpp.html" target="_top" xlink:title=" ">
<polygon fill="white" stroke="black" points="0,-0.5 0,-41.5 129,-41.5 129,-0.5 0,-0.5"/>
<text text-anchor="start" x="8" y="-29.5" font-family="Helvetica,sans-Serif" font-size="10.00">mc_orchestrator/json</text>
<text text-anchor="start" x="8" y="-18.5" font-family="Helvetica,sans-Serif" font-size="10.00">&#45;3.7.3/test/thirdparty</text>
<text text-anchor="middle" x="64.5" y="-7.5" font-family="Helvetica,sans-Serif" font-size="10.00">/Fuzzer/FuzzerLoop.cpp</text>
</a>
</g>
</g>
<!-- Node3&#45;&gt;Node6 -->
<g id="edge5" class="edge">
<title>Node3&#45;&gt;Node6</title>
<path fill="none" stroke="midnightblue" d="M472.94,-90.69C390.59,-81.94 254.31,-65.48 138.5,-42 135.5,-41.39 132.44,-40.73 129.36,-40.03"/>
<polygon fill="midnightblue" stroke="midnightblue" points="472.65,-94.18 482.96,-91.74 473.38,-87.22 472.65,-94.18"/>
</g>
<!-- Node7 -->
<g id="node7" class="node">
<title>Node7</title>
<g id="a_node7"><a xlink:href="FuzzerMutate_8cpp.html" target="_top" xlink:title=" ">
<polygon fill="white" stroke="black" points="147.5,-0.5 147.5,-41.5 287.5,-41.5 287.5,-0.5 147.5,-0.5"/>
<text text-anchor="start" x="155.5" y="-29.5" font-family="Helvetica,sans-Serif" font-size="10.00">mc_orchestrator/json</text>
<text text-anchor="start" x="155.5" y="-18.5" font-family="Helvetica,sans-Serif" font-size="10.00">&#45;3.7.3/test/thirdparty</text>
<text text-anchor="middle" x="217.5" y="-7.5" font-family="Helvetica,sans-Serif" font-size="10.00">/Fuzzer/FuzzerMutate.cpp</text>
</a>
</g>
</g>
<!-- Node3&#45;&gt;Node7 -->
<g id="edge6" class="edge">
<title>Node3&#45;&gt;Node7</title>
<path fill="none" stroke="midnightblue" d="M472.82,-81.92C422.84,-71.02 355.62,-56.08 296.5,-42 293.61,-41.31 290.66,-40.6 287.69,-39.88"/>
<polygon fill="midnightblue" stroke="midnightblue" points="472.38,-85.41 482.9,-84.12 473.87,-78.57 472.38,-85.41"/>
</g>
<!-- Node3&#45;&gt;Node8 -->
<g id="edge7" class="edge">
<title>Node3&#45;&gt;Node8</title>
<path fill="none" stroke="midnightblue" d="M599.19,-74.19C622.02,-63.67 648.52,-51.47 670.15,-41.51"/>
<polygon fill="midnightblue" stroke="midnightblue" points="597.61,-71.07 589.99,-78.43 600.54,-77.42 597.61,-71.07"/>
</g>
<!-- Node3&#45;&gt;Node9 -->
<g id="edge8" class="edge">
<title>Node3&#45;&gt;Node9</title>
<path fill="none" stroke="midnightblue" d="M622.42,-81.5C677.38,-69.39 752.05,-52.94 808.95,-40.41"/>
<polygon fill="midnightblue" stroke="midnightblue" points="621.4,-78.14 612.39,-83.7 622.91,-84.97 621.4,-78.14"/>
</g>
</g>
</svg>
