<?xml version="1.0" encoding="UTF-8" standalone="no"?>
<!DOCTYPE svg PUBLIC "-//W3C//DTD SVG 1.1//EN"
 "http://www.w3.org/Graphics/SVG/1.1/DTD/svg11.dtd">
<!-- Generated by graphviz version 2.43.0 (0)
 -->
<!-- Title: TestAddWordFromDictionaryWithHint Pages: 1 -->
<svg width="349pt" height="39pt"
 viewBox="0.00 0.00 349.00 39.00" xmlns="http://www.w3.org/2000/svg" xmlns:xlink="http://www.w3.org/1999/xlink">
<g id="graph0" class="graph" transform="scale(1 1) rotate(0) translate(4 35)">
<title>TestAddWordFromDictionaryWithHint</title>
<polygon fill="white" stroke="transparent" points="-4,4 -4,-35 345,-35 345,4 -4,4"/>
<!-- Node1 -->
<g id="node1" class="node">
<title>Node1</title>
<g id="a_node1"><a xlink:title=" ">
<polygon fill="#bfbfbf" stroke="black" points="0,-0.5 0,-30.5 155,-30.5 155,-0.5 0,-0.5"/>
<text text-anchor="start" x="8" y="-18.5" font-family="Helvetica,sans-Serif" font-size="10.00">TestAddWordFromDictionary</text>
<text text-anchor="middle" x="77.5" y="-7.5" font-family="Helvetica,sans-Serif" font-size="10.00">WithHint</text>
</a>
</g>
</g>
<!-- Node2 -->
<g id="node2" class="node">
<title>Node2</title>
<g id="a_node2"><a xlink:href="classfuzzer_1_1MutationDispatcher.html#a8260971a12fd061d7b5cc0f8d4f2aa50" target="_top" xlink:title=" ">
<polygon fill="white" stroke="black" points="191,-0.5 191,-30.5 341,-30.5 341,-0.5 191,-0.5"/>
<text text-anchor="start" x="199" y="-18.5" font-family="Helvetica,sans-Serif" font-size="10.00">fuzzer::MutationDispatcher</text>
<text text-anchor="middle" x="266" y="-7.5" font-family="Helvetica,sans-Serif" font-size="10.00">::AddWordToAutoDictionary</text>
</a>
</g>
</g>
<!-- Node1&#45;&gt;Node2 -->
<g id="edge1" class="edge">
<title>Node1&#45;&gt;Node2</title>
<path fill="none" stroke="midnightblue" d="M155.16,-15.5C163.52,-15.5 172.06,-15.5 180.51,-15.5"/>
<polygon fill="midnightblue" stroke="midnightblue" points="180.74,-19 190.74,-15.5 180.74,-12 180.74,-19"/>
</g>
</g>
</svg>
