<?xml version="1.0" encoding="UTF-8" standalone="no"?>
<!DOCTYPE svg PUBLIC "-//W3C//DTD SVG 1.1//EN"
 "http://www.w3.org/Graphics/SVG/1.1/DTD/svg11.dtd">
<!-- Generated by graphviz version 2.43.0 (0)
 -->
<!-- Title: mc_orchestrator/json&#45;3.7.3/test/thirdparty/Fuzzer/FuzzerInternal.h Pages: 1 -->
<svg width="950pt" height="128pt"
 viewBox="0.00 0.00 949.50 128.00" xmlns="http://www.w3.org/2000/svg" xmlns:xlink="http://www.w3.org/1999/xlink">
<g id="graph0" class="graph" transform="scale(1 1) rotate(0) translate(4 124)">
<title>mc_orchestrator/json&#45;3.7.3/test/thirdparty/Fuzzer/FuzzerInternal.h</title>
<polygon fill="white" stroke="transparent" points="-4,4 -4,-124 945.5,-124 945.5,4 -4,4"/>
<!-- Node1 -->
<g id="node1" class="node">
<title>Node1</title>
<g id="a_node1"><a xlink:title=" ">
<polygon fill="#bfbfbf" stroke="black" points="387,-78.5 387,-119.5 519,-119.5 519,-78.5 387,-78.5"/>
<text text-anchor="start" x="395" y="-107.5" font-family="Helvetica,sans-Serif" font-size="10.00">mc_orchestrator/json</text>
<text text-anchor="start" x="395" y="-96.5" font-family="Helvetica,sans-Serif" font-size="10.00">&#45;3.7.3/test/thirdparty</text>
<text text-anchor="middle" x="453" y="-85.5" font-family="Helvetica,sans-Serif" font-size="10.00">/Fuzzer/FuzzerInternal.h</text>
</a>
</g>
</g>
<!-- Node2 -->
<g id="node2" class="node">
<title>Node2</title>
<g id="a_node2"><a xlink:href="FuzzerDriver_8cpp.html" target="_top" xlink:title=" ">
<polygon fill="white" stroke="black" points="0,-0.5 0,-41.5 136,-41.5 136,-0.5 0,-0.5"/>
<text text-anchor="start" x="8" y="-29.5" font-family="Helvetica,sans-Serif" font-size="10.00">mc_orchestrator/json</text>
<text text-anchor="start" x="8" y="-18.5" font-family="Helvetica,sans-Serif" font-size="10.00">&#45;3.7.3/test/thirdparty</text>
<text text-anchor="middle" x="68" y="-7.5" font-family="Helvetica,sans-Serif" font-size="10.00">/Fuzzer/FuzzerDriver.cpp</text>
</a>
</g>
</g>
<!-- Node1&#45;&gt;Node2 -->
<g id="edge1" class="edge">
<title>Node1&#45;&gt;Node2</title>
<path fill="none" stroke="midnightblue" d="M376.75,-85.76C314.23,-75.33 223.56,-59.32 145,-42 142.17,-41.38 139.28,-40.72 136.37,-40.04"/>
<polygon fill="midnightblue" stroke="midnightblue" points="376.49,-89.26 386.93,-87.45 377.64,-82.36 376.49,-89.26"/>
</g>
<!-- Node3 -->
<g id="node3" class="node">
<title>Node3</title>
<g id="a_node3"><a xlink:href="FuzzerLoop_8cpp.html" target="_top" xlink:title=" ">
<polygon fill="white" stroke="black" points="154.5,-0.5 154.5,-41.5 283.5,-41.5 283.5,-0.5 154.5,-0.5"/>
<text text-anchor="start" x="162.5" y="-29.5" font-family="Helvetica,sans-Serif" font-size="10.00">mc_orchestrator/json</text>
<text text-anchor="start" x="162.5" y="-18.5" font-family="Helvetica,sans-Serif" font-size="10.00">&#45;3.7.3/test/thirdparty</text>
<text text-anchor="middle" x="219" y="-7.5" font-family="Helvetica,sans-Serif" font-size="10.00">/Fuzzer/FuzzerLoop.cpp</text>
</a>
</g>
</g>
<!-- Node1&#45;&gt;Node3 -->
<g id="edge2" class="edge">
<title>Node1&#45;&gt;Node3</title>
<path fill="none" stroke="midnightblue" d="M383.12,-75.3C350,-64.55 310.82,-51.82 279.06,-41.51"/>
<polygon fill="midnightblue" stroke="midnightblue" points="382.15,-78.67 392.74,-78.43 384.31,-72.01 382.15,-78.67"/>
</g>
<!-- Node4 -->
<g id="node4" class="node">
<title>Node4</title>
<g id="a_node4"><a xlink:href="FuzzerMerge_8cpp.html" target="_top" xlink:title=" ">
<polygon fill="white" stroke="black" points="301.5,-0.5 301.5,-41.5 438.5,-41.5 438.5,-0.5 301.5,-0.5"/>
<text text-anchor="start" x="309.5" y="-29.5" font-family="Helvetica,sans-Serif" font-size="10.00">mc_orchestrator/json</text>
<text text-anchor="start" x="309.5" y="-18.5" font-family="Helvetica,sans-Serif" font-size="10.00">&#45;3.7.3/test/thirdparty</text>
<text text-anchor="middle" x="370" y="-7.5" font-family="Helvetica,sans-Serif" font-size="10.00">/Fuzzer/FuzzerMerge.cpp</text>
</a>
</g>
</g>
<!-- Node1&#45;&gt;Node4 -->
<g id="edge3" class="edge">
<title>Node1&#45;&gt;Node4</title>
<path fill="none" stroke="midnightblue" d="M424.05,-71.49C413.28,-61.63 401.26,-50.63 391.3,-41.51"/>
<polygon fill="midnightblue" stroke="midnightblue" points="421.89,-74.26 431.63,-78.43 426.61,-69.09 421.89,-74.26"/>
</g>
<!-- Node5 -->
<g id="node5" class="node">
<title>Node5</title>
<g id="a_node5"><a xlink:href="FuzzerTraceState_8cpp.html" target="_top" xlink:title=" ">
<polygon fill="white" stroke="black" points="457,-0.5 457,-41.5 615,-41.5 615,-0.5 457,-0.5"/>
<text text-anchor="start" x="465" y="-29.5" font-family="Helvetica,sans-Serif" font-size="10.00">mc_orchestrator/json</text>
<text text-anchor="start" x="465" y="-18.5" font-family="Helvetica,sans-Serif" font-size="10.00">&#45;3.7.3/test/thirdparty</text>
<text text-anchor="middle" x="536" y="-7.5" font-family="Helvetica,sans-Serif" font-size="10.00">/Fuzzer/FuzzerTraceState.cpp</text>
</a>
</g>
</g>
<!-- Node1&#45;&gt;Node5 -->
<g id="edge4" class="edge">
<title>Node1&#45;&gt;Node5</title>
<path fill="none" stroke="midnightblue" d="M481.95,-71.49C492.72,-61.63 504.74,-50.63 514.7,-41.51"/>
<polygon fill="midnightblue" stroke="midnightblue" points="479.39,-69.09 474.37,-78.43 484.11,-74.26 479.39,-69.09"/>
</g>
<!-- Node6 -->
<g id="node6" class="node">
<title>Node6</title>
<g id="a_node6"><a xlink:href="FuzzerUtil_8cpp.html" target="_top" xlink:title=" ">
<polygon fill="white" stroke="black" points="633.5,-0.5 633.5,-41.5 756.5,-41.5 756.5,-0.5 633.5,-0.5"/>
<text text-anchor="start" x="641.5" y="-29.5" font-family="Helvetica,sans-Serif" font-size="10.00">mc_orchestrator/json</text>
<text text-anchor="start" x="641.5" y="-18.5" font-family="Helvetica,sans-Serif" font-size="10.00">&#45;3.7.3/test/thirdparty</text>
<text text-anchor="middle" x="695" y="-7.5" font-family="Helvetica,sans-Serif" font-size="10.00">/Fuzzer/FuzzerUtil.cpp</text>
</a>
</g>
</g>
<!-- Node1&#45;&gt;Node6 -->
<g id="edge5" class="edge">
<title>Node1&#45;&gt;Node6</title>
<path fill="none" stroke="midnightblue" d="M524.87,-75.43C559.35,-64.6 600.25,-51.75 633.31,-41.37"/>
<polygon fill="midnightblue" stroke="midnightblue" points="523.81,-72.09 515.32,-78.43 525.91,-78.77 523.81,-72.09"/>
</g>
<!-- Node7 -->
<g id="node7" class="node">
<title>Node7</title>
<g id="a_node7"><a xlink:href="FuzzerUnittest_8cpp.html" target="_top" xlink:title=" ">
<polygon fill="white" stroke="black" points="774.5,-0.5 774.5,-41.5 941.5,-41.5 941.5,-0.5 774.5,-0.5"/>
<text text-anchor="start" x="782.5" y="-29.5" font-family="Helvetica,sans-Serif" font-size="10.00">mc_orchestrator/json</text>
<text text-anchor="start" x="782.5" y="-18.5" font-family="Helvetica,sans-Serif" font-size="10.00">&#45;3.7.3/test/thirdparty</text>
<text text-anchor="middle" x="858" y="-7.5" font-family="Helvetica,sans-Serif" font-size="10.00">/Fuzzer/test/FuzzerUnittest.cpp</text>
</a>
</g>
</g>
<!-- Node1&#45;&gt;Node7 -->
<g id="edge6" class="edge">
<title>Node1&#45;&gt;Node7</title>
<path fill="none" stroke="midnightblue" d="M529.01,-85.21C592.49,-74.34 685.3,-57.99 766,-42 768.73,-41.46 771.5,-40.9 774.29,-40.34"/>
<polygon fill="midnightblue" stroke="midnightblue" points="528.35,-81.77 519.08,-86.91 529.53,-88.67 528.35,-81.77"/>
</g>
</g>
</svg>
