<?xml version="1.0" encoding="UTF-8" standalone="no"?>
<!DOCTYPE svg PUBLIC "-//W3C//DTD SVG 1.1//EN"
 "http://www.w3.org/Graphics/SVG/1.1/DTD/svg11.dtd">
<!-- Generated by graphviz version 2.43.0 (0)
 -->
<!-- Title: mc_orchestrator/json&#45;3.7.3/include/nlohmann/thirdparty/hedley/hedley_undef.hpp Pages: 1 -->
<svg width="156pt" height="217pt"
 viewBox="0.00 0.00 156.00 217.00" xmlns="http://www.w3.org/2000/svg" xmlns:xlink="http://www.w3.org/1999/xlink">
<g id="graph0" class="graph" transform="scale(1 1) rotate(0) translate(4 213)">
<title>mc_orchestrator/json&#45;3.7.3/include/nlohmann/thirdparty/hedley/hedley_undef.hpp</title>
<polygon fill="white" stroke="transparent" points="-4,4 -4,-213 152,-213 152,4 -4,4"/>
<!-- Node1 -->
<g id="node1" class="node">
<title>Node1</title>
<g id="a_node1"><a xlink:title=" ">
<polygon fill="#bfbfbf" stroke="black" points="4,-156.5 4,-208.5 144,-208.5 144,-156.5 4,-156.5"/>
<text text-anchor="start" x="12" y="-196.5" font-family="Helvetica,sans-Serif" font-size="10.00">mc_orchestrator/json</text>
<text text-anchor="start" x="12" y="-185.5" font-family="Helvetica,sans-Serif" font-size="10.00">&#45;3.7.3/include/nlohmann</text>
<text text-anchor="start" x="12" y="-174.5" font-family="Helvetica,sans-Serif" font-size="10.00">/thirdparty/hedley/hedley</text>
<text text-anchor="middle" x="74" y="-163.5" font-family="Helvetica,sans-Serif" font-size="10.00">_undef.hpp</text>
</a>
</g>
</g>
<!-- Node2 -->
<g id="node2" class="node">
<title>Node2</title>
<g id="a_node2"><a xlink:href="macro__unscope_8hpp.html" target="_top" xlink:title=" ">
<polygon fill="white" stroke="black" points="0,-78.5 0,-119.5 148,-119.5 148,-78.5 0,-78.5"/>
<text text-anchor="start" x="8" y="-107.5" font-family="Helvetica,sans-Serif" font-size="10.00">mc_orchestrator/json</text>
<text text-anchor="start" x="8" y="-96.5" font-family="Helvetica,sans-Serif" font-size="10.00">&#45;3.7.3/include/nlohmann</text>
<text text-anchor="middle" x="74" y="-85.5" font-family="Helvetica,sans-Serif" font-size="10.00">/detail/macro_unscope.hpp</text>
</a>
</g>
</g>
<!-- Node1&#45;&gt;Node2 -->
<g id="edge1" class="edge">
<title>Node1&#45;&gt;Node2</title>
<path fill="none" stroke="midnightblue" d="M74,-146.15C74,-137.05 74,-127.6 74,-119.63"/>
<polygon fill="midnightblue" stroke="midnightblue" points="70.5,-146.16 74,-156.16 77.5,-146.16 70.5,-146.16"/>
</g>
<!-- Node3 -->
<g id="node3" class="node">
<title>Node3</title>
<g id="a_node3"><a xlink:href="include_2nlohmann_2json_8hpp.html" target="_top" xlink:title=" ">
<polygon fill="white" stroke="black" points="7,-0.5 7,-41.5 141,-41.5 141,-0.5 7,-0.5"/>
<text text-anchor="start" x="15" y="-29.5" font-family="Helvetica,sans-Serif" font-size="10.00">mc_orchestrator/json</text>
<text text-anchor="start" x="15" y="-18.5" font-family="Helvetica,sans-Serif" font-size="10.00">&#45;3.7.3/include/nlohmann</text>
<text text-anchor="middle" x="74" y="-7.5" font-family="Helvetica,sans-Serif" font-size="10.00">/json.hpp</text>
</a>
</g>
</g>
<!-- Node2&#45;&gt;Node3 -->
<g id="edge2" class="edge">
<title>Node2&#45;&gt;Node3</title>
<path fill="none" stroke="midnightblue" d="M74,-68.3C74,-59.3 74,-49.65 74,-41.51"/>
<polygon fill="midnightblue" stroke="midnightblue" points="70.5,-68.43 74,-78.43 77.5,-68.43 70.5,-68.43"/>
</g>
</g>
</svg>
