<?xml version="1.0" encoding="UTF-8" standalone="no"?>
<!DOCTYPE svg PUBLIC "-//W3C//DTD SVG 1.1//EN"
 "http://www.w3.org/Graphics/SVG/1.1/DTD/svg11.dtd">
<!-- Generated by graphviz version 2.43.0 (0)
 -->
<!-- Title: Graphical Class Hierarchy Pages: 1 -->
<svg width="307pt" height="1002pt"
 viewBox="0.00 0.00 307.00 1002.00" xmlns="http://www.w3.org/2000/svg" xmlns:xlink="http://www.w3.org/1999/xlink">
<g id="graph0" class="graph" transform="scale(1 1) rotate(0) translate(4 998)">
<title>Graphical Class Hierarchy</title>
<polygon fill="white" stroke="transparent" points="-4,4 -4,-998 303,-998 303,4 -4,4"/>
<!-- Node0 -->
<g id="node1" class="node">
<title>Node0</title>
<g id="a_node1"><a xlink:href="classCommand.html" target="_top" xlink:title=" ">
<polygon fill="white" stroke="black" points="0,-487.5 0,-506.5 67,-506.5 67,-487.5 0,-487.5"/>
<text text-anchor="middle" x="33.5" y="-494.5" font-family="Helvetica,sans-Serif" font-size="10.00">Command</text>
</a>
</g>
</g>
<!-- Node1 -->
<g id="node2" class="node">
<title>Node1</title>
<g id="a_node2"><a xlink:href="classBluechiAvailableCommand.html" target="_top" xlink:title=" ">
<polygon fill="white" stroke="black" points="127,-974.5 127,-993.5 275,-993.5 275,-974.5 127,-974.5"/>
<text text-anchor="middle" x="201" y="-981.5" font-family="Helvetica,sans-Serif" font-size="10.00">BluechiAvailableCommand</text>
</a>
</g>
</g>
<!-- Node0&#45;&gt;Node1 -->
<g id="edge1" class="edge">
<title>Node0&#45;&gt;Node1</title>
<path fill="none" stroke="midnightblue" d="M34.48,-517.03C34.83,-597.92 40.36,-899.28 103,-965 109.51,-971.83 117.7,-976.61 126.55,-979.89"/>
<polygon fill="midnightblue" stroke="midnightblue" points="37.98,-516.74 34.46,-506.75 30.98,-516.76 37.98,-516.74"/>
</g>
<!-- Node2 -->
<g id="node3" class="node">
<title>Node2</title>
<g id="a_node3"><a xlink:href="classBluechiCheckUnitStatusCommand.html" target="_top" xlink:title=" ">
<polygon fill="white" stroke="black" points="109,-936.5 109,-955.5 293,-955.5 293,-936.5 109,-936.5"/>
<text text-anchor="middle" x="201" y="-943.5" font-family="Helvetica,sans-Serif" font-size="10.00">BluechiCheckUnitStatusCommand</text>
</a>
</g>
</g>
<!-- Node0&#45;&gt;Node2 -->
<g id="edge2" class="edge">
<title>Node0&#45;&gt;Node2</title>
<path fill="none" stroke="midnightblue" d="M34.76,-516.86C36.19,-593.3 45.33,-867.24 103,-927 106.58,-930.7 110.64,-933.8 115.04,-936.38"/>
<polygon fill="midnightblue" stroke="midnightblue" points="38.26,-516.65 34.6,-506.7 31.26,-516.76 38.26,-516.65"/>
</g>
<!-- Node3 -->
<g id="node4" class="node">
<title>Node3</title>
<g id="a_node4"><a xlink:href="classBluechiGetUnitNameCommand.html" target="_top" xlink:title=" ">
<polygon fill="white" stroke="black" points="116,-898.5 116,-917.5 286,-917.5 286,-898.5 116,-898.5"/>
<text text-anchor="middle" x="201" y="-905.5" font-family="Helvetica,sans-Serif" font-size="10.00">BluechiGetUnitNameCommand</text>
</a>
</g>
</g>
<!-- Node0&#45;&gt;Node3 -->
<g id="edge3" class="edge">
<title>Node0&#45;&gt;Node3</title>
<path fill="none" stroke="midnightblue" d="M35.1,-516.92C37.7,-589.06 50.33,-835.24 103,-889 106.84,-892.92 111.24,-896.16 116,-898.83"/>
<polygon fill="midnightblue" stroke="midnightblue" points="38.59,-516.43 34.76,-506.55 31.59,-516.66 38.59,-516.43"/>
</g>
<!-- Node4 -->
<g id="node5" class="node">
<title>Node4</title>
<g id="a_node5"><a xlink:href="classBluechiStartAndGetUnitNameCommand.html" target="_top" xlink:title=" ">
<polygon fill="white" stroke="black" points="120.5,-849 120.5,-879 281.5,-879 281.5,-849 120.5,-849"/>
<text text-anchor="start" x="128.5" y="-867" font-family="Helvetica,sans-Serif" font-size="10.00">BluechiStartAndGetUnitName</text>
<text text-anchor="middle" x="201" y="-856" font-family="Helvetica,sans-Serif" font-size="10.00">Command</text>
</a>
</g>
</g>
<!-- Node0&#45;&gt;Node4 -->
<g id="edge4" class="edge">
<title>Node0&#45;&gt;Node4</title>
<path fill="none" stroke="midnightblue" d="M35.76,-516.79C40.33,-582.47 58.23,-791.71 103,-839 107.9,-844.18 113.72,-848.34 120.04,-851.67"/>
<polygon fill="midnightblue" stroke="midnightblue" points="39.24,-516.32 35.08,-506.58 32.25,-516.79 39.24,-516.32"/>
</g>
<!-- Node5 -->
<g id="node6" class="node">
<title>Node5</title>
<g id="a_node6"><a xlink:href="classBluechiStartAsilUnitCommand.html" target="_top" xlink:title=" ">
<polygon fill="white" stroke="black" points="119,-810.5 119,-829.5 283,-829.5 283,-810.5 119,-810.5"/>
<text text-anchor="middle" x="201" y="-817.5" font-family="Helvetica,sans-Serif" font-size="10.00">BluechiStartAsilUnitCommand</text>
</a>
</g>
</g>
<!-- Node0&#45;&gt;Node5 -->
<g id="edge5" class="edge">
<title>Node0&#45;&gt;Node5</title>
<path fill="none" stroke="midnightblue" d="M36.21,-517.04C41.83,-578.23 61.82,-760.97 103,-801 107.68,-805.55 113.1,-809.16 118.95,-812.02"/>
<polygon fill="midnightblue" stroke="midnightblue" points="39.67,-516.44 35.3,-506.79 32.69,-517.06 39.67,-516.44"/>
</g>
<!-- Node6 -->
<g id="node7" class="node">
<title>Node6</title>
<g id="a_node7"><a xlink:href="classBluechiStartQmUnitCommand.html" target="_top" xlink:title=" ">
<polygon fill="white" stroke="black" points="119,-772.5 119,-791.5 283,-791.5 283,-772.5 119,-772.5"/>
<text text-anchor="middle" x="201" y="-779.5" font-family="Helvetica,sans-Serif" font-size="10.00">BluechiStartQmUnitCommand</text>
</a>
</g>
</g>
<!-- Node0&#45;&gt;Node6 -->
<g id="edge6" class="edge">
<title>Node0&#45;&gt;Node6</title>
<path fill="none" stroke="midnightblue" d="M36.86,-516.7C43.91,-572.31 66.65,-728.72 103,-763 107.62,-767.36 112.93,-770.85 118.63,-773.64"/>
<polygon fill="midnightblue" stroke="midnightblue" points="40.32,-516.21 35.62,-506.71 33.37,-517.07 40.32,-516.21"/>
</g>
<!-- Node7 -->
<g id="node8" class="node">
<title>Node7</title>
<g id="a_node8"><a xlink:href="classBluechiStarveUnitCommand.html" target="_top" xlink:title=" ">
<polygon fill="white" stroke="black" points="123.5,-734.5 123.5,-753.5 278.5,-753.5 278.5,-734.5 123.5,-734.5"/>
<text text-anchor="middle" x="201" y="-741.5" font-family="Helvetica,sans-Serif" font-size="10.00">BluechiStarveUnitCommand</text>
</a>
</g>
</g>
<!-- Node0&#45;&gt;Node7 -->
<g id="edge7" class="edge">
<title>Node0&#45;&gt;Node7</title>
<path fill="none" stroke="midnightblue" d="M34.1,-516.63C34.35,-560.97 41.58,-669.34 103,-725 108.85,-730.3 115.73,-734.31 123.08,-737.32"/>
<polygon fill="midnightblue" stroke="midnightblue" points="37.6,-516.6 34.17,-506.58 30.6,-516.56 37.6,-516.6"/>
</g>
<!-- Node8 -->
<g id="node9" class="node">
<title>Node8</title>
<g id="a_node9"><a xlink:href="classBluechiStopAsilUnitCommand.html" target="_top" xlink:title=" ">
<polygon fill="white" stroke="black" points="119.5,-696.5 119.5,-715.5 282.5,-715.5 282.5,-696.5 119.5,-696.5"/>
<text text-anchor="middle" x="201" y="-703.5" font-family="Helvetica,sans-Serif" font-size="10.00">BluechiStopAsilUnitCommand</text>
</a>
</g>
</g>
<!-- Node0&#45;&gt;Node8 -->
<g id="edge8" class="edge">
<title>Node0&#45;&gt;Node8</title>
<path fill="none" stroke="midnightblue" d="M35.49,-516.77C38.55,-555.74 51.17,-642.53 103,-687 107.82,-691.13 113.27,-694.47 119.07,-697.15"/>
<polygon fill="midnightblue" stroke="midnightblue" points="38.97,-516.47 34.83,-506.72 31.99,-516.93 38.97,-516.47"/>
</g>
<!-- Node9 -->
<g id="node10" class="node">
<title>Node9</title>
<g id="a_node10"><a xlink:href="classBluechiStopQmUnitCommand.html" target="_top" xlink:title=" ">
<polygon fill="white" stroke="black" points="120,-658.5 120,-677.5 282,-677.5 282,-658.5 120,-658.5"/>
<text text-anchor="middle" x="201" y="-665.5" font-family="Helvetica,sans-Serif" font-size="10.00">BluechiStopQmUnitCommand</text>
</a>
</g>
</g>
<!-- Node0&#45;&gt;Node9 -->
<g id="edge9" class="edge">
<title>Node0&#45;&gt;Node9</title>
<path fill="none" stroke="midnightblue" d="M37.51,-516.87C43.59,-549.8 60.6,-615.38 103,-649 108.11,-653.05 113.84,-656.32 119.89,-658.95"/>
<polygon fill="midnightblue" stroke="midnightblue" points="40.9,-515.96 35.79,-506.69 34,-517.13 40.9,-515.96"/>
</g>
<!-- Node10 -->
<g id="node11" class="node">
<title>Node10</title>
<g id="a_node11"><a xlink:href="classBluechiUnitUsageCommand.html" target="_top" xlink:title=" ">
<polygon fill="white" stroke="black" points="124,-620.5 124,-639.5 278,-639.5 278,-620.5 124,-620.5"/>
<text text-anchor="middle" x="201" y="-627.5" font-family="Helvetica,sans-Serif" font-size="10.00">BluechiUnitUsageCommand</text>
</a>
</g>
</g>
<!-- Node0&#45;&gt;Node10 -->
<g id="edge10" class="edge">
<title>Node0&#45;&gt;Node10</title>
<path fill="none" stroke="midnightblue" d="M40.52,-516.27C49.66,-542.15 69.59,-587.57 103,-611 109.32,-615.43 116.42,-618.9 123.82,-621.59"/>
<polygon fill="midnightblue" stroke="midnightblue" points="43.75,-514.88 37.26,-506.5 37.11,-517.1 43.75,-514.88"/>
</g>
<!-- Node11 -->
<g id="node12" class="node">
<title>Node11</title>
<g id="a_node12"><a xlink:href="classK3sApplyAndGetPodNameCommand.html" target="_top" xlink:title=" ">
<polygon fill="white" stroke="black" points="103,-582.5 103,-601.5 299,-601.5 299,-582.5 103,-582.5"/>
<text text-anchor="middle" x="201" y="-589.5" font-family="Helvetica,sans-Serif" font-size="10.00">K3sApplyAndGetPodNameCommand</text>
</a>
</g>
</g>
<!-- Node0&#45;&gt;Node11 -->
<g id="edge11" class="edge">
<title>Node0&#45;&gt;Node11</title>
<path fill="none" stroke="midnightblue" d="M46.05,-515.6C58.05,-533.26 78.48,-559.11 103,-573 109.87,-576.89 117.4,-580 125.14,-582.47"/>
<polygon fill="midnightblue" stroke="midnightblue" points="48.68,-513.22 40.28,-506.75 42.82,-517.04 48.68,-513.22"/>
</g>
<!-- Node12 -->
<g id="node13" class="node">
<title>Node12</title>
<g id="a_node13"><a xlink:href="classK3sApplyPodCommand.html" target="_top" xlink:title=" ">
<polygon fill="white" stroke="black" points="135.5,-544.5 135.5,-563.5 266.5,-563.5 266.5,-544.5 135.5,-544.5"/>
<text text-anchor="middle" x="201" y="-551.5" font-family="Helvetica,sans-Serif" font-size="10.00">K3sApplyPodCommand</text>
</a>
</g>
</g>
<!-- Node0&#45;&gt;Node12 -->
<g id="edge12" class="edge">
<title>Node0&#45;&gt;Node12</title>
<path fill="none" stroke="midnightblue" d="M57.24,-511.99C70.18,-519.9 86.96,-529.15 103,-535 113.56,-538.85 125.06,-541.98 136.34,-544.5"/>
<polygon fill="midnightblue" stroke="midnightblue" points="58.9,-508.89 48.57,-506.54 55.17,-514.82 58.9,-508.89"/>
</g>
<!-- Node13 -->
<g id="node14" class="node">
<title>Node13</title>
<g id="a_node14"><a xlink:href="classK3sAvailableCommand.html" target="_top" xlink:title=" ">
<polygon fill="white" stroke="black" points="136,-506.5 136,-525.5 266,-525.5 266,-506.5 136,-506.5"/>
<text text-anchor="middle" x="201" y="-513.5" font-family="Helvetica,sans-Serif" font-size="10.00">K3sAvailableCommand</text>
</a>
</g>
</g>
<!-- Node0&#45;&gt;Node13 -->
<g id="edge13" class="edge">
<title>Node0&#45;&gt;Node13</title>
<path fill="none" stroke="midnightblue" d="M77.29,-501.91C95.13,-503.96 116.24,-506.38 135.87,-508.64"/>
<polygon fill="midnightblue" stroke="midnightblue" points="77.53,-498.42 67.2,-500.75 76.73,-505.37 77.53,-498.42"/>
</g>
<!-- Node14 -->
<g id="node15" class="node">
<title>Node14</title>
<g id="a_node15"><a xlink:href="classK3sCheckPodStatusCommand.html" target="_top" xlink:title=" ">
<polygon fill="white" stroke="black" points="119,-468.5 119,-487.5 283,-487.5 283,-468.5 119,-468.5"/>
<text text-anchor="middle" x="201" y="-475.5" font-family="Helvetica,sans-Serif" font-size="10.00">K3sCheckPodStatusCommand</text>
</a>
</g>
</g>
<!-- Node0&#45;&gt;Node14 -->
<g id="edge14" class="edge">
<title>Node0&#45;&gt;Node14</title>
<path fill="none" stroke="midnightblue" d="M77.42,-492.07C90.1,-490.62 104.42,-488.97 118.68,-487.34"/>
<polygon fill="midnightblue" stroke="midnightblue" points="76.73,-488.63 67.2,-493.25 77.53,-495.58 76.73,-488.63"/>
</g>
<!-- Node15 -->
<g id="node16" class="node">
<title>Node15</title>
<g id="a_node16"><a xlink:href="classK3sDeletePodCommand.html" target="_top" xlink:title=" ">
<polygon fill="white" stroke="black" points="133.5,-430.5 133.5,-449.5 268.5,-449.5 268.5,-430.5 133.5,-430.5"/>
<text text-anchor="middle" x="201" y="-437.5" font-family="Helvetica,sans-Serif" font-size="10.00">K3sDeletePodCommand</text>
</a>
</g>
</g>
<!-- Node0&#45;&gt;Node15 -->
<g id="edge15" class="edge">
<title>Node0&#45;&gt;Node15</title>
<path fill="none" stroke="midnightblue" d="M57.24,-482.01C70.18,-474.1 86.96,-464.85 103,-459 113.56,-455.15 125.06,-452.02 136.34,-449.5"/>
<polygon fill="midnightblue" stroke="midnightblue" points="55.17,-479.18 48.57,-487.46 58.9,-485.11 55.17,-479.18"/>
</g>
<!-- Node16 -->
<g id="node17" class="node">
<title>Node16</title>
<g id="a_node17"><a xlink:href="classK3sGetPodNameCommand.html" target="_top" xlink:title=" ">
<polygon fill="white" stroke="black" points="126.5,-392.5 126.5,-411.5 275.5,-411.5 275.5,-392.5 126.5,-392.5"/>
<text text-anchor="middle" x="201" y="-399.5" font-family="Helvetica,sans-Serif" font-size="10.00">K3sGetPodNameCommand</text>
</a>
</g>
</g>
<!-- Node0&#45;&gt;Node16 -->
<g id="edge16" class="edge">
<title>Node0&#45;&gt;Node16</title>
<path fill="none" stroke="midnightblue" d="M46.05,-478.4C58.05,-460.74 78.48,-434.89 103,-421 110.24,-416.9 118.22,-413.67 126.4,-411.13"/>
<polygon fill="midnightblue" stroke="midnightblue" points="42.82,-476.96 40.28,-487.25 48.68,-480.78 42.82,-476.96"/>
</g>
<!-- Node17 -->
<g id="node18" class="node">
<title>Node17</title>
<g id="a_node18"><a xlink:href="classK3sPodUsageCommand.html" target="_top" xlink:title=" ">
<polygon fill="white" stroke="black" points="134,-354.5 134,-373.5 268,-373.5 268,-354.5 134,-354.5"/>
<text text-anchor="middle" x="201" y="-361.5" font-family="Helvetica,sans-Serif" font-size="10.00">K3sPodUsageCommand</text>
</a>
</g>
</g>
<!-- Node0&#45;&gt;Node17 -->
<g id="edge17" class="edge">
<title>Node0&#45;&gt;Node17</title>
<path fill="none" stroke="midnightblue" d="M40.52,-477.73C49.66,-451.85 69.59,-406.43 103,-383 112.13,-376.6 122.88,-372.22 133.84,-369.25"/>
<polygon fill="midnightblue" stroke="midnightblue" points="37.11,-476.9 37.26,-487.5 43.75,-479.12 37.11,-476.9"/>
</g>
<!-- Node18 -->
<g id="node19" class="node">
<title>Node18</title>
<g id="a_node19"><a xlink:href="classK3sStarvePodCommand.html" target="_top" xlink:title=" ">
<polygon fill="white" stroke="black" points="134,-316.5 134,-335.5 268,-335.5 268,-316.5 134,-316.5"/>
<text text-anchor="middle" x="201" y="-323.5" font-family="Helvetica,sans-Serif" font-size="10.00">K3sStarvePodCommand</text>
</a>
</g>
</g>
<!-- Node0&#45;&gt;Node18 -->
<g id="edge18" class="edge">
<title>Node0&#45;&gt;Node18</title>
<path fill="none" stroke="midnightblue" d="M37.51,-477.13C43.59,-444.2 60.6,-378.62 103,-345 111.94,-337.91 122.78,-333.22 133.93,-330.16"/>
<polygon fill="midnightblue" stroke="midnightblue" points="34,-476.87 35.79,-487.31 40.9,-478.04 34,-476.87"/>
</g>
<!-- Node19 -->
<g id="node20" class="node">
<title>Node19</title>
<g id="a_node20"><a xlink:href="classPodmanApplyAndGetPodNameCommand.html" target="_top" xlink:title=" ">
<polygon fill="white" stroke="black" points="117.5,-267 117.5,-297 284.5,-297 284.5,-267 117.5,-267"/>
<text text-anchor="start" x="125.5" y="-285" font-family="Helvetica,sans-Serif" font-size="10.00">PodmanApplyAndGetPodName</text>
<text text-anchor="middle" x="201" y="-274" font-family="Helvetica,sans-Serif" font-size="10.00">Command</text>
</a>
</g>
</g>
<!-- Node0&#45;&gt;Node19 -->
<g id="edge19" class="edge">
<title>Node0&#45;&gt;Node19</title>
<path fill="none" stroke="midnightblue" d="M35.76,-476.99C39.31,-438.24 52.71,-352.78 103,-307 107.24,-303.14 112.01,-299.85 117.08,-297.07"/>
<polygon fill="midnightblue" stroke="midnightblue" points="32.23,-477.17 34.95,-487.41 39.21,-477.72 32.23,-477.17"/>
</g>
<!-- Node20 -->
<g id="node21" class="node">
<title>Node20</title>
<g id="a_node21"><a xlink:href="classPodmanApplyPodCommand.html" target="_top" xlink:title=" ">
<polygon fill="white" stroke="black" points="125,-228.5 125,-247.5 277,-247.5 277,-228.5 125,-228.5"/>
<text text-anchor="middle" x="201" y="-235.5" font-family="Helvetica,sans-Serif" font-size="10.00">PodmanApplyPodCommand</text>
</a>
</g>
</g>
<!-- Node0&#45;&gt;Node20 -->
<g id="edge20" class="edge">
<title>Node0&#45;&gt;Node20</title>
<path fill="none" stroke="midnightblue" d="M33.82,-477.42C33.38,-431.69 39.09,-317.24 103,-258 109.31,-252.16 116.85,-247.83 124.9,-244.66"/>
<polygon fill="midnightblue" stroke="midnightblue" points="30.32,-477.57 34.03,-487.49 37.32,-477.42 30.32,-477.57"/>
</g>
<!-- Node21 -->
<g id="node22" class="node">
<title>Node21</title>
<g id="a_node22"><a xlink:href="classPodmanAvailableCommand.html" target="_top" xlink:title=" ">
<polygon fill="white" stroke="black" points="125,-190.5 125,-209.5 277,-209.5 277,-190.5 125,-190.5"/>
<text text-anchor="middle" x="201" y="-197.5" font-family="Helvetica,sans-Serif" font-size="10.00">PodmanAvailableCommand</text>
</a>
</g>
</g>
<!-- Node0&#45;&gt;Node21 -->
<g id="edge21" class="edge">
<title>Node0&#45;&gt;Node21</title>
<path fill="none" stroke="midnightblue" d="M36.63,-477.19C43.22,-419.79 65.13,-255.09 103,-219 109.21,-213.08 116.7,-208.75 124.72,-205.61"/>
<polygon fill="midnightblue" stroke="midnightblue" points="33.12,-477.13 35.49,-487.45 40.08,-477.9 33.12,-477.13"/>
</g>
<!-- Node22 -->
<g id="node23" class="node">
<title>Node22</title>
<g id="a_node23"><a xlink:href="classPodmanCheckPodStatusCommand.html" target="_top" xlink:title=" ">
<polygon fill="white" stroke="black" points="108.5,-152.5 108.5,-171.5 293.5,-171.5 293.5,-152.5 108.5,-152.5"/>
<text text-anchor="middle" x="201" y="-159.5" font-family="Helvetica,sans-Serif" font-size="10.00">PodmanCheckPodStatusCommand</text>
</a>
</g>
</g>
<!-- Node0&#45;&gt;Node22 -->
<g id="edge22" class="edge">
<title>Node0&#45;&gt;Node22</title>
<path fill="none" stroke="midnightblue" d="M35.98,-477.41C41.11,-415.07 60.16,-222.99 103,-181 106.8,-177.28 111.1,-174.18 115.73,-171.6"/>
<polygon fill="midnightblue" stroke="midnightblue" points="32.49,-477.22 35.19,-487.47 39.47,-477.78 32.49,-477.22"/>
</g>
<!-- Node23 -->
<g id="node24" class="node">
<title>Node23</title>
<g id="a_node24"><a xlink:href="classPodmanDeletePodCommand.html" target="_top" xlink:title=" ">
<polygon fill="white" stroke="black" points="122.5,-114.5 122.5,-133.5 279.5,-133.5 279.5,-114.5 122.5,-114.5"/>
<text text-anchor="middle" x="201" y="-121.5" font-family="Helvetica,sans-Serif" font-size="10.00">PodmanDeletePodCommand</text>
</a>
</g>
</g>
<!-- Node0&#45;&gt;Node23 -->
<g id="edge23" class="edge">
<title>Node0&#45;&gt;Node23</title>
<path fill="none" stroke="midnightblue" d="M35.5,-477.28C39.31,-409.98 55.25,-190.86 103,-143 108.45,-137.53 114.99,-133.4 122.05,-130.3"/>
<polygon fill="midnightblue" stroke="midnightblue" points="32,-477.2 34.95,-487.38 38.99,-477.58 32,-477.2"/>
</g>
<!-- Node24 -->
<g id="node25" class="node">
<title>Node24</title>
<g id="a_node25"><a xlink:href="classPodmanGetPodNameCommand.html" target="_top" xlink:title=" ">
<polygon fill="white" stroke="black" points="115.5,-76.5 115.5,-95.5 286.5,-95.5 286.5,-76.5 115.5,-76.5"/>
<text text-anchor="middle" x="201" y="-83.5" font-family="Helvetica,sans-Serif" font-size="10.00">PodmanGetPodNameCommand</text>
</a>
</g>
</g>
<!-- Node0&#45;&gt;Node24 -->
<g id="edge24" class="edge">
<title>Node0&#45;&gt;Node24</title>
<path fill="none" stroke="midnightblue" d="M35.1,-477.08C37.7,-404.94 50.33,-158.76 103,-105 106.6,-101.32 110.69,-98.25 115.11,-95.68"/>
<polygon fill="midnightblue" stroke="midnightblue" points="31.59,-477.34 34.76,-487.45 38.59,-477.57 31.59,-477.34"/>
</g>
<!-- Node25 -->
<g id="node26" class="node">
<title>Node25</title>
<g id="a_node26"><a xlink:href="classPodmanPodUsageCommand.html" target="_top" xlink:title=" ">
<polygon fill="white" stroke="black" points="123.5,-38.5 123.5,-57.5 278.5,-57.5 278.5,-38.5 123.5,-38.5"/>
<text text-anchor="middle" x="201" y="-45.5" font-family="Helvetica,sans-Serif" font-size="10.00">PodmanPodUsageCommand</text>
</a>
</g>
</g>
<!-- Node0&#45;&gt;Node25 -->
<g id="edge25" class="edge">
<title>Node0&#45;&gt;Node25</title>
<path fill="none" stroke="midnightblue" d="M34.76,-477.14C36.19,-400.7 45.33,-126.76 103,-67 108.72,-61.07 115.71,-56.7 123.28,-53.51"/>
<polygon fill="midnightblue" stroke="midnightblue" points="31.26,-477.24 34.6,-487.3 38.26,-477.35 31.26,-477.24"/>
</g>
<!-- Node26 -->
<g id="node27" class="node">
<title>Node26</title>
<g id="a_node27"><a xlink:href="classPodmanStarvePodCommand.html" target="_top" xlink:title=" ">
<polygon fill="white" stroke="black" points="123,-0.5 123,-19.5 279,-19.5 279,-0.5 123,-0.5"/>
<text text-anchor="middle" x="201" y="-7.5" font-family="Helvetica,sans-Serif" font-size="10.00">PodmanStarvePodCommand</text>
</a>
</g>
</g>
<!-- Node0&#45;&gt;Node26 -->
<g id="edge26" class="edge">
<title>Node0&#45;&gt;Node26</title>
<path fill="none" stroke="midnightblue" d="M34.48,-476.97C34.83,-396.08 40.36,-94.72 103,-29 108.56,-23.16 115.35,-18.83 122.73,-15.64"/>
<polygon fill="midnightblue" stroke="midnightblue" points="30.98,-477.24 34.46,-487.25 37.98,-477.26 30.98,-477.24"/>
</g>
</g>
</svg>
