<?xml version="1.0" encoding="UTF-8" standalone="no"?>
<!DOCTYPE svg PUBLIC "-//W3C//DTD SVG 1.1//EN"
 "http://www.w3.org/Graphics/SVG/1.1/DTD/svg11.dtd">
<!-- Generated by graphviz version 2.43.0 (0)
 -->
<!-- Title: Graphical Class Hierarchy Pages: 1 -->
<svg width="457pt" height="235pt"
 viewBox="0.00 0.00 457.00 235.00" xmlns="http://www.w3.org/2000/svg" xmlns:xlink="http://www.w3.org/1999/xlink">
<g id="graph0" class="graph" transform="scale(1 1) rotate(0) translate(4 231)">
<title>Graphical Class Hierarchy</title>
<polygon fill="white" stroke="transparent" points="-4,4 -4,-231 453,-231 453,4 -4,4"/>
<!-- Node267 -->
<g id="node1" class="node">
<title>Node267</title>
<g id="a_node1"><a xlink:title="STL class.">
<polygon fill="white" stroke="#bfbfbf" points="0,-104 0,-123 86,-123 86,-104 0,-104"/>
<text text-anchor="middle" x="43" y="-111" font-family="Helvetica,sans-Serif" font-size="10.00">std::exception</text>
</a>
</g>
</g>
<!-- Node0 -->
<g id="node2" class="node">
<title>Node0</title>
<g id="a_node2"><a xlink:href="classnlohmann_1_1detail_1_1exception.html" target="_top" xlink:title="general exception of the basic_json class">
<polygon fill="white" stroke="black" points="122,-104 122,-123 275,-123 275,-104 122,-104"/>
<text text-anchor="middle" x="198.5" y="-111" font-family="Helvetica,sans-Serif" font-size="10.00">nlohmann::detail::exception</text>
</a>
</g>
</g>
<!-- Node267&#45;&gt;Node0 -->
<g id="edge1" class="edge">
<title>Node267&#45;&gt;Node0</title>
<path fill="none" stroke="midnightblue" d="M96.43,-113.5C104.59,-113.5 113.16,-113.5 121.71,-113.5"/>
<polygon fill="midnightblue" stroke="midnightblue" points="96.35,-110 86.35,-113.5 96.35,-117 96.35,-110"/>
</g>
<!-- Node1 -->
<g id="node3" class="node">
<title>Node1</title>
<g id="a_node3"><a xlink:href="classnlohmann_1_1detail_1_1invalid__iterator.html" target="_top" xlink:title="exception indicating errors with iterators">
<polygon fill="white" stroke="black" points="311,-196.5 311,-226.5 449,-226.5 449,-196.5 311,-196.5"/>
<text text-anchor="start" x="319" y="-214.5" font-family="Helvetica,sans-Serif" font-size="10.00">nlohmann::detail::invalid</text>
<text text-anchor="middle" x="380" y="-203.5" font-family="Helvetica,sans-Serif" font-size="10.00">_iterator</text>
</a>
</g>
</g>
<!-- Node0&#45;&gt;Node1 -->
<g id="edge2" class="edge">
<title>Node0&#45;&gt;Node1</title>
<path fill="none" stroke="midnightblue" d="M220.05,-129.4C241.74,-145.62 277.38,-170.73 311,-187.5 317.5,-190.74 324.54,-193.74 331.55,-196.45"/>
<polygon fill="midnightblue" stroke="midnightblue" points="222.01,-126.49 211.92,-123.24 217.78,-132.07 222.01,-126.49"/>
</g>
<!-- Node2 -->
<g id="node4" class="node">
<title>Node2</title>
<g id="a_node4"><a xlink:href="classnlohmann_1_1detail_1_1other__error.html" target="_top" xlink:title="exception indicating other library errors">
<polygon fill="white" stroke="black" points="314.5,-147.5 314.5,-177.5 445.5,-177.5 445.5,-147.5 314.5,-147.5"/>
<text text-anchor="start" x="322.5" y="-165.5" font-family="Helvetica,sans-Serif" font-size="10.00">nlohmann::detail::other</text>
<text text-anchor="middle" x="380" y="-154.5" font-family="Helvetica,sans-Serif" font-size="10.00">_error</text>
</a>
</g>
</g>
<!-- Node0&#45;&gt;Node2 -->
<g id="edge3" class="edge">
<title>Node0&#45;&gt;Node2</title>
<path fill="none" stroke="midnightblue" d="M244.48,-125.78C268.57,-132.35 298.44,-140.51 323.92,-147.46"/>
<polygon fill="midnightblue" stroke="midnightblue" points="245.1,-122.32 234.54,-123.06 243.26,-129.07 245.1,-122.32"/>
</g>
<!-- Node3 -->
<g id="node5" class="node">
<title>Node3</title>
<g id="a_node5"><a xlink:href="classnlohmann_1_1detail_1_1out__of__range.html" target="_top" xlink:title="exception indicating access out of the defined range">
<polygon fill="white" stroke="black" points="319.5,-98.5 319.5,-128.5 440.5,-128.5 440.5,-98.5 319.5,-98.5"/>
<text text-anchor="start" x="327.5" y="-116.5" font-family="Helvetica,sans-Serif" font-size="10.00">nlohmann::detail::out</text>
<text text-anchor="middle" x="380" y="-105.5" font-family="Helvetica,sans-Serif" font-size="10.00">_of_range</text>
</a>
</g>
</g>
<!-- Node0&#45;&gt;Node3 -->
<g id="edge4" class="edge">
<title>Node0&#45;&gt;Node3</title>
<path fill="none" stroke="midnightblue" d="M285.19,-113.5C296.72,-113.5 308.34,-113.5 319.29,-113.5"/>
<polygon fill="midnightblue" stroke="midnightblue" points="285.1,-110 275.1,-113.5 285.1,-117 285.1,-110"/>
</g>
<!-- Node4 -->
<g id="node6" class="node">
<title>Node4</title>
<g id="a_node6"><a xlink:href="classnlohmann_1_1detail_1_1parse__error.html" target="_top" xlink:title="exception indicating a parse error">
<polygon fill="white" stroke="black" points="314,-49.5 314,-79.5 446,-79.5 446,-49.5 314,-49.5"/>
<text text-anchor="start" x="322" y="-67.5" font-family="Helvetica,sans-Serif" font-size="10.00">nlohmann::detail::parse</text>
<text text-anchor="middle" x="380" y="-56.5" font-family="Helvetica,sans-Serif" font-size="10.00">_error</text>
</a>
</g>
</g>
<!-- Node0&#45;&gt;Node4 -->
<g id="edge5" class="edge">
<title>Node0&#45;&gt;Node4</title>
<path fill="none" stroke="midnightblue" d="M244.48,-101.22C268.57,-94.65 298.44,-86.49 323.92,-79.54"/>
<polygon fill="midnightblue" stroke="midnightblue" points="243.26,-97.93 234.54,-103.94 245.1,-104.68 243.26,-97.93"/>
</g>
<!-- Node5 -->
<g id="node7" class="node">
<title>Node5</title>
<g id="a_node7"><a xlink:href="classnlohmann_1_1detail_1_1type__error.html" target="_top" xlink:title="exception indicating executing a member function with a wrong type">
<polygon fill="white" stroke="black" points="316.5,-0.5 316.5,-30.5 443.5,-30.5 443.5,-0.5 316.5,-0.5"/>
<text text-anchor="start" x="324.5" y="-18.5" font-family="Helvetica,sans-Serif" font-size="10.00">nlohmann::detail::type</text>
<text text-anchor="middle" x="380" y="-7.5" font-family="Helvetica,sans-Serif" font-size="10.00">_error</text>
</a>
</g>
</g>
<!-- Node0&#45;&gt;Node5 -->
<g id="edge6" class="edge">
<title>Node0&#45;&gt;Node5</title>
<path fill="none" stroke="midnightblue" d="M220.13,-97.93C241.88,-82.01 277.57,-57.31 311,-40.5 318.08,-36.94 325.79,-33.62 333.4,-30.63"/>
<polygon fill="midnightblue" stroke="midnightblue" points="217.93,-95.2 211.97,-103.96 222.09,-100.83 217.93,-95.2"/>
</g>
</g>
</svg>
