<?xml version="1.0" encoding="UTF-8" standalone="no"?>
<!DOCTYPE svg PUBLIC "-//W3C//DTD SVG 1.1//EN"
 "http://www.w3.org/Graphics/SVG/1.1/DTD/svg11.dtd">
<!-- Generated by graphviz version 2.43.0 (0)
 -->
<!-- Title: Graphical Class Hierarchy Pages: 1 -->
<svg width="377pt" height="104pt"
 viewBox="0.00 0.00 377.00 104.00" xmlns="http://www.w3.org/2000/svg" xmlns:xlink="http://www.w3.org/1999/xlink">
<g id="graph0" class="graph" transform="scale(1 1) rotate(0) translate(4 100)">
<title>Graphical Class Hierarchy</title>
<polygon fill="white" stroke="transparent" points="-4,4 -4,-100 373,-100 373,4 -4,4"/>
<!-- Node0 -->
<g id="node1" class="node">
<title>Node0</title>
<g id="a_node1"><a xlink:href="classbenchmark_1_1BenchmarkReporter.html" target="_top" xlink:title=" ">
<polygon fill="white" stroke="black" points="0,-38.5 0,-57.5 175,-57.5 175,-38.5 0,-38.5"/>
<text text-anchor="middle" x="87.5" y="-45.5" font-family="Helvetica,sans-Serif" font-size="10.00">benchmark::BenchmarkReporter</text>
</a>
</g>
</g>
<!-- Node1 -->
<g id="node2" class="node">
<title>Node1</title>
<g id="a_node2"><a xlink:href="classbenchmark_1_1ConsoleReporter.html" target="_top" xlink:title=" ">
<polygon fill="white" stroke="black" points="211,-76.5 211,-95.5 369,-95.5 369,-76.5 211,-76.5"/>
<text text-anchor="middle" x="290" y="-83.5" font-family="Helvetica,sans-Serif" font-size="10.00">benchmark::ConsoleReporter</text>
</a>
</g>
</g>
<!-- Node0&#45;&gt;Node1 -->
<g id="edge1" class="edge">
<title>Node0&#45;&gt;Node1</title>
<path fill="none" stroke="midnightblue" d="M148.75,-59.42C177.43,-64.86 211.35,-71.28 238.64,-76.46"/>
<polygon fill="midnightblue" stroke="midnightblue" points="149.31,-55.96 138.84,-57.54 148.01,-62.84 149.31,-55.96"/>
</g>
<!-- Node2 -->
<g id="node3" class="node">
<title>Node2</title>
<g id="a_node3"><a xlink:href="classbenchmark_1_1CSVReporter.html" target="_top" xlink:title=" ">
<polygon fill="white" stroke="black" points="220.5,-38.5 220.5,-57.5 359.5,-57.5 359.5,-38.5 220.5,-38.5"/>
<text text-anchor="middle" x="290" y="-45.5" font-family="Helvetica,sans-Serif" font-size="10.00">benchmark::CSVReporter</text>
</a>
</g>
</g>
<!-- Node0&#45;&gt;Node2 -->
<g id="edge2" class="edge">
<title>Node0&#45;&gt;Node2</title>
<path fill="none" stroke="midnightblue" d="M185.54,-48C197.25,-48 209.02,-48 220.21,-48"/>
<polygon fill="midnightblue" stroke="midnightblue" points="185.28,-44.5 175.28,-48 185.28,-51.5 185.28,-44.5"/>
</g>
<!-- Node3 -->
<g id="node4" class="node">
<title>Node3</title>
<g id="a_node4"><a xlink:href="classbenchmark_1_1JSONReporter.html" target="_top" xlink:title=" ">
<polygon fill="white" stroke="black" points="218.5,-0.5 218.5,-19.5 361.5,-19.5 361.5,-0.5 218.5,-0.5"/>
<text text-anchor="middle" x="290" y="-7.5" font-family="Helvetica,sans-Serif" font-size="10.00">benchmark::JSONReporter</text>
</a>
</g>
</g>
<!-- Node0&#45;&gt;Node3 -->
<g id="edge3" class="edge">
<title>Node0&#45;&gt;Node3</title>
<path fill="none" stroke="midnightblue" d="M148.75,-36.58C177.43,-31.14 211.35,-24.72 238.64,-19.54"/>
<polygon fill="midnightblue" stroke="midnightblue" points="148.01,-33.16 138.84,-38.46 149.31,-40.04 148.01,-33.16"/>
</g>
</g>
</svg>
