<?xml version="1.0" encoding="UTF-8" standalone="no"?>
<!DOCTYPE svg PUBLIC "-//W3C//DTD SVG 1.1//EN"
 "http://www.w3.org/Graphics/SVG/1.1/DTD/svg11.dtd">
<!-- Generated by graphviz version 2.43.0 (0)
 -->
<!-- Title: Graphical Class Hierarchy Pages: 1 -->
<svg width="550pt" height="1561pt"
 viewBox="0.00 0.00 550.00 1560.50" xmlns="http://www.w3.org/2000/svg" xmlns:xlink="http://www.w3.org/1999/xlink">
<g id="graph0" class="graph" transform="scale(1 1) rotate(0) translate(4 1556.5)">
<title>Graphical Class Hierarchy</title>
<polygon fill="white" stroke="transparent" points="-4,4 -4,-1556.5 546,-1556.5 546,4 -4,4"/>
<!-- Node223 -->
<g id="node1" class="node">
<title>Node223</title>
<g id="a_node1"><a xlink:title=" ">
<polygon fill="white" stroke="#bfbfbf" points="0,-788.5 0,-807.5 68,-807.5 68,-788.5 0,-788.5"/>
<text text-anchor="middle" x="34" y="-795.5" font-family="Helvetica,sans-Serif" font-size="10.00">false_type</text>
</a>
</g>
</g>
<!-- Node0 -->
<g id="node2" class="node">
<title>Node0</title>
<g id="a_node2"><a xlink:href="structnlohmann_1_1detail_1_1is__compatible__array__type__impl.html" target="_top" xlink:title=" ">
<polygon fill="white" stroke="black" points="108,-1500 108,-1552 294,-1552 294,-1500 108,-1500"/>
<text text-anchor="start" x="116" y="-1540" font-family="Helvetica,sans-Serif" font-size="10.00">nlohmann::detail::is</text>
<text text-anchor="start" x="116" y="-1529" font-family="Helvetica,sans-Serif" font-size="10.00">_compatible_array_type</text>
<text text-anchor="start" x="116" y="-1518" font-family="Helvetica,sans-Serif" font-size="10.00">_impl&lt; BasicJsonType, Compatible</text>
<text text-anchor="middle" x="201" y="-1507" font-family="Helvetica,sans-Serif" font-size="10.00">ArrayType &gt;</text>
</a>
</g>
</g>
<!-- Node223&#45;&gt;Node0 -->
<g id="edge1" class="edge">
<title>Node223&#45;&gt;Node0</title>
<path fill="none" stroke="midnightblue" d="M35.73,-817.8C39.85,-925.34 61.57,-1436.35 104,-1491 106.5,-1494.22 109.33,-1497.15 112.4,-1499.81"/>
<polygon fill="midnightblue" stroke="midnightblue" points="39.22,-817.56 35.35,-807.7 32.23,-817.82 39.22,-817.56"/>
</g>
<!-- Node226 -->
<g id="node4" class="node">
<title>Node226</title>
<g id="a_node4"><a xlink:href="structnlohmann_1_1detail_1_1is__compatible__integer__type__impl.html" target="_top" xlink:title=" ">
<polygon fill="white" stroke="black" points="109.5,-1429 109.5,-1481 292.5,-1481 292.5,-1429 109.5,-1429"/>
<text text-anchor="start" x="117.5" y="-1469" font-family="Helvetica,sans-Serif" font-size="10.00">nlohmann::detail::is</text>
<text text-anchor="start" x="117.5" y="-1458" font-family="Helvetica,sans-Serif" font-size="10.00">_compatible_integer_type</text>
<text text-anchor="start" x="117.5" y="-1447" font-family="Helvetica,sans-Serif" font-size="10.00">_impl&lt; RealIntegerType,</text>
<text text-anchor="middle" x="201" y="-1436" font-family="Helvetica,sans-Serif" font-size="10.00"> CompatibleNumberIntegerType &gt;</text>
</a>
</g>
</g>
<!-- Node223&#45;&gt;Node226 -->
<g id="edge3" class="edge">
<title>Node223&#45;&gt;Node226</title>
<path fill="none" stroke="midnightblue" d="M35.97,-817.95C41.07,-918.99 65.87,-1371.46 104,-1420 106.52,-1423.21 109.36,-1426.12 112.45,-1428.77"/>
<polygon fill="midnightblue" stroke="midnightblue" points="39.46,-817.69 35.47,-807.87 32.47,-818.03 39.46,-817.69"/>
</g>
<!-- Node228 -->
<g id="node6" class="node">
<title>Node228</title>
<g id="a_node6"><a xlink:href="structnlohmann_1_1detail_1_1is__compatible__object__type__impl.html" target="_top" xlink:title=" ">
<polygon fill="white" stroke="black" points="108,-1358 108,-1410 294,-1410 294,-1358 108,-1358"/>
<text text-anchor="start" x="116" y="-1398" font-family="Helvetica,sans-Serif" font-size="10.00">nlohmann::detail::is</text>
<text text-anchor="start" x="116" y="-1387" font-family="Helvetica,sans-Serif" font-size="10.00">_compatible_object_type</text>
<text text-anchor="start" x="116" y="-1376" font-family="Helvetica,sans-Serif" font-size="10.00">_impl&lt; BasicJsonType, Compatible</text>
<text text-anchor="middle" x="201" y="-1365" font-family="Helvetica,sans-Serif" font-size="10.00">ObjectType &gt;</text>
</a>
</g>
</g>
<!-- Node223&#45;&gt;Node228 -->
<g id="edge5" class="edge">
<title>Node223&#45;&gt;Node228</title>
<path fill="none" stroke="midnightblue" d="M34.81,-817.78C34.35,-906.21 36.72,-1264.58 104,-1349 106.54,-1352.19 109.4,-1355.09 112.51,-1357.73"/>
<polygon fill="midnightblue" stroke="midnightblue" points="38.31,-817.58 34.88,-807.55 31.31,-817.53 38.31,-817.58"/>
</g>
<!-- Node230 -->
<g id="node8" class="node">
<title>Node230</title>
<g id="a_node8"><a xlink:href="structnlohmann_1_1detail_1_1is__compatible__string__type__impl.html" target="_top" xlink:title=" ">
<polygon fill="white" stroke="black" points="104,-1287 104,-1339 298,-1339 298,-1287 104,-1287"/>
<text text-anchor="start" x="112" y="-1327" font-family="Helvetica,sans-Serif" font-size="10.00">nlohmann::detail::is</text>
<text text-anchor="start" x="112" y="-1316" font-family="Helvetica,sans-Serif" font-size="10.00">_compatible_string_type</text>
<text text-anchor="start" x="112" y="-1305" font-family="Helvetica,sans-Serif" font-size="10.00">_impl&lt; BasicJsonType, Constructible</text>
<text text-anchor="middle" x="201" y="-1294" font-family="Helvetica,sans-Serif" font-size="10.00">StringType &gt;</text>
</a>
</g>
</g>
<!-- Node223&#45;&gt;Node230 -->
<g id="edge7" class="edge">
<title>Node223&#45;&gt;Node230</title>
<path fill="none" stroke="midnightblue" d="M35.25,-818.22C36.65,-899.9 45.77,-1204.63 104,-1277 106.9,-1280.61 110.2,-1283.85 113.8,-1286.77"/>
<polygon fill="midnightblue" stroke="midnightblue" points="38.74,-817.78 35.09,-807.84 31.75,-817.89 38.74,-817.78"/>
</g>
<!-- Node232 -->
<g id="node10" class="node">
<title>Node232</title>
<g id="a_node10"><a xlink:href="structnlohmann_1_1detail_1_1is__compatible__type__impl.html" target="_top" xlink:title=" ">
<polygon fill="white" stroke="black" points="104.5,-1226.5 104.5,-1267.5 297.5,-1267.5 297.5,-1226.5 104.5,-1226.5"/>
<text text-anchor="start" x="112.5" y="-1255.5" font-family="Helvetica,sans-Serif" font-size="10.00">nlohmann::detail::is</text>
<text text-anchor="start" x="112.5" y="-1244.5" font-family="Helvetica,sans-Serif" font-size="10.00">_compatible_type_impl</text>
<text text-anchor="middle" x="201" y="-1233.5" font-family="Helvetica,sans-Serif" font-size="10.00">&lt; BasicJsonType, CompatibleType &gt;</text>
</a>
</g>
</g>
<!-- Node223&#45;&gt;Node232 -->
<g id="edge9" class="edge">
<title>Node223&#45;&gt;Node232</title>
<path fill="none" stroke="midnightblue" d="M35.6,-818.12C38.22,-893.25 51.09,-1156.13 104,-1217 107.09,-1220.56 110.6,-1223.7 114.4,-1226.47"/>
<polygon fill="midnightblue" stroke="midnightblue" points="39.08,-817.62 35.26,-807.74 32.09,-817.84 39.08,-817.62"/>
</g>
<!-- Node234 -->
<g id="node12" class="node">
<title>Node234</title>
<g id="a_node12"><a xlink:href="structnlohmann_1_1detail_1_1is__constructible__array__type__impl.html" target="_top" xlink:title=" ">
<polygon fill="white" stroke="black" points="124,-1155 124,-1207 278,-1207 278,-1155 124,-1155"/>
<text text-anchor="start" x="132" y="-1195" font-family="Helvetica,sans-Serif" font-size="10.00">nlohmann::detail::is</text>
<text text-anchor="start" x="132" y="-1184" font-family="Helvetica,sans-Serif" font-size="10.00">_constructible_array</text>
<text text-anchor="start" x="132" y="-1173" font-family="Helvetica,sans-Serif" font-size="10.00">_type_impl&lt; BasicJsonType,</text>
<text text-anchor="middle" x="201" y="-1162" font-family="Helvetica,sans-Serif" font-size="10.00"> ConstructibleArrayType &gt;</text>
</a>
</g>
</g>
<!-- Node223&#45;&gt;Node234 -->
<g id="edge11" class="edge">
<title>Node223&#45;&gt;Node234</title>
<path fill="none" stroke="midnightblue" d="M36.42,-817.97C41.52,-884.27 60.9,-1095.7 104,-1146 109.54,-1152.47 116.38,-1157.74 123.83,-1162.04"/>
<polygon fill="midnightblue" stroke="midnightblue" points="39.89,-817.38 35.66,-807.67 32.91,-817.9 39.89,-817.38"/>
</g>
<!-- Node236 -->
<g id="node14" class="node">
<title>Node236</title>
<g id="a_node14"><a xlink:href="structnlohmann_1_1detail_1_1is__constructible__object__type__impl.html" target="_top" xlink:title=" ">
<polygon fill="white" stroke="black" points="124,-1084 124,-1136 278,-1136 278,-1084 124,-1084"/>
<text text-anchor="start" x="132" y="-1124" font-family="Helvetica,sans-Serif" font-size="10.00">nlohmann::detail::is</text>
<text text-anchor="start" x="132" y="-1113" font-family="Helvetica,sans-Serif" font-size="10.00">_constructible_object</text>
<text text-anchor="start" x="132" y="-1102" font-family="Helvetica,sans-Serif" font-size="10.00">_type_impl&lt; BasicJsonType,</text>
<text text-anchor="middle" x="201" y="-1091" font-family="Helvetica,sans-Serif" font-size="10.00"> ConstructibleObjectType &gt;</text>
</a>
</g>
</g>
<!-- Node223&#45;&gt;Node236 -->
<g id="edge13" class="edge">
<title>Node223&#45;&gt;Node236</title>
<path fill="none" stroke="midnightblue" d="M37.54,-817.76C45.15,-874.32 69.47,-1035.3 104,-1074 109.57,-1080.24 116.33,-1085.41 123.66,-1089.68"/>
<polygon fill="midnightblue" stroke="midnightblue" points="40.98,-817.09 36.2,-807.63 34.04,-818 40.98,-817.09"/>
</g>
<!-- Node238 -->
<g id="node16" class="node">
<title>Node238</title>
<g id="a_node16"><a xlink:href="structnlohmann_1_1detail_1_1is__constructible__string__type__impl.html" target="_top" xlink:title=" ">
<polygon fill="white" stroke="black" points="124,-1013 124,-1065 278,-1065 278,-1013 124,-1013"/>
<text text-anchor="start" x="132" y="-1053" font-family="Helvetica,sans-Serif" font-size="10.00">nlohmann::detail::is</text>
<text text-anchor="start" x="132" y="-1042" font-family="Helvetica,sans-Serif" font-size="10.00">_constructible_string</text>
<text text-anchor="start" x="132" y="-1031" font-family="Helvetica,sans-Serif" font-size="10.00">_type_impl&lt; BasicJsonType,</text>
<text text-anchor="middle" x="201" y="-1020" font-family="Helvetica,sans-Serif" font-size="10.00"> ConstructibleStringType &gt;</text>
</a>
</g>
</g>
<!-- Node223&#45;&gt;Node238 -->
<g id="edge15" class="edge">
<title>Node223&#45;&gt;Node238</title>
<path fill="none" stroke="midnightblue" d="M36.16,-817.72C39.56,-857.93 52.82,-950.05 104,-1003 109.69,-1008.89 116.44,-1013.82 123.67,-1017.95"/>
<polygon fill="midnightblue" stroke="midnightblue" points="39.64,-817.34 35.43,-807.62 32.66,-817.85 39.64,-817.34"/>
</g>
<!-- Node240 -->
<g id="node18" class="node">
<title>Node240</title>
<g id="a_node18"><a xlink:href="structnlohmann_1_1detail_1_1has__from__json.html" target="_top" xlink:title=" ">
<polygon fill="white" stroke="black" points="124,-952.5 124,-993.5 278,-993.5 278,-952.5 124,-952.5"/>
<text text-anchor="start" x="132" y="-981.5" font-family="Helvetica,sans-Serif" font-size="10.00">nlohmann::detail::has</text>
<text text-anchor="start" x="132" y="-970.5" font-family="Helvetica,sans-Serif" font-size="10.00">_from_json&lt; BasicJsonType,</text>
<text text-anchor="middle" x="201" y="-959.5" font-family="Helvetica,sans-Serif" font-size="10.00"> T, typename &gt;</text>
</a>
</g>
</g>
<!-- Node223&#45;&gt;Node240 -->
<g id="edge17" class="edge">
<title>Node223&#45;&gt;Node240</title>
<path fill="none" stroke="midnightblue" d="M39.07,-817.8C46.49,-848.95 65.18,-909.31 104,-943 109.93,-948.15 116.75,-952.42 123.95,-955.95"/>
<polygon fill="midnightblue" stroke="midnightblue" points="42.42,-816.74 36.83,-807.75 35.59,-818.27 42.42,-816.74"/>
</g>
<!-- Node241 -->
<g id="node19" class="node">
<title>Node241</title>
<g id="a_node19"><a xlink:href="structnlohmann_1_1detail_1_1has__non__default__from__json.html" target="_top" xlink:title=" ">
<polygon fill="white" stroke="black" points="113,-892.5 113,-933.5 289,-933.5 289,-892.5 113,-892.5"/>
<text text-anchor="start" x="121" y="-921.5" font-family="Helvetica,sans-Serif" font-size="10.00">nlohmann::detail::has</text>
<text text-anchor="start" x="121" y="-910.5" font-family="Helvetica,sans-Serif" font-size="10.00">_non_default_from_json</text>
<text text-anchor="middle" x="201" y="-899.5" font-family="Helvetica,sans-Serif" font-size="10.00">&lt; BasicJsonType, T, typename &gt;</text>
</a>
</g>
</g>
<!-- Node223&#45;&gt;Node241 -->
<g id="edge18" class="edge">
<title>Node223&#45;&gt;Node241</title>
<path fill="none" stroke="midnightblue" d="M45.46,-816.48C57.3,-835.76 78.3,-865.57 104,-883 109.2,-886.53 114.84,-889.66 120.69,-892.43"/>
<polygon fill="midnightblue" stroke="midnightblue" points="48.38,-814.54 40.27,-807.72 42.36,-818.1 48.38,-814.54"/>
</g>
<!-- Node242 -->
<g id="node20" class="node">
<title>Node242</title>
<g id="a_node20"><a xlink:href="structnlohmann_1_1detail_1_1has__to__json.html" target="_top" xlink:title=" ">
<polygon fill="white" stroke="black" points="131,-832.5 131,-873.5 271,-873.5 271,-832.5 131,-832.5"/>
<text text-anchor="start" x="139" y="-861.5" font-family="Helvetica,sans-Serif" font-size="10.00">nlohmann::detail::has</text>
<text text-anchor="start" x="139" y="-850.5" font-family="Helvetica,sans-Serif" font-size="10.00">_to_json&lt; BasicJsonType,</text>
<text text-anchor="middle" x="201" y="-839.5" font-family="Helvetica,sans-Serif" font-size="10.00"> T, typename &gt;</text>
</a>
</g>
</g>
<!-- Node223&#45;&gt;Node242 -->
<g id="edge19" class="edge">
<title>Node223&#45;&gt;Node242</title>
<path fill="none" stroke="midnightblue" d="M71.78,-810.96C82.18,-814.58 93.52,-818.49 104,-822 114.21,-825.42 125.06,-828.99 135.64,-832.44"/>
<polygon fill="midnightblue" stroke="midnightblue" points="72.75,-807.59 62.15,-807.6 70.44,-814.2 72.75,-807.59"/>
</g>
<!-- Node243 -->
<g id="node21" class="node">
<title>Node243</title>
<g id="a_node21"><a xlink:href="structnlohmann_1_1detail_1_1is__basic__json.html" target="_top" xlink:title=" ">
<polygon fill="white" stroke="black" points="128.5,-783 128.5,-813 273.5,-813 273.5,-783 128.5,-783"/>
<text text-anchor="start" x="136.5" y="-801" font-family="Helvetica,sans-Serif" font-size="10.00">nlohmann::detail::is</text>
<text text-anchor="middle" x="201" y="-790" font-family="Helvetica,sans-Serif" font-size="10.00">_basic_json&lt; typename &gt;</text>
</a>
</g>
</g>
<!-- Node223&#45;&gt;Node243 -->
<g id="edge20" class="edge">
<title>Node223&#45;&gt;Node243</title>
<path fill="none" stroke="midnightblue" d="M78.58,-798C93.88,-798 111.51,-798 128.5,-798"/>
<polygon fill="midnightblue" stroke="midnightblue" points="78.39,-794.5 68.39,-798 78.39,-801.5 78.39,-794.5"/>
</g>
<!-- Node244 -->
<g id="node22" class="node">
<title>Node244</title>
<g id="a_node22"><a xlink:href="structnlohmann_1_1detail_1_1is__compatible__array__type__impl.html" target="_top" xlink:title=" ">
<polygon fill="white" stroke="black" points="108,-712 108,-764 294,-764 294,-712 108,-712"/>
<text text-anchor="start" x="116" y="-752" font-family="Helvetica,sans-Serif" font-size="10.00">nlohmann::detail::is</text>
<text text-anchor="start" x="116" y="-741" font-family="Helvetica,sans-Serif" font-size="10.00">_compatible_array_type</text>
<text text-anchor="start" x="116" y="-730" font-family="Helvetica,sans-Serif" font-size="10.00">_impl&lt; BasicJsonType, Compatible</text>
<text text-anchor="middle" x="201" y="-719" font-family="Helvetica,sans-Serif" font-size="10.00">ArrayType, typename &gt;</text>
</a>
</g>
</g>
<!-- Node223&#45;&gt;Node244 -->
<g id="edge21" class="edge">
<title>Node223&#45;&gt;Node244</title>
<path fill="none" stroke="midnightblue" d="M70.62,-785.05C87.54,-778.89 108.41,-771.31 128.4,-764.04"/>
<polygon fill="midnightblue" stroke="midnightblue" points="69.35,-781.79 61.14,-788.49 71.74,-788.36 69.35,-781.79"/>
</g>
<!-- Node245 -->
<g id="node23" class="node">
<title>Node245</title>
<g id="a_node23"><a xlink:href="structnlohmann_1_1detail_1_1is__compatible__integer__type__impl.html" target="_top" xlink:title=" ">
<polygon fill="white" stroke="black" points="113.5,-629.5 113.5,-692.5 288.5,-692.5 288.5,-629.5 113.5,-629.5"/>
<text text-anchor="start" x="121.5" y="-680.5" font-family="Helvetica,sans-Serif" font-size="10.00">nlohmann::detail::is</text>
<text text-anchor="start" x="121.5" y="-669.5" font-family="Helvetica,sans-Serif" font-size="10.00">_compatible_integer_type</text>
<text text-anchor="start" x="121.5" y="-658.5" font-family="Helvetica,sans-Serif" font-size="10.00">_impl&lt; RealIntegerType,</text>
<text text-anchor="start" x="121.5" y="-647.5" font-family="Helvetica,sans-Serif" font-size="10.00"> CompatibleNumberIntegerType,</text>
<text text-anchor="middle" x="201" y="-636.5" font-family="Helvetica,sans-Serif" font-size="10.00"> typename &gt;</text>
</a>
</g>
</g>
<!-- Node223&#45;&gt;Node245 -->
<g id="edge22" class="edge">
<title>Node223&#45;&gt;Node245</title>
<path fill="none" stroke="midnightblue" d="M44.42,-779.21C55.92,-757.95 77.18,-723.5 104,-702 108.1,-698.71 112.51,-695.64 117.09,-692.79"/>
<polygon fill="midnightblue" stroke="midnightblue" points="41.25,-777.73 39.71,-788.22 47.45,-780.98 41.25,-777.73"/>
</g>
<!-- Node246 -->
<g id="node24" class="node">
<title>Node246</title>
<g id="a_node24"><a xlink:href="structnlohmann_1_1detail_1_1is__compatible__object__type__impl.html" target="_top" xlink:title=" ">
<polygon fill="white" stroke="black" points="108,-558 108,-610 294,-610 294,-558 108,-558"/>
<text text-anchor="start" x="116" y="-598" font-family="Helvetica,sans-Serif" font-size="10.00">nlohmann::detail::is</text>
<text text-anchor="start" x="116" y="-587" font-family="Helvetica,sans-Serif" font-size="10.00">_compatible_object_type</text>
<text text-anchor="start" x="116" y="-576" font-family="Helvetica,sans-Serif" font-size="10.00">_impl&lt; BasicJsonType, Compatible</text>
<text text-anchor="middle" x="201" y="-565" font-family="Helvetica,sans-Serif" font-size="10.00">ObjectType, typename &gt;</text>
</a>
</g>
</g>
<!-- Node223&#45;&gt;Node246 -->
<g id="edge23" class="edge">
<title>Node223&#45;&gt;Node246</title>
<path fill="none" stroke="midnightblue" d="M37.36,-778.18C42.68,-741.93 58.92,-664.58 104,-620 107.67,-616.37 111.74,-613.1 116.07,-610.16"/>
<polygon fill="midnightblue" stroke="midnightblue" points="33.84,-778.04 35.99,-788.41 40.78,-778.96 33.84,-778.04"/>
</g>
<!-- Node247 -->
<g id="node25" class="node">
<title>Node247</title>
<g id="a_node25"><a xlink:href="structnlohmann_1_1detail_1_1is__compatible__string__type__impl.html" target="_top" xlink:title=" ">
<polygon fill="white" stroke="black" points="108,-487 108,-539 294,-539 294,-487 108,-487"/>
<text text-anchor="start" x="116" y="-527" font-family="Helvetica,sans-Serif" font-size="10.00">nlohmann::detail::is</text>
<text text-anchor="start" x="116" y="-516" font-family="Helvetica,sans-Serif" font-size="10.00">_compatible_string_type</text>
<text text-anchor="start" x="116" y="-505" font-family="Helvetica,sans-Serif" font-size="10.00">_impl&lt; BasicJsonType, Compatible</text>
<text text-anchor="middle" x="201" y="-494" font-family="Helvetica,sans-Serif" font-size="10.00">StringType, typename &gt;</text>
</a>
</g>
</g>
<!-- Node223&#45;&gt;Node247 -->
<g id="edge24" class="edge">
<title>Node223&#45;&gt;Node247</title>
<path fill="none" stroke="midnightblue" d="M34.68,-778.17C35.03,-731.73 42.35,-614.81 104,-548 107.01,-544.74 110.34,-541.78 113.91,-539.1"/>
<polygon fill="midnightblue" stroke="midnightblue" points="31.18,-778.4 34.72,-788.38 38.18,-778.37 31.18,-778.4"/>
</g>
<!-- Node248 -->
<g id="node26" class="node">
<title>Node248</title>
<g id="a_node26"><a xlink:href="structnlohmann_1_1detail_1_1is__compatible__type__impl.html" target="_top" xlink:title=" ">
<polygon fill="white" stroke="black" points="108.5,-416 108.5,-468 293.5,-468 293.5,-416 108.5,-416"/>
<text text-anchor="start" x="116.5" y="-456" font-family="Helvetica,sans-Serif" font-size="10.00">nlohmann::detail::is</text>
<text text-anchor="start" x="116.5" y="-445" font-family="Helvetica,sans-Serif" font-size="10.00">_compatible_type_impl</text>
<text text-anchor="start" x="116.5" y="-434" font-family="Helvetica,sans-Serif" font-size="10.00">&lt; BasicJsonType, CompatibleType,</text>
<text text-anchor="middle" x="201" y="-423" font-family="Helvetica,sans-Serif" font-size="10.00"> typename &gt;</text>
</a>
</g>
</g>
<!-- Node223&#45;&gt;Node248 -->
<g id="edge25" class="edge">
<title>Node223&#45;&gt;Node248</title>
<path fill="none" stroke="midnightblue" d="M36.75,-778.37C42.7,-715.86 64,-522.93 104,-477 106.8,-473.79 109.91,-470.87 113.26,-468.22"/>
<polygon fill="midnightblue" stroke="midnightblue" points="33.26,-778.17 35.82,-788.45 40.23,-778.82 33.26,-778.17"/>
</g>
<!-- Node249 -->
<g id="node27" class="node">
<title>Node249</title>
<g id="a_node27"><a xlink:href="structnlohmann_1_1detail_1_1is__complete__type.html" target="_top" xlink:title=" ">
<polygon fill="white" stroke="black" points="111.5,-367 111.5,-397 290.5,-397 290.5,-367 111.5,-367"/>
<text text-anchor="start" x="119.5" y="-385" font-family="Helvetica,sans-Serif" font-size="10.00">nlohmann::detail::is</text>
<text text-anchor="middle" x="201" y="-374" font-family="Helvetica,sans-Serif" font-size="10.00">_complete_type&lt; T, typename &gt;</text>
</a>
</g>
</g>
<!-- Node223&#45;&gt;Node249 -->
<g id="edge26" class="edge">
<title>Node223&#45;&gt;Node249</title>
<path fill="none" stroke="midnightblue" d="M35.72,-778.17C38.74,-706.33 52.69,-461.08 104,-406 107.16,-402.61 110.72,-399.66 114.57,-397.11"/>
<polygon fill="midnightblue" stroke="midnightblue" points="32.21,-778.36 35.31,-788.49 39.21,-778.64 32.21,-778.36"/>
</g>
<!-- Node250 -->
<g id="node28" class="node">
<title>Node250</title>
<g id="a_node28"><a xlink:href="structnlohmann_1_1detail_1_1is__constructible__array__type__impl.html" target="_top" xlink:title=" ">
<polygon fill="white" stroke="black" points="124,-284.5 124,-347.5 278,-347.5 278,-284.5 124,-284.5"/>
<text text-anchor="start" x="132" y="-335.5" font-family="Helvetica,sans-Serif" font-size="10.00">nlohmann::detail::is</text>
<text text-anchor="start" x="132" y="-324.5" font-family="Helvetica,sans-Serif" font-size="10.00">_constructible_array</text>
<text text-anchor="start" x="132" y="-313.5" font-family="Helvetica,sans-Serif" font-size="10.00">_type_impl&lt; BasicJsonType,</text>
<text text-anchor="start" x="132" y="-302.5" font-family="Helvetica,sans-Serif" font-size="10.00"> ConstructibleArrayType,</text>
<text text-anchor="middle" x="201" y="-291.5" font-family="Helvetica,sans-Serif" font-size="10.00"> typename &gt;</text>
</a>
</g>
</g>
<!-- Node223&#45;&gt;Node250 -->
<g id="edge27" class="edge">
<title>Node223&#45;&gt;Node250</title>
<path fill="none" stroke="midnightblue" d="M35.61,-777.99C38.35,-700.91 51.72,-424.19 104,-357 109.45,-349.99 116.34,-344.16 123.9,-339.32"/>
<polygon fill="midnightblue" stroke="midnightblue" points="32.11,-778.11 35.27,-788.23 39.1,-778.35 32.11,-778.11"/>
</g>
<!-- Node251 -->
<g id="node29" class="node">
<title>Node251</title>
<g id="a_node29"><a xlink:href="structnlohmann_1_1detail_1_1is__constructible__object__type__impl.html" target="_top" xlink:title=" ">
<polygon fill="white" stroke="black" points="124,-202.5 124,-265.5 278,-265.5 278,-202.5 124,-202.5"/>
<text text-anchor="start" x="132" y="-253.5" font-family="Helvetica,sans-Serif" font-size="10.00">nlohmann::detail::is</text>
<text text-anchor="start" x="132" y="-242.5" font-family="Helvetica,sans-Serif" font-size="10.00">_constructible_object</text>
<text text-anchor="start" x="132" y="-231.5" font-family="Helvetica,sans-Serif" font-size="10.00">_type_impl&lt; BasicJsonType,</text>
<text text-anchor="start" x="132" y="-220.5" font-family="Helvetica,sans-Serif" font-size="10.00"> ConstructibleObjectType,</text>
<text text-anchor="middle" x="201" y="-209.5" font-family="Helvetica,sans-Serif" font-size="10.00"> typename &gt;</text>
</a>
</g>
</g>
<!-- Node223&#45;&gt;Node251 -->
<g id="edge28" class="edge">
<title>Node223&#45;&gt;Node251</title>
<path fill="none" stroke="midnightblue" d="M35.07,-777.95C35.74,-692.1 42.33,-356.26 104,-275 109.37,-267.93 116.2,-262.06 123.73,-257.19"/>
<polygon fill="midnightblue" stroke="midnightblue" points="31.57,-778.13 35.01,-788.15 38.57,-778.17 31.57,-778.13"/>
</g>
<!-- Node252 -->
<g id="node30" class="node">
<title>Node252</title>
<g id="a_node30"><a xlink:href="structnlohmann_1_1detail_1_1is__constructible__string__type__impl.html" target="_top" xlink:title=" ">
<polygon fill="white" stroke="black" points="124,-120.5 124,-183.5 278,-183.5 278,-120.5 124,-120.5"/>
<text text-anchor="start" x="132" y="-171.5" font-family="Helvetica,sans-Serif" font-size="10.00">nlohmann::detail::is</text>
<text text-anchor="start" x="132" y="-160.5" font-family="Helvetica,sans-Serif" font-size="10.00">_constructible_string</text>
<text text-anchor="start" x="132" y="-149.5" font-family="Helvetica,sans-Serif" font-size="10.00">_type_impl&lt; BasicJsonType,</text>
<text text-anchor="start" x="132" y="-138.5" font-family="Helvetica,sans-Serif" font-size="10.00"> ConstructibleStringType,</text>
<text text-anchor="middle" x="201" y="-127.5" font-family="Helvetica,sans-Serif" font-size="10.00"> typename &gt;</text>
</a>
</g>
</g>
<!-- Node223&#45;&gt;Node252 -->
<g id="edge29" class="edge">
<title>Node223&#45;&gt;Node252</title>
<path fill="none" stroke="midnightblue" d="M34.67,-778.47C33.49,-685.52 32.75,-288.62 104,-193 109.31,-185.88 116.1,-179.98 123.61,-175.1"/>
<polygon fill="midnightblue" stroke="midnightblue" points="31.17,-778.52 34.82,-788.47 38.17,-778.42 31.17,-778.52"/>
</g>
<!-- Node253 -->
<g id="node31" class="node">
<title>Node253</title>
<g id="a_node31"><a xlink:href="structnlohmann_1_1detail_1_1is__constructible__tuple.html" target="_top" xlink:title=" ">
<polygon fill="white" stroke="black" points="143.5,-60.5 143.5,-101.5 258.5,-101.5 258.5,-60.5 143.5,-60.5"/>
<text text-anchor="start" x="151.5" y="-89.5" font-family="Helvetica,sans-Serif" font-size="10.00">nlohmann::detail::is</text>
<text text-anchor="start" x="151.5" y="-78.5" font-family="Helvetica,sans-Serif" font-size="10.00">_constructible_tuple</text>
<text text-anchor="middle" x="201" y="-67.5" font-family="Helvetica,sans-Serif" font-size="10.00">&lt; T1, T2 &gt;</text>
</a>
</g>
</g>
<!-- Node223&#45;&gt;Node253 -->
<g id="edge30" class="edge">
<title>Node223&#45;&gt;Node253</title>
<path fill="none" stroke="midnightblue" d="M35.7,-778.33C39.66,-671.54 60.65,-164.17 104,-111 113.82,-98.96 128.42,-91.66 143.28,-87.27"/>
<polygon fill="midnightblue" stroke="midnightblue" points="32.2,-778.25 35.33,-788.37 39.19,-778.5 32.2,-778.25"/>
</g>
<!-- Node254 -->
<g id="node32" class="node">
<title>Node254</title>
<g id="a_node32"><a xlink:href="structnlohmann_1_1detail_1_1is__iterator__traits.html" target="_top" xlink:title=" ">
<polygon fill="white" stroke="black" points="144.5,-0.5 144.5,-41.5 257.5,-41.5 257.5,-0.5 144.5,-0.5"/>
<text text-anchor="start" x="152.5" y="-29.5" font-family="Helvetica,sans-Serif" font-size="10.00">nlohmann::detail::is</text>
<text text-anchor="start" x="152.5" y="-18.5" font-family="Helvetica,sans-Serif" font-size="10.00">_iterator_traits&lt; T,</text>
<text text-anchor="middle" x="201" y="-7.5" font-family="Helvetica,sans-Serif" font-size="10.00"> typename &gt;</text>
</a>
</g>
</g>
<!-- Node223&#45;&gt;Node254 -->
<g id="edge31" class="edge">
<title>Node223&#45;&gt;Node254</title>
<path fill="none" stroke="midnightblue" d="M35.54,-778.05C38.76,-665.15 56.94,-109.2 104,-51 114.05,-38.58 129.18,-31.2 144.47,-26.85"/>
<polygon fill="midnightblue" stroke="midnightblue" points="32.03,-778.24 35.25,-788.33 39.03,-778.44 32.03,-778.24"/>
</g>
<!-- Node1 -->
<g id="node3" class="node">
<title>Node1</title>
<g id="a_node3"><a xlink:href="structnlohmann_1_1detail_1_1is__compatible__array__type.html" target="_top" xlink:title=" ">
<polygon fill="white" stroke="black" points="345.5,-1500 345.5,-1552 530.5,-1552 530.5,-1500 345.5,-1500"/>
<text text-anchor="start" x="353.5" y="-1540" font-family="Helvetica,sans-Serif" font-size="10.00">nlohmann::detail::is</text>
<text text-anchor="start" x="353.5" y="-1529" font-family="Helvetica,sans-Serif" font-size="10.00">_compatible_array_type</text>
<text text-anchor="start" x="353.5" y="-1518" font-family="Helvetica,sans-Serif" font-size="10.00">&lt; BasicJsonType, CompatibleArray</text>
<text text-anchor="middle" x="438" y="-1507" font-family="Helvetica,sans-Serif" font-size="10.00">Type &gt;</text>
</a>
</g>
</g>
<!-- Node0&#45;&gt;Node1 -->
<g id="edge2" class="edge">
<title>Node0&#45;&gt;Node1</title>
<path fill="none" stroke="midnightblue" d="M304.55,-1526C318.16,-1526 332.04,-1526 345.45,-1526"/>
<polygon fill="midnightblue" stroke="midnightblue" points="304.2,-1522.5 294.2,-1526 304.2,-1529.5 304.2,-1522.5"/>
</g>
<!-- Node227 -->
<g id="node5" class="node">
<title>Node227</title>
<g id="a_node5"><a xlink:href="structnlohmann_1_1detail_1_1is__compatible__integer__type.html" target="_top" xlink:title=" ">
<polygon fill="white" stroke="black" points="334,-1429 334,-1481 542,-1481 542,-1429 334,-1429"/>
<text text-anchor="start" x="342" y="-1469" font-family="Helvetica,sans-Serif" font-size="10.00">nlohmann::detail::is</text>
<text text-anchor="start" x="342" y="-1458" font-family="Helvetica,sans-Serif" font-size="10.00">_compatible_integer_type</text>
<text text-anchor="start" x="342" y="-1447" font-family="Helvetica,sans-Serif" font-size="10.00">&lt; RealIntegerType, CompatibleNumber</text>
<text text-anchor="middle" x="438" y="-1436" font-family="Helvetica,sans-Serif" font-size="10.00">IntegerType &gt;</text>
</a>
</g>
</g>
<!-- Node226&#45;&gt;Node227 -->
<g id="edge4" class="edge">
<title>Node226&#45;&gt;Node227</title>
<path fill="none" stroke="midnightblue" d="M302.79,-1455C313.12,-1455 323.63,-1455 333.99,-1455"/>
<polygon fill="midnightblue" stroke="midnightblue" points="302.52,-1451.5 292.52,-1455 302.52,-1458.5 302.52,-1451.5"/>
</g>
<!-- Node229 -->
<g id="node7" class="node">
<title>Node229</title>
<g id="a_node7"><a xlink:href="structnlohmann_1_1detail_1_1is__compatible__object__type.html" target="_top" xlink:title=" ">
<polygon fill="white" stroke="black" points="342.5,-1358 342.5,-1410 533.5,-1410 533.5,-1358 342.5,-1358"/>
<text text-anchor="start" x="350.5" y="-1398" font-family="Helvetica,sans-Serif" font-size="10.00">nlohmann::detail::is</text>
<text text-anchor="start" x="350.5" y="-1387" font-family="Helvetica,sans-Serif" font-size="10.00">_compatible_object_type</text>
<text text-anchor="start" x="350.5" y="-1376" font-family="Helvetica,sans-Serif" font-size="10.00">&lt; BasicJsonType, CompatibleObject</text>
<text text-anchor="middle" x="438" y="-1365" font-family="Helvetica,sans-Serif" font-size="10.00">Type &gt;</text>
</a>
</g>
</g>
<!-- Node228&#45;&gt;Node229 -->
<g id="edge6" class="edge">
<title>Node228&#45;&gt;Node229</title>
<path fill="none" stroke="midnightblue" d="M304.29,-1384C316.94,-1384 329.83,-1384 342.36,-1384"/>
<polygon fill="midnightblue" stroke="midnightblue" points="304.2,-1380.5 294.2,-1384 304.2,-1387.5 304.2,-1380.5"/>
</g>
<!-- Node231 -->
<g id="node9" class="node">
<title>Node231</title>
<g id="a_node9"><a xlink:href="structnlohmann_1_1detail_1_1is__compatible__string__type.html" target="_top" xlink:title=" ">
<polygon fill="white" stroke="black" points="354.5,-1287 354.5,-1339 521.5,-1339 521.5,-1287 354.5,-1287"/>
<text text-anchor="start" x="362.5" y="-1327" font-family="Helvetica,sans-Serif" font-size="10.00">nlohmann::detail::is</text>
<text text-anchor="start" x="362.5" y="-1316" font-family="Helvetica,sans-Serif" font-size="10.00">_compatible_string_type</text>
<text text-anchor="start" x="362.5" y="-1305" font-family="Helvetica,sans-Serif" font-size="10.00">&lt; BasicJsonType, Constructible</text>
<text text-anchor="middle" x="438" y="-1294" font-family="Helvetica,sans-Serif" font-size="10.00">StringType &gt;</text>
</a>
</g>
</g>
<!-- Node230&#45;&gt;Node231 -->
<g id="edge8" class="edge">
<title>Node230&#45;&gt;Node231</title>
<path fill="none" stroke="midnightblue" d="M308.37,-1313C323.82,-1313 339.53,-1313 354.41,-1313"/>
<polygon fill="midnightblue" stroke="midnightblue" points="308.26,-1309.5 298.26,-1313 308.26,-1316.5 308.26,-1309.5"/>
</g>
<!-- Node233 -->
<g id="node11" class="node">
<title>Node233</title>
<g id="a_node11"><a xlink:href="structnlohmann_1_1detail_1_1is__compatible__type.html" target="_top" xlink:title=" ">
<polygon fill="white" stroke="black" points="357.5,-1226.5 357.5,-1267.5 518.5,-1267.5 518.5,-1226.5 357.5,-1226.5"/>
<text text-anchor="start" x="365.5" y="-1255.5" font-family="Helvetica,sans-Serif" font-size="10.00">nlohmann::detail::is</text>
<text text-anchor="start" x="365.5" y="-1244.5" font-family="Helvetica,sans-Serif" font-size="10.00">_compatible_type&lt; BasicJson</text>
<text text-anchor="middle" x="438" y="-1233.5" font-family="Helvetica,sans-Serif" font-size="10.00">Type, CompatibleType &gt;</text>
</a>
</g>
</g>
<!-- Node232&#45;&gt;Node233 -->
<g id="edge10" class="edge">
<title>Node232&#45;&gt;Node233</title>
<path fill="none" stroke="midnightblue" d="M307.87,-1247C324.47,-1247 341.39,-1247 357.28,-1247"/>
<polygon fill="midnightblue" stroke="midnightblue" points="307.58,-1243.5 297.58,-1247 307.58,-1250.5 307.58,-1243.5"/>
</g>
<!-- Node235 -->
<g id="node13" class="node">
<title>Node235</title>
<g id="a_node13"><a xlink:href="structnlohmann_1_1detail_1_1is__constructible__array__type.html" target="_top" xlink:title=" ">
<polygon fill="white" stroke="black" points="366,-1155 366,-1207 510,-1207 510,-1155 366,-1155"/>
<text text-anchor="start" x="374" y="-1195" font-family="Helvetica,sans-Serif" font-size="10.00">nlohmann::detail::is</text>
<text text-anchor="start" x="374" y="-1184" font-family="Helvetica,sans-Serif" font-size="10.00">_constructible_array</text>
<text text-anchor="start" x="374" y="-1173" font-family="Helvetica,sans-Serif" font-size="10.00">_type&lt; BasicJsonType,</text>
<text text-anchor="middle" x="438" y="-1162" font-family="Helvetica,sans-Serif" font-size="10.00"> ConstructibleArrayType &gt;</text>
</a>
</g>
</g>
<!-- Node234&#45;&gt;Node235 -->
<g id="edge12" class="edge">
<title>Node234&#45;&gt;Node235</title>
<path fill="none" stroke="midnightblue" d="M288.33,-1181C313.83,-1181 341.44,-1181 365.87,-1181"/>
<polygon fill="midnightblue" stroke="midnightblue" points="288.3,-1177.5 278.3,-1181 288.3,-1184.5 288.3,-1177.5"/>
</g>
<!-- Node237 -->
<g id="node15" class="node">
<title>Node237</title>
<g id="a_node15"><a xlink:href="structnlohmann_1_1detail_1_1is__constructible__object__type.html" target="_top" xlink:title=" ">
<polygon fill="white" stroke="black" points="363.5,-1084 363.5,-1136 512.5,-1136 512.5,-1084 363.5,-1084"/>
<text text-anchor="start" x="371.5" y="-1124" font-family="Helvetica,sans-Serif" font-size="10.00">nlohmann::detail::is</text>
<text text-anchor="start" x="371.5" y="-1113" font-family="Helvetica,sans-Serif" font-size="10.00">_constructible_object</text>
<text text-anchor="start" x="371.5" y="-1102" font-family="Helvetica,sans-Serif" font-size="10.00">_type&lt; BasicJsonType,</text>
<text text-anchor="middle" x="438" y="-1091" font-family="Helvetica,sans-Serif" font-size="10.00"> ConstructibleObjectType &gt;</text>
</a>
</g>
</g>
<!-- Node236&#45;&gt;Node237 -->
<g id="edge14" class="edge">
<title>Node236&#45;&gt;Node237</title>
<path fill="none" stroke="midnightblue" d="M288.37,-1110C313.03,-1110 339.67,-1110 363.49,-1110"/>
<polygon fill="midnightblue" stroke="midnightblue" points="288.3,-1106.5 278.3,-1110 288.3,-1113.5 288.3,-1106.5"/>
</g>
<!-- Node239 -->
<g id="node17" class="node">
<title>Node239</title>
<g id="a_node17"><a xlink:href="structnlohmann_1_1detail_1_1is__constructible__string__type.html" target="_top" xlink:title=" ">
<polygon fill="white" stroke="black" points="365,-1013 365,-1065 511,-1065 511,-1013 365,-1013"/>
<text text-anchor="start" x="373" y="-1053" font-family="Helvetica,sans-Serif" font-size="10.00">nlohmann::detail::is</text>
<text text-anchor="start" x="373" y="-1042" font-family="Helvetica,sans-Serif" font-size="10.00">_constructible_string</text>
<text text-anchor="start" x="373" y="-1031" font-family="Helvetica,sans-Serif" font-size="10.00">_type&lt; BasicJsonType,</text>
<text text-anchor="middle" x="438" y="-1020" font-family="Helvetica,sans-Serif" font-size="10.00"> ConstructibleStringType &gt;</text>
</a>
</g>
</g>
<!-- Node238&#45;&gt;Node239 -->
<g id="edge16" class="edge">
<title>Node238&#45;&gt;Node239</title>
<path fill="none" stroke="midnightblue" d="M288.52,-1039C313.55,-1039 340.61,-1039 364.68,-1039"/>
<polygon fill="midnightblue" stroke="midnightblue" points="288.3,-1035.5 278.3,-1039 288.3,-1042.5 288.3,-1035.5"/>
</g>
</g>
</svg>
