<?xml version="1.0" encoding="UTF-8" standalone="no"?>
<!DOCTYPE svg PUBLIC "-//W3C//DTD SVG 1.1//EN"
 "http://www.w3.org/Graphics/SVG/1.1/DTD/svg11.dtd">
<!-- Generated by graphviz version 2.43.0 (0)
 -->
<!-- Title: mc_orchestrator/json&#45;3.7.3/test/thirdparty/Fuzzer/test/InitializeTest.cpp Pages: 1 -->
<svg width="421pt" height="106pt"
 viewBox="0.00 0.00 420.50 106.00" xmlns="http://www.w3.org/2000/svg" xmlns:xlink="http://www.w3.org/1999/xlink">
<g id="graph0" class="graph" transform="scale(1 1) rotate(0) translate(4 102)">
<title>mc_orchestrator/json&#45;3.7.3/test/thirdparty/Fuzzer/test/InitializeTest.cpp</title>
<polygon fill="white" stroke="transparent" points="-4,4 -4,-102 416.5,-102 416.5,4 -4,4"/>
<!-- Node1 -->
<g id="node1" class="node">
<title>Node1</title>
<g id="a_node1"><a xlink:title=" ">
<polygon fill="#bfbfbf" stroke="black" points="131,-56.5 131,-97.5 289,-97.5 289,-56.5 131,-56.5"/>
<text text-anchor="start" x="139" y="-85.5" font-family="Helvetica,sans-Serif" font-size="10.00">mc_orchestrator/json</text>
<text text-anchor="start" x="139" y="-74.5" font-family="Helvetica,sans-Serif" font-size="10.00">&#45;3.7.3/test/thirdparty</text>
<text text-anchor="middle" x="210" y="-63.5" font-family="Helvetica,sans-Serif" font-size="10.00">/Fuzzer/test/InitializeTest.cpp</text>
</a>
</g>
</g>
<!-- Node2 -->
<g id="node2" class="node">
<title>Node2</title>
<g id="a_node2"><a xlink:title=" ">
<polygon fill="white" stroke="#bfbfbf" points="0,-0.5 0,-19.5 56,-19.5 56,-0.5 0,-0.5"/>
<text text-anchor="middle" x="28" y="-7.5" font-family="Helvetica,sans-Serif" font-size="10.00">assert.h</text>
</a>
</g>
</g>
<!-- Node1&#45;&gt;Node2 -->
<g id="edge1" class="edge">
<title>Node1&#45;&gt;Node2</title>
<path fill="none" stroke="midnightblue" d="M155.39,-56.5C124.94,-45.62 87.98,-32.42 61.73,-23.05"/>
<polygon fill="midnightblue" stroke="midnightblue" points="62.82,-19.72 52.23,-19.65 60.47,-26.31 62.82,-19.72"/>
</g>
<!-- Node3 -->
<g id="node3" class="node">
<title>Node3</title>
<g id="a_node3"><a xlink:title=" ">
<polygon fill="white" stroke="#bfbfbf" points="74,-0.5 74,-19.5 130,-19.5 130,-0.5 74,-0.5"/>
<text text-anchor="middle" x="102" y="-7.5" font-family="Helvetica,sans-Serif" font-size="10.00">stddef.h</text>
</a>
</g>
</g>
<!-- Node1&#45;&gt;Node3 -->
<g id="edge2" class="edge">
<title>Node1&#45;&gt;Node3</title>
<path fill="none" stroke="midnightblue" d="M177.6,-56.5C160.72,-46.34 140.47,-34.16 125.18,-24.95"/>
<polygon fill="midnightblue" stroke="midnightblue" points="126.75,-21.81 116.38,-19.65 123.14,-27.81 126.75,-21.81"/>
</g>
<!-- Node4 -->
<g id="node4" class="node">
<title>Node4</title>
<g id="a_node4"><a xlink:title=" ">
<polygon fill="white" stroke="#bfbfbf" points="148.5,-0.5 148.5,-19.5 201.5,-19.5 201.5,-0.5 148.5,-0.5"/>
<text text-anchor="middle" x="175" y="-7.5" font-family="Helvetica,sans-Serif" font-size="10.00">stdint.h</text>
</a>
</g>
</g>
<!-- Node1&#45;&gt;Node4 -->
<g id="edge3" class="edge">
<title>Node1&#45;&gt;Node4</title>
<path fill="none" stroke="midnightblue" d="M199.5,-56.5C194.7,-47.59 189.06,-37.11 184.4,-28.46"/>
<polygon fill="midnightblue" stroke="midnightblue" points="187.48,-26.8 179.66,-19.65 181.32,-30.12 187.48,-26.8"/>
</g>
<!-- Node5 -->
<g id="node5" class="node">
<title>Node5</title>
<g id="a_node5"><a xlink:title=" ">
<polygon fill="white" stroke="#bfbfbf" points="220,-0.5 220,-19.5 270,-19.5 270,-0.5 220,-0.5"/>
<text text-anchor="middle" x="245" y="-7.5" font-family="Helvetica,sans-Serif" font-size="10.00">stdio.h</text>
</a>
</g>
</g>
<!-- Node1&#45;&gt;Node5 -->
<g id="edge4" class="edge">
<title>Node1&#45;&gt;Node5</title>
<path fill="none" stroke="midnightblue" d="M220.5,-56.5C225.3,-47.59 230.94,-37.11 235.6,-28.46"/>
<polygon fill="midnightblue" stroke="midnightblue" points="238.68,-30.12 240.34,-19.65 232.52,-26.8 238.68,-30.12"/>
</g>
<!-- Node6 -->
<g id="node6" class="node">
<title>Node6</title>
<g id="a_node6"><a xlink:title=" ">
<polygon fill="white" stroke="#bfbfbf" points="288.5,-0.5 288.5,-19.5 341.5,-19.5 341.5,-0.5 288.5,-0.5"/>
<text text-anchor="middle" x="315" y="-7.5" font-family="Helvetica,sans-Serif" font-size="10.00">stdlib.h</text>
</a>
</g>
</g>
<!-- Node1&#45;&gt;Node6 -->
<g id="edge5" class="edge">
<title>Node1&#45;&gt;Node6</title>
<path fill="none" stroke="midnightblue" d="M241.5,-56.5C257.91,-46.34 277.6,-34.16 292.46,-24.95"/>
<polygon fill="midnightblue" stroke="midnightblue" points="294.36,-27.89 301.02,-19.65 290.68,-21.94 294.36,-27.89"/>
</g>
<!-- Node7 -->
<g id="node7" class="node">
<title>Node7</title>
<g id="a_node7"><a xlink:title=" ">
<polygon fill="white" stroke="#bfbfbf" points="359.5,-0.5 359.5,-19.5 412.5,-19.5 412.5,-0.5 359.5,-0.5"/>
<text text-anchor="middle" x="386" y="-7.5" font-family="Helvetica,sans-Serif" font-size="10.00">string.h</text>
</a>
</g>
</g>
<!-- Node1&#45;&gt;Node7 -->
<g id="edge6" class="edge">
<title>Node1&#45;&gt;Node7</title>
<path fill="none" stroke="midnightblue" d="M262.81,-56.5C292.13,-45.67 327.68,-32.54 353.05,-23.17"/>
<polygon fill="midnightblue" stroke="midnightblue" points="354.4,-26.4 362.57,-19.65 351.98,-19.83 354.4,-26.4"/>
</g>
</g>
</svg>
