<?xml version="1.0" encoding="UTF-8" standalone="no"?>
<!DOCTYPE svg PUBLIC "-//W3C//DTD SVG 1.1//EN"
 "http://www.w3.org/Graphics/SVG/1.1/DTD/svg11.dtd">
<!-- Generated by graphviz version 2.43.0 (0)
 -->
<!-- Title: main Pages: 1 -->
<svg width="703pt" height="281pt"
 viewBox="0.00 0.00 703.00 281.00" xmlns="http://www.w3.org/2000/svg" xmlns:xlink="http://www.w3.org/1999/xlink">
<g id="graph0" class="graph" transform="scale(1 1) rotate(0) translate(4 277)">
<title>main</title>
<polygon fill="white" stroke="transparent" points="-4,4 -4,-277 699,-277 699,4 -4,4"/>
<!-- Node1 -->
<g id="node1" class="node">
<title>Node1</title>
<g id="a_node1"><a xlink:title=" ">
<polygon fill="#bfbfbf" stroke="black" points="0,-104 0,-123 41,-123 41,-104 0,-104"/>
<text text-anchor="middle" x="20.5" y="-111" font-family="Helvetica,sans-Serif" font-size="10.00">main</text>
</a>
</g>
</g>
<!-- Node2 -->
<g id="node2" class="node">
<title>Node2</title>
<g id="a_node2"><a xlink:href="classnlohmann_1_1basic__json.html#a0136728f5db69d4051c77b94307abd6c" target="_top" xlink:title="inserts element">
<polygon fill="white" stroke="black" points="77,-98.5 77,-128.5 199,-128.5 199,-98.5 77,-98.5"/>
<text text-anchor="start" x="85" y="-116.5" font-family="Helvetica,sans-Serif" font-size="10.00">nlohmann::basic_json</text>
<text text-anchor="middle" x="138" y="-105.5" font-family="Helvetica,sans-Serif" font-size="10.00">::insert</text>
</a>
</g>
</g>
<!-- Node1&#45;&gt;Node2 -->
<g id="edge1" class="edge">
<title>Node1&#45;&gt;Node2</title>
<path fill="none" stroke="midnightblue" d="M41.09,-113.5C48.47,-113.5 57.34,-113.5 66.68,-113.5"/>
<polygon fill="midnightblue" stroke="midnightblue" points="66.94,-117 76.94,-113.5 66.94,-110 66.94,-117"/>
</g>
<!-- Node3 -->
<g id="node3" class="node">
<title>Node3</title>
<g id="a_node3"><a xlink:href="classnlohmann_1_1detail_1_1invalid__iterator.html#a4e849260a3caa1b288c7e619130c6c09" target="_top" xlink:title=" ">
<polygon fill="white" stroke="black" points="235,-196.5 235,-226.5 373,-226.5 373,-196.5 235,-196.5"/>
<text text-anchor="start" x="243" y="-214.5" font-family="Helvetica,sans-Serif" font-size="10.00">nlohmann::detail::invalid</text>
<text text-anchor="middle" x="304" y="-203.5" font-family="Helvetica,sans-Serif" font-size="10.00">_iterator::create</text>
</a>
</g>
</g>
<!-- Node2&#45;&gt;Node3 -->
<g id="edge2" class="edge">
<title>Node2&#45;&gt;Node3</title>
<path fill="none" stroke="midnightblue" d="M155.62,-128.61C173.96,-144.68 204.89,-170 235,-186.5 238.89,-188.63 243,-190.65 247.19,-192.55"/>
<polygon fill="midnightblue" stroke="midnightblue" points="245.88,-195.79 256.46,-196.5 248.63,-189.36 245.88,-195.79"/>
</g>
<!-- Node7 -->
<g id="node7" class="node">
<title>Node7</title>
<g id="a_node7"><a xlink:href="classnlohmann_1_1detail_1_1type__error.html#aecc083aea4b698c33d042670ba50c10f" target="_top" xlink:title=" ">
<polygon fill="white" stroke="black" points="240.5,-147.5 240.5,-177.5 367.5,-177.5 367.5,-147.5 240.5,-147.5"/>
<text text-anchor="start" x="248.5" y="-165.5" font-family="Helvetica,sans-Serif" font-size="10.00">nlohmann::detail::type</text>
<text text-anchor="middle" x="304" y="-154.5" font-family="Helvetica,sans-Serif" font-size="10.00">_error::create</text>
</a>
</g>
</g>
<!-- Node2&#45;&gt;Node7 -->
<g id="edge6" class="edge">
<title>Node2&#45;&gt;Node7</title>
<path fill="none" stroke="midnightblue" d="M189.54,-128.6C206.46,-133.66 225.48,-139.34 243.04,-144.58"/>
<polygon fill="midnightblue" stroke="midnightblue" points="242.04,-147.94 252.62,-147.45 244.04,-141.23 242.04,-147.94"/>
</g>
<!-- Node9 -->
<g id="node9" class="node">
<title>Node9</title>
<g id="a_node9"><a xlink:href="classnlohmann_1_1basic__json.html#a316663487f1d20c0cf349b23f9494bda" target="_top" xlink:title=" ">
<polygon fill="white" stroke="black" points="243,-98.5 243,-128.5 365,-128.5 365,-98.5 243,-98.5"/>
<text text-anchor="start" x="251" y="-116.5" font-family="Helvetica,sans-Serif" font-size="10.00">nlohmann::basic_json</text>
<text text-anchor="middle" x="304" y="-105.5" font-family="Helvetica,sans-Serif" font-size="10.00">::insert_iterator</text>
</a>
</g>
</g>
<!-- Node2&#45;&gt;Node9 -->
<g id="edge9" class="edge">
<title>Node2&#45;&gt;Node9</title>
<path fill="none" stroke="midnightblue" d="M199.14,-113.5C210.05,-113.5 221.53,-113.5 232.71,-113.5"/>
<polygon fill="midnightblue" stroke="midnightblue" points="232.87,-117 242.87,-113.5 232.87,-110 232.87,-117"/>
</g>
<!-- Node11 -->
<g id="node11" class="node">
<title>Node11</title>
<g id="a_node11"><a xlink:href="classnlohmann_1_1basic__json.html#aef9ce5dd2381caee1f8ddcdb5bdd9c65" target="_top" xlink:title="return whether value is an array">
<polygon fill="white" stroke="black" points="243,-49.5 243,-79.5 365,-79.5 365,-49.5 243,-49.5"/>
<text text-anchor="start" x="251" y="-67.5" font-family="Helvetica,sans-Serif" font-size="10.00">nlohmann::basic_json</text>
<text text-anchor="middle" x="304" y="-56.5" font-family="Helvetica,sans-Serif" font-size="10.00">::is_array</text>
</a>
</g>
</g>
<!-- Node2&#45;&gt;Node11 -->
<g id="edge11" class="edge">
<title>Node2&#45;&gt;Node11</title>
<path fill="none" stroke="midnightblue" d="M189.54,-98.4C206.46,-93.34 225.48,-87.66 243.04,-82.42"/>
<polygon fill="midnightblue" stroke="midnightblue" points="244.04,-85.77 252.62,-79.55 242.04,-79.06 244.04,-85.77"/>
</g>
<!-- Node12 -->
<g id="node12" class="node">
<title>Node12</title>
<g id="a_node12"><a xlink:href="classnlohmann_1_1basic__json.html#ad14563c53cf7ca9189bc164082367bf3" target="_top" xlink:title="return the type as string">
<polygon fill="white" stroke="black" points="243,-0.5 243,-30.5 365,-30.5 365,-0.5 243,-0.5"/>
<text text-anchor="start" x="251" y="-18.5" font-family="Helvetica,sans-Serif" font-size="10.00">nlohmann::basic_json</text>
<text text-anchor="middle" x="304" y="-7.5" font-family="Helvetica,sans-Serif" font-size="10.00">::type_name</text>
</a>
</g>
</g>
<!-- Node2&#45;&gt;Node12 -->
<g id="edge12" class="edge">
<title>Node2&#45;&gt;Node12</title>
<path fill="none" stroke="midnightblue" d="M155.2,-98.38C173.43,-82.03 204.5,-56.09 235,-39.5 238.21,-37.75 241.58,-36.09 245.02,-34.52"/>
<polygon fill="midnightblue" stroke="midnightblue" points="246.44,-37.72 254.26,-30.57 243.68,-31.28 246.44,-37.72"/>
</g>
<!-- Node4 -->
<g id="node4" class="node">
<title>Node4</title>
<g id="a_node4"><a xlink:href="classnlohmann_1_1detail_1_1invalid__iterator.html#adf4a6697420f3bddb4addfc0b98f6ee2" target="_top" xlink:title=" ">
<polygon fill="white" stroke="black" points="416.5,-242.5 416.5,-272.5 554.5,-272.5 554.5,-242.5 416.5,-242.5"/>
<text text-anchor="start" x="424.5" y="-260.5" font-family="Helvetica,sans-Serif" font-size="10.00">nlohmann::detail::invalid</text>
<text text-anchor="middle" x="485.5" y="-249.5" font-family="Helvetica,sans-Serif" font-size="10.00">_iterator::invalid_iterator</text>
</a>
</g>
</g>
<!-- Node3&#45;&gt;Node4 -->
<g id="edge3" class="edge">
<title>Node3&#45;&gt;Node4</title>
<path fill="none" stroke="midnightblue" d="M363.78,-226.56C380.44,-230.83 398.73,-235.52 415.92,-239.93"/>
<polygon fill="midnightblue" stroke="midnightblue" points="415.34,-243.39 425.9,-242.48 417.08,-236.61 415.34,-243.39"/>
</g>
<!-- Node5 -->
<g id="node5" class="node">
<title>Node5</title>
<g id="a_node5"><a xlink:href="classnlohmann_1_1detail_1_1exception.html#abf41a7e9178356314082284e6cfea278" target="_top" xlink:title=" ">
<polygon fill="white" stroke="black" points="409,-193.5 409,-223.5 562,-223.5 562,-193.5 409,-193.5"/>
<text text-anchor="start" x="417" y="-211.5" font-family="Helvetica,sans-Serif" font-size="10.00">nlohmann::detail::exception</text>
<text text-anchor="middle" x="485.5" y="-200.5" font-family="Helvetica,sans-Serif" font-size="10.00">::name</text>
</a>
</g>
</g>
<!-- Node3&#45;&gt;Node5 -->
<g id="edge4" class="edge">
<title>Node3&#45;&gt;Node5</title>
<path fill="none" stroke="midnightblue" d="M373.12,-210.36C381.53,-210.22 390.21,-210.08 398.84,-209.93"/>
<polygon fill="midnightblue" stroke="midnightblue" points="398.99,-213.43 408.93,-209.76 398.87,-206.43 398.99,-213.43"/>
</g>
<!-- Node6 -->
<g id="node6" class="node">
<title>Node6</title>
<g id="a_node6"><a xlink:href="namespacehttplib.html#a498c3a79825ecbcb15c52ec5fcfd5c11" target="_top" xlink:title=" ">
<polygon fill="white" stroke="black" points="598,-199 598,-218 695,-218 695,-199 598,-199"/>
<text text-anchor="middle" x="646.5" y="-206" font-family="Helvetica,sans-Serif" font-size="10.00">httplib::to_string</text>
</a>
</g>
</g>
<!-- Node5&#45;&gt;Node6 -->
<g id="edge5" class="edge">
<title>Node5&#45;&gt;Node6</title>
<path fill="none" stroke="midnightblue" d="M562.27,-208.5C570.82,-208.5 579.43,-208.5 587.7,-208.5"/>
<polygon fill="midnightblue" stroke="midnightblue" points="587.96,-212 597.96,-208.5 587.96,-205 587.96,-212"/>
</g>
<!-- Node7&#45;&gt;Node5 -->
<g id="edge7" class="edge">
<title>Node7&#45;&gt;Node5</title>
<path fill="none" stroke="midnightblue" d="M363.78,-177.56C380.44,-181.83 398.73,-186.52 415.92,-190.93"/>
<polygon fill="midnightblue" stroke="midnightblue" points="415.34,-194.39 425.9,-193.48 417.08,-187.61 415.34,-194.39"/>
</g>
<!-- Node8 -->
<g id="node8" class="node">
<title>Node8</title>
<g id="a_node8"><a xlink:href="classnlohmann_1_1detail_1_1type__error.html#aa01edaa0bf18b853368f0b900e485cd7" target="_top" xlink:title=" ">
<polygon fill="white" stroke="black" points="422,-144.5 422,-174.5 549,-174.5 549,-144.5 422,-144.5"/>
<text text-anchor="start" x="430" y="-162.5" font-family="Helvetica,sans-Serif" font-size="10.00">nlohmann::detail::type</text>
<text text-anchor="middle" x="485.5" y="-151.5" font-family="Helvetica,sans-Serif" font-size="10.00">_error::type_error</text>
</a>
</g>
</g>
<!-- Node7&#45;&gt;Node8 -->
<g id="edge8" class="edge">
<title>Node7&#45;&gt;Node8</title>
<path fill="none" stroke="midnightblue" d="M367.53,-161.45C381.83,-161.22 397.16,-160.96 411.84,-160.71"/>
<polygon fill="midnightblue" stroke="midnightblue" points="411.95,-164.21 421.89,-160.55 411.83,-157.21 411.95,-164.21"/>
</g>
<!-- Node10 -->
<g id="node10" class="node">
<title>Node10</title>
<g id="a_node10"><a xlink:href="FuzzerTracePC_8cpp.html#a1f10ac78bd11294b612636121065eb5b" target="_top" xlink:title=" ">
<polygon fill="white" stroke="black" points="462,-104 462,-123 509,-123 509,-104 462,-104"/>
<text text-anchor="middle" x="485.5" y="-111" font-family="Helvetica,sans-Serif" font-size="10.00">assert</text>
</a>
</g>
</g>
<!-- Node9&#45;&gt;Node10 -->
<g id="edge10" class="edge">
<title>Node9&#45;&gt;Node10</title>
<path fill="none" stroke="midnightblue" d="M365.27,-113.5C394.19,-113.5 427.71,-113.5 451.83,-113.5"/>
<polygon fill="midnightblue" stroke="midnightblue" points="451.87,-117 461.87,-113.5 451.87,-110 451.87,-117"/>
</g>
</g>
</svg>
