<?xml version="1.0" encoding="UTF-8" standalone="no"?>
<!DOCTYPE svg PUBLIC "-//W3C//DTD SVG 1.1//EN"
 "http://www.w3.org/Graphics/SVG/1.1/DTD/svg11.dtd">
<!-- Generated by graphviz version 2.43.0 (0)
 -->
<!-- Title: mc_orchestrator/json&#45;3.7.3/benchmarks/thirdparty/benchmark/src/internal_macros.h Pages: 1 -->
<svg width="1279pt" height="295pt"
 viewBox="0.00 0.00 1279.00 295.00" xmlns="http://www.w3.org/2000/svg" xmlns:xlink="http://www.w3.org/1999/xlink">
<g id="graph0" class="graph" transform="scale(1 1) rotate(0) translate(4 291)">
<title>mc_orchestrator/json&#45;3.7.3/benchmarks/thirdparty/benchmark/src/internal_macros.h</title>
<polygon fill="white" stroke="transparent" points="-4,4 -4,-291 1275,-291 1275,4 -4,4"/>
<!-- Node1 -->
<g id="node1" class="node">
<title>Node1</title>
<g id="a_node1"><a xlink:title=" ">
<polygon fill="#bfbfbf" stroke="black" points="749,-245.5 749,-286.5 931,-286.5 931,-245.5 749,-245.5"/>
<text text-anchor="start" x="757" y="-274.5" font-family="Helvetica,sans-Serif" font-size="10.00">mc_orchestrator/json</text>
<text text-anchor="start" x="757" y="-263.5" font-family="Helvetica,sans-Serif" font-size="10.00">&#45;3.7.3/benchmarks/thirdparty</text>
<text text-anchor="middle" x="840" y="-252.5" font-family="Helvetica,sans-Serif" font-size="10.00">/benchmark/src/internal_macros.h</text>
</a>
</g>
</g>
<!-- Node2 -->
<g id="node2" class="node">
<title>Node2</title>
<g id="a_node2"><a xlink:href="check_8h.html" target="_top" xlink:title=" ">
<polygon fill="white" stroke="black" points="511,-167.5 511,-208.5 669,-208.5 669,-167.5 511,-167.5"/>
<text text-anchor="start" x="519" y="-196.5" font-family="Helvetica,sans-Serif" font-size="10.00">mc_orchestrator/json</text>
<text text-anchor="start" x="519" y="-185.5" font-family="Helvetica,sans-Serif" font-size="10.00">&#45;3.7.3/benchmarks/thirdparty</text>
<text text-anchor="middle" x="590" y="-174.5" font-family="Helvetica,sans-Serif" font-size="10.00">/benchmark/src/check.h</text>
</a>
</g>
</g>
<!-- Node1&#45;&gt;Node2 -->
<g id="edge1" class="edge">
<title>Node1&#45;&gt;Node2</title>
<path fill="none" stroke="midnightblue" d="M765.8,-242.44C730.31,-231.66 688.25,-218.87 654.16,-208.51"/>
<polygon fill="midnightblue" stroke="midnightblue" points="765.03,-245.87 775.62,-245.43 767.07,-239.17 765.03,-245.87"/>
</g>
<!-- Node7 -->
<g id="node7" class="node">
<title>Node7</title>
<g id="a_node7"><a xlink:href="re_8h.html" target="_top" xlink:title=" ">
<polygon fill="white" stroke="black" points="691,-89.5 691,-130.5 849,-130.5 849,-89.5 691,-89.5"/>
<text text-anchor="start" x="699" y="-118.5" font-family="Helvetica,sans-Serif" font-size="10.00">mc_orchestrator/json</text>
<text text-anchor="start" x="699" y="-107.5" font-family="Helvetica,sans-Serif" font-size="10.00">&#45;3.7.3/benchmarks/thirdparty</text>
<text text-anchor="middle" x="770" y="-96.5" font-family="Helvetica,sans-Serif" font-size="10.00">/benchmark/src/re.h</text>
</a>
</g>
</g>
<!-- Node1&#45;&gt;Node7 -->
<g id="edge10" class="edge">
<title>Node1&#45;&gt;Node7</title>
<path fill="none" stroke="midnightblue" d="M782.49,-240.13C770.3,-232.04 759.01,-221.77 752,-209 738.43,-184.28 749.44,-151.31 759.23,-130.62"/>
<polygon fill="midnightblue" stroke="midnightblue" points="780.69,-243.12 791.04,-245.38 784.35,-237.16 780.69,-243.12"/>
</g>
<!-- Node9 -->
<g id="node9" class="node">
<title>Node9</title>
<g id="a_node9"><a xlink:href="arraysize_8h.html" target="_top" xlink:title=" ">
<polygon fill="white" stroke="black" points="761,-167.5 761,-208.5 919,-208.5 919,-167.5 761,-167.5"/>
<text text-anchor="start" x="769" y="-196.5" font-family="Helvetica,sans-Serif" font-size="10.00">mc_orchestrator/json</text>
<text text-anchor="start" x="769" y="-185.5" font-family="Helvetica,sans-Serif" font-size="10.00">&#45;3.7.3/benchmarks/thirdparty</text>
<text text-anchor="middle" x="840" y="-174.5" font-family="Helvetica,sans-Serif" font-size="10.00">/benchmark/src/arraysize.h</text>
</a>
</g>
</g>
<!-- Node1&#45;&gt;Node9 -->
<g id="edge8" class="edge">
<title>Node1&#45;&gt;Node9</title>
<path fill="none" stroke="midnightblue" d="M840,-235.3C840,-226.3 840,-216.65 840,-208.51"/>
<polygon fill="midnightblue" stroke="midnightblue" points="836.5,-235.43 840,-245.43 843.5,-235.43 836.5,-235.43"/>
</g>
<!-- Node10 -->
<g id="node10" class="node">
<title>Node10</title>
<g id="a_node10"><a xlink:href="cycleclock_8h.html" target="_top" xlink:title=" ">
<polygon fill="white" stroke="black" points="937,-167.5 937,-208.5 1095,-208.5 1095,-167.5 937,-167.5"/>
<text text-anchor="start" x="945" y="-196.5" font-family="Helvetica,sans-Serif" font-size="10.00">mc_orchestrator/json</text>
<text text-anchor="start" x="945" y="-185.5" font-family="Helvetica,sans-Serif" font-size="10.00">&#45;3.7.3/benchmarks/thirdparty</text>
<text text-anchor="middle" x="1016" y="-174.5" font-family="Helvetica,sans-Serif" font-size="10.00">/benchmark/src/cycleclock.h</text>
</a>
</g>
</g>
<!-- Node1&#45;&gt;Node10 -->
<g id="edge9" class="edge">
<title>Node1&#45;&gt;Node10</title>
<path fill="none" stroke="midnightblue" d="M894.82,-241.33C919.24,-230.78 947.65,-218.51 970.83,-208.51"/>
<polygon fill="midnightblue" stroke="midnightblue" points="893.12,-238.25 885.32,-245.43 895.89,-244.68 893.12,-238.25"/>
</g>
<!-- Node11 -->
<g id="node11" class="node">
<title>Node11</title>
<g id="a_node11"><a xlink:href="string__util_8h.html" target="_top" xlink:title=" ">
<polygon fill="white" stroke="black" points="1113,-167.5 1113,-208.5 1271,-208.5 1271,-167.5 1113,-167.5"/>
<text text-anchor="start" x="1121" y="-196.5" font-family="Helvetica,sans-Serif" font-size="10.00">mc_orchestrator/json</text>
<text text-anchor="start" x="1121" y="-185.5" font-family="Helvetica,sans-Serif" font-size="10.00">&#45;3.7.3/benchmarks/thirdparty</text>
<text text-anchor="middle" x="1192" y="-174.5" font-family="Helvetica,sans-Serif" font-size="10.00">/benchmark/src/string_util.h</text>
</a>
</g>
</g>
<!-- Node1&#45;&gt;Node11 -->
<g id="edge11" class="edge">
<title>Node1&#45;&gt;Node11</title>
<path fill="none" stroke="midnightblue" d="M941.1,-243.91C990.29,-233.56 1050.27,-220.8 1104,-209 1106.91,-208.36 1109.87,-207.71 1112.86,-207.04"/>
<polygon fill="midnightblue" stroke="midnightblue" points="940.16,-240.53 931.09,-246.02 941.6,-247.38 940.16,-240.53"/>
</g>
<!-- Node3 -->
<g id="node3" class="node">
<title>Node3</title>
<g id="a_node3"><a xlink:href="mutex_8h.html" target="_top" xlink:title=" ">
<polygon fill="white" stroke="black" points="111,-89.5 111,-130.5 269,-130.5 269,-89.5 111,-89.5"/>
<text text-anchor="start" x="119" y="-118.5" font-family="Helvetica,sans-Serif" font-size="10.00">mc_orchestrator/json</text>
<text text-anchor="start" x="119" y="-107.5" font-family="Helvetica,sans-Serif" font-size="10.00">&#45;3.7.3/benchmarks/thirdparty</text>
<text text-anchor="middle" x="190" y="-96.5" font-family="Helvetica,sans-Serif" font-size="10.00">/benchmark/src/mutex.h</text>
</a>
</g>
</g>
<!-- Node2&#45;&gt;Node3 -->
<g id="edge2" class="edge">
<title>Node2&#45;&gt;Node3</title>
<path fill="none" stroke="midnightblue" d="M500.73,-172.1C438.22,-161.39 352.84,-146.21 278,-131 275.08,-130.41 272.11,-129.79 269.12,-129.16"/>
<polygon fill="midnightblue" stroke="midnightblue" points="500.5,-175.61 510.95,-173.84 501.68,-168.71 500.5,-175.61"/>
</g>
<!-- Node6 -->
<g id="node6" class="node">
<title>Node6</title>
<g id="a_node6"><a xlink:href="benchmark__register_8h.html" target="_top" xlink:title=" ">
<polygon fill="white" stroke="black" points="287.5,-89.5 287.5,-130.5 488.5,-130.5 488.5,-89.5 287.5,-89.5"/>
<text text-anchor="start" x="295.5" y="-118.5" font-family="Helvetica,sans-Serif" font-size="10.00">mc_orchestrator/json</text>
<text text-anchor="start" x="295.5" y="-107.5" font-family="Helvetica,sans-Serif" font-size="10.00">&#45;3.7.3/benchmarks/thirdparty</text>
<text text-anchor="middle" x="388" y="-96.5" font-family="Helvetica,sans-Serif" font-size="10.00">/benchmark/src/benchmark_register.h</text>
</a>
</g>
</g>
<!-- Node2&#45;&gt;Node6 -->
<g id="edge5" class="edge">
<title>Node2&#45;&gt;Node6</title>
<path fill="none" stroke="midnightblue" d="M528.57,-163.89C500.21,-153.22 466.91,-140.69 439.84,-130.51"/>
<polygon fill="midnightblue" stroke="midnightblue" points="527.39,-167.18 537.98,-167.43 529.85,-160.63 527.39,-167.18"/>
</g>
<!-- Node2&#45;&gt;Node7 -->
<g id="edge6" class="edge">
<title>Node2&#45;&gt;Node7</title>
<path fill="none" stroke="midnightblue" d="M645.73,-163.47C670.78,-152.89 700,-140.56 723.8,-130.51"/>
<polygon fill="midnightblue" stroke="midnightblue" points="644.21,-160.31 636.35,-167.43 646.93,-166.76 644.21,-160.31"/>
</g>
<!-- Node8 -->
<g id="node8" class="node">
<title>Node8</title>
<g id="a_node8"><a xlink:href="thread__timer_8h.html" target="_top" xlink:title=" ">
<polygon fill="white" stroke="black" points="506.5,-89.5 506.5,-130.5 673.5,-130.5 673.5,-89.5 506.5,-89.5"/>
<text text-anchor="start" x="514.5" y="-118.5" font-family="Helvetica,sans-Serif" font-size="10.00">mc_orchestrator/json</text>
<text text-anchor="start" x="514.5" y="-107.5" font-family="Helvetica,sans-Serif" font-size="10.00">&#45;3.7.3/benchmarks/thirdparty</text>
<text text-anchor="middle" x="590" y="-96.5" font-family="Helvetica,sans-Serif" font-size="10.00">/benchmark/src/thread_timer.h</text>
</a>
</g>
</g>
<!-- Node2&#45;&gt;Node8 -->
<g id="edge7" class="edge">
<title>Node2&#45;&gt;Node8</title>
<path fill="none" stroke="midnightblue" d="M590,-157.3C590,-148.3 590,-138.65 590,-130.51"/>
<polygon fill="midnightblue" stroke="midnightblue" points="586.5,-157.43 590,-167.43 593.5,-157.43 586.5,-157.43"/>
</g>
<!-- Node4 -->
<g id="node4" class="node">
<title>Node4</title>
<g id="a_node4"><a xlink:href="thread__safety__attributes_8cpp.html" target="_top" xlink:title=" ">
<polygon fill="white" stroke="black" points="0,-0.5 0,-52.5 180,-52.5 180,-0.5 0,-0.5"/>
<text text-anchor="start" x="8" y="-40.5" font-family="Helvetica,sans-Serif" font-size="10.00">mc_orchestrator/json</text>
<text text-anchor="start" x="8" y="-29.5" font-family="Helvetica,sans-Serif" font-size="10.00">&#45;3.7.3/benchmarks/thirdparty</text>
<text text-anchor="start" x="8" y="-18.5" font-family="Helvetica,sans-Serif" font-size="10.00">/benchmark/cmake/thread_safety</text>
<text text-anchor="middle" x="90" y="-7.5" font-family="Helvetica,sans-Serif" font-size="10.00">_attributes.cpp</text>
</a>
</g>
</g>
<!-- Node3&#45;&gt;Node4 -->
<g id="edge3" class="edge">
<title>Node3&#45;&gt;Node4</title>
<path fill="none" stroke="midnightblue" d="M158.11,-83.01C146.22,-73.32 132.76,-62.35 120.95,-52.73"/>
<polygon fill="midnightblue" stroke="midnightblue" points="156.08,-85.87 166.05,-89.48 160.51,-80.45 156.08,-85.87"/>
</g>
<!-- Node5 -->
<g id="node5" class="node">
<title>Node5</title>
<g id="a_node5"><a xlink:href="thread__manager_8h.html" target="_top" xlink:title=" ">
<polygon fill="white" stroke="black" points="198,-6 198,-47 382,-47 382,-6 198,-6"/>
<text text-anchor="start" x="206" y="-35" font-family="Helvetica,sans-Serif" font-size="10.00">mc_orchestrator/json</text>
<text text-anchor="start" x="206" y="-24" font-family="Helvetica,sans-Serif" font-size="10.00">&#45;3.7.3/benchmarks/thirdparty</text>
<text text-anchor="middle" x="290" y="-13" font-family="Helvetica,sans-Serif" font-size="10.00">/benchmark/src/thread_manager.h</text>
</a>
</g>
</g>
<!-- Node3&#45;&gt;Node5 -->
<g id="edge4" class="edge">
<title>Node3&#45;&gt;Node5</title>
<path fill="none" stroke="midnightblue" d="M222.03,-82.89C236.26,-71.3 252.73,-57.87 265.9,-47.14"/>
<polygon fill="midnightblue" stroke="midnightblue" points="219.49,-80.45 213.95,-89.48 223.92,-85.87 219.49,-80.45"/>
</g>
</g>
</svg>
