<?xml version="1.0" encoding="UTF-8" standalone="no"?>
<!DOCTYPE svg PUBLIC "-//W3C//DTD SVG 1.1//EN"
 "http://www.w3.org/Graphics/SVG/1.1/DTD/svg11.dtd">
<!-- Generated by graphviz version 2.43.0 (0)
 -->
<!-- Title: mc_orchestrator/json&#45;3.7.3/include/nlohmann/detail/iterators/iterator_traits.hpp Pages: 1 -->
<svg width="398pt" height="184pt"
 viewBox="0.00 0.00 398.00 184.00" xmlns="http://www.w3.org/2000/svg" xmlns:xlink="http://www.w3.org/1999/xlink">
<g id="graph0" class="graph" transform="scale(1 1) rotate(0) translate(4 180)">
<title>mc_orchestrator/json&#45;3.7.3/include/nlohmann/detail/iterators/iterator_traits.hpp</title>
<polygon fill="white" stroke="transparent" points="-4,4 -4,-180 394,-180 394,4 -4,4"/>
<!-- Node1 -->
<g id="node1" class="node">
<title>Node1</title>
<g id="a_node1"><a xlink:title=" ">
<polygon fill="#bfbfbf" stroke="black" points="66.5,-123.5 66.5,-175.5 200.5,-175.5 200.5,-123.5 66.5,-123.5"/>
<text text-anchor="start" x="74.5" y="-163.5" font-family="Helvetica,sans-Serif" font-size="10.00">mc_orchestrator/json</text>
<text text-anchor="start" x="74.5" y="-152.5" font-family="Helvetica,sans-Serif" font-size="10.00">&#45;3.7.3/include/nlohmann</text>
<text text-anchor="start" x="74.5" y="-141.5" font-family="Helvetica,sans-Serif" font-size="10.00">/detail/iterators/iterator</text>
<text text-anchor="middle" x="133.5" y="-130.5" font-family="Helvetica,sans-Serif" font-size="10.00">_traits.hpp</text>
</a>
</g>
</g>
<!-- Node2 -->
<g id="node2" class="node">
<title>Node2</title>
<g id="a_node2"><a xlink:title=" ">
<polygon fill="white" stroke="#bfbfbf" points="0,-62 0,-81 53,-81 53,-62 0,-62"/>
<text text-anchor="middle" x="26.5" y="-69" font-family="Helvetica,sans-Serif" font-size="10.00">iterator</text>
</a>
</g>
</g>
<!-- Node1&#45;&gt;Node2 -->
<g id="edge1" class="edge">
<title>Node1&#45;&gt;Node2</title>
<path fill="none" stroke="midnightblue" d="M98.17,-123.4C81.13,-111.3 61.3,-97.22 46.83,-86.94"/>
<polygon fill="midnightblue" stroke="midnightblue" points="48.76,-84.02 38.58,-81.08 44.7,-89.72 48.76,-84.02"/>
</g>
<!-- Node3 -->
<g id="node3" class="node">
<title>Node3</title>
<g id="a_node3"><a xlink:href="void__t_8hpp.html" target="_top" xlink:title=" ">
<polygon fill="white" stroke="black" points="71,-56.5 71,-86.5 196,-86.5 196,-56.5 71,-56.5"/>
<text text-anchor="start" x="79" y="-74.5" font-family="Helvetica,sans-Serif" font-size="10.00">nlohmann/detail/meta</text>
<text text-anchor="middle" x="133.5" y="-63.5" font-family="Helvetica,sans-Serif" font-size="10.00">/void_t.hpp</text>
</a>
</g>
</g>
<!-- Node1&#45;&gt;Node3 -->
<g id="edge2" class="edge">
<title>Node1&#45;&gt;Node3</title>
<path fill="none" stroke="midnightblue" d="M133.5,-123.19C133.5,-114.79 133.5,-105.44 133.5,-97.09"/>
<polygon fill="midnightblue" stroke="midnightblue" points="137,-96.85 133.5,-86.85 130,-96.85 137,-96.85"/>
</g>
<!-- Node4 -->
<g id="node4" class="node">
<title>Node4</title>
<g id="a_node4"><a xlink:href="cpp__future_8hpp.html" target="_top" xlink:title=" ">
<polygon fill="white" stroke="black" points="214,-56.5 214,-86.5 339,-86.5 339,-56.5 214,-56.5"/>
<text text-anchor="start" x="222" y="-74.5" font-family="Helvetica,sans-Serif" font-size="10.00">nlohmann/detail/meta</text>
<text text-anchor="middle" x="276.5" y="-63.5" font-family="Helvetica,sans-Serif" font-size="10.00">/cpp_future.hpp</text>
</a>
</g>
</g>
<!-- Node1&#45;&gt;Node4 -->
<g id="edge3" class="edge">
<title>Node1&#45;&gt;Node4</title>
<path fill="none" stroke="midnightblue" d="M180.72,-123.4C200.26,-113.02 222.54,-101.18 240.69,-91.53"/>
<polygon fill="midnightblue" stroke="midnightblue" points="242.58,-94.49 249.77,-86.71 239.3,-88.31 242.58,-94.49"/>
</g>
<!-- Node5 -->
<g id="node5" class="node">
<title>Node5</title>
<g id="a_node5"><a xlink:title=" ">
<polygon fill="white" stroke="#bfbfbf" points="177.5,-0.5 177.5,-19.5 231.5,-19.5 231.5,-0.5 177.5,-0.5"/>
<text text-anchor="middle" x="204.5" y="-7.5" font-family="Helvetica,sans-Serif" font-size="10.00">ciso646</text>
</a>
</g>
</g>
<!-- Node4&#45;&gt;Node5 -->
<g id="edge4" class="edge">
<title>Node4&#45;&gt;Node5</title>
<path fill="none" stroke="midnightblue" d="M259.44,-56.4C248.44,-47.31 234.13,-35.49 222.88,-26.19"/>
<polygon fill="midnightblue" stroke="midnightblue" points="224.91,-23.33 214.98,-19.66 220.46,-28.73 224.91,-23.33"/>
</g>
<!-- Node6 -->
<g id="node6" class="node">
<title>Node6</title>
<g id="a_node6"><a xlink:title=" ">
<polygon fill="white" stroke="#bfbfbf" points="250,-0.5 250,-19.5 303,-19.5 303,-0.5 250,-0.5"/>
<text text-anchor="middle" x="276.5" y="-7.5" font-family="Helvetica,sans-Serif" font-size="10.00">cstddef</text>
</a>
</g>
</g>
<!-- Node4&#45;&gt;Node6 -->
<g id="edge5" class="edge">
<title>Node4&#45;&gt;Node6</title>
<path fill="none" stroke="midnightblue" d="M276.5,-56.4C276.5,-48.47 276.5,-38.46 276.5,-29.86"/>
<polygon fill="midnightblue" stroke="midnightblue" points="280,-29.66 276.5,-19.66 273,-29.66 280,-29.66"/>
</g>
<!-- Node7 -->
<g id="node7" class="node">
<title>Node7</title>
<g id="a_node7"><a xlink:title=" ">
<polygon fill="white" stroke="#bfbfbf" points="321,-0.5 321,-19.5 390,-19.5 390,-0.5 321,-0.5"/>
<text text-anchor="middle" x="355.5" y="-7.5" font-family="Helvetica,sans-Serif" font-size="10.00">type_traits</text>
</a>
</g>
</g>
<!-- Node4&#45;&gt;Node7 -->
<g id="edge6" class="edge">
<title>Node4&#45;&gt;Node7</title>
<path fill="none" stroke="midnightblue" d="M295.22,-56.4C307.41,-47.22 323.29,-35.26 335.69,-25.92"/>
<polygon fill="midnightblue" stroke="midnightblue" points="338.12,-28.47 344,-19.66 333.91,-22.88 338.12,-28.47"/>
</g>
</g>
</svg>
