<?xml version="1.0" encoding="UTF-8" standalone="no"?>
<!DOCTYPE svg PUBLIC "-//W3C//DTD SVG 1.1//EN"
 "http://www.w3.org/Graphics/SVG/1.1/DTD/svg11.dtd">
<!-- Generated by graphviz version 2.43.0 (0)
 -->
<!-- Title: mc_orchestrator/json&#45;3.7.3/include/nlohmann/detail/input/json_sax.hpp Pages: 1 -->
<!--zoomable 240 -->
<svg id="main" version="1.1" xmlns="http://www.w3.org/2000/svg" xmlns:xlink="http://www.w3.org/1999/xlink" xml:space="preserve" onload="init(evt)">
<style type="text/css"><![CDATA[
.edge:hover path { stroke: red; }
.edge:hover polygon { stroke: red; fill: red; }
]]></style>
<script type="text/javascript"><![CDATA[
var edges = document.getElementsByTagName('g');
if (edges && edges.length) {
  for (var i=0;i<edges.length;i++) {
    if (edges[i].id.substr(0,4)=='edge') {
      edges[i].setAttribute('class','edge');
    }
  }
}
]]></script>
        <defs>
                <circle id="rim" cx="0" cy="0" r="7"/>
                <circle id="rim2" cx="0" cy="0" r="3.5"/>
                <g id="zoomPlus">
                        <use xlink:href="#rim" fill="#404040">
                                <set attributeName="fill" to="#808080" begin="zoomplus.mouseover" end="zoomplus.mouseout"/>
                        </use>
                        <path d="M-4,0h8M0,-4v8" fill="none" stroke="white" stroke-width="1.5" pointer-events="none"/>
                </g>
                <g id="zoomMin">
                        <use xlink:href="#rim" fill="#404040">
                                <set attributeName="fill" to="#808080" begin="zoomminus.mouseover" end="zoomminus.mouseout"/>
                        </use>
                        <path d="M-4,0h8" fill="none" stroke="white" stroke-width="1.5" pointer-events="none"/>
                </g>
                <g id="dirArrow">
                        <path fill="none" stroke="white" stroke-width="1.5" d="M0,-3.0v7 M-2.5,-0.5L0,-3.0L2.5,-0.5"/>
                </g>
               <g id="resetDef">
                       <use xlink:href="#rim2" fill="#404040">
                               <set attributeName="fill" to="#808080" begin="reset.mouseover" end="reset.mouseout"/>
                       </use>
               </g>
        </defs>

<script type="text/javascript">
var viewWidth = 661;
var viewHeight = 240;
var sectionId = 'dynsection-0';
</script>
<script xlink:href="svgpan.js"/>
<svg id="graph" class="graph">
<g id="viewport">
<title>mc_orchestrator/json&#45;3.7.3/include/nlohmann/detail/input/json_sax.hpp</title>
<polygon fill="white" stroke="transparent" points="-4,4 -4,-236 656.5,-236 656.5,4 -4,4"/>
<!-- Node1 -->
<g id="node1" class="node">
<title>Node1</title>
<g id="a_node1"><a xlink:title=" ">
<polygon fill="#bfbfbf" stroke="black" points="241,-190.5 241,-231.5 383,-231.5 383,-190.5 241,-190.5"/>
<text text-anchor="start" x="249" y="-219.5" font-family="Helvetica,sans-Serif" font-size="10.00">mc_orchestrator/json</text>
<text text-anchor="start" x="249" y="-208.5" font-family="Helvetica,sans-Serif" font-size="10.00">&#45;3.7.3/include/nlohmann</text>
<text text-anchor="middle" x="312" y="-197.5" font-family="Helvetica,sans-Serif" font-size="10.00">/detail/input/json_sax.hpp</text>
</a>
</g>
</g>
<!-- Node2 -->
<g id="node2" class="node">
<title>Node2</title>
<g id="a_node2"><a xlink:title=" ">
<polygon fill="white" stroke="#bfbfbf" points="0,-134.5 0,-153.5 52,-153.5 52,-134.5 0,-134.5"/>
<text text-anchor="middle" x="26" y="-141.5" font-family="Helvetica,sans-Serif" font-size="10.00">cassert</text>
</a>
</g>
</g>
<!-- Node1&#45;&gt;Node2 -->
<g id="edge1" class="edge">
<title>Node1&#45;&gt;Node2</title>
<path fill="none" stroke="midnightblue" d="M240.94,-193.85C184.15,-180.94 106.9,-163.39 62.14,-153.21"/>
<polygon fill="midnightblue" stroke="midnightblue" points="62.83,-149.78 52.3,-150.98 61.28,-156.61 62.83,-149.78"/>
</g>
<!-- Node3 -->
<g id="node3" class="node">
<title>Node3</title>
<g id="a_node3"><a xlink:title=" ">
<polygon fill="white" stroke="#bfbfbf" points="129.5,-6 129.5,-25 182.5,-25 182.5,-6 129.5,-6"/>
<text text-anchor="middle" x="156" y="-13" font-family="Helvetica,sans-Serif" font-size="10.00">cstddef</text>
</a>
</g>
</g>
<!-- Node1&#45;&gt;Node3 -->
<g id="edge2" class="edge">
<title>Node1&#45;&gt;Node3</title>
<path fill="none" stroke="midnightblue" d="M240.76,-194.29C190.74,-179.02 127.83,-150.21 99,-98 92.34,-85.94 93.35,-79.56 99,-67 105.77,-51.96 119.47,-39.59 131.75,-30.86"/>
<polygon fill="midnightblue" stroke="midnightblue" points="133.93,-33.61 140.31,-25.15 130.05,-27.78 133.93,-33.61"/>
</g>
<!-- Node4 -->
<g id="node4" class="node">
<title>Node4</title>
<g id="a_node4"><a xlink:title=" ">
<polygon fill="white" stroke="#bfbfbf" points="108,-73 108,-92 152,-92 152,-73 108,-73"/>
<text text-anchor="middle" x="130" y="-80" font-family="Helvetica,sans-Serif" font-size="10.00">string</text>
</a>
</g>
</g>
<!-- Node1&#45;&gt;Node4 -->
<g id="edge3" class="edge">
<title>Node1&#45;&gt;Node4</title>
<path fill="none" stroke="midnightblue" d="M275.15,-190.31C256.92,-180.13 234.85,-167.1 216,-154 191.16,-136.74 164.51,-114.19 147.57,-99.3"/>
<polygon fill="midnightblue" stroke="midnightblue" points="149.46,-96.3 139.66,-92.28 144.82,-101.54 149.46,-96.3"/>
</g>
<!-- Node5 -->
<g id="node5" class="node">
<title>Node5</title>
<g id="a_node5"><a xlink:title=" ">
<polygon fill="white" stroke="#bfbfbf" points="607.5,-6 607.5,-25 652.5,-25 652.5,-6 607.5,-6"/>
<text text-anchor="middle" x="630" y="-13" font-family="Helvetica,sans-Serif" font-size="10.00">utility</text>
</a>
</g>
</g>
<!-- Node1&#45;&gt;Node5 -->
<g id="edge4" class="edge">
<title>Node1&#45;&gt;Node5</title>
<path fill="none" stroke="midnightblue" d="M383.04,-205.59C455.01,-196.97 563.29,-171.7 618,-98 631.49,-79.83 632.89,-52.98 631.99,-35.12"/>
<polygon fill="midnightblue" stroke="midnightblue" points="635.47,-34.79 631.19,-25.1 628.49,-35.35 635.47,-34.79"/>
</g>
<!-- Node6 -->
<g id="node6" class="node">
<title>Node6</title>
<g id="a_node6"><a xlink:title=" ">
<polygon fill="white" stroke="#bfbfbf" points="416.5,-134.5 416.5,-153.5 463.5,-153.5 463.5,-134.5 416.5,-134.5"/>
<text text-anchor="middle" x="440" y="-141.5" font-family="Helvetica,sans-Serif" font-size="10.00">vector</text>
</a>
</g>
</g>
<!-- Node1&#45;&gt;Node6 -->
<g id="edge5" class="edge">
<title>Node1&#45;&gt;Node6</title>
<path fill="none" stroke="midnightblue" d="M350.4,-190.5C370.88,-180.1 395.54,-167.58 413.8,-158.31"/>
<polygon fill="midnightblue" stroke="midnightblue" points="415.63,-161.3 422.96,-153.65 412.46,-155.06 415.63,-161.3"/>
</g>
<!-- Node7 -->
<g id="node7" class="node">
<title>Node7</title>
<g id="a_node7"><a xlink:href="exceptions_8hpp.html" target="_top" xlink:title=" ">
<polygon fill="white" stroke="black" points="225.5,-134.5 225.5,-153.5 398.5,-153.5 398.5,-134.5 225.5,-134.5"/>
<text text-anchor="middle" x="312" y="-141.5" font-family="Helvetica,sans-Serif" font-size="10.00">nlohmann/detail/exceptions.hpp</text>
</a>
</g>
</g>
<!-- Node1&#45;&gt;Node7 -->
<g id="edge6" class="edge">
<title>Node1&#45;&gt;Node7</title>
<path fill="none" stroke="midnightblue" d="M312,-190.5C312,-182.07 312,-172.24 312,-163.87"/>
<polygon fill="midnightblue" stroke="midnightblue" points="315.5,-163.65 312,-153.65 308.5,-163.65 315.5,-163.65"/>
</g>
<!-- Node11 -->
<g id="node11" class="node">
<title>Node11</title>
<g id="a_node11"><a xlink:href="macro__scope_8hpp.html" target="_top" xlink:title=" ">
<polygon fill="white" stroke="black" points="479,-67.5 479,-97.5 609,-97.5 609,-67.5 479,-67.5"/>
<text text-anchor="start" x="487" y="-85.5" font-family="Helvetica,sans-Serif" font-size="10.00">nlohmann/detail/macro</text>
<text text-anchor="middle" x="544" y="-74.5" font-family="Helvetica,sans-Serif" font-size="10.00">_scope.hpp</text>
</a>
</g>
</g>
<!-- Node1&#45;&gt;Node11 -->
<g id="edge16" class="edge">
<title>Node1&#45;&gt;Node11</title>
<path fill="none" stroke="midnightblue" d="M383.12,-192.43C412,-183.47 444.87,-170.85 472,-154 492.94,-140.99 512.64,-120.95 526.12,-105.55"/>
<polygon fill="midnightblue" stroke="midnightblue" points="529.12,-107.43 532.94,-97.55 523.79,-102.89 529.12,-107.43"/>
</g>
<!-- Node7&#45;&gt;Node4 -->
<g id="edge9" class="edge">
<title>Node7&#45;&gt;Node4</title>
<path fill="none" stroke="midnightblue" d="M278.24,-134.48C247.32,-126.31 200.5,-113.03 161,-98 159.58,-97.46 158.13,-96.88 156.67,-96.28"/>
<polygon fill="midnightblue" stroke="midnightblue" points="157.75,-92.93 147.18,-92.09 154.92,-99.33 157.75,-92.93"/>
</g>
<!-- Node8 -->
<g id="node8" class="node">
<title>Node8</title>
<g id="a_node8"><a xlink:title=" ">
<polygon fill="white" stroke="#bfbfbf" points="395.5,-73 395.5,-92 460.5,-92 460.5,-73 395.5,-73"/>
<text text-anchor="middle" x="428" y="-80" font-family="Helvetica,sans-Serif" font-size="10.00">exception</text>
</a>
</g>
</g>
<!-- Node7&#45;&gt;Node8 -->
<g id="edge7" class="edge">
<title>Node7&#45;&gt;Node8</title>
<path fill="none" stroke="midnightblue" d="M328.62,-134.48C347.92,-124.58 379.96,-108.14 402.43,-96.62"/>
<polygon fill="midnightblue" stroke="midnightblue" points="404.11,-99.69 411.41,-92.01 400.92,-93.46 404.11,-99.69"/>
</g>
<!-- Node9 -->
<g id="node9" class="node">
<title>Node9</title>
<g id="a_node9"><a xlink:title=" ">
<polygon fill="white" stroke="#bfbfbf" points="312.5,-73 312.5,-92 377.5,-92 377.5,-73 312.5,-73"/>
<text text-anchor="middle" x="345" y="-80" font-family="Helvetica,sans-Serif" font-size="10.00">stdexcept</text>
</a>
</g>
</g>
<!-- Node7&#45;&gt;Node9 -->
<g id="edge8" class="edge">
<title>Node7&#45;&gt;Node9</title>
<path fill="none" stroke="midnightblue" d="M316.73,-134.48C321.58,-125.73 329.27,-111.87 335.4,-100.81"/>
<polygon fill="midnightblue" stroke="midnightblue" points="338.49,-102.45 340.28,-92.01 332.37,-99.06 338.49,-102.45"/>
</g>
<!-- Node10 -->
<g id="node10" class="node">
<title>Node10</title>
<g id="a_node10"><a xlink:href="position__t_8hpp.html" target="_top" xlink:title=" ">
<polygon fill="white" stroke="black" points="170,-67.5 170,-97.5 294,-97.5 294,-67.5 170,-67.5"/>
<text text-anchor="start" x="178" y="-85.5" font-family="Helvetica,sans-Serif" font-size="10.00">nlohmann/detail/input</text>
<text text-anchor="middle" x="232" y="-74.5" font-family="Helvetica,sans-Serif" font-size="10.00">/position_t.hpp</text>
</a>
</g>
</g>
<!-- Node7&#45;&gt;Node10 -->
<g id="edge10" class="edge">
<title>Node7&#45;&gt;Node10</title>
<path fill="none" stroke="midnightblue" d="M300.54,-134.48C289.8,-126.49 273.35,-114.25 259.25,-103.77"/>
<polygon fill="midnightblue" stroke="midnightblue" points="260.97,-100.68 250.85,-97.52 256.79,-106.3 260.97,-100.68"/>
</g>
<!-- Node7&#45;&gt;Node11 -->
<g id="edge12" class="edge">
<title>Node7&#45;&gt;Node11</title>
<path fill="none" stroke="midnightblue" d="M345.24,-134.48C380.11,-125.53 435.8,-111.25 479.38,-100.07"/>
<polygon fill="midnightblue" stroke="midnightblue" points="480.51,-103.4 489.32,-97.52 478.77,-96.62 480.51,-103.4"/>
</g>
<!-- Node10&#45;&gt;Node3 -->
<g id="edge11" class="edge">
<title>Node10&#45;&gt;Node3</title>
<path fill="none" stroke="midnightblue" d="M215.51,-67.4C203.31,-56.96 186.69,-42.75 174.12,-32"/>
<polygon fill="midnightblue" stroke="midnightblue" points="176.04,-29.03 166.17,-25.19 171.49,-34.35 176.04,-29.03"/>
</g>
<!-- Node11&#45;&gt;Node5 -->
<g id="edge13" class="edge">
<title>Node11&#45;&gt;Node5</title>
<path fill="none" stroke="midnightblue" d="M562.66,-67.4C576.73,-56.76 595.99,-42.2 610.31,-31.38"/>
<polygon fill="midnightblue" stroke="midnightblue" points="612.63,-34.02 618.5,-25.19 608.41,-28.43 612.63,-34.02"/>
</g>
<!-- Node12 -->
<g id="node12" class="node">
<title>Node12</title>
<g id="a_node12"><a xlink:href="hedley_8hpp.html" target="_top" xlink:title=" ">
<polygon fill="white" stroke="black" points="392,-0.5 392,-30.5 508,-30.5 508,-0.5 392,-0.5"/>
<text text-anchor="start" x="400" y="-18.5" font-family="Helvetica,sans-Serif" font-size="10.00">nlohmann/thirdparty</text>
<text text-anchor="middle" x="450" y="-7.5" font-family="Helvetica,sans-Serif" font-size="10.00">/hedley/hedley.hpp</text>
</a>
</g>
</g>
<!-- Node11&#45;&gt;Node12 -->
<g id="edge14" class="edge">
<title>Node11&#45;&gt;Node12</title>
<path fill="none" stroke="midnightblue" d="M523.6,-67.4C510.55,-58.37 493.4,-46.51 478.95,-36.52"/>
<polygon fill="midnightblue" stroke="midnightblue" points="480.57,-33.39 470.36,-30.58 476.59,-39.14 480.57,-33.39"/>
</g>
<!-- Node13 -->
<g id="node13" class="node">
<title>Node13</title>
<g id="a_node13"><a xlink:title=" ">
<polygon fill="white" stroke="#bfbfbf" points="526.5,-6 526.5,-25 575.5,-25 575.5,-6 526.5,-6"/>
<text text-anchor="middle" x="551" y="-13" font-family="Helvetica,sans-Serif" font-size="10.00">cstdlib</text>
</a>
</g>
</g>
<!-- Node11&#45;&gt;Node13 -->
<g id="edge15" class="edge">
<title>Node11&#45;&gt;Node13</title>
<path fill="none" stroke="midnightblue" d="M545.52,-67.4C546.53,-57.96 547.88,-45.45 548.99,-35.19"/>
<polygon fill="midnightblue" stroke="midnightblue" points="552.47,-35.51 550.06,-25.19 545.51,-34.76 552.47,-35.51"/>
</g>
</g>
</svg>
        <g id="navigator" transform="translate(0 0)" fill="#404254">
                <rect fill="#f2f5e9" fill-opacity="0.5" stroke="#606060" stroke-width=".5" x="0" y="0" width="60" height="60"/>
                <use id="zoomplus" xlink:href="#zoomPlus" x="17" y="9" onmousedown="handleZoom(evt,'in')"/>
                <use id="zoomminus" xlink:href="#zoomMin" x="42" y="9" onmousedown="handleZoom(evt,'out')"/>
                <use id="reset" xlink:href="#resetDef" x="30" y="36" onmousedown="handleReset()"/>
                <g id="arrowUp" xlink:href="#dirArrow" transform="translate(30 24)" onmousedown="handlePan(0,-1)">
                  <use xlink:href="#rim" fill="#404040">
                        <set attributeName="fill" to="#808080" begin="arrowUp.mouseover" end="arrowUp.mouseout"/>
                  </use>
                  <path fill="none" stroke="white" stroke-width="1.5" d="M0,-3.0v7 M-2.5,-0.5L0,-3.0L2.5,-0.5"/>
                </g>
                <g id="arrowRight" xlink:href="#dirArrow" transform="rotate(90) translate(36 -43)" onmousedown="handlePan(1,0)">
                  <use xlink:href="#rim" fill="#404040">
                        <set attributeName="fill" to="#808080" begin="arrowRight.mouseover" end="arrowRight.mouseout"/>
                  </use>
                  <path fill="none" stroke="white" stroke-width="1.5" d="M0,-3.0v7 M-2.5,-0.5L0,-3.0L2.5,-0.5"/>
                </g>
                <g id="arrowDown" xlink:href="#dirArrow" transform="rotate(180) translate(-30 -48)" onmousedown="handlePan(0,1)">
                  <use xlink:href="#rim" fill="#404040">
                        <set attributeName="fill" to="#808080" begin="arrowDown.mouseover" end="arrowDown.mouseout"/>
                  </use>
                  <path fill="none" stroke="white" stroke-width="1.5" d="M0,-3.0v7 M-2.5,-0.5L0,-3.0L2.5,-0.5"/>
                </g>
                <g id="arrowLeft" xlink:href="#dirArrow" transform="rotate(270) translate(-36 17)" onmousedown="handlePan(-1,0)">
                  <use xlink:href="#rim" fill="#404040">
                        <set attributeName="fill" to="#808080" begin="arrowLeft.mouseover" end="arrowLeft.mouseout"/>
                  </use>
                  <path fill="none" stroke="white" stroke-width="1.5" d="M0,-3.0v7 M-2.5,-0.5L0,-3.0L2.5,-0.5"/>
                </g>
        </g>
        <svg viewBox="0 0 15 15" width="100%" height="30px" preserveAspectRatio="xMaxYMin meet">
         <g id="arrow_out" transform="scale(0.3 0.3)">
          <a xlink:href="json__sax_8hpp__incl_org.svg" target="_base">
           <rect id="button" ry="5" rx="5" y="6" x="6" height="38" width="38"
                fill="#f2f5e9" fill-opacity="0.5" stroke="#606060" stroke-width="1.0"/>
           <path id="arrow"
             d="M 11.500037,31.436501 C 11.940474,20.09759 22.043105,11.32322 32.158766,21.979434 L 37.068811,17.246167 C 37.068811,17.246167 37.088388,32 37.088388,32 L 22.160133,31.978069 C 22.160133,31.978069 26.997745,27.140456 26.997745,27.140456 C 18.528582,18.264221 13.291696,25.230495 11.500037,31.436501 z"
             style="fill:#404040;"/>
          </a>
         </g>
        </svg>
</svg>
