<?xml version="1.0" encoding="UTF-8" standalone="no"?>
<!DOCTYPE svg PUBLIC "-//W3C//DTD SVG 1.1//EN"
 "http://www.w3.org/Graphics/SVG/1.1/DTD/svg11.dtd">
<!-- Generated by graphviz version 2.43.0 (0)
 -->
<!-- Title: mc_orchestrator/json&#45;3.7.3/include/nlohmann/detail/json_ref.hpp Pages: 1 -->
<svg width="1062pt" height="307pt"
 viewBox="0.00 0.00 1062.00 307.00" xmlns="http://www.w3.org/2000/svg" xmlns:xlink="http://www.w3.org/1999/xlink">
<g id="graph0" class="graph" transform="scale(1 1) rotate(0) translate(4 303)">
<title>mc_orchestrator/json&#45;3.7.3/include/nlohmann/detail/json_ref.hpp</title>
<polygon fill="white" stroke="transparent" points="-4,4 -4,-303 1058,-303 1058,4 -4,4"/>
<!-- Node1 -->
<g id="node1" class="node">
<title>Node1</title>
<g id="a_node1"><a xlink:title=" ">
<polygon fill="#bfbfbf" stroke="black" points="344,-257.5 344,-298.5 478,-298.5 478,-257.5 344,-257.5"/>
<text text-anchor="start" x="352" y="-286.5" font-family="Helvetica,sans-Serif" font-size="10.00">mc_orchestrator/json</text>
<text text-anchor="start" x="352" y="-275.5" font-family="Helvetica,sans-Serif" font-size="10.00">&#45;3.7.3/include/nlohmann</text>
<text text-anchor="middle" x="411" y="-264.5" font-family="Helvetica,sans-Serif" font-size="10.00">/detail/json_ref.hpp</text>
</a>
</g>
</g>
<!-- Node2 -->
<g id="node2" class="node">
<title>Node2</title>
<g id="a_node2"><a xlink:title=" ">
<polygon fill="white" stroke="#bfbfbf" points="247.5,-196 247.5,-215 330.5,-215 330.5,-196 247.5,-196"/>
<text text-anchor="middle" x="289" y="-203" font-family="Helvetica,sans-Serif" font-size="10.00">initializer_list</text>
</a>
</g>
</g>
<!-- Node1&#45;&gt;Node2 -->
<g id="edge1" class="edge">
<title>Node1&#45;&gt;Node2</title>
<path fill="none" stroke="midnightblue" d="M377.02,-257.36C356.6,-245.57 331.13,-230.85 312.85,-220.28"/>
<polygon fill="midnightblue" stroke="midnightblue" points="314.42,-217.15 304.01,-215.17 310.92,-223.21 314.42,-217.15"/>
</g>
<!-- Node3 -->
<g id="node3" class="node">
<title>Node3</title>
<g id="a_node3"><a xlink:title=" ">
<polygon fill="white" stroke="#bfbfbf" points="681.5,-62 681.5,-81 726.5,-81 726.5,-62 681.5,-62"/>
<text text-anchor="middle" x="704" y="-69" font-family="Helvetica,sans-Serif" font-size="10.00">utility</text>
</a>
</g>
</g>
<!-- Node1&#45;&gt;Node3 -->
<g id="edge2" class="edge">
<title>Node1&#45;&gt;Node3</title>
<path fill="none" stroke="midnightblue" d="M475.59,-257.5C530.12,-238.36 607.51,-204.62 660,-154 678.49,-136.17 691.04,-108.85 697.86,-90.84"/>
<polygon fill="midnightblue" stroke="midnightblue" points="701.23,-91.81 701.29,-81.22 694.63,-89.46 701.23,-91.81"/>
</g>
<!-- Node4 -->
<g id="node4" class="node">
<title>Node4</title>
<g id="a_node4"><a xlink:href="type__traits_8hpp.html" target="_top" xlink:title=" ">
<polygon fill="white" stroke="black" points="348.5,-190.5 348.5,-220.5 473.5,-220.5 473.5,-190.5 348.5,-190.5"/>
<text text-anchor="start" x="356.5" y="-208.5" font-family="Helvetica,sans-Serif" font-size="10.00">nlohmann/detail/meta</text>
<text text-anchor="middle" x="411" y="-197.5" font-family="Helvetica,sans-Serif" font-size="10.00">/type_traits.hpp</text>
</a>
</g>
</g>
<!-- Node1&#45;&gt;Node4 -->
<g id="edge3" class="edge">
<title>Node1&#45;&gt;Node4</title>
<path fill="none" stroke="midnightblue" d="M411,-257.36C411,-249.23 411,-239.7 411,-231.11"/>
<polygon fill="midnightblue" stroke="midnightblue" points="414.5,-230.89 411,-220.89 407.5,-230.89 414.5,-230.89"/>
</g>
<!-- Node4&#45;&gt;Node3 -->
<g id="edge7" class="edge">
<title>Node4&#45;&gt;Node3</title>
<path fill="none" stroke="midnightblue" d="M473.62,-199.53C518.75,-193.72 579.76,-181.16 627,-154 655.01,-137.9 679.06,-108.42 692.52,-89.68"/>
<polygon fill="midnightblue" stroke="midnightblue" points="695.57,-91.42 698.4,-81.21 689.82,-87.43 695.57,-91.42"/>
</g>
<!-- Node5 -->
<g id="node5" class="node">
<title>Node5</title>
<g id="a_node5"><a xlink:title=" ">
<polygon fill="white" stroke="#bfbfbf" points="0,-0.5 0,-19.5 54,-19.5 54,-0.5 0,-0.5"/>
<text text-anchor="middle" x="27" y="-7.5" font-family="Helvetica,sans-Serif" font-size="10.00">ciso646</text>
</a>
</g>
</g>
<!-- Node4&#45;&gt;Node5 -->
<g id="edge4" class="edge">
<title>Node4&#45;&gt;Node5</title>
<path fill="none" stroke="midnightblue" d="M348.22,-191.59C345.1,-191.04 342.02,-190.5 339,-190 278.2,-179.91 112.97,-191.42 64,-154 25.71,-124.74 23.7,-61.38 25.33,-29.75"/>
<polygon fill="midnightblue" stroke="midnightblue" points="28.83,-29.88 26.04,-19.66 21.85,-29.39 28.83,-29.88"/>
</g>
<!-- Node6 -->
<g id="node6" class="node">
<title>Node6</title>
<g id="a_node6"><a xlink:title=" ">
<polygon fill="white" stroke="#bfbfbf" points="83,-129 83,-148 127,-148 127,-129 83,-129"/>
<text text-anchor="middle" x="105" y="-136" font-family="Helvetica,sans-Serif" font-size="10.00">limits</text>
</a>
</g>
</g>
<!-- Node4&#45;&gt;Node6 -->
<g id="edge5" class="edge">
<title>Node4&#45;&gt;Node6</title>
<path fill="none" stroke="midnightblue" d="M348.19,-191.76C345.08,-191.16 342.01,-190.57 339,-190 248.97,-172.95 223.36,-181.65 136,-154 134.33,-153.47 132.62,-152.87 130.92,-152.22"/>
<polygon fill="midnightblue" stroke="midnightblue" points="131.98,-148.87 121.41,-148.15 129.23,-155.3 131.98,-148.87"/>
</g>
<!-- Node7 -->
<g id="node7" class="node">
<title>Node7</title>
<g id="a_node7"><a xlink:title=" ">
<polygon fill="white" stroke="#bfbfbf" points="378.5,-0.5 378.5,-19.5 447.5,-19.5 447.5,-0.5 378.5,-0.5"/>
<text text-anchor="middle" x="413" y="-7.5" font-family="Helvetica,sans-Serif" font-size="10.00">type_traits</text>
</a>
</g>
</g>
<!-- Node4&#45;&gt;Node7 -->
<g id="edge6" class="edge">
<title>Node4&#45;&gt;Node7</title>
<path fill="none" stroke="midnightblue" d="M420.7,-190.21C426.7,-180.47 433.84,-167.03 437,-154 447.73,-109.72 431.29,-56.58 420.74,-29.24"/>
<polygon fill="midnightblue" stroke="midnightblue" points="423.92,-27.75 416.93,-19.79 417.43,-30.38 423.92,-27.75"/>
</g>
<!-- Node8 -->
<g id="node8" class="node">
<title>Node8</title>
<g id="a_node8"><a xlink:href="iterator__traits_8hpp.html" target="_top" xlink:title=" ">
<polygon fill="white" stroke="black" points="145,-123.5 145,-153.5 285,-153.5 285,-123.5 145,-123.5"/>
<text text-anchor="start" x="153" y="-141.5" font-family="Helvetica,sans-Serif" font-size="10.00">nlohmann/detail/iterators</text>
<text text-anchor="middle" x="215" y="-130.5" font-family="Helvetica,sans-Serif" font-size="10.00">/iterator_traits.hpp</text>
</a>
</g>
</g>
<!-- Node4&#45;&gt;Node8 -->
<g id="edge8" class="edge">
<title>Node4&#45;&gt;Node8</title>
<path fill="none" stroke="midnightblue" d="M368.47,-190.4C338.68,-180.52 298.68,-167.25 266.99,-156.74"/>
<polygon fill="midnightblue" stroke="midnightblue" points="268.04,-153.4 257.45,-153.58 265.84,-160.05 268.04,-153.4"/>
</g>
<!-- Node11 -->
<g id="node11" class="node">
<title>Node11</title>
<g id="a_node11"><a xlink:href="cpp__future_8hpp.html" target="_top" xlink:title=" ">
<polygon fill="white" stroke="black" points="45.5,-56.5 45.5,-86.5 170.5,-86.5 170.5,-56.5 45.5,-56.5"/>
<text text-anchor="start" x="53.5" y="-74.5" font-family="Helvetica,sans-Serif" font-size="10.00">nlohmann/detail/meta</text>
<text text-anchor="middle" x="108" y="-63.5" font-family="Helvetica,sans-Serif" font-size="10.00">/cpp_future.hpp</text>
</a>
</g>
</g>
<!-- Node4&#45;&gt;Node11 -->
<g id="edge19" class="edge">
<title>Node4&#45;&gt;Node11</title>
<path fill="none" stroke="midnightblue" d="M348.22,-191.61C345.1,-191.05 342.02,-190.51 339,-190 280.4,-180.13 113.09,-198.76 74,-154 59.09,-136.93 72.74,-112.4 86.93,-94.72"/>
<polygon fill="midnightblue" stroke="midnightblue" points="89.99,-96.53 93.82,-86.65 84.66,-91.98 89.99,-96.53"/>
</g>
<!-- Node13 -->
<g id="node13" class="node">
<title>Node13</title>
<g id="a_node13"><a xlink:href="macro__scope_8hpp.html" target="_top" xlink:title=" ">
<polygon fill="white" stroke="black" points="488,-123.5 488,-153.5 618,-153.5 618,-123.5 488,-123.5"/>
<text text-anchor="start" x="496" y="-141.5" font-family="Helvetica,sans-Serif" font-size="10.00">nlohmann/detail/macro</text>
<text text-anchor="middle" x="553" y="-130.5" font-family="Helvetica,sans-Serif" font-size="10.00">_scope.hpp</text>
</a>
</g>
</g>
<!-- Node4&#45;&gt;Node13 -->
<g id="edge15" class="edge">
<title>Node4&#45;&gt;Node13</title>
<path fill="none" stroke="midnightblue" d="M441.81,-190.4C462.65,-180.86 490.38,-168.16 512.93,-157.84"/>
<polygon fill="midnightblue" stroke="midnightblue" points="514.61,-160.92 522.25,-153.58 511.7,-154.56 514.61,-160.92"/>
</g>
<!-- Node16 -->
<g id="node16" class="node">
<title>Node16</title>
<g id="a_node16"><a xlink:href="detected_8hpp.html" target="_top" xlink:title=" ">
<polygon fill="white" stroke="black" points="303.5,-123.5 303.5,-153.5 428.5,-153.5 428.5,-123.5 303.5,-123.5"/>
<text text-anchor="start" x="311.5" y="-141.5" font-family="Helvetica,sans-Serif" font-size="10.00">nlohmann/detail/meta</text>
<text text-anchor="middle" x="366" y="-130.5" font-family="Helvetica,sans-Serif" font-size="10.00">/detected.hpp</text>
</a>
</g>
</g>
<!-- Node4&#45;&gt;Node16 -->
<g id="edge20" class="edge">
<title>Node4&#45;&gt;Node16</title>
<path fill="none" stroke="midnightblue" d="M401.24,-190.4C395.46,-182.05 388.01,-171.29 381.45,-161.81"/>
<polygon fill="midnightblue" stroke="midnightblue" points="384.32,-159.81 375.75,-153.58 378.56,-163.79 384.32,-159.81"/>
</g>
<!-- Node17 -->
<g id="node17" class="node">
<title>Node17</title>
<g id="a_node17"><a xlink:href="json__fwd_8hpp.html" target="_top" xlink:title=" ">
<polygon fill="white" stroke="black" points="799.5,-129 799.5,-148 932.5,-148 932.5,-129 799.5,-129"/>
<text text-anchor="middle" x="866" y="-136" font-family="Helvetica,sans-Serif" font-size="10.00">nlohmann/json_fwd.hpp</text>
</a>
</g>
</g>
<!-- Node4&#45;&gt;Node17 -->
<g id="edge23" class="edge">
<title>Node4&#45;&gt;Node17</title>
<path fill="none" stroke="midnightblue" d="M473.79,-195.53C558.33,-183.45 708.26,-162.03 796.24,-149.47"/>
<polygon fill="midnightblue" stroke="midnightblue" points="796.98,-152.9 806.39,-148.02 795.99,-145.97 796.98,-152.9"/>
</g>
<!-- Node9 -->
<g id="node9" class="node">
<title>Node9</title>
<g id="a_node9"><a xlink:title=" ">
<polygon fill="white" stroke="#bfbfbf" points="188.5,-62 188.5,-81 241.5,-81 241.5,-62 188.5,-62"/>
<text text-anchor="middle" x="215" y="-69" font-family="Helvetica,sans-Serif" font-size="10.00">iterator</text>
</a>
</g>
</g>
<!-- Node8&#45;&gt;Node9 -->
<g id="edge9" class="edge">
<title>Node8&#45;&gt;Node9</title>
<path fill="none" stroke="midnightblue" d="M215,-123.4C215,-114.06 215,-101.71 215,-91.52"/>
<polygon fill="midnightblue" stroke="midnightblue" points="218.5,-91.19 215,-81.19 211.5,-91.19 218.5,-91.19"/>
</g>
<!-- Node10 -->
<g id="node10" class="node">
<title>Node10</title>
<g id="a_node10"><a xlink:href="void__t_8hpp.html" target="_top" xlink:title=" ">
<polygon fill="white" stroke="black" points="259.5,-56.5 259.5,-86.5 384.5,-86.5 384.5,-56.5 259.5,-56.5"/>
<text text-anchor="start" x="267.5" y="-74.5" font-family="Helvetica,sans-Serif" font-size="10.00">nlohmann/detail/meta</text>
<text text-anchor="middle" x="322" y="-63.5" font-family="Helvetica,sans-Serif" font-size="10.00">/void_t.hpp</text>
</a>
</g>
</g>
<!-- Node8&#45;&gt;Node10 -->
<g id="edge10" class="edge">
<title>Node8&#45;&gt;Node10</title>
<path fill="none" stroke="midnightblue" d="M238.22,-123.4C253.36,-114.2 273.33,-102.07 289.97,-91.95"/>
<polygon fill="midnightblue" stroke="midnightblue" points="292.1,-94.76 298.83,-86.58 288.46,-88.78 292.1,-94.76"/>
</g>
<!-- Node8&#45;&gt;Node11 -->
<g id="edge11" class="edge">
<title>Node8&#45;&gt;Node11</title>
<path fill="none" stroke="midnightblue" d="M191.78,-123.4C176.64,-114.2 156.67,-102.07 140.03,-91.95"/>
<polygon fill="midnightblue" stroke="midnightblue" points="141.54,-88.78 131.17,-86.58 137.9,-94.76 141.54,-88.78"/>
</g>
<!-- Node11&#45;&gt;Node5 -->
<g id="edge12" class="edge">
<title>Node11&#45;&gt;Node5</title>
<path fill="none" stroke="midnightblue" d="M88.8,-56.4C76.18,-47.13 59.71,-35.03 46.94,-25.65"/>
<polygon fill="midnightblue" stroke="midnightblue" points="48.92,-22.76 38.79,-19.66 44.77,-28.4 48.92,-22.76"/>
</g>
<!-- Node11&#45;&gt;Node7 -->
<g id="edge14" class="edge">
<title>Node11&#45;&gt;Node7</title>
<path fill="none" stroke="midnightblue" d="M170.71,-57.65C173.51,-57.09 176.29,-56.54 179,-56 244.97,-42.92 321.52,-28.31 368.61,-19.38"/>
<polygon fill="midnightblue" stroke="midnightblue" points="369.31,-22.81 378.48,-17.51 368.01,-15.93 369.31,-22.81"/>
</g>
<!-- Node12 -->
<g id="node12" class="node">
<title>Node12</title>
<g id="a_node12"><a xlink:title=" ">
<polygon fill="white" stroke="#bfbfbf" points="81.5,-0.5 81.5,-19.5 134.5,-19.5 134.5,-0.5 81.5,-0.5"/>
<text text-anchor="middle" x="108" y="-7.5" font-family="Helvetica,sans-Serif" font-size="10.00">cstddef</text>
</a>
</g>
</g>
<!-- Node11&#45;&gt;Node12 -->
<g id="edge13" class="edge">
<title>Node11&#45;&gt;Node12</title>
<path fill="none" stroke="midnightblue" d="M108,-56.4C108,-48.47 108,-38.46 108,-29.86"/>
<polygon fill="midnightblue" stroke="midnightblue" points="111.5,-29.66 108,-19.66 104.5,-29.66 111.5,-29.66"/>
</g>
<!-- Node13&#45;&gt;Node3 -->
<g id="edge16" class="edge">
<title>Node13&#45;&gt;Node3</title>
<path fill="none" stroke="midnightblue" d="M586.69,-123.46C610.57,-113.44 643.33,-99.58 672,-87 673.36,-86.4 674.75,-85.79 676.16,-85.16"/>
<polygon fill="midnightblue" stroke="midnightblue" points="677.73,-88.3 685.42,-81.01 674.86,-81.91 677.73,-88.3"/>
</g>
<!-- Node14 -->
<g id="node14" class="node">
<title>Node14</title>
<g id="a_node14"><a xlink:href="hedley_8hpp.html" target="_top" xlink:title=" ">
<polygon fill="white" stroke="black" points="547,-56.5 547,-86.5 663,-86.5 663,-56.5 547,-56.5"/>
<text text-anchor="start" x="555" y="-74.5" font-family="Helvetica,sans-Serif" font-size="10.00">nlohmann/thirdparty</text>
<text text-anchor="middle" x="605" y="-63.5" font-family="Helvetica,sans-Serif" font-size="10.00">/hedley/hedley.hpp</text>
</a>
</g>
</g>
<!-- Node13&#45;&gt;Node14 -->
<g id="edge17" class="edge">
<title>Node13&#45;&gt;Node14</title>
<path fill="none" stroke="midnightblue" d="M564.28,-123.4C571.03,-114.96 579.75,-104.07 587.38,-94.52"/>
<polygon fill="midnightblue" stroke="midnightblue" points="590.22,-96.57 593.74,-86.58 584.76,-92.2 590.22,-96.57"/>
</g>
<!-- Node15 -->
<g id="node15" class="node">
<title>Node15</title>
<g id="a_node15"><a xlink:title=" ">
<polygon fill="white" stroke="#bfbfbf" points="479.5,-62 479.5,-81 528.5,-81 528.5,-62 479.5,-62"/>
<text text-anchor="middle" x="504" y="-69" font-family="Helvetica,sans-Serif" font-size="10.00">cstdlib</text>
</a>
</g>
</g>
<!-- Node13&#45;&gt;Node15 -->
<g id="edge18" class="edge">
<title>Node13&#45;&gt;Node15</title>
<path fill="none" stroke="midnightblue" d="M542.37,-123.4C534.8,-113.36 524.61,-99.84 516.63,-89.25"/>
<polygon fill="midnightblue" stroke="midnightblue" points="519.37,-87.07 510.55,-81.19 513.78,-91.29 519.37,-87.07"/>
</g>
<!-- Node16&#45;&gt;Node7 -->
<g id="edge21" class="edge">
<title>Node16&#45;&gt;Node7</title>
<path fill="none" stroke="midnightblue" d="M374.73,-123.34C380.53,-113.45 387.99,-99.77 393,-87 400.46,-67.99 406.04,-45.23 409.38,-29.6"/>
<polygon fill="midnightblue" stroke="midnightblue" points="412.84,-30.14 411.41,-19.64 405.98,-28.74 412.84,-30.14"/>
</g>
<!-- Node16&#45;&gt;Node10 -->
<g id="edge22" class="edge">
<title>Node16&#45;&gt;Node10</title>
<path fill="none" stroke="midnightblue" d="M356.45,-123.4C350.86,-115.13 343.67,-104.51 337.3,-95.1"/>
<polygon fill="midnightblue" stroke="midnightblue" points="340.03,-92.9 331.53,-86.58 334.24,-96.82 340.03,-92.9"/>
</g>
<!-- Node18 -->
<g id="node18" class="node">
<title>Node18</title>
<g id="a_node18"><a xlink:title=" ">
<polygon fill="white" stroke="#bfbfbf" points="810,-62 810,-81 860,-81 860,-62 810,-62"/>
<text text-anchor="middle" x="835" y="-69" font-family="Helvetica,sans-Serif" font-size="10.00">cstdint</text>
</a>
</g>
</g>
<!-- Node17&#45;&gt;Node18 -->
<g id="edge24" class="edge">
<title>Node17&#45;&gt;Node18</title>
<path fill="none" stroke="midnightblue" d="M861.82,-128.73C857.12,-118.89 849.38,-102.66 843.42,-90.16"/>
<polygon fill="midnightblue" stroke="midnightblue" points="846.58,-88.65 839.11,-81.13 840.26,-91.66 846.58,-88.65"/>
</g>
<!-- Node19 -->
<g id="node19" class="node">
<title>Node19</title>
<g id="a_node19"><a xlink:title=" ">
<polygon fill="white" stroke="#bfbfbf" points="878,-62 878,-81 916,-81 916,-62 878,-62"/>
<text text-anchor="middle" x="897" y="-69" font-family="Helvetica,sans-Serif" font-size="10.00">map</text>
</a>
</g>
</g>
<!-- Node17&#45;&gt;Node19 -->
<g id="edge25" class="edge">
<title>Node17&#45;&gt;Node19</title>
<path fill="none" stroke="midnightblue" d="M870.18,-128.73C874.88,-118.89 882.62,-102.66 888.58,-90.16"/>
<polygon fill="midnightblue" stroke="midnightblue" points="891.74,-91.66 892.89,-81.13 885.42,-88.65 891.74,-91.66"/>
</g>
<!-- Node20 -->
<g id="node20" class="node">
<title>Node20</title>
<g id="a_node20"><a xlink:title=" ">
<polygon fill="white" stroke="#bfbfbf" points="934,-62 934,-81 992,-81 992,-62 934,-62"/>
<text text-anchor="middle" x="963" y="-69" font-family="Helvetica,sans-Serif" font-size="10.00">memory</text>
</a>
</g>
</g>
<!-- Node17&#45;&gt;Node20 -->
<g id="edge26" class="edge">
<title>Node17&#45;&gt;Node20</title>
<path fill="none" stroke="midnightblue" d="M879.08,-128.73C895.15,-117.96 922.63,-99.55 941.75,-86.74"/>
<polygon fill="midnightblue" stroke="midnightblue" points="943.77,-89.6 950.13,-81.13 939.87,-83.79 943.77,-89.6"/>
</g>
<!-- Node21 -->
<g id="node21" class="node">
<title>Node21</title>
<g id="a_node21"><a xlink:title=" ">
<polygon fill="white" stroke="#bfbfbf" points="1010,-62 1010,-81 1054,-81 1054,-62 1010,-62"/>
<text text-anchor="middle" x="1032" y="-69" font-family="Helvetica,sans-Serif" font-size="10.00">string</text>
</a>
</g>
</g>
<!-- Node17&#45;&gt;Node21 -->
<g id="edge27" class="edge">
<title>Node17&#45;&gt;Node21</title>
<path fill="none" stroke="midnightblue" d="M890.62,-128.96C917.86,-119.35 962.93,-102.99 1001,-87 1002.37,-86.42 1003.77,-85.82 1005.17,-85.21"/>
<polygon fill="midnightblue" stroke="midnightblue" points="1006.74,-88.34 1014.4,-81.03 1003.85,-81.96 1006.74,-88.34"/>
</g>
<!-- Node22 -->
<g id="node22" class="node">
<title>Node22</title>
<g id="a_node22"><a xlink:title=" ">
<polygon fill="white" stroke="#bfbfbf" points="744.5,-62 744.5,-81 791.5,-81 791.5,-62 744.5,-62"/>
<text text-anchor="middle" x="768" y="-69" font-family="Helvetica,sans-Serif" font-size="10.00">vector</text>
</a>
</g>
</g>
<!-- Node17&#45;&gt;Node22 -->
<g id="edge28" class="edge">
<title>Node17&#45;&gt;Node22</title>
<path fill="none" stroke="midnightblue" d="M852.78,-128.73C836.55,-117.96 808.78,-99.55 789.47,-86.74"/>
<polygon fill="midnightblue" stroke="midnightblue" points="791.28,-83.74 781.01,-81.13 787.41,-89.57 791.28,-83.74"/>
</g>
</g>
</svg>
