<?xml version="1.0" encoding="UTF-8" standalone="no"?>
<!DOCTYPE svg PUBLIC "-//W3C//DTD SVG 1.1//EN"
 "http://www.w3.org/Graphics/SVG/1.1/DTD/svg11.dtd">
<!-- Generated by graphviz version 2.43.0 (0)
 -->
<!-- Title: main Pages: 1 -->
<svg width="705pt" height="112pt"
 viewBox="0.00 0.00 705.00 112.00" xmlns="http://www.w3.org/2000/svg" xmlns:xlink="http://www.w3.org/1999/xlink">
<g id="graph0" class="graph" transform="scale(1 1) rotate(0) translate(4 108)">
<title>main</title>
<polygon fill="white" stroke="transparent" points="-4,4 -4,-108 701,-108 701,4 -4,4"/>
<!-- Node1 -->
<g id="node1" class="node">
<title>Node1</title>
<g id="a_node1"><a xlink:title=" ">
<polygon fill="#bfbfbf" stroke="black" points="0,-30 0,-49 41,-49 41,-30 0,-30"/>
<text text-anchor="middle" x="20.5" y="-37" font-family="Helvetica,sans-Serif" font-size="10.00">main</text>
</a>
</g>
</g>
<!-- Node2 -->
<g id="node2" class="node">
<title>Node2</title>
<g id="a_node2"><a xlink:href="classnlohmann_1_1json__pointer.html#a213bc67c32a30c68ac6bf06f5195d482" target="_top" xlink:title="return last reference token">
<polygon fill="white" stroke="black" points="77,-24.5 77,-54.5 208,-54.5 208,-24.5 77,-24.5"/>
<text text-anchor="start" x="85" y="-42.5" font-family="Helvetica,sans-Serif" font-size="10.00">nlohmann::json_pointer</text>
<text text-anchor="middle" x="142.5" y="-31.5" font-family="Helvetica,sans-Serif" font-size="10.00">::back</text>
</a>
</g>
</g>
<!-- Node1&#45;&gt;Node2 -->
<g id="edge1" class="edge">
<title>Node1&#45;&gt;Node2</title>
<path fill="none" stroke="midnightblue" d="M41.05,-39.5C48.36,-39.5 57.18,-39.5 66.52,-39.5"/>
<polygon fill="midnightblue" stroke="midnightblue" points="66.8,-43 76.8,-39.5 66.8,-36 66.8,-43"/>
</g>
<!-- Node3 -->
<g id="node3" class="node">
<title>Node3</title>
<g id="a_node3"><a xlink:href="classnlohmann_1_1detail_1_1out__of__range.html#a3f6d82a6f967c4728a1ec735a7867073" target="_top" xlink:title=" ">
<polygon fill="white" stroke="black" points="249,-49.5 249,-79.5 370,-79.5 370,-49.5 249,-49.5"/>
<text text-anchor="start" x="257" y="-67.5" font-family="Helvetica,sans-Serif" font-size="10.00">nlohmann::detail::out</text>
<text text-anchor="middle" x="309.5" y="-56.5" font-family="Helvetica,sans-Serif" font-size="10.00">_of_range::create</text>
</a>
</g>
</g>
<!-- Node2&#45;&gt;Node3 -->
<g id="edge2" class="edge">
<title>Node2&#45;&gt;Node3</title>
<path fill="none" stroke="midnightblue" d="M208.24,-49.31C218.26,-50.83 228.65,-52.4 238.77,-53.94"/>
<polygon fill="midnightblue" stroke="midnightblue" points="238.38,-57.42 248.79,-55.45 239.43,-50.49 238.38,-57.42"/>
</g>
<!-- Node7 -->
<g id="node7" class="node">
<title>Node7</title>
<g id="a_node7"><a xlink:href="classnlohmann_1_1json__pointer.html#a649252bda4a2e75a0915b11a25d8bcc3" target="_top" xlink:title="return whether pointer points to the root document">
<polygon fill="white" stroke="black" points="244,-0.5 244,-30.5 375,-30.5 375,-0.5 244,-0.5"/>
<text text-anchor="start" x="252" y="-18.5" font-family="Helvetica,sans-Serif" font-size="10.00">nlohmann::json_pointer</text>
<text text-anchor="middle" x="309.5" y="-7.5" font-family="Helvetica,sans-Serif" font-size="10.00">::empty</text>
</a>
</g>
</g>
<!-- Node2&#45;&gt;Node7 -->
<g id="edge6" class="edge">
<title>Node2&#45;&gt;Node7</title>
<path fill="none" stroke="midnightblue" d="M208.24,-30.08C216.67,-28.86 225.37,-27.59 233.95,-26.34"/>
<polygon fill="midnightblue" stroke="midnightblue" points="234.56,-29.79 243.95,-24.89 233.55,-22.87 234.56,-29.79"/>
</g>
<!-- Node4 -->
<g id="node4" class="node">
<title>Node4</title>
<g id="a_node4"><a xlink:href="classnlohmann_1_1detail_1_1exception.html#abf41a7e9178356314082284e6cfea278" target="_top" xlink:title=" ">
<polygon fill="white" stroke="black" points="411,-73.5 411,-103.5 564,-103.5 564,-73.5 411,-73.5"/>
<text text-anchor="start" x="419" y="-91.5" font-family="Helvetica,sans-Serif" font-size="10.00">nlohmann::detail::exception</text>
<text text-anchor="middle" x="487.5" y="-80.5" font-family="Helvetica,sans-Serif" font-size="10.00">::name</text>
</a>
</g>
</g>
<!-- Node3&#45;&gt;Node4 -->
<g id="edge3" class="edge">
<title>Node3&#45;&gt;Node4</title>
<path fill="none" stroke="midnightblue" d="M370.09,-72.63C379.99,-73.98 390.42,-75.4 400.82,-76.82"/>
<polygon fill="midnightblue" stroke="midnightblue" points="400.37,-80.29 410.75,-78.17 401.32,-73.35 400.37,-80.29"/>
</g>
<!-- Node6 -->
<g id="node6" class="node">
<title>Node6</title>
<g id="a_node6"><a xlink:href="classnlohmann_1_1detail_1_1out__of__range.html#ab5fe402019dba957558499502f0fd731" target="_top" xlink:title=" ">
<polygon fill="white" stroke="black" points="420.5,-24.5 420.5,-54.5 554.5,-54.5 554.5,-24.5 420.5,-24.5"/>
<text text-anchor="start" x="428.5" y="-42.5" font-family="Helvetica,sans-Serif" font-size="10.00">nlohmann::detail::out</text>
<text text-anchor="middle" x="487.5" y="-31.5" font-family="Helvetica,sans-Serif" font-size="10.00">_of_range::out_of_range</text>
</a>
</g>
</g>
<!-- Node3&#45;&gt;Node6 -->
<g id="edge5" class="edge">
<title>Node3&#45;&gt;Node6</title>
<path fill="none" stroke="midnightblue" d="M370.09,-56.04C382.96,-54.21 396.74,-52.25 410.16,-50.34"/>
<polygon fill="midnightblue" stroke="midnightblue" points="410.91,-53.77 420.32,-48.9 409.93,-46.84 410.91,-53.77"/>
</g>
<!-- Node5 -->
<g id="node5" class="node">
<title>Node5</title>
<g id="a_node5"><a xlink:href="namespacehttplib.html#a498c3a79825ecbcb15c52ec5fcfd5c11" target="_top" xlink:title=" ">
<polygon fill="white" stroke="black" points="600,-79 600,-98 697,-98 697,-79 600,-79"/>
<text text-anchor="middle" x="648.5" y="-86" font-family="Helvetica,sans-Serif" font-size="10.00">httplib::to_string</text>
</a>
</g>
</g>
<!-- Node4&#45;&gt;Node5 -->
<g id="edge4" class="edge">
<title>Node4&#45;&gt;Node5</title>
<path fill="none" stroke="midnightblue" d="M564.27,-88.5C572.82,-88.5 581.43,-88.5 589.7,-88.5"/>
<polygon fill="midnightblue" stroke="midnightblue" points="589.96,-92 599.96,-88.5 589.96,-85 589.96,-92"/>
</g>
</g>
</svg>
