<?xml version="1.0" encoding="UTF-8" standalone="no"?>
<!DOCTYPE svg PUBLIC "-//W3C//DTD SVG 1.1//EN"
 "http://www.w3.org/Graphics/SVG/1.1/DTD/svg11.dtd">
<!-- Generated by graphviz version 2.43.0 (0)
 -->
<!-- Title: mc_orchestrator/json&#45;3.7.3/include/nlohmann/json_fwd.hpp Pages: 1 -->
<svg width="915pt" height="551pt"
 viewBox="0.00 0.00 915.02 551.00" xmlns="http://www.w3.org/2000/svg" xmlns:xlink="http://www.w3.org/1999/xlink">
<g id="graph0" class="graph" transform="scale(1 1) rotate(0) translate(4 547)">
<title>mc_orchestrator/json&#45;3.7.3/include/nlohmann/json_fwd.hpp</title>
<polygon fill="white" stroke="transparent" points="-4,4 -4,-547 911.02,-547 911.02,4 -4,4"/>
<!-- Node1 -->
<g id="node1" class="node">
<title>Node1</title>
<g id="a_node1"><a xlink:title=" ">
<polygon fill="#bfbfbf" stroke="black" points="94.02,-501.5 94.02,-542.5 228.02,-542.5 228.02,-501.5 94.02,-501.5"/>
<text text-anchor="start" x="102.02" y="-530.5" font-family="Helvetica,sans-Serif" font-size="10.00">mc_orchestrator/json</text>
<text text-anchor="start" x="102.02" y="-519.5" font-family="Helvetica,sans-Serif" font-size="10.00">&#45;3.7.3/include/nlohmann</text>
<text text-anchor="middle" x="161.02" y="-508.5" font-family="Helvetica,sans-Serif" font-size="10.00">/json_fwd.hpp</text>
</a>
</g>
</g>
<!-- Node2 -->
<g id="node2" class="node">
<title>Node2</title>
<g id="a_node2"><a xlink:href="type__traits_8hpp.html" target="_top" xlink:title=" ">
<polygon fill="white" stroke="black" points="334.02,-423.5 334.02,-464.5 486.02,-464.5 486.02,-423.5 334.02,-423.5"/>
<text text-anchor="start" x="342.02" y="-452.5" font-family="Helvetica,sans-Serif" font-size="10.00">mc_orchestrator/json</text>
<text text-anchor="start" x="342.02" y="-441.5" font-family="Helvetica,sans-Serif" font-size="10.00">&#45;3.7.3/include/nlohmann</text>
<text text-anchor="middle" x="410.02" y="-430.5" font-family="Helvetica,sans-Serif" font-size="10.00">/detail/meta/type_traits.hpp</text>
</a>
</g>
</g>
<!-- Node1&#45;&gt;Node2 -->
<g id="edge1" class="edge">
<title>Node1&#45;&gt;Node2</title>
<path fill="none" stroke="midnightblue" d="M234.93,-498.44C270.27,-487.66 312.17,-474.87 346.12,-464.51"/>
<polygon fill="midnightblue" stroke="midnightblue" points="233.69,-495.16 225.15,-501.43 235.73,-501.86 233.69,-495.16"/>
</g>
<!-- Node5 -->
<g id="node5" class="node">
<title>Node5</title>
<g id="a_node5"><a xlink:href="include_2nlohmann_2json_8hpp.html" target="_top" xlink:title=" ">
<polygon fill="white" stroke="black" points="414.02,-0.5 414.02,-41.5 548.02,-41.5 548.02,-0.5 414.02,-0.5"/>
<text text-anchor="start" x="422.02" y="-29.5" font-family="Helvetica,sans-Serif" font-size="10.00">mc_orchestrator/json</text>
<text text-anchor="start" x="422.02" y="-18.5" font-family="Helvetica,sans-Serif" font-size="10.00">&#45;3.7.3/include/nlohmann</text>
<text text-anchor="middle" x="481.02" y="-7.5" font-family="Helvetica,sans-Serif" font-size="10.00">/json.hpp</text>
</a>
</g>
</g>
<!-- Node1&#45;&gt;Node5 -->
<g id="edge26" class="edge">
<title>Node1&#45;&gt;Node5</title>
<path fill="none" stroke="midnightblue" d="M106.6,-496.53C59.88,-471.38 0.02,-427.38 0.02,-367 0.02,-367 0.02,-367 0.02,-192.5 0.02,-164.81 -0.33,-131.09 98.02,-78 151.24,-49.27 318.97,-33.26 413.87,-26.28"/>
<polygon fill="midnightblue" stroke="midnightblue" points="105.26,-499.78 115.75,-501.31 108.5,-493.58 105.26,-499.78"/>
</g>
<!-- Node3 -->
<g id="node3" class="node">
<title>Node3</title>
<g id="a_node3"><a xlink:href="from__json_8hpp.html" target="_top" xlink:title=" ">
<polygon fill="white" stroke="black" points="28.52,-167.5 28.52,-219.5 163.52,-219.5 163.52,-167.5 28.52,-167.5"/>
<text text-anchor="start" x="36.52" y="-207.5" font-family="Helvetica,sans-Serif" font-size="10.00">mc_orchestrator/json</text>
<text text-anchor="start" x="36.52" y="-196.5" font-family="Helvetica,sans-Serif" font-size="10.00">&#45;3.7.3/include/nlohmann</text>
<text text-anchor="start" x="36.52" y="-185.5" font-family="Helvetica,sans-Serif" font-size="10.00">/detail/conversions/from</text>
<text text-anchor="middle" x="96.02" y="-174.5" font-family="Helvetica,sans-Serif" font-size="10.00">_json.hpp</text>
</a>
</g>
</g>
<!-- Node2&#45;&gt;Node3 -->
<g id="edge2" class="edge">
<title>Node2&#45;&gt;Node3</title>
<path fill="none" stroke="midnightblue" d="M343.93,-419.55C323.52,-410.84 301.55,-399.88 283.02,-387 212.44,-337.92 146.47,-259.6 115.12,-219.68"/>
<polygon fill="midnightblue" stroke="midnightblue" points="342.61,-422.78 353.18,-423.39 345.29,-416.32 342.61,-422.78"/>
</g>
<!-- Node2&#45;&gt;Node5 -->
<g id="edge25" class="edge">
<title>Node2&#45;&gt;Node5</title>
<path fill="none" stroke="midnightblue" d="M496.53,-438.09C568.14,-431.91 671.61,-418.04 757.02,-387 833.15,-359.34 907.02,-364.5 907.02,-283.5 907.02,-283.5 907.02,-283.5 907.02,-192.5 907.02,-125.52 867.28,-111.05 809.02,-78 765.5,-53.31 630.66,-36.39 548.04,-28.03"/>
<polygon fill="midnightblue" stroke="midnightblue" points="495.87,-434.64 486.2,-438.95 496.45,-441.61 495.87,-434.64"/>
</g>
<!-- Node6 -->
<g id="node6" class="node">
<title>Node6</title>
<g id="a_node6"><a xlink:href="to__json_8hpp.html" target="_top" xlink:title=" ">
<polygon fill="white" stroke="black" points="182.02,-167.5 182.02,-219.5 316.02,-219.5 316.02,-167.5 182.02,-167.5"/>
<text text-anchor="start" x="190.02" y="-207.5" font-family="Helvetica,sans-Serif" font-size="10.00">mc_orchestrator/json</text>
<text text-anchor="start" x="190.02" y="-196.5" font-family="Helvetica,sans-Serif" font-size="10.00">&#45;3.7.3/include/nlohmann</text>
<text text-anchor="start" x="190.02" y="-185.5" font-family="Helvetica,sans-Serif" font-size="10.00">/detail/conversions/to</text>
<text text-anchor="middle" x="249.02" y="-174.5" font-family="Helvetica,sans-Serif" font-size="10.00">_json.hpp</text>
</a>
</g>
</g>
<!-- Node2&#45;&gt;Node6 -->
<g id="edge6" class="edge">
<title>Node2&#45;&gt;Node6</title>
<path fill="none" stroke="midnightblue" d="M367.88,-417.79C332.84,-394.34 284.98,-356.01 261.02,-309 246.68,-280.86 245.47,-243.84 246.65,-219.62"/>
<polygon fill="midnightblue" stroke="midnightblue" points="366.2,-420.87 376.48,-423.42 370.04,-415.02 366.2,-420.87"/>
</g>
<!-- Node7 -->
<g id="node7" class="node">
<title>Node7</title>
<g id="a_node7"><a xlink:href="iter__impl_8hpp.html" target="_top" xlink:title=" ">
<polygon fill="white" stroke="black" points="367.02,-78.5 367.02,-130.5 501.02,-130.5 501.02,-78.5 367.02,-78.5"/>
<text text-anchor="start" x="375.02" y="-118.5" font-family="Helvetica,sans-Serif" font-size="10.00">mc_orchestrator/json</text>
<text text-anchor="start" x="375.02" y="-107.5" font-family="Helvetica,sans-Serif" font-size="10.00">&#45;3.7.3/include/nlohmann</text>
<text text-anchor="start" x="375.02" y="-96.5" font-family="Helvetica,sans-Serif" font-size="10.00">/detail/iterators/iter</text>
<text text-anchor="middle" x="434.02" y="-85.5" font-family="Helvetica,sans-Serif" font-size="10.00">_impl.hpp</text>
</a>
</g>
</g>
<!-- Node2&#45;&gt;Node7 -->
<g id="edge9" class="edge">
<title>Node2&#45;&gt;Node7</title>
<path fill="none" stroke="midnightblue" d="M412.13,-413.32C416.8,-347.74 427.91,-191.51 432.24,-130.51"/>
<polygon fill="midnightblue" stroke="midnightblue" points="408.63,-413.17 411.42,-423.4 415.62,-413.67 408.63,-413.17"/>
</g>
<!-- Node8 -->
<g id="node8" class="node">
<title>Node8</title>
<g id="a_node8"><a xlink:href="iteration__proxy_8hpp.html" target="_top" xlink:title=" ">
<polygon fill="white" stroke="black" points="270.02,-256.5 270.02,-308.5 406.02,-308.5 406.02,-256.5 270.02,-256.5"/>
<text text-anchor="start" x="278.02" y="-296.5" font-family="Helvetica,sans-Serif" font-size="10.00">mc_orchestrator/json</text>
<text text-anchor="start" x="278.02" y="-285.5" font-family="Helvetica,sans-Serif" font-size="10.00">&#45;3.7.3/include/nlohmann</text>
<text text-anchor="start" x="278.02" y="-274.5" font-family="Helvetica,sans-Serif" font-size="10.00">/detail/iterators/iteration</text>
<text text-anchor="middle" x="338.02" y="-263.5" font-family="Helvetica,sans-Serif" font-size="10.00">_proxy.hpp</text>
</a>
</g>
</g>
<!-- Node2&#45;&gt;Node8 -->
<g id="edge11" class="edge">
<title>Node2&#45;&gt;Node8</title>
<path fill="none" stroke="midnightblue" d="M397.07,-414.31C383.5,-384.24 362.38,-337.45 349.42,-308.74"/>
<polygon fill="midnightblue" stroke="midnightblue" points="393.89,-415.77 401.19,-423.44 400.27,-412.89 393.89,-415.77"/>
</g>
<!-- Node9 -->
<g id="node9" class="node">
<title>Node9</title>
<g id="a_node9"><a xlink:href="json__ref_8hpp.html" target="_top" xlink:title=" ">
<polygon fill="white" stroke="black" points="462.02,-345.5 462.02,-386.5 596.02,-386.5 596.02,-345.5 462.02,-345.5"/>
<text text-anchor="start" x="470.02" y="-374.5" font-family="Helvetica,sans-Serif" font-size="10.00">mc_orchestrator/json</text>
<text text-anchor="start" x="470.02" y="-363.5" font-family="Helvetica,sans-Serif" font-size="10.00">&#45;3.7.3/include/nlohmann</text>
<text text-anchor="middle" x="529.02" y="-352.5" font-family="Helvetica,sans-Serif" font-size="10.00">/detail/json_ref.hpp</text>
</a>
</g>
</g>
<!-- Node2&#45;&gt;Node9 -->
<g id="edge14" class="edge">
<title>Node2&#45;&gt;Node9</title>
<path fill="none" stroke="midnightblue" d="M449.29,-417.92C465.29,-407.7 483.5,-396.07 498.48,-386.51"/>
<polygon fill="midnightblue" stroke="midnightblue" points="447.21,-415.1 440.67,-423.43 450.98,-421 447.21,-415.1"/>
</g>
<!-- Node10 -->
<g id="node10" class="node">
<title>Node10</title>
<g id="a_node10"><a xlink:href="is__sax_8hpp.html" target="_top" xlink:title=" ">
<polygon fill="white" stroke="black" points="614.02,-345.5 614.02,-386.5 748.02,-386.5 748.02,-345.5 614.02,-345.5"/>
<text text-anchor="start" x="622.02" y="-374.5" font-family="Helvetica,sans-Serif" font-size="10.00">mc_orchestrator/json</text>
<text text-anchor="start" x="622.02" y="-363.5" font-family="Helvetica,sans-Serif" font-size="10.00">&#45;3.7.3/include/nlohmann</text>
<text text-anchor="middle" x="681.02" y="-352.5" font-family="Helvetica,sans-Serif" font-size="10.00">/detail/meta/is_sax.hpp</text>
</a>
</g>
</g>
<!-- Node2&#45;&gt;Node10 -->
<g id="edge16" class="edge">
<title>Node2&#45;&gt;Node10</title>
<path fill="none" stroke="midnightblue" d="M489.66,-420.66C529.11,-409.6 576.21,-396.39 613.81,-385.85"/>
<polygon fill="midnightblue" stroke="midnightblue" points="488.49,-417.36 479.81,-423.43 490.38,-424.1 488.49,-417.36"/>
</g>
<!-- Node4 -->
<g id="node4" class="node">
<title>Node4</title>
<g id="a_node4"><a xlink:href="adl__serializer_8hpp.html" target="_top" xlink:title=" ">
<polygon fill="white" stroke="black" points="139.02,-84 139.02,-125 273.02,-125 273.02,-84 139.02,-84"/>
<text text-anchor="start" x="147.02" y="-113" font-family="Helvetica,sans-Serif" font-size="10.00">mc_orchestrator/json</text>
<text text-anchor="start" x="147.02" y="-102" font-family="Helvetica,sans-Serif" font-size="10.00">&#45;3.7.3/include/nlohmann</text>
<text text-anchor="middle" x="206.02" y="-91" font-family="Helvetica,sans-Serif" font-size="10.00">/adl_serializer.hpp</text>
</a>
</g>
</g>
<!-- Node3&#45;&gt;Node4 -->
<g id="edge3" class="edge">
<title>Node3&#45;&gt;Node4</title>
<path fill="none" stroke="midnightblue" d="M136.04,-160.85C151.17,-148.88 167.94,-135.62 181.26,-125.08"/>
<polygon fill="midnightblue" stroke="midnightblue" points="133.51,-158.39 127.84,-167.34 137.85,-163.88 133.51,-158.39"/>
</g>
<!-- Node3&#45;&gt;Node5 -->
<g id="edge5" class="edge">
<title>Node3&#45;&gt;Node5</title>
<path fill="none" stroke="midnightblue" d="M96.95,-157.31C99.61,-131.53 107.55,-97.71 130.02,-78 171.19,-41.88 324.01,-28.93 413.86,-24.38"/>
<polygon fill="midnightblue" stroke="midnightblue" points="93.45,-157.21 96.13,-167.46 100.43,-157.77 93.45,-157.21"/>
</g>
<!-- Node4&#45;&gt;Node5 -->
<g id="edge4" class="edge">
<title>Node4&#45;&gt;Node5</title>
<path fill="none" stroke="midnightblue" d="M277.02,-81.04C280.4,-80.01 283.75,-78.99 287.02,-78 329.14,-65.29 376.59,-51.59 414.02,-40.91"/>
<polygon fill="midnightblue" stroke="midnightblue" points="275.97,-77.7 267.45,-83.99 278.04,-84.39 275.97,-77.7"/>
</g>
<!-- Node6&#45;&gt;Node4 -->
<g id="edge7" class="edge">
<title>Node6&#45;&gt;Node4</title>
<path fill="none" stroke="midnightblue" d="M232.05,-158.17C226.5,-146.93 220.52,-134.84 215.7,-125.08"/>
<polygon fill="midnightblue" stroke="midnightblue" points="229.02,-159.92 236.58,-167.34 235.29,-156.82 229.02,-159.92"/>
</g>
<!-- Node6&#45;&gt;Node5 -->
<g id="edge8" class="edge">
<title>Node6&#45;&gt;Node5</title>
<path fill="none" stroke="midnightblue" d="M268.24,-158.66C285.54,-129.19 310.43,-89.44 325.02,-78 350.73,-57.85 384.3,-44.56 413.72,-36.01"/>
<polygon fill="midnightblue" stroke="midnightblue" points="265.14,-157.03 263.13,-167.44 271.19,-160.55 265.14,-157.03"/>
</g>
<!-- Node7&#45;&gt;Node5 -->
<g id="edge10" class="edge">
<title>Node7&#45;&gt;Node5</title>
<path fill="none" stroke="midnightblue" d="M453.73,-69.32C459.18,-59.87 464.91,-49.94 469.7,-41.63"/>
<polygon fill="midnightblue" stroke="midnightblue" points="450.6,-67.75 448.64,-78.16 456.66,-71.25 450.6,-67.75"/>
</g>
<!-- Node8&#45;&gt;Node5 -->
<g id="edge13" class="edge">
<title>Node8&#45;&gt;Node5</title>
<path fill="none" stroke="midnightblue" d="M331.58,-246.06C325.68,-202.31 322.54,-127.62 358.02,-78 371.46,-59.2 392.77,-46.58 413.9,-38.16"/>
<polygon fill="midnightblue" stroke="midnightblue" points="328.16,-246.84 333.08,-256.22 335.08,-245.82 328.16,-246.84"/>
</g>
<!-- Node8&#45;&gt;Node6 -->
<g id="edge12" class="edge">
<title>Node8&#45;&gt;Node6</title>
<path fill="none" stroke="midnightblue" d="M304.85,-249.08C294.89,-239.34 284.11,-228.8 274.71,-219.61"/>
<polygon fill="midnightblue" stroke="midnightblue" points="302.68,-251.85 312.28,-256.34 307.57,-246.84 302.68,-251.85"/>
</g>
<!-- Node9&#45;&gt;Node5 -->
<g id="edge15" class="edge">
<title>Node9&#45;&gt;Node5</title>
<path fill="none" stroke="midnightblue" d="M530.99,-335.37C533.64,-282.55 535.43,-169.12 510.02,-78 506.46,-65.24 499.79,-52.03 493.74,-41.65"/>
<polygon fill="midnightblue" stroke="midnightblue" points="527.49,-335.22 530.44,-345.4 534.48,-335.6 527.49,-335.22"/>
</g>
<!-- Node11 -->
<g id="node11" class="node">
<title>Node11</title>
<g id="a_node11"><a xlink:href="binary__reader_8hpp.html" target="_top" xlink:title=" ">
<polygon fill="white" stroke="black" points="559.52,-262 559.52,-303 726.52,-303 726.52,-262 559.52,-262"/>
<text text-anchor="start" x="567.52" y="-291" font-family="Helvetica,sans-Serif" font-size="10.00">mc_orchestrator/json</text>
<text text-anchor="start" x="567.52" y="-280" font-family="Helvetica,sans-Serif" font-size="10.00">&#45;3.7.3/include/nlohmann</text>
<text text-anchor="middle" x="643.02" y="-269" font-family="Helvetica,sans-Serif" font-size="10.00">/detail/input/binary_reader.hpp</text>
</a>
</g>
</g>
<!-- Node10&#45;&gt;Node11 -->
<g id="edge17" class="edge">
<title>Node10&#45;&gt;Node11</title>
<path fill="none" stroke="midnightblue" d="M667.53,-336.06C662.43,-325.12 656.74,-312.93 652.14,-303.05"/>
<polygon fill="midnightblue" stroke="midnightblue" points="664.42,-337.69 671.82,-345.27 670.77,-334.73 664.42,-337.69"/>
</g>
<!-- Node14 -->
<g id="node14" class="node">
<title>Node14</title>
<g id="a_node14"><a xlink:href="parser_8hpp.html" target="_top" xlink:title=" ">
<polygon fill="white" stroke="black" points="745.02,-262 745.02,-303 879.02,-303 879.02,-262 745.02,-262"/>
<text text-anchor="start" x="753.02" y="-291" font-family="Helvetica,sans-Serif" font-size="10.00">mc_orchestrator/json</text>
<text text-anchor="start" x="753.02" y="-280" font-family="Helvetica,sans-Serif" font-size="10.00">&#45;3.7.3/include/nlohmann</text>
<text text-anchor="middle" x="812.02" y="-269" font-family="Helvetica,sans-Serif" font-size="10.00">/detail/input/parser.hpp</text>
</a>
</g>
</g>
<!-- Node10&#45;&gt;Node14 -->
<g id="edge23" class="edge">
<title>Node10&#45;&gt;Node14</title>
<path fill="none" stroke="midnightblue" d="M720.9,-340.19C740.01,-328.3 762.56,-314.27 780.45,-303.14"/>
<polygon fill="midnightblue" stroke="midnightblue" points="719.04,-337.22 712.4,-345.48 722.74,-343.17 719.04,-337.22"/>
</g>
<!-- Node11&#45;&gt;Node5 -->
<g id="edge22" class="edge">
<title>Node11&#45;&gt;Node5</title>
<path fill="none" stroke="midnightblue" d="M696.55,-256.65C711.73,-247.18 726.87,-234.98 737.02,-220 772.71,-167.33 795.25,-127.28 755.02,-78 729.38,-46.59 620.59,-32.33 548.05,-26.21"/>
<polygon fill="midnightblue" stroke="midnightblue" points="694.47,-253.81 687.64,-261.91 698.03,-259.84 694.47,-253.81"/>
</g>
<!-- Node12 -->
<g id="node12" class="node">
<title>Node12</title>
<g id="a_node12"><a xlink:href="binary__writer_8hpp.html" target="_top" xlink:title=" ">
<polygon fill="white" stroke="black" points="558.02,-173 558.02,-214 728.02,-214 728.02,-173 558.02,-173"/>
<text text-anchor="start" x="566.02" y="-202" font-family="Helvetica,sans-Serif" font-size="10.00">mc_orchestrator/json</text>
<text text-anchor="start" x="566.02" y="-191" font-family="Helvetica,sans-Serif" font-size="10.00">&#45;3.7.3/include/nlohmann</text>
<text text-anchor="middle" x="643.02" y="-180" font-family="Helvetica,sans-Serif" font-size="10.00">/detail/output/binary_writer.hpp</text>
</a>
</g>
</g>
<!-- Node11&#45;&gt;Node12 -->
<g id="edge18" class="edge">
<title>Node11&#45;&gt;Node12</title>
<path fill="none" stroke="midnightblue" d="M643.02,-251.44C643.02,-239.1 643.02,-225.16 643.02,-214.16"/>
<polygon fill="midnightblue" stroke="midnightblue" points="639.52,-251.76 643.02,-261.76 646.52,-251.76 639.52,-251.76"/>
</g>
<!-- Node12&#45;&gt;Node5 -->
<g id="edge21" class="edge">
<title>Node12&#45;&gt;Node5</title>
<path fill="none" stroke="midnightblue" d="M617.27,-165.48C607.34,-154.88 596,-142.5 586.02,-131 566.15,-108.09 563.89,-100.01 543.02,-78 530.94,-65.27 516.43,-52.06 504.49,-41.67"/>
<polygon fill="midnightblue" stroke="midnightblue" points="614.8,-167.97 624.2,-172.86 619.9,-163.18 614.8,-167.97"/>
</g>
<!-- Node13 -->
<g id="node13" class="node">
<title>Node13</title>
<g id="a_node13"><a xlink:href="serializer_8hpp.html" target="_top" xlink:title=" ">
<polygon fill="white" stroke="black" points="595.52,-84 595.52,-125 746.52,-125 746.52,-84 595.52,-84"/>
<text text-anchor="start" x="603.52" y="-113" font-family="Helvetica,sans-Serif" font-size="10.00">mc_orchestrator/json</text>
<text text-anchor="start" x="603.52" y="-102" font-family="Helvetica,sans-Serif" font-size="10.00">&#45;3.7.3/include/nlohmann</text>
<text text-anchor="middle" x="671.02" y="-91" font-family="Helvetica,sans-Serif" font-size="10.00">/detail/output/serializer.hpp</text>
</a>
</g>
</g>
<!-- Node12&#45;&gt;Node13 -->
<g id="edge19" class="edge">
<title>Node12&#45;&gt;Node13</title>
<path fill="none" stroke="midnightblue" d="M652.46,-163.19C656.49,-150.67 661.08,-136.38 664.69,-125.16"/>
<polygon fill="midnightblue" stroke="midnightblue" points="649.11,-162.17 649.38,-172.76 655.77,-164.31 649.11,-162.17"/>
</g>
<!-- Node13&#45;&gt;Node5 -->
<g id="edge20" class="edge">
<title>Node13&#45;&gt;Node5</title>
<path fill="none" stroke="midnightblue" d="M616.12,-79.95C587.69,-67.76 553.41,-53.05 526.49,-41.5"/>
<polygon fill="midnightblue" stroke="midnightblue" points="614.94,-83.25 625.51,-83.98 617.7,-76.82 614.94,-83.25"/>
</g>
<!-- Node14&#45;&gt;Node5 -->
<g id="edge24" class="edge">
<title>Node14&#45;&gt;Node5</title>
<path fill="none" stroke="midnightblue" d="M816.96,-251.68C822.43,-207.42 825.25,-124.57 780.02,-78 748.65,-45.7 626.44,-31.59 548.3,-25.76"/>
<polygon fill="midnightblue" stroke="midnightblue" points="813.46,-251.42 815.57,-261.8 820.4,-252.37 813.46,-251.42"/>
</g>
</g>
</svg>
