<?xml version="1.0" encoding="UTF-8" standalone="no"?>
<!DOCTYPE svg PUBLIC "-//W3C//DTD SVG 1.1//EN"
 "http://www.w3.org/Graphics/SVG/1.1/DTD/svg11.dtd">
<!-- Generated by graphviz version 2.43.0 (0)
 -->
<!-- Title: mc_orchestrator/json&#45;3.7.3/test/thirdparty/Fuzzer/test/LeakTest.cpp Pages: 1 -->
<svg width="147pt" height="106pt"
 viewBox="0.00 0.00 147.00 106.00" xmlns="http://www.w3.org/2000/svg" xmlns:xlink="http://www.w3.org/1999/xlink">
<g id="graph0" class="graph" transform="scale(1 1) rotate(0) translate(4 102)">
<title>mc_orchestrator/json&#45;3.7.3/test/thirdparty/Fuzzer/test/LeakTest.cpp</title>
<polygon fill="white" stroke="transparent" points="-4,4 -4,-102 143,-102 143,4 -4,4"/>
<!-- Node1 -->
<g id="node1" class="node">
<title>Node1</title>
<g id="a_node1"><a xlink:title=" ">
<polygon fill="#bfbfbf" stroke="black" points="0,-56.5 0,-97.5 139,-97.5 139,-56.5 0,-56.5"/>
<text text-anchor="start" x="8" y="-85.5" font-family="Helvetica,sans-Serif" font-size="10.00">mc_orchestrator/json</text>
<text text-anchor="start" x="8" y="-74.5" font-family="Helvetica,sans-Serif" font-size="10.00">&#45;3.7.3/test/thirdparty</text>
<text text-anchor="middle" x="69.5" y="-63.5" font-family="Helvetica,sans-Serif" font-size="10.00">/Fuzzer/test/LeakTest.cpp</text>
</a>
</g>
</g>
<!-- Node2 -->
<g id="node2" class="node">
<title>Node2</title>
<g id="a_node2"><a xlink:title=" ">
<polygon fill="white" stroke="#bfbfbf" points="9.5,-0.5 9.5,-19.5 59.5,-19.5 59.5,-0.5 9.5,-0.5"/>
<text text-anchor="middle" x="34.5" y="-7.5" font-family="Helvetica,sans-Serif" font-size="10.00">cstdint</text>
</a>
</g>
</g>
<!-- Node1&#45;&gt;Node2 -->
<g id="edge1" class="edge">
<title>Node1&#45;&gt;Node2</title>
<path fill="none" stroke="midnightblue" d="M59,-56.5C54.2,-47.59 48.56,-37.11 43.9,-28.46"/>
<polygon fill="midnightblue" stroke="midnightblue" points="46.98,-26.8 39.16,-19.65 40.82,-30.12 46.98,-26.8"/>
</g>
<!-- Node3 -->
<g id="node3" class="node">
<title>Node3</title>
<g id="a_node3"><a xlink:title=" ">
<polygon fill="white" stroke="#bfbfbf" points="78,-0.5 78,-19.5 131,-19.5 131,-0.5 78,-0.5"/>
<text text-anchor="middle" x="104.5" y="-7.5" font-family="Helvetica,sans-Serif" font-size="10.00">cstddef</text>
</a>
</g>
</g>
<!-- Node1&#45;&gt;Node3 -->
<g id="edge2" class="edge">
<title>Node1&#45;&gt;Node3</title>
<path fill="none" stroke="midnightblue" d="M80,-56.5C84.8,-47.59 90.44,-37.11 95.1,-28.46"/>
<polygon fill="midnightblue" stroke="midnightblue" points="98.18,-30.12 99.84,-19.65 92.02,-26.8 98.18,-30.12"/>
</g>
</g>
</svg>
