<?xml version="1.0" encoding="UTF-8" standalone="no"?>
<!DOCTYPE svg PUBLIC "-//W3C//DTD SVG 1.1//EN"
 "http://www.w3.org/Graphics/SVG/1.1/DTD/svg11.dtd">
<!-- Generated by graphviz version 2.43.0 (0)
 -->
<!-- Title: mc_orchestrator/common/inc/mco_common.hpp Pages: 1 -->
<svg width="233pt" height="95pt"
 viewBox="0.00 0.00 232.50 95.00" xmlns="http://www.w3.org/2000/svg" xmlns:xlink="http://www.w3.org/1999/xlink">
<g id="graph0" class="graph" transform="scale(1 1) rotate(0) translate(4 91)">
<title>mc_orchestrator/common/inc/mco_common.hpp</title>
<polygon fill="white" stroke="transparent" points="-4,4 -4,-91 228.5,-91 228.5,4 -4,4"/>
<!-- Node1 -->
<g id="node1" class="node">
<title>Node1</title>
<g id="a_node1"><a xlink:title=" ">
<polygon fill="#bfbfbf" stroke="black" points="37,-56.5 37,-86.5 179,-86.5 179,-56.5 37,-56.5"/>
<text text-anchor="start" x="45" y="-74.5" font-family="Helvetica,sans-Serif" font-size="10.00">mc_orchestrator/common</text>
<text text-anchor="middle" x="108" y="-63.5" font-family="Helvetica,sans-Serif" font-size="10.00">/inc/mco_common.hpp</text>
</a>
</g>
</g>
<!-- Node2 -->
<g id="node2" class="node">
<title>Node2</title>
<g id="a_node2"><a xlink:title=" ">
<polygon fill="white" stroke="#bfbfbf" points="0,-0.5 0,-19.5 38,-19.5 38,-0.5 0,-0.5"/>
<text text-anchor="middle" x="19" y="-7.5" font-family="Helvetica,sans-Serif" font-size="10.00">map</text>
</a>
</g>
</g>
<!-- Node1&#45;&gt;Node2 -->
<g id="edge1" class="edge">
<title>Node1&#45;&gt;Node2</title>
<path fill="none" stroke="midnightblue" d="M86.91,-56.4C72.91,-47.04 54.59,-34.79 40.51,-25.38"/>
<polygon fill="midnightblue" stroke="midnightblue" points="42.21,-22.31 31.95,-19.66 38.32,-28.13 42.21,-22.31"/>
</g>
<!-- Node3 -->
<g id="node3" class="node">
<title>Node3</title>
<g id="a_node3"><a xlink:title=" ">
<polygon fill="white" stroke="#bfbfbf" points="56,-0.5 56,-19.5 100,-19.5 100,-0.5 56,-0.5"/>
<text text-anchor="middle" x="78" y="-7.5" font-family="Helvetica,sans-Serif" font-size="10.00">string</text>
</a>
</g>
</g>
<!-- Node1&#45;&gt;Node3 -->
<g id="edge2" class="edge">
<title>Node1&#45;&gt;Node3</title>
<path fill="none" stroke="midnightblue" d="M100.89,-56.4C96.71,-48.11 91.39,-37.55 86.93,-28.71"/>
<polygon fill="midnightblue" stroke="midnightblue" points="89.99,-27.01 82.37,-19.66 83.74,-30.16 89.99,-27.01"/>
</g>
<!-- Node4 -->
<g id="node4" class="node">
<title>Node4</title>
<g id="a_node4"><a xlink:title=" ">
<polygon fill="white" stroke="#bfbfbf" points="118.5,-0.5 118.5,-19.5 159.5,-19.5 159.5,-0.5 118.5,-0.5"/>
<text text-anchor="middle" x="139" y="-7.5" font-family="Helvetica,sans-Serif" font-size="10.00">tuple</text>
</a>
</g>
</g>
<!-- Node1&#45;&gt;Node4 -->
<g id="edge3" class="edge">
<title>Node1&#45;&gt;Node4</title>
<path fill="none" stroke="midnightblue" d="M115.35,-56.4C119.67,-48.11 125.17,-37.55 129.77,-28.71"/>
<polygon fill="midnightblue" stroke="midnightblue" points="132.97,-30.14 134.49,-19.66 126.76,-26.91 132.97,-30.14"/>
</g>
<!-- Node5 -->
<g id="node5" class="node">
<title>Node5</title>
<g id="a_node5"><a xlink:title=" ">
<polygon fill="white" stroke="#bfbfbf" points="177.5,-0.5 177.5,-19.5 224.5,-19.5 224.5,-0.5 177.5,-0.5"/>
<text text-anchor="middle" x="201" y="-7.5" font-family="Helvetica,sans-Serif" font-size="10.00">vector</text>
</a>
</g>
</g>
<!-- Node1&#45;&gt;Node5 -->
<g id="edge4" class="edge">
<title>Node1&#45;&gt;Node5</title>
<path fill="none" stroke="midnightblue" d="M130.04,-56.4C144.81,-46.95 164.18,-34.56 178.95,-25.11"/>
<polygon fill="midnightblue" stroke="midnightblue" points="180.93,-28 187.47,-19.66 177.16,-22.1 180.93,-28"/>
</g>
</g>
</svg>
