<?xml version="1.0" encoding="UTF-8" standalone="no"?>
<!DOCTYPE svg PUBLIC "-//W3C//DTD SVG 1.1//EN"
 "http://www.w3.org/Graphics/SVG/1.1/DTD/svg11.dtd">
<!-- Generated by graphviz version 2.43.0 (0)
 -->
<!-- Title: mc_orchestrator/common/inc/mco_database_handler.hpp Pages: 1 -->
<svg width="2152pt" height="273pt"
 viewBox="0.00 0.00 2152.00 273.00" xmlns="http://www.w3.org/2000/svg" xmlns:xlink="http://www.w3.org/1999/xlink">
<g id="graph0" class="graph" transform="scale(1 1) rotate(0) translate(4 269)">
<title>mc_orchestrator/common/inc/mco_database_handler.hpp</title>
<polygon fill="white" stroke="transparent" points="-4,4 -4,-269 2148,-269 2148,4 -4,4"/>
<!-- Node1 -->
<g id="node1" class="node">
<title>Node1</title>
<g id="a_node1"><a xlink:title=" ">
<polygon fill="#bfbfbf" stroke="black" points="962.5,-234.5 962.5,-264.5 1133.5,-264.5 1133.5,-234.5 962.5,-234.5"/>
<text text-anchor="start" x="970.5" y="-252.5" font-family="Helvetica,sans-Serif" font-size="10.00">mc_orchestrator/common</text>
<text text-anchor="middle" x="1048" y="-241.5" font-family="Helvetica,sans-Serif" font-size="10.00">/inc/mco_database_handler.hpp</text>
</a>
</g>
</g>
<!-- Node2 -->
<g id="node2" class="node">
<title>Node2</title>
<g id="a_node2"><a xlink:href="mco__avp__trigger__monitor__handler_8cpp.html" target="_top" xlink:title=" ">
<polygon fill="white" stroke="black" points="0,-0.5 0,-41.5 122,-41.5 122,-0.5 0,-0.5"/>
<text text-anchor="start" x="8" y="-29.5" font-family="Helvetica,sans-Serif" font-size="10.00">mc_orchestrator/bl</text>
<text text-anchor="start" x="8" y="-18.5" font-family="Helvetica,sans-Serif" font-size="10.00">/src/mco_avp_trigger</text>
<text text-anchor="middle" x="61" y="-7.5" font-family="Helvetica,sans-Serif" font-size="10.00">_monitor_handler.cpp</text>
</a>
</g>
</g>
<!-- Node1&#45;&gt;Node2 -->
<g id="edge1" class="edge">
<title>Node1&#45;&gt;Node2</title>
<path fill="none" stroke="midnightblue" d="M951.99,-246.5C731.27,-241.43 200.86,-226.43 125,-198 72.22,-178.22 49.73,-170.65 25,-120 12.2,-93.78 29.74,-61.78 44.52,-41.64"/>
<polygon fill="midnightblue" stroke="midnightblue" points="952.18,-250 962.26,-246.73 952.34,-243 952.18,-250"/>
</g>
<!-- Node3 -->
<g id="node3" class="node">
<title>Node3</title>
<g id="a_node3"><a xlink:href="mco__qm__ota__handler_8cpp.html" target="_top" xlink:title=" ">
<polygon fill="white" stroke="black" points="469,-6 469,-36 631,-36 631,-6 469,-6"/>
<text text-anchor="start" x="477" y="-24" font-family="Helvetica,sans-Serif" font-size="10.00">mc_orchestrator/bl</text>
<text text-anchor="middle" x="550" y="-13" font-family="Helvetica,sans-Serif" font-size="10.00">/src/mco_qm_ota_handler.cpp</text>
</a>
</g>
</g>
<!-- Node1&#45;&gt;Node3 -->
<g id="edge2" class="edge">
<title>Node1&#45;&gt;Node3</title>
<path fill="none" stroke="midnightblue" d="M1011.86,-229.35C994.33,-220 973.01,-208.52 954,-198 892.69,-164.08 871.92,-163.51 817,-120 797.03,-104.18 799.96,-90.91 778,-78 770.67,-73.69 675.87,-51.17 610.85,-36.04"/>
<polygon fill="midnightblue" stroke="midnightblue" points="1010.69,-232.69 1021.16,-234.31 1013.98,-226.52 1010.69,-232.69"/>
</g>
<!-- Node4 -->
<g id="node4" class="node">
<title>Node4</title>
<g id="a_node4"><a xlink:href="mco__resource__monitor__handler_8cpp.html" target="_top" xlink:title=" ">
<polygon fill="white" stroke="black" points="649.5,-0.5 649.5,-41.5 798.5,-41.5 798.5,-0.5 649.5,-0.5"/>
<text text-anchor="start" x="657.5" y="-29.5" font-family="Helvetica,sans-Serif" font-size="10.00">mc_orchestrator/bl</text>
<text text-anchor="start" x="657.5" y="-18.5" font-family="Helvetica,sans-Serif" font-size="10.00">/src/mco_resource_monitor</text>
<text text-anchor="middle" x="724" y="-7.5" font-family="Helvetica,sans-Serif" font-size="10.00">_handler.cpp</text>
</a>
</g>
</g>
<!-- Node1&#45;&gt;Node4 -->
<g id="edge3" class="edge">
<title>Node1&#45;&gt;Node4</title>
<path fill="none" stroke="midnightblue" d="M1043,-224.25C1033.81,-182.05 1013.14,-97.71 991,-78 963.01,-53.08 867.6,-37.57 798.81,-29.36"/>
<polygon fill="midnightblue" stroke="midnightblue" points="1039.62,-225.2 1045.13,-234.24 1046.47,-223.73 1039.62,-225.2"/>
</g>
<!-- Node5 -->
<g id="node5" class="node">
<title>Node5</title>
<g id="a_node5"><a xlink:href="mco__server__handler_8cpp.html" target="_top" xlink:title=" ">
<polygon fill="white" stroke="black" points="910,-6 910,-36 1066,-36 1066,-6 910,-6"/>
<text text-anchor="start" x="918" y="-24" font-family="Helvetica,sans-Serif" font-size="10.00">mc_orchestrator/bl</text>
<text text-anchor="middle" x="988" y="-13" font-family="Helvetica,sans-Serif" font-size="10.00">/src/mco_server_handler.cpp</text>
</a>
</g>
</g>
<!-- Node1&#45;&gt;Node5 -->
<g id="edge4" class="edge">
<title>Node1&#45;&gt;Node5</title>
<path fill="none" stroke="midnightblue" d="M1047.82,-223.98C1046.84,-190.11 1042.42,-127.6 1024,-78 1018.29,-62.61 1007.83,-47.07 999.66,-36.27"/>
<polygon fill="midnightblue" stroke="midnightblue" points="1044.32,-224.38 1048.03,-234.3 1051.32,-224.23 1044.32,-224.38"/>
</g>
<!-- Node6 -->
<g id="node6" class="node">
<title>Node6</title>
<g id="a_node6"><a xlink:href="mco__user__app__control__handler_8cpp.html" target="_top" xlink:title=" ">
<polygon fill="white" stroke="black" points="1076,-156.5 1076,-197.5 1222,-197.5 1222,-156.5 1076,-156.5"/>
<text text-anchor="start" x="1084" y="-185.5" font-family="Helvetica,sans-Serif" font-size="10.00">mc_orchestrator/bl</text>
<text text-anchor="start" x="1084" y="-174.5" font-family="Helvetica,sans-Serif" font-size="10.00">/src/mco_user_app_control</text>
<text text-anchor="middle" x="1149" y="-163.5" font-family="Helvetica,sans-Serif" font-size="10.00">_handler.cpp</text>
</a>
</g>
</g>
<!-- Node1&#45;&gt;Node6 -->
<g id="edge5" class="edge">
<title>Node1&#45;&gt;Node6</title>
<path fill="none" stroke="midnightblue" d="M1076.68,-228.48C1090.55,-218.8 1107.14,-207.22 1120.94,-197.59"/>
<polygon fill="midnightblue" stroke="midnightblue" points="1074.64,-225.64 1068.44,-234.23 1078.64,-231.38 1074.64,-225.64"/>
</g>
<!-- Node7 -->
<g id="node7" class="node">
<title>Node7</title>
<g id="a_node7"><a xlink:href="mco__config__handler_8hpp.html" target="_top" xlink:title=" ">
<polygon fill="white" stroke="black" points="455,-162 455,-192 611,-192 611,-162 455,-162"/>
<text text-anchor="start" x="463" y="-180" font-family="Helvetica,sans-Serif" font-size="10.00">mc_orchestrator/common</text>
<text text-anchor="middle" x="533" y="-169" font-family="Helvetica,sans-Serif" font-size="10.00">/inc/mco_config_handler.hpp</text>
</a>
</g>
</g>
<!-- Node1&#45;&gt;Node7 -->
<g id="edge6" class="edge">
<title>Node1&#45;&gt;Node7</title>
<path fill="none" stroke="midnightblue" d="M952.44,-235.42C854.09,-221.96 702.7,-201.23 611.22,-188.71"/>
<polygon fill="midnightblue" stroke="midnightblue" points="952,-238.89 962.38,-236.78 952.95,-231.96 952,-238.89"/>
</g>
<!-- Node9 -->
<g id="node9" class="node">
<title>Node9</title>
<g id="a_node9"><a xlink:href="main_8cpp.html" target="_top" xlink:title=" ">
<polygon fill="white" stroke="black" points="173,-11.5 173,-30.5 317,-30.5 317,-11.5 173,-11.5"/>
<text text-anchor="middle" x="245" y="-18.5" font-family="Helvetica,sans-Serif" font-size="10.00">mc_orchestrator/main.cpp</text>
</a>
</g>
</g>
<!-- Node1&#45;&gt;Node9 -->
<g id="edge26" class="edge">
<title>Node1&#45;&gt;Node9</title>
<path fill="none" stroke="midnightblue" d="M951.99,-243.63C710.88,-230.41 94.92,-190.01 37,-120 25.1,-105.62 25.65,-92.82 37,-78 47.18,-64.72 144.82,-42.63 202.63,-30.55"/>
<polygon fill="midnightblue" stroke="midnightblue" points="951.97,-247.14 962.15,-244.19 952.35,-240.15 951.97,-247.14"/>
</g>
<!-- Node13 -->
<g id="node13" class="node">
<title>Node13</title>
<g id="a_node13"><a xlink:href="mco__config__handler_8cpp.html" target="_top" xlink:title=" ">
<polygon fill="white" stroke="black" points="826.5,-84 826.5,-114 981.5,-114 981.5,-84 826.5,-84"/>
<text text-anchor="start" x="834.5" y="-102" font-family="Helvetica,sans-Serif" font-size="10.00">mc_orchestrator/common</text>
<text text-anchor="middle" x="904" y="-91" font-family="Helvetica,sans-Serif" font-size="10.00">/src/mco_config_handler.cpp</text>
</a>
</g>
</g>
<!-- Node1&#45;&gt;Node13 -->
<g id="edge23" class="edge">
<title>Node1&#45;&gt;Node13</title>
<path fill="none" stroke="midnightblue" d="M1025.46,-227.05C1016.24,-218.16 1005.51,-207.67 996,-198 967.2,-168.71 934.52,-133.38 916.9,-114.15"/>
<polygon fill="midnightblue" stroke="midnightblue" points="1023.16,-229.7 1032.8,-234.1 1028.01,-224.65 1023.16,-229.7"/>
</g>
<!-- Node14 -->
<g id="node14" class="node">
<title>Node14</title>
<g id="a_node14"><a xlink:href="mco__database__handler_8cpp.html" target="_top" xlink:title=" ">
<polygon fill="white" stroke="black" points="1240,-162 1240,-192 1410,-192 1410,-162 1240,-162"/>
<text text-anchor="start" x="1248" y="-180" font-family="Helvetica,sans-Serif" font-size="10.00">mc_orchestrator/common</text>
<text text-anchor="middle" x="1325" y="-169" font-family="Helvetica,sans-Serif" font-size="10.00">/src/mco_database_handler.cpp</text>
</a>
</g>
</g>
<!-- Node1&#45;&gt;Node14 -->
<g id="edge24" class="edge">
<title>Node1&#45;&gt;Node14</title>
<path fill="none" stroke="midnightblue" d="M1112.95,-231.97C1160.52,-219.86 1224.4,-203.6 1269.57,-192.11"/>
<polygon fill="midnightblue" stroke="midnightblue" points="1111.89,-228.63 1103.06,-234.49 1113.61,-235.41 1111.89,-228.63"/>
</g>
<!-- Node15 -->
<g id="node15" class="node">
<title>Node15</title>
<g id="a_node15"><a xlink:href="mco__utils_8cpp.html" target="_top" xlink:title=" ">
<polygon fill="white" stroke="black" points="1428,-162 1428,-192 1570,-192 1570,-162 1428,-162"/>
<text text-anchor="start" x="1436" y="-180" font-family="Helvetica,sans-Serif" font-size="10.00">mc_orchestrator/common</text>
<text text-anchor="middle" x="1499" y="-169" font-family="Helvetica,sans-Serif" font-size="10.00">/src/mco_utils.cpp</text>
</a>
</g>
</g>
<!-- Node1&#45;&gt;Node15 -->
<g id="edge25" class="edge">
<title>Node1&#45;&gt;Node15</title>
<path fill="none" stroke="midnightblue" d="M1143.92,-238.37C1219.11,-229.73 1326.18,-215.86 1419,-198 1427.86,-196.3 1437.2,-194.22 1446.25,-192.06"/>
<polygon fill="midnightblue" stroke="midnightblue" points="1143.07,-234.95 1133.53,-239.56 1143.86,-241.9 1143.07,-234.95"/>
</g>
<!-- Node16 -->
<g id="node16" class="node">
<title>Node16</title>
<g id="a_node16"><a xlink:href="mco__bluechi__commands_8cpp.html" target="_top" xlink:title=" ">
<polygon fill="white" stroke="black" points="1588,-162 1588,-192 1766,-192 1766,-162 1588,-162"/>
<text text-anchor="start" x="1596" y="-180" font-family="Helvetica,sans-Serif" font-size="10.00">mc_orchestrator/runtime</text>
<text text-anchor="middle" x="1677" y="-169" font-family="Helvetica,sans-Serif" font-size="10.00">/src/mco_bluechi_commands.cpp</text>
</a>
</g>
</g>
<!-- Node1&#45;&gt;Node16 -->
<g id="edge27" class="edge">
<title>Node1&#45;&gt;Node16</title>
<path fill="none" stroke="midnightblue" d="M1143.97,-242.46C1250.6,-235.03 1427.72,-220.57 1579,-198 1590.16,-196.33 1601.98,-194.23 1613.39,-192.01"/>
<polygon fill="midnightblue" stroke="midnightblue" points="1143.61,-238.98 1133.87,-243.16 1144.09,-245.96 1143.61,-238.98"/>
</g>
<!-- Node17 -->
<g id="node17" class="node">
<title>Node17</title>
<g id="a_node17"><a xlink:href="mco__k3s__commands_8cpp.html" target="_top" xlink:title=" ">
<polygon fill="white" stroke="black" points="1784,-162 1784,-192 1944,-192 1944,-162 1784,-162"/>
<text text-anchor="start" x="1792" y="-180" font-family="Helvetica,sans-Serif" font-size="10.00">mc_orchestrator/runtime</text>
<text text-anchor="middle" x="1864" y="-169" font-family="Helvetica,sans-Serif" font-size="10.00">/src/mco_k3s_commands.cpp</text>
</a>
</g>
</g>
<!-- Node1&#45;&gt;Node17 -->
<g id="edge28" class="edge">
<title>Node1&#45;&gt;Node17</title>
<path fill="none" stroke="midnightblue" d="M1143.74,-246.47C1283.25,-242.47 1550.28,-230.86 1775,-198 1785.5,-196.46 1796.6,-194.36 1807.27,-192.1"/>
<polygon fill="midnightblue" stroke="midnightblue" points="1143.41,-242.98 1133.51,-246.76 1143.6,-249.97 1143.41,-242.98"/>
</g>
<!-- Node18 -->
<g id="node18" class="node">
<title>Node18</title>
<g id="a_node18"><a xlink:href="mco__podman__commands_8cpp.html" target="_top" xlink:title=" ">
<polygon fill="white" stroke="black" points="1962,-162 1962,-192 2144,-192 2144,-162 1962,-162"/>
<text text-anchor="start" x="1970" y="-180" font-family="Helvetica,sans-Serif" font-size="10.00">mc_orchestrator/runtime</text>
<text text-anchor="middle" x="2053" y="-169" font-family="Helvetica,sans-Serif" font-size="10.00">/src/mco_podman_commands.cpp</text>
</a>
</g>
</g>
<!-- Node1&#45;&gt;Node18 -->
<g id="edge29" class="edge">
<title>Node1&#45;&gt;Node18</title>
<path fill="none" stroke="midnightblue" d="M1143.68,-247.61C1309.24,-245.07 1659.62,-235.33 1953,-198 1965.03,-196.47 1977.78,-194.33 1990.01,-192.01"/>
<polygon fill="midnightblue" stroke="midnightblue" points="1143.47,-244.11 1133.52,-247.76 1143.57,-251.11 1143.47,-244.11"/>
</g>
<!-- Node7&#45;&gt;Node3 -->
<g id="edge20" class="edge">
<title>Node7&#45;&gt;Node3</title>
<path fill="none" stroke="midnightblue" d="M549.67,-153.1C555.76,-143.4 561.91,-131.65 565,-120 572.78,-90.72 562.77,-55.38 555.76,-36.15"/>
<polygon fill="midnightblue" stroke="midnightblue" points="546.57,-151.45 543.96,-161.72 552.4,-155.32 546.57,-151.45"/>
</g>
<!-- Node8 -->
<g id="node8" class="node">
<title>Node8</title>
<g id="a_node8"><a xlink:href="mco__avp__trigger__monitor__handler_8hpp.html" target="_top" xlink:title=" ">
<polygon fill="white" stroke="black" points="46.5,-78.5 46.5,-119.5 169.5,-119.5 169.5,-78.5 46.5,-78.5"/>
<text text-anchor="start" x="54.5" y="-107.5" font-family="Helvetica,sans-Serif" font-size="10.00">mc_orchestrator/bl</text>
<text text-anchor="start" x="54.5" y="-96.5" font-family="Helvetica,sans-Serif" font-size="10.00">/inc/mco_avp_trigger</text>
<text text-anchor="middle" x="108" y="-85.5" font-family="Helvetica,sans-Serif" font-size="10.00">_monitor_handler.hpp</text>
</a>
</g>
</g>
<!-- Node7&#45;&gt;Node8 -->
<g id="edge7" class="edge">
<title>Node7&#45;&gt;Node8</title>
<path fill="none" stroke="midnightblue" d="M444.75,-164.29C373.93,-154.3 272.13,-138.62 184,-120 179.33,-119.01 174.51,-117.92 169.68,-116.77"/>
<polygon fill="midnightblue" stroke="midnightblue" points="444.58,-167.8 454.97,-165.72 445.55,-160.86 444.58,-167.8"/>
</g>
<!-- Node7&#45;&gt;Node9 -->
<g id="edge22" class="edge">
<title>Node7&#45;&gt;Node9</title>
<path fill="none" stroke="midnightblue" d="M444.46,-172.65C361.32,-167.42 245.56,-154.07 217,-120 194.49,-93.15 223.55,-49.21 237.87,-30.68"/>
<polygon fill="midnightblue" stroke="midnightblue" points="444.49,-176.16 454.69,-173.26 444.91,-169.17 444.49,-176.16"/>
</g>
<!-- Node10 -->
<g id="node10" class="node">
<title>Node10</title>
<g id="a_node10"><a xlink:href="mco__qm__ota__handler_8hpp.html" target="_top" xlink:title=" ">
<polygon fill="white" stroke="black" points="226.5,-84 226.5,-114 389.5,-114 389.5,-84 226.5,-84"/>
<text text-anchor="start" x="234.5" y="-102" font-family="Helvetica,sans-Serif" font-size="10.00">mc_orchestrator/bl</text>
<text text-anchor="middle" x="308" y="-91" font-family="Helvetica,sans-Serif" font-size="10.00">/inc/mco_qm_ota_handler.hpp</text>
</a>
</g>
</g>
<!-- Node7&#45;&gt;Node10 -->
<g id="edge10" class="edge">
<title>Node7&#45;&gt;Node10</title>
<path fill="none" stroke="midnightblue" d="M481.9,-158.74C441.92,-145.23 387.02,-126.69 349.67,-114.07"/>
<polygon fill="midnightblue" stroke="midnightblue" points="480.88,-162.09 491.47,-161.97 483.12,-155.46 480.88,-162.09"/>
</g>
<!-- Node11 -->
<g id="node11" class="node">
<title>Node11</title>
<g id="a_node11"><a xlink:href="mco__resource__monitor__handler_8hpp.html" target="_top" xlink:title=" ">
<polygon fill="white" stroke="black" points="407.5,-78.5 407.5,-119.5 556.5,-119.5 556.5,-78.5 407.5,-78.5"/>
<text text-anchor="start" x="415.5" y="-107.5" font-family="Helvetica,sans-Serif" font-size="10.00">mc_orchestrator/bl</text>
<text text-anchor="start" x="415.5" y="-96.5" font-family="Helvetica,sans-Serif" font-size="10.00">/inc/mco_resource_monitor</text>
<text text-anchor="middle" x="482" y="-85.5" font-family="Helvetica,sans-Serif" font-size="10.00">_handler.hpp</text>
</a>
</g>
</g>
<!-- Node7&#45;&gt;Node11 -->
<g id="edge13" class="edge">
<title>Node7&#45;&gt;Node11</title>
<path fill="none" stroke="midnightblue" d="M517.75,-153.27C510.58,-142.58 502.1,-129.96 495.21,-119.68"/>
<polygon fill="midnightblue" stroke="midnightblue" points="514.93,-155.35 523.41,-161.7 520.74,-151.45 514.93,-155.35"/>
</g>
<!-- Node12 -->
<g id="node12" class="node">
<title>Node12</title>
<g id="a_node12"><a xlink:href="mco__server__handler_8hpp.html" target="_top" xlink:title=" ">
<polygon fill="white" stroke="black" points="612.5,-84 612.5,-114 769.5,-114 769.5,-84 612.5,-84"/>
<text text-anchor="start" x="620.5" y="-102" font-family="Helvetica,sans-Serif" font-size="10.00">mc_orchestrator/bl</text>
<text text-anchor="middle" x="691" y="-91" font-family="Helvetica,sans-Serif" font-size="10.00">/inc/mco_server_handler.hpp</text>
</a>
</g>
</g>
<!-- Node7&#45;&gt;Node12 -->
<g id="edge16" class="edge">
<title>Node7&#45;&gt;Node12</title>
<path fill="none" stroke="midnightblue" d="M571.41,-157.52C599.26,-144.13 636.36,-126.28 661.81,-114.04"/>
<polygon fill="midnightblue" stroke="midnightblue" points="569.84,-154.39 562.35,-161.88 572.88,-160.7 569.84,-154.39"/>
</g>
<!-- Node7&#45;&gt;Node13 -->
<g id="edge21" class="edge">
<title>Node7&#45;&gt;Node13</title>
<path fill="none" stroke="midnightblue" d="M611.48,-159.92C677.93,-146.31 772.21,-127 835.61,-114.01"/>
<polygon fill="midnightblue" stroke="midnightblue" points="610.57,-156.54 601.48,-161.97 611.98,-163.39 610.57,-156.54"/>
</g>
<!-- Node8&#45;&gt;Node2 -->
<g id="edge8" class="edge">
<title>Node8&#45;&gt;Node2</title>
<path fill="none" stroke="midnightblue" d="M90.53,-69.76C84.72,-60.35 78.38,-50.1 73.06,-41.51"/>
<polygon fill="midnightblue" stroke="midnightblue" points="87.66,-71.76 95.9,-78.43 93.61,-68.08 87.66,-71.76"/>
</g>
<!-- Node8&#45;&gt;Node9 -->
<g id="edge9" class="edge">
<title>Node8&#45;&gt;Node9</title>
<path fill="none" stroke="midnightblue" d="M152.06,-73.56C178.65,-58.8 210.91,-40.91 229.58,-30.55"/>
<polygon fill="midnightblue" stroke="midnightblue" points="150.33,-70.52 143.28,-78.43 153.72,-76.64 150.33,-70.52"/>
</g>
<!-- Node10&#45;&gt;Node3 -->
<g id="edge11" class="edge">
<title>Node10&#45;&gt;Node3</title>
<path fill="none" stroke="midnightblue" d="M362.41,-80.91C405.46,-67.39 464.84,-48.74 505.18,-36.07"/>
<polygon fill="midnightblue" stroke="midnightblue" points="361.16,-77.64 352.67,-83.97 363.26,-84.31 361.16,-77.64"/>
</g>
<!-- Node10&#45;&gt;Node9 -->
<g id="edge12" class="edge">
<title>Node10&#45;&gt;Node9</title>
<path fill="none" stroke="midnightblue" d="M289.59,-75.79C277.04,-60.66 261.12,-41.45 252.1,-30.56"/>
<polygon fill="midnightblue" stroke="midnightblue" points="287.07,-78.24 296.15,-83.7 292.46,-73.77 287.07,-78.24"/>
</g>
<!-- Node11&#45;&gt;Node4 -->
<g id="edge14" class="edge">
<title>Node11&#45;&gt;Node4</title>
<path fill="none" stroke="midnightblue" d="M554.27,-75.3C588.53,-64.55 629.04,-51.82 661.89,-41.51"/>
<polygon fill="midnightblue" stroke="midnightblue" points="552.81,-72.09 544.32,-78.43 554.91,-78.77 552.81,-72.09"/>
</g>
<!-- Node11&#45;&gt;Node9 -->
<g id="edge15" class="edge">
<title>Node11&#45;&gt;Node9</title>
<path fill="none" stroke="midnightblue" d="M411.43,-75.37C364.42,-60.3 305.3,-41.34 271.67,-30.55"/>
<polygon fill="midnightblue" stroke="midnightblue" points="410.38,-78.71 420.97,-78.43 412.51,-72.04 410.38,-78.71"/>
</g>
<!-- Node12&#45;&gt;Node4 -->
<g id="edge17" class="edge">
<title>Node12&#45;&gt;Node4</title>
<path fill="none" stroke="midnightblue" d="M701.29,-74.31C705.84,-63.83 711.13,-51.65 715.45,-41.68"/>
<polygon fill="midnightblue" stroke="midnightblue" points="697.98,-73.14 697.21,-83.7 704.4,-75.93 697.98,-73.14"/>
</g>
<!-- Node12&#45;&gt;Node5 -->
<g id="edge18" class="edge">
<title>Node12&#45;&gt;Node5</title>
<path fill="none" stroke="midnightblue" d="M755.81,-81.42C808.87,-67.84 883.12,-48.84 933.25,-36.01"/>
<polygon fill="midnightblue" stroke="midnightblue" points="754.64,-78.1 745.82,-83.97 756.38,-84.88 754.64,-78.1"/>
</g>
<!-- Node12&#45;&gt;Node9 -->
<g id="edge19" class="edge">
<title>Node12&#45;&gt;Node9</title>
<path fill="none" stroke="midnightblue" d="M602.42,-82.91C510.28,-67.2 369.29,-43.18 294.92,-30.51"/>
<polygon fill="midnightblue" stroke="midnightblue" points="601.84,-86.36 612.29,-84.59 603.02,-79.46 601.84,-86.36"/>
</g>
</g>
</svg>
