<?xml version="1.0" encoding="UTF-8" standalone="no"?>
<!DOCTYPE svg PUBLIC "-//W3C//DTD SVG 1.1//EN"
 "http://www.w3.org/Graphics/SVG/1.1/DTD/svg11.dtd">
<!-- Generated by graphviz version 2.43.0 (0)
 -->
<!-- Title: GetCurrentTime Pages: 1 -->
<!--zoomable 235 -->
<svg id="main" version="1.1" xmlns="http://www.w3.org/2000/svg" xmlns:xlink="http://www.w3.org/1999/xlink" xml:space="preserve" onload="init(evt)">
<style type="text/css"><![CDATA[
.edge:hover path { stroke: red; }
.edge:hover polygon { stroke: red; fill: red; }
]]></style>
<script type="text/javascript"><![CDATA[
var edges = document.getElementsByTagName('g');
if (edges && edges.length) {
  for (var i=0;i<edges.length;i++) {
    if (edges[i].id.substr(0,4)=='edge') {
      edges[i].setAttribute('class','edge');
    }
  }
}
]]></script>
        <defs>
                <circle id="rim" cx="0" cy="0" r="7"/>
                <circle id="rim2" cx="0" cy="0" r="3.5"/>
                <g id="zoomPlus">
                        <use xlink:href="#rim" fill="#404040">
                                <set attributeName="fill" to="#808080" begin="zoomplus.mouseover" end="zoomplus.mouseout"/>
                        </use>
                        <path d="M-4,0h8M0,-4v8" fill="none" stroke="white" stroke-width="1.5" pointer-events="none"/>
                </g>
                <g id="zoomMin">
                        <use xlink:href="#rim" fill="#404040">
                                <set attributeName="fill" to="#808080" begin="zoomminus.mouseover" end="zoomminus.mouseout"/>
                        </use>
                        <path d="M-4,0h8" fill="none" stroke="white" stroke-width="1.5" pointer-events="none"/>
                </g>
                <g id="dirArrow">
                        <path fill="none" stroke="white" stroke-width="1.5" d="M0,-3.0v7 M-2.5,-0.5L0,-3.0L2.5,-0.5"/>
                </g>
               <g id="resetDef">
                       <use xlink:href="#rim2" fill="#404040">
                               <set attributeName="fill" to="#808080" begin="reset.mouseover" end="reset.mouseout"/>
                       </use>
               </g>
        </defs>

<script type="text/javascript">
var viewWidth = 523;
var viewHeight = 235;
var sectionId = 'dynsection-5';
</script>
<script xlink:href="svgpan.js"/>
<svg id="graph" class="graph">
<g id="viewport">
<title>GetCurrentTime</title>
<polygon fill="white" stroke="transparent" points="-4,4 -4,-231 519,-231 519,4 -4,4"/>
<!-- Node1 -->
<g id="node1" class="node">
<title>Node1</title>
<g id="a_node1"><a xlink:title=" ">
<polygon fill="#bfbfbf" stroke="black" points="421,-126 421,-145 515,-145 515,-126 421,-126"/>
<text text-anchor="middle" x="468" y="-133" font-family="Helvetica,sans-Serif" font-size="10.00">GetCurrentTime</text>
</a>
</g>
</g>
<!-- Node2 -->
<g id="node2" class="node">
<title>Node2</title>
<g id="a_node2"><a xlink:href="classResourceMonitorSubject.html#af753b448b8227b7488f0dde35a9aaad8" target="_top" xlink:title=" ">
<polygon fill="white" stroke="black" points="227,-142.5 227,-172.5 385,-172.5 385,-142.5 227,-142.5"/>
<text text-anchor="start" x="235" y="-160.5" font-family="Helvetica,sans-Serif" font-size="10.00">ResourceMonitorSubject</text>
<text text-anchor="middle" x="306" y="-149.5" font-family="Helvetica,sans-Serif" font-size="10.00">::AverageResourceUtilization</text>
</a>
</g>
</g>
<!-- Node1&#45;&gt;Node2 -->
<g id="edge1" class="edge">
<title>Node1&#45;&gt;Node2</title>
<path fill="none" stroke="midnightblue" d="M410.8,-143.23C402.48,-144.37 393.79,-145.57 385.13,-146.76"/>
<polygon fill="midnightblue" stroke="midnightblue" points="411.29,-146.69 420.72,-141.86 410.34,-139.76 411.29,-146.69"/>
</g>
<!-- Node3 -->
<g id="node3" class="node">
<title>Node3</title>
<g id="a_node3"><a xlink:href="mco__utils_8cpp.html#ab747dbf4aef59c2c54c746135db41210" target="_top" xlink:title=" ">
<polygon fill="white" stroke="black" points="266,-104 266,-123 346,-123 346,-104 266,-104"/>
<text text-anchor="middle" x="306" y="-111" font-family="Helvetica,sans-Serif" font-size="10.00">UpdateEvent</text>
</a>
</g>
</g>
<!-- Node1&#45;&gt;Node3 -->
<g id="edge2" class="edge">
<title>Node1&#45;&gt;Node3</title>
<path fill="none" stroke="midnightblue" d="M410.79,-127.77C389.43,-124.83 365.58,-121.56 346.14,-118.88"/>
<polygon fill="midnightblue" stroke="midnightblue" points="410.34,-131.24 420.72,-129.14 411.29,-124.31 410.34,-131.24"/>
</g>
<!-- Node4 -->
<g id="node4" class="node">
<title>Node4</title>
<g id="a_node4"><a xlink:href="classDeletePodObserver.html#aefbbe55642d3054190461a5e6bce5d89" target="_top" xlink:title=" ">
<polygon fill="white" stroke="black" points="37,-196.5 37,-226.5 154,-226.5 154,-196.5 37,-196.5"/>
<text text-anchor="start" x="45" y="-214.5" font-family="Helvetica,sans-Serif" font-size="10.00">DeletePodObserver::</text>
<text text-anchor="middle" x="95.5" y="-203.5" font-family="Helvetica,sans-Serif" font-size="10.00">DeleteAllPods</text>
</a>
</g>
</g>
<!-- Node3&#45;&gt;Node4 -->
<g id="edge3" class="edge">
<title>Node3&#45;&gt;Node4</title>
<path fill="none" stroke="midnightblue" d="M256,-120.26C245.79,-123.2 235.55,-127.43 227,-133.5 203.47,-150.19 214.55,-170.84 191,-187.5 180.22,-195.13 167.24,-200.33 154.39,-203.89"/>
<polygon fill="midnightblue" stroke="midnightblue" points="256.87,-123.65 265.71,-117.81 255.16,-116.86 256.87,-123.65"/>
</g>
<!-- Node5 -->
<g id="node5" class="node">
<title>Node5</title>
<g id="a_node5"><a xlink:href="classAvpTriggerMonitorHandler.html#aa2520c7b0dfa2fb7762e3e69025a4599" target="_top" xlink:title="initialize LFO to check for pods status.">
<polygon fill="white" stroke="black" points="23.5,-147.5 23.5,-177.5 167.5,-177.5 167.5,-147.5 23.5,-147.5"/>
<text text-anchor="start" x="31.5" y="-165.5" font-family="Helvetica,sans-Serif" font-size="10.00">AvpTriggerMonitorHandler</text>
<text text-anchor="middle" x="95.5" y="-154.5" font-family="Helvetica,sans-Serif" font-size="10.00">::Init</text>
</a>
</g>
</g>
<!-- Node3&#45;&gt;Node5 -->
<g id="edge4" class="edge">
<title>Node3&#45;&gt;Node5</title>
<path fill="none" stroke="midnightblue" d="M256.05,-125C227.55,-131.7 191.29,-140.22 160.54,-147.45"/>
<polygon fill="midnightblue" stroke="midnightblue" points="256.85,-128.41 265.78,-122.72 255.25,-121.6 256.85,-128.41"/>
</g>
<!-- Node6 -->
<g id="node6" class="node">
<title>Node6</title>
<g id="a_node6"><a xlink:href="classResourceMonitorHandler.html#ae43ecd76d870fc12d19522507febac9d" target="_top" xlink:title="initialize LFO to check for pods status.">
<polygon fill="white" stroke="black" points="27,-98.5 27,-128.5 164,-128.5 164,-98.5 27,-98.5"/>
<text text-anchor="start" x="35" y="-116.5" font-family="Helvetica,sans-Serif" font-size="10.00">ResourceMonitorHandler</text>
<text text-anchor="middle" x="95.5" y="-105.5" font-family="Helvetica,sans-Serif" font-size="10.00">::Init</text>
</a>
</g>
</g>
<!-- Node3&#45;&gt;Node6 -->
<g id="edge5" class="edge">
<title>Node3&#45;&gt;Node6</title>
<path fill="none" stroke="midnightblue" d="M255.69,-113.5C228.39,-113.5 194.05,-113.5 164.26,-113.5"/>
<polygon fill="midnightblue" stroke="midnightblue" points="255.78,-117 265.78,-113.5 255.78,-110 255.78,-117"/>
</g>
<!-- Node7 -->
<g id="node7" class="node">
<title>Node7</title>
<g id="a_node7"><a xlink:href="classRespawnPodObserver.html#a3b8bc53a9b9087d4c1a18111a33eb61d" target="_top" xlink:title=" ">
<polygon fill="white" stroke="black" points="34,-49.5 34,-79.5 157,-79.5 157,-49.5 34,-49.5"/>
<text text-anchor="start" x="42" y="-67.5" font-family="Helvetica,sans-Serif" font-size="10.00">RespawnPodObserver</text>
<text text-anchor="middle" x="95.5" y="-56.5" font-family="Helvetica,sans-Serif" font-size="10.00">::RespawnAllPods</text>
</a>
</g>
</g>
<!-- Node3&#45;&gt;Node7 -->
<g id="edge6" class="edge">
<title>Node3&#45;&gt;Node7</title>
<path fill="none" stroke="midnightblue" d="M255.73,-101.92C226.26,-94.99 188.58,-86.14 157.27,-78.78"/>
<polygon fill="midnightblue" stroke="midnightblue" points="255.25,-105.4 265.78,-104.28 256.85,-98.59 255.25,-105.4"/>
</g>
<!-- Node8 -->
<g id="node8" class="node">
<title>Node8</title>
<g id="a_node8"><a xlink:href="classServerHandler.html#af3ecda4d745ef95296198e41ac3cf6e1" target="_top" xlink:title="start LFO server">
<polygon fill="white" stroke="black" points="0,-0.5 0,-30.5 191,-30.5 191,-0.5 0,-0.5"/>
<text text-anchor="start" x="8" y="-18.5" font-family="Helvetica,sans-Serif" font-size="10.00">ServerHandler::StartMcOrchestrator</text>
<text text-anchor="middle" x="95.5" y="-7.5" font-family="Helvetica,sans-Serif" font-size="10.00">Server</text>
</a>
</g>
</g>
<!-- Node3&#45;&gt;Node8 -->
<g id="edge7" class="edge">
<title>Node3&#45;&gt;Node8</title>
<path fill="none" stroke="midnightblue" d="M284.52,-97.58C262.52,-81.17 225.98,-55.88 191,-40.5 182.38,-36.71 173.05,-33.39 163.73,-30.51"/>
<polygon fill="midnightblue" stroke="midnightblue" points="282.66,-100.56 292.74,-103.81 286.88,-94.98 282.66,-100.56"/>
</g>
</g>
</svg>
        <g id="navigator" transform="translate(0 0)" fill="#404254">
                <rect fill="#f2f5e9" fill-opacity="0.5" stroke="#606060" stroke-width=".5" x="0" y="0" width="60" height="60"/>
                <use id="zoomplus" xlink:href="#zoomPlus" x="17" y="9" onmousedown="handleZoom(evt,'in')"/>
                <use id="zoomminus" xlink:href="#zoomMin" x="42" y="9" onmousedown="handleZoom(evt,'out')"/>
                <use id="reset" xlink:href="#resetDef" x="30" y="36" onmousedown="handleReset()"/>
                <g id="arrowUp" xlink:href="#dirArrow" transform="translate(30 24)" onmousedown="handlePan(0,-1)">
                  <use xlink:href="#rim" fill="#404040">
                        <set attributeName="fill" to="#808080" begin="arrowUp.mouseover" end="arrowUp.mouseout"/>
                  </use>
                  <path fill="none" stroke="white" stroke-width="1.5" d="M0,-3.0v7 M-2.5,-0.5L0,-3.0L2.5,-0.5"/>
                </g>
                <g id="arrowRight" xlink:href="#dirArrow" transform="rotate(90) translate(36 -43)" onmousedown="handlePan(1,0)">
                  <use xlink:href="#rim" fill="#404040">
                        <set attributeName="fill" to="#808080" begin="arrowRight.mouseover" end="arrowRight.mouseout"/>
                  </use>
                  <path fill="none" stroke="white" stroke-width="1.5" d="M0,-3.0v7 M-2.5,-0.5L0,-3.0L2.5,-0.5"/>
                </g>
                <g id="arrowDown" xlink:href="#dirArrow" transform="rotate(180) translate(-30 -48)" onmousedown="handlePan(0,1)">
                  <use xlink:href="#rim" fill="#404040">
                        <set attributeName="fill" to="#808080" begin="arrowDown.mouseover" end="arrowDown.mouseout"/>
                  </use>
                  <path fill="none" stroke="white" stroke-width="1.5" d="M0,-3.0v7 M-2.5,-0.5L0,-3.0L2.5,-0.5"/>
                </g>
                <g id="arrowLeft" xlink:href="#dirArrow" transform="rotate(270) translate(-36 17)" onmousedown="handlePan(-1,0)">
                  <use xlink:href="#rim" fill="#404040">
                        <set attributeName="fill" to="#808080" begin="arrowLeft.mouseover" end="arrowLeft.mouseout"/>
                  </use>
                  <path fill="none" stroke="white" stroke-width="1.5" d="M0,-3.0v7 M-2.5,-0.5L0,-3.0L2.5,-0.5"/>
                </g>
        </g>
        <svg viewBox="0 0 15 15" width="100%" height="30px" preserveAspectRatio="xMaxYMin meet">
         <g id="arrow_out" transform="scale(0.3 0.3)">
          <a xlink:href="mco__utils_8cpp_a1712cb19121295fe68a905b3e5c496f9_icgraph_org.svg" target="_base">
           <rect id="button" ry="5" rx="5" y="6" x="6" height="38" width="38"
                fill="#f2f5e9" fill-opacity="0.5" stroke="#606060" stroke-width="1.0"/>
           <path id="arrow"
             d="M 11.500037,31.436501 C 11.940474,20.09759 22.043105,11.32322 32.158766,21.979434 L 37.068811,17.246167 C 37.068811,17.246167 37.088388,32 37.088388,32 L 22.160133,31.978069 C 22.160133,31.978069 26.997745,27.140456 26.997745,27.140456 C 18.528582,18.264221 13.291696,25.230495 11.500037,31.436501 z"
             style="fill:#404040;"/>
          </a>
         </g>
        </svg>
</svg>
