<?xml version="1.0" encoding="UTF-8" standalone="no"?>
<!DOCTYPE svg PUBLIC "-//W3C//DTD SVG 1.1//EN"
 "http://www.w3.org/Graphics/SVG/1.1/DTD/svg11.dtd">
<!-- Generated by graphviz version 2.43.0 (0)
 -->
<!-- Title: GetCurrentTime Pages: 1 -->
<svg width="523pt" height="235pt"
 viewBox="0.00 0.00 523.00 235.00" xmlns="http://www.w3.org/2000/svg" xmlns:xlink="http://www.w3.org/1999/xlink">
<g id="graph0" class="graph" transform="scale(1 1) rotate(0) translate(4 231)">
<title>GetCurrentTime</title>
<polygon fill="white" stroke="transparent" points="-4,4 -4,-231 519,-231 519,4 -4,4"/>
<!-- Node1 -->
<g id="node1" class="node">
<title>Node1</title>
<g id="a_node1"><a xlink:title=" ">
<polygon fill="#bfbfbf" stroke="black" points="421,-126 421,-145 515,-145 515,-126 421,-126"/>
<text text-anchor="middle" x="468" y="-133" font-family="Helvetica,sans-Serif" font-size="10.00">GetCurrentTime</text>
</a>
</g>
</g>
<!-- Node2 -->
<g id="node2" class="node">
<title>Node2</title>
<g id="a_node2"><a xlink:href="classResourceMonitorSubject.html#af753b448b8227b7488f0dde35a9aaad8" target="_top" xlink:title=" ">
<polygon fill="white" stroke="black" points="227,-142.5 227,-172.5 385,-172.5 385,-142.5 227,-142.5"/>
<text text-anchor="start" x="235" y="-160.5" font-family="Helvetica,sans-Serif" font-size="10.00">ResourceMonitorSubject</text>
<text text-anchor="middle" x="306" y="-149.5" font-family="Helvetica,sans-Serif" font-size="10.00">::AverageResourceUtilization</text>
</a>
</g>
</g>
<!-- Node1&#45;&gt;Node2 -->
<g id="edge1" class="edge">
<title>Node1&#45;&gt;Node2</title>
<path fill="none" stroke="midnightblue" d="M410.8,-143.23C402.48,-144.37 393.79,-145.57 385.13,-146.76"/>
<polygon fill="midnightblue" stroke="midnightblue" points="411.29,-146.69 420.72,-141.86 410.34,-139.76 411.29,-146.69"/>
</g>
<!-- Node3 -->
<g id="node3" class="node">
<title>Node3</title>
<g id="a_node3"><a xlink:href="mco__utils_8cpp.html#ab747dbf4aef59c2c54c746135db41210" target="_top" xlink:title=" ">
<polygon fill="white" stroke="black" points="266,-104 266,-123 346,-123 346,-104 266,-104"/>
<text text-anchor="middle" x="306" y="-111" font-family="Helvetica,sans-Serif" font-size="10.00">UpdateEvent</text>
</a>
</g>
</g>
<!-- Node1&#45;&gt;Node3 -->
<g id="edge2" class="edge">
<title>Node1&#45;&gt;Node3</title>
<path fill="none" stroke="midnightblue" d="M410.79,-127.77C389.43,-124.83 365.58,-121.56 346.14,-118.88"/>
<polygon fill="midnightblue" stroke="midnightblue" points="410.34,-131.24 420.72,-129.14 411.29,-124.31 410.34,-131.24"/>
</g>
<!-- Node4 -->
<g id="node4" class="node">
<title>Node4</title>
<g id="a_node4"><a xlink:href="classDeletePodObserver.html#aefbbe55642d3054190461a5e6bce5d89" target="_top" xlink:title=" ">
<polygon fill="white" stroke="black" points="37,-196.5 37,-226.5 154,-226.5 154,-196.5 37,-196.5"/>
<text text-anchor="start" x="45" y="-214.5" font-family="Helvetica,sans-Serif" font-size="10.00">DeletePodObserver::</text>
<text text-anchor="middle" x="95.5" y="-203.5" font-family="Helvetica,sans-Serif" font-size="10.00">DeleteAllPods</text>
</a>
</g>
</g>
<!-- Node3&#45;&gt;Node4 -->
<g id="edge3" class="edge">
<title>Node3&#45;&gt;Node4</title>
<path fill="none" stroke="midnightblue" d="M256,-120.26C245.79,-123.2 235.55,-127.43 227,-133.5 203.47,-150.19 214.55,-170.84 191,-187.5 180.22,-195.13 167.24,-200.33 154.39,-203.89"/>
<polygon fill="midnightblue" stroke="midnightblue" points="256.87,-123.65 265.71,-117.81 255.16,-116.86 256.87,-123.65"/>
</g>
<!-- Node5 -->
<g id="node5" class="node">
<title>Node5</title>
<g id="a_node5"><a xlink:href="classAvpTriggerMonitorHandler.html#aa2520c7b0dfa2fb7762e3e69025a4599" target="_top" xlink:title="initialize LFO to check for pods status.">
<polygon fill="white" stroke="black" points="23.5,-147.5 23.5,-177.5 167.5,-177.5 167.5,-147.5 23.5,-147.5"/>
<text text-anchor="start" x="31.5" y="-165.5" font-family="Helvetica,sans-Serif" font-size="10.00">AvpTriggerMonitorHandler</text>
<text text-anchor="middle" x="95.5" y="-154.5" font-family="Helvetica,sans-Serif" font-size="10.00">::Init</text>
</a>
</g>
</g>
<!-- Node3&#45;&gt;Node5 -->
<g id="edge4" class="edge">
<title>Node3&#45;&gt;Node5</title>
<path fill="none" stroke="midnightblue" d="M256.05,-125C227.55,-131.7 191.29,-140.22 160.54,-147.45"/>
<polygon fill="midnightblue" stroke="midnightblue" points="256.85,-128.41 265.78,-122.72 255.25,-121.6 256.85,-128.41"/>
</g>
<!-- Node6 -->
<g id="node6" class="node">
<title>Node6</title>
<g id="a_node6"><a xlink:href="classResourceMonitorHandler.html#ae43ecd76d870fc12d19522507febac9d" target="_top" xlink:title="initialize LFO to check for pods status.">
<polygon fill="white" stroke="black" points="27,-98.5 27,-128.5 164,-128.5 164,-98.5 27,-98.5"/>
<text text-anchor="start" x="35" y="-116.5" font-family="Helvetica,sans-Serif" font-size="10.00">ResourceMonitorHandler</text>
<text text-anchor="middle" x="95.5" y="-105.5" font-family="Helvetica,sans-Serif" font-size="10.00">::Init</text>
</a>
</g>
</g>
<!-- Node3&#45;&gt;Node6 -->
<g id="edge5" class="edge">
<title>Node3&#45;&gt;Node6</title>
<path fill="none" stroke="midnightblue" d="M255.69,-113.5C228.39,-113.5 194.05,-113.5 164.26,-113.5"/>
<polygon fill="midnightblue" stroke="midnightblue" points="255.78,-117 265.78,-113.5 255.78,-110 255.78,-117"/>
</g>
<!-- Node7 -->
<g id="node7" class="node">
<title>Node7</title>
<g id="a_node7"><a xlink:href="classRespawnPodObserver.html#a3b8bc53a9b9087d4c1a18111a33eb61d" target="_top" xlink:title=" ">
<polygon fill="white" stroke="black" points="34,-49.5 34,-79.5 157,-79.5 157,-49.5 34,-49.5"/>
<text text-anchor="start" x="42" y="-67.5" font-family="Helvetica,sans-Serif" font-size="10.00">RespawnPodObserver</text>
<text text-anchor="middle" x="95.5" y="-56.5" font-family="Helvetica,sans-Serif" font-size="10.00">::RespawnAllPods</text>
</a>
</g>
</g>
<!-- Node3&#45;&gt;Node7 -->
<g id="edge6" class="edge">
<title>Node3&#45;&gt;Node7</title>
<path fill="none" stroke="midnightblue" d="M255.73,-101.92C226.26,-94.99 188.58,-86.14 157.27,-78.78"/>
<polygon fill="midnightblue" stroke="midnightblue" points="255.25,-105.4 265.78,-104.28 256.85,-98.59 255.25,-105.4"/>
</g>
<!-- Node8 -->
<g id="node8" class="node">
<title>Node8</title>
<g id="a_node8"><a xlink:href="classServerHandler.html#af3ecda4d745ef95296198e41ac3cf6e1" target="_top" xlink:title="start LFO server">
<polygon fill="white" stroke="black" points="0,-0.5 0,-30.5 191,-30.5 191,-0.5 0,-0.5"/>
<text text-anchor="start" x="8" y="-18.5" font-family="Helvetica,sans-Serif" font-size="10.00">ServerHandler::StartMcOrchestrator</text>
<text text-anchor="middle" x="95.5" y="-7.5" font-family="Helvetica,sans-Serif" font-size="10.00">Server</text>
</a>
</g>
</g>
<!-- Node3&#45;&gt;Node8 -->
<g id="edge7" class="edge">
<title>Node3&#45;&gt;Node8</title>
<path fill="none" stroke="midnightblue" d="M284.52,-97.58C262.52,-81.17 225.98,-55.88 191,-40.5 182.38,-36.71 173.05,-33.39 163.73,-30.51"/>
<polygon fill="midnightblue" stroke="midnightblue" points="282.66,-100.56 292.74,-103.81 286.88,-94.98 282.66,-100.56"/>
</g>
</g>
</svg>
