<?xml version="1.0" encoding="UTF-8" standalone="no"?>
<!DOCTYPE svg PUBLIC "-//W3C//DTD SVG 1.1//EN"
 "http://www.w3.org/Graphics/SVG/1.1/DTD/svg11.dtd">
<!-- Generated by graphviz version 2.43.0 (0)
 -->
<!-- Title: mc_orchestrator/common/inc/mco_mqtt_handler.hpp Pages: 1 -->
<svg width="280pt" height="95pt"
 viewBox="0.00 0.00 279.50 95.00" xmlns="http://www.w3.org/2000/svg" xmlns:xlink="http://www.w3.org/1999/xlink">
<g id="graph0" class="graph" transform="scale(1 1) rotate(0) translate(4 91)">
<title>mc_orchestrator/common/inc/mco_mqtt_handler.hpp</title>
<polygon fill="white" stroke="transparent" points="-4,4 -4,-91 275.5,-91 275.5,4 -4,4"/>
<!-- Node1 -->
<g id="node1" class="node">
<title>Node1</title>
<g id="a_node1"><a xlink:title=" ">
<polygon fill="#bfbfbf" stroke="black" points="37.5,-56.5 37.5,-86.5 186.5,-86.5 186.5,-56.5 37.5,-56.5"/>
<text text-anchor="start" x="45.5" y="-74.5" font-family="Helvetica,sans-Serif" font-size="10.00">mc_orchestrator/common</text>
<text text-anchor="middle" x="112" y="-63.5" font-family="Helvetica,sans-Serif" font-size="10.00">/inc/mco_mqtt_handler.hpp</text>
</a>
</g>
</g>
<!-- Node2 -->
<g id="node2" class="node">
<title>Node2</title>
<g id="a_node2"><a xlink:title=" ">
<polygon fill="white" stroke="#bfbfbf" points="0,-0.5 0,-19.5 38,-19.5 38,-0.5 0,-0.5"/>
<text text-anchor="middle" x="19" y="-7.5" font-family="Helvetica,sans-Serif" font-size="10.00">map</text>
</a>
</g>
</g>
<!-- Node1&#45;&gt;Node2 -->
<g id="edge1" class="edge">
<title>Node1&#45;&gt;Node2</title>
<path fill="none" stroke="midnightblue" d="M89.96,-56.4C75.19,-46.95 55.82,-34.56 41.05,-25.11"/>
<polygon fill="midnightblue" stroke="midnightblue" points="42.84,-22.1 32.53,-19.66 39.07,-28 42.84,-22.1"/>
</g>
<!-- Node3 -->
<g id="node3" class="node">
<title>Node3</title>
<g id="a_node3"><a xlink:title=" ">
<polygon fill="white" stroke="#bfbfbf" points="56.5,-0.5 56.5,-19.5 103.5,-19.5 103.5,-0.5 56.5,-0.5"/>
<text text-anchor="middle" x="80" y="-7.5" font-family="Helvetica,sans-Serif" font-size="10.00">vector</text>
</a>
</g>
</g>
<!-- Node1&#45;&gt;Node3 -->
<g id="edge2" class="edge">
<title>Node1&#45;&gt;Node3</title>
<path fill="none" stroke="midnightblue" d="M104.42,-56.4C99.96,-48.11 94.28,-37.55 89.52,-28.71"/>
<polygon fill="midnightblue" stroke="midnightblue" points="92.48,-26.81 84.66,-19.66 86.31,-30.12 92.48,-26.81"/>
</g>
<!-- Node4 -->
<g id="node4" class="node">
<title>Node4</title>
<g id="a_node4"><a xlink:title=" ">
<polygon fill="white" stroke="#bfbfbf" points="122,-0.5 122,-19.5 166,-19.5 166,-0.5 122,-0.5"/>
<text text-anchor="middle" x="144" y="-7.5" font-family="Helvetica,sans-Serif" font-size="10.00">string</text>
</a>
</g>
</g>
<!-- Node1&#45;&gt;Node4 -->
<g id="edge3" class="edge">
<title>Node1&#45;&gt;Node4</title>
<path fill="none" stroke="midnightblue" d="M119.58,-56.4C124.04,-48.11 129.72,-37.55 134.48,-28.71"/>
<polygon fill="midnightblue" stroke="midnightblue" points="137.69,-30.12 139.34,-19.66 131.52,-26.81 137.69,-30.12"/>
</g>
<!-- Node5 -->
<g id="node5" class="node">
<title>Node5</title>
<g id="a_node5"><a xlink:title=" ">
<polygon fill="white" stroke="#bfbfbf" points="184.5,-0.5 184.5,-19.5 271.5,-19.5 271.5,-0.5 184.5,-0.5"/>
<text text-anchor="middle" x="228" y="-7.5" font-family="Helvetica,sans-Serif" font-size="10.00">mosquittopp.h</text>
</a>
</g>
</g>
<!-- Node1&#45;&gt;Node5 -->
<g id="edge4" class="edge">
<title>Node1&#45;&gt;Node5</title>
<path fill="none" stroke="midnightblue" d="M139.49,-56.4C158.43,-46.68 183.44,-33.86 202.04,-24.31"/>
<polygon fill="midnightblue" stroke="midnightblue" points="203.82,-27.34 211.12,-19.66 200.63,-21.11 203.82,-27.34"/>
</g>
</g>
</svg>
