<?xml version="1.0" encoding="UTF-8" standalone="no"?>
<!DOCTYPE svg PUBLIC "-//W3C//DTD SVG 1.1//EN"
 "http://www.w3.org/Graphics/SVG/1.1/DTD/svg11.dtd">
<!-- Generated by graphviz version 2.43.0 (0)
 -->
<!-- Title: mc_orchestrator/bl/inc/mco_resource_monitor_handler.hpp Pages: 1 -->
<!--zoomable 218 -->
<svg id="main" version="1.1" xmlns="http://www.w3.org/2000/svg" xmlns:xlink="http://www.w3.org/1999/xlink" xml:space="preserve" onload="init(evt)">
<style type="text/css"><![CDATA[
.edge:hover path { stroke: red; }
.edge:hover polygon { stroke: red; fill: red; }
]]></style>
<script type="text/javascript"><![CDATA[
var edges = document.getElementsByTagName('g');
if (edges && edges.length) {
  for (var i=0;i<edges.length;i++) {
    if (edges[i].id.substr(0,4)=='edge') {
      edges[i].setAttribute('class','edge');
    }
  }
}
]]></script>
        <defs>
                <circle id="rim" cx="0" cy="0" r="7"/>
                <circle id="rim2" cx="0" cy="0" r="3.5"/>
                <g id="zoomPlus">
                        <use xlink:href="#rim" fill="#404040">
                                <set attributeName="fill" to="#808080" begin="zoomplus.mouseover" end="zoomplus.mouseout"/>
                        </use>
                        <path d="M-4,0h8M0,-4v8" fill="none" stroke="white" stroke-width="1.5" pointer-events="none"/>
                </g>
                <g id="zoomMin">
                        <use xlink:href="#rim" fill="#404040">
                                <set attributeName="fill" to="#808080" begin="zoomminus.mouseover" end="zoomminus.mouseout"/>
                        </use>
                        <path d="M-4,0h8" fill="none" stroke="white" stroke-width="1.5" pointer-events="none"/>
                </g>
                <g id="dirArrow">
                        <path fill="none" stroke="white" stroke-width="1.5" d="M0,-3.0v7 M-2.5,-0.5L0,-3.0L2.5,-0.5"/>
                </g>
               <g id="resetDef">
                       <use xlink:href="#rim2" fill="#404040">
                               <set attributeName="fill" to="#808080" begin="reset.mouseover" end="reset.mouseout"/>
                       </use>
               </g>
        </defs>

<script type="text/javascript">
var viewWidth = 1207;
var viewHeight = 218;
var sectionId = 'dynsection-0';
</script>
<script xlink:href="svgpan.js"/>
<svg id="graph" class="graph">
<g id="viewport">
<title>mc_orchestrator/bl/inc/mco_resource_monitor_handler.hpp</title>
<polygon fill="white" stroke="transparent" points="-4,4 -4,-214 1202.5,-214 1202.5,4 -4,4"/>
<!-- Node1 -->
<g id="node1" class="node">
<title>Node1</title>
<g id="a_node1"><a xlink:title=" ">
<polygon fill="#bfbfbf" stroke="black" points="525,-168.5 525,-209.5 674,-209.5 674,-168.5 525,-168.5"/>
<text text-anchor="start" x="533" y="-197.5" font-family="Helvetica,sans-Serif" font-size="10.00">mc_orchestrator/bl</text>
<text text-anchor="start" x="533" y="-186.5" font-family="Helvetica,sans-Serif" font-size="10.00">/inc/mco_resource_monitor</text>
<text text-anchor="middle" x="599.5" y="-175.5" font-family="Helvetica,sans-Serif" font-size="10.00">_handler.hpp</text>
</a>
</g>
</g>
<!-- Node2 -->
<g id="node2" class="node">
<title>Node2</title>
<g id="a_node2"><a xlink:title=" ">
<polygon fill="white" stroke="#bfbfbf" points="0,-0.5 0,-19.5 47,-19.5 47,-0.5 0,-0.5"/>
<text text-anchor="middle" x="23.5" y="-7.5" font-family="Helvetica,sans-Serif" font-size="10.00">vector</text>
</a>
</g>
</g>
<!-- Node1&#45;&gt;Node2 -->
<g id="edge1" class="edge">
<title>Node1&#45;&gt;Node2</title>
<path fill="none" stroke="midnightblue" d="M524.86,-183.58C387.31,-173.81 101.84,-145.51 35.5,-76 24,-63.95 21.68,-44.66 21.83,-30.22"/>
<polygon fill="midnightblue" stroke="midnightblue" points="25.34,-30.07 22.35,-19.91 18.35,-29.72 25.34,-30.07"/>
</g>
<!-- Node3 -->
<g id="node3" class="node">
<title>Node3</title>
<g id="a_node3"><a xlink:title=" ">
<polygon fill="white" stroke="#bfbfbf" points="1142.5,-112.5 1142.5,-131.5 1198.5,-131.5 1198.5,-112.5 1142.5,-112.5"/>
<text text-anchor="middle" x="1170.5" y="-119.5" font-family="Helvetica,sans-Serif" font-size="10.00">unistd.h</text>
</a>
</g>
</g>
<!-- Node1&#45;&gt;Node3 -->
<g id="edge2" class="edge">
<title>Node1&#45;&gt;Node3</title>
<path fill="none" stroke="midnightblue" d="M674.23,-183.34C775.86,-176.29 963.42,-160.79 1132.23,-132.01"/>
<polygon fill="midnightblue" stroke="midnightblue" points="1133.04,-135.42 1142.3,-130.27 1131.85,-128.52 1133.04,-135.42"/>
</g>
<!-- Node4 -->
<g id="node4" class="node">
<title>Node4</title>
<g id="a_node4"><a xlink:title=" ">
<polygon fill="white" stroke="#bfbfbf" points="604.5,-56.5 604.5,-75.5 664.5,-75.5 664.5,-56.5 604.5,-56.5"/>
<text text-anchor="middle" x="634.5" y="-63.5" font-family="Helvetica,sans-Serif" font-size="10.00">iostream</text>
</a>
</g>
</g>
<!-- Node1&#45;&gt;Node4 -->
<g id="edge3" class="edge">
<title>Node1&#45;&gt;Node4</title>
<path fill="none" stroke="midnightblue" d="M580.49,-168.24C567.92,-152.67 555.45,-130.56 565.5,-112 573.25,-97.7 587.73,-87.22 601.44,-79.99"/>
<polygon fill="midnightblue" stroke="midnightblue" points="603.24,-83.01 610.71,-75.5 600.19,-76.71 603.24,-83.01"/>
</g>
<!-- Node5 -->
<g id="node5" class="node">
<title>Node5</title>
<g id="a_node5"><a xlink:href="mco__common_8hpp.html" target="_top" xlink:title=" ">
<polygon fill="white" stroke="black" points="44.5,-56.5 44.5,-75.5 168.5,-75.5 168.5,-56.5 44.5,-56.5"/>
<text text-anchor="middle" x="106.5" y="-63.5" font-family="Helvetica,sans-Serif" font-size="10.00">inc/mco_common.hpp</text>
</a>
</g>
</g>
<!-- Node1&#45;&gt;Node5 -->
<g id="edge4" class="edge">
<title>Node1&#45;&gt;Node5</title>
<path fill="none" stroke="midnightblue" d="M524.84,-171.58C476.23,-160.73 411.5,-145.98 354.5,-132 281.45,-114.08 196.78,-91.5 147.66,-78.22"/>
<polygon fill="midnightblue" stroke="midnightblue" points="148.31,-74.76 137.74,-75.53 146.48,-81.52 148.31,-74.76"/>
</g>
<!-- Node9 -->
<g id="node9" class="node">
<title>Node9</title>
<g id="a_node9"><a xlink:href="mco__k3s__commands_8hpp.html" target="_top" xlink:title=" ">
<polygon fill="white" stroke="black" points="574.5,-112.5 574.5,-131.5 732.5,-131.5 732.5,-112.5 574.5,-112.5"/>
<text text-anchor="middle" x="653.5" y="-119.5" font-family="Helvetica,sans-Serif" font-size="10.00">inc/mco_k3s_commands.hpp</text>
</a>
</g>
</g>
<!-- Node1&#45;&gt;Node9 -->
<g id="edge9" class="edge">
<title>Node1&#45;&gt;Node9</title>
<path fill="none" stroke="midnightblue" d="M615.7,-168.5C623.42,-159.2 632.56,-148.21 639.91,-139.36"/>
<polygon fill="midnightblue" stroke="midnightblue" points="642.61,-141.58 646.31,-131.65 637.23,-137.11 642.61,-141.58"/>
</g>
<!-- Node12 -->
<g id="node12" class="node">
<title>Node12</title>
<g id="a_node12"><a xlink:href="mco__podman__commands_8hpp.html" target="_top" xlink:title=" ">
<polygon fill="white" stroke="black" points="750.5,-112.5 750.5,-131.5 930.5,-131.5 930.5,-112.5 750.5,-112.5"/>
<text text-anchor="middle" x="840.5" y="-119.5" font-family="Helvetica,sans-Serif" font-size="10.00">inc/mco_podman_commands.hpp</text>
</a>
</g>
</g>
<!-- Node1&#45;&gt;Node12 -->
<g id="edge15" class="edge">
<title>Node1&#45;&gt;Node12</title>
<path fill="none" stroke="midnightblue" d="M671.81,-168.5C713.33,-157.3 763.98,-143.64 798.88,-134.22"/>
<polygon fill="midnightblue" stroke="midnightblue" points="799.99,-137.55 808.74,-131.57 798.17,-130.79 799.99,-137.55"/>
</g>
<!-- Node13 -->
<g id="node13" class="node">
<title>Node13</title>
<g id="a_node13"><a xlink:href="mco__bluechi__commands_8hpp.html" target="_top" xlink:title=" ">
<polygon fill="white" stroke="black" points="948.5,-112.5 948.5,-131.5 1124.5,-131.5 1124.5,-112.5 948.5,-112.5"/>
<text text-anchor="middle" x="1036.5" y="-119.5" font-family="Helvetica,sans-Serif" font-size="10.00">inc/mco_bluechi_commands.hpp</text>
</a>
</g>
</g>
<!-- Node1&#45;&gt;Node13 -->
<g id="edge19" class="edge">
<title>Node1&#45;&gt;Node13</title>
<path fill="none" stroke="midnightblue" d="M674.13,-176.9C757,-164.57 889.58,-144.85 969.32,-132.99"/>
<polygon fill="midnightblue" stroke="midnightblue" points="969.88,-136.45 979.26,-131.51 968.85,-129.52 969.88,-136.45"/>
</g>
<!-- Node14 -->
<g id="node14" class="node">
<title>Node14</title>
<g id="a_node14"><a xlink:href="mco__config__handler_8hpp.html" target="_top" xlink:title=" ">
<polygon fill="white" stroke="black" points="363,-112.5 363,-131.5 516,-131.5 516,-112.5 363,-112.5"/>
<text text-anchor="middle" x="439.5" y="-119.5" font-family="Helvetica,sans-Serif" font-size="10.00">inc/mco_config_handler.hpp</text>
</a>
</g>
</g>
<!-- Node1&#45;&gt;Node14 -->
<g id="edge23" class="edge">
<title>Node1&#45;&gt;Node14</title>
<path fill="none" stroke="midnightblue" d="M551.49,-168.5C525.08,-157.77 493.09,-144.77 470.07,-135.42"/>
<polygon fill="midnightblue" stroke="midnightblue" points="471.38,-132.17 460.8,-131.65 468.75,-138.66 471.38,-132.17"/>
</g>
<!-- Node5&#45;&gt;Node2 -->
<g id="edge8" class="edge">
<title>Node5&#45;&gt;Node2</title>
<path fill="none" stroke="midnightblue" d="M93.16,-56.32C80.34,-47.98 60.72,-35.21 45.56,-25.35"/>
<polygon fill="midnightblue" stroke="midnightblue" points="47.09,-22.17 36.8,-19.65 43.28,-28.04 47.09,-22.17"/>
</g>
<!-- Node6 -->
<g id="node6" class="node">
<title>Node6</title>
<g id="a_node6"><a xlink:title=" ">
<polygon fill="white" stroke="#bfbfbf" points="131.5,-0.5 131.5,-19.5 169.5,-19.5 169.5,-0.5 131.5,-0.5"/>
<text text-anchor="middle" x="150.5" y="-7.5" font-family="Helvetica,sans-Serif" font-size="10.00">map</text>
</a>
</g>
</g>
<!-- Node5&#45;&gt;Node6 -->
<g id="edge5" class="edge">
<title>Node5&#45;&gt;Node6</title>
<path fill="none" stroke="midnightblue" d="M113.77,-56.08C120.04,-48.38 129.29,-37.03 136.93,-27.65"/>
<polygon fill="midnightblue" stroke="midnightblue" points="139.77,-29.71 143.37,-19.75 134.34,-25.29 139.77,-29.71"/>
</g>
<!-- Node7 -->
<g id="node7" class="node">
<title>Node7</title>
<g id="a_node7"><a xlink:title=" ">
<polygon fill="white" stroke="#bfbfbf" points="670.5,-0.5 670.5,-19.5 714.5,-19.5 714.5,-0.5 670.5,-0.5"/>
<text text-anchor="middle" x="692.5" y="-7.5" font-family="Helvetica,sans-Serif" font-size="10.00">string</text>
</a>
</g>
</g>
<!-- Node5&#45;&gt;Node7 -->
<g id="edge6" class="edge">
<title>Node5&#45;&gt;Node7</title>
<path fill="none" stroke="midnightblue" d="M168.66,-59.27C292.6,-47.85 566.64,-22.6 660.35,-13.96"/>
<polygon fill="midnightblue" stroke="midnightblue" points="660.72,-17.44 670.36,-13.04 660.08,-10.47 660.72,-17.44"/>
</g>
<!-- Node8 -->
<g id="node8" class="node">
<title>Node8</title>
<g id="a_node8"><a xlink:title=" ">
<polygon fill="white" stroke="#bfbfbf" points="72,-0.5 72,-19.5 113,-19.5 113,-0.5 72,-0.5"/>
<text text-anchor="middle" x="92.5" y="-7.5" font-family="Helvetica,sans-Serif" font-size="10.00">tuple</text>
</a>
</g>
</g>
<!-- Node5&#45;&gt;Node8 -->
<g id="edge7" class="edge">
<title>Node5&#45;&gt;Node8</title>
<path fill="none" stroke="midnightblue" d="M104.19,-56.08C102.33,-48.93 99.66,-38.64 97.35,-29.69"/>
<polygon fill="midnightblue" stroke="midnightblue" points="100.67,-28.55 94.77,-19.75 93.89,-30.31 100.67,-28.55"/>
</g>
<!-- Node9&#45;&gt;Node7 -->
<g id="edge10" class="edge">
<title>Node9&#45;&gt;Node7</title>
<path fill="none" stroke="midnightblue" d="M657.84,-112.18C662.16,-103.21 668.79,-88.84 673.5,-76 679.19,-60.48 684.36,-42.39 687.87,-29.25"/>
<polygon fill="midnightblue" stroke="midnightblue" points="691.27,-30.09 690.4,-19.53 684.49,-28.33 691.27,-30.09"/>
</g>
<!-- Node10 -->
<g id="node10" class="node">
<title>Node10</title>
<g id="a_node10"><a xlink:title=" ">
<polygon fill="white" stroke="#bfbfbf" points="883.5,-0.5 883.5,-19.5 941.5,-19.5 941.5,-0.5 883.5,-0.5"/>
<text text-anchor="middle" x="912.5" y="-7.5" font-family="Helvetica,sans-Serif" font-size="10.00">memory</text>
</a>
</g>
</g>
<!-- Node9&#45;&gt;Node10 -->
<g id="edge11" class="edge">
<title>Node9&#45;&gt;Node10</title>
<path fill="none" stroke="midnightblue" d="M669.88,-112.45C695.04,-99.47 744.87,-74.37 788.5,-56 817.81,-43.66 851.81,-31.47 876.79,-22.89"/>
<polygon fill="midnightblue" stroke="midnightblue" points="878.22,-26.1 886.56,-19.56 875.97,-19.47 878.22,-26.1"/>
</g>
<!-- Node11 -->
<g id="node11" class="node">
<title>Node11</title>
<g id="a_node11"><a xlink:href="mco__commands_8hpp.html" target="_top" xlink:title=" ">
<polygon fill="white" stroke="black" points="797,-56.5 797,-75.5 932,-75.5 932,-56.5 797,-56.5"/>
<text text-anchor="middle" x="864.5" y="-63.5" font-family="Helvetica,sans-Serif" font-size="10.00">inc/mco_commands.hpp</text>
</a>
</g>
</g>
<!-- Node9&#45;&gt;Node11 -->
<g id="edge12" class="edge">
<title>Node9&#45;&gt;Node11</title>
<path fill="none" stroke="midnightblue" d="M686.93,-112.44C723.36,-103.12 781.73,-88.18 821.53,-78"/>
<polygon fill="midnightblue" stroke="midnightblue" points="822.4,-81.39 831.22,-75.52 820.67,-74.61 822.4,-81.39"/>
</g>
<!-- Node11&#45;&gt;Node7 -->
<g id="edge13" class="edge">
<title>Node11&#45;&gt;Node7</title>
<path fill="none" stroke="midnightblue" d="M837.25,-56.44C806.65,-46.84 757.04,-31.26 724.59,-21.07"/>
<polygon fill="midnightblue" stroke="midnightblue" points="725.29,-17.63 714.7,-17.97 723.2,-24.31 725.29,-17.63"/>
</g>
<!-- Node11&#45;&gt;Node10 -->
<g id="edge14" class="edge">
<title>Node11&#45;&gt;Node10</title>
<path fill="none" stroke="midnightblue" d="M872.43,-56.08C879.35,-48.3 889.57,-36.8 897.95,-27.37"/>
<polygon fill="midnightblue" stroke="midnightblue" points="900.69,-29.55 904.72,-19.75 895.46,-24.9 900.69,-29.55"/>
</g>
<!-- Node12&#45;&gt;Node7 -->
<g id="edge16" class="edge">
<title>Node12&#45;&gt;Node7</title>
<path fill="none" stroke="midnightblue" d="M828.89,-112.37C803.71,-93.65 743.83,-49.15 712.46,-25.83"/>
<polygon fill="midnightblue" stroke="midnightblue" points="714.17,-22.75 704.06,-19.59 710,-28.37 714.17,-22.75"/>
</g>
<!-- Node12&#45;&gt;Node10 -->
<g id="edge17" class="edge">
<title>Node12&#45;&gt;Node10</title>
<path fill="none" stroke="midnightblue" d="M886.15,-112.43C906.74,-106.04 929.17,-95 941.5,-76 951.53,-60.55 940.05,-41.06 928.7,-27.46"/>
<polygon fill="midnightblue" stroke="midnightblue" points="931.14,-24.94 921.85,-19.85 925.94,-29.63 931.14,-24.94"/>
</g>
<!-- Node12&#45;&gt;Node11 -->
<g id="edge18" class="edge">
<title>Node12&#45;&gt;Node11</title>
<path fill="none" stroke="midnightblue" d="M844.46,-112.08C847.71,-104.77 852.42,-94.18 856.45,-85.1"/>
<polygon fill="midnightblue" stroke="midnightblue" points="859.75,-86.31 860.61,-75.75 853.35,-83.47 859.75,-86.31"/>
</g>
<!-- Node13&#45;&gt;Node7 -->
<g id="edge20" class="edge">
<title>Node13&#45;&gt;Node7</title>
<path fill="none" stroke="midnightblue" d="M1027.05,-112.47C1010.83,-98.33 976.07,-70.19 941.5,-56 867.82,-25.76 773.63,-15.79 724.92,-12.54"/>
<polygon fill="midnightblue" stroke="midnightblue" points="724.87,-9.03 714.68,-11.91 724.44,-16.01 724.87,-9.03"/>
</g>
<!-- Node13&#45;&gt;Node10 -->
<g id="edge21" class="edge">
<title>Node13&#45;&gt;Node10</title>
<path fill="none" stroke="midnightblue" d="M1035.46,-112.31C1033.39,-98.68 1027.6,-72.18 1012.5,-56 996.2,-38.54 971.86,-27.38 951.27,-20.55"/>
<polygon fill="midnightblue" stroke="midnightblue" points="952.11,-17.14 941.52,-17.53 950.04,-23.83 952.11,-17.14"/>
</g>
<!-- Node13&#45;&gt;Node11 -->
<g id="edge22" class="edge">
<title>Node13&#45;&gt;Node11</title>
<path fill="none" stroke="midnightblue" d="M1009.25,-112.44C980.06,-103.28 933.58,-88.69 901.19,-78.52"/>
<polygon fill="midnightblue" stroke="midnightblue" points="902.22,-75.17 891.63,-75.52 900.12,-81.85 902.22,-75.17"/>
</g>
<!-- Node14&#45;&gt;Node4 -->
<g id="edge27" class="edge">
<title>Node14&#45;&gt;Node4</title>
<path fill="none" stroke="midnightblue" d="M470.4,-112.44C503.97,-103.15 557.72,-88.26 594.5,-78.08"/>
<polygon fill="midnightblue" stroke="midnightblue" points="595.68,-81.38 604.39,-75.34 593.82,-74.63 595.68,-81.38"/>
</g>
<!-- Node14&#45;&gt;Node5 -->
<g id="edge29" class="edge">
<title>Node14&#45;&gt;Node5</title>
<path fill="none" stroke="midnightblue" d="M386.74,-112.44C327.67,-102.87 232.03,-87.36 169.19,-77.17"/>
<polygon fill="midnightblue" stroke="midnightblue" points="169.45,-73.66 159.02,-75.52 168.33,-80.57 169.45,-73.66"/>
</g>
<!-- Node14&#45;&gt;Node6 -->
<g id="edge24" class="edge">
<title>Node14&#45;&gt;Node6</title>
<path fill="none" stroke="midnightblue" d="M362.9,-116.69C317.79,-111.53 260.87,-100.3 215.5,-76 193.63,-64.28 174.35,-42.82 162.58,-27.77"/>
<polygon fill="midnightblue" stroke="midnightblue" points="165.37,-25.66 156.55,-19.78 159.78,-29.87 165.37,-25.66"/>
</g>
<!-- Node14&#45;&gt;Node7 -->
<g id="edge25" class="edge">
<title>Node14&#45;&gt;Node7</title>
<path fill="none" stroke="midnightblue" d="M464.72,-112.38C488.86,-103.89 526.13,-90.17 557.5,-76 574.89,-68.14 578.39,-64.46 595.5,-56 618.42,-44.66 644.75,-32.5 664.19,-23.68"/>
<polygon fill="midnightblue" stroke="midnightblue" points="665.74,-26.82 673.41,-19.52 662.85,-20.44 665.74,-26.82"/>
</g>
<!-- Node15 -->
<g id="node15" class="node">
<title>Node15</title>
<g id="a_node15"><a xlink:title=" ">
<polygon fill="white" stroke="#bfbfbf" points="411,-56.5 411,-75.5 466,-75.5 466,-56.5 411,-56.5"/>
<text text-anchor="middle" x="438.5" y="-63.5" font-family="Helvetica,sans-Serif" font-size="10.00">fstream</text>
</a>
</g>
</g>
<!-- Node14&#45;&gt;Node15 -->
<g id="edge26" class="edge">
<title>Node14&#45;&gt;Node15</title>
<path fill="none" stroke="midnightblue" d="M439.33,-112.08C439.2,-105.01 439.02,-94.86 438.85,-85.99"/>
<polygon fill="midnightblue" stroke="midnightblue" points="442.35,-85.68 438.66,-75.75 435.35,-85.81 442.35,-85.68"/>
</g>
<!-- Node16 -->
<g id="node16" class="node">
<title>Node16</title>
<g id="a_node16"><a xlink:title=" ">
<polygon fill="white" stroke="#bfbfbf" points="484.5,-56.5 484.5,-75.5 548.5,-75.5 548.5,-56.5 484.5,-56.5"/>
<text text-anchor="middle" x="516.5" y="-63.5" font-family="Helvetica,sans-Serif" font-size="10.00">algorithm</text>
</a>
</g>
</g>
<!-- Node14&#45;&gt;Node16 -->
<g id="edge28" class="edge">
<title>Node14&#45;&gt;Node16</title>
<path fill="none" stroke="midnightblue" d="M451.87,-112.32C463.66,-104.06 481.63,-91.45 495.64,-81.63"/>
<polygon fill="midnightblue" stroke="midnightblue" points="497.98,-84.26 504.16,-75.65 493.96,-78.53 497.98,-84.26"/>
</g>
<!-- Node17 -->
<g id="node17" class="node">
<title>Node17</title>
<g id="a_node17"><a xlink:href="mco__database__handler_8hpp.html" target="_top" xlink:title=" ">
<polygon fill="white" stroke="black" points="224.5,-56.5 224.5,-75.5 392.5,-75.5 392.5,-56.5 224.5,-56.5"/>
<text text-anchor="middle" x="308.5" y="-63.5" font-family="Helvetica,sans-Serif" font-size="10.00">inc/mco_database_handler.hpp</text>
</a>
</g>
</g>
<!-- Node14&#45;&gt;Node17 -->
<g id="edge30" class="edge">
<title>Node14&#45;&gt;Node17</title>
<path fill="none" stroke="midnightblue" d="M418.74,-112.44C397.18,-103.56 363.24,-89.56 338.71,-79.45"/>
<polygon fill="midnightblue" stroke="midnightblue" points="339.74,-76.09 329.16,-75.52 337.07,-82.56 339.74,-76.09"/>
</g>
<!-- Node17&#45;&gt;Node6 -->
<g id="edge31" class="edge">
<title>Node17&#45;&gt;Node6</title>
<path fill="none" stroke="midnightblue" d="M283.46,-56.44C255.29,-46.81 209.57,-31.19 179.76,-21"/>
<polygon fill="midnightblue" stroke="midnightblue" points="180.53,-17.57 169.94,-17.64 178.27,-24.19 180.53,-17.57"/>
</g>
<!-- Node17&#45;&gt;Node7 -->
<g id="edge33" class="edge">
<title>Node17&#45;&gt;Node7</title>
<path fill="none" stroke="midnightblue" d="M369.35,-56.44C451.88,-44.84 596.35,-24.52 660.38,-15.52"/>
<polygon fill="midnightblue" stroke="midnightblue" points="660.89,-18.98 670.3,-14.12 659.91,-12.05 660.89,-18.98"/>
</g>
<!-- Node18 -->
<g id="node18" class="node">
<title>Node18</title>
<g id="a_node18"><a xlink:title=" ">
<polygon fill="white" stroke="#bfbfbf" points="319.5,-0.5 319.5,-19.5 351.5,-19.5 351.5,-0.5 319.5,-0.5"/>
<text text-anchor="middle" x="335.5" y="-7.5" font-family="Helvetica,sans-Serif" font-size="10.00">list</text>
</a>
</g>
</g>
<!-- Node17&#45;&gt;Node18 -->
<g id="edge32" class="edge">
<title>Node17&#45;&gt;Node18</title>
<path fill="none" stroke="midnightblue" d="M312.96,-56.08C316.65,-48.69 322.02,-37.95 326.59,-28.81"/>
<polygon fill="midnightblue" stroke="midnightblue" points="329.78,-30.26 331.12,-19.75 323.52,-27.13 329.78,-30.26"/>
</g>
<!-- Node19 -->
<g id="node19" class="node">
<title>Node19</title>
<g id="a_node19"><a xlink:title=" ">
<polygon fill="white" stroke="#bfbfbf" points="369.5,-0.5 369.5,-19.5 455.5,-19.5 455.5,-0.5 369.5,-0.5"/>
<text text-anchor="middle" x="412.5" y="-7.5" font-family="Helvetica,sans-Serif" font-size="10.00">unordered_set</text>
</a>
</g>
</g>
<!-- Node17&#45;&gt;Node19 -->
<g id="edge34" class="edge">
<title>Node17&#45;&gt;Node19</title>
<path fill="none" stroke="midnightblue" d="M325.21,-56.32C341.81,-47.7 367.5,-34.36 386.72,-24.39"/>
<polygon fill="midnightblue" stroke="midnightblue" points="388.57,-27.37 395.83,-19.65 385.34,-21.16 388.57,-27.37"/>
</g>
<!-- Node20 -->
<g id="node20" class="node">
<title>Node20</title>
<g id="a_node20"><a xlink:title=" ">
<polygon fill="white" stroke="#bfbfbf" points="473.5,-0.5 473.5,-19.5 583.5,-19.5 583.5,-0.5 473.5,-0.5"/>
<text text-anchor="middle" x="528.5" y="-7.5" font-family="Helvetica,sans-Serif" font-size="10.00">nlohmann/json.hpp</text>
</a>
</g>
</g>
<!-- Node17&#45;&gt;Node20 -->
<g id="edge35" class="edge">
<title>Node17&#45;&gt;Node20</title>
<path fill="none" stroke="midnightblue" d="M343.36,-56.44C381.42,-47.1 442.46,-32.12 483.96,-21.93"/>
<polygon fill="midnightblue" stroke="midnightblue" points="484.93,-25.3 493.8,-19.52 483.26,-18.5 484.93,-25.3"/>
</g>
<!-- Node21 -->
<g id="node21" class="node">
<title>Node21</title>
<g id="a_node21"><a xlink:title=" ">
<polygon fill="white" stroke="#bfbfbf" points="188,-0.5 188,-19.5 301,-19.5 301,-0.5 188,-0.5"/>
<text text-anchor="middle" x="244.5" y="-7.5" font-family="Helvetica,sans-Serif" font-size="10.00">cpp_redis/cpp_redis</text>
</a>
</g>
</g>
<!-- Node17&#45;&gt;Node21 -->
<g id="edge36" class="edge">
<title>Node17&#45;&gt;Node21</title>
<path fill="none" stroke="midnightblue" d="M298.22,-56.32C288.66,-48.26 274.22,-36.08 262.72,-26.37"/>
<polygon fill="midnightblue" stroke="midnightblue" points="264.87,-23.61 254.97,-19.83 260.36,-28.96 264.87,-23.61"/>
</g>
</g>
</svg>
        <g id="navigator" transform="translate(0 0)" fill="#404254">
                <rect fill="#f2f5e9" fill-opacity="0.5" stroke="#606060" stroke-width=".5" x="0" y="0" width="60" height="60"/>
                <use id="zoomplus" xlink:href="#zoomPlus" x="17" y="9" onmousedown="handleZoom(evt,'in')"/>
                <use id="zoomminus" xlink:href="#zoomMin" x="42" y="9" onmousedown="handleZoom(evt,'out')"/>
                <use id="reset" xlink:href="#resetDef" x="30" y="36" onmousedown="handleReset()"/>
                <g id="arrowUp" xlink:href="#dirArrow" transform="translate(30 24)" onmousedown="handlePan(0,-1)">
                  <use xlink:href="#rim" fill="#404040">
                        <set attributeName="fill" to="#808080" begin="arrowUp.mouseover" end="arrowUp.mouseout"/>
                  </use>
                  <path fill="none" stroke="white" stroke-width="1.5" d="M0,-3.0v7 M-2.5,-0.5L0,-3.0L2.5,-0.5"/>
                </g>
                <g id="arrowRight" xlink:href="#dirArrow" transform="rotate(90) translate(36 -43)" onmousedown="handlePan(1,0)">
                  <use xlink:href="#rim" fill="#404040">
                        <set attributeName="fill" to="#808080" begin="arrowRight.mouseover" end="arrowRight.mouseout"/>
                  </use>
                  <path fill="none" stroke="white" stroke-width="1.5" d="M0,-3.0v7 M-2.5,-0.5L0,-3.0L2.5,-0.5"/>
                </g>
                <g id="arrowDown" xlink:href="#dirArrow" transform="rotate(180) translate(-30 -48)" onmousedown="handlePan(0,1)">
                  <use xlink:href="#rim" fill="#404040">
                        <set attributeName="fill" to="#808080" begin="arrowDown.mouseover" end="arrowDown.mouseout"/>
                  </use>
                  <path fill="none" stroke="white" stroke-width="1.5" d="M0,-3.0v7 M-2.5,-0.5L0,-3.0L2.5,-0.5"/>
                </g>
                <g id="arrowLeft" xlink:href="#dirArrow" transform="rotate(270) translate(-36 17)" onmousedown="handlePan(-1,0)">
                  <use xlink:href="#rim" fill="#404040">
                        <set attributeName="fill" to="#808080" begin="arrowLeft.mouseover" end="arrowLeft.mouseout"/>
                  </use>
                  <path fill="none" stroke="white" stroke-width="1.5" d="M0,-3.0v7 M-2.5,-0.5L0,-3.0L2.5,-0.5"/>
                </g>
        </g>
        <svg viewBox="0 0 15 15" width="100%" height="30px" preserveAspectRatio="xMaxYMin meet">
         <g id="arrow_out" transform="scale(0.3 0.3)">
          <a xlink:href="mco__resource__monitor__handler_8hpp__incl_org.svg" target="_base">
           <rect id="button" ry="5" rx="5" y="6" x="6" height="38" width="38"
                fill="#f2f5e9" fill-opacity="0.5" stroke="#606060" stroke-width="1.0"/>
           <path id="arrow"
             d="M 11.500037,31.436501 C 11.940474,20.09759 22.043105,11.32322 32.158766,21.979434 L 37.068811,17.246167 C 37.068811,17.246167 37.088388,32 37.088388,32 L 22.160133,31.978069 C 22.160133,31.978069 26.997745,27.140456 26.997745,27.140456 C 18.528582,18.264221 13.291696,25.230495 11.500037,31.436501 z"
             style="fill:#404040;"/>
          </a>
         </g>
        </svg>
</svg>
