<?xml version="1.0" encoding="UTF-8" standalone="no"?>
<!DOCTYPE svg PUBLIC "-//W3C//DTD SVG 1.1//EN"
 "http://www.w3.org/Graphics/SVG/1.1/DTD/svg11.dtd">
<!-- Generated by graphviz version 2.43.0 (0)
 -->
<!-- Title: mc_orchestrator/runtime/inc/mco_k3s_commands.hpp Pages: 1 -->
<svg width="1159pt" height="195pt"
 viewBox="0.00 0.00 1159.00 195.00" xmlns="http://www.w3.org/2000/svg" xmlns:xlink="http://www.w3.org/1999/xlink">
<g id="graph0" class="graph" transform="scale(1 1) rotate(0) translate(4 191)">
<title>mc_orchestrator/runtime/inc/mco_k3s_commands.hpp</title>
<polygon fill="white" stroke="transparent" points="-4,4 -4,-191 1155,-191 1155,4 -4,4"/>
<!-- Node1 -->
<g id="node1" class="node">
<title>Node1</title>
<g id="a_node1"><a xlink:title=" ">
<polygon fill="#bfbfbf" stroke="black" points="480.5,-156.5 480.5,-186.5 641.5,-186.5 641.5,-156.5 480.5,-156.5"/>
<text text-anchor="start" x="488.5" y="-174.5" font-family="Helvetica,sans-Serif" font-size="10.00">mc_orchestrator/runtime</text>
<text text-anchor="middle" x="561" y="-163.5" font-family="Helvetica,sans-Serif" font-size="10.00">/inc/mco_k3s_commands.hpp</text>
</a>
</g>
</g>
<!-- Node2 -->
<g id="node2" class="node">
<title>Node2</title>
<g id="a_node2"><a xlink:href="mco__avp__trigger__monitor__handler_8hpp.html" target="_top" xlink:title=" ">
<polygon fill="white" stroke="black" points="62.5,-78.5 62.5,-119.5 185.5,-119.5 185.5,-78.5 62.5,-78.5"/>
<text text-anchor="start" x="70.5" y="-107.5" font-family="Helvetica,sans-Serif" font-size="10.00">mc_orchestrator/bl</text>
<text text-anchor="start" x="70.5" y="-96.5" font-family="Helvetica,sans-Serif" font-size="10.00">/inc/mco_avp_trigger</text>
<text text-anchor="middle" x="124" y="-85.5" font-family="Helvetica,sans-Serif" font-size="10.00">_monitor_handler.hpp</text>
</a>
</g>
</g>
<!-- Node1&#45;&gt;Node2 -->
<g id="edge1" class="edge">
<title>Node1&#45;&gt;Node2</title>
<path fill="none" stroke="midnightblue" d="M469.95,-161.6C395.31,-153.43 287.17,-139.62 194,-120 191.28,-119.43 188.51,-118.8 185.72,-118.15"/>
<polygon fill="midnightblue" stroke="midnightblue" points="469.93,-165.12 480.25,-162.71 470.69,-158.16 469.93,-165.12"/>
</g>
<!-- Node3 -->
<g id="node3" class="node">
<title>Node3</title>
<g id="a_node3"><a xlink:href="mco__avp__trigger__monitor__handler_8cpp.html" target="_top" xlink:title=" ">
<polygon fill="white" stroke="black" points="0,-0.5 0,-41.5 122,-41.5 122,-0.5 0,-0.5"/>
<text text-anchor="start" x="8" y="-29.5" font-family="Helvetica,sans-Serif" font-size="10.00">mc_orchestrator/bl</text>
<text text-anchor="start" x="8" y="-18.5" font-family="Helvetica,sans-Serif" font-size="10.00">/src/mco_avp_trigger</text>
<text text-anchor="middle" x="61" y="-7.5" font-family="Helvetica,sans-Serif" font-size="10.00">_monitor_handler.cpp</text>
</a>
</g>
</g>
<!-- Node1&#45;&gt;Node3 -->
<g id="edge14" class="edge">
<title>Node1&#45;&gt;Node3</title>
<path fill="none" stroke="midnightblue" d="M470.14,-167.96C331.55,-163.12 80.4,-150.26 53,-120 33.86,-98.87 43.1,-63.6 51.83,-41.64"/>
<polygon fill="midnightblue" stroke="midnightblue" points="470.22,-171.46 480.33,-168.3 470.46,-164.46 470.22,-171.46"/>
</g>
<!-- Node5 -->
<g id="node5" class="node">
<title>Node5</title>
<g id="a_node5"><a xlink:href="mco__qm__ota__handler_8hpp.html" target="_top" xlink:title=" ">
<polygon fill="white" stroke="black" points="203.5,-84 203.5,-114 366.5,-114 366.5,-84 203.5,-84"/>
<text text-anchor="start" x="211.5" y="-102" font-family="Helvetica,sans-Serif" font-size="10.00">mc_orchestrator/bl</text>
<text text-anchor="middle" x="285" y="-91" font-family="Helvetica,sans-Serif" font-size="10.00">/inc/mco_qm_ota_handler.hpp</text>
</a>
</g>
</g>
<!-- Node1&#45;&gt;Node5 -->
<g id="edge4" class="edge">
<title>Node1&#45;&gt;Node5</title>
<path fill="none" stroke="midnightblue" d="M496.29,-153.97C448.89,-141.86 385.24,-125.6 340.23,-114.11"/>
<polygon fill="midnightblue" stroke="midnightblue" points="495.59,-157.4 506.14,-156.49 497.32,-150.62 495.59,-157.4"/>
</g>
<!-- Node7 -->
<g id="node7" class="node">
<title>Node7</title>
<g id="a_node7"><a xlink:href="mco__resource__monitor__handler_8hpp.html" target="_top" xlink:title=" ">
<polygon fill="white" stroke="black" points="384.5,-78.5 384.5,-119.5 533.5,-119.5 533.5,-78.5 384.5,-78.5"/>
<text text-anchor="start" x="392.5" y="-107.5" font-family="Helvetica,sans-Serif" font-size="10.00">mc_orchestrator/bl</text>
<text text-anchor="start" x="392.5" y="-96.5" font-family="Helvetica,sans-Serif" font-size="10.00">/inc/mco_resource_monitor</text>
<text text-anchor="middle" x="459" y="-85.5" font-family="Helvetica,sans-Serif" font-size="10.00">_handler.hpp</text>
</a>
</g>
</g>
<!-- Node1&#45;&gt;Node7 -->
<g id="edge7" class="edge">
<title>Node1&#45;&gt;Node7</title>
<path fill="none" stroke="midnightblue" d="M532.04,-150.48C518.03,-140.8 501.27,-129.22 487.34,-119.59"/>
<polygon fill="midnightblue" stroke="midnightblue" points="530.14,-153.43 540.36,-156.23 534.12,-147.67 530.14,-153.43"/>
</g>
<!-- Node8 -->
<g id="node8" class="node">
<title>Node8</title>
<g id="a_node8"><a xlink:href="mco__resource__monitor__handler_8cpp.html" target="_top" xlink:title=" ">
<polygon fill="white" stroke="black" points="497.5,-0.5 497.5,-41.5 646.5,-41.5 646.5,-0.5 497.5,-0.5"/>
<text text-anchor="start" x="505.5" y="-29.5" font-family="Helvetica,sans-Serif" font-size="10.00">mc_orchestrator/bl</text>
<text text-anchor="start" x="505.5" y="-18.5" font-family="Helvetica,sans-Serif" font-size="10.00">/src/mco_resource_monitor</text>
<text text-anchor="middle" x="572" y="-7.5" font-family="Helvetica,sans-Serif" font-size="10.00">_handler.cpp</text>
</a>
</g>
</g>
<!-- Node1&#45;&gt;Node8 -->
<g id="edge15" class="edge">
<title>Node1&#45;&gt;Node8</title>
<path fill="none" stroke="midnightblue" d="M562.81,-146.08C564.98,-116.83 568.56,-68.44 570.55,-41.55"/>
<polygon fill="midnightblue" stroke="midnightblue" points="559.3,-146.03 562.05,-156.26 566.28,-146.55 559.3,-146.03"/>
</g>
<!-- Node9 -->
<g id="node9" class="node">
<title>Node9</title>
<g id="a_node9"><a xlink:href="mco__server__handler_8hpp.html" target="_top" xlink:title=" ">
<polygon fill="white" stroke="black" points="589.5,-84 589.5,-114 746.5,-114 746.5,-84 589.5,-84"/>
<text text-anchor="start" x="597.5" y="-102" font-family="Helvetica,sans-Serif" font-size="10.00">mc_orchestrator/bl</text>
<text text-anchor="middle" x="668" y="-91" font-family="Helvetica,sans-Serif" font-size="10.00">/inc/mco_server_handler.hpp</text>
</a>
</g>
</g>
<!-- Node1&#45;&gt;Node9 -->
<g id="edge10" class="edge">
<title>Node1&#45;&gt;Node9</title>
<path fill="none" stroke="midnightblue" d="M591.2,-150.6C608.87,-138.96 630.76,-124.54 646.64,-114.07"/>
<polygon fill="midnightblue" stroke="midnightblue" points="588.82,-147.98 582.4,-156.4 592.67,-153.82 588.82,-147.98"/>
</g>
<!-- Node10 -->
<g id="node10" class="node">
<title>Node10</title>
<g id="a_node10"><a xlink:href="mco__server__handler_8cpp.html" target="_top" xlink:title=" ">
<polygon fill="white" stroke="black" points="686,-6 686,-36 842,-36 842,-6 686,-6"/>
<text text-anchor="start" x="694" y="-24" font-family="Helvetica,sans-Serif" font-size="10.00">mc_orchestrator/bl</text>
<text text-anchor="middle" x="764" y="-13" font-family="Helvetica,sans-Serif" font-size="10.00">/src/mco_server_handler.cpp</text>
</a>
</g>
</g>
<!-- Node1&#45;&gt;Node10 -->
<g id="edge16" class="edge">
<title>Node1&#45;&gt;Node10</title>
<path fill="none" stroke="midnightblue" d="M651.57,-157.37C695.6,-149.03 742,-136.64 756,-120 775.89,-96.36 771.65,-57.16 767.46,-36.22"/>
<polygon fill="midnightblue" stroke="midnightblue" points="650.84,-153.95 641.63,-159.19 652.1,-160.83 650.84,-153.95"/>
</g>
<!-- Node11 -->
<g id="node11" class="node">
<title>Node11</title>
<g id="a_node11"><a xlink:href="mco__command__factory_8cpp.html" target="_top" xlink:title=" ">
<polygon fill="white" stroke="black" points="803,-84 803,-114 973,-114 973,-84 803,-84"/>
<text text-anchor="start" x="811" y="-102" font-family="Helvetica,sans-Serif" font-size="10.00">mc_orchestrator/runtime</text>
<text text-anchor="middle" x="888" y="-91" font-family="Helvetica,sans-Serif" font-size="10.00">/src/mco_command_factory.cpp</text>
</a>
</g>
</g>
<!-- Node1&#45;&gt;Node11 -->
<g id="edge17" class="edge">
<title>Node1&#45;&gt;Node11</title>
<path fill="none" stroke="midnightblue" d="M635.93,-154.34C692.36,-142.18 768.95,-125.67 822.85,-114.05"/>
<polygon fill="midnightblue" stroke="midnightblue" points="635.03,-150.96 626,-156.49 636.51,-157.8 635.03,-150.96"/>
</g>
<!-- Node12 -->
<g id="node12" class="node">
<title>Node12</title>
<g id="a_node12"><a xlink:href="mco__k3s__commands_8cpp.html" target="_top" xlink:title=" ">
<polygon fill="white" stroke="black" points="991,-84 991,-114 1151,-114 1151,-84 991,-84"/>
<text text-anchor="start" x="999" y="-102" font-family="Helvetica,sans-Serif" font-size="10.00">mc_orchestrator/runtime</text>
<text text-anchor="middle" x="1071" y="-91" font-family="Helvetica,sans-Serif" font-size="10.00">/src/mco_k3s_commands.cpp</text>
</a>
</g>
</g>
<!-- Node1&#45;&gt;Node12 -->
<g id="edge18" class="edge">
<title>Node1&#45;&gt;Node12</title>
<path fill="none" stroke="midnightblue" d="M651.87,-162.29C737.39,-153.93 868.89,-139.44 982,-120 991.83,-118.31 1002.22,-116.24 1012.28,-114.08"/>
<polygon fill="midnightblue" stroke="midnightblue" points="651.28,-158.83 641.67,-163.28 651.96,-165.8 651.28,-158.83"/>
</g>
<!-- Node2&#45;&gt;Node3 -->
<g id="edge2" class="edge">
<title>Node2&#45;&gt;Node3</title>
<path fill="none" stroke="midnightblue" d="M101.31,-70.63C93.32,-60.99 84.51,-50.36 77.17,-41.51"/>
<polygon fill="midnightblue" stroke="midnightblue" points="98.7,-72.96 107.78,-78.43 104.09,-68.5 98.7,-72.96"/>
</g>
<!-- Node4 -->
<g id="node4" class="node">
<title>Node4</title>
<g id="a_node4"><a xlink:href="main_8cpp.html" target="_top" xlink:title=" ">
<polygon fill="white" stroke="black" points="335,-11.5 335,-30.5 479,-30.5 479,-11.5 335,-11.5"/>
<text text-anchor="middle" x="407" y="-18.5" font-family="Helvetica,sans-Serif" font-size="10.00">mc_orchestrator/main.cpp</text>
</a>
</g>
</g>
<!-- Node2&#45;&gt;Node4 -->
<g id="edge3" class="edge">
<title>Node2&#45;&gt;Node4</title>
<path fill="none" stroke="midnightblue" d="M195.48,-77.62C264.04,-58.89 333.66,-40.82 373.74,-30.51"/>
<polygon fill="midnightblue" stroke="midnightblue" points="194.54,-74.24 185.82,-80.26 196.39,-81 194.54,-74.24"/>
</g>
<!-- Node5&#45;&gt;Node4 -->
<g id="edge6" class="edge">
<title>Node5&#45;&gt;Node4</title>
<path fill="none" stroke="midnightblue" d="M316.37,-78.46C341.19,-63 374.65,-42.15 393.18,-30.61"/>
<polygon fill="midnightblue" stroke="midnightblue" points="314.3,-75.62 307.66,-83.88 318,-81.57 314.3,-75.62"/>
</g>
<!-- Node6 -->
<g id="node6" class="node">
<title>Node6</title>
<g id="a_node6"><a xlink:href="mco__qm__ota__handler_8cpp.html" target="_top" xlink:title=" ">
<polygon fill="white" stroke="black" points="155,-6 155,-36 317,-36 317,-6 155,-6"/>
<text text-anchor="start" x="163" y="-24" font-family="Helvetica,sans-Serif" font-size="10.00">mc_orchestrator/bl</text>
<text text-anchor="middle" x="236" y="-13" font-family="Helvetica,sans-Serif" font-size="10.00">/src/mco_qm_ota_handler.cpp</text>
</a>
</g>
</g>
<!-- Node5&#45;&gt;Node6 -->
<g id="edge5" class="edge">
<title>Node5&#45;&gt;Node6</title>
<path fill="none" stroke="midnightblue" d="M270.22,-75.07C262.07,-62.44 252.21,-47.15 245.18,-36.23"/>
<polygon fill="midnightblue" stroke="midnightblue" points="267.42,-77.2 275.78,-83.7 273.31,-73.4 267.42,-77.2"/>
</g>
<!-- Node7&#45;&gt;Node4 -->
<g id="edge9" class="edge">
<title>Node7&#45;&gt;Node4</title>
<path fill="none" stroke="midnightblue" d="M439.87,-70.04C430.3,-56.05 419.38,-40.1 412.85,-30.55"/>
<polygon fill="midnightblue" stroke="midnightblue" points="437.07,-72.15 445.61,-78.43 442.85,-68.2 437.07,-72.15"/>
</g>
<!-- Node7&#45;&gt;Node8 -->
<g id="edge8" class="edge">
<title>Node7&#45;&gt;Node8</title>
<path fill="none" stroke="midnightblue" d="M496.71,-72.64C511.8,-62.49 528.91,-50.98 543,-41.51"/>
<polygon fill="midnightblue" stroke="midnightblue" points="494.44,-69.94 488.1,-78.43 498.35,-75.75 494.44,-69.94"/>
</g>
<!-- Node9&#45;&gt;Node4 -->
<g id="edge13" class="edge">
<title>Node9&#45;&gt;Node4</title>
<path fill="none" stroke="midnightblue" d="M610.06,-81.13C556.21,-65.45 478.18,-42.73 436.26,-30.52"/>
<polygon fill="midnightblue" stroke="midnightblue" points="609.24,-84.54 619.82,-83.97 611.2,-77.82 609.24,-84.54"/>
</g>
<!-- Node9&#45;&gt;Node8 -->
<g id="edge11" class="edge">
<title>Node9&#45;&gt;Node8</title>
<path fill="none" stroke="midnightblue" d="M642.09,-77.49C628.04,-66.36 610.75,-52.68 596.86,-41.68"/>
<polygon fill="midnightblue" stroke="midnightblue" points="639.93,-80.24 649.94,-83.7 644.28,-74.75 639.93,-80.24"/>
</g>
<!-- Node9&#45;&gt;Node10 -->
<g id="edge12" class="edge">
<title>Node9&#45;&gt;Node10</title>
<path fill="none" stroke="midnightblue" d="M694.21,-77.25C710.65,-64.23 731.43,-47.78 746.02,-36.23"/>
<polygon fill="midnightblue" stroke="midnightblue" points="691.72,-74.75 686.06,-83.7 696.07,-80.24 691.72,-74.75"/>
</g>
</g>
</svg>
