<?xml version="1.0" encoding="UTF-8" standalone="no"?>
<!DOCTYPE svg PUBLIC "-//W3C//DTD SVG 1.1//EN"
 "http://www.w3.org/Graphics/SVG/1.1/DTD/svg11.dtd">
<!-- Generated by graphviz version 2.43.0 (0)
 -->
<!-- Title: mc_orchestrator/common/src/mco_utils.cpp Pages: 1 -->
<svg width="1014pt" height="218pt"
 viewBox="0.00 0.00 1014.18 218.00" xmlns="http://www.w3.org/2000/svg" xmlns:xlink="http://www.w3.org/1999/xlink">
<g id="graph0" class="graph" transform="scale(1 1) rotate(0) translate(4 214)">
<title>mc_orchestrator/common/src/mco_utils.cpp</title>
<polygon fill="white" stroke="transparent" points="-4,4 -4,-214 1010.18,-214 1010.18,4 -4,4"/>
<!-- Node1 -->
<g id="node1" class="node">
<title>Node1</title>
<g id="a_node1"><a xlink:title=" ">
<polygon fill="#bfbfbf" stroke="black" points="366.68,-179.5 366.68,-209.5 508.68,-209.5 508.68,-179.5 366.68,-179.5"/>
<text text-anchor="start" x="374.68" y="-197.5" font-family="Helvetica,sans-Serif" font-size="10.00">mc_orchestrator/common</text>
<text text-anchor="middle" x="437.68" y="-186.5" font-family="Helvetica,sans-Serif" font-size="10.00">/src/mco_utils.cpp</text>
</a>
</g>
</g>
<!-- Node2 -->
<g id="node2" class="node">
<title>Node2</title>
<g id="a_node2"><a xlink:href="mco__utils_8hpp.html" target="_top" xlink:title=" ">
<polygon fill="white" stroke="black" points="26.68,-56.5 26.68,-75.5 128.68,-75.5 128.68,-56.5 26.68,-56.5"/>
<text text-anchor="middle" x="77.68" y="-63.5" font-family="Helvetica,sans-Serif" font-size="10.00">inc/mco_utils.hpp</text>
</a>
</g>
</g>
<!-- Node1&#45;&gt;Node2 -->
<g id="edge1" class="edge">
<title>Node1&#45;&gt;Node2</title>
<path fill="none" stroke="midnightblue" d="M366.53,-189.79C255.09,-183.24 49.71,-167.91 27.68,-143 10.39,-123.45 36.25,-97.48 56.76,-81.51"/>
<polygon fill="midnightblue" stroke="midnightblue" points="58.87,-84.31 64.81,-75.53 54.69,-78.69 58.87,-84.31"/>
</g>
<!-- Node3 -->
<g id="node3" class="node">
<title>Node3</title>
<g id="a_node3"><a xlink:title=" ">
<polygon fill="white" stroke="#bfbfbf" points="123.68,-0.5 123.68,-19.5 167.68,-19.5 167.68,-0.5 123.68,-0.5"/>
<text text-anchor="middle" x="145.68" y="-7.5" font-family="Helvetica,sans-Serif" font-size="10.00">string</text>
</a>
</g>
</g>
<!-- Node1&#45;&gt;Node3 -->
<g id="edge11" class="edge">
<title>Node1&#45;&gt;Node3</title>
<path fill="none" stroke="midnightblue" d="M366.4,-189.94C252.9,-183.55 41.5,-168.36 18.68,-143 -7.19,-114.26 -4.67,-87.55 17.68,-56 39.24,-25.57 83.09,-15.57 113.42,-12.36"/>
<polygon fill="midnightblue" stroke="midnightblue" points="113.86,-15.84 123.52,-11.49 113.26,-8.86 113.86,-15.84"/>
</g>
<!-- Node4 -->
<g id="node4" class="node">
<title>Node4</title>
<g id="a_node4"><a xlink:title=" ">
<polygon fill="white" stroke="#bfbfbf" points="36.68,-118 36.68,-137 86.68,-137 86.68,-118 36.68,-118"/>
<text text-anchor="middle" x="61.68" y="-125" font-family="Helvetica,sans-Serif" font-size="10.00">chrono</text>
</a>
</g>
</g>
<!-- Node1&#45;&gt;Node4 -->
<g id="edge3" class="edge">
<title>Node1&#45;&gt;Node4</title>
<path fill="none" stroke="midnightblue" d="M366.48,-188.34C296.52,-182.03 187.24,-168.82 95.68,-143 93.39,-142.35 91.04,-141.59 88.71,-140.76"/>
<polygon fill="midnightblue" stroke="midnightblue" points="89.95,-137.48 79.37,-137.06 87.38,-143.99 89.95,-137.48"/>
</g>
<!-- Node5 -->
<g id="node5" class="node">
<title>Node5</title>
<g id="a_node5"><a xlink:title=" ">
<polygon fill="white" stroke="#bfbfbf" points="104.68,-118 104.68,-137 160.68,-137 160.68,-118 104.68,-118"/>
<text text-anchor="middle" x="132.68" y="-125" font-family="Helvetica,sans-Serif" font-size="10.00">iomanip</text>
</a>
</g>
</g>
<!-- Node1&#45;&gt;Node5 -->
<g id="edge4" class="edge">
<title>Node1&#45;&gt;Node5</title>
<path fill="none" stroke="midnightblue" d="M366.58,-183.82C312.08,-175.5 235.32,-161.87 169.68,-143 167.09,-142.26 164.44,-141.4 161.8,-140.49"/>
<polygon fill="midnightblue" stroke="midnightblue" points="163.01,-137.21 152.41,-137.02 160.58,-143.77 163.01,-137.21"/>
</g>
<!-- Node6 -->
<g id="node6" class="node">
<title>Node6</title>
<g id="a_node6"><a xlink:title=" ">
<polygon fill="white" stroke="#bfbfbf" points="178.68,-118 178.68,-137 234.68,-137 234.68,-118 178.68,-118"/>
<text text-anchor="middle" x="206.68" y="-125" font-family="Helvetica,sans-Serif" font-size="10.00">sstream</text>
</a>
</g>
</g>
<!-- Node1&#45;&gt;Node6 -->
<g id="edge5" class="edge">
<title>Node1&#45;&gt;Node6</title>
<path fill="none" stroke="midnightblue" d="M375.98,-179.42C337.58,-170.18 287.37,-157.19 243.68,-143 241.41,-142.26 239.08,-141.46 236.74,-140.62"/>
<polygon fill="midnightblue" stroke="midnightblue" points="237.86,-137.3 227.26,-137.07 235.4,-143.86 237.86,-137.3"/>
</g>
<!-- Node7 -->
<g id="node7" class="node">
<title>Node7</title>
<g id="a_node7"><a xlink:title=" ">
<polygon fill="white" stroke="#bfbfbf" points="253.18,-118 253.18,-137 308.18,-137 308.18,-118 253.18,-118"/>
<text text-anchor="middle" x="280.68" y="-125" font-family="Helvetica,sans-Serif" font-size="10.00">fstream</text>
</a>
</g>
</g>
<!-- Node1&#45;&gt;Node7 -->
<g id="edge6" class="edge">
<title>Node1&#45;&gt;Node7</title>
<path fill="none" stroke="midnightblue" d="M403.61,-179.4C375.94,-167.94 337.29,-151.94 310.76,-140.95"/>
<polygon fill="midnightblue" stroke="midnightblue" points="311.8,-137.6 301.23,-137.01 309.13,-144.07 311.8,-137.6"/>
</g>
<!-- Node8 -->
<g id="node8" class="node">
<title>Node8</title>
<g id="a_node8"><a xlink:title=" ">
<polygon fill="white" stroke="#bfbfbf" points="326.68,-118 326.68,-137 406.68,-137 406.68,-118 326.68,-118"/>
<text text-anchor="middle" x="366.68" y="-125" font-family="Helvetica,sans-Serif" font-size="10.00">sys/sysinfo.h</text>
</a>
</g>
</g>
<!-- Node1&#45;&gt;Node8 -->
<g id="edge7" class="edge">
<title>Node1&#45;&gt;Node8</title>
<path fill="none" stroke="midnightblue" d="M422.27,-179.4C410.87,-168.96 395.35,-154.75 383.61,-144"/>
<polygon fill="midnightblue" stroke="midnightblue" points="385.92,-141.37 376.18,-137.19 381.19,-146.53 385.92,-141.37"/>
</g>
<!-- Node9 -->
<g id="node9" class="node">
<title>Node9</title>
<g id="a_node9"><a xlink:title=" ">
<polygon fill="white" stroke="#bfbfbf" points="678.68,-56.5 678.68,-75.5 734.68,-75.5 734.68,-56.5 678.68,-56.5"/>
<text text-anchor="middle" x="706.68" y="-63.5" font-family="Helvetica,sans-Serif" font-size="10.00">unistd.h</text>
</a>
</g>
</g>
<!-- Node1&#45;&gt;Node9 -->
<g id="edge8" class="edge">
<title>Node1&#45;&gt;Node9</title>
<path fill="none" stroke="midnightblue" d="M508.75,-190.53C581.7,-185.81 688.06,-173.73 713.68,-143 727.03,-126.99 721.32,-101.95 714.94,-85.03"/>
<polygon fill="midnightblue" stroke="midnightblue" points="718.13,-83.57 711.05,-75.69 711.67,-86.27 718.13,-83.57"/>
</g>
<!-- Node10 -->
<g id="node10" class="node">
<title>Node10</title>
<g id="a_node10"><a xlink:title=" ">
<polygon fill="white" stroke="#bfbfbf" points="959.18,-0.5 959.18,-19.5 1006.18,-19.5 1006.18,-0.5 959.18,-0.5"/>
<text text-anchor="middle" x="982.68" y="-7.5" font-family="Helvetica,sans-Serif" font-size="10.00">vector</text>
</a>
</g>
</g>
<!-- Node1&#45;&gt;Node10 -->
<g id="edge9" class="edge">
<title>Node1&#45;&gt;Node10</title>
<path fill="none" stroke="midnightblue" d="M508.82,-190.41C641.46,-184.08 916.36,-168.09 951.68,-143 987.24,-117.73 987.56,-59.87 985.03,-29.85"/>
<polygon fill="midnightblue" stroke="midnightblue" points="988.5,-29.42 983.98,-19.83 981.54,-30.14 988.5,-29.42"/>
</g>
<!-- Node11 -->
<g id="node11" class="node">
<title>Node11</title>
<g id="a_node11"><a xlink:title=" ">
<polygon fill="white" stroke="#bfbfbf" points="648.68,-118 648.68,-137 704.68,-137 704.68,-118 648.68,-118"/>
<text text-anchor="middle" x="676.68" y="-125" font-family="Helvetica,sans-Serif" font-size="10.00">numeric</text>
</a>
</g>
</g>
<!-- Node1&#45;&gt;Node11 -->
<g id="edge10" class="edge">
<title>Node1&#45;&gt;Node11</title>
<path fill="none" stroke="midnightblue" d="M497.95,-179.4C537.13,-169.9 589.2,-156.66 634.68,-143 637.45,-142.17 640.31,-141.27 643.17,-140.34"/>
<polygon fill="midnightblue" stroke="midnightblue" points="644.43,-143.61 652.8,-137.12 642.21,-136.97 644.43,-143.61"/>
</g>
<!-- Node12 -->
<g id="node12" class="node">
<title>Node12</title>
<g id="a_node12"><a xlink:href="mco__common_8hpp.html" target="_top" xlink:title=" ">
<polygon fill="white" stroke="black" points="752.68,-56.5 752.68,-75.5 876.68,-75.5 876.68,-56.5 752.68,-56.5"/>
<text text-anchor="middle" x="814.68" y="-63.5" font-family="Helvetica,sans-Serif" font-size="10.00">inc/mco_common.hpp</text>
</a>
</g>
</g>
<!-- Node1&#45;&gt;Node12 -->
<g id="edge12" class="edge">
<title>Node1&#45;&gt;Node12</title>
<path fill="none" stroke="midnightblue" d="M508.82,-192.42C570.6,-188.95 660.99,-177.65 731.68,-143 760.63,-128.81 786.74,-101.34 801.64,-83.6"/>
<polygon fill="midnightblue" stroke="midnightblue" points="804.42,-85.74 808.03,-75.78 798.99,-81.32 804.42,-85.74"/>
</g>
<!-- Node15 -->
<g id="node15" class="node">
<title>Node15</title>
<g id="a_node15"><a xlink:href="mco__database__handler_8hpp.html" target="_top" xlink:title=" ">
<polygon fill="white" stroke="black" points="424.68,-118 424.68,-137 592.68,-137 592.68,-118 424.68,-118"/>
<text text-anchor="middle" x="508.68" y="-125" font-family="Helvetica,sans-Serif" font-size="10.00">inc/mco_database_handler.hpp</text>
</a>
</g>
</g>
<!-- Node1&#45;&gt;Node15 -->
<g id="edge17" class="edge">
<title>Node1&#45;&gt;Node15</title>
<path fill="none" stroke="midnightblue" d="M453.08,-179.4C464.48,-168.96 480,-154.75 491.75,-144"/>
<polygon fill="midnightblue" stroke="midnightblue" points="494.17,-146.53 499.18,-137.19 489.44,-141.37 494.17,-146.53"/>
</g>
<!-- Node18 -->
<g id="node18" class="node">
<title>Node18</title>
<g id="a_node18"><a xlink:title=" ">
<polygon fill="white" stroke="#bfbfbf" points="550.68,-56.5 550.68,-75.5 660.68,-75.5 660.68,-56.5 550.68,-56.5"/>
<text text-anchor="middle" x="605.68" y="-63.5" font-family="Helvetica,sans-Serif" font-size="10.00">nlohmann/json.hpp</text>
</a>
</g>
</g>
<!-- Node1&#45;&gt;Node18 -->
<g id="edge29" class="edge">
<title>Node1&#45;&gt;Node18</title>
<path fill="none" stroke="midnightblue" d="M508.74,-189.75C542.28,-184.05 579.69,-171.19 601.68,-143 614.22,-126.92 613.09,-102.59 610.22,-85.82"/>
<polygon fill="midnightblue" stroke="midnightblue" points="613.56,-84.68 608.1,-75.6 606.7,-86.11 613.56,-84.68"/>
</g>
<!-- Node20 -->
<g id="node20" class="node">
<title>Node20</title>
<g id="a_node20"><a xlink:href="mco__user__app__control__handler_8hpp.html" target="_top" xlink:title=" ">
<polygon fill="white" stroke="black" points="799.18,-112.5 799.18,-142.5 942.18,-142.5 942.18,-112.5 799.18,-112.5"/>
<text text-anchor="start" x="807.18" y="-130.5" font-family="Helvetica,sans-Serif" font-size="10.00">inc/mco_user_app_control</text>
<text text-anchor="middle" x="870.68" y="-119.5" font-family="Helvetica,sans-Serif" font-size="10.00">_handler.hpp</text>
</a>
</g>
</g>
<!-- Node1&#45;&gt;Node20 -->
<g id="edge24" class="edge">
<title>Node1&#45;&gt;Node20</title>
<path fill="none" stroke="midnightblue" d="M508.86,-183.62C579.05,-173.76 689.36,-157.97 784.68,-143 785.98,-142.8 787.3,-142.59 788.62,-142.38"/>
<polygon fill="midnightblue" stroke="midnightblue" points="789.58,-145.77 798.9,-140.73 788.47,-138.86 789.58,-145.77"/>
</g>
<!-- Node2&#45;&gt;Node3 -->
<g id="edge2" class="edge">
<title>Node2&#45;&gt;Node3</title>
<path fill="none" stroke="midnightblue" d="M88.6,-56.32C98.85,-48.18 114.4,-35.84 126.68,-26.09"/>
<polygon fill="midnightblue" stroke="midnightblue" points="128.9,-28.79 134.55,-19.83 124.55,-23.31 128.9,-28.79"/>
</g>
<!-- Node12&#45;&gt;Node3 -->
<g id="edge14" class="edge">
<title>Node12&#45;&gt;Node3</title>
<path fill="none" stroke="midnightblue" d="M752.36,-56.92C749.43,-56.6 746.52,-56.29 743.68,-56 527.93,-34.22 267.4,-18.09 177.77,-12.84"/>
<polygon fill="midnightblue" stroke="midnightblue" points="177.89,-9.34 167.71,-12.25 177.49,-16.33 177.89,-9.34"/>
</g>
<!-- Node12&#45;&gt;Node10 -->
<g id="edge16" class="edge">
<title>Node12&#45;&gt;Node10</title>
<path fill="none" stroke="midnightblue" d="M841.3,-56.44C870.6,-47.02 917.75,-31.87 949.46,-21.68"/>
<polygon fill="midnightblue" stroke="midnightblue" points="950.72,-24.95 959.17,-18.56 948.57,-18.29 950.72,-24.95"/>
</g>
<!-- Node13 -->
<g id="node13" class="node">
<title>Node13</title>
<g id="a_node13"><a xlink:title=" ">
<polygon fill="white" stroke="#bfbfbf" points="620.68,-0.5 620.68,-19.5 658.68,-19.5 658.68,-0.5 620.68,-0.5"/>
<text text-anchor="middle" x="639.68" y="-7.5" font-family="Helvetica,sans-Serif" font-size="10.00">map</text>
</a>
</g>
</g>
<!-- Node12&#45;&gt;Node13 -->
<g id="edge13" class="edge">
<title>Node12&#45;&gt;Node13</title>
<path fill="none" stroke="midnightblue" d="M786.95,-56.44C754.69,-46.49 701.65,-30.12 668.8,-19.99"/>
<polygon fill="midnightblue" stroke="midnightblue" points="669.49,-16.53 658.9,-16.93 667.42,-23.22 669.49,-16.53"/>
</g>
<!-- Node14 -->
<g id="node14" class="node">
<title>Node14</title>
<g id="a_node14"><a xlink:title=" ">
<polygon fill="white" stroke="#bfbfbf" points="794.18,-0.5 794.18,-19.5 835.18,-19.5 835.18,-0.5 794.18,-0.5"/>
<text text-anchor="middle" x="814.68" y="-7.5" font-family="Helvetica,sans-Serif" font-size="10.00">tuple</text>
</a>
</g>
</g>
<!-- Node12&#45;&gt;Node14 -->
<g id="edge15" class="edge">
<title>Node12&#45;&gt;Node14</title>
<path fill="none" stroke="midnightblue" d="M814.68,-56.08C814.68,-49.01 814.68,-38.86 814.68,-29.99"/>
<polygon fill="midnightblue" stroke="midnightblue" points="818.18,-29.75 814.68,-19.75 811.18,-29.75 818.18,-29.75"/>
</g>
<!-- Node15&#45;&gt;Node3 -->
<g id="edge20" class="edge">
<title>Node15&#45;&gt;Node3</title>
<path fill="none" stroke="midnightblue" d="M455.09,-117.99C373.97,-104.99 228.28,-81.16 217.68,-76 194.14,-64.54 172.63,-43.02 159.37,-27.89"/>
<polygon fill="midnightblue" stroke="midnightblue" points="161.7,-25.22 152.57,-19.85 156.35,-29.74 161.7,-25.22"/>
</g>
<!-- Node15&#45;&gt;Node13 -->
<g id="edge18" class="edge">
<title>Node15&#45;&gt;Node13</title>
<path fill="none" stroke="midnightblue" d="M510.73,-117.54C514.5,-102.9 523.84,-73.71 541.68,-56 560.75,-37.07 589.24,-25.22 610.59,-18.47"/>
<polygon fill="midnightblue" stroke="midnightblue" points="611.83,-21.75 620.43,-15.55 609.84,-15.04 611.83,-21.75"/>
</g>
<!-- Node16 -->
<g id="node16" class="node">
<title>Node16</title>
<g id="a_node16"><a xlink:title=" ">
<polygon fill="white" stroke="#bfbfbf" points="226.68,-56.5 226.68,-75.5 258.68,-75.5 258.68,-56.5 226.68,-56.5"/>
<text text-anchor="middle" x="242.68" y="-63.5" font-family="Helvetica,sans-Serif" font-size="10.00">list</text>
</a>
</g>
</g>
<!-- Node15&#45;&gt;Node16 -->
<g id="edge19" class="edge">
<title>Node15&#45;&gt;Node16</title>
<path fill="none" stroke="midnightblue" d="M457.87,-117.97C410.96,-109.63 339.26,-95.68 268.66,-75.96"/>
<polygon fill="midnightblue" stroke="midnightblue" points="269.29,-72.5 258.71,-73.14 267.38,-79.24 269.29,-72.5"/>
</g>
<!-- Node17 -->
<g id="node17" class="node">
<title>Node17</title>
<g id="a_node17"><a xlink:title=" ">
<polygon fill="white" stroke="#bfbfbf" points="276.68,-56.5 276.68,-75.5 362.68,-75.5 362.68,-56.5 276.68,-56.5"/>
<text text-anchor="middle" x="319.68" y="-63.5" font-family="Helvetica,sans-Serif" font-size="10.00">unordered_set</text>
</a>
</g>
</g>
<!-- Node15&#45;&gt;Node17 -->
<g id="edge21" class="edge">
<title>Node15&#45;&gt;Node17</title>
<path fill="none" stroke="midnightblue" d="M481.6,-117.98C448.76,-107.64 393.25,-90.16 356.53,-78.6"/>
<polygon fill="midnightblue" stroke="midnightblue" points="357.3,-75.17 346.71,-75.51 355.2,-81.85 357.3,-75.17"/>
</g>
<!-- Node15&#45;&gt;Node18 -->
<g id="edge22" class="edge">
<title>Node15&#45;&gt;Node18</title>
<path fill="none" stroke="midnightblue" d="M522.58,-117.98C538.35,-108.3 564.32,-92.37 583.03,-80.89"/>
<polygon fill="midnightblue" stroke="midnightblue" points="585.11,-83.72 591.81,-75.51 581.45,-77.75 585.11,-83.72"/>
</g>
<!-- Node19 -->
<g id="node19" class="node">
<title>Node19</title>
<g id="a_node19"><a xlink:title=" ">
<polygon fill="white" stroke="#bfbfbf" points="381.18,-56.5 381.18,-75.5 494.18,-75.5 494.18,-56.5 381.18,-56.5"/>
<text text-anchor="middle" x="437.68" y="-63.5" font-family="Helvetica,sans-Serif" font-size="10.00">cpp_redis/cpp_redis</text>
</a>
</g>
</g>
<!-- Node15&#45;&gt;Node19 -->
<g id="edge23" class="edge">
<title>Node15&#45;&gt;Node19</title>
<path fill="none" stroke="midnightblue" d="M498.51,-117.98C487.33,-108.61 469.16,-93.38 455.59,-82.01"/>
<polygon fill="midnightblue" stroke="midnightblue" points="457.75,-79.25 447.83,-75.51 453.25,-84.61 457.75,-79.25"/>
</g>
<!-- Node20&#45;&gt;Node9 -->
<g id="edge25" class="edge">
<title>Node20&#45;&gt;Node9</title>
<path fill="none" stroke="midnightblue" d="M831.81,-112.4C803.93,-102.28 766.74,-88.79 740.17,-79.15"/>
<polygon fill="midnightblue" stroke="midnightblue" points="741.14,-75.78 730.54,-75.66 738.75,-82.36 741.14,-75.78"/>
</g>
<!-- Node20&#45;&gt;Node10 -->
<g id="edge27" class="edge">
<title>Node20&#45;&gt;Node10</title>
<path fill="none" stroke="midnightblue" d="M912.16,-112.38C930.3,-104.31 950.41,-92.44 963.68,-76 974.4,-62.71 979.07,-43.59 981.11,-29.53"/>
<polygon fill="midnightblue" stroke="midnightblue" points="984.59,-29.87 982.24,-19.54 977.63,-29.08 984.59,-29.87"/>
</g>
<!-- Node20&#45;&gt;Node12 -->
<g id="edge28" class="edge">
<title>Node20&#45;&gt;Node12</title>
<path fill="none" stroke="midnightblue" d="M857.41,-112.4C849.1,-103.58 838.38,-92.18 829.75,-83.02"/>
<polygon fill="midnightblue" stroke="midnightblue" points="832.23,-80.54 822.83,-75.66 827.13,-85.34 832.23,-80.54"/>
</g>
<!-- Node21 -->
<g id="node21" class="node">
<title>Node21</title>
<g id="a_node21"><a xlink:title=" ">
<polygon fill="white" stroke="#bfbfbf" points="894.68,-56.5 894.68,-75.5 954.68,-75.5 954.68,-56.5 894.68,-56.5"/>
<text text-anchor="middle" x="924.68" y="-63.5" font-family="Helvetica,sans-Serif" font-size="10.00">iostream</text>
</a>
</g>
</g>
<!-- Node20&#45;&gt;Node21 -->
<g id="edge26" class="edge">
<title>Node20&#45;&gt;Node21</title>
<path fill="none" stroke="midnightblue" d="M883.48,-112.4C891.4,-103.66 901.62,-92.41 909.89,-83.3"/>
<polygon fill="midnightblue" stroke="midnightblue" points="912.69,-85.42 916.82,-75.66 907.51,-80.71 912.69,-85.42"/>
</g>
</g>
</svg>
