<?xml version="1.0" encoding="UTF-8" standalone="no"?>
<!DOCTYPE svg PUBLIC "-//W3C//DTD SVG 1.1//EN"
 "http://www.w3.org/Graphics/SVG/1.1/DTD/svg11.dtd">
<!-- Generated by graphviz version 2.43.0 (0)
 -->
<!-- Title: mc_orchestrator/runtime/inc/mco_k3s_commands.hpp Pages: 1 -->
<svg width="169pt" height="151pt"
 viewBox="0.00 0.00 169.00 151.00" xmlns="http://www.w3.org/2000/svg" xmlns:xlink="http://www.w3.org/1999/xlink">
<g id="graph0" class="graph" transform="scale(1 1) rotate(0) translate(4 147)">
<title>mc_orchestrator/runtime/inc/mco_k3s_commands.hpp</title>
<polygon fill="white" stroke="transparent" points="-4,4 -4,-147 165,-147 165,4 -4,4"/>
<!-- Node1 -->
<g id="node1" class="node">
<title>Node1</title>
<g id="a_node1"><a xlink:title=" ">
<polygon fill="#bfbfbf" stroke="black" points="0,-112.5 0,-142.5 161,-142.5 161,-112.5 0,-112.5"/>
<text text-anchor="start" x="8" y="-130.5" font-family="Helvetica,sans-Serif" font-size="10.00">mc_orchestrator/runtime</text>
<text text-anchor="middle" x="80.5" y="-119.5" font-family="Helvetica,sans-Serif" font-size="10.00">/inc/mco_k3s_commands.hpp</text>
</a>
</g>
</g>
<!-- Node2 -->
<g id="node2" class="node">
<title>Node2</title>
<g id="a_node2"><a xlink:title=" ">
<polygon fill="white" stroke="#bfbfbf" points="17.5,-0.5 17.5,-19.5 61.5,-19.5 61.5,-0.5 17.5,-0.5"/>
<text text-anchor="middle" x="39.5" y="-7.5" font-family="Helvetica,sans-Serif" font-size="10.00">string</text>
</a>
</g>
</g>
<!-- Node1&#45;&gt;Node2 -->
<g id="edge1" class="edge">
<title>Node1&#45;&gt;Node2</title>
<path fill="none" stroke="midnightblue" d="M44.51,-112.35C28.95,-104.22 12.31,-92.32 3.5,-76 -5.62,-59.11 8.02,-39.9 21.05,-26.76"/>
<polygon fill="midnightblue" stroke="midnightblue" points="23.57,-29.19 28.47,-19.8 18.78,-24.09 23.57,-29.19"/>
</g>
<!-- Node3 -->
<g id="node3" class="node">
<title>Node3</title>
<g id="a_node3"><a xlink:title=" ">
<polygon fill="white" stroke="#bfbfbf" points="92.5,-0.5 92.5,-19.5 150.5,-19.5 150.5,-0.5 92.5,-0.5"/>
<text text-anchor="middle" x="121.5" y="-7.5" font-family="Helvetica,sans-Serif" font-size="10.00">memory</text>
</a>
</g>
</g>
<!-- Node1&#45;&gt;Node3 -->
<g id="edge2" class="edge">
<title>Node1&#45;&gt;Node3</title>
<path fill="none" stroke="midnightblue" d="M116.49,-112.35C132.05,-104.22 148.69,-92.32 157.5,-76 166.62,-59.11 152.98,-39.9 139.95,-26.76"/>
<polygon fill="midnightblue" stroke="midnightblue" points="142.22,-24.09 132.53,-19.8 137.43,-29.19 142.22,-24.09"/>
</g>
<!-- Node4 -->
<g id="node4" class="node">
<title>Node4</title>
<g id="a_node4"><a xlink:href="mco__commands_8hpp.html" target="_top" xlink:title=" ">
<polygon fill="white" stroke="black" points="13,-56.5 13,-75.5 148,-75.5 148,-56.5 13,-56.5"/>
<text text-anchor="middle" x="80.5" y="-63.5" font-family="Helvetica,sans-Serif" font-size="10.00">inc/mco_commands.hpp</text>
</a>
</g>
</g>
<!-- Node1&#45;&gt;Node4 -->
<g id="edge3" class="edge">
<title>Node1&#45;&gt;Node4</title>
<path fill="none" stroke="midnightblue" d="M80.5,-112.4C80.5,-104.47 80.5,-94.46 80.5,-85.86"/>
<polygon fill="midnightblue" stroke="midnightblue" points="84,-85.66 80.5,-75.66 77,-85.66 84,-85.66"/>
</g>
<!-- Node4&#45;&gt;Node2 -->
<g id="edge4" class="edge">
<title>Node4&#45;&gt;Node2</title>
<path fill="none" stroke="midnightblue" d="M73.73,-56.08C67.94,-48.46 59.44,-37.26 52.36,-27.94"/>
<polygon fill="midnightblue" stroke="midnightblue" points="54.98,-25.6 46.14,-19.75 49.4,-29.83 54.98,-25.6"/>
</g>
<!-- Node4&#45;&gt;Node3 -->
<g id="edge5" class="edge">
<title>Node4&#45;&gt;Node3</title>
<path fill="none" stroke="midnightblue" d="M87.27,-56.08C93.06,-48.46 101.56,-37.26 108.64,-27.94"/>
<polygon fill="midnightblue" stroke="midnightblue" points="111.6,-29.83 114.86,-19.75 106.02,-25.6 111.6,-29.83"/>
</g>
</g>
</svg>
