<?xml version="1.0" encoding="UTF-8" standalone="no"?>
<!DOCTYPE svg PUBLIC "-//W3C//DTD SVG 1.1//EN"
 "http://www.w3.org/Graphics/SVG/1.1/DTD/svg11.dtd">
<!-- Generated by graphviz version 2.43.0 (0)
 -->
<!-- Title: mc_orchestrator/bl/inc/mco_user_app_control_handler.hpp Pages: 1 -->
<svg width="372pt" height="162pt"
 viewBox="0.00 0.00 371.50 162.00" xmlns="http://www.w3.org/2000/svg" xmlns:xlink="http://www.w3.org/1999/xlink">
<g id="graph0" class="graph" transform="scale(1 1) rotate(0) translate(4 158)">
<title>mc_orchestrator/bl/inc/mco_user_app_control_handler.hpp</title>
<polygon fill="white" stroke="transparent" points="-4,4 -4,-158 367.5,-158 367.5,4 -4,4"/>
<!-- Node1 -->
<g id="node1" class="node">
<title>Node1</title>
<g id="a_node1"><a xlink:title=" ">
<polygon fill="#bfbfbf" stroke="black" points="60,-112.5 60,-153.5 206,-153.5 206,-112.5 60,-112.5"/>
<text text-anchor="start" x="68" y="-141.5" font-family="Helvetica,sans-Serif" font-size="10.00">mc_orchestrator/bl</text>
<text text-anchor="start" x="68" y="-130.5" font-family="Helvetica,sans-Serif" font-size="10.00">/inc/mco_user_app_control</text>
<text text-anchor="middle" x="133" y="-119.5" font-family="Helvetica,sans-Serif" font-size="10.00">_handler.hpp</text>
</a>
</g>
</g>
<!-- Node2 -->
<g id="node2" class="node">
<title>Node2</title>
<g id="a_node2"><a xlink:title=" ">
<polygon fill="white" stroke="#bfbfbf" points="0,-56.5 0,-75.5 56,-75.5 56,-56.5 0,-56.5"/>
<text text-anchor="middle" x="28" y="-63.5" font-family="Helvetica,sans-Serif" font-size="10.00">unistd.h</text>
</a>
</g>
</g>
<!-- Node1&#45;&gt;Node2 -->
<g id="edge1" class="edge">
<title>Node1&#45;&gt;Node2</title>
<path fill="none" stroke="midnightblue" d="M101.5,-112.5C85.09,-102.34 65.4,-90.16 50.54,-80.95"/>
<polygon fill="midnightblue" stroke="midnightblue" points="52.32,-77.94 41.98,-75.65 48.64,-83.89 52.32,-77.94"/>
</g>
<!-- Node3 -->
<g id="node3" class="node">
<title>Node3</title>
<g id="a_node3"><a xlink:title=" ">
<polygon fill="white" stroke="#bfbfbf" points="74,-56.5 74,-75.5 134,-75.5 134,-56.5 74,-56.5"/>
<text text-anchor="middle" x="104" y="-63.5" font-family="Helvetica,sans-Serif" font-size="10.00">iostream</text>
</a>
</g>
</g>
<!-- Node1&#45;&gt;Node3 -->
<g id="edge2" class="edge">
<title>Node1&#45;&gt;Node3</title>
<path fill="none" stroke="midnightblue" d="M124.3,-112.5C120.41,-103.78 115.85,-93.56 112.04,-85.02"/>
<polygon fill="midnightblue" stroke="midnightblue" points="115.13,-83.36 107.86,-75.65 108.74,-86.21 115.13,-83.36"/>
</g>
<!-- Node4 -->
<g id="node4" class="node">
<title>Node4</title>
<g id="a_node4"><a xlink:title=" ">
<polygon fill="white" stroke="#bfbfbf" points="138.5,-0.5 138.5,-19.5 185.5,-19.5 185.5,-0.5 138.5,-0.5"/>
<text text-anchor="middle" x="162" y="-7.5" font-family="Helvetica,sans-Serif" font-size="10.00">vector</text>
</a>
</g>
</g>
<!-- Node1&#45;&gt;Node4 -->
<g id="edge3" class="edge">
<title>Node1&#45;&gt;Node4</title>
<path fill="none" stroke="midnightblue" d="M137.72,-112.29C143.22,-89.37 152.21,-51.85 157.57,-29.47"/>
<polygon fill="midnightblue" stroke="midnightblue" points="161.02,-30.12 159.94,-19.57 154.21,-28.48 161.02,-30.12"/>
</g>
<!-- Node5 -->
<g id="node5" class="node">
<title>Node5</title>
<g id="a_node5"><a xlink:href="mco__common_8hpp.html" target="_top" xlink:title=" ">
<polygon fill="white" stroke="black" points="190,-56.5 190,-75.5 314,-75.5 314,-56.5 190,-56.5"/>
<text text-anchor="middle" x="252" y="-63.5" font-family="Helvetica,sans-Serif" font-size="10.00">inc/mco_common.hpp</text>
</a>
</g>
</g>
<!-- Node1&#45;&gt;Node5 -->
<g id="edge4" class="edge">
<title>Node1&#45;&gt;Node5</title>
<path fill="none" stroke="midnightblue" d="M168.7,-112.5C187.48,-102.24 210.03,-89.93 226.93,-80.69"/>
<polygon fill="midnightblue" stroke="midnightblue" points="229.06,-83.52 236.16,-75.65 225.71,-77.37 229.06,-83.52"/>
</g>
<!-- Node5&#45;&gt;Node4 -->
<g id="edge8" class="edge">
<title>Node5&#45;&gt;Node4</title>
<path fill="none" stroke="midnightblue" d="M237.54,-56.32C223.5,-47.9 201.95,-34.97 185.46,-25.07"/>
<polygon fill="midnightblue" stroke="midnightblue" points="186.8,-21.8 176.42,-19.65 183.2,-27.8 186.8,-21.8"/>
</g>
<!-- Node6 -->
<g id="node6" class="node">
<title>Node6</title>
<g id="a_node6"><a xlink:title=" ">
<polygon fill="white" stroke="#bfbfbf" points="204,-0.5 204,-19.5 242,-19.5 242,-0.5 204,-0.5"/>
<text text-anchor="middle" x="223" y="-7.5" font-family="Helvetica,sans-Serif" font-size="10.00">map</text>
</a>
</g>
</g>
<!-- Node5&#45;&gt;Node6 -->
<g id="edge5" class="edge">
<title>Node5&#45;&gt;Node6</title>
<path fill="none" stroke="midnightblue" d="M247.21,-56.08C243.24,-48.69 237.47,-37.95 232.57,-28.81"/>
<polygon fill="midnightblue" stroke="midnightblue" points="235.51,-26.91 227.7,-19.75 229.35,-30.22 235.51,-26.91"/>
</g>
<!-- Node7 -->
<g id="node7" class="node">
<title>Node7</title>
<g id="a_node7"><a xlink:title=" ">
<polygon fill="white" stroke="#bfbfbf" points="260,-0.5 260,-19.5 304,-19.5 304,-0.5 260,-0.5"/>
<text text-anchor="middle" x="282" y="-7.5" font-family="Helvetica,sans-Serif" font-size="10.00">string</text>
</a>
</g>
</g>
<!-- Node5&#45;&gt;Node7 -->
<g id="edge6" class="edge">
<title>Node5&#45;&gt;Node7</title>
<path fill="none" stroke="midnightblue" d="M256.95,-56.08C261.1,-48.61 267.15,-37.72 272.27,-28.52"/>
<polygon fill="midnightblue" stroke="midnightblue" points="275.34,-30.19 277.14,-19.75 269.22,-26.79 275.34,-30.19"/>
</g>
<!-- Node8 -->
<g id="node8" class="node">
<title>Node8</title>
<g id="a_node8"><a xlink:title=" ">
<polygon fill="white" stroke="#bfbfbf" points="322.5,-0.5 322.5,-19.5 363.5,-19.5 363.5,-0.5 322.5,-0.5"/>
<text text-anchor="middle" x="343" y="-7.5" font-family="Helvetica,sans-Serif" font-size="10.00">tuple</text>
</a>
</g>
</g>
<!-- Node5&#45;&gt;Node8 -->
<g id="edge7" class="edge">
<title>Node5&#45;&gt;Node8</title>
<path fill="none" stroke="midnightblue" d="M266.62,-56.32C280.95,-47.82 303.01,-34.73 319.75,-24.8"/>
<polygon fill="midnightblue" stroke="midnightblue" points="321.6,-27.77 328.42,-19.65 318.03,-21.75 321.6,-27.77"/>
</g>
</g>
</svg>
