<?xml version="1.0" encoding="UTF-8" standalone="no"?>
<!DOCTYPE svg PUBLIC "-//W3C//DTD SVG 1.1//EN"
 "http://www.w3.org/Graphics/SVG/1.1/DTD/svg11.dtd">
<!-- Generated by graphviz version 2.43.0 (0)
 -->
<!-- Title: mc_orchestrator/bl/inc/mco_user_app_control_handler.hpp Pages: 1 -->
<svg width="476pt" height="128pt"
 viewBox="0.00 0.00 476.00 128.00" xmlns="http://www.w3.org/2000/svg" xmlns:xlink="http://www.w3.org/1999/xlink">
<g id="graph0" class="graph" transform="scale(1 1) rotate(0) translate(4 124)">
<title>mc_orchestrator/bl/inc/mco_user_app_control_handler.hpp</title>
<polygon fill="white" stroke="transparent" points="-4,4 -4,-124 472,-124 472,4 -4,4"/>
<!-- Node1 -->
<g id="node1" class="node">
<title>Node1</title>
<g id="a_node1"><a xlink:title=" ">
<polygon fill="#bfbfbf" stroke="black" points="162,-78.5 162,-119.5 308,-119.5 308,-78.5 162,-78.5"/>
<text text-anchor="start" x="170" y="-107.5" font-family="Helvetica,sans-Serif" font-size="10.00">mc_orchestrator/bl</text>
<text text-anchor="start" x="170" y="-96.5" font-family="Helvetica,sans-Serif" font-size="10.00">/inc/mco_user_app_control</text>
<text text-anchor="middle" x="235" y="-85.5" font-family="Helvetica,sans-Serif" font-size="10.00">_handler.hpp</text>
</a>
</g>
</g>
<!-- Node2 -->
<g id="node2" class="node">
<title>Node2</title>
<g id="a_node2"><a xlink:href="mco__user__app__control__handler_8cpp.html" target="_top" xlink:title=" ">
<polygon fill="white" stroke="black" points="0,-0.5 0,-41.5 146,-41.5 146,-0.5 0,-0.5"/>
<text text-anchor="start" x="8" y="-29.5" font-family="Helvetica,sans-Serif" font-size="10.00">mc_orchestrator/bl</text>
<text text-anchor="start" x="8" y="-18.5" font-family="Helvetica,sans-Serif" font-size="10.00">/src/mco_user_app_control</text>
<text text-anchor="middle" x="73" y="-7.5" font-family="Helvetica,sans-Serif" font-size="10.00">_handler.cpp</text>
</a>
</g>
</g>
<!-- Node1&#45;&gt;Node2 -->
<g id="edge1" class="edge">
<title>Node1&#45;&gt;Node2</title>
<path fill="none" stroke="midnightblue" d="M183.95,-74.05C161.6,-63.57 135.72,-51.42 114.58,-41.51"/>
<polygon fill="midnightblue" stroke="midnightblue" points="182.74,-77.35 193.28,-78.43 185.71,-71.01 182.74,-77.35"/>
</g>
<!-- Node3 -->
<g id="node3" class="node">
<title>Node3</title>
<g id="a_node3"><a xlink:href="mco__utils_8cpp.html" target="_top" xlink:title=" ">
<polygon fill="white" stroke="black" points="164,-6 164,-36 306,-36 306,-6 164,-6"/>
<text text-anchor="start" x="172" y="-24" font-family="Helvetica,sans-Serif" font-size="10.00">mc_orchestrator/common</text>
<text text-anchor="middle" x="235" y="-13" font-family="Helvetica,sans-Serif" font-size="10.00">/src/mco_utils.cpp</text>
</a>
</g>
</g>
<!-- Node1&#45;&gt;Node3 -->
<g id="edge2" class="edge">
<title>Node1&#45;&gt;Node3</title>
<path fill="none" stroke="midnightblue" d="M235,-68.28C235,-57.25 235,-45.25 235,-36.23"/>
<polygon fill="midnightblue" stroke="midnightblue" points="231.5,-68.43 235,-78.43 238.5,-68.43 231.5,-68.43"/>
</g>
<!-- Node4 -->
<g id="node4" class="node">
<title>Node4</title>
<g id="a_node4"><a xlink:href="main_8cpp.html" target="_top" xlink:title=" ">
<polygon fill="white" stroke="black" points="324,-11.5 324,-30.5 468,-30.5 468,-11.5 324,-11.5"/>
<text text-anchor="middle" x="396" y="-18.5" font-family="Helvetica,sans-Serif" font-size="10.00">mc_orchestrator/main.cpp</text>
</a>
</g>
</g>
<!-- Node1&#45;&gt;Node4 -->
<g id="edge3" class="edge">
<title>Node1&#45;&gt;Node4</title>
<path fill="none" stroke="midnightblue" d="M285.55,-74.14C317.04,-59.27 355.65,-41.05 377.88,-30.55"/>
<polygon fill="midnightblue" stroke="midnightblue" points="284.01,-70.99 276.46,-78.43 287,-77.32 284.01,-70.99"/>
</g>
</g>
</svg>
