<?xml version="1.0" encoding="UTF-8" standalone="no"?>
<!DOCTYPE svg PUBLIC "-//W3C//DTD SVG 1.1//EN"
 "http://www.w3.org/Graphics/SVG/1.1/DTD/svg11.dtd">
<!-- Generated by graphviz version 2.43.0 (0)
 -->
<!-- Title: fuzzer::RemoveFile Pages: 1 -->
<svg width="545pt" height="88pt"
 viewBox="0.00 0.00 545.00 88.00" xmlns="http://www.w3.org/2000/svg" xmlns:xlink="http://www.w3.org/1999/xlink">
<g id="graph0" class="graph" transform="scale(1 1) rotate(0) translate(4 84)">
<title>fuzzer::RemoveFile</title>
<polygon fill="white" stroke="transparent" points="-4,4 -4,-84 541,-84 541,4 -4,4"/>
<!-- Node1 -->
<g id="node1" class="node">
<title>Node1</title>
<g id="a_node1"><a xlink:title=" ">
<polygon fill="#bfbfbf" stroke="black" points="427,-30 427,-49 537,-49 537,-30 427,-30"/>
<text text-anchor="middle" x="482" y="-37" font-family="Helvetica,sans-Serif" font-size="10.00">fuzzer::RemoveFile</text>
</a>
</g>
</g>
<!-- Node2 -->
<g id="node2" class="node">
<title>Node2</title>
<g id="a_node2"><a xlink:href="classfuzzer_1_1Fuzzer.html#a3777acf379198d5339bf6baf0e9ad011" target="_top" xlink:title=" ">
<polygon fill="white" stroke="black" points="227,-49.5 227,-79.5 391,-79.5 391,-49.5 227,-49.5"/>
<text text-anchor="start" x="235" y="-67.5" font-family="Helvetica,sans-Serif" font-size="10.00">fuzzer::Fuzzer::CrashResistant</text>
<text text-anchor="middle" x="309" y="-56.5" font-family="Helvetica,sans-Serif" font-size="10.00">Merge</text>
</a>
</g>
</g>
<!-- Node1&#45;&gt;Node2 -->
<g id="edge1" class="edge">
<title>Node1&#45;&gt;Node2</title>
<path fill="none" stroke="midnightblue" d="M416.86,-48.88C408.5,-50.1 399.84,-51.37 391.24,-52.62"/>
<polygon fill="midnightblue" stroke="midnightblue" points="417.51,-52.32 426.89,-47.41 416.49,-45.39 417.51,-52.32"/>
</g>
<!-- Node5 -->
<g id="node5" class="node">
<title>Node5</title>
<g id="a_node5"><a xlink:href="classfuzzer_1_1InputCorpus.html#a64cde7656bbad1bd092306d725f27bdb" target="_top" xlink:title=" ">
<polygon fill="white" stroke="black" points="253.5,-0.5 253.5,-30.5 364.5,-30.5 364.5,-0.5 253.5,-0.5"/>
<text text-anchor="start" x="261.5" y="-18.5" font-family="Helvetica,sans-Serif" font-size="10.00">fuzzer::InputCorpus</text>
<text text-anchor="middle" x="309" y="-7.5" font-family="Helvetica,sans-Serif" font-size="10.00">::DeleteInput</text>
</a>
</g>
</g>
<!-- Node1&#45;&gt;Node5 -->
<g id="edge4" class="edge">
<title>Node1&#45;&gt;Node5</title>
<path fill="none" stroke="midnightblue" d="M416.93,-30.51C399.72,-28.09 381.28,-25.5 364.63,-23.17"/>
<polygon fill="midnightblue" stroke="midnightblue" points="416.51,-33.98 426.89,-31.91 417.48,-27.05 416.51,-33.98"/>
</g>
<!-- Node3 -->
<g id="node3" class="node">
<title>Node3</title>
<g id="a_node3"><a xlink:href="namespacefuzzer.html#a78f142089de84c6cbf7b5cab5f766af7" target="_top" xlink:title=" ">
<polygon fill="white" stroke="black" points="77,-55 77,-74 191,-74 191,-55 77,-55"/>
<text text-anchor="middle" x="134" y="-62" font-family="Helvetica,sans-Serif" font-size="10.00">fuzzer::FuzzerDriver</text>
</a>
</g>
</g>
<!-- Node2&#45;&gt;Node3 -->
<g id="edge2" class="edge">
<title>Node2&#45;&gt;Node3</title>
<path fill="none" stroke="midnightblue" d="M216.58,-64.5C207.88,-64.5 199.23,-64.5 191.01,-64.5"/>
<polygon fill="midnightblue" stroke="midnightblue" points="216.82,-68 226.82,-64.5 216.82,-61 216.82,-68"/>
</g>
<!-- Node4 -->
<g id="node4" class="node">
<title>Node4</title>
<g id="a_node4"><a xlink:href="FuzzerMain_8cpp.html#a3c04138a5bfe5d72780bb7e82a18e627" target="_top" xlink:title=" ">
<polygon fill="white" stroke="black" points="0,-55 0,-74 41,-74 41,-55 0,-55"/>
<text text-anchor="middle" x="20.5" y="-62" font-family="Helvetica,sans-Serif" font-size="10.00">main</text>
</a>
</g>
</g>
<!-- Node3&#45;&gt;Node4 -->
<g id="edge3" class="edge">
<title>Node3&#45;&gt;Node4</title>
<path fill="none" stroke="midnightblue" d="M66.7,-64.5C57.37,-64.5 48.45,-64.5 41.04,-64.5"/>
<polygon fill="midnightblue" stroke="midnightblue" points="66.92,-68 76.92,-64.5 66.92,-61 66.92,-68"/>
</g>
<!-- Node6 -->
<g id="node6" class="node">
<title>Node6</title>
<g id="a_node6"><a xlink:href="classfuzzer_1_1InputCorpus.html#a3e23a793c1810f5c6a727847a11a4ffd" target="_top" xlink:title=" ">
<polygon fill="white" stroke="black" points="78.5,-0.5 78.5,-30.5 189.5,-30.5 189.5,-0.5 78.5,-0.5"/>
<text text-anchor="start" x="86.5" y="-18.5" font-family="Helvetica,sans-Serif" font-size="10.00">fuzzer::InputCorpus</text>
<text text-anchor="middle" x="134" y="-7.5" font-family="Helvetica,sans-Serif" font-size="10.00">::AddFeature</text>
</a>
</g>
</g>
<!-- Node5&#45;&gt;Node6 -->
<g id="edge5" class="edge">
<title>Node5&#45;&gt;Node6</title>
<path fill="none" stroke="midnightblue" d="M243.08,-15.5C225.49,-15.5 206.64,-15.5 189.68,-15.5"/>
<polygon fill="midnightblue" stroke="midnightblue" points="243.26,-19 253.26,-15.5 243.26,-12 243.26,-19"/>
</g>
</g>
</svg>
