<?xml version="1.0" encoding="UTF-8" standalone="no"?>
<!DOCTYPE svg PUBLIC "-//W3C//DTD SVG 1.1//EN"
 "http://www.w3.org/Graphics/SVG/1.1/DTD/svg11.dtd">
<!-- Generated by graphviz version 2.43.0 (0)
 -->
<!-- Title: httplib::detail::process_server_socket_core Pages: 1 -->
<svg width="617pt" height="78pt"
 viewBox="0.00 0.00 617.00 77.50" xmlns="http://www.w3.org/2000/svg" xmlns:xlink="http://www.w3.org/1999/xlink">
<g id="graph0" class="graph" transform="scale(1 1) rotate(0) translate(4 73.5)">
<title>httplib::detail::process_server_socket_core</title>
<polygon fill="white" stroke="transparent" points="-4,4 -4,-73.5 613,-73.5 613,4 -4,4"/>
<!-- Node1 -->
<g id="node1" class="node">
<title>Node1</title>
<g id="a_node1"><a xlink:title=" ">
<polygon fill="#bfbfbf" stroke="black" points="0,-22.5 0,-52.5 125,-52.5 125,-22.5 0,-22.5"/>
<text text-anchor="start" x="8" y="-40.5" font-family="Helvetica,sans-Serif" font-size="10.00">httplib::detail::process</text>
<text text-anchor="middle" x="62.5" y="-29.5" font-family="Helvetica,sans-Serif" font-size="10.00">_server_socket_core</text>
</a>
</g>
</g>
<!-- Node2 -->
<g id="node2" class="node">
<title>Node2</title>
<g id="a_node2"><a xlink:href="FuzzerTracePC_8cpp.html#a1f10ac78bd11294b612636121065eb5b" target="_top" xlink:title=" ">
<polygon fill="white" stroke="black" points="193,-50 193,-69 240,-69 240,-50 193,-50"/>
<text text-anchor="middle" x="216.5" y="-57" font-family="Helvetica,sans-Serif" font-size="10.00">assert</text>
</a>
</g>
</g>
<!-- Node1&#45;&gt;Node2 -->
<g id="edge1" class="edge">
<title>Node1&#45;&gt;Node2</title>
<path fill="none" stroke="midnightblue" d="M125.32,-46.45C144.88,-49.28 165.73,-52.3 182.45,-54.72"/>
<polygon fill="midnightblue" stroke="midnightblue" points="182.39,-58.24 192.79,-56.21 183.39,-51.32 182.39,-58.24"/>
</g>
<!-- Node3 -->
<g id="node3" class="node">
<title>Node3</title>
<g id="a_node3"><a xlink:href="namespacehttplib_1_1detail.html#ab08d37ac18483ada5ec56e3232405765" target="_top" xlink:title=" ">
<polygon fill="white" stroke="black" points="161,-0.5 161,-30.5 272,-30.5 272,-0.5 161,-0.5"/>
<text text-anchor="start" x="169" y="-18.5" font-family="Helvetica,sans-Serif" font-size="10.00">httplib::detail::keep</text>
<text text-anchor="middle" x="216.5" y="-7.5" font-family="Helvetica,sans-Serif" font-size="10.00">_alive</text>
</a>
</g>
</g>
<!-- Node1&#45;&gt;Node3 -->
<g id="edge2" class="edge">
<title>Node1&#45;&gt;Node3</title>
<path fill="none" stroke="midnightblue" d="M125.32,-28.55C133.62,-27.35 142.15,-26.12 150.5,-24.91"/>
<polygon fill="midnightblue" stroke="midnightblue" points="151.18,-28.35 160.57,-23.45 150.17,-21.42 151.18,-28.35"/>
</g>
<!-- Node4 -->
<g id="node4" class="node">
<title>Node4</title>
<g id="a_node4"><a xlink:href="namespacehttplib_1_1detail.html#ade5583c2e13e0822f2a90227894d92fe" target="_top" xlink:title=" ">
<polygon fill="white" stroke="black" points="308,-6 308,-25 452,-25 452,-6 308,-6"/>
<text text-anchor="middle" x="380" y="-13" font-family="Helvetica,sans-Serif" font-size="10.00">httplib::detail::select_read</text>
</a>
</g>
</g>
<!-- Node3&#45;&gt;Node4 -->
<g id="edge3" class="edge">
<title>Node3&#45;&gt;Node4</title>
<path fill="none" stroke="midnightblue" d="M272.18,-15.5C280.4,-15.5 289.02,-15.5 297.66,-15.5"/>
<polygon fill="midnightblue" stroke="midnightblue" points="297.77,-19 307.77,-15.5 297.77,-12 297.77,-19"/>
</g>
<!-- Node5 -->
<g id="node5" class="node">
<title>Node5</title>
<g id="a_node5"><a xlink:href="namespacehttplib_1_1detail.html#a8fbaa8fefb24f6dd249b62f832f64a84" target="_top" xlink:title=" ">
<polygon fill="white" stroke="black" points="488,-0.5 488,-30.5 609,-30.5 609,-0.5 488,-0.5"/>
<text text-anchor="start" x="496" y="-18.5" font-family="Helvetica,sans-Serif" font-size="10.00">httplib::detail::handle</text>
<text text-anchor="middle" x="548.5" y="-7.5" font-family="Helvetica,sans-Serif" font-size="10.00">_EINTR</text>
</a>
</g>
</g>
<!-- Node4&#45;&gt;Node5 -->
<g id="edge4" class="edge">
<title>Node4&#45;&gt;Node5</title>
<path fill="none" stroke="midnightblue" d="M452.09,-15.5C460.58,-15.5 469.23,-15.5 477.7,-15.5"/>
<polygon fill="midnightblue" stroke="midnightblue" points="477.9,-19 487.9,-15.5 477.9,-12 477.9,-19"/>
</g>
</g>
</svg>
