<?xml version="1.0" encoding="UTF-8" standalone="no"?>
<!DOCTYPE svg PUBLIC "-//W3C//DTD SVG 1.1//EN"
 "http://www.w3.org/Graphics/SVG/1.1/DTD/svg11.dtd">
<!-- Generated by graphviz version 2.43.0 (0)
 -->
<!-- Title: httplib::detail::duration_to_sec_and_usec Pages: 1 -->
<svg width="312pt" height="284pt"
 viewBox="0.00 0.00 312.00 284.00" xmlns="http://www.w3.org/2000/svg" xmlns:xlink="http://www.w3.org/1999/xlink">
<g id="graph0" class="graph" transform="scale(1 1) rotate(0) translate(4 280)">
<title>httplib::detail::duration_to_sec_and_usec</title>
<polygon fill="white" stroke="transparent" points="-4,4 -4,-280 308,-280 308,4 -4,4"/>
<!-- Node1 -->
<g id="node1" class="node">
<title>Node1</title>
<g id="a_node1"><a xlink:title=" ">
<polygon fill="#bfbfbf" stroke="black" points="176,-122.5 176,-152.5 304,-152.5 304,-122.5 176,-122.5"/>
<text text-anchor="start" x="184" y="-140.5" font-family="Helvetica,sans-Serif" font-size="10.00">httplib::detail::duration</text>
<text text-anchor="middle" x="240" y="-129.5" font-family="Helvetica,sans-Serif" font-size="10.00">_to_sec_and_usec</text>
</a>
</g>
</g>
<!-- Node2 -->
<g id="node2" class="node">
<title>Node2</title>
<g id="a_node2"><a xlink:href="classhttplib_1_1ClientImpl.html#ad9ae73f9f3f4a20c9bde149a2a8f9dc2" target="_top" xlink:title=" ">
<polygon fill="white" stroke="black" points="0,-245.5 0,-275.5 140,-275.5 140,-245.5 0,-245.5"/>
<text text-anchor="start" x="8" y="-263.5" font-family="Helvetica,sans-Serif" font-size="10.00">httplib::ClientImpl</text>
<text text-anchor="middle" x="70" y="-252.5" font-family="Helvetica,sans-Serif" font-size="10.00">::set_connection_timeout</text>
</a>
</g>
</g>
<!-- Node1&#45;&gt;Node2 -->
<g id="edge1" class="edge">
<title>Node1&#45;&gt;Node2</title>
<path fill="none" stroke="midnightblue" d="M221.14,-160.64C202.9,-182.87 172.69,-216 140,-236.5 134.63,-239.87 128.72,-242.84 122.69,-245.43"/>
<polygon fill="midnightblue" stroke="midnightblue" points="223.98,-162.69 227.52,-152.71 218.53,-158.3 223.98,-162.69"/>
</g>
<!-- Node3 -->
<g id="node3" class="node">
<title>Node3</title>
<g id="a_node3"><a xlink:href="classhttplib_1_1Server.html#aee285a502bbfa6c5ae8e1915c7d4fde4" target="_top" xlink:title=" ">
<polygon fill="white" stroke="black" points="16.5,-196.5 16.5,-226.5 123.5,-226.5 123.5,-196.5 16.5,-196.5"/>
<text text-anchor="start" x="24.5" y="-214.5" font-family="Helvetica,sans-Serif" font-size="10.00">httplib::Server::set</text>
<text text-anchor="middle" x="70" y="-203.5" font-family="Helvetica,sans-Serif" font-size="10.00">_idle_interval</text>
</a>
</g>
</g>
<!-- Node1&#45;&gt;Node3 -->
<g id="edge2" class="edge">
<title>Node1&#45;&gt;Node3</title>
<path fill="none" stroke="midnightblue" d="M202.77,-157.26C184.26,-166.97 161.23,-178.49 140,-187.5 132.64,-190.62 124.73,-193.66 116.98,-196.47"/>
<polygon fill="midnightblue" stroke="midnightblue" points="204.53,-160.28 211.73,-152.51 201.25,-154.1 204.53,-160.28"/>
</g>
<!-- Node4 -->
<g id="node4" class="node">
<title>Node4</title>
<g id="a_node4"><a xlink:href="classhttplib_1_1Server.html#abd1a933ed52d307f3c6625dbe20f6772" target="_top" xlink:title=" ">
<polygon fill="white" stroke="black" points="16.5,-147.5 16.5,-177.5 123.5,-177.5 123.5,-147.5 16.5,-147.5"/>
<text text-anchor="start" x="24.5" y="-165.5" font-family="Helvetica,sans-Serif" font-size="10.00">httplib::Server::set</text>
<text text-anchor="middle" x="70" y="-154.5" font-family="Helvetica,sans-Serif" font-size="10.00">_read_timeout</text>
</a>
</g>
</g>
<!-- Node1&#45;&gt;Node4 -->
<g id="edge3" class="edge">
<title>Node1&#45;&gt;Node4</title>
<path fill="none" stroke="midnightblue" d="M165.75,-148.4C151.59,-150.51 137.02,-152.68 123.68,-154.66"/>
<polygon fill="midnightblue" stroke="midnightblue" points="166.59,-151.81 175.97,-146.88 165.56,-144.89 166.59,-151.81"/>
</g>
<!-- Node5 -->
<g id="node5" class="node">
<title>Node5</title>
<g id="a_node5"><a xlink:href="classhttplib_1_1ClientImpl.html#a34cfd4e4eeb749abc75a2237b881c8db" target="_top" xlink:title=" ">
<polygon fill="white" stroke="black" points="16,-98.5 16,-128.5 124,-128.5 124,-98.5 16,-98.5"/>
<text text-anchor="start" x="24" y="-116.5" font-family="Helvetica,sans-Serif" font-size="10.00">httplib::ClientImpl</text>
<text text-anchor="middle" x="70" y="-105.5" font-family="Helvetica,sans-Serif" font-size="10.00">::set_read_timeout</text>
</a>
</g>
</g>
<!-- Node1&#45;&gt;Node5 -->
<g id="edge4" class="edge">
<title>Node1&#45;&gt;Node5</title>
<path fill="none" stroke="midnightblue" d="M165.86,-127.05C151.86,-125.05 137.45,-122.99 124.22,-121.1"/>
<polygon fill="midnightblue" stroke="midnightblue" points="165.57,-130.55 175.97,-128.5 166.56,-123.62 165.57,-130.55"/>
</g>
<!-- Node6 -->
<g id="node6" class="node">
<title>Node6</title>
<g id="a_node6"><a xlink:href="classhttplib_1_1Server.html#a4b23a94ce77ac1ede2c5b67a6b369064" target="_top" xlink:title=" ">
<polygon fill="white" stroke="black" points="16.5,-49.5 16.5,-79.5 123.5,-79.5 123.5,-49.5 16.5,-49.5"/>
<text text-anchor="start" x="24.5" y="-67.5" font-family="Helvetica,sans-Serif" font-size="10.00">httplib::Server::set</text>
<text text-anchor="middle" x="70" y="-56.5" font-family="Helvetica,sans-Serif" font-size="10.00">_write_timeout</text>
</a>
</g>
</g>
<!-- Node1&#45;&gt;Node6 -->
<g id="edge5" class="edge">
<title>Node1&#45;&gt;Node6</title>
<path fill="none" stroke="midnightblue" d="M200.79,-117.82C182.58,-108.75 160.38,-98.1 140,-89.5 131.9,-86.08 123.16,-82.69 114.7,-79.56"/>
<polygon fill="midnightblue" stroke="midnightblue" points="199.4,-121.05 209.91,-122.41 202.55,-114.79 199.4,-121.05"/>
</g>
<!-- Node7 -->
<g id="node7" class="node">
<title>Node7</title>
<g id="a_node7"><a xlink:href="classhttplib_1_1ClientImpl.html#a5eacdbf79b7503593035a1490a48d389" target="_top" xlink:title=" ">
<polygon fill="white" stroke="black" points="14.5,-0.5 14.5,-30.5 125.5,-30.5 125.5,-0.5 14.5,-0.5"/>
<text text-anchor="start" x="22.5" y="-18.5" font-family="Helvetica,sans-Serif" font-size="10.00">httplib::ClientImpl</text>
<text text-anchor="middle" x="70" y="-7.5" font-family="Helvetica,sans-Serif" font-size="10.00">::set_write_timeout</text>
</a>
</g>
</g>
<!-- Node1&#45;&gt;Node7 -->
<g id="edge6" class="edge">
<title>Node1&#45;&gt;Node7</title>
<path fill="none" stroke="midnightblue" d="M220.68,-114.57C202.29,-92.88 172.15,-60.72 140,-40.5 134.07,-36.77 127.5,-33.49 120.84,-30.63"/>
<polygon fill="midnightblue" stroke="midnightblue" points="218.04,-116.87 227.13,-122.32 223.42,-112.4 218.04,-116.87"/>
</g>
</g>
</svg>
