<?xml version="1.0" encoding="UTF-8" standalone="no"?>
<!DOCTYPE svg PUBLIC "-//W3C//DTD SVG 1.1//EN"
 "http://www.w3.org/Graphics/SVG/1.1/DTD/svg11.dtd">
<!-- Generated by graphviz version 2.43.0 (0)
 -->
<!-- Title: fuzzer::Hash Pages: 1 -->
<svg width="244pt" height="66pt"
 viewBox="0.00 0.00 244.00 66.00" xmlns="http://www.w3.org/2000/svg" xmlns:xlink="http://www.w3.org/1999/xlink">
<g id="graph0" class="graph" transform="scale(1 1) rotate(0) translate(4 62)">
<title>fuzzer::Hash</title>
<polygon fill="white" stroke="transparent" points="-4,4 -4,-62 240,-62 240,4 -4,4"/>
<!-- Node1 -->
<g id="node1" class="node">
<title>Node1</title>
<g id="a_node1"><a xlink:title=" ">
<polygon fill="#bfbfbf" stroke="black" points="0,-19.5 0,-38.5 77,-38.5 77,-19.5 0,-19.5"/>
<text text-anchor="middle" x="38.5" y="-26.5" font-family="Helvetica,sans-Serif" font-size="10.00">fuzzer::Hash</text>
</a>
</g>
</g>
<!-- Node2 -->
<g id="node2" class="node">
<title>Node2</title>
<g id="a_node2"><a xlink:href="namespacefuzzer.html#a315b24f5436223321f5dd87f04ad90fc" target="_top" xlink:title=" ">
<polygon fill="white" stroke="black" points="113,-38.5 113,-57.5 236,-57.5 236,-38.5 113,-38.5"/>
<text text-anchor="middle" x="174.5" y="-45.5" font-family="Helvetica,sans-Serif" font-size="10.00">fuzzer::ComputeSHA1</text>
</a>
</g>
</g>
<!-- Node1&#45;&gt;Node2 -->
<g id="edge1" class="edge">
<title>Node1&#45;&gt;Node2</title>
<path fill="none" stroke="midnightblue" d="M77.18,-34.34C85.23,-35.48 93.97,-36.72 102.8,-37.98"/>
<polygon fill="midnightblue" stroke="midnightblue" points="102.38,-41.45 112.78,-39.39 103.37,-34.52 102.38,-41.45"/>
</g>
<!-- Node3 -->
<g id="node3" class="node">
<title>Node3</title>
<g id="a_node3"><a xlink:href="namespacefuzzer.html#af169a5e81c6e590e4240ccfbb84b8b6a" target="_top" xlink:title=" ">
<polygon fill="white" stroke="black" points="116.5,-0.5 116.5,-19.5 232.5,-19.5 232.5,-0.5 116.5,-0.5"/>
<text text-anchor="middle" x="174.5" y="-7.5" font-family="Helvetica,sans-Serif" font-size="10.00">fuzzer::Sha1ToString</text>
</a>
</g>
</g>
<!-- Node1&#45;&gt;Node3 -->
<g id="edge2" class="edge">
<title>Node1&#45;&gt;Node3</title>
<path fill="none" stroke="midnightblue" d="M77.18,-23.66C86.3,-22.36 96.31,-20.94 106.34,-19.52"/>
<polygon fill="midnightblue" stroke="midnightblue" points="106.92,-22.98 116.33,-18.11 105.93,-16.05 106.92,-22.98"/>
</g>
</g>
</svg>
