<?xml version="1.0" encoding="UTF-8" standalone="no"?>
<!DOCTYPE svg PUBLIC "-//W3C//DTD SVG 1.1//EN"
 "http://www.w3.org/Graphics/SVG/1.1/DTD/svg11.dtd">
<!-- Generated by graphviz version 2.43.0 (0)
 -->
<!-- Title: httplib::detail::close_socket Pages: 1 -->
<!--zoomable 596 -->
<svg id="main" version="1.1" xmlns="http://www.w3.org/2000/svg" xmlns:xlink="http://www.w3.org/1999/xlink" xml:space="preserve" onload="init(evt)">
<style type="text/css"><![CDATA[
.edge:hover path { stroke: red; }
.edge:hover polygon { stroke: red; fill: red; }
]]></style>
<script type="text/javascript"><![CDATA[
var edges = document.getElementsByTagName('g');
if (edges && edges.length) {
  for (var i=0;i<edges.length;i++) {
    if (edges[i].id.substr(0,4)=='edge') {
      edges[i].setAttribute('class','edge');
    }
  }
}
]]></script>
        <defs>
                <circle id="rim" cx="0" cy="0" r="7"/>
                <circle id="rim2" cx="0" cy="0" r="3.5"/>
                <g id="zoomPlus">
                        <use xlink:href="#rim" fill="#404040">
                                <set attributeName="fill" to="#808080" begin="zoomplus.mouseover" end="zoomplus.mouseout"/>
                        </use>
                        <path d="M-4,0h8M0,-4v8" fill="none" stroke="white" stroke-width="1.5" pointer-events="none"/>
                </g>
                <g id="zoomMin">
                        <use xlink:href="#rim" fill="#404040">
                                <set attributeName="fill" to="#808080" begin="zoomminus.mouseover" end="zoomminus.mouseout"/>
                        </use>
                        <path d="M-4,0h8" fill="none" stroke="white" stroke-width="1.5" pointer-events="none"/>
                </g>
                <g id="dirArrow">
                        <path fill="none" stroke="white" stroke-width="1.5" d="M0,-3.0v7 M-2.5,-0.5L0,-3.0L2.5,-0.5"/>
                </g>
               <g id="resetDef">
                       <use xlink:href="#rim2" fill="#404040">
                               <set attributeName="fill" to="#808080" begin="reset.mouseover" end="reset.mouseout"/>
                       </use>
               </g>
        </defs>

<script type="text/javascript">
var viewWidth = 1452;
var viewHeight = 596;
var sectionId = 'dynsection-4';
</script>
<script xlink:href="svgpan.js"/>
<svg id="graph" class="graph">
<g id="viewport">
<title>httplib::detail::close_socket</title>
<polygon fill="white" stroke="transparent" points="-4,4 -4,-591.5 1448,-591.5 1448,4 -4,4"/>
<!-- Node1 -->
<g id="node1" class="node">
<title>Node1</title>
<g id="a_node1"><a xlink:title=" ">
<polygon fill="#bfbfbf" stroke="black" points="1331,-88 1331,-118 1444,-118 1444,-88 1331,-88"/>
<text text-anchor="start" x="1339" y="-106" font-family="Helvetica,sans-Serif" font-size="10.00">httplib::detail::close</text>
<text text-anchor="middle" x="1387.5" y="-95" font-family="Helvetica,sans-Serif" font-size="10.00">_socket</text>
</a>
</g>
</g>
<!-- Node2 -->
<g id="node2" class="node">
<title>Node2</title>
<g id="a_node2"><a xlink:href="classhttplib_1_1ClientImpl.html#a30ceda93ba451534d2bcd06d1952881b" target="_top" xlink:title=" ">
<polygon fill="white" stroke="black" points="859,-373 859,-403 963,-403 963,-373 859,-373"/>
<text text-anchor="start" x="867" y="-391" font-family="Helvetica,sans-Serif" font-size="10.00">httplib::ClientImpl</text>
<text text-anchor="middle" x="911" y="-380" font-family="Helvetica,sans-Serif" font-size="10.00">::close_socket</text>
</a>
</g>
</g>
<!-- Node1&#45;&gt;Node2 -->
<g id="edge1" class="edge">
<title>Node1&#45;&gt;Node2</title>
<path fill="none" stroke="midnightblue" d="M1365.18,-125.56C1347.4,-143.66 1320.89,-169.09 1295,-188 1178.4,-273.18 1020.59,-343.34 949.48,-372.91"/>
<polygon fill="midnightblue" stroke="midnightblue" points="1367.78,-127.9 1372.23,-118.29 1362.76,-123.03 1367.78,-127.9"/>
</g>
<!-- Node18 -->
<g id="node18" class="node">
<title>Node18</title>
<g id="a_node18"><a xlink:href="namespacehttplib_1_1detail.html#ae07e72bdc26c6ad27d8e3051bfe4d912" target="_top" xlink:title=" ">
<polygon fill="white" stroke="black" points="1171,-148 1171,-178 1290,-178 1290,-148 1171,-148"/>
<text text-anchor="start" x="1179" y="-166" font-family="Helvetica,sans-Serif" font-size="10.00">httplib::detail::create</text>
<text text-anchor="middle" x="1230.5" y="-155" font-family="Helvetica,sans-Serif" font-size="10.00">_socket</text>
</a>
</g>
</g>
<!-- Node1&#45;&gt;Node18 -->
<g id="edge19" class="edge">
<title>Node1&#45;&gt;Node18</title>
<path fill="none" stroke="midnightblue" d="M1337.98,-121.78C1316.19,-130.22 1290.83,-140.03 1270.33,-147.97"/>
<polygon fill="midnightblue" stroke="midnightblue" points="1339.32,-125.01 1347.39,-118.14 1336.8,-118.49 1339.32,-125.01"/>
</g>
<!-- Node28 -->
<g id="node28" class="node">
<title>Node28</title>
<g id="a_node28"><a xlink:href="classhttplib_1_1Server.html#a294f20bcfc35d82236ab92b76c16d862" target="_top" xlink:title=" ">
<polygon fill="white" stroke="black" points="1171,-88 1171,-118 1290,-118 1290,-88 1171,-88"/>
<text text-anchor="start" x="1179" y="-106" font-family="Helvetica,sans-Serif" font-size="10.00">httplib::Server::listen</text>
<text text-anchor="middle" x="1230.5" y="-95" font-family="Helvetica,sans-Serif" font-size="10.00">_internal</text>
</a>
</g>
</g>
<!-- Node1&#45;&gt;Node28 -->
<g id="edge31" class="edge">
<title>Node1&#45;&gt;Node28</title>
<path fill="none" stroke="midnightblue" d="M1320.86,-103C1310.62,-103 1300.1,-103 1290.04,-103"/>
<polygon fill="midnightblue" stroke="midnightblue" points="1320.98,-106.5 1330.98,-103 1320.98,-99.5 1320.98,-106.5"/>
</g>
<!-- Node30 -->
<g id="node30" class="node">
<title>Node30</title>
<g id="a_node30"><a xlink:href="classhttplib_1_1Server.html#a28221db99b5a35e45515553fdb9458a0" target="_top" xlink:title=" ">
<polygon fill="white" stroke="black" points="1166,-39 1166,-69 1295,-69 1295,-39 1166,-39"/>
<text text-anchor="start" x="1174" y="-57" font-family="Helvetica,sans-Serif" font-size="10.00">httplib::Server::process</text>
<text text-anchor="middle" x="1230.5" y="-46" font-family="Helvetica,sans-Serif" font-size="10.00">_and_close_socket</text>
</a>
</g>
</g>
<!-- Node1&#45;&gt;Node30 -->
<g id="edge34" class="edge">
<title>Node1&#45;&gt;Node30</title>
<path fill="none" stroke="midnightblue" d="M1328.74,-84.74C1312.39,-79.57 1294.79,-74.01 1279.11,-69.05"/>
<polygon fill="midnightblue" stroke="midnightblue" points="1328.14,-88.22 1338.73,-87.9 1330.25,-81.55 1328.14,-88.22"/>
</g>
<!-- Node31 -->
<g id="node31" class="node">
<title>Node31</title>
<g id="a_node31"><a xlink:href="classhttplib_1_1Server.html#a0f2a6a638ad99012886c87c9786a43b3" target="_top" xlink:title=" ">
<polygon fill="white" stroke="black" points="1174,-0.5 1174,-19.5 1287,-19.5 1287,-0.5 1174,-0.5"/>
<text text-anchor="middle" x="1230.5" y="-7.5" font-family="Helvetica,sans-Serif" font-size="10.00">httplib::Server::stop</text>
</a>
</g>
</g>
<!-- Node1&#45;&gt;Node31 -->
<g id="edge35" class="edge">
<title>Node1&#45;&gt;Node31</title>
<path fill="none" stroke="midnightblue" d="M1364.21,-80.77C1346.7,-64.41 1321.01,-42.72 1295,-29 1287.88,-25.24 1279.9,-22.12 1272.07,-19.56"/>
<polygon fill="midnightblue" stroke="midnightblue" points="1361.99,-83.49 1371.65,-87.86 1366.82,-78.43 1361.99,-83.49"/>
</g>
<!-- Node3 -->
<g id="node3" class="node">
<title>Node3</title>
<g id="a_node3"><a xlink:href="classhttplib_1_1ClientImpl.html#ac4e30af906067369892520eccd85c038" target="_top" xlink:title=" ">
<polygon fill="white" stroke="black" points="702,-422 702,-452 806,-452 806,-422 702,-422"/>
<text text-anchor="start" x="710" y="-440" font-family="Helvetica,sans-Serif" font-size="10.00">httplib::ClientImpl</text>
<text text-anchor="middle" x="754" y="-429" font-family="Helvetica,sans-Serif" font-size="10.00">::handle_request</text>
</a>
</g>
</g>
<!-- Node2&#45;&gt;Node3 -->
<g id="edge2" class="edge">
<title>Node2&#45;&gt;Node3</title>
<path fill="none" stroke="midnightblue" d="M852.24,-406.26C835.89,-411.43 818.29,-416.99 802.61,-421.95"/>
<polygon fill="midnightblue" stroke="midnightblue" points="853.75,-409.45 862.23,-403.1 851.64,-402.78 853.75,-409.45"/>
</g>
<!-- Node4 -->
<g id="node4" class="node">
<title>Node4</title>
<g id="a_node4"><a xlink:href="classhttplib_1_1ClientImpl.html#ab783868da89488b0bf734e8d83b5e569" target="_top" xlink:title=" ">
<polygon fill="white" stroke="black" points="546.5,-444 546.5,-474 650.5,-474 650.5,-444 546.5,-444"/>
<text text-anchor="start" x="554.5" y="-462" font-family="Helvetica,sans-Serif" font-size="10.00">httplib::ClientImpl</text>
<text text-anchor="middle" x="598.5" y="-451" font-family="Helvetica,sans-Serif" font-size="10.00">::send_</text>
</a>
</g>
</g>
<!-- Node2&#45;&gt;Node4 -->
<g id="edge16" class="edge">
<title>Node2&#45;&gt;Node4</title>
<path fill="none" stroke="midnightblue" d="M889.49,-410.45C871.56,-428.28 843.8,-451.85 814,-462 760.59,-480.2 695.27,-475.8 650.85,-469.19"/>
<polygon fill="midnightblue" stroke="midnightblue" points="892.07,-412.82 896.54,-403.22 887.06,-407.93 892.07,-412.82"/>
</g>
<!-- Node16 -->
<g id="node16" class="node">
<title>Node16</title>
<g id="a_node16"><a xlink:href="classhttplib_1_1ClientImpl.html#a4612a28562001509a2bf104eae2857fd" target="_top" xlink:title=" ">
<polygon fill="white" stroke="black" points="702,-373 702,-403 806,-403 806,-373 702,-373"/>
<text text-anchor="start" x="710" y="-391" font-family="Helvetica,sans-Serif" font-size="10.00">httplib::ClientImpl</text>
<text text-anchor="middle" x="754" y="-380" font-family="Helvetica,sans-Serif" font-size="10.00">::stop</text>
</a>
</g>
</g>
<!-- Node2&#45;&gt;Node16 -->
<g id="edge17" class="edge">
<title>Node2&#45;&gt;Node16</title>
<path fill="none" stroke="midnightblue" d="M848.71,-388C834.6,-388 819.75,-388 806.13,-388"/>
<polygon fill="midnightblue" stroke="midnightblue" points="848.82,-391.5 858.82,-388 848.82,-384.5 848.82,-391.5"/>
</g>
<!-- Node17 -->
<g id="node17" class="node">
<title>Node17</title>
<g id="a_node17"><a xlink:href="classhttplib_1_1ClientImpl.html#af3d1ebe06d02371b26236809119ef819" target="_top" xlink:title=" ">
<polygon fill="white" stroke="black" points="702,-324 702,-354 806,-354 806,-324 702,-324"/>
<text text-anchor="start" x="710" y="-342" font-family="Helvetica,sans-Serif" font-size="10.00">httplib::ClientImpl</text>
<text text-anchor="middle" x="754" y="-331" font-family="Helvetica,sans-Serif" font-size="10.00">::~ClientImpl</text>
</a>
</g>
</g>
<!-- Node2&#45;&gt;Node17 -->
<g id="edge18" class="edge">
<title>Node2&#45;&gt;Node17</title>
<path fill="none" stroke="midnightblue" d="M852.24,-369.74C835.89,-364.57 818.29,-359.01 802.61,-354.05"/>
<polygon fill="midnightblue" stroke="midnightblue" points="851.64,-373.22 862.23,-372.9 853.75,-366.55 851.64,-373.22"/>
</g>
<!-- Node3&#45;&gt;Node4 -->
<g id="edge3" class="edge">
<title>Node3&#45;&gt;Node4</title>
<path fill="none" stroke="midnightblue" d="M691.65,-445.79C678.06,-447.74 663.79,-449.79 650.65,-451.67"/>
<polygon fill="midnightblue" stroke="midnightblue" points="692.48,-449.21 701.89,-444.33 691.49,-442.28 692.48,-449.21"/>
</g>
<!-- Node5 -->
<g id="node5" class="node">
<title>Node5</title>
<g id="a_node5"><a xlink:href="classhttplib_1_1ClientImpl.html#a5973f9c3afa13416417fd7a317eb811b" target="_top" xlink:title=" ">
<polygon fill="white" stroke="black" points="355.5,-557 355.5,-587 459.5,-587 459.5,-557 355.5,-557"/>
<text text-anchor="start" x="363.5" y="-575" font-family="Helvetica,sans-Serif" font-size="10.00">httplib::ClientImpl</text>
<text text-anchor="middle" x="407.5" y="-564" font-family="Helvetica,sans-Serif" font-size="10.00">::Delete</text>
</a>
</g>
</g>
<!-- Node4&#45;&gt;Node5 -->
<g id="edge4" class="edge">
<title>Node4&#45;&gt;Node5</title>
<path fill="none" stroke="midnightblue" d="M578.78,-481.91C561.22,-501.93 533.19,-530.34 503,-547 489.78,-554.3 474.32,-559.54 459.79,-563.28"/>
<polygon fill="midnightblue" stroke="midnightblue" points="581.57,-484.03 585.42,-474.16 576.26,-479.48 581.57,-484.03"/>
</g>
<!-- Node6 -->
<g id="node6" class="node">
<title>Node6</title>
<g id="a_node6"><a xlink:href="classhttplib_1_1ClientImpl.html#ad073f1945ddc13fc4778449739430889" target="_top" xlink:title=" ">
<polygon fill="white" stroke="black" points="343.5,-518.5 343.5,-537.5 471.5,-537.5 471.5,-518.5 343.5,-518.5"/>
<text text-anchor="middle" x="407.5" y="-525.5" font-family="Helvetica,sans-Serif" font-size="10.00">httplib::ClientImpl::Get</text>
</a>
</g>
</g>
<!-- Node4&#45;&gt;Node6 -->
<g id="edge5" class="edge">
<title>Node4&#45;&gt;Node6</title>
<path fill="none" stroke="midnightblue" d="M564.73,-479.35C547.02,-489.56 524.44,-501.36 503,-509 492.28,-512.82 480.59,-515.95 469.2,-518.49"/>
<polygon fill="midnightblue" stroke="midnightblue" points="566.67,-482.27 573.52,-474.18 563.13,-476.23 566.67,-482.27"/>
</g>
<!-- Node7 -->
<g id="node7" class="node">
<title>Node7</title>
<g id="a_node7"><a xlink:href="classhttplib_1_1ClientImpl.html#adf64c589c0334ccd516905484140e0d1" target="_top" xlink:title=" ">
<polygon fill="white" stroke="black" points="355.5,-469 355.5,-499 459.5,-499 459.5,-469 355.5,-469"/>
<text text-anchor="start" x="363.5" y="-487" font-family="Helvetica,sans-Serif" font-size="10.00">httplib::ClientImpl</text>
<text text-anchor="middle" x="407.5" y="-476" font-family="Helvetica,sans-Serif" font-size="10.00">::Head</text>
</a>
</g>
</g>
<!-- Node4&#45;&gt;Node7 -->
<g id="edge6" class="edge">
<title>Node4&#45;&gt;Node7</title>
<path fill="none" stroke="midnightblue" d="M536.34,-467.09C511.59,-470.36 483.33,-474.1 459.69,-477.23"/>
<polygon fill="midnightblue" stroke="midnightblue" points="536.9,-470.55 546.35,-465.77 535.98,-463.61 536.9,-470.55"/>
</g>
<!-- Node8 -->
<g id="node8" class="node">
<title>Node8</title>
<g id="a_node8"><a xlink:href="classhttplib_1_1ClientImpl.html#a0de10ef5e77b7c6cc83674bd86bc2e8a" target="_top" xlink:title=" ">
<polygon fill="white" stroke="black" points="355.5,-420 355.5,-450 459.5,-450 459.5,-420 355.5,-420"/>
<text text-anchor="start" x="363.5" y="-438" font-family="Helvetica,sans-Serif" font-size="10.00">httplib::ClientImpl</text>
<text text-anchor="middle" x="407.5" y="-427" font-family="Helvetica,sans-Serif" font-size="10.00">::Options</text>
</a>
</g>
</g>
<!-- Node4&#45;&gt;Node8 -->
<g id="edge7" class="edge">
<title>Node4&#45;&gt;Node8</title>
<path fill="none" stroke="midnightblue" d="M536.34,-451.23C511.59,-448.09 483.33,-444.5 459.69,-441.5"/>
<polygon fill="midnightblue" stroke="midnightblue" points="535.99,-454.72 546.35,-452.51 536.87,-447.77 535.99,-454.72"/>
</g>
<!-- Node9 -->
<g id="node9" class="node">
<title>Node9</title>
<g id="a_node9"><a xlink:href="classhttplib_1_1ClientImpl.html#a618895e4b137663691fdc41fd998b843" target="_top" xlink:title=" ">
<polygon fill="white" stroke="black" points="355.5,-371 355.5,-401 459.5,-401 459.5,-371 355.5,-371"/>
<text text-anchor="start" x="363.5" y="-389" font-family="Helvetica,sans-Serif" font-size="10.00">httplib::ClientImpl</text>
<text text-anchor="middle" x="407.5" y="-378" font-family="Helvetica,sans-Serif" font-size="10.00">::send</text>
</a>
</g>
</g>
<!-- Node4&#45;&gt;Node9 -->
<g id="edge8" class="edge">
<title>Node4&#45;&gt;Node9</title>
<path fill="none" stroke="midnightblue" d="M562.09,-438.77C544.69,-429.41 523.17,-418.69 503,-411 489.2,-405.74 473.87,-401.17 459.64,-397.42"/>
<polygon fill="midnightblue" stroke="midnightblue" points="560.85,-442.07 571.3,-443.8 564.2,-435.93 560.85,-442.07"/>
</g>
<!-- Node9&#45;&gt;Node3 -->
<g id="edge9" class="edge">
<title>Node9&#45;&gt;Node3</title>
<path fill="none" stroke="midnightblue" d="M469.97,-395.1C536.07,-404.89 639.97,-420.27 701.8,-429.42"/>
<polygon fill="midnightblue" stroke="midnightblue" points="470.11,-391.58 459.7,-393.58 469.08,-398.51 470.11,-391.58"/>
</g>
<!-- Node10 -->
<g id="node10" class="node">
<title>Node10</title>
<g id="a_node10"><a xlink:href="classhttplib_1_1ClientImpl.html#ab81f0f3ff5031d8bb231928318cd95ff" target="_top" xlink:title=" ">
<polygon fill="white" stroke="black" points="167,-398 167,-428 271,-428 271,-398 167,-398"/>
<text text-anchor="start" x="175" y="-416" font-family="Helvetica,sans-Serif" font-size="10.00">httplib::ClientImpl</text>
<text text-anchor="middle" x="219" y="-405" font-family="Helvetica,sans-Serif" font-size="10.00">::send_</text>
</a>
</g>
</g>
<!-- Node9&#45;&gt;Node10 -->
<g id="edge10" class="edge">
<title>Node9&#45;&gt;Node10</title>
<path fill="none" stroke="midnightblue" d="M345.02,-394.9C321.14,-398.36 294.1,-402.27 271.29,-405.57"/>
<polygon fill="midnightblue" stroke="midnightblue" points="345.65,-398.35 355.04,-393.45 344.65,-391.42 345.65,-398.35"/>
</g>
<!-- Node11 -->
<g id="node11" class="node">
<title>Node11</title>
<g id="a_node11"><a xlink:href="classhttplib_1_1ClientImpl.html#ab3169b93b50fca58a21f2db0a2bdea88" target="_top" xlink:title=" ">
<polygon fill="white" stroke="black" points="162,-337.5 162,-378.5 276,-378.5 276,-337.5 162,-337.5"/>
<text text-anchor="start" x="170" y="-366.5" font-family="Helvetica,sans-Serif" font-size="10.00">httplib::ClientImpl</text>
<text text-anchor="start" x="170" y="-355.5" font-family="Helvetica,sans-Serif" font-size="10.00">::send_with_content</text>
<text text-anchor="middle" x="219" y="-344.5" font-family="Helvetica,sans-Serif" font-size="10.00">_provider</text>
</a>
</g>
</g>
<!-- Node9&#45;&gt;Node11 -->
<g id="edge11" class="edge">
<title>Node9&#45;&gt;Node11</title>
<path fill="none" stroke="midnightblue" d="M345.06,-376.78C322.86,-373.44 297.92,-369.7 276.2,-366.44"/>
<polygon fill="midnightblue" stroke="midnightblue" points="344.64,-380.25 355.04,-378.27 345.67,-373.33 344.64,-380.25"/>
</g>
<!-- Node12 -->
<g id="node12" class="node">
<title>Node12</title>
<g id="a_node12"><a xlink:href="classhttplib_1_1ClientImpl.html#ad454e536598fa610080587d8516b5c80" target="_top" xlink:title=" ">
<polygon fill="white" stroke="black" points="11,-414 11,-444 115,-444 115,-414 11,-414"/>
<text text-anchor="start" x="19" y="-432" font-family="Helvetica,sans-Serif" font-size="10.00">httplib::ClientImpl</text>
<text text-anchor="middle" x="63" y="-421" font-family="Helvetica,sans-Serif" font-size="10.00">::Patch</text>
</a>
</g>
</g>
<!-- Node11&#45;&gt;Node12 -->
<g id="edge12" class="edge">
<title>Node11&#45;&gt;Node12</title>
<path fill="none" stroke="midnightblue" d="M170.81,-383.28C156.56,-390.6 140.77,-398.39 126,-405 119.15,-408.06 111.78,-411.12 104.6,-413.97"/>
<polygon fill="midnightblue" stroke="midnightblue" points="172.66,-386.27 179.93,-378.56 169.44,-380.05 172.66,-386.27"/>
</g>
<!-- Node13 -->
<g id="node13" class="node">
<title>Node13</title>
<g id="a_node13"><a xlink:href="classhttplib_1_1ClientImpl.html#a31fe4e8466d44dc45e28d3e68db05e01" target="_top" xlink:title=" ">
<polygon fill="white" stroke="black" points="11,-365 11,-395 115,-395 115,-365 11,-365"/>
<text text-anchor="start" x="19" y="-383" font-family="Helvetica,sans-Serif" font-size="10.00">httplib::ClientImpl</text>
<text text-anchor="middle" x="63" y="-372" font-family="Helvetica,sans-Serif" font-size="10.00">::Post</text>
</a>
</g>
</g>
<!-- Node11&#45;&gt;Node13 -->
<g id="edge13" class="edge">
<title>Node11&#45;&gt;Node13</title>
<path fill="none" stroke="midnightblue" d="M151.78,-367.46C139.51,-369.21 126.87,-371.02 115.13,-372.7"/>
<polygon fill="midnightblue" stroke="midnightblue" points="152.56,-370.88 161.97,-366 151.57,-363.95 152.56,-370.88"/>
</g>
<!-- Node14 -->
<g id="node14" class="node">
<title>Node14</title>
<g id="a_node14"><a xlink:href="classhttplib_1_1ClientImpl.html#a048987c16a2f45382c1bb0d2102e4873" target="_top" xlink:title=" ">
<polygon fill="white" stroke="black" points="0,-326.5 0,-345.5 126,-345.5 126,-326.5 0,-326.5"/>
<text text-anchor="middle" x="63" y="-333.5" font-family="Helvetica,sans-Serif" font-size="10.00">httplib::ClientImpl::Put</text>
</a>
</g>
</g>
<!-- Node11&#45;&gt;Node14 -->
<g id="edge14" class="edge">
<title>Node11&#45;&gt;Node14</title>
<path fill="none" stroke="midnightblue" d="M152.03,-348.58C143.48,-347.35 134.73,-346.1 126.24,-344.89"/>
<polygon fill="midnightblue" stroke="midnightblue" points="151.57,-352.05 161.97,-350 152.56,-345.12 151.57,-352.05"/>
</g>
<!-- Node15 -->
<g id="node15" class="node">
<title>Node15</title>
<g id="a_node15"><a xlink:href="classhttplib_1_1ClientImpl.html#ac9d400990790ff3aa7f3639392181ddb" target="_top" xlink:title=" ">
<polygon fill="white" stroke="black" points="6,-266.5 6,-307.5 120,-307.5 120,-266.5 6,-266.5"/>
<text text-anchor="start" x="14" y="-295.5" font-family="Helvetica,sans-Serif" font-size="10.00">httplib::ClientImpl</text>
<text text-anchor="start" x="14" y="-284.5" font-family="Helvetica,sans-Serif" font-size="10.00">::send_with_content</text>
<text text-anchor="middle" x="63" y="-273.5" font-family="Helvetica,sans-Serif" font-size="10.00">_provider</text>
</a>
</g>
</g>
<!-- Node11&#45;&gt;Node15 -->
<g id="edge15" class="edge">
<title>Node11&#45;&gt;Node15</title>
<path fill="none" stroke="midnightblue" d="M164.18,-333.19C146.06,-324.83 126.05,-315.61 108.71,-307.61"/>
<polygon fill="midnightblue" stroke="midnightblue" points="162.91,-336.46 173.46,-337.46 165.84,-330.1 162.91,-336.46"/>
</g>
<!-- Node19 -->
<g id="node19" class="node">
<title>Node19</title>
<g id="a_node19"><a xlink:href="namespacehttplib_1_1detail.html#a96e1369eb97f8b8daeb8590efe81db15" target="_top" xlink:title=" ">
<polygon fill="white" stroke="black" points="1009.5,-241 1009.5,-271 1128.5,-271 1128.5,-241 1009.5,-241"/>
<text text-anchor="start" x="1017.5" y="-259" font-family="Helvetica,sans-Serif" font-size="10.00">httplib::detail::create</text>
<text text-anchor="middle" x="1069" y="-248" font-family="Helvetica,sans-Serif" font-size="10.00">_client_socket</text>
</a>
</g>
</g>
<!-- Node18&#45;&gt;Node19 -->
<g id="edge20" class="edge">
<title>Node18&#45;&gt;Node19</title>
<path fill="none" stroke="midnightblue" d="M1194.72,-183.28C1164.98,-200.62 1122.85,-225.19 1095.97,-240.86"/>
<polygon fill="midnightblue" stroke="midnightblue" points="1196.64,-186.21 1203.52,-178.15 1193.12,-180.16 1196.64,-186.21"/>
</g>
<!-- Node22 -->
<g id="node22" class="node">
<title>Node22</title>
<g id="a_node22"><a xlink:href="classhttplib_1_1Server.html#a95489183f727c825e8a9ff041d31c35a" target="_top" xlink:title=" ">
<polygon fill="white" stroke="black" points="1008,-148 1008,-178 1130,-178 1130,-148 1008,-148"/>
<text text-anchor="start" x="1016" y="-166" font-family="Helvetica,sans-Serif" font-size="10.00">httplib::Server::create</text>
<text text-anchor="middle" x="1069" y="-155" font-family="Helvetica,sans-Serif" font-size="10.00">_server_socket</text>
</a>
</g>
</g>
<!-- Node18&#45;&gt;Node22 -->
<g id="edge24" class="edge">
<title>Node18&#45;&gt;Node22</title>
<path fill="none" stroke="midnightblue" d="M1160.52,-163C1150.37,-163 1139.98,-163 1130.03,-163"/>
<polygon fill="midnightblue" stroke="midnightblue" points="1160.56,-166.5 1170.56,-163 1160.56,-159.5 1160.56,-166.5"/>
</g>
<!-- Node20 -->
<g id="node20" class="node">
<title>Node20</title>
<g id="a_node20"><a xlink:href="classhttplib_1_1ClientImpl.html#a2235b51fb0ca763c902fe8b7a8669f67" target="_top" xlink:title=" ">
<polygon fill="white" stroke="black" points="850,-247 850,-277 972,-277 972,-247 850,-247"/>
<text text-anchor="start" x="858" y="-265" font-family="Helvetica,sans-Serif" font-size="10.00">httplib::ClientImpl</text>
<text text-anchor="middle" x="911" y="-254" font-family="Helvetica,sans-Serif" font-size="10.00">::create_client_socket</text>
</a>
</g>
</g>
<!-- Node19&#45;&gt;Node20 -->
<g id="edge21" class="edge">
<title>Node19&#45;&gt;Node20</title>
<path fill="none" stroke="midnightblue" d="M999.34,-258.64C990.29,-258.99 981.06,-259.34 972.16,-259.69"/>
<polygon fill="midnightblue" stroke="midnightblue" points="999.61,-262.13 1009.47,-258.25 999.34,-255.14 999.61,-262.13"/>
</g>
<!-- Node21 -->
<g id="node21" class="node">
<title>Node21</title>
<g id="a_node21"><a xlink:href="classhttplib_1_1ClientImpl.html#af913333c2fa8a53332f96574e113dc8f" target="_top" xlink:title=" ">
<polygon fill="white" stroke="black" points="694,-263.5 694,-304.5 814,-304.5 814,-263.5 694,-263.5"/>
<text text-anchor="start" x="702" y="-292.5" font-family="Helvetica,sans-Serif" font-size="10.00">httplib::ClientImpl</text>
<text text-anchor="start" x="702" y="-281.5" font-family="Helvetica,sans-Serif" font-size="10.00">::create_and_connect</text>
<text text-anchor="middle" x="754" y="-270.5" font-family="Helvetica,sans-Serif" font-size="10.00">_socket</text>
</a>
</g>
</g>
<!-- Node20&#45;&gt;Node21 -->
<g id="edge22" class="edge">
<title>Node20&#45;&gt;Node21</title>
<path fill="none" stroke="midnightblue" d="M839.7,-271.98C831.17,-273.19 822.53,-274.42 814.19,-275.6"/>
<polygon fill="midnightblue" stroke="midnightblue" points="840.22,-275.44 849.63,-270.57 839.24,-268.51 840.22,-275.44"/>
</g>
<!-- Node21&#45;&gt;Node4 -->
<g id="edge23" class="edge">
<title>Node21&#45;&gt;Node4</title>
<path fill="none" stroke="midnightblue" d="M699.37,-310.52C697.5,-311.96 695.71,-313.45 694,-315 651.48,-353.58 619.59,-415.29 606.29,-443.73"/>
<polygon fill="midnightblue" stroke="midnightblue" points="701.7,-313.15 707.89,-304.55 697.69,-307.42 701.7,-313.15"/>
</g>
<!-- Node23 -->
<g id="node23" class="node">
<title>Node23</title>
<g id="a_node23"><a xlink:href="classhttplib_1_1Server.html#a238aa1a28613b9639977816292427208" target="_top" xlink:title=" ">
<polygon fill="white" stroke="black" points="854.5,-165 854.5,-195 967.5,-195 967.5,-165 854.5,-165"/>
<text text-anchor="start" x="862.5" y="-183" font-family="Helvetica,sans-Serif" font-size="10.00">httplib::Server::bind</text>
<text text-anchor="middle" x="911" y="-172" font-family="Helvetica,sans-Serif" font-size="10.00">_internal</text>
</a>
</g>
</g>
<!-- Node22&#45;&gt;Node23 -->
<g id="edge25" class="edge">
<title>Node22&#45;&gt;Node23</title>
<path fill="none" stroke="midnightblue" d="M997.68,-170.66C987.58,-171.76 977.31,-172.88 967.56,-173.95"/>
<polygon fill="midnightblue" stroke="midnightblue" points="998.12,-174.14 1007.69,-169.57 997.37,-167.18 998.12,-174.14"/>
</g>
<!-- Node24 -->
<g id="node24" class="node">
<title>Node24</title>
<g id="a_node24"><a xlink:href="classhttplib_1_1Server.html#a5535b14de270d9bc64deae069a55592a" target="_top" xlink:title=" ">
<polygon fill="white" stroke="black" points="697.5,-214 697.5,-244 810.5,-244 810.5,-214 697.5,-214"/>
<text text-anchor="start" x="705.5" y="-232" font-family="Helvetica,sans-Serif" font-size="10.00">httplib::Server::bind</text>
<text text-anchor="middle" x="754" y="-221" font-family="Helvetica,sans-Serif" font-size="10.00">_to_any_port</text>
</a>
</g>
</g>
<!-- Node23&#45;&gt;Node24 -->
<g id="edge26" class="edge">
<title>Node23&#45;&gt;Node24</title>
<path fill="none" stroke="midnightblue" d="M852.24,-198.26C835.89,-203.43 818.29,-208.99 802.61,-213.95"/>
<polygon fill="midnightblue" stroke="midnightblue" points="853.75,-201.45 862.23,-195.1 851.64,-194.78 853.75,-201.45"/>
</g>
<!-- Node25 -->
<g id="node25" class="node">
<title>Node25</title>
<g id="a_node25"><a xlink:href="classhttplib_1_1Server.html#a5bde755667689ba58fa80eedcc4fd2f3" target="_top" xlink:title=" ">
<polygon fill="white" stroke="black" points="697.5,-165 697.5,-195 810.5,-195 810.5,-165 697.5,-165"/>
<text text-anchor="start" x="705.5" y="-183" font-family="Helvetica,sans-Serif" font-size="10.00">httplib::Server::bind</text>
<text text-anchor="middle" x="754" y="-172" font-family="Helvetica,sans-Serif" font-size="10.00">_to_port</text>
</a>
</g>
</g>
<!-- Node23&#45;&gt;Node25 -->
<g id="edge27" class="edge">
<title>Node23&#45;&gt;Node25</title>
<path fill="none" stroke="midnightblue" d="M844.31,-180C833.11,-180 821.57,-180 810.65,-180"/>
<polygon fill="midnightblue" stroke="midnightblue" points="844.48,-183.5 854.48,-180 844.48,-176.5 844.48,-183.5"/>
</g>
<!-- Node26 -->
<g id="node26" class="node">
<title>Node26</title>
<g id="a_node26"><a xlink:href="classhttplib_1_1Server.html#a319d49f06dc5484b234bcc1f8e637fd3" target="_top" xlink:title=" ">
<polygon fill="white" stroke="black" points="539,-126.5 539,-145.5 658,-145.5 658,-126.5 539,-126.5"/>
<text text-anchor="middle" x="598.5" y="-133.5" font-family="Helvetica,sans-Serif" font-size="10.00">httplib::Server::listen</text>
</a>
</g>
</g>
<!-- Node25&#45;&gt;Node26 -->
<g id="edge28" class="edge">
<title>Node25&#45;&gt;Node26</title>
<path fill="none" stroke="midnightblue" d="M690.72,-162.15C670.94,-156.48 649.84,-150.43 632.92,-145.58"/>
<polygon fill="midnightblue" stroke="midnightblue" points="690.03,-165.59 700.6,-164.98 691.95,-158.86 690.03,-165.59"/>
</g>
<!-- Node26&#45;&gt;Node22 -->
<g id="edge29" class="edge">
<title>Node26&#45;&gt;Node22</title>
<path fill="none" stroke="midnightblue" d="M668.46,-139.31C743.24,-142.99 866.13,-149.3 972,-156 983.59,-156.73 995.96,-157.58 1007.84,-158.44"/>
<polygon fill="midnightblue" stroke="midnightblue" points="668.39,-135.8 658.23,-138.81 668.05,-142.79 668.39,-135.8"/>
</g>
<!-- Node27 -->
<g id="node27" class="node">
<title>Node27</title>
<g id="a_node27"><a xlink:href="classServerHandler.html#af3ecda4d745ef95296198e41ac3cf6e1" target="_top" xlink:title="start LFO server">
<polygon fill="white" stroke="black" points="312,-121 312,-151 503,-151 503,-121 312,-121"/>
<text text-anchor="start" x="320" y="-139" font-family="Helvetica,sans-Serif" font-size="10.00">ServerHandler::StartMcOrchestrator</text>
<text text-anchor="middle" x="407.5" y="-128" font-family="Helvetica,sans-Serif" font-size="10.00">Server</text>
</a>
</g>
</g>
<!-- Node26&#45;&gt;Node27 -->
<g id="edge30" class="edge">
<title>Node26&#45;&gt;Node27</title>
<path fill="none" stroke="midnightblue" d="M528.94,-136C520.56,-136 511.88,-136 503.2,-136"/>
<polygon fill="midnightblue" stroke="midnightblue" points="528.99,-139.5 538.99,-136 528.99,-132.5 528.99,-139.5"/>
</g>
<!-- Node28&#45;&gt;Node26 -->
<g id="edge32" class="edge">
<title>Node28&#45;&gt;Node26</title>
<path fill="none" stroke="midnightblue" d="M1160.61,-106.61C1035.97,-113.14 775.11,-126.8 658.28,-132.92"/>
<polygon fill="midnightblue" stroke="midnightblue" points="1160.99,-110.09 1170.8,-106.07 1160.63,-103.1 1160.99,-110.09"/>
</g>
<!-- Node29 -->
<g id="node29" class="node">
<title>Node29</title>
<g id="a_node29"><a xlink:href="classhttplib_1_1Server.html#a3e50f66dfe531fe18590aa421ef2595f" target="_top" xlink:title=" ">
<polygon fill="white" stroke="black" points="1009.5,-39 1009.5,-69 1128.5,-69 1128.5,-39 1009.5,-39"/>
<text text-anchor="start" x="1017.5" y="-57" font-family="Helvetica,sans-Serif" font-size="10.00">httplib::Server::listen</text>
<text text-anchor="middle" x="1069" y="-46" font-family="Helvetica,sans-Serif" font-size="10.00">_after_bind</text>
</a>
</g>
</g>
<!-- Node28&#45;&gt;Node29 -->
<g id="edge33" class="edge">
<title>Node28&#45;&gt;Node29</title>
<path fill="none" stroke="midnightblue" d="M1170.54,-84.89C1153.58,-79.68 1135.28,-74.05 1118.99,-69.05"/>
<polygon fill="midnightblue" stroke="midnightblue" points="1169.76,-88.31 1180.34,-87.9 1171.81,-81.62 1169.76,-88.31"/>
</g>
</g>
</svg>
        <g id="navigator" transform="translate(0 0)" fill="#404254">
                <rect fill="#f2f5e9" fill-opacity="0.5" stroke="#606060" stroke-width=".5" x="0" y="0" width="60" height="60"/>
                <use id="zoomplus" xlink:href="#zoomPlus" x="17" y="9" onmousedown="handleZoom(evt,'in')"/>
                <use id="zoomminus" xlink:href="#zoomMin" x="42" y="9" onmousedown="handleZoom(evt,'out')"/>
                <use id="reset" xlink:href="#resetDef" x="30" y="36" onmousedown="handleReset()"/>
                <g id="arrowUp" xlink:href="#dirArrow" transform="translate(30 24)" onmousedown="handlePan(0,-1)">
                  <use xlink:href="#rim" fill="#404040">
                        <set attributeName="fill" to="#808080" begin="arrowUp.mouseover" end="arrowUp.mouseout"/>
                  </use>
                  <path fill="none" stroke="white" stroke-width="1.5" d="M0,-3.0v7 M-2.5,-0.5L0,-3.0L2.5,-0.5"/>
                </g>
                <g id="arrowRight" xlink:href="#dirArrow" transform="rotate(90) translate(36 -43)" onmousedown="handlePan(1,0)">
                  <use xlink:href="#rim" fill="#404040">
                        <set attributeName="fill" to="#808080" begin="arrowRight.mouseover" end="arrowRight.mouseout"/>
                  </use>
                  <path fill="none" stroke="white" stroke-width="1.5" d="M0,-3.0v7 M-2.5,-0.5L0,-3.0L2.5,-0.5"/>
                </g>
                <g id="arrowDown" xlink:href="#dirArrow" transform="rotate(180) translate(-30 -48)" onmousedown="handlePan(0,1)">
                  <use xlink:href="#rim" fill="#404040">
                        <set attributeName="fill" to="#808080" begin="arrowDown.mouseover" end="arrowDown.mouseout"/>
                  </use>
                  <path fill="none" stroke="white" stroke-width="1.5" d="M0,-3.0v7 M-2.5,-0.5L0,-3.0L2.5,-0.5"/>
                </g>
                <g id="arrowLeft" xlink:href="#dirArrow" transform="rotate(270) translate(-36 17)" onmousedown="handlePan(-1,0)">
                  <use xlink:href="#rim" fill="#404040">
                        <set attributeName="fill" to="#808080" begin="arrowLeft.mouseover" end="arrowLeft.mouseout"/>
                  </use>
                  <path fill="none" stroke="white" stroke-width="1.5" d="M0,-3.0v7 M-2.5,-0.5L0,-3.0L2.5,-0.5"/>
                </g>
        </g>
        <svg viewBox="0 0 15 15" width="100%" height="30px" preserveAspectRatio="xMaxYMin meet">
         <g id="arrow_out" transform="scale(0.3 0.3)">
          <a xlink:href="namespacehttplib_1_1detail_ab97ddef67a99aee8ed2aec5e20d90286_icgraph_org.svg" target="_base">
           <rect id="button" ry="5" rx="5" y="6" x="6" height="38" width="38"
                fill="#f2f5e9" fill-opacity="0.5" stroke="#606060" stroke-width="1.0"/>
           <path id="arrow"
             d="M 11.500037,31.436501 C 11.940474,20.09759 22.043105,11.32322 32.158766,21.979434 L 37.068811,17.246167 C 37.068811,17.246167 37.088388,32 37.088388,32 L 22.160133,31.978069 C 22.160133,31.978069 26.997745,27.140456 26.997745,27.140456 C 18.528582,18.264221 13.291696,25.230495 11.500037,31.436501 z"
             style="fill:#404040;"/>
          </a>
         </g>
        </svg>
</svg>
