<?xml version="1.0" encoding="UTF-8" standalone="no"?>
<!DOCTYPE svg PUBLIC "-//W3C//DTD SVG 1.1//EN"
 "http://www.w3.org/Graphics/SVG/1.1/DTD/svg11.dtd">
<!-- Generated by graphviz version 2.43.0 (0)
 -->
<!-- Title: fuzzer::PulseThread Pages: 1 -->
<svg width="277pt" height="66pt"
 viewBox="0.00 0.00 277.00 66.00" xmlns="http://www.w3.org/2000/svg" xmlns:xlink="http://www.w3.org/1999/xlink">
<g id="graph0" class="graph" transform="scale(1 1) rotate(0) translate(4 62)">
<title>fuzzer::PulseThread</title>
<polygon fill="white" stroke="transparent" points="-4,4 -4,-62 273,-62 273,4 -4,4"/>
<!-- Node1 -->
<g id="node1" class="node">
<title>Node1</title>
<g id="a_node1"><a xlink:title=" ">
<polygon fill="#bfbfbf" stroke="black" points="0,-19.5 0,-38.5 113,-38.5 113,-19.5 0,-19.5"/>
<text text-anchor="middle" x="56.5" y="-26.5" font-family="Helvetica,sans-Serif" font-size="10.00">fuzzer::PulseThread</text>
</a>
</g>
</g>
<!-- Node2 -->
<g id="node2" class="node">
<title>Node2</title>
<g id="a_node2"><a xlink:href="namespacefuzzer.html#afab785891fdb74f8fd33bca421bde935" target="_top" xlink:title=" ">
<polygon fill="white" stroke="black" points="169.5,-38.5 169.5,-57.5 248.5,-57.5 248.5,-38.5 169.5,-38.5"/>
<text text-anchor="middle" x="209" y="-45.5" font-family="Helvetica,sans-Serif" font-size="10.00">fuzzer::Printf</text>
</a>
</g>
</g>
<!-- Node1&#45;&gt;Node2 -->
<g id="edge1" class="edge">
<title>Node1&#45;&gt;Node2</title>
<path fill="none" stroke="midnightblue" d="M113.11,-36.02C128.07,-37.91 144.14,-39.94 158.73,-41.78"/>
<polygon fill="midnightblue" stroke="midnightblue" points="158.69,-45.3 169.05,-43.08 159.57,-38.36 158.69,-45.3"/>
</g>
<!-- Node3 -->
<g id="node3" class="node">
<title>Node3</title>
<g id="a_node3"><a xlink:href="namespacefuzzer.html#afa00740a00c1ad12fd034df516061161" target="_top" xlink:title=" ">
<polygon fill="white" stroke="black" points="149,-0.5 149,-19.5 269,-19.5 269,-0.5 149,-0.5"/>
<text text-anchor="middle" x="209" y="-7.5" font-family="Helvetica,sans-Serif" font-size="10.00">fuzzer::SleepSeconds</text>
</a>
</g>
</g>
<!-- Node1&#45;&gt;Node3 -->
<g id="edge2" class="edge">
<title>Node1&#45;&gt;Node3</title>
<path fill="none" stroke="midnightblue" d="M113.11,-21.98C121.48,-20.92 130.19,-19.82 138.8,-18.74"/>
<polygon fill="midnightblue" stroke="midnightblue" points="139.35,-22.2 148.83,-17.47 138.47,-15.25 139.35,-22.2"/>
</g>
</g>
</svg>
