<?xml version="1.0" encoding="UTF-8" standalone="no"?>
<!DOCTYPE svg PUBLIC "-//W3C//DTD SVG 1.1//EN"
 "http://www.w3.org/Graphics/SVG/1.1/DTD/svg11.dtd">
<!-- Generated by graphviz version 2.43.0 (0)
 -->
<!-- Title: httplib::detail::parse_disposition_params Pages: 1 -->
<svg width="546pt" height="39pt"
 viewBox="0.00 0.00 546.00 39.00" xmlns="http://www.w3.org/2000/svg" xmlns:xlink="http://www.w3.org/1999/xlink">
<g id="graph0" class="graph" transform="scale(1 1) rotate(0) translate(4 35)">
<title>httplib::detail::parse_disposition_params</title>
<polygon fill="white" stroke="transparent" points="-4,4 -4,-35 542,-35 542,4 -4,4"/>
<!-- Node1 -->
<g id="node1" class="node">
<title>Node1</title>
<g id="a_node1"><a xlink:title=" ">
<polygon fill="#bfbfbf" stroke="black" points="0,-0.5 0,-30.5 117,-30.5 117,-0.5 0,-0.5"/>
<text text-anchor="start" x="8" y="-18.5" font-family="Helvetica,sans-Serif" font-size="10.00">httplib::detail::parse</text>
<text text-anchor="middle" x="58.5" y="-7.5" font-family="Helvetica,sans-Serif" font-size="10.00">_disposition_params</text>
</a>
</g>
</g>
<!-- Node2 -->
<g id="node2" class="node">
<title>Node2</title>
<g id="a_node2"><a xlink:href="namespacehttplib_1_1detail.html#a870b64c5e47d81e83ec023160df1984a" target="_top" xlink:title=" ">
<polygon fill="white" stroke="black" points="153,-6 153,-25 262,-25 262,-6 153,-6"/>
<text text-anchor="middle" x="207.5" y="-13" font-family="Helvetica,sans-Serif" font-size="10.00">httplib::detail::split</text>
</a>
</g>
</g>
<!-- Node1&#45;&gt;Node2 -->
<g id="edge1" class="edge">
<title>Node1&#45;&gt;Node2</title>
<path fill="none" stroke="midnightblue" d="M117.18,-15.5C125.53,-15.5 134.16,-15.5 142.62,-15.5"/>
<polygon fill="midnightblue" stroke="midnightblue" points="142.83,-19 152.83,-15.5 142.83,-12 142.83,-19"/>
</g>
<!-- Node3 -->
<g id="node3" class="node">
<title>Node3</title>
<g id="a_node3"><a xlink:href="namespacehttplib_1_1detail.html#a684e5b601171494a4e06c6ff05a60522" target="_top" xlink:title=" ">
<polygon fill="white" stroke="black" points="298,-6 298,-25 406,-25 406,-6 298,-6"/>
<text text-anchor="middle" x="352" y="-13" font-family="Helvetica,sans-Serif" font-size="10.00">httplib::detail::trim</text>
</a>
</g>
</g>
<!-- Node2&#45;&gt;Node3 -->
<g id="edge2" class="edge">
<title>Node2&#45;&gt;Node3</title>
<path fill="none" stroke="midnightblue" d="M262.37,-15.5C270.67,-15.5 279.29,-15.5 287.77,-15.5"/>
<polygon fill="midnightblue" stroke="midnightblue" points="288,-19 298,-15.5 288,-12 288,-19"/>
</g>
<!-- Node4 -->
<g id="node4" class="node">
<title>Node4</title>
<g id="a_node4"><a xlink:href="namespacehttplib_1_1detail.html#a516825616cd42123cbe974a9f42718aa" target="_top" xlink:title=" ">
<polygon fill="white" stroke="black" points="442,-0.5 442,-30.5 538,-30.5 538,-0.5 442,-0.5"/>
<text text-anchor="start" x="450" y="-18.5" font-family="Helvetica,sans-Serif" font-size="10.00">httplib::detail::is</text>
<text text-anchor="middle" x="490" y="-7.5" font-family="Helvetica,sans-Serif" font-size="10.00">_space_or_tab</text>
</a>
</g>
</g>
<!-- Node3&#45;&gt;Node4 -->
<g id="edge3" class="edge">
<title>Node3&#45;&gt;Node4</title>
<path fill="none" stroke="midnightblue" d="M406.36,-15.5C414.72,-15.5 423.39,-15.5 431.83,-15.5"/>
<polygon fill="midnightblue" stroke="midnightblue" points="431.97,-19 441.97,-15.5 431.97,-12 431.97,-19"/>
</g>
</g>
</svg>
