<?xml version="1.0" encoding="UTF-8" standalone="no"?>
<!DOCTYPE svg PUBLIC "-//W3C//DTD SVG 1.1//EN"
 "http://www.w3.org/Graphics/SVG/1.1/DTD/svg11.dtd">
<!-- Generated by graphviz version 2.43.0 (0)
 -->
<!-- Title: fuzzer::Base64 Pages: 1 -->
<!--zoomable 497 -->
<svg id="main" version="1.1" xmlns="http://www.w3.org/2000/svg" xmlns:xlink="http://www.w3.org/1999/xlink" xml:space="preserve" onload="init(evt)">
<style type="text/css"><![CDATA[
.edge:hover path { stroke: red; }
.edge:hover polygon { stroke: red; fill: red; }
]]></style>
<script type="text/javascript"><![CDATA[
var edges = document.getElementsByTagName('g');
if (edges && edges.length) {
  for (var i=0;i<edges.length;i++) {
    if (edges[i].id.substr(0,4)=='edge') {
      edges[i].setAttribute('class','edge');
    }
  }
}
]]></script>
        <defs>
                <circle id="rim" cx="0" cy="0" r="7"/>
                <circle id="rim2" cx="0" cy="0" r="3.5"/>
                <g id="zoomPlus">
                        <use xlink:href="#rim" fill="#404040">
                                <set attributeName="fill" to="#808080" begin="zoomplus.mouseover" end="zoomplus.mouseout"/>
                        </use>
                        <path d="M-4,0h8M0,-4v8" fill="none" stroke="white" stroke-width="1.5" pointer-events="none"/>
                </g>
                <g id="zoomMin">
                        <use xlink:href="#rim" fill="#404040">
                                <set attributeName="fill" to="#808080" begin="zoomminus.mouseover" end="zoomminus.mouseout"/>
                        </use>
                        <path d="M-4,0h8" fill="none" stroke="white" stroke-width="1.5" pointer-events="none"/>
                </g>
                <g id="dirArrow">
                        <path fill="none" stroke="white" stroke-width="1.5" d="M0,-3.0v7 M-2.5,-0.5L0,-3.0L2.5,-0.5"/>
                </g>
               <g id="resetDef">
                       <use xlink:href="#rim2" fill="#404040">
                               <set attributeName="fill" to="#808080" begin="reset.mouseover" end="reset.mouseout"/>
                       </use>
               </g>
        </defs>

<script type="text/javascript">
var viewWidth = 1294;
var viewHeight = 497;
var sectionId = 'dynsection-2';
</script>
<script xlink:href="svgpan.js"/>
<svg id="graph" class="graph">
<g id="viewport">
<title>fuzzer::Base64</title>
<polygon fill="white" stroke="transparent" points="-4,4 -4,-493 1290,-493 1290,4 -4,4"/>
<!-- Node1 -->
<g id="node1" class="node">
<title>Node1</title>
<g id="a_node1"><a xlink:title=" ">
<polygon fill="#bfbfbf" stroke="black" points="1197,-263 1197,-282 1286,-282 1286,-263 1197,-263"/>
<text text-anchor="middle" x="1241.5" y="-270" font-family="Helvetica,sans-Serif" font-size="10.00">fuzzer::Base64</text>
</a>
</g>
</g>
<!-- Node2 -->
<g id="node2" class="node">
<title>Node2</title>
<g id="a_node2"><a xlink:href="FuzzerUnittest_8cpp.html#aeaf26647330a995816cd62b1cae1f76e" target="_top" xlink:title=" ">
<polygon fill="white" stroke="black" points="1072,-285 1072,-304 1113,-304 1113,-285 1072,-285"/>
<text text-anchor="middle" x="1092.5" y="-292" font-family="Helvetica,sans-Serif" font-size="10.00">TEST</text>
</a>
</g>
</g>
<!-- Node1&#45;&gt;Node2 -->
<g id="edge1" class="edge">
<title>Node1&#45;&gt;Node2</title>
<path fill="none" stroke="midnightblue" d="M1186.79,-280.54C1161.11,-284.38 1131.96,-288.74 1113.18,-291.56"/>
<polygon fill="midnightblue" stroke="midnightblue" points="1187.42,-283.98 1196.79,-279.04 1186.39,-277.06 1187.42,-283.98"/>
</g>
<!-- Node3 -->
<g id="node3" class="node">
<title>Node3</title>
<g id="a_node3"><a xlink:href="classfuzzer_1_1Fuzzer.html#aef705ffb2c3596bc6c6fe425320093d8" target="_top" xlink:title=" ">
<polygon fill="white" stroke="black" points="1024,-235.5 1024,-265.5 1161,-265.5 1161,-235.5 1024,-235.5"/>
<text text-anchor="start" x="1032" y="-253.5" font-family="Helvetica,sans-Serif" font-size="10.00">fuzzer::Fuzzer::WriteUnit</text>
<text text-anchor="middle" x="1092.5" y="-242.5" font-family="Helvetica,sans-Serif" font-size="10.00">ToFileWithPrefix</text>
</a>
</g>
</g>
<!-- Node1&#45;&gt;Node3 -->
<g id="edge2" class="edge">
<title>Node1&#45;&gt;Node3</title>
<path fill="none" stroke="midnightblue" d="M1186.78,-264.46C1178.4,-263.21 1169.64,-261.9 1161,-260.6"/>
<polygon fill="midnightblue" stroke="midnightblue" points="1186.39,-267.94 1196.79,-265.96 1187.42,-261.02 1186.39,-267.94"/>
</g>
<!-- Node4 -->
<g id="node4" class="node">
<title>Node4</title>
<g id="a_node4"><a xlink:href="classfuzzer_1_1Fuzzer.html#ac853911b596fa7f8d6f1bdbd0a748a0f" target="_top" xlink:title=" ">
<polygon fill="white" stroke="black" points="812,-328 812,-347 988,-347 988,-328 812,-328"/>
<text text-anchor="middle" x="900" y="-335" font-family="Helvetica,sans-Serif" font-size="10.00">fuzzer::Fuzzer::DumpCurrentUnit</text>
</a>
</g>
</g>
<!-- Node3&#45;&gt;Node4 -->
<g id="edge3" class="edge">
<title>Node3&#45;&gt;Node4</title>
<path fill="none" stroke="midnightblue" d="M1039.35,-269.15C1034.13,-271.21 1028.94,-273.35 1024,-275.5 985.63,-292.21 942.24,-315.05 918.63,-327.83"/>
<polygon fill="midnightblue" stroke="midnightblue" points="1040.66,-272.39 1048.72,-265.52 1038.13,-265.86 1040.66,-272.39"/>
</g>
<!-- Node27 -->
<g id="node27" class="node">
<title>Node27</title>
<g id="a_node27"><a xlink:href="classfuzzer_1_1Fuzzer.html#a89cb175e3dd6b4e14beb716a8a64f10c" target="_top" xlink:title=" ">
<polygon fill="white" stroke="black" points="631.5,-153 631.5,-172 759.5,-172 759.5,-153 631.5,-153"/>
<text text-anchor="middle" x="695.5" y="-160" font-family="Helvetica,sans-Serif" font-size="10.00">fuzzer::Fuzzer::RunOne</text>
</a>
</g>
</g>
<!-- Node3&#45;&gt;Node27 -->
<g id="edge31" class="edge">
<title>Node3&#45;&gt;Node27</title>
<path fill="none" stroke="midnightblue" d="M1014.26,-233.29C932.09,-214.99 805.09,-186.69 739.3,-172.03"/>
<polygon fill="midnightblue" stroke="midnightblue" points="1013.52,-236.71 1024.05,-235.47 1015.05,-229.88 1013.52,-236.71"/>
</g>
<!-- Node5 -->
<g id="node5" class="node">
<title>Node5</title>
<g id="a_node5"><a xlink:href="classfuzzer_1_1Fuzzer.html#a88dc9a27d88b016acd54fb8671cc5471" target="_top" xlink:title=" ">
<polygon fill="white" stroke="black" points="615,-455 615,-474 776,-474 776,-455 615,-455"/>
<text text-anchor="middle" x="695.5" y="-462" font-family="Helvetica,sans-Serif" font-size="10.00">fuzzer::Fuzzer::AlarmCallback</text>
</a>
</g>
</g>
<!-- Node4&#45;&gt;Node5 -->
<g id="edge4" class="edge">
<title>Node4&#45;&gt;Node5</title>
<path fill="none" stroke="midnightblue" d="M882.34,-354.36C859.94,-376.22 818.04,-414.26 776,-437.5 762.86,-444.76 747.42,-450.55 733.67,-454.88"/>
<polygon fill="midnightblue" stroke="midnightblue" points="885.03,-356.63 889.68,-347.1 880.11,-351.65 885.03,-356.63"/>
</g>
<!-- Node7 -->
<g id="node7" class="node">
<title>Node7</title>
<g id="a_node7"><a xlink:href="classfuzzer_1_1Fuzzer.html#a59da5344dd4a5419b5cc1782e98e08b9" target="_top" xlink:title=" ">
<polygon fill="white" stroke="black" points="615.5,-409 615.5,-428 775.5,-428 775.5,-409 615.5,-409"/>
<text text-anchor="middle" x="695.5" y="-416" font-family="Helvetica,sans-Serif" font-size="10.00">fuzzer::Fuzzer::CrashCallback</text>
</a>
</g>
</g>
<!-- Node4&#45;&gt;Node7 -->
<g id="edge6" class="edge">
<title>Node4&#45;&gt;Node7</title>
<path fill="none" stroke="midnightblue" d="M871.5,-351.6C846.88,-363.9 809.6,-381.72 776,-394.5 761.85,-399.88 745.93,-404.89 732.08,-408.92"/>
<polygon fill="midnightblue" stroke="midnightblue" points="873.24,-354.65 880.6,-347.02 870.09,-348.4 873.24,-354.65"/>
</g>
<!-- Node9 -->
<g id="node9" class="node">
<title>Node9</title>
<g id="a_node9"><a xlink:href="classfuzzer_1_1Fuzzer.html#a68e822e2cc64c153935b3a585219b0f7" target="_top" xlink:title=" ">
<polygon fill="white" stroke="black" points="615,-366 615,-385 776,-385 776,-366 615,-366"/>
<text text-anchor="middle" x="695.5" y="-373" font-family="Helvetica,sans-Serif" font-size="10.00">fuzzer::Fuzzer::DeathCallback</text>
</a>
</g>
</g>
<!-- Node4&#45;&gt;Node9 -->
<g id="edge8" class="edge">
<title>Node4&#45;&gt;Node9</title>
<path fill="none" stroke="midnightblue" d="M838.15,-348.92C809.18,-354.36 774.92,-360.78 747.36,-365.96"/>
<polygon fill="midnightblue" stroke="midnightblue" points="838.98,-352.32 848.16,-347.04 837.69,-345.44 838.98,-352.32"/>
</g>
<!-- Node13 -->
<g id="node13" class="node">
<title>Node13</title>
<g id="a_node13"><a xlink:href="classfuzzer_1_1Fuzzer.html#aedd1fa002d658fbcc1e0870ae28c4489" target="_top" xlink:title=" ">
<polygon fill="white" stroke="black" points="617,-328 617,-347 774,-347 774,-328 617,-328"/>
<text text-anchor="middle" x="695.5" y="-335" font-family="Helvetica,sans-Serif" font-size="10.00">fuzzer::Fuzzer::HandleMalloc</text>
</a>
</g>
</g>
<!-- Node4&#45;&gt;Node13 -->
<g id="edge12" class="edge">
<title>Node4&#45;&gt;Node13</title>
<path fill="none" stroke="midnightblue" d="M801.9,-337.5C792.62,-337.5 783.29,-337.5 774.22,-337.5"/>
<polygon fill="midnightblue" stroke="midnightblue" points="801.95,-341 811.95,-337.5 801.95,-334 801.95,-341"/>
</g>
<!-- Node15 -->
<g id="node15" class="node">
<title>Node15</title>
<g id="a_node15"><a xlink:href="classfuzzer_1_1Fuzzer.html#aaff2d6a9892349f851f17dd3f0da5ac0" target="_top" xlink:title=" ">
<polygon fill="white" stroke="black" points="629.5,-278.5 629.5,-308.5 761.5,-308.5 761.5,-278.5 629.5,-278.5"/>
<text text-anchor="start" x="637.5" y="-296.5" font-family="Helvetica,sans-Serif" font-size="10.00">fuzzer::Fuzzer::RssLimit</text>
<text text-anchor="middle" x="695.5" y="-285.5" font-family="Helvetica,sans-Serif" font-size="10.00">Callback</text>
</a>
</g>
</g>
<!-- Node4&#45;&gt;Node15 -->
<g id="edge15" class="edge">
<title>Node4&#45;&gt;Node15</title>
<path fill="none" stroke="midnightblue" d="M845.13,-325.79C819.44,-320.21 788.5,-313.49 761.51,-307.63"/>
<polygon fill="midnightblue" stroke="midnightblue" points="844.55,-329.25 855.06,-327.95 846.03,-322.41 844.55,-329.25"/>
</g>
<!-- Node20 -->
<g id="node20" class="node">
<title>Node20</title>
<g id="a_node20"><a xlink:href="classfuzzer_1_1Fuzzer.html#a7b4edc3276350436fe6ed3f4200b0226" target="_top" xlink:title=" ">
<polygon fill="white" stroke="black" points="619.5,-196.5 619.5,-226.5 771.5,-226.5 771.5,-196.5 619.5,-196.5"/>
<text text-anchor="start" x="627.5" y="-214.5" font-family="Helvetica,sans-Serif" font-size="10.00">fuzzer::Fuzzer::TryDetecting</text>
<text text-anchor="middle" x="695.5" y="-203.5" font-family="Helvetica,sans-Serif" font-size="10.00">AMemoryLeak</text>
</a>
</g>
</g>
<!-- Node4&#45;&gt;Node20 -->
<g id="edge20" class="edge">
<title>Node4&#45;&gt;Node20</title>
<path fill="none" stroke="midnightblue" d="M874.84,-322.46C835.88,-298.23 759.65,-250.79 720.69,-226.55"/>
<polygon fill="midnightblue" stroke="midnightblue" points="873.11,-325.51 883.45,-327.82 876.8,-319.57 873.11,-325.51"/>
</g>
<!-- Node6 -->
<g id="node6" class="node">
<title>Node6</title>
<g id="a_node6"><a xlink:href="classfuzzer_1_1Fuzzer.html#a8e5cc850a9e02c0650f196981ced0b78" target="_top" xlink:title=" ">
<polygon fill="white" stroke="black" points="426.5,-458.5 426.5,-488.5 573.5,-488.5 573.5,-458.5 426.5,-458.5"/>
<text text-anchor="start" x="434.5" y="-476.5" font-family="Helvetica,sans-Serif" font-size="10.00">fuzzer::Fuzzer::StaticAlarm</text>
<text text-anchor="middle" x="500" y="-465.5" font-family="Helvetica,sans-Serif" font-size="10.00">Callback</text>
</a>
</g>
</g>
<!-- Node5&#45;&gt;Node6 -->
<g id="edge5" class="edge">
<title>Node5&#45;&gt;Node6</title>
<path fill="none" stroke="midnightblue" d="M604.65,-468.68C594.28,-469.16 583.81,-469.65 573.71,-470.12"/>
<polygon fill="midnightblue" stroke="midnightblue" points="605.13,-472.16 614.96,-468.2 604.81,-465.17 605.13,-472.16"/>
</g>
<!-- Node8 -->
<g id="node8" class="node">
<title>Node8</title>
<g id="a_node8"><a xlink:href="classfuzzer_1_1Fuzzer.html#a53ec06c88c7260710d7c7fcae14bf568" target="_top" xlink:title=" ">
<polygon fill="white" stroke="black" points="427,-409.5 427,-439.5 573,-439.5 573,-409.5 427,-409.5"/>
<text text-anchor="start" x="435" y="-427.5" font-family="Helvetica,sans-Serif" font-size="10.00">fuzzer::Fuzzer::StaticCrash</text>
<text text-anchor="middle" x="500" y="-416.5" font-family="Helvetica,sans-Serif" font-size="10.00">SignalCallback</text>
</a>
</g>
</g>
<!-- Node7&#45;&gt;Node8 -->
<g id="edge7" class="edge">
<title>Node7&#45;&gt;Node8</title>
<path fill="none" stroke="midnightblue" d="M605.08,-421.27C594.43,-421.6 583.67,-421.94 573.3,-422.26"/>
<polygon fill="midnightblue" stroke="midnightblue" points="605.35,-424.77 615.24,-420.96 605.13,-417.77 605.35,-424.77"/>
</g>
<!-- Node10 -->
<g id="node10" class="node">
<title>Node10</title>
<g id="a_node10"><a xlink:href="classfuzzer_1_1Fuzzer.html#a7de4a6effa071db473a5008a5ec24147" target="_top" xlink:title=" ">
<polygon fill="white" stroke="black" points="426.5,-360.5 426.5,-390.5 573.5,-390.5 573.5,-360.5 426.5,-360.5"/>
<text text-anchor="start" x="434.5" y="-378.5" font-family="Helvetica,sans-Serif" font-size="10.00">fuzzer::Fuzzer::StaticDeath</text>
<text text-anchor="middle" x="500" y="-367.5" font-family="Helvetica,sans-Serif" font-size="10.00">Callback</text>
</a>
</g>
</g>
<!-- Node9&#45;&gt;Node10 -->
<g id="edge9" class="edge">
<title>Node9&#45;&gt;Node10</title>
<path fill="none" stroke="midnightblue" d="M604.65,-375.5C594.28,-375.5 583.81,-375.5 573.71,-375.5"/>
<polygon fill="midnightblue" stroke="midnightblue" points="604.96,-379 614.96,-375.5 604.96,-372 604.96,-379"/>
</g>
<!-- Node11 -->
<g id="node11" class="node">
<title>Node11</title>
<g id="a_node11"><a xlink:href="classfuzzer_1_1Fuzzer.html#acc39f35d54c3d1dd17f108aba6fab3f8" target="_top" xlink:title=" ">
<polygon fill="white" stroke="black" points="242.5,-360.5 242.5,-390.5 377.5,-390.5 377.5,-360.5 242.5,-360.5"/>
<text text-anchor="start" x="250.5" y="-378.5" font-family="Helvetica,sans-Serif" font-size="10.00">fuzzer::Fuzzer::SetDeath</text>
<text text-anchor="middle" x="310" y="-367.5" font-family="Helvetica,sans-Serif" font-size="10.00">Callback</text>
</a>
</g>
</g>
<!-- Node10&#45;&gt;Node11 -->
<g id="edge10" class="edge">
<title>Node10&#45;&gt;Node11</title>
<path fill="none" stroke="midnightblue" d="M416.08,-375.5C403.22,-375.5 390.09,-375.5 377.65,-375.5"/>
<polygon fill="midnightblue" stroke="midnightblue" points="416.31,-379 426.31,-375.5 416.31,-372 416.31,-379"/>
</g>
<!-- Node12 -->
<g id="node12" class="node">
<title>Node12</title>
<g id="a_node12"><a xlink:href="classfuzzer_1_1Fuzzer.html#a582438623b355f23604ebcd6150134c1" target="_top" xlink:title=" ">
<polygon fill="white" stroke="black" points="77,-344 77,-363 199,-363 199,-344 77,-344"/>
<text text-anchor="middle" x="138" y="-351" font-family="Helvetica,sans-Serif" font-size="10.00">fuzzer::Fuzzer::Fuzzer</text>
</a>
</g>
</g>
<!-- Node11&#45;&gt;Node12 -->
<g id="edge11" class="edge">
<title>Node11&#45;&gt;Node12</title>
<path fill="none" stroke="midnightblue" d="M232.2,-365.56C221.11,-364.13 209.84,-362.67 199.15,-361.28"/>
<polygon fill="midnightblue" stroke="midnightblue" points="231.93,-369.06 242.3,-366.87 232.83,-362.11 231.93,-369.06"/>
</g>
<!-- Node14 -->
<g id="node14" class="node">
<title>Node14</title>
<g id="a_node14"><a xlink:href="namespacefuzzer.html#aad4c2b706565c818bd1990536895c23e" target="_top" xlink:title=" ">
<polygon fill="white" stroke="black" points="255,-322 255,-341 365,-341 365,-322 255,-322"/>
<text text-anchor="middle" x="310" y="-329" font-family="Helvetica,sans-Serif" font-size="10.00">fuzzer::MallocHook</text>
</a>
</g>
</g>
<!-- Node13&#45;&gt;Node14 -->
<g id="edge13" class="edge">
<title>Node13&#45;&gt;Node14</title>
<path fill="none" stroke="midnightblue" d="M606.59,-336.12C532.13,-334.96 427.75,-333.33 365.02,-332.35"/>
<polygon fill="midnightblue" stroke="midnightblue" points="606.84,-339.63 616.89,-336.29 606.95,-332.63 606.84,-339.63"/>
</g>
<!-- Node14&#45;&gt;Node12 -->
<g id="edge14" class="edge">
<title>Node14&#45;&gt;Node12</title>
<path fill="none" stroke="midnightblue" d="M244.6,-339.83C229.71,-341.76 213.93,-343.8 199.23,-345.71"/>
<polygon fill="midnightblue" stroke="midnightblue" points="245.28,-343.28 254.74,-338.52 244.38,-336.33 245.28,-343.28"/>
</g>
<!-- Node16 -->
<g id="node16" class="node">
<title>Node16</title>
<g id="a_node16"><a xlink:href="namespacefuzzer.html#a337a224a0611ab37c60131e5b1a77b36" target="_top" xlink:title=" ">
<polygon fill="white" stroke="black" points="448,-284 448,-303 552,-303 552,-284 448,-284"/>
<text text-anchor="middle" x="500" y="-291" font-family="Helvetica,sans-Serif" font-size="10.00">fuzzer::RssThread</text>
</a>
</g>
</g>
<!-- Node15&#45;&gt;Node16 -->
<g id="edge16" class="edge">
<title>Node15&#45;&gt;Node16</title>
<path fill="none" stroke="midnightblue" d="M619.1,-293.5C596.7,-293.5 572.69,-293.5 552.21,-293.5"/>
<polygon fill="midnightblue" stroke="midnightblue" points="619.26,-297 629.26,-293.5 619.26,-290 619.26,-297"/>
</g>
<!-- Node17 -->
<g id="node17" class="node">
<title>Node17</title>
<g id="a_node17"><a xlink:href="namespacefuzzer.html#a4bfbc9d0a9eed57d8f8992c16746d8f6" target="_top" xlink:title=" ">
<polygon fill="white" stroke="black" points="246.5,-282 246.5,-301 373.5,-301 373.5,-282 246.5,-282"/>
<text text-anchor="middle" x="310" y="-289" font-family="Helvetica,sans-Serif" font-size="10.00">fuzzer::StartRssThread</text>
</a>
</g>
</g>
<!-- Node16&#45;&gt;Node17 -->
<g id="edge17" class="edge">
<title>Node16&#45;&gt;Node17</title>
<path fill="none" stroke="midnightblue" d="M437.48,-292.85C417.03,-292.63 394.24,-292.39 373.7,-292.17"/>
<polygon fill="midnightblue" stroke="midnightblue" points="437.59,-296.35 447.63,-292.95 437.67,-289.35 437.59,-296.35"/>
</g>
<!-- Node18 -->
<g id="node18" class="node">
<title>Node18</title>
<g id="a_node18"><a xlink:href="namespacefuzzer.html#a78f142089de84c6cbf7b5cab5f766af7" target="_top" xlink:title=" ">
<polygon fill="white" stroke="black" points="81,-176 81,-195 195,-195 195,-176 81,-176"/>
<text text-anchor="middle" x="138" y="-183" font-family="Helvetica,sans-Serif" font-size="10.00">fuzzer::FuzzerDriver</text>
</a>
</g>
</g>
<!-- Node17&#45;&gt;Node18 -->
<g id="edge18" class="edge">
<title>Node17&#45;&gt;Node18</title>
<path fill="none" stroke="midnightblue" d="M267.3,-278.39C256.47,-274.27 245.03,-269.27 235,-263.5 200.19,-243.48 165.01,-211.09 148.58,-195.08"/>
<polygon fill="midnightblue" stroke="midnightblue" points="266.43,-281.8 277.03,-281.92 268.82,-275.22 266.43,-281.8"/>
</g>
<!-- Node19 -->
<g id="node19" class="node">
<title>Node19</title>
<g id="a_node19"><a xlink:href="FuzzerMain_8cpp.html#a3c04138a5bfe5d72780bb7e82a18e627" target="_top" xlink:title=" ">
<polygon fill="white" stroke="black" points="0,-176 0,-195 41,-195 41,-176 0,-176"/>
<text text-anchor="middle" x="20.5" y="-183" font-family="Helvetica,sans-Serif" font-size="10.00">main</text>
</a>
</g>
</g>
<!-- Node18&#45;&gt;Node19 -->
<g id="edge19" class="edge">
<title>Node18&#45;&gt;Node19</title>
<path fill="none" stroke="midnightblue" d="M70.94,-185.5C60.13,-185.5 49.71,-185.5 41.24,-185.5"/>
<polygon fill="midnightblue" stroke="midnightblue" points="70.94,-189 80.94,-185.5 70.94,-182 70.94,-189"/>
</g>
<!-- Node21 -->
<g id="node21" class="node">
<title>Node21</title>
<g id="a_node21"><a xlink:href="classfuzzer_1_1Fuzzer.html#a54326d89b0de8eb858c70dfa78c5cc57" target="_top" xlink:title=" ">
<polygon fill="white" stroke="black" points="432.5,-147.5 432.5,-177.5 567.5,-177.5 567.5,-147.5 432.5,-147.5"/>
<text text-anchor="start" x="440.5" y="-165.5" font-family="Helvetica,sans-Serif" font-size="10.00">fuzzer::Fuzzer::Minimize</text>
<text text-anchor="middle" x="500" y="-154.5" font-family="Helvetica,sans-Serif" font-size="10.00">CrashLoop</text>
</a>
</g>
</g>
<!-- Node20&#45;&gt;Node21 -->
<g id="edge21" class="edge">
<title>Node20&#45;&gt;Node21</title>
<path fill="none" stroke="midnightblue" d="M625.2,-193.95C603.95,-188.57 580.77,-182.7 560.26,-177.51"/>
<polygon fill="midnightblue" stroke="midnightblue" points="624.58,-197.4 635.13,-196.47 626.29,-190.62 624.58,-197.4"/>
</g>
<!-- Node23 -->
<g id="node23" class="node">
<title>Node23</title>
<g id="a_node23"><a xlink:href="classfuzzer_1_1Fuzzer.html#a9c3b80798ae30570306d7f938961dec3" target="_top" xlink:title=" ">
<polygon fill="white" stroke="black" points="428.5,-98.5 428.5,-128.5 571.5,-128.5 571.5,-98.5 428.5,-98.5"/>
<text text-anchor="start" x="436.5" y="-116.5" font-family="Helvetica,sans-Serif" font-size="10.00">fuzzer::Fuzzer::MutateAnd</text>
<text text-anchor="middle" x="500" y="-105.5" font-family="Helvetica,sans-Serif" font-size="10.00">TestOne</text>
</a>
</g>
</g>
<!-- Node20&#45;&gt;Node23 -->
<g id="edge24" class="edge">
<title>Node20&#45;&gt;Node23</title>
<path fill="none" stroke="midnightblue" d="M633.05,-192.12C626.7,-189.02 620.55,-185.49 615,-181.5 594.48,-166.76 599.97,-151.59 579,-137.5 573.94,-134.1 568.39,-131.17 562.64,-128.64"/>
<polygon fill="midnightblue" stroke="midnightblue" points="631.89,-195.44 642.45,-196.37 634.78,-189.06 631.89,-195.44"/>
</g>
<!-- Node25 -->
<g id="node25" class="node">
<title>Node25</title>
<g id="a_node25"><a xlink:href="namespacefuzzer.html#a1fe190c22f9575ec572ce81d57c7e483" target="_top" xlink:title=" ">
<polygon fill="white" stroke="black" points="445,-246 445,-265 555,-265 555,-246 445,-246"/>
<text text-anchor="middle" x="500" y="-253" font-family="Helvetica,sans-Serif" font-size="10.00">fuzzer::RunOneTest</text>
</a>
</g>
</g>
<!-- Node20&#45;&gt;Node25 -->
<g id="edge27" class="edge">
<title>Node20&#45;&gt;Node25</title>
<path fill="none" stroke="midnightblue" d="M618.68,-228.74C592.87,-234.61 564.98,-240.95 542.83,-245.99"/>
<polygon fill="midnightblue" stroke="midnightblue" points="619.47,-232.15 628.45,-226.52 617.92,-225.32 619.47,-232.15"/>
</g>
<!-- Node26 -->
<g id="node26" class="node">
<title>Node26</title>
<g id="a_node26"><a xlink:href="classfuzzer_1_1Fuzzer.html#a368fcca328a7e72c500caf081227f7ef" target="_top" xlink:title=" ">
<polygon fill="white" stroke="black" points="428.5,-196.5 428.5,-226.5 571.5,-226.5 571.5,-196.5 428.5,-196.5"/>
<text text-anchor="start" x="436.5" y="-214.5" font-family="Helvetica,sans-Serif" font-size="10.00">fuzzer::Fuzzer::ShuffleAnd</text>
<text text-anchor="middle" x="500" y="-203.5" font-family="Helvetica,sans-Serif" font-size="10.00">Minimize</text>
</a>
</g>
</g>
<!-- Node20&#45;&gt;Node26 -->
<g id="edge29" class="edge">
<title>Node20&#45;&gt;Node26</title>
<path fill="none" stroke="midnightblue" d="M609.37,-211.5C596.76,-211.5 583.88,-211.5 571.61,-211.5"/>
<polygon fill="midnightblue" stroke="midnightblue" points="609.41,-215 619.41,-211.5 609.41,-208 609.41,-215"/>
</g>
<!-- Node22 -->
<g id="node22" class="node">
<title>Node22</title>
<g id="a_node22"><a xlink:href="namespacefuzzer.html#a1553a49adb4d4d19b4f4dd52ff54cb68" target="_top" xlink:title=" ">
<polygon fill="white" stroke="black" points="235,-148.5 235,-178.5 385,-178.5 385,-148.5 235,-148.5"/>
<text text-anchor="start" x="243" y="-166.5" font-family="Helvetica,sans-Serif" font-size="10.00">fuzzer::MinimizeCrashInput</text>
<text text-anchor="middle" x="310" y="-155.5" font-family="Helvetica,sans-Serif" font-size="10.00">InternalStep</text>
</a>
</g>
</g>
<!-- Node21&#45;&gt;Node22 -->
<g id="edge22" class="edge">
<title>Node21&#45;&gt;Node22</title>
<path fill="none" stroke="midnightblue" d="M422.27,-162.91C410.01,-162.97 397.34,-163.04 385.14,-163.11"/>
<polygon fill="midnightblue" stroke="midnightblue" points="422.47,-166.41 432.45,-162.85 422.44,-159.41 422.47,-166.41"/>
</g>
<!-- Node22&#45;&gt;Node18 -->
<g id="edge23" class="edge">
<title>Node22&#45;&gt;Node18</title>
<path fill="none" stroke="midnightblue" d="M224.88,-174.39C214.81,-175.69 204.72,-176.99 195.18,-178.23"/>
<polygon fill="midnightblue" stroke="midnightblue" points="225.46,-177.84 234.93,-173.09 224.56,-170.9 225.46,-177.84"/>
</g>
<!-- Node24 -->
<g id="node24" class="node">
<title>Node24</title>
<g id="a_node24"><a xlink:href="classfuzzer_1_1Fuzzer.html#a0306e29f06ced3d24ed0417ea2fef34b" target="_top" xlink:title=" ">
<polygon fill="white" stroke="black" points="253.5,-104 253.5,-123 366.5,-123 366.5,-104 253.5,-104"/>
<text text-anchor="middle" x="310" y="-111" font-family="Helvetica,sans-Serif" font-size="10.00">fuzzer::Fuzzer::Loop</text>
</a>
</g>
</g>
<!-- Node23&#45;&gt;Node24 -->
<g id="edge25" class="edge">
<title>Node23&#45;&gt;Node24</title>
<path fill="none" stroke="midnightblue" d="M418.3,-113.5C400.89,-113.5 382.86,-113.5 366.66,-113.5"/>
<polygon fill="midnightblue" stroke="midnightblue" points="418.46,-117 428.46,-113.5 418.46,-110 418.46,-117"/>
</g>
<!-- Node24&#45;&gt;Node18 -->
<g id="edge26" class="edge">
<title>Node24&#45;&gt;Node18</title>
<path fill="none" stroke="midnightblue" d="M268.02,-126.29C257.18,-129.96 245.56,-134.15 235,-138.5 207.03,-150.01 175.76,-165.92 156.73,-175.96"/>
<polygon fill="midnightblue" stroke="midnightblue" points="269.32,-129.55 277.71,-123.08 267.11,-122.9 269.32,-129.55"/>
</g>
<!-- Node25&#45;&gt;Node18 -->
<g id="edge28" class="edge">
<title>Node25&#45;&gt;Node18</title>
<path fill="none" stroke="midnightblue" d="M434.75,-247.1C381.05,-239.59 302.62,-227.47 235,-212.5 212.86,-207.6 188.24,-200.64 169.47,-195.02"/>
<polygon fill="midnightblue" stroke="midnightblue" points="434.43,-250.59 444.81,-248.5 435.39,-243.66 434.43,-250.59"/>
</g>
<!-- Node26&#45;&gt;Node18 -->
<g id="edge30" class="edge">
<title>Node26&#45;&gt;Node18</title>
<path fill="none" stroke="midnightblue" d="M418.07,-205.65C350.14,-200.75 254.87,-193.87 195.07,-189.55"/>
<polygon fill="midnightblue" stroke="midnightblue" points="418.08,-209.16 428.31,-206.39 418.58,-202.18 418.08,-209.16"/>
</g>
<!-- Node27&#45;&gt;Node21 -->
<g id="edge35" class="edge">
<title>Node27&#45;&gt;Node21</title>
<path fill="none" stroke="midnightblue" d="M621.2,-162.5C603.62,-162.5 584.93,-162.5 567.67,-162.5"/>
<polygon fill="midnightblue" stroke="midnightblue" points="621.41,-166 631.41,-162.5 621.41,-159 621.41,-166"/>
</g>
<!-- Node27&#45;&gt;Node23 -->
<g id="edge36" class="edge">
<title>Node27&#45;&gt;Node23</title>
<path fill="none" stroke="midnightblue" d="M646.71,-150.4C620.62,-143.79 588.09,-135.55 560.38,-128.54"/>
<polygon fill="midnightblue" stroke="midnightblue" points="646.18,-153.87 656.73,-152.94 647.9,-147.09 646.18,-153.87"/>
</g>
<!-- Node27&#45;&gt;Node25 -->
<g id="edge39" class="edge">
<title>Node27&#45;&gt;Node25</title>
<path fill="none" stroke="midnightblue" d="M635.27,-175.65C628.1,-178.58 621.15,-182.15 615,-186.5 592.93,-202.1 601.39,-220.37 579,-235.5 571.82,-240.35 563.54,-244.03 555.12,-246.81"/>
<polygon fill="midnightblue" stroke="midnightblue" points="636.95,-178.76 645.13,-172.03 634.54,-172.19 636.95,-178.76"/>
</g>
<!-- Node27&#45;&gt;Node26 -->
<g id="edge40" class="edge">
<title>Node27&#45;&gt;Node26</title>
<path fill="none" stroke="midnightblue" d="M646.71,-174.6C620.62,-181.21 588.09,-189.45 560.38,-196.46"/>
<polygon fill="midnightblue" stroke="midnightblue" points="647.9,-177.91 656.73,-172.06 646.18,-171.13 647.9,-177.91"/>
</g>
<!-- Node28 -->
<g id="node28" class="node">
<title>Node28</title>
<g id="a_node28"><a xlink:href="classfuzzer_1_1Fuzzer.html#a6a4abd6692ba305867fcb7df7bfe79cc" target="_top" xlink:title=" ">
<polygon fill="white" stroke="black" points="432.5,-0.5 432.5,-30.5 567.5,-30.5 567.5,-0.5 432.5,-0.5"/>
<text text-anchor="start" x="440.5" y="-18.5" font-family="Helvetica,sans-Serif" font-size="10.00">fuzzer::Fuzzer::FindExtra</text>
<text text-anchor="middle" x="500" y="-7.5" font-family="Helvetica,sans-Serif" font-size="10.00">Units</text>
</a>
</g>
</g>
<!-- Node27&#45;&gt;Node28 -->
<g id="edge32" class="edge">
<title>Node27&#45;&gt;Node28</title>
<path fill="none" stroke="midnightblue" d="M682.34,-144.5C663.35,-117.75 624.13,-67.65 579,-39.5 573.59,-36.13 567.67,-33.2 561.59,-30.66"/>
<polygon fill="midnightblue" stroke="midnightblue" points="679.6,-146.7 688.19,-152.91 685.35,-142.7 679.6,-146.7"/>
</g>
<!-- Node30 -->
<g id="node30" class="node">
<title>Node30</title>
<g id="a_node30"><a xlink:href="classfuzzer_1_1Fuzzer.html#a44506dc46253928eb73397091d6c4c32" target="_top" xlink:title=" ">
<polygon fill="white" stroke="black" points="421,-49.5 421,-79.5 579,-79.5 579,-49.5 421,-49.5"/>
<text text-anchor="start" x="429" y="-67.5" font-family="Helvetica,sans-Serif" font-size="10.00">fuzzer::Fuzzer::RereadOutput</text>
<text text-anchor="middle" x="500" y="-56.5" font-family="Helvetica,sans-Serif" font-size="10.00">Corpus</text>
</a>
</g>
</g>
<!-- Node27&#45;&gt;Node30 -->
<g id="edge37" class="edge">
<title>Node27&#45;&gt;Node30</title>
<path fill="none" stroke="midnightblue" d="M673.92,-146.86C651.56,-130.46 614.29,-104.86 579,-88.5 571.93,-85.22 564.3,-82.24 556.67,-79.59"/>
<polygon fill="midnightblue" stroke="midnightblue" points="671.88,-149.71 682,-152.86 676.06,-144.09 671.88,-149.71"/>
</g>
<!-- Node29 -->
<g id="node29" class="node">
<title>Node29</title>
<g id="a_node29"><a xlink:href="classfuzzer_1_1Fuzzer.html#aad1ef6d2a186b7b2462363111398e54e" target="_top" xlink:title=" ">
<polygon fill="white" stroke="black" points="249.5,-36 249.5,-55 370.5,-55 370.5,-36 249.5,-36"/>
<text text-anchor="middle" x="310" y="-43" font-family="Helvetica,sans-Serif" font-size="10.00">fuzzer::Fuzzer::Merge</text>
</a>
</g>
</g>
<!-- Node28&#45;&gt;Node29 -->
<g id="edge33" class="edge">
<title>Node28&#45;&gt;Node29</title>
<path fill="none" stroke="midnightblue" d="M422.39,-27.72C405.11,-30.48 387.02,-33.37 370.57,-35.99"/>
<polygon fill="midnightblue" stroke="midnightblue" points="423.13,-31.15 432.45,-26.12 422.03,-24.24 423.13,-31.15"/>
</g>
<!-- Node29&#45;&gt;Node18 -->
<g id="edge34" class="edge">
<title>Node29&#45;&gt;Node18</title>
<path fill="none" stroke="midnightblue" d="M284.27,-60.36C269.52,-69.59 250.68,-82.03 235,-94.5 200.85,-121.66 164.51,-158.63 148.04,-175.89"/>
<polygon fill="midnightblue" stroke="midnightblue" points="286.18,-63.29 292.85,-55.06 282.51,-57.34 286.18,-63.29"/>
</g>
<!-- Node30&#45;&gt;Node24 -->
<g id="edge38" class="edge">
<title>Node30&#45;&gt;Node24</title>
<path fill="none" stroke="midnightblue" d="M431.47,-82.1C403.16,-89.48 371.37,-97.77 347.56,-103.97"/>
<polygon fill="midnightblue" stroke="midnightblue" points="432.52,-85.44 441.32,-79.53 430.76,-78.67 432.52,-85.44"/>
</g>
</g>
</svg>
        <g id="navigator" transform="translate(0 0)" fill="#404254">
                <rect fill="#f2f5e9" fill-opacity="0.5" stroke="#606060" stroke-width=".5" x="0" y="0" width="60" height="60"/>
                <use id="zoomplus" xlink:href="#zoomPlus" x="17" y="9" onmousedown="handleZoom(evt,'in')"/>
                <use id="zoomminus" xlink:href="#zoomMin" x="42" y="9" onmousedown="handleZoom(evt,'out')"/>
                <use id="reset" xlink:href="#resetDef" x="30" y="36" onmousedown="handleReset()"/>
                <g id="arrowUp" xlink:href="#dirArrow" transform="translate(30 24)" onmousedown="handlePan(0,-1)">
                  <use xlink:href="#rim" fill="#404040">
                        <set attributeName="fill" to="#808080" begin="arrowUp.mouseover" end="arrowUp.mouseout"/>
                  </use>
                  <path fill="none" stroke="white" stroke-width="1.5" d="M0,-3.0v7 M-2.5,-0.5L0,-3.0L2.5,-0.5"/>
                </g>
                <g id="arrowRight" xlink:href="#dirArrow" transform="rotate(90) translate(36 -43)" onmousedown="handlePan(1,0)">
                  <use xlink:href="#rim" fill="#404040">
                        <set attributeName="fill" to="#808080" begin="arrowRight.mouseover" end="arrowRight.mouseout"/>
                  </use>
                  <path fill="none" stroke="white" stroke-width="1.5" d="M0,-3.0v7 M-2.5,-0.5L0,-3.0L2.5,-0.5"/>
                </g>
                <g id="arrowDown" xlink:href="#dirArrow" transform="rotate(180) translate(-30 -48)" onmousedown="handlePan(0,1)">
                  <use xlink:href="#rim" fill="#404040">
                        <set attributeName="fill" to="#808080" begin="arrowDown.mouseover" end="arrowDown.mouseout"/>
                  </use>
                  <path fill="none" stroke="white" stroke-width="1.5" d="M0,-3.0v7 M-2.5,-0.5L0,-3.0L2.5,-0.5"/>
                </g>
                <g id="arrowLeft" xlink:href="#dirArrow" transform="rotate(270) translate(-36 17)" onmousedown="handlePan(-1,0)">
                  <use xlink:href="#rim" fill="#404040">
                        <set attributeName="fill" to="#808080" begin="arrowLeft.mouseover" end="arrowLeft.mouseout"/>
                  </use>
                  <path fill="none" stroke="white" stroke-width="1.5" d="M0,-3.0v7 M-2.5,-0.5L0,-3.0L2.5,-0.5"/>
                </g>
        </g>
        <svg viewBox="0 0 15 15" width="100%" height="30px" preserveAspectRatio="xMaxYMin meet">
         <g id="arrow_out" transform="scale(0.3 0.3)">
          <a xlink:href="namespacefuzzer_a44a66f71305943a3525b2f546673f0f5_icgraph_org.svg" target="_base">
           <rect id="button" ry="5" rx="5" y="6" x="6" height="38" width="38"
                fill="#f2f5e9" fill-opacity="0.5" stroke="#606060" stroke-width="1.0"/>
           <path id="arrow"
             d="M 11.500037,31.436501 C 11.940474,20.09759 22.043105,11.32322 32.158766,21.979434 L 37.068811,17.246167 C 37.068811,17.246167 37.088388,32 37.088388,32 L 22.160133,31.978069 C 22.160133,31.978069 26.997745,27.140456 26.997745,27.140456 C 18.528582,18.264221 13.291696,25.230495 11.500037,31.436501 z"
             style="fill:#404040;"/>
          </a>
         </g>
        </svg>
</svg>
