<?xml version="1.0" encoding="UTF-8" standalone="no"?>
<!DOCTYPE svg PUBLIC "-//W3C//DTD SVG 1.1//EN"
 "http://www.w3.org/Graphics/SVG/1.1/DTD/svg11.dtd">
<!-- Generated by graphviz version 2.43.0 (0)
 -->
<!-- Title: httplib::detail::random_string Pages: 1 -->
<!--zoomable 362 -->
<svg id="main" version="1.1" xmlns="http://www.w3.org/2000/svg" xmlns:xlink="http://www.w3.org/1999/xlink" xml:space="preserve" onload="init(evt)">
<style type="text/css"><![CDATA[
.edge:hover path { stroke: red; }
.edge:hover polygon { stroke: red; fill: red; }
]]></style>
<script type="text/javascript"><![CDATA[
var edges = document.getElementsByTagName('g');
if (edges && edges.length) {
  for (var i=0;i<edges.length;i++) {
    if (edges[i].id.substr(0,4)=='edge') {
      edges[i].setAttribute('class','edge');
    }
  }
}
]]></script>
        <defs>
                <circle id="rim" cx="0" cy="0" r="7"/>
                <circle id="rim2" cx="0" cy="0" r="3.5"/>
                <g id="zoomPlus">
                        <use xlink:href="#rim" fill="#404040">
                                <set attributeName="fill" to="#808080" begin="zoomplus.mouseover" end="zoomplus.mouseout"/>
                        </use>
                        <path d="M-4,0h8M0,-4v8" fill="none" stroke="white" stroke-width="1.5" pointer-events="none"/>
                </g>
                <g id="zoomMin">
                        <use xlink:href="#rim" fill="#404040">
                                <set attributeName="fill" to="#808080" begin="zoomminus.mouseover" end="zoomminus.mouseout"/>
                        </use>
                        <path d="M-4,0h8" fill="none" stroke="white" stroke-width="1.5" pointer-events="none"/>
                </g>
                <g id="dirArrow">
                        <path fill="none" stroke="white" stroke-width="1.5" d="M0,-3.0v7 M-2.5,-0.5L0,-3.0L2.5,-0.5"/>
                </g>
               <g id="resetDef">
                       <use xlink:href="#rim2" fill="#404040">
                               <set attributeName="fill" to="#808080" begin="reset.mouseover" end="reset.mouseout"/>
                       </use>
               </g>
        </defs>

<script type="text/javascript">
var viewWidth = 1140;
var viewHeight = 362;
var sectionId = 'dynsection-82';
</script>
<script xlink:href="svgpan.js"/>
<svg id="graph" class="graph">
<g id="viewport">
<title>httplib::detail::random_string</title>
<polygon fill="white" stroke="transparent" points="-4,4 -4,-357.5 1136,-357.5 1136,4 -4,4"/>
<!-- Node1 -->
<g id="node1" class="node">
<title>Node1</title>
<g id="a_node1"><a xlink:title=" ">
<polygon fill="#bfbfbf" stroke="black" points="1007,-90 1007,-120 1132,-120 1132,-90 1007,-90"/>
<text text-anchor="start" x="1015" y="-108" font-family="Helvetica,sans-Serif" font-size="10.00">httplib::detail::random</text>
<text text-anchor="middle" x="1069.5" y="-97" font-family="Helvetica,sans-Serif" font-size="10.00">_string</text>
</a>
</g>
</g>
<!-- Node2 -->
<g id="node2" class="node">
<title>Node2</title>
<g id="a_node2"><a xlink:href="classhttplib_1_1ClientImpl.html#ac4e30af906067369892520eccd85c038" target="_top" xlink:title=" ">
<polygon fill="white" stroke="black" points="846.5,-137 846.5,-167 950.5,-167 950.5,-137 846.5,-137"/>
<text text-anchor="start" x="854.5" y="-155" font-family="Helvetica,sans-Serif" font-size="10.00">httplib::ClientImpl</text>
<text text-anchor="middle" x="898.5" y="-144" font-family="Helvetica,sans-Serif" font-size="10.00">::handle_request</text>
</a>
</g>
</g>
<!-- Node1&#45;&gt;Node2 -->
<g id="edge1" class="edge">
<title>Node1&#45;&gt;Node2</title>
<path fill="none" stroke="midnightblue" d="M1004.78,-122.72C986.89,-127.7 967.68,-133.04 950.62,-137.78"/>
<polygon fill="midnightblue" stroke="midnightblue" points="1005.87,-126.05 1014.56,-120 1003.99,-119.31 1005.87,-126.05"/>
</g>
<!-- Node15 -->
<g id="node15" class="node">
<title>Node15</title>
<g id="a_node15"><a xlink:href="namespacehttplib_1_1detail.html#ae144d55905f9808c3abae6e20bd9367a" target="_top" xlink:title=" ">
<polygon fill="white" stroke="black" points="826,-66 826,-96 971,-96 971,-66 826,-66"/>
<text text-anchor="start" x="834" y="-84" font-family="Helvetica,sans-Serif" font-size="10.00">httplib::detail::make</text>
<text text-anchor="middle" x="898.5" y="-73" font-family="Helvetica,sans-Serif" font-size="10.00">_multipart_data_boundary</text>
</a>
</g>
</g>
<!-- Node1&#45;&gt;Node15 -->
<g id="edge15" class="edge">
<title>Node1&#45;&gt;Node15</title>
<path fill="none" stroke="midnightblue" d="M996.44,-94.77C988.07,-93.58 979.55,-92.37 971.19,-91.18"/>
<polygon fill="midnightblue" stroke="midnightblue" points="996.14,-98.26 1006.53,-96.2 997.12,-91.33 996.14,-98.26"/>
</g>
<!-- Node3 -->
<g id="node3" class="node">
<title>Node3</title>
<g id="a_node3"><a xlink:href="classhttplib_1_1ClientImpl.html#ab783868da89488b0bf734e8d83b5e569" target="_top" xlink:title=" ">
<polygon fill="white" stroke="black" points="675,-211 675,-241 779,-241 779,-211 675,-211"/>
<text text-anchor="start" x="683" y="-229" font-family="Helvetica,sans-Serif" font-size="10.00">httplib::ClientImpl</text>
<text text-anchor="middle" x="727" y="-218" font-family="Helvetica,sans-Serif" font-size="10.00">::send_</text>
</a>
</g>
</g>
<!-- Node2&#45;&gt;Node3 -->
<g id="edge2" class="edge">
<title>Node2&#45;&gt;Node3</title>
<path fill="none" stroke="midnightblue" d="M853.49,-171.21C825.08,-183.62 788.65,-199.52 762.37,-210.99"/>
<polygon fill="midnightblue" stroke="midnightblue" points="855.03,-174.36 862.79,-167.15 852.23,-167.95 855.03,-174.36"/>
</g>
<!-- Node4 -->
<g id="node4" class="node">
<title>Node4</title>
<g id="a_node4"><a xlink:href="classhttplib_1_1ClientImpl.html#a5973f9c3afa13416417fd7a317eb811b" target="_top" xlink:title=" ">
<polygon fill="white" stroke="black" points="512,-323 512,-353 616,-353 616,-323 512,-323"/>
<text text-anchor="start" x="520" y="-341" font-family="Helvetica,sans-Serif" font-size="10.00">httplib::ClientImpl</text>
<text text-anchor="middle" x="564" y="-330" font-family="Helvetica,sans-Serif" font-size="10.00">::Delete</text>
</a>
</g>
</g>
<!-- Node3&#45;&gt;Node4 -->
<g id="edge3" class="edge">
<title>Node3&#45;&gt;Node4</title>
<path fill="none" stroke="midnightblue" d="M704.89,-248.75C686.16,-267.89 657.29,-294.97 628,-313 621.99,-316.7 615.33,-320.04 608.67,-322.99"/>
<polygon fill="midnightblue" stroke="midnightblue" points="707.62,-250.96 712.03,-241.33 702.58,-246.1 707.62,-250.96"/>
</g>
<!-- Node5 -->
<g id="node5" class="node">
<title>Node5</title>
<g id="a_node5"><a xlink:href="classhttplib_1_1ClientImpl.html#ad073f1945ddc13fc4778449739430889" target="_top" xlink:title=" ">
<polygon fill="white" stroke="black" points="500,-284.5 500,-303.5 628,-303.5 628,-284.5 500,-284.5"/>
<text text-anchor="middle" x="564" y="-291.5" font-family="Helvetica,sans-Serif" font-size="10.00">httplib::ClientImpl::Get</text>
</a>
</g>
</g>
<!-- Node3&#45;&gt;Node5 -->
<g id="edge4" class="edge">
<title>Node3&#45;&gt;Node5</title>
<path fill="none" stroke="midnightblue" d="M690.27,-245.71C671.98,-255.32 649.17,-266.59 628,-275 619.19,-278.5 609.47,-281.73 600.35,-284.49"/>
<polygon fill="midnightblue" stroke="midnightblue" points="691.93,-248.79 699.11,-241.01 688.64,-242.61 691.93,-248.79"/>
</g>
<!-- Node6 -->
<g id="node6" class="node">
<title>Node6</title>
<g id="a_node6"><a xlink:href="classhttplib_1_1ClientImpl.html#adf64c589c0334ccd516905484140e0d1" target="_top" xlink:title=" ">
<polygon fill="white" stroke="black" points="512,-235 512,-265 616,-265 616,-235 512,-235"/>
<text text-anchor="start" x="520" y="-253" font-family="Helvetica,sans-Serif" font-size="10.00">httplib::ClientImpl</text>
<text text-anchor="middle" x="564" y="-242" font-family="Helvetica,sans-Serif" font-size="10.00">::Head</text>
</a>
</g>
</g>
<!-- Node3&#45;&gt;Node6 -->
<g id="edge5" class="edge">
<title>Node3&#45;&gt;Node6</title>
<path fill="none" stroke="midnightblue" d="M664.34,-235.19C648.43,-237.56 631.48,-240.09 616.17,-242.37"/>
<polygon fill="midnightblue" stroke="midnightblue" points="665.24,-238.6 674.62,-233.66 664.21,-231.67 665.24,-238.6"/>
</g>
<!-- Node7 -->
<g id="node7" class="node">
<title>Node7</title>
<g id="a_node7"><a xlink:href="classhttplib_1_1ClientImpl.html#a0de10ef5e77b7c6cc83674bd86bc2e8a" target="_top" xlink:title=" ">
<polygon fill="white" stroke="black" points="512,-186 512,-216 616,-216 616,-186 512,-186"/>
<text text-anchor="start" x="520" y="-204" font-family="Helvetica,sans-Serif" font-size="10.00">httplib::ClientImpl</text>
<text text-anchor="middle" x="564" y="-193" font-family="Helvetica,sans-Serif" font-size="10.00">::Options</text>
</a>
</g>
</g>
<!-- Node3&#45;&gt;Node7 -->
<g id="edge6" class="edge">
<title>Node3&#45;&gt;Node7</title>
<path fill="none" stroke="midnightblue" d="M664.34,-216.43C648.43,-213.96 631.48,-211.32 616.17,-208.95"/>
<polygon fill="midnightblue" stroke="midnightblue" points="664.2,-219.95 674.62,-218.02 665.27,-213.03 664.2,-219.95"/>
</g>
<!-- Node8 -->
<g id="node8" class="node">
<title>Node8</title>
<g id="a_node8"><a xlink:href="classhttplib_1_1ClientImpl.html#a618895e4b137663691fdc41fd998b843" target="_top" xlink:title=" ">
<polygon fill="white" stroke="black" points="512,-137 512,-167 616,-167 616,-137 512,-137"/>
<text text-anchor="start" x="520" y="-155" font-family="Helvetica,sans-Serif" font-size="10.00">httplib::ClientImpl</text>
<text text-anchor="middle" x="564" y="-144" font-family="Helvetica,sans-Serif" font-size="10.00">::send</text>
</a>
</g>
</g>
<!-- Node3&#45;&gt;Node8 -->
<g id="edge7" class="edge">
<title>Node3&#45;&gt;Node8</title>
<path fill="none" stroke="midnightblue" d="M688.51,-206.31C670.4,-197.04 648.26,-186.06 628,-177 620.48,-173.64 612.36,-170.24 604.54,-167.09"/>
<polygon fill="midnightblue" stroke="midnightblue" points="687.09,-209.51 697.58,-210.98 690.29,-203.29 687.09,-209.51"/>
</g>
<!-- Node8&#45;&gt;Node2 -->
<g id="edge8" class="edge">
<title>Node8&#45;&gt;Node2</title>
<path fill="none" stroke="midnightblue" d="M626.24,-152C689.46,-152 787,-152 846.28,-152"/>
<polygon fill="midnightblue" stroke="midnightblue" points="626.01,-148.5 616.01,-152 626.01,-155.5 626.01,-148.5"/>
</g>
<!-- Node9 -->
<g id="node9" class="node">
<title>Node9</title>
<g id="a_node9"><a xlink:href="classhttplib_1_1ClientImpl.html#ab81f0f3ff5031d8bb231928318cd95ff" target="_top" xlink:title=" ">
<polygon fill="white" stroke="black" points="345,-192 345,-222 449,-222 449,-192 345,-192"/>
<text text-anchor="start" x="353" y="-210" font-family="Helvetica,sans-Serif" font-size="10.00">httplib::ClientImpl</text>
<text text-anchor="middle" x="397" y="-199" font-family="Helvetica,sans-Serif" font-size="10.00">::send_</text>
</a>
</g>
</g>
<!-- Node8&#45;&gt;Node9 -->
<g id="edge9" class="edge">
<title>Node8&#45;&gt;Node9</title>
<path fill="none" stroke="midnightblue" d="M508.39,-170.2C487.2,-177.27 463.22,-185.26 443.03,-191.99"/>
<polygon fill="midnightblue" stroke="midnightblue" points="509.53,-173.51 517.91,-167.03 507.32,-166.87 509.53,-173.51"/>
</g>
<!-- Node10 -->
<g id="node10" class="node">
<title>Node10</title>
<g id="a_node10"><a xlink:href="classhttplib_1_1ClientImpl.html#ab3169b93b50fca58a21f2db0a2bdea88" target="_top" xlink:title=" ">
<polygon fill="white" stroke="black" points="340,-131.5 340,-172.5 454,-172.5 454,-131.5 340,-131.5"/>
<text text-anchor="start" x="348" y="-160.5" font-family="Helvetica,sans-Serif" font-size="10.00">httplib::ClientImpl</text>
<text text-anchor="start" x="348" y="-149.5" font-family="Helvetica,sans-Serif" font-size="10.00">::send_with_content</text>
<text text-anchor="middle" x="397" y="-138.5" font-family="Helvetica,sans-Serif" font-size="10.00">_provider</text>
</a>
</g>
</g>
<!-- Node8&#45;&gt;Node10 -->
<g id="edge10" class="edge">
<title>Node8&#45;&gt;Node10</title>
<path fill="none" stroke="midnightblue" d="M501.65,-152C486.08,-152 469.44,-152 454.15,-152"/>
<polygon fill="midnightblue" stroke="midnightblue" points="501.7,-155.5 511.7,-152 501.7,-148.5 501.7,-155.5"/>
</g>
<!-- Node11 -->
<g id="node11" class="node">
<title>Node11</title>
<g id="a_node11"><a xlink:href="classhttplib_1_1ClientImpl.html#ad454e536598fa610080587d8516b5c80" target="_top" xlink:title=" ">
<polygon fill="white" stroke="black" points="177.5,-230 177.5,-260 281.5,-260 281.5,-230 177.5,-230"/>
<text text-anchor="start" x="185.5" y="-248" font-family="Helvetica,sans-Serif" font-size="10.00">httplib::ClientImpl</text>
<text text-anchor="middle" x="229.5" y="-237" font-family="Helvetica,sans-Serif" font-size="10.00">::Patch</text>
</a>
</g>
</g>
<!-- Node10&#45;&gt;Node11 -->
<g id="edge11" class="edge">
<title>Node10&#45;&gt;Node11</title>
<path fill="none" stroke="midnightblue" d="M338.2,-177.54C335.37,-179.29 332.62,-181.11 330,-183 311.14,-196.63 313.37,-208.12 294,-221 289,-224.33 283.46,-227.28 277.82,-229.88"/>
<polygon fill="midnightblue" stroke="midnightblue" points="339.97,-180.56 346.88,-172.52 336.47,-174.5 339.97,-180.56"/>
</g>
<!-- Node12 -->
<g id="node12" class="node">
<title>Node12</title>
<g id="a_node12"><a xlink:href="classhttplib_1_1ClientImpl.html#a31fe4e8466d44dc45e28d3e68db05e01" target="_top" xlink:title=" ">
<polygon fill="white" stroke="black" points="177.5,-181 177.5,-211 281.5,-211 281.5,-181 177.5,-181"/>
<text text-anchor="start" x="185.5" y="-199" font-family="Helvetica,sans-Serif" font-size="10.00">httplib::ClientImpl</text>
<text text-anchor="middle" x="229.5" y="-188" font-family="Helvetica,sans-Serif" font-size="10.00">::Post</text>
</a>
</g>
</g>
<!-- Node10&#45;&gt;Node12 -->
<g id="edge12" class="edge">
<title>Node10&#45;&gt;Node12</title>
<path fill="none" stroke="midnightblue" d="M330.09,-169.52C314,-173.8 297.03,-178.31 281.74,-182.38"/>
<polygon fill="midnightblue" stroke="midnightblue" points="331.2,-172.85 339.97,-166.9 329.41,-166.08 331.2,-172.85"/>
</g>
<!-- Node13 -->
<g id="node13" class="node">
<title>Node13</title>
<g id="a_node13"><a xlink:href="classhttplib_1_1ClientImpl.html#a048987c16a2f45382c1bb0d2102e4873" target="_top" xlink:title=" ">
<polygon fill="white" stroke="black" points="166.5,-142.5 166.5,-161.5 292.5,-161.5 292.5,-142.5 166.5,-142.5"/>
<text text-anchor="middle" x="229.5" y="-149.5" font-family="Helvetica,sans-Serif" font-size="10.00">httplib::ClientImpl::Put</text>
</a>
</g>
</g>
<!-- Node10&#45;&gt;Node13 -->
<g id="edge13" class="edge">
<title>Node10&#45;&gt;Node13</title>
<path fill="none" stroke="midnightblue" d="M329.83,-152C317.59,-152 304.85,-152 292.73,-152"/>
<polygon fill="midnightblue" stroke="midnightblue" points="329.97,-155.5 339.97,-152 329.97,-148.5 329.97,-155.5"/>
</g>
<!-- Node14 -->
<g id="node14" class="node">
<title>Node14</title>
<g id="a_node14"><a xlink:href="classhttplib_1_1ClientImpl.html#ac9d400990790ff3aa7f3639392181ddb" target="_top" xlink:title=" ">
<polygon fill="white" stroke="black" points="172.5,-82.5 172.5,-123.5 286.5,-123.5 286.5,-82.5 172.5,-82.5"/>
<text text-anchor="start" x="180.5" y="-111.5" font-family="Helvetica,sans-Serif" font-size="10.00">httplib::ClientImpl</text>
<text text-anchor="start" x="180.5" y="-100.5" font-family="Helvetica,sans-Serif" font-size="10.00">::send_with_content</text>
<text text-anchor="middle" x="229.5" y="-89.5" font-family="Helvetica,sans-Serif" font-size="10.00">_provider</text>
</a>
</g>
</g>
<!-- Node10&#45;&gt;Node14 -->
<g id="edge14" class="edge">
<title>Node10&#45;&gt;Node14</title>
<path fill="none" stroke="midnightblue" d="M330.16,-132.51C315.79,-128.25 300.71,-123.79 286.75,-119.66"/>
<polygon fill="midnightblue" stroke="midnightblue" points="329.39,-135.93 339.97,-135.41 331.37,-129.22 329.39,-135.93"/>
</g>
<!-- Node16 -->
<g id="node16" class="node">
<title>Node16</title>
<g id="a_node16"><a xlink:href="classhttplib_1_1Server.html#a57867122abf5979387bc3b704f877752" target="_top" xlink:title=" ">
<polygon fill="white" stroke="black" points="667.5,-88 667.5,-118 786.5,-118 786.5,-88 667.5,-88"/>
<text text-anchor="start" x="675.5" y="-106" font-family="Helvetica,sans-Serif" font-size="10.00">httplib::Server::apply</text>
<text text-anchor="middle" x="727" y="-95" font-family="Helvetica,sans-Serif" font-size="10.00">_ranges</text>
</a>
</g>
</g>
<!-- Node15&#45;&gt;Node16 -->
<g id="edge16" class="edge">
<title>Node15&#45;&gt;Node16</title>
<path fill="none" stroke="midnightblue" d="M815.51,-91.64C805.77,-92.91 795.98,-94.18 786.66,-95.39"/>
<polygon fill="midnightblue" stroke="midnightblue" points="816.15,-95.09 825.62,-90.33 815.25,-88.15 816.15,-95.09"/>
</g>
<!-- Node22 -->
<g id="node22" class="node">
<title>Node22</title>
<g id="a_node22"><a xlink:href="classhttplib_1_1ClientImpl.html#a2273f2235e5f3004768d2792fc765f75" target="_top" xlink:title=" ">
<polygon fill="white" stroke="black" points="675,-39 675,-69 779,-69 779,-39 675,-39"/>
<text text-anchor="start" x="683" y="-57" font-family="Helvetica,sans-Serif" font-size="10.00">httplib::ClientImpl</text>
<text text-anchor="middle" x="727" y="-46" font-family="Helvetica,sans-Serif" font-size="10.00">::Post</text>
</a>
</g>
</g>
<!-- Node15&#45;&gt;Node22 -->
<g id="edge23" class="edge">
<title>Node15&#45;&gt;Node22</title>
<path fill="none" stroke="midnightblue" d="M815.68,-67.97C803.24,-65.99 790.72,-63.99 779.18,-62.15"/>
<polygon fill="midnightblue" stroke="midnightblue" points="815.19,-71.43 825.62,-69.55 816.29,-64.52 815.19,-71.43"/>
</g>
<!-- Node23 -->
<g id="node23" class="node">
<title>Node23</title>
<g id="a_node23"><a xlink:href="classhttplib_1_1ClientImpl.html#aa44b2dd8bc2c26d9e5cd1d9a8387bd06" target="_top" xlink:title=" ">
<polygon fill="white" stroke="black" points="664,-0.5 664,-19.5 790,-19.5 790,-0.5 664,-0.5"/>
<text text-anchor="middle" x="727" y="-7.5" font-family="Helvetica,sans-Serif" font-size="10.00">httplib::ClientImpl::Put</text>
</a>
</g>
</g>
<!-- Node15&#45;&gt;Node23 -->
<g id="edge24" class="edge">
<title>Node15&#45;&gt;Node23</title>
<path fill="none" stroke="midnightblue" d="M860.32,-61.27C839.9,-50.89 813.93,-38.39 790,-29 781.2,-25.55 771.5,-22.31 762.43,-19.53"/>
<polygon fill="midnightblue" stroke="midnightblue" points="858.79,-64.42 869.29,-65.88 861.99,-58.2 858.79,-64.42"/>
</g>
<!-- Node17 -->
<g id="node17" class="node">
<title>Node17</title>
<g id="a_node17"><a xlink:href="classhttplib_1_1Server.html#a01c6136577d21b708780a9e42de992d6" target="_top" xlink:title=" ">
<polygon fill="white" stroke="black" points="506,-82 506,-112 622,-112 622,-82 506,-82"/>
<text text-anchor="start" x="514" y="-100" font-family="Helvetica,sans-Serif" font-size="10.00">httplib::Server::write</text>
<text text-anchor="middle" x="564" y="-89" font-family="Helvetica,sans-Serif" font-size="10.00">_response_core</text>
</a>
</g>
</g>
<!-- Node16&#45;&gt;Node17 -->
<g id="edge17" class="edge">
<title>Node16&#45;&gt;Node17</title>
<path fill="none" stroke="midnightblue" d="M657.26,-100.44C645.57,-100 633.54,-99.55 622.19,-99.13"/>
<polygon fill="midnightblue" stroke="midnightblue" points="657.3,-103.94 667.42,-100.82 657.56,-96.95 657.3,-103.94"/>
</g>
<!-- Node18 -->
<g id="node18" class="node">
<title>Node18</title>
<g id="a_node18"><a xlink:href="classhttplib_1_1Server.html#a61f782f1492b13d525ddec03b2412797" target="_top" xlink:title=" ">
<polygon fill="white" stroke="black" points="339,-82 339,-112 455,-112 455,-82 339,-82"/>
<text text-anchor="start" x="347" y="-100" font-family="Helvetica,sans-Serif" font-size="10.00">httplib::Server::write</text>
<text text-anchor="middle" x="397" y="-89" font-family="Helvetica,sans-Serif" font-size="10.00">_response</text>
</a>
</g>
</g>
<!-- Node17&#45;&gt;Node18 -->
<g id="edge18" class="edge">
<title>Node17&#45;&gt;Node18</title>
<path fill="none" stroke="midnightblue" d="M495.61,-97C482.18,-97 468.19,-97 455.14,-97"/>
<polygon fill="midnightblue" stroke="midnightblue" points="495.75,-100.5 505.75,-97 495.75,-93.5 495.75,-100.5"/>
</g>
<!-- Node21 -->
<g id="node21" class="node">
<title>Node21</title>
<g id="a_node21"><a xlink:href="classhttplib_1_1Server.html#a1e7f1269fb97140ed003e6e1f64210c1" target="_top" xlink:title=" ">
<polygon fill="white" stroke="black" points="330,-33 330,-63 464,-63 464,-33 330,-33"/>
<text text-anchor="start" x="338" y="-51" font-family="Helvetica,sans-Serif" font-size="10.00">httplib::Server::write</text>
<text text-anchor="middle" x="397" y="-40" font-family="Helvetica,sans-Serif" font-size="10.00">_response_with_content</text>
</a>
</g>
</g>
<!-- Node17&#45;&gt;Node21 -->
<g id="edge21" class="edge">
<title>Node17&#45;&gt;Node21</title>
<path fill="none" stroke="midnightblue" d="M502.5,-79.03C484.82,-73.78 465.69,-68.1 448.68,-63.05"/>
<polygon fill="midnightblue" stroke="midnightblue" points="501.57,-82.41 512.15,-81.9 503.56,-75.7 501.57,-82.41"/>
</g>
<!-- Node19 -->
<g id="node19" class="node">
<title>Node19</title>
<g id="a_node19"><a xlink:href="classhttplib_1_1Server.html#a4e7c7c79cced3d61082df30b3eb97ed2" target="_top" xlink:title=" ">
<polygon fill="white" stroke="black" points="165,-33 165,-63 294,-63 294,-33 165,-33"/>
<text text-anchor="start" x="173" y="-51" font-family="Helvetica,sans-Serif" font-size="10.00">httplib::Server::process</text>
<text text-anchor="middle" x="229.5" y="-40" font-family="Helvetica,sans-Serif" font-size="10.00">_request</text>
</a>
</g>
</g>
<!-- Node18&#45;&gt;Node19 -->
<g id="edge19" class="edge">
<title>Node18&#45;&gt;Node19</title>
<path fill="none" stroke="midnightblue" d="M335.32,-79.03C317.58,-73.78 298.39,-68.1 281.34,-63.05"/>
<polygon fill="midnightblue" stroke="midnightblue" points="334.41,-82.42 344.99,-81.9 336.4,-75.7 334.41,-82.42"/>
</g>
<!-- Node20 -->
<g id="node20" class="node">
<title>Node20</title>
<g id="a_node20"><a xlink:href="classhttplib_1_1Server.html#a28221db99b5a35e45515553fdb9458a0" target="_top" xlink:title=" ">
<polygon fill="white" stroke="black" points="0,-33 0,-63 129,-63 129,-33 0,-33"/>
<text text-anchor="start" x="8" y="-51" font-family="Helvetica,sans-Serif" font-size="10.00">httplib::Server::process</text>
<text text-anchor="middle" x="64.5" y="-40" font-family="Helvetica,sans-Serif" font-size="10.00">_and_close_socket</text>
</a>
</g>
</g>
<!-- Node19&#45;&gt;Node20 -->
<g id="edge20" class="edge">
<title>Node19&#45;&gt;Node20</title>
<path fill="none" stroke="midnightblue" d="M154.31,-48C145.86,-48 137.3,-48 129,-48"/>
<polygon fill="midnightblue" stroke="midnightblue" points="154.55,-51.5 164.55,-48 154.55,-44.5 154.55,-51.5"/>
</g>
<!-- Node21&#45;&gt;Node19 -->
<g id="edge22" class="edge">
<title>Node21&#45;&gt;Node19</title>
<path fill="none" stroke="midnightblue" d="M319.41,-48C310.97,-48 302.44,-48 294.19,-48"/>
<polygon fill="midnightblue" stroke="midnightblue" points="319.64,-51.5 329.64,-48 319.64,-44.5 319.64,-51.5"/>
</g>
</g>
</svg>
        <g id="navigator" transform="translate(0 0)" fill="#404254">
                <rect fill="#f2f5e9" fill-opacity="0.5" stroke="#606060" stroke-width=".5" x="0" y="0" width="60" height="60"/>
                <use id="zoomplus" xlink:href="#zoomPlus" x="17" y="9" onmousedown="handleZoom(evt,'in')"/>
                <use id="zoomminus" xlink:href="#zoomMin" x="42" y="9" onmousedown="handleZoom(evt,'out')"/>
                <use id="reset" xlink:href="#resetDef" x="30" y="36" onmousedown="handleReset()"/>
                <g id="arrowUp" xlink:href="#dirArrow" transform="translate(30 24)" onmousedown="handlePan(0,-1)">
                  <use xlink:href="#rim" fill="#404040">
                        <set attributeName="fill" to="#808080" begin="arrowUp.mouseover" end="arrowUp.mouseout"/>
                  </use>
                  <path fill="none" stroke="white" stroke-width="1.5" d="M0,-3.0v7 M-2.5,-0.5L0,-3.0L2.5,-0.5"/>
                </g>
                <g id="arrowRight" xlink:href="#dirArrow" transform="rotate(90) translate(36 -43)" onmousedown="handlePan(1,0)">
                  <use xlink:href="#rim" fill="#404040">
                        <set attributeName="fill" to="#808080" begin="arrowRight.mouseover" end="arrowRight.mouseout"/>
                  </use>
                  <path fill="none" stroke="white" stroke-width="1.5" d="M0,-3.0v7 M-2.5,-0.5L0,-3.0L2.5,-0.5"/>
                </g>
                <g id="arrowDown" xlink:href="#dirArrow" transform="rotate(180) translate(-30 -48)" onmousedown="handlePan(0,1)">
                  <use xlink:href="#rim" fill="#404040">
                        <set attributeName="fill" to="#808080" begin="arrowDown.mouseover" end="arrowDown.mouseout"/>
                  </use>
                  <path fill="none" stroke="white" stroke-width="1.5" d="M0,-3.0v7 M-2.5,-0.5L0,-3.0L2.5,-0.5"/>
                </g>
                <g id="arrowLeft" xlink:href="#dirArrow" transform="rotate(270) translate(-36 17)" onmousedown="handlePan(-1,0)">
                  <use xlink:href="#rim" fill="#404040">
                        <set attributeName="fill" to="#808080" begin="arrowLeft.mouseover" end="arrowLeft.mouseout"/>
                  </use>
                  <path fill="none" stroke="white" stroke-width="1.5" d="M0,-3.0v7 M-2.5,-0.5L0,-3.0L2.5,-0.5"/>
                </g>
        </g>
        <svg viewBox="0 0 15 15" width="100%" height="30px" preserveAspectRatio="xMaxYMin meet">
         <g id="arrow_out" transform="scale(0.3 0.3)">
          <a xlink:href="namespacehttplib_1_1detail_aa473f5aff2d646f2801456f003183b1b_icgraph_org.svg" target="_base">
           <rect id="button" ry="5" rx="5" y="6" x="6" height="38" width="38"
                fill="#f2f5e9" fill-opacity="0.5" stroke="#606060" stroke-width="1.0"/>
           <path id="arrow"
             d="M 11.500037,31.436501 C 11.940474,20.09759 22.043105,11.32322 32.158766,21.979434 L 37.068811,17.246167 C 37.068811,17.246167 37.088388,32 37.088388,32 L 22.160133,31.978069 C 22.160133,31.978069 26.997745,27.140456 26.997745,27.140456 C 18.528582,18.264221 13.291696,25.230495 11.500037,31.436501 z"
             style="fill:#404040;"/>
          </a>
         </g>
        </svg>
</svg>
