<?xml version="1.0" encoding="UTF-8" standalone="no"?>
<!DOCTYPE svg PUBLIC "-//W3C//DTD SVG 1.1//EN"
 "http://www.w3.org/Graphics/SVG/1.1/DTD/svg11.dtd">
<!-- Generated by graphviz version 2.43.0 (0)
 -->
<!-- Title: fuzzer::RandCh Pages: 1 -->
<svg width="440pt" height="28pt"
 viewBox="0.00 0.00 440.00 28.00" xmlns="http://www.w3.org/2000/svg" xmlns:xlink="http://www.w3.org/1999/xlink">
<g id="graph0" class="graph" transform="scale(1 1) rotate(0) translate(4 24)">
<title>fuzzer::RandCh</title>
<polygon fill="white" stroke="transparent" points="-4,4 -4,-24 436,-24 436,4 -4,4"/>
<!-- Node1 -->
<g id="node1" class="node">
<title>Node1</title>
<g id="a_node1"><a xlink:title=" ">
<polygon fill="#bfbfbf" stroke="black" points="0,-0.5 0,-19.5 90,-19.5 90,-0.5 0,-0.5"/>
<text text-anchor="middle" x="45" y="-7.5" font-family="Helvetica,sans-Serif" font-size="10.00">fuzzer::RandCh</text>
</a>
</g>
</g>
<!-- Node2 -->
<g id="node2" class="node">
<title>Node2</title>
<g id="a_node2"><a xlink:href="classfuzzer_1_1Random.html#ad1b676d839fb8857db1e222f4c8d66a8" target="_top" xlink:title=" ">
<polygon fill="white" stroke="black" points="126,-0.5 126,-19.5 272,-19.5 272,-0.5 126,-0.5"/>
<text text-anchor="middle" x="199" y="-7.5" font-family="Helvetica,sans-Serif" font-size="10.00">fuzzer::Random::RandBool</text>
</a>
</g>
</g>
<!-- Node1&#45;&gt;Node2 -->
<g id="edge1" class="edge">
<title>Node1&#45;&gt;Node2</title>
<path fill="none" stroke="midnightblue" d="M90.37,-10C98.37,-10 106.94,-10 115.62,-10"/>
<polygon fill="midnightblue" stroke="midnightblue" points="115.83,-13.5 125.83,-10 115.83,-6.5 115.83,-13.5"/>
</g>
<!-- Node3 -->
<g id="node3" class="node">
<title>Node3</title>
<g id="a_node3"><a xlink:href="classfuzzer_1_1Random.html#afe62c39a4f5590cf858998e73aad3a23" target="_top" xlink:title=" ">
<polygon fill="white" stroke="black" points="308,-0.5 308,-19.5 432,-19.5 432,-0.5 308,-0.5"/>
<text text-anchor="middle" x="370" y="-7.5" font-family="Helvetica,sans-Serif" font-size="10.00">fuzzer::Random::Rand</text>
</a>
</g>
</g>
<!-- Node2&#45;&gt;Node3 -->
<g id="edge2" class="edge">
<title>Node2&#45;&gt;Node3</title>
<path fill="none" stroke="midnightblue" d="M272.16,-10C280.64,-10 289.3,-10 297.77,-10"/>
<polygon fill="midnightblue" stroke="midnightblue" points="297.98,-13.5 307.98,-10 297.98,-6.5 297.98,-13.5"/>
</g>
</g>
</svg>
