<?xml version="1.0" encoding="UTF-8" standalone="no"?>
<!DOCTYPE svg PUBLIC "-//W3C//DTD SVG 1.1//EN"
 "http://www.w3.org/Graphics/SVG/1.1/DTD/svg11.dtd">
<!-- Generated by graphviz version 2.43.0 (0)
 -->
<!-- Title: fuzzer::CloneArgsWithoutX Pages: 1 -->
<svg width="587pt" height="154pt"
 viewBox="0.00 0.00 587.00 154.00" xmlns="http://www.w3.org/2000/svg" xmlns:xlink="http://www.w3.org/1999/xlink">
<g id="graph0" class="graph" transform="scale(1 1) rotate(0) translate(4 150)">
<title>fuzzer::CloneArgsWithoutX</title>
<polygon fill="white" stroke="transparent" points="-4,4 -4,-150 583,-150 583,4 -4,4"/>
<!-- Node1 -->
<g id="node1" class="node">
<title>Node1</title>
<g id="a_node1"><a xlink:title=" ">
<polygon fill="#bfbfbf" stroke="black" points="432,-60.5 432,-79.5 579,-79.5 579,-60.5 432,-60.5"/>
<text text-anchor="middle" x="505.5" y="-67.5" font-family="Helvetica,sans-Serif" font-size="10.00">fuzzer::CloneArgsWithoutX</text>
</a>
</g>
</g>
<!-- Node2 -->
<g id="node2" class="node">
<title>Node2</title>
<g id="a_node2"><a xlink:href="namespacefuzzer.html#ae6f142e79e9a73e936a99b592fe3df61" target="_top" xlink:title=" ">
<polygon fill="white" stroke="black" points="238,-126.5 238,-145.5 385,-145.5 385,-126.5 238,-126.5"/>
<text text-anchor="middle" x="311.5" y="-133.5" font-family="Helvetica,sans-Serif" font-size="10.00">fuzzer::CloneArgsWithoutX</text>
</a>
</g>
</g>
<!-- Node1&#45;&gt;Node2 -->
<g id="edge1" class="edge">
<title>Node1&#45;&gt;Node2</title>
<path fill="none" stroke="midnightblue" d="M476.09,-84.03C454.52,-94.26 423.92,-107.86 396,-117 384.98,-120.61 372.92,-123.78 361.48,-126.45"/>
<polygon fill="midnightblue" stroke="midnightblue" points="477.82,-87.08 485.32,-79.6 474.79,-80.77 477.82,-87.08"/>
</g>
<!-- Node3 -->
<g id="node3" class="node">
<title>Node3</title>
<g id="a_node3"><a xlink:href="classfuzzer_1_1Fuzzer.html#a3777acf379198d5339bf6baf0e9ad011" target="_top" xlink:title=" ">
<polygon fill="white" stroke="black" points="229.5,-77 229.5,-107 393.5,-107 393.5,-77 229.5,-77"/>
<text text-anchor="start" x="237.5" y="-95" font-family="Helvetica,sans-Serif" font-size="10.00">fuzzer::Fuzzer::CrashResistant</text>
<text text-anchor="middle" x="311.5" y="-84" font-family="Helvetica,sans-Serif" font-size="10.00">Merge</text>
</a>
</g>
</g>
<!-- Node1&#45;&gt;Node3 -->
<g id="edge2" class="edge">
<title>Node1&#45;&gt;Node3</title>
<path fill="none" stroke="midnightblue" d="M421.82,-79.47C412.45,-80.55 402.9,-81.64 393.55,-82.71"/>
<polygon fill="midnightblue" stroke="midnightblue" points="422.38,-82.93 431.91,-78.32 421.58,-75.98 422.38,-82.93"/>
</g>
<!-- Node6 -->
<g id="node6" class="node">
<title>Node6</title>
<g id="a_node6"><a xlink:href="namespacefuzzer.html#ad1a84d03ed48306c3319143e4412ef59" target="_top" xlink:title=" ">
<polygon fill="white" stroke="black" points="236.5,-38.5 236.5,-57.5 386.5,-57.5 386.5,-38.5 236.5,-38.5"/>
<text text-anchor="middle" x="311.5" y="-45.5" font-family="Helvetica,sans-Serif" font-size="10.00">fuzzer::MinimizeCrashInput</text>
</a>
</g>
</g>
<!-- Node1&#45;&gt;Node6 -->
<g id="edge5" class="edge">
<title>Node1&#45;&gt;Node6</title>
<path fill="none" stroke="midnightblue" d="M421.78,-60.52C410.14,-59.19 398.25,-57.83 386.79,-56.51"/>
<polygon fill="midnightblue" stroke="midnightblue" points="421.58,-64.02 431.91,-61.68 422.38,-57.07 421.58,-64.02"/>
</g>
<!-- Node7 -->
<g id="node7" class="node">
<title>Node7</title>
<g id="a_node7"><a xlink:href="namespacefuzzer.html#a66ccebca391e88379706dec03e918600" target="_top" xlink:title=" ">
<polygon fill="white" stroke="black" points="227,-0.5 227,-19.5 396,-19.5 396,-0.5 227,-0.5"/>
<text text-anchor="middle" x="311.5" y="-7.5" font-family="Helvetica,sans-Serif" font-size="10.00">fuzzer::RunInMultipleProcesses</text>
</a>
</g>
</g>
<!-- Node1&#45;&gt;Node7 -->
<g id="edge7" class="edge">
<title>Node1&#45;&gt;Node7</title>
<path fill="none" stroke="midnightblue" d="M472.68,-56.65C451.27,-48 422.25,-36.91 396,-29 384.33,-25.48 371.56,-22.27 359.61,-19.53"/>
<polygon fill="midnightblue" stroke="midnightblue" points="471.37,-59.9 481.95,-60.44 474.02,-53.42 471.37,-59.9"/>
</g>
<!-- Node4 -->
<g id="node4" class="node">
<title>Node4</title>
<g id="a_node4"><a xlink:href="namespacefuzzer.html#a78f142089de84c6cbf7b5cab5f766af7" target="_top" xlink:title=" ">
<polygon fill="white" stroke="black" points="77,-38.5 77,-57.5 191,-57.5 191,-38.5 77,-38.5"/>
<text text-anchor="middle" x="134" y="-45.5" font-family="Helvetica,sans-Serif" font-size="10.00">fuzzer::FuzzerDriver</text>
</a>
</g>
</g>
<!-- Node3&#45;&gt;Node4 -->
<g id="edge3" class="edge">
<title>Node3&#45;&gt;Node4</title>
<path fill="none" stroke="midnightblue" d="M240.8,-74.53C217.66,-68.72 192.77,-62.48 172.94,-57.51"/>
<polygon fill="midnightblue" stroke="midnightblue" points="240.04,-77.94 250.59,-76.98 241.75,-71.15 240.04,-77.94"/>
</g>
<!-- Node5 -->
<g id="node5" class="node">
<title>Node5</title>
<g id="a_node5"><a xlink:href="FuzzerMain_8cpp.html#a3c04138a5bfe5d72780bb7e82a18e627" target="_top" xlink:title=" ">
<polygon fill="white" stroke="black" points="0,-38.5 0,-57.5 41,-57.5 41,-38.5 0,-38.5"/>
<text text-anchor="middle" x="20.5" y="-45.5" font-family="Helvetica,sans-Serif" font-size="10.00">main</text>
</a>
</g>
</g>
<!-- Node4&#45;&gt;Node5 -->
<g id="edge4" class="edge">
<title>Node4&#45;&gt;Node5</title>
<path fill="none" stroke="midnightblue" d="M66.7,-48C57.37,-48 48.45,-48 41.04,-48"/>
<polygon fill="midnightblue" stroke="midnightblue" points="66.92,-51.5 76.92,-48 66.92,-44.5 66.92,-51.5"/>
</g>
<!-- Node6&#45;&gt;Node4 -->
<g id="edge6" class="edge">
<title>Node6&#45;&gt;Node4</title>
<path fill="none" stroke="midnightblue" d="M226.32,-48C214.36,-48 202.31,-48 191.07,-48"/>
<polygon fill="midnightblue" stroke="midnightblue" points="226.33,-51.5 236.33,-48 226.33,-44.5 226.33,-51.5"/>
</g>
<!-- Node7&#45;&gt;Node4 -->
<g id="edge8" class="edge">
<title>Node7&#45;&gt;Node4</title>
<path fill="none" stroke="midnightblue" d="M256.22,-21.75C231.41,-27.13 202.39,-33.41 178.97,-38.48"/>
<polygon fill="midnightblue" stroke="midnightblue" points="257.18,-25.13 266.21,-19.59 255.7,-18.28 257.18,-25.13"/>
</g>
</g>
</svg>
