<?xml version="1.0" encoding="UTF-8" standalone="no"?>
<!DOCTYPE svg PUBLIC "-//W3C//DTD SVG 1.1//EN"
 "http://www.w3.org/Graphics/SVG/1.1/DTD/svg11.dtd">
<!-- Generated by graphviz version 2.43.0 (0)
 -->
<!-- Title: fuzzer::GetPid Pages: 1 -->
<svg width="913pt" height="301pt"
 viewBox="0.00 0.00 913.00 301.00" xmlns="http://www.w3.org/2000/svg" xmlns:xlink="http://www.w3.org/1999/xlink">
<g id="graph0" class="graph" transform="scale(1 1) rotate(0) translate(4 297)">
<title>fuzzer::GetPid</title>
<polygon fill="white" stroke="transparent" points="-4,4 -4,-297 909,-297 909,4 -4,4"/>
<!-- Node1 -->
<g id="node1" class="node">
<title>Node1</title>
<g id="a_node1"><a xlink:title=" ">
<polygon fill="#bfbfbf" stroke="black" points="820,-137 820,-156 905,-156 905,-137 820,-137"/>
<text text-anchor="middle" x="862.5" y="-144" font-family="Helvetica,sans-Serif" font-size="10.00">fuzzer::GetPid</text>
</a>
</g>
</g>
<!-- Node2 -->
<g id="node2" class="node">
<title>Node2</title>
<g id="a_node2"><a xlink:href="classfuzzer_1_1Fuzzer.html#a88dc9a27d88b016acd54fb8671cc5471" target="_top" xlink:title=" ">
<polygon fill="white" stroke="black" points="623,-261 623,-280 784,-280 784,-261 623,-261"/>
<text text-anchor="middle" x="703.5" y="-268" font-family="Helvetica,sans-Serif" font-size="10.00">fuzzer::Fuzzer::AlarmCallback</text>
</a>
</g>
</g>
<!-- Node1&#45;&gt;Node2 -->
<g id="edge1" class="edge">
<title>Node1&#45;&gt;Node2</title>
<path fill="none" stroke="midnightblue" d="M851.54,-164.82C838.71,-186.8 814.38,-223.32 784,-244.5 773.64,-251.73 761.14,-257.04 749.15,-260.91"/>
<polygon fill="midnightblue" stroke="midnightblue" points="854.59,-166.55 856.47,-156.12 848.5,-163.1 854.59,-166.55"/>
</g>
<!-- Node4 -->
<g id="node4" class="node">
<title>Node4</title>
<g id="a_node4"><a xlink:href="classfuzzer_1_1Fuzzer.html#a59da5344dd4a5419b5cc1782e98e08b9" target="_top" xlink:title=" ">
<polygon fill="white" stroke="black" points="623.5,-216 623.5,-235 783.5,-235 783.5,-216 623.5,-216"/>
<text text-anchor="middle" x="703.5" y="-223" font-family="Helvetica,sans-Serif" font-size="10.00">fuzzer::Fuzzer::CrashCallback</text>
</a>
</g>
</g>
<!-- Node1&#45;&gt;Node4 -->
<g id="edge3" class="edge">
<title>Node1&#45;&gt;Node4</title>
<path fill="none" stroke="midnightblue" d="M841.39,-162.16C826.25,-173.4 804.64,-188.29 784,-198.5 769.76,-205.54 753.23,-211.48 738.95,-215.98"/>
<polygon fill="midnightblue" stroke="midnightblue" points="843.63,-164.85 849.5,-156.03 839.41,-159.27 843.63,-164.85"/>
</g>
<!-- Node6 -->
<g id="node6" class="node">
<title>Node6</title>
<g id="a_node6"><a xlink:href="classfuzzer_1_1Fuzzer.html#a3777acf379198d5339bf6baf0e9ad011" target="_top" xlink:title=" ">
<polygon fill="white" stroke="black" points="227,-175.5 227,-205.5 391,-205.5 391,-175.5 227,-175.5"/>
<text text-anchor="start" x="235" y="-193.5" font-family="Helvetica,sans-Serif" font-size="10.00">fuzzer::Fuzzer::CrashResistant</text>
<text text-anchor="middle" x="309" y="-182.5" font-family="Helvetica,sans-Serif" font-size="10.00">Merge</text>
</a>
</g>
</g>
<!-- Node1&#45;&gt;Node6 -->
<g id="edge5" class="edge">
<title>Node1&#45;&gt;Node6</title>
<path fill="none" stroke="midnightblue" d="M809.85,-156.69C801.25,-158.14 792.39,-159.48 784,-160.5 646.69,-177.19 485.8,-184.89 391.2,-188.21"/>
<polygon fill="midnightblue" stroke="midnightblue" points="810.56,-160.12 819.8,-154.94 809.35,-153.22 810.56,-160.12"/>
</g>
<!-- Node7 -->
<g id="node7" class="node">
<title>Node7</title>
<g id="a_node7"><a xlink:href="namespacefuzzer.html#a78f142089de84c6cbf7b5cab5f766af7" target="_top" xlink:title=" ">
<polygon fill="white" stroke="black" points="77,-137 77,-156 191,-156 191,-137 77,-137"/>
<text text-anchor="middle" x="134" y="-144" font-family="Helvetica,sans-Serif" font-size="10.00">fuzzer::FuzzerDriver</text>
</a>
</g>
</g>
<!-- Node1&#45;&gt;Node7 -->
<g id="edge8" class="edge">
<title>Node1&#45;&gt;Node7</title>
<path fill="none" stroke="midnightblue" d="M809.56,-146.5C677.23,-146.5 328.17,-146.5 191.25,-146.5"/>
<polygon fill="midnightblue" stroke="midnightblue" points="809.83,-150 819.83,-146.5 809.83,-143 809.83,-150"/>
</g>
<!-- Node9 -->
<g id="node9" class="node">
<title>Node9</title>
<g id="a_node9"><a xlink:href="classfuzzer_1_1Fuzzer.html#aedd1fa002d658fbcc1e0870ae28c4489" target="_top" xlink:title=" ">
<polygon fill="white" stroke="black" points="625,-99 625,-118 782,-118 782,-99 625,-99"/>
<text text-anchor="middle" x="703.5" y="-106" font-family="Helvetica,sans-Serif" font-size="10.00">fuzzer::Fuzzer::HandleMalloc</text>
</a>
</g>
</g>
<!-- Node1&#45;&gt;Node9 -->
<g id="edge9" class="edge">
<title>Node1&#45;&gt;Node9</title>
<path fill="none" stroke="midnightblue" d="M812.05,-134.53C790.05,-129.21 764.51,-123.02 743.83,-118.02"/>
<polygon fill="midnightblue" stroke="midnightblue" points="811.34,-137.96 821.88,-136.91 812.99,-131.16 811.34,-137.96"/>
</g>
<!-- Node12 -->
<g id="node12" class="node">
<title>Node12</title>
<g id="a_node12"><a xlink:href="classfuzzer_1_1Fuzzer.html#ad57a4305892f168dd0801368faf9f6de" target="_top" xlink:title=" ">
<polygon fill="white" stroke="black" points="637.5,-49.5 637.5,-79.5 769.5,-79.5 769.5,-49.5 637.5,-49.5"/>
<text text-anchor="start" x="645.5" y="-67.5" font-family="Helvetica,sans-Serif" font-size="10.00">fuzzer::Fuzzer::Interrupt</text>
<text text-anchor="middle" x="703.5" y="-56.5" font-family="Helvetica,sans-Serif" font-size="10.00">Callback</text>
</a>
</g>
</g>
<!-- Node1&#45;&gt;Node12 -->
<g id="edge12" class="edge">
<title>Node1&#45;&gt;Node12</title>
<path fill="none" stroke="midnightblue" d="M842.75,-129.94C827.73,-117.39 805.67,-100.49 784,-89.5 776.65,-85.77 768.62,-82.46 760.6,-79.57"/>
<polygon fill="midnightblue" stroke="midnightblue" points="840.84,-132.92 850.72,-136.75 845.39,-127.59 840.84,-132.92"/>
</g>
<!-- Node14 -->
<g id="node14" class="node">
<title>Node14</title>
<g id="a_node14"><a xlink:href="classfuzzer_1_1Fuzzer.html#aaff2d6a9892349f851f17dd3f0da5ac0" target="_top" xlink:title=" ">
<polygon fill="white" stroke="black" points="637.5,-0.5 637.5,-30.5 769.5,-30.5 769.5,-0.5 637.5,-0.5"/>
<text text-anchor="start" x="645.5" y="-18.5" font-family="Helvetica,sans-Serif" font-size="10.00">fuzzer::Fuzzer::RssLimit</text>
<text text-anchor="middle" x="703.5" y="-7.5" font-family="Helvetica,sans-Serif" font-size="10.00">Callback</text>
</a>
</g>
</g>
<!-- Node1&#45;&gt;Node14 -->
<g id="edge14" class="edge">
<title>Node1&#45;&gt;Node14</title>
<path fill="none" stroke="midnightblue" d="M852.77,-127.77C840.67,-103.82 816.54,-62.66 784,-39.5 779.18,-36.07 773.87,-33.13 768.35,-30.6"/>
<polygon fill="midnightblue" stroke="midnightblue" points="849.69,-129.43 857.22,-136.88 855.98,-126.36 849.69,-129.43"/>
</g>
<!-- Node3 -->
<g id="node3" class="node">
<title>Node3</title>
<g id="a_node3"><a xlink:href="classfuzzer_1_1Fuzzer.html#a8e5cc850a9e02c0650f196981ced0b78" target="_top" xlink:title=" ">
<polygon fill="white" stroke="black" points="433.5,-262.5 433.5,-292.5 580.5,-292.5 580.5,-262.5 433.5,-262.5"/>
<text text-anchor="start" x="441.5" y="-280.5" font-family="Helvetica,sans-Serif" font-size="10.00">fuzzer::Fuzzer::StaticAlarm</text>
<text text-anchor="middle" x="507" y="-269.5" font-family="Helvetica,sans-Serif" font-size="10.00">Callback</text>
</a>
</g>
</g>
<!-- Node2&#45;&gt;Node3 -->
<g id="edge2" class="edge">
<title>Node2&#45;&gt;Node3</title>
<path fill="none" stroke="midnightblue" d="M612.62,-273.73C601.92,-274.12 591.09,-274.51 580.67,-274.88"/>
<polygon fill="midnightblue" stroke="midnightblue" points="612.96,-277.22 622.83,-273.37 612.71,-270.23 612.96,-277.22"/>
</g>
<!-- Node5 -->
<g id="node5" class="node">
<title>Node5</title>
<g id="a_node5"><a xlink:href="classfuzzer_1_1Fuzzer.html#a53ec06c88c7260710d7c7fcae14bf568" target="_top" xlink:title=" ">
<polygon fill="white" stroke="black" points="434,-213.5 434,-243.5 580,-243.5 580,-213.5 434,-213.5"/>
<text text-anchor="start" x="442" y="-231.5" font-family="Helvetica,sans-Serif" font-size="10.00">fuzzer::Fuzzer::StaticCrash</text>
<text text-anchor="middle" x="507" y="-220.5" font-family="Helvetica,sans-Serif" font-size="10.00">SignalCallback</text>
</a>
</g>
</g>
<!-- Node4&#45;&gt;Node5 -->
<g id="edge4" class="edge">
<title>Node4&#45;&gt;Node5</title>
<path fill="none" stroke="midnightblue" d="M613.26,-226.88C602.17,-227.05 590.94,-227.22 580.15,-227.39"/>
<polygon fill="midnightblue" stroke="midnightblue" points="613.44,-230.37 623.39,-226.72 613.34,-223.37 613.44,-230.37"/>
</g>
<!-- Node6&#45;&gt;Node7 -->
<g id="edge6" class="edge">
<title>Node6&#45;&gt;Node7</title>
<path fill="none" stroke="midnightblue" d="M238.99,-172.95C216.26,-167.17 191.85,-160.96 172.4,-156.01"/>
<polygon fill="midnightblue" stroke="midnightblue" points="238.39,-176.41 248.95,-175.48 240.12,-169.62 238.39,-176.41"/>
</g>
<!-- Node8 -->
<g id="node8" class="node">
<title>Node8</title>
<g id="a_node8"><a xlink:href="FuzzerMain_8cpp.html#a3c04138a5bfe5d72780bb7e82a18e627" target="_top" xlink:title=" ">
<polygon fill="white" stroke="black" points="0,-137 0,-156 41,-156 41,-137 0,-137"/>
<text text-anchor="middle" x="20.5" y="-144" font-family="Helvetica,sans-Serif" font-size="10.00">main</text>
</a>
</g>
</g>
<!-- Node7&#45;&gt;Node8 -->
<g id="edge7" class="edge">
<title>Node7&#45;&gt;Node8</title>
<path fill="none" stroke="midnightblue" d="M66.7,-146.5C57.37,-146.5 48.45,-146.5 41.04,-146.5"/>
<polygon fill="midnightblue" stroke="midnightblue" points="66.92,-150 76.92,-146.5 66.92,-143 66.92,-150"/>
</g>
<!-- Node10 -->
<g id="node10" class="node">
<title>Node10</title>
<g id="a_node10"><a xlink:href="namespacefuzzer.html#aad4c2b706565c818bd1990536895c23e" target="_top" xlink:title=" ">
<polygon fill="white" stroke="black" points="452,-99 452,-118 562,-118 562,-99 452,-99"/>
<text text-anchor="middle" x="507" y="-106" font-family="Helvetica,sans-Serif" font-size="10.00">fuzzer::MallocHook</text>
</a>
</g>
</g>
<!-- Node9&#45;&gt;Node10 -->
<g id="edge10" class="edge">
<title>Node9&#45;&gt;Node10</title>
<path fill="none" stroke="midnightblue" d="M614.39,-108.5C596.63,-108.5 578.45,-108.5 562.26,-108.5"/>
<polygon fill="midnightblue" stroke="midnightblue" points="614.79,-112 624.79,-108.5 614.79,-105 614.79,-112"/>
</g>
<!-- Node11 -->
<g id="node11" class="node">
<title>Node11</title>
<g id="a_node11"><a xlink:href="classfuzzer_1_1Fuzzer.html#a582438623b355f23604ebcd6150134c1" target="_top" xlink:title=" ">
<polygon fill="white" stroke="black" points="248,-99 248,-118 370,-118 370,-99 248,-99"/>
<text text-anchor="middle" x="309" y="-106" font-family="Helvetica,sans-Serif" font-size="10.00">fuzzer::Fuzzer::Fuzzer</text>
</a>
</g>
</g>
<!-- Node10&#45;&gt;Node11 -->
<g id="edge11" class="edge">
<title>Node10&#45;&gt;Node11</title>
<path fill="none" stroke="midnightblue" d="M441.88,-108.5C418.79,-108.5 392.84,-108.5 370.11,-108.5"/>
<polygon fill="midnightblue" stroke="midnightblue" points="441.92,-112 451.92,-108.5 441.92,-105 441.92,-112"/>
</g>
<!-- Node13 -->
<g id="node13" class="node">
<title>Node13</title>
<g id="a_node13"><a xlink:href="classfuzzer_1_1Fuzzer.html#ade17502cb3deeb915a59e0e98cb109da" target="_top" xlink:title=" ">
<polygon fill="white" stroke="black" points="427,-49.5 427,-79.5 587,-79.5 587,-49.5 427,-49.5"/>
<text text-anchor="start" x="435" y="-67.5" font-family="Helvetica,sans-Serif" font-size="10.00">fuzzer::Fuzzer::StaticInterrupt</text>
<text text-anchor="middle" x="507" y="-56.5" font-family="Helvetica,sans-Serif" font-size="10.00">Callback</text>
</a>
</g>
</g>
<!-- Node12&#45;&gt;Node13 -->
<g id="edge13" class="edge">
<title>Node12&#45;&gt;Node13</title>
<path fill="none" stroke="midnightblue" d="M627.1,-64.5C614.01,-64.5 600.36,-64.5 587.17,-64.5"/>
<polygon fill="midnightblue" stroke="midnightblue" points="627.46,-68 637.46,-64.5 627.46,-61 627.46,-68"/>
</g>
<!-- Node15 -->
<g id="node15" class="node">
<title>Node15</title>
<g id="a_node15"><a xlink:href="namespacefuzzer.html#a337a224a0611ab37c60131e5b1a77b36" target="_top" xlink:title=" ">
<polygon fill="white" stroke="black" points="455,-9 455,-28 559,-28 559,-9 455,-9"/>
<text text-anchor="middle" x="507" y="-16" font-family="Helvetica,sans-Serif" font-size="10.00">fuzzer::RssThread</text>
</a>
</g>
</g>
<!-- Node14&#45;&gt;Node15 -->
<g id="edge15" class="edge">
<title>Node14&#45;&gt;Node15</title>
<path fill="none" stroke="midnightblue" d="M627.45,-16.66C604.6,-17.01 580.02,-17.39 559.13,-17.71"/>
<polygon fill="midnightblue" stroke="midnightblue" points="627.52,-20.16 637.46,-16.5 627.41,-13.16 627.52,-20.16"/>
</g>
<!-- Node16 -->
<g id="node16" class="node">
<title>Node16</title>
<g id="a_node16"><a xlink:href="namespacefuzzer.html#a4bfbc9d0a9eed57d8f8992c16746d8f6" target="_top" xlink:title=" ">
<polygon fill="white" stroke="black" points="245.5,-36 245.5,-55 372.5,-55 372.5,-36 245.5,-36"/>
<text text-anchor="middle" x="309" y="-43" font-family="Helvetica,sans-Serif" font-size="10.00">fuzzer::StartRssThread</text>
</a>
</g>
</g>
<!-- Node15&#45;&gt;Node16 -->
<g id="edge16" class="edge">
<title>Node15&#45;&gt;Node16</title>
<path fill="none" stroke="midnightblue" d="M444.82,-26.93C421.92,-30.08 395.88,-33.67 372.84,-36.84"/>
<polygon fill="midnightblue" stroke="midnightblue" points="445.33,-30.39 454.76,-25.56 444.38,-23.46 445.33,-30.39"/>
</g>
<!-- Node16&#45;&gt;Node7 -->
<g id="edge17" class="edge">
<title>Node16&#45;&gt;Node7</title>
<path fill="none" stroke="midnightblue" d="M280.3,-60.04C264.55,-68.44 244.53,-79.32 227,-89.5 199.38,-105.54 167.87,-125.41 149.82,-136.95"/>
<polygon fill="midnightblue" stroke="midnightblue" points="282.3,-62.94 289.5,-55.16 279.02,-56.76 282.3,-62.94"/>
</g>
</g>
</svg>
