<?xml version="1.0" encoding="UTF-8" standalone="no"?>
<!DOCTYPE svg PUBLIC "-//W3C//DTD SVG 1.1//EN"
 "http://www.w3.org/Graphics/SVG/1.1/DTD/svg11.dtd">
<!-- Generated by graphviz version 2.43.0 (0)
 -->
<!-- Title: fuzzer::Bswap Pages: 1 -->
<svg width="300pt" height="78pt"
 viewBox="0.00 0.00 300.00 77.50" xmlns="http://www.w3.org/2000/svg" xmlns:xlink="http://www.w3.org/1999/xlink">
<g id="graph0" class="graph" transform="scale(1 1) rotate(0) translate(4 73.5)">
<title>fuzzer::Bswap</title>
<polygon fill="white" stroke="transparent" points="-4,4 -4,-73.5 296,-73.5 296,4 -4,4"/>
<!-- Node1 -->
<g id="node1" class="node">
<title>Node1</title>
<g id="a_node1"><a xlink:title=" ">
<polygon fill="#bfbfbf" stroke="black" points="207,-28 207,-47 292,-47 292,-28 207,-28"/>
<text text-anchor="middle" x="249.5" y="-35" font-family="Helvetica,sans-Serif" font-size="10.00">fuzzer::Bswap</text>
</a>
</g>
</g>
<!-- Node2 -->
<g id="node2" class="node">
<title>Node2</title>
<g id="a_node2"><a xlink:href="namespacefuzzer.html#a70215656fdeb45e8bae36ee4228c5228" target="_top" xlink:title=" ">
<polygon fill="white" stroke="black" points="8,-50 8,-69 163,-69 163,-50 8,-50"/>
<text text-anchor="middle" x="85.5" y="-57" font-family="Helvetica,sans-Serif" font-size="10.00">fuzzer::ChangeBinaryInteger</text>
</a>
</g>
</g>
<!-- Node1&#45;&gt;Node2 -->
<g id="edge1" class="edge">
<title>Node1&#45;&gt;Node2</title>
<path fill="none" stroke="midnightblue" d="M196.81,-44.52C184.04,-46.25 170.15,-48.14 156.67,-49.97"/>
<polygon fill="midnightblue" stroke="midnightblue" points="197.34,-47.98 206.78,-43.17 196.4,-41.04 197.34,-47.98"/>
</g>
<!-- Node3 -->
<g id="node3" class="node">
<title>Node3</title>
<g id="a_node3"><a xlink:href="classfuzzer_1_1MutationDispatcher.html#ad365a981e53e30ca81c0f8ab09a2dee9" target="_top" xlink:title=" ">
<polygon fill="white" stroke="black" points="0,-0.5 0,-30.5 171,-30.5 171,-0.5 0,-0.5"/>
<text text-anchor="start" x="8" y="-18.5" font-family="Helvetica,sans-Serif" font-size="10.00">fuzzer::MutationDispatcher</text>
<text text-anchor="middle" x="85.5" y="-7.5" font-family="Helvetica,sans-Serif" font-size="10.00">::MakeDictionaryEntryFromCMP</text>
</a>
</g>
</g>
<!-- Node1&#45;&gt;Node3 -->
<g id="edge2" class="edge">
<title>Node1&#45;&gt;Node3</title>
<path fill="none" stroke="midnightblue" d="M196.71,-30.47C188.54,-29.36 179.91,-28.19 171.22,-27.01"/>
<polygon fill="midnightblue" stroke="midnightblue" points="196.4,-33.96 206.78,-31.83 197.34,-27.02 196.4,-33.96"/>
</g>
</g>
</svg>
