<?xml version="1.0" encoding="UTF-8" standalone="no"?>
<!DOCTYPE svg PUBLIC "-//W3C//DTD SVG 1.1//EN"
 "http://www.w3.org/Graphics/SVG/1.1/DTD/svg11.dtd">
<!-- Generated by graphviz version 2.43.0 (0)
 -->
<!-- Title: httplib::detail::prepare_content_receiver Pages: 1 -->
<svg width="1245pt" height="327pt"
 viewBox="0.00 0.00 1245.00 326.50" xmlns="http://www.w3.org/2000/svg" xmlns:xlink="http://www.w3.org/1999/xlink">
<g id="graph0" class="graph" transform="scale(1 1) rotate(0) translate(4 322.5)">
<title>httplib::detail::prepare_content_receiver</title>
<polygon fill="white" stroke="transparent" points="-4,4 -4,-322.5 1241,-322.5 1241,4 -4,4"/>
<!-- Node1 -->
<g id="node1" class="node">
<title>Node1</title>
<g id="a_node1"><a xlink:title=" ">
<polygon fill="#bfbfbf" stroke="black" points="1112,-85 1112,-115 1237,-115 1237,-85 1112,-85"/>
<text text-anchor="start" x="1120" y="-103" font-family="Helvetica,sans-Serif" font-size="10.00">httplib::detail::prepare</text>
<text text-anchor="middle" x="1174.5" y="-92" font-family="Helvetica,sans-Serif" font-size="10.00">_content_receiver</text>
</a>
</g>
</g>
<!-- Node2 -->
<g id="node2" class="node">
<title>Node2</title>
<g id="a_node2"><a xlink:href="namespacehttplib_1_1detail.html#a471b40288a374b94e0957ce380ba01dd" target="_top" xlink:title=" ">
<polygon fill="white" stroke="black" points="966,-85 966,-115 1076,-115 1076,-85 966,-85"/>
<text text-anchor="start" x="974" y="-103" font-family="Helvetica,sans-Serif" font-size="10.00">httplib::detail::read</text>
<text text-anchor="middle" x="1021" y="-92" font-family="Helvetica,sans-Serif" font-size="10.00">_content</text>
</a>
</g>
</g>
<!-- Node1&#45;&gt;Node2 -->
<g id="edge1" class="edge">
<title>Node1&#45;&gt;Node2</title>
<path fill="none" stroke="midnightblue" d="M1101.84,-100C1093.24,-100 1084.56,-100 1076.27,-100"/>
<polygon fill="midnightblue" stroke="midnightblue" points="1101.88,-103.5 1111.88,-100 1101.88,-96.5 1101.88,-103.5"/>
</g>
<!-- Node3 -->
<g id="node3" class="node">
<title>Node3</title>
<g id="a_node3"><a xlink:href="classhttplib_1_1ClientImpl.html#aaf87765187adb847b44c102643704f3a" target="_top" xlink:title=" ">
<polygon fill="white" stroke="black" points="821.5,-110 821.5,-140 925.5,-140 925.5,-110 821.5,-110"/>
<text text-anchor="start" x="829.5" y="-128" font-family="Helvetica,sans-Serif" font-size="10.00">httplib::ClientImpl</text>
<text text-anchor="middle" x="873.5" y="-117" font-family="Helvetica,sans-Serif" font-size="10.00">::process_request</text>
</a>
</g>
</g>
<!-- Node2&#45;&gt;Node3 -->
<g id="edge2" class="edge">
<title>Node2&#45;&gt;Node3</title>
<path fill="none" stroke="midnightblue" d="M955.87,-111.02C945.82,-112.75 935.55,-114.51 925.83,-116.18"/>
<polygon fill="midnightblue" stroke="midnightblue" points="956.56,-114.45 965.82,-109.31 955.37,-107.55 956.56,-114.45"/>
</g>
<!-- Node17 -->
<g id="node17" class="node">
<title>Node17</title>
<g id="a_node17"><a xlink:href="classhttplib_1_1Server.html#a1fc26b4f3c6d53b4400f643ddd360d35" target="_top" xlink:title=" ">
<polygon fill="white" stroke="black" points="817,-61 817,-91 930,-91 930,-61 817,-61"/>
<text text-anchor="start" x="825" y="-79" font-family="Helvetica,sans-Serif" font-size="10.00">httplib::Server::read</text>
<text text-anchor="middle" x="873.5" y="-68" font-family="Helvetica,sans-Serif" font-size="10.00">_content_core</text>
</a>
</g>
</g>
<!-- Node2&#45;&gt;Node17 -->
<g id="edge17" class="edge">
<title>Node2&#45;&gt;Node17</title>
<path fill="none" stroke="midnightblue" d="M955.87,-89.42C947.31,-88.01 938.58,-86.57 930.18,-85.18"/>
<polygon fill="midnightblue" stroke="midnightblue" points="955.38,-92.89 965.82,-91.06 956.52,-85.98 955.38,-92.89"/>
</g>
<!-- Node4 -->
<g id="node4" class="node">
<title>Node4</title>
<g id="a_node4"><a xlink:href="classhttplib_1_1ClientImpl.html#ac4e30af906067369892520eccd85c038" target="_top" xlink:title=" ">
<polygon fill="white" stroke="black" points="665.5,-110 665.5,-140 769.5,-140 769.5,-110 665.5,-110"/>
<text text-anchor="start" x="673.5" y="-128" font-family="Helvetica,sans-Serif" font-size="10.00">httplib::ClientImpl</text>
<text text-anchor="middle" x="717.5" y="-117" font-family="Helvetica,sans-Serif" font-size="10.00">::handle_request</text>
</a>
</g>
</g>
<!-- Node3&#45;&gt;Node4 -->
<g id="edge3" class="edge">
<title>Node3&#45;&gt;Node4</title>
<path fill="none" stroke="midnightblue" d="M810.9,-125C797.18,-125 782.79,-125 769.56,-125"/>
<polygon fill="midnightblue" stroke="midnightblue" points="811.22,-128.5 821.22,-125 811.22,-121.5 811.22,-128.5"/>
</g>
<!-- Node5 -->
<g id="node5" class="node">
<title>Node5</title>
<g id="a_node5"><a xlink:href="classhttplib_1_1ClientImpl.html#ab783868da89488b0bf734e8d83b5e569" target="_top" xlink:title=" ">
<polygon fill="white" stroke="black" points="503,-175 503,-205 607,-205 607,-175 503,-175"/>
<text text-anchor="start" x="511" y="-193" font-family="Helvetica,sans-Serif" font-size="10.00">httplib::ClientImpl</text>
<text text-anchor="middle" x="555" y="-182" font-family="Helvetica,sans-Serif" font-size="10.00">::send_</text>
</a>
</g>
</g>
<!-- Node4&#45;&gt;Node5 -->
<g id="edge4" class="edge">
<title>Node4&#45;&gt;Node5</title>
<path fill="none" stroke="midnightblue" d="M669.87,-143.88C645.52,-153.75 616.12,-165.65 593.3,-174.89"/>
<polygon fill="midnightblue" stroke="midnightblue" points="671.32,-147.07 679.27,-140.08 668.69,-140.59 671.32,-147.07"/>
</g>
<!-- Node6 -->
<g id="node6" class="node">
<title>Node6</title>
<g id="a_node6"><a xlink:href="classhttplib_1_1ClientImpl.html#a5973f9c3afa13416417fd7a317eb811b" target="_top" xlink:title=" ">
<polygon fill="white" stroke="black" points="339.5,-288 339.5,-318 443.5,-318 443.5,-288 339.5,-288"/>
<text text-anchor="start" x="347.5" y="-306" font-family="Helvetica,sans-Serif" font-size="10.00">httplib::ClientImpl</text>
<text text-anchor="middle" x="391.5" y="-295" font-family="Helvetica,sans-Serif" font-size="10.00">::Delete</text>
</a>
</g>
</g>
<!-- Node5&#45;&gt;Node6 -->
<g id="edge5" class="edge">
<title>Node5&#45;&gt;Node6</title>
<path fill="none" stroke="midnightblue" d="M533.28,-212.71C514.59,-232.12 485.58,-259.73 456,-278 450.05,-281.67 443.47,-284.98 436.87,-287.9"/>
<polygon fill="midnightblue" stroke="midnightblue" points="536.06,-214.86 540.39,-205.2 530.97,-210.05 536.06,-214.86"/>
</g>
<!-- Node7 -->
<g id="node7" class="node">
<title>Node7</title>
<g id="a_node7"><a xlink:href="classhttplib_1_1ClientImpl.html#ad073f1945ddc13fc4778449739430889" target="_top" xlink:title=" ">
<polygon fill="white" stroke="black" points="327.5,-249.5 327.5,-268.5 455.5,-268.5 455.5,-249.5 327.5,-249.5"/>
<text text-anchor="middle" x="391.5" y="-256.5" font-family="Helvetica,sans-Serif" font-size="10.00">httplib::ClientImpl::Get</text>
</a>
</g>
</g>
<!-- Node5&#45;&gt;Node7 -->
<g id="edge6" class="edge">
<title>Node5&#45;&gt;Node7</title>
<path fill="none" stroke="midnightblue" d="M518.71,-209.97C500.37,-219.83 477.38,-231.43 456,-240 447.24,-243.51 437.58,-246.72 428.49,-249.47"/>
<polygon fill="midnightblue" stroke="midnightblue" points="520.47,-213 527.57,-205.14 517.12,-206.85 520.47,-213"/>
</g>
<!-- Node8 -->
<g id="node8" class="node">
<title>Node8</title>
<g id="a_node8"><a xlink:href="classhttplib_1_1ClientImpl.html#adf64c589c0334ccd516905484140e0d1" target="_top" xlink:title=" ">
<polygon fill="white" stroke="black" points="339.5,-200 339.5,-230 443.5,-230 443.5,-200 339.5,-200"/>
<text text-anchor="start" x="347.5" y="-218" font-family="Helvetica,sans-Serif" font-size="10.00">httplib::ClientImpl</text>
<text text-anchor="middle" x="391.5" y="-207" font-family="Helvetica,sans-Serif" font-size="10.00">::Head</text>
</a>
</g>
</g>
<!-- Node5&#45;&gt;Node8 -->
<g id="edge7" class="edge">
<title>Node5&#45;&gt;Node8</title>
<path fill="none" stroke="midnightblue" d="M492.93,-199.45C476.65,-201.97 459.23,-204.67 443.54,-207.1"/>
<polygon fill="midnightblue" stroke="midnightblue" points="493.55,-202.9 502.9,-197.91 492.48,-195.98 493.55,-202.9"/>
</g>
<!-- Node9 -->
<g id="node9" class="node">
<title>Node9</title>
<g id="a_node9"><a xlink:href="classhttplib_1_1ClientImpl.html#a0de10ef5e77b7c6cc83674bd86bc2e8a" target="_top" xlink:title=" ">
<polygon fill="white" stroke="black" points="339.5,-151 339.5,-181 443.5,-181 443.5,-151 339.5,-151"/>
<text text-anchor="start" x="347.5" y="-169" font-family="Helvetica,sans-Serif" font-size="10.00">httplib::ClientImpl</text>
<text text-anchor="middle" x="391.5" y="-158" font-family="Helvetica,sans-Serif" font-size="10.00">::Options</text>
</a>
</g>
</g>
<!-- Node5&#45;&gt;Node9 -->
<g id="edge8" class="edge">
<title>Node5&#45;&gt;Node9</title>
<path fill="none" stroke="midnightblue" d="M492.93,-180.93C476.65,-178.51 459.23,-175.92 443.54,-173.59"/>
<polygon fill="midnightblue" stroke="midnightblue" points="492.49,-184.4 502.9,-182.41 493.52,-177.47 492.49,-184.4"/>
</g>
<!-- Node10 -->
<g id="node10" class="node">
<title>Node10</title>
<g id="a_node10"><a xlink:href="classhttplib_1_1ClientImpl.html#a618895e4b137663691fdc41fd998b843" target="_top" xlink:title=" ">
<polygon fill="white" stroke="black" points="339.5,-102 339.5,-132 443.5,-132 443.5,-102 339.5,-102"/>
<text text-anchor="start" x="347.5" y="-120" font-family="Helvetica,sans-Serif" font-size="10.00">httplib::ClientImpl</text>
<text text-anchor="middle" x="391.5" y="-109" font-family="Helvetica,sans-Serif" font-size="10.00">::send</text>
</a>
</g>
</g>
<!-- Node5&#45;&gt;Node10 -->
<g id="edge9" class="edge">
<title>Node5&#45;&gt;Node10</title>
<path fill="none" stroke="midnightblue" d="M515.69,-170.35C497.72,-161.36 475.93,-150.79 456,-142 448.41,-138.65 440.22,-135.27 432.34,-132.12"/>
<polygon fill="midnightblue" stroke="midnightblue" points="514.19,-173.51 524.7,-174.88 517.34,-167.26 514.19,-173.51"/>
</g>
<!-- Node10&#45;&gt;Node4 -->
<g id="edge10" class="edge">
<title>Node10&#45;&gt;Node4</title>
<path fill="none" stroke="midnightblue" d="M453.88,-118.52C515.02,-120.03 607.81,-122.32 665.16,-123.73"/>
<polygon fill="midnightblue" stroke="midnightblue" points="453.68,-115.01 443.6,-118.26 453.51,-122.01 453.68,-115.01"/>
</g>
<!-- Node11 -->
<g id="node11" class="node">
<title>Node11</title>
<g id="a_node11"><a xlink:href="classhttplib_1_1ClientImpl.html#ab81f0f3ff5031d8bb231928318cd95ff" target="_top" xlink:title=" ">
<polygon fill="white" stroke="black" points="174.5,-152 174.5,-182 278.5,-182 278.5,-152 174.5,-152"/>
<text text-anchor="start" x="182.5" y="-170" font-family="Helvetica,sans-Serif" font-size="10.00">httplib::ClientImpl</text>
<text text-anchor="middle" x="226.5" y="-159" font-family="Helvetica,sans-Serif" font-size="10.00">::send_</text>
</a>
</g>
</g>
<!-- Node10&#45;&gt;Node11 -->
<g id="edge11" class="edge">
<title>Node10&#45;&gt;Node11</title>
<path fill="none" stroke="midnightblue" d="M332,-134.94C313.87,-140.51 294.08,-146.58 276.65,-151.92"/>
<polygon fill="midnightblue" stroke="midnightblue" points="333.06,-138.28 341.59,-132 331.01,-131.59 333.06,-138.28"/>
</g>
<!-- Node12 -->
<g id="node12" class="node">
<title>Node12</title>
<g id="a_node12"><a xlink:href="classhttplib_1_1ClientImpl.html#ab3169b93b50fca58a21f2db0a2bdea88" target="_top" xlink:title=" ">
<polygon fill="white" stroke="black" points="169.5,-91.5 169.5,-132.5 283.5,-132.5 283.5,-91.5 169.5,-91.5"/>
<text text-anchor="start" x="177.5" y="-120.5" font-family="Helvetica,sans-Serif" font-size="10.00">httplib::ClientImpl</text>
<text text-anchor="start" x="177.5" y="-109.5" font-family="Helvetica,sans-Serif" font-size="10.00">::send_with_content</text>
<text text-anchor="middle" x="226.5" y="-98.5" font-family="Helvetica,sans-Serif" font-size="10.00">_provider</text>
</a>
</g>
</g>
<!-- Node10&#45;&gt;Node12 -->
<g id="edge12" class="edge">
<title>Node10&#45;&gt;Node12</title>
<path fill="none" stroke="midnightblue" d="M329.19,-115.12C314.21,-114.66 298.26,-114.17 283.54,-113.72"/>
<polygon fill="midnightblue" stroke="midnightblue" points="329.27,-118.62 339.37,-115.43 329.49,-111.63 329.27,-118.62"/>
</g>
<!-- Node13 -->
<g id="node13" class="node">
<title>Node13</title>
<g id="a_node13"><a xlink:href="classhttplib_1_1ClientImpl.html#ad454e536598fa610080587d8516b5c80" target="_top" xlink:title=" ">
<polygon fill="white" stroke="black" points="11,-168 11,-198 115,-198 115,-168 11,-168"/>
<text text-anchor="start" x="19" y="-186" font-family="Helvetica,sans-Serif" font-size="10.00">httplib::ClientImpl</text>
<text text-anchor="middle" x="63" y="-175" font-family="Helvetica,sans-Serif" font-size="10.00">::Patch</text>
</a>
</g>
</g>
<!-- Node12&#45;&gt;Node13 -->
<g id="edge13" class="edge">
<title>Node12&#45;&gt;Node13</title>
<path fill="none" stroke="midnightblue" d="M174.31,-137.04C158.89,-144.35 141.85,-152.2 126,-159 119,-162 111.49,-165.05 104.19,-167.93"/>
<polygon fill="midnightblue" stroke="midnightblue" points="176.16,-140.04 183.68,-132.57 173.15,-133.72 176.16,-140.04"/>
</g>
<!-- Node14 -->
<g id="node14" class="node">
<title>Node14</title>
<g id="a_node14"><a xlink:href="classhttplib_1_1ClientImpl.html#a31fe4e8466d44dc45e28d3e68db05e01" target="_top" xlink:title=" ">
<polygon fill="white" stroke="black" points="11,-119 11,-149 115,-149 115,-119 11,-119"/>
<text text-anchor="start" x="19" y="-137" font-family="Helvetica,sans-Serif" font-size="10.00">httplib::ClientImpl</text>
<text text-anchor="middle" x="63" y="-126" font-family="Helvetica,sans-Serif" font-size="10.00">::Post</text>
</a>
</g>
</g>
<!-- Node12&#45;&gt;Node14 -->
<g id="edge14" class="edge">
<title>Node12&#45;&gt;Node14</title>
<path fill="none" stroke="midnightblue" d="M159.37,-121.01C144.59,-123.02 129.13,-125.13 115.06,-127.04"/>
<polygon fill="midnightblue" stroke="midnightblue" points="160.03,-124.45 169.47,-119.63 159.09,-117.51 160.03,-124.45"/>
</g>
<!-- Node15 -->
<g id="node15" class="node">
<title>Node15</title>
<g id="a_node15"><a xlink:href="classhttplib_1_1ClientImpl.html#a048987c16a2f45382c1bb0d2102e4873" target="_top" xlink:title=" ">
<polygon fill="white" stroke="black" points="0,-80.5 0,-99.5 126,-99.5 126,-80.5 0,-80.5"/>
<text text-anchor="middle" x="63" y="-87.5" font-family="Helvetica,sans-Serif" font-size="10.00">httplib::ClientImpl::Put</text>
</a>
</g>
</g>
<!-- Node12&#45;&gt;Node15 -->
<g id="edge15" class="edge">
<title>Node12&#45;&gt;Node15</title>
<path fill="none" stroke="midnightblue" d="M159.45,-103C148.39,-101.5 136.95,-99.94 126.01,-98.45"/>
<polygon fill="midnightblue" stroke="midnightblue" points="159.09,-106.49 169.47,-104.37 160.03,-99.55 159.09,-106.49"/>
</g>
<!-- Node16 -->
<g id="node16" class="node">
<title>Node16</title>
<g id="a_node16"><a xlink:href="classhttplib_1_1ClientImpl.html#ac9d400990790ff3aa7f3639392181ddb" target="_top" xlink:title=" ">
<polygon fill="white" stroke="black" points="6,-20.5 6,-61.5 120,-61.5 120,-20.5 6,-20.5"/>
<text text-anchor="start" x="14" y="-49.5" font-family="Helvetica,sans-Serif" font-size="10.00">httplib::ClientImpl</text>
<text text-anchor="start" x="14" y="-38.5" font-family="Helvetica,sans-Serif" font-size="10.00">::send_with_content</text>
<text text-anchor="middle" x="63" y="-27.5" font-family="Helvetica,sans-Serif" font-size="10.00">_provider</text>
</a>
</g>
</g>
<!-- Node12&#45;&gt;Node16 -->
<g id="edge16" class="edge">
<title>Node12&#45;&gt;Node16</title>
<path fill="none" stroke="midnightblue" d="M169.58,-87.42C150.44,-79 129.24,-69.68 110.89,-61.61"/>
<polygon fill="midnightblue" stroke="midnightblue" points="168.22,-90.64 178.79,-91.46 171.04,-84.24 168.22,-90.64"/>
</g>
<!-- Node18 -->
<g id="node18" class="node">
<title>Node18</title>
<g id="a_node18"><a xlink:href="classhttplib_1_1Server.html#a32ad29652062d18383a1a1688892f9f2" target="_top" xlink:title=" ">
<polygon fill="white" stroke="black" points="661,-61 661,-91 774,-91 774,-61 661,-61"/>
<text text-anchor="start" x="669" y="-79" font-family="Helvetica,sans-Serif" font-size="10.00">httplib::Server::read</text>
<text text-anchor="middle" x="717.5" y="-68" font-family="Helvetica,sans-Serif" font-size="10.00">_content</text>
</a>
</g>
</g>
<!-- Node17&#45;&gt;Node18 -->
<g id="edge18" class="edge">
<title>Node17&#45;&gt;Node18</title>
<path fill="none" stroke="midnightblue" d="M806.61,-76C795.75,-76 784.59,-76 774.02,-76"/>
<polygon fill="midnightblue" stroke="midnightblue" points="806.9,-79.5 816.9,-76 806.9,-72.5 806.9,-79.5"/>
</g>
<!-- Node22 -->
<g id="node22" class="node">
<title>Node22</title>
<g id="a_node22"><a xlink:href="classhttplib_1_1Server.html#af0053e85d97391bb7e36b01009140747" target="_top" xlink:title=" ">
<polygon fill="white" stroke="black" points="654,-0.5 654,-41.5 781,-41.5 781,-0.5 654,-0.5"/>
<text text-anchor="start" x="662" y="-29.5" font-family="Helvetica,sans-Serif" font-size="10.00">httplib::Server::read</text>
<text text-anchor="start" x="662" y="-18.5" font-family="Helvetica,sans-Serif" font-size="10.00">_content_with_content</text>
<text text-anchor="middle" x="717.5" y="-7.5" font-family="Helvetica,sans-Serif" font-size="10.00">_receiver</text>
</a>
</g>
</g>
<!-- Node17&#45;&gt;Node22 -->
<g id="edge22" class="edge">
<title>Node17&#45;&gt;Node22</title>
<path fill="none" stroke="midnightblue" d="M820.73,-57.51C806.4,-52.39 790.76,-46.81 776.12,-41.58"/>
<polygon fill="midnightblue" stroke="midnightblue" points="819.82,-60.9 830.42,-60.97 822.18,-54.31 819.82,-60.9"/>
</g>
<!-- Node19 -->
<g id="node19" class="node">
<title>Node19</title>
<g id="a_node19"><a xlink:href="classhttplib_1_1Server.html#affee90a82135504bd0945a22d9bf16f5" target="_top" xlink:title=" ">
<polygon fill="white" stroke="black" points="492,-35.5 492,-54.5 618,-54.5 618,-35.5 492,-35.5"/>
<text text-anchor="middle" x="555" y="-42.5" font-family="Helvetica,sans-Serif" font-size="10.00">httplib::Server::routing</text>
</a>
</g>
</g>
<!-- Node18&#45;&gt;Node19 -->
<g id="edge19" class="edge">
<title>Node18&#45;&gt;Node19</title>
<path fill="none" stroke="midnightblue" d="M650.95,-63.34C635.74,-60.4 619.8,-57.32 605.42,-54.55"/>
<polygon fill="midnightblue" stroke="midnightblue" points="650.33,-66.78 660.82,-65.24 651.66,-59.91 650.33,-66.78"/>
</g>
<!-- Node20 -->
<g id="node20" class="node">
<title>Node20</title>
<g id="a_node20"><a xlink:href="classhttplib_1_1Server.html#a4e7c7c79cced3d61082df30b3eb97ed2" target="_top" xlink:title=" ">
<polygon fill="white" stroke="black" points="327,-30 327,-60 456,-60 456,-30 327,-30"/>
<text text-anchor="start" x="335" y="-48" font-family="Helvetica,sans-Serif" font-size="10.00">httplib::Server::process</text>
<text text-anchor="middle" x="391.5" y="-37" font-family="Helvetica,sans-Serif" font-size="10.00">_request</text>
</a>
</g>
</g>
<!-- Node19&#45;&gt;Node20 -->
<g id="edge20" class="edge">
<title>Node19&#45;&gt;Node20</title>
<path fill="none" stroke="midnightblue" d="M481.37,-45C472.94,-45 464.4,-45 456.11,-45"/>
<polygon fill="midnightblue" stroke="midnightblue" points="481.56,-48.5 491.56,-45 481.56,-41.5 481.56,-48.5"/>
</g>
<!-- Node21 -->
<g id="node21" class="node">
<title>Node21</title>
<g id="a_node21"><a xlink:href="classhttplib_1_1Server.html#a28221db99b5a35e45515553fdb9458a0" target="_top" xlink:title=" ">
<polygon fill="white" stroke="black" points="162,-30 162,-60 291,-60 291,-30 162,-30"/>
<text text-anchor="start" x="170" y="-48" font-family="Helvetica,sans-Serif" font-size="10.00">httplib::Server::process</text>
<text text-anchor="middle" x="226.5" y="-37" font-family="Helvetica,sans-Serif" font-size="10.00">_and_close_socket</text>
</a>
</g>
</g>
<!-- Node20&#45;&gt;Node21 -->
<g id="edge21" class="edge">
<title>Node20&#45;&gt;Node21</title>
<path fill="none" stroke="midnightblue" d="M316.31,-45C307.86,-45 299.3,-45 291,-45"/>
<polygon fill="midnightblue" stroke="midnightblue" points="316.55,-48.5 326.55,-45 316.55,-41.5 316.55,-48.5"/>
</g>
<!-- Node22&#45;&gt;Node19 -->
<g id="edge23" class="edge">
<title>Node22&#45;&gt;Node19</title>
<path fill="none" stroke="midnightblue" d="M643.93,-31.85C635.3,-33.14 626.55,-34.45 618.08,-35.72"/>
<polygon fill="midnightblue" stroke="midnightblue" points="644.61,-35.29 653.99,-30.35 643.58,-28.37 644.61,-35.29"/>
</g>
</g>
</svg>
