<?xml version="1.0" encoding="UTF-8" standalone="no"?>
<!DOCTYPE svg PUBLIC "-//W3C//DTD SVG 1.1//EN"
 "http://www.w3.org/Graphics/SVG/1.1/DTD/svg11.dtd">
<!-- Generated by graphviz version 2.43.0 (0)
 -->
<!-- Title: nlohmann::detail::dtoa_impl::get_cached_power_for_binary_exponent Pages: 1 -->
<svg width="660pt" height="144pt"
 viewBox="0.00 0.00 660.00 143.50" xmlns="http://www.w3.org/2000/svg" xmlns:xlink="http://www.w3.org/1999/xlink">
<g id="graph0" class="graph" transform="scale(1 1) rotate(0) translate(4 139.5)">
<title>nlohmann::detail::dtoa_impl::get_cached_power_for_binary_exponent</title>
<polygon fill="white" stroke="transparent" points="-4,4 -4,-139.5 656,-139.5 656,4 -4,4"/>
<!-- Node1 -->
<g id="node1" class="node">
<title>Node1</title>
<g id="a_node1"><a xlink:title=" ">
<polygon fill="#bfbfbf" stroke="black" points="512,-55.5 512,-96.5 652,-96.5 652,-55.5 512,-55.5"/>
<text text-anchor="start" x="520" y="-84.5" font-family="Helvetica,sans-Serif" font-size="10.00">nlohmann::detail::dtoa</text>
<text text-anchor="start" x="520" y="-73.5" font-family="Helvetica,sans-Serif" font-size="10.00">_impl::get_cached_power</text>
<text text-anchor="middle" x="582" y="-62.5" font-family="Helvetica,sans-Serif" font-size="10.00">_for_binary_exponent</text>
</a>
</g>
</g>
<!-- Node2 -->
<g id="node2" class="node">
<title>Node2</title>
<g id="a_node2"><a xlink:href="namespacenlohmann_1_1detail_1_1dtoa__impl.html#a05b681dcb8569b9784c6dccfadb01633" target="_top" xlink:title=" ">
<polygon fill="white" stroke="black" points="349,-61 349,-91 476,-91 476,-61 349,-61"/>
<text text-anchor="start" x="357" y="-79" font-family="Helvetica,sans-Serif" font-size="10.00">nlohmann::detail::dtoa</text>
<text text-anchor="middle" x="412.5" y="-68" font-family="Helvetica,sans-Serif" font-size="10.00">_impl::grisu2</text>
</a>
</g>
</g>
<!-- Node1&#45;&gt;Node2 -->
<g id="edge1" class="edge">
<title>Node1&#45;&gt;Node2</title>
<path fill="none" stroke="midnightblue" d="M501.87,-76C493.28,-76 484.62,-76 476.26,-76"/>
<polygon fill="midnightblue" stroke="midnightblue" points="501.9,-79.5 511.9,-76 501.9,-72.5 501.9,-79.5"/>
</g>
<!-- Node3 -->
<g id="node3" class="node">
<title>Node3</title>
<g id="a_node3"><a xlink:href="namespacenlohmann_1_1detail_1_1dtoa__impl.html#aab7a9670a4f4704a5d0347ad7588576b" target="_top" xlink:title=" ">
<polygon fill="white" stroke="black" points="186,-105 186,-135 313,-135 313,-105 186,-105"/>
<text text-anchor="start" x="194" y="-123" font-family="Helvetica,sans-Serif" font-size="10.00">nlohmann::detail::dtoa</text>
<text text-anchor="middle" x="249.5" y="-112" font-family="Helvetica,sans-Serif" font-size="10.00">_impl::grisu2</text>
</a>
</g>
</g>
<!-- Node2&#45;&gt;Node3 -->
<g id="edge2" class="edge">
<title>Node2&#45;&gt;Node3</title>
<path fill="none" stroke="midnightblue" d="M346.72,-93.7C333.05,-97.44 318.75,-101.35 305.48,-104.97"/>
<polygon fill="midnightblue" stroke="midnightblue" points="347.82,-97.03 356.54,-91.02 345.97,-90.28 347.82,-97.03"/>
</g>
<!-- Node4 -->
<g id="node4" class="node">
<title>Node4</title>
<g id="a_node4"><a xlink:href="unit-to__chars_8cpp.html#acf34797b126b5b94d2c0feb6d74cd7e4" target="_top" xlink:title=" ">
<polygon fill="white" stroke="black" points="214,-66.5 214,-85.5 285,-85.5 285,-66.5 214,-66.5"/>
<text text-anchor="middle" x="249.5" y="-73.5" font-family="Helvetica,sans-Serif" font-size="10.00">TEST_CASE</text>
</a>
</g>
</g>
<!-- Node2&#45;&gt;Node4 -->
<g id="edge3" class="edge">
<title>Node2&#45;&gt;Node4</title>
<path fill="none" stroke="midnightblue" d="M338.59,-76C320.07,-76 301.02,-76 285.39,-76"/>
<polygon fill="midnightblue" stroke="midnightblue" points="338.79,-79.5 348.79,-76 338.79,-72.5 338.79,-79.5"/>
</g>
<!-- Node5 -->
<g id="node5" class="node">
<title>Node5</title>
<g id="a_node5"><a xlink:href="namespacenlohmann_1_1detail.html#a6cca370ac6c99294dbe4fe24716a57dd" target="_top" xlink:title="generates a decimal representation of the floating&#45;point number value in [first, last).">
<polygon fill="white" stroke="black" points="192,-17 192,-47 307,-47 307,-17 192,-17"/>
<text text-anchor="start" x="200" y="-35" font-family="Helvetica,sans-Serif" font-size="10.00">nlohmann::detail::to</text>
<text text-anchor="middle" x="249.5" y="-24" font-family="Helvetica,sans-Serif" font-size="10.00">_chars</text>
</a>
</g>
</g>
<!-- Node2&#45;&gt;Node5 -->
<g id="edge4" class="edge">
<title>Node2&#45;&gt;Node5</title>
<path fill="none" stroke="midnightblue" d="M346.72,-58.3C333.05,-54.56 318.75,-50.65 305.48,-47.03"/>
<polygon fill="midnightblue" stroke="midnightblue" points="345.97,-61.72 356.54,-60.98 347.82,-54.97 345.97,-61.72"/>
</g>
<!-- Node6 -->
<g id="node6" class="node">
<title>Node6</title>
<g id="a_node6"><a xlink:href="classnlohmann_1_1detail_1_1serializer.html#a24b0fe45dc774441237bde198a133d8a" target="_top" xlink:title=" ">
<polygon fill="white" stroke="black" points="0,-39 0,-69 150,-69 150,-39 0,-39"/>
<text text-anchor="start" x="8" y="-57" font-family="Helvetica,sans-Serif" font-size="10.00">nlohmann::detail::serializer</text>
<text text-anchor="middle" x="75" y="-46" font-family="Helvetica,sans-Serif" font-size="10.00">::dump_float</text>
</a>
</g>
</g>
<!-- Node5&#45;&gt;Node6 -->
<g id="edge5" class="edge">
<title>Node5&#45;&gt;Node6</title>
<path fill="none" stroke="midnightblue" d="M181.43,-40.55C171.17,-41.86 160.53,-43.22 150.13,-44.55"/>
<polygon fill="midnightblue" stroke="midnightblue" points="182.06,-44 191.54,-39.26 181.18,-37.06 182.06,-44"/>
</g>
<!-- Node7 -->
<g id="node7" class="node">
<title>Node7</title>
<g id="a_node7"><a xlink:href="unit-to__chars_8cpp.html#aa943f889b4ca051c4ee97598d094e0de" target="_top" xlink:title=" ">
<polygon fill="white" stroke="black" points="39.5,-0.5 39.5,-19.5 110.5,-19.5 110.5,-0.5 39.5,-0.5"/>
<text text-anchor="middle" x="75" y="-7.5" font-family="Helvetica,sans-Serif" font-size="10.00">TEST_CASE</text>
</a>
</g>
</g>
<!-- Node5&#45;&gt;Node7 -->
<g id="edge6" class="edge">
<title>Node5&#45;&gt;Node7</title>
<path fill="none" stroke="midnightblue" d="M181.32,-23.43C157.1,-20.34 130.78,-16.99 110.51,-14.4"/>
<polygon fill="midnightblue" stroke="midnightblue" points="181.18,-26.94 191.54,-24.74 182.06,-20 181.18,-26.94"/>
</g>
</g>
</svg>
