<?xml version="1.0" encoding="UTF-8" standalone="no"?>
<!DOCTYPE svg PUBLIC "-//W3C//DTD SVG 1.1//EN"
 "http://www.w3.org/Graphics/SVG/1.1/DTD/svg11.dtd">
<!-- Generated by graphviz version 2.43.0 (0)
 -->
<!-- Title: fuzzer::GetEpoch Pages: 1 -->
<svg width="866pt" height="122pt"
 viewBox="0.00 0.00 866.00 121.50" xmlns="http://www.w3.org/2000/svg" xmlns:xlink="http://www.w3.org/1999/xlink">
<g id="graph0" class="graph" transform="scale(1 1) rotate(0) translate(4 117.5)">
<title>fuzzer::GetEpoch</title>
<polygon fill="white" stroke="transparent" points="-4,4 -4,-117.5 862,-117.5 862,4 -4,4"/>
<!-- Node1 -->
<g id="node1" class="node">
<title>Node1</title>
<g id="a_node1"><a xlink:title=" ">
<polygon fill="#bfbfbf" stroke="black" points="759,-72 759,-91 858,-91 858,-72 759,-72"/>
<text text-anchor="middle" x="808.5" y="-79" font-family="Helvetica,sans-Serif" font-size="10.00">fuzzer::GetEpoch</text>
</a>
</g>
</g>
<!-- Node2 -->
<g id="node2" class="node">
<title>Node2</title>
<g id="a_node2"><a xlink:href="classfuzzer_1_1Fuzzer.html#a582438623b355f23604ebcd6150134c1" target="_top" xlink:title=" ">
<polygon fill="white" stroke="black" points="589.5,-94 589.5,-113 711.5,-113 711.5,-94 589.5,-94"/>
<text text-anchor="middle" x="650.5" y="-101" font-family="Helvetica,sans-Serif" font-size="10.00">fuzzer::Fuzzer::Fuzzer</text>
</a>
</g>
</g>
<!-- Node1&#45;&gt;Node2 -->
<g id="edge1" class="edge">
<title>Node1&#45;&gt;Node2</title>
<path fill="none" stroke="midnightblue" d="M748.92,-89.76C736.7,-91.49 723.79,-93.3 711.52,-95.04"/>
<polygon fill="midnightblue" stroke="midnightblue" points="749.58,-93.2 759,-88.34 748.6,-86.27 749.58,-93.2"/>
</g>
<!-- Node3 -->
<g id="node3" class="node">
<title>Node3</title>
<g id="a_node3"><a xlink:href="namespacefuzzer.html#aa656896c760e996b44c0a0299c2ee250" target="_top" xlink:title=" ">
<polygon fill="white" stroke="black" points="578,-44.5 578,-74.5 723,-74.5 723,-44.5 578,-44.5"/>
<text text-anchor="start" x="586" y="-62.5" font-family="Helvetica,sans-Serif" font-size="10.00">fuzzer::ReadDirToVectorOf</text>
<text text-anchor="middle" x="650.5" y="-51.5" font-family="Helvetica,sans-Serif" font-size="10.00">Units</text>
</a>
</g>
</g>
<!-- Node1&#45;&gt;Node3 -->
<g id="edge2" class="edge">
<title>Node1&#45;&gt;Node3</title>
<path fill="none" stroke="midnightblue" d="M748.93,-73.24C740.52,-72.05 731.79,-70.82 723.17,-69.61"/>
<polygon fill="midnightblue" stroke="midnightblue" points="748.6,-76.73 759,-74.66 749.58,-69.8 748.6,-76.73"/>
</g>
<!-- Node4 -->
<g id="node4" class="node">
<title>Node4</title>
<g id="a_node4"><a xlink:href="namespacefuzzer.html#a78f142089de84c6cbf7b5cab5f766af7" target="_top" xlink:title=" ">
<polygon fill="white" stroke="black" points="77,-50 77,-69 191,-69 191,-50 77,-50"/>
<text text-anchor="middle" x="134" y="-57" font-family="Helvetica,sans-Serif" font-size="10.00">fuzzer::FuzzerDriver</text>
</a>
</g>
</g>
<!-- Node3&#45;&gt;Node4 -->
<g id="edge3" class="edge">
<title>Node3&#45;&gt;Node4</title>
<path fill="none" stroke="midnightblue" d="M567.75,-71.04C559.07,-72 550.36,-72.85 542,-73.5 402.4,-84.36 366.29,-92.73 227,-78.5 208.83,-76.64 188.95,-72.77 172.33,-69.01"/>
<polygon fill="midnightblue" stroke="midnightblue" points="568.37,-74.5 577.91,-69.88 567.57,-67.54 568.37,-74.5"/>
</g>
<!-- Node6 -->
<g id="node6" class="node">
<title>Node6</title>
<g id="a_node6"><a xlink:href="classfuzzer_1_1Fuzzer.html#aad1ef6d2a186b7b2462363111398e54e" target="_top" xlink:title=" ">
<polygon fill="white" stroke="black" points="227,-50 227,-69 348,-69 348,-50 227,-50"/>
<text text-anchor="middle" x="287.5" y="-57" font-family="Helvetica,sans-Serif" font-size="10.00">fuzzer::Fuzzer::Merge</text>
</a>
</g>
</g>
<!-- Node3&#45;&gt;Node6 -->
<g id="edge5" class="edge">
<title>Node3&#45;&gt;Node6</title>
<path fill="none" stroke="midnightblue" d="M567.68,-59.5C500.89,-59.5 408.1,-59.5 348.16,-59.5"/>
<polygon fill="midnightblue" stroke="midnightblue" points="567.75,-63 577.75,-59.5 567.75,-56 567.75,-63"/>
</g>
<!-- Node7 -->
<g id="node7" class="node">
<title>Node7</title>
<g id="a_node7"><a xlink:href="classfuzzer_1_1Fuzzer.html#a44506dc46253928eb73397091d6c4c32" target="_top" xlink:title=" ">
<polygon fill="white" stroke="black" points="384,-0.5 384,-30.5 542,-30.5 542,-0.5 384,-0.5"/>
<text text-anchor="start" x="392" y="-18.5" font-family="Helvetica,sans-Serif" font-size="10.00">fuzzer::Fuzzer::RereadOutput</text>
<text text-anchor="middle" x="463" y="-7.5" font-family="Helvetica,sans-Serif" font-size="10.00">Corpus</text>
</a>
</g>
</g>
<!-- Node3&#45;&gt;Node7 -->
<g id="edge7" class="edge">
<title>Node3&#45;&gt;Node7</title>
<path fill="none" stroke="midnightblue" d="M576.24,-42.12C560.08,-38.29 543.08,-34.26 527.35,-30.53"/>
<polygon fill="midnightblue" stroke="midnightblue" points="575.64,-45.58 586.18,-44.48 577.26,-38.77 575.64,-45.58"/>
</g>
<!-- Node5 -->
<g id="node5" class="node">
<title>Node5</title>
<g id="a_node5"><a xlink:href="FuzzerMain_8cpp.html#a3c04138a5bfe5d72780bb7e82a18e627" target="_top" xlink:title=" ">
<polygon fill="white" stroke="black" points="0,-50 0,-69 41,-69 41,-50 0,-50"/>
<text text-anchor="middle" x="20.5" y="-57" font-family="Helvetica,sans-Serif" font-size="10.00">main</text>
</a>
</g>
</g>
<!-- Node4&#45;&gt;Node5 -->
<g id="edge4" class="edge">
<title>Node4&#45;&gt;Node5</title>
<path fill="none" stroke="midnightblue" d="M66.7,-59.5C57.37,-59.5 48.45,-59.5 41.04,-59.5"/>
<polygon fill="midnightblue" stroke="midnightblue" points="66.92,-63 76.92,-59.5 66.92,-56 66.92,-63"/>
</g>
<!-- Node6&#45;&gt;Node4 -->
<g id="edge6" class="edge">
<title>Node6&#45;&gt;Node4</title>
<path fill="none" stroke="midnightblue" d="M216.48,-59.5C208.1,-59.5 199.63,-59.5 191.48,-59.5"/>
<polygon fill="midnightblue" stroke="midnightblue" points="216.62,-63 226.62,-59.5 216.62,-56 216.62,-63"/>
</g>
<!-- Node8 -->
<g id="node8" class="node">
<title>Node8</title>
<g id="a_node8"><a xlink:href="classfuzzer_1_1Fuzzer.html#a0306e29f06ced3d24ed0417ea2fef34b" target="_top" xlink:title=" ">
<polygon fill="white" stroke="black" points="231,-9 231,-28 344,-28 344,-9 231,-9"/>
<text text-anchor="middle" x="287.5" y="-16" font-family="Helvetica,sans-Serif" font-size="10.00">fuzzer::Fuzzer::Loop</text>
</a>
</g>
</g>
<!-- Node7&#45;&gt;Node8 -->
<g id="edge8" class="edge">
<title>Node7&#45;&gt;Node8</title>
<path fill="none" stroke="midnightblue" d="M373.8,-17.03C363.7,-17.2 353.63,-17.37 344.14,-17.54"/>
<polygon fill="midnightblue" stroke="midnightblue" points="373.94,-20.52 383.88,-16.85 373.82,-13.52 373.94,-20.52"/>
</g>
<!-- Node8&#45;&gt;Node4 -->
<g id="edge9" class="edge">
<title>Node8&#45;&gt;Node4</title>
<path fill="none" stroke="midnightblue" d="M241.57,-30.66C218.76,-36.83 191.47,-44.22 170.21,-49.97"/>
<polygon fill="midnightblue" stroke="midnightblue" points="242.62,-34 251.36,-28.01 240.79,-27.24 242.62,-34"/>
</g>
</g>
</svg>
