<?xml version="1.0" encoding="UTF-8" standalone="no"?>
<!DOCTYPE svg PUBLIC "-//W3C//DTD SVG 1.1//EN"
 "http://www.w3.org/Graphics/SVG/1.1/DTD/svg11.dtd">
<!-- Generated by graphviz version 2.43.0 (0)
 -->
<!-- Title: benchmark::cycleclock::Now Pages: 1 -->
<svg width="540pt" height="28pt"
 viewBox="0.00 0.00 540.00 28.00" xmlns="http://www.w3.org/2000/svg" xmlns:xlink="http://www.w3.org/1999/xlink">
<g id="graph0" class="graph" transform="scale(1 1) rotate(0) translate(4 24)">
<title>benchmark::cycleclock::Now</title>
<polygon fill="white" stroke="transparent" points="-4,4 -4,-24 536,-24 536,4 -4,4"/>
<!-- Node1 -->
<g id="node1" class="node">
<title>Node1</title>
<g id="a_node1"><a xlink:title=" ">
<polygon fill="#bfbfbf" stroke="black" points="376,-0.5 376,-19.5 532,-19.5 532,-0.5 376,-0.5"/>
<text text-anchor="middle" x="454" y="-7.5" font-family="Helvetica,sans-Serif" font-size="10.00">benchmark::cycleclock::Now</text>
</a>
</g>
</g>
<!-- Node2 -->
<g id="node2" class="node">
<title>Node2</title>
<g id="a_node2"><a xlink:href="classfuzzer_1_1Fuzzer.html#a0306e29f06ced3d24ed0417ea2fef34b" target="_top" xlink:title=" ">
<polygon fill="white" stroke="black" points="227,-0.5 227,-19.5 340,-19.5 340,-0.5 227,-0.5"/>
<text text-anchor="middle" x="283.5" y="-7.5" font-family="Helvetica,sans-Serif" font-size="10.00">fuzzer::Fuzzer::Loop</text>
</a>
</g>
</g>
<!-- Node1&#45;&gt;Node2 -->
<g id="edge1" class="edge">
<title>Node1&#45;&gt;Node2</title>
<path fill="none" stroke="midnightblue" d="M365.56,-10C356.96,-10 348.4,-10 340.25,-10"/>
<polygon fill="midnightblue" stroke="midnightblue" points="365.65,-13.5 375.65,-10 365.65,-6.5 365.65,-13.5"/>
</g>
<!-- Node3 -->
<g id="node3" class="node">
<title>Node3</title>
<g id="a_node3"><a xlink:href="namespacefuzzer.html#a78f142089de84c6cbf7b5cab5f766af7" target="_top" xlink:title=" ">
<polygon fill="white" stroke="black" points="77,-0.5 77,-19.5 191,-19.5 191,-0.5 77,-0.5"/>
<text text-anchor="middle" x="134" y="-7.5" font-family="Helvetica,sans-Serif" font-size="10.00">fuzzer::FuzzerDriver</text>
</a>
</g>
</g>
<!-- Node2&#45;&gt;Node3 -->
<g id="edge2" class="edge">
<title>Node2&#45;&gt;Node3</title>
<path fill="none" stroke="midnightblue" d="M216.56,-10C208.14,-10 199.58,-10 191.33,-10"/>
<polygon fill="midnightblue" stroke="midnightblue" points="216.74,-13.5 226.74,-10 216.74,-6.5 216.74,-13.5"/>
</g>
<!-- Node4 -->
<g id="node4" class="node">
<title>Node4</title>
<g id="a_node4"><a xlink:href="FuzzerMain_8cpp.html#a3c04138a5bfe5d72780bb7e82a18e627" target="_top" xlink:title=" ">
<polygon fill="white" stroke="black" points="0,-0.5 0,-19.5 41,-19.5 41,-0.5 0,-0.5"/>
<text text-anchor="middle" x="20.5" y="-7.5" font-family="Helvetica,sans-Serif" font-size="10.00">main</text>
</a>
</g>
</g>
<!-- Node3&#45;&gt;Node4 -->
<g id="edge3" class="edge">
<title>Node3&#45;&gt;Node4</title>
<path fill="none" stroke="midnightblue" d="M66.7,-10C57.37,-10 48.45,-10 41.04,-10"/>
<polygon fill="midnightblue" stroke="midnightblue" points="66.92,-13.5 76.92,-10 66.92,-6.5 66.92,-13.5"/>
</g>
</g>
</svg>
