<?xml version="1.0" encoding="UTF-8" standalone="no"?>
<!DOCTYPE svg PUBLIC "-//W3C//DTD SVG 1.1//EN"
 "http://www.w3.org/Graphics/SVG/1.1/DTD/svg11.dtd">
<!-- Generated by graphviz version 2.43.0 (0)
 -->
<!-- Title: httplib::detail::encoding_type Pages: 1 -->
<svg width="827pt" height="219pt"
 viewBox="0.00 0.00 827.00 219.00" xmlns="http://www.w3.org/2000/svg" xmlns:xlink="http://www.w3.org/1999/xlink">
<g id="graph0" class="graph" transform="scale(1 1) rotate(0) translate(4 215)">
<title>httplib::detail::encoding_type</title>
<polygon fill="white" stroke="transparent" points="-4,4 -4,-215 823,-215 823,4 -4,4"/>
<!-- Node1 -->
<g id="node1" class="node">
<title>Node1</title>
<g id="a_node1"><a xlink:title=" ">
<polygon fill="#bfbfbf" stroke="black" points="0,-112 0,-131 159,-131 159,-112 0,-112"/>
<text text-anchor="middle" x="79.5" y="-119" font-family="Helvetica,sans-Serif" font-size="10.00">httplib::detail::encoding_type</text>
</a>
</g>
</g>
<!-- Node2 -->
<g id="node2" class="node">
<title>Node2</title>
<g id="a_node2"><a xlink:href="namespacehttplib_1_1detail.html#abe508674330c10dbe19fc1a33901c535" target="_top" xlink:title=" ">
<polygon fill="white" stroke="black" points="195,-180.5 195,-210.5 333,-210.5 333,-180.5 195,-180.5"/>
<text text-anchor="start" x="203" y="-198.5" font-family="Helvetica,sans-Serif" font-size="10.00">httplib::detail::can</text>
<text text-anchor="middle" x="264" y="-187.5" font-family="Helvetica,sans-Serif" font-size="10.00">_compress_content_type</text>
</a>
</g>
</g>
<!-- Node1&#45;&gt;Node2 -->
<g id="edge1" class="edge">
<title>Node1&#45;&gt;Node2</title>
<path fill="none" stroke="midnightblue" d="M101.41,-131.18C124.22,-141.6 161.91,-158.45 195,-171.5 199.68,-173.35 204.58,-175.21 209.49,-177.03"/>
<polygon fill="midnightblue" stroke="midnightblue" points="208.34,-180.33 218.93,-180.47 210.74,-173.76 208.34,-180.33"/>
</g>
<!-- Node5 -->
<g id="node5" class="node">
<title>Node5</title>
<g id="a_node5"><a xlink:href="structhttplib_1_1Request.html#a1a0ed323d53df032214a1729db175355" target="_top" xlink:title=" ">
<polygon fill="white" stroke="black" points="206,-131.5 206,-161.5 322,-161.5 322,-131.5 206,-131.5"/>
<text text-anchor="start" x="214" y="-149.5" font-family="Helvetica,sans-Serif" font-size="10.00">httplib::Request::get</text>
<text text-anchor="middle" x="264" y="-138.5" font-family="Helvetica,sans-Serif" font-size="10.00">_header_value</text>
</a>
</g>
</g>
<!-- Node1&#45;&gt;Node5 -->
<g id="edge4" class="edge">
<title>Node1&#45;&gt;Node5</title>
<path fill="none" stroke="midnightblue" d="M150.02,-131.02C164.99,-133.07 180.8,-135.24 195.69,-137.28"/>
<polygon fill="midnightblue" stroke="midnightblue" points="195.45,-140.78 205.83,-138.67 196.4,-133.84 195.45,-140.78"/>
</g>
<!-- Node7 -->
<g id="node7" class="node">
<title>Node7</title>
<g id="a_node7"><a xlink:href="structhttplib_1_1Response.html#a2e047ef1c0de99ac521452f25a76c50a" target="_top" xlink:title=" ">
<polygon fill="white" stroke="black" points="210.5,-82.5 210.5,-112.5 317.5,-112.5 317.5,-82.5 210.5,-82.5"/>
<text text-anchor="start" x="218.5" y="-100.5" font-family="Helvetica,sans-Serif" font-size="10.00">httplib::Response::</text>
<text text-anchor="middle" x="264" y="-89.5" font-family="Helvetica,sans-Serif" font-size="10.00">get_header_value</text>
</a>
</g>
</g>
<!-- Node1&#45;&gt;Node7 -->
<g id="edge6" class="edge">
<title>Node1&#45;&gt;Node7</title>
<path fill="none" stroke="midnightblue" d="M152.89,-111.98C168.5,-109.93 184.87,-107.77 200.08,-105.77"/>
<polygon fill="midnightblue" stroke="midnightblue" points="200.94,-109.19 210.4,-104.42 200.03,-102.25 200.94,-109.19"/>
</g>
<!-- Node8 -->
<g id="node8" class="node">
<title>Node8</title>
<g id="a_node8"><a xlink:href="namespacenlohmann_1_1detail.html#a59fca69799f6b9e366710cb9043aa77d" target="_top" xlink:title=" ">
<polygon fill="white" stroke="black" points="201,-44 201,-63 327,-63 327,-44 201,-44"/>
<text text-anchor="middle" x="264" y="-51" font-family="Helvetica,sans-Serif" font-size="10.00">nlohmann::detail::void</text>
</a>
</g>
</g>
<!-- Node1&#45;&gt;Node8 -->
<g id="edge8" class="edge">
<title>Node1&#45;&gt;Node8</title>
<path fill="none" stroke="midnightblue" d="M101.33,-111.94C124.07,-101.71 161.69,-85.34 195,-73.5 202.42,-70.86 210.38,-68.29 218.14,-65.93"/>
<polygon fill="midnightblue" stroke="midnightblue" points="219.23,-69.25 227.82,-63.04 217.24,-62.54 219.23,-69.25"/>
</g>
<!-- Node3 -->
<g id="node3" class="node">
<title>Node3</title>
<g id="a_node3"><a xlink:href="namespacehttplib_1_1detail.html#a8421d59405044ca97486b9b41d728b0b" target="_top" xlink:title=" ">
<polygon fill="white" stroke="black" points="372,-186 372,-205 494,-205 494,-186 372,-186"/>
<text text-anchor="middle" x="433" y="-193" font-family="Helvetica,sans-Serif" font-size="10.00">httplib::detail::str2tag</text>
</a>
</g>
</g>
<!-- Node2&#45;&gt;Node3 -->
<g id="edge2" class="edge">
<title>Node2&#45;&gt;Node3</title>
<path fill="none" stroke="midnightblue" d="M333.41,-195.5C342.8,-195.5 352.46,-195.5 361.88,-195.5"/>
<polygon fill="midnightblue" stroke="midnightblue" points="361.99,-199 371.99,-195.5 361.99,-192 361.99,-199"/>
</g>
<!-- Node4 -->
<g id="node4" class="node">
<title>Node4</title>
<g id="a_node4"><a xlink:href="namespacehttplib_1_1detail.html#afbbe1f2e45c67a29f1cb3cb68eadbfa6" target="_top" xlink:title=" ">
<polygon fill="white" stroke="black" points="535,-186 535,-205 684,-205 684,-186 535,-186"/>
<text text-anchor="middle" x="609.5" y="-193" font-family="Helvetica,sans-Serif" font-size="10.00">httplib::detail::str2tag_core</text>
</a>
</g>
</g>
<!-- Node3&#45;&gt;Node4 -->
<g id="edge3" class="edge">
<title>Node3&#45;&gt;Node4</title>
<path fill="none" stroke="midnightblue" d="M494.05,-195.5C503.89,-195.5 514.23,-195.5 524.52,-195.5"/>
<polygon fill="midnightblue" stroke="midnightblue" points="524.76,-199 534.76,-195.5 524.76,-192 524.76,-199"/>
</g>
<!-- Node6 -->
<g id="node6" class="node">
<title>Node6</title>
<g id="a_node6"><a xlink:href="namespacehttplib_1_1detail.html#a5182300d07532ca663dfa1b3ae0a352c" target="_top" xlink:title=" ">
<polygon fill="white" stroke="black" points="381,-120.5 381,-150.5 485,-150.5 485,-120.5 381,-120.5"/>
<text text-anchor="start" x="389" y="-138.5" font-family="Helvetica,sans-Serif" font-size="10.00">httplib::detail::get</text>
<text text-anchor="middle" x="433" y="-127.5" font-family="Helvetica,sans-Serif" font-size="10.00">_header_value</text>
</a>
</g>
</g>
<!-- Node5&#45;&gt;Node6 -->
<g id="edge5" class="edge">
<title>Node5&#45;&gt;Node6</title>
<path fill="none" stroke="midnightblue" d="M322,-142.75C337.66,-141.71 354.71,-140.59 370.6,-139.54"/>
<polygon fill="midnightblue" stroke="midnightblue" points="371.1,-143.02 380.85,-138.87 370.64,-136.03 371.1,-143.02"/>
</g>
<!-- Node7&#45;&gt;Node6 -->
<g id="edge7" class="edge">
<title>Node7&#45;&gt;Node6</title>
<path fill="none" stroke="midnightblue" d="M317.84,-109.52C334.69,-113.36 353.48,-117.63 370.88,-121.59"/>
<polygon fill="midnightblue" stroke="midnightblue" points="370.4,-125.07 380.93,-123.88 371.96,-118.25 370.4,-125.07"/>
</g>
<!-- Node9 -->
<g id="node9" class="node">
<title>Node9</title>
<g id="a_node9"><a xlink:href="classnlohmann_1_1detail_1_1type__error.html#aecc083aea4b698c33d042670ba50c10f" target="_top" xlink:title=" ">
<polygon fill="white" stroke="black" points="369.5,-49.5 369.5,-79.5 496.5,-79.5 496.5,-49.5 369.5,-49.5"/>
<text text-anchor="start" x="377.5" y="-67.5" font-family="Helvetica,sans-Serif" font-size="10.00">nlohmann::detail::type</text>
<text text-anchor="middle" x="433" y="-56.5" font-family="Helvetica,sans-Serif" font-size="10.00">_error::create</text>
</a>
</g>
</g>
<!-- Node8&#45;&gt;Node9 -->
<g id="edge9" class="edge">
<title>Node8&#45;&gt;Node9</title>
<path fill="none" stroke="midnightblue" d="M327.18,-57.6C337.66,-58.29 348.61,-59.01 359.32,-59.71"/>
<polygon fill="midnightblue" stroke="midnightblue" points="359.28,-63.22 369.49,-60.38 359.74,-56.23 359.28,-63.22"/>
</g>
<!-- Node13 -->
<g id="node13" class="node">
<title>Node13</title>
<g id="a_node13"><a xlink:href="namespacenlohmann_1_1detail.html#a40f7bb070a60e8ba14fffb9c117fcbd8" target="_top" xlink:title=" ">
<polygon fill="white" stroke="black" points="369,-0.5 369,-30.5 497,-30.5 497,-0.5 369,-0.5"/>
<text text-anchor="start" x="377" y="-18.5" font-family="Helvetica,sans-Serif" font-size="10.00">nlohmann::detail::from</text>
<text text-anchor="middle" x="433" y="-7.5" font-family="Helvetica,sans-Serif" font-size="10.00">_json_array_impl</text>
</a>
</g>
</g>
<!-- Node8&#45;&gt;Node13 -->
<g id="edge13" class="edge">
<title>Node8&#45;&gt;Node13</title>
<path fill="none" stroke="midnightblue" d="M307.14,-43.91C322.88,-40.33 341.23,-36.15 358.95,-32.12"/>
<polygon fill="midnightblue" stroke="midnightblue" points="359.73,-35.53 368.71,-29.9 358.18,-28.71 359.73,-35.53"/>
</g>
<!-- Node10 -->
<g id="node10" class="node">
<title>Node10</title>
<g id="a_node10"><a xlink:href="classnlohmann_1_1detail_1_1exception.html#abf41a7e9178356314082284e6cfea278" target="_top" xlink:title=" ">
<polygon fill="white" stroke="black" points="533,-74.5 533,-104.5 686,-104.5 686,-74.5 533,-74.5"/>
<text text-anchor="start" x="541" y="-92.5" font-family="Helvetica,sans-Serif" font-size="10.00">nlohmann::detail::exception</text>
<text text-anchor="middle" x="609.5" y="-81.5" font-family="Helvetica,sans-Serif" font-size="10.00">::name</text>
</a>
</g>
</g>
<!-- Node9&#45;&gt;Node10 -->
<g id="edge10" class="edge">
<title>Node9&#45;&gt;Node10</title>
<path fill="none" stroke="midnightblue" d="M496.51,-73.45C505.03,-74.68 513.9,-75.95 522.75,-77.22"/>
<polygon fill="midnightblue" stroke="midnightblue" points="522.32,-80.69 532.72,-78.64 523.31,-73.76 522.32,-80.69"/>
</g>
<!-- Node12 -->
<g id="node12" class="node">
<title>Node12</title>
<g id="a_node12"><a xlink:href="classnlohmann_1_1detail_1_1type__error.html#aa01edaa0bf18b853368f0b900e485cd7" target="_top" xlink:title=" ">
<polygon fill="white" stroke="black" points="546,-25.5 546,-55.5 673,-55.5 673,-25.5 546,-25.5"/>
<text text-anchor="start" x="554" y="-43.5" font-family="Helvetica,sans-Serif" font-size="10.00">nlohmann::detail::type</text>
<text text-anchor="middle" x="609.5" y="-32.5" font-family="Helvetica,sans-Serif" font-size="10.00">_error::type_error</text>
</a>
</g>
</g>
<!-- Node9&#45;&gt;Node12 -->
<g id="edge12" class="edge">
<title>Node9&#45;&gt;Node12</title>
<path fill="none" stroke="midnightblue" d="M496.51,-55.9C509.29,-54.15 522.84,-52.28 535.94,-50.48"/>
<polygon fill="midnightblue" stroke="midnightblue" points="536.41,-53.95 545.84,-49.12 535.46,-47.01 536.41,-53.95"/>
</g>
<!-- Node11 -->
<g id="node11" class="node">
<title>Node11</title>
<g id="a_node11"><a xlink:href="namespacehttplib.html#a498c3a79825ecbcb15c52ec5fcfd5c11" target="_top" xlink:title=" ">
<polygon fill="white" stroke="black" points="722,-80 722,-99 819,-99 819,-80 722,-80"/>
<text text-anchor="middle" x="770.5" y="-87" font-family="Helvetica,sans-Serif" font-size="10.00">httplib::to_string</text>
</a>
</g>
</g>
<!-- Node10&#45;&gt;Node11 -->
<g id="edge11" class="edge">
<title>Node10&#45;&gt;Node11</title>
<path fill="none" stroke="midnightblue" d="M686.27,-89.5C694.82,-89.5 703.43,-89.5 711.7,-89.5"/>
<polygon fill="midnightblue" stroke="midnightblue" points="711.96,-93 721.96,-89.5 711.96,-86 711.96,-93"/>
</g>
</g>
</svg>
