<?xml version="1.0" encoding="UTF-8" standalone="no"?>
<!DOCTYPE svg PUBLIC "-//W3C//DTD SVG 1.1//EN"
 "http://www.w3.org/Graphics/SVG/1.1/DTD/svg11.dtd">
<!-- Generated by graphviz version 2.43.0 (0)
 -->
<!-- Title: httplib::detail::encode_query_param Pages: 1 -->
<svg width="618pt" height="127pt"
 viewBox="0.00 0.00 618.00 126.50" xmlns="http://www.w3.org/2000/svg" xmlns:xlink="http://www.w3.org/1999/xlink">
<g id="graph0" class="graph" transform="scale(1 1) rotate(0) translate(4 122.5)">
<title>httplib::detail::encode_query_param</title>
<polygon fill="white" stroke="transparent" points="-4,4 -4,-122.5 614,-122.5 614,4 -4,4"/>
<!-- Node1 -->
<g id="node1" class="node">
<title>Node1</title>
<g id="a_node1"><a xlink:title=" ">
<polygon fill="#bfbfbf" stroke="black" points="487,-39 487,-69 610,-69 610,-39 487,-39"/>
<text text-anchor="start" x="495" y="-57" font-family="Helvetica,sans-Serif" font-size="10.00">httplib::detail::encode</text>
<text text-anchor="middle" x="548.5" y="-46" font-family="Helvetica,sans-Serif" font-size="10.00">_query_param</text>
</a>
</g>
</g>
<!-- Node2 -->
<g id="node2" class="node">
<title>Node2</title>
<g id="a_node2"><a xlink:href="namespacehttplib_1_1detail.html#ab7b74c41eee2905c0d828e5819514a17" target="_top" xlink:title=" ">
<polygon fill="white" stroke="black" points="326,-39 326,-69 451,-69 451,-39 326,-39"/>
<text text-anchor="start" x="334" y="-57" font-family="Helvetica,sans-Serif" font-size="10.00">httplib::detail::params</text>
<text text-anchor="middle" x="388.5" y="-46" font-family="Helvetica,sans-Serif" font-size="10.00">_to_query_str</text>
</a>
</g>
</g>
<!-- Node1&#45;&gt;Node2 -->
<g id="edge1" class="edge">
<title>Node1&#45;&gt;Node2</title>
<path fill="none" stroke="midnightblue" d="M476.84,-54C468.23,-54 459.48,-54 451.02,-54"/>
<polygon fill="midnightblue" stroke="midnightblue" points="476.86,-57.5 486.86,-54 476.86,-50.5 476.86,-57.5"/>
</g>
<!-- Node3 -->
<g id="node3" class="node">
<title>Node3</title>
<g id="a_node3"><a xlink:href="namespacehttplib.html#aefcf9d8f28e6903e783c9e310a752348" target="_top" xlink:title=" ">
<polygon fill="white" stroke="black" points="165.5,-88 165.5,-118 288.5,-118 288.5,-88 165.5,-88"/>
<text text-anchor="start" x="173.5" y="-106" font-family="Helvetica,sans-Serif" font-size="10.00">httplib::append_query</text>
<text text-anchor="middle" x="227" y="-95" font-family="Helvetica,sans-Serif" font-size="10.00">_params</text>
</a>
</g>
</g>
<!-- Node2&#45;&gt;Node3 -->
<g id="edge2" class="edge">
<title>Node2&#45;&gt;Node3</title>
<path fill="none" stroke="midnightblue" d="M328.54,-72.11C311.58,-77.32 293.28,-82.95 276.99,-87.95"/>
<polygon fill="midnightblue" stroke="midnightblue" points="329.81,-75.38 338.34,-69.1 327.76,-68.69 329.81,-75.38"/>
</g>
<!-- Node5 -->
<g id="node5" class="node">
<title>Node5</title>
<g id="a_node5"><a xlink:href="classhttplib_1_1ClientImpl.html#a5efaf09b90f39f065746f368932a0567" target="_top" xlink:title=" ">
<polygon fill="white" stroke="black" points="175,-39 175,-69 279,-69 279,-39 175,-39"/>
<text text-anchor="start" x="183" y="-57" font-family="Helvetica,sans-Serif" font-size="10.00">httplib::ClientImpl</text>
<text text-anchor="middle" x="227" y="-46" font-family="Helvetica,sans-Serif" font-size="10.00">::Post</text>
</a>
</g>
</g>
<!-- Node2&#45;&gt;Node5 -->
<g id="edge4" class="edge">
<title>Node2&#45;&gt;Node5</title>
<path fill="none" stroke="midnightblue" d="M315.6,-54C303.31,-54 290.77,-54 279.17,-54"/>
<polygon fill="midnightblue" stroke="midnightblue" points="315.83,-57.5 325.83,-54 315.83,-50.5 315.83,-57.5"/>
</g>
<!-- Node6 -->
<g id="node6" class="node">
<title>Node6</title>
<g id="a_node6"><a xlink:href="classhttplib_1_1ClientImpl.html#afe39b5f647cbdfde54b219635f500916" target="_top" xlink:title=" ">
<polygon fill="white" stroke="black" points="164,-0.5 164,-19.5 290,-19.5 290,-0.5 164,-0.5"/>
<text text-anchor="middle" x="227" y="-7.5" font-family="Helvetica,sans-Serif" font-size="10.00">httplib::ClientImpl::Put</text>
</a>
</g>
</g>
<!-- Node2&#45;&gt;Node6 -->
<g id="edge5" class="edge">
<title>Node2&#45;&gt;Node6</title>
<path fill="none" stroke="midnightblue" d="M323.35,-36.3C302.64,-30.59 280.47,-24.47 262.72,-19.58"/>
<polygon fill="midnightblue" stroke="midnightblue" points="322.48,-39.7 333.06,-38.98 324.35,-32.95 322.48,-39.7"/>
</g>
<!-- Node4 -->
<g id="node4" class="node">
<title>Node4</title>
<g id="a_node4"><a xlink:href="classhttplib_1_1ClientImpl.html#a8fa5a27c16af44687cab7840ff49a7d2" target="_top" xlink:title=" ">
<polygon fill="white" stroke="black" points="0,-93.5 0,-112.5 128,-112.5 128,-93.5 0,-93.5"/>
<text text-anchor="middle" x="64" y="-100.5" font-family="Helvetica,sans-Serif" font-size="10.00">httplib::ClientImpl::Get</text>
</a>
</g>
</g>
<!-- Node3&#45;&gt;Node4 -->
<g id="edge3" class="edge">
<title>Node3&#45;&gt;Node4</title>
<path fill="none" stroke="midnightblue" d="M155.08,-103C146.1,-103 136.95,-103 128.1,-103"/>
<polygon fill="midnightblue" stroke="midnightblue" points="155.13,-106.5 165.13,-103 155.13,-99.5 155.13,-106.5"/>
</g>
</g>
</svg>
