<?xml version="1.0" encoding="UTF-8" standalone="no"?>
<!DOCTYPE svg PUBLIC "-//W3C//DTD SVG 1.1//EN"
 "http://www.w3.org/Graphics/SVG/1.1/DTD/svg11.dtd">
<!-- Generated by graphviz version 2.43.0 (0)
 -->
<!-- Title: fuzzer::ParseFlags Pages: 1 -->
<svg width="407pt" height="104pt"
 viewBox="0.00 0.00 407.00 104.00" xmlns="http://www.w3.org/2000/svg" xmlns:xlink="http://www.w3.org/1999/xlink">
<g id="graph0" class="graph" transform="scale(1 1) rotate(0) translate(4 100)">
<title>fuzzer::ParseFlags</title>
<polygon fill="white" stroke="transparent" points="-4,4 -4,-100 403,-100 403,4 -4,4"/>
<!-- Node1 -->
<g id="node1" class="node">
<title>Node1</title>
<g id="a_node1"><a xlink:title=" ">
<polygon fill="#bfbfbf" stroke="black" points="0,-38.5 0,-57.5 106,-57.5 106,-38.5 0,-38.5"/>
<text text-anchor="middle" x="53" y="-45.5" font-family="Helvetica,sans-Serif" font-size="10.00">fuzzer::ParseFlags</text>
</a>
</g>
</g>
<!-- Node2 -->
<g id="node2" class="node">
<title>Node2</title>
<g id="a_node2"><a xlink:href="namespacefuzzer.html#ac80546785aec3d9b177b29a64673a261" target="_top" xlink:title=" ">
<polygon fill="white" stroke="black" points="142,-38.5 142,-57.5 262,-57.5 262,-38.5 142,-38.5"/>
<text text-anchor="middle" x="202" y="-45.5" font-family="Helvetica,sans-Serif" font-size="10.00">fuzzer::ParseOneFlag</text>
</a>
</g>
</g>
<!-- Node1&#45;&gt;Node2 -->
<g id="edge1" class="edge">
<title>Node1&#45;&gt;Node2</title>
<path fill="none" stroke="midnightblue" d="M106.24,-48C114.54,-48 123.24,-48 131.86,-48"/>
<polygon fill="midnightblue" stroke="midnightblue" points="131.92,-51.5 141.92,-48 131.92,-44.5 131.92,-51.5"/>
</g>
<!-- Node3 -->
<g id="node3" class="node">
<title>Node3</title>
<g id="a_node3"><a xlink:href="namespacefuzzer.html#a1bfe167c24ab1416605326c073c1d403" target="_top" xlink:title=" ">
<polygon fill="white" stroke="black" points="298,-76.5 298,-95.5 399,-95.5 399,-76.5 298,-76.5"/>
<text text-anchor="middle" x="348.5" y="-83.5" font-family="Helvetica,sans-Serif" font-size="10.00">fuzzer::FlagValue</text>
</a>
</g>
</g>
<!-- Node2&#45;&gt;Node3 -->
<g id="edge2" class="edge">
<title>Node2&#45;&gt;Node3</title>
<path fill="none" stroke="midnightblue" d="M239.46,-57.59C258.27,-62.54 281.41,-68.62 301.45,-73.89"/>
<polygon fill="midnightblue" stroke="midnightblue" points="300.74,-77.32 311.3,-76.48 302.52,-70.55 300.74,-77.32"/>
</g>
<!-- Node4 -->
<g id="node4" class="node">
<title>Node4</title>
<g id="a_node4"><a xlink:href="namespacefuzzer.html#a718e89fe698f9700184b269990eca6cc" target="_top" xlink:title=" ">
<polygon fill="white" stroke="black" points="305.5,-38.5 305.5,-57.5 391.5,-57.5 391.5,-38.5 305.5,-38.5"/>
<text text-anchor="middle" x="348.5" y="-45.5" font-family="Helvetica,sans-Serif" font-size="10.00">fuzzer::MyStol</text>
</a>
</g>
</g>
<!-- Node2&#45;&gt;Node4 -->
<g id="edge3" class="edge">
<title>Node2&#45;&gt;Node4</title>
<path fill="none" stroke="midnightblue" d="M262.19,-48C273.18,-48 284.58,-48 295.34,-48"/>
<polygon fill="midnightblue" stroke="midnightblue" points="295.42,-51.5 305.42,-48 295.42,-44.5 295.42,-51.5"/>
</g>
<!-- Node5 -->
<g id="node5" class="node">
<title>Node5</title>
<g id="a_node5"><a xlink:href="namespacefuzzer.html#afab785891fdb74f8fd33bca421bde935" target="_top" xlink:title=" ">
<polygon fill="white" stroke="black" points="309,-0.5 309,-19.5 388,-19.5 388,-0.5 309,-0.5"/>
<text text-anchor="middle" x="348.5" y="-7.5" font-family="Helvetica,sans-Serif" font-size="10.00">fuzzer::Printf</text>
</a>
</g>
</g>
<!-- Node2&#45;&gt;Node5 -->
<g id="edge4" class="edge">
<title>Node2&#45;&gt;Node5</title>
<path fill="none" stroke="midnightblue" d="M239.46,-38.41C258.27,-33.46 281.41,-27.38 301.45,-22.11"/>
<polygon fill="midnightblue" stroke="midnightblue" points="302.52,-25.45 311.3,-19.52 300.74,-18.68 302.52,-25.45"/>
</g>
</g>
</svg>
