<?xml version="1.0" encoding="UTF-8" standalone="no"?>
<!DOCTYPE svg PUBLIC "-//W3C//DTD SVG 1.1//EN"
 "http://www.w3.org/Graphics/SVG/1.1/DTD/svg11.dtd">
<!-- Generated by graphviz version 2.43.0 (0)
 -->
<!-- Title: httplib::detail::parse_header Pages: 1 -->
<svg width="613pt" height="127pt"
 viewBox="0.00 0.00 613.00 127.00" xmlns="http://www.w3.org/2000/svg" xmlns:xlink="http://www.w3.org/1999/xlink">
<g id="graph0" class="graph" transform="scale(1 1) rotate(0) translate(4 123)">
<title>httplib::detail::parse_header</title>
<polygon fill="white" stroke="transparent" points="-4,4 -4,-123 609,-123 609,4 -4,4"/>
<!-- Node1 -->
<g id="node1" class="node">
<title>Node1</title>
<g id="a_node1"><a xlink:title=" ">
<polygon fill="#bfbfbf" stroke="black" points="0,-44.5 0,-74.5 115,-74.5 115,-44.5 0,-44.5"/>
<text text-anchor="start" x="8" y="-62.5" font-family="Helvetica,sans-Serif" font-size="10.00">httplib::detail::parse</text>
<text text-anchor="middle" x="57.5" y="-51.5" font-family="Helvetica,sans-Serif" font-size="10.00">_header</text>
</a>
</g>
</g>
<!-- Node2 -->
<g id="node2" class="node">
<title>Node2</title>
<g id="a_node2"><a xlink:href="namespacehttplib_1_1detail.html#a3f97283ac7e814cd7501a15c19f300d9" target="_top" xlink:title=" ">
<polygon fill="white" stroke="black" points="156,-88.5 156,-118.5 287,-118.5 287,-88.5 156,-88.5"/>
<text text-anchor="start" x="164" y="-106.5" font-family="Helvetica,sans-Serif" font-size="10.00">httplib::detail::compare</text>
<text text-anchor="middle" x="221.5" y="-95.5" font-family="Helvetica,sans-Serif" font-size="10.00">_case_ignore</text>
</a>
</g>
</g>
<!-- Node1&#45;&gt;Node2 -->
<g id="edge1" class="edge">
<title>Node1&#45;&gt;Node2</title>
<path fill="none" stroke="midnightblue" d="M113.8,-74.52C127.15,-78.15 141.54,-82.05 155.29,-85.79"/>
<polygon fill="midnightblue" stroke="midnightblue" points="154.61,-89.23 165.18,-88.47 156.44,-82.47 154.61,-89.23"/>
</g>
<!-- Node3 -->
<g id="node3" class="node">
<title>Node3</title>
<g id="a_node3"><a xlink:href="namespacehttplib_1_1detail.html#ad9a33d8ea46a298f605165c2d7a11626" target="_top" xlink:title=" ">
<polygon fill="white" stroke="black" points="151,-50 151,-69 292,-69 292,-50 151,-50"/>
<text text-anchor="middle" x="221.5" y="-57" font-family="Helvetica,sans-Serif" font-size="10.00">httplib::detail::decode_url</text>
</a>
</g>
</g>
<!-- Node1&#45;&gt;Node3 -->
<g id="edge2" class="edge">
<title>Node1&#45;&gt;Node3</title>
<path fill="none" stroke="midnightblue" d="M115.16,-59.5C123.42,-59.5 132.06,-59.5 140.68,-59.5"/>
<polygon fill="midnightblue" stroke="midnightblue" points="140.76,-63 150.76,-59.5 140.76,-56 140.76,-63"/>
</g>
<!-- Node7 -->
<g id="node7" class="node">
<title>Node7</title>
<g id="a_node7"><a xlink:href="namespacehttplib_1_1detail.html#a516825616cd42123cbe974a9f42718aa" target="_top" xlink:title=" ">
<polygon fill="white" stroke="black" points="173.5,-0.5 173.5,-30.5 269.5,-30.5 269.5,-0.5 173.5,-0.5"/>
<text text-anchor="start" x="181.5" y="-18.5" font-family="Helvetica,sans-Serif" font-size="10.00">httplib::detail::is</text>
<text text-anchor="middle" x="221.5" y="-7.5" font-family="Helvetica,sans-Serif" font-size="10.00">_space_or_tab</text>
</a>
</g>
</g>
<!-- Node1&#45;&gt;Node7 -->
<g id="edge6" class="edge">
<title>Node1&#45;&gt;Node7</title>
<path fill="none" stroke="midnightblue" d="M113.8,-44.48C129.81,-40.13 147.33,-35.37 163.45,-31"/>
<polygon fill="midnightblue" stroke="midnightblue" points="164.55,-34.32 173.28,-28.33 162.71,-27.57 164.55,-34.32"/>
</g>
<!-- Node4 -->
<g id="node4" class="node">
<title>Node4</title>
<g id="a_node4"><a xlink:href="namespacehttplib_1_1detail.html#a62592aa626f8ab0e3af59e681a28ac1b" target="_top" xlink:title=" ">
<polygon fill="white" stroke="black" points="333.5,-66.5 333.5,-96.5 444.5,-96.5 444.5,-66.5 333.5,-66.5"/>
<text text-anchor="start" x="341.5" y="-84.5" font-family="Helvetica,sans-Serif" font-size="10.00">httplib::detail::from</text>
<text text-anchor="middle" x="389" y="-73.5" font-family="Helvetica,sans-Serif" font-size="10.00">_hex_to_i</text>
</a>
</g>
</g>
<!-- Node3&#45;&gt;Node4 -->
<g id="edge3" class="edge">
<title>Node3&#45;&gt;Node4</title>
<path fill="none" stroke="midnightblue" d="M292.21,-68.77C302.54,-70.14 313.16,-71.55 323.38,-72.91"/>
<polygon fill="midnightblue" stroke="midnightblue" points="323.08,-76.4 333.45,-74.25 324,-69.46 323.08,-76.4"/>
</g>
<!-- Node6 -->
<g id="node6" class="node">
<title>Node6</title>
<g id="a_node6"><a xlink:href="namespacehttplib_1_1detail.html#a011d617356300d12aeb93d2dda1560b9" target="_top" xlink:title=" ">
<polygon fill="white" stroke="black" points="328,-28 328,-47 450,-47 450,-28 328,-28"/>
<text text-anchor="middle" x="389" y="-35" font-family="Helvetica,sans-Serif" font-size="10.00">httplib::detail::to_utf8</text>
</a>
</g>
</g>
<!-- Node3&#45;&gt;Node6 -->
<g id="edge5" class="edge">
<title>Node3&#45;&gt;Node6</title>
<path fill="none" stroke="midnightblue" d="M292.21,-50.23C300.62,-49.12 309.22,-47.97 317.65,-46.85"/>
<polygon fill="midnightblue" stroke="midnightblue" points="318.36,-50.29 327.81,-45.5 317.44,-43.35 318.36,-50.29"/>
</g>
<!-- Node5 -->
<g id="node5" class="node">
<title>Node5</title>
<g id="a_node5"><a xlink:href="namespacehttplib_1_1detail.html#a4a74a4e9cde826f1a91894f63ddb2d9a" target="_top" xlink:title=" ">
<polygon fill="white" stroke="black" points="486,-72 486,-91 605,-91 605,-72 486,-72"/>
<text text-anchor="middle" x="545.5" y="-79" font-family="Helvetica,sans-Serif" font-size="10.00">httplib::detail::is_hex</text>
</a>
</g>
</g>
<!-- Node4&#45;&gt;Node5 -->
<g id="edge4" class="edge">
<title>Node4&#45;&gt;Node5</title>
<path fill="none" stroke="midnightblue" d="M444.91,-81.5C454.86,-81.5 465.35,-81.5 475.65,-81.5"/>
<polygon fill="midnightblue" stroke="midnightblue" points="475.84,-85 485.84,-81.5 475.84,-78 475.84,-85"/>
</g>
</g>
</svg>
