<?xml version="1.0" encoding="UTF-8" standalone="no"?>
<!DOCTYPE svg PUBLIC "-//W3C//DTD SVG 1.1//EN"
 "http://www.w3.org/Graphics/SVG/1.1/DTD/svg11.dtd">
<!-- Generated by graphviz version 2.43.0 (0)
 -->
<!-- Title: httplib::detail::read_content Pages: 1 -->
<!--zoomable 264 -->
<svg id="main" version="1.1" xmlns="http://www.w3.org/2000/svg" xmlns:xlink="http://www.w3.org/1999/xlink" xml:space="preserve" onload="init(evt)">
<style type="text/css"><![CDATA[
.edge:hover path { stroke: red; }
.edge:hover polygon { stroke: red; fill: red; }
]]></style>
<script type="text/javascript"><![CDATA[
var edges = document.getElementsByTagName('g');
if (edges && edges.length) {
  for (var i=0;i<edges.length;i++) {
    if (edges[i].id.substr(0,4)=='edge') {
      edges[i].setAttribute('class','edge');
    }
  }
}
]]></script>
        <defs>
                <circle id="rim" cx="0" cy="0" r="7"/>
                <circle id="rim2" cx="0" cy="0" r="3.5"/>
                <g id="zoomPlus">
                        <use xlink:href="#rim" fill="#404040">
                                <set attributeName="fill" to="#808080" begin="zoomplus.mouseover" end="zoomplus.mouseout"/>
                        </use>
                        <path d="M-4,0h8M0,-4v8" fill="none" stroke="white" stroke-width="1.5" pointer-events="none"/>
                </g>
                <g id="zoomMin">
                        <use xlink:href="#rim" fill="#404040">
                                <set attributeName="fill" to="#808080" begin="zoomminus.mouseover" end="zoomminus.mouseout"/>
                        </use>
                        <path d="M-4,0h8" fill="none" stroke="white" stroke-width="1.5" pointer-events="none"/>
                </g>
                <g id="dirArrow">
                        <path fill="none" stroke="white" stroke-width="1.5" d="M0,-3.0v7 M-2.5,-0.5L0,-3.0L2.5,-0.5"/>
                </g>
               <g id="resetDef">
                       <use xlink:href="#rim2" fill="#404040">
                               <set attributeName="fill" to="#808080" begin="reset.mouseover" end="reset.mouseout"/>
                       </use>
               </g>
        </defs>

<script type="text/javascript">
var viewWidth = 502;
var viewHeight = 264;
var sectionId = 'dynsection-84';
</script>
<script xlink:href="svgpan.js"/>
<svg id="graph" class="graph">
<g id="viewport">
<title>httplib::detail::read_content</title>
<polygon fill="white" stroke="transparent" points="-4,4 -4,-259.5 498,-259.5 498,4 -4,4"/>
<!-- Node1 -->
<g id="node1" class="node">
<title>Node1</title>
<g id="a_node1"><a xlink:title=" ">
<polygon fill="#bfbfbf" stroke="black" points="0,-137 0,-167 110,-167 110,-137 0,-137"/>
<text text-anchor="start" x="8" y="-155" font-family="Helvetica,sans-Serif" font-size="10.00">httplib::detail::read</text>
<text text-anchor="middle" x="55" y="-144" font-family="Helvetica,sans-Serif" font-size="10.00">_content</text>
</a>
</g>
</g>
<!-- Node2 -->
<g id="node2" class="node">
<title>Node2</title>
<g id="a_node2"><a xlink:href="namespacehttplib_1_1detail.html#a275bacceee663280bb937fc79a7f3bce" target="_top" xlink:title=" ">
<polygon fill="white" stroke="black" points="171,-225 171,-255 276,-255 276,-225 171,-225"/>
<text text-anchor="start" x="179" y="-243" font-family="Helvetica,sans-Serif" font-size="10.00">httplib::detail::has</text>
<text text-anchor="middle" x="223.5" y="-232" font-family="Helvetica,sans-Serif" font-size="10.00">_header</text>
</a>
</g>
</g>
<!-- Node1&#45;&gt;Node2 -->
<g id="edge1" class="edge">
<title>Node1&#45;&gt;Node2</title>
<path fill="none" stroke="midnightblue" d="M74.29,-167.24C91.79,-181.22 119.38,-201.7 146,-215 150.84,-217.42 155.97,-219.68 161.19,-221.77"/>
<polygon fill="midnightblue" stroke="midnightblue" points="160.05,-225.08 170.64,-225.36 162.53,-218.54 160.05,-225.08"/>
</g>
<!-- Node3 -->
<g id="node3" class="node">
<title>Node3</title>
<g id="a_node3"><a xlink:href="FuzzerTracePC_8cpp.html#a04324001136ead9261bb82cc6bceea2f" target="_top" xlink:title=" ">
<polygon fill="white" stroke="black" points="209,-186.5 209,-205.5 238,-205.5 238,-186.5 209,-186.5"/>
<text text-anchor="middle" x="223.5" y="-193.5" font-family="Helvetica,sans-Serif" font-size="10.00">if</text>
</a>
</g>
</g>
<!-- Node1&#45;&gt;Node3 -->
<g id="edge2" class="edge">
<title>Node1&#45;&gt;Node3</title>
<path fill="none" stroke="midnightblue" d="M109.24,-167.05C121.31,-170.39 134.08,-173.87 146,-177 163.68,-181.65 183.74,-186.62 198.88,-190.31"/>
<polygon fill="midnightblue" stroke="midnightblue" points="198.39,-193.79 208.93,-192.75 200.04,-186.99 198.39,-193.79"/>
</g>
<!-- Node4 -->
<g id="node4" class="node">
<title>Node4</title>
<g id="a_node4"><a xlink:href="namespacehttplib_1_1detail.html#abd6e246430f90f7881c9475acb026d00" target="_top" xlink:title=" ">
<polygon fill="white" stroke="black" points="146,-137 146,-167 301,-167 301,-137 146,-137"/>
<text text-anchor="start" x="154" y="-155" font-family="Helvetica,sans-Serif" font-size="10.00">httplib::detail::is</text>
<text text-anchor="middle" x="223.5" y="-144" font-family="Helvetica,sans-Serif" font-size="10.00">_chunked_transfer_encoding</text>
</a>
</g>
</g>
<!-- Node1&#45;&gt;Node4 -->
<g id="edge3" class="edge">
<title>Node1&#45;&gt;Node4</title>
<path fill="none" stroke="midnightblue" d="M110.06,-152C118.25,-152 126.87,-152 135.54,-152"/>
<polygon fill="midnightblue" stroke="midnightblue" points="135.73,-155.5 145.73,-152 135.73,-148.5 135.73,-155.5"/>
</g>
<!-- Node7 -->
<g id="node7" class="node">
<title>Node7</title>
<g id="a_node7"><a xlink:href="namespacehttplib_1_1detail.html#adde3b6920db2d9d0065c119a8b255b7c" target="_top" xlink:title=" ">
<polygon fill="white" stroke="black" points="161,-88 161,-118 286,-118 286,-88 161,-88"/>
<text text-anchor="start" x="169" y="-106" font-family="Helvetica,sans-Serif" font-size="10.00">httplib::detail::prepare</text>
<text text-anchor="middle" x="223.5" y="-95" font-family="Helvetica,sans-Serif" font-size="10.00">_content_receiver</text>
</a>
</g>
</g>
<!-- Node1&#45;&gt;Node7 -->
<g id="edge6" class="edge">
<title>Node1&#45;&gt;Node7</title>
<path fill="none" stroke="midnightblue" d="M107.31,-136.9C124.49,-131.84 143.8,-126.16 161.63,-120.92"/>
<polygon fill="midnightblue" stroke="midnightblue" points="162.75,-124.23 171.36,-118.05 160.77,-117.52 162.75,-124.23"/>
</g>
<!-- Node10 -->
<g id="node10" class="node">
<title>Node10</title>
<g id="a_node10"><a xlink:href="namespacehttplib_1_1detail.html#abe909e9a9ee7454dbc9bd814f390bdf0" target="_top" xlink:title=" ">
<polygon fill="white" stroke="black" points="163,-17 163,-47 284,-47 284,-17 163,-17"/>
<text text-anchor="start" x="171" y="-35" font-family="Helvetica,sans-Serif" font-size="10.00">httplib::detail::read</text>
<text text-anchor="middle" x="223.5" y="-24" font-family="Helvetica,sans-Serif" font-size="10.00">_content_with_length</text>
</a>
</g>
</g>
<!-- Node1&#45;&gt;Node10 -->
<g id="edge9" class="edge">
<title>Node1&#45;&gt;Node10</title>
<path fill="none" stroke="midnightblue" d="M73.39,-136.75C91.14,-121.47 119.73,-97.6 146,-79 159.13,-69.7 174.1,-60.27 187.3,-52.31"/>
<polygon fill="midnightblue" stroke="midnightblue" points="189.31,-55.19 196.11,-47.06 185.73,-49.17 189.31,-55.19"/>
</g>
<!-- Node5 -->
<g id="node5" class="node">
<title>Node5</title>
<g id="a_node5"><a xlink:href="namespacehttplib_1_1detail.html#a3f97283ac7e814cd7501a15c19f300d9" target="_top" xlink:title=" ">
<polygon fill="white" stroke="black" points="350,-186 350,-216 481,-216 481,-186 350,-186"/>
<text text-anchor="start" x="358" y="-204" font-family="Helvetica,sans-Serif" font-size="10.00">httplib::detail::compare</text>
<text text-anchor="middle" x="415.5" y="-193" font-family="Helvetica,sans-Serif" font-size="10.00">_case_ignore</text>
</a>
</g>
</g>
<!-- Node4&#45;&gt;Node5 -->
<g id="edge4" class="edge">
<title>Node4&#45;&gt;Node5</title>
<path fill="none" stroke="midnightblue" d="M282.8,-167.03C302.95,-172.23 325.71,-178.1 346.56,-183.48"/>
<polygon fill="midnightblue" stroke="midnightblue" points="345.76,-186.89 356.31,-185.99 347.5,-180.11 345.76,-186.89"/>
</g>
<!-- Node6 -->
<g id="node6" class="node">
<title>Node6</title>
<g id="a_node6"><a xlink:href="namespacehttplib_1_1detail.html#a5182300d07532ca663dfa1b3ae0a352c" target="_top" xlink:title=" ">
<polygon fill="white" stroke="black" points="363.5,-137 363.5,-167 467.5,-167 467.5,-137 363.5,-137"/>
<text text-anchor="start" x="371.5" y="-155" font-family="Helvetica,sans-Serif" font-size="10.00">httplib::detail::get</text>
<text text-anchor="middle" x="415.5" y="-144" font-family="Helvetica,sans-Serif" font-size="10.00">_header_value</text>
</a>
</g>
</g>
<!-- Node4&#45;&gt;Node6 -->
<g id="edge5" class="edge">
<title>Node4&#45;&gt;Node6</title>
<path fill="none" stroke="midnightblue" d="M301.23,-152C318.55,-152 336.7,-152 353.28,-152"/>
<polygon fill="midnightblue" stroke="midnightblue" points="353.38,-155.5 363.38,-152 353.38,-148.5 353.38,-155.5"/>
</g>
<!-- Node8 -->
<g id="node8" class="node">
<title>Node8</title>
<g id="a_node8"><a xlink:href="classhttplib_1_1detail_1_1decompressor.html#ad4fcf7cd57cd8e0b66e5a4d101fffc2e" target="_top" xlink:title=" ">
<polygon fill="white" stroke="black" points="337,-88 337,-118 494,-118 494,-88 337,-88"/>
<text text-anchor="start" x="345" y="-106" font-family="Helvetica,sans-Serif" font-size="10.00">httplib::detail::decompressor</text>
<text text-anchor="middle" x="415.5" y="-95" font-family="Helvetica,sans-Serif" font-size="10.00">::decompress</text>
</a>
</g>
</g>
<!-- Node7&#45;&gt;Node8 -->
<g id="edge7" class="edge">
<title>Node7&#45;&gt;Node8</title>
<path fill="none" stroke="midnightblue" d="M286.19,-103C299.05,-103 312.85,-103 326.46,-103"/>
<polygon fill="midnightblue" stroke="midnightblue" points="326.81,-106.5 336.81,-103 326.81,-99.5 326.81,-106.5"/>
</g>
<!-- Node9 -->
<g id="node9" class="node">
<title>Node9</title>
<g id="a_node9"><a xlink:href="classhttplib_1_1detail_1_1decompressor.html#adf987b42198e8f9fdd555ce9577341ba" target="_top" xlink:title=" ">
<polygon fill="white" stroke="black" points="337,-39 337,-69 494,-69 494,-39 337,-39"/>
<text text-anchor="start" x="345" y="-57" font-family="Helvetica,sans-Serif" font-size="10.00">httplib::detail::decompressor</text>
<text text-anchor="middle" x="415.5" y="-46" font-family="Helvetica,sans-Serif" font-size="10.00">::is_valid</text>
</a>
</g>
</g>
<!-- Node7&#45;&gt;Node9 -->
<g id="edge8" class="edge">
<title>Node7&#45;&gt;Node9</title>
<path fill="none" stroke="midnightblue" d="M282.8,-87.97C302.95,-82.77 325.71,-76.9 346.56,-71.52"/>
<polygon fill="midnightblue" stroke="midnightblue" points="347.5,-74.89 356.31,-69.01 345.76,-68.11 347.5,-74.89"/>
</g>
<!-- Node11 -->
<g id="node11" class="node">
<title>Node11</title>
<g id="a_node11"><a xlink:href="classhttplib_1_1Stream.html#a58adfc27d0672f6a2f293168757861b2" target="_top" xlink:title=" ">
<polygon fill="white" stroke="black" points="357,-0.5 357,-19.5 474,-19.5 474,-0.5 357,-0.5"/>
<text text-anchor="middle" x="415.5" y="-7.5" font-family="Helvetica,sans-Serif" font-size="10.00">httplib::Stream::read</text>
</a>
</g>
</g>
<!-- Node10&#45;&gt;Node11 -->
<g id="edge10" class="edge">
<title>Node10&#45;&gt;Node11</title>
<path fill="none" stroke="midnightblue" d="M284.1,-25.1C303.93,-22.8 326.16,-20.23 346.57,-17.87"/>
<polygon fill="midnightblue" stroke="midnightblue" points="347.21,-21.31 356.74,-16.69 346.4,-14.36 347.21,-21.31"/>
</g>
</g>
</svg>
        <g id="navigator" transform="translate(0 0)" fill="#404254">
                <rect fill="#f2f5e9" fill-opacity="0.5" stroke="#606060" stroke-width=".5" x="0" y="0" width="60" height="60"/>
                <use id="zoomplus" xlink:href="#zoomPlus" x="17" y="9" onmousedown="handleZoom(evt,'in')"/>
                <use id="zoomminus" xlink:href="#zoomMin" x="42" y="9" onmousedown="handleZoom(evt,'out')"/>
                <use id="reset" xlink:href="#resetDef" x="30" y="36" onmousedown="handleReset()"/>
                <g id="arrowUp" xlink:href="#dirArrow" transform="translate(30 24)" onmousedown="handlePan(0,-1)">
                  <use xlink:href="#rim" fill="#404040">
                        <set attributeName="fill" to="#808080" begin="arrowUp.mouseover" end="arrowUp.mouseout"/>
                  </use>
                  <path fill="none" stroke="white" stroke-width="1.5" d="M0,-3.0v7 M-2.5,-0.5L0,-3.0L2.5,-0.5"/>
                </g>
                <g id="arrowRight" xlink:href="#dirArrow" transform="rotate(90) translate(36 -43)" onmousedown="handlePan(1,0)">
                  <use xlink:href="#rim" fill="#404040">
                        <set attributeName="fill" to="#808080" begin="arrowRight.mouseover" end="arrowRight.mouseout"/>
                  </use>
                  <path fill="none" stroke="white" stroke-width="1.5" d="M0,-3.0v7 M-2.5,-0.5L0,-3.0L2.5,-0.5"/>
                </g>
                <g id="arrowDown" xlink:href="#dirArrow" transform="rotate(180) translate(-30 -48)" onmousedown="handlePan(0,1)">
                  <use xlink:href="#rim" fill="#404040">
                        <set attributeName="fill" to="#808080" begin="arrowDown.mouseover" end="arrowDown.mouseout"/>
                  </use>
                  <path fill="none" stroke="white" stroke-width="1.5" d="M0,-3.0v7 M-2.5,-0.5L0,-3.0L2.5,-0.5"/>
                </g>
                <g id="arrowLeft" xlink:href="#dirArrow" transform="rotate(270) translate(-36 17)" onmousedown="handlePan(-1,0)">
                  <use xlink:href="#rim" fill="#404040">
                        <set attributeName="fill" to="#808080" begin="arrowLeft.mouseover" end="arrowLeft.mouseout"/>
                  </use>
                  <path fill="none" stroke="white" stroke-width="1.5" d="M0,-3.0v7 M-2.5,-0.5L0,-3.0L2.5,-0.5"/>
                </g>
        </g>
        <svg viewBox="0 0 15 15" width="100%" height="30px" preserveAspectRatio="xMaxYMin meet">
         <g id="arrow_out" transform="scale(0.3 0.3)">
          <a xlink:href="namespacehttplib_1_1detail_a471b40288a374b94e0957ce380ba01dd_cgraph_org.svg" target="_base">
           <rect id="button" ry="5" rx="5" y="6" x="6" height="38" width="38"
                fill="#f2f5e9" fill-opacity="0.5" stroke="#606060" stroke-width="1.0"/>
           <path id="arrow"
             d="M 11.500037,31.436501 C 11.940474,20.09759 22.043105,11.32322 32.158766,21.979434 L 37.068811,17.246167 C 37.068811,17.246167 37.088388,32 37.088388,32 L 22.160133,31.978069 C 22.160133,31.978069 26.997745,27.140456 26.997745,27.140456 C 18.528582,18.264221 13.291696,25.230495 11.500037,31.436501 z"
             style="fill:#404040;"/>
          </a>
         </g>
        </svg>
</svg>
