<?xml version="1.0" encoding="UTF-8" standalone="no"?>
<!DOCTYPE svg PUBLIC "-//W3C//DTD SVG 1.1//EN"
 "http://www.w3.org/Graphics/SVG/1.1/DTD/svg11.dtd">
<!-- Generated by graphviz version 2.43.0 (0)
 -->
<!-- Title: nlohmann::detail::to_chars Pages: 1 -->
<svg width="726pt" height="387pt"
 viewBox="0.00 0.00 726.00 387.03" xmlns="http://www.w3.org/2000/svg" xmlns:xlink="http://www.w3.org/1999/xlink">
<g id="graph0" class="graph" transform="scale(1 1) rotate(0) translate(4 383.03)">
<title>nlohmann::detail::to_chars</title>
<polygon fill="white" stroke="transparent" points="-4,4 -4,-383.03 722,-383.03 722,4 -4,4"/>
<!-- Node1 -->
<g id="node1" class="node">
<title>Node1</title>
<g id="a_node1"><a xlink:title="generates a decimal representation of the floating&#45;point number value in [first, last).">
<polygon fill="#bfbfbf" stroke="black" points="0,-281.5 0,-311.5 115,-311.5 115,-281.5 0,-281.5"/>
<text text-anchor="start" x="8" y="-299.5" font-family="Helvetica,sans-Serif" font-size="10.00">nlohmann::detail::to</text>
<text text-anchor="middle" x="57.5" y="-288.5" font-family="Helvetica,sans-Serif" font-size="10.00">_chars</text>
</a>
</g>
</g>
<!-- Node2 -->
<g id="node2" class="node">
<title>Node2</title>
<g id="a_node2"><a xlink:href="FuzzerTracePC_8cpp.html#a1f10ac78bd11294b612636121065eb5b" target="_top" xlink:title=" ">
<polygon fill="white" stroke="black" points="671,-205 671,-224 718,-224 718,-205 671,-205"/>
<text text-anchor="middle" x="694.5" y="-212" font-family="Helvetica,sans-Serif" font-size="10.00">assert</text>
</a>
</g>
</g>
<!-- Node1&#45;&gt;Node2 -->
<g id="edge1" class="edge">
<title>Node1&#45;&gt;Node2</title>
<path fill="none" stroke="midnightblue" d="M95.32,-311.59C192.08,-348.66 458.21,-433.61 635,-326.5 668.16,-306.41 683.42,-260.67 689.69,-234.28"/>
<polygon fill="midnightblue" stroke="midnightblue" points="693.16,-234.8 691.85,-224.28 686.31,-233.32 693.16,-234.8"/>
</g>
<!-- Node3 -->
<g id="node3" class="node">
<title>Node3</title>
<g id="a_node3"><a xlink:href="namespacenlohmann_1_1detail_1_1dtoa__impl.html#a72fef7b057d5176923ecdbe426694efa" target="_top" xlink:title="prettify v = buf * 10^decimal_exponent">
<polygon fill="white" stroke="black" points="320.5,-281.5 320.5,-311.5 447.5,-311.5 447.5,-281.5 320.5,-281.5"/>
<text text-anchor="start" x="328.5" y="-299.5" font-family="Helvetica,sans-Serif" font-size="10.00">nlohmann::detail::dtoa</text>
<text text-anchor="middle" x="384" y="-288.5" font-family="Helvetica,sans-Serif" font-size="10.00">_impl::format_buffer</text>
</a>
</g>
</g>
<!-- Node1&#45;&gt;Node3 -->
<g id="edge2" class="edge">
<title>Node1&#45;&gt;Node3</title>
<path fill="none" stroke="midnightblue" d="M115.02,-296.5C169.27,-296.5 251.43,-296.5 310.48,-296.5"/>
<polygon fill="midnightblue" stroke="midnightblue" points="310.48,-300 320.48,-296.5 310.48,-293 310.48,-300"/>
</g>
<!-- Node5 -->
<g id="node5" class="node">
<title>Node5</title>
<g id="a_node5"><a xlink:href="namespacenlohmann_1_1detail_1_1dtoa__impl.html#a05b681dcb8569b9784c6dccfadb01633" target="_top" xlink:title=" ">
<polygon fill="white" stroke="black" points="151,-169.5 151,-199.5 278,-199.5 278,-169.5 151,-169.5"/>
<text text-anchor="start" x="159" y="-187.5" font-family="Helvetica,sans-Serif" font-size="10.00">nlohmann::detail::dtoa</text>
<text text-anchor="middle" x="214.5" y="-176.5" font-family="Helvetica,sans-Serif" font-size="10.00">_impl::grisu2</text>
</a>
</g>
</g>
<!-- Node1&#45;&gt;Node5 -->
<g id="edge6" class="edge">
<title>Node1&#45;&gt;Node5</title>
<path fill="none" stroke="midnightblue" d="M79.4,-281.4C106.44,-261.86 153.7,-227.71 184.28,-205.61"/>
<polygon fill="midnightblue" stroke="midnightblue" points="186.38,-208.42 192.43,-199.72 182.28,-202.74 186.38,-208.42"/>
</g>
<!-- Node3&#45;&gt;Node2 -->
<g id="edge5" class="edge">
<title>Node3&#45;&gt;Node2</title>
<path fill="none" stroke="midnightblue" d="M435.31,-311.54C488.33,-324.36 572.63,-335.93 635,-302.5 661.97,-288.04 678.63,-255.06 686.97,-233.83"/>
<polygon fill="midnightblue" stroke="midnightblue" points="690.33,-234.82 690.49,-224.23 683.76,-232.41 690.33,-234.82"/>
</g>
<!-- Node4 -->
<g id="node4" class="node">
<title>Node4</title>
<g id="a_node4"><a xlink:href="namespacenlohmann_1_1detail_1_1dtoa__impl.html#ad43b8eaceed2506865ad9f88008cf89b" target="_top" xlink:title="appends a decimal representation of e to buf">
<polygon fill="white" stroke="black" points="494,-262.5 494,-292.5 631,-292.5 631,-262.5 494,-262.5"/>
<text text-anchor="start" x="502" y="-280.5" font-family="Helvetica,sans-Serif" font-size="10.00">nlohmann::detail::dtoa</text>
<text text-anchor="middle" x="562.5" y="-269.5" font-family="Helvetica,sans-Serif" font-size="10.00">_impl::append_exponent</text>
</a>
</g>
</g>
<!-- Node3&#45;&gt;Node4 -->
<g id="edge3" class="edge">
<title>Node3&#45;&gt;Node4</title>
<path fill="none" stroke="midnightblue" d="M447.72,-289.75C459.41,-288.49 471.76,-287.16 483.83,-285.86"/>
<polygon fill="midnightblue" stroke="midnightblue" points="484.32,-289.33 493.89,-284.78 483.57,-282.37 484.32,-289.33"/>
</g>
<!-- Node4&#45;&gt;Node2 -->
<g id="edge4" class="edge">
<title>Node4&#45;&gt;Node2</title>
<path fill="none" stroke="midnightblue" d="M601.72,-262.43C612.59,-257.88 624.36,-252.71 635,-247.5 646.22,-242 658.31,-235.32 668.56,-229.42"/>
<polygon fill="midnightblue" stroke="midnightblue" points="670.51,-232.33 677.38,-224.26 666.98,-226.28 670.51,-232.33"/>
</g>
<!-- Node5&#45;&gt;Node2 -->
<g id="edge7" class="edge">
<title>Node5&#45;&gt;Node2</title>
<path fill="none" stroke="midnightblue" d="M255.62,-199.6C273.26,-205.49 294.38,-211.52 314,-214.5 440.8,-233.75 594.19,-223.72 660.42,-217.82"/>
<polygon fill="midnightblue" stroke="midnightblue" points="661.01,-221.28 670.65,-216.87 660.37,-214.31 661.01,-221.28"/>
</g>
<!-- Node6 -->
<g id="node6" class="node">
<title>Node6</title>
<g id="a_node6"><a xlink:href="namespacenlohmann_1_1detail_1_1dtoa__impl.html#adbf329a18c5cf854a3477327afd2200b" target="_top" xlink:title=" ">
<polygon fill="white" stroke="black" points="314,-164 314,-205 454,-205 454,-164 314,-164"/>
<text text-anchor="start" x="322" y="-193" font-family="Helvetica,sans-Serif" font-size="10.00">nlohmann::detail::dtoa</text>
<text text-anchor="start" x="322" y="-182" font-family="Helvetica,sans-Serif" font-size="10.00">_impl::get_cached_power</text>
<text text-anchor="middle" x="384" y="-171" font-family="Helvetica,sans-Serif" font-size="10.00">_for_binary_exponent</text>
</a>
</g>
</g>
<!-- Node5&#45;&gt;Node6 -->
<g id="edge8" class="edge">
<title>Node5&#45;&gt;Node6</title>
<path fill="none" stroke="midnightblue" d="M278.35,-184.5C286.69,-184.5 295.32,-184.5 303.89,-184.5"/>
<polygon fill="midnightblue" stroke="midnightblue" points="303.9,-188 313.9,-184.5 303.9,-181 303.9,-188"/>
</g>
<!-- Node7 -->
<g id="node7" class="node">
<title>Node7</title>
<g id="a_node7"><a xlink:href="namespacenlohmann_1_1detail_1_1dtoa__impl.html#a9b899c72b0e1e3dd46d75c2b4e6bcdfb" target="_top" xlink:title=" ">
<polygon fill="white" stroke="black" points="319,-106.5 319,-136.5 449,-136.5 449,-106.5 319,-106.5"/>
<text text-anchor="start" x="327" y="-124.5" font-family="Helvetica,sans-Serif" font-size="10.00">nlohmann::detail::dtoa</text>
<text text-anchor="middle" x="384" y="-113.5" font-family="Helvetica,sans-Serif" font-size="10.00">_impl::grisu2_digit_gen</text>
</a>
</g>
</g>
<!-- Node5&#45;&gt;Node7 -->
<g id="edge10" class="edge">
<title>Node5&#45;&gt;Node7</title>
<path fill="none" stroke="midnightblue" d="M255.62,-169.41C278.95,-160.64 308.54,-149.51 333.33,-140.18"/>
<polygon fill="midnightblue" stroke="midnightblue" points="334.79,-143.37 342.92,-136.58 332.32,-136.82 334.79,-143.37"/>
</g>
<!-- Node11 -->
<g id="node11" class="node">
<title>Node11</title>
<g id="a_node11"><a xlink:href="structnlohmann_1_1detail_1_1dtoa__impl_1_1diyfp.html#aa5f250d12ce89c81fdb08900c6a823e8" target="_top" xlink:title="returns x * y">
<polygon fill="white" stroke="black" points="320.5,-57.5 320.5,-87.5 447.5,-87.5 447.5,-57.5 320.5,-57.5"/>
<text text-anchor="start" x="328.5" y="-75.5" font-family="Helvetica,sans-Serif" font-size="10.00">nlohmann::detail::dtoa</text>
<text text-anchor="middle" x="384" y="-64.5" font-family="Helvetica,sans-Serif" font-size="10.00">_impl::diyfp::mul</text>
</a>
</g>
</g>
<!-- Node5&#45;&gt;Node11 -->
<g id="edge17" class="edge">
<title>Node5&#45;&gt;Node11</title>
<path fill="none" stroke="midnightblue" d="M229.14,-169.35C247.01,-150.29 280.05,-117.64 314,-97.5 317.42,-95.47 321.02,-93.57 324.72,-91.79"/>
<polygon fill="midnightblue" stroke="midnightblue" points="326.36,-94.89 334.06,-87.62 323.5,-88.5 326.36,-94.89"/>
</g>
<!-- Node6&#45;&gt;Node2 -->
<g id="edge9" class="edge">
<title>Node6&#45;&gt;Node2</title>
<path fill="none" stroke="midnightblue" d="M454.23,-191.23C518.61,-197.49 611.73,-206.55 660.65,-211.31"/>
<polygon fill="midnightblue" stroke="midnightblue" points="660.38,-214.8 670.67,-212.28 661.06,-207.83 660.38,-214.8"/>
</g>
<!-- Node7&#45;&gt;Node2 -->
<g id="edge11" class="edge">
<title>Node7&#45;&gt;Node2</title>
<path fill="none" stroke="midnightblue" d="M447.53,-136.54C498.49,-149.32 572.05,-168.99 635,-190.5 644.15,-193.63 653.94,-197.45 662.83,-201.11"/>
<polygon fill="midnightblue" stroke="midnightblue" points="661.49,-204.34 672.07,-204.98 664.2,-197.89 661.49,-204.34"/>
</g>
<!-- Node8 -->
<g id="node8" class="node">
<title>Node8</title>
<g id="a_node8"><a xlink:href="namespacenlohmann_1_1detail_1_1dtoa__impl.html#a36ded358763b5dbcea9867660fbe4e28" target="_top" xlink:title=" ">
<polygon fill="white" stroke="black" points="490,-98.5 490,-128.5 635,-128.5 635,-98.5 490,-98.5"/>
<text text-anchor="start" x="498" y="-116.5" font-family="Helvetica,sans-Serif" font-size="10.00">nlohmann::detail::dtoa</text>
<text text-anchor="middle" x="562.5" y="-105.5" font-family="Helvetica,sans-Serif" font-size="10.00">_impl::find_largest_pow10</text>
</a>
</g>
</g>
<!-- Node7&#45;&gt;Node8 -->
<g id="edge12" class="edge">
<title>Node7&#45;&gt;Node8</title>
<path fill="none" stroke="midnightblue" d="M449.22,-118.59C459.13,-118.14 469.47,-117.67 479.7,-117.21"/>
<polygon fill="midnightblue" stroke="midnightblue" points="480.03,-120.7 489.86,-116.75 479.72,-113.7 480.03,-120.7"/>
</g>
<!-- Node9 -->
<g id="node9" class="node">
<title>Node9</title>
<g id="a_node9"><a xlink:href="namespacenlohmann_1_1detail_1_1dtoa__impl.html#a5bc841e0bee12fd6489d49cf7bd07bb4" target="_top" xlink:title=" ">
<polygon fill="white" stroke="black" points="499,-49.5 499,-79.5 626,-79.5 626,-49.5 499,-49.5"/>
<text text-anchor="start" x="507" y="-67.5" font-family="Helvetica,sans-Serif" font-size="10.00">nlohmann::detail::dtoa</text>
<text text-anchor="middle" x="562.5" y="-56.5" font-family="Helvetica,sans-Serif" font-size="10.00">_impl::grisu2_round</text>
</a>
</g>
</g>
<!-- Node7&#45;&gt;Node9 -->
<g id="edge13" class="edge">
<title>Node7&#45;&gt;Node9</title>
<path fill="none" stroke="midnightblue" d="M431.84,-106.37C454.37,-99.1 481.55,-90.32 505.2,-82.68"/>
<polygon fill="midnightblue" stroke="midnightblue" points="506.31,-86 514.75,-79.6 504.16,-79.34 506.31,-86"/>
</g>
<!-- Node10 -->
<g id="node10" class="node">
<title>Node10</title>
<g id="a_node10"><a xlink:href="structnlohmann_1_1detail_1_1dtoa__impl_1_1diyfp.html#aeb26771af54ad73598c1a0430d65d884" target="_top" xlink:title="returns x &#45; y">
<polygon fill="white" stroke="black" points="499,-0.5 499,-30.5 626,-30.5 626,-0.5 499,-0.5"/>
<text text-anchor="start" x="507" y="-18.5" font-family="Helvetica,sans-Serif" font-size="10.00">nlohmann::detail::dtoa</text>
<text text-anchor="middle" x="562.5" y="-7.5" font-family="Helvetica,sans-Serif" font-size="10.00">_impl::diyfp::sub</text>
</a>
</g>
</g>
<!-- Node7&#45;&gt;Node10 -->
<g id="edge15" class="edge">
<title>Node7&#45;&gt;Node10</title>
<path fill="none" stroke="midnightblue" d="M439.97,-106.38C444.97,-103.85 449.74,-100.91 454,-97.5 477.69,-78.54 466.21,-58.33 490,-39.5 491.75,-38.11 493.59,-36.8 495.49,-35.57"/>
<polygon fill="midnightblue" stroke="midnightblue" points="497.22,-38.61 504.18,-30.62 493.76,-32.53 497.22,-38.61"/>
</g>
<!-- Node9&#45;&gt;Node2 -->
<g id="edge14" class="edge">
<title>Node9&#45;&gt;Node2</title>
<path fill="none" stroke="midnightblue" d="M620.56,-79.56C625.78,-82.34 630.71,-85.62 635,-89.5 666.72,-118.16 682.64,-167.59 689.38,-194.91"/>
<polygon fill="midnightblue" stroke="midnightblue" points="686.01,-195.87 691.66,-204.84 692.83,-194.31 686.01,-195.87"/>
</g>
<!-- Node10&#45;&gt;Node2 -->
<g id="edge16" class="edge">
<title>Node10&#45;&gt;Node2</title>
<path fill="none" stroke="midnightblue" d="M623.43,-30.62C627.65,-33.13 631.58,-36.07 635,-39.5 678.1,-82.65 689.45,-158.42 692.44,-194.41"/>
<polygon fill="midnightblue" stroke="midnightblue" points="688.96,-194.88 693.14,-204.61 695.94,-194.39 688.96,-194.88"/>
</g>
</g>
</svg>
