<?xml version="1.0" encoding="UTF-8" standalone="no"?>
<!DOCTYPE svg PUBLIC "-//W3C//DTD SVG 1.1//EN"
 "http://www.w3.org/Graphics/SVG/1.1/DTD/svg11.dtd">
<!-- Generated by graphviz version 2.43.0 (0)
 -->
<!-- Title: nlohmann::detail::to_json Pages: 1 -->
<svg width="345pt" height="208pt"
 viewBox="0.00 0.00 345.00 208.00" xmlns="http://www.w3.org/2000/svg" xmlns:xlink="http://www.w3.org/1999/xlink">
<g id="graph0" class="graph" transform="scale(1 1) rotate(0) translate(4 204)">
<title>nlohmann::detail::to_json</title>
<polygon fill="white" stroke="transparent" points="-4,4 -4,-204 341,-204 341,4 -4,4"/>
<!-- Node1 -->
<g id="node1" class="node">
<title>Node1</title>
<g id="a_node1"><a xlink:title=" ">
<polygon fill="#bfbfbf" stroke="black" points="197,-101 197,-120 337,-120 337,-101 197,-101"/>
<text text-anchor="middle" x="267" y="-108" font-family="Helvetica,sans-Serif" font-size="10.00">nlohmann::detail::to_json</text>
</a>
</g>
</g>
<!-- Node2 -->
<g id="node2" class="node">
<title>Node2</title>
<g id="a_node2"><a xlink:href="classnlohmann_1_1basic__json.html#a7639e0834df2bc719a04ffea89b31abc" target="_top" xlink:title="create a JSON value">
<polygon fill="white" stroke="black" points="19.5,-169.5 19.5,-199.5 141.5,-199.5 141.5,-169.5 19.5,-169.5"/>
<text text-anchor="start" x="27.5" y="-187.5" font-family="Helvetica,sans-Serif" font-size="10.00">nlohmann::basic_json</text>
<text text-anchor="middle" x="80.5" y="-176.5" font-family="Helvetica,sans-Serif" font-size="10.00">::basic_json</text>
</a>
</g>
</g>
<!-- Node1&#45;&gt;Node2 -->
<g id="edge1" class="edge">
<title>Node1&#45;&gt;Node2</title>
<path fill="none" stroke="midnightblue" d="M239.22,-124.64C218.29,-135.34 188.27,-149.96 161,-160.5 152.8,-163.67 143.99,-166.69 135.33,-169.46"/>
<polygon fill="midnightblue" stroke="midnightblue" points="240.88,-127.72 248.16,-120.02 237.66,-121.5 240.88,-127.72"/>
</g>
<!-- Node3 -->
<g id="node3" class="node">
<title>Node3</title>
<g id="a_node3"><a xlink:href="structnlohmann_1_1detail_1_1to__json__fn.html#aecfb5114c8a737fc89d98589482795b8" target="_top" xlink:title=" ">
<polygon fill="white" stroke="black" points="23,-120.5 23,-150.5 138,-150.5 138,-120.5 23,-120.5"/>
<text text-anchor="start" x="31" y="-138.5" font-family="Helvetica,sans-Serif" font-size="10.00">nlohmann::detail::to</text>
<text text-anchor="middle" x="80.5" y="-127.5" font-family="Helvetica,sans-Serif" font-size="10.00">_json_fn::operator()</text>
</a>
</g>
</g>
<!-- Node1&#45;&gt;Node3 -->
<g id="edge2" class="edge">
<title>Node1&#45;&gt;Node3</title>
<path fill="none" stroke="midnightblue" d="M186.7,-121.25C170.38,-123.46 153.5,-125.74 138.17,-127.82"/>
<polygon fill="midnightblue" stroke="midnightblue" points="187.33,-124.69 196.77,-119.88 186.39,-117.75 187.33,-124.69"/>
</g>
<!-- Node4 -->
<g id="node4" class="node">
<title>Node4</title>
<g id="a_node4"><a xlink:href="structnlohmann_1_1adl__serializer.html#a01b867bd5dce5249d4f7433b8f27def6" target="_top" xlink:title="convert any value type to a JSON value">
<polygon fill="white" stroke="black" points="12,-71.5 12,-101.5 149,-101.5 149,-71.5 12,-71.5"/>
<text text-anchor="start" x="20" y="-89.5" font-family="Helvetica,sans-Serif" font-size="10.00">nlohmann::adl_serializer</text>
<text text-anchor="middle" x="80.5" y="-78.5" font-family="Helvetica,sans-Serif" font-size="10.00">::to_json</text>
</a>
</g>
</g>
<!-- Node1&#45;&gt;Node4 -->
<g id="edge3" class="edge">
<title>Node1&#45;&gt;Node4</title>
<path fill="none" stroke="midnightblue" d="M186.83,-100.2C174.33,-98.57 161.49,-96.91 149.28,-95.32"/>
<polygon fill="midnightblue" stroke="midnightblue" points="186.41,-103.68 196.77,-101.5 187.31,-96.73 186.41,-103.68"/>
</g>
<!-- Node5 -->
<g id="node5" class="node">
<title>Node5</title>
<g id="a_node5"><a xlink:href="structns_1_1foo__serializer_3_01T_00_01typename_01std_1_1enable__if_3_01_9std_1_1is__same_3_01fo7040e43a8e428c2ddd21aad2ba9685f3.html#a9781b10849af246dc73460d3065ec917" target="_top" xlink:title=" ">
<polygon fill="white" stroke="black" points="0,-0.5 0,-52.5 161,-52.5 161,-0.5 0,-0.5"/>
<text text-anchor="start" x="8" y="-40.5" font-family="Helvetica,sans-Serif" font-size="10.00">ns::foo_serializer</text>
<text text-anchor="start" x="8" y="-29.5" font-family="Helvetica,sans-Serif" font-size="10.00">&lt; T, typename std::enable</text>
<text text-anchor="start" x="8" y="-18.5" font-family="Helvetica,sans-Serif" font-size="10.00">_if&lt; !std::is_same&lt; foo,</text>
<text text-anchor="middle" x="80.5" y="-7.5" font-family="Helvetica,sans-Serif" font-size="10.00"> T &gt;::value &gt;::type &gt;::to_json</text>
</a>
</g>
</g>
<!-- Node1&#45;&gt;Node5 -->
<g id="edge4" class="edge">
<title>Node1&#45;&gt;Node5</title>
<path fill="none" stroke="midnightblue" d="M235.74,-96.63C214.77,-87.03 186.2,-73.97 161,-62.5 153.97,-59.3 146.58,-55.95 139.26,-52.63"/>
<polygon fill="midnightblue" stroke="midnightblue" points="234.54,-99.93 245.09,-100.92 237.46,-93.57 234.54,-99.93"/>
</g>
</g>
</svg>
