<?xml version="1.0" encoding="UTF-8" standalone="no"?>
<!DOCTYPE svg PUBLIC "-//W3C//DTD SVG 1.1//EN"
 "http://www.w3.org/Graphics/SVG/1.1/DTD/svg11.dtd">
<!-- Generated by graphviz version 2.43.0 (0)
 -->
<!-- Title: httplib::detail::serialize_multipart_formdata_item_begin Pages: 1 -->
<svg width="679pt" height="155pt"
 viewBox="0.00 0.00 679.00 154.50" xmlns="http://www.w3.org/2000/svg" xmlns:xlink="http://www.w3.org/1999/xlink">
<g id="graph0" class="graph" transform="scale(1 1) rotate(0) translate(4 150.5)">
<title>httplib::detail::serialize_multipart_formdata_item_begin</title>
<polygon fill="white" stroke="transparent" points="-4,4 -4,-150.5 675,-150.5 675,4 -4,4"/>
<!-- Node1 -->
<g id="node1" class="node">
<title>Node1</title>
<g id="a_node1"><a xlink:title=" ">
<polygon fill="#bfbfbf" stroke="black" points="494,-66 494,-96 671,-96 671,-66 494,-66"/>
<text text-anchor="start" x="502" y="-84" font-family="Helvetica,sans-Serif" font-size="10.00">httplib::detail::serialize</text>
<text text-anchor="middle" x="582.5" y="-73" font-family="Helvetica,sans-Serif" font-size="10.00">_multipart_formdata_item_begin</text>
</a>
</g>
</g>
<!-- Node2 -->
<g id="node2" class="node">
<title>Node2</title>
<g id="a_node2"><a xlink:href="classhttplib_1_1ClientImpl.html#af3c14326e088096d3ff650acbb7eae3f" target="_top" xlink:title=" ">
<polygon fill="white" stroke="black" points="162,-88.5 162,-129.5 293,-129.5 293,-88.5 162,-88.5"/>
<text text-anchor="start" x="170" y="-117.5" font-family="Helvetica,sans-Serif" font-size="10.00">httplib::ClientImpl</text>
<text text-anchor="start" x="170" y="-106.5" font-family="Helvetica,sans-Serif" font-size="10.00">::get_multipart_content</text>
<text text-anchor="middle" x="227.5" y="-95.5" font-family="Helvetica,sans-Serif" font-size="10.00">_provider</text>
</a>
</g>
</g>
<!-- Node1&#45;&gt;Node2 -->
<g id="edge1" class="edge">
<title>Node1&#45;&gt;Node2</title>
<path fill="none" stroke="midnightblue" d="M483.79,-88.75C423.03,-93.57 346.59,-99.63 293.26,-103.86"/>
<polygon fill="midnightblue" stroke="midnightblue" points="484.1,-92.24 493.79,-87.96 483.54,-85.26 484.1,-92.24"/>
</g>
<!-- Node5 -->
<g id="node5" class="node">
<title>Node5</title>
<g id="a_node5"><a xlink:href="namespacehttplib_1_1detail.html#a955d577ea09d1bce5cfabd1c106d041e" target="_top" xlink:title=" ">
<polygon fill="white" stroke="black" points="329,-44 329,-74 458,-74 458,-44 329,-44"/>
<text text-anchor="start" x="337" y="-62" font-family="Helvetica,sans-Serif" font-size="10.00">httplib::detail::serialize</text>
<text text-anchor="middle" x="393.5" y="-51" font-family="Helvetica,sans-Serif" font-size="10.00">_multipart_formdata</text>
</a>
</g>
</g>
<!-- Node1&#45;&gt;Node5 -->
<g id="edge4" class="edge">
<title>Node1&#45;&gt;Node5</title>
<path fill="none" stroke="midnightblue" d="M483.57,-69.48C474.9,-68.46 466.28,-67.45 458.02,-66.47"/>
<polygon fill="midnightblue" stroke="midnightblue" points="483.41,-72.98 493.75,-70.68 484.23,-66.03 483.41,-72.98"/>
</g>
<!-- Node3 -->
<g id="node3" class="node">
<title>Node3</title>
<g id="a_node3"><a xlink:href="classhttplib_1_1ClientImpl.html#a659593ef9e45e597bf91682e9263147d" target="_top" xlink:title=" ">
<polygon fill="white" stroke="black" points="11,-116 11,-146 115,-146 115,-116 11,-116"/>
<text text-anchor="start" x="19" y="-134" font-family="Helvetica,sans-Serif" font-size="10.00">httplib::ClientImpl</text>
<text text-anchor="middle" x="63" y="-123" font-family="Helvetica,sans-Serif" font-size="10.00">::Post</text>
</a>
</g>
</g>
<!-- Node2&#45;&gt;Node3 -->
<g id="edge2" class="edge">
<title>Node2&#45;&gt;Node3</title>
<path fill="none" stroke="midnightblue" d="M151.55,-119.15C139.25,-120.81 126.76,-122.5 115.21,-124.07"/>
<polygon fill="midnightblue" stroke="midnightblue" points="152.37,-122.57 161.81,-117.76 151.43,-115.63 152.37,-122.57"/>
</g>
<!-- Node4 -->
<g id="node4" class="node">
<title>Node4</title>
<g id="a_node4"><a xlink:href="classhttplib_1_1ClientImpl.html#ae8384ff50ea730dd77e979c71fd268d6" target="_top" xlink:title=" ">
<polygon fill="white" stroke="black" points="0,-77.5 0,-96.5 126,-96.5 126,-77.5 0,-77.5"/>
<text text-anchor="middle" x="63" y="-84.5" font-family="Helvetica,sans-Serif" font-size="10.00">httplib::ClientImpl::Put</text>
</a>
</g>
</g>
<!-- Node2&#45;&gt;Node4 -->
<g id="edge3" class="edge">
<title>Node2&#45;&gt;Node4</title>
<path fill="none" stroke="midnightblue" d="M151.78,-98.88C143.19,-97.72 134.49,-96.54 126.09,-95.41"/>
<polygon fill="midnightblue" stroke="midnightblue" points="151.43,-102.37 161.81,-100.24 152.37,-95.43 151.43,-102.37"/>
</g>
<!-- Node5&#45;&gt;Node2 -->
<g id="edge5" class="edge">
<title>Node5&#45;&gt;Node2</title>
<path fill="none" stroke="midnightblue" d="M333.48,-76.99C320.39,-80.98 306.46,-85.23 293.16,-89.29"/>
<polygon fill="midnightblue" stroke="midnightblue" points="334.75,-80.27 343.29,-74 332.71,-73.57 334.75,-80.27"/>
</g>
<!-- Node6 -->
<g id="node6" class="node">
<title>Node6</title>
<g id="a_node6"><a xlink:href="classhttplib_1_1ClientImpl.html#a2273f2235e5f3004768d2792fc765f75" target="_top" xlink:title=" ">
<polygon fill="white" stroke="black" points="175.5,-39 175.5,-69 279.5,-69 279.5,-39 175.5,-39"/>
<text text-anchor="start" x="183.5" y="-57" font-family="Helvetica,sans-Serif" font-size="10.00">httplib::ClientImpl</text>
<text text-anchor="middle" x="227.5" y="-46" font-family="Helvetica,sans-Serif" font-size="10.00">::Post</text>
</a>
</g>
</g>
<!-- Node5&#45;&gt;Node6 -->
<g id="edge6" class="edge">
<title>Node5&#45;&gt;Node6</title>
<path fill="none" stroke="midnightblue" d="M318.6,-56.75C305.4,-56.34 291.91,-55.93 279.52,-55.56"/>
<polygon fill="midnightblue" stroke="midnightblue" points="318.52,-60.25 328.62,-57.05 318.74,-53.25 318.52,-60.25"/>
</g>
<!-- Node7 -->
<g id="node7" class="node">
<title>Node7</title>
<g id="a_node7"><a xlink:href="classhttplib_1_1ClientImpl.html#aa44b2dd8bc2c26d9e5cd1d9a8387bd06" target="_top" xlink:title=" ">
<polygon fill="white" stroke="black" points="164.5,-0.5 164.5,-19.5 290.5,-19.5 290.5,-0.5 164.5,-0.5"/>
<text text-anchor="middle" x="227.5" y="-7.5" font-family="Helvetica,sans-Serif" font-size="10.00">httplib::ClientImpl::Put</text>
</a>
</g>
</g>
<!-- Node5&#45;&gt;Node7 -->
<g id="edge7" class="edge">
<title>Node5&#45;&gt;Node7</title>
<path fill="none" stroke="midnightblue" d="M333.02,-41C319.84,-37.03 305.95,-32.86 293,-29 282.6,-25.9 271.24,-22.54 260.99,-19.53"/>
<polygon fill="midnightblue" stroke="midnightblue" points="332.34,-44.45 342.92,-43.98 334.36,-37.75 332.34,-44.45"/>
</g>
</g>
</svg>
