<?xml version="1.0" encoding="UTF-8" standalone="no"?>
<!DOCTYPE svg PUBLIC "-//W3C//DTD SVG 1.1//EN"
 "http://www.w3.org/Graphics/SVG/1.1/DTD/svg11.dtd">
<!-- Generated by graphviz version 2.43.0 (0)
 -->
<!-- Title: httplib::detail::read_headers Pages: 1 -->
<!--zoomable 313 -->
<svg id="main" version="1.1" xmlns="http://www.w3.org/2000/svg" xmlns:xlink="http://www.w3.org/1999/xlink" xml:space="preserve" onload="init(evt)">
<style type="text/css"><![CDATA[
.edge:hover path { stroke: red; }
.edge:hover polygon { stroke: red; fill: red; }
]]></style>
<script type="text/javascript"><![CDATA[
var edges = document.getElementsByTagName('g');
if (edges && edges.length) {
  for (var i=0;i<edges.length;i++) {
    if (edges[i].id.substr(0,4)=='edge') {
      edges[i].setAttribute('class','edge');
    }
  }
}
]]></script>
        <defs>
                <circle id="rim" cx="0" cy="0" r="7"/>
                <circle id="rim2" cx="0" cy="0" r="3.5"/>
                <g id="zoomPlus">
                        <use xlink:href="#rim" fill="#404040">
                                <set attributeName="fill" to="#808080" begin="zoomplus.mouseover" end="zoomplus.mouseout"/>
                        </use>
                        <path d="M-4,0h8M0,-4v8" fill="none" stroke="white" stroke-width="1.5" pointer-events="none"/>
                </g>
                <g id="zoomMin">
                        <use xlink:href="#rim" fill="#404040">
                                <set attributeName="fill" to="#808080" begin="zoomminus.mouseover" end="zoomminus.mouseout"/>
                        </use>
                        <path d="M-4,0h8" fill="none" stroke="white" stroke-width="1.5" pointer-events="none"/>
                </g>
                <g id="dirArrow">
                        <path fill="none" stroke="white" stroke-width="1.5" d="M0,-3.0v7 M-2.5,-0.5L0,-3.0L2.5,-0.5"/>
                </g>
               <g id="resetDef">
                       <use xlink:href="#rim2" fill="#404040">
                               <set attributeName="fill" to="#808080" begin="reset.mouseover" end="reset.mouseout"/>
                       </use>
               </g>
        </defs>

<script type="text/javascript">
var viewWidth = 792;
var viewHeight = 313;
var sectionId = 'dynsection-90';
</script>
<script xlink:href="svgpan.js"/>
<svg id="graph" class="graph">
<g id="viewport">
<title>httplib::detail::read_headers</title>
<polygon fill="white" stroke="transparent" points="-4,4 -4,-309 788,-309 788,4 -4,4"/>
<!-- Node1 -->
<g id="node1" class="node">
<title>Node1</title>
<g id="a_node1"><a xlink:title=" ">
<polygon fill="#bfbfbf" stroke="black" points="0,-186.5 0,-216.5 110,-216.5 110,-186.5 0,-186.5"/>
<text text-anchor="start" x="8" y="-204.5" font-family="Helvetica,sans-Serif" font-size="10.00">httplib::detail::read</text>
<text text-anchor="middle" x="55" y="-193.5" font-family="Helvetica,sans-Serif" font-size="10.00">_headers</text>
</a>
</g>
</g>
<!-- Node2 -->
<g id="node2" class="node">
<title>Node2</title>
<g id="a_node2"><a xlink:href="classhttplib_1_1detail_1_1stream__line__reader.html#aa0776295bbb7bd734a00dd6ffc281c31" target="_top" xlink:title=" ">
<polygon fill="white" stroke="black" points="146,-230.5 146,-260.5 294,-260.5 294,-230.5 146,-230.5"/>
<text text-anchor="start" x="154" y="-248.5" font-family="Helvetica,sans-Serif" font-size="10.00">httplib::detail::stream</text>
<text text-anchor="middle" x="220" y="-237.5" font-family="Helvetica,sans-Serif" font-size="10.00">_line_reader::end_with_crlf</text>
</a>
</g>
</g>
<!-- Node1&#45;&gt;Node2 -->
<g id="edge1" class="edge">
<title>Node1&#45;&gt;Node2</title>
<path fill="none" stroke="midnightblue" d="M110.28,-216.15C124.12,-219.89 139.15,-223.95 153.49,-227.82"/>
<polygon fill="midnightblue" stroke="midnightblue" points="152.72,-231.23 163.29,-230.46 154.55,-224.48 152.72,-231.23"/>
</g>
<!-- Node3 -->
<g id="node3" class="node">
<title>Node3</title>
<g id="a_node3"><a xlink:href="classhttplib_1_1detail_1_1stream__line__reader.html#ac1ea873b6559ff411cb777d2bbdba4cc" target="_top" xlink:title=" ">
<polygon fill="white" stroke="black" points="339.5,-274.5 339.5,-304.5 461.5,-304.5 461.5,-274.5 339.5,-274.5"/>
<text text-anchor="start" x="347.5" y="-292.5" font-family="Helvetica,sans-Serif" font-size="10.00">httplib::detail::stream</text>
<text text-anchor="middle" x="400.5" y="-281.5" font-family="Helvetica,sans-Serif" font-size="10.00">_line_reader::ptr</text>
</a>
</g>
</g>
<!-- Node1&#45;&gt;Node3 -->
<g id="edge15" class="edge">
<title>Node1&#45;&gt;Node3</title>
<path fill="none" stroke="midnightblue" d="M70.23,-216.77C86.69,-233.3 115.46,-258.85 146,-270.5 204.86,-292.95 276.89,-296.28 329.1,-294.82"/>
<polygon fill="midnightblue" stroke="midnightblue" points="329.4,-298.31 339.27,-294.47 329.16,-291.32 329.4,-298.31"/>
</g>
<!-- Node4 -->
<g id="node4" class="node">
<title>Node4</title>
<g id="a_node4"><a xlink:href="classhttplib_1_1detail_1_1stream__line__reader.html#abf2e2d85e7411c8af6e84109029b4d6e" target="_top" xlink:title=" ">
<polygon fill="white" stroke="black" points="339.5,-225.5 339.5,-255.5 461.5,-255.5 461.5,-225.5 339.5,-225.5"/>
<text text-anchor="start" x="347.5" y="-243.5" font-family="Helvetica,sans-Serif" font-size="10.00">httplib::detail::stream</text>
<text text-anchor="middle" x="400.5" y="-232.5" font-family="Helvetica,sans-Serif" font-size="10.00">_line_reader::size</text>
</a>
</g>
</g>
<!-- Node1&#45;&gt;Node4 -->
<g id="edge16" class="edge">
<title>Node1&#45;&gt;Node4</title>
<path fill="none" stroke="midnightblue" d="M110.03,-204.58C158.37,-207.69 231.1,-213.21 294,-221.5 305.42,-223 317.48,-224.89 329.2,-226.89"/>
<polygon fill="midnightblue" stroke="midnightblue" points="328.95,-230.4 339.4,-228.66 330.15,-223.5 328.95,-230.4"/>
</g>
<!-- Node5 -->
<g id="node5" class="node">
<title>Node5</title>
<g id="a_node5"><a xlink:href="classhttplib_1_1detail_1_1stream__line__reader.html#a39b395742e14cc015a448f6ea4143d44" target="_top" xlink:title=" ">
<polygon fill="white" stroke="black" points="159,-142.5 159,-172.5 281,-172.5 281,-142.5 159,-142.5"/>
<text text-anchor="start" x="167" y="-160.5" font-family="Helvetica,sans-Serif" font-size="10.00">httplib::detail::stream</text>
<text text-anchor="middle" x="220" y="-149.5" font-family="Helvetica,sans-Serif" font-size="10.00">_line_reader::getline</text>
</a>
</g>
</g>
<!-- Node1&#45;&gt;Node5 -->
<g id="edge4" class="edge">
<title>Node1&#45;&gt;Node5</title>
<path fill="none" stroke="midnightblue" d="M110.28,-186.85C124.12,-183.11 139.15,-179.05 153.49,-175.18"/>
<polygon fill="midnightblue" stroke="midnightblue" points="154.55,-178.52 163.29,-172.54 152.72,-171.77 154.55,-178.52"/>
</g>
<!-- Node9 -->
<g id="node9" class="node">
<title>Node9</title>
<g id="a_node9"><a xlink:href="namespacehttplib_1_1detail.html#a9f88ca460e7fee64d3598e4d79349f9a" target="_top" xlink:title=" ">
<polygon fill="white" stroke="black" points="162.5,-66.5 162.5,-96.5 277.5,-96.5 277.5,-66.5 162.5,-66.5"/>
<text text-anchor="start" x="170.5" y="-84.5" font-family="Helvetica,sans-Serif" font-size="10.00">httplib::detail::parse</text>
<text text-anchor="middle" x="220" y="-73.5" font-family="Helvetica,sans-Serif" font-size="10.00">_header</text>
</a>
</g>
</g>
<!-- Node1&#45;&gt;Node9 -->
<g id="edge8" class="edge">
<title>Node1&#45;&gt;Node9</title>
<path fill="none" stroke="midnightblue" d="M75.54,-186.48C93.7,-172.6 121.53,-151.46 146,-133.5 160.1,-123.16 175.89,-111.87 189.17,-102.47"/>
<polygon fill="midnightblue" stroke="midnightblue" points="191.34,-105.22 197.48,-96.59 187.3,-99.5 191.34,-105.22"/>
</g>
<!-- Node2&#45;&gt;Node3 -->
<g id="edge2" class="edge">
<title>Node2&#45;&gt;Node3</title>
<path fill="none" stroke="midnightblue" d="M281.93,-260.52C297.17,-264.28 313.65,-268.34 329.3,-272.2"/>
<polygon fill="midnightblue" stroke="midnightblue" points="328.9,-275.7 339.45,-274.7 330.58,-268.91 328.9,-275.7"/>
</g>
<!-- Node2&#45;&gt;Node4 -->
<g id="edge3" class="edge">
<title>Node2&#45;&gt;Node4</title>
<path fill="none" stroke="midnightblue" d="M294.12,-243.45C305.73,-243.13 317.73,-242.79 329.28,-242.47"/>
<polygon fill="midnightblue" stroke="midnightblue" points="329.39,-245.97 339.29,-242.19 329.2,-238.97 329.39,-245.97"/>
</g>
<!-- Node6 -->
<g id="node6" class="node">
<title>Node6</title>
<g id="a_node6"><a xlink:href="classhttplib_1_1detail_1_1stream__line__reader.html#a983947ba51e1523ddd195dddfdd9bd26" target="_top" xlink:title=" ">
<polygon fill="white" stroke="black" points="339.5,-176.5 339.5,-206.5 461.5,-206.5 461.5,-176.5 339.5,-176.5"/>
<text text-anchor="start" x="347.5" y="-194.5" font-family="Helvetica,sans-Serif" font-size="10.00">httplib::detail::stream</text>
<text text-anchor="middle" x="400.5" y="-183.5" font-family="Helvetica,sans-Serif" font-size="10.00">_line_reader::append</text>
</a>
</g>
</g>
<!-- Node5&#45;&gt;Node6 -->
<g id="edge5" class="edge">
<title>Node5&#45;&gt;Node6</title>
<path fill="none" stroke="midnightblue" d="M281.43,-169.01C296.78,-171.93 313.4,-175.1 329.2,-178.11"/>
<polygon fill="midnightblue" stroke="midnightblue" points="328.96,-181.63 339.43,-180.06 330.26,-174.75 328.96,-181.63"/>
</g>
<!-- Node8 -->
<g id="node8" class="node">
<title>Node8</title>
<g id="a_node8"><a xlink:href="classhttplib_1_1Stream.html#a58adfc27d0672f6a2f293168757861b2" target="_top" xlink:title=" ">
<polygon fill="white" stroke="black" points="342,-138 342,-157 459,-157 459,-138 342,-138"/>
<text text-anchor="middle" x="400.5" y="-145" font-family="Helvetica,sans-Serif" font-size="10.00">httplib::Stream::read</text>
</a>
</g>
</g>
<!-- Node5&#45;&gt;Node8 -->
<g id="edge7" class="edge">
<title>Node5&#45;&gt;Node8</title>
<path fill="none" stroke="midnightblue" d="M281.43,-154.11C297.6,-153.21 315.18,-152.22 331.71,-151.3"/>
<polygon fill="midnightblue" stroke="midnightblue" points="332.06,-154.78 341.85,-150.73 331.67,-147.79 332.06,-154.78"/>
</g>
<!-- Node7 -->
<g id="node7" class="node">
<title>Node7</title>
<g id="a_node7"><a xlink:href="FuzzerTracePC_8cpp.html#a1f10ac78bd11294b612636121065eb5b" target="_top" xlink:title=" ">
<polygon fill="white" stroke="black" points="544.5,-182 544.5,-201 591.5,-201 591.5,-182 544.5,-182"/>
<text text-anchor="middle" x="568" y="-189" font-family="Helvetica,sans-Serif" font-size="10.00">assert</text>
</a>
</g>
</g>
<!-- Node6&#45;&gt;Node7 -->
<g id="edge6" class="edge">
<title>Node6&#45;&gt;Node7</title>
<path fill="none" stroke="midnightblue" d="M461.72,-191.5C486.12,-191.5 513.34,-191.5 534,-191.5"/>
<polygon fill="midnightblue" stroke="midnightblue" points="534.15,-195 544.15,-191.5 534.15,-188 534.15,-195"/>
</g>
<!-- Node10 -->
<g id="node10" class="node">
<title>Node10</title>
<g id="a_node10"><a xlink:href="namespacehttplib_1_1detail.html#a3f97283ac7e814cd7501a15c19f300d9" target="_top" xlink:title=" ">
<polygon fill="white" stroke="black" points="335,-88.5 335,-118.5 466,-118.5 466,-88.5 335,-88.5"/>
<text text-anchor="start" x="343" y="-106.5" font-family="Helvetica,sans-Serif" font-size="10.00">httplib::detail::compare</text>
<text text-anchor="middle" x="400.5" y="-95.5" font-family="Helvetica,sans-Serif" font-size="10.00">_case_ignore</text>
</a>
</g>
</g>
<!-- Node9&#45;&gt;Node10 -->
<g id="edge9" class="edge">
<title>Node9&#45;&gt;Node10</title>
<path fill="none" stroke="midnightblue" d="M277.97,-88.52C292.78,-90.35 308.97,-92.34 324.56,-94.26"/>
<polygon fill="midnightblue" stroke="midnightblue" points="324.34,-97.76 334.69,-95.51 325.2,-90.82 324.34,-97.76"/>
</g>
<!-- Node11 -->
<g id="node11" class="node">
<title>Node11</title>
<g id="a_node11"><a xlink:href="namespacehttplib_1_1detail.html#ad9a33d8ea46a298f605165c2d7a11626" target="_top" xlink:title=" ">
<polygon fill="white" stroke="black" points="330,-50 330,-69 471,-69 471,-50 330,-50"/>
<text text-anchor="middle" x="400.5" y="-57" font-family="Helvetica,sans-Serif" font-size="10.00">httplib::detail::decode_url</text>
</a>
</g>
</g>
<!-- Node9&#45;&gt;Node11 -->
<g id="edge10" class="edge">
<title>Node9&#45;&gt;Node11</title>
<path fill="none" stroke="midnightblue" d="M277.97,-74.48C291.27,-72.84 305.68,-71.06 319.76,-69.33"/>
<polygon fill="midnightblue" stroke="midnightblue" points="320.45,-72.77 329.94,-68.07 319.59,-65.82 320.45,-72.77"/>
</g>
<!-- Node15 -->
<g id="node15" class="node">
<title>Node15</title>
<g id="a_node15"><a xlink:href="namespacehttplib_1_1detail.html#a516825616cd42123cbe974a9f42718aa" target="_top" xlink:title=" ">
<polygon fill="white" stroke="black" points="352.5,-0.5 352.5,-30.5 448.5,-30.5 448.5,-0.5 352.5,-0.5"/>
<text text-anchor="start" x="360.5" y="-18.5" font-family="Helvetica,sans-Serif" font-size="10.00">httplib::detail::is</text>
<text text-anchor="middle" x="400.5" y="-7.5" font-family="Helvetica,sans-Serif" font-size="10.00">_space_or_tab</text>
</a>
</g>
</g>
<!-- Node9&#45;&gt;Node15 -->
<g id="edge14" class="edge">
<title>Node9&#45;&gt;Node15</title>
<path fill="none" stroke="midnightblue" d="M260.56,-66.46C281.22,-58.65 306.95,-48.98 330,-40.5 335.63,-38.43 341.52,-36.28 347.39,-34.15"/>
<polygon fill="midnightblue" stroke="midnightblue" points="348.98,-37.3 357.2,-30.61 346.6,-30.71 348.98,-37.3"/>
</g>
<!-- Node12 -->
<g id="node12" class="node">
<title>Node12</title>
<g id="a_node12"><a xlink:href="namespacehttplib_1_1detail.html#a62592aa626f8ab0e3af59e681a28ac1b" target="_top" xlink:title=" ">
<polygon fill="white" stroke="black" points="512.5,-66.5 512.5,-96.5 623.5,-96.5 623.5,-66.5 512.5,-66.5"/>
<text text-anchor="start" x="520.5" y="-84.5" font-family="Helvetica,sans-Serif" font-size="10.00">httplib::detail::from</text>
<text text-anchor="middle" x="568" y="-73.5" font-family="Helvetica,sans-Serif" font-size="10.00">_hex_to_i</text>
</a>
</g>
</g>
<!-- Node11&#45;&gt;Node12 -->
<g id="edge11" class="edge">
<title>Node11&#45;&gt;Node12</title>
<path fill="none" stroke="midnightblue" d="M471.21,-68.77C481.54,-70.14 492.16,-71.55 502.38,-72.91"/>
<polygon fill="midnightblue" stroke="midnightblue" points="502.08,-76.4 512.45,-74.25 503,-69.46 502.08,-76.4"/>
</g>
<!-- Node14 -->
<g id="node14" class="node">
<title>Node14</title>
<g id="a_node14"><a xlink:href="namespacehttplib_1_1detail.html#a011d617356300d12aeb93d2dda1560b9" target="_top" xlink:title=" ">
<polygon fill="white" stroke="black" points="507,-28 507,-47 629,-47 629,-28 507,-28"/>
<text text-anchor="middle" x="568" y="-35" font-family="Helvetica,sans-Serif" font-size="10.00">httplib::detail::to_utf8</text>
</a>
</g>
</g>
<!-- Node11&#45;&gt;Node14 -->
<g id="edge13" class="edge">
<title>Node11&#45;&gt;Node14</title>
<path fill="none" stroke="midnightblue" d="M471.21,-50.23C479.62,-49.12 488.22,-47.97 496.65,-46.85"/>
<polygon fill="midnightblue" stroke="midnightblue" points="497.36,-50.29 506.81,-45.5 496.44,-43.35 497.36,-50.29"/>
</g>
<!-- Node13 -->
<g id="node13" class="node">
<title>Node13</title>
<g id="a_node13"><a xlink:href="namespacehttplib_1_1detail.html#a4a74a4e9cde826f1a91894f63ddb2d9a" target="_top" xlink:title=" ">
<polygon fill="white" stroke="black" points="665,-72 665,-91 784,-91 784,-72 665,-72"/>
<text text-anchor="middle" x="724.5" y="-79" font-family="Helvetica,sans-Serif" font-size="10.00">httplib::detail::is_hex</text>
</a>
</g>
</g>
<!-- Node12&#45;&gt;Node13 -->
<g id="edge12" class="edge">
<title>Node12&#45;&gt;Node13</title>
<path fill="none" stroke="midnightblue" d="M623.91,-81.5C633.86,-81.5 644.35,-81.5 654.65,-81.5"/>
<polygon fill="midnightblue" stroke="midnightblue" points="654.84,-85 664.84,-81.5 654.84,-78 654.84,-85"/>
</g>
</g>
</svg>
        <g id="navigator" transform="translate(0 0)" fill="#404254">
                <rect fill="#f2f5e9" fill-opacity="0.5" stroke="#606060" stroke-width=".5" x="0" y="0" width="60" height="60"/>
                <use id="zoomplus" xlink:href="#zoomPlus" x="17" y="9" onmousedown="handleZoom(evt,'in')"/>
                <use id="zoomminus" xlink:href="#zoomMin" x="42" y="9" onmousedown="handleZoom(evt,'out')"/>
                <use id="reset" xlink:href="#resetDef" x="30" y="36" onmousedown="handleReset()"/>
                <g id="arrowUp" xlink:href="#dirArrow" transform="translate(30 24)" onmousedown="handlePan(0,-1)">
                  <use xlink:href="#rim" fill="#404040">
                        <set attributeName="fill" to="#808080" begin="arrowUp.mouseover" end="arrowUp.mouseout"/>
                  </use>
                  <path fill="none" stroke="white" stroke-width="1.5" d="M0,-3.0v7 M-2.5,-0.5L0,-3.0L2.5,-0.5"/>
                </g>
                <g id="arrowRight" xlink:href="#dirArrow" transform="rotate(90) translate(36 -43)" onmousedown="handlePan(1,0)">
                  <use xlink:href="#rim" fill="#404040">
                        <set attributeName="fill" to="#808080" begin="arrowRight.mouseover" end="arrowRight.mouseout"/>
                  </use>
                  <path fill="none" stroke="white" stroke-width="1.5" d="M0,-3.0v7 M-2.5,-0.5L0,-3.0L2.5,-0.5"/>
                </g>
                <g id="arrowDown" xlink:href="#dirArrow" transform="rotate(180) translate(-30 -48)" onmousedown="handlePan(0,1)">
                  <use xlink:href="#rim" fill="#404040">
                        <set attributeName="fill" to="#808080" begin="arrowDown.mouseover" end="arrowDown.mouseout"/>
                  </use>
                  <path fill="none" stroke="white" stroke-width="1.5" d="M0,-3.0v7 M-2.5,-0.5L0,-3.0L2.5,-0.5"/>
                </g>
                <g id="arrowLeft" xlink:href="#dirArrow" transform="rotate(270) translate(-36 17)" onmousedown="handlePan(-1,0)">
                  <use xlink:href="#rim" fill="#404040">
                        <set attributeName="fill" to="#808080" begin="arrowLeft.mouseover" end="arrowLeft.mouseout"/>
                  </use>
                  <path fill="none" stroke="white" stroke-width="1.5" d="M0,-3.0v7 M-2.5,-0.5L0,-3.0L2.5,-0.5"/>
                </g>
        </g>
        <svg viewBox="0 0 15 15" width="100%" height="30px" preserveAspectRatio="xMaxYMin meet">
         <g id="arrow_out" transform="scale(0.3 0.3)">
          <a xlink:href="namespacehttplib_1_1detail_aeb8db950848e27227eb130f609b293cf_cgraph_org.svg" target="_base">
           <rect id="button" ry="5" rx="5" y="6" x="6" height="38" width="38"
                fill="#f2f5e9" fill-opacity="0.5" stroke="#606060" stroke-width="1.0"/>
           <path id="arrow"
             d="M 11.500037,31.436501 C 11.940474,20.09759 22.043105,11.32322 32.158766,21.979434 L 37.068811,17.246167 C 37.068811,17.246167 37.088388,32 37.088388,32 L 22.160133,31.978069 C 22.160133,31.978069 26.997745,27.140456 26.997745,27.140456 C 18.528582,18.264221 13.291696,25.230495 11.500037,31.436501 z"
             style="fill:#404040;"/>
          </a>
         </g>
        </svg>
</svg>
