<?xml version="1.0" encoding="UTF-8" standalone="no"?>
<!DOCTYPE svg PUBLIC "-//W3C//DTD SVG 1.1//EN"
 "http://www.w3.org/Graphics/SVG/1.1/DTD/svg11.dtd">
<!-- Generated by graphviz version 2.43.0 (0)
 -->
<!-- Title: fuzzer::DirPlusFile Pages: 1 -->
<!--zoomable 165 -->
<svg id="main" version="1.1" xmlns="http://www.w3.org/2000/svg" xmlns:xlink="http://www.w3.org/1999/xlink" xml:space="preserve" onload="init(evt)">
<style type="text/css"><![CDATA[
.edge:hover path { stroke: red; }
.edge:hover polygon { stroke: red; fill: red; }
]]></style>
<script type="text/javascript"><![CDATA[
var edges = document.getElementsByTagName('g');
if (edges && edges.length) {
  for (var i=0;i<edges.length;i++) {
    if (edges[i].id.substr(0,4)=='edge') {
      edges[i].setAttribute('class','edge');
    }
  }
}
]]></script>
        <defs>
                <circle id="rim" cx="0" cy="0" r="7"/>
                <circle id="rim2" cx="0" cy="0" r="3.5"/>
                <g id="zoomPlus">
                        <use xlink:href="#rim" fill="#404040">
                                <set attributeName="fill" to="#808080" begin="zoomplus.mouseover" end="zoomplus.mouseout"/>
                        </use>
                        <path d="M-4,0h8M0,-4v8" fill="none" stroke="white" stroke-width="1.5" pointer-events="none"/>
                </g>
                <g id="zoomMin">
                        <use xlink:href="#rim" fill="#404040">
                                <set attributeName="fill" to="#808080" begin="zoomminus.mouseover" end="zoomminus.mouseout"/>
                        </use>
                        <path d="M-4,0h8" fill="none" stroke="white" stroke-width="1.5" pointer-events="none"/>
                </g>
                <g id="dirArrow">
                        <path fill="none" stroke="white" stroke-width="1.5" d="M0,-3.0v7 M-2.5,-0.5L0,-3.0L2.5,-0.5"/>
                </g>
               <g id="resetDef">
                       <use xlink:href="#rim2" fill="#404040">
                               <set attributeName="fill" to="#808080" begin="reset.mouseover" end="reset.mouseout"/>
                       </use>
               </g>
        </defs>

<script type="text/javascript">
var viewWidth = 1072;
var viewHeight = 165;
var sectionId = 'dynsection-17';
</script>
<script xlink:href="svgpan.js"/>
<svg id="graph" class="graph">
<g id="viewport">
<title>fuzzer::DirPlusFile</title>
<polygon fill="white" stroke="transparent" points="-4,4 -4,-161 1068,-161 1068,4 -4,4"/>
<!-- Node1 -->
<g id="node1" class="node">
<title>Node1</title>
<g id="a_node1"><a xlink:title=" ">
<polygon fill="#bfbfbf" stroke="black" points="960,-90 960,-109 1064,-109 1064,-90 960,-90"/>
<text text-anchor="middle" x="1012" y="-97" font-family="Helvetica,sans-Serif" font-size="10.00">fuzzer::DirPlusFile</text>
</a>
</g>
</g>
<!-- Node2 -->
<g id="node2" class="node">
<title>Node2</title>
<g id="a_node2"><a xlink:href="classfuzzer_1_1InputCorpus.html#a64cde7656bbad1bd092306d725f27bdb" target="_top" xlink:title=" ">
<polygon fill="white" stroke="black" points="788.5,-117.5 788.5,-147.5 899.5,-147.5 899.5,-117.5 788.5,-117.5"/>
<text text-anchor="start" x="796.5" y="-135.5" font-family="Helvetica,sans-Serif" font-size="10.00">fuzzer::InputCorpus</text>
<text text-anchor="middle" x="844" y="-124.5" font-family="Helvetica,sans-Serif" font-size="10.00">::DeleteInput</text>
</a>
</g>
</g>
<!-- Node1&#45;&gt;Node2 -->
<g id="edge1" class="edge">
<title>Node1&#45;&gt;Node2</title>
<path fill="none" stroke="midnightblue" d="M952.99,-111.03C935.66,-114.48 916.73,-118.24 899.62,-121.64"/>
<polygon fill="midnightblue" stroke="midnightblue" points="953.86,-114.43 962.99,-109.04 952.5,-107.56 953.86,-114.43"/>
</g>
<!-- Node4 -->
<g id="node4" class="node">
<title>Node4</title>
<g id="a_node4"><a xlink:href="classfuzzer_1_1Fuzzer.html#ad2a2044a0a3a8f283e9113544888372a" target="_top" xlink:title=" ">
<polygon fill="white" stroke="black" points="764,-60.5 764,-90.5 924,-90.5 924,-60.5 764,-60.5"/>
<text text-anchor="start" x="772" y="-78.5" font-family="Helvetica,sans-Serif" font-size="10.00">fuzzer::Fuzzer::WriteToOutput</text>
<text text-anchor="middle" x="844" y="-67.5" font-family="Helvetica,sans-Serif" font-size="10.00">Corpus</text>
</a>
</g>
</g>
<!-- Node1&#45;&gt;Node4 -->
<g id="edge3" class="edge">
<title>Node1&#45;&gt;Node4</title>
<path fill="none" stroke="midnightblue" d="M949.8,-90.65C941.42,-89.44 932.72,-88.18 924.08,-86.93"/>
<polygon fill="midnightblue" stroke="midnightblue" points="949.44,-94.14 959.84,-92.1 950.44,-87.21 949.44,-94.14"/>
</g>
<!-- Node3 -->
<g id="node3" class="node">
<title>Node3</title>
<g id="a_node3"><a xlink:href="classfuzzer_1_1InputCorpus.html#a3e23a793c1810f5c6a727847a11a4ffd" target="_top" xlink:title=" ">
<polygon fill="white" stroke="black" points="600.5,-126.5 600.5,-156.5 711.5,-156.5 711.5,-126.5 600.5,-126.5"/>
<text text-anchor="start" x="608.5" y="-144.5" font-family="Helvetica,sans-Serif" font-size="10.00">fuzzer::InputCorpus</text>
<text text-anchor="middle" x="656" y="-133.5" font-family="Helvetica,sans-Serif" font-size="10.00">::AddFeature</text>
</a>
</g>
</g>
<!-- Node2&#45;&gt;Node3 -->
<g id="edge2" class="edge">
<title>Node2&#45;&gt;Node3</title>
<path fill="none" stroke="midnightblue" d="M778.3,-135.63C756.52,-136.68 732.46,-137.85 711.55,-138.86"/>
<polygon fill="midnightblue" stroke="midnightblue" points="778.63,-139.12 788.45,-135.14 778.29,-132.13 778.63,-139.12"/>
</g>
<!-- Node5 -->
<g id="node5" class="node">
<title>Node5</title>
<g id="a_node5"><a xlink:href="classfuzzer_1_1Fuzzer.html#a3777acf379198d5339bf6baf0e9ad011" target="_top" xlink:title=" ">
<polygon fill="white" stroke="black" points="384,-88.5 384,-118.5 548,-118.5 548,-88.5 384,-88.5"/>
<text text-anchor="start" x="392" y="-106.5" font-family="Helvetica,sans-Serif" font-size="10.00">fuzzer::Fuzzer::CrashResistant</text>
<text text-anchor="middle" x="466" y="-95.5" font-family="Helvetica,sans-Serif" font-size="10.00">Merge</text>
</a>
</g>
</g>
<!-- Node4&#45;&gt;Node5 -->
<g id="edge4" class="edge">
<title>Node4&#45;&gt;Node5</title>
<path fill="none" stroke="midnightblue" d="M753.5,-82.17C691.12,-86.81 608.58,-92.96 548.12,-97.46"/>
<polygon fill="midnightblue" stroke="midnightblue" points="754.01,-85.64 763.72,-81.4 753.49,-78.66 754.01,-85.64"/>
</g>
<!-- Node8 -->
<g id="node8" class="node">
<title>Node8</title>
<g id="a_node8"><a xlink:href="classfuzzer_1_1Fuzzer.html#aad1ef6d2a186b7b2462363111398e54e" target="_top" xlink:title=" ">
<polygon fill="white" stroke="black" points="227,-50 227,-69 348,-69 348,-50 227,-50"/>
<text text-anchor="middle" x="287.5" y="-57" font-family="Helvetica,sans-Serif" font-size="10.00">fuzzer::Fuzzer::Merge</text>
</a>
</g>
</g>
<!-- Node4&#45;&gt;Node8 -->
<g id="edge7" class="edge">
<title>Node4&#45;&gt;Node8</title>
<path fill="none" stroke="midnightblue" d="M753.76,-72.92C639.84,-69.64 445.86,-64.04 348.29,-61.23"/>
<polygon fill="midnightblue" stroke="midnightblue" points="753.75,-76.43 763.85,-73.22 753.95,-69.43 753.75,-76.43"/>
</g>
<!-- Node9 -->
<g id="node9" class="node">
<title>Node9</title>
<g id="a_node9"><a xlink:href="classfuzzer_1_1Fuzzer.html#a26b0af99479a986f0b3c67950085adf1" target="_top" xlink:title=" ">
<polygon fill="white" stroke="black" points="584,-0.5 584,-30.5 728,-30.5 728,-0.5 584,-0.5"/>
<text text-anchor="start" x="592" y="-18.5" font-family="Helvetica,sans-Serif" font-size="10.00">fuzzer::Fuzzer::ReportNew</text>
<text text-anchor="middle" x="656" y="-7.5" font-family="Helvetica,sans-Serif" font-size="10.00">Coverage</text>
</a>
</g>
</g>
<!-- Node4&#45;&gt;Node9 -->
<g id="edge9" class="edge">
<title>Node4&#45;&gt;Node9</title>
<path fill="none" stroke="midnightblue" d="M786.52,-57.28C759.99,-48.72 728.75,-38.65 703.6,-30.53"/>
<polygon fill="midnightblue" stroke="midnightblue" points="785.47,-60.62 796.06,-60.36 787.62,-53.96 785.47,-60.62"/>
</g>
<!-- Node6 -->
<g id="node6" class="node">
<title>Node6</title>
<g id="a_node6"><a xlink:href="namespacefuzzer.html#a78f142089de84c6cbf7b5cab5f766af7" target="_top" xlink:title=" ">
<polygon fill="white" stroke="black" points="77,-50 77,-69 191,-69 191,-50 77,-50"/>
<text text-anchor="middle" x="134" y="-57" font-family="Helvetica,sans-Serif" font-size="10.00">fuzzer::FuzzerDriver</text>
</a>
</g>
</g>
<!-- Node5&#45;&gt;Node6 -->
<g id="edge5" class="edge">
<title>Node5&#45;&gt;Node6</title>
<path fill="none" stroke="midnightblue" d="M373.59,-96.03C329.2,-91.86 275.18,-85.99 227,-78.5 210.56,-75.95 192.62,-72.41 176.98,-69.08"/>
<polygon fill="midnightblue" stroke="midnightblue" points="373.5,-99.54 383.78,-96.98 374.14,-92.57 373.5,-99.54"/>
</g>
<!-- Node7 -->
<g id="node7" class="node">
<title>Node7</title>
<g id="a_node7"><a xlink:href="FuzzerMain_8cpp.html#a3c04138a5bfe5d72780bb7e82a18e627" target="_top" xlink:title=" ">
<polygon fill="white" stroke="black" points="0,-50 0,-69 41,-69 41,-50 0,-50"/>
<text text-anchor="middle" x="20.5" y="-57" font-family="Helvetica,sans-Serif" font-size="10.00">main</text>
</a>
</g>
</g>
<!-- Node6&#45;&gt;Node7 -->
<g id="edge6" class="edge">
<title>Node6&#45;&gt;Node7</title>
<path fill="none" stroke="midnightblue" d="M66.7,-59.5C57.37,-59.5 48.45,-59.5 41.04,-59.5"/>
<polygon fill="midnightblue" stroke="midnightblue" points="66.92,-63 76.92,-59.5 66.92,-56 66.92,-63"/>
</g>
<!-- Node8&#45;&gt;Node6 -->
<g id="edge8" class="edge">
<title>Node8&#45;&gt;Node6</title>
<path fill="none" stroke="midnightblue" d="M216.48,-59.5C208.1,-59.5 199.63,-59.5 191.48,-59.5"/>
<polygon fill="midnightblue" stroke="midnightblue" points="216.62,-63 226.62,-59.5 216.62,-56 216.62,-63"/>
</g>
<!-- Node10 -->
<g id="node10" class="node">
<title>Node10</title>
<g id="a_node10"><a xlink:href="classfuzzer_1_1Fuzzer.html#a9c3b80798ae30570306d7f938961dec3" target="_top" xlink:title=" ">
<polygon fill="white" stroke="black" points="394.5,-0.5 394.5,-30.5 537.5,-30.5 537.5,-0.5 394.5,-0.5"/>
<text text-anchor="start" x="402.5" y="-18.5" font-family="Helvetica,sans-Serif" font-size="10.00">fuzzer::Fuzzer::MutateAnd</text>
<text text-anchor="middle" x="466" y="-7.5" font-family="Helvetica,sans-Serif" font-size="10.00">TestOne</text>
</a>
</g>
</g>
<!-- Node9&#45;&gt;Node10 -->
<g id="edge10" class="edge">
<title>Node9&#45;&gt;Node10</title>
<path fill="none" stroke="midnightblue" d="M573.86,-15.5C561.77,-15.5 549.4,-15.5 537.55,-15.5"/>
<polygon fill="midnightblue" stroke="midnightblue" points="573.93,-19 583.93,-15.5 573.93,-12 573.93,-19"/>
</g>
<!-- Node11 -->
<g id="node11" class="node">
<title>Node11</title>
<g id="a_node11"><a xlink:href="classfuzzer_1_1Fuzzer.html#a0306e29f06ced3d24ed0417ea2fef34b" target="_top" xlink:title=" ">
<polygon fill="white" stroke="black" points="231,-9 231,-28 344,-28 344,-9 231,-9"/>
<text text-anchor="middle" x="287.5" y="-16" font-family="Helvetica,sans-Serif" font-size="10.00">fuzzer::Fuzzer::Loop</text>
</a>
</g>
</g>
<!-- Node10&#45;&gt;Node11 -->
<g id="edge11" class="edge">
<title>Node10&#45;&gt;Node11</title>
<path fill="none" stroke="midnightblue" d="M384.21,-16.87C370.7,-17.1 356.94,-17.34 344.24,-17.55"/>
<polygon fill="midnightblue" stroke="midnightblue" points="384.54,-20.37 394.48,-16.7 384.42,-13.37 384.54,-20.37"/>
</g>
<!-- Node11&#45;&gt;Node6 -->
<g id="edge12" class="edge">
<title>Node11&#45;&gt;Node6</title>
<path fill="none" stroke="midnightblue" d="M241.57,-30.66C218.76,-36.83 191.47,-44.22 170.21,-49.97"/>
<polygon fill="midnightblue" stroke="midnightblue" points="242.62,-34 251.36,-28.01 240.79,-27.24 242.62,-34"/>
</g>
</g>
</svg>
        <g id="navigator" transform="translate(0 0)" fill="#404254">
                <rect fill="#f2f5e9" fill-opacity="0.5" stroke="#606060" stroke-width=".5" x="0" y="0" width="60" height="60"/>
                <use id="zoomplus" xlink:href="#zoomPlus" x="17" y="9" onmousedown="handleZoom(evt,'in')"/>
                <use id="zoomminus" xlink:href="#zoomMin" x="42" y="9" onmousedown="handleZoom(evt,'out')"/>
                <use id="reset" xlink:href="#resetDef" x="30" y="36" onmousedown="handleReset()"/>
                <g id="arrowUp" xlink:href="#dirArrow" transform="translate(30 24)" onmousedown="handlePan(0,-1)">
                  <use xlink:href="#rim" fill="#404040">
                        <set attributeName="fill" to="#808080" begin="arrowUp.mouseover" end="arrowUp.mouseout"/>
                  </use>
                  <path fill="none" stroke="white" stroke-width="1.5" d="M0,-3.0v7 M-2.5,-0.5L0,-3.0L2.5,-0.5"/>
                </g>
                <g id="arrowRight" xlink:href="#dirArrow" transform="rotate(90) translate(36 -43)" onmousedown="handlePan(1,0)">
                  <use xlink:href="#rim" fill="#404040">
                        <set attributeName="fill" to="#808080" begin="arrowRight.mouseover" end="arrowRight.mouseout"/>
                  </use>
                  <path fill="none" stroke="white" stroke-width="1.5" d="M0,-3.0v7 M-2.5,-0.5L0,-3.0L2.5,-0.5"/>
                </g>
                <g id="arrowDown" xlink:href="#dirArrow" transform="rotate(180) translate(-30 -48)" onmousedown="handlePan(0,1)">
                  <use xlink:href="#rim" fill="#404040">
                        <set attributeName="fill" to="#808080" begin="arrowDown.mouseover" end="arrowDown.mouseout"/>
                  </use>
                  <path fill="none" stroke="white" stroke-width="1.5" d="M0,-3.0v7 M-2.5,-0.5L0,-3.0L2.5,-0.5"/>
                </g>
                <g id="arrowLeft" xlink:href="#dirArrow" transform="rotate(270) translate(-36 17)" onmousedown="handlePan(-1,0)">
                  <use xlink:href="#rim" fill="#404040">
                        <set attributeName="fill" to="#808080" begin="arrowLeft.mouseover" end="arrowLeft.mouseout"/>
                  </use>
                  <path fill="none" stroke="white" stroke-width="1.5" d="M0,-3.0v7 M-2.5,-0.5L0,-3.0L2.5,-0.5"/>
                </g>
        </g>
        <svg viewBox="0 0 15 15" width="100%" height="30px" preserveAspectRatio="xMaxYMin meet">
         <g id="arrow_out" transform="scale(0.3 0.3)">
          <a xlink:href="namespacefuzzer_a874eb385b20be8a4df019f6ea8c5662b_icgraph_org.svg" target="_base">
           <rect id="button" ry="5" rx="5" y="6" x="6" height="38" width="38"
                fill="#f2f5e9" fill-opacity="0.5" stroke="#606060" stroke-width="1.0"/>
           <path id="arrow"
             d="M 11.500037,31.436501 C 11.940474,20.09759 22.043105,11.32322 32.158766,21.979434 L 37.068811,17.246167 C 37.068811,17.246167 37.088388,32 37.088388,32 L 22.160133,31.978069 C 22.160133,31.978069 26.997745,27.140456 26.997745,27.140456 C 18.528582,18.264221 13.291696,25.230495 11.500037,31.436501 z"
             style="fill:#404040;"/>
          </a>
         </g>
        </svg>
</svg>
