<?xml version="1.0" encoding="UTF-8" standalone="no"?>
<!DOCTYPE svg PUBLIC "-//W3C//DTD SVG 1.1//EN"
 "http://www.w3.org/Graphics/SVG/1.1/DTD/svg11.dtd">
<!-- Generated by graphviz version 2.43.0 (0)
 -->
<!-- Title: doctest::getContextOptions Pages: 1 -->
<svg width="352pt" height="88pt"
 viewBox="0.00 0.00 352.00 88.00" xmlns="http://www.w3.org/2000/svg" xmlns:xlink="http://www.w3.org/1999/xlink">
<g id="graph0" class="graph" transform="scale(1 1) rotate(0) translate(4 84)">
<title>doctest::getContextOptions</title>
<polygon fill="white" stroke="transparent" points="-4,4 -4,-84 348,-84 348,4 -4,4"/>
<!-- Node1 -->
<g id="node1" class="node">
<title>Node1</title>
<g id="a_node1"><a xlink:title=" ">
<polygon fill="#bfbfbf" stroke="black" points="194,-30 194,-49 344,-49 344,-30 194,-30"/>
<text text-anchor="middle" x="269" y="-37" font-family="Helvetica,sans-Serif" font-size="10.00">doctest::getContextOptions</text>
</a>
</g>
</g>
<!-- Node2 -->
<g id="node2" class="node">
<title>Node2</title>
<g id="a_node2"><a xlink:href="structdoctest_1_1detail_1_1Expression__lhs.html#a37ac772151dc693e07f830ca07aff06b" target="_top" xlink:title=" ">
<polygon fill="white" stroke="black" points="6,-49.5 6,-79.5 152,-79.5 152,-49.5 6,-49.5"/>
<text text-anchor="start" x="14" y="-67.5" font-family="Helvetica,sans-Serif" font-size="10.00">doctest::detail::Expression</text>
<text text-anchor="middle" x="79" y="-56.5" font-family="Helvetica,sans-Serif" font-size="10.00">_lhs::__attribute__</text>
</a>
</g>
</g>
<!-- Node1&#45;&gt;Node2 -->
<g id="edge1" class="edge">
<title>Node1&#45;&gt;Node2</title>
<path fill="none" stroke="midnightblue" d="M186.42,-50.35C174.97,-51.87 163.28,-53.43 152.03,-54.92"/>
<polygon fill="midnightblue" stroke="midnightblue" points="186.94,-53.81 196.39,-49.02 186.01,-46.87 186.94,-53.81"/>
</g>
<!-- Node3 -->
<g id="node3" class="node">
<title>Node3</title>
<g id="a_node3"><a xlink:href="structdoctest_1_1detail_1_1ResultBuilder.html#abb3dd4949ef8da7e039ebf00bd43cd80" target="_top" xlink:title=" ">
<polygon fill="white" stroke="black" points="0,-0.5 0,-30.5 158,-30.5 158,-0.5 0,-0.5"/>
<text text-anchor="start" x="8" y="-18.5" font-family="Helvetica,sans-Serif" font-size="10.00">doctest::detail::ResultBuilder</text>
<text text-anchor="middle" x="79" y="-7.5" font-family="Helvetica,sans-Serif" font-size="10.00">::__attribute__</text>
</a>
</g>
</g>
<!-- Node1&#45;&gt;Node3 -->
<g id="edge2" class="edge">
<title>Node1&#45;&gt;Node3</title>
<path fill="none" stroke="midnightblue" d="M184,-28.78C175.45,-27.68 166.79,-26.58 158.3,-25.5"/>
<polygon fill="midnightblue" stroke="midnightblue" points="183.6,-32.25 193.97,-30.05 184.49,-25.31 183.6,-32.25"/>
</g>
</g>
</svg>
