<?xml version="1.0" encoding="UTF-8" standalone="no"?>
<!DOCTYPE svg PUBLIC "-//W3C//DTD SVG 1.1//EN"
 "http://www.w3.org/Graphics/SVG/1.1/DTD/svg11.dtd">
<!-- Generated by graphviz version 2.43.0 (0)
 -->
<!-- Title: benchmark::internal::LogLevel Pages: 1 -->
<svg width="299pt" height="39pt"
 viewBox="0.00 0.00 299.00 39.00" xmlns="http://www.w3.org/2000/svg" xmlns:xlink="http://www.w3.org/1999/xlink">
<g id="graph0" class="graph" transform="scale(1 1) rotate(0) translate(4 35)">
<title>benchmark::internal::LogLevel</title>
<polygon fill="white" stroke="transparent" points="-4,4 -4,-35 295,-35 295,4 -4,4"/>
<!-- Node1 -->
<g id="node1" class="node">
<title>Node1</title>
<g id="a_node1"><a xlink:title=" ">
<polygon fill="#bfbfbf" stroke="black" points="176,-0.5 176,-30.5 291,-30.5 291,-0.5 176,-0.5"/>
<text text-anchor="start" x="184" y="-18.5" font-family="Helvetica,sans-Serif" font-size="10.00">benchmark::internal</text>
<text text-anchor="middle" x="233.5" y="-7.5" font-family="Helvetica,sans-Serif" font-size="10.00">::LogLevel</text>
</a>
</g>
</g>
<!-- Node2 -->
<g id="node2" class="node">
<title>Node2</title>
<g id="a_node2"><a xlink:href="namespacebenchmark_1_1internal.html#a41953620bfd2a4233fe6803d20b5ee73" target="_top" xlink:title=" ">
<polygon fill="white" stroke="black" points="0,-0.5 0,-30.5 140,-30.5 140,-0.5 0,-0.5"/>
<text text-anchor="start" x="8" y="-18.5" font-family="Helvetica,sans-Serif" font-size="10.00">benchmark::internal</text>
<text text-anchor="middle" x="70" y="-7.5" font-family="Helvetica,sans-Serif" font-size="10.00">::GetLogInstanceForLevel</text>
</a>
</g>
</g>
<!-- Node1&#45;&gt;Node2 -->
<g id="edge1" class="edge">
<title>Node1&#45;&gt;Node2</title>
<path fill="none" stroke="midnightblue" d="M165.49,-15.5C157.13,-15.5 148.56,-15.5 140.17,-15.5"/>
<polygon fill="midnightblue" stroke="midnightblue" points="165.56,-19 175.56,-15.5 165.56,-12 165.56,-19"/>
</g>
</g>
</svg>
