<?xml version="1.0" encoding="UTF-8" standalone="no"?>
<!DOCTYPE svg PUBLIC "-//W3C//DTD SVG 1.1//EN"
 "http://www.w3.org/Graphics/SVG/1.1/DTD/svg11.dtd">
<!-- Generated by graphviz version 2.43.0 (0)
 -->
<!-- Title: doctest::detail::__attribute__ Pages: 1 -->
<svg width="454pt" height="50pt"
 viewBox="0.00 0.00 454.00 50.00" xmlns="http://www.w3.org/2000/svg" xmlns:xlink="http://www.w3.org/1999/xlink">
<g id="graph0" class="graph" transform="scale(1 1) rotate(0) translate(4 46)">
<title>doctest::detail::__attribute__</title>
<polygon fill="white" stroke="transparent" points="-4,4 -4,-46 450,-46 450,4 -4,4"/>
<!-- Node1 -->
<g id="node1" class="node">
<title>Node1</title>
<g id="a_node1"><a xlink:title=" ">
<polygon fill="#bfbfbf" stroke="black" points="0,-6 0,-36 98,-36 98,-6 0,-6"/>
<text text-anchor="start" x="8" y="-24" font-family="Helvetica,sans-Serif" font-size="10.00">doctest::detail::_</text>
<text text-anchor="middle" x="49" y="-13" font-family="Helvetica,sans-Serif" font-size="10.00">_attribute__</text>
</a>
</g>
</g>
<!-- Node2 -->
<g id="node2" class="node">
<title>Node2</title>
<g id="a_node2"><a xlink:href="namespacedoctest.html#ab45302a5e7e323915ae81de9d8cc0401" target="_top" xlink:title=" ">
<polygon fill="white" stroke="black" points="134,-11.5 134,-30.5 231,-30.5 231,-11.5 134,-11.5"/>
<text text-anchor="middle" x="182.5" y="-18.5" font-family="Helvetica,sans-Serif" font-size="10.00">doctest::toString</text>
</a>
</g>
</g>
<!-- Node1&#45;&gt;Node2 -->
<g id="edge1" class="edge">
<title>Node1&#45;&gt;Node2</title>
<path fill="none" stroke="midnightblue" d="M98.22,-21C106.45,-21 115.08,-21 123.54,-21"/>
<polygon fill="midnightblue" stroke="midnightblue" points="123.73,-24.5 133.73,-21 123.73,-17.5 123.73,-24.5"/>
</g>
<!-- Node3 -->
<g id="node3" class="node">
<title>Node3</title>
<g id="a_node3"><a xlink:href="structdoctest_1_1detail_1_1StringMakerBase.html#a8a9a20bf2459753b5e67b711985242f9" target="_top" xlink:title=" ">
<polygon fill="white" stroke="black" points="267,-0.5 267,-41.5 446,-41.5 446,-0.5 267,-0.5"/>
<text text-anchor="start" x="275" y="-29.5" font-family="Helvetica,sans-Serif" font-size="10.00">doctest::detail::StringMaker</text>
<text text-anchor="start" x="275" y="-18.5" font-family="Helvetica,sans-Serif" font-size="10.00">Base&lt; detail::has_insertion</text>
<text text-anchor="middle" x="356.5" y="-7.5" font-family="Helvetica,sans-Serif" font-size="10.00">_operator&lt; T &gt;::value &gt;::convert</text>
</a>
</g>
</g>
<!-- Node2&#45;&gt;Node3 -->
<g id="edge2" class="edge">
<title>Node2&#45;&gt;Node3</title>
<path fill="none" stroke="midnightblue" d="M231.41,-21C239.34,-21 247.81,-21 256.47,-21"/>
<polygon fill="midnightblue" stroke="midnightblue" points="256.68,-24.5 266.68,-21 256.68,-17.5 256.68,-24.5"/>
</g>
</g>
</svg>
