<?xml version="1.0" encoding="UTF-8" standalone="no"?>
<!DOCTYPE svg PUBLIC "-//W3C//DTD SVG 1.1//EN"
 "http://www.w3.org/Graphics/SVG/1.1/DTD/svg11.dtd">
<!-- Generated by graphviz version 2.43.0 (0)
 -->
<!-- Title: mc_orchestrator/json&#45;3.7.3/test/thirdparty/Fuzzer/test/NullDerefTest.cpp Pages: 1 -->
<svg width="275pt" height="106pt"
 viewBox="0.00 0.00 275.00 106.00" xmlns="http://www.w3.org/2000/svg" xmlns:xlink="http://www.w3.org/1999/xlink">
<g id="graph0" class="graph" transform="scale(1 1) rotate(0) translate(4 102)">
<title>mc_orchestrator/json&#45;3.7.3/test/thirdparty/Fuzzer/test/NullDerefTest.cpp</title>
<polygon fill="white" stroke="transparent" points="-4,4 -4,-102 271,-102 271,4 -4,4"/>
<!-- Node1 -->
<g id="node1" class="node">
<title>Node1</title>
<g id="a_node1"><a xlink:title=" ">
<polygon fill="#bfbfbf" stroke="black" points="46,-56.5 46,-97.5 208,-97.5 208,-56.5 46,-56.5"/>
<text text-anchor="start" x="54" y="-85.5" font-family="Helvetica,sans-Serif" font-size="10.00">mc_orchestrator/json</text>
<text text-anchor="start" x="54" y="-74.5" font-family="Helvetica,sans-Serif" font-size="10.00">&#45;3.7.3/test/thirdparty</text>
<text text-anchor="middle" x="127" y="-63.5" font-family="Helvetica,sans-Serif" font-size="10.00">/Fuzzer/test/NullDerefTest.cpp</text>
</a>
</g>
</g>
<!-- Node2 -->
<g id="node2" class="node">
<title>Node2</title>
<g id="a_node2"><a xlink:title=" ">
<polygon fill="white" stroke="#bfbfbf" points="0,-0.5 0,-19.5 50,-19.5 50,-0.5 0,-0.5"/>
<text text-anchor="middle" x="25" y="-7.5" font-family="Helvetica,sans-Serif" font-size="10.00">cstdint</text>
</a>
</g>
</g>
<!-- Node1&#45;&gt;Node2 -->
<g id="edge1" class="edge">
<title>Node1&#45;&gt;Node2</title>
<path fill="none" stroke="midnightblue" d="M96.4,-56.5C80.61,-46.44 61.7,-34.38 47.3,-25.21"/>
<polygon fill="midnightblue" stroke="midnightblue" points="48.89,-22.08 38.58,-19.65 45.13,-27.98 48.89,-22.08"/>
</g>
<!-- Node3 -->
<g id="node3" class="node">
<title>Node3</title>
<g id="a_node3"><a xlink:title=" ">
<polygon fill="white" stroke="#bfbfbf" points="68.5,-0.5 68.5,-19.5 117.5,-19.5 117.5,-0.5 68.5,-0.5"/>
<text text-anchor="middle" x="93" y="-7.5" font-family="Helvetica,sans-Serif" font-size="10.00">cstdlib</text>
</a>
</g>
</g>
<!-- Node1&#45;&gt;Node3 -->
<g id="edge2" class="edge">
<title>Node1&#45;&gt;Node3</title>
<path fill="none" stroke="midnightblue" d="M116.8,-56.5C112.19,-47.68 106.78,-37.34 102.28,-28.74"/>
<polygon fill="midnightblue" stroke="midnightblue" points="105.26,-26.89 97.53,-19.65 99.06,-30.14 105.26,-26.89"/>
</g>
<!-- Node4 -->
<g id="node4" class="node">
<title>Node4</title>
<g id="a_node4"><a xlink:title=" ">
<polygon fill="white" stroke="#bfbfbf" points="135.5,-0.5 135.5,-19.5 188.5,-19.5 188.5,-0.5 135.5,-0.5"/>
<text text-anchor="middle" x="162" y="-7.5" font-family="Helvetica,sans-Serif" font-size="10.00">cstddef</text>
</a>
</g>
</g>
<!-- Node1&#45;&gt;Node4 -->
<g id="edge3" class="edge">
<title>Node1&#45;&gt;Node4</title>
<path fill="none" stroke="midnightblue" d="M137.5,-56.5C142.3,-47.59 147.94,-37.11 152.6,-28.46"/>
<polygon fill="midnightblue" stroke="midnightblue" points="155.68,-30.12 157.34,-19.65 149.52,-26.8 155.68,-30.12"/>
</g>
<!-- Node5 -->
<g id="node5" class="node">
<title>Node5</title>
<g id="a_node5"><a xlink:title=" ">
<polygon fill="white" stroke="#bfbfbf" points="207,-0.5 207,-19.5 267,-19.5 267,-0.5 207,-0.5"/>
<text text-anchor="middle" x="237" y="-7.5" font-family="Helvetica,sans-Serif" font-size="10.00">iostream</text>
</a>
</g>
</g>
<!-- Node1&#45;&gt;Node5 -->
<g id="edge4" class="edge">
<title>Node1&#45;&gt;Node5</title>
<path fill="none" stroke="midnightblue" d="M160,-56.5C177.19,-46.34 197.81,-34.16 213.39,-24.95"/>
<polygon fill="midnightblue" stroke="midnightblue" points="215.53,-27.75 222.36,-19.65 211.97,-21.73 215.53,-27.75"/>
</g>
</g>
</svg>
