<?xml version="1.0" encoding="UTF-8" standalone="no"?>
<!DOCTYPE svg PUBLIC "-//W3C//DTD SVG 1.1//EN"
 "http://www.w3.org/Graphics/SVG/1.1/DTD/svg11.dtd">
<!-- Generated by graphviz version 2.43.0 (0)
 -->
<!-- Title: mc_orchestrator/json&#45;3.7.3/test/thirdparty/Fuzzer/test/OneHugeAllocTest.cpp Pages: 1 -->
<svg width="417pt" height="106pt"
 viewBox="0.00 0.00 417.00 106.00" xmlns="http://www.w3.org/2000/svg" xmlns:xlink="http://www.w3.org/1999/xlink">
<g id="graph0" class="graph" transform="scale(1 1) rotate(0) translate(4 102)">
<title>mc_orchestrator/json&#45;3.7.3/test/thirdparty/Fuzzer/test/OneHugeAllocTest.cpp</title>
<polygon fill="white" stroke="transparent" points="-4,4 -4,-102 413,-102 413,4 -4,4"/>
<!-- Node1 -->
<g id="node1" class="node">
<title>Node1</title>
<g id="a_node1"><a xlink:title=" ">
<polygon fill="#bfbfbf" stroke="black" points="108.5,-56.5 108.5,-97.5 293.5,-97.5 293.5,-56.5 108.5,-56.5"/>
<text text-anchor="start" x="116.5" y="-85.5" font-family="Helvetica,sans-Serif" font-size="10.00">mc_orchestrator/json</text>
<text text-anchor="start" x="116.5" y="-74.5" font-family="Helvetica,sans-Serif" font-size="10.00">&#45;3.7.3/test/thirdparty</text>
<text text-anchor="middle" x="201" y="-63.5" font-family="Helvetica,sans-Serif" font-size="10.00">/Fuzzer/test/OneHugeAllocTest.cpp</text>
</a>
</g>
</g>
<!-- Node2 -->
<g id="node2" class="node">
<title>Node2</title>
<g id="a_node2"><a xlink:title=" ">
<polygon fill="white" stroke="#bfbfbf" points="0,-0.5 0,-19.5 56,-19.5 56,-0.5 0,-0.5"/>
<text text-anchor="middle" x="28" y="-7.5" font-family="Helvetica,sans-Serif" font-size="10.00">assert.h</text>
</a>
</g>
</g>
<!-- Node1&#45;&gt;Node2 -->
<g id="edge1" class="edge">
<title>Node1&#45;&gt;Node2</title>
<path fill="none" stroke="midnightblue" d="M149.09,-56.5C120.4,-45.72 85.63,-32.65 60.72,-23.29"/>
<polygon fill="midnightblue" stroke="midnightblue" points="61.62,-19.89 51.03,-19.65 59.16,-26.45 61.62,-19.89"/>
</g>
<!-- Node3 -->
<g id="node3" class="node">
<title>Node3</title>
<g id="a_node3"><a xlink:title=" ">
<polygon fill="white" stroke="#bfbfbf" points="74,-0.5 74,-19.5 124,-19.5 124,-0.5 74,-0.5"/>
<text text-anchor="middle" x="99" y="-7.5" font-family="Helvetica,sans-Serif" font-size="10.00">cstdint</text>
</a>
</g>
</g>
<!-- Node1&#45;&gt;Node3 -->
<g id="edge2" class="edge">
<title>Node1&#45;&gt;Node3</title>
<path fill="none" stroke="midnightblue" d="M170.4,-56.5C154.61,-46.44 135.7,-34.38 121.3,-25.21"/>
<polygon fill="midnightblue" stroke="midnightblue" points="122.89,-22.08 112.58,-19.65 119.13,-27.98 122.89,-22.08"/>
</g>
<!-- Node4 -->
<g id="node4" class="node">
<title>Node4</title>
<g id="a_node4"><a xlink:title=" ">
<polygon fill="white" stroke="#bfbfbf" points="142.5,-0.5 142.5,-19.5 191.5,-19.5 191.5,-0.5 142.5,-0.5"/>
<text text-anchor="middle" x="167" y="-7.5" font-family="Helvetica,sans-Serif" font-size="10.00">cstdlib</text>
</a>
</g>
</g>
<!-- Node1&#45;&gt;Node4 -->
<g id="edge3" class="edge">
<title>Node1&#45;&gt;Node4</title>
<path fill="none" stroke="midnightblue" d="M190.8,-56.5C186.19,-47.68 180.78,-37.34 176.28,-28.74"/>
<polygon fill="midnightblue" stroke="midnightblue" points="179.26,-26.89 171.53,-19.65 173.06,-30.14 179.26,-26.89"/>
</g>
<!-- Node5 -->
<g id="node5" class="node">
<title>Node5</title>
<g id="a_node5"><a xlink:title=" ">
<polygon fill="white" stroke="#bfbfbf" points="209.5,-0.5 209.5,-19.5 262.5,-19.5 262.5,-0.5 209.5,-0.5"/>
<text text-anchor="middle" x="236" y="-7.5" font-family="Helvetica,sans-Serif" font-size="10.00">cstddef</text>
</a>
</g>
</g>
<!-- Node1&#45;&gt;Node5 -->
<g id="edge4" class="edge">
<title>Node1&#45;&gt;Node5</title>
<path fill="none" stroke="midnightblue" d="M211.5,-56.5C216.3,-47.59 221.94,-37.11 226.6,-28.46"/>
<polygon fill="midnightblue" stroke="midnightblue" points="229.68,-30.12 231.34,-19.65 223.52,-26.8 229.68,-30.12"/>
</g>
<!-- Node6 -->
<g id="node6" class="node">
<title>Node6</title>
<g id="a_node6"><a xlink:title=" ">
<polygon fill="white" stroke="#bfbfbf" points="281,-0.5 281,-19.5 331,-19.5 331,-0.5 281,-0.5"/>
<text text-anchor="middle" x="306" y="-7.5" font-family="Helvetica,sans-Serif" font-size="10.00">cstring</text>
</a>
</g>
</g>
<!-- Node1&#45;&gt;Node6 -->
<g id="edge5" class="edge">
<title>Node1&#45;&gt;Node6</title>
<path fill="none" stroke="midnightblue" d="M232.5,-56.5C248.91,-46.34 268.6,-34.16 283.46,-24.95"/>
<polygon fill="midnightblue" stroke="midnightblue" points="285.36,-27.89 292.02,-19.65 281.68,-21.94 285.36,-27.89"/>
</g>
<!-- Node7 -->
<g id="node7" class="node">
<title>Node7</title>
<g id="a_node7"><a xlink:title=" ">
<polygon fill="white" stroke="#bfbfbf" points="349,-0.5 349,-19.5 409,-19.5 409,-0.5 349,-0.5"/>
<text text-anchor="middle" x="379" y="-7.5" font-family="Helvetica,sans-Serif" font-size="10.00">iostream</text>
</a>
</g>
</g>
<!-- Node1&#45;&gt;Node7 -->
<g id="edge6" class="edge">
<title>Node1&#45;&gt;Node7</title>
<path fill="none" stroke="midnightblue" d="M254.41,-56.5C284.06,-45.67 320.02,-32.54 345.67,-23.17"/>
<polygon fill="midnightblue" stroke="midnightblue" points="347.11,-26.37 355.31,-19.65 344.71,-19.8 347.11,-26.37"/>
</g>
</g>
</svg>
