<?xml version="1.0" encoding="UTF-8" standalone="no"?>
<!DOCTYPE svg PUBLIC "-//W3C//DTD SVG 1.1//EN"
 "http://www.w3.org/Graphics/SVG/1.1/DTD/svg11.dtd">
<!-- Generated by graphviz version 2.43.0 (0)
 -->
<!-- Title: mc_orchestrator/json&#45;3.7.3/include/nlohmann/detail/output/output_adapters.hpp Pages: 1 -->
<!--zoomable 184 -->
<svg id="main" version="1.1" xmlns="http://www.w3.org/2000/svg" xmlns:xlink="http://www.w3.org/1999/xlink" xml:space="preserve" onload="init(evt)">
<style type="text/css"><![CDATA[
.edge:hover path { stroke: red; }
.edge:hover polygon { stroke: red; fill: red; }
]]></style>
<script type="text/javascript"><![CDATA[
var edges = document.getElementsByTagName('g');
if (edges && edges.length) {
  for (var i=0;i<edges.length;i++) {
    if (edges[i].id.substr(0,4)=='edge') {
      edges[i].setAttribute('class','edge');
    }
  }
}
]]></script>
        <defs>
                <circle id="rim" cx="0" cy="0" r="7"/>
                <circle id="rim2" cx="0" cy="0" r="3.5"/>
                <g id="zoomPlus">
                        <use xlink:href="#rim" fill="#404040">
                                <set attributeName="fill" to="#808080" begin="zoomplus.mouseover" end="zoomplus.mouseout"/>
                        </use>
                        <path d="M-4,0h8M0,-4v8" fill="none" stroke="white" stroke-width="1.5" pointer-events="none"/>
                </g>
                <g id="zoomMin">
                        <use xlink:href="#rim" fill="#404040">
                                <set attributeName="fill" to="#808080" begin="zoomminus.mouseover" end="zoomminus.mouseout"/>
                        </use>
                        <path d="M-4,0h8" fill="none" stroke="white" stroke-width="1.5" pointer-events="none"/>
                </g>
                <g id="dirArrow">
                        <path fill="none" stroke="white" stroke-width="1.5" d="M0,-3.0v7 M-2.5,-0.5L0,-3.0L2.5,-0.5"/>
                </g>
               <g id="resetDef">
                       <use xlink:href="#rim2" fill="#404040">
                               <set attributeName="fill" to="#808080" begin="reset.mouseover" end="reset.mouseout"/>
                       </use>
               </g>
        </defs>

<script type="text/javascript">
var viewWidth = 753;
var viewHeight = 184;
var sectionId = 'dynsection-0';
</script>
<script xlink:href="svgpan.js"/>
<svg id="graph" class="graph">
<g id="viewport">
<title>mc_orchestrator/json&#45;3.7.3/include/nlohmann/detail/output/output_adapters.hpp</title>
<polygon fill="white" stroke="transparent" points="-4,4 -4,-180 748.5,-180 748.5,4 -4,4"/>
<!-- Node1 -->
<g id="node1" class="node">
<title>Node1</title>
<g id="a_node1"><a xlink:title=" ">
<polygon fill="#bfbfbf" stroke="black" points="210.5,-134.5 210.5,-175.5 395.5,-175.5 395.5,-134.5 210.5,-134.5"/>
<text text-anchor="start" x="218.5" y="-163.5" font-family="Helvetica,sans-Serif" font-size="10.00">mc_orchestrator/json</text>
<text text-anchor="start" x="218.5" y="-152.5" font-family="Helvetica,sans-Serif" font-size="10.00">&#45;3.7.3/include/nlohmann</text>
<text text-anchor="middle" x="303" y="-141.5" font-family="Helvetica,sans-Serif" font-size="10.00">/detail/output/output_adapters.hpp</text>
</a>
</g>
</g>
<!-- Node2 -->
<g id="node2" class="node">
<title>Node2</title>
<g id="a_node2"><a xlink:title=" ">
<polygon fill="white" stroke="#bfbfbf" points="0,-73 0,-92 64,-92 64,-73 0,-73"/>
<text text-anchor="middle" x="32" y="-80" font-family="Helvetica,sans-Serif" font-size="10.00">algorithm</text>
</a>
</g>
</g>
<!-- Node1&#45;&gt;Node2 -->
<g id="edge1" class="edge">
<title>Node1&#45;&gt;Node2</title>
<path fill="none" stroke="midnightblue" d="M213.7,-134.47C170.86,-124.54 118.99,-111.69 73,-98 70.22,-97.17 67.35,-96.27 64.48,-95.32"/>
<polygon fill="midnightblue" stroke="midnightblue" points="65.45,-91.96 54.85,-92.04 63.19,-98.58 65.45,-91.96"/>
</g>
<!-- Node3 -->
<g id="node3" class="node">
<title>Node3</title>
<g id="a_node3"><a xlink:title=" ">
<polygon fill="white" stroke="#bfbfbf" points="82.5,-73 82.5,-92 135.5,-92 135.5,-73 82.5,-73"/>
<text text-anchor="middle" x="109" y="-80" font-family="Helvetica,sans-Serif" font-size="10.00">cstddef</text>
</a>
</g>
</g>
<!-- Node1&#45;&gt;Node3 -->
<g id="edge2" class="edge">
<title>Node1&#45;&gt;Node3</title>
<path fill="none" stroke="midnightblue" d="M244.95,-134.4C214.71,-123.98 177.21,-110.72 144,-98 142.35,-97.37 140.67,-96.71 138.97,-96.04"/>
<polygon fill="midnightblue" stroke="midnightblue" points="139.87,-92.63 129.28,-92.12 137.24,-99.12 139.87,-92.63"/>
</g>
<!-- Node4 -->
<g id="node4" class="node">
<title>Node4</title>
<g id="a_node4"><a xlink:title=" ">
<polygon fill="white" stroke="#bfbfbf" points="153.5,-73 153.5,-92 184.5,-92 184.5,-73 153.5,-73"/>
<text text-anchor="middle" x="169" y="-80" font-family="Helvetica,sans-Serif" font-size="10.00">ios</text>
</a>
</g>
</g>
<!-- Node1&#45;&gt;Node4 -->
<g id="edge3" class="edge">
<title>Node1&#45;&gt;Node4</title>
<path fill="none" stroke="midnightblue" d="M262.92,-134.47C241.91,-124.01 215.85,-110.7 193,-98 192.59,-97.77 192.17,-97.54 191.75,-97.3"/>
<polygon fill="midnightblue" stroke="midnightblue" points="193.26,-94.13 182.86,-92.11 189.73,-100.17 193.26,-94.13"/>
</g>
<!-- Node5 -->
<g id="node5" class="node">
<title>Node5</title>
<g id="a_node5"><a xlink:title=" ">
<polygon fill="white" stroke="#bfbfbf" points="202.5,-73 202.5,-92 255.5,-92 255.5,-73 202.5,-73"/>
<text text-anchor="middle" x="229" y="-80" font-family="Helvetica,sans-Serif" font-size="10.00">iterator</text>
</a>
</g>
</g>
<!-- Node1&#45;&gt;Node5 -->
<g id="edge4" class="edge">
<title>Node1&#45;&gt;Node5</title>
<path fill="none" stroke="midnightblue" d="M282.39,-134.36C270.8,-123.32 256.53,-109.72 245.65,-99.37"/>
<polygon fill="midnightblue" stroke="midnightblue" points="247.76,-96.54 238.1,-92.17 242.93,-101.61 247.76,-96.54"/>
</g>
<!-- Node6 -->
<g id="node6" class="node">
<title>Node6</title>
<g id="a_node6"><a xlink:title=" ">
<polygon fill="white" stroke="#bfbfbf" points="274,-73 274,-92 332,-92 332,-73 274,-73"/>
<text text-anchor="middle" x="303" y="-80" font-family="Helvetica,sans-Serif" font-size="10.00">memory</text>
</a>
</g>
</g>
<!-- Node1&#45;&gt;Node6 -->
<g id="edge5" class="edge">
<title>Node1&#45;&gt;Node6</title>
<path fill="none" stroke="midnightblue" d="M303,-134.36C303,-124.3 303,-112.1 303,-102.18"/>
<polygon fill="midnightblue" stroke="midnightblue" points="306.5,-102.17 303,-92.17 299.5,-102.17 306.5,-102.17"/>
</g>
<!-- Node7 -->
<g id="node7" class="node">
<title>Node7</title>
<g id="a_node7"><a xlink:title=" ">
<polygon fill="white" stroke="#bfbfbf" points="350.5,-73 350.5,-92 407.5,-92 407.5,-73 350.5,-73"/>
<text text-anchor="middle" x="379" y="-80" font-family="Helvetica,sans-Serif" font-size="10.00">ostream</text>
</a>
</g>
</g>
<!-- Node1&#45;&gt;Node7 -->
<g id="edge6" class="edge">
<title>Node1&#45;&gt;Node7</title>
<path fill="none" stroke="midnightblue" d="M324.17,-134.36C336.19,-123.21 351.02,-109.46 362.22,-99.06"/>
<polygon fill="midnightblue" stroke="midnightblue" points="364.7,-101.54 369.65,-92.17 359.94,-96.41 364.7,-101.54"/>
</g>
<!-- Node8 -->
<g id="node8" class="node">
<title>Node8</title>
<g id="a_node8"><a xlink:title=" ">
<polygon fill="white" stroke="#bfbfbf" points="426,-73 426,-92 470,-92 470,-73 426,-73"/>
<text text-anchor="middle" x="448" y="-80" font-family="Helvetica,sans-Serif" font-size="10.00">string</text>
</a>
</g>
</g>
<!-- Node1&#45;&gt;Node8 -->
<g id="edge7" class="edge">
<title>Node1&#45;&gt;Node8</title>
<path fill="none" stroke="midnightblue" d="M343.39,-134.36C368.21,-122.29 399.32,-107.17 421.14,-96.56"/>
<polygon fill="midnightblue" stroke="midnightblue" points="422.7,-99.69 430.16,-92.17 419.64,-93.4 422.7,-99.69"/>
</g>
<!-- Node9 -->
<g id="node9" class="node">
<title>Node9</title>
<g id="a_node9"><a xlink:title=" ">
<polygon fill="white" stroke="#bfbfbf" points="488.5,-73 488.5,-92 535.5,-92 535.5,-73 488.5,-73"/>
<text text-anchor="middle" x="512" y="-80" font-family="Helvetica,sans-Serif" font-size="10.00">vector</text>
</a>
</g>
</g>
<!-- Node1&#45;&gt;Node9 -->
<g id="edge8" class="edge">
<title>Node1&#45;&gt;Node9</title>
<path fill="none" stroke="midnightblue" d="M370.43,-134.38C403.44,-124.31 443.6,-111.37 479,-98 480.61,-97.39 482.25,-96.75 483.91,-96.08"/>
<polygon fill="midnightblue" stroke="midnightblue" points="485.44,-99.24 493.29,-92.13 482.72,-92.78 485.44,-99.24"/>
</g>
<!-- Node10 -->
<g id="node10" class="node">
<title>Node10</title>
<g id="a_node10"><a xlink:href="macro__scope_8hpp.html" target="_top" xlink:title=" ">
<polygon fill="white" stroke="black" points="554,-67.5 554,-97.5 684,-97.5 684,-67.5 554,-67.5"/>
<text text-anchor="start" x="562" y="-85.5" font-family="Helvetica,sans-Serif" font-size="10.00">nlohmann/detail/macro</text>
<text text-anchor="middle" x="619" y="-74.5" font-family="Helvetica,sans-Serif" font-size="10.00">_scope.hpp</text>
</a>
</g>
</g>
<!-- Node1&#45;&gt;Node10 -->
<g id="edge9" class="edge">
<title>Node1&#45;&gt;Node10</title>
<path fill="none" stroke="midnightblue" d="M390.6,-134.46C439.44,-123.56 499.56,-110.15 545.86,-99.82"/>
<polygon fill="midnightblue" stroke="midnightblue" points="546.82,-103.19 555.81,-97.6 545.29,-96.36 546.82,-103.19"/>
</g>
<!-- Node11 -->
<g id="node11" class="node">
<title>Node11</title>
<g id="a_node11"><a xlink:title=" ">
<polygon fill="white" stroke="#bfbfbf" points="497.5,-6 497.5,-25 542.5,-25 542.5,-6 497.5,-6"/>
<text text-anchor="middle" x="520" y="-13" font-family="Helvetica,sans-Serif" font-size="10.00">utility</text>
</a>
</g>
</g>
<!-- Node10&#45;&gt;Node11 -->
<g id="edge10" class="edge">
<title>Node10&#45;&gt;Node11</title>
<path fill="none" stroke="midnightblue" d="M597.52,-67.4C580.92,-56.5 558.04,-41.48 541.45,-30.58"/>
<polygon fill="midnightblue" stroke="midnightblue" points="543.24,-27.57 532.96,-25.01 539.4,-33.42 543.24,-27.57"/>
</g>
<!-- Node12 -->
<g id="node12" class="node">
<title>Node12</title>
<g id="a_node12"><a xlink:href="hedley_8hpp.html" target="_top" xlink:title=" ">
<polygon fill="white" stroke="black" points="561,-0.5 561,-30.5 677,-30.5 677,-0.5 561,-0.5"/>
<text text-anchor="start" x="569" y="-18.5" font-family="Helvetica,sans-Serif" font-size="10.00">nlohmann/thirdparty</text>
<text text-anchor="middle" x="619" y="-7.5" font-family="Helvetica,sans-Serif" font-size="10.00">/hedley/hedley.hpp</text>
</a>
</g>
</g>
<!-- Node10&#45;&gt;Node12 -->
<g id="edge11" class="edge">
<title>Node10&#45;&gt;Node12</title>
<path fill="none" stroke="midnightblue" d="M619,-67.4C619,-59.64 619,-49.81 619,-40.86"/>
<polygon fill="midnightblue" stroke="midnightblue" points="622.5,-40.58 619,-30.58 615.5,-40.58 622.5,-40.58"/>
</g>
<!-- Node13 -->
<g id="node13" class="node">
<title>Node13</title>
<g id="a_node13"><a xlink:title=" ">
<polygon fill="white" stroke="#bfbfbf" points="695.5,-6 695.5,-25 744.5,-25 744.5,-6 695.5,-6"/>
<text text-anchor="middle" x="720" y="-13" font-family="Helvetica,sans-Serif" font-size="10.00">cstdlib</text>
</a>
</g>
</g>
<!-- Node10&#45;&gt;Node13 -->
<g id="edge12" class="edge">
<title>Node10&#45;&gt;Node13</title>
<path fill="none" stroke="midnightblue" d="M640.92,-67.4C657.85,-56.5 681.19,-41.48 698.12,-30.58"/>
<polygon fill="midnightblue" stroke="midnightblue" points="700.27,-33.36 706.78,-25.01 696.48,-27.48 700.27,-33.36"/>
</g>
</g>
</svg>
        <g id="navigator" transform="translate(0 0)" fill="#404254">
                <rect fill="#f2f5e9" fill-opacity="0.5" stroke="#606060" stroke-width=".5" x="0" y="0" width="60" height="60"/>
                <use id="zoomplus" xlink:href="#zoomPlus" x="17" y="9" onmousedown="handleZoom(evt,'in')"/>
                <use id="zoomminus" xlink:href="#zoomMin" x="42" y="9" onmousedown="handleZoom(evt,'out')"/>
                <use id="reset" xlink:href="#resetDef" x="30" y="36" onmousedown="handleReset()"/>
                <g id="arrowUp" xlink:href="#dirArrow" transform="translate(30 24)" onmousedown="handlePan(0,-1)">
                  <use xlink:href="#rim" fill="#404040">
                        <set attributeName="fill" to="#808080" begin="arrowUp.mouseover" end="arrowUp.mouseout"/>
                  </use>
                  <path fill="none" stroke="white" stroke-width="1.5" d="M0,-3.0v7 M-2.5,-0.5L0,-3.0L2.5,-0.5"/>
                </g>
                <g id="arrowRight" xlink:href="#dirArrow" transform="rotate(90) translate(36 -43)" onmousedown="handlePan(1,0)">
                  <use xlink:href="#rim" fill="#404040">
                        <set attributeName="fill" to="#808080" begin="arrowRight.mouseover" end="arrowRight.mouseout"/>
                  </use>
                  <path fill="none" stroke="white" stroke-width="1.5" d="M0,-3.0v7 M-2.5,-0.5L0,-3.0L2.5,-0.5"/>
                </g>
                <g id="arrowDown" xlink:href="#dirArrow" transform="rotate(180) translate(-30 -48)" onmousedown="handlePan(0,1)">
                  <use xlink:href="#rim" fill="#404040">
                        <set attributeName="fill" to="#808080" begin="arrowDown.mouseover" end="arrowDown.mouseout"/>
                  </use>
                  <path fill="none" stroke="white" stroke-width="1.5" d="M0,-3.0v7 M-2.5,-0.5L0,-3.0L2.5,-0.5"/>
                </g>
                <g id="arrowLeft" xlink:href="#dirArrow" transform="rotate(270) translate(-36 17)" onmousedown="handlePan(-1,0)">
                  <use xlink:href="#rim" fill="#404040">
                        <set attributeName="fill" to="#808080" begin="arrowLeft.mouseover" end="arrowLeft.mouseout"/>
                  </use>
                  <path fill="none" stroke="white" stroke-width="1.5" d="M0,-3.0v7 M-2.5,-0.5L0,-3.0L2.5,-0.5"/>
                </g>
        </g>
        <svg viewBox="0 0 15 15" width="100%" height="30px" preserveAspectRatio="xMaxYMin meet">
         <g id="arrow_out" transform="scale(0.3 0.3)">
          <a xlink:href="output__adapters_8hpp__incl_org.svg" target="_base">
           <rect id="button" ry="5" rx="5" y="6" x="6" height="38" width="38"
                fill="#f2f5e9" fill-opacity="0.5" stroke="#606060" stroke-width="1.0"/>
           <path id="arrow"
             d="M 11.500037,31.436501 C 11.940474,20.09759 22.043105,11.32322 32.158766,21.979434 L 37.068811,17.246167 C 37.068811,17.246167 37.088388,32 37.088388,32 L 22.160133,31.978069 C 22.160133,31.978069 26.997745,27.140456 26.997745,27.140456 C 18.528582,18.264221 13.291696,25.230495 11.500037,31.436501 z"
             style="fill:#404040;"/>
          </a>
         </g>
        </svg>
</svg>
