<?xml version="1.0" encoding="UTF-8" standalone="no"?>
<!DOCTYPE svg PUBLIC "-//W3C//DTD SVG 1.1//EN"
 "http://www.w3.org/Graphics/SVG/1.1/DTD/svg11.dtd">
<!-- Generated by graphviz version 2.43.0 (0)
 -->
<!-- Title: mc_orchestrator/json&#45;3.7.3/include/nlohmann/detail/iterators/primitive_iterator.hpp Pages: 1 -->
<svg width="237pt" height="317pt"
 viewBox="0.00 0.00 237.00 317.00" xmlns="http://www.w3.org/2000/svg" xmlns:xlink="http://www.w3.org/1999/xlink">
<g id="graph0" class="graph" transform="scale(1 1) rotate(0) translate(4 313)">
<title>mc_orchestrator/json&#45;3.7.3/include/nlohmann/detail/iterators/primitive_iterator.hpp</title>
<polygon fill="white" stroke="transparent" points="-4,4 -4,-313 233,-313 233,4 -4,4"/>
<!-- Node1 -->
<g id="node1" class="node">
<title>Node1</title>
<g id="a_node1"><a xlink:title=" ">
<polygon fill="#bfbfbf" stroke="black" points="63.5,-256.5 63.5,-308.5 202.5,-308.5 202.5,-256.5 63.5,-256.5"/>
<text text-anchor="start" x="71.5" y="-296.5" font-family="Helvetica,sans-Serif" font-size="10.00">mc_orchestrator/json</text>
<text text-anchor="start" x="71.5" y="-285.5" font-family="Helvetica,sans-Serif" font-size="10.00">&#45;3.7.3/include/nlohmann</text>
<text text-anchor="start" x="71.5" y="-274.5" font-family="Helvetica,sans-Serif" font-size="10.00">/detail/iterators/primitive</text>
<text text-anchor="middle" x="133" y="-263.5" font-family="Helvetica,sans-Serif" font-size="10.00">_iterator.hpp</text>
</a>
</g>
</g>
<!-- Node2 -->
<g id="node2" class="node">
<title>Node2</title>
<g id="a_node2"><a xlink:href="internal__iterator_8hpp.html" target="_top" xlink:title=" ">
<polygon fill="white" stroke="black" points="66,-167.5 66,-219.5 200,-219.5 200,-167.5 66,-167.5"/>
<text text-anchor="start" x="74" y="-207.5" font-family="Helvetica,sans-Serif" font-size="10.00">mc_orchestrator/json</text>
<text text-anchor="start" x="74" y="-196.5" font-family="Helvetica,sans-Serif" font-size="10.00">&#45;3.7.3/include/nlohmann</text>
<text text-anchor="start" x="74" y="-185.5" font-family="Helvetica,sans-Serif" font-size="10.00">/detail/iterators/internal</text>
<text text-anchor="middle" x="133" y="-174.5" font-family="Helvetica,sans-Serif" font-size="10.00">_iterator.hpp</text>
</a>
</g>
</g>
<!-- Node1&#45;&gt;Node2 -->
<g id="edge1" class="edge">
<title>Node1&#45;&gt;Node2</title>
<path fill="none" stroke="midnightblue" d="M133,-246.19C133,-237.28 133,-227.9 133,-219.61"/>
<polygon fill="midnightblue" stroke="midnightblue" points="129.5,-246.34 133,-256.34 136.5,-246.34 129.5,-246.34"/>
</g>
<!-- Node3 -->
<g id="node3" class="node">
<title>Node3</title>
<g id="a_node3"><a xlink:href="iter__impl_8hpp.html" target="_top" xlink:title=" ">
<polygon fill="white" stroke="black" points="0,-78.5 0,-130.5 134,-130.5 134,-78.5 0,-78.5"/>
<text text-anchor="start" x="8" y="-118.5" font-family="Helvetica,sans-Serif" font-size="10.00">mc_orchestrator/json</text>
<text text-anchor="start" x="8" y="-107.5" font-family="Helvetica,sans-Serif" font-size="10.00">&#45;3.7.3/include/nlohmann</text>
<text text-anchor="start" x="8" y="-96.5" font-family="Helvetica,sans-Serif" font-size="10.00">/detail/iterators/iter</text>
<text text-anchor="middle" x="67" y="-85.5" font-family="Helvetica,sans-Serif" font-size="10.00">_impl.hpp</text>
</a>
</g>
</g>
<!-- Node1&#45;&gt;Node3 -->
<g id="edge5" class="edge">
<title>Node1&#45;&gt;Node3</title>
<path fill="none" stroke="midnightblue" d="M80.95,-249.96C71.27,-241.51 62.48,-231.48 57,-220 43.51,-191.73 50.33,-155.07 57.62,-130.94"/>
<polygon fill="midnightblue" stroke="midnightblue" points="78.9,-252.8 88.87,-256.39 83.31,-247.37 78.9,-252.8"/>
</g>
<!-- Node4 -->
<g id="node4" class="node">
<title>Node4</title>
<g id="a_node4"><a xlink:href="include_2nlohmann_2json_8hpp.html" target="_top" xlink:title=" ">
<polygon fill="white" stroke="black" points="95,-0.5 95,-41.5 229,-41.5 229,-0.5 95,-0.5"/>
<text text-anchor="start" x="103" y="-29.5" font-family="Helvetica,sans-Serif" font-size="10.00">mc_orchestrator/json</text>
<text text-anchor="start" x="103" y="-18.5" font-family="Helvetica,sans-Serif" font-size="10.00">&#45;3.7.3/include/nlohmann</text>
<text text-anchor="middle" x="162" y="-7.5" font-family="Helvetica,sans-Serif" font-size="10.00">/json.hpp</text>
</a>
</g>
</g>
<!-- Node1&#45;&gt;Node4 -->
<g id="edge6" class="edge">
<title>Node1&#45;&gt;Node4</title>
<path fill="none" stroke="midnightblue" d="M185.05,-249.96C194.73,-241.51 203.52,-231.48 209,-220 238.14,-158.94 197.38,-78.44 175,-41.75"/>
<polygon fill="midnightblue" stroke="midnightblue" points="182.69,-247.37 177.13,-256.39 187.1,-252.8 182.69,-247.37"/>
</g>
<!-- Node2&#45;&gt;Node3 -->
<g id="edge2" class="edge">
<title>Node2&#45;&gt;Node3</title>
<path fill="none" stroke="midnightblue" d="M107.75,-159.22C100.54,-149.72 92.82,-139.53 86.05,-130.61"/>
<polygon fill="midnightblue" stroke="midnightblue" points="105.08,-161.48 113.91,-167.34 110.65,-157.25 105.08,-161.48"/>
</g>
<!-- Node2&#45;&gt;Node4 -->
<g id="edge4" class="edge">
<title>Node2&#45;&gt;Node4</title>
<path fill="none" stroke="midnightblue" d="M139.02,-157.08C144.98,-122.09 153.86,-69.84 158.65,-41.68"/>
<polygon fill="midnightblue" stroke="midnightblue" points="135.51,-156.9 137.28,-167.34 142.41,-158.07 135.51,-156.9"/>
</g>
<!-- Node3&#45;&gt;Node4 -->
<g id="edge3" class="edge">
<title>Node3&#45;&gt;Node4</title>
<path fill="none" stroke="midnightblue" d="M103.88,-71.86C115.71,-61.71 128.46,-50.77 139,-41.73"/>
<polygon fill="midnightblue" stroke="midnightblue" points="101.59,-69.21 96.28,-78.38 106.15,-74.53 101.59,-69.21"/>
</g>
</g>
</svg>
