<?xml version="1.0" encoding="UTF-8" standalone="no"?>
<!DOCTYPE svg PUBLIC "-//W3C//DTD SVG 1.1//EN"
 "http://www.w3.org/Graphics/SVG/1.1/DTD/svg11.dtd">
<!-- Generated by graphviz version 2.43.0 (0)
 -->
<!-- Title: LLVMFuzzerTestOneInput Pages: 1 -->
<svg width="228pt" height="66pt"
 viewBox="0.00 0.00 228.00 66.00" xmlns="http://www.w3.org/2000/svg" xmlns:xlink="http://www.w3.org/1999/xlink">
<g id="graph0" class="graph" transform="scale(1 1) rotate(0) translate(4 62)">
<title>LLVMFuzzerTestOneInput</title>
<polygon fill="white" stroke="transparent" points="-4,4 -4,-62 224,-62 224,4 -4,4"/>
<!-- Node1 -->
<g id="node1" class="node">
<title>Node1</title>
<g id="a_node1"><a xlink:title=" ">
<polygon fill="#bfbfbf" stroke="black" points="0,-19.5 0,-38.5 137,-38.5 137,-19.5 0,-19.5"/>
<text text-anchor="middle" x="68.5" y="-26.5" font-family="Helvetica,sans-Serif" font-size="10.00">LLVMFuzzerTestOneInput</text>
</a>
</g>
</g>
<!-- Node2 -->
<g id="node2" class="node">
<title>Node2</title>
<g id="a_node2"><a xlink:href="FuzzerTracePC_8cpp.html#a1f10ac78bd11294b612636121065eb5b" target="_top" xlink:title=" ">
<polygon fill="white" stroke="black" points="173,-38.5 173,-57.5 220,-57.5 220,-38.5 173,-38.5"/>
<text text-anchor="middle" x="196.5" y="-45.5" font-family="Helvetica,sans-Serif" font-size="10.00">assert</text>
</a>
</g>
</g>
<!-- Node1&#45;&gt;Node2 -->
<g id="edge1" class="edge">
<title>Node1&#45;&gt;Node2</title>
<path fill="none" stroke="midnightblue" d="M132.87,-38.56C143.29,-40.13 153.69,-41.7 162.95,-43.09"/>
<polygon fill="midnightblue" stroke="midnightblue" points="162.43,-46.55 172.84,-44.58 163.47,-39.63 162.43,-46.55"/>
</g>
<!-- Node3 -->
<g id="node3" class="node">
<title>Node3</title>
<g id="a_node3"><a xlink:href="FuzzerUnittest_8cpp.html#a25865e645c325e4f24c1a05f1e452c8b" target="_top" xlink:title=" ">
<polygon fill="white" stroke="black" points="181.5,-0.5 181.5,-19.5 211.5,-19.5 211.5,-0.5 181.5,-0.5"/>
<text text-anchor="middle" x="196.5" y="-7.5" font-family="Helvetica,sans-Serif" font-size="10.00">EQ</text>
</a>
</g>
</g>
<!-- Node1&#45;&gt;Node3 -->
<g id="edge2" class="edge">
<title>Node1&#45;&gt;Node3</title>
<path fill="none" stroke="midnightblue" d="M132.87,-19.44C146.47,-17.39 160.06,-15.34 171.08,-13.68"/>
<polygon fill="midnightblue" stroke="midnightblue" points="171.78,-17.12 181.15,-12.16 170.74,-10.19 171.78,-17.12"/>
</g>
</g>
</svg>
