<?xml version="1.0" encoding="UTF-8" standalone="no"?>
<!DOCTYPE svg PUBLIC "-//W3C//DTD SVG 1.1//EN"
 "http://www.w3.org/Graphics/SVG/1.1/DTD/svg11.dtd">
<!-- Generated by graphviz version 2.43.0 (0)
 -->
<!-- Title: stopRequested Pages: 1 -->
<svg width="413pt" height="123pt"
 viewBox="0.00 0.00 413.00 123.00" xmlns="http://www.w3.org/2000/svg" xmlns:xlink="http://www.w3.org/1999/xlink">
<g id="graph0" class="graph" transform="scale(1 1) rotate(0) translate(4 119)">
<title>stopRequested</title>
<polygon fill="white" stroke="transparent" points="-4,4 -4,-119 409,-119 409,4 -4,4"/>
<!-- Node1 -->
<g id="node1" class="node">
<title>Node1</title>
<g id="a_node1"><a xlink:title=" ">
<polygon fill="#bfbfbf" stroke="black" points="316,-38.5 316,-57.5 405,-57.5 405,-38.5 316,-38.5"/>
<text text-anchor="middle" x="360.5" y="-45.5" font-family="Helvetica,sans-Serif" font-size="10.00">stopRequested</text>
</a>
</g>
</g>
<!-- Node2 -->
<g id="node2" class="node">
<title>Node2</title>
<g id="a_node2"><a xlink:href="resource-utilizer_8cpp.html#a950de6e4f4b7c805dd785875f064cd63" target="_top" xlink:title=" ">
<polygon fill="white" stroke="black" points="211,-95.5 211,-114.5 279,-114.5 279,-95.5 211,-95.5"/>
<text text-anchor="middle" x="245" y="-102.5" font-family="Helvetica,sans-Serif" font-size="10.00">cpuWorker</text>
</a>
</g>
</g>
<!-- Node1&#45;&gt;Node2 -->
<g id="edge1" class="edge">
<title>Node1&#45;&gt;Node2</title>
<path fill="none" stroke="midnightblue" d="M331.55,-62.04C310.87,-72.42 283.25,-86.29 265.06,-95.43"/>
<polygon fill="midnightblue" stroke="midnightblue" points="333.14,-65.16 340.5,-57.54 330,-58.9 333.14,-65.16"/>
</g>
<!-- Node3 -->
<g id="node3" class="node">
<title>Node3</title>
<g id="a_node3"><a xlink:href="resource-utilizer_8cpp.html#af9bc44d961b51f4e3450a49c4db4d4ba" target="_top" xlink:title=" ">
<polygon fill="white" stroke="black" points="77,-47.5 77,-66.5 174,-66.5 174,-47.5 77,-47.5"/>
<text text-anchor="middle" x="125.5" y="-54.5" font-family="Helvetica,sans-Serif" font-size="10.00">utilizeResources</text>
</a>
</g>
</g>
<!-- Node1&#45;&gt;Node3 -->
<g id="edge8" class="edge">
<title>Node1&#45;&gt;Node3</title>
<path fill="none" stroke="midnightblue" d="M305.91,-50.07C266.18,-51.6 212.51,-53.68 174.25,-55.16"/>
<polygon fill="midnightblue" stroke="midnightblue" points="306.09,-53.57 315.95,-49.68 305.82,-46.57 306.09,-53.57"/>
</g>
<!-- Node5 -->
<g id="node5" class="node">
<title>Node5</title>
<g id="a_node5"><a xlink:href="resource-utilizer_8cpp.html#a7e99b20c902ee149a232d168276121c8" target="_top" xlink:title=" ">
<polygon fill="white" stroke="black" points="210,-19.5 210,-38.5 280,-38.5 280,-19.5 210,-19.5"/>
<text text-anchor="middle" x="245" y="-26.5" font-family="Helvetica,sans-Serif" font-size="10.00">fillMemory</text>
</a>
</g>
</g>
<!-- Node1&#45;&gt;Node5 -->
<g id="edge4" class="edge">
<title>Node1&#45;&gt;Node5</title>
<path fill="none" stroke="midnightblue" d="M306.06,-39.05C297.23,-37.58 288.29,-36.08 280.1,-34.71"/>
<polygon fill="midnightblue" stroke="midnightblue" points="305.5,-42.51 315.94,-40.71 306.66,-35.61 305.5,-42.51"/>
</g>
<!-- Node6 -->
<g id="node6" class="node">
<title>Node6</title>
<g id="a_node6"><a xlink:href="resource-utilizer_8cpp.html#ad2e59c7203b3bddc1bc9a2224b52e8e7" target="_top" xlink:title=" ">
<polygon fill="white" stroke="black" points="83.5,-0.5 83.5,-19.5 167.5,-19.5 167.5,-0.5 83.5,-0.5"/>
<text text-anchor="middle" x="125.5" y="-7.5" font-family="Helvetica,sans-Serif" font-size="10.00">signalHandler</text>
</a>
</g>
</g>
<!-- Node1&#45;&gt;Node6 -->
<g id="edge6" class="edge">
<title>Node1&#45;&gt;Node6</title>
<path fill="none" stroke="midnightblue" d="M335.93,-33.29C320.63,-24.63 299.89,-14.51 280,-10 242.7,-1.54 198.99,-2.57 167.77,-5.1"/>
<polygon fill="midnightblue" stroke="midnightblue" points="334.31,-36.4 344.7,-38.43 337.85,-30.36 334.31,-36.4"/>
</g>
<!-- Node2&#45;&gt;Node3 -->
<g id="edge2" class="edge">
<title>Node2&#45;&gt;Node3</title>
<path fill="none" stroke="midnightblue" d="M211.1,-91.56C191.65,-83.62 167.48,-73.74 149.95,-66.58"/>
<polygon fill="midnightblue" stroke="midnightblue" points="209.92,-94.86 220.5,-95.4 212.57,-88.38 209.92,-94.86"/>
</g>
<!-- Node4 -->
<g id="node4" class="node">
<title>Node4</title>
<g id="a_node4"><a xlink:href="resource-utilizer_8cpp.html#a0ddf1224851353fc92bfbff6f499fa97" target="_top" xlink:title=" ">
<polygon fill="white" stroke="black" points="0,-19.5 0,-38.5 41,-38.5 41,-19.5 0,-19.5"/>
<text text-anchor="middle" x="20.5" y="-26.5" font-family="Helvetica,sans-Serif" font-size="10.00">main</text>
</a>
</g>
</g>
<!-- Node3&#45;&gt;Node4 -->
<g id="edge3" class="edge">
<title>Node3&#45;&gt;Node4</title>
<path fill="none" stroke="midnightblue" d="M79.31,-44.71C65.96,-41.09 52.04,-37.3 41.2,-34.36"/>
<polygon fill="midnightblue" stroke="midnightblue" points="78.77,-48.2 89.34,-47.44 80.61,-41.44 78.77,-48.2"/>
</g>
<!-- Node5&#45;&gt;Node3 -->
<g id="edge5" class="edge">
<title>Node5&#45;&gt;Node3</title>
<path fill="none" stroke="midnightblue" d="M199.87,-39.52C188.9,-42.13 177.2,-44.92 166.44,-47.48"/>
<polygon fill="midnightblue" stroke="midnightblue" points="200.78,-42.9 209.7,-37.17 199.16,-36.09 200.78,-42.9"/>
</g>
<!-- Node6&#45;&gt;Node4 -->
<g id="edge7" class="edge">
<title>Node6&#45;&gt;Node4</title>
<path fill="none" stroke="midnightblue" d="M73.46,-19.42C61.96,-21.54 50.44,-23.66 41.17,-25.37"/>
<polygon fill="midnightblue" stroke="midnightblue" points="74.3,-22.82 83.5,-17.56 73.03,-15.94 74.3,-22.82"/>
</g>
</g>
</svg>
