<?xml version="1.0" encoding="UTF-8" standalone="no"?>
<!DOCTYPE svg PUBLIC "-//W3C//DTD SVG 1.1//EN"
 "http://www.w3.org/Graphics/SVG/1.1/DTD/svg11.dtd">
<!-- Generated by graphviz version 2.43.0 (0)
 -->
<!-- Title: exitHandler Pages: 1 -->
<svg width="484pt" height="28pt"
 viewBox="0.00 0.00 484.00 28.00" xmlns="http://www.w3.org/2000/svg" xmlns:xlink="http://www.w3.org/1999/xlink">
<g id="graph0" class="graph" transform="scale(1 1) rotate(0) translate(4 24)">
<title>exitHandler</title>
<polygon fill="white" stroke="transparent" points="-4,4 -4,-24 480,-24 480,4 -4,4"/>
<!-- Node1 -->
<g id="node1" class="node">
<title>Node1</title>
<g id="a_node1"><a xlink:title=" ">
<polygon fill="#bfbfbf" stroke="black" points="0,-0.5 0,-19.5 74,-19.5 74,-0.5 0,-0.5"/>
<text text-anchor="middle" x="37" y="-7.5" font-family="Helvetica,sans-Serif" font-size="10.00">exitHandler</text>
</a>
</g>
</g>
<!-- Node2 -->
<g id="node2" class="node">
<title>Node2</title>
<g id="a_node2"><a xlink:href="resource-utilizer-pinned_8cpp.html#af688cfd0c0dc145289a10a5f197e394b" target="_top" xlink:title=" ">
<polygon fill="white" stroke="black" points="110,-0.5 110,-19.5 236,-19.5 236,-0.5 110,-0.5"/>
<text text-anchor="middle" x="173" y="-7.5" font-family="Helvetica,sans-Serif" font-size="10.00">releaseAllocatedCores</text>
</a>
</g>
</g>
<!-- Node1&#45;&gt;Node2 -->
<g id="edge1" class="edge">
<title>Node1&#45;&gt;Node2</title>
<path fill="none" stroke="midnightblue" d="M74.26,-10C82.26,-10 91,-10 99.86,-10"/>
<polygon fill="midnightblue" stroke="midnightblue" points="99.89,-13.5 109.89,-10 99.89,-6.5 99.89,-13.5"/>
</g>
<!-- Node3 -->
<g id="node3" class="node">
<title>Node3</title>
<g id="a_node3"><a xlink:href="resource-utilizer-pinned_8cpp.html#a6cbcbffcb8633cf5e0681ec93cd3e5a7" target="_top" xlink:title=" ">
<polygon fill="white" stroke="black" points="272,-0.5 272,-19.5 343,-19.5 343,-0.5 272,-0.5"/>
<text text-anchor="middle" x="307.5" y="-7.5" font-family="Helvetica,sans-Serif" font-size="10.00">unlockCore</text>
</a>
</g>
</g>
<!-- Node2&#45;&gt;Node3 -->
<g id="edge2" class="edge">
<title>Node2&#45;&gt;Node3</title>
<path fill="none" stroke="midnightblue" d="M236.37,-10C244.96,-10 253.64,-10 261.82,-10"/>
<polygon fill="midnightblue" stroke="midnightblue" points="261.88,-13.5 271.88,-10 261.88,-6.5 261.88,-13.5"/>
</g>
<!-- Node4 -->
<g id="node4" class="node">
<title>Node4</title>
<g id="a_node4"><a xlink:href="namespacehttplib.html#a498c3a79825ecbcb15c52ec5fcfd5c11" target="_top" xlink:title=" ">
<polygon fill="white" stroke="black" points="379,-0.5 379,-19.5 476,-19.5 476,-0.5 379,-0.5"/>
<text text-anchor="middle" x="427.5" y="-7.5" font-family="Helvetica,sans-Serif" font-size="10.00">httplib::to_string</text>
</a>
</g>
</g>
<!-- Node3&#45;&gt;Node4 -->
<g id="edge3" class="edge">
<title>Node3&#45;&gt;Node4</title>
<path fill="none" stroke="midnightblue" d="M343.27,-10C351.28,-10 360.01,-10 368.71,-10"/>
<polygon fill="midnightblue" stroke="midnightblue" points="368.87,-13.5 378.87,-10 368.87,-6.5 368.87,-13.5"/>
</g>
</g>
</svg>
