<?xml version="1.0" encoding="UTF-8" standalone="no"?>
<!DOCTYPE svg PUBLIC "-//W3C//DTD SVG 1.1//EN"
 "http://www.w3.org/Graphics/SVG/1.1/DTD/svg11.dtd">
<!-- Generated by graphviz version 2.43.0 (0)
 -->
<!-- Title: main Pages: 1 -->
<!--zoomable 332 -->
<svg id="main" version="1.1" xmlns="http://www.w3.org/2000/svg" xmlns:xlink="http://www.w3.org/1999/xlink" xml:space="preserve" onload="init(evt)">
<style type="text/css"><![CDATA[
.edge:hover path { stroke: red; }
.edge:hover polygon { stroke: red; fill: red; }
]]></style>
<script type="text/javascript"><![CDATA[
var edges = document.getElementsByTagName('g');
if (edges && edges.length) {
  for (var i=0;i<edges.length;i++) {
    if (edges[i].id.substr(0,4)=='edge') {
      edges[i].setAttribute('class','edge');
    }
  }
}
]]></script>
        <defs>
                <circle id="rim" cx="0" cy="0" r="7"/>
                <circle id="rim2" cx="0" cy="0" r="3.5"/>
                <g id="zoomPlus">
                        <use xlink:href="#rim" fill="#404040">
                                <set attributeName="fill" to="#808080" begin="zoomplus.mouseover" end="zoomplus.mouseout"/>
                        </use>
                        <path d="M-4,0h8M0,-4v8" fill="none" stroke="white" stroke-width="1.5" pointer-events="none"/>
                </g>
                <g id="zoomMin">
                        <use xlink:href="#rim" fill="#404040">
                                <set attributeName="fill" to="#808080" begin="zoomminus.mouseover" end="zoomminus.mouseout"/>
                        </use>
                        <path d="M-4,0h8" fill="none" stroke="white" stroke-width="1.5" pointer-events="none"/>
                </g>
                <g id="dirArrow">
                        <path fill="none" stroke="white" stroke-width="1.5" d="M0,-3.0v7 M-2.5,-0.5L0,-3.0L2.5,-0.5"/>
                </g>
               <g id="resetDef">
                       <use xlink:href="#rim2" fill="#404040">
                               <set attributeName="fill" to="#808080" begin="reset.mouseover" end="reset.mouseout"/>
                       </use>
               </g>
        </defs>

<script type="text/javascript">
var viewWidth = 661;
var viewHeight = 332;
var sectionId = 'dynsection-12';
</script>
<script xlink:href="svgpan.js"/>
<svg id="graph" class="graph">
<g id="viewport">
<title>main</title>
<polygon fill="white" stroke="transparent" points="-4,4 -4,-328 657,-328 657,4 -4,4"/>
<!-- Node1 -->
<g id="node1" class="node">
<title>Node1</title>
<g id="a_node1"><a xlink:title=" ">
<polygon fill="#bfbfbf" stroke="black" points="0,-190.5 0,-209.5 41,-209.5 41,-190.5 0,-190.5"/>
<text text-anchor="middle" x="20.5" y="-197.5" font-family="Helvetica,sans-Serif" font-size="10.00">main</text>
</a>
</g>
</g>
<!-- Node2 -->
<g id="node2" class="node">
<title>Node2</title>
<g id="a_node2"><a xlink:href="resource-utilizer-pinned_8cpp.html#a4a26b396e509e6a65eae2d72ac5a190a" target="_top" xlink:title=" ">
<polygon fill="white" stroke="black" points="88.5,-256.5 88.5,-275.5 162.5,-275.5 162.5,-256.5 88.5,-256.5"/>
<text text-anchor="middle" x="125.5" y="-263.5" font-family="Helvetica,sans-Serif" font-size="10.00">exitHandler</text>
</a>
</g>
</g>
<!-- Node1&#45;&gt;Node2 -->
<g id="edge1" class="edge">
<title>Node1&#45;&gt;Node2</title>
<path fill="none" stroke="midnightblue" d="M35.01,-209.63C46.15,-217.47 62.42,-228.72 77,-238 84.04,-242.48 91.8,-247.16 98.96,-251.37"/>
<polygon fill="midnightblue" stroke="midnightblue" points="97.22,-254.41 107.63,-256.43 100.75,-248.36 97.22,-254.41"/>
</g>
<!-- Node6 -->
<g id="node6" class="node">
<title>Node6</title>
<g id="a_node6"><a xlink:href="resource-utilizer-pinned_8cpp.html#afab1557244eb6ab3cb446f0e7cad8905" target="_top" xlink:title=" ">
<polygon fill="white" stroke="black" points="90.5,-209.5 90.5,-228.5 160.5,-228.5 160.5,-209.5 90.5,-209.5"/>
<text text-anchor="middle" x="125.5" y="-216.5" font-family="Helvetica,sans-Serif" font-size="10.00">printUsage</text>
</a>
</g>
</g>
<!-- Node1&#45;&gt;Node6 -->
<g id="edge5" class="edge">
<title>Node1&#45;&gt;Node6</title>
<path fill="none" stroke="midnightblue" d="M41.36,-203.66C52.35,-205.69 66.49,-208.3 79.97,-210.79"/>
<polygon fill="midnightblue" stroke="midnightblue" points="79.63,-214.28 90.1,-212.65 80.9,-207.4 79.63,-214.28"/>
</g>
<!-- Node7 -->
<g id="node7" class="node">
<title>Node7</title>
<g id="a_node7"><a xlink:href="resource-utilizer-pinned_8cpp.html#ad2e59c7203b3bddc1bc9a2224b52e8e7" target="_top" xlink:title=" ">
<polygon fill="white" stroke="black" points="83.5,-114.5 83.5,-133.5 167.5,-133.5 167.5,-114.5 83.5,-114.5"/>
<text text-anchor="middle" x="125.5" y="-121.5" font-family="Helvetica,sans-Serif" font-size="10.00">signalHandler</text>
</a>
</g>
</g>
<!-- Node1&#45;&gt;Node7 -->
<g id="edge6" class="edge">
<title>Node1&#45;&gt;Node7</title>
<path fill="none" stroke="midnightblue" d="M34.55,-190.37C51.88,-177.58 82.72,-154.83 103.39,-139.57"/>
<polygon fill="midnightblue" stroke="midnightblue" points="105.59,-142.3 111.56,-133.55 101.44,-136.67 105.59,-142.3"/>
</g>
<!-- Node9 -->
<g id="node9" class="node">
<title>Node9</title>
<g id="a_node9"><a xlink:href="resource-utilizer-pinned_8cpp.html#acf2785ebb8ac5487dbfa9478b4a388eb" target="_top" xlink:title=" ">
<polygon fill="white" stroke="black" points="77,-171.5 77,-190.5 174,-190.5 174,-171.5 77,-171.5"/>
<text text-anchor="middle" x="125.5" y="-178.5" font-family="Helvetica,sans-Serif" font-size="10.00">utilizeResources</text>
</a>
</g>
</g>
<!-- Node1&#45;&gt;Node9 -->
<g id="edge8" class="edge">
<title>Node1&#45;&gt;Node9</title>
<path fill="none" stroke="midnightblue" d="M41.36,-196.34C48.83,-194.96 57.75,-193.31 66.93,-191.62"/>
<polygon fill="midnightblue" stroke="midnightblue" points="67.74,-195.03 76.94,-189.77 66.47,-188.15 67.74,-195.03"/>
</g>
<!-- Node3 -->
<g id="node3" class="node">
<title>Node3</title>
<g id="a_node3"><a xlink:href="resource-utilizer-pinned_8cpp.html#af688cfd0c0dc145289a10a5f197e394b" target="_top" xlink:title=" ">
<polygon fill="white" stroke="black" points="211,-266.5 211,-285.5 337,-285.5 337,-266.5 211,-266.5"/>
<text text-anchor="middle" x="274" y="-273.5" font-family="Helvetica,sans-Serif" font-size="10.00">releaseAllocatedCores</text>
</a>
</g>
</g>
<!-- Node2&#45;&gt;Node3 -->
<g id="edge2" class="edge">
<title>Node2&#45;&gt;Node3</title>
<path fill="none" stroke="midnightblue" d="M162.71,-268.47C174.33,-269.26 187.63,-270.17 200.88,-271.08"/>
<polygon fill="midnightblue" stroke="midnightblue" points="200.76,-274.58 210.97,-271.77 201.23,-267.59 200.76,-274.58"/>
</g>
<!-- Node4 -->
<g id="node4" class="node">
<title>Node4</title>
<g id="a_node4"><a xlink:href="resource-utilizer-pinned_8cpp.html#a6cbcbffcb8633cf5e0681ec93cd3e5a7" target="_top" xlink:title=" ">
<polygon fill="white" stroke="black" points="411.5,-304.5 411.5,-323.5 482.5,-323.5 482.5,-304.5 411.5,-304.5"/>
<text text-anchor="middle" x="447" y="-311.5" font-family="Helvetica,sans-Serif" font-size="10.00">unlockCore</text>
</a>
</g>
</g>
<!-- Node3&#45;&gt;Node4 -->
<g id="edge3" class="edge">
<title>Node3&#45;&gt;Node4</title>
<path fill="none" stroke="midnightblue" d="M318.15,-285.59C343.66,-291.26 375.89,-298.42 401.61,-304.13"/>
<polygon fill="midnightblue" stroke="midnightblue" points="400.95,-307.57 411.47,-306.33 402.47,-300.74 400.95,-307.57"/>
</g>
<!-- Node5 -->
<g id="node5" class="node">
<title>Node5</title>
<g id="a_node5"><a xlink:href="namespacehttplib.html#a498c3a79825ecbcb15c52ec5fcfd5c11" target="_top" xlink:title=" ">
<polygon fill="white" stroke="black" points="556,-285.5 556,-304.5 653,-304.5 653,-285.5 556,-285.5"/>
<text text-anchor="middle" x="604.5" y="-292.5" font-family="Helvetica,sans-Serif" font-size="10.00">httplib::to_string</text>
</a>
</g>
</g>
<!-- Node4&#45;&gt;Node5 -->
<g id="edge4" class="edge">
<title>Node4&#45;&gt;Node5</title>
<path fill="none" stroke="midnightblue" d="M482.51,-309.78C501.13,-307.51 524.59,-304.64 545.89,-302.04"/>
<polygon fill="midnightblue" stroke="midnightblue" points="546.32,-305.51 555.82,-300.83 545.47,-298.56 546.32,-305.51"/>
</g>
<!-- Node8 -->
<g id="node8" class="node">
<title>Node8</title>
<g id="a_node8"><a xlink:href="resource-utilizer-pinned_8cpp.html#a9753a5a759fde7aa68547b65ef7a1135" target="_top" xlink:title=" ">
<polygon fill="white" stroke="black" points="402.5,-114.5 402.5,-133.5 491.5,-133.5 491.5,-114.5 402.5,-114.5"/>
<text text-anchor="middle" x="447" y="-121.5" font-family="Helvetica,sans-Serif" font-size="10.00">stopRequested</text>
</a>
</g>
</g>
<!-- Node7&#45;&gt;Node8 -->
<g id="edge7" class="edge">
<title>Node7&#45;&gt;Node8</title>
<path fill="none" stroke="midnightblue" d="M167.53,-115.73C181,-113.39 196.08,-111.16 210,-110 266.69,-105.28 281.23,-106.34 338,-110 355.74,-111.15 375.03,-113.34 392.32,-115.65"/>
<polygon fill="midnightblue" stroke="midnightblue" points="391.86,-119.12 402.25,-117.03 392.82,-112.19 391.86,-119.12"/>
</g>
<!-- Node9&#45;&gt;Node3 -->
<g id="edge20" class="edge">
<title>Node9&#45;&gt;Node3</title>
<path fill="none" stroke="midnightblue" d="M158.71,-190.67C164.15,-193.17 169.49,-196.25 174,-200 197.03,-219.16 186.15,-238.86 210,-257 212.47,-258.88 215.12,-260.57 217.89,-262.09"/>
<polygon fill="midnightblue" stroke="midnightblue" points="216.51,-265.31 227.05,-266.42 219.5,-258.99 216.51,-265.31"/>
</g>
<!-- Node9&#45;&gt;Node8 -->
<g id="edge24" class="edge">
<title>Node9&#45;&gt;Node8</title>
<path fill="none" stroke="midnightblue" d="M143.13,-171.33C159.54,-162.31 185.64,-149.32 210,-143 270.98,-127.19 343.53,-123.5 391.94,-123.08"/>
<polygon fill="midnightblue" stroke="midnightblue" points="392.2,-126.58 402.19,-123.04 392.18,-119.58 392.2,-126.58"/>
</g>
<!-- Node10 -->
<g id="node10" class="node">
<title>Node10</title>
<g id="a_node10"><a xlink:href="resource-utilizer-pinned_8cpp.html#a0435f9eff6687bdaab9cd01f1bb145ed" target="_top" xlink:title=" ">
<polygon fill="white" stroke="black" points="210,-228.5 210,-247.5 338,-247.5 338,-228.5 210,-228.5"/>
<text text-anchor="middle" x="274" y="-235.5" font-family="Helvetica,sans-Serif" font-size="10.00">allocateAvailableCores</text>
</a>
</g>
</g>
<!-- Node9&#45;&gt;Node10 -->
<g id="edge9" class="edge">
<title>Node9&#45;&gt;Node10</title>
<path fill="none" stroke="midnightblue" d="M150.59,-190.61C167.25,-197.24 189.95,-206.22 210,-214 219.13,-217.54 229.03,-221.34 238.22,-224.84"/>
<polygon fill="midnightblue" stroke="midnightblue" points="237.24,-228.21 247.83,-228.49 239.73,-221.67 237.24,-228.21"/>
</g>
<!-- Node12 -->
<g id="node12" class="node">
<title>Node12</title>
<g id="a_node12"><a xlink:href="resource-utilizer-pinned_8cpp.html#ac7e7eebb4772b4a12fc2b775f6cc9071" target="_top" xlink:title=" ">
<polygon fill="white" stroke="black" points="407,-190.5 407,-209.5 487,-209.5 487,-190.5 407,-190.5"/>
<text text-anchor="middle" x="447" y="-197.5" font-family="Helvetica,sans-Serif" font-size="10.00">getCpuCount</text>
</a>
</g>
</g>
<!-- Node9&#45;&gt;Node12 -->
<g id="edge19" class="edge">
<title>Node9&#45;&gt;Node12</title>
<path fill="none" stroke="midnightblue" d="M174.33,-183.84C234.23,-187.41 336.32,-193.48 396.84,-197.08"/>
<polygon fill="midnightblue" stroke="midnightblue" points="396.72,-200.58 406.91,-197.68 397.13,-193.59 396.72,-200.58"/>
</g>
<!-- Node14 -->
<g id="node14" class="node">
<title>Node14</title>
<g id="a_node14"><a xlink:href="resource-utilizer-pinned_8cpp.html#a7e99b20c902ee149a232d168276121c8" target="_top" xlink:title=" ">
<polygon fill="white" stroke="black" points="239,-38.5 239,-57.5 309,-57.5 309,-38.5 239,-38.5"/>
<text text-anchor="middle" x="274" y="-45.5" font-family="Helvetica,sans-Serif" font-size="10.00">fillMemory</text>
</a>
</g>
</g>
<!-- Node9&#45;&gt;Node14 -->
<g id="edge14" class="edge">
<title>Node9&#45;&gt;Node14</title>
<path fill="none" stroke="midnightblue" d="M139.25,-171.3C148.96,-163.8 162.56,-153.02 174,-143 190.01,-128.96 231.95,-88.2 255.79,-64.88"/>
<polygon fill="midnightblue" stroke="midnightblue" points="258.42,-67.2 263.11,-57.71 253.52,-62.2 258.42,-67.2"/>
</g>
<!-- Node18 -->
<g id="node18" class="node">
<title>Node18</title>
<g id="a_node18"><a xlink:href="resource-utilizer-pinned_8cpp.html#a4188d39b873232fcfce106e91f02ced1" target="_top" xlink:title=" ">
<polygon fill="white" stroke="black" points="222.5,-152.5 222.5,-171.5 325.5,-171.5 325.5,-152.5 222.5,-152.5"/>
<text text-anchor="middle" x="274" y="-159.5" font-family="Helvetica,sans-Serif" font-size="10.00">singleCoreWorker</text>
</a>
</g>
</g>
<!-- Node9&#45;&gt;Node18 -->
<g id="edge21" class="edge">
<title>Node9&#45;&gt;Node18</title>
<path fill="none" stroke="midnightblue" d="M174.06,-174.83C186.26,-173.25 199.54,-171.53 212.3,-169.87"/>
<polygon fill="midnightblue" stroke="midnightblue" points="212.93,-173.32 222.39,-168.56 212.03,-166.38 212.93,-173.32"/>
</g>
<!-- Node11 -->
<g id="node11" class="node">
<title>Node11</title>
<g id="a_node11"><a xlink:href="resource-utilizer-pinned_8cpp.html#aca95eaaa8de94b1b0dd521298bba8da2" target="_top" xlink:title=" ">
<polygon fill="white" stroke="black" points="374,-228.5 374,-247.5 520,-247.5 520,-228.5 374,-228.5"/>
<text text-anchor="middle" x="447" y="-235.5" font-family="Helvetica,sans-Serif" font-size="10.00">ensureLockDirectoryExists</text>
</a>
</g>
</g>
<!-- Node10&#45;&gt;Node11 -->
<g id="edge10" class="edge">
<title>Node10&#45;&gt;Node11</title>
<path fill="none" stroke="midnightblue" d="M338.19,-238C346.53,-238 355.18,-238 363.78,-238"/>
<polygon fill="midnightblue" stroke="midnightblue" points="363.84,-241.5 373.84,-238 363.84,-234.5 363.84,-241.5"/>
</g>
<!-- Node10&#45;&gt;Node12 -->
<g id="edge11" class="edge">
<title>Node10&#45;&gt;Node12</title>
<path fill="none" stroke="midnightblue" d="M318.15,-228.41C342.15,-223.08 372.11,-216.42 396.99,-210.89"/>
<polygon fill="midnightblue" stroke="midnightblue" points="397.95,-214.26 406.96,-208.68 396.44,-207.43 397.95,-214.26"/>
</g>
<!-- Node13 -->
<g id="node13" class="node">
<title>Node13</title>
<g id="a_node13"><a xlink:href="resource-utilizer-pinned_8cpp.html#a2bba01a28f910b25e98f91e7c61b84b2" target="_top" xlink:title=" ">
<polygon fill="white" stroke="black" points="409.5,-266.5 409.5,-285.5 484.5,-285.5 484.5,-266.5 409.5,-266.5"/>
<text text-anchor="middle" x="447" y="-273.5" font-family="Helvetica,sans-Serif" font-size="10.00">tryLockCore</text>
</a>
</g>
</g>
<!-- Node10&#45;&gt;Node13 -->
<g id="edge12" class="edge">
<title>Node10&#45;&gt;Node13</title>
<path fill="none" stroke="midnightblue" d="M318.15,-247.59C342.85,-253.08 373.85,-259.97 399.14,-265.59"/>
<polygon fill="midnightblue" stroke="midnightblue" points="398.72,-269.08 409.24,-267.83 400.23,-262.24 398.72,-269.08"/>
</g>
<!-- Node13&#45;&gt;Node5 -->
<g id="edge13" class="edge">
<title>Node13&#45;&gt;Node5</title>
<path fill="none" stroke="midnightblue" d="M484.85,-280.5C502.98,-282.72 525.26,-285.44 545.6,-287.93"/>
<polygon fill="midnightblue" stroke="midnightblue" points="545.36,-291.42 555.72,-289.16 546.21,-284.47 545.36,-291.42"/>
</g>
<!-- Node14&#45;&gt;Node8 -->
<g id="edge18" class="edge">
<title>Node14&#45;&gt;Node8</title>
<path fill="none" stroke="midnightblue" d="M307.18,-57.61C317.42,-61.35 328.54,-66.16 338,-72 356.47,-83.4 354.95,-94.59 374,-105 379.87,-108.21 386.31,-110.89 392.84,-113.14"/>
<polygon fill="midnightblue" stroke="midnightblue" points="391.85,-116.49 402.44,-116.12 393.93,-109.81 391.85,-116.49"/>
</g>
<!-- Node15 -->
<g id="node15" class="node">
<title>Node15</title>
<g id="a_node15"><a xlink:href="resource-utilizer-pinned_8cpp.html#af96aca9fd633c269510f33c5b3dd0e2a" target="_top" xlink:title=" ">
<polygon fill="white" stroke="black" points="401,-76.5 401,-95.5 493,-95.5 493,-76.5 401,-76.5"/>
<text text-anchor="middle" x="447" y="-83.5" font-family="Helvetica,sans-Serif" font-size="10.00">convertToBytes</text>
</a>
</g>
</g>
<!-- Node14&#45;&gt;Node15 -->
<g id="edge15" class="edge">
<title>Node14&#45;&gt;Node15</title>
<path fill="none" stroke="midnightblue" d="M309.19,-55.6C333.24,-60.94 365.87,-68.19 393.24,-74.28"/>
<polygon fill="midnightblue" stroke="midnightblue" points="392.54,-77.7 403.06,-76.46 394.05,-70.87 392.54,-77.7"/>
</g>
<!-- Node16 -->
<g id="node16" class="node">
<title>Node16</title>
<g id="a_node16"><a xlink:href="resource-utilizer-pinned_8cpp.html#a23d23db33081c73f8b8fb19c40c8f416" target="_top" xlink:title=" ">
<polygon fill="white" stroke="black" points="412,-38.5 412,-57.5 482,-57.5 482,-38.5 412,-38.5"/>
<text text-anchor="middle" x="447" y="-45.5" font-family="Helvetica,sans-Serif" font-size="10.00">formatSize</text>
</a>
</g>
</g>
<!-- Node14&#45;&gt;Node16 -->
<g id="edge16" class="edge">
<title>Node14&#45;&gt;Node16</title>
<path fill="none" stroke="midnightblue" d="M309.19,-48C335.76,-48 372.8,-48 401.65,-48"/>
<polygon fill="midnightblue" stroke="midnightblue" points="401.87,-51.5 411.87,-48 401.87,-44.5 401.87,-51.5"/>
</g>
<!-- Node17 -->
<g id="node17" class="node">
<title>Node17</title>
<g id="a_node17"><a xlink:href="resource-utilizer-pinned_8cpp.html#a48e72ef6d2e6c9fbf05f5c0fecc2f286" target="_top" xlink:title=" ">
<polygon fill="white" stroke="black" points="376.5,-0.5 376.5,-19.5 517.5,-19.5 517.5,-0.5 376.5,-0.5"/>
<text text-anchor="middle" x="447" y="-7.5" font-family="Helvetica,sans-Serif" font-size="10.00">getProcessMemoryUsage</text>
</a>
</g>
</g>
<!-- Node14&#45;&gt;Node17 -->
<g id="edge17" class="edge">
<title>Node14&#45;&gt;Node17</title>
<path fill="none" stroke="midnightblue" d="M309.19,-40.4C333.24,-35.06 365.87,-27.81 393.24,-21.72"/>
<polygon fill="midnightblue" stroke="midnightblue" points="394.05,-25.13 403.06,-19.54 392.54,-18.3 394.05,-25.13"/>
</g>
<!-- Node18&#45;&gt;Node8 -->
<g id="edge23" class="edge">
<title>Node18&#45;&gt;Node8</title>
<path fill="none" stroke="midnightblue" d="M318.15,-152.41C340.92,-147.35 369.05,-141.1 393.12,-135.75"/>
<polygon fill="midnightblue" stroke="midnightblue" points="394.16,-139.11 403.16,-133.52 392.64,-132.27 394.16,-139.11"/>
</g>
<!-- Node19 -->
<g id="node19" class="node">
<title>Node19</title>
<g id="a_node19"><a xlink:href="resource-utilizer-pinned_8cpp.html#a8980e7e01871b985646c6778f0f70881" target="_top" xlink:title=" ">
<polygon fill="white" stroke="black" points="396.5,-152.5 396.5,-171.5 497.5,-171.5 497.5,-152.5 396.5,-152.5"/>
<text text-anchor="middle" x="447" y="-159.5" font-family="Helvetica,sans-Serif" font-size="10.00">setThreadAffinity</text>
</a>
</g>
</g>
<!-- Node18&#45;&gt;Node19 -->
<g id="edge22" class="edge">
<title>Node18&#45;&gt;Node19</title>
<path fill="none" stroke="midnightblue" d="M325.84,-162C344.79,-162 366.47,-162 386.15,-162"/>
<polygon fill="midnightblue" stroke="midnightblue" points="386.24,-165.5 396.24,-162 386.24,-158.5 386.24,-165.5"/>
</g>
</g>
</svg>
        <g id="navigator" transform="translate(0 0)" fill="#404254">
                <rect fill="#f2f5e9" fill-opacity="0.5" stroke="#606060" stroke-width=".5" x="0" y="0" width="60" height="60"/>
                <use id="zoomplus" xlink:href="#zoomPlus" x="17" y="9" onmousedown="handleZoom(evt,'in')"/>
                <use id="zoomminus" xlink:href="#zoomMin" x="42" y="9" onmousedown="handleZoom(evt,'out')"/>
                <use id="reset" xlink:href="#resetDef" x="30" y="36" onmousedown="handleReset()"/>
                <g id="arrowUp" xlink:href="#dirArrow" transform="translate(30 24)" onmousedown="handlePan(0,-1)">
                  <use xlink:href="#rim" fill="#404040">
                        <set attributeName="fill" to="#808080" begin="arrowUp.mouseover" end="arrowUp.mouseout"/>
                  </use>
                  <path fill="none" stroke="white" stroke-width="1.5" d="M0,-3.0v7 M-2.5,-0.5L0,-3.0L2.5,-0.5"/>
                </g>
                <g id="arrowRight" xlink:href="#dirArrow" transform="rotate(90) translate(36 -43)" onmousedown="handlePan(1,0)">
                  <use xlink:href="#rim" fill="#404040">
                        <set attributeName="fill" to="#808080" begin="arrowRight.mouseover" end="arrowRight.mouseout"/>
                  </use>
                  <path fill="none" stroke="white" stroke-width="1.5" d="M0,-3.0v7 M-2.5,-0.5L0,-3.0L2.5,-0.5"/>
                </g>
                <g id="arrowDown" xlink:href="#dirArrow" transform="rotate(180) translate(-30 -48)" onmousedown="handlePan(0,1)">
                  <use xlink:href="#rim" fill="#404040">
                        <set attributeName="fill" to="#808080" begin="arrowDown.mouseover" end="arrowDown.mouseout"/>
                  </use>
                  <path fill="none" stroke="white" stroke-width="1.5" d="M0,-3.0v7 M-2.5,-0.5L0,-3.0L2.5,-0.5"/>
                </g>
                <g id="arrowLeft" xlink:href="#dirArrow" transform="rotate(270) translate(-36 17)" onmousedown="handlePan(-1,0)">
                  <use xlink:href="#rim" fill="#404040">
                        <set attributeName="fill" to="#808080" begin="arrowLeft.mouseover" end="arrowLeft.mouseout"/>
                  </use>
                  <path fill="none" stroke="white" stroke-width="1.5" d="M0,-3.0v7 M-2.5,-0.5L0,-3.0L2.5,-0.5"/>
                </g>
        </g>
        <svg viewBox="0 0 15 15" width="100%" height="30px" preserveAspectRatio="xMaxYMin meet">
         <g id="arrow_out" transform="scale(0.3 0.3)">
          <a xlink:href="resource-utilizer-pinned_8cpp_a0ddf1224851353fc92bfbff6f499fa97_cgraph_org.svg" target="_base">
           <rect id="button" ry="5" rx="5" y="6" x="6" height="38" width="38"
                fill="#f2f5e9" fill-opacity="0.5" stroke="#606060" stroke-width="1.0"/>
           <path id="arrow"
             d="M 11.500037,31.436501 C 11.940474,20.09759 22.043105,11.32322 32.158766,21.979434 L 37.068811,17.246167 C 37.068811,17.246167 37.088388,32 37.088388,32 L 22.160133,31.978069 C 22.160133,31.978069 26.997745,27.140456 26.997745,27.140456 C 18.528582,18.264221 13.291696,25.230495 11.500037,31.436501 z"
             style="fill:#404040;"/>
          </a>
         </g>
        </svg>
</svg>
