<?xml version="1.0" encoding="UTF-8" standalone="no"?>
<!DOCTYPE svg PUBLIC "-//W3C//DTD SVG 1.1//EN"
 "http://www.w3.org/Graphics/SVG/1.1/DTD/svg11.dtd">
<!-- Generated by graphviz version 2.43.0 (0)
 -->
<!-- Title: singleCoreWorker Pages: 1 -->
<svg width="248pt" height="66pt"
 viewBox="0.00 0.00 248.00 66.00" xmlns="http://www.w3.org/2000/svg" xmlns:xlink="http://www.w3.org/1999/xlink">
<g id="graph0" class="graph" transform="scale(1 1) rotate(0) translate(4 62)">
<title>singleCoreWorker</title>
<polygon fill="white" stroke="transparent" points="-4,4 -4,-62 244,-62 244,4 -4,4"/>
<!-- Node1 -->
<g id="node1" class="node">
<title>Node1</title>
<g id="a_node1"><a xlink:title=" ">
<polygon fill="#bfbfbf" stroke="black" points="0,-19.5 0,-38.5 103,-38.5 103,-19.5 0,-19.5"/>
<text text-anchor="middle" x="51.5" y="-26.5" font-family="Helvetica,sans-Serif" font-size="10.00">singleCoreWorker</text>
</a>
</g>
</g>
<!-- Node2 -->
<g id="node2" class="node">
<title>Node2</title>
<g id="a_node2"><a xlink:href="resource-utilizer-pinned_8cpp.html#a8980e7e01871b985646c6778f0f70881" target="_top" xlink:title=" ">
<polygon fill="white" stroke="black" points="139,-38.5 139,-57.5 240,-57.5 240,-38.5 139,-38.5"/>
<text text-anchor="middle" x="189.5" y="-45.5" font-family="Helvetica,sans-Serif" font-size="10.00">setThreadAffinity</text>
</a>
</g>
</g>
<!-- Node1&#45;&gt;Node2 -->
<g id="edge1" class="edge">
<title>Node1&#45;&gt;Node2</title>
<path fill="none" stroke="midnightblue" d="M103.14,-36.07C111.5,-37.24 120.23,-38.46 128.79,-39.66"/>
<polygon fill="midnightblue" stroke="midnightblue" points="128.33,-43.13 138.72,-41.05 129.3,-36.2 128.33,-43.13"/>
</g>
<!-- Node3 -->
<g id="node3" class="node">
<title>Node3</title>
<g id="a_node3"><a xlink:href="resource-utilizer-pinned_8cpp.html#a9753a5a759fde7aa68547b65ef7a1135" target="_top" xlink:title=" ">
<polygon fill="white" stroke="black" points="145,-0.5 145,-19.5 234,-19.5 234,-0.5 145,-0.5"/>
<text text-anchor="middle" x="189.5" y="-7.5" font-family="Helvetica,sans-Serif" font-size="10.00">stopRequested</text>
</a>
</g>
</g>
<!-- Node1&#45;&gt;Node3 -->
<g id="edge2" class="edge">
<title>Node1&#45;&gt;Node3</title>
<path fill="none" stroke="midnightblue" d="M103.14,-21.93C113.45,-20.48 124.33,-18.97 134.74,-17.51"/>
<polygon fill="midnightblue" stroke="midnightblue" points="135.54,-20.93 144.96,-16.08 134.57,-14 135.54,-20.93"/>
</g>
</g>
</svg>
