<?xml version="1.0" encoding="UTF-8" standalone="no"?>
<!DOCTYPE svg PUBLIC "-//W3C//DTD SVG 1.1//EN"
 "http://www.w3.org/Graphics/SVG/1.1/DTD/svg11.dtd">
<!-- Generated by graphviz version 2.43.0 (0)
 -->
<!-- Title: mc_orchestrator/json&#45;3.7.3/test/thirdparty/Fuzzer/test/SignedIntOverflowTest.cpp Pages: 1 -->
<svg width="417pt" height="117pt"
 viewBox="0.00 0.00 417.00 117.00" xmlns="http://www.w3.org/2000/svg" xmlns:xlink="http://www.w3.org/1999/xlink">
<g id="graph0" class="graph" transform="scale(1 1) rotate(0) translate(4 113)">
<title>mc_orchestrator/json&#45;3.7.3/test/thirdparty/Fuzzer/test/SignedIntOverflowTest.cpp</title>
<polygon fill="white" stroke="transparent" points="-4,4 -4,-113 413,-113 413,4 -4,4"/>
<!-- Node1 -->
<g id="node1" class="node">
<title>Node1</title>
<g id="a_node1"><a xlink:title=" ">
<polygon fill="#bfbfbf" stroke="black" points="118,-56.5 118,-108.5 284,-108.5 284,-56.5 118,-56.5"/>
<text text-anchor="start" x="126" y="-96.5" font-family="Helvetica,sans-Serif" font-size="10.00">mc_orchestrator/json</text>
<text text-anchor="start" x="126" y="-85.5" font-family="Helvetica,sans-Serif" font-size="10.00">&#45;3.7.3/test/thirdparty</text>
<text text-anchor="start" x="126" y="-74.5" font-family="Helvetica,sans-Serif" font-size="10.00">/Fuzzer/test/SignedIntOverflow</text>
<text text-anchor="middle" x="201" y="-63.5" font-family="Helvetica,sans-Serif" font-size="10.00">Test.cpp</text>
</a>
</g>
</g>
<!-- Node2 -->
<g id="node2" class="node">
<title>Node2</title>
<g id="a_node2"><a xlink:title=" ">
<polygon fill="white" stroke="#bfbfbf" points="0,-0.5 0,-19.5 56,-19.5 56,-0.5 0,-0.5"/>
<text text-anchor="middle" x="28" y="-7.5" font-family="Helvetica,sans-Serif" font-size="10.00">assert.h</text>
</a>
</g>
</g>
<!-- Node1&#45;&gt;Node2 -->
<g id="edge1" class="edge">
<title>Node1&#45;&gt;Node2</title>
<path fill="none" stroke="midnightblue" d="M139.52,-56.45C111.94,-45.21 80.65,-32.45 58.24,-23.33"/>
<polygon fill="midnightblue" stroke="midnightblue" points="59.51,-20.06 48.92,-19.53 56.86,-26.54 59.51,-20.06"/>
</g>
<!-- Node3 -->
<g id="node3" class="node">
<title>Node3</title>
<g id="a_node3"><a xlink:title=" ">
<polygon fill="white" stroke="#bfbfbf" points="74,-0.5 74,-19.5 124,-19.5 124,-0.5 74,-0.5"/>
<text text-anchor="middle" x="99" y="-7.5" font-family="Helvetica,sans-Serif" font-size="10.00">cstdint</text>
</a>
</g>
</g>
<!-- Node1&#45;&gt;Node3 -->
<g id="edge2" class="edge">
<title>Node1&#45;&gt;Node3</title>
<path fill="none" stroke="midnightblue" d="M164.75,-56.45C149.82,-46.13 133.05,-34.53 120.18,-25.64"/>
<polygon fill="midnightblue" stroke="midnightblue" points="121.8,-22.5 111.58,-19.7 117.82,-28.26 121.8,-22.5"/>
</g>
<!-- Node4 -->
<g id="node4" class="node">
<title>Node4</title>
<g id="a_node4"><a xlink:title=" ">
<polygon fill="white" stroke="#bfbfbf" points="142.5,-0.5 142.5,-19.5 191.5,-19.5 191.5,-0.5 142.5,-0.5"/>
<text text-anchor="middle" x="167" y="-7.5" font-family="Helvetica,sans-Serif" font-size="10.00">cstdlib</text>
</a>
</g>
</g>
<!-- Node1&#45;&gt;Node4 -->
<g id="edge3" class="edge">
<title>Node1&#45;&gt;Node4</title>
<path fill="none" stroke="midnightblue" d="M188.92,-56.45C184.52,-47.33 179.64,-37.22 175.61,-28.85"/>
<polygon fill="midnightblue" stroke="midnightblue" points="178.69,-27.18 171.19,-19.7 172.39,-30.22 178.69,-27.18"/>
</g>
<!-- Node5 -->
<g id="node5" class="node">
<title>Node5</title>
<g id="a_node5"><a xlink:title=" ">
<polygon fill="white" stroke="#bfbfbf" points="209.5,-0.5 209.5,-19.5 262.5,-19.5 262.5,-0.5 209.5,-0.5"/>
<text text-anchor="middle" x="236" y="-7.5" font-family="Helvetica,sans-Serif" font-size="10.00">cstddef</text>
</a>
</g>
</g>
<!-- Node1&#45;&gt;Node5 -->
<g id="edge4" class="edge">
<title>Node1&#45;&gt;Node5</title>
<path fill="none" stroke="midnightblue" d="M213.44,-56.45C217.96,-47.33 222.98,-37.22 227.14,-28.85"/>
<polygon fill="midnightblue" stroke="midnightblue" points="230.37,-30.21 231.68,-19.7 224.1,-27.1 230.37,-30.21"/>
</g>
<!-- Node6 -->
<g id="node6" class="node">
<title>Node6</title>
<g id="a_node6"><a xlink:title=" ">
<polygon fill="white" stroke="#bfbfbf" points="281,-0.5 281,-19.5 341,-19.5 341,-0.5 281,-0.5"/>
<text text-anchor="middle" x="311" y="-7.5" font-family="Helvetica,sans-Serif" font-size="10.00">iostream</text>
</a>
</g>
</g>
<!-- Node1&#45;&gt;Node6 -->
<g id="edge5" class="edge">
<title>Node1&#45;&gt;Node6</title>
<path fill="none" stroke="midnightblue" d="M240.09,-56.45C256.61,-45.86 275.21,-33.94 289.22,-24.96"/>
<polygon fill="midnightblue" stroke="midnightblue" points="291.16,-27.87 297.7,-19.53 287.39,-21.98 291.16,-27.87"/>
</g>
<!-- Node7 -->
<g id="node7" class="node">
<title>Node7</title>
<g id="a_node7"><a xlink:title=" ">
<polygon fill="white" stroke="#bfbfbf" points="359,-0.5 359,-19.5 409,-19.5 409,-0.5 359,-0.5"/>
<text text-anchor="middle" x="384" y="-7.5" font-family="Helvetica,sans-Serif" font-size="10.00">climits</text>
</a>
</g>
</g>
<!-- Node1&#45;&gt;Node7 -->
<g id="edge6" class="edge">
<title>Node1&#45;&gt;Node7</title>
<path fill="none" stroke="midnightblue" d="M266.03,-56.45C295.34,-45.16 328.61,-32.34 352.33,-23.2"/>
<polygon fill="midnightblue" stroke="midnightblue" points="353.79,-26.39 361.87,-19.53 351.28,-19.86 353.79,-26.39"/>
</g>
</g>
</svg>
