<?xml version="1.0" encoding="UTF-8" standalone="no"?>
<!DOCTYPE svg PUBLIC "-//W3C//DTD SVG 1.1//EN"
 "http://www.w3.org/Graphics/SVG/1.1/DTD/svg11.dtd">
<!-- Generated by graphviz version 2.43.0 (0)
 -->
<!-- Title: mc_orchestrator/json&#45;3.7.3/benchmarks/thirdparty/benchmark/src/statistics.h Pages: 1 -->
<svg width="586pt" height="162pt"
 viewBox="0.00 0.00 585.50 162.00" xmlns="http://www.w3.org/2000/svg" xmlns:xlink="http://www.w3.org/1999/xlink">
<g id="graph0" class="graph" transform="scale(1 1) rotate(0) translate(4 158)">
<title>mc_orchestrator/json&#45;3.7.3/benchmarks/thirdparty/benchmark/src/statistics.h</title>
<polygon fill="white" stroke="transparent" points="-4,4 -4,-158 581.5,-158 581.5,4 -4,4"/>
<!-- Node1 -->
<g id="node1" class="node">
<title>Node1</title>
<g id="a_node1"><a xlink:title=" ">
<polygon fill="#bfbfbf" stroke="black" points="89.5,-112.5 89.5,-153.5 247.5,-153.5 247.5,-112.5 89.5,-112.5"/>
<text text-anchor="start" x="97.5" y="-141.5" font-family="Helvetica,sans-Serif" font-size="10.00">mc_orchestrator/json</text>
<text text-anchor="start" x="97.5" y="-130.5" font-family="Helvetica,sans-Serif" font-size="10.00">&#45;3.7.3/benchmarks/thirdparty</text>
<text text-anchor="middle" x="168.5" y="-119.5" font-family="Helvetica,sans-Serif" font-size="10.00">/benchmark/src/statistics.h</text>
</a>
</g>
</g>
<!-- Node2 -->
<g id="node2" class="node">
<title>Node2</title>
<g id="a_node2"><a xlink:title=" ">
<polygon fill="white" stroke="#bfbfbf" points="0,-0.5 0,-19.5 47,-19.5 47,-0.5 0,-0.5"/>
<text text-anchor="middle" x="23.5" y="-7.5" font-family="Helvetica,sans-Serif" font-size="10.00">vector</text>
</a>
</g>
</g>
<!-- Node1&#45;&gt;Node2 -->
<g id="edge1" class="edge">
<title>Node1&#45;&gt;Node2</title>
<path fill="none" stroke="midnightblue" d="M144.88,-112.29C116.04,-88.22 67.89,-48.04 41.74,-26.22"/>
<polygon fill="midnightblue" stroke="midnightblue" points="43.7,-23.29 33.78,-19.57 39.21,-28.67 43.7,-23.29"/>
</g>
<!-- Node3 -->
<g id="node3" class="node">
<title>Node3</title>
<g id="a_node3"><a xlink:href="benchmark_8h.html" target="_top" xlink:title=" ">
<polygon fill="white" stroke="black" points="210.5,-56.5 210.5,-75.5 348.5,-75.5 348.5,-56.5 210.5,-56.5"/>
<text text-anchor="middle" x="279.5" y="-63.5" font-family="Helvetica,sans-Serif" font-size="10.00">benchmark/benchmark.h</text>
</a>
</g>
</g>
<!-- Node1&#45;&gt;Node3 -->
<g id="edge2" class="edge">
<title>Node1&#45;&gt;Node3</title>
<path fill="none" stroke="midnightblue" d="M201.8,-112.5C219.15,-102.34 239.96,-90.16 255.67,-80.95"/>
<polygon fill="midnightblue" stroke="midnightblue" points="257.86,-83.73 264.72,-75.65 254.33,-77.69 257.86,-83.73"/>
</g>
<!-- Node3&#45;&gt;Node2 -->
<g id="edge9" class="edge">
<title>Node3&#45;&gt;Node2</title>
<path fill="none" stroke="midnightblue" d="M231.64,-56.47C188.35,-48.52 122.66,-35.84 57.28,-20.3"/>
<polygon fill="midnightblue" stroke="midnightblue" points="57.75,-16.82 47.21,-17.89 56.12,-23.62 57.75,-16.82"/>
</g>
<!-- Node4 -->
<g id="node4" class="node">
<title>Node4</title>
<g id="a_node4"><a xlink:title=" ">
<polygon fill="white" stroke="#bfbfbf" points="65,-0.5 65,-19.5 118,-19.5 118,-0.5 65,-0.5"/>
<text text-anchor="middle" x="91.5" y="-7.5" font-family="Helvetica,sans-Serif" font-size="10.00">stdint.h</text>
</a>
</g>
</g>
<!-- Node3&#45;&gt;Node4 -->
<g id="edge3" class="edge">
<title>Node3&#45;&gt;Node4</title>
<path fill="none" stroke="midnightblue" d="M249.71,-56.44C216.73,-46.97 163.54,-31.69 128.06,-21.5"/>
<polygon fill="midnightblue" stroke="midnightblue" points="128.69,-18.04 118.11,-18.64 126.76,-24.77 128.69,-18.04"/>
</g>
<!-- Node5 -->
<g id="node5" class="node">
<title>Node5</title>
<g id="a_node5"><a xlink:title=" ">
<polygon fill="white" stroke="#bfbfbf" points="136.5,-0.5 136.5,-19.5 200.5,-19.5 200.5,-0.5 136.5,-0.5"/>
<text text-anchor="middle" x="168.5" y="-7.5" font-family="Helvetica,sans-Serif" font-size="10.00">algorithm</text>
</a>
</g>
</g>
<!-- Node3&#45;&gt;Node5 -->
<g id="edge4" class="edge">
<title>Node3&#45;&gt;Node5</title>
<path fill="none" stroke="midnightblue" d="M261.67,-56.32C243.78,-47.62 216.02,-34.12 195.45,-24.11"/>
<polygon fill="midnightblue" stroke="midnightblue" points="196.81,-20.88 186.29,-19.65 193.75,-27.18 196.81,-20.88"/>
</g>
<!-- Node6 -->
<g id="node6" class="node">
<title>Node6</title>
<g id="a_node6"><a xlink:title=" ">
<polygon fill="white" stroke="#bfbfbf" points="218.5,-0.5 218.5,-19.5 270.5,-19.5 270.5,-0.5 218.5,-0.5"/>
<text text-anchor="middle" x="244.5" y="-7.5" font-family="Helvetica,sans-Serif" font-size="10.00">cassert</text>
</a>
</g>
</g>
<!-- Node3&#45;&gt;Node6 -->
<g id="edge5" class="edge">
<title>Node3&#45;&gt;Node6</title>
<path fill="none" stroke="midnightblue" d="M273.72,-56.08C268.83,-48.53 261.67,-37.49 255.67,-28.23"/>
<polygon fill="midnightblue" stroke="midnightblue" points="258.55,-26.24 250.17,-19.75 252.67,-30.05 258.55,-26.24"/>
</g>
<!-- Node7 -->
<g id="node7" class="node">
<title>Node7</title>
<g id="a_node7"><a xlink:title=" ">
<polygon fill="white" stroke="#bfbfbf" points="289,-0.5 289,-19.5 342,-19.5 342,-0.5 289,-0.5"/>
<text text-anchor="middle" x="315.5" y="-7.5" font-family="Helvetica,sans-Serif" font-size="10.00">cstddef</text>
</a>
</g>
</g>
<!-- Node3&#45;&gt;Node7 -->
<g id="edge6" class="edge">
<title>Node3&#45;&gt;Node7</title>
<path fill="none" stroke="midnightblue" d="M285.44,-56.08C290.48,-48.53 297.84,-37.49 304.01,-28.23"/>
<polygon fill="midnightblue" stroke="midnightblue" points="307.03,-30.01 309.67,-19.75 301.21,-26.13 307.03,-30.01"/>
</g>
<!-- Node8 -->
<g id="node8" class="node">
<title>Node8</title>
<g id="a_node8"><a xlink:title=" ">
<polygon fill="white" stroke="#bfbfbf" points="360,-0.5 360,-19.5 409,-19.5 409,-0.5 360,-0.5"/>
<text text-anchor="middle" x="384.5" y="-7.5" font-family="Helvetica,sans-Serif" font-size="10.00">iosfwd</text>
</a>
</g>
</g>
<!-- Node3&#45;&gt;Node8 -->
<g id="edge7" class="edge">
<title>Node3&#45;&gt;Node8</title>
<path fill="none" stroke="midnightblue" d="M296.37,-56.32C313.21,-47.66 339.31,-34.24 358.74,-24.25"/>
<polygon fill="midnightblue" stroke="midnightblue" points="360.38,-27.34 367.67,-19.65 357.18,-21.12 360.38,-27.34"/>
</g>
<!-- Node9 -->
<g id="node9" class="node">
<title>Node9</title>
<g id="a_node9"><a xlink:title=" ">
<polygon fill="white" stroke="#bfbfbf" points="427.5,-0.5 427.5,-19.5 471.5,-19.5 471.5,-0.5 427.5,-0.5"/>
<text text-anchor="middle" x="449.5" y="-7.5" font-family="Helvetica,sans-Serif" font-size="10.00">string</text>
</a>
</g>
</g>
<!-- Node3&#45;&gt;Node9 -->
<g id="edge8" class="edge">
<title>Node3&#45;&gt;Node9</title>
<path fill="none" stroke="midnightblue" d="M306.44,-56.44C336.6,-46.86 385.44,-31.35 417.51,-21.16"/>
<polygon fill="midnightblue" stroke="midnightblue" points="418.82,-24.42 427.29,-18.05 416.7,-17.75 418.82,-24.42"/>
</g>
<!-- Node10 -->
<g id="node10" class="node">
<title>Node10</title>
<g id="a_node10"><a xlink:title=" ">
<polygon fill="white" stroke="#bfbfbf" points="489.5,-0.5 489.5,-19.5 527.5,-19.5 527.5,-0.5 489.5,-0.5"/>
<text text-anchor="middle" x="508.5" y="-7.5" font-family="Helvetica,sans-Serif" font-size="10.00">map</text>
</a>
</g>
</g>
<!-- Node3&#45;&gt;Node10 -->
<g id="edge10" class="edge">
<title>Node3&#45;&gt;Node10</title>
<path fill="none" stroke="midnightblue" d="M322.91,-56.47C361.65,-48.59 420.1,-36.05 479.38,-20.12"/>
<polygon fill="midnightblue" stroke="midnightblue" points="480.56,-23.43 489.29,-17.43 478.72,-16.67 480.56,-23.43"/>
</g>
<!-- Node11 -->
<g id="node11" class="node">
<title>Node11</title>
<g id="a_node11"><a xlink:title=" ">
<polygon fill="white" stroke="#bfbfbf" points="545.5,-0.5 545.5,-19.5 577.5,-19.5 577.5,-0.5 545.5,-0.5"/>
<text text-anchor="middle" x="561.5" y="-7.5" font-family="Helvetica,sans-Serif" font-size="10.00">set</text>
</a>
</g>
</g>
<!-- Node3&#45;&gt;Node11 -->
<g id="edge11" class="edge">
<title>Node3&#45;&gt;Node11</title>
<path fill="none" stroke="midnightblue" d="M346.48,-56.5C396.4,-49.42 466.29,-37.97 535.7,-19.83"/>
<polygon fill="midnightblue" stroke="midnightblue" points="536.73,-23.18 545.49,-17.22 534.93,-16.41 536.73,-23.18"/>
</g>
</g>
</svg>
