<?xml version="1.0" encoding="UTF-8" standalone="no"?>
<!DOCTYPE svg PUBLIC "-//W3C//DTD SVG 1.1//EN"
 "http://www.w3.org/Graphics/SVG/1.1/DTD/svg11.dtd">
<!-- Generated by graphviz version 2.43.0 (0)
 -->
<!-- Title: doctest::detail::has_insertion_operator&lt; T &gt; Pages: 1 -->
<svg width="171pt" height="215pt"
 viewBox="0.00 0.00 171.00 215.00" xmlns="http://www.w3.org/2000/svg" xmlns:xlink="http://www.w3.org/1999/xlink">
<g id="graph0" class="graph" transform="scale(1 1) rotate(0) translate(4 211)">
<title>doctest::detail::has_insertion_operator&lt; T &gt;</title>
<polygon fill="white" stroke="transparent" points="-4,4 -4,-211 167,-211 167,4 -4,4"/>
<!-- Node1 -->
<g id="node1" class="node">
<title>Node1</title>
<g id="a_node1"><a xlink:title=" ">
<polygon fill="#bfbfbf" stroke="black" points="11.5,-0.5 11.5,-68.5 151.5,-68.5 151.5,-0.5 11.5,-0.5"/>
<text text-anchor="start" x="19.5" y="-56.5" font-family="Helvetica,sans-Serif" font-size="10.00">doctest::detail::has</text>
<text text-anchor="middle" x="81.5" y="-45.5" font-family="Helvetica,sans-Serif" font-size="10.00">_insertion_operator&lt; T &gt;</text>
<polyline fill="none" stroke="black" points="11.5,-38.5 151.5,-38.5 "/>
<text text-anchor="middle" x="81.5" y="-26.5" font-family="Helvetica,sans-Serif" font-size="10.00"> </text>
<polyline fill="none" stroke="black" points="11.5,-19.5 151.5,-19.5 "/>
<text text-anchor="middle" x="81.5" y="-7.5" font-family="Helvetica,sans-Serif" font-size="10.00"> </text>
</a>
</g>
</g>
<!-- Node2 -->
<g id="node2" class="node">
<title>Node2</title>
<g id="a_node2"><a xlink:href="structdoctest_1_1detail_1_1has__insertion__operator__impl_1_1has__insertion__operator.html" target="_top" xlink:title=" ">
<polygon fill="white" stroke="black" points="0,-105.5 0,-206.5 163,-206.5 163,-105.5 0,-105.5"/>
<text text-anchor="start" x="8" y="-194.5" font-family="Helvetica,sans-Serif" font-size="10.00">doctest::detail::has</text>
<text text-anchor="start" x="8" y="-183.5" font-family="Helvetica,sans-Serif" font-size="10.00">_insertion_operator_impl</text>
<text text-anchor="middle" x="81.5" y="-172.5" font-family="Helvetica,sans-Serif" font-size="10.00">::has_insertion_operator&lt; T &gt;</text>
<polyline fill="none" stroke="black" points="0,-165.5 163,-165.5 "/>
<text text-anchor="start" x="8" y="-153.5" font-family="Helvetica,sans-Serif" font-size="10.00">+ s</text>
<text text-anchor="start" x="8" y="-142.5" font-family="Helvetica,sans-Serif" font-size="10.00">+ t</text>
<text text-anchor="start" x="8" y="-131.5" font-family="Helvetica,sans-Serif" font-size="10.00">+ value</text>
<polyline fill="none" stroke="black" points="0,-124.5 163,-124.5 "/>
<text text-anchor="middle" x="81.5" y="-112.5" font-family="Helvetica,sans-Serif" font-size="10.00"> </text>
</a>
</g>
</g>
<!-- Node2&#45;&gt;Node1 -->
<g id="edge1" class="edge">
<title>Node2&#45;&gt;Node1</title>
<path fill="none" stroke="midnightblue" d="M81.5,-95.17C81.5,-86.11 81.5,-77.05 81.5,-68.83"/>
<polygon fill="none" stroke="midnightblue" points="78,-95.36 81.5,-105.36 85,-95.36 78,-95.36"/>
</g>
</g>
</svg>
