<?xml version="1.0" encoding="UTF-8" standalone="no"?>
<!DOCTYPE svg PUBLIC "-//W3C//DTD SVG 1.1//EN"
 "http://www.w3.org/Graphics/SVG/1.1/DTD/svg11.dtd">
<!-- Generated by graphviz version 2.43.0 (0)
 -->
<!-- Title: std::hash&lt; nlohmann::json &gt;::operator() Pages: 1 -->
<!--zoomable 351 -->
<svg id="main" version="1.1" xmlns="http://www.w3.org/2000/svg" xmlns:xlink="http://www.w3.org/1999/xlink" xml:space="preserve" onload="init(evt)">
<style type="text/css"><![CDATA[
.edge:hover path { stroke: red; }
.edge:hover polygon { stroke: red; fill: red; }
]]></style>
<script type="text/javascript"><![CDATA[
var edges = document.getElementsByTagName('g');
if (edges && edges.length) {
  for (var i=0;i<edges.length;i++) {
    if (edges[i].id.substr(0,4)=='edge') {
      edges[i].setAttribute('class','edge');
    }
  }
}
]]></script>
        <defs>
                <circle id="rim" cx="0" cy="0" r="7"/>
                <circle id="rim2" cx="0" cy="0" r="3.5"/>
                <g id="zoomPlus">
                        <use xlink:href="#rim" fill="#404040">
                                <set attributeName="fill" to="#808080" begin="zoomplus.mouseover" end="zoomplus.mouseout"/>
                        </use>
                        <path d="M-4,0h8M0,-4v8" fill="none" stroke="white" stroke-width="1.5" pointer-events="none"/>
                </g>
                <g id="zoomMin">
                        <use xlink:href="#rim" fill="#404040">
                                <set attributeName="fill" to="#808080" begin="zoomminus.mouseover" end="zoomminus.mouseout"/>
                        </use>
                        <path d="M-4,0h8" fill="none" stroke="white" stroke-width="1.5" pointer-events="none"/>
                </g>
                <g id="dirArrow">
                        <path fill="none" stroke="white" stroke-width="1.5" d="M0,-3.0v7 M-2.5,-0.5L0,-3.0L2.5,-0.5"/>
                </g>
               <g id="resetDef">
                       <use xlink:href="#rim2" fill="#404040">
                               <set attributeName="fill" to="#808080" begin="reset.mouseover" end="reset.mouseout"/>
                       </use>
               </g>
        </defs>

<script type="text/javascript">
var viewWidth = 1167;
var viewHeight = 351;
var sectionId = 'dynsection-1';
</script>
<script xlink:href="svgpan.js"/>
<svg id="graph" class="graph">
<g id="viewport">
<title>std::hash&lt; nlohmann::json &gt;::operator()</title>
<polygon fill="white" stroke="transparent" points="-4,4 -4,-346.62 1163,-346.62 1163,4 -4,4"/>
<!-- Node1 -->
<g id="node1" class="node">
<title>Node1</title>
<g id="a_node1"><a xlink:title="return a hash value for a JSON object">
<polygon fill="#bfbfbf" stroke="black" points="0,-183.5 0,-213.5 121,-213.5 121,-183.5 0,-183.5"/>
<text text-anchor="start" x="8" y="-201.5" font-family="Helvetica,sans-Serif" font-size="10.00">std::hash&lt; nlohmann</text>
<text text-anchor="middle" x="60.5" y="-190.5" font-family="Helvetica,sans-Serif" font-size="10.00">::json &gt;::operator()</text>
</a>
</g>
</g>
<!-- Node2 -->
<g id="node2" class="node">
<title>Node2</title>
<g id="a_node2"><a xlink:href="classnlohmann_1_1basic__json.html#a50ec80b02d0f3f51130d4abb5d1cfdc5" target="_top" xlink:title="serialization">
<polygon fill="white" stroke="black" points="157,-183.5 157,-213.5 279,-213.5 279,-183.5 157,-183.5"/>
<text text-anchor="start" x="165" y="-201.5" font-family="Helvetica,sans-Serif" font-size="10.00">nlohmann::basic_json</text>
<text text-anchor="middle" x="218" y="-190.5" font-family="Helvetica,sans-Serif" font-size="10.00">::dump</text>
</a>
</g>
</g>
<!-- Node1&#45;&gt;Node2 -->
<g id="edge1" class="edge">
<title>Node1&#45;&gt;Node2</title>
<path fill="none" stroke="midnightblue" d="M121.18,-198.5C129.61,-198.5 138.34,-198.5 146.95,-198.5"/>
<polygon fill="midnightblue" stroke="midnightblue" points="146.97,-202 156.97,-198.5 146.97,-195 146.97,-202"/>
</g>
<!-- Node3 -->
<g id="node3" class="node">
<title>Node3</title>
<g id="a_node3"><a xlink:href="classnlohmann_1_1detail_1_1serializer.html#a95460ebd1a535a543e5a0ec52e00f48b" target="_top" xlink:title="internal implementation of the serialization function">
<polygon fill="white" stroke="black" points="315,-183.5 315,-213.5 465,-213.5 465,-183.5 315,-183.5"/>
<text text-anchor="start" x="323" y="-201.5" font-family="Helvetica,sans-Serif" font-size="10.00">nlohmann::detail::serializer</text>
<text text-anchor="middle" x="390" y="-190.5" font-family="Helvetica,sans-Serif" font-size="10.00">::dump</text>
</a>
</g>
</g>
<!-- Node2&#45;&gt;Node3 -->
<g id="edge2" class="edge">
<title>Node2&#45;&gt;Node3</title>
<path fill="none" stroke="midnightblue" d="M279.41,-198.5C287.65,-198.5 296.21,-198.5 304.77,-198.5"/>
<polygon fill="midnightblue" stroke="midnightblue" points="304.79,-202 314.79,-198.5 304.79,-195 304.79,-202"/>
</g>
<!-- Node4 -->
<g id="node4" class="node">
<title>Node4</title>
<g id="a_node4"><a xlink:href="FuzzerTracePC_8cpp.html#a1f10ac78bd11294b612636121065eb5b" target="_top" xlink:title=" ">
<polygon fill="white" stroke="black" points="926,-301 926,-320 973,-320 973,-301 926,-301"/>
<text text-anchor="middle" x="949.5" y="-308" font-family="Helvetica,sans-Serif" font-size="10.00">assert</text>
</a>
</g>
</g>
<!-- Node3&#45;&gt;Node4 -->
<g id="edge3" class="edge">
<title>Node3&#45;&gt;Node4</title>
<path fill="none" stroke="midnightblue" d="M405.11,-213.74C424.68,-233.94 462.07,-269.26 501,-288.5 636.02,-355.23 687.11,-347.15 837,-332.5 863.79,-329.88 893.68,-323.81 915.77,-318.71"/>
<polygon fill="midnightblue" stroke="midnightblue" points="916.71,-322.08 925.63,-316.37 915.09,-315.27 916.71,-322.08"/>
</g>
<!-- Node5 -->
<g id="node5" class="node">
<title>Node5</title>
<g id="a_node5"><a xlink:href="classnlohmann_1_1detail_1_1serializer.html#ac1f8d1165b44149bd8be397dce68ea05" target="_top" xlink:title="dump escaped string">
<polygon fill="white" stroke="black" points="501,-142.5 501,-172.5 651,-172.5 651,-142.5 501,-142.5"/>
<text text-anchor="start" x="509" y="-160.5" font-family="Helvetica,sans-Serif" font-size="10.00">nlohmann::detail::serializer</text>
<text text-anchor="middle" x="576" y="-149.5" font-family="Helvetica,sans-Serif" font-size="10.00">::dump_escaped</text>
</a>
</g>
</g>
<!-- Node3&#45;&gt;Node5 -->
<g id="edge4" class="edge">
<title>Node3&#45;&gt;Node5</title>
<path fill="none" stroke="midnightblue" d="M458.47,-183.47C471.22,-180.62 484.65,-177.63 497.67,-174.73"/>
<polygon fill="midnightblue" stroke="midnightblue" points="498.54,-178.12 507.54,-172.53 497.02,-171.29 498.54,-178.12"/>
</g>
<!-- Node12 -->
<g id="node12" class="node">
<title>Node12</title>
<g id="a_node12"><a xlink:href="classnlohmann_1_1detail_1_1serializer.html#a6d652a3bfa581cf1cd7790d6d11ea52f" target="_top" xlink:title="dump a floating&#45;point number">
<polygon fill="white" stroke="black" points="501,-93.5 501,-123.5 651,-123.5 651,-93.5 501,-93.5"/>
<text text-anchor="start" x="509" y="-111.5" font-family="Helvetica,sans-Serif" font-size="10.00">nlohmann::detail::serializer</text>
<text text-anchor="middle" x="576" y="-100.5" font-family="Helvetica,sans-Serif" font-size="10.00">::dump_float</text>
</a>
</g>
</g>
<!-- Node3&#45;&gt;Node12 -->
<g id="edge13" class="edge">
<title>Node3&#45;&gt;Node12</title>
<path fill="none" stroke="midnightblue" d="M412.94,-183.3C434.58,-168.8 468.97,-147.07 501,-132.5 505.12,-130.62 509.43,-128.83 513.81,-127.12"/>
<polygon fill="midnightblue" stroke="midnightblue" points="515.31,-130.3 523.47,-123.54 512.88,-123.74 515.31,-130.3"/>
</g>
<!-- Node13 -->
<g id="node13" class="node">
<title>Node13</title>
<g id="a_node13"><a xlink:href="classnlohmann_1_1detail_1_1serializer.html#a944f6dea8dbe2961da145d2f62fa2c2f" target="_top" xlink:title="dump an integer">
<polygon fill="white" stroke="black" points="501,-248.5 501,-278.5 651,-278.5 651,-248.5 501,-248.5"/>
<text text-anchor="start" x="509" y="-266.5" font-family="Helvetica,sans-Serif" font-size="10.00">nlohmann::detail::serializer</text>
<text text-anchor="middle" x="576" y="-255.5" font-family="Helvetica,sans-Serif" font-size="10.00">::dump_integer</text>
</a>
</g>
</g>
<!-- Node3&#45;&gt;Node13 -->
<g id="edge14" class="edge">
<title>Node3&#45;&gt;Node13</title>
<path fill="none" stroke="midnightblue" d="M433.68,-213.58C460.17,-222.94 494.42,-235.03 522.56,-244.97"/>
<polygon fill="midnightblue" stroke="midnightblue" points="521.64,-248.36 532.24,-248.39 523.97,-241.76 521.64,-248.36"/>
</g>
<!-- Node5&#45;&gt;Node4 -->
<g id="edge5" class="edge">
<title>Node5&#45;&gt;Node4</title>
<path fill="none" stroke="midnightblue" d="M651.19,-169.94C716.09,-181.56 804.87,-199.48 837,-215.5 876.55,-235.22 913.79,-271.95 933.63,-293.51"/>
<polygon fill="midnightblue" stroke="midnightblue" points="931.05,-295.87 940.35,-300.96 936.25,-291.19 931.05,-295.87"/>
</g>
<!-- Node6 -->
<g id="node6" class="node">
<title>Node6</title>
<g id="a_node6"><a xlink:href="classnlohmann_1_1detail_1_1type__error.html#aecc083aea4b698c33d042670ba50c10f" target="_top" xlink:title=" ">
<polygon fill="white" stroke="black" points="698.5,-98.5 698.5,-128.5 825.5,-128.5 825.5,-98.5 698.5,-98.5"/>
<text text-anchor="start" x="706.5" y="-116.5" font-family="Helvetica,sans-Serif" font-size="10.00">nlohmann::detail::type</text>
<text text-anchor="middle" x="762" y="-105.5" font-family="Helvetica,sans-Serif" font-size="10.00">_error::create</text>
</a>
</g>
</g>
<!-- Node5&#45;&gt;Node6 -->
<g id="edge6" class="edge">
<title>Node5&#45;&gt;Node6</title>
<path fill="none" stroke="midnightblue" d="M639.81,-142.48C655.5,-138.73 672.45,-134.67 688.57,-130.82"/>
<polygon fill="midnightblue" stroke="midnightblue" points="689.56,-134.18 698.48,-128.45 687.94,-127.37 689.56,-134.18"/>
</g>
<!-- Node8 -->
<g id="node8" class="node">
<title>Node8</title>
<g id="a_node8"><a xlink:href="namespacehttplib.html#a498c3a79825ecbcb15c52ec5fcfd5c11" target="_top" xlink:title=" ">
<polygon fill="white" stroke="black" points="1062,-126 1062,-145 1159,-145 1159,-126 1062,-126"/>
<text text-anchor="middle" x="1110.5" y="-133" font-family="Helvetica,sans-Serif" font-size="10.00">httplib::to_string</text>
</a>
</g>
</g>
<!-- Node5&#45;&gt;Node8 -->
<g id="edge12" class="edge">
<title>Node5&#45;&gt;Node8</title>
<path fill="none" stroke="midnightblue" d="M651.04,-154.44C758.16,-150.02 954.16,-141.92 1051.49,-137.9"/>
<polygon fill="midnightblue" stroke="midnightblue" points="1051.88,-141.38 1061.72,-137.47 1051.59,-134.39 1051.88,-141.38"/>
</g>
<!-- Node10 -->
<g id="node10" class="node">
<title>Node10</title>
<g id="a_node10"><a xlink:href="classnlohmann_1_1detail_1_1serializer.html#abdcc4fd1dc5d3afb6c0817e4c89b1242" target="_top" xlink:title="check whether a string is UTF&#45;8 encoded">
<polygon fill="white" stroke="black" points="687,-49.5 687,-79.5 837,-79.5 837,-49.5 687,-49.5"/>
<text text-anchor="start" x="695" y="-67.5" font-family="Helvetica,sans-Serif" font-size="10.00">nlohmann::detail::serializer</text>
<text text-anchor="middle" x="762" y="-56.5" font-family="Helvetica,sans-Serif" font-size="10.00">::decode</text>
</a>
</g>
</g>
<!-- Node5&#45;&gt;Node10 -->
<g id="edge10" class="edge">
<title>Node5&#45;&gt;Node10</title>
<path fill="none" stroke="midnightblue" d="M632.8,-142.48C639.2,-139.66 645.42,-136.36 651,-132.5 671.78,-118.12 666.14,-102.75 687,-88.5 689.27,-86.95 691.66,-85.49 694.11,-84.12"/>
<polygon fill="midnightblue" stroke="midnightblue" points="695.89,-87.14 703.28,-79.55 692.77,-80.88 695.89,-87.14"/>
</g>
<!-- Node11 -->
<g id="node11" class="node">
<title>Node11</title>
<g id="a_node11"><a xlink:href="classnlohmann_1_1detail_1_1binary__writer.html#ab77aa48692bd4e64e4f051ce6aeb6d2d" target="_top" xlink:title=" ">
<polygon fill="white" stroke="black" points="694,-0.5 694,-30.5 830,-30.5 830,-0.5 694,-0.5"/>
<text text-anchor="start" x="702" y="-18.5" font-family="Helvetica,sans-Serif" font-size="10.00">nlohmann::detail::binary</text>
<text text-anchor="middle" x="762" y="-7.5" font-family="Helvetica,sans-Serif" font-size="10.00">_writer::to_char_type</text>
</a>
</g>
</g>
<!-- Node5&#45;&gt;Node11 -->
<g id="edge11" class="edge">
<title>Node5&#45;&gt;Node11</title>
<path fill="none" stroke="midnightblue" d="M637.42,-142.35C642.36,-139.6 646.98,-136.34 651,-132.5 683.02,-101.85 654.8,-69.96 687,-39.5 688.13,-38.43 689.32,-37.4 690.54,-36.42"/>
<polygon fill="midnightblue" stroke="midnightblue" points="692.83,-39.1 699.16,-30.6 688.92,-33.3 692.83,-39.1"/>
</g>
<!-- Node7 -->
<g id="node7" class="node">
<title>Node7</title>
<g id="a_node7"><a xlink:href="classnlohmann_1_1detail_1_1exception.html#abf41a7e9178356314082284e6cfea278" target="_top" xlink:title=" ">
<polygon fill="white" stroke="black" points="873,-98.5 873,-128.5 1026,-128.5 1026,-98.5 873,-98.5"/>
<text text-anchor="start" x="881" y="-116.5" font-family="Helvetica,sans-Serif" font-size="10.00">nlohmann::detail::exception</text>
<text text-anchor="middle" x="949.5" y="-105.5" font-family="Helvetica,sans-Serif" font-size="10.00">::name</text>
</a>
</g>
</g>
<!-- Node6&#45;&gt;Node7 -->
<g id="edge7" class="edge">
<title>Node6&#45;&gt;Node7</title>
<path fill="none" stroke="midnightblue" d="M825.54,-113.5C837.38,-113.5 849.95,-113.5 862.36,-113.5"/>
<polygon fill="midnightblue" stroke="midnightblue" points="862.72,-117 872.72,-113.5 862.72,-110 862.72,-117"/>
</g>
<!-- Node9 -->
<g id="node9" class="node">
<title>Node9</title>
<g id="a_node9"><a xlink:href="classnlohmann_1_1detail_1_1type__error.html#aa01edaa0bf18b853368f0b900e485cd7" target="_top" xlink:title=" ">
<polygon fill="white" stroke="black" points="886,-49.5 886,-79.5 1013,-79.5 1013,-49.5 886,-49.5"/>
<text text-anchor="start" x="894" y="-67.5" font-family="Helvetica,sans-Serif" font-size="10.00">nlohmann::detail::type</text>
<text text-anchor="middle" x="949.5" y="-56.5" font-family="Helvetica,sans-Serif" font-size="10.00">_error::type_error</text>
</a>
</g>
</g>
<!-- Node6&#45;&gt;Node9 -->
<g id="edge9" class="edge">
<title>Node6&#45;&gt;Node9</title>
<path fill="none" stroke="midnightblue" d="M819.92,-98.47C839.5,-93.29 861.61,-87.45 881.9,-82.09"/>
<polygon fill="midnightblue" stroke="midnightblue" points="882.92,-85.44 891.69,-79.51 881.13,-78.68 882.92,-85.44"/>
</g>
<!-- Node7&#45;&gt;Node8 -->
<g id="edge8" class="edge">
<title>Node7&#45;&gt;Node8</title>
<path fill="none" stroke="midnightblue" d="M1026.27,-123.98C1034.92,-125.18 1043.62,-126.38 1051.97,-127.54"/>
<polygon fill="midnightblue" stroke="midnightblue" points="1051.57,-131.02 1061.96,-128.92 1052.53,-124.08 1051.57,-131.02"/>
</g>
<!-- Node13&#45;&gt;Node4 -->
<g id="edge15" class="edge">
<title>Node13&#45;&gt;Node4</title>
<path fill="none" stroke="midnightblue" d="M602.14,-278.69C623.77,-290.82 656.25,-306.84 687,-313.5 767.61,-330.96 865.5,-322.13 915.55,-315.53"/>
<polygon fill="midnightblue" stroke="midnightblue" points="916.34,-318.95 925.77,-314.12 915.39,-312.02 916.34,-318.95"/>
</g>
<!-- Node14 -->
<g id="node14" class="node">
<title>Node14</title>
<g id="a_node14"><a xlink:href="classnlohmann_1_1detail_1_1serializer.html#a10692e98ea1f5a64de1d0b8e0e724b99" target="_top" xlink:title="count digits">
<polygon fill="white" stroke="black" points="687,-224.5 687,-254.5 837,-254.5 837,-224.5 687,-224.5"/>
<text text-anchor="start" x="695" y="-242.5" font-family="Helvetica,sans-Serif" font-size="10.00">nlohmann::detail::serializer</text>
<text text-anchor="middle" x="762" y="-231.5" font-family="Helvetica,sans-Serif" font-size="10.00">::count_digits</text>
</a>
</g>
</g>
<!-- Node13&#45;&gt;Node14 -->
<g id="edge16" class="edge">
<title>Node13&#45;&gt;Node14</title>
<path fill="none" stroke="midnightblue" d="M651.04,-253.84C659.51,-252.74 668.19,-251.61 676.78,-250.48"/>
<polygon fill="midnightblue" stroke="midnightblue" points="677.34,-253.94 686.81,-249.18 676.44,-247 677.34,-253.94"/>
</g>
<!-- Node15 -->
<g id="node15" class="node">
<title>Node15</title>
<g id="a_node15"><a xlink:href="classnlohmann_1_1detail_1_1serializer.html#a45bcb8ea41e4db5461e979d4b1d5e5e7" target="_top" xlink:title=" ">
<polygon fill="white" stroke="black" points="687,-273.5 687,-303.5 837,-303.5 837,-273.5 687,-273.5"/>
<text text-anchor="start" x="695" y="-291.5" font-family="Helvetica,sans-Serif" font-size="10.00">nlohmann::detail::serializer</text>
<text text-anchor="middle" x="762" y="-280.5" font-family="Helvetica,sans-Serif" font-size="10.00">::remove_sign</text>
</a>
</g>
</g>
<!-- Node13&#45;&gt;Node15 -->
<g id="edge17" class="edge">
<title>Node13&#45;&gt;Node15</title>
<path fill="none" stroke="midnightblue" d="M651.04,-273.56C659.51,-274.71 668.19,-275.89 676.78,-277.06"/>
<polygon fill="midnightblue" stroke="midnightblue" points="676.43,-280.54 686.81,-278.42 677.37,-273.6 676.43,-280.54"/>
</g>
<!-- Node15&#45;&gt;Node4 -->
<g id="edge18" class="edge">
<title>Node15&#45;&gt;Node4</title>
<path fill="none" stroke="midnightblue" d="M837.11,-297.29C864.35,-300.52 893.81,-304.01 915.59,-306.6"/>
<polygon fill="midnightblue" stroke="midnightblue" points="915.28,-310.09 925.63,-307.79 916.11,-303.13 915.28,-310.09"/>
</g>
</g>
</svg>
        <g id="navigator" transform="translate(0 0)" fill="#404254">
                <rect fill="#f2f5e9" fill-opacity="0.5" stroke="#606060" stroke-width=".5" x="0" y="0" width="60" height="60"/>
                <use id="zoomplus" xlink:href="#zoomPlus" x="17" y="9" onmousedown="handleZoom(evt,'in')"/>
                <use id="zoomminus" xlink:href="#zoomMin" x="42" y="9" onmousedown="handleZoom(evt,'out')"/>
                <use id="reset" xlink:href="#resetDef" x="30" y="36" onmousedown="handleReset()"/>
                <g id="arrowUp" xlink:href="#dirArrow" transform="translate(30 24)" onmousedown="handlePan(0,-1)">
                  <use xlink:href="#rim" fill="#404040">
                        <set attributeName="fill" to="#808080" begin="arrowUp.mouseover" end="arrowUp.mouseout"/>
                  </use>
                  <path fill="none" stroke="white" stroke-width="1.5" d="M0,-3.0v7 M-2.5,-0.5L0,-3.0L2.5,-0.5"/>
                </g>
                <g id="arrowRight" xlink:href="#dirArrow" transform="rotate(90) translate(36 -43)" onmousedown="handlePan(1,0)">
                  <use xlink:href="#rim" fill="#404040">
                        <set attributeName="fill" to="#808080" begin="arrowRight.mouseover" end="arrowRight.mouseout"/>
                  </use>
                  <path fill="none" stroke="white" stroke-width="1.5" d="M0,-3.0v7 M-2.5,-0.5L0,-3.0L2.5,-0.5"/>
                </g>
                <g id="arrowDown" xlink:href="#dirArrow" transform="rotate(180) translate(-30 -48)" onmousedown="handlePan(0,1)">
                  <use xlink:href="#rim" fill="#404040">
                        <set attributeName="fill" to="#808080" begin="arrowDown.mouseover" end="arrowDown.mouseout"/>
                  </use>
                  <path fill="none" stroke="white" stroke-width="1.5" d="M0,-3.0v7 M-2.5,-0.5L0,-3.0L2.5,-0.5"/>
                </g>
                <g id="arrowLeft" xlink:href="#dirArrow" transform="rotate(270) translate(-36 17)" onmousedown="handlePan(-1,0)">
                  <use xlink:href="#rim" fill="#404040">
                        <set attributeName="fill" to="#808080" begin="arrowLeft.mouseover" end="arrowLeft.mouseout"/>
                  </use>
                  <path fill="none" stroke="white" stroke-width="1.5" d="M0,-3.0v7 M-2.5,-0.5L0,-3.0L2.5,-0.5"/>
                </g>
        </g>
        <svg viewBox="0 0 15 15" width="100%" height="30px" preserveAspectRatio="xMaxYMin meet">
         <g id="arrow_out" transform="scale(0.3 0.3)">
          <a xlink:href="structstd_1_1hash_3_01nlohmann_1_1json_01_4_aec1567d1fa47dbe5b77954dce3a55b64_cgraph_org.svg" target="_base">
           <rect id="button" ry="5" rx="5" y="6" x="6" height="38" width="38"
                fill="#f2f5e9" fill-opacity="0.5" stroke="#606060" stroke-width="1.0"/>
           <path id="arrow"
             d="M 11.500037,31.436501 C 11.940474,20.09759 22.043105,11.32322 32.158766,21.979434 L 37.068811,17.246167 C 37.068811,17.246167 37.088388,32 37.088388,32 L 22.160133,31.978069 C 22.160133,31.978069 26.997745,27.140456 26.997745,27.140456 C 18.528582,18.264221 13.291696,25.230495 11.500037,31.436501 z"
             style="fill:#404040;"/>
          </a>
         </g>
        </svg>
</svg>
