<?xml version="1.0" encoding="UTF-8" standalone="no"?>
<!DOCTYPE svg PUBLIC "-//W3C//DTD SVG 1.1//EN"
 "http://www.w3.org/Graphics/SVG/1.1/DTD/svg11.dtd">
<!-- Generated by graphviz version 2.43.0 (0)
 -->
<!-- Title: udt::contact Pages: 1 -->
<!--zoomable 556 -->
<svg id="main" version="1.1" xmlns="http://www.w3.org/2000/svg" xmlns:xlink="http://www.w3.org/1999/xlink" xml:space="preserve" onload="init(evt)">
<style type="text/css"><![CDATA[
.edge:hover path { stroke: red; }
.edge:hover polygon { stroke: red; fill: red; }
]]></style>
<script type="text/javascript"><![CDATA[
var edges = document.getElementsByTagName('g');
if (edges && edges.length) {
  for (var i=0;i<edges.length;i++) {
    if (edges[i].id.substr(0,4)=='edge') {
      edges[i].setAttribute('class','edge');
    }
  }
}
]]></script>
        <defs>
                <circle id="rim" cx="0" cy="0" r="7"/>
                <circle id="rim2" cx="0" cy="0" r="3.5"/>
                <g id="zoomPlus">
                        <use xlink:href="#rim" fill="#404040">
                                <set attributeName="fill" to="#808080" begin="zoomplus.mouseover" end="zoomplus.mouseout"/>
                        </use>
                        <path d="M-4,0h8M0,-4v8" fill="none" stroke="white" stroke-width="1.5" pointer-events="none"/>
                </g>
                <g id="zoomMin">
                        <use xlink:href="#rim" fill="#404040">
                                <set attributeName="fill" to="#808080" begin="zoomminus.mouseover" end="zoomminus.mouseout"/>
                        </use>
                        <path d="M-4,0h8" fill="none" stroke="white" stroke-width="1.5" pointer-events="none"/>
                </g>
                <g id="dirArrow">
                        <path fill="none" stroke="white" stroke-width="1.5" d="M0,-3.0v7 M-2.5,-0.5L0,-3.0L2.5,-0.5"/>
                </g>
               <g id="resetDef">
                       <use xlink:href="#rim2" fill="#404040">
                               <set attributeName="fill" to="#808080" begin="reset.mouseover" end="reset.mouseout"/>
                       </use>
               </g>
        </defs>

<script type="text/javascript">
var viewWidth = 264;
var viewHeight = 556;
var sectionId = 'dynsection-0';
</script>
<script xlink:href="svgpan.js"/>
<svg id="graph" class="graph">
<g id="viewport">
<title>udt::contact</title>
<polygon fill="white" stroke="transparent" points="-4,4 -4,-552 260,-552 260,4 -4,4"/>
<!-- Node1 -->
<g id="node1" class="node">
<title>Node1</title>
<g id="a_node1"><a xlink:title=" ">
<polygon fill="#bfbfbf" stroke="black" points="103,-0.5 103,-68.5 177,-68.5 177,-0.5 103,-0.5"/>
<text text-anchor="middle" x="140" y="-56.5" font-family="Helvetica,sans-Serif" font-size="10.00">udt::contact</text>
<polyline fill="none" stroke="black" points="103,-49.5 177,-49.5 "/>
<text text-anchor="middle" x="140" y="-37.5" font-family="Helvetica,sans-Serif" font-size="10.00"> </text>
<polyline fill="none" stroke="black" points="103,-30.5 177,-30.5 "/>
<text text-anchor="start" x="111" y="-18.5" font-family="Helvetica,sans-Serif" font-size="10.00">+ contact()</text>
<text text-anchor="start" x="111" y="-7.5" font-family="Helvetica,sans-Serif" font-size="10.00">+ contact()</text>
</a>
</g>
</g>
<!-- Node2 -->
<g id="node2" class="node">
<title>Node2</title>
<g id="a_node2"><a xlink:href="structudt_1_1person.html" target="_top" xlink:title=" ">
<polygon fill="white" stroke="black" points="57,-116.5 57,-184.5 137,-184.5 137,-116.5 57,-116.5"/>
<text text-anchor="middle" x="97" y="-172.5" font-family="Helvetica,sans-Serif" font-size="10.00">udt::person</text>
<polyline fill="none" stroke="black" points="57,-165.5 137,-165.5 "/>
<text text-anchor="start" x="65" y="-153.5" font-family="Helvetica,sans-Serif" font-size="10.00">+ m_country</text>
<polyline fill="none" stroke="black" points="57,-146.5 137,-146.5 "/>
<text text-anchor="start" x="65" y="-134.5" font-family="Helvetica,sans-Serif" font-size="10.00">+ person()</text>
<text text-anchor="start" x="65" y="-123.5" font-family="Helvetica,sans-Serif" font-size="10.00">+ person()</text>
</a>
</g>
</g>
<!-- Node2&#45;&gt;Node1 -->
<g id="edge1" class="edge">
<title>Node2&#45;&gt;Node1</title>
<path fill="none" stroke="#404040" d="M101.8,-116.49C103.76,-106.8 106.43,-96.31 110,-87 110.96,-84.49 112.04,-81.96 113.2,-79.43"/>
<polygon fill="none" stroke="#404040" points="113.3,-79.24 112.42,-72.08 118.69,-68.52 119.57,-75.68 113.3,-79.24"/>
<text text-anchor="middle" x="140" y="-90" font-family="Helvetica,sans-Serif" font-size="10.00"> +m_person</text>
</g>
<!-- Node3 -->
<g id="node3" class="node">
<title>Node3</title>
<g id="a_node3"><a xlink:href="structudt_1_1age.html" target="_top" xlink:title=" ">
<polygon fill="white" stroke="black" points="0,-279.5 0,-336.5 58,-336.5 58,-279.5 0,-279.5"/>
<text text-anchor="middle" x="29" y="-324.5" font-family="Helvetica,sans-Serif" font-size="10.00">udt::age</text>
<polyline fill="none" stroke="black" points="0,-317.5 58,-317.5 "/>
<text text-anchor="start" x="8" y="-305.5" font-family="Helvetica,sans-Serif" font-size="10.00">+ m_val</text>
<polyline fill="none" stroke="black" points="0,-298.5 58,-298.5 "/>
<text text-anchor="start" x="8" y="-286.5" font-family="Helvetica,sans-Serif" font-size="10.00">+ age()</text>
</a>
</g>
</g>
<!-- Node3&#45;&gt;Node2 -->
<g id="edge2" class="edge">
<title>Node3&#45;&gt;Node2</title>
<path fill="none" stroke="#404040" d="M27.08,-279.44C26.72,-257.57 28.87,-226.81 41,-203 43.16,-198.75 45.83,-194.68 48.82,-190.81"/>
<polygon fill="none" stroke="#404040" points="48.91,-190.71 49.83,-183.56 56.79,-181.66 55.86,-188.81 48.91,-190.71"/>
<text text-anchor="middle" x="63.5" y="-229.5" font-family="Helvetica,sans-Serif" font-size="10.00"> +m_age</text>
</g>
<!-- Node4 -->
<g id="node4" class="node">
<title>Node4</title>
<g id="a_node4"><a xlink:href="structudt_1_1name.html" target="_top" xlink:title=" ">
<polygon fill="white" stroke="black" points="79,-279.5 79,-336.5 145,-336.5 145,-279.5 79,-279.5"/>
<text text-anchor="middle" x="112" y="-324.5" font-family="Helvetica,sans-Serif" font-size="10.00">udt::name</text>
<polyline fill="none" stroke="black" points="79,-317.5 145,-317.5 "/>
<text text-anchor="middle" x="112" y="-305.5" font-family="Helvetica,sans-Serif" font-size="10.00"> </text>
<polyline fill="none" stroke="black" points="79,-298.5 145,-298.5 "/>
<text text-anchor="start" x="87" y="-286.5" font-family="Helvetica,sans-Serif" font-size="10.00">+ name()</text>
</a>
</g>
</g>
<!-- Node4&#45;&gt;Node2 -->
<g id="edge3" class="edge">
<title>Node4&#45;&gt;Node2</title>
<path fill="none" stroke="#404040" d="M99.24,-279.27C97.07,-273.36 95.14,-267.07 94,-261 90.08,-240.21 90.13,-216.8 91.45,-196.98"/>
<polygon fill="none" stroke="#404040" points="91.46,-196.82 87.96,-190.51 92.43,-184.85 95.93,-191.16 91.46,-196.82"/>
<text text-anchor="middle" x="121.5" y="-229.5" font-family="Helvetica,sans-Serif" font-size="10.00"> +m_name</text>
</g>
<!-- Node5 -->
<g id="node5" class="node">
<title>Node5</title>
<g id="a_node5"><a xlink:title="STL class.">
<polygon fill="white" stroke="#bfbfbf" points="122.5,-384.5 122.5,-441.5 187.5,-441.5 187.5,-384.5 122.5,-384.5"/>
<text text-anchor="middle" x="155" y="-429.5" font-family="Helvetica,sans-Serif" font-size="10.00">std::string</text>
<polyline fill="none" stroke="#bfbfbf" points="122.5,-422.5 187.5,-422.5 "/>
<text text-anchor="middle" x="155" y="-410.5" font-family="Helvetica,sans-Serif" font-size="10.00"> </text>
<polyline fill="none" stroke="#bfbfbf" points="122.5,-403.5 187.5,-403.5 "/>
<text text-anchor="middle" x="155" y="-391.5" font-family="Helvetica,sans-Serif" font-size="10.00"> </text>
</a>
</g>
</g>
<!-- Node5&#45;&gt;Node4 -->
<g id="edge4" class="edge">
<title>Node5&#45;&gt;Node4</title>
<path fill="none" stroke="#404040" d="M138.02,-384.29C134.77,-378.38 131.59,-372.08 129,-366 126.65,-360.47 124.49,-354.51 122.55,-348.6"/>
<polygon fill="none" stroke="#404040" points="122.42,-348.17 116.84,-343.6 118.91,-336.69 124.49,-341.26 122.42,-348.17"/>
<text text-anchor="middle" x="150" y="-358" font-family="Helvetica,sans-Serif" font-size="10.00"> +m_val</text>
</g>
<!-- Node7 -->
<g id="node7" class="node">
<title>Node7</title>
<g id="a_node7"><a xlink:href="structudt_1_1address.html" target="_top" xlink:title=" ">
<polygon fill="white" stroke="black" points="157.5,-203.5 157.5,-260.5 234.5,-260.5 234.5,-203.5 157.5,-203.5"/>
<text text-anchor="middle" x="196" y="-248.5" font-family="Helvetica,sans-Serif" font-size="10.00">udt::address</text>
<polyline fill="none" stroke="black" points="157.5,-241.5 234.5,-241.5 "/>
<text text-anchor="middle" x="196" y="-229.5" font-family="Helvetica,sans-Serif" font-size="10.00"> </text>
<polyline fill="none" stroke="black" points="157.5,-222.5 234.5,-222.5 "/>
<text text-anchor="start" x="165.5" y="-210.5" font-family="Helvetica,sans-Serif" font-size="10.00">+ address()</text>
</a>
</g>
</g>
<!-- Node5&#45;&gt;Node7 -->
<g id="edge7" class="edge">
<title>Node5&#45;&gt;Node7</title>
<path fill="none" stroke="#404040" d="M165.32,-384.48C167.37,-378.44 169.39,-372.05 171,-366 179.27,-334.93 185.84,-299.08 190.17,-272.43"/>
<polygon fill="none" stroke="#404040" points="190.18,-272.37 187.17,-265.82 192.05,-260.52 195.07,-267.07 190.18,-272.37"/>
<text text-anchor="middle" x="194" y="-358" font-family="Helvetica,sans-Serif" font-size="10.00"> +m_val</text>
</g>
<!-- Node6 -->
<g id="node6" class="node">
<title>Node6</title>
<g id="a_node6"><a xlink:title="STL class.">
<polygon fill="white" stroke="#bfbfbf" points="103,-479.5 103,-547.5 207,-547.5 207,-479.5 103,-479.5"/>
<text text-anchor="start" x="111" y="-535.5" font-family="Helvetica,sans-Serif" font-size="10.00">std::basic_string&lt;</text>
<text text-anchor="middle" x="155" y="-524.5" font-family="Helvetica,sans-Serif" font-size="10.00"> char &gt;</text>
<polyline fill="none" stroke="#bfbfbf" points="103,-517.5 207,-517.5 "/>
<text text-anchor="middle" x="155" y="-505.5" font-family="Helvetica,sans-Serif" font-size="10.00"> </text>
<polyline fill="none" stroke="#bfbfbf" points="103,-498.5 207,-498.5 "/>
<text text-anchor="middle" x="155" y="-486.5" font-family="Helvetica,sans-Serif" font-size="10.00"> </text>
</a>
</g>
</g>
<!-- Node6&#45;&gt;Node5 -->
<g id="edge5" class="edge">
<title>Node6&#45;&gt;Node5</title>
<path fill="none" stroke="midnightblue" d="M155,-469.38C155,-459.94 155,-450.2 155,-441.57"/>
<polygon fill="none" stroke="midnightblue" points="151.5,-469.43 155,-479.43 158.5,-469.43 151.5,-469.43"/>
</g>
<!-- Node7&#45;&gt;Node1 -->
<g id="edge6" class="edge">
<title>Node7&#45;&gt;Node1</title>
<path fill="none" stroke="#404040" d="M193.89,-203.45C190.98,-173.9 184.36,-125.97 170,-87 169.08,-84.52 168.05,-82.01 166.94,-79.52"/>
<polygon fill="none" stroke="#404040" points="166.93,-79.5 160.68,-75.9 161.6,-68.75 167.85,-72.35 166.93,-79.5"/>
<text text-anchor="middle" x="223.5" y="-148" font-family="Helvetica,sans-Serif" font-size="10.00"> +m_address</text>
</g>
</g>
</svg>
        <g id="navigator" transform="translate(0 0)" fill="#404254">
                <rect fill="#f2f5e9" fill-opacity="0.5" stroke="#606060" stroke-width=".5" x="0" y="0" width="60" height="60"/>
                <use id="zoomplus" xlink:href="#zoomPlus" x="17" y="9" onmousedown="handleZoom(evt,'in')"/>
                <use id="zoomminus" xlink:href="#zoomMin" x="42" y="9" onmousedown="handleZoom(evt,'out')"/>
                <use id="reset" xlink:href="#resetDef" x="30" y="36" onmousedown="handleReset()"/>
                <g id="arrowUp" xlink:href="#dirArrow" transform="translate(30 24)" onmousedown="handlePan(0,-1)">
                  <use xlink:href="#rim" fill="#404040">
                        <set attributeName="fill" to="#808080" begin="arrowUp.mouseover" end="arrowUp.mouseout"/>
                  </use>
                  <path fill="none" stroke="white" stroke-width="1.5" d="M0,-3.0v7 M-2.5,-0.5L0,-3.0L2.5,-0.5"/>
                </g>
                <g id="arrowRight" xlink:href="#dirArrow" transform="rotate(90) translate(36 -43)" onmousedown="handlePan(1,0)">
                  <use xlink:href="#rim" fill="#404040">
                        <set attributeName="fill" to="#808080" begin="arrowRight.mouseover" end="arrowRight.mouseout"/>
                  </use>
                  <path fill="none" stroke="white" stroke-width="1.5" d="M0,-3.0v7 M-2.5,-0.5L0,-3.0L2.5,-0.5"/>
                </g>
                <g id="arrowDown" xlink:href="#dirArrow" transform="rotate(180) translate(-30 -48)" onmousedown="handlePan(0,1)">
                  <use xlink:href="#rim" fill="#404040">
                        <set attributeName="fill" to="#808080" begin="arrowDown.mouseover" end="arrowDown.mouseout"/>
                  </use>
                  <path fill="none" stroke="white" stroke-width="1.5" d="M0,-3.0v7 M-2.5,-0.5L0,-3.0L2.5,-0.5"/>
                </g>
                <g id="arrowLeft" xlink:href="#dirArrow" transform="rotate(270) translate(-36 17)" onmousedown="handlePan(-1,0)">
                  <use xlink:href="#rim" fill="#404040">
                        <set attributeName="fill" to="#808080" begin="arrowLeft.mouseover" end="arrowLeft.mouseout"/>
                  </use>
                  <path fill="none" stroke="white" stroke-width="1.5" d="M0,-3.0v7 M-2.5,-0.5L0,-3.0L2.5,-0.5"/>
                </g>
        </g>
        <svg viewBox="0 0 15 15" width="100%" height="30px" preserveAspectRatio="xMaxYMin meet">
         <g id="arrow_out" transform="scale(0.3 0.3)">
          <a xlink:href="structudt_1_1contact__coll__graph_org.svg" target="_base">
           <rect id="button" ry="5" rx="5" y="6" x="6" height="38" width="38"
                fill="#f2f5e9" fill-opacity="0.5" stroke="#606060" stroke-width="1.0"/>
           <path id="arrow"
             d="M 11.500037,31.436501 C 11.940474,20.09759 22.043105,11.32322 32.158766,21.979434 L 37.068811,17.246167 C 37.068811,17.246167 37.088388,32 37.088388,32 L 22.160133,31.978069 C 22.160133,31.978069 26.997745,27.140456 26.997745,27.140456 C 18.528582,18.264221 13.291696,25.230495 11.500037,31.436501 z"
             style="fill:#404040;"/>
          </a>
         </g>
        </svg>
</svg>
