<?xml version="1.0" encoding="UTF-8" standalone="no"?>
<!DOCTYPE svg PUBLIC "-//W3C//DTD SVG 1.1//EN"
 "http://www.w3.org/Graphics/SVG/1.1/DTD/svg11.dtd">
<!-- Generated by graphviz version 2.43.0 (0)
 -->
<!-- Title: fuzzer::MallocFreeTracer Pages: 1 -->
<svg width="144pt" height="193pt"
 viewBox="0.00 0.00 144.00 193.00" xmlns="http://www.w3.org/2000/svg" xmlns:xlink="http://www.w3.org/1999/xlink">
<g id="graph0" class="graph" transform="scale(1 1) rotate(0) translate(4 189)">
<title>fuzzer::MallocFreeTracer</title>
<polygon fill="white" stroke="transparent" points="-4,4 -4,-189 140,-189 140,4 -4,4"/>
<!-- Node1 -->
<g id="node1" class="node">
<title>Node1</title>
<g id="a_node1"><a xlink:title=" ">
<polygon fill="#bfbfbf" stroke="black" points="0,-0.5 0,-68.5 136,-68.5 136,-0.5 0,-0.5"/>
<text text-anchor="middle" x="68" y="-56.5" font-family="Helvetica,sans-Serif" font-size="10.00">fuzzer::MallocFreeTracer</text>
<polyline fill="none" stroke="black" points="0,-49.5 136,-49.5 "/>
<text text-anchor="start" x="8" y="-37.5" font-family="Helvetica,sans-Serif" font-size="10.00">+ TraceLevel</text>
<polyline fill="none" stroke="black" points="0,-30.5 136,-30.5 "/>
<text text-anchor="start" x="8" y="-18.5" font-family="Helvetica,sans-Serif" font-size="10.00">+ Start()</text>
<text text-anchor="start" x="8" y="-7.5" font-family="Helvetica,sans-Serif" font-size="10.00">+ Stop()</text>
</a>
</g>
</g>
<!-- Node2 -->
<g id="node2" class="node">
<title>Node2</title>
<g id="a_node2"><a xlink:title=" ">
<polygon fill="white" stroke="#bfbfbf" points="7,-127.5 7,-184.5 129,-184.5 129,-127.5 7,-127.5"/>
<text text-anchor="middle" x="68" y="-172.5" font-family="Helvetica,sans-Serif" font-size="10.00">std::atomic&lt; size_t &gt;</text>
<polyline fill="none" stroke="#bfbfbf" points="7,-165.5 129,-165.5 "/>
<text text-anchor="start" x="15" y="-153.5" font-family="Helvetica,sans-Serif" font-size="10.00">+ ptr</text>
<polyline fill="none" stroke="#bfbfbf" points="7,-146.5 129,-146.5 "/>
<text text-anchor="middle" x="68" y="-134.5" font-family="Helvetica,sans-Serif" font-size="10.00"> </text>
</a>
</g>
</g>
<!-- Node2&#45;&gt;Node1 -->
<g id="edge1" class="edge">
<title>Node2&#45;&gt;Node1</title>
<path fill="none" stroke="#404040" d="M68,-127.28C68,-113.47 68,-96.4 68,-80.75"/>
<polygon fill="none" stroke="#404040" points="68,-80.59 64,-74.59 68,-68.59 72,-74.59 68,-80.59"/>
<text text-anchor="middle" x="91" y="-101" font-family="Helvetica,sans-Serif" font-size="10.00"> +Frees</text>
<text text-anchor="middle" x="91" y="-90" font-family="Helvetica,sans-Serif" font-size="10.00">+Mallocs</text>
</g>
</g>
</svg>
