<?xml version="1.0" encoding="UTF-8" standalone="no"?>
<!DOCTYPE svg PUBLIC "-//W3C//DTD SVG 1.1//EN"
 "http://www.w3.org/Graphics/SVG/1.1/DTD/svg11.dtd">
<!-- Generated by graphviz version 2.43.0 (0)
 -->
<!-- Title: ns::foo_serializer&lt; T, typename std::enable_if&lt; !std::is_same&lt; foo, T &gt;::value &gt;::type &gt;::from_json Pages: 1 -->
<svg width="858pt" height="88pt"
 viewBox="0.00 0.00 858.00 88.00" xmlns="http://www.w3.org/2000/svg" xmlns:xlink="http://www.w3.org/1999/xlink">
<g id="graph0" class="graph" transform="scale(1 1) rotate(0) translate(4 84)">
<title>ns::foo_serializer&lt; T, typename std::enable_if&lt; !std::is_same&lt; foo, T &gt;::value &gt;::type &gt;::from_json</title>
<polygon fill="white" stroke="transparent" points="-4,4 -4,-84 854,-84 854,4 -4,4"/>
<!-- Node1 -->
<g id="node1" class="node">
<title>Node1</title>
<g id="a_node1"><a xlink:title="!!">
<polygon fill="#bfbfbf" stroke="black" points="0,-13.5 0,-65.5 175,-65.5 175,-13.5 0,-13.5"/>
<text text-anchor="start" x="8" y="-53.5" font-family="Helvetica,sans-Serif" font-size="10.00">ns::foo_serializer</text>
<text text-anchor="start" x="8" y="-42.5" font-family="Helvetica,sans-Serif" font-size="10.00">&lt; T, typename std::enable</text>
<text text-anchor="start" x="8" y="-31.5" font-family="Helvetica,sans-Serif" font-size="10.00">_if&lt; !std::is_same&lt; foo,</text>
<text text-anchor="middle" x="87.5" y="-20.5" font-family="Helvetica,sans-Serif" font-size="10.00"> T &gt;::value &gt;::type &gt;::from_json</text>
</a>
</g>
</g>
<!-- Node2 -->
<g id="node2" class="node">
<title>Node2</title>
<g id="a_node2"><a xlink:href="namespacenlohmann_1_1detail.html#a1f0395aad0fe853a4539288749d3a603" target="_top" xlink:title=" ">
<polygon fill="white" stroke="black" points="211,-30 211,-49 365,-49 365,-30 211,-30"/>
<text text-anchor="middle" x="288" y="-37" font-family="Helvetica,sans-Serif" font-size="10.00">nlohmann::detail::from_json</text>
</a>
</g>
</g>
<!-- Node1&#45;&gt;Node2 -->
<g id="edge1" class="edge">
<title>Node1&#45;&gt;Node2</title>
<path fill="none" stroke="midnightblue" d="M175.28,-39.5C183.73,-39.5 192.31,-39.5 200.76,-39.5"/>
<polygon fill="midnightblue" stroke="midnightblue" points="200.99,-43 210.99,-39.5 200.99,-36 200.99,-43"/>
</g>
<!-- Node3 -->
<g id="node3" class="node">
<title>Node3</title>
<g id="a_node3"><a xlink:href="classnlohmann_1_1detail_1_1type__error.html#aecc083aea4b698c33d042670ba50c10f" target="_top" xlink:title=" ">
<polygon fill="white" stroke="black" points="401,-24.5 401,-54.5 528,-54.5 528,-24.5 401,-24.5"/>
<text text-anchor="start" x="409" y="-42.5" font-family="Helvetica,sans-Serif" font-size="10.00">nlohmann::detail::type</text>
<text text-anchor="middle" x="464.5" y="-31.5" font-family="Helvetica,sans-Serif" font-size="10.00">_error::create</text>
</a>
</g>
</g>
<!-- Node2&#45;&gt;Node3 -->
<g id="edge2" class="edge">
<title>Node2&#45;&gt;Node3</title>
<path fill="none" stroke="midnightblue" d="M365.03,-39.5C373.52,-39.5 382.15,-39.5 390.6,-39.5"/>
<polygon fill="midnightblue" stroke="midnightblue" points="390.79,-43 400.79,-39.5 390.79,-36 390.79,-43"/>
</g>
<!-- Node4 -->
<g id="node4" class="node">
<title>Node4</title>
<g id="a_node4"><a xlink:href="classnlohmann_1_1detail_1_1exception.html#abf41a7e9178356314082284e6cfea278" target="_top" xlink:title=" ">
<polygon fill="white" stroke="black" points="564,-49.5 564,-79.5 717,-79.5 717,-49.5 564,-49.5"/>
<text text-anchor="start" x="572" y="-67.5" font-family="Helvetica,sans-Serif" font-size="10.00">nlohmann::detail::exception</text>
<text text-anchor="middle" x="640.5" y="-56.5" font-family="Helvetica,sans-Serif" font-size="10.00">::name</text>
</a>
</g>
</g>
<!-- Node3&#45;&gt;Node4 -->
<g id="edge3" class="edge">
<title>Node3&#45;&gt;Node4</title>
<path fill="none" stroke="midnightblue" d="M528.32,-48.53C536.57,-49.71 545.15,-50.94 553.7,-52.17"/>
<polygon fill="midnightblue" stroke="midnightblue" points="553.32,-55.65 563.72,-53.61 554.32,-48.73 553.32,-55.65"/>
</g>
<!-- Node6 -->
<g id="node6" class="node">
<title>Node6</title>
<g id="a_node6"><a xlink:href="classnlohmann_1_1detail_1_1type__error.html#aa01edaa0bf18b853368f0b900e485cd7" target="_top" xlink:title=" ">
<polygon fill="white" stroke="black" points="577,-0.5 577,-30.5 704,-30.5 704,-0.5 577,-0.5"/>
<text text-anchor="start" x="585" y="-18.5" font-family="Helvetica,sans-Serif" font-size="10.00">nlohmann::detail::type</text>
<text text-anchor="middle" x="640.5" y="-7.5" font-family="Helvetica,sans-Serif" font-size="10.00">_error::type_error</text>
</a>
</g>
</g>
<!-- Node3&#45;&gt;Node6 -->
<g id="edge5" class="edge">
<title>Node3&#45;&gt;Node6</title>
<path fill="none" stroke="midnightblue" d="M528.32,-30.84C540.76,-29.12 553.92,-27.3 566.67,-25.55"/>
<polygon fill="midnightblue" stroke="midnightblue" points="567.35,-28.99 576.77,-24.15 566.39,-22.05 567.35,-28.99"/>
</g>
<!-- Node5 -->
<g id="node5" class="node">
<title>Node5</title>
<g id="a_node5"><a xlink:href="namespacehttplib.html#a498c3a79825ecbcb15c52ec5fcfd5c11" target="_top" xlink:title=" ">
<polygon fill="white" stroke="black" points="753,-55 753,-74 850,-74 850,-55 753,-55"/>
<text text-anchor="middle" x="801.5" y="-62" font-family="Helvetica,sans-Serif" font-size="10.00">httplib::to_string</text>
</a>
</g>
</g>
<!-- Node4&#45;&gt;Node5 -->
<g id="edge4" class="edge">
<title>Node4&#45;&gt;Node5</title>
<path fill="none" stroke="midnightblue" d="M717.27,-64.5C725.82,-64.5 734.43,-64.5 742.7,-64.5"/>
<polygon fill="midnightblue" stroke="midnightblue" points="742.96,-68 752.96,-64.5 742.96,-61 742.96,-68"/>
</g>
</g>
</svg>
