<?xml version="1.0" encoding="UTF-8" standalone="no"?>
<!DOCTYPE svg PUBLIC "-//W3C//DTD SVG 1.1//EN"
 "http://www.w3.org/Graphics/SVG/1.1/DTD/svg11.dtd">
<!-- Generated by graphviz version 2.43.0 (0)
 -->
<!-- Title: doctest::detail::MessageBuilder Pages: 1 -->
<!--zoomable 850 -->
<svg id="main" version="1.1" xmlns="http://www.w3.org/2000/svg" xmlns:xlink="http://www.w3.org/1999/xlink" xml:space="preserve" onload="init(evt)">
<style type="text/css"><![CDATA[
.edge:hover path { stroke: red; }
.edge:hover polygon { stroke: red; fill: red; }
]]></style>
<script type="text/javascript"><![CDATA[
var edges = document.getElementsByTagName('g');
if (edges && edges.length) {
  for (var i=0;i<edges.length;i++) {
    if (edges[i].id.substr(0,4)=='edge') {
      edges[i].setAttribute('class','edge');
    }
  }
}
]]></script>
        <defs>
                <circle id="rim" cx="0" cy="0" r="7"/>
                <circle id="rim2" cx="0" cy="0" r="3.5"/>
                <g id="zoomPlus">
                        <use xlink:href="#rim" fill="#404040">
                                <set attributeName="fill" to="#808080" begin="zoomplus.mouseover" end="zoomplus.mouseout"/>
                        </use>
                        <path d="M-4,0h8M0,-4v8" fill="none" stroke="white" stroke-width="1.5" pointer-events="none"/>
                </g>
                <g id="zoomMin">
                        <use xlink:href="#rim" fill="#404040">
                                <set attributeName="fill" to="#808080" begin="zoomminus.mouseover" end="zoomminus.mouseout"/>
                        </use>
                        <path d="M-4,0h8" fill="none" stroke="white" stroke-width="1.5" pointer-events="none"/>
                </g>
                <g id="dirArrow">
                        <path fill="none" stroke="white" stroke-width="1.5" d="M0,-3.0v7 M-2.5,-0.5L0,-3.0L2.5,-0.5"/>
                </g>
               <g id="resetDef">
                       <use xlink:href="#rim2" fill="#404040">
                               <set attributeName="fill" to="#808080" begin="reset.mouseover" end="reset.mouseout"/>
                       </use>
               </g>
        </defs>

<script type="text/javascript">
var viewWidth = 270;
var viewHeight = 850;
var sectionId = 'dynsection-1';
</script>
<script xlink:href="svgpan.js"/>
<svg id="graph" class="graph">
<g id="viewport">
<title>doctest::detail::MessageBuilder</title>
<polygon fill="white" stroke="transparent" points="-4,4 -4,-846 266,-846 266,4 -4,4"/>
<!-- Node1 -->
<g id="node1" class="node">
<title>Node1</title>
<g id="a_node1"><a xlink:title=" ">
<polygon fill="#bfbfbf" stroke="black" points="66,-0.5 66,-123.5 202,-123.5 202,-0.5 66,-0.5"/>
<text text-anchor="start" x="74" y="-111.5" font-family="Helvetica,sans-Serif" font-size="10.00">doctest::detail::Message</text>
<text text-anchor="middle" x="134" y="-100.5" font-family="Helvetica,sans-Serif" font-size="10.00">Builder</text>
<polyline fill="none" stroke="black" points="66,-93.5 202,-93.5 "/>
<text text-anchor="middle" x="134" y="-81.5" font-family="Helvetica,sans-Serif" font-size="10.00"> </text>
<polyline fill="none" stroke="black" points="66,-74.5 202,-74.5 "/>
<text text-anchor="start" x="74" y="-62.5" font-family="Helvetica,sans-Serif" font-size="10.00">+ MessageBuilder()</text>
<text text-anchor="start" x="74" y="-51.5" font-family="Helvetica,sans-Serif" font-size="10.00">+ MessageBuilder()</text>
<text text-anchor="start" x="74" y="-40.5" font-family="Helvetica,sans-Serif" font-size="10.00">+ ~MessageBuilder()</text>
<text text-anchor="start" x="74" y="-29.5" font-family="Helvetica,sans-Serif" font-size="10.00">+ operator&lt;&lt;()</text>
<text text-anchor="start" x="74" y="-18.5" font-family="Helvetica,sans-Serif" font-size="10.00">+ log()</text>
<text text-anchor="start" x="74" y="-7.5" font-family="Helvetica,sans-Serif" font-size="10.00">+ react()</text>
</a>
</g>
</g>
<!-- Node2 -->
<g id="node2" class="node">
<title>Node2</title>
<g id="a_node2"><a xlink:href="structdoctest_1_1MessageData.html" target="_top" xlink:title=" ">
<polygon fill="white" stroke="black" points="12.5,-171.5 12.5,-250.5 137.5,-250.5 137.5,-171.5 12.5,-171.5"/>
<text text-anchor="middle" x="75" y="-238.5" font-family="Helvetica,sans-Serif" font-size="10.00">doctest::MessageData</text>
<polyline fill="none" stroke="black" points="12.5,-231.5 137.5,-231.5 "/>
<text text-anchor="start" x="20.5" y="-219.5" font-family="Helvetica,sans-Serif" font-size="10.00">+ m_file</text>
<text text-anchor="start" x="20.5" y="-208.5" font-family="Helvetica,sans-Serif" font-size="10.00">+ m_line</text>
<text text-anchor="start" x="20.5" y="-197.5" font-family="Helvetica,sans-Serif" font-size="10.00">+ m_severity</text>
<polyline fill="none" stroke="black" points="12.5,-190.5 137.5,-190.5 "/>
<text text-anchor="middle" x="75" y="-178.5" font-family="Helvetica,sans-Serif" font-size="10.00"> </text>
</a>
</g>
</g>
<!-- Node2&#45;&gt;Node1 -->
<g id="edge1" class="edge">
<title>Node2&#45;&gt;Node1</title>
<path fill="none" stroke="midnightblue" d="M94.33,-161.83C99.24,-149.6 104.58,-136.3 109.7,-123.55"/>
<polygon fill="none" stroke="midnightblue" points="90.98,-160.79 90.5,-171.38 97.47,-163.4 90.98,-160.79"/>
</g>
<!-- Node3 -->
<g id="node3" class="node">
<title>Node3</title>
<g id="a_node3"><a xlink:href="classdoctest_1_1String.html" target="_top" xlink:title=" ">
<polygon fill="white" stroke="black" points="13.5,-298.5 13.5,-619.5 106.5,-619.5 106.5,-298.5 13.5,-298.5"/>
<text text-anchor="middle" x="60" y="-607.5" font-family="Helvetica,sans-Serif" font-size="10.00">doctest::String</text>
<polyline fill="none" stroke="black" points="13.5,-600.5 106.5,-600.5 "/>
<text text-anchor="start" x="21.5" y="-588.5" font-family="Helvetica,sans-Serif" font-size="10.00">+ buf</text>
<text text-anchor="start" x="21.5" y="-577.5" font-family="Helvetica,sans-Serif" font-size="10.00">&#45; @1</text>
<text text-anchor="start" x="21.5" y="-566.5" font-family="Helvetica,sans-Serif" font-size="10.00">&#45; len</text>
<text text-anchor="start" x="21.5" y="-555.5" font-family="Helvetica,sans-Serif" font-size="10.00">&#45; last</text>
<polyline fill="none" stroke="black" points="13.5,-548.5 106.5,-548.5 "/>
<text text-anchor="start" x="21.5" y="-536.5" font-family="Helvetica,sans-Serif" font-size="10.00">+ String()</text>
<text text-anchor="start" x="21.5" y="-525.5" font-family="Helvetica,sans-Serif" font-size="10.00">+ ~String()</text>
<text text-anchor="start" x="21.5" y="-514.5" font-family="Helvetica,sans-Serif" font-size="10.00">+ String()</text>
<text text-anchor="start" x="21.5" y="-503.5" font-family="Helvetica,sans-Serif" font-size="10.00">+ String()</text>
<text text-anchor="start" x="21.5" y="-492.5" font-family="Helvetica,sans-Serif" font-size="10.00">+ String()</text>
<text text-anchor="start" x="21.5" y="-481.5" font-family="Helvetica,sans-Serif" font-size="10.00">+ operator=()</text>
<text text-anchor="start" x="21.5" y="-470.5" font-family="Helvetica,sans-Serif" font-size="10.00">+ operator+=()</text>
<text text-anchor="start" x="21.5" y="-459.5" font-family="Helvetica,sans-Serif" font-size="10.00">+ operator+()</text>
<text text-anchor="start" x="21.5" y="-448.5" font-family="Helvetica,sans-Serif" font-size="10.00">+ String()</text>
<text text-anchor="start" x="21.5" y="-437.5" font-family="Helvetica,sans-Serif" font-size="10.00">+ operator=()</text>
<text text-anchor="start" x="21.5" y="-426.5" font-family="Helvetica,sans-Serif" font-size="10.00">+ operator[]()</text>
<text text-anchor="start" x="21.5" y="-415.5" font-family="Helvetica,sans-Serif" font-size="10.00">+ operator[]()</text>
<text text-anchor="start" x="21.5" y="-404.5" font-family="Helvetica,sans-Serif" font-size="10.00">+ c_str()</text>
<text text-anchor="start" x="21.5" y="-393.5" font-family="Helvetica,sans-Serif" font-size="10.00">+ c_str()</text>
<text text-anchor="start" x="21.5" y="-382.5" font-family="Helvetica,sans-Serif" font-size="10.00">+ size()</text>
<text text-anchor="start" x="21.5" y="-371.5" font-family="Helvetica,sans-Serif" font-size="10.00">+ capacity()</text>
<text text-anchor="start" x="21.5" y="-360.5" font-family="Helvetica,sans-Serif" font-size="10.00">+ compare()</text>
<text text-anchor="start" x="21.5" y="-349.5" font-family="Helvetica,sans-Serif" font-size="10.00">+ compare()</text>
<text text-anchor="start" x="21.5" y="-338.5" font-family="Helvetica,sans-Serif" font-size="10.00">&#45; isOnStack()</text>
<text text-anchor="start" x="21.5" y="-327.5" font-family="Helvetica,sans-Serif" font-size="10.00">&#45; setOnHeap()</text>
<text text-anchor="start" x="21.5" y="-316.5" font-family="Helvetica,sans-Serif" font-size="10.00">&#45; setLast()</text>
<text text-anchor="start" x="21.5" y="-305.5" font-family="Helvetica,sans-Serif" font-size="10.00">&#45; copy()</text>
</a>
</g>
</g>
<!-- Node3&#45;&gt;Node2 -->
<g id="edge2" class="edge">
<title>Node3&#45;&gt;Node2</title>
<path fill="none" stroke="#404040" d="M69.73,-298.38C70.5,-285.81 71.23,-273.8 71.89,-262.94"/>
<polygon fill="none" stroke="#404040" points="71.91,-262.75 68.28,-256.51 72.64,-250.77 76.26,-257 71.91,-262.75"/>
<text text-anchor="middle" x="99.5" y="-272" font-family="Helvetica,sans-Serif" font-size="10.00"> +m_string</text>
</g>
<!-- Node4 -->
<g id="node4" class="node">
<title>Node4</title>
<g id="a_node4"><a xlink:href="structdoctest_1_1String_1_1view.html" target="_top" xlink:title="OCLINT avoid private static members.">
<polygon fill="white" stroke="black" points="0,-667.5 0,-746.5 116,-746.5 116,-667.5 0,-667.5"/>
<text text-anchor="middle" x="58" y="-734.5" font-family="Helvetica,sans-Serif" font-size="10.00">doctest::String::view</text>
<polyline fill="none" stroke="black" points="0,-727.5 116,-727.5 "/>
<text text-anchor="start" x="8" y="-715.5" font-family="Helvetica,sans-Serif" font-size="10.00">+ ptr</text>
<text text-anchor="start" x="8" y="-704.5" font-family="Helvetica,sans-Serif" font-size="10.00">+ size</text>
<text text-anchor="start" x="8" y="-693.5" font-family="Helvetica,sans-Serif" font-size="10.00">+ capacity</text>
<polyline fill="none" stroke="black" points="0,-686.5 116,-686.5 "/>
<text text-anchor="middle" x="58" y="-674.5" font-family="Helvetica,sans-Serif" font-size="10.00"> </text>
</a>
</g>
</g>
<!-- Node4&#45;&gt;Node3 -->
<g id="edge3" class="edge">
<title>Node4&#45;&gt;Node3</title>
<path fill="none" stroke="#404040" d="M58.31,-667.29C58.4,-656.78 58.5,-644.68 58.6,-631.72"/>
<polygon fill="none" stroke="#404040" points="58.6,-631.6 54.65,-625.56 58.7,-619.6 62.65,-625.63 58.6,-631.6"/>
<text text-anchor="middle" x="76" y="-641" font-family="Helvetica,sans-Serif" font-size="10.00"> +data</text>
</g>
<!-- Node5 -->
<g id="node5" class="node">
<title>Node5</title>
<g id="a_node5"><a xlink:title="STL class.">
<polygon fill="white" stroke="#bfbfbf" points="157,-182.5 157,-239.5 235,-239.5 235,-182.5 157,-182.5"/>
<text text-anchor="middle" x="196" y="-227.5" font-family="Helvetica,sans-Serif" font-size="10.00">std::ostream</text>
<polyline fill="none" stroke="#bfbfbf" points="157,-220.5 235,-220.5 "/>
<text text-anchor="middle" x="196" y="-208.5" font-family="Helvetica,sans-Serif" font-size="10.00"> </text>
<polyline fill="none" stroke="#bfbfbf" points="157,-201.5 235,-201.5 "/>
<text text-anchor="middle" x="196" y="-189.5" font-family="Helvetica,sans-Serif" font-size="10.00"> </text>
</a>
</g>
</g>
<!-- Node5&#45;&gt;Node1 -->
<g id="edge4" class="edge">
<title>Node5&#45;&gt;Node1</title>
<path fill="none" stroke="#404040" d="M184.34,-182.35C178.61,-168.77 171.42,-151.72 164.28,-134.79"/>
<polygon fill="none" stroke="#404040" points="164.27,-134.78 158.26,-130.8 159.61,-123.72 165.63,-127.69 164.27,-134.78"/>
<text text-anchor="middle" x="200.5" y="-145" font-family="Helvetica,sans-Serif" font-size="10.00"> +m_stream</text>
</g>
<!-- Node6 -->
<g id="node6" class="node">
<title>Node6</title>
<g id="a_node6"><a xlink:title="STL class.">
<polygon fill="white" stroke="#bfbfbf" points="142.5,-425 142.5,-493 251.5,-493 251.5,-425 142.5,-425"/>
<text text-anchor="start" x="150.5" y="-481" font-family="Helvetica,sans-Serif" font-size="10.00">std::basic_ostream</text>
<text text-anchor="middle" x="197" y="-470" font-family="Helvetica,sans-Serif" font-size="10.00">&lt; char &gt;</text>
<polyline fill="none" stroke="#bfbfbf" points="142.5,-463 251.5,-463 "/>
<text text-anchor="middle" x="197" y="-451" font-family="Helvetica,sans-Serif" font-size="10.00"> </text>
<polyline fill="none" stroke="#bfbfbf" points="142.5,-444 251.5,-444 "/>
<text text-anchor="middle" x="197" y="-432" font-family="Helvetica,sans-Serif" font-size="10.00"> </text>
</a>
</g>
</g>
<!-- Node6&#45;&gt;Node5 -->
<g id="edge5" class="edge">
<title>Node6&#45;&gt;Node5</title>
<path fill="none" stroke="midnightblue" d="M196.82,-414.55C196.62,-364.07 196.29,-282.28 196.11,-239.72"/>
<polygon fill="none" stroke="midnightblue" points="193.32,-414.84 196.87,-424.82 200.32,-414.81 193.32,-414.84"/>
</g>
<!-- Node7 -->
<g id="node7" class="node">
<title>Node7</title>
<g id="a_node7"><a xlink:title="STL class.">
<polygon fill="white" stroke="#bfbfbf" points="134,-678.5 134,-735.5 262,-735.5 262,-678.5 134,-678.5"/>
<text text-anchor="middle" x="198" y="-723.5" font-family="Helvetica,sans-Serif" font-size="10.00">std::basic_ios&lt; Char &gt;</text>
<polyline fill="none" stroke="#bfbfbf" points="134,-716.5 262,-716.5 "/>
<text text-anchor="middle" x="198" y="-704.5" font-family="Helvetica,sans-Serif" font-size="10.00"> </text>
<polyline fill="none" stroke="#bfbfbf" points="134,-697.5 262,-697.5 "/>
<text text-anchor="middle" x="198" y="-685.5" font-family="Helvetica,sans-Serif" font-size="10.00"> </text>
</a>
</g>
</g>
<!-- Node7&#45;&gt;Node6 -->
<g id="edge6" class="edge">
<title>Node7&#45;&gt;Node6</title>
<path fill="none" stroke="midnightblue" d="M197.85,-668C197.65,-620.11 197.32,-538.56 197.13,-493.11"/>
<polygon fill="none" stroke="midnightblue" points="194.35,-668.27 197.89,-678.26 201.35,-668.24 194.35,-668.27"/>
</g>
<!-- Node8 -->
<g id="node8" class="node">
<title>Node8</title>
<g id="a_node8"><a xlink:title="STL class.">
<polygon fill="white" stroke="#bfbfbf" points="158,-784.5 158,-841.5 238,-841.5 238,-784.5 158,-784.5"/>
<text text-anchor="middle" x="198" y="-829.5" font-family="Helvetica,sans-Serif" font-size="10.00">std::ios_base</text>
<polyline fill="none" stroke="#bfbfbf" points="158,-822.5 238,-822.5 "/>
<text text-anchor="middle" x="198" y="-810.5" font-family="Helvetica,sans-Serif" font-size="10.00"> </text>
<polyline fill="none" stroke="#bfbfbf" points="158,-803.5 238,-803.5 "/>
<text text-anchor="middle" x="198" y="-791.5" font-family="Helvetica,sans-Serif" font-size="10.00"> </text>
</a>
</g>
</g>
<!-- Node8&#45;&gt;Node7 -->
<g id="edge7" class="edge">
<title>Node8&#45;&gt;Node7</title>
<path fill="none" stroke="midnightblue" d="M198,-774.1C198,-761.4 198,-747.49 198,-735.73"/>
<polygon fill="none" stroke="midnightblue" points="194.5,-774.4 198,-784.4 201.5,-774.4 194.5,-774.4"/>
</g>
</g>
</svg>
        <g id="navigator" transform="translate(0 0)" fill="#404254">
                <rect fill="#f2f5e9" fill-opacity="0.5" stroke="#606060" stroke-width=".5" x="0" y="0" width="60" height="60"/>
                <use id="zoomplus" xlink:href="#zoomPlus" x="17" y="9" onmousedown="handleZoom(evt,'in')"/>
                <use id="zoomminus" xlink:href="#zoomMin" x="42" y="9" onmousedown="handleZoom(evt,'out')"/>
                <use id="reset" xlink:href="#resetDef" x="30" y="36" onmousedown="handleReset()"/>
                <g id="arrowUp" xlink:href="#dirArrow" transform="translate(30 24)" onmousedown="handlePan(0,-1)">
                  <use xlink:href="#rim" fill="#404040">
                        <set attributeName="fill" to="#808080" begin="arrowUp.mouseover" end="arrowUp.mouseout"/>
                  </use>
                  <path fill="none" stroke="white" stroke-width="1.5" d="M0,-3.0v7 M-2.5,-0.5L0,-3.0L2.5,-0.5"/>
                </g>
                <g id="arrowRight" xlink:href="#dirArrow" transform="rotate(90) translate(36 -43)" onmousedown="handlePan(1,0)">
                  <use xlink:href="#rim" fill="#404040">
                        <set attributeName="fill" to="#808080" begin="arrowRight.mouseover" end="arrowRight.mouseout"/>
                  </use>
                  <path fill="none" stroke="white" stroke-width="1.5" d="M0,-3.0v7 M-2.5,-0.5L0,-3.0L2.5,-0.5"/>
                </g>
                <g id="arrowDown" xlink:href="#dirArrow" transform="rotate(180) translate(-30 -48)" onmousedown="handlePan(0,1)">
                  <use xlink:href="#rim" fill="#404040">
                        <set attributeName="fill" to="#808080" begin="arrowDown.mouseover" end="arrowDown.mouseout"/>
                  </use>
                  <path fill="none" stroke="white" stroke-width="1.5" d="M0,-3.0v7 M-2.5,-0.5L0,-3.0L2.5,-0.5"/>
                </g>
                <g id="arrowLeft" xlink:href="#dirArrow" transform="rotate(270) translate(-36 17)" onmousedown="handlePan(-1,0)">
                  <use xlink:href="#rim" fill="#404040">
                        <set attributeName="fill" to="#808080" begin="arrowLeft.mouseover" end="arrowLeft.mouseout"/>
                  </use>
                  <path fill="none" stroke="white" stroke-width="1.5" d="M0,-3.0v7 M-2.5,-0.5L0,-3.0L2.5,-0.5"/>
                </g>
        </g>
        <svg viewBox="0 0 15 15" width="100%" height="30px" preserveAspectRatio="xMaxYMin meet">
         <g id="arrow_out" transform="scale(0.3 0.3)">
          <a xlink:href="structdoctest_1_1detail_1_1MessageBuilder__coll__graph_org.svg" target="_base">
           <rect id="button" ry="5" rx="5" y="6" x="6" height="38" width="38"
                fill="#f2f5e9" fill-opacity="0.5" stroke="#606060" stroke-width="1.0"/>
           <path id="arrow"
             d="M 11.500037,31.436501 C 11.940474,20.09759 22.043105,11.32322 32.158766,21.979434 L 37.068811,17.246167 C 37.068811,17.246167 37.088388,32 37.088388,32 L 22.160133,31.978069 C 22.160133,31.978069 26.997745,27.140456 26.997745,27.140456 C 18.528582,18.264221 13.291696,25.230495 11.500037,31.436501 z"
             style="fill:#404040;"/>
          </a>
         </g>
        </svg>
</svg>
