<?xml version="1.0" encoding="UTF-8" standalone="no"?>
<!DOCTYPE svg PUBLIC "-//W3C//DTD SVG 1.1//EN"
 "http://www.w3.org/Graphics/SVG/1.1/DTD/svg11.dtd">
<!-- Generated by graphviz version 2.43.0 (0)
 -->
<!-- Title: benchmark::internal::ThreadManager::Result Pages: 1 -->
<!--zoomable 514 -->
<svg id="main" version="1.1" xmlns="http://www.w3.org/2000/svg" xmlns:xlink="http://www.w3.org/1999/xlink" xml:space="preserve" onload="init(evt)">
<style type="text/css"><![CDATA[
.edge:hover path { stroke: red; }
.edge:hover polygon { stroke: red; fill: red; }
]]></style>
<script type="text/javascript"><![CDATA[
var edges = document.getElementsByTagName('g');
if (edges && edges.length) {
  for (var i=0;i<edges.length;i++) {
    if (edges[i].id.substr(0,4)=='edge') {
      edges[i].setAttribute('class','edge');
    }
  }
}
]]></script>
        <defs>
                <circle id="rim" cx="0" cy="0" r="7"/>
                <circle id="rim2" cx="0" cy="0" r="3.5"/>
                <g id="zoomPlus">
                        <use xlink:href="#rim" fill="#404040">
                                <set attributeName="fill" to="#808080" begin="zoomplus.mouseover" end="zoomplus.mouseout"/>
                        </use>
                        <path d="M-4,0h8M0,-4v8" fill="none" stroke="white" stroke-width="1.5" pointer-events="none"/>
                </g>
                <g id="zoomMin">
                        <use xlink:href="#rim" fill="#404040">
                                <set attributeName="fill" to="#808080" begin="zoomminus.mouseover" end="zoomminus.mouseout"/>
                        </use>
                        <path d="M-4,0h8" fill="none" stroke="white" stroke-width="1.5" pointer-events="none"/>
                </g>
                <g id="dirArrow">
                        <path fill="none" stroke="white" stroke-width="1.5" d="M0,-3.0v7 M-2.5,-0.5L0,-3.0L2.5,-0.5"/>
                </g>
               <g id="resetDef">
                       <use xlink:href="#rim2" fill="#404040">
                               <set attributeName="fill" to="#808080" begin="reset.mouseover" end="reset.mouseout"/>
                       </use>
               </g>
        </defs>

<script type="text/javascript">
var viewWidth = 293;
var viewHeight = 514;
var sectionId = 'dynsection-0';
</script>
<script xlink:href="svgpan.js"/>
<svg id="graph" class="graph">
<g id="viewport">
<title>benchmark::internal::ThreadManager::Result</title>
<polygon fill="white" stroke="transparent" points="-4,4 -4,-510 289,-510 289,4 -4,4"/>
<!-- Node1 -->
<g id="node1" class="node">
<title>Node1</title>
<g id="a_node1"><a xlink:title=" ">
<polygon fill="#bfbfbf" stroke="black" points="89,-0.5 89,-145.5 225,-145.5 225,-0.5 89,-0.5"/>
<text text-anchor="start" x="97" y="-133.5" font-family="Helvetica,sans-Serif" font-size="10.00">benchmark::internal</text>
<text text-anchor="middle" x="157" y="-122.5" font-family="Helvetica,sans-Serif" font-size="10.00">::ThreadManager::Result</text>
<polyline fill="none" stroke="black" points="89,-115.5 225,-115.5 "/>
<text text-anchor="start" x="97" y="-103.5" font-family="Helvetica,sans-Serif" font-size="10.00">+ iterations</text>
<text text-anchor="start" x="97" y="-92.5" font-family="Helvetica,sans-Serif" font-size="10.00">+ real_time_used</text>
<text text-anchor="start" x="97" y="-81.5" font-family="Helvetica,sans-Serif" font-size="10.00">+ cpu_time_used</text>
<text text-anchor="start" x="97" y="-70.5" font-family="Helvetica,sans-Serif" font-size="10.00">+ manual_time_used</text>
<text text-anchor="start" x="97" y="-59.5" font-family="Helvetica,sans-Serif" font-size="10.00">+ bytes_processed</text>
<text text-anchor="start" x="97" y="-48.5" font-family="Helvetica,sans-Serif" font-size="10.00">+ items_processed</text>
<text text-anchor="start" x="97" y="-37.5" font-family="Helvetica,sans-Serif" font-size="10.00">+ complexity_n</text>
<text text-anchor="start" x="97" y="-26.5" font-family="Helvetica,sans-Serif" font-size="10.00">+ has_error_</text>
<polyline fill="none" stroke="black" points="89,-19.5 225,-19.5 "/>
<text text-anchor="middle" x="157" y="-7.5" font-family="Helvetica,sans-Serif" font-size="10.00"> </text>
</a>
</g>
</g>
<!-- Node2 -->
<g id="node2" class="node">
<title>Node2</title>
<g id="a_node2"><a xlink:title="STL class.">
<polygon fill="white" stroke="#bfbfbf" points="171.5,-326 171.5,-383 236.5,-383 236.5,-326 171.5,-326"/>
<text text-anchor="middle" x="204" y="-371" font-family="Helvetica,sans-Serif" font-size="10.00">std::string</text>
<polyline fill="none" stroke="#bfbfbf" points="171.5,-364 236.5,-364 "/>
<text text-anchor="middle" x="204" y="-352" font-family="Helvetica,sans-Serif" font-size="10.00"> </text>
<polyline fill="none" stroke="#bfbfbf" points="171.5,-345 236.5,-345 "/>
<text text-anchor="middle" x="204" y="-333" font-family="Helvetica,sans-Serif" font-size="10.00"> </text>
</a>
</g>
</g>
<!-- Node2&#45;&gt;Node1 -->
<g id="edge1" class="edge">
<title>Node2&#45;&gt;Node1</title>
<path fill="none" stroke="#404040" d="M202.98,-325.94C201.21,-288.82 196.57,-220.86 185,-164 184.57,-161.87 184.1,-159.71 183.61,-157.55"/>
<polygon fill="none" stroke="#404040" points="183.61,-157.54 178.3,-152.65 180.76,-145.88 186.07,-150.76 183.61,-157.54"/>
<text text-anchor="middle" x="241.5" y="-230.5" font-family="Helvetica,sans-Serif" font-size="10.00"> +report_label_</text>
<text text-anchor="middle" x="241.5" y="-219.5" font-family="Helvetica,sans-Serif" font-size="10.00">+error_message_</text>
</g>
<!-- Node4 -->
<g id="node4" class="node">
<title>Node4</title>
<g id="a_node4"><a xlink:title=" ">
<polygon fill="white" stroke="#bfbfbf" points="48,-193.5 48,-261.5 170,-261.5 170,-193.5 48,-193.5"/>
<text text-anchor="start" x="56" y="-249.5" font-family="Helvetica,sans-Serif" font-size="10.00">std::map&lt; std::string,</text>
<text text-anchor="middle" x="109" y="-238.5" font-family="Helvetica,sans-Serif" font-size="10.00"> Counter &gt;</text>
<polyline fill="none" stroke="#bfbfbf" points="48,-231.5 170,-231.5 "/>
<text text-anchor="middle" x="109" y="-219.5" font-family="Helvetica,sans-Serif" font-size="10.00"> </text>
<polyline fill="none" stroke="#bfbfbf" points="48,-212.5 170,-212.5 "/>
<text text-anchor="middle" x="109" y="-200.5" font-family="Helvetica,sans-Serif" font-size="10.00"> </text>
</a>
</g>
</g>
<!-- Node2&#45;&gt;Node4 -->
<g id="edge4" class="edge">
<title>Node2&#45;&gt;Node4</title>
<path fill="none" stroke="#404040" d="M182.92,-325.76C170.83,-309.86 155.4,-289.56 141.77,-271.62"/>
<polygon fill="none" stroke="#404040" points="141.68,-271.5 134.86,-269.14 134.42,-261.94 141.23,-264.3 141.68,-271.5"/>
<text text-anchor="middle" x="173" y="-283" font-family="Helvetica,sans-Serif" font-size="10.00"> +keys</text>
</g>
<!-- Node3 -->
<g id="node3" class="node">
<title>Node3</title>
<g id="a_node3"><a xlink:title="STL class.">
<polygon fill="white" stroke="#bfbfbf" points="152,-437.5 152,-505.5 256,-505.5 256,-437.5 152,-437.5"/>
<text text-anchor="start" x="160" y="-493.5" font-family="Helvetica,sans-Serif" font-size="10.00">std::basic_string&lt;</text>
<text text-anchor="middle" x="204" y="-482.5" font-family="Helvetica,sans-Serif" font-size="10.00"> char &gt;</text>
<polyline fill="none" stroke="#bfbfbf" points="152,-475.5 256,-475.5 "/>
<text text-anchor="middle" x="204" y="-463.5" font-family="Helvetica,sans-Serif" font-size="10.00"> </text>
<polyline fill="none" stroke="#bfbfbf" points="152,-456.5 256,-456.5 "/>
<text text-anchor="middle" x="204" y="-444.5" font-family="Helvetica,sans-Serif" font-size="10.00"> </text>
</a>
</g>
</g>
<!-- Node3&#45;&gt;Node2 -->
<g id="edge2" class="edge">
<title>Node3&#45;&gt;Node2</title>
<path fill="none" stroke="midnightblue" d="M204,-426.87C204,-412.23 204,-396.33 204,-383.25"/>
<polygon fill="none" stroke="midnightblue" points="200.5,-427.24 204,-437.24 207.5,-427.24 200.5,-427.24"/>
</g>
<!-- Node4&#45;&gt;Node1 -->
<g id="edge3" class="edge">
<title>Node4&#45;&gt;Node1</title>
<path fill="none" stroke="#404040" d="M119.42,-193.41C122.81,-182.61 126.75,-170.09 130.78,-157.3"/>
<polygon fill="none" stroke="#404040" points="130.88,-156.97 128.87,-150.05 134.49,-145.53 136.5,-152.45 130.88,-156.97"/>
<text text-anchor="middle" x="154" y="-167" font-family="Helvetica,sans-Serif" font-size="10.00"> +counters</text>
</g>
<!-- Node5 -->
<g id="node5" class="node">
<title>Node5</title>
<g id="a_node5"><a xlink:href="classbenchmark_1_1Counter.html" target="_top" xlink:title=" ">
<polygon fill="white" stroke="black" points="0,-309.5 0,-399.5 152,-399.5 152,-309.5 0,-309.5"/>
<text text-anchor="middle" x="76" y="-387.5" font-family="Helvetica,sans-Serif" font-size="10.00">benchmark::Counter</text>
<polyline fill="none" stroke="black" points="0,-380.5 152,-380.5 "/>
<text text-anchor="start" x="8" y="-368.5" font-family="Helvetica,sans-Serif" font-size="10.00">+ value</text>
<text text-anchor="start" x="8" y="-357.5" font-family="Helvetica,sans-Serif" font-size="10.00">+ flags</text>
<polyline fill="none" stroke="black" points="0,-350.5 152,-350.5 "/>
<text text-anchor="start" x="8" y="-338.5" font-family="Helvetica,sans-Serif" font-size="10.00">+ Counter()</text>
<text text-anchor="start" x="8" y="-327.5" font-family="Helvetica,sans-Serif" font-size="10.00">+ operator double const &amp;()</text>
<text text-anchor="start" x="8" y="-316.5" font-family="Helvetica,sans-Serif" font-size="10.00">+ operator double &amp;()</text>
</a>
</g>
</g>
<!-- Node5&#45;&gt;Node4 -->
<g id="edge5" class="edge">
<title>Node5&#45;&gt;Node4</title>
<path fill="none" stroke="#404040" d="M72.75,-309.39C73.08,-299.57 74.28,-289.31 77,-280 77.72,-277.55 78.58,-275.11 79.57,-272.69"/>
<polygon fill="none" stroke="#404040" points="79.69,-272.43 78.68,-265.29 84.88,-261.61 85.89,-268.75 79.69,-272.43"/>
<text text-anchor="middle" x="106" y="-283" font-family="Helvetica,sans-Serif" font-size="10.00"> +elements</text>
</g>
</g>
</svg>
        <g id="navigator" transform="translate(0 0)" fill="#404254">
                <rect fill="#f2f5e9" fill-opacity="0.5" stroke="#606060" stroke-width=".5" x="0" y="0" width="60" height="60"/>
                <use id="zoomplus" xlink:href="#zoomPlus" x="17" y="9" onmousedown="handleZoom(evt,'in')"/>
                <use id="zoomminus" xlink:href="#zoomMin" x="42" y="9" onmousedown="handleZoom(evt,'out')"/>
                <use id="reset" xlink:href="#resetDef" x="30" y="36" onmousedown="handleReset()"/>
                <g id="arrowUp" xlink:href="#dirArrow" transform="translate(30 24)" onmousedown="handlePan(0,-1)">
                  <use xlink:href="#rim" fill="#404040">
                        <set attributeName="fill" to="#808080" begin="arrowUp.mouseover" end="arrowUp.mouseout"/>
                  </use>
                  <path fill="none" stroke="white" stroke-width="1.5" d="M0,-3.0v7 M-2.5,-0.5L0,-3.0L2.5,-0.5"/>
                </g>
                <g id="arrowRight" xlink:href="#dirArrow" transform="rotate(90) translate(36 -43)" onmousedown="handlePan(1,0)">
                  <use xlink:href="#rim" fill="#404040">
                        <set attributeName="fill" to="#808080" begin="arrowRight.mouseover" end="arrowRight.mouseout"/>
                  </use>
                  <path fill="none" stroke="white" stroke-width="1.5" d="M0,-3.0v7 M-2.5,-0.5L0,-3.0L2.5,-0.5"/>
                </g>
                <g id="arrowDown" xlink:href="#dirArrow" transform="rotate(180) translate(-30 -48)" onmousedown="handlePan(0,1)">
                  <use xlink:href="#rim" fill="#404040">
                        <set attributeName="fill" to="#808080" begin="arrowDown.mouseover" end="arrowDown.mouseout"/>
                  </use>
                  <path fill="none" stroke="white" stroke-width="1.5" d="M0,-3.0v7 M-2.5,-0.5L0,-3.0L2.5,-0.5"/>
                </g>
                <g id="arrowLeft" xlink:href="#dirArrow" transform="rotate(270) translate(-36 17)" onmousedown="handlePan(-1,0)">
                  <use xlink:href="#rim" fill="#404040">
                        <set attributeName="fill" to="#808080" begin="arrowLeft.mouseover" end="arrowLeft.mouseout"/>
                  </use>
                  <path fill="none" stroke="white" stroke-width="1.5" d="M0,-3.0v7 M-2.5,-0.5L0,-3.0L2.5,-0.5"/>
                </g>
        </g>
        <svg viewBox="0 0 15 15" width="100%" height="30px" preserveAspectRatio="xMaxYMin meet">
         <g id="arrow_out" transform="scale(0.3 0.3)">
          <a xlink:href="structbenchmark_1_1internal_1_1ThreadManager_1_1Result__coll__graph_org.svg" target="_base">
           <rect id="button" ry="5" rx="5" y="6" x="6" height="38" width="38"
                fill="#f2f5e9" fill-opacity="0.5" stroke="#606060" stroke-width="1.0"/>
           <path id="arrow"
             d="M 11.500037,31.436501 C 11.940474,20.09759 22.043105,11.32322 32.158766,21.979434 L 37.068811,17.246167 C 37.068811,17.246167 37.088388,32 37.088388,32 L 22.160133,31.978069 C 22.160133,31.978069 26.997745,27.140456 26.997745,27.140456 C 18.528582,18.264221 13.291696,25.230495 11.500037,31.436501 z"
             style="fill:#404040;"/>
          </a>
         </g>
        </svg>
</svg>
