<?xml version="1.0" encoding="UTF-8" standalone="no"?>
<!DOCTYPE svg PUBLIC "-//W3C//DTD SVG 1.1//EN"
 "http://www.w3.org/Graphics/SVG/1.1/DTD/svg11.dtd">
<!-- Generated by graphviz version 2.43.0 (0)
 -->
<!-- Title: httplib::Request::has_header Pages: 1 -->
<!--zoomable 428 -->
<svg id="main" version="1.1" xmlns="http://www.w3.org/2000/svg" xmlns:xlink="http://www.w3.org/1999/xlink" xml:space="preserve" onload="init(evt)">
<style type="text/css"><![CDATA[
.edge:hover path { stroke: red; }
.edge:hover polygon { stroke: red; fill: red; }
]]></style>
<script type="text/javascript"><![CDATA[
var edges = document.getElementsByTagName('g');
if (edges && edges.length) {
  for (var i=0;i<edges.length;i++) {
    if (edges[i].id.substr(0,4)=='edge') {
      edges[i].setAttribute('class','edge');
    }
  }
}
]]></script>
        <defs>
                <circle id="rim" cx="0" cy="0" r="7"/>
                <circle id="rim2" cx="0" cy="0" r="3.5"/>
                <g id="zoomPlus">
                        <use xlink:href="#rim" fill="#404040">
                                <set attributeName="fill" to="#808080" begin="zoomplus.mouseover" end="zoomplus.mouseout"/>
                        </use>
                        <path d="M-4,0h8M0,-4v8" fill="none" stroke="white" stroke-width="1.5" pointer-events="none"/>
                </g>
                <g id="zoomMin">
                        <use xlink:href="#rim" fill="#404040">
                                <set attributeName="fill" to="#808080" begin="zoomminus.mouseover" end="zoomminus.mouseout"/>
                        </use>
                        <path d="M-4,0h8" fill="none" stroke="white" stroke-width="1.5" pointer-events="none"/>
                </g>
                <g id="dirArrow">
                        <path fill="none" stroke="white" stroke-width="1.5" d="M0,-3.0v7 M-2.5,-0.5L0,-3.0L2.5,-0.5"/>
                </g>
               <g id="resetDef">
                       <use xlink:href="#rim2" fill="#404040">
                               <set attributeName="fill" to="#808080" begin="reset.mouseover" end="reset.mouseout"/>
                       </use>
               </g>
        </defs>

<script type="text/javascript">
var viewWidth = 1241;
var viewHeight = 428;
var sectionId = 'dynsection-6';
</script>
<script xlink:href="svgpan.js"/>
<svg id="graph" class="graph">
<g id="viewport">
<title>httplib::Request::has_header</title>
<polygon fill="white" stroke="transparent" points="-4,4 -4,-423.5 1237,-423.5 1237,4 -4,4"/>
<!-- Node1 -->
<g id="node1" class="node">
<title>Node1</title>
<g id="a_node1"><a xlink:title=" ">
<polygon fill="#bfbfbf" stroke="black" points="1116,-323 1116,-353 1233,-353 1233,-323 1116,-323"/>
<text text-anchor="start" x="1124" y="-341" font-family="Helvetica,sans-Serif" font-size="10.00">httplib::Request::has</text>
<text text-anchor="middle" x="1174.5" y="-330" font-family="Helvetica,sans-Serif" font-size="10.00">_header</text>
</a>
</g>
</g>
<!-- Node2 -->
<g id="node2" class="node">
<title>Node2</title>
<g id="a_node2"><a xlink:href="namespacehttplib.html#a91bed84cacddbfcf57cbaba797e74b93" target="_top" xlink:title=" ">
<polygon fill="white" stroke="black" points="970,-389 970,-419 1077,-419 1077,-389 970,-389"/>
<text text-anchor="start" x="978" y="-407" font-family="Helvetica,sans-Serif" font-size="10.00">httplib::get_bearer</text>
<text text-anchor="middle" x="1023.5" y="-396" font-family="Helvetica,sans-Serif" font-size="10.00">_token_auth</text>
</a>
</g>
</g>
<!-- Node1&#45;&gt;Node2 -->
<g id="edge1" class="edge">
<title>Node1&#45;&gt;Node2</title>
<path fill="none" stroke="midnightblue" d="M1129.88,-357.32C1107.12,-367.4 1079.69,-379.55 1058.52,-388.93"/>
<polygon fill="midnightblue" stroke="midnightblue" points="1131.59,-360.39 1139.32,-353.14 1128.76,-353.99 1131.59,-360.39"/>
</g>
<!-- Node3 -->
<g id="node3" class="node">
<title>Node3</title>
<g id="a_node3"><a xlink:href="classhttplib_1_1Server.html#a4e7c7c79cced3d61082df30b3eb97ed2" target="_top" xlink:title=" ">
<polygon fill="white" stroke="black" points="477,-343 477,-373 606,-373 606,-343 477,-343"/>
<text text-anchor="start" x="485" y="-361" font-family="Helvetica,sans-Serif" font-size="10.00">httplib::Server::process</text>
<text text-anchor="middle" x="541.5" y="-350" font-family="Helvetica,sans-Serif" font-size="10.00">_request</text>
</a>
</g>
</g>
<!-- Node1&#45;&gt;Node3 -->
<g id="edge2" class="edge">
<title>Node1&#45;&gt;Node3</title>
<path fill="none" stroke="midnightblue" d="M1105.6,-340.18C1096.98,-340.46 1088.28,-340.74 1080,-341 908.77,-346.45 706.85,-352.82 606.21,-355.99"/>
<polygon fill="midnightblue" stroke="midnightblue" points="1105.76,-343.68 1115.64,-339.86 1105.54,-336.68 1105.76,-343.68"/>
</g>
<!-- Node5 -->
<g id="node5" class="node">
<title>Node5</title>
<g id="a_node5"><a xlink:href="classhttplib_1_1Server.html#a1fc26b4f3c6d53b4400f643ddd360d35" target="_top" xlink:title=" ">
<polygon fill="white" stroke="black" points="967,-301 967,-331 1080,-331 1080,-301 967,-301"/>
<text text-anchor="start" x="975" y="-319" font-family="Helvetica,sans-Serif" font-size="10.00">httplib::Server::read</text>
<text text-anchor="middle" x="1023.5" y="-308" font-family="Helvetica,sans-Serif" font-size="10.00">_content_core</text>
</a>
</g>
</g>
<!-- Node1&#45;&gt;Node5 -->
<g id="edge4" class="edge">
<title>Node1&#45;&gt;Node5</title>
<path fill="none" stroke="midnightblue" d="M1105.97,-328.03C1097.45,-326.77 1088.8,-325.49 1080.48,-324.27"/>
<polygon fill="midnightblue" stroke="midnightblue" points="1105.49,-331.5 1115.89,-329.49 1106.51,-324.57 1105.49,-331.5"/>
</g>
<!-- Node9 -->
<g id="node9" class="node">
<title>Node9</title>
<g id="a_node9"><a xlink:href="classhttplib_1_1ClientImpl.html#ae7d812295ccea2c875e2d97328446fa6" target="_top" xlink:title=" ">
<polygon fill="white" stroke="black" points="971.5,-222 971.5,-252 1075.5,-252 1075.5,-222 971.5,-222"/>
<text text-anchor="start" x="979.5" y="-240" font-family="Helvetica,sans-Serif" font-size="10.00">httplib::ClientImpl</text>
<text text-anchor="middle" x="1023.5" y="-229" font-family="Helvetica,sans-Serif" font-size="10.00">::write_request</text>
</a>
</g>
</g>
<!-- Node1&#45;&gt;Node9 -->
<g id="edge10" class="edge">
<title>Node1&#45;&gt;Node9</title>
<path fill="none" stroke="midnightblue" d="M1142.8,-317.19C1114.28,-297.86 1072.48,-269.52 1046.96,-252.22"/>
<polygon fill="midnightblue" stroke="midnightblue" points="1140.95,-320.17 1151.19,-322.88 1144.88,-314.37 1140.95,-320.17"/>
</g>
<!-- Node4 -->
<g id="node4" class="node">
<title>Node4</title>
<g id="a_node4"><a xlink:href="classhttplib_1_1Server.html#a28221db99b5a35e45515553fdb9458a0" target="_top" xlink:title=" ">
<polygon fill="white" stroke="black" points="312,-343 312,-373 441,-373 441,-343 312,-343"/>
<text text-anchor="start" x="320" y="-361" font-family="Helvetica,sans-Serif" font-size="10.00">httplib::Server::process</text>
<text text-anchor="middle" x="376.5" y="-350" font-family="Helvetica,sans-Serif" font-size="10.00">_and_close_socket</text>
</a>
</g>
</g>
<!-- Node3&#45;&gt;Node4 -->
<g id="edge3" class="edge">
<title>Node3&#45;&gt;Node4</title>
<path fill="none" stroke="midnightblue" d="M466.31,-358C457.86,-358 449.3,-358 441,-358"/>
<polygon fill="midnightblue" stroke="midnightblue" points="466.55,-361.5 476.55,-358 466.55,-354.5 466.55,-361.5"/>
</g>
<!-- Node6 -->
<g id="node6" class="node">
<title>Node6</title>
<g id="a_node6"><a xlink:href="classhttplib_1_1Server.html#a32ad29652062d18383a1a1688892f9f2" target="_top" xlink:title=" ">
<polygon fill="white" stroke="black" points="811,-301 811,-331 924,-331 924,-301 811,-301"/>
<text text-anchor="start" x="819" y="-319" font-family="Helvetica,sans-Serif" font-size="10.00">httplib::Server::read</text>
<text text-anchor="middle" x="867.5" y="-308" font-family="Helvetica,sans-Serif" font-size="10.00">_content</text>
</a>
</g>
</g>
<!-- Node5&#45;&gt;Node6 -->
<g id="edge5" class="edge">
<title>Node5&#45;&gt;Node6</title>
<path fill="none" stroke="midnightblue" d="M956.61,-316C945.75,-316 934.59,-316 924.02,-316"/>
<polygon fill="midnightblue" stroke="midnightblue" points="956.9,-319.5 966.9,-316 956.9,-312.5 956.9,-319.5"/>
</g>
<!-- Node8 -->
<g id="node8" class="node">
<title>Node8</title>
<g id="a_node8"><a xlink:href="classhttplib_1_1Server.html#af0053e85d97391bb7e36b01009140747" target="_top" xlink:title=" ">
<polygon fill="white" stroke="black" points="804,-240.5 804,-281.5 931,-281.5 931,-240.5 804,-240.5"/>
<text text-anchor="start" x="812" y="-269.5" font-family="Helvetica,sans-Serif" font-size="10.00">httplib::Server::read</text>
<text text-anchor="start" x="812" y="-258.5" font-family="Helvetica,sans-Serif" font-size="10.00">_content_with_content</text>
<text text-anchor="middle" x="867.5" y="-247.5" font-family="Helvetica,sans-Serif" font-size="10.00">_receiver</text>
</a>
</g>
</g>
<!-- Node5&#45;&gt;Node8 -->
<g id="edge8" class="edge">
<title>Node5&#45;&gt;Node8</title>
<path fill="none" stroke="midnightblue" d="M970.73,-297.51C956.4,-292.39 940.76,-286.81 926.12,-281.58"/>
<polygon fill="midnightblue" stroke="midnightblue" points="969.82,-300.9 980.42,-300.97 972.18,-294.31 969.82,-300.9"/>
</g>
<!-- Node7 -->
<g id="node7" class="node">
<title>Node7</title>
<g id="a_node7"><a xlink:href="classhttplib_1_1Server.html#affee90a82135504bd0945a22d9bf16f5" target="_top" xlink:title=" ">
<polygon fill="white" stroke="black" points="642,-306.5 642,-325.5 768,-325.5 768,-306.5 642,-306.5"/>
<text text-anchor="middle" x="705" y="-313.5" font-family="Helvetica,sans-Serif" font-size="10.00">httplib::Server::routing</text>
</a>
</g>
</g>
<!-- Node6&#45;&gt;Node7 -->
<g id="edge6" class="edge">
<title>Node6&#45;&gt;Node7</title>
<path fill="none" stroke="midnightblue" d="M800.65,-316C789.92,-316 778.82,-316 768.18,-316"/>
<polygon fill="midnightblue" stroke="midnightblue" points="800.82,-319.5 810.82,-316 800.82,-312.5 800.82,-319.5"/>
</g>
<!-- Node7&#45;&gt;Node3 -->
<g id="edge7" class="edge">
<title>Node7&#45;&gt;Node3</title>
<path fill="none" stroke="midnightblue" d="M657.22,-328.17C639.42,-332.8 618.92,-338.13 600.23,-342.99"/>
<polygon fill="midnightblue" stroke="midnightblue" points="658.56,-331.43 667.35,-325.53 656.79,-324.66 658.56,-331.43"/>
</g>
<!-- Node8&#45;&gt;Node7 -->
<g id="edge9" class="edge">
<title>Node8&#45;&gt;Node7</title>
<path fill="none" stroke="midnightblue" d="M796.53,-284.98C774.37,-292.57 751.15,-300.53 733.77,-306.48"/>
<polygon fill="midnightblue" stroke="midnightblue" points="797.95,-288.19 806.28,-281.64 795.68,-281.57 797.95,-288.19"/>
</g>
<!-- Node10 -->
<g id="node10" class="node">
<title>Node10</title>
<g id="a_node10"><a xlink:href="classhttplib_1_1ClientImpl.html#aaf87765187adb847b44c102643704f3a" target="_top" xlink:title=" ">
<polygon fill="white" stroke="black" points="815.5,-191 815.5,-221 919.5,-221 919.5,-191 815.5,-191"/>
<text text-anchor="start" x="823.5" y="-209" font-family="Helvetica,sans-Serif" font-size="10.00">httplib::ClientImpl</text>
<text text-anchor="middle" x="867.5" y="-198" font-family="Helvetica,sans-Serif" font-size="10.00">::process_request</text>
</a>
</g>
</g>
<!-- Node9&#45;&gt;Node10 -->
<g id="edge11" class="edge">
<title>Node9&#45;&gt;Node10</title>
<path fill="none" stroke="midnightblue" d="M961.3,-224.68C947.47,-221.9 932.92,-218.97 919.56,-216.28"/>
<polygon fill="midnightblue" stroke="midnightblue" points="960.73,-228.14 971.22,-226.68 962.11,-221.27 960.73,-228.14"/>
</g>
<!-- Node11 -->
<g id="node11" class="node">
<title>Node11</title>
<g id="a_node11"><a xlink:href="classhttplib_1_1ClientImpl.html#ac4e30af906067369892520eccd85c038" target="_top" xlink:title=" ">
<polygon fill="white" stroke="black" points="653,-191 653,-221 757,-221 757,-191 653,-191"/>
<text text-anchor="start" x="661" y="-209" font-family="Helvetica,sans-Serif" font-size="10.00">httplib::ClientImpl</text>
<text text-anchor="middle" x="705" y="-198" font-family="Helvetica,sans-Serif" font-size="10.00">::handle_request</text>
</a>
</g>
</g>
<!-- Node10&#45;&gt;Node11 -->
<g id="edge12" class="edge">
<title>Node10&#45;&gt;Node11</title>
<path fill="none" stroke="midnightblue" d="M805.03,-206C789.17,-206 772.28,-206 757.01,-206"/>
<polygon fill="midnightblue" stroke="midnightblue" points="805.28,-209.5 815.28,-206 805.28,-202.5 805.28,-209.5"/>
</g>
<!-- Node12 -->
<g id="node12" class="node">
<title>Node12</title>
<g id="a_node12"><a xlink:href="classhttplib_1_1ClientImpl.html#ab783868da89488b0bf734e8d83b5e569" target="_top" xlink:title=" ">
<polygon fill="white" stroke="black" points="489.5,-199 489.5,-229 593.5,-229 593.5,-199 489.5,-199"/>
<text text-anchor="start" x="497.5" y="-217" font-family="Helvetica,sans-Serif" font-size="10.00">httplib::ClientImpl</text>
<text text-anchor="middle" x="541.5" y="-206" font-family="Helvetica,sans-Serif" font-size="10.00">::send_</text>
</a>
</g>
</g>
<!-- Node11&#45;&gt;Node12 -->
<g id="edge13" class="edge">
<title>Node11&#45;&gt;Node12</title>
<path fill="none" stroke="midnightblue" d="M642.47,-209.05C626.32,-209.85 609.08,-210.7 593.54,-211.47"/>
<polygon fill="midnightblue" stroke="midnightblue" points="643.09,-212.52 652.9,-208.53 642.74,-205.53 643.09,-212.52"/>
</g>
<!-- Node13 -->
<g id="node13" class="node">
<title>Node13</title>
<g id="a_node13"><a xlink:href="classhttplib_1_1ClientImpl.html#a5973f9c3afa13416417fd7a317eb811b" target="_top" xlink:title=" ">
<polygon fill="white" stroke="black" points="324.5,-290 324.5,-320 428.5,-320 428.5,-290 324.5,-290"/>
<text text-anchor="start" x="332.5" y="-308" font-family="Helvetica,sans-Serif" font-size="10.00">httplib::ClientImpl</text>
<text text-anchor="middle" x="376.5" y="-297" font-family="Helvetica,sans-Serif" font-size="10.00">::Delete</text>
</a>
</g>
</g>
<!-- Node12&#45;&gt;Node13 -->
<g id="edge14" class="edge">
<title>Node12&#45;&gt;Node13</title>
<path fill="none" stroke="midnightblue" d="M512.21,-235.09C492.82,-248.96 466.14,-266.9 441,-280 434.17,-283.56 426.72,-286.92 419.39,-289.96"/>
<polygon fill="midnightblue" stroke="midnightblue" points="514.26,-237.93 520.32,-229.23 510.16,-232.25 514.26,-237.93"/>
</g>
<!-- Node14 -->
<g id="node14" class="node">
<title>Node14</title>
<g id="a_node14"><a xlink:href="classhttplib_1_1ClientImpl.html#ad073f1945ddc13fc4778449739430889" target="_top" xlink:title=" ">
<polygon fill="white" stroke="black" points="312.5,-251.5 312.5,-270.5 440.5,-270.5 440.5,-251.5 312.5,-251.5"/>
<text text-anchor="middle" x="376.5" y="-258.5" font-family="Helvetica,sans-Serif" font-size="10.00">httplib::ClientImpl::Get</text>
</a>
</g>
</g>
<!-- Node12&#45;&gt;Node14 -->
<g id="edge15" class="edge">
<title>Node12&#45;&gt;Node14</title>
<path fill="none" stroke="midnightblue" d="M479.51,-231.59C456.1,-238.34 430.28,-245.78 410.47,-251.49"/>
<polygon fill="midnightblue" stroke="midnightblue" points="480.73,-234.88 489.37,-228.74 478.79,-228.15 480.73,-234.88"/>
</g>
<!-- Node15 -->
<g id="node15" class="node">
<title>Node15</title>
<g id="a_node15"><a xlink:href="classhttplib_1_1ClientImpl.html#adf64c589c0334ccd516905484140e0d1" target="_top" xlink:title=" ">
<polygon fill="white" stroke="black" points="324.5,-202 324.5,-232 428.5,-232 428.5,-202 324.5,-202"/>
<text text-anchor="start" x="332.5" y="-220" font-family="Helvetica,sans-Serif" font-size="10.00">httplib::ClientImpl</text>
<text text-anchor="middle" x="376.5" y="-209" font-family="Helvetica,sans-Serif" font-size="10.00">::Head</text>
</a>
</g>
</g>
<!-- Node12&#45;&gt;Node15 -->
<g id="edge16" class="edge">
<title>Node12&#45;&gt;Node15</title>
<path fill="none" stroke="midnightblue" d="M479.2,-215.13C462.57,-215.43 444.74,-215.76 428.73,-216.06"/>
<polygon fill="midnightblue" stroke="midnightblue" points="479.44,-218.62 489.37,-214.94 479.31,-211.63 479.44,-218.62"/>
</g>
<!-- Node16 -->
<g id="node16" class="node">
<title>Node16</title>
<g id="a_node16"><a xlink:href="classhttplib_1_1ClientImpl.html#a0de10ef5e77b7c6cc83674bd86bc2e8a" target="_top" xlink:title=" ">
<polygon fill="white" stroke="black" points="324.5,-153 324.5,-183 428.5,-183 428.5,-153 324.5,-153"/>
<text text-anchor="start" x="332.5" y="-171" font-family="Helvetica,sans-Serif" font-size="10.00">httplib::ClientImpl</text>
<text text-anchor="middle" x="376.5" y="-160" font-family="Helvetica,sans-Serif" font-size="10.00">::Options</text>
</a>
</g>
</g>
<!-- Node12&#45;&gt;Node16 -->
<g id="edge17" class="edge">
<title>Node12&#45;&gt;Node16</title>
<path fill="none" stroke="midnightblue" d="M479.67,-196.83C462.9,-192.1 444.89,-187.02 428.73,-182.46"/>
<polygon fill="midnightblue" stroke="midnightblue" points="478.8,-200.22 489.37,-199.57 480.7,-193.49 478.8,-200.22"/>
</g>
<!-- Node17 -->
<g id="node17" class="node">
<title>Node17</title>
<g id="a_node17"><a xlink:href="classhttplib_1_1ClientImpl.html#a618895e4b137663691fdc41fd998b843" target="_top" xlink:title=" ">
<polygon fill="white" stroke="black" points="324.5,-104 324.5,-134 428.5,-134 428.5,-104 324.5,-104"/>
<text text-anchor="start" x="332.5" y="-122" font-family="Helvetica,sans-Serif" font-size="10.00">httplib::ClientImpl</text>
<text text-anchor="middle" x="376.5" y="-111" font-family="Helvetica,sans-Serif" font-size="10.00">::send</text>
</a>
</g>
</g>
<!-- Node12&#45;&gt;Node17 -->
<g id="edge18" class="edge">
<title>Node12&#45;&gt;Node17</title>
<path fill="none" stroke="midnightblue" d="M512.5,-192.78C488.43,-174.78 455.4,-150.69 441,-143 434.97,-139.78 428.41,-136.79 421.88,-134.08"/>
<polygon fill="midnightblue" stroke="midnightblue" points="510.49,-195.66 520.59,-198.86 514.7,-190.06 510.49,-195.66"/>
</g>
<!-- Node17&#45;&gt;Node11 -->
<g id="edge19" class="edge">
<title>Node17&#45;&gt;Node11</title>
<path fill="none" stroke="midnightblue" d="M438.71,-135.31C500.57,-151.79 595.05,-176.97 652.98,-192.41"/>
<polygon fill="midnightblue" stroke="midnightblue" points="439.26,-131.83 428.7,-132.64 437.46,-138.6 439.26,-131.83"/>
</g>
<!-- Node18 -->
<g id="node18" class="node">
<title>Node18</title>
<g id="a_node18"><a xlink:href="classhttplib_1_1ClientImpl.html#ab81f0f3ff5031d8bb231928318cd95ff" target="_top" xlink:title=" ">
<polygon fill="white" stroke="black" points="167,-132 167,-162 271,-162 271,-132 167,-132"/>
<text text-anchor="start" x="175" y="-150" font-family="Helvetica,sans-Serif" font-size="10.00">httplib::ClientImpl</text>
<text text-anchor="middle" x="219" y="-139" font-family="Helvetica,sans-Serif" font-size="10.00">::send_</text>
</a>
</g>
</g>
<!-- Node17&#45;&gt;Node18 -->
<g id="edge20" class="edge">
<title>Node17&#45;&gt;Node18</title>
<path fill="none" stroke="midnightblue" d="M313.96,-130.08C299.73,-132.64 284.75,-135.34 271.03,-137.81"/>
<polygon fill="midnightblue" stroke="midnightblue" points="314.93,-133.46 324.15,-128.25 313.69,-126.57 314.93,-133.46"/>
</g>
<!-- Node19 -->
<g id="node19" class="node">
<title>Node19</title>
<g id="a_node19"><a xlink:href="classhttplib_1_1ClientImpl.html#ab3169b93b50fca58a21f2db0a2bdea88" target="_top" xlink:title=" ">
<polygon fill="white" stroke="black" points="162,-71.5 162,-112.5 276,-112.5 276,-71.5 162,-71.5"/>
<text text-anchor="start" x="170" y="-100.5" font-family="Helvetica,sans-Serif" font-size="10.00">httplib::ClientImpl</text>
<text text-anchor="start" x="170" y="-89.5" font-family="Helvetica,sans-Serif" font-size="10.00">::send_with_content</text>
<text text-anchor="middle" x="219" y="-78.5" font-family="Helvetica,sans-Serif" font-size="10.00">_provider</text>
</a>
</g>
</g>
<!-- Node17&#45;&gt;Node19 -->
<g id="edge21" class="edge">
<title>Node17&#45;&gt;Node19</title>
<path fill="none" stroke="midnightblue" d="M314.23,-108.36C301.66,-106.18 288.49,-103.89 276.12,-101.74"/>
<polygon fill="midnightblue" stroke="midnightblue" points="313.7,-111.82 324.15,-110.08 314.9,-104.93 313.7,-111.82"/>
</g>
<!-- Node20 -->
<g id="node20" class="node">
<title>Node20</title>
<g id="a_node20"><a xlink:href="classhttplib_1_1ClientImpl.html#ad454e536598fa610080587d8516b5c80" target="_top" xlink:title=" ">
<polygon fill="white" stroke="black" points="11,-148 11,-178 115,-178 115,-148 11,-148"/>
<text text-anchor="start" x="19" y="-166" font-family="Helvetica,sans-Serif" font-size="10.00">httplib::ClientImpl</text>
<text text-anchor="middle" x="63" y="-155" font-family="Helvetica,sans-Serif" font-size="10.00">::Patch</text>
</a>
</g>
</g>
<!-- Node19&#45;&gt;Node20 -->
<g id="edge22" class="edge">
<title>Node19&#45;&gt;Node20</title>
<path fill="none" stroke="midnightblue" d="M169.54,-117.14C155.6,-124.13 140.29,-131.56 126,-138 118.59,-141.34 110.6,-144.72 102.9,-147.87"/>
<polygon fill="midnightblue" stroke="midnightblue" points="171.13,-120.26 178.48,-112.63 167.98,-114.01 171.13,-120.26"/>
</g>
<!-- Node21 -->
<g id="node21" class="node">
<title>Node21</title>
<g id="a_node21"><a xlink:href="classhttplib_1_1ClientImpl.html#a31fe4e8466d44dc45e28d3e68db05e01" target="_top" xlink:title=" ">
<polygon fill="white" stroke="black" points="11,-99 11,-129 115,-129 115,-99 11,-99"/>
<text text-anchor="start" x="19" y="-117" font-family="Helvetica,sans-Serif" font-size="10.00">httplib::ClientImpl</text>
<text text-anchor="middle" x="63" y="-106" font-family="Helvetica,sans-Serif" font-size="10.00">::Post</text>
</a>
</g>
</g>
<!-- Node19&#45;&gt;Node21 -->
<g id="edge23" class="edge">
<title>Node19&#45;&gt;Node21</title>
<path fill="none" stroke="midnightblue" d="M151.78,-101.46C139.51,-103.21 126.87,-105.02 115.13,-106.7"/>
<polygon fill="midnightblue" stroke="midnightblue" points="152.56,-104.88 161.97,-100 151.57,-97.95 152.56,-104.88"/>
</g>
<!-- Node22 -->
<g id="node22" class="node">
<title>Node22</title>
<g id="a_node22"><a xlink:href="classhttplib_1_1ClientImpl.html#a048987c16a2f45382c1bb0d2102e4873" target="_top" xlink:title=" ">
<polygon fill="white" stroke="black" points="0,-60.5 0,-79.5 126,-79.5 126,-60.5 0,-60.5"/>
<text text-anchor="middle" x="63" y="-67.5" font-family="Helvetica,sans-Serif" font-size="10.00">httplib::ClientImpl::Put</text>
</a>
</g>
</g>
<!-- Node19&#45;&gt;Node22 -->
<g id="edge24" class="edge">
<title>Node19&#45;&gt;Node22</title>
<path fill="none" stroke="midnightblue" d="M152.03,-82.58C143.48,-81.35 134.73,-80.1 126.24,-78.89"/>
<polygon fill="midnightblue" stroke="midnightblue" points="151.57,-86.05 161.97,-84 152.56,-79.12 151.57,-86.05"/>
</g>
<!-- Node23 -->
<g id="node23" class="node">
<title>Node23</title>
<g id="a_node23"><a xlink:href="classhttplib_1_1ClientImpl.html#ac9d400990790ff3aa7f3639392181ddb" target="_top" xlink:title=" ">
<polygon fill="white" stroke="black" points="6,-0.5 6,-41.5 120,-41.5 120,-0.5 6,-0.5"/>
<text text-anchor="start" x="14" y="-29.5" font-family="Helvetica,sans-Serif" font-size="10.00">httplib::ClientImpl</text>
<text text-anchor="start" x="14" y="-18.5" font-family="Helvetica,sans-Serif" font-size="10.00">::send_with_content</text>
<text text-anchor="middle" x="63" y="-7.5" font-family="Helvetica,sans-Serif" font-size="10.00">_provider</text>
</a>
</g>
</g>
<!-- Node19&#45;&gt;Node23 -->
<g id="edge25" class="edge">
<title>Node19&#45;&gt;Node23</title>
<path fill="none" stroke="midnightblue" d="M164.18,-67.19C146.06,-58.83 126.05,-49.61 108.71,-41.61"/>
<polygon fill="midnightblue" stroke="midnightblue" points="162.91,-70.46 173.46,-71.46 165.84,-64.1 162.91,-70.46"/>
</g>
</g>
</svg>
        <g id="navigator" transform="translate(0 0)" fill="#404254">
                <rect fill="#f2f5e9" fill-opacity="0.5" stroke="#606060" stroke-width=".5" x="0" y="0" width="60" height="60"/>
                <use id="zoomplus" xlink:href="#zoomPlus" x="17" y="9" onmousedown="handleZoom(evt,'in')"/>
                <use id="zoomminus" xlink:href="#zoomMin" x="42" y="9" onmousedown="handleZoom(evt,'out')"/>
                <use id="reset" xlink:href="#resetDef" x="30" y="36" onmousedown="handleReset()"/>
                <g id="arrowUp" xlink:href="#dirArrow" transform="translate(30 24)" onmousedown="handlePan(0,-1)">
                  <use xlink:href="#rim" fill="#404040">
                        <set attributeName="fill" to="#808080" begin="arrowUp.mouseover" end="arrowUp.mouseout"/>
                  </use>
                  <path fill="none" stroke="white" stroke-width="1.5" d="M0,-3.0v7 M-2.5,-0.5L0,-3.0L2.5,-0.5"/>
                </g>
                <g id="arrowRight" xlink:href="#dirArrow" transform="rotate(90) translate(36 -43)" onmousedown="handlePan(1,0)">
                  <use xlink:href="#rim" fill="#404040">
                        <set attributeName="fill" to="#808080" begin="arrowRight.mouseover" end="arrowRight.mouseout"/>
                  </use>
                  <path fill="none" stroke="white" stroke-width="1.5" d="M0,-3.0v7 M-2.5,-0.5L0,-3.0L2.5,-0.5"/>
                </g>
                <g id="arrowDown" xlink:href="#dirArrow" transform="rotate(180) translate(-30 -48)" onmousedown="handlePan(0,1)">
                  <use xlink:href="#rim" fill="#404040">
                        <set attributeName="fill" to="#808080" begin="arrowDown.mouseover" end="arrowDown.mouseout"/>
                  </use>
                  <path fill="none" stroke="white" stroke-width="1.5" d="M0,-3.0v7 M-2.5,-0.5L0,-3.0L2.5,-0.5"/>
                </g>
                <g id="arrowLeft" xlink:href="#dirArrow" transform="rotate(270) translate(-36 17)" onmousedown="handlePan(-1,0)">
                  <use xlink:href="#rim" fill="#404040">
                        <set attributeName="fill" to="#808080" begin="arrowLeft.mouseover" end="arrowLeft.mouseout"/>
                  </use>
                  <path fill="none" stroke="white" stroke-width="1.5" d="M0,-3.0v7 M-2.5,-0.5L0,-3.0L2.5,-0.5"/>
                </g>
        </g>
        <svg viewBox="0 0 15 15" width="100%" height="30px" preserveAspectRatio="xMaxYMin meet">
         <g id="arrow_out" transform="scale(0.3 0.3)">
          <a xlink:href="structhttplib_1_1Request_a15426727f1b20cfc4e021e97012ed541_icgraph_org.svg" target="_base">
           <rect id="button" ry="5" rx="5" y="6" x="6" height="38" width="38"
                fill="#f2f5e9" fill-opacity="0.5" stroke="#606060" stroke-width="1.0"/>
           <path id="arrow"
             d="M 11.500037,31.436501 C 11.940474,20.09759 22.043105,11.32322 32.158766,21.979434 L 37.068811,17.246167 C 37.068811,17.246167 37.088388,32 37.088388,32 L 22.160133,31.978069 C 22.160133,31.978069 26.997745,27.140456 26.997745,27.140456 C 18.528582,18.264221 13.291696,25.230495 11.500037,31.436501 z"
             style="fill:#404040;"/>
          </a>
         </g>
        </svg>
</svg>
