<?xml version="1.0" encoding="UTF-8" standalone="no"?>
<!DOCTYPE svg PUBLIC "-//W3C//DTD SVG 1.1//EN"
 "http://www.w3.org/Graphics/SVG/1.1/DTD/svg11.dtd">
<!-- Generated by graphviz version 2.43.0 (0)
 -->
<!-- Title: nlohmann::detail::make_index_sequence&lt; 0 &gt; Pages: 1 -->
<svg width="140pt" height="193pt"
 viewBox="0.00 0.00 140.00 193.00" xmlns="http://www.w3.org/2000/svg" xmlns:xlink="http://www.w3.org/1999/xlink">
<g id="graph0" class="graph" transform="scale(1 1) rotate(0) translate(4 189)">
<title>nlohmann::detail::make_index_sequence&lt; 0 &gt;</title>
<polygon fill="white" stroke="transparent" points="-4,4 -4,-189 136,-189 136,4 -4,4"/>
<!-- Node1 -->
<g id="node1" class="node">
<title>Node1</title>
<g id="a_node1"><a xlink:title=" ">
<polygon fill="#bfbfbf" stroke="black" points="0,-0.5 0,-68.5 132,-68.5 132,-0.5 0,-0.5"/>
<text text-anchor="start" x="8" y="-56.5" font-family="Helvetica,sans-Serif" font-size="10.00">nlohmann::detail::make</text>
<text text-anchor="middle" x="66" y="-45.5" font-family="Helvetica,sans-Serif" font-size="10.00">_index_sequence&lt; 0 &gt;</text>
<polyline fill="none" stroke="black" points="0,-38.5 132,-38.5 "/>
<text text-anchor="middle" x="66" y="-26.5" font-family="Helvetica,sans-Serif" font-size="10.00"> </text>
<polyline fill="none" stroke="black" points="0,-19.5 132,-19.5 "/>
<text text-anchor="middle" x="66" y="-7.5" font-family="Helvetica,sans-Serif" font-size="10.00"> </text>
</a>
</g>
</g>
<!-- Node2 -->
<g id="node2" class="node">
<title>Node2</title>
<g id="a_node2"><a xlink:href="structnlohmann_1_1detail_1_1index__sequence.html" target="_top" xlink:title=" ">
<polygon fill="white" stroke="black" points="0,-105.5 0,-184.5 132,-184.5 132,-105.5 0,-105.5"/>
<text text-anchor="start" x="8" y="-172.5" font-family="Helvetica,sans-Serif" font-size="10.00">nlohmann::detail::index</text>
<text text-anchor="middle" x="66" y="-161.5" font-family="Helvetica,sans-Serif" font-size="10.00">_sequence&lt;&gt;</text>
<polyline fill="none" stroke="black" points="0,-154.5 132,-154.5 "/>
<text text-anchor="middle" x="66" y="-142.5" font-family="Helvetica,sans-Serif" font-size="10.00"> </text>
<polyline fill="none" stroke="black" points="0,-135.5 132,-135.5 "/>
<text text-anchor="start" x="8" y="-123.5" font-family="Helvetica,sans-Serif" font-size="10.00">+ size()</text>
<text text-anchor="start" x="8" y="-112.5" font-family="Helvetica,sans-Serif" font-size="10.00">+ size()</text>
</a>
</g>
</g>
<!-- Node2&#45;&gt;Node1 -->
<g id="edge1" class="edge">
<title>Node2&#45;&gt;Node1</title>
<path fill="none" stroke="midnightblue" d="M66,-95.35C66,-86.28 66,-77 66,-68.54"/>
<polygon fill="none" stroke="midnightblue" points="62.5,-95.44 66,-105.44 69.5,-95.44 62.5,-95.44"/>
</g>
</g>
</svg>
