<?xml version="1.0" encoding="UTF-8" standalone="no"?>
<!DOCTYPE svg PUBLIC "-//W3C//DTD SVG 1.1//EN"
 "http://www.w3.org/Graphics/SVG/1.1/DTD/svg11.dtd">
<!-- Generated by graphviz version 2.43.0 (0)
 -->
<!-- Title: doctest::TestCaseData Pages: 1 -->
<svg width="144pt" height="347pt"
 viewBox="0.00 0.00 144.00 347.00" xmlns="http://www.w3.org/2000/svg" xmlns:xlink="http://www.w3.org/1999/xlink">
<g id="graph0" class="graph" transform="scale(1 1) rotate(0) translate(4 343)">
<title>doctest::TestCaseData</title>
<polygon fill="white" stroke="transparent" points="-4,4 -4,-343 140,-343 140,4 -4,4"/>
<!-- Node1 -->
<g id="node1" class="node">
<title>Node1</title>
<g id="a_node1"><a xlink:title=" ">
<polygon fill="#bfbfbf" stroke="black" points="3,-182.5 3,-338.5 133,-338.5 133,-182.5 3,-182.5"/>
<text text-anchor="middle" x="68" y="-326.5" font-family="Helvetica,sans-Serif" font-size="10.00">doctest::TestCaseData</text>
<polyline fill="none" stroke="black" points="3,-319.5 133,-319.5 "/>
<text text-anchor="start" x="11" y="-307.5" font-family="Helvetica,sans-Serif" font-size="10.00">+ m_file</text>
<text text-anchor="start" x="11" y="-296.5" font-family="Helvetica,sans-Serif" font-size="10.00">+ m_line</text>
<text text-anchor="start" x="11" y="-285.5" font-family="Helvetica,sans-Serif" font-size="10.00">+ m_name</text>
<text text-anchor="start" x="11" y="-274.5" font-family="Helvetica,sans-Serif" font-size="10.00">+ m_test_suite</text>
<text text-anchor="start" x="11" y="-263.5" font-family="Helvetica,sans-Serif" font-size="10.00">+ m_description</text>
<text text-anchor="start" x="11" y="-252.5" font-family="Helvetica,sans-Serif" font-size="10.00">+ m_skip</text>
<text text-anchor="start" x="11" y="-241.5" font-family="Helvetica,sans-Serif" font-size="10.00">+ m_may_fail</text>
<text text-anchor="start" x="11" y="-230.5" font-family="Helvetica,sans-Serif" font-size="10.00">+ m_should_fail</text>
<text text-anchor="start" x="11" y="-219.5" font-family="Helvetica,sans-Serif" font-size="10.00">+ m_expected_failures</text>
<text text-anchor="start" x="11" y="-208.5" font-family="Helvetica,sans-Serif" font-size="10.00">+ m_timeout</text>
<polyline fill="none" stroke="black" points="3,-201.5 133,-201.5 "/>
<text text-anchor="middle" x="68" y="-189.5" font-family="Helvetica,sans-Serif" font-size="10.00"> </text>
</a>
</g>
</g>
<!-- Node2 -->
<g id="node2" class="node">
<title>Node2</title>
<g id="a_node2"><a xlink:href="structdoctest_1_1detail_1_1TestCase.html" target="_top" xlink:title=" ">
<polygon fill="white" stroke="black" points="0,-0.5 0,-145.5 136,-145.5 136,-0.5 0,-0.5"/>
<text text-anchor="middle" x="68" y="-133.5" font-family="Helvetica,sans-Serif" font-size="10.00">doctest::detail::TestCase</text>
<polyline fill="none" stroke="black" points="0,-126.5 136,-126.5 "/>
<text text-anchor="start" x="8" y="-114.5" font-family="Helvetica,sans-Serif" font-size="10.00">+ m_test</text>
<text text-anchor="start" x="8" y="-103.5" font-family="Helvetica,sans-Serif" font-size="10.00">+ m_type</text>
<text text-anchor="start" x="8" y="-92.5" font-family="Helvetica,sans-Serif" font-size="10.00">+ m_template_id</text>
<text text-anchor="start" x="8" y="-81.5" font-family="Helvetica,sans-Serif" font-size="10.00">+ m_full_name</text>
<polyline fill="none" stroke="black" points="0,-74.5 136,-74.5 "/>
<text text-anchor="start" x="8" y="-62.5" font-family="Helvetica,sans-Serif" font-size="10.00">+ TestCase()</text>
<text text-anchor="start" x="8" y="-51.5" font-family="Helvetica,sans-Serif" font-size="10.00">+ TestCase()</text>
<text text-anchor="start" x="8" y="-40.5" font-family="Helvetica,sans-Serif" font-size="10.00">+ operator=()</text>
<text text-anchor="start" x="8" y="-29.5" font-family="Helvetica,sans-Serif" font-size="10.00">+ operator*()</text>
<text text-anchor="start" x="8" y="-18.5" font-family="Helvetica,sans-Serif" font-size="10.00">+ operator*()</text>
<text text-anchor="start" x="8" y="-7.5" font-family="Helvetica,sans-Serif" font-size="10.00">+ operator&lt;()</text>
</a>
</g>
</g>
<!-- Node1&#45;&gt;Node2 -->
<g id="edge1" class="edge">
<title>Node1&#45;&gt;Node2</title>
<path fill="none" stroke="midnightblue" d="M68,-172.42C68,-163.49 68,-154.5 68,-145.77"/>
<polygon fill="none" stroke="midnightblue" points="64.5,-172.44 68,-182.44 71.5,-172.44 64.5,-172.44"/>
</g>
</g>
</svg>
