<?xml version="1.0" encoding="UTF-8" standalone="no"?>
<!DOCTYPE svg PUBLIC "-//W3C//DTD SVG 1.1//EN"
 "http://www.w3.org/Graphics/SVG/1.1/DTD/svg11.dtd">
<!-- Generated by graphviz version 2.43.0 (0)
 -->
<!-- Title: httplib::Response::get_header_value Pages: 1 -->
<svg width="1291pt" height="388pt"
 viewBox="0.00 0.00 1291.00 387.50" xmlns="http://www.w3.org/2000/svg" xmlns:xlink="http://www.w3.org/1999/xlink">
<g id="graph0" class="graph" transform="scale(1 1) rotate(0) translate(4 383.5)">
<title>httplib::Response::get_header_value</title>
<polygon fill="white" stroke="transparent" points="-4,4 -4,-383.5 1287,-383.5 1287,4 -4,4"/>
<!-- Node1 -->
<g id="node1" class="node">
<title>Node1</title>
<g id="a_node1"><a xlink:title=" ">
<polygon fill="#bfbfbf" stroke="black" points="1176,-212 1176,-242 1283,-242 1283,-212 1176,-212"/>
<text text-anchor="start" x="1184" y="-230" font-family="Helvetica,sans-Serif" font-size="10.00">httplib::Response::</text>
<text text-anchor="middle" x="1229.5" y="-219" font-family="Helvetica,sans-Serif" font-size="10.00">get_header_value</text>
</a>
</g>
</g>
<!-- Node2 -->
<g id="node2" class="node">
<title>Node2</title>
<g id="a_node2"><a xlink:href="namespacehttplib_1_1detail.html#ab3d7a73532e427696847a2c77090729d" target="_top" xlink:title=" ">
<polygon fill="white" stroke="black" points="981,-283.5 981,-302.5 1140,-302.5 1140,-283.5 981,-283.5"/>
<text text-anchor="middle" x="1060.5" y="-290.5" font-family="Helvetica,sans-Serif" font-size="10.00">httplib::detail::encoding_type</text>
</a>
</g>
</g>
<!-- Node1&#45;&gt;Node2 -->
<g id="edge1" class="edge">
<title>Node1&#45;&gt;Node2</title>
<path fill="none" stroke="midnightblue" d="M1182.33,-246C1168.72,-251.54 1153.78,-257.56 1140,-263 1122.36,-269.96 1102.39,-277.59 1087.01,-283.41"/>
<polygon fill="midnightblue" stroke="midnightblue" points="1184.03,-249.08 1191.97,-242.06 1181.39,-242.6 1184.03,-249.08"/>
</g>
<!-- Node10 -->
<g id="node10" class="node">
<title>Node10</title>
<g id="a_node10"><a xlink:href="classhttplib_1_1ClientImpl.html#ac4e30af906067369892520eccd85c038" target="_top" xlink:title=" ">
<polygon fill="white" stroke="black" points="668,-159 668,-189 772,-189 772,-159 668,-159"/>
<text text-anchor="start" x="676" y="-177" font-family="Helvetica,sans-Serif" font-size="10.00">httplib::ClientImpl</text>
<text text-anchor="middle" x="720" y="-166" font-family="Helvetica,sans-Serif" font-size="10.00">::handle_request</text>
</a>
</g>
</g>
<!-- Node1&#45;&gt;Node10 -->
<g id="edge11" class="edge">
<title>Node1&#45;&gt;Node10</title>
<path fill="none" stroke="midnightblue" d="M1165.61,-229.39C1157.01,-229.65 1148.29,-229.86 1140,-230 1069.34,-231.2 1051.42,-235.86 981,-230 906,-223.76 887.29,-219.1 814,-202 798.56,-198.4 781.93,-193.67 767.05,-189.12"/>
<polygon fill="midnightblue" stroke="midnightblue" points="1165.74,-232.89 1175.63,-229.09 1165.52,-225.9 1165.74,-232.89"/>
</g>
<!-- Node23 -->
<g id="node23" class="node">
<title>Node23</title>
<g id="a_node23"><a xlink:href="namespacehttplib_1_1detail.html#a1852c9e2cbefaa5869d2a1a7c95ddb82" target="_top" xlink:title=" ">
<polygon fill="white" stroke="black" points="1003,-190 1003,-220 1118,-220 1118,-190 1003,-190"/>
<text text-anchor="start" x="1011" y="-208" font-family="Helvetica,sans-Serif" font-size="10.00">httplib::detail::parse</text>
<text text-anchor="middle" x="1060.5" y="-197" font-family="Helvetica,sans-Serif" font-size="10.00">_www_authenticate</text>
</a>
</g>
</g>
<!-- Node1&#45;&gt;Node23 -->
<g id="edge25" class="edge">
<title>Node1&#45;&gt;Node23</title>
<path fill="none" stroke="midnightblue" d="M1165.57,-218.71C1149.96,-216.65 1133.32,-214.46 1118.04,-212.45"/>
<polygon fill="midnightblue" stroke="midnightblue" points="1165.29,-222.2 1175.66,-220.04 1166.2,-215.26 1165.29,-222.2"/>
</g>
<!-- Node24 -->
<g id="node24" class="node">
<title>Node24</title>
<g id="a_node24"><a xlink:href="classhttplib_1_1ClientImpl.html#abb62c3620df77b2acedc94ae161b21f5" target="_top" xlink:title=" ">
<polygon fill="white" stroke="black" points="1008.5,-141 1008.5,-171 1112.5,-171 1112.5,-141 1008.5,-141"/>
<text text-anchor="start" x="1016.5" y="-159" font-family="Helvetica,sans-Serif" font-size="10.00">httplib::ClientImpl</text>
<text text-anchor="middle" x="1060.5" y="-148" font-family="Helvetica,sans-Serif" font-size="10.00">::redirect</text>
</a>
</g>
</g>
<!-- Node1&#45;&gt;Node24 -->
<g id="edge27" class="edge">
<title>Node1&#45;&gt;Node24</title>
<path fill="none" stroke="midnightblue" d="M1193.36,-206.97C1177.38,-198.33 1158.05,-188.5 1140,-181 1131.28,-177.38 1121.84,-173.96 1112.63,-170.89"/>
<polygon fill="midnightblue" stroke="midnightblue" points="1191.89,-210.16 1202.34,-211.9 1195.26,-204.02 1191.89,-210.16"/>
</g>
<!-- Node3 -->
<g id="node3" class="node">
<title>Node3</title>
<g id="a_node3"><a xlink:href="classhttplib_1_1Server.html#a57867122abf5979387bc3b704f877752" target="_top" xlink:title=" ">
<polygon fill="white" stroke="black" points="820,-327 820,-357 939,-357 939,-327 820,-327"/>
<text text-anchor="start" x="828" y="-345" font-family="Helvetica,sans-Serif" font-size="10.00">httplib::Server::apply</text>
<text text-anchor="middle" x="879.5" y="-334" font-family="Helvetica,sans-Serif" font-size="10.00">_ranges</text>
</a>
</g>
</g>
<!-- Node2&#45;&gt;Node3 -->
<g id="edge2" class="edge">
<title>Node2&#45;&gt;Node3</title>
<path fill="none" stroke="midnightblue" d="M1014.65,-305.28C990.63,-311.85 960.83,-320.01 935.43,-326.96"/>
<polygon fill="midnightblue" stroke="midnightblue" points="1015.84,-308.58 1024.56,-302.56 1013.99,-301.83 1015.84,-308.58"/>
</g>
<!-- Node9 -->
<g id="node9" class="node">
<title>Node9</title>
<g id="a_node9"><a xlink:href="classhttplib_1_1Server.html#aef004bcdc946af56186dd226442691d4" target="_top" xlink:title=" ">
<polygon fill="white" stroke="black" points="814,-278 814,-308 945,-308 945,-278 814,-278"/>
<text text-anchor="start" x="822" y="-296" font-family="Helvetica,sans-Serif" font-size="10.00">httplib::Server::write</text>
<text text-anchor="middle" x="879.5" y="-285" font-family="Helvetica,sans-Serif" font-size="10.00">_content_with_provider</text>
</a>
</g>
</g>
<!-- Node2&#45;&gt;Node9 -->
<g id="edge9" class="edge">
<title>Node2&#45;&gt;Node9</title>
<path fill="none" stroke="midnightblue" d="M970.88,-293C962.25,-293 953.6,-293 945.27,-293"/>
<polygon fill="midnightblue" stroke="midnightblue" points="970.99,-296.5 980.99,-293 970.99,-289.5 970.99,-296.5"/>
</g>
<!-- Node4 -->
<g id="node4" class="node">
<title>Node4</title>
<g id="a_node4"><a xlink:href="classhttplib_1_1Server.html#a01c6136577d21b708780a9e42de992d6" target="_top" xlink:title=" ">
<polygon fill="white" stroke="black" points="662,-302 662,-332 778,-332 778,-302 662,-302"/>
<text text-anchor="start" x="670" y="-320" font-family="Helvetica,sans-Serif" font-size="10.00">httplib::Server::write</text>
<text text-anchor="middle" x="720" y="-309" font-family="Helvetica,sans-Serif" font-size="10.00">_response_core</text>
</a>
</g>
</g>
<!-- Node3&#45;&gt;Node4 -->
<g id="edge3" class="edge">
<title>Node3&#45;&gt;Node4</title>
<path fill="none" stroke="midnightblue" d="M809.81,-331.1C799.24,-329.42 788.41,-327.7 778.13,-326.07"/>
<polygon fill="midnightblue" stroke="midnightblue" points="809.43,-334.58 819.85,-332.69 810.53,-327.67 809.43,-334.58"/>
</g>
<!-- Node5 -->
<g id="node5" class="node">
<title>Node5</title>
<g id="a_node5"><a xlink:href="classhttplib_1_1Server.html#a61f782f1492b13d525ddec03b2412797" target="_top" xlink:title=" ">
<polygon fill="white" stroke="black" points="501,-349 501,-379 617,-379 617,-349 501,-349"/>
<text text-anchor="start" x="509" y="-367" font-family="Helvetica,sans-Serif" font-size="10.00">httplib::Server::write</text>
<text text-anchor="middle" x="559" y="-356" font-family="Helvetica,sans-Serif" font-size="10.00">_response</text>
</a>
</g>
</g>
<!-- Node4&#45;&gt;Node5 -->
<g id="edge4" class="edge">
<title>Node4&#45;&gt;Node5</title>
<path fill="none" stroke="midnightblue" d="M658.6,-334.85C642.84,-339.51 626.02,-344.49 610.81,-348.98"/>
<polygon fill="midnightblue" stroke="midnightblue" points="659.66,-338.19 668.25,-332 657.67,-331.48 659.66,-338.19"/>
</g>
<!-- Node8 -->
<g id="node8" class="node">
<title>Node8</title>
<g id="a_node8"><a xlink:href="classhttplib_1_1Server.html#a1e7f1269fb97140ed003e6e1f64210c1" target="_top" xlink:title=" ">
<polygon fill="white" stroke="black" points="492,-300 492,-330 626,-330 626,-300 492,-300"/>
<text text-anchor="start" x="500" y="-318" font-family="Helvetica,sans-Serif" font-size="10.00">httplib::Server::write</text>
<text text-anchor="middle" x="559" y="-307" font-family="Helvetica,sans-Serif" font-size="10.00">_response_with_content</text>
</a>
</g>
</g>
<!-- Node4&#45;&gt;Node8 -->
<g id="edge7" class="edge">
<title>Node4&#45;&gt;Node8</title>
<path fill="none" stroke="midnightblue" d="M651.5,-316.15C643.14,-316.05 634.59,-315.94 626.24,-315.83"/>
<polygon fill="midnightblue" stroke="midnightblue" points="651.55,-319.65 661.6,-316.28 651.64,-312.65 651.55,-319.65"/>
</g>
<!-- Node6 -->
<g id="node6" class="node">
<title>Node6</title>
<g id="a_node6"><a xlink:href="classhttplib_1_1Server.html#a4e7c7c79cced3d61082df30b3eb97ed2" target="_top" xlink:title=" ">
<polygon fill="white" stroke="black" points="327,-348 327,-378 456,-378 456,-348 327,-348"/>
<text text-anchor="start" x="335" y="-366" font-family="Helvetica,sans-Serif" font-size="10.00">httplib::Server::process</text>
<text text-anchor="middle" x="391.5" y="-355" font-family="Helvetica,sans-Serif" font-size="10.00">_request</text>
</a>
</g>
</g>
<!-- Node5&#45;&gt;Node6 -->
<g id="edge5" class="edge">
<title>Node5&#45;&gt;Node6</title>
<path fill="none" stroke="midnightblue" d="M490.31,-363.59C478.98,-363.52 467.26,-363.45 456.04,-363.38"/>
<polygon fill="midnightblue" stroke="midnightblue" points="490.56,-367.09 500.58,-363.65 490.6,-360.09 490.56,-367.09"/>
</g>
<!-- Node7 -->
<g id="node7" class="node">
<title>Node7</title>
<g id="a_node7"><a xlink:href="classhttplib_1_1Server.html#a28221db99b5a35e45515553fdb9458a0" target="_top" xlink:title=" ">
<polygon fill="white" stroke="black" points="162,-348 162,-378 291,-378 291,-348 162,-348"/>
<text text-anchor="start" x="170" y="-366" font-family="Helvetica,sans-Serif" font-size="10.00">httplib::Server::process</text>
<text text-anchor="middle" x="226.5" y="-355" font-family="Helvetica,sans-Serif" font-size="10.00">_and_close_socket</text>
</a>
</g>
</g>
<!-- Node6&#45;&gt;Node7 -->
<g id="edge6" class="edge">
<title>Node6&#45;&gt;Node7</title>
<path fill="none" stroke="midnightblue" d="M316.31,-363C307.86,-363 299.3,-363 291,-363"/>
<polygon fill="midnightblue" stroke="midnightblue" points="316.55,-366.5 326.55,-363 316.55,-359.5 316.55,-366.5"/>
</g>
<!-- Node8&#45;&gt;Node6 -->
<g id="edge8" class="edge">
<title>Node8&#45;&gt;Node6</title>
<path fill="none" stroke="midnightblue" d="M496.19,-332.93C479.08,-337.89 460.7,-343.22 444.23,-348"/>
<polygon fill="midnightblue" stroke="midnightblue" points="497.46,-336.2 506.09,-330.06 495.51,-329.48 497.46,-336.2"/>
</g>
<!-- Node9&#45;&gt;Node4 -->
<g id="edge10" class="edge">
<title>Node9&#45;&gt;Node4</title>
<path fill="none" stroke="midnightblue" d="M803.87,-304.37C795.2,-305.69 786.47,-307.02 778.09,-308.3"/>
<polygon fill="midnightblue" stroke="midnightblue" points="804.63,-307.8 813.98,-302.83 803.57,-300.88 804.63,-307.8"/>
</g>
<!-- Node11 -->
<g id="node11" class="node">
<title>Node11</title>
<g id="a_node11"><a xlink:href="classhttplib_1_1ClientImpl.html#ab783868da89488b0bf734e8d83b5e569" target="_top" xlink:title=" ">
<polygon fill="white" stroke="black" points="507,-176 507,-206 611,-206 611,-176 507,-176"/>
<text text-anchor="start" x="515" y="-194" font-family="Helvetica,sans-Serif" font-size="10.00">httplib::ClientImpl</text>
<text text-anchor="middle" x="559" y="-183" font-family="Helvetica,sans-Serif" font-size="10.00">::send_</text>
</a>
</g>
</g>
<!-- Node10&#45;&gt;Node11 -->
<g id="edge12" class="edge">
<title>Node10&#45;&gt;Node11</title>
<path fill="none" stroke="midnightblue" d="M657.84,-180.54C642.39,-182.19 625.98,-183.95 611.09,-185.54"/>
<polygon fill="midnightblue" stroke="midnightblue" points="658.24,-184.02 667.82,-179.47 657.5,-177.06 658.24,-184.02"/>
</g>
<!-- Node12 -->
<g id="node12" class="node">
<title>Node12</title>
<g id="a_node12"><a xlink:href="classhttplib_1_1ClientImpl.html#a5973f9c3afa13416417fd7a317eb811b" target="_top" xlink:title=" ">
<polygon fill="white" stroke="black" points="339.5,-290 339.5,-320 443.5,-320 443.5,-290 339.5,-290"/>
<text text-anchor="start" x="347.5" y="-308" font-family="Helvetica,sans-Serif" font-size="10.00">httplib::ClientImpl</text>
<text text-anchor="middle" x="391.5" y="-297" font-family="Helvetica,sans-Serif" font-size="10.00">::Delete</text>
</a>
</g>
</g>
<!-- Node11&#45;&gt;Node12 -->
<g id="edge13" class="edge">
<title>Node11&#45;&gt;Node12</title>
<path fill="none" stroke="midnightblue" d="M536.91,-213.32C517.4,-232.95 486.85,-261.25 456,-280 449.93,-283.69 443.21,-287.03 436.49,-289.97"/>
<polygon fill="midnightblue" stroke="midnightblue" points="539.57,-215.6 544.06,-206.01 534.57,-210.71 539.57,-215.6"/>
</g>
<!-- Node13 -->
<g id="node13" class="node">
<title>Node13</title>
<g id="a_node13"><a xlink:href="classhttplib_1_1ClientImpl.html#ad073f1945ddc13fc4778449739430889" target="_top" xlink:title=" ">
<polygon fill="white" stroke="black" points="327.5,-251.5 327.5,-270.5 455.5,-270.5 455.5,-251.5 327.5,-251.5"/>
<text text-anchor="middle" x="391.5" y="-258.5" font-family="Helvetica,sans-Serif" font-size="10.00">httplib::ClientImpl::Get</text>
</a>
</g>
</g>
<!-- Node11&#45;&gt;Node13 -->
<g id="edge14" class="edge">
<title>Node11&#45;&gt;Node13</title>
<path fill="none" stroke="midnightblue" d="M521.89,-210.97C502.69,-221.1 478.46,-233.1 456,-242 447.23,-245.48 437.56,-248.67 428.47,-251.42"/>
<polygon fill="midnightblue" stroke="midnightblue" points="523.71,-213.97 530.88,-206.17 520.41,-207.79 523.71,-213.97"/>
</g>
<!-- Node14 -->
<g id="node14" class="node">
<title>Node14</title>
<g id="a_node14"><a xlink:href="classhttplib_1_1ClientImpl.html#adf64c589c0334ccd516905484140e0d1" target="_top" xlink:title=" ">
<polygon fill="white" stroke="black" points="339.5,-202 339.5,-232 443.5,-232 443.5,-202 339.5,-202"/>
<text text-anchor="start" x="347.5" y="-220" font-family="Helvetica,sans-Serif" font-size="10.00">httplib::ClientImpl</text>
<text text-anchor="middle" x="391.5" y="-209" font-family="Helvetica,sans-Serif" font-size="10.00">::Head</text>
</a>
</g>
</g>
<!-- Node11&#45;&gt;Node14 -->
<g id="edge15" class="edge">
<title>Node11&#45;&gt;Node14</title>
<path fill="none" stroke="midnightblue" d="M496.87,-200.6C479.36,-203.35 460.46,-206.32 443.62,-208.97"/>
<polygon fill="midnightblue" stroke="midnightblue" points="497.66,-204.02 506.99,-199.01 496.57,-197.11 497.66,-204.02"/>
</g>
<!-- Node15 -->
<g id="node15" class="node">
<title>Node15</title>
<g id="a_node15"><a xlink:href="classhttplib_1_1ClientImpl.html#a0de10ef5e77b7c6cc83674bd86bc2e8a" target="_top" xlink:title=" ">
<polygon fill="white" stroke="black" points="339.5,-153 339.5,-183 443.5,-183 443.5,-153 339.5,-153"/>
<text text-anchor="start" x="347.5" y="-171" font-family="Helvetica,sans-Serif" font-size="10.00">httplib::ClientImpl</text>
<text text-anchor="middle" x="391.5" y="-160" font-family="Helvetica,sans-Serif" font-size="10.00">::Options</text>
</a>
</g>
</g>
<!-- Node11&#45;&gt;Node15 -->
<g id="edge16" class="edge">
<title>Node11&#45;&gt;Node15</title>
<path fill="none" stroke="midnightblue" d="M496.87,-182.5C479.36,-180.07 460.46,-177.45 443.62,-175.1"/>
<polygon fill="midnightblue" stroke="midnightblue" points="496.61,-186 506.99,-183.91 497.57,-179.07 496.61,-186"/>
</g>
<!-- Node16 -->
<g id="node16" class="node">
<title>Node16</title>
<g id="a_node16"><a xlink:href="classhttplib_1_1ClientImpl.html#a618895e4b137663691fdc41fd998b843" target="_top" xlink:title=" ">
<polygon fill="white" stroke="black" points="339.5,-104 339.5,-134 443.5,-134 443.5,-104 339.5,-104"/>
<text text-anchor="start" x="347.5" y="-122" font-family="Helvetica,sans-Serif" font-size="10.00">httplib::ClientImpl</text>
<text text-anchor="middle" x="391.5" y="-111" font-family="Helvetica,sans-Serif" font-size="10.00">::send</text>
</a>
</g>
</g>
<!-- Node11&#45;&gt;Node16 -->
<g id="edge17" class="edge">
<title>Node11&#45;&gt;Node16</title>
<path fill="none" stroke="midnightblue" d="M518.36,-171.46C499.61,-162.44 476.81,-151.81 456,-143 448.84,-139.97 441.15,-136.9 433.68,-134.02"/>
<polygon fill="midnightblue" stroke="midnightblue" points="516.96,-174.67 527.49,-175.87 520.01,-168.37 516.96,-174.67"/>
</g>
<!-- Node16&#45;&gt;Node10 -->
<g id="edge18" class="edge">
<title>Node16&#45;&gt;Node10</title>
<path fill="none" stroke="midnightblue" d="M453.71,-129.31C515.57,-139.73 610.05,-155.65 667.98,-165.41"/>
<polygon fill="midnightblue" stroke="midnightblue" points="454.14,-125.83 443.7,-127.62 452.97,-132.74 454.14,-125.83"/>
</g>
<!-- Node17 -->
<g id="node17" class="node">
<title>Node17</title>
<g id="a_node17"><a xlink:href="classhttplib_1_1ClientImpl.html#ab81f0f3ff5031d8bb231928318cd95ff" target="_top" xlink:title=" ">
<polygon fill="white" stroke="black" points="174.5,-132 174.5,-162 278.5,-162 278.5,-132 174.5,-132"/>
<text text-anchor="start" x="182.5" y="-150" font-family="Helvetica,sans-Serif" font-size="10.00">httplib::ClientImpl</text>
<text text-anchor="middle" x="226.5" y="-139" font-family="Helvetica,sans-Serif" font-size="10.00">::send_</text>
</a>
</g>
</g>
<!-- Node16&#45;&gt;Node17 -->
<g id="edge19" class="edge">
<title>Node16&#45;&gt;Node17</title>
<path fill="none" stroke="midnightblue" d="M329.2,-129.53C312.57,-132.39 294.74,-135.45 278.73,-138.2"/>
<polygon fill="midnightblue" stroke="midnightblue" points="330.11,-132.93 339.37,-127.78 328.92,-126.03 330.11,-132.93"/>
</g>
<!-- Node18 -->
<g id="node18" class="node">
<title>Node18</title>
<g id="a_node18"><a xlink:href="classhttplib_1_1ClientImpl.html#ab3169b93b50fca58a21f2db0a2bdea88" target="_top" xlink:title=" ">
<polygon fill="white" stroke="black" points="169.5,-71.5 169.5,-112.5 283.5,-112.5 283.5,-71.5 169.5,-71.5"/>
<text text-anchor="start" x="177.5" y="-100.5" font-family="Helvetica,sans-Serif" font-size="10.00">httplib::ClientImpl</text>
<text text-anchor="start" x="177.5" y="-89.5" font-family="Helvetica,sans-Serif" font-size="10.00">::send_with_content</text>
<text text-anchor="middle" x="226.5" y="-78.5" font-family="Helvetica,sans-Serif" font-size="10.00">_provider</text>
</a>
</g>
</g>
<!-- Node16&#45;&gt;Node18 -->
<g id="edge20" class="edge">
<title>Node16&#45;&gt;Node18</title>
<path fill="none" stroke="midnightblue" d="M329.19,-108.84C314.21,-106.36 298.26,-103.72 283.54,-101.28"/>
<polygon fill="midnightblue" stroke="midnightblue" points="328.94,-112.35 339.37,-110.53 330.08,-105.44 328.94,-112.35"/>
</g>
<!-- Node19 -->
<g id="node19" class="node">
<title>Node19</title>
<g id="a_node19"><a xlink:href="classhttplib_1_1ClientImpl.html#ad454e536598fa610080587d8516b5c80" target="_top" xlink:title=" ">
<polygon fill="white" stroke="black" points="11,-148 11,-178 115,-178 115,-148 11,-148"/>
<text text-anchor="start" x="19" y="-166" font-family="Helvetica,sans-Serif" font-size="10.00">httplib::ClientImpl</text>
<text text-anchor="middle" x="63" y="-155" font-family="Helvetica,sans-Serif" font-size="10.00">::Patch</text>
</a>
</g>
</g>
<!-- Node18&#45;&gt;Node19 -->
<g id="edge21" class="edge">
<title>Node18&#45;&gt;Node19</title>
<path fill="none" stroke="midnightblue" d="M172.94,-116.89C157.85,-123.88 141.33,-131.37 126,-138 118.33,-141.32 110.07,-144.75 102.16,-147.96"/>
<polygon fill="midnightblue" stroke="midnightblue" points="174.53,-120.01 182.12,-112.62 171.58,-113.67 174.53,-120.01"/>
</g>
<!-- Node20 -->
<g id="node20" class="node">
<title>Node20</title>
<g id="a_node20"><a xlink:href="classhttplib_1_1ClientImpl.html#a31fe4e8466d44dc45e28d3e68db05e01" target="_top" xlink:title=" ">
<polygon fill="white" stroke="black" points="11,-99 11,-129 115,-129 115,-99 11,-99"/>
<text text-anchor="start" x="19" y="-117" font-family="Helvetica,sans-Serif" font-size="10.00">httplib::ClientImpl</text>
<text text-anchor="middle" x="63" y="-106" font-family="Helvetica,sans-Serif" font-size="10.00">::Post</text>
</a>
</g>
</g>
<!-- Node18&#45;&gt;Node20 -->
<g id="edge22" class="edge">
<title>Node18&#45;&gt;Node20</title>
<path fill="none" stroke="midnightblue" d="M159.37,-101.01C144.59,-103.02 129.13,-105.13 115.06,-107.04"/>
<polygon fill="midnightblue" stroke="midnightblue" points="160.03,-104.45 169.47,-99.63 159.09,-97.51 160.03,-104.45"/>
</g>
<!-- Node21 -->
<g id="node21" class="node">
<title>Node21</title>
<g id="a_node21"><a xlink:href="classhttplib_1_1ClientImpl.html#a048987c16a2f45382c1bb0d2102e4873" target="_top" xlink:title=" ">
<polygon fill="white" stroke="black" points="0,-60.5 0,-79.5 126,-79.5 126,-60.5 0,-60.5"/>
<text text-anchor="middle" x="63" y="-67.5" font-family="Helvetica,sans-Serif" font-size="10.00">httplib::ClientImpl::Put</text>
</a>
</g>
</g>
<!-- Node18&#45;&gt;Node21 -->
<g id="edge23" class="edge">
<title>Node18&#45;&gt;Node21</title>
<path fill="none" stroke="midnightblue" d="M159.45,-83C148.39,-81.5 136.95,-79.94 126.01,-78.45"/>
<polygon fill="midnightblue" stroke="midnightblue" points="159.09,-86.49 169.47,-84.37 160.03,-79.55 159.09,-86.49"/>
</g>
<!-- Node22 -->
<g id="node22" class="node">
<title>Node22</title>
<g id="a_node22"><a xlink:href="classhttplib_1_1ClientImpl.html#ac9d400990790ff3aa7f3639392181ddb" target="_top" xlink:title=" ">
<polygon fill="white" stroke="black" points="6,-0.5 6,-41.5 120,-41.5 120,-0.5 6,-0.5"/>
<text text-anchor="start" x="14" y="-29.5" font-family="Helvetica,sans-Serif" font-size="10.00">httplib::ClientImpl</text>
<text text-anchor="start" x="14" y="-18.5" font-family="Helvetica,sans-Serif" font-size="10.00">::send_with_content</text>
<text text-anchor="middle" x="63" y="-7.5" font-family="Helvetica,sans-Serif" font-size="10.00">_provider</text>
</a>
</g>
</g>
<!-- Node18&#45;&gt;Node22 -->
<g id="edge24" class="edge">
<title>Node18&#45;&gt;Node22</title>
<path fill="none" stroke="midnightblue" d="M169.58,-67.42C150.44,-59 129.24,-49.68 110.89,-41.61"/>
<polygon fill="midnightblue" stroke="midnightblue" points="168.22,-70.64 178.79,-71.46 171.04,-64.24 168.22,-70.64"/>
</g>
<!-- Node23&#45;&gt;Node10 -->
<g id="edge26" class="edge">
<title>Node23&#45;&gt;Node10</title>
<path fill="none" stroke="midnightblue" d="M992.72,-198.88C927.89,-192.95 830.89,-184.06 772.02,-178.67"/>
<polygon fill="midnightblue" stroke="midnightblue" points="992.57,-202.38 1002.84,-199.81 993.2,-195.41 992.57,-202.38"/>
</g>
<!-- Node24&#45;&gt;Node10 -->
<g id="edge28" class="edge">
<title>Node24&#45;&gt;Node10</title>
<path fill="none" stroke="midnightblue" d="M998.4,-159.25C933.73,-162.69 832.81,-168.05 772.18,-171.28"/>
<polygon fill="midnightblue" stroke="midnightblue" points="998.66,-162.74 1008.46,-158.71 998.28,-155.75 998.66,-162.74"/>
</g>
<!-- Node25 -->
<g id="node25" class="node">
<title>Node25</title>
<g id="a_node25"><a xlink:href="classhttplib_1_1ClientImpl.html#aaf87765187adb847b44c102643704f3a" target="_top" xlink:title=" ">
<polygon fill="white" stroke="black" points="827.5,-111 827.5,-141 931.5,-141 931.5,-111 827.5,-111"/>
<text text-anchor="start" x="835.5" y="-129" font-family="Helvetica,sans-Serif" font-size="10.00">httplib::ClientImpl</text>
<text text-anchor="middle" x="879.5" y="-118" font-family="Helvetica,sans-Serif" font-size="10.00">::process_request</text>
</a>
</g>
</g>
<!-- Node24&#45;&gt;Node25 -->
<g id="edge29" class="edge">
<title>Node24&#45;&gt;Node25</title>
<path fill="none" stroke="midnightblue" d="M998.15,-145.72C976.54,-142.1 952.49,-138.07 931.8,-134.6"/>
<polygon fill="midnightblue" stroke="midnightblue" points="997.76,-149.2 1008.21,-147.4 998.92,-142.3 997.76,-149.2"/>
</g>
<!-- Node25&#45;&gt;Node10 -->
<g id="edge30" class="edge">
<title>Node25&#45;&gt;Node10</title>
<path fill="none" stroke="midnightblue" d="M819.22,-144.07C803.07,-148.99 785.75,-154.27 770.23,-159"/>
<polygon fill="midnightblue" stroke="midnightblue" points="820.55,-147.32 829.1,-141.06 818.51,-140.62 820.55,-147.32"/>
</g>
</g>
</svg>
