<?xml version="1.0" encoding="UTF-8" standalone="no"?>
<!DOCTYPE svg PUBLIC "-//W3C//DTD SVG 1.1//EN"
 "http://www.w3.org/Graphics/SVG/1.1/DTD/svg11.dtd">
<!-- Generated by graphviz version 2.43.0 (0)
 -->
<!-- Title: nlohmann::detail::dtoa_impl::diyfp::sub Pages: 1 -->
<!--zoomable 144 -->
<svg id="main" version="1.1" xmlns="http://www.w3.org/2000/svg" xmlns:xlink="http://www.w3.org/1999/xlink" xml:space="preserve" onload="init(evt)">
<style type="text/css"><![CDATA[
.edge:hover path { stroke: red; }
.edge:hover polygon { stroke: red; fill: red; }
]]></style>
<script type="text/javascript"><![CDATA[
var edges = document.getElementsByTagName('g');
if (edges && edges.length) {
  for (var i=0;i<edges.length;i++) {
    if (edges[i].id.substr(0,4)=='edge') {
      edges[i].setAttribute('class','edge');
    }
  }
}
]]></script>
        <defs>
                <circle id="rim" cx="0" cy="0" r="7"/>
                <circle id="rim2" cx="0" cy="0" r="3.5"/>
                <g id="zoomPlus">
                        <use xlink:href="#rim" fill="#404040">
                                <set attributeName="fill" to="#808080" begin="zoomplus.mouseover" end="zoomplus.mouseout"/>
                        </use>
                        <path d="M-4,0h8M0,-4v8" fill="none" stroke="white" stroke-width="1.5" pointer-events="none"/>
                </g>
                <g id="zoomMin">
                        <use xlink:href="#rim" fill="#404040">
                                <set attributeName="fill" to="#808080" begin="zoomminus.mouseover" end="zoomminus.mouseout"/>
                        </use>
                        <path d="M-4,0h8" fill="none" stroke="white" stroke-width="1.5" pointer-events="none"/>
                </g>
                <g id="dirArrow">
                        <path fill="none" stroke="white" stroke-width="1.5" d="M0,-3.0v7 M-2.5,-0.5L0,-3.0L2.5,-0.5"/>
                </g>
               <g id="resetDef">
                       <use xlink:href="#rim2" fill="#404040">
                               <set attributeName="fill" to="#808080" begin="reset.mouseover" end="reset.mouseout"/>
                       </use>
               </g>
        </defs>

<script type="text/javascript">
var viewWidth = 813;
var viewHeight = 144;
var sectionId = 'dynsection-9';
</script>
<script xlink:href="svgpan.js"/>
<svg id="graph" class="graph">
<g id="viewport">
<title>nlohmann::detail::dtoa_impl::diyfp::sub</title>
<polygon fill="white" stroke="transparent" points="-4,4 -4,-139.5 809,-139.5 809,4 -4,4"/>
<!-- Node1 -->
<g id="node1" class="node">
<title>Node1</title>
<g id="a_node1"><a xlink:title="returns x &#45; y">
<polygon fill="#bfbfbf" stroke="black" points="678,-61 678,-91 805,-91 805,-61 678,-61"/>
<text text-anchor="start" x="686" y="-79" font-family="Helvetica,sans-Serif" font-size="10.00">nlohmann::detail::dtoa</text>
<text text-anchor="middle" x="741.5" y="-68" font-family="Helvetica,sans-Serif" font-size="10.00">_impl::diyfp::sub</text>
</a>
</g>
</g>
<!-- Node2 -->
<g id="node2" class="node">
<title>Node2</title>
<g id="a_node2"><a xlink:href="namespacenlohmann_1_1detail_1_1dtoa__impl.html#a9b899c72b0e1e3dd46d75c2b4e6bcdfb" target="_top" xlink:title=" ">
<polygon fill="white" stroke="black" points="512,-61 512,-91 642,-91 642,-61 512,-61"/>
<text text-anchor="start" x="520" y="-79" font-family="Helvetica,sans-Serif" font-size="10.00">nlohmann::detail::dtoa</text>
<text text-anchor="middle" x="577" y="-68" font-family="Helvetica,sans-Serif" font-size="10.00">_impl::grisu2_digit_gen</text>
</a>
</g>
</g>
<!-- Node1&#45;&gt;Node2 -->
<g id="edge1" class="edge">
<title>Node1&#45;&gt;Node2</title>
<path fill="none" stroke="midnightblue" d="M667.42,-76C658.94,-76 650.34,-76 642,-76"/>
<polygon fill="midnightblue" stroke="midnightblue" points="667.67,-79.5 677.67,-76 667.67,-72.5 667.67,-79.5"/>
</g>
<!-- Node3 -->
<g id="node3" class="node">
<title>Node3</title>
<g id="a_node3"><a xlink:href="namespacenlohmann_1_1detail_1_1dtoa__impl.html#a05b681dcb8569b9784c6dccfadb01633" target="_top" xlink:title=" ">
<polygon fill="white" stroke="black" points="349,-61 349,-91 476,-91 476,-61 349,-61"/>
<text text-anchor="start" x="357" y="-79" font-family="Helvetica,sans-Serif" font-size="10.00">nlohmann::detail::dtoa</text>
<text text-anchor="middle" x="412.5" y="-68" font-family="Helvetica,sans-Serif" font-size="10.00">_impl::grisu2</text>
</a>
</g>
</g>
<!-- Node2&#45;&gt;Node3 -->
<g id="edge2" class="edge">
<title>Node2&#45;&gt;Node3</title>
<path fill="none" stroke="midnightblue" d="M501.52,-76C493.05,-76 484.49,-76 476.2,-76"/>
<polygon fill="midnightblue" stroke="midnightblue" points="501.78,-79.5 511.78,-76 501.78,-72.5 501.78,-79.5"/>
</g>
<!-- Node4 -->
<g id="node4" class="node">
<title>Node4</title>
<g id="a_node4"><a xlink:href="namespacenlohmann_1_1detail_1_1dtoa__impl.html#aab7a9670a4f4704a5d0347ad7588576b" target="_top" xlink:title=" ">
<polygon fill="white" stroke="black" points="186,-105 186,-135 313,-135 313,-105 186,-105"/>
<text text-anchor="start" x="194" y="-123" font-family="Helvetica,sans-Serif" font-size="10.00">nlohmann::detail::dtoa</text>
<text text-anchor="middle" x="249.5" y="-112" font-family="Helvetica,sans-Serif" font-size="10.00">_impl::grisu2</text>
</a>
</g>
</g>
<!-- Node3&#45;&gt;Node4 -->
<g id="edge3" class="edge">
<title>Node3&#45;&gt;Node4</title>
<path fill="none" stroke="midnightblue" d="M346.72,-93.7C333.05,-97.44 318.75,-101.35 305.48,-104.97"/>
<polygon fill="midnightblue" stroke="midnightblue" points="347.82,-97.03 356.54,-91.02 345.97,-90.28 347.82,-97.03"/>
</g>
<!-- Node5 -->
<g id="node5" class="node">
<title>Node5</title>
<g id="a_node5"><a xlink:href="unit-to__chars_8cpp.html#acf34797b126b5b94d2c0feb6d74cd7e4" target="_top" xlink:title=" ">
<polygon fill="white" stroke="black" points="214,-66.5 214,-85.5 285,-85.5 285,-66.5 214,-66.5"/>
<text text-anchor="middle" x="249.5" y="-73.5" font-family="Helvetica,sans-Serif" font-size="10.00">TEST_CASE</text>
</a>
</g>
</g>
<!-- Node3&#45;&gt;Node5 -->
<g id="edge4" class="edge">
<title>Node3&#45;&gt;Node5</title>
<path fill="none" stroke="midnightblue" d="M338.59,-76C320.07,-76 301.02,-76 285.39,-76"/>
<polygon fill="midnightblue" stroke="midnightblue" points="338.79,-79.5 348.79,-76 338.79,-72.5 338.79,-79.5"/>
</g>
<!-- Node6 -->
<g id="node6" class="node">
<title>Node6</title>
<g id="a_node6"><a xlink:href="namespacenlohmann_1_1detail.html#a6cca370ac6c99294dbe4fe24716a57dd" target="_top" xlink:title="generates a decimal representation of the floating&#45;point number value in [first, last).">
<polygon fill="white" stroke="black" points="192,-17 192,-47 307,-47 307,-17 192,-17"/>
<text text-anchor="start" x="200" y="-35" font-family="Helvetica,sans-Serif" font-size="10.00">nlohmann::detail::to</text>
<text text-anchor="middle" x="249.5" y="-24" font-family="Helvetica,sans-Serif" font-size="10.00">_chars</text>
</a>
</g>
</g>
<!-- Node3&#45;&gt;Node6 -->
<g id="edge5" class="edge">
<title>Node3&#45;&gt;Node6</title>
<path fill="none" stroke="midnightblue" d="M346.72,-58.3C333.05,-54.56 318.75,-50.65 305.48,-47.03"/>
<polygon fill="midnightblue" stroke="midnightblue" points="345.97,-61.72 356.54,-60.98 347.82,-54.97 345.97,-61.72"/>
</g>
<!-- Node7 -->
<g id="node7" class="node">
<title>Node7</title>
<g id="a_node7"><a xlink:href="classnlohmann_1_1detail_1_1serializer.html#a24b0fe45dc774441237bde198a133d8a" target="_top" xlink:title=" ">
<polygon fill="white" stroke="black" points="0,-39 0,-69 150,-69 150,-39 0,-39"/>
<text text-anchor="start" x="8" y="-57" font-family="Helvetica,sans-Serif" font-size="10.00">nlohmann::detail::serializer</text>
<text text-anchor="middle" x="75" y="-46" font-family="Helvetica,sans-Serif" font-size="10.00">::dump_float</text>
</a>
</g>
</g>
<!-- Node6&#45;&gt;Node7 -->
<g id="edge6" class="edge">
<title>Node6&#45;&gt;Node7</title>
<path fill="none" stroke="midnightblue" d="M181.43,-40.55C171.17,-41.86 160.53,-43.22 150.13,-44.55"/>
<polygon fill="midnightblue" stroke="midnightblue" points="182.06,-44 191.54,-39.26 181.18,-37.06 182.06,-44"/>
</g>
<!-- Node8 -->
<g id="node8" class="node">
<title>Node8</title>
<g id="a_node8"><a xlink:href="unit-to__chars_8cpp.html#aa943f889b4ca051c4ee97598d094e0de" target="_top" xlink:title=" ">
<polygon fill="white" stroke="black" points="39.5,-0.5 39.5,-19.5 110.5,-19.5 110.5,-0.5 39.5,-0.5"/>
<text text-anchor="middle" x="75" y="-7.5" font-family="Helvetica,sans-Serif" font-size="10.00">TEST_CASE</text>
</a>
</g>
</g>
<!-- Node6&#45;&gt;Node8 -->
<g id="edge7" class="edge">
<title>Node6&#45;&gt;Node8</title>
<path fill="none" stroke="midnightblue" d="M181.32,-23.43C157.1,-20.34 130.78,-16.99 110.51,-14.4"/>
<polygon fill="midnightblue" stroke="midnightblue" points="181.18,-26.94 191.54,-24.74 182.06,-20 181.18,-26.94"/>
</g>
</g>
</svg>
        <g id="navigator" transform="translate(0 0)" fill="#404254">
                <rect fill="#f2f5e9" fill-opacity="0.5" stroke="#606060" stroke-width=".5" x="0" y="0" width="60" height="60"/>
                <use id="zoomplus" xlink:href="#zoomPlus" x="17" y="9" onmousedown="handleZoom(evt,'in')"/>
                <use id="zoomminus" xlink:href="#zoomMin" x="42" y="9" onmousedown="handleZoom(evt,'out')"/>
                <use id="reset" xlink:href="#resetDef" x="30" y="36" onmousedown="handleReset()"/>
                <g id="arrowUp" xlink:href="#dirArrow" transform="translate(30 24)" onmousedown="handlePan(0,-1)">
                  <use xlink:href="#rim" fill="#404040">
                        <set attributeName="fill" to="#808080" begin="arrowUp.mouseover" end="arrowUp.mouseout"/>
                  </use>
                  <path fill="none" stroke="white" stroke-width="1.5" d="M0,-3.0v7 M-2.5,-0.5L0,-3.0L2.5,-0.5"/>
                </g>
                <g id="arrowRight" xlink:href="#dirArrow" transform="rotate(90) translate(36 -43)" onmousedown="handlePan(1,0)">
                  <use xlink:href="#rim" fill="#404040">
                        <set attributeName="fill" to="#808080" begin="arrowRight.mouseover" end="arrowRight.mouseout"/>
                  </use>
                  <path fill="none" stroke="white" stroke-width="1.5" d="M0,-3.0v7 M-2.5,-0.5L0,-3.0L2.5,-0.5"/>
                </g>
                <g id="arrowDown" xlink:href="#dirArrow" transform="rotate(180) translate(-30 -48)" onmousedown="handlePan(0,1)">
                  <use xlink:href="#rim" fill="#404040">
                        <set attributeName="fill" to="#808080" begin="arrowDown.mouseover" end="arrowDown.mouseout"/>
                  </use>
                  <path fill="none" stroke="white" stroke-width="1.5" d="M0,-3.0v7 M-2.5,-0.5L0,-3.0L2.5,-0.5"/>
                </g>
                <g id="arrowLeft" xlink:href="#dirArrow" transform="rotate(270) translate(-36 17)" onmousedown="handlePan(-1,0)">
                  <use xlink:href="#rim" fill="#404040">
                        <set attributeName="fill" to="#808080" begin="arrowLeft.mouseover" end="arrowLeft.mouseout"/>
                  </use>
                  <path fill="none" stroke="white" stroke-width="1.5" d="M0,-3.0v7 M-2.5,-0.5L0,-3.0L2.5,-0.5"/>
                </g>
        </g>
        <svg viewBox="0 0 15 15" width="100%" height="30px" preserveAspectRatio="xMaxYMin meet">
         <g id="arrow_out" transform="scale(0.3 0.3)">
          <a xlink:href="structnlohmann_1_1detail_1_1dtoa__impl_1_1diyfp_aeb26771af54ad73598c1a0430d65d884_icgraph_org.svg" target="_base">
           <rect id="button" ry="5" rx="5" y="6" x="6" height="38" width="38"
                fill="#f2f5e9" fill-opacity="0.5" stroke="#606060" stroke-width="1.0"/>
           <path id="arrow"
             d="M 11.500037,31.436501 C 11.940474,20.09759 22.043105,11.32322 32.158766,21.979434 L 37.068811,17.246167 C 37.068811,17.246167 37.088388,32 37.088388,32 L 22.160133,31.978069 C 22.160133,31.978069 26.997745,27.140456 26.997745,27.140456 C 18.528582,18.264221 13.291696,25.230495 11.500037,31.436501 z"
             style="fill:#404040;"/>
          </a>
         </g>
        </svg>
</svg>
