<?xml version="1.0" encoding="UTF-8" standalone="no"?>
<!DOCTYPE svg PUBLIC "-//W3C//DTD SVG 1.1//EN"
 "http://www.w3.org/Graphics/SVG/1.1/DTD/svg11.dtd">
<!-- Generated by graphviz version 2.43.0 (0)
 -->
<!-- Title: mc_orchestrator/json&#45;3.7.3/include/nlohmann/detail/conversions/to_chars.hpp Pages: 1 -->
<svg width="753pt" height="195pt"
 viewBox="0.00 0.00 752.50 195.00" xmlns="http://www.w3.org/2000/svg" xmlns:xlink="http://www.w3.org/1999/xlink">
<g id="graph0" class="graph" transform="scale(1 1) rotate(0) translate(4 191)">
<title>mc_orchestrator/json&#45;3.7.3/include/nlohmann/detail/conversions/to_chars.hpp</title>
<polygon fill="white" stroke="transparent" points="-4,4 -4,-191 748.5,-191 748.5,4 -4,4"/>
<!-- Node1 -->
<g id="node1" class="node">
<title>Node1</title>
<g id="a_node1"><a xlink:title=" ">
<polygon fill="#bfbfbf" stroke="black" points="226,-134.5 226,-186.5 360,-186.5 360,-134.5 226,-134.5"/>
<text text-anchor="start" x="234" y="-174.5" font-family="Helvetica,sans-Serif" font-size="10.00">mc_orchestrator/json</text>
<text text-anchor="start" x="234" y="-163.5" font-family="Helvetica,sans-Serif" font-size="10.00">&#45;3.7.3/include/nlohmann</text>
<text text-anchor="start" x="234" y="-152.5" font-family="Helvetica,sans-Serif" font-size="10.00">/detail/conversions/to</text>
<text text-anchor="middle" x="293" y="-141.5" font-family="Helvetica,sans-Serif" font-size="10.00">_chars.hpp</text>
</a>
</g>
</g>
<!-- Node2 -->
<g id="node2" class="node">
<title>Node2</title>
<g id="a_node2"><a xlink:title=" ">
<polygon fill="white" stroke="#bfbfbf" points="0,-73 0,-92 42,-92 42,-73 0,-73"/>
<text text-anchor="middle" x="21" y="-80" font-family="Helvetica,sans-Serif" font-size="10.00">array</text>
</a>
</g>
</g>
<!-- Node1&#45;&gt;Node2 -->
<g id="edge1" class="edge">
<title>Node1&#45;&gt;Node2</title>
<path fill="none" stroke="midnightblue" d="M225.92,-146.26C176.73,-135.64 108.73,-119.04 51,-98 49.57,-97.48 48.12,-96.91 46.67,-96.32"/>
<polygon fill="midnightblue" stroke="midnightblue" points="47.8,-92.99 37.25,-92.09 44.94,-99.38 47.8,-92.99"/>
</g>
<!-- Node3 -->
<g id="node3" class="node">
<title>Node3</title>
<g id="a_node3"><a xlink:title=" ">
<polygon fill="white" stroke="#bfbfbf" points="60,-73 60,-92 112,-92 112,-73 60,-73"/>
<text text-anchor="middle" x="86" y="-80" font-family="Helvetica,sans-Serif" font-size="10.00">cassert</text>
</a>
</g>
</g>
<!-- Node1&#45;&gt;Node3 -->
<g id="edge2" class="edge">
<title>Node1&#45;&gt;Node3</title>
<path fill="none" stroke="midnightblue" d="M225.74,-136.31C193.86,-125.1 155.32,-111.24 121,-98 119.35,-97.37 117.67,-96.7 115.97,-96.03"/>
<polygon fill="midnightblue" stroke="midnightblue" points="116.87,-92.62 106.29,-92.1 114.24,-99.11 116.87,-92.62"/>
</g>
<!-- Node4 -->
<g id="node4" class="node">
<title>Node4</title>
<g id="a_node4"><a xlink:title=" ">
<polygon fill="white" stroke="#bfbfbf" points="130,-73 130,-92 184,-92 184,-73 130,-73"/>
<text text-anchor="middle" x="157" y="-80" font-family="Helvetica,sans-Serif" font-size="10.00">ciso646</text>
</a>
</g>
</g>
<!-- Node1&#45;&gt;Node4 -->
<g id="edge3" class="edge">
<title>Node1&#45;&gt;Node4</title>
<path fill="none" stroke="midnightblue" d="M248.09,-134.4C225.82,-121.96 199.8,-107.42 181.29,-97.07"/>
<polygon fill="midnightblue" stroke="midnightblue" points="182.79,-93.9 172.35,-92.08 179.37,-100.01 182.79,-93.9"/>
</g>
<!-- Node5 -->
<g id="node5" class="node">
<title>Node5</title>
<g id="a_node5"><a xlink:title=" ">
<polygon fill="white" stroke="#bfbfbf" points="202.5,-73 202.5,-92 249.5,-92 249.5,-73 202.5,-73"/>
<text text-anchor="middle" x="226" y="-80" font-family="Helvetica,sans-Serif" font-size="10.00">cmath</text>
</a>
</g>
</g>
<!-- Node1&#45;&gt;Node5 -->
<g id="edge4" class="edge">
<title>Node1&#45;&gt;Node5</title>
<path fill="none" stroke="midnightblue" d="M270.69,-134.19C260.7,-122.86 249.2,-109.82 240.38,-99.81"/>
<polygon fill="midnightblue" stroke="midnightblue" points="242.92,-97.4 233.68,-92.21 237.67,-102.02 242.92,-97.4"/>
</g>
<!-- Node6 -->
<g id="node6" class="node">
<title>Node6</title>
<g id="a_node6"><a xlink:title=" ">
<polygon fill="white" stroke="#bfbfbf" points="268,-73 268,-92 318,-92 318,-73 268,-73"/>
<text text-anchor="middle" x="293" y="-80" font-family="Helvetica,sans-Serif" font-size="10.00">cstdint</text>
</a>
</g>
</g>
<!-- Node1&#45;&gt;Node6 -->
<g id="edge5" class="edge">
<title>Node1&#45;&gt;Node6</title>
<path fill="none" stroke="midnightblue" d="M293,-134.19C293,-123.76 293,-111.9 293,-102.27"/>
<polygon fill="midnightblue" stroke="midnightblue" points="296.5,-102.21 293,-92.21 289.5,-102.21 296.5,-102.21"/>
</g>
<!-- Node7 -->
<g id="node7" class="node">
<title>Node7</title>
<g id="a_node7"><a xlink:title=" ">
<polygon fill="white" stroke="#bfbfbf" points="336,-73 336,-92 386,-92 386,-73 336,-73"/>
<text text-anchor="middle" x="361" y="-80" font-family="Helvetica,sans-Serif" font-size="10.00">cstring</text>
</a>
</g>
</g>
<!-- Node1&#45;&gt;Node7 -->
<g id="edge6" class="edge">
<title>Node1&#45;&gt;Node7</title>
<path fill="none" stroke="midnightblue" d="M315.64,-134.19C325.78,-122.86 337.45,-109.82 346.41,-99.81"/>
<polygon fill="midnightblue" stroke="midnightblue" points="349.15,-102 353.21,-92.21 343.93,-97.33 349.15,-102"/>
</g>
<!-- Node8 -->
<g id="node8" class="node">
<title>Node8</title>
<g id="a_node8"><a xlink:title=" ">
<polygon fill="white" stroke="#bfbfbf" points="404,-73 404,-92 448,-92 448,-73 404,-73"/>
<text text-anchor="middle" x="426" y="-80" font-family="Helvetica,sans-Serif" font-size="10.00">limits</text>
</a>
</g>
</g>
<!-- Node1&#45;&gt;Node8 -->
<g id="edge7" class="edge">
<title>Node1&#45;&gt;Node8</title>
<path fill="none" stroke="midnightblue" d="M336.92,-134.4C358.7,-121.96 384.14,-107.42 402.25,-97.07"/>
<polygon fill="midnightblue" stroke="midnightblue" points="404.04,-100.08 410.99,-92.08 400.57,-94 404.04,-100.08"/>
</g>
<!-- Node9 -->
<g id="node9" class="node">
<title>Node9</title>
<g id="a_node9"><a xlink:title=" ">
<polygon fill="white" stroke="#bfbfbf" points="466.5,-73 466.5,-92 535.5,-92 535.5,-73 466.5,-73"/>
<text text-anchor="middle" x="501" y="-80" font-family="Helvetica,sans-Serif" font-size="10.00">type_traits</text>
</a>
</g>
</g>
<!-- Node1&#45;&gt;Node9 -->
<g id="edge8" class="edge">
<title>Node1&#45;&gt;Node9</title>
<path fill="none" stroke="midnightblue" d="M360.24,-134.93C396.34,-121.74 439.22,-106.07 468.09,-95.53"/>
<polygon fill="midnightblue" stroke="midnightblue" points="469.49,-98.74 477.68,-92.02 467.09,-92.17 469.49,-98.74"/>
</g>
<!-- Node10 -->
<g id="node10" class="node">
<title>Node10</title>
<g id="a_node10"><a xlink:href="macro__scope_8hpp.html" target="_top" xlink:title=" ">
<polygon fill="white" stroke="black" points="554,-67.5 554,-97.5 684,-97.5 684,-67.5 554,-67.5"/>
<text text-anchor="start" x="562" y="-85.5" font-family="Helvetica,sans-Serif" font-size="10.00">nlohmann/detail/macro</text>
<text text-anchor="middle" x="619" y="-74.5" font-family="Helvetica,sans-Serif" font-size="10.00">_scope.hpp</text>
</a>
</g>
</g>
<!-- Node1&#45;&gt;Node10 -->
<g id="edge9" class="edge">
<title>Node1&#45;&gt;Node10</title>
<path fill="none" stroke="midnightblue" d="M360.15,-143.84C415.28,-130.99 493.08,-112.86 548.98,-99.82"/>
<polygon fill="midnightblue" stroke="midnightblue" points="549.85,-103.21 558.8,-97.54 548.26,-96.4 549.85,-103.21"/>
</g>
<!-- Node11 -->
<g id="node11" class="node">
<title>Node11</title>
<g id="a_node11"><a xlink:title=" ">
<polygon fill="white" stroke="#bfbfbf" points="497.5,-6 497.5,-25 542.5,-25 542.5,-6 497.5,-6"/>
<text text-anchor="middle" x="520" y="-13" font-family="Helvetica,sans-Serif" font-size="10.00">utility</text>
</a>
</g>
</g>
<!-- Node10&#45;&gt;Node11 -->
<g id="edge10" class="edge">
<title>Node10&#45;&gt;Node11</title>
<path fill="none" stroke="midnightblue" d="M597.52,-67.4C580.92,-56.5 558.04,-41.48 541.45,-30.58"/>
<polygon fill="midnightblue" stroke="midnightblue" points="543.24,-27.57 532.96,-25.01 539.4,-33.42 543.24,-27.57"/>
</g>
<!-- Node12 -->
<g id="node12" class="node">
<title>Node12</title>
<g id="a_node12"><a xlink:href="hedley_8hpp.html" target="_top" xlink:title=" ">
<polygon fill="white" stroke="black" points="561,-0.5 561,-30.5 677,-30.5 677,-0.5 561,-0.5"/>
<text text-anchor="start" x="569" y="-18.5" font-family="Helvetica,sans-Serif" font-size="10.00">nlohmann/thirdparty</text>
<text text-anchor="middle" x="619" y="-7.5" font-family="Helvetica,sans-Serif" font-size="10.00">/hedley/hedley.hpp</text>
</a>
</g>
</g>
<!-- Node10&#45;&gt;Node12 -->
<g id="edge11" class="edge">
<title>Node10&#45;&gt;Node12</title>
<path fill="none" stroke="midnightblue" d="M619,-67.4C619,-59.64 619,-49.81 619,-40.86"/>
<polygon fill="midnightblue" stroke="midnightblue" points="622.5,-40.58 619,-30.58 615.5,-40.58 622.5,-40.58"/>
</g>
<!-- Node13 -->
<g id="node13" class="node">
<title>Node13</title>
<g id="a_node13"><a xlink:title=" ">
<polygon fill="white" stroke="#bfbfbf" points="695.5,-6 695.5,-25 744.5,-25 744.5,-6 695.5,-6"/>
<text text-anchor="middle" x="720" y="-13" font-family="Helvetica,sans-Serif" font-size="10.00">cstdlib</text>
</a>
</g>
</g>
<!-- Node10&#45;&gt;Node13 -->
<g id="edge12" class="edge">
<title>Node10&#45;&gt;Node13</title>
<path fill="none" stroke="midnightblue" d="M640.92,-67.4C657.85,-56.5 681.19,-41.48 698.12,-30.58"/>
<polygon fill="midnightblue" stroke="midnightblue" points="700.27,-33.36 706.78,-25.01 696.48,-27.48 700.27,-33.36"/>
</g>
</g>
</svg>
