<?xml version="1.0" encoding="UTF-8" standalone="no"?>
<!DOCTYPE svg PUBLIC "-//W3C//DTD SVG 1.1//EN"
 "http://www.w3.org/Graphics/SVG/1.1/DTD/svg11.dtd">
<!-- Generated by graphviz version 2.43.0 (0)
 -->
<!-- Title: mc_orchestrator/json&#45;3.7.3/include/nlohmann/detail/conversions/to_json.hpp Pages: 1 -->
<svg width="1427pt" height="385pt"
 viewBox="0.00 0.00 1427.00 385.00" xmlns="http://www.w3.org/2000/svg" xmlns:xlink="http://www.w3.org/1999/xlink">
<g id="graph0" class="graph" transform="scale(1 1) rotate(0) translate(4 381)">
<title>mc_orchestrator/json&#45;3.7.3/include/nlohmann/detail/conversions/to_json.hpp</title>
<polygon fill="white" stroke="transparent" points="-4,4 -4,-381 1423,-381 1423,4 -4,4"/>
<!-- Node1 -->
<g id="node1" class="node">
<title>Node1</title>
<g id="a_node1"><a xlink:title=" ">
<polygon fill="#bfbfbf" stroke="black" points="460,-324.5 460,-376.5 594,-376.5 594,-324.5 460,-324.5"/>
<text text-anchor="start" x="468" y="-364.5" font-family="Helvetica,sans-Serif" font-size="10.00">mc_orchestrator/json</text>
<text text-anchor="start" x="468" y="-353.5" font-family="Helvetica,sans-Serif" font-size="10.00">&#45;3.7.3/include/nlohmann</text>
<text text-anchor="start" x="468" y="-342.5" font-family="Helvetica,sans-Serif" font-size="10.00">/detail/conversions/to</text>
<text text-anchor="middle" x="527" y="-331.5" font-family="Helvetica,sans-Serif" font-size="10.00">_json.hpp</text>
</a>
</g>
</g>
<!-- Node2 -->
<g id="node2" class="node">
<title>Node2</title>
<g id="a_node2"><a xlink:title=" ">
<polygon fill="white" stroke="#bfbfbf" points="0,-263 0,-282 64,-282 64,-263 0,-263"/>
<text text-anchor="middle" x="32" y="-270" font-family="Helvetica,sans-Serif" font-size="10.00">algorithm</text>
</a>
</g>
</g>
<!-- Node1&#45;&gt;Node2 -->
<g id="edge1" class="edge">
<title>Node1&#45;&gt;Node2</title>
<path fill="none" stroke="midnightblue" d="M459.81,-343.87C371.46,-335.66 211.77,-318.02 78,-288 74.16,-287.14 70.17,-286.1 66.23,-284.99"/>
<polygon fill="midnightblue" stroke="midnightblue" points="67.2,-281.63 56.62,-282.1 65.19,-288.33 67.2,-281.63"/>
</g>
<!-- Node3 -->
<g id="node3" class="node">
<title>Node3</title>
<g id="a_node3"><a xlink:title=" ">
<polygon fill="white" stroke="#bfbfbf" points="445,-0.5 445,-19.5 499,-19.5 499,-0.5 445,-0.5"/>
<text text-anchor="middle" x="472" y="-7.5" font-family="Helvetica,sans-Serif" font-size="10.00">ciso646</text>
</a>
</g>
</g>
<!-- Node1&#45;&gt;Node3 -->
<g id="edge2" class="edge">
<title>Node1&#45;&gt;Node3</title>
<path fill="none" stroke="midnightblue" d="M459.98,-341.59C337.96,-325.32 92,-283.02 92,-206.5 92,-206.5 92,-206.5 92,-137.5 92,-73.76 150.98,-80.07 210,-56 285.96,-25.02 382.75,-15.37 434.82,-12.36"/>
<polygon fill="midnightblue" stroke="midnightblue" points="435.12,-15.85 444.93,-11.83 434.76,-8.86 435.12,-15.85"/>
</g>
<!-- Node4 -->
<g id="node4" class="node">
<title>Node4</title>
<g id="a_node4"><a xlink:title=" ">
<polygon fill="white" stroke="#bfbfbf" points="424.5,-62 424.5,-81 477.5,-81 477.5,-62 424.5,-62"/>
<text text-anchor="middle" x="451" y="-69" font-family="Helvetica,sans-Serif" font-size="10.00">iterator</text>
</a>
</g>
</g>
<!-- Node1&#45;&gt;Node4 -->
<g id="edge3" class="edge">
<title>Node1&#45;&gt;Node4</title>
<path fill="none" stroke="midnightblue" d="M526.45,-324.31C524.9,-291.87 519.23,-234.39 499,-190 490.48,-171.3 479,-172.47 470,-154 460.17,-133.84 455.29,-108.36 452.96,-91.3"/>
<polygon fill="midnightblue" stroke="midnightblue" points="456.39,-90.52 451.73,-81.01 449.44,-91.36 456.39,-90.52"/>
</g>
<!-- Node5 -->
<g id="node5" class="node">
<title>Node5</title>
<g id="a_node5"><a xlink:title=" ">
<polygon fill="white" stroke="#bfbfbf" points="294,-62 294,-81 338,-81 338,-62 294,-62"/>
<text text-anchor="middle" x="316" y="-69" font-family="Helvetica,sans-Serif" font-size="10.00">string</text>
</a>
</g>
</g>
<!-- Node1&#45;&gt;Node5 -->
<g id="edge4" class="edge">
<title>Node1&#45;&gt;Node5</title>
<path fill="none" stroke="midnightblue" d="M459.83,-339.26C403.67,-329.16 329.94,-311.79 312,-288 288.9,-257.36 305.38,-137.5 312.85,-91.04"/>
<polygon fill="midnightblue" stroke="midnightblue" points="316.31,-91.58 314.48,-81.14 309.4,-90.43 316.31,-91.58"/>
</g>
<!-- Node6 -->
<g id="node6" class="node">
<title>Node6</title>
<g id="a_node6"><a xlink:title=" ">
<polygon fill="white" stroke="#bfbfbf" points="449.5,-196 449.5,-215 490.5,-215 490.5,-196 449.5,-196"/>
<text text-anchor="middle" x="470" y="-203" font-family="Helvetica,sans-Serif" font-size="10.00">tuple</text>
</a>
</g>
</g>
<!-- Node1&#45;&gt;Node6 -->
<g id="edge5" class="edge">
<title>Node1&#45;&gt;Node6</title>
<path fill="none" stroke="midnightblue" d="M516.94,-324.26C505.53,-295.64 487.21,-249.68 477.16,-224.47"/>
<polygon fill="midnightblue" stroke="midnightblue" points="480.36,-223.05 473.41,-215.05 473.86,-225.64 480.36,-223.05"/>
</g>
<!-- Node7 -->
<g id="node7" class="node">
<title>Node7</title>
<g id="a_node7"><a xlink:title=" ">
<polygon fill="white" stroke="#bfbfbf" points="1192.5,-0.5 1192.5,-19.5 1261.5,-19.5 1261.5,-0.5 1192.5,-0.5"/>
<text text-anchor="middle" x="1227" y="-7.5" font-family="Helvetica,sans-Serif" font-size="10.00">type_traits</text>
</a>
</g>
</g>
<!-- Node1&#45;&gt;Node7 -->
<g id="edge6" class="edge">
<title>Node1&#45;&gt;Node7</title>
<path fill="none" stroke="midnightblue" d="M594.04,-345.82C801.49,-333.55 1419,-290.02 1419,-206.5 1419,-206.5 1419,-206.5 1419,-137.5 1419,-96.55 1407.6,-82.05 1376,-56 1346.36,-31.58 1303.71,-20.4 1271.63,-15.29"/>
<polygon fill="midnightblue" stroke="midnightblue" points="1272.01,-11.81 1261.61,-13.84 1271.01,-18.74 1272.01,-11.81"/>
</g>
<!-- Node8 -->
<g id="node8" class="node">
<title>Node8</title>
<g id="a_node8"><a xlink:title=" ">
<polygon fill="white" stroke="#bfbfbf" points="1302.5,-62 1302.5,-81 1347.5,-81 1347.5,-62 1302.5,-62"/>
<text text-anchor="middle" x="1325" y="-69" font-family="Helvetica,sans-Serif" font-size="10.00">utility</text>
</a>
</g>
</g>
<!-- Node1&#45;&gt;Node8 -->
<g id="edge7" class="edge">
<title>Node1&#45;&gt;Node8</title>
<path fill="none" stroke="midnightblue" d="M594.27,-343.81C677.38,-335.82 822.69,-318.69 944,-288 1112.74,-245.3 1201.22,-288.26 1312,-154 1326.43,-136.51 1327.99,-109.5 1327.07,-91.42"/>
<polygon fill="midnightblue" stroke="midnightblue" points="1330.55,-90.94 1326.25,-81.26 1323.57,-91.51 1330.55,-90.94"/>
</g>
<!-- Node9 -->
<g id="node9" class="node">
<title>Node9</title>
<g id="a_node9"><a xlink:title=" ">
<polygon fill="white" stroke="#bfbfbf" points="555.5,-263 555.5,-282 612.5,-282 612.5,-263 555.5,-263"/>
<text text-anchor="middle" x="584" y="-270" font-family="Helvetica,sans-Serif" font-size="10.00">valarray</text>
</a>
</g>
</g>
<!-- Node1&#45;&gt;Node9 -->
<g id="edge8" class="edge">
<title>Node1&#45;&gt;Node9</title>
<path fill="none" stroke="midnightblue" d="M545.98,-324.19C554.31,-313.08 563.87,-300.34 571.32,-290.41"/>
<polygon fill="midnightblue" stroke="midnightblue" points="574.27,-292.31 577.47,-282.21 568.67,-288.11 574.27,-292.31"/>
</g>
<!-- Node10 -->
<g id="node10" class="node">
<title>Node10</title>
<g id="a_node10"><a xlink:title=" ">
<polygon fill="white" stroke="#bfbfbf" points="628.5,-62 628.5,-81 675.5,-81 675.5,-62 628.5,-62"/>
<text text-anchor="middle" x="652" y="-69" font-family="Helvetica,sans-Serif" font-size="10.00">vector</text>
</a>
</g>
</g>
<!-- Node1&#45;&gt;Node10 -->
<g id="edge9" class="edge">
<title>Node1&#45;&gt;Node10</title>
<path fill="none" stroke="midnightblue" d="M581.93,-324.44C596.83,-315.07 611.47,-302.97 621,-288 661.11,-225.04 657.78,-130.96 654.17,-91.25"/>
<polygon fill="midnightblue" stroke="midnightblue" points="657.63,-90.75 653.13,-81.16 650.67,-91.47 657.63,-90.75"/>
</g>
<!-- Node11 -->
<g id="node11" class="node">
<title>Node11</title>
<g id="a_node11"><a xlink:href="iteration__proxy_8hpp.html" target="_top" xlink:title=" ">
<polygon fill="white" stroke="black" points="321,-257.5 321,-287.5 461,-287.5 461,-257.5 321,-257.5"/>
<text text-anchor="start" x="329" y="-275.5" font-family="Helvetica,sans-Serif" font-size="10.00">nlohmann/detail/iterators</text>
<text text-anchor="middle" x="391" y="-264.5" font-family="Helvetica,sans-Serif" font-size="10.00">/iteration_proxy.hpp</text>
</a>
</g>
</g>
<!-- Node1&#45;&gt;Node11 -->
<g id="edge10" class="edge">
<title>Node1&#45;&gt;Node11</title>
<path fill="none" stroke="midnightblue" d="M482.09,-324.4C463.68,-314.12 442.71,-302.4 425.53,-292.8"/>
<polygon fill="midnightblue" stroke="midnightblue" points="426.86,-289.53 416.42,-287.71 423.44,-295.64 426.86,-289.53"/>
</g>
<!-- Node13 -->
<g id="node13" class="node">
<title>Node13</title>
<g id="a_node13"><a xlink:href="type__traits_8hpp.html" target="_top" xlink:title=" ">
<polygon fill="white" stroke="black" points="776.5,-190.5 776.5,-220.5 901.5,-220.5 901.5,-190.5 776.5,-190.5"/>
<text text-anchor="start" x="784.5" y="-208.5" font-family="Helvetica,sans-Serif" font-size="10.00">nlohmann/detail/meta</text>
<text text-anchor="middle" x="839" y="-197.5" font-family="Helvetica,sans-Serif" font-size="10.00">/type_traits.hpp</text>
</a>
</g>
</g>
<!-- Node1&#45;&gt;Node13 -->
<g id="edge48" class="edge">
<title>Node1&#45;&gt;Node13</title>
<path fill="none" stroke="midnightblue" d="M581.7,-324.43C643.82,-295.96 743.69,-250.18 798.96,-224.85"/>
<polygon fill="midnightblue" stroke="midnightblue" points="800.46,-228.01 808.09,-220.67 797.54,-221.65 800.46,-228.01"/>
</g>
<!-- Node17 -->
<g id="node17" class="node">
<title>Node17</title>
<g id="a_node17"><a xlink:href="cpp__future_8hpp.html" target="_top" xlink:title=" ">
<polygon fill="white" stroke="black" points="919.5,-56.5 919.5,-86.5 1044.5,-86.5 1044.5,-56.5 919.5,-56.5"/>
<text text-anchor="start" x="927.5" y="-74.5" font-family="Helvetica,sans-Serif" font-size="10.00">nlohmann/detail/meta</text>
<text text-anchor="middle" x="982" y="-63.5" font-family="Helvetica,sans-Serif" font-size="10.00">/cpp_future.hpp</text>
</a>
</g>
</g>
<!-- Node1&#45;&gt;Node17 -->
<g id="edge47" class="edge">
<title>Node1&#45;&gt;Node17</title>
<path fill="none" stroke="midnightblue" d="M594.01,-349.15C715.38,-344.4 969.09,-314.69 1078,-154 1085.73,-142.6 1085.12,-134.79 1078,-123 1069.45,-108.85 1055.48,-98.47 1040.81,-90.93"/>
<polygon fill="midnightblue" stroke="midnightblue" points="1042.16,-87.7 1031.62,-86.6 1039.18,-94.03 1042.16,-87.7"/>
</g>
<!-- Node26 -->
<g id="node26" class="node">
<title>Node26</title>
<g id="a_node26"><a xlink:href="value__t_8hpp.html" target="_top" xlink:title=" ">
<polygon fill="white" stroke="black" points="158,-123.5 158,-153.5 284,-153.5 284,-123.5 158,-123.5"/>
<text text-anchor="start" x="166" y="-141.5" font-family="Helvetica,sans-Serif" font-size="10.00">nlohmann/detail/value</text>
<text text-anchor="middle" x="221" y="-130.5" font-family="Helvetica,sans-Serif" font-size="10.00">_t.hpp</text>
</a>
</g>
</g>
<!-- Node1&#45;&gt;Node26 -->
<g id="edge49" class="edge">
<title>Node1&#45;&gt;Node26</title>
<path fill="none" stroke="midnightblue" d="M459.82,-349.15C405.03,-345.39 328.82,-331.77 279,-288 242.2,-255.67 228.56,-197.06 223.65,-163.96"/>
<polygon fill="midnightblue" stroke="midnightblue" points="227.08,-163.24 222.29,-153.79 220.14,-164.17 227.08,-163.24"/>
</g>
<!-- Node11&#45;&gt;Node4 -->
<g id="edge12" class="edge">
<title>Node11&#45;&gt;Node4</title>
<path fill="none" stroke="midnightblue" d="M395.32,-257.19C405.97,-221.83 433.55,-130.39 445.42,-91"/>
<polygon fill="midnightblue" stroke="midnightblue" points="448.79,-91.94 448.33,-81.36 442.09,-89.92 448.79,-91.94"/>
</g>
<!-- Node11&#45;&gt;Node5 -->
<g id="edge13" class="edge">
<title>Node11&#45;&gt;Node5</title>
<path fill="none" stroke="midnightblue" d="M385.61,-257.19C372.25,-221.76 337.67,-130 322.88,-90.75"/>
<polygon fill="midnightblue" stroke="midnightblue" points="326.14,-89.48 319.34,-81.36 319.59,-91.95 326.14,-89.48"/>
</g>
<!-- Node11&#45;&gt;Node6 -->
<g id="edge14" class="edge">
<title>Node11&#45;&gt;Node6</title>
<path fill="none" stroke="midnightblue" d="M408.14,-257.4C420.95,-246.86 438.43,-232.48 451.54,-221.69"/>
<polygon fill="midnightblue" stroke="midnightblue" points="453.93,-224.25 459.43,-215.19 449.49,-218.85 453.93,-224.25"/>
</g>
<!-- Node12 -->
<g id="node12" class="node">
<title>Node12</title>
<g id="a_node12"><a xlink:title=" ">
<polygon fill="white" stroke="#bfbfbf" points="141.5,-0.5 141.5,-19.5 194.5,-19.5 194.5,-0.5 141.5,-0.5"/>
<text text-anchor="middle" x="168" y="-7.5" font-family="Helvetica,sans-Serif" font-size="10.00">cstddef</text>
</a>
</g>
</g>
<!-- Node11&#45;&gt;Node12 -->
<g id="edge11" class="edge">
<title>Node11&#45;&gt;Node12</title>
<path fill="none" stroke="midnightblue" d="M320.87,-258.51C263.64,-243.81 186.36,-213.68 149,-154 124.38,-114.68 145.34,-57.38 158.81,-28.72"/>
<polygon fill="midnightblue" stroke="midnightblue" points="162.05,-30.06 163.33,-19.54 155.77,-26.96 162.05,-30.06"/>
</g>
<!-- Node11&#45;&gt;Node13 -->
<g id="edge15" class="edge">
<title>Node11&#45;&gt;Node13</title>
<path fill="none" stroke="midnightblue" d="M461.49,-261.27C544.6,-249.21 682.04,-229.27 766.16,-217.07"/>
<polygon fill="midnightblue" stroke="midnightblue" points="766.75,-220.52 776.15,-215.62 765.75,-213.59 766.75,-220.52"/>
</g>
<!-- Node11&#45;&gt;Node26 -->
<g id="edge41" class="edge">
<title>Node11&#45;&gt;Node26</title>
<path fill="none" stroke="midnightblue" d="M372.81,-257.37C342.64,-233.95 282.16,-186.99 247.33,-159.94"/>
<polygon fill="midnightblue" stroke="midnightblue" points="249.11,-156.89 239.06,-153.52 244.81,-162.42 249.11,-156.89"/>
</g>
<!-- Node13&#45;&gt;Node3 -->
<g id="edge16" class="edge">
<title>Node13&#45;&gt;Node3</title>
<path fill="none" stroke="midnightblue" d="M776.44,-196.85C748.34,-190.15 717.23,-177.57 698,-154 670.18,-119.91 714.05,-88.14 684,-56 660.69,-31.07 563.96,-18.88 509.57,-13.89"/>
<polygon fill="midnightblue" stroke="midnightblue" points="509.56,-10.37 499.29,-12.98 508.95,-17.34 509.56,-10.37"/>
</g>
<!-- Node13&#45;&gt;Node7 -->
<g id="edge18" class="edge">
<title>Node13&#45;&gt;Node7</title>
<path fill="none" stroke="midnightblue" d="M901.53,-204.34C1013.91,-203 1244.59,-195.15 1312,-154 1352.75,-129.12 1383.65,-94.93 1356,-56 1337.02,-29.27 1300.93,-18.29 1271.75,-13.84"/>
<polygon fill="midnightblue" stroke="midnightblue" points="1272.12,-10.36 1261.75,-12.52 1271.21,-17.3 1272.12,-10.36"/>
</g>
<!-- Node13&#45;&gt;Node8 -->
<g id="edge19" class="edge">
<title>Node13&#45;&gt;Node8</title>
<path fill="none" stroke="midnightblue" d="M901.61,-204.73C1009.75,-203.96 1225.71,-196.9 1286,-154 1306.83,-139.17 1316.95,-110.19 1321.55,-91.08"/>
<polygon fill="midnightblue" stroke="midnightblue" points="1325,-91.67 1323.66,-81.16 1318.15,-90.21 1325,-91.67"/>
</g>
<!-- Node14 -->
<g id="node14" class="node">
<title>Node14</title>
<g id="a_node14"><a xlink:title=" ">
<polygon fill="white" stroke="#bfbfbf" points="707,-129 707,-148 751,-148 751,-129 707,-129"/>
<text text-anchor="middle" x="729" y="-136" font-family="Helvetica,sans-Serif" font-size="10.00">limits</text>
</a>
</g>
</g>
<!-- Node13&#45;&gt;Node14 -->
<g id="edge17" class="edge">
<title>Node13&#45;&gt;Node14</title>
<path fill="none" stroke="midnightblue" d="M815.13,-190.4C796.43,-179.34 770.56,-164.06 752.07,-153.13"/>
<polygon fill="midnightblue" stroke="midnightblue" points="753.79,-150.08 743.4,-148.01 750.23,-156.11 753.79,-150.08"/>
</g>
<!-- Node15 -->
<g id="node15" class="node">
<title>Node15</title>
<g id="a_node15"><a xlink:href="iterator__traits_8hpp.html" target="_top" xlink:title=" ">
<polygon fill="white" stroke="black" points="769,-123.5 769,-153.5 909,-153.5 909,-123.5 769,-123.5"/>
<text text-anchor="start" x="777" y="-141.5" font-family="Helvetica,sans-Serif" font-size="10.00">nlohmann/detail/iterators</text>
<text text-anchor="middle" x="839" y="-130.5" font-family="Helvetica,sans-Serif" font-size="10.00">/iterator_traits.hpp</text>
</a>
</g>
</g>
<!-- Node13&#45;&gt;Node15 -->
<g id="edge20" class="edge">
<title>Node13&#45;&gt;Node15</title>
<path fill="none" stroke="midnightblue" d="M839,-190.4C839,-182.64 839,-172.81 839,-163.86"/>
<polygon fill="midnightblue" stroke="midnightblue" points="842.5,-163.58 839,-153.58 835.5,-163.58 842.5,-163.58"/>
</g>
<!-- Node13&#45;&gt;Node17 -->
<g id="edge31" class="edge">
<title>Node13&#45;&gt;Node17</title>
<path fill="none" stroke="midnightblue" d="M901.75,-198.85C960.25,-192.14 1041.37,-178.6 1061,-154 1069.59,-143.23 1067.62,-135.08 1061,-123 1053.69,-109.66 1041.2,-99.33 1028.27,-91.59"/>
<polygon fill="midnightblue" stroke="midnightblue" points="1029.76,-88.41 1019.31,-86.64 1026.37,-94.54 1029.76,-88.41"/>
</g>
<!-- Node18 -->
<g id="node18" class="node">
<title>Node18</title>
<g id="a_node18"><a xlink:href="macro__scope_8hpp.html" target="_top" xlink:title=" ">
<polygon fill="white" stroke="black" points="1147,-123.5 1147,-153.5 1277,-153.5 1277,-123.5 1147,-123.5"/>
<text text-anchor="start" x="1155" y="-141.5" font-family="Helvetica,sans-Serif" font-size="10.00">nlohmann/detail/macro</text>
<text text-anchor="middle" x="1212" y="-130.5" font-family="Helvetica,sans-Serif" font-size="10.00">_scope.hpp</text>
</a>
</g>
</g>
<!-- Node13&#45;&gt;Node18 -->
<g id="edge27" class="edge">
<title>Node13&#45;&gt;Node18</title>
<path fill="none" stroke="midnightblue" d="M901.85,-193.55C966.66,-182.25 1067.73,-164.64 1136.75,-152.61"/>
<polygon fill="midnightblue" stroke="midnightblue" points="1137.44,-156.05 1146.69,-150.88 1136.24,-149.15 1137.44,-156.05"/>
</g>
<!-- Node21 -->
<g id="node21" class="node">
<title>Node21</title>
<g id="a_node21"><a xlink:href="detected_8hpp.html" target="_top" xlink:title=" ">
<polygon fill="white" stroke="black" points="927.5,-123.5 927.5,-153.5 1052.5,-153.5 1052.5,-123.5 927.5,-123.5"/>
<text text-anchor="start" x="935.5" y="-141.5" font-family="Helvetica,sans-Serif" font-size="10.00">nlohmann/detail/meta</text>
<text text-anchor="middle" x="990" y="-130.5" font-family="Helvetica,sans-Serif" font-size="10.00">/detected.hpp</text>
</a>
</g>
</g>
<!-- Node13&#45;&gt;Node21 -->
<g id="edge32" class="edge">
<title>Node13&#45;&gt;Node21</title>
<path fill="none" stroke="midnightblue" d="M871.76,-190.4C894.12,-180.77 923.94,-167.94 948.04,-157.56"/>
<polygon fill="midnightblue" stroke="midnightblue" points="949.5,-160.75 957.3,-153.58 946.73,-154.32 949.5,-160.75"/>
</g>
<!-- Node22 -->
<g id="node22" class="node">
<title>Node22</title>
<g id="a_node22"><a xlink:href="json__fwd_8hpp.html" target="_top" xlink:title=" ">
<polygon fill="white" stroke="black" points="479.5,-129 479.5,-148 612.5,-148 612.5,-129 479.5,-129"/>
<text text-anchor="middle" x="546" y="-136" font-family="Helvetica,sans-Serif" font-size="10.00">nlohmann/json_fwd.hpp</text>
</a>
</g>
</g>
<!-- Node13&#45;&gt;Node22 -->
<g id="edge35" class="edge">
<title>Node13&#45;&gt;Node22</title>
<path fill="none" stroke="midnightblue" d="M776.14,-190.56C721.71,-178.48 644.12,-161.27 594.4,-150.24"/>
<polygon fill="midnightblue" stroke="midnightblue" points="595.06,-146.8 584.54,-148.05 593.55,-153.63 595.06,-146.8"/>
</g>
<!-- Node15&#45;&gt;Node4 -->
<g id="edge21" class="edge">
<title>Node15&#45;&gt;Node4</title>
<path fill="none" stroke="midnightblue" d="M768.82,-124.43C765.84,-123.93 762.89,-123.46 760,-123 639.11,-103.95 605.36,-118.11 487,-87 484.49,-86.34 481.92,-85.55 479.37,-84.69"/>
<polygon fill="midnightblue" stroke="midnightblue" points="480.35,-81.32 469.75,-81.09 477.89,-87.87 480.35,-81.32"/>
</g>
<!-- Node16 -->
<g id="node16" class="node">
<title>Node16</title>
<g id="a_node16"><a xlink:href="void__t_8hpp.html" target="_top" xlink:title=" ">
<polygon fill="white" stroke="black" points="776.5,-56.5 776.5,-86.5 901.5,-86.5 901.5,-56.5 776.5,-56.5"/>
<text text-anchor="start" x="784.5" y="-74.5" font-family="Helvetica,sans-Serif" font-size="10.00">nlohmann/detail/meta</text>
<text text-anchor="middle" x="839" y="-63.5" font-family="Helvetica,sans-Serif" font-size="10.00">/void_t.hpp</text>
</a>
</g>
</g>
<!-- Node15&#45;&gt;Node16 -->
<g id="edge22" class="edge">
<title>Node15&#45;&gt;Node16</title>
<path fill="none" stroke="midnightblue" d="M839,-123.4C839,-115.64 839,-105.81 839,-96.86"/>
<polygon fill="midnightblue" stroke="midnightblue" points="842.5,-96.58 839,-86.58 835.5,-96.58 842.5,-96.58"/>
</g>
<!-- Node15&#45;&gt;Node17 -->
<g id="edge23" class="edge">
<title>Node15&#45;&gt;Node17</title>
<path fill="none" stroke="midnightblue" d="M870.03,-123.4C891.02,-113.86 918.94,-101.16 941.65,-90.84"/>
<polygon fill="midnightblue" stroke="midnightblue" points="943.38,-93.9 951.03,-86.58 940.48,-87.53 943.38,-93.9"/>
</g>
<!-- Node17&#45;&gt;Node3 -->
<g id="edge24" class="edge">
<title>Node17&#45;&gt;Node3</title>
<path fill="none" stroke="midnightblue" d="M919.23,-57.49C916.12,-56.96 913.03,-56.46 910,-56 762.21,-33.58 584.63,-19.15 509.01,-13.59"/>
<polygon fill="midnightblue" stroke="midnightblue" points="509.26,-10.1 499.03,-12.87 508.75,-17.08 509.26,-10.1"/>
</g>
<!-- Node17&#45;&gt;Node7 -->
<g id="edge26" class="edge">
<title>Node17&#45;&gt;Node7</title>
<path fill="none" stroke="midnightblue" d="M1039.75,-56.47C1083.44,-45.86 1142.55,-31.51 1182.58,-21.79"/>
<polygon fill="midnightblue" stroke="midnightblue" points="1183.44,-25.18 1192.33,-19.42 1181.79,-18.38 1183.44,-25.18"/>
</g>
<!-- Node17&#45;&gt;Node12 -->
<g id="edge25" class="edge">
<title>Node17&#45;&gt;Node12</title>
<path fill="none" stroke="midnightblue" d="M919.26,-57.33C916.13,-56.84 913.03,-56.4 910,-56 771.21,-37.9 334.94,-18.17 204.92,-12.56"/>
<polygon fill="midnightblue" stroke="midnightblue" points="204.84,-9.06 194.7,-12.12 204.54,-16.05 204.84,-9.06"/>
</g>
<!-- Node18&#45;&gt;Node8 -->
<g id="edge28" class="edge">
<title>Node18&#45;&gt;Node8</title>
<path fill="none" stroke="midnightblue" d="M1236.52,-123.4C1255.73,-112.34 1282.3,-97.06 1301.3,-86.13"/>
<polygon fill="midnightblue" stroke="midnightblue" points="1303.29,-89.03 1310.21,-81.01 1299.8,-82.96 1303.29,-89.03"/>
</g>
<!-- Node19 -->
<g id="node19" class="node">
<title>Node19</title>
<g id="a_node19"><a xlink:href="hedley_8hpp.html" target="_top" xlink:title=" ">
<polygon fill="white" stroke="black" points="1101,-56.5 1101,-86.5 1217,-86.5 1217,-56.5 1101,-56.5"/>
<text text-anchor="start" x="1109" y="-74.5" font-family="Helvetica,sans-Serif" font-size="10.00">nlohmann/thirdparty</text>
<text text-anchor="middle" x="1159" y="-63.5" font-family="Helvetica,sans-Serif" font-size="10.00">/hedley/hedley.hpp</text>
</a>
</g>
</g>
<!-- Node18&#45;&gt;Node19 -->
<g id="edge29" class="edge">
<title>Node18&#45;&gt;Node19</title>
<path fill="none" stroke="midnightblue" d="M1200.5,-123.4C1193.62,-114.96 1184.74,-104.07 1176.96,-94.52"/>
<polygon fill="midnightblue" stroke="midnightblue" points="1179.51,-92.11 1170.48,-86.58 1174.08,-96.54 1179.51,-92.11"/>
</g>
<!-- Node20 -->
<g id="node20" class="node">
<title>Node20</title>
<g id="a_node20"><a xlink:title=" ">
<polygon fill="white" stroke="#bfbfbf" points="1235.5,-62 1235.5,-81 1284.5,-81 1284.5,-62 1235.5,-62"/>
<text text-anchor="middle" x="1260" y="-69" font-family="Helvetica,sans-Serif" font-size="10.00">cstdlib</text>
</a>
</g>
</g>
<!-- Node18&#45;&gt;Node20 -->
<g id="edge30" class="edge">
<title>Node18&#45;&gt;Node20</title>
<path fill="none" stroke="midnightblue" d="M1222.42,-123.4C1229.83,-113.36 1239.81,-99.84 1247.63,-89.25"/>
<polygon fill="midnightblue" stroke="midnightblue" points="1250.45,-91.32 1253.58,-81.19 1244.82,-87.16 1250.45,-91.32"/>
</g>
<!-- Node21&#45;&gt;Node7 -->
<g id="edge33" class="edge">
<title>Node21&#45;&gt;Node7</title>
<path fill="none" stroke="midnightblue" d="M1007.52,-123.44C1036.37,-100.29 1090.83,-56.64 1092,-56 1120.48,-40.51 1155.24,-29.08 1182.36,-21.61"/>
<polygon fill="midnightblue" stroke="midnightblue" points="1183.59,-24.91 1192.34,-18.94 1181.78,-18.14 1183.59,-24.91"/>
</g>
<!-- Node21&#45;&gt;Node16 -->
<g id="edge34" class="edge">
<title>Node21&#45;&gt;Node16</title>
<path fill="none" stroke="midnightblue" d="M957.24,-123.4C934.88,-113.77 905.06,-100.94 880.96,-90.56"/>
<polygon fill="midnightblue" stroke="midnightblue" points="882.27,-87.32 871.7,-86.58 879.5,-93.75 882.27,-87.32"/>
</g>
<!-- Node22&#45;&gt;Node5 -->
<g id="edge39" class="edge">
<title>Node22&#45;&gt;Node5</title>
<path fill="none" stroke="midnightblue" d="M502.6,-128.96C461.81,-120.36 399.36,-105.7 347,-87 345.38,-86.42 343.74,-85.79 342.09,-85.13"/>
<polygon fill="midnightblue" stroke="midnightblue" points="343.38,-81.87 332.81,-81.07 340.57,-88.28 343.38,-81.87"/>
</g>
<!-- Node22&#45;&gt;Node10 -->
<g id="edge40" class="edge">
<title>Node22&#45;&gt;Node10</title>
<path fill="none" stroke="midnightblue" d="M560.3,-128.73C578.02,-117.87 608.43,-99.22 629.34,-86.39"/>
<polygon fill="midnightblue" stroke="midnightblue" points="631.24,-89.34 637.93,-81.13 627.58,-83.37 631.24,-89.34"/>
</g>
<!-- Node23 -->
<g id="node23" class="node">
<title>Node23</title>
<g id="a_node23"><a xlink:title=" ">
<polygon fill="white" stroke="#bfbfbf" points="356,-62 356,-81 406,-81 406,-62 356,-62"/>
<text text-anchor="middle" x="381" y="-69" font-family="Helvetica,sans-Serif" font-size="10.00">cstdint</text>
</a>
</g>
</g>
<!-- Node22&#45;&gt;Node23 -->
<g id="edge36" class="edge">
<title>Node22&#45;&gt;Node23</title>
<path fill="none" stroke="midnightblue" d="M523.19,-128.98C496.97,-119.13 452.72,-102.31 415,-87 413.41,-86.35 411.77,-85.68 410.13,-85"/>
<polygon fill="midnightblue" stroke="midnightblue" points="411.3,-81.7 400.73,-81.05 408.59,-88.15 411.3,-81.7"/>
</g>
<!-- Node24 -->
<g id="node24" class="node">
<title>Node24</title>
<g id="a_node24"><a xlink:title=" ">
<polygon fill="white" stroke="#bfbfbf" points="572,-62 572,-81 610,-81 610,-62 572,-62"/>
<text text-anchor="middle" x="591" y="-69" font-family="Helvetica,sans-Serif" font-size="10.00">map</text>
</a>
</g>
</g>
<!-- Node22&#45;&gt;Node24 -->
<g id="edge37" class="edge">
<title>Node22&#45;&gt;Node24</title>
<path fill="none" stroke="midnightblue" d="M552.07,-128.73C559.02,-118.7 570.57,-102.01 579.29,-89.42"/>
<polygon fill="midnightblue" stroke="midnightblue" points="582.21,-91.34 585.03,-81.13 576.46,-87.36 582.21,-91.34"/>
</g>
<!-- Node25 -->
<g id="node25" class="node">
<title>Node25</title>
<g id="a_node25"><a xlink:title=" ">
<polygon fill="white" stroke="#bfbfbf" points="496,-62 496,-81 554,-81 554,-62 496,-62"/>
<text text-anchor="middle" x="525" y="-69" font-family="Helvetica,sans-Serif" font-size="10.00">memory</text>
</a>
</g>
</g>
<!-- Node22&#45;&gt;Node25 -->
<g id="edge38" class="edge">
<title>Node22&#45;&gt;Node25</title>
<path fill="none" stroke="midnightblue" d="M543.17,-128.73C540.05,-119.09 534.95,-103.3 530.95,-90.91"/>
<polygon fill="midnightblue" stroke="midnightblue" points="534.19,-89.57 527.79,-81.13 527.53,-91.72 534.19,-89.57"/>
</g>
<!-- Node26&#45;&gt;Node3 -->
<g id="edge43" class="edge">
<title>Node26&#45;&gt;Node3</title>
<path fill="none" stroke="midnightblue" d="M216.97,-123.48C212.74,-105.52 208.75,-74.53 225,-56 252.03,-25.17 372.71,-15.35 434.81,-12.31"/>
<polygon fill="midnightblue" stroke="midnightblue" points="435.14,-15.8 444.97,-11.85 434.82,-8.81 435.14,-15.8"/>
</g>
<!-- Node26&#45;&gt;Node5 -->
<g id="edge46" class="edge">
<title>Node26&#45;&gt;Node5</title>
<path fill="none" stroke="midnightblue" d="M241.61,-123.4C257.4,-112.6 279.09,-97.76 294.97,-86.89"/>
<polygon fill="midnightblue" stroke="midnightblue" points="297.29,-89.54 303.57,-81.01 293.34,-83.77 297.29,-89.54"/>
</g>
<!-- Node26&#45;&gt;Node12 -->
<g id="edge44" class="edge">
<title>Node26&#45;&gt;Node12</title>
<path fill="none" stroke="midnightblue" d="M211.77,-123.35C205.6,-113.45 197.61,-99.78 192,-87 183.68,-68.04 176.88,-45.27 172.67,-29.63"/>
<polygon fill="midnightblue" stroke="midnightblue" points="175.98,-28.45 170.08,-19.65 169.21,-30.21 175.98,-28.45"/>
</g>
<!-- Node26&#45;&gt;Node23 -->
<g id="edge45" class="edge">
<title>Node26&#45;&gt;Node23</title>
<path fill="none" stroke="midnightblue" d="M256.66,-123.45C281.94,-113.43 316.62,-99.56 347,-87 348.59,-86.34 350.22,-85.66 351.86,-84.97"/>
<polygon fill="midnightblue" stroke="midnightblue" points="353.4,-88.12 361.25,-81.01 350.68,-81.68 353.4,-88.12"/>
</g>
<!-- Node27 -->
<g id="node27" class="node">
<title>Node27</title>
<g id="a_node27"><a xlink:title=" ">
<polygon fill="white" stroke="#bfbfbf" points="234,-62 234,-81 276,-81 276,-62 234,-62"/>
<text text-anchor="middle" x="255" y="-69" font-family="Helvetica,sans-Serif" font-size="10.00">array</text>
</a>
</g>
</g>
<!-- Node26&#45;&gt;Node27 -->
<g id="edge42" class="edge">
<title>Node26&#45;&gt;Node27</title>
<path fill="none" stroke="midnightblue" d="M228.38,-123.4C233.47,-113.66 240.28,-100.65 245.73,-90.21"/>
<polygon fill="midnightblue" stroke="midnightblue" points="248.92,-91.68 250.45,-81.19 242.72,-88.43 248.92,-91.68"/>
</g>
</g>
</svg>
