<?xml version="1.0" encoding="UTF-8" standalone="no"?>
<!DOCTYPE svg PUBLIC "-//W3C//DTD SVG 1.1//EN"
 "http://www.w3.org/Graphics/SVG/1.1/DTD/svg11.dtd">
<!-- Generated by graphviz version 2.43.0 (0)
 -->
<!-- Title: main Pages: 1 -->
<svg width="207pt" height="78pt"
 viewBox="0.00 0.00 207.00 77.50" xmlns="http://www.w3.org/2000/svg" xmlns:xlink="http://www.w3.org/1999/xlink">
<g id="graph0" class="graph" transform="scale(1 1) rotate(0) translate(4 73.5)">
<title>main</title>
<polygon fill="white" stroke="transparent" points="-4,4 -4,-73.5 203,-73.5 203,4 -4,4"/>
<!-- Node1 -->
<g id="node1" class="node">
<title>Node1</title>
<g id="a_node1"><a xlink:title=" ">
<polygon fill="#bfbfbf" stroke="black" points="0,-28 0,-47 41,-47 41,-28 0,-28"/>
<text text-anchor="middle" x="20.5" y="-35" font-family="Helvetica,sans-Serif" font-size="10.00">main</text>
</a>
</g>
</g>
<!-- Node2 -->
<g id="node2" class="node">
<title>Node2</title>
<g id="a_node2"><a xlink:href="to__ubjson_8cpp.html#ae0af4da978c1af91fd2bed169b92dae3" target="_top" xlink:title=" ">
<polygon fill="white" stroke="black" points="105,-50 105,-69 171,-69 171,-50 105,-50"/>
<text text-anchor="middle" x="138" y="-57" font-family="Helvetica,sans-Serif" font-size="10.00">print_byte</text>
</a>
</g>
</g>
<!-- Node1&#45;&gt;Node2 -->
<g id="edge1" class="edge">
<title>Node1&#45;&gt;Node2</title>
<path fill="none" stroke="midnightblue" d="M41.09,-41.23C55.76,-44.02 76.36,-47.95 94.71,-51.44"/>
<polygon fill="midnightblue" stroke="midnightblue" points="94.14,-54.9 104.62,-53.33 95.45,-48.02 94.14,-54.9"/>
</g>
<!-- Node3 -->
<g id="node3" class="node">
<title>Node3</title>
<g id="a_node3"><a xlink:href="classnlohmann_1_1basic__json.html#ae1ece6c2059114eac10873f13ef19185" target="_top" xlink:title="create a UBJSON serialization of a given JSON value">
<polygon fill="white" stroke="black" points="77,-0.5 77,-30.5 199,-30.5 199,-0.5 77,-0.5"/>
<text text-anchor="start" x="85" y="-18.5" font-family="Helvetica,sans-Serif" font-size="10.00">nlohmann::basic_json</text>
<text text-anchor="middle" x="138" y="-7.5" font-family="Helvetica,sans-Serif" font-size="10.00">::to_ubjson</text>
</a>
</g>
</g>
<!-- Node1&#45;&gt;Node3 -->
<g id="edge2" class="edge">
<title>Node1&#45;&gt;Node3</title>
<path fill="none" stroke="midnightblue" d="M41.09,-33.77C48.54,-32.35 57.53,-30.64 66.98,-28.84"/>
<polygon fill="midnightblue" stroke="midnightblue" points="67.77,-32.25 76.94,-26.94 66.46,-25.37 67.77,-32.25"/>
</g>
</g>
</svg>
