<?xml version="1.0" encoding="UTF-8" standalone="no"?>
<!DOCTYPE svg PUBLIC "-//W3C//DTD SVG 1.1//EN"
 "http://www.w3.org/Graphics/SVG/1.1/DTD/svg11.dtd">
<!-- Generated by graphviz version 2.43.0 (0)
 -->
<!-- Title: main Pages: 1 -->
<svg width="863pt" height="112pt"
 viewBox="0.00 0.00 863.00 112.00" xmlns="http://www.w3.org/2000/svg" xmlns:xlink="http://www.w3.org/1999/xlink">
<g id="graph0" class="graph" transform="scale(1 1) rotate(0) translate(4 108)">
<title>main</title>
<polygon fill="white" stroke="transparent" points="-4,4 -4,-108 859,-108 859,4 -4,4"/>
<!-- Node1 -->
<g id="node1" class="node">
<title>Node1</title>
<g id="a_node1"><a xlink:title=" ">
<polygon fill="#bfbfbf" stroke="black" points="0,-30 0,-49 41,-49 41,-30 0,-30"/>
<text text-anchor="middle" x="20.5" y="-37" font-family="Helvetica,sans-Serif" font-size="10.00">main</text>
</a>
</g>
</g>
<!-- Node2 -->
<g id="node2" class="node">
<title>Node2</title>
<g id="a_node2"><a xlink:href="classnlohmann_1_1basic__json.html#a74fa3ab2003f2f6f2b69deaafed9126d" target="_top" xlink:title="unflatten a previously flattened JSON value">
<polygon fill="white" stroke="black" points="77,-24.5 77,-54.5 199,-54.5 199,-24.5 77,-24.5"/>
<text text-anchor="start" x="85" y="-42.5" font-family="Helvetica,sans-Serif" font-size="10.00">nlohmann::basic_json</text>
<text text-anchor="middle" x="138" y="-31.5" font-family="Helvetica,sans-Serif" font-size="10.00">::unflatten</text>
</a>
</g>
</g>
<!-- Node1&#45;&gt;Node2 -->
<g id="edge1" class="edge">
<title>Node1&#45;&gt;Node2</title>
<path fill="none" stroke="midnightblue" d="M41.09,-39.5C48.47,-39.5 57.34,-39.5 66.68,-39.5"/>
<polygon fill="midnightblue" stroke="midnightblue" points="66.94,-43 76.94,-39.5 66.94,-36 66.94,-43"/>
</g>
<!-- Node3 -->
<g id="node3" class="node">
<title>Node3</title>
<g id="a_node3"><a xlink:href="classnlohmann_1_1json__pointer.html#a920065221e3c81676c3211c100d024a7" target="_top" xlink:title=" ">
<polygon fill="white" stroke="black" points="235,-24.5 235,-54.5 366,-54.5 366,-24.5 235,-24.5"/>
<text text-anchor="start" x="243" y="-42.5" font-family="Helvetica,sans-Serif" font-size="10.00">nlohmann::json_pointer</text>
<text text-anchor="middle" x="300.5" y="-31.5" font-family="Helvetica,sans-Serif" font-size="10.00">::unflatten</text>
</a>
</g>
</g>
<!-- Node2&#45;&gt;Node3 -->
<g id="edge2" class="edge">
<title>Node2&#45;&gt;Node3</title>
<path fill="none" stroke="midnightblue" d="M199.22,-39.5C207.6,-39.5 216.28,-39.5 224.88,-39.5"/>
<polygon fill="midnightblue" stroke="midnightblue" points="224.91,-43 234.91,-39.5 224.91,-36 224.91,-43"/>
</g>
<!-- Node4 -->
<g id="node4" class="node">
<title>Node4</title>
<g id="a_node4"><a xlink:href="classnlohmann_1_1detail_1_1type__error.html#aecc083aea4b698c33d042670ba50c10f" target="_top" xlink:title=" ">
<polygon fill="white" stroke="black" points="404,-49.5 404,-79.5 531,-79.5 531,-49.5 404,-49.5"/>
<text text-anchor="start" x="412" y="-67.5" font-family="Helvetica,sans-Serif" font-size="10.00">nlohmann::detail::type</text>
<text text-anchor="middle" x="467.5" y="-56.5" font-family="Helvetica,sans-Serif" font-size="10.00">_error::create</text>
</a>
</g>
</g>
<!-- Node3&#45;&gt;Node4 -->
<g id="edge3" class="edge">
<title>Node3&#45;&gt;Node4</title>
<path fill="none" stroke="midnightblue" d="M366.24,-49.31C375.32,-50.69 384.71,-52.11 393.92,-53.5"/>
<polygon fill="midnightblue" stroke="midnightblue" points="393.43,-56.97 403.84,-55.01 394.48,-50.05 393.43,-56.97"/>
</g>
<!-- Node8 -->
<g id="node8" class="node">
<title>Node8</title>
<g id="a_node8"><a xlink:href="classnlohmann_1_1json__pointer.html#a7f32d7c62841f0c4a6784cf741a6e4f8" target="_top" xlink:title="create JSON pointer">
<polygon fill="white" stroke="black" points="402,-0.5 402,-30.5 533,-30.5 533,-0.5 402,-0.5"/>
<text text-anchor="start" x="410" y="-18.5" font-family="Helvetica,sans-Serif" font-size="10.00">nlohmann::json_pointer</text>
<text text-anchor="middle" x="467.5" y="-7.5" font-family="Helvetica,sans-Serif" font-size="10.00">::json_pointer</text>
</a>
</g>
</g>
<!-- Node3&#45;&gt;Node8 -->
<g id="edge7" class="edge">
<title>Node3&#45;&gt;Node8</title>
<path fill="none" stroke="midnightblue" d="M366.24,-30.08C374.67,-28.86 383.37,-27.59 391.95,-26.34"/>
<polygon fill="midnightblue" stroke="midnightblue" points="392.56,-29.79 401.95,-24.89 391.55,-22.87 392.56,-29.79"/>
</g>
<!-- Node5 -->
<g id="node5" class="node">
<title>Node5</title>
<g id="a_node5"><a xlink:href="classnlohmann_1_1detail_1_1exception.html#abf41a7e9178356314082284e6cfea278" target="_top" xlink:title=" ">
<polygon fill="white" stroke="black" points="569,-73.5 569,-103.5 722,-103.5 722,-73.5 569,-73.5"/>
<text text-anchor="start" x="577" y="-91.5" font-family="Helvetica,sans-Serif" font-size="10.00">nlohmann::detail::exception</text>
<text text-anchor="middle" x="645.5" y="-80.5" font-family="Helvetica,sans-Serif" font-size="10.00">::name</text>
</a>
</g>
</g>
<!-- Node4&#45;&gt;Node5 -->
<g id="edge4" class="edge">
<title>Node4&#45;&gt;Node5</title>
<path fill="none" stroke="midnightblue" d="M531.05,-73.03C540.04,-74.26 549.43,-75.54 558.78,-76.81"/>
<polygon fill="midnightblue" stroke="midnightblue" points="558.51,-80.31 568.89,-78.19 559.46,-73.37 558.51,-80.31"/>
</g>
<!-- Node7 -->
<g id="node7" class="node">
<title>Node7</title>
<g id="a_node7"><a xlink:href="classnlohmann_1_1detail_1_1type__error.html#aa01edaa0bf18b853368f0b900e485cd7" target="_top" xlink:title=" ">
<polygon fill="white" stroke="black" points="582,-24.5 582,-54.5 709,-54.5 709,-24.5 582,-24.5"/>
<text text-anchor="start" x="590" y="-42.5" font-family="Helvetica,sans-Serif" font-size="10.00">nlohmann::detail::type</text>
<text text-anchor="middle" x="645.5" y="-31.5" font-family="Helvetica,sans-Serif" font-size="10.00">_error::type_error</text>
</a>
</g>
</g>
<!-- Node4&#45;&gt;Node7 -->
<g id="edge6" class="edge">
<title>Node4&#45;&gt;Node7</title>
<path fill="none" stroke="midnightblue" d="M531.05,-55.62C544.2,-53.75 558.17,-51.76 571.66,-49.85"/>
<polygon fill="midnightblue" stroke="midnightblue" points="572.45,-53.27 581.86,-48.4 571.47,-46.34 572.45,-53.27"/>
</g>
<!-- Node6 -->
<g id="node6" class="node">
<title>Node6</title>
<g id="a_node6"><a xlink:href="namespacehttplib.html#a498c3a79825ecbcb15c52ec5fcfd5c11" target="_top" xlink:title=" ">
<polygon fill="white" stroke="black" points="758,-79 758,-98 855,-98 855,-79 758,-79"/>
<text text-anchor="middle" x="806.5" y="-86" font-family="Helvetica,sans-Serif" font-size="10.00">httplib::to_string</text>
</a>
</g>
</g>
<!-- Node5&#45;&gt;Node6 -->
<g id="edge5" class="edge">
<title>Node5&#45;&gt;Node6</title>
<path fill="none" stroke="midnightblue" d="M722.27,-88.5C730.82,-88.5 739.43,-88.5 747.7,-88.5"/>
<polygon fill="midnightblue" stroke="midnightblue" points="747.96,-92 757.96,-88.5 747.96,-85 747.96,-92"/>
</g>
</g>
</svg>
