<?xml version="1.0" encoding="UTF-8" standalone="no"?>
<!DOCTYPE svg PUBLIC "-//W3C//DTD SVG 1.1//EN"
 "http://www.w3.org/Graphics/SVG/1.1/DTD/svg11.dtd">
<!-- Generated by graphviz version 2.43.0 (0)
 -->
<!-- Title: nlohmann::basic_json::json_value::json_value Pages: 1 -->
<svg width="785pt" height="258pt"
 viewBox="0.00 0.00 785.00 258.00" xmlns="http://www.w3.org/2000/svg" xmlns:xlink="http://www.w3.org/1999/xlink">
<g id="graph0" class="graph" transform="scale(1 1) rotate(0) translate(4 254)">
<title>nlohmann::basic_json::json_value::json_value</title>
<polygon fill="white" stroke="transparent" points="-4,4 -4,-254 781,-254 781,4 -4,4"/>
<!-- Node1 -->
<g id="node1" class="node">
<title>Node1</title>
<g id="a_node1"><a xlink:title="constructor for arrays">
<polygon fill="#bfbfbf" stroke="black" points="0,-88.5 0,-118.5 134,-118.5 134,-88.5 0,-88.5"/>
<text text-anchor="start" x="8" y="-106.5" font-family="Helvetica,sans-Serif" font-size="10.00">nlohmann::basic_json</text>
<text text-anchor="middle" x="67" y="-95.5" font-family="Helvetica,sans-Serif" font-size="10.00">::json_value::json_value</text>
</a>
</g>
</g>
<!-- Node2 -->
<g id="node2" class="node">
<title>Node2</title>
<g id="a_node2"><a xlink:href="classnlohmann_1_1basic__json.html#adcf8ca5079f5db993820bf50036bf45d" target="_top" xlink:title="access specified object element with default value">
<polygon fill="white" stroke="black" points="170,-88.5 170,-118.5 292,-118.5 292,-88.5 170,-88.5"/>
<text text-anchor="start" x="178" y="-106.5" font-family="Helvetica,sans-Serif" font-size="10.00">nlohmann::basic_json</text>
<text text-anchor="middle" x="231" y="-95.5" font-family="Helvetica,sans-Serif" font-size="10.00">::value</text>
</a>
</g>
</g>
<!-- Node1&#45;&gt;Node2 -->
<g id="edge1" class="edge">
<title>Node1&#45;&gt;Node2</title>
<path fill="none" stroke="midnightblue" d="M134.36,-103.5C142.75,-103.5 151.35,-103.5 159.79,-103.5"/>
<polygon fill="midnightblue" stroke="midnightblue" points="159.99,-107 169.99,-103.5 159.99,-100 159.99,-107"/>
</g>
<!-- Node3 -->
<g id="node3" class="node">
<title>Node3</title>
<g id="a_node3"><a xlink:href="classnlohmann_1_1detail_1_1type__error.html#aecc083aea4b698c33d042670ba50c10f" target="_top" xlink:title=" ">
<polygon fill="white" stroke="black" points="328,-176.5 328,-206.5 455,-206.5 455,-176.5 328,-176.5"/>
<text text-anchor="start" x="336" y="-194.5" font-family="Helvetica,sans-Serif" font-size="10.00">nlohmann::detail::type</text>
<text text-anchor="middle" x="391.5" y="-183.5" font-family="Helvetica,sans-Serif" font-size="10.00">_error::create</text>
</a>
</g>
</g>
<!-- Node2&#45;&gt;Node3 -->
<g id="edge2" class="edge">
<title>Node2&#45;&gt;Node3</title>
<path fill="none" stroke="midnightblue" d="M255.7,-118.69C274.9,-130.79 302.82,-147.89 328,-161.5 334.48,-165 341.43,-168.54 348.26,-171.91"/>
<polygon fill="midnightblue" stroke="midnightblue" points="346.92,-175.14 357.44,-176.36 349.97,-168.85 346.92,-175.14"/>
</g>
<!-- Node7 -->
<g id="node7" class="node">
<title>Node7</title>
<g id="a_node7"><a xlink:href="classnlohmann_1_1basic__json.html#a13e032a02a7fd8a93fdddc2fcbc4763c" target="_top" xlink:title="returns an iterator to one past the last element">
<polygon fill="white" stroke="black" points="494.5,-127 494.5,-146 640.5,-146 640.5,-127 494.5,-127"/>
<text text-anchor="middle" x="567.5" y="-134" font-family="Helvetica,sans-Serif" font-size="10.00">nlohmann::basic_json::end</text>
</a>
</g>
</g>
<!-- Node2&#45;&gt;Node7 -->
<g id="edge6" class="edge">
<title>Node2&#45;&gt;Node7</title>
<path fill="none" stroke="midnightblue" d="M283.93,-118.57C298.1,-122.11 313.54,-125.44 328,-127.5 379.58,-134.84 438.03,-137.14 484.16,-137.58"/>
<polygon fill="midnightblue" stroke="midnightblue" points="484.38,-141.08 494.4,-137.65 484.43,-134.08 484.38,-141.08"/>
</g>
<!-- Node8 -->
<g id="node8" class="node">
<title>Node8</title>
<g id="a_node8"><a xlink:href="classnlohmann_1_1basic__json.html#a89eb3928f57903677051c80534be9cb1" target="_top" xlink:title="find an element in a JSON object">
<polygon fill="white" stroke="black" points="330.5,-88.5 330.5,-118.5 452.5,-118.5 452.5,-88.5 330.5,-88.5"/>
<text text-anchor="start" x="338.5" y="-106.5" font-family="Helvetica,sans-Serif" font-size="10.00">nlohmann::basic_json</text>
<text text-anchor="middle" x="391.5" y="-95.5" font-family="Helvetica,sans-Serif" font-size="10.00">::find</text>
</a>
</g>
</g>
<!-- Node2&#45;&gt;Node8 -->
<g id="edge7" class="edge">
<title>Node2&#45;&gt;Node8</title>
<path fill="none" stroke="midnightblue" d="M292.37,-103.5C301.5,-103.5 310.97,-103.5 320.28,-103.5"/>
<polygon fill="midnightblue" stroke="midnightblue" points="320.29,-107 330.29,-103.5 320.29,-100 320.29,-107"/>
</g>
<!-- Node9 -->
<g id="node9" class="node">
<title>Node9</title>
<g id="a_node9"><a xlink:href="classnlohmann_1_1basic__json.html#af8f511af124e82e4579f444b4175787c" target="_top" xlink:title="return whether value is an object">
<polygon fill="white" stroke="black" points="506.5,-66.5 506.5,-96.5 628.5,-96.5 628.5,-66.5 506.5,-66.5"/>
<text text-anchor="start" x="514.5" y="-84.5" font-family="Helvetica,sans-Serif" font-size="10.00">nlohmann::basic_json</text>
<text text-anchor="middle" x="567.5" y="-73.5" font-family="Helvetica,sans-Serif" font-size="10.00">::is_object</text>
</a>
</g>
</g>
<!-- Node2&#45;&gt;Node9 -->
<g id="edge10" class="edge">
<title>Node2&#45;&gt;Node9</title>
<path fill="none" stroke="midnightblue" d="M279.87,-88.48C295.1,-84.39 312.11,-80.53 328,-78.5 384.25,-71.3 448.57,-72.66 496.23,-75.48"/>
<polygon fill="midnightblue" stroke="midnightblue" points="496.24,-78.99 506.44,-76.13 496.68,-72 496.24,-78.99"/>
</g>
<!-- Node10 -->
<g id="node10" class="node">
<title>Node10</title>
<g id="a_node10"><a xlink:href="classnlohmann_1_1basic__json.html#ad14563c53cf7ca9189bc164082367bf3" target="_top" xlink:title="return the type as string">
<polygon fill="white" stroke="black" points="330.5,-0.5 330.5,-30.5 452.5,-30.5 452.5,-0.5 330.5,-0.5"/>
<text text-anchor="start" x="338.5" y="-18.5" font-family="Helvetica,sans-Serif" font-size="10.00">nlohmann::basic_json</text>
<text text-anchor="middle" x="391.5" y="-7.5" font-family="Helvetica,sans-Serif" font-size="10.00">::type_name</text>
</a>
</g>
</g>
<!-- Node2&#45;&gt;Node10 -->
<g id="edge11" class="edge">
<title>Node2&#45;&gt;Node10</title>
<path fill="none" stroke="midnightblue" d="M255.7,-88.31C274.9,-76.21 302.82,-59.11 328,-45.5 334.48,-42 341.43,-38.46 348.26,-35.09"/>
<polygon fill="midnightblue" stroke="midnightblue" points="349.97,-38.15 357.44,-30.64 346.92,-31.86 349.97,-38.15"/>
</g>
<!-- Node4 -->
<g id="node4" class="node">
<title>Node4</title>
<g id="a_node4"><a xlink:href="classnlohmann_1_1detail_1_1exception.html#abf41a7e9178356314082284e6cfea278" target="_top" xlink:title=" ">
<polygon fill="white" stroke="black" points="491,-219.5 491,-249.5 644,-249.5 644,-219.5 491,-219.5"/>
<text text-anchor="start" x="499" y="-237.5" font-family="Helvetica,sans-Serif" font-size="10.00">nlohmann::detail::exception</text>
<text text-anchor="middle" x="567.5" y="-226.5" font-family="Helvetica,sans-Serif" font-size="10.00">::name</text>
</a>
</g>
</g>
<!-- Node3&#45;&gt;Node4 -->
<g id="edge3" class="edge">
<title>Node3&#45;&gt;Node4</title>
<path fill="none" stroke="midnightblue" d="M453.36,-206.54C467,-209.91 481.59,-213.52 495.6,-216.98"/>
<polygon fill="midnightblue" stroke="midnightblue" points="495.13,-220.47 505.68,-219.47 496.81,-213.67 495.13,-220.47"/>
</g>
<!-- Node6 -->
<g id="node6" class="node">
<title>Node6</title>
<g id="a_node6"><a xlink:href="classnlohmann_1_1detail_1_1type__error.html#aa01edaa0bf18b853368f0b900e485cd7" target="_top" xlink:title=" ">
<polygon fill="white" stroke="black" points="504,-170.5 504,-200.5 631,-200.5 631,-170.5 504,-170.5"/>
<text text-anchor="start" x="512" y="-188.5" font-family="Helvetica,sans-Serif" font-size="10.00">nlohmann::detail::type</text>
<text text-anchor="middle" x="567.5" y="-177.5" font-family="Helvetica,sans-Serif" font-size="10.00">_error::type_error</text>
</a>
</g>
</g>
<!-- Node3&#45;&gt;Node6 -->
<g id="edge5" class="edge">
<title>Node3&#45;&gt;Node6</title>
<path fill="none" stroke="midnightblue" d="M455.32,-189.33C467.76,-188.9 480.92,-188.45 493.67,-188.01"/>
<polygon fill="midnightblue" stroke="midnightblue" points="493.9,-191.51 503.77,-187.66 493.66,-184.51 493.9,-191.51"/>
</g>
<!-- Node5 -->
<g id="node5" class="node">
<title>Node5</title>
<g id="a_node5"><a xlink:href="namespacehttplib.html#a498c3a79825ecbcb15c52ec5fcfd5c11" target="_top" xlink:title=" ">
<polygon fill="white" stroke="black" points="680,-225 680,-244 777,-244 777,-225 680,-225"/>
<text text-anchor="middle" x="728.5" y="-232" font-family="Helvetica,sans-Serif" font-size="10.00">httplib::to_string</text>
</a>
</g>
</g>
<!-- Node4&#45;&gt;Node5 -->
<g id="edge4" class="edge">
<title>Node4&#45;&gt;Node5</title>
<path fill="none" stroke="midnightblue" d="M644.27,-234.5C652.82,-234.5 661.43,-234.5 669.7,-234.5"/>
<polygon fill="midnightblue" stroke="midnightblue" points="669.96,-238 679.96,-234.5 669.96,-231 669.96,-238"/>
</g>
<!-- Node8&#45;&gt;Node7 -->
<g id="edge8" class="edge">
<title>Node8&#45;&gt;Node7</title>
<path fill="none" stroke="midnightblue" d="M452.87,-114.95C470.18,-118.23 489.05,-121.81 506.35,-125.09"/>
<polygon fill="midnightblue" stroke="midnightblue" points="505.85,-128.56 516.33,-126.99 507.16,-121.68 505.85,-128.56"/>
</g>
<!-- Node8&#45;&gt;Node9 -->
<g id="edge9" class="edge">
<title>Node8&#45;&gt;Node9</title>
<path fill="none" stroke="midnightblue" d="M452.87,-95.87C466.77,-94.11 481.67,-92.23 495.96,-90.42"/>
<polygon fill="midnightblue" stroke="midnightblue" points="496.76,-93.85 506.24,-89.12 495.88,-86.9 496.76,-93.85"/>
</g>
</g>
</svg>
