<?xml version="1.0" encoding="UTF-8" standalone="no"?>
<!DOCTYPE svg PUBLIC "-//W3C//DTD SVG 1.1//EN"
 "http://www.w3.org/Graphics/SVG/1.1/DTD/svg11.dtd">
<!-- Generated by graphviz version 2.43.0 (0)
 -->
<!-- Title: SECTION Pages: 1 -->
<!--zoomable 177 -->
<svg id="main" version="1.1" xmlns="http://www.w3.org/2000/svg" xmlns:xlink="http://www.w3.org/1999/xlink" xml:space="preserve" onload="init(evt)">
<style type="text/css"><![CDATA[
.edge:hover path { stroke: red; }
.edge:hover polygon { stroke: red; fill: red; }
]]></style>
<script type="text/javascript"><![CDATA[
var edges = document.getElementsByTagName('g');
if (edges && edges.length) {
  for (var i=0;i<edges.length;i++) {
    if (edges[i].id.substr(0,4)=='edge') {
      edges[i].setAttribute('class','edge');
    }
  }
}
]]></script>
        <defs>
                <circle id="rim" cx="0" cy="0" r="7"/>
                <circle id="rim2" cx="0" cy="0" r="3.5"/>
                <g id="zoomPlus">
                        <use xlink:href="#rim" fill="#404040">
                                <set attributeName="fill" to="#808080" begin="zoomplus.mouseover" end="zoomplus.mouseout"/>
                        </use>
                        <path d="M-4,0h8M0,-4v8" fill="none" stroke="white" stroke-width="1.5" pointer-events="none"/>
                </g>
                <g id="zoomMin">
                        <use xlink:href="#rim" fill="#404040">
                                <set attributeName="fill" to="#808080" begin="zoomminus.mouseover" end="zoomminus.mouseout"/>
                        </use>
                        <path d="M-4,0h8" fill="none" stroke="white" stroke-width="1.5" pointer-events="none"/>
                </g>
                <g id="dirArrow">
                        <path fill="none" stroke="white" stroke-width="1.5" d="M0,-3.0v7 M-2.5,-0.5L0,-3.0L2.5,-0.5"/>
                </g>
               <g id="resetDef">
                       <use xlink:href="#rim2" fill="#404040">
                               <set attributeName="fill" to="#808080" begin="reset.mouseover" end="reset.mouseout"/>
                       </use>
               </g>
        </defs>

<script type="text/javascript">
var viewWidth = 881;
var viewHeight = 177;
var sectionId = 'dynsection-5';
</script>
<script xlink:href="svgpan.js"/>
<svg id="graph" class="graph">
<g id="viewport">
<title>SECTION</title>
<polygon fill="white" stroke="transparent" points="-4,4 -4,-173 877,-173 877,4 -4,4"/>
<!-- Node1 -->
<g id="node1" class="node">
<title>Node1</title>
<g id="a_node1"><a xlink:title=" ">
<polygon fill="#bfbfbf" stroke="black" points="0,-102 0,-121 59,-121 59,-102 0,-102"/>
<text text-anchor="middle" x="29.5" y="-109" font-family="Helvetica,sans-Serif" font-size="10.00">SECTION</text>
</a>
</g>
</g>
<!-- Node2 -->
<g id="node2" class="node">
<title>Node2</title>
<g id="a_node2"><a xlink:href="unit-json__pointer_8cpp.html#af5211a60c46b6b8fa7f4771202ca8483" target="_top" xlink:title=" ">
<polygon fill="white" stroke="black" points="131,-146 131,-165 181,-165 181,-146 131,-146"/>
<text text-anchor="middle" x="156" y="-153" font-family="Helvetica,sans-Serif" font-size="10.00">CHECK</text>
</a>
</g>
</g>
<!-- Node1&#45;&gt;Node2 -->
<g id="edge1" class="edge">
<title>Node1&#45;&gt;Node2</title>
<path fill="none" stroke="midnightblue" d="M55.54,-121.05C67.46,-125.53 81.93,-130.89 95,-135.5 103.48,-138.49 112.68,-141.62 121.27,-144.48"/>
<polygon fill="midnightblue" stroke="midnightblue" points="120.4,-147.88 130.99,-147.71 122.6,-141.24 120.4,-147.88"/>
</g>
<!-- Node3 -->
<g id="node3" class="node">
<title>Node3</title>
<g id="a_node3"><a xlink:href="classnlohmann_1_1basic__json.html#ab838f000d76662917ffd6ec529569e03" target="_top" xlink:title="return flattened JSON value">
<polygon fill="white" stroke="black" points="95,-96.5 95,-126.5 217,-126.5 217,-96.5 95,-96.5"/>
<text text-anchor="start" x="103" y="-114.5" font-family="Helvetica,sans-Serif" font-size="10.00">nlohmann::basic_json</text>
<text text-anchor="middle" x="156" y="-103.5" font-family="Helvetica,sans-Serif" font-size="10.00">::flatten</text>
</a>
</g>
</g>
<!-- Node1&#45;&gt;Node3 -->
<g id="edge2" class="edge">
<title>Node1&#45;&gt;Node3</title>
<path fill="none" stroke="midnightblue" d="M59.06,-111.5C66.83,-111.5 75.61,-111.5 84.61,-111.5"/>
<polygon fill="midnightblue" stroke="midnightblue" points="84.84,-115 94.84,-111.5 84.84,-108 84.84,-115"/>
</g>
<!-- Node9 -->
<g id="node9" class="node">
<title>Node9</title>
<g id="a_node9"><a xlink:href="classnlohmann_1_1basic__json.html#a74fa3ab2003f2f6f2b69deaafed9126d" target="_top" xlink:title="unflatten a previously flattened JSON value">
<polygon fill="white" stroke="black" points="95,-47.5 95,-77.5 217,-77.5 217,-47.5 95,-47.5"/>
<text text-anchor="start" x="103" y="-65.5" font-family="Helvetica,sans-Serif" font-size="10.00">nlohmann::basic_json</text>
<text text-anchor="middle" x="156" y="-54.5" font-family="Helvetica,sans-Serif" font-size="10.00">::unflatten</text>
</a>
</g>
</g>
<!-- Node1&#45;&gt;Node9 -->
<g id="edge8" class="edge">
<title>Node1&#45;&gt;Node9</title>
<path fill="none" stroke="midnightblue" d="M54.8,-101.94C69.61,-96.11 89.05,-88.46 106.86,-81.45"/>
<polygon fill="midnightblue" stroke="midnightblue" points="108.53,-84.55 116.55,-77.63 105.96,-78.04 108.53,-84.55"/>
</g>
<!-- Node4 -->
<g id="node4" class="node">
<title>Node4</title>
<g id="a_node4"><a xlink:href="classnlohmann_1_1json__pointer.html#ab0d7759d0caa6a0c0187916da28e6ee7" target="_top" xlink:title=" ">
<polygon fill="white" stroke="black" points="253,-96.5 253,-126.5 384,-126.5 384,-96.5 253,-96.5"/>
<text text-anchor="start" x="261" y="-114.5" font-family="Helvetica,sans-Serif" font-size="10.00">nlohmann::json_pointer</text>
<text text-anchor="middle" x="318.5" y="-103.5" font-family="Helvetica,sans-Serif" font-size="10.00">::flatten</text>
</a>
</g>
</g>
<!-- Node3&#45;&gt;Node4 -->
<g id="edge3" class="edge">
<title>Node3&#45;&gt;Node4</title>
<path fill="none" stroke="midnightblue" d="M217.22,-111.5C225.6,-111.5 234.28,-111.5 242.88,-111.5"/>
<polygon fill="midnightblue" stroke="midnightblue" points="242.91,-115 252.91,-111.5 242.91,-108 242.91,-115"/>
</g>
<!-- Node5 -->
<g id="node5" class="node">
<title>Node5</title>
<g id="a_node5"><a xlink:href="classnlohmann_1_1json__pointer.html#a8abf3577f9a0087f29a233893cdc73ad" target="_top" xlink:title="escape &quot;~&quot; to &quot;~0&quot; and &quot;/&quot; to &quot;~1&quot;">
<polygon fill="white" stroke="black" points="420,-138.5 420,-168.5 551,-168.5 551,-138.5 420,-138.5"/>
<text text-anchor="start" x="428" y="-156.5" font-family="Helvetica,sans-Serif" font-size="10.00">nlohmann::json_pointer</text>
<text text-anchor="middle" x="485.5" y="-145.5" font-family="Helvetica,sans-Serif" font-size="10.00">::escape</text>
</a>
</g>
</g>
<!-- Node4&#45;&gt;Node5 -->
<g id="edge4" class="edge">
<title>Node4&#45;&gt;Node5</title>
<path fill="none" stroke="midnightblue" d="M378.6,-126.54C390.64,-129.61 403.41,-132.86 415.75,-136"/>
<polygon fill="midnightblue" stroke="midnightblue" points="414.98,-139.42 425.53,-138.49 416.71,-132.63 414.98,-139.42"/>
</g>
<!-- Node8 -->
<g id="node8" class="node">
<title>Node8</title>
<g id="a_node8"><a xlink:href="namespacehttplib.html#a498c3a79825ecbcb15c52ec5fcfd5c11" target="_top" xlink:title=" ">
<polygon fill="white" stroke="black" points="776,-78 776,-97 873,-97 873,-78 776,-78"/>
<text text-anchor="middle" x="824.5" y="-85" font-family="Helvetica,sans-Serif" font-size="10.00">httplib::to_string</text>
</a>
</g>
</g>
<!-- Node4&#45;&gt;Node8 -->
<g id="edge7" class="edge">
<title>Node4&#45;&gt;Node8</title>
<path fill="none" stroke="midnightblue" d="M384.1,-108.42C483.05,-103.71 670.63,-94.78 765.48,-90.26"/>
<polygon fill="midnightblue" stroke="midnightblue" points="765.92,-93.75 775.75,-89.77 765.59,-86.75 765.92,-93.75"/>
</g>
<!-- Node6 -->
<g id="node6" class="node">
<title>Node6</title>
<g id="a_node6"><a xlink:href="classnlohmann_1_1json__pointer.html#aa7649d30da9fc10b0e20704a27aea2a9" target="_top" xlink:title="replace all occurrences of a substring by another string">
<polygon fill="white" stroke="black" points="598,-138.5 598,-168.5 729,-168.5 729,-138.5 598,-138.5"/>
<text text-anchor="start" x="606" y="-156.5" font-family="Helvetica,sans-Serif" font-size="10.00">nlohmann::json_pointer</text>
<text text-anchor="middle" x="663.5" y="-145.5" font-family="Helvetica,sans-Serif" font-size="10.00">::replace_substring</text>
</a>
</g>
</g>
<!-- Node5&#45;&gt;Node6 -->
<g id="edge5" class="edge">
<title>Node5&#45;&gt;Node6</title>
<path fill="none" stroke="midnightblue" d="M551.04,-153.5C562.99,-153.5 575.57,-153.5 587.8,-153.5"/>
<polygon fill="midnightblue" stroke="midnightblue" points="587.97,-157 597.97,-153.5 587.97,-150 587.97,-157"/>
</g>
<!-- Node7 -->
<g id="node7" class="node">
<title>Node7</title>
<g id="a_node7"><a xlink:href="FuzzerTracePC_8cpp.html#a1f10ac78bd11294b612636121065eb5b" target="_top" xlink:title=" ">
<polygon fill="white" stroke="black" points="801,-144 801,-163 848,-163 848,-144 801,-144"/>
<text text-anchor="middle" x="824.5" y="-151" font-family="Helvetica,sans-Serif" font-size="10.00">assert</text>
</a>
</g>
</g>
<!-- Node6&#45;&gt;Node7 -->
<g id="edge6" class="edge">
<title>Node6&#45;&gt;Node7</title>
<path fill="none" stroke="midnightblue" d="M729.17,-153.5C750.35,-153.5 772.98,-153.5 790.76,-153.5"/>
<polygon fill="midnightblue" stroke="midnightblue" points="790.89,-157 800.89,-153.5 790.89,-150 790.89,-157"/>
</g>
<!-- Node10 -->
<g id="node10" class="node">
<title>Node10</title>
<g id="a_node10"><a xlink:href="classnlohmann_1_1json__pointer.html#a920065221e3c81676c3211c100d024a7" target="_top" xlink:title=" ">
<polygon fill="white" stroke="black" points="253,-47.5 253,-77.5 384,-77.5 384,-47.5 253,-47.5"/>
<text text-anchor="start" x="261" y="-65.5" font-family="Helvetica,sans-Serif" font-size="10.00">nlohmann::json_pointer</text>
<text text-anchor="middle" x="318.5" y="-54.5" font-family="Helvetica,sans-Serif" font-size="10.00">::unflatten</text>
</a>
</g>
</g>
<!-- Node9&#45;&gt;Node10 -->
<g id="edge9" class="edge">
<title>Node9&#45;&gt;Node10</title>
<path fill="none" stroke="midnightblue" d="M217.22,-62.5C225.6,-62.5 234.28,-62.5 242.88,-62.5"/>
<polygon fill="midnightblue" stroke="midnightblue" points="242.91,-66 252.91,-62.5 242.91,-59 242.91,-66"/>
</g>
<!-- Node11 -->
<g id="node11" class="node">
<title>Node11</title>
<g id="a_node11"><a xlink:href="classnlohmann_1_1detail_1_1type__error.html#aecc083aea4b698c33d042670ba50c10f" target="_top" xlink:title=" ">
<polygon fill="white" stroke="black" points="422,-49.5 422,-79.5 549,-79.5 549,-49.5 422,-49.5"/>
<text text-anchor="start" x="430" y="-67.5" font-family="Helvetica,sans-Serif" font-size="10.00">nlohmann::detail::type</text>
<text text-anchor="middle" x="485.5" y="-56.5" font-family="Helvetica,sans-Serif" font-size="10.00">_error::create</text>
</a>
</g>
</g>
<!-- Node10&#45;&gt;Node11 -->
<g id="edge10" class="edge">
<title>Node10&#45;&gt;Node11</title>
<path fill="none" stroke="midnightblue" d="M384.24,-63.28C393.23,-63.39 402.51,-63.51 411.63,-63.62"/>
<polygon fill="midnightblue" stroke="midnightblue" points="411.8,-67.12 421.84,-63.74 411.88,-60.12 411.8,-67.12"/>
</g>
<!-- Node14 -->
<g id="node14" class="node">
<title>Node14</title>
<g id="a_node14"><a xlink:href="classnlohmann_1_1json__pointer.html#a7f32d7c62841f0c4a6784cf741a6e4f8" target="_top" xlink:title="create JSON pointer">
<polygon fill="white" stroke="black" points="420,-0.5 420,-30.5 551,-30.5 551,-0.5 420,-0.5"/>
<text text-anchor="start" x="428" y="-18.5" font-family="Helvetica,sans-Serif" font-size="10.00">nlohmann::json_pointer</text>
<text text-anchor="middle" x="485.5" y="-7.5" font-family="Helvetica,sans-Serif" font-size="10.00">::json_pointer</text>
</a>
</g>
</g>
<!-- Node10&#45;&gt;Node14 -->
<g id="edge14" class="edge">
<title>Node10&#45;&gt;Node14</title>
<path fill="none" stroke="midnightblue" d="M372.16,-47.5C387.94,-43.01 405.4,-38.03 421.76,-33.37"/>
<polygon fill="midnightblue" stroke="midnightblue" points="423.12,-36.62 431.77,-30.52 421.2,-29.89 423.12,-36.62"/>
</g>
<!-- Node12 -->
<g id="node12" class="node">
<title>Node12</title>
<g id="a_node12"><a xlink:href="classnlohmann_1_1detail_1_1exception.html#abf41a7e9178356314082284e6cfea278" target="_top" xlink:title=" ">
<polygon fill="white" stroke="black" points="587,-50.5 587,-80.5 740,-80.5 740,-50.5 587,-50.5"/>
<text text-anchor="start" x="595" y="-68.5" font-family="Helvetica,sans-Serif" font-size="10.00">nlohmann::detail::exception</text>
<text text-anchor="middle" x="663.5" y="-57.5" font-family="Helvetica,sans-Serif" font-size="10.00">::name</text>
</a>
</g>
</g>
<!-- Node11&#45;&gt;Node12 -->
<g id="edge11" class="edge">
<title>Node11&#45;&gt;Node12</title>
<path fill="none" stroke="midnightblue" d="M549.05,-64.86C558.04,-64.91 567.43,-64.96 576.78,-65.01"/>
<polygon fill="midnightblue" stroke="midnightblue" points="576.87,-68.51 586.89,-65.07 576.91,-61.51 576.87,-68.51"/>
</g>
<!-- Node13 -->
<g id="node13" class="node">
<title>Node13</title>
<g id="a_node13"><a xlink:href="classnlohmann_1_1detail_1_1type__error.html#aa01edaa0bf18b853368f0b900e485cd7" target="_top" xlink:title=" ">
<polygon fill="white" stroke="black" points="600,-1.5 600,-31.5 727,-31.5 727,-1.5 600,-1.5"/>
<text text-anchor="start" x="608" y="-19.5" font-family="Helvetica,sans-Serif" font-size="10.00">nlohmann::detail::type</text>
<text text-anchor="middle" x="663.5" y="-8.5" font-family="Helvetica,sans-Serif" font-size="10.00">_error::type_error</text>
</a>
</g>
</g>
<!-- Node11&#45;&gt;Node13 -->
<g id="edge13" class="edge">
<title>Node11&#45;&gt;Node13</title>
<path fill="none" stroke="midnightblue" d="M541.7,-49.44C559.48,-44.6 579.34,-39.18 597.73,-34.16"/>
<polygon fill="midnightblue" stroke="midnightblue" points="598.76,-37.51 607.49,-31.5 596.92,-30.76 598.76,-37.51"/>
</g>
<!-- Node12&#45;&gt;Node8 -->
<g id="edge12" class="edge">
<title>Node12&#45;&gt;Node8</title>
<path fill="none" stroke="midnightblue" d="M740.27,-75.98C748.92,-77.18 757.62,-78.38 765.97,-79.54"/>
<polygon fill="midnightblue" stroke="midnightblue" points="765.57,-83.02 775.96,-80.92 766.53,-76.08 765.57,-83.02"/>
</g>
</g>
</svg>
        <g id="navigator" transform="translate(0 0)" fill="#404254">
                <rect fill="#f2f5e9" fill-opacity="0.5" stroke="#606060" stroke-width=".5" x="0" y="0" width="60" height="60"/>
                <use id="zoomplus" xlink:href="#zoomPlus" x="17" y="9" onmousedown="handleZoom(evt,'in')"/>
                <use id="zoomminus" xlink:href="#zoomMin" x="42" y="9" onmousedown="handleZoom(evt,'out')"/>
                <use id="reset" xlink:href="#resetDef" x="30" y="36" onmousedown="handleReset()"/>
                <g id="arrowUp" xlink:href="#dirArrow" transform="translate(30 24)" onmousedown="handlePan(0,-1)">
                  <use xlink:href="#rim" fill="#404040">
                        <set attributeName="fill" to="#808080" begin="arrowUp.mouseover" end="arrowUp.mouseout"/>
                  </use>
                  <path fill="none" stroke="white" stroke-width="1.5" d="M0,-3.0v7 M-2.5,-0.5L0,-3.0L2.5,-0.5"/>
                </g>
                <g id="arrowRight" xlink:href="#dirArrow" transform="rotate(90) translate(36 -43)" onmousedown="handlePan(1,0)">
                  <use xlink:href="#rim" fill="#404040">
                        <set attributeName="fill" to="#808080" begin="arrowRight.mouseover" end="arrowRight.mouseout"/>
                  </use>
                  <path fill="none" stroke="white" stroke-width="1.5" d="M0,-3.0v7 M-2.5,-0.5L0,-3.0L2.5,-0.5"/>
                </g>
                <g id="arrowDown" xlink:href="#dirArrow" transform="rotate(180) translate(-30 -48)" onmousedown="handlePan(0,1)">
                  <use xlink:href="#rim" fill="#404040">
                        <set attributeName="fill" to="#808080" begin="arrowDown.mouseover" end="arrowDown.mouseout"/>
                  </use>
                  <path fill="none" stroke="white" stroke-width="1.5" d="M0,-3.0v7 M-2.5,-0.5L0,-3.0L2.5,-0.5"/>
                </g>
                <g id="arrowLeft" xlink:href="#dirArrow" transform="rotate(270) translate(-36 17)" onmousedown="handlePan(-1,0)">
                  <use xlink:href="#rim" fill="#404040">
                        <set attributeName="fill" to="#808080" begin="arrowLeft.mouseover" end="arrowLeft.mouseout"/>
                  </use>
                  <path fill="none" stroke="white" stroke-width="1.5" d="M0,-3.0v7 M-2.5,-0.5L0,-3.0L2.5,-0.5"/>
                </g>
        </g>
        <svg viewBox="0 0 15 15" width="100%" height="30px" preserveAspectRatio="xMaxYMin meet">
         <g id="arrow_out" transform="scale(0.3 0.3)">
          <a xlink:href="unit-json__pointer_8cpp_a5baa6aa0f151e8bc4c7b50d6836f433d_cgraph_org.svg" target="_base">
           <rect id="button" ry="5" rx="5" y="6" x="6" height="38" width="38"
                fill="#f2f5e9" fill-opacity="0.5" stroke="#606060" stroke-width="1.0"/>
           <path id="arrow"
             d="M 11.500037,31.436501 C 11.940474,20.09759 22.043105,11.32322 32.158766,21.979434 L 37.068811,17.246167 C 37.068811,17.246167 37.088388,32 37.088388,32 L 22.160133,31.978069 C 22.160133,31.978069 26.997745,27.140456 26.997745,27.140456 C 18.528582,18.264221 13.291696,25.230495 11.500037,31.436501 z"
             style="fill:#404040;"/>
          </a>
         </g>
        </svg>
</svg>
