<?xml version="1.0" encoding="UTF-8" standalone="no"?>
<!DOCTYPE svg PUBLIC "-//W3C//DTD SVG 1.1//EN"
 "http://www.w3.org/Graphics/SVG/1.1/DTD/svg11.dtd">
<!-- Generated by graphviz version 2.43.0 (0)
 -->
<!-- Title: mc_orchestrator/json&#45;3.7.3/test/src/unit&#45;bson.cpp Pages: 1 -->
<svg width="417pt" height="162pt"
 viewBox="0.00 0.00 417.00 162.00" xmlns="http://www.w3.org/2000/svg" xmlns:xlink="http://www.w3.org/1999/xlink">
<g id="graph0" class="graph" transform="scale(1 1) rotate(0) translate(4 158)">
<title>mc_orchestrator/json&#45;3.7.3/test/src/unit&#45;bson.cpp</title>
<polygon fill="white" stroke="transparent" points="-4,4 -4,-158 413,-158 413,4 -4,4"/>
<!-- Node1 -->
<g id="node1" class="node">
<title>Node1</title>
<g id="a_node1"><a xlink:title=" ">
<polygon fill="#bfbfbf" stroke="black" points="196.5,-112.5 196.5,-153.5 315.5,-153.5 315.5,-112.5 196.5,-112.5"/>
<text text-anchor="start" x="204.5" y="-141.5" font-family="Helvetica,sans-Serif" font-size="10.00">mc_orchestrator/json</text>
<text text-anchor="start" x="204.5" y="-130.5" font-family="Helvetica,sans-Serif" font-size="10.00">&#45;3.7.3/test/src/unit</text>
<text text-anchor="middle" x="256" y="-119.5" font-family="Helvetica,sans-Serif" font-size="10.00">&#45;bson.cpp</text>
</a>
</g>
</g>
<!-- Node2 -->
<g id="node2" class="node">
<title>Node2</title>
<g id="a_node2"><a xlink:href="doctest__compatibility_8h.html" target="_top" xlink:title=" ">
<polygon fill="white" stroke="black" points="3,-56.5 3,-75.5 133,-75.5 133,-56.5 3,-56.5"/>
<text text-anchor="middle" x="68" y="-63.5" font-family="Helvetica,sans-Serif" font-size="10.00">doctest_compatibility.h</text>
</a>
</g>
</g>
<!-- Node1&#45;&gt;Node2 -->
<g id="edge1" class="edge">
<title>Node1&#45;&gt;Node2</title>
<path fill="none" stroke="midnightblue" d="M199.59,-112.5C168,-101.57 129.62,-88.3 102.48,-78.92"/>
<polygon fill="midnightblue" stroke="midnightblue" points="103.62,-75.61 93.03,-75.65 101.33,-82.23 103.62,-75.61"/>
</g>
<!-- Node5 -->
<g id="node5" class="node">
<title>Node5</title>
<g id="a_node5"><a xlink:title=" ">
<polygon fill="white" stroke="#bfbfbf" points="151,-56.5 151,-75.5 261,-75.5 261,-56.5 151,-56.5"/>
<text text-anchor="middle" x="206" y="-63.5" font-family="Helvetica,sans-Serif" font-size="10.00">nlohmann/json.hpp</text>
</a>
</g>
</g>
<!-- Node1&#45;&gt;Node5 -->
<g id="edge4" class="edge">
<title>Node1&#45;&gt;Node5</title>
<path fill="none" stroke="midnightblue" d="M241,-112.5C233.92,-103.3 225.57,-92.44 218.79,-83.63"/>
<polygon fill="midnightblue" stroke="midnightblue" points="221.53,-81.44 212.66,-75.65 215.98,-85.71 221.53,-81.44"/>
</g>
<!-- Node6 -->
<g id="node6" class="node">
<title>Node6</title>
<g id="a_node6"><a xlink:title=" ">
<polygon fill="white" stroke="#bfbfbf" points="279.5,-56.5 279.5,-75.5 334.5,-75.5 334.5,-56.5 279.5,-56.5"/>
<text text-anchor="middle" x="307" y="-63.5" font-family="Helvetica,sans-Serif" font-size="10.00">fstream</text>
</a>
</g>
</g>
<!-- Node1&#45;&gt;Node6 -->
<g id="edge5" class="edge">
<title>Node1&#45;&gt;Node6</title>
<path fill="none" stroke="midnightblue" d="M271.3,-112.5C278.52,-103.3 287.04,-92.44 293.95,-83.63"/>
<polygon fill="midnightblue" stroke="midnightblue" points="296.79,-85.68 300.21,-75.65 291.28,-81.36 296.79,-85.68"/>
</g>
<!-- Node7 -->
<g id="node7" class="node">
<title>Node7</title>
<g id="a_node7"><a xlink:title=" ">
<polygon fill="white" stroke="#bfbfbf" points="353,-56.5 353,-75.5 409,-75.5 409,-56.5 353,-56.5"/>
<text text-anchor="middle" x="381" y="-63.5" font-family="Helvetica,sans-Serif" font-size="10.00">sstream</text>
</a>
</g>
</g>
<!-- Node1&#45;&gt;Node7 -->
<g id="edge6" class="edge">
<title>Node1&#45;&gt;Node7</title>
<path fill="none" stroke="midnightblue" d="M293.5,-112.5C313.41,-102.15 337.36,-89.69 355.16,-80.43"/>
<polygon fill="midnightblue" stroke="midnightblue" points="357.1,-83.37 364.36,-75.65 353.87,-77.16 357.1,-83.37"/>
</g>
<!-- Node3 -->
<g id="node3" class="node">
<title>Node3</title>
<g id="a_node3"><a xlink:href="doctest_8h.html" target="_top" xlink:title=" ">
<polygon fill="white" stroke="black" points="0,-0.5 0,-19.5 62,-19.5 62,-0.5 0,-0.5"/>
<text text-anchor="middle" x="31" y="-7.5" font-family="Helvetica,sans-Serif" font-size="10.00">doctest.h</text>
</a>
</g>
</g>
<!-- Node2&#45;&gt;Node3 -->
<g id="edge2" class="edge">
<title>Node2&#45;&gt;Node3</title>
<path fill="none" stroke="midnightblue" d="M61.89,-56.08C56.72,-48.53 49.15,-37.49 42.81,-28.23"/>
<polygon fill="midnightblue" stroke="midnightblue" points="45.54,-26.02 37,-19.75 39.76,-29.98 45.54,-26.02"/>
</g>
<!-- Node4 -->
<g id="node4" class="node">
<title>Node4</title>
<g id="a_node4"><a xlink:title=" ">
<polygon fill="white" stroke="#bfbfbf" points="80.5,-0.5 80.5,-19.5 129.5,-19.5 129.5,-0.5 80.5,-0.5"/>
<text text-anchor="middle" x="105" y="-7.5" font-family="Helvetica,sans-Serif" font-size="10.00">iosfwd</text>
</a>
</g>
</g>
<!-- Node2&#45;&gt;Node4 -->
<g id="edge3" class="edge">
<title>Node2&#45;&gt;Node4</title>
<path fill="none" stroke="midnightblue" d="M74.11,-56.08C79.28,-48.53 86.85,-37.49 93.19,-28.23"/>
<polygon fill="midnightblue" stroke="midnightblue" points="96.24,-29.98 99,-19.75 90.46,-26.02 96.24,-29.98"/>
</g>
</g>
</svg>
