<?xml version="1.0" encoding="UTF-8" standalone="no"?>
<!DOCTYPE svg PUBLIC "-//W3C//DTD SVG 1.1//EN"
 "http://www.w3.org/Graphics/SVG/1.1/DTD/svg11.dtd">
<!-- Generated by graphviz version 2.43.0 (0)
 -->
<!-- Title: TEST_CASE Pages: 1 -->
<svg width="636pt" height="127pt"
 viewBox="0.00 0.00 636.00 126.50" xmlns="http://www.w3.org/2000/svg" xmlns:xlink="http://www.w3.org/1999/xlink">
<g id="graph0" class="graph" transform="scale(1 1) rotate(0) translate(4 122.5)">
<title>TEST_CASE</title>
<polygon fill="white" stroke="transparent" points="-4,4 -4,-122.5 632,-122.5 632,4 -4,4"/>
<!-- Node1 -->
<g id="node1" class="node">
<title>Node1</title>
<g id="a_node1"><a xlink:title=" ">
<polygon fill="#bfbfbf" stroke="black" points="0,-55 0,-74 71,-74 71,-55 0,-55"/>
<text text-anchor="middle" x="35.5" y="-62" font-family="Helvetica,sans-Serif" font-size="10.00">TEST_CASE</text>
</a>
</g>
</g>
<!-- Node2 -->
<g id="node2" class="node">
<title>Node2</title>
<g id="a_node2"><a xlink:href="unit-testsuites_8cpp.html#a925a07add72cb91b23496dcd84df4dc4" target="_top" xlink:title=" ">
<polygon fill="white" stroke="black" points="114,-99 114,-118 222,-118 222,-99 114,-99"/>
<text text-anchor="middle" x="168" y="-106" font-family="Helvetica,sans-Serif" font-size="10.00">CHECK_NOTHROW</text>
</a>
</g>
</g>
<!-- Node1&#45;&gt;Node2 -->
<g id="edge1" class="edge">
<title>Node1&#45;&gt;Node2</title>
<path fill="none" stroke="midnightblue" d="M62.87,-74.09C76.09,-78.84 92.35,-84.58 107,-89.5 113.19,-91.58 119.75,-93.72 126.18,-95.78"/>
<polygon fill="midnightblue" stroke="midnightblue" points="125.51,-99.24 136.1,-98.94 127.63,-92.57 125.51,-99.24"/>
</g>
<!-- Node3 -->
<g id="node3" class="node">
<title>Node3</title>
<g id="a_node3"><a xlink:href="classnlohmann_1_1basic__json.html#a0524486cd0b36a47448df882ec0d5e7b" target="_top" xlink:title="Create a JSON value from an input in BSON format.">
<polygon fill="white" stroke="black" points="107,-49.5 107,-79.5 229,-79.5 229,-49.5 107,-49.5"/>
<text text-anchor="start" x="115" y="-67.5" font-family="Helvetica,sans-Serif" font-size="10.00">nlohmann::basic_json</text>
<text text-anchor="middle" x="168" y="-56.5" font-family="Helvetica,sans-Serif" font-size="10.00">::from_bson</text>
</a>
</g>
</g>
<!-- Node1&#45;&gt;Node3 -->
<g id="edge2" class="edge">
<title>Node1&#45;&gt;Node3</title>
<path fill="none" stroke="midnightblue" d="M71.13,-64.5C79.14,-64.5 87.95,-64.5 96.87,-64.5"/>
<polygon fill="midnightblue" stroke="midnightblue" points="96.97,-68 106.97,-64.5 96.97,-61 96.97,-68"/>
</g>
<!-- Node7 -->
<g id="node7" class="node">
<title>Node7</title>
<g id="a_node7"><a xlink:href="classnlohmann_1_1basic__json.html#a8ca5dd4f18b59e7022b04fd9bf7f5176" target="_top" xlink:title="Serializes the given JSON object j to BSON and returns a vector containing the corresponding BSON&#45;rep...">
<polygon fill="white" stroke="black" points="107,-0.5 107,-30.5 229,-30.5 229,-0.5 107,-0.5"/>
<text text-anchor="start" x="115" y="-18.5" font-family="Helvetica,sans-Serif" font-size="10.00">nlohmann::basic_json</text>
<text text-anchor="middle" x="168" y="-7.5" font-family="Helvetica,sans-Serif" font-size="10.00">::to_bson</text>
</a>
</g>
</g>
<!-- Node1&#45;&gt;Node7 -->
<g id="edge6" class="edge">
<title>Node1&#45;&gt;Node7</title>
<path fill="none" stroke="midnightblue" d="M61.97,-54.94C77.77,-49 98.6,-41.18 117.55,-34.07"/>
<polygon fill="midnightblue" stroke="midnightblue" points="118.82,-37.33 126.95,-30.54 116.36,-30.78 118.82,-37.33"/>
</g>
<!-- Node4 -->
<g id="node4" class="node">
<title>Node4</title>
<g id="a_node4"><a xlink:href="classnlohmann_1_1basic__json.html#aed115142bd0c6c66c864700e0467df55" target="_top" xlink:title="create an empty value with a given type">
<polygon fill="white" stroke="black" points="265,-49.5 265,-79.5 387,-79.5 387,-49.5 265,-49.5"/>
<text text-anchor="start" x="273" y="-67.5" font-family="Helvetica,sans-Serif" font-size="10.00">nlohmann::basic_json</text>
<text text-anchor="middle" x="326" y="-56.5" font-family="Helvetica,sans-Serif" font-size="10.00">::basic_json</text>
</a>
</g>
</g>
<!-- Node3&#45;&gt;Node4 -->
<g id="edge3" class="edge">
<title>Node3&#45;&gt;Node4</title>
<path fill="none" stroke="midnightblue" d="M229.31,-64.5C237.6,-64.5 246.17,-64.5 254.63,-64.5"/>
<polygon fill="midnightblue" stroke="midnightblue" points="254.85,-68 264.85,-64.5 254.85,-61 254.85,-68"/>
</g>
<!-- Node5 -->
<g id="node5" class="node">
<title>Node5</title>
<g id="a_node5"><a xlink:href="classnlohmann_1_1basic__json.html#a4a82d3fb7a111641decf35c2fb707c7f" target="_top" xlink:title="checks the class invariants">
<polygon fill="white" stroke="black" points="423,-49.5 423,-79.5 545,-79.5 545,-49.5 423,-49.5"/>
<text text-anchor="start" x="431" y="-67.5" font-family="Helvetica,sans-Serif" font-size="10.00">nlohmann::basic_json</text>
<text text-anchor="middle" x="484" y="-56.5" font-family="Helvetica,sans-Serif" font-size="10.00">::assert_invariant</text>
</a>
</g>
</g>
<!-- Node4&#45;&gt;Node5 -->
<g id="edge4" class="edge">
<title>Node4&#45;&gt;Node5</title>
<path fill="none" stroke="midnightblue" d="M387.31,-64.5C395.6,-64.5 404.17,-64.5 412.63,-64.5"/>
<polygon fill="midnightblue" stroke="midnightblue" points="412.85,-68 422.85,-64.5 412.85,-61 412.85,-68"/>
</g>
<!-- Node6 -->
<g id="node6" class="node">
<title>Node6</title>
<g id="a_node6"><a xlink:href="FuzzerTracePC_8cpp.html#a1f10ac78bd11294b612636121065eb5b" target="_top" xlink:title=" ">
<polygon fill="white" stroke="black" points="581,-55 581,-74 628,-74 628,-55 581,-55"/>
<text text-anchor="middle" x="604.5" y="-62" font-family="Helvetica,sans-Serif" font-size="10.00">assert</text>
</a>
</g>
</g>
<!-- Node5&#45;&gt;Node6 -->
<g id="edge5" class="edge">
<title>Node5&#45;&gt;Node6</title>
<path fill="none" stroke="midnightblue" d="M545.29,-64.5C554.02,-64.5 562.71,-64.5 570.62,-64.5"/>
<polygon fill="midnightblue" stroke="midnightblue" points="570.85,-68 580.85,-64.5 570.85,-61 570.85,-68"/>
</g>
</g>
</svg>
