<?xml version="1.0" encoding="UTF-8" standalone="no"?>
<!DOCTYPE svg PUBLIC "-//W3C//DTD SVG 1.1//EN"
 "http://www.w3.org/Graphics/SVG/1.1/DTD/svg11.dtd">
<!-- Generated by graphviz version 2.43.0 (0)
 -->
<!-- Title: mc_orchestrator/json&#45;3.7.3/test/src/unit&#45;constructor1.cpp Pages: 1 -->
<svg width="893pt" height="162pt"
 viewBox="0.00 0.00 892.50 162.00" xmlns="http://www.w3.org/2000/svg" xmlns:xlink="http://www.w3.org/1999/xlink">
<g id="graph0" class="graph" transform="scale(1 1) rotate(0) translate(4 158)">
<title>mc_orchestrator/json&#45;3.7.3/test/src/unit&#45;constructor1.cpp</title>
<polygon fill="white" stroke="transparent" points="-4,4 -4,-158 888.5,-158 888.5,4 -4,4"/>
<!-- Node1 -->
<g id="node1" class="node">
<title>Node1</title>
<g id="a_node1"><a xlink:title=" ">
<polygon fill="#bfbfbf" stroke="black" points="436.5,-112.5 436.5,-153.5 555.5,-153.5 555.5,-112.5 436.5,-112.5"/>
<text text-anchor="start" x="444.5" y="-141.5" font-family="Helvetica,sans-Serif" font-size="10.00">mc_orchestrator/json</text>
<text text-anchor="start" x="444.5" y="-130.5" font-family="Helvetica,sans-Serif" font-size="10.00">&#45;3.7.3/test/src/unit</text>
<text text-anchor="middle" x="496" y="-119.5" font-family="Helvetica,sans-Serif" font-size="10.00">&#45;constructor1.cpp</text>
</a>
</g>
</g>
<!-- Node2 -->
<g id="node2" class="node">
<title>Node2</title>
<g id="a_node2"><a xlink:href="doctest__compatibility_8h.html" target="_top" xlink:title=" ">
<polygon fill="white" stroke="black" points="3,-56.5 3,-75.5 133,-75.5 133,-56.5 3,-56.5"/>
<text text-anchor="middle" x="68" y="-63.5" font-family="Helvetica,sans-Serif" font-size="10.00">doctest_compatibility.h</text>
</a>
</g>
</g>
<!-- Node1&#45;&gt;Node2 -->
<g id="edge1" class="edge">
<title>Node1&#45;&gt;Node2</title>
<path fill="none" stroke="midnightblue" d="M436.49,-122.96C357.11,-110.91 217.01,-89.63 134.32,-77.07"/>
<polygon fill="midnightblue" stroke="midnightblue" points="134.7,-73.59 124.28,-75.55 133.64,-80.51 134.7,-73.59"/>
</g>
<!-- Node5 -->
<g id="node5" class="node">
<title>Node5</title>
<g id="a_node5"><a xlink:title=" ">
<polygon fill="white" stroke="#bfbfbf" points="151,-56.5 151,-75.5 261,-75.5 261,-56.5 151,-56.5"/>
<text text-anchor="middle" x="206" y="-63.5" font-family="Helvetica,sans-Serif" font-size="10.00">nlohmann/json.hpp</text>
</a>
</g>
</g>
<!-- Node1&#45;&gt;Node5 -->
<g id="edge4" class="edge">
<title>Node1&#45;&gt;Node5</title>
<path fill="none" stroke="midnightblue" d="M436.26,-118.61C382.28,-106.51 303.85,-88.93 253.88,-77.73"/>
<polygon fill="midnightblue" stroke="midnightblue" points="254.5,-74.28 243.98,-75.51 252.97,-81.12 254.5,-74.28"/>
</g>
<!-- Node6 -->
<g id="node6" class="node">
<title>Node6</title>
<g id="a_node6"><a xlink:title=" ">
<polygon fill="white" stroke="#bfbfbf" points="279.5,-56.5 279.5,-75.5 326.5,-75.5 326.5,-56.5 279.5,-56.5"/>
<text text-anchor="middle" x="303" y="-63.5" font-family="Helvetica,sans-Serif" font-size="10.00">deque</text>
</a>
</g>
</g>
<!-- Node1&#45;&gt;Node6 -->
<g id="edge5" class="edge">
<title>Node1&#45;&gt;Node6</title>
<path fill="none" stroke="midnightblue" d="M438.09,-112.5C404.87,-101.31 364.33,-87.66 336.38,-78.24"/>
<polygon fill="midnightblue" stroke="midnightblue" points="337.28,-74.85 326.69,-74.98 335.05,-81.49 337.28,-74.85"/>
</g>
<!-- Node7 -->
<g id="node7" class="node">
<title>Node7</title>
<g id="a_node7"><a xlink:title=" ">
<polygon fill="white" stroke="#bfbfbf" points="345,-56.5 345,-75.5 419,-75.5 419,-56.5 345,-56.5"/>
<text text-anchor="middle" x="382" y="-63.5" font-family="Helvetica,sans-Serif" font-size="10.00">forward_list</text>
</a>
</g>
</g>
<!-- Node1&#45;&gt;Node7 -->
<g id="edge6" class="edge">
<title>Node1&#45;&gt;Node7</title>
<path fill="none" stroke="midnightblue" d="M461.8,-112.5C443.81,-102.24 422.21,-89.93 406.01,-80.69"/>
<polygon fill="midnightblue" stroke="midnightblue" points="407.6,-77.57 397.18,-75.65 404.13,-83.65 407.6,-77.57"/>
</g>
<!-- Node8 -->
<g id="node8" class="node">
<title>Node8</title>
<g id="a_node8"><a xlink:title=" ">
<polygon fill="white" stroke="#bfbfbf" points="437.5,-56.5 437.5,-75.5 492.5,-75.5 492.5,-56.5 437.5,-56.5"/>
<text text-anchor="middle" x="465" y="-63.5" font-family="Helvetica,sans-Serif" font-size="10.00">fstream</text>
</a>
</g>
</g>
<!-- Node1&#45;&gt;Node8 -->
<g id="edge7" class="edge">
<title>Node1&#45;&gt;Node8</title>
<path fill="none" stroke="midnightblue" d="M486.7,-112.5C482.49,-103.68 477.56,-93.34 473.46,-84.74"/>
<polygon fill="midnightblue" stroke="midnightblue" points="476.59,-83.17 469.13,-75.65 470.27,-86.19 476.59,-83.17"/>
</g>
<!-- Node9 -->
<g id="node9" class="node">
<title>Node9</title>
<g id="a_node9"><a xlink:title=" ">
<polygon fill="white" stroke="#bfbfbf" points="511,-56.5 511,-75.5 543,-75.5 543,-56.5 511,-56.5"/>
<text text-anchor="middle" x="527" y="-63.5" font-family="Helvetica,sans-Serif" font-size="10.00">list</text>
</a>
</g>
</g>
<!-- Node1&#45;&gt;Node9 -->
<g id="edge8" class="edge">
<title>Node1&#45;&gt;Node9</title>
<path fill="none" stroke="midnightblue" d="M505.3,-112.5C509.51,-103.68 514.44,-93.34 518.54,-84.74"/>
<polygon fill="midnightblue" stroke="midnightblue" points="521.73,-86.19 522.87,-75.65 515.41,-83.17 521.73,-86.19"/>
</g>
<!-- Node10 -->
<g id="node10" class="node">
<title>Node10</title>
<g id="a_node10"><a xlink:title=" ">
<polygon fill="white" stroke="#bfbfbf" points="561,-56.5 561,-75.5 593,-75.5 593,-56.5 561,-56.5"/>
<text text-anchor="middle" x="577" y="-63.5" font-family="Helvetica,sans-Serif" font-size="10.00">set</text>
</a>
</g>
</g>
<!-- Node1&#45;&gt;Node10 -->
<g id="edge9" class="edge">
<title>Node1&#45;&gt;Node10</title>
<path fill="none" stroke="midnightblue" d="M520.3,-112.5C532.48,-102.72 547,-91.07 558.3,-82.01"/>
<polygon fill="midnightblue" stroke="midnightblue" points="560.61,-84.64 566.22,-75.65 556.23,-79.18 560.61,-84.64"/>
</g>
<!-- Node11 -->
<g id="node11" class="node">
<title>Node11</title>
<g id="a_node11"><a xlink:title=" ">
<polygon fill="white" stroke="#bfbfbf" points="611.5,-56.5 611.5,-75.5 704.5,-75.5 704.5,-56.5 611.5,-56.5"/>
<text text-anchor="middle" x="658" y="-63.5" font-family="Helvetica,sans-Serif" font-size="10.00">unordered_map</text>
</a>
</g>
</g>
<!-- Node1&#45;&gt;Node11 -->
<g id="edge10" class="edge">
<title>Node1&#45;&gt;Node11</title>
<path fill="none" stroke="midnightblue" d="M544.61,-112.5C571.35,-101.77 603.74,-88.77 627.05,-79.42"/>
<polygon fill="midnightblue" stroke="midnightblue" points="628.46,-82.62 636.44,-75.65 625.85,-76.13 628.46,-82.62"/>
</g>
<!-- Node12 -->
<g id="node12" class="node">
<title>Node12</title>
<g id="a_node12"><a xlink:title=" ">
<polygon fill="white" stroke="#bfbfbf" points="723,-56.5 723,-75.5 809,-75.5 809,-56.5 723,-56.5"/>
<text text-anchor="middle" x="766" y="-63.5" font-family="Helvetica,sans-Serif" font-size="10.00">unordered_set</text>
</a>
</g>
</g>
<!-- Node1&#45;&gt;Node12 -->
<g id="edge11" class="edge">
<title>Node1&#45;&gt;Node12</title>
<path fill="none" stroke="midnightblue" d="M555.59,-117.66C605.4,-105.66 675.37,-88.82 720.7,-77.9"/>
<polygon fill="midnightblue" stroke="midnightblue" points="721.64,-81.28 730.55,-75.54 720.01,-74.47 721.64,-81.28"/>
</g>
<!-- Node13 -->
<g id="node13" class="node">
<title>Node13</title>
<g id="a_node13"><a xlink:title=" ">
<polygon fill="white" stroke="#bfbfbf" points="827.5,-56.5 827.5,-75.5 884.5,-75.5 884.5,-56.5 827.5,-56.5"/>
<text text-anchor="middle" x="856" y="-63.5" font-family="Helvetica,sans-Serif" font-size="10.00">valarray</text>
</a>
</g>
</g>
<!-- Node1&#45;&gt;Node13 -->
<g id="edge12" class="edge">
<title>Node1&#45;&gt;Node13</title>
<path fill="none" stroke="midnightblue" d="M555.55,-122.75C618.18,-112.77 719.82,-95.87 817.37,-76.02"/>
<polygon fill="midnightblue" stroke="midnightblue" points="818.31,-79.4 827.41,-73.97 816.91,-72.55 818.31,-79.4"/>
</g>
<!-- Node3 -->
<g id="node3" class="node">
<title>Node3</title>
<g id="a_node3"><a xlink:href="doctest_8h.html" target="_top" xlink:title=" ">
<polygon fill="white" stroke="black" points="0,-0.5 0,-19.5 62,-19.5 62,-0.5 0,-0.5"/>
<text text-anchor="middle" x="31" y="-7.5" font-family="Helvetica,sans-Serif" font-size="10.00">doctest.h</text>
</a>
</g>
</g>
<!-- Node2&#45;&gt;Node3 -->
<g id="edge2" class="edge">
<title>Node2&#45;&gt;Node3</title>
<path fill="none" stroke="midnightblue" d="M61.89,-56.08C56.72,-48.53 49.15,-37.49 42.81,-28.23"/>
<polygon fill="midnightblue" stroke="midnightblue" points="45.54,-26.02 37,-19.75 39.76,-29.98 45.54,-26.02"/>
</g>
<!-- Node4 -->
<g id="node4" class="node">
<title>Node4</title>
<g id="a_node4"><a xlink:title=" ">
<polygon fill="white" stroke="#bfbfbf" points="80.5,-0.5 80.5,-19.5 129.5,-19.5 129.5,-0.5 80.5,-0.5"/>
<text text-anchor="middle" x="105" y="-7.5" font-family="Helvetica,sans-Serif" font-size="10.00">iosfwd</text>
</a>
</g>
</g>
<!-- Node2&#45;&gt;Node4 -->
<g id="edge3" class="edge">
<title>Node2&#45;&gt;Node4</title>
<path fill="none" stroke="midnightblue" d="M74.11,-56.08C79.28,-48.53 86.85,-37.49 93.19,-28.23"/>
<polygon fill="midnightblue" stroke="midnightblue" points="96.24,-29.98 99,-19.75 90.46,-26.02 96.24,-29.98"/>
</g>
</g>
</svg>
