<?xml version="1.0" encoding="UTF-8" standalone="no"?>
<!DOCTYPE svg PUBLIC "-//W3C//DTD SVG 1.1//EN"
 "http://www.w3.org/Graphics/SVG/1.1/DTD/svg11.dtd">
<!-- Generated by graphviz version 2.43.0 (0)
 -->
<!-- Title: TEST_CASE Pages: 1 -->
<!--zoomable 499 -->
<svg id="main" version="1.1" xmlns="http://www.w3.org/2000/svg" xmlns:xlink="http://www.w3.org/1999/xlink" xml:space="preserve" onload="init(evt)">
<style type="text/css"><![CDATA[
.edge:hover path { stroke: red; }
.edge:hover polygon { stroke: red; fill: red; }
]]></style>
<script type="text/javascript"><![CDATA[
var edges = document.getElementsByTagName('g');
if (edges && edges.length) {
  for (var i=0;i<edges.length;i++) {
    if (edges[i].id.substr(0,4)=='edge') {
      edges[i].setAttribute('class','edge');
    }
  }
}
]]></script>
        <defs>
                <circle id="rim" cx="0" cy="0" r="7"/>
                <circle id="rim2" cx="0" cy="0" r="3.5"/>
                <g id="zoomPlus">
                        <use xlink:href="#rim" fill="#404040">
                                <set attributeName="fill" to="#808080" begin="zoomplus.mouseover" end="zoomplus.mouseout"/>
                        </use>
                        <path d="M-4,0h8M0,-4v8" fill="none" stroke="white" stroke-width="1.5" pointer-events="none"/>
                </g>
                <g id="zoomMin">
                        <use xlink:href="#rim" fill="#404040">
                                <set attributeName="fill" to="#808080" begin="zoomminus.mouseover" end="zoomminus.mouseout"/>
                        </use>
                        <path d="M-4,0h8" fill="none" stroke="white" stroke-width="1.5" pointer-events="none"/>
                </g>
                <g id="dirArrow">
                        <path fill="none" stroke="white" stroke-width="1.5" d="M0,-3.0v7 M-2.5,-0.5L0,-3.0L2.5,-0.5"/>
                </g>
               <g id="resetDef">
                       <use xlink:href="#rim2" fill="#404040">
                               <set attributeName="fill" to="#808080" begin="reset.mouseover" end="reset.mouseout"/>
                       </use>
               </g>
        </defs>

<script type="text/javascript">
var viewWidth = 419;
var viewHeight = 499;
var sectionId = 'dynsection-1';
</script>
<script xlink:href="svgpan.js"/>
<svg id="graph" class="graph">
<g id="viewport">
<title>TEST_CASE</title>
<polygon fill="white" stroke="transparent" points="-4,4 -4,-495 415,-495 415,4 -4,4"/>
<!-- Node1 -->
<g id="node1" class="node">
<title>Node1</title>
<g id="a_node1"><a xlink:title=" ">
<polygon fill="#bfbfbf" stroke="black" points="0,-226 0,-245 71,-245 71,-226 0,-226"/>
<text text-anchor="middle" x="35.5" y="-233" font-family="Helvetica,sans-Serif" font-size="10.00">TEST_CASE</text>
</a>
</g>
</g>
<!-- Node2 -->
<g id="node2" class="node">
<title>Node2</title>
<g id="a_node2"><a xlink:href="classnlohmann_1_1basic__json.html#a8a7d537fc297bbc5b845f92fe0445e3b" target="_top" xlink:title="explicitly create an array from an initializer list">
<polygon fill="white" stroke="black" points="107,-460.5 107,-490.5 229,-490.5 229,-460.5 107,-460.5"/>
<text text-anchor="start" x="115" y="-478.5" font-family="Helvetica,sans-Serif" font-size="10.00">nlohmann::basic_json</text>
<text text-anchor="middle" x="168" y="-467.5" font-family="Helvetica,sans-Serif" font-size="10.00">::array</text>
</a>
</g>
</g>
<!-- Node1&#45;&gt;Node2 -->
<g id="edge1" class="edge">
<title>Node1&#45;&gt;Node2</title>
<path fill="none" stroke="midnightblue" d="M36.86,-245.12C38.6,-278.3 48.74,-389.32 107,-451.5 107.91,-452.47 108.86,-453.4 109.84,-454.29"/>
<polygon fill="midnightblue" stroke="midnightblue" points="107.96,-457.25 118.07,-460.43 112.15,-451.64 107.96,-457.25"/>
</g>
<!-- Node3 -->
<g id="node3" class="node">
<title>Node3</title>
<g id="a_node3"><a xlink:href="classnlohmann_1_1basic__json.html#a0ff28dac23f2bdecee9564d07f51dcdc" target="_top" xlink:title="returns an iterator to the first element">
<polygon fill="white" stroke="black" points="277,-266.5 277,-296.5 399,-296.5 399,-266.5 277,-266.5"/>
<text text-anchor="start" x="285" y="-284.5" font-family="Helvetica,sans-Serif" font-size="10.00">nlohmann::basic_json</text>
<text text-anchor="middle" x="338" y="-273.5" font-family="Helvetica,sans-Serif" font-size="10.00">::begin</text>
</a>
</g>
</g>
<!-- Node1&#45;&gt;Node3 -->
<g id="edge2" class="edge">
<title>Node1&#45;&gt;Node3</title>
<path fill="none" stroke="midnightblue" d="M71.11,-237.71C109.8,-240.49 174.19,-246.1 229,-255.5 242.61,-257.84 257.06,-260.9 270.81,-264.1"/>
<polygon fill="midnightblue" stroke="midnightblue" points="270.14,-267.54 280.68,-266.45 271.76,-260.73 270.14,-267.54"/>
</g>
<!-- Node4 -->
<g id="node4" class="node">
<title>Node4</title>
<g id="a_node4"><a xlink:href="classnlohmann_1_1basic__json.html#a1e0769d22d54573f294da0e5c6abc9de" target="_top" xlink:title="returns a const reverse iterator to the last element">
<polygon fill="white" stroke="black" points="107,-411.5 107,-441.5 229,-441.5 229,-411.5 107,-411.5"/>
<text text-anchor="start" x="115" y="-429.5" font-family="Helvetica,sans-Serif" font-size="10.00">nlohmann::basic_json</text>
<text text-anchor="middle" x="168" y="-418.5" font-family="Helvetica,sans-Serif" font-size="10.00">::crbegin</text>
</a>
</g>
</g>
<!-- Node1&#45;&gt;Node4 -->
<g id="edge3" class="edge">
<title>Node1&#45;&gt;Node4</title>
<path fill="none" stroke="midnightblue" d="M37.94,-245.25C42.61,-273.49 59.83,-356.21 107,-402.5 108.1,-403.58 109.26,-404.61 110.46,-405.6"/>
<polygon fill="midnightblue" stroke="midnightblue" points="108.75,-408.67 118.96,-411.5 112.73,-402.92 108.75,-408.67"/>
</g>
<!-- Node6 -->
<g id="node6" class="node">
<title>Node6</title>
<g id="a_node6"><a xlink:href="classnlohmann_1_1basic__json.html#a5795b029dbf28e0cb2c7a439ec5d0a88" target="_top" xlink:title="returns a const reverse iterator to one before the first">
<polygon fill="white" stroke="black" points="107,-362.5 107,-392.5 229,-392.5 229,-362.5 107,-362.5"/>
<text text-anchor="start" x="115" y="-380.5" font-family="Helvetica,sans-Serif" font-size="10.00">nlohmann::basic_json</text>
<text text-anchor="middle" x="168" y="-369.5" font-family="Helvetica,sans-Serif" font-size="10.00">::crend</text>
</a>
</g>
</g>
<!-- Node1&#45;&gt;Node6 -->
<g id="edge5" class="edge">
<title>Node1&#45;&gt;Node6</title>
<path fill="none" stroke="midnightblue" d="M39.81,-245.19C47.86,-267.38 70.51,-322.37 107,-353.5 108.5,-354.78 110.09,-356 111.73,-357.16"/>
<polygon fill="midnightblue" stroke="midnightblue" points="110,-360.21 120.35,-362.47 113.67,-354.25 110,-360.21"/>
</g>
<!-- Node8 -->
<g id="node8" class="node">
<title>Node8</title>
<g id="a_node8"><a xlink:href="classnlohmann_1_1basic__json.html#a1a86d444bfeaa9518d2421aedd74444a" target="_top" xlink:title="checks whether the container is empty.">
<polygon fill="white" stroke="black" points="107,-264.5 107,-294.5 229,-294.5 229,-264.5 107,-264.5"/>
<text text-anchor="start" x="115" y="-282.5" font-family="Helvetica,sans-Serif" font-size="10.00">nlohmann::basic_json</text>
<text text-anchor="middle" x="168" y="-271.5" font-family="Helvetica,sans-Serif" font-size="10.00">::empty</text>
</a>
</g>
</g>
<!-- Node1&#45;&gt;Node8 -->
<g id="edge7" class="edge">
<title>Node1&#45;&gt;Node8</title>
<path fill="none" stroke="midnightblue" d="M64.82,-245.05C78.85,-249.78 96.29,-255.66 112.76,-261.21"/>
<polygon fill="midnightblue" stroke="midnightblue" points="111.72,-264.56 122.32,-264.43 113.96,-257.92 111.72,-264.56"/>
</g>
<!-- Node9 -->
<g id="node9" class="node">
<title>Node9</title>
<g id="a_node9"><a xlink:href="classnlohmann_1_1basic__json.html#a13e032a02a7fd8a93fdddc2fcbc4763c" target="_top" xlink:title="returns an iterator to one past the last element">
<polygon fill="white" stroke="black" points="265,-28 265,-47 411,-47 411,-28 265,-28"/>
<text text-anchor="middle" x="338" y="-35" font-family="Helvetica,sans-Serif" font-size="10.00">nlohmann::basic_json::end</text>
</a>
</g>
</g>
<!-- Node1&#45;&gt;Node9 -->
<g id="edge8" class="edge">
<title>Node1&#45;&gt;Node9</title>
<path fill="none" stroke="midnightblue" d="M37.72,-225.85C41.78,-198.02 57.53,-117.1 107,-78.5 129.78,-60.73 198.42,-50.04 254.83,-44.05"/>
<polygon fill="midnightblue" stroke="midnightblue" points="255.26,-47.53 264.85,-43.03 254.54,-40.57 255.26,-47.53"/>
</g>
<!-- Node10 -->
<g id="node10" class="node">
<title>Node10</title>
<g id="a_node10"><a xlink:href="classnlohmann_1_1basic__json.html#a2f47d3c6a441c57dd2be00449fbb88e1" target="_top" xlink:title="returns the maximum possible number of elements">
<polygon fill="white" stroke="black" points="107,-176.5 107,-206.5 229,-206.5 229,-176.5 107,-176.5"/>
<text text-anchor="start" x="115" y="-194.5" font-family="Helvetica,sans-Serif" font-size="10.00">nlohmann::basic_json</text>
<text text-anchor="middle" x="168" y="-183.5" font-family="Helvetica,sans-Serif" font-size="10.00">::max_size</text>
</a>
</g>
</g>
<!-- Node1&#45;&gt;Node10 -->
<g id="edge9" class="edge">
<title>Node1&#45;&gt;Node10</title>
<path fill="none" stroke="midnightblue" d="M64.82,-225.95C78.85,-221.22 96.29,-215.34 112.76,-209.79"/>
<polygon fill="midnightblue" stroke="midnightblue" points="113.96,-213.08 122.32,-206.57 111.72,-206.44 113.96,-213.08"/>
</g>
<!-- Node11 -->
<g id="node11" class="node">
<title>Node11</title>
<g id="a_node11"><a xlink:href="classnlohmann_1_1basic__json.html#a25e27ad0c6d53c01871c5485e1f75b96" target="_top" xlink:title="returns the number of elements">
<polygon fill="white" stroke="black" points="277,-151.5 277,-181.5 399,-181.5 399,-151.5 277,-151.5"/>
<text text-anchor="start" x="285" y="-169.5" font-family="Helvetica,sans-Serif" font-size="10.00">nlohmann::basic_json</text>
<text text-anchor="middle" x="338" y="-158.5" font-family="Helvetica,sans-Serif" font-size="10.00">::size</text>
</a>
</g>
</g>
<!-- Node1&#45;&gt;Node11 -->
<g id="edge16" class="edge">
<title>Node1&#45;&gt;Node11</title>
<path fill="none" stroke="midnightblue" d="M42.68,-225.95C53.5,-210.24 77.54,-179.47 107,-167.5 157.67,-146.92 219.95,-148.07 266.91,-153.6"/>
<polygon fill="midnightblue" stroke="midnightblue" points="266.63,-157.09 276.99,-154.87 267.51,-150.14 266.63,-157.09"/>
</g>
<!-- Node12 -->
<g id="node12" class="node">
<title>Node12</title>
<g id="a_node12"><a xlink:href="classnlohmann_1_1basic__json.html#a31f84ee15c4690ff705bed74736d04c6" target="_top" xlink:title="explicitly create an object from an initializer list">
<polygon fill="white" stroke="black" points="107,-88.5 107,-118.5 229,-118.5 229,-88.5 107,-88.5"/>
<text text-anchor="start" x="115" y="-106.5" font-family="Helvetica,sans-Serif" font-size="10.00">nlohmann::basic_json</text>
<text text-anchor="middle" x="168" y="-95.5" font-family="Helvetica,sans-Serif" font-size="10.00">::object</text>
</a>
</g>
</g>
<!-- Node1&#45;&gt;Node12 -->
<g id="edge11" class="edge">
<title>Node1&#45;&gt;Node12</title>
<path fill="none" stroke="midnightblue" d="M41.05,-225.87C50.74,-206.25 75.14,-161.16 107,-133.5 111.18,-129.87 115.87,-126.56 120.74,-123.57"/>
<polygon fill="midnightblue" stroke="midnightblue" points="122.66,-126.51 129.64,-118.53 119.21,-120.41 122.66,-126.51"/>
</g>
<!-- Node13 -->
<g id="node13" class="node">
<title>Node13</title>
<g id="a_node13"><a xlink:href="classnlohmann_1_1basic__json.html#a1ef93e2006dbe52667294f5ef38b0b10" target="_top" xlink:title="returns an iterator to the reverse&#45;beginning">
<polygon fill="white" stroke="black" points="107,-0.5 107,-30.5 229,-30.5 229,-0.5 107,-0.5"/>
<text text-anchor="start" x="115" y="-18.5" font-family="Helvetica,sans-Serif" font-size="10.00">nlohmann::basic_json</text>
<text text-anchor="middle" x="168" y="-7.5" font-family="Helvetica,sans-Serif" font-size="10.00">::rbegin</text>
</a>
</g>
</g>
<!-- Node1&#45;&gt;Node13 -->
<g id="edge12" class="edge">
<title>Node1&#45;&gt;Node13</title>
<path fill="none" stroke="midnightblue" d="M37.56,-225.94C41.38,-195.77 56.96,-101.28 107,-45.5 110.19,-41.95 113.89,-38.77 117.86,-35.92"/>
<polygon fill="midnightblue" stroke="midnightblue" points="119.75,-38.87 126.32,-30.56 116,-32.96 119.75,-38.87"/>
</g>
<!-- Node14 -->
<g id="node14" class="node">
<title>Node14</title>
<g id="a_node14"><a xlink:href="classnlohmann_1_1basic__json.html#ac77aed0925d447744676725ab0b6d535" target="_top" xlink:title="returns an iterator to the reverse&#45;end">
<polygon fill="white" stroke="black" points="107,-313.5 107,-343.5 229,-343.5 229,-313.5 107,-313.5"/>
<text text-anchor="start" x="115" y="-331.5" font-family="Helvetica,sans-Serif" font-size="10.00">nlohmann::basic_json</text>
<text text-anchor="middle" x="168" y="-320.5" font-family="Helvetica,sans-Serif" font-size="10.00">::rend</text>
</a>
</g>
</g>
<!-- Node1&#45;&gt;Node14 -->
<g id="edge14" class="edge">
<title>Node1&#45;&gt;Node14</title>
<path fill="none" stroke="midnightblue" d="M44.22,-245.2C56.27,-259.79 80.89,-287.48 107,-304.5 109.3,-306 111.71,-307.43 114.18,-308.79"/>
<polygon fill="midnightblue" stroke="midnightblue" points="112.86,-312.05 123.36,-313.43 116.02,-305.8 112.86,-312.05"/>
</g>
<!-- Node5 -->
<g id="node5" class="node">
<title>Node5</title>
<g id="a_node5"><a xlink:href="classnlohmann_1_1basic__json.html#a8dba7b7d2f38e6b0c614030aa43983f6" target="_top" xlink:title="returns a const iterator to one past the last element">
<polygon fill="white" stroke="black" points="277,-411.5 277,-441.5 399,-441.5 399,-411.5 277,-411.5"/>
<text text-anchor="start" x="285" y="-429.5" font-family="Helvetica,sans-Serif" font-size="10.00">nlohmann::basic_json</text>
<text text-anchor="middle" x="338" y="-418.5" font-family="Helvetica,sans-Serif" font-size="10.00">::cend</text>
</a>
</g>
</g>
<!-- Node4&#45;&gt;Node5 -->
<g id="edge4" class="edge">
<title>Node4&#45;&gt;Node5</title>
<path fill="none" stroke="midnightblue" d="M229.18,-426.5C241.31,-426.5 254.17,-426.5 266.62,-426.5"/>
<polygon fill="midnightblue" stroke="midnightblue" points="266.96,-430 276.96,-426.5 266.96,-423 266.96,-430"/>
</g>
<!-- Node7 -->
<g id="node7" class="node">
<title>Node7</title>
<g id="a_node7"><a xlink:href="classnlohmann_1_1basic__json.html#ad865d6c291b237ae508d5cb2146b5877" target="_top" xlink:title="returns a const iterator to the first element">
<polygon fill="white" stroke="black" points="277,-362.5 277,-392.5 399,-392.5 399,-362.5 277,-362.5"/>
<text text-anchor="start" x="285" y="-380.5" font-family="Helvetica,sans-Serif" font-size="10.00">nlohmann::basic_json</text>
<text text-anchor="middle" x="338" y="-369.5" font-family="Helvetica,sans-Serif" font-size="10.00">::cbegin</text>
</a>
</g>
</g>
<!-- Node6&#45;&gt;Node7 -->
<g id="edge6" class="edge">
<title>Node6&#45;&gt;Node7</title>
<path fill="none" stroke="midnightblue" d="M229.18,-377.5C241.31,-377.5 254.17,-377.5 266.62,-377.5"/>
<polygon fill="midnightblue" stroke="midnightblue" points="266.96,-381 276.96,-377.5 266.96,-374 266.96,-381"/>
</g>
<!-- Node10&#45;&gt;Node11 -->
<g id="edge10" class="edge">
<title>Node10&#45;&gt;Node11</title>
<path fill="none" stroke="midnightblue" d="M229.18,-182.55C241.44,-180.72 254.43,-178.79 267,-176.92"/>
<polygon fill="midnightblue" stroke="midnightblue" points="267.58,-180.37 276.96,-175.43 266.55,-173.44 267.58,-180.37"/>
</g>
<!-- Node13&#45;&gt;Node9 -->
<g id="edge13" class="edge">
<title>Node13&#45;&gt;Node9</title>
<path fill="none" stroke="midnightblue" d="M229.18,-23.38C237.5,-24.47 246.16,-25.6 254.8,-26.74"/>
<polygon fill="midnightblue" stroke="midnightblue" points="254.54,-30.23 264.91,-28.06 255.45,-23.29 254.54,-30.23"/>
</g>
<!-- Node14&#45;&gt;Node3 -->
<g id="edge15" class="edge">
<title>Node14&#45;&gt;Node3</title>
<path fill="none" stroke="midnightblue" d="M222.62,-313.5C238.83,-308.96 256.79,-303.94 273.59,-299.24"/>
<polygon fill="midnightblue" stroke="midnightblue" points="274.63,-302.58 283.32,-296.52 272.74,-295.84 274.63,-302.58"/>
</g>
</g>
</svg>
        <g id="navigator" transform="translate(0 0)" fill="#404254">
                <rect fill="#f2f5e9" fill-opacity="0.5" stroke="#606060" stroke-width=".5" x="0" y="0" width="60" height="60"/>
                <use id="zoomplus" xlink:href="#zoomPlus" x="17" y="9" onmousedown="handleZoom(evt,'in')"/>
                <use id="zoomminus" xlink:href="#zoomMin" x="42" y="9" onmousedown="handleZoom(evt,'out')"/>
                <use id="reset" xlink:href="#resetDef" x="30" y="36" onmousedown="handleReset()"/>
                <g id="arrowUp" xlink:href="#dirArrow" transform="translate(30 24)" onmousedown="handlePan(0,-1)">
                  <use xlink:href="#rim" fill="#404040">
                        <set attributeName="fill" to="#808080" begin="arrowUp.mouseover" end="arrowUp.mouseout"/>
                  </use>
                  <path fill="none" stroke="white" stroke-width="1.5" d="M0,-3.0v7 M-2.5,-0.5L0,-3.0L2.5,-0.5"/>
                </g>
                <g id="arrowRight" xlink:href="#dirArrow" transform="rotate(90) translate(36 -43)" onmousedown="handlePan(1,0)">
                  <use xlink:href="#rim" fill="#404040">
                        <set attributeName="fill" to="#808080" begin="arrowRight.mouseover" end="arrowRight.mouseout"/>
                  </use>
                  <path fill="none" stroke="white" stroke-width="1.5" d="M0,-3.0v7 M-2.5,-0.5L0,-3.0L2.5,-0.5"/>
                </g>
                <g id="arrowDown" xlink:href="#dirArrow" transform="rotate(180) translate(-30 -48)" onmousedown="handlePan(0,1)">
                  <use xlink:href="#rim" fill="#404040">
                        <set attributeName="fill" to="#808080" begin="arrowDown.mouseover" end="arrowDown.mouseout"/>
                  </use>
                  <path fill="none" stroke="white" stroke-width="1.5" d="M0,-3.0v7 M-2.5,-0.5L0,-3.0L2.5,-0.5"/>
                </g>
                <g id="arrowLeft" xlink:href="#dirArrow" transform="rotate(270) translate(-36 17)" onmousedown="handlePan(-1,0)">
                  <use xlink:href="#rim" fill="#404040">
                        <set attributeName="fill" to="#808080" begin="arrowLeft.mouseover" end="arrowLeft.mouseout"/>
                  </use>
                  <path fill="none" stroke="white" stroke-width="1.5" d="M0,-3.0v7 M-2.5,-0.5L0,-3.0L2.5,-0.5"/>
                </g>
        </g>
        <svg viewBox="0 0 15 15" width="100%" height="30px" preserveAspectRatio="xMaxYMin meet">
         <g id="arrow_out" transform="scale(0.3 0.3)">
          <a xlink:href="unit-capacity_8cpp_aa7cd27113fe11aadbd2fc85683fdb99d_cgraph_org.svg" target="_base">
           <rect id="button" ry="5" rx="5" y="6" x="6" height="38" width="38"
                fill="#f2f5e9" fill-opacity="0.5" stroke="#606060" stroke-width="1.0"/>
           <path id="arrow"
             d="M 11.500037,31.436501 C 11.940474,20.09759 22.043105,11.32322 32.158766,21.979434 L 37.068811,17.246167 C 37.068811,17.246167 37.088388,32 37.088388,32 L 22.160133,31.978069 C 22.160133,31.978069 26.997745,27.140456 26.997745,27.140456 C 18.528582,18.264221 13.291696,25.230495 11.500037,31.436501 z"
             style="fill:#404040;"/>
          </a>
         </g>
        </svg>
</svg>
