<?xml version="1.0" encoding="UTF-8" standalone="no"?>
<!DOCTYPE svg PUBLIC "-//W3C//DTD SVG 1.1//EN"
 "http://www.w3.org/Graphics/SVG/1.1/DTD/svg11.dtd">
<!-- Generated by graphviz version 2.43.0 (0)
 -->
<!-- Title: TEST_CASE Pages: 1 -->
<svg width="237pt" height="78pt"
 viewBox="0.00 0.00 237.00 77.50" xmlns="http://www.w3.org/2000/svg" xmlns:xlink="http://www.w3.org/1999/xlink">
<g id="graph0" class="graph" transform="scale(1 1) rotate(0) translate(4 73.5)">
<title>TEST_CASE</title>
<polygon fill="white" stroke="transparent" points="-4,4 -4,-73.5 233,-73.5 233,4 -4,4"/>
<!-- Node1 -->
<g id="node1" class="node">
<title>Node1</title>
<g id="a_node1"><a xlink:title=" ">
<polygon fill="#bfbfbf" stroke="black" points="0,-28 0,-47 71,-47 71,-28 0,-28"/>
<text text-anchor="middle" x="35.5" y="-35" font-family="Helvetica,sans-Serif" font-size="10.00">TEST_CASE</text>
</a>
</g>
</g>
<!-- Node2 -->
<g id="node2" class="node">
<title>Node2</title>
<g id="a_node2"><a xlink:href="unit-testsuites_8cpp.html#a925a07add72cb91b23496dcd84df4dc4" target="_top" xlink:title=" ">
<polygon fill="white" stroke="black" points="114,-50 114,-69 222,-69 222,-50 114,-50"/>
<text text-anchor="middle" x="168" y="-57" font-family="Helvetica,sans-Serif" font-size="10.00">CHECK_NOTHROW</text>
</a>
</g>
</g>
<!-- Node1&#45;&gt;Node2 -->
<g id="edge1" class="edge">
<title>Node1&#45;&gt;Node2</title>
<path fill="none" stroke="midnightblue" d="M71.13,-43.34C81.29,-45.05 92.73,-46.98 104.08,-48.89"/>
<polygon fill="midnightblue" stroke="midnightblue" points="103.56,-52.35 114,-50.56 104.72,-45.45 103.56,-52.35"/>
</g>
<!-- Node3 -->
<g id="node3" class="node">
<title>Node3</title>
<g id="a_node3"><a xlink:href="classnlohmann_1_1basic__json.html#a265a473e939184aa42655c9ccdf34e58" target="_top" xlink:title="deserialize from a compatible input">
<polygon fill="white" stroke="black" points="107,-0.5 107,-30.5 229,-30.5 229,-0.5 107,-0.5"/>
<text text-anchor="start" x="115" y="-18.5" font-family="Helvetica,sans-Serif" font-size="10.00">nlohmann::basic_json</text>
<text text-anchor="middle" x="168" y="-7.5" font-family="Helvetica,sans-Serif" font-size="10.00">::parse</text>
</a>
</g>
</g>
<!-- Node1&#45;&gt;Node3 -->
<g id="edge2" class="edge">
<title>Node1&#45;&gt;Node3</title>
<path fill="none" stroke="midnightblue" d="M71.13,-31.66C79.14,-30.31 87.95,-28.83 96.87,-27.32"/>
<polygon fill="midnightblue" stroke="midnightblue" points="97.69,-30.73 106.97,-25.62 96.53,-23.83 97.69,-30.73"/>
</g>
</g>
</svg>
