<?xml version="1.0" encoding="UTF-8" standalone="no"?>
<!DOCTYPE svg PUBLIC "-//W3C//DTD SVG 1.1//EN"
 "http://www.w3.org/Graphics/SVG/1.1/DTD/svg11.dtd">
<!-- Generated by graphviz version 2.43.0 (0)
 -->
<!-- Title: TEST_CASE Pages: 1 -->
<svg width="575pt" height="78pt"
 viewBox="0.00 0.00 575.00 77.50" xmlns="http://www.w3.org/2000/svg" xmlns:xlink="http://www.w3.org/1999/xlink">
<g id="graph0" class="graph" transform="scale(1 1) rotate(0) translate(4 73.5)">
<title>TEST_CASE</title>
<polygon fill="white" stroke="transparent" points="-4,4 -4,-73.5 571,-73.5 571,4 -4,4"/>
<!-- Node1 -->
<g id="node1" class="node">
<title>Node1</title>
<g id="a_node1"><a xlink:title=" ">
<polygon fill="#bfbfbf" stroke="black" points="0,-28 0,-47 71,-47 71,-28 0,-28"/>
<text text-anchor="middle" x="35.5" y="-35" font-family="Helvetica,sans-Serif" font-size="10.00">TEST_CASE</text>
</a>
</g>
</g>
<!-- Node2 -->
<g id="node2" class="node">
<title>Node2</title>
<g id="a_node2"><a xlink:href="classnlohmann_1_1basic__json.html#a6b187a22994c12c8cae0dd5ee99dc85e" target="_top" xlink:title="get special&#45;case overload">
<polygon fill="white" stroke="black" points="107,-50 107,-69 251,-69 251,-50 107,-50"/>
<text text-anchor="middle" x="179" y="-57" font-family="Helvetica,sans-Serif" font-size="10.00">nlohmann::basic_json::get</text>
</a>
</g>
</g>
<!-- Node1&#45;&gt;Node2 -->
<g id="edge1" class="edge">
<title>Node1&#45;&gt;Node2</title>
<path fill="none" stroke="midnightblue" d="M71.11,-42.88C81.96,-44.57 94.36,-46.5 106.77,-48.43"/>
<polygon fill="midnightblue" stroke="midnightblue" points="106.28,-51.89 116.7,-49.97 107.36,-44.97 106.28,-51.89"/>
</g>
<!-- Node3 -->
<g id="node3" class="node">
<title>Node3</title>
<g id="a_node3"><a xlink:href="classnlohmann_1_1basic__json.html#abefbb319df8ed4f8705b4fd4e4dc731c" target="_top" xlink:title="get a pointer value (implicit)">
<polygon fill="white" stroke="black" points="118,-0.5 118,-30.5 240,-30.5 240,-0.5 118,-0.5"/>
<text text-anchor="start" x="126" y="-18.5" font-family="Helvetica,sans-Serif" font-size="10.00">nlohmann::basic_json</text>
<text text-anchor="middle" x="179" y="-7.5" font-family="Helvetica,sans-Serif" font-size="10.00">::get_ptr</text>
</a>
</g>
</g>
<!-- Node1&#45;&gt;Node3 -->
<g id="edge2" class="edge">
<title>Node1&#45;&gt;Node3</title>
<path fill="none" stroke="midnightblue" d="M71.11,-32.12C82.22,-30.39 94.95,-28.41 107.66,-26.44"/>
<polygon fill="midnightblue" stroke="midnightblue" points="108.47,-29.85 117.81,-24.86 107.4,-22.94 108.47,-29.85"/>
</g>
<!-- Node4 -->
<g id="node4" class="node">
<title>Node4</title>
<g id="a_node4"><a xlink:href="classnlohmann_1_1basic__json.html#a58b65f595883fb93333423ec5e3bafee" target="_top" xlink:title="get a pointer to the value (object)">
<polygon fill="white" stroke="black" points="287,-0.5 287,-30.5 409,-30.5 409,-0.5 287,-0.5"/>
<text text-anchor="start" x="295" y="-18.5" font-family="Helvetica,sans-Serif" font-size="10.00">nlohmann::basic_json</text>
<text text-anchor="middle" x="348" y="-7.5" font-family="Helvetica,sans-Serif" font-size="10.00">::get_impl_ptr</text>
</a>
</g>
</g>
<!-- Node3&#45;&gt;Node4 -->
<g id="edge3" class="edge">
<title>Node3&#45;&gt;Node4</title>
<path fill="none" stroke="midnightblue" d="M240.29,-15.5C252.12,-15.5 264.61,-15.5 276.73,-15.5"/>
<polygon fill="midnightblue" stroke="midnightblue" points="276.8,-19 286.8,-15.5 276.8,-12 276.8,-19"/>
</g>
<!-- Node5 -->
<g id="node5" class="node">
<title>Node5</title>
<g id="a_node5"><a xlink:href="classnlohmann_1_1basic__json.html#af8f511af124e82e4579f444b4175787c" target="_top" xlink:title="return whether value is an object">
<polygon fill="white" stroke="black" points="445,-0.5 445,-30.5 567,-30.5 567,-0.5 445,-0.5"/>
<text text-anchor="start" x="453" y="-18.5" font-family="Helvetica,sans-Serif" font-size="10.00">nlohmann::basic_json</text>
<text text-anchor="middle" x="506" y="-7.5" font-family="Helvetica,sans-Serif" font-size="10.00">::is_object</text>
</a>
</g>
</g>
<!-- Node4&#45;&gt;Node5 -->
<g id="edge4" class="edge">
<title>Node4&#45;&gt;Node5</title>
<path fill="none" stroke="midnightblue" d="M409.31,-15.5C417.6,-15.5 426.17,-15.5 434.63,-15.5"/>
<polygon fill="midnightblue" stroke="midnightblue" points="434.85,-19 444.85,-15.5 434.85,-12 434.85,-19"/>
</g>
</g>
</svg>
