<?xml version="1.0" encoding="UTF-8" standalone="no"?>
<!DOCTYPE svg PUBLIC "-//W3C//DTD SVG 1.1//EN"
 "http://www.w3.org/Graphics/SVG/1.1/DTD/svg11.dtd">
<!-- Generated by graphviz version 2.43.0 (0)
 -->
<!-- Title: TEST_CASE Pages: 1 -->
<!--zoomable 841 -->
<svg id="main" version="1.1" xmlns="http://www.w3.org/2000/svg" xmlns:xlink="http://www.w3.org/1999/xlink" xml:space="preserve" onload="init(evt)">
<style type="text/css"><![CDATA[
.edge:hover path { stroke: red; }
.edge:hover polygon { stroke: red; fill: red; }
]]></style>
<script type="text/javascript"><![CDATA[
var edges = document.getElementsByTagName('g');
if (edges && edges.length) {
  for (var i=0;i<edges.length;i++) {
    if (edges[i].id.substr(0,4)=='edge') {
      edges[i].setAttribute('class','edge');
    }
  }
}
]]></script>
        <defs>
                <circle id="rim" cx="0" cy="0" r="7"/>
                <circle id="rim2" cx="0" cy="0" r="3.5"/>
                <g id="zoomPlus">
                        <use xlink:href="#rim" fill="#404040">
                                <set attributeName="fill" to="#808080" begin="zoomplus.mouseover" end="zoomplus.mouseout"/>
                        </use>
                        <path d="M-4,0h8M0,-4v8" fill="none" stroke="white" stroke-width="1.5" pointer-events="none"/>
                </g>
                <g id="zoomMin">
                        <use xlink:href="#rim" fill="#404040">
                                <set attributeName="fill" to="#808080" begin="zoomminus.mouseover" end="zoomminus.mouseout"/>
                        </use>
                        <path d="M-4,0h8" fill="none" stroke="white" stroke-width="1.5" pointer-events="none"/>
                </g>
                <g id="dirArrow">
                        <path fill="none" stroke="white" stroke-width="1.5" d="M0,-3.0v7 M-2.5,-0.5L0,-3.0L2.5,-0.5"/>
                </g>
               <g id="resetDef">
                       <use xlink:href="#rim2" fill="#404040">
                               <set attributeName="fill" to="#808080" begin="reset.mouseover" end="reset.mouseout"/>
                       </use>
               </g>
        </defs>

<script type="text/javascript">
var viewWidth = 1139;
var viewHeight = 841;
var sectionId = 'dynsection-1';
</script>
<script xlink:href="svgpan.js"/>
<svg id="graph" class="graph">
<g id="viewport">
<title>TEST_CASE</title>
<polygon fill="white" stroke="transparent" points="-4,4 -4,-837 1135,-837 1135,4 -4,4"/>
<!-- Node1 -->
<g id="node1" class="node">
<title>Node1</title>
<g id="a_node1"><a xlink:title=" ">
<polygon fill="#bfbfbf" stroke="black" points="0,-285 0,-304 71,-304 71,-285 0,-285"/>
<text text-anchor="middle" x="35.5" y="-292" font-family="Helvetica,sans-Serif" font-size="10.00">TEST_CASE</text>
</a>
</g>
</g>
<!-- Node2 -->
<g id="node2" class="node">
<title>Node2</title>
<g id="a_node2"><a xlink:href="classnlohmann_1_1basic__json.html#a8a7d537fc297bbc5b845f92fe0445e3b" target="_top" xlink:title="explicitly create an array from an initializer list">
<polygon fill="white" stroke="black" points="118,-558.5 118,-588.5 240,-588.5 240,-558.5 118,-558.5"/>
<text text-anchor="start" x="126" y="-576.5" font-family="Helvetica,sans-Serif" font-size="10.00">nlohmann::basic_json</text>
<text text-anchor="middle" x="179" y="-565.5" font-family="Helvetica,sans-Serif" font-size="10.00">::array</text>
</a>
</g>
</g>
<!-- Node1&#45;&gt;Node2 -->
<g id="edge1" class="edge">
<title>Node1&#45;&gt;Node2</title>
<path fill="none" stroke="midnightblue" d="M36.41,-304.48C36.63,-341.14 42.16,-470.09 107,-543.5 110.21,-547.13 113.93,-550.34 117.96,-553.16"/>
<polygon fill="midnightblue" stroke="midnightblue" points="116.22,-556.21 126.58,-558.45 119.88,-550.24 116.22,-556.21"/>
</g>
<!-- Node3 -->
<g id="node3" class="node">
<title>Node3</title>
<g id="a_node3"><a xlink:href="classnlohmann_1_1basic__json.html#a73ae333487310e3302135189ce8ff5d8" target="_top" xlink:title="access specified array element with bounds checking">
<polygon fill="white" stroke="black" points="479,-688 479,-707 617,-707 617,-688 479,-688"/>
<text text-anchor="middle" x="548" y="-695" font-family="Helvetica,sans-Serif" font-size="10.00">nlohmann::basic_json::at</text>
</a>
</g>
</g>
<!-- Node1&#45;&gt;Node3 -->
<g id="edge2" class="edge">
<title>Node1&#45;&gt;Node3</title>
<path fill="none" stroke="midnightblue" d="M36.6,-304.37C37.51,-338.38 45.23,-451.81 107,-510.5 155.07,-556.17 189.04,-525.89 251,-549.5 355.41,-589.28 472,-654.03 522.01,-682.85"/>
<polygon fill="midnightblue" stroke="midnightblue" points="520.43,-685.98 530.83,-687.96 523.93,-679.92 520.43,-685.98"/>
</g>
<!-- Node13 -->
<g id="node13" class="node">
<title>Node13</title>
<g id="a_node13"><a xlink:href="classnlohmann_1_1basic__json.html#a0ff28dac23f2bdecee9564d07f51dcdc" target="_top" xlink:title="returns an iterator to the first element">
<polygon fill="white" stroke="black" points="118,-421.5 118,-451.5 240,-451.5 240,-421.5 118,-421.5"/>
<text text-anchor="start" x="126" y="-439.5" font-family="Helvetica,sans-Serif" font-size="10.00">nlohmann::basic_json</text>
<text text-anchor="middle" x="179" y="-428.5" font-family="Helvetica,sans-Serif" font-size="10.00">::begin</text>
</a>
</g>
</g>
<!-- Node1&#45;&gt;Node13 -->
<g id="edge13" class="edge">
<title>Node1&#45;&gt;Node13</title>
<path fill="none" stroke="midnightblue" d="M39.7,-304.33C47.5,-326.81 69.68,-382.37 107,-412.5 108.59,-413.79 110.26,-415.01 111.99,-416.16"/>
<polygon fill="midnightblue" stroke="midnightblue" points="110.62,-419.42 121.02,-421.42 114.14,-413.37 110.62,-419.42"/>
</g>
<!-- Node14 -->
<g id="node14" class="node">
<title>Node14</title>
<g id="a_node14"><a xlink:href="classnlohmann_1_1basic__json.html#ad865d6c291b237ae508d5cb2146b5877" target="_top" xlink:title="returns a const iterator to the first element">
<polygon fill="white" stroke="black" points="118,-372.5 118,-402.5 240,-402.5 240,-372.5 118,-372.5"/>
<text text-anchor="start" x="126" y="-390.5" font-family="Helvetica,sans-Serif" font-size="10.00">nlohmann::basic_json</text>
<text text-anchor="middle" x="179" y="-379.5" font-family="Helvetica,sans-Serif" font-size="10.00">::cbegin</text>
</a>
</g>
</g>
<!-- Node1&#45;&gt;Node14 -->
<g id="edge14" class="edge">
<title>Node1&#45;&gt;Node14</title>
<path fill="none" stroke="midnightblue" d="M44.11,-304.38C56.01,-319.2 80.43,-347.2 107,-363.5 109.77,-365.2 112.68,-366.8 115.67,-368.3"/>
<polygon fill="midnightblue" stroke="midnightblue" points="114.29,-371.51 124.84,-372.5 117.21,-365.15 114.29,-371.51"/>
</g>
<!-- Node15 -->
<g id="node15" class="node">
<title>Node15</title>
<g id="a_node15"><a xlink:href="classnlohmann_1_1basic__json.html#a8dba7b7d2f38e6b0c614030aa43983f6" target="_top" xlink:title="returns a const iterator to one past the last element">
<polygon fill="white" stroke="black" points="118,-323.5 118,-353.5 240,-353.5 240,-323.5 118,-323.5"/>
<text text-anchor="start" x="126" y="-341.5" font-family="Helvetica,sans-Serif" font-size="10.00">nlohmann::basic_json</text>
<text text-anchor="middle" x="179" y="-330.5" font-family="Helvetica,sans-Serif" font-size="10.00">::cend</text>
</a>
</g>
</g>
<!-- Node1&#45;&gt;Node15 -->
<g id="edge15" class="edge">
<title>Node1&#45;&gt;Node15</title>
<path fill="none" stroke="midnightblue" d="M67.2,-304.05C82.57,-308.82 101.68,-314.77 119.69,-320.37"/>
<polygon fill="midnightblue" stroke="midnightblue" points="118.96,-323.81 129.55,-323.43 121.04,-317.12 118.96,-323.81"/>
</g>
<!-- Node16 -->
<g id="node16" class="node">
<title>Node16</title>
<g id="a_node16"><a xlink:href="classnlohmann_1_1basic__json.html#a50ec80b02d0f3f51130d4abb5d1cfdc5" target="_top" xlink:title="serialization">
<polygon fill="white" stroke="black" points="118,-470.5 118,-500.5 240,-500.5 240,-470.5 118,-470.5"/>
<text text-anchor="start" x="126" y="-488.5" font-family="Helvetica,sans-Serif" font-size="10.00">nlohmann::basic_json</text>
<text text-anchor="middle" x="179" y="-477.5" font-family="Helvetica,sans-Serif" font-size="10.00">::dump</text>
</a>
</g>
</g>
<!-- Node1&#45;&gt;Node16 -->
<g id="edge16" class="edge">
<title>Node1&#45;&gt;Node16</title>
<path fill="none" stroke="midnightblue" d="M37.82,-304.38C42.16,-332.96 58.58,-416.52 107,-461.5 108.28,-462.69 109.62,-463.82 111.01,-464.89"/>
<polygon fill="midnightblue" stroke="midnightblue" points="109.18,-467.87 119.45,-470.45 113.02,-462.03 109.18,-467.87"/>
</g>
<!-- Node26 -->
<g id="node26" class="node">
<title>Node26</title>
<g id="a_node26"><a xlink:href="classnlohmann_1_1basic__json.html#a13e032a02a7fd8a93fdddc2fcbc4763c" target="_top" xlink:title="returns an iterator to one past the last element">
<polygon fill="white" stroke="black" points="289,-285 289,-304 435,-304 435,-285 289,-285"/>
<text text-anchor="middle" x="362" y="-292" font-family="Helvetica,sans-Serif" font-size="10.00">nlohmann::basic_json::end</text>
</a>
</g>
</g>
<!-- Node1&#45;&gt;Node26 -->
<g id="edge31" class="edge">
<title>Node1&#45;&gt;Node26</title>
<path fill="none" stroke="midnightblue" d="M71.23,-294.5C120.37,-294.5 211.68,-294.5 278.71,-294.5"/>
<polygon fill="midnightblue" stroke="midnightblue" points="278.83,-298 288.83,-294.5 278.83,-291 278.83,-298"/>
</g>
<!-- Node27 -->
<g id="node27" class="node">
<title>Node27</title>
<g id="a_node27"><a xlink:href="classnlohmann_1_1basic__json.html#a89eb3928f57903677051c80534be9cb1" target="_top" xlink:title="find an element in a JSON object">
<polygon fill="white" stroke="black" points="118,-235.5 118,-265.5 240,-265.5 240,-235.5 118,-235.5"/>
<text text-anchor="start" x="126" y="-253.5" font-family="Helvetica,sans-Serif" font-size="10.00">nlohmann::basic_json</text>
<text text-anchor="middle" x="179" y="-242.5" font-family="Helvetica,sans-Serif" font-size="10.00">::find</text>
</a>
</g>
</g>
<!-- Node1&#45;&gt;Node27 -->
<g id="edge32" class="edge">
<title>Node1&#45;&gt;Node27</title>
<path fill="none" stroke="midnightblue" d="M67.2,-284.95C82.57,-280.18 101.68,-274.23 119.69,-268.63"/>
<polygon fill="midnightblue" stroke="midnightblue" points="121.04,-271.88 129.55,-265.57 118.96,-265.19 121.04,-271.88"/>
</g>
<!-- Node29 -->
<g id="node29" class="node">
<title>Node29</title>
<g id="a_node29"><a xlink:href="classnlohmann_1_1basic__json.html#a6b187a22994c12c8cae0dd5ee99dc85e" target="_top" xlink:title="get special&#45;case overload">
<polygon fill="white" stroke="black" points="107,-197 107,-216 251,-216 251,-197 107,-197"/>
<text text-anchor="middle" x="179" y="-204" font-family="Helvetica,sans-Serif" font-size="10.00">nlohmann::basic_json::get</text>
</a>
</g>
</g>
<!-- Node1&#45;&gt;Node29 -->
<g id="edge35" class="edge">
<title>Node1&#45;&gt;Node29</title>
<path fill="none" stroke="midnightblue" d="M43.6,-284.9C55.18,-269.92 79.62,-241.1 107,-225.5 110.91,-223.27 115.09,-221.3 119.39,-219.55"/>
<polygon fill="midnightblue" stroke="midnightblue" points="120.74,-222.78 128.94,-216.07 118.35,-216.2 120.74,-222.78"/>
</g>
<!-- Node30 -->
<g id="node30" class="node">
<title>Node30</title>
<g id="a_node30"><a xlink:href="classnlohmann_1_1basic__json.html#afbd800010b67619463c0fce6e74f7878" target="_top" xlink:title="get a reference value (implicit)">
<polygon fill="white" stroke="black" points="118,-147.5 118,-177.5 240,-177.5 240,-147.5 118,-147.5"/>
<text text-anchor="start" x="126" y="-165.5" font-family="Helvetica,sans-Serif" font-size="10.00">nlohmann::basic_json</text>
<text text-anchor="middle" x="179" y="-154.5" font-family="Helvetica,sans-Serif" font-size="10.00">::get_ref</text>
</a>
</g>
</g>
<!-- Node1&#45;&gt;Node30 -->
<g id="edge36" class="edge">
<title>Node1&#45;&gt;Node30</title>
<path fill="none" stroke="midnightblue" d="M40.37,-284.69C49.1,-263.8 72.29,-214.62 107,-187.5 109.32,-185.69 111.77,-184 114.33,-182.44"/>
<polygon fill="midnightblue" stroke="midnightblue" points="116.22,-185.39 123.34,-177.54 112.88,-179.24 116.22,-185.39"/>
</g>
<!-- Node31 -->
<g id="node31" class="node">
<title>Node31</title>
<g id="a_node31"><a xlink:href="classnlohmann_1_1basic__json.html#a31f84ee15c4690ff705bed74736d04c6" target="_top" xlink:title="explicitly create an object from an initializer list">
<polygon fill="white" stroke="black" points="118,-98.5 118,-128.5 240,-128.5 240,-98.5 118,-98.5"/>
<text text-anchor="start" x="126" y="-116.5" font-family="Helvetica,sans-Serif" font-size="10.00">nlohmann::basic_json</text>
<text text-anchor="middle" x="179" y="-105.5" font-family="Helvetica,sans-Serif" font-size="10.00">::object</text>
</a>
</g>
</g>
<!-- Node1&#45;&gt;Node31 -->
<g id="edge37" class="edge">
<title>Node1&#45;&gt;Node31</title>
<path fill="none" stroke="midnightblue" d="M38.08,-284.81C43.04,-257.56 60.77,-179.48 107,-137.5 108.29,-136.33 109.64,-135.21 111.04,-134.15"/>
<polygon fill="midnightblue" stroke="midnightblue" points="113.05,-137.02 119.54,-128.64 109.24,-131.15 113.05,-137.02"/>
</g>
<!-- Node32 -->
<g id="node32" class="node">
<title>Node32</title>
<g id="a_node32"><a xlink:href="classnlohmann_1_1basic__json.html#a25e27ad0c6d53c01871c5485e1f75b96" target="_top" xlink:title="returns the number of elements">
<polygon fill="white" stroke="black" points="118,-49.5 118,-79.5 240,-79.5 240,-49.5 118,-49.5"/>
<text text-anchor="start" x="126" y="-67.5" font-family="Helvetica,sans-Serif" font-size="10.00">nlohmann::basic_json</text>
<text text-anchor="middle" x="179" y="-56.5" font-family="Helvetica,sans-Serif" font-size="10.00">::size</text>
</a>
</g>
</g>
<!-- Node1&#45;&gt;Node32 -->
<g id="edge38" class="edge">
<title>Node1&#45;&gt;Node32</title>
<path fill="none" stroke="midnightblue" d="M36.92,-284.75C38.83,-252.17 49.42,-145.86 107,-88.5 108.07,-87.44 109.18,-86.42 110.34,-85.45"/>
<polygon fill="midnightblue" stroke="midnightblue" points="112.36,-88.31 118.51,-79.68 108.32,-82.59 112.36,-88.31"/>
</g>
<!-- Node33 -->
<g id="node33" class="node">
<title>Node33</title>
<g id="a_node33"><a xlink:href="classnlohmann_1_1basic__json.html#a2b2d781d7f2a4ee41bc0016e931cadf7" target="_top" xlink:title="return the type of the JSON value (explicit)">
<polygon fill="white" stroke="black" points="118,-0.5 118,-30.5 240,-30.5 240,-0.5 118,-0.5"/>
<text text-anchor="start" x="126" y="-18.5" font-family="Helvetica,sans-Serif" font-size="10.00">nlohmann::basic_json</text>
<text text-anchor="middle" x="179" y="-7.5" font-family="Helvetica,sans-Serif" font-size="10.00">::type</text>
</a>
</g>
</g>
<!-- Node1&#45;&gt;Node33 -->
<g id="edge39" class="edge">
<title>Node1&#45;&gt;Node33</title>
<path fill="none" stroke="midnightblue" d="M36.17,-284.9C35.42,-247.86 37.74,-112.77 107,-39.5 107.9,-38.54 108.85,-37.62 109.83,-36.74"/>
<polygon fill="midnightblue" stroke="midnightblue" points="112.04,-39.46 117.95,-30.67 107.84,-33.86 112.04,-39.46"/>
</g>
<!-- Node4 -->
<g id="node4" class="node">
<title>Node4</title>
<g id="a_node4"><a xlink:href="classnlohmann_1_1detail_1_1type__error.html#aecc083aea4b698c33d042670ba50c10f" target="_top" xlink:title=" ">
<polygon fill="white" stroke="black" points="670.5,-616.5 670.5,-646.5 797.5,-646.5 797.5,-616.5 670.5,-616.5"/>
<text text-anchor="start" x="678.5" y="-634.5" font-family="Helvetica,sans-Serif" font-size="10.00">nlohmann::detail::type</text>
<text text-anchor="middle" x="734" y="-623.5" font-family="Helvetica,sans-Serif" font-size="10.00">_error::create</text>
</a>
</g>
</g>
<!-- Node3&#45;&gt;Node4 -->
<g id="edge3" class="edge">
<title>Node3&#45;&gt;Node4</title>
<path fill="none" stroke="midnightblue" d="M573.82,-688C596.06,-679.54 629.62,-666.94 659,-656.5 665.04,-654.36 671.37,-652.15 677.68,-649.98"/>
<polygon fill="midnightblue" stroke="midnightblue" points="679.2,-653.16 687.53,-646.62 676.93,-646.54 679.2,-653.16"/>
</g>
<!-- Node8 -->
<g id="node8" class="node">
<title>Node8</title>
<g id="a_node8"><a xlink:href="classnlohmann_1_1detail_1_1out__of__range.html#a3f6d82a6f967c4728a1ec735a7867073" target="_top" xlink:title=" ">
<polygon fill="white" stroke="black" points="673.5,-802.5 673.5,-832.5 794.5,-832.5 794.5,-802.5 673.5,-802.5"/>
<text text-anchor="start" x="681.5" y="-820.5" font-family="Helvetica,sans-Serif" font-size="10.00">nlohmann::detail::out</text>
<text text-anchor="middle" x="734" y="-809.5" font-family="Helvetica,sans-Serif" font-size="10.00">_of_range::create</text>
</a>
</g>
</g>
<!-- Node3&#45;&gt;Node8 -->
<g id="edge7" class="edge">
<title>Node3&#45;&gt;Node8</title>
<path fill="none" stroke="midnightblue" d="M557.44,-707.1C574.68,-726.19 616,-769.13 659,-793.5 662.03,-795.22 665.2,-796.83 668.45,-798.35"/>
<polygon fill="midnightblue" stroke="midnightblue" points="667.21,-801.62 677.78,-802.36 669.97,-795.19 667.21,-801.62"/>
</g>
<!-- Node10 -->
<g id="node10" class="node">
<title>Node10</title>
<g id="a_node10"><a xlink:href="classnlohmann_1_1basic__json.html#aef9ce5dd2381caee1f8ddcdb5bdd9c65" target="_top" xlink:title="return whether value is an array">
<polygon fill="white" stroke="black" points="673,-704.5 673,-734.5 795,-734.5 795,-704.5 673,-704.5"/>
<text text-anchor="start" x="681" y="-722.5" font-family="Helvetica,sans-Serif" font-size="10.00">nlohmann::basic_json</text>
<text text-anchor="middle" x="734" y="-711.5" font-family="Helvetica,sans-Serif" font-size="10.00">::is_array</text>
</a>
</g>
</g>
<!-- Node3&#45;&gt;Node10 -->
<g id="edge10" class="edge">
<title>Node3&#45;&gt;Node10</title>
<path fill="none" stroke="midnightblue" d="M617.25,-705.66C632.04,-707.43 647.72,-709.3 662.59,-711.08"/>
<polygon fill="midnightblue" stroke="midnightblue" points="662.39,-714.58 672.74,-712.29 663.22,-707.63 662.39,-714.58"/>
</g>
<!-- Node11 -->
<g id="node11" class="node">
<title>Node11</title>
<g id="a_node11"><a xlink:href="namespacenlohmann.html#ad675d1c22f5240b2b3065c241b204477" target="_top" xlink:title="user&#45;defined to_string function for JSON values">
<polygon fill="white" stroke="black" points="677,-666 677,-685 791,-685 791,-666 677,-666"/>
<text text-anchor="middle" x="734" y="-673" font-family="Helvetica,sans-Serif" font-size="10.00">nlohmann::to_string</text>
</a>
</g>
</g>
<!-- Node3&#45;&gt;Node11 -->
<g id="edge11" class="edge">
<title>Node3&#45;&gt;Node11</title>
<path fill="none" stroke="midnightblue" d="M617.25,-689.34C633.36,-687.41 650.51,-685.36 666.54,-683.45"/>
<polygon fill="midnightblue" stroke="midnightblue" points="667.37,-686.87 676.89,-682.21 666.54,-679.92 667.37,-686.87"/>
</g>
<!-- Node12 -->
<g id="node12" class="node">
<title>Node12</title>
<g id="a_node12"><a xlink:href="classnlohmann_1_1basic__json.html#ad14563c53cf7ca9189bc164082367bf3" target="_top" xlink:title="return the type as string">
<polygon fill="white" stroke="black" points="673,-753.5 673,-783.5 795,-783.5 795,-753.5 673,-753.5"/>
<text text-anchor="start" x="681" y="-771.5" font-family="Helvetica,sans-Serif" font-size="10.00">nlohmann::basic_json</text>
<text text-anchor="middle" x="734" y="-760.5" font-family="Helvetica,sans-Serif" font-size="10.00">::type_name</text>
</a>
</g>
</g>
<!-- Node3&#45;&gt;Node12 -->
<g id="edge12" class="edge">
<title>Node3&#45;&gt;Node12</title>
<path fill="none" stroke="midnightblue" d="M569.86,-707.08C591.82,-717.01 627.5,-732.69 659,-744.5 664.06,-746.4 669.34,-748.29 674.66,-750.13"/>
<polygon fill="midnightblue" stroke="midnightblue" points="673.63,-753.47 684.22,-753.37 675.88,-746.84 673.63,-753.47"/>
</g>
<!-- Node5 -->
<g id="node5" class="node">
<title>Node5</title>
<g id="a_node5"><a xlink:href="classnlohmann_1_1detail_1_1exception.html#abf41a7e9178356314082284e6cfea278" target="_top" xlink:title=" ">
<polygon fill="white" stroke="black" points="845,-641.5 845,-671.5 998,-671.5 998,-641.5 845,-641.5"/>
<text text-anchor="start" x="853" y="-659.5" font-family="Helvetica,sans-Serif" font-size="10.00">nlohmann::detail::exception</text>
<text text-anchor="middle" x="921.5" y="-648.5" font-family="Helvetica,sans-Serif" font-size="10.00">::name</text>
</a>
</g>
</g>
<!-- Node4&#45;&gt;Node5 -->
<g id="edge4" class="edge">
<title>Node4&#45;&gt;Node5</title>
<path fill="none" stroke="midnightblue" d="M797.54,-639.93C809.49,-641.54 822.2,-643.25 834.73,-644.94"/>
<polygon fill="midnightblue" stroke="midnightblue" points="834.35,-648.42 844.72,-646.29 835.28,-641.48 834.35,-648.42"/>
</g>
<!-- Node7 -->
<g id="node7" class="node">
<title>Node7</title>
<g id="a_node7"><a xlink:href="classnlohmann_1_1detail_1_1type__error.html#aa01edaa0bf18b853368f0b900e485cd7" target="_top" xlink:title=" ">
<polygon fill="white" stroke="black" points="858,-592.5 858,-622.5 985,-622.5 985,-592.5 858,-592.5"/>
<text text-anchor="start" x="866" y="-610.5" font-family="Helvetica,sans-Serif" font-size="10.00">nlohmann::detail::type</text>
<text text-anchor="middle" x="921.5" y="-599.5" font-family="Helvetica,sans-Serif" font-size="10.00">_error::type_error</text>
</a>
</g>
</g>
<!-- Node4&#45;&gt;Node7 -->
<g id="edge6" class="edge">
<title>Node4&#45;&gt;Node7</title>
<path fill="none" stroke="midnightblue" d="M797.54,-623.41C813.66,-621.32 831.14,-619.06 847.72,-616.92"/>
<polygon fill="midnightblue" stroke="midnightblue" points="848.44,-620.35 857.91,-615.6 847.55,-613.41 848.44,-620.35"/>
</g>
<!-- Node6 -->
<g id="node6" class="node">
<title>Node6</title>
<g id="a_node6"><a xlink:href="namespacehttplib.html#a498c3a79825ecbcb15c52ec5fcfd5c11" target="_top" xlink:title=" ">
<polygon fill="white" stroke="black" points="1034,-588 1034,-607 1131,-607 1131,-588 1034,-588"/>
<text text-anchor="middle" x="1082.5" y="-595" font-family="Helvetica,sans-Serif" font-size="10.00">httplib::to_string</text>
</a>
</g>
</g>
<!-- Node5&#45;&gt;Node6 -->
<g id="edge5" class="edge">
<title>Node5&#45;&gt;Node6</title>
<path fill="none" stroke="midnightblue" d="M972.26,-641.38C980.89,-638.56 989.74,-635.54 998,-632.5 1015.71,-625.99 1035.18,-617.88 1050.86,-611.11"/>
<polygon fill="midnightblue" stroke="midnightblue" points="1052.31,-614.3 1060.08,-607.1 1049.52,-607.88 1052.31,-614.3"/>
</g>
<!-- Node8&#45;&gt;Node5 -->
<g id="edge8" class="edge">
<title>Node8&#45;&gt;Node5</title>
<path fill="none" stroke="midnightblue" d="M792.73,-802.46C798.45,-799.9 803.99,-796.93 809,-793.5 853.02,-763.34 888.71,-710.89 907.06,-680.38"/>
<polygon fill="midnightblue" stroke="midnightblue" points="910.13,-682.06 912.19,-671.67 904.1,-678.51 910.13,-682.06"/>
</g>
<!-- Node9 -->
<g id="node9" class="node">
<title>Node9</title>
<g id="a_node9"><a xlink:href="classnlohmann_1_1detail_1_1out__of__range.html#ab5fe402019dba957558499502f0fd731" target="_top" xlink:title=" ">
<polygon fill="white" stroke="black" points="854.5,-802.5 854.5,-832.5 988.5,-832.5 988.5,-802.5 854.5,-802.5"/>
<text text-anchor="start" x="862.5" y="-820.5" font-family="Helvetica,sans-Serif" font-size="10.00">nlohmann::detail::out</text>
<text text-anchor="middle" x="921.5" y="-809.5" font-family="Helvetica,sans-Serif" font-size="10.00">_of_range::out_of_range</text>
</a>
</g>
</g>
<!-- Node8&#45;&gt;Node9 -->
<g id="edge9" class="edge">
<title>Node8&#45;&gt;Node9</title>
<path fill="none" stroke="midnightblue" d="M794.71,-817.5C810.5,-817.5 827.76,-817.5 844.29,-817.5"/>
<polygon fill="midnightblue" stroke="midnightblue" points="844.47,-821 854.47,-817.5 844.47,-814 844.47,-821"/>
</g>
<!-- Node17 -->
<g id="node17" class="node">
<title>Node17</title>
<g id="a_node17"><a xlink:href="classnlohmann_1_1detail_1_1serializer.html#a95460ebd1a535a543e5a0ec52e00f48b" target="_top" xlink:title="internal implementation of the serialization function">
<polygon fill="white" stroke="black" points="287,-397.5 287,-427.5 437,-427.5 437,-397.5 287,-397.5"/>
<text text-anchor="start" x="295" y="-415.5" font-family="Helvetica,sans-Serif" font-size="10.00">nlohmann::detail::serializer</text>
<text text-anchor="middle" x="362" y="-404.5" font-family="Helvetica,sans-Serif" font-size="10.00">::dump</text>
</a>
</g>
</g>
<!-- Node16&#45;&gt;Node17 -->
<g id="edge17" class="edge">
<title>Node16&#45;&gt;Node17</title>
<path fill="none" stroke="midnightblue" d="M226.44,-470.5C234.67,-467.64 243.12,-464.58 251,-461.5 274.03,-452.5 299.26,-441.36 319.74,-431.97"/>
<polygon fill="midnightblue" stroke="midnightblue" points="321.47,-435.03 329.08,-427.66 318.54,-428.67 321.47,-435.03"/>
</g>
<!-- Node18 -->
<g id="node18" class="node">
<title>Node18</title>
<g id="a_node18"><a xlink:href="FuzzerTracePC_8cpp.html#a1f10ac78bd11294b612636121065eb5b" target="_top" xlink:title=" ">
<polygon fill="white" stroke="black" points="898,-359 898,-378 945,-378 945,-359 898,-359"/>
<text text-anchor="middle" x="921.5" y="-366" font-family="Helvetica,sans-Serif" font-size="10.00">assert</text>
</a>
</g>
</g>
<!-- Node17&#45;&gt;Node18 -->
<g id="edge18" class="edge">
<title>Node17&#45;&gt;Node18</title>
<path fill="none" stroke="midnightblue" d="M437.14,-413.36C525.92,-413.47 678.96,-410.71 809,-393.5 835.83,-389.95 865.72,-383.09 887.79,-377.45"/>
<polygon fill="midnightblue" stroke="midnightblue" points="888.86,-380.79 897.65,-374.88 887.09,-374.01 888.86,-380.79"/>
</g>
<!-- Node19 -->
<g id="node19" class="node">
<title>Node19</title>
<g id="a_node19"><a xlink:href="classnlohmann_1_1detail_1_1serializer.html#ac1f8d1165b44149bd8be397dce68ea05" target="_top" xlink:title="dump escaped string">
<polygon fill="white" stroke="black" points="473,-504.5 473,-534.5 623,-534.5 623,-504.5 473,-504.5"/>
<text text-anchor="start" x="481" y="-522.5" font-family="Helvetica,sans-Serif" font-size="10.00">nlohmann::detail::serializer</text>
<text text-anchor="middle" x="548" y="-511.5" font-family="Helvetica,sans-Serif" font-size="10.00">::dump_escaped</text>
</a>
</g>
</g>
<!-- Node17&#45;&gt;Node19 -->
<g id="edge19" class="edge">
<title>Node17&#45;&gt;Node19</title>
<path fill="none" stroke="midnightblue" d="M388.97,-427.6C421.3,-446.4 476.62,-478.57 512.49,-499.43"/>
<polygon fill="midnightblue" stroke="midnightblue" points="510.76,-502.47 521.16,-504.47 514.27,-496.42 510.76,-502.47"/>
</g>
<!-- Node22 -->
<g id="node22" class="node">
<title>Node22</title>
<g id="a_node22"><a xlink:href="classnlohmann_1_1detail_1_1serializer.html#a6d652a3bfa581cf1cd7790d6d11ea52f" target="_top" xlink:title="dump a floating&#45;point number">
<polygon fill="white" stroke="black" points="473,-353.5 473,-383.5 623,-383.5 623,-353.5 473,-353.5"/>
<text text-anchor="start" x="481" y="-371.5" font-family="Helvetica,sans-Serif" font-size="10.00">nlohmann::detail::serializer</text>
<text text-anchor="middle" x="548" y="-360.5" font-family="Helvetica,sans-Serif" font-size="10.00">::dump_float</text>
</a>
</g>
</g>
<!-- Node17&#45;&gt;Node22 -->
<g id="edge25" class="edge">
<title>Node17&#45;&gt;Node22</title>
<path fill="none" stroke="midnightblue" d="M425.81,-397.48C441.41,-393.75 458.27,-389.72 474.3,-385.88"/>
<polygon fill="midnightblue" stroke="midnightblue" points="475.25,-389.26 484.16,-383.53 473.62,-382.45 475.25,-389.26"/>
</g>
<!-- Node23 -->
<g id="node23" class="node">
<title>Node23</title>
<g id="a_node23"><a xlink:href="classnlohmann_1_1detail_1_1serializer.html#a944f6dea8dbe2961da145d2f62fa2c2f" target="_top" xlink:title="dump an integer">
<polygon fill="white" stroke="black" points="473,-304.5 473,-334.5 623,-334.5 623,-304.5 473,-304.5"/>
<text text-anchor="start" x="481" y="-322.5" font-family="Helvetica,sans-Serif" font-size="10.00">nlohmann::detail::serializer</text>
<text text-anchor="middle" x="548" y="-311.5" font-family="Helvetica,sans-Serif" font-size="10.00">::dump_integer</text>
</a>
</g>
</g>
<!-- Node17&#45;&gt;Node23 -->
<g id="edge26" class="edge">
<title>Node17&#45;&gt;Node23</title>
<path fill="none" stroke="midnightblue" d="M384.09,-397.44C405.65,-382.53 440.5,-359.79 473,-344.5 477.71,-342.28 482.67,-340.17 487.7,-338.18"/>
<polygon fill="midnightblue" stroke="midnightblue" points="489.31,-341.31 497.42,-334.5 486.83,-334.77 489.31,-341.31"/>
</g>
<!-- Node19&#45;&gt;Node4 -->
<g id="edge21" class="edge">
<title>Node19&#45;&gt;Node4</title>
<path fill="none" stroke="midnightblue" d="M564.1,-534.59C584.18,-553.92 621.54,-587.32 659,-607.5 662.28,-609.27 665.72,-610.94 669.24,-612.5"/>
<polygon fill="midnightblue" stroke="midnightblue" points="668.12,-615.83 678.7,-616.41 670.79,-609.36 668.12,-615.83"/>
</g>
<!-- Node19&#45;&gt;Node6 -->
<g id="edge24" class="edge">
<title>Node19&#45;&gt;Node6</title>
<path fill="none" stroke="midnightblue" d="M623.37,-529.53C712.49,-541.68 866.31,-563.08 998,-583.5 1006.35,-584.8 1015.16,-586.21 1023.81,-587.64"/>
<polygon fill="midnightblue" stroke="midnightblue" points="1023.41,-591.12 1033.84,-589.3 1024.55,-584.21 1023.41,-591.12"/>
</g>
<!-- Node19&#45;&gt;Node18 -->
<g id="edge20" class="edge">
<title>Node19&#45;&gt;Node18</title>
<path fill="none" stroke="midnightblue" d="M623.09,-521.02C677.27,-519.28 751.1,-510.81 809,-481.5 853.24,-459.11 890.37,-412.38 908.53,-386.58"/>
<polygon fill="midnightblue" stroke="midnightblue" points="911.57,-388.33 914.34,-378.11 905.8,-384.37 911.57,-388.33"/>
</g>
<!-- Node20 -->
<g id="node20" class="node">
<title>Node20</title>
<g id="a_node20"><a xlink:href="classnlohmann_1_1detail_1_1serializer.html#abdcc4fd1dc5d3afb6c0817e4c89b1242" target="_top" xlink:title="check whether a string is UTF&#45;8 encoded">
<polygon fill="white" stroke="black" points="659,-441.5 659,-471.5 809,-471.5 809,-441.5 659,-441.5"/>
<text text-anchor="start" x="667" y="-459.5" font-family="Helvetica,sans-Serif" font-size="10.00">nlohmann::detail::serializer</text>
<text text-anchor="middle" x="734" y="-448.5" font-family="Helvetica,sans-Serif" font-size="10.00">::decode</text>
</a>
</g>
</g>
<!-- Node19&#45;&gt;Node20 -->
<g id="edge22" class="edge">
<title>Node19&#45;&gt;Node20</title>
<path fill="none" stroke="midnightblue" d="M593.07,-504.41C618.92,-495.56 651.78,-484.31 679.15,-474.94"/>
<polygon fill="midnightblue" stroke="midnightblue" points="680.64,-478.13 688.97,-471.58 678.37,-471.5 680.64,-478.13"/>
</g>
<!-- Node21 -->
<g id="node21" class="node">
<title>Node21</title>
<g id="a_node21"><a xlink:href="classnlohmann_1_1detail_1_1binary__writer.html#ab77aa48692bd4e64e4f051ce6aeb6d2d" target="_top" xlink:title=" ">
<polygon fill="white" stroke="black" points="666,-567.5 666,-597.5 802,-597.5 802,-567.5 666,-567.5"/>
<text text-anchor="start" x="674" y="-585.5" font-family="Helvetica,sans-Serif" font-size="10.00">nlohmann::detail::binary</text>
<text text-anchor="middle" x="734" y="-574.5" font-family="Helvetica,sans-Serif" font-size="10.00">_writer::to_char_type</text>
</a>
</g>
</g>
<!-- Node19&#45;&gt;Node21 -->
<g id="edge23" class="edge">
<title>Node19&#45;&gt;Node21</title>
<path fill="none" stroke="midnightblue" d="M593.07,-534.59C618.92,-543.44 651.78,-554.69 679.15,-564.06"/>
<polygon fill="midnightblue" stroke="midnightblue" points="678.37,-567.5 688.97,-567.42 680.64,-560.87 678.37,-567.5"/>
</g>
<!-- Node23&#45;&gt;Node18 -->
<g id="edge27" class="edge">
<title>Node23&#45;&gt;Node18</title>
<path fill="none" stroke="midnightblue" d="M623.25,-324.34C675.41,-328.3 746.71,-334.84 809,-344.5 835.69,-348.64 865.59,-355.18 887.71,-360.39"/>
<polygon fill="midnightblue" stroke="midnightblue" points="887.04,-363.83 897.58,-362.75 888.67,-357.02 887.04,-363.83"/>
</g>
<!-- Node24 -->
<g id="node24" class="node">
<title>Node24</title>
<g id="a_node24"><a xlink:href="classnlohmann_1_1detail_1_1serializer.html#a10692e98ea1f5a64de1d0b8e0e724b99" target="_top" xlink:title="count digits">
<polygon fill="white" stroke="black" points="659,-353.5 659,-383.5 809,-383.5 809,-353.5 659,-353.5"/>
<text text-anchor="start" x="667" y="-371.5" font-family="Helvetica,sans-Serif" font-size="10.00">nlohmann::detail::serializer</text>
<text text-anchor="middle" x="734" y="-360.5" font-family="Helvetica,sans-Serif" font-size="10.00">::count_digits</text>
</a>
</g>
</g>
<!-- Node23&#45;&gt;Node24 -->
<g id="edge28" class="edge">
<title>Node23&#45;&gt;Node24</title>
<path fill="none" stroke="midnightblue" d="M605.46,-334.53C624.88,-339.71 646.81,-345.55 666.93,-350.91"/>
<polygon fill="midnightblue" stroke="midnightblue" points="666.09,-354.3 676.65,-353.49 667.89,-347.54 666.09,-354.3"/>
</g>
<!-- Node25 -->
<g id="node25" class="node">
<title>Node25</title>
<g id="a_node25"><a xlink:href="classnlohmann_1_1detail_1_1serializer.html#a45bcb8ea41e4db5461e979d4b1d5e5e7" target="_top" xlink:title=" ">
<polygon fill="white" stroke="black" points="659,-265.5 659,-295.5 809,-295.5 809,-265.5 659,-265.5"/>
<text text-anchor="start" x="667" y="-283.5" font-family="Helvetica,sans-Serif" font-size="10.00">nlohmann::detail::serializer</text>
<text text-anchor="middle" x="734" y="-272.5" font-family="Helvetica,sans-Serif" font-size="10.00">::remove_sign</text>
</a>
</g>
</g>
<!-- Node23&#45;&gt;Node25 -->
<g id="edge29" class="edge">
<title>Node23&#45;&gt;Node25</title>
<path fill="none" stroke="midnightblue" d="M619.88,-304.48C630.49,-302.23 641.51,-299.89 652.31,-297.6"/>
<polygon fill="midnightblue" stroke="midnightblue" points="653.1,-301.01 662.16,-295.51 651.65,-294.16 653.1,-301.01"/>
</g>
<!-- Node25&#45;&gt;Node18 -->
<g id="edge30" class="edge">
<title>Node25&#45;&gt;Node18</title>
<path fill="none" stroke="midnightblue" d="M774.09,-295.54C785.44,-300.13 797.8,-305.33 809,-310.5 838.82,-324.26 872.11,-341.89 894.49,-354.08"/>
<polygon fill="midnightblue" stroke="midnightblue" points="892.92,-357.21 903.37,-358.94 896.28,-351.07 892.92,-357.21"/>
</g>
<!-- Node27&#45;&gt;Node26 -->
<g id="edge33" class="edge">
<title>Node27&#45;&gt;Node26</title>
<path fill="none" stroke="midnightblue" d="M240.02,-265.09C263.4,-270.77 289.85,-277.2 312.05,-282.6"/>
<polygon fill="midnightblue" stroke="midnightblue" points="311.38,-286.04 321.92,-285 313.03,-279.24 311.38,-286.04"/>
</g>
<!-- Node28 -->
<g id="node28" class="node">
<title>Node28</title>
<g id="a_node28"><a xlink:href="classnlohmann_1_1basic__json.html#af8f511af124e82e4579f444b4175787c" target="_top" xlink:title="return whether value is an object">
<polygon fill="white" stroke="black" points="301,-235.5 301,-265.5 423,-265.5 423,-235.5 301,-235.5"/>
<text text-anchor="start" x="309" y="-253.5" font-family="Helvetica,sans-Serif" font-size="10.00">nlohmann::basic_json</text>
<text text-anchor="middle" x="362" y="-242.5" font-family="Helvetica,sans-Serif" font-size="10.00">::is_object</text>
</a>
</g>
</g>
<!-- Node27&#45;&gt;Node28 -->
<g id="edge34" class="edge">
<title>Node27&#45;&gt;Node28</title>
<path fill="none" stroke="midnightblue" d="M240.02,-250.5C256.21,-250.5 273.88,-250.5 290.58,-250.5"/>
<polygon fill="midnightblue" stroke="midnightblue" points="290.83,-254 300.83,-250.5 290.83,-247 290.83,-254"/>
</g>
</g>
</svg>
        <g id="navigator" transform="translate(0 0)" fill="#404254">
                <rect fill="#f2f5e9" fill-opacity="0.5" stroke="#606060" stroke-width=".5" x="0" y="0" width="60" height="60"/>
                <use id="zoomplus" xlink:href="#zoomPlus" x="17" y="9" onmousedown="handleZoom(evt,'in')"/>
                <use id="zoomminus" xlink:href="#zoomMin" x="42" y="9" onmousedown="handleZoom(evt,'out')"/>
                <use id="reset" xlink:href="#resetDef" x="30" y="36" onmousedown="handleReset()"/>
                <g id="arrowUp" xlink:href="#dirArrow" transform="translate(30 24)" onmousedown="handlePan(0,-1)">
                  <use xlink:href="#rim" fill="#404040">
                        <set attributeName="fill" to="#808080" begin="arrowUp.mouseover" end="arrowUp.mouseout"/>
                  </use>
                  <path fill="none" stroke="white" stroke-width="1.5" d="M0,-3.0v7 M-2.5,-0.5L0,-3.0L2.5,-0.5"/>
                </g>
                <g id="arrowRight" xlink:href="#dirArrow" transform="rotate(90) translate(36 -43)" onmousedown="handlePan(1,0)">
                  <use xlink:href="#rim" fill="#404040">
                        <set attributeName="fill" to="#808080" begin="arrowRight.mouseover" end="arrowRight.mouseout"/>
                  </use>
                  <path fill="none" stroke="white" stroke-width="1.5" d="M0,-3.0v7 M-2.5,-0.5L0,-3.0L2.5,-0.5"/>
                </g>
                <g id="arrowDown" xlink:href="#dirArrow" transform="rotate(180) translate(-30 -48)" onmousedown="handlePan(0,1)">
                  <use xlink:href="#rim" fill="#404040">
                        <set attributeName="fill" to="#808080" begin="arrowDown.mouseover" end="arrowDown.mouseout"/>
                  </use>
                  <path fill="none" stroke="white" stroke-width="1.5" d="M0,-3.0v7 M-2.5,-0.5L0,-3.0L2.5,-0.5"/>
                </g>
                <g id="arrowLeft" xlink:href="#dirArrow" transform="rotate(270) translate(-36 17)" onmousedown="handlePan(-1,0)">
                  <use xlink:href="#rim" fill="#404040">
                        <set attributeName="fill" to="#808080" begin="arrowLeft.mouseover" end="arrowLeft.mouseout"/>
                  </use>
                  <path fill="none" stroke="white" stroke-width="1.5" d="M0,-3.0v7 M-2.5,-0.5L0,-3.0L2.5,-0.5"/>
                </g>
        </g>
        <svg viewBox="0 0 15 15" width="100%" height="30px" preserveAspectRatio="xMaxYMin meet">
         <g id="arrow_out" transform="scale(0.3 0.3)">
          <a xlink:href="unit-constructor1_8cpp_a828e2e005a2167d448df1fed0a98ce86_cgraph_org.svg" target="_base">
           <rect id="button" ry="5" rx="5" y="6" x="6" height="38" width="38"
                fill="#f2f5e9" fill-opacity="0.5" stroke="#606060" stroke-width="1.0"/>
           <path id="arrow"
             d="M 11.500037,31.436501 C 11.940474,20.09759 22.043105,11.32322 32.158766,21.979434 L 37.068811,17.246167 C 37.068811,17.246167 37.088388,32 37.088388,32 L 22.160133,31.978069 C 22.160133,31.978069 26.997745,27.140456 26.997745,27.140456 C 18.528582,18.264221 13.291696,25.230495 11.500037,31.436501 z"
             style="fill:#404040;"/>
          </a>
         </g>
        </svg>
</svg>
