<?xml version="1.0" encoding="UTF-8" standalone="no"?>
<!DOCTYPE svg PUBLIC "-//W3C//DTD SVG 1.1//EN"
 "http://www.w3.org/Graphics/SVG/1.1/DTD/svg11.dtd">
<!-- Generated by graphviz version 2.43.0 (0)
 -->
<!-- Title: SECTION Pages: 1 -->
<!--zoomable 333 -->
<svg id="main" version="1.1" xmlns="http://www.w3.org/2000/svg" xmlns:xlink="http://www.w3.org/1999/xlink" xml:space="preserve" onload="init(evt)">
<style type="text/css"><![CDATA[
.edge:hover path { stroke: red; }
.edge:hover polygon { stroke: red; fill: red; }
]]></style>
<script type="text/javascript"><![CDATA[
var edges = document.getElementsByTagName('g');
if (edges && edges.length) {
  for (var i=0;i<edges.length;i++) {
    if (edges[i].id.substr(0,4)=='edge') {
      edges[i].setAttribute('class','edge');
    }
  }
}
]]></script>
        <defs>
                <circle id="rim" cx="0" cy="0" r="7"/>
                <circle id="rim2" cx="0" cy="0" r="3.5"/>
                <g id="zoomPlus">
                        <use xlink:href="#rim" fill="#404040">
                                <set attributeName="fill" to="#808080" begin="zoomplus.mouseover" end="zoomplus.mouseout"/>
                        </use>
                        <path d="M-4,0h8M0,-4v8" fill="none" stroke="white" stroke-width="1.5" pointer-events="none"/>
                </g>
                <g id="zoomMin">
                        <use xlink:href="#rim" fill="#404040">
                                <set attributeName="fill" to="#808080" begin="zoomminus.mouseover" end="zoomminus.mouseout"/>
                        </use>
                        <path d="M-4,0h8" fill="none" stroke="white" stroke-width="1.5" pointer-events="none"/>
                </g>
                <g id="dirArrow">
                        <path fill="none" stroke="white" stroke-width="1.5" d="M0,-3.0v7 M-2.5,-0.5L0,-3.0L2.5,-0.5"/>
                </g>
               <g id="resetDef">
                       <use xlink:href="#rim2" fill="#404040">
                               <set attributeName="fill" to="#808080" begin="reset.mouseover" end="reset.mouseout"/>
                       </use>
               </g>
        </defs>

<script type="text/javascript">
var viewWidth = 726;
var viewHeight = 333;
var sectionId = 'dynsection-2';
</script>
<script xlink:href="svgpan.js"/>
<svg id="graph" class="graph">
<g id="viewport">
<title>SECTION</title>
<polygon fill="white" stroke="transparent" points="-4,4 -4,-328.5 722,-328.5 722,4 -4,4"/>
<!-- Node1 -->
<g id="node1" class="node">
<title>Node1</title>
<g id="a_node1"><a xlink:title=" ">
<polygon fill="#bfbfbf" stroke="black" points="0,-66.5 0,-85.5 59,-85.5 59,-66.5 0,-66.5"/>
<text text-anchor="middle" x="29.5" y="-73.5" font-family="Helvetica,sans-Serif" font-size="10.00">SECTION</text>
</a>
</g>
</g>
<!-- Node2 -->
<g id="node2" class="node">
<title>Node2</title>
<g id="a_node2"><a xlink:href="classnlohmann_1_1basic__json.html#a73ae333487310e3302135189ce8ff5d8" target="_top" xlink:title="access specified array element with bounds checking">
<polygon fill="white" stroke="black" points="95,-154.5 95,-173.5 233,-173.5 233,-154.5 95,-154.5"/>
<text text-anchor="middle" x="164" y="-161.5" font-family="Helvetica,sans-Serif" font-size="10.00">nlohmann::basic_json::at</text>
</a>
</g>
</g>
<!-- Node1&#45;&gt;Node2 -->
<g id="edge1" class="edge">
<title>Node1&#45;&gt;Node2</title>
<path fill="none" stroke="midnightblue" d="M44.93,-85.59C67.83,-100.79 112.69,-130.59 140.04,-148.75"/>
<polygon fill="midnightblue" stroke="midnightblue" points="138.32,-151.81 148.59,-154.43 142.19,-145.98 138.32,-151.81"/>
</g>
<!-- Node12 -->
<g id="node12" class="node">
<title>Node12</title>
<g id="a_node12"><a xlink:href="unit-json__pointer_8cpp.html#af5211a60c46b6b8fa7f4771202ca8483" target="_top" xlink:title=" ">
<polygon fill="white" stroke="black" points="139,-88.5 139,-107.5 189,-107.5 189,-88.5 139,-88.5"/>
<text text-anchor="middle" x="164" y="-95.5" font-family="Helvetica,sans-Serif" font-size="10.00">CHECK</text>
</a>
</g>
</g>
<!-- Node1&#45;&gt;Node12 -->
<g id="edge12" class="edge">
<title>Node1&#45;&gt;Node12</title>
<path fill="none" stroke="midnightblue" d="M59.25,-80.77C79.66,-84.16 107.14,-88.73 128.7,-92.3"/>
<polygon fill="midnightblue" stroke="midnightblue" points="128.31,-95.79 138.75,-93.97 129.45,-88.88 128.31,-95.79"/>
</g>
<!-- Node13 -->
<g id="node13" class="node">
<title>Node13</title>
<g id="a_node13"><a xlink:href="classnlohmann_1_1basic__json.html#a9286acdc0578fc66e9346323e69fc0e3" target="_top" xlink:title="check the existence of an element in a JSON object">
<polygon fill="white" stroke="black" points="103,-39 103,-69 225,-69 225,-39 103,-39"/>
<text text-anchor="start" x="111" y="-57" font-family="Helvetica,sans-Serif" font-size="10.00">nlohmann::basic_json</text>
<text text-anchor="middle" x="164" y="-46" font-family="Helvetica,sans-Serif" font-size="10.00">::contains</text>
</a>
</g>
</g>
<!-- Node1&#45;&gt;Node13 -->
<g id="edge13" class="edge">
<title>Node1&#45;&gt;Node13</title>
<path fill="none" stroke="midnightblue" d="M59.25,-71.23C69.24,-69.57 80.93,-67.63 92.78,-65.66"/>
<polygon fill="midnightblue" stroke="midnightblue" points="93.46,-69.09 102.75,-64 92.31,-62.19 93.46,-69.09"/>
</g>
<!-- Node15 -->
<g id="node15" class="node">
<title>Node15</title>
<g id="a_node15"><a xlink:href="unit-json__pointer_8cpp.html#a3a1debb8d350d14ee2ce8f7e8efee8fa" target="_top" xlink:title=" ">
<polygon fill="white" stroke="black" points="134.5,-0.5 134.5,-19.5 193.5,-19.5 193.5,-0.5 134.5,-0.5"/>
<text text-anchor="middle" x="164" y="-7.5" font-family="Helvetica,sans-Serif" font-size="10.00">SECTION</text>
</a>
</g>
</g>
<!-- Node1&#45;&gt;Node15 -->
<g id="edge15" class="edge">
<title>Node1&#45;&gt;Node15</title>
<path fill="none" stroke="midnightblue" d="M41.14,-66.38C53.33,-55.81 74.3,-39.03 95,-29 104.27,-24.51 114.77,-20.92 124.71,-18.13"/>
<polygon fill="midnightblue" stroke="midnightblue" points="125.6,-21.51 134.39,-15.59 123.83,-14.74 125.6,-21.51"/>
</g>
<!-- Node3 -->
<g id="node3" class="node">
<title>Node3</title>
<g id="a_node3"><a xlink:href="classnlohmann_1_1detail_1_1type__error.html#aecc083aea4b698c33d042670ba50c10f" target="_top" xlink:title=" ">
<polygon fill="white" stroke="black" points="269,-269 269,-299 396,-299 396,-269 269,-269"/>
<text text-anchor="start" x="277" y="-287" font-family="Helvetica,sans-Serif" font-size="10.00">nlohmann::detail::type</text>
<text text-anchor="middle" x="332.5" y="-276" font-family="Helvetica,sans-Serif" font-size="10.00">_error::create</text>
</a>
</g>
</g>
<!-- Node2&#45;&gt;Node3 -->
<g id="edge2" class="edge">
<title>Node2&#45;&gt;Node3</title>
<path fill="none" stroke="midnightblue" d="M173.27,-173.58C189.81,-192.23 228.81,-233.79 269,-259 272.1,-260.95 275.38,-262.79 278.75,-264.53"/>
<polygon fill="midnightblue" stroke="midnightblue" points="277.28,-267.71 287.81,-268.88 280.31,-261.4 277.28,-267.71"/>
</g>
<!-- Node7 -->
<g id="node7" class="node">
<title>Node7</title>
<g id="a_node7"><a xlink:href="classnlohmann_1_1detail_1_1out__of__range.html#a3f6d82a6f967c4728a1ec735a7867073" target="_top" xlink:title=" ">
<polygon fill="white" stroke="black" points="272,-220 272,-250 393,-250 393,-220 272,-220"/>
<text text-anchor="start" x="280" y="-238" font-family="Helvetica,sans-Serif" font-size="10.00">nlohmann::detail::out</text>
<text text-anchor="middle" x="332.5" y="-227" font-family="Helvetica,sans-Serif" font-size="10.00">_of_range::create</text>
</a>
</g>
</g>
<!-- Node2&#45;&gt;Node7 -->
<g id="edge6" class="edge">
<title>Node2&#45;&gt;Node7</title>
<path fill="none" stroke="midnightblue" d="M186.02,-173.56C206.96,-183.02 240.07,-197.82 269,-210 273.73,-211.99 278.67,-214.03 283.61,-216.05"/>
<polygon fill="midnightblue" stroke="midnightblue" points="282.49,-219.37 293.07,-219.88 285.12,-212.88 282.49,-219.37"/>
</g>
<!-- Node9 -->
<g id="node9" class="node">
<title>Node9</title>
<g id="a_node9"><a xlink:href="classnlohmann_1_1basic__json.html#aef9ce5dd2381caee1f8ddcdb5bdd9c65" target="_top" xlink:title="return whether value is an array">
<polygon fill="white" stroke="black" points="271.5,-171 271.5,-201 393.5,-201 393.5,-171 271.5,-171"/>
<text text-anchor="start" x="279.5" y="-189" font-family="Helvetica,sans-Serif" font-size="10.00">nlohmann::basic_json</text>
<text text-anchor="middle" x="332.5" y="-178" font-family="Helvetica,sans-Serif" font-size="10.00">::is_array</text>
</a>
</g>
</g>
<!-- Node2&#45;&gt;Node9 -->
<g id="edge9" class="edge">
<title>Node2&#45;&gt;Node9</title>
<path fill="none" stroke="midnightblue" d="M233.2,-173.01C242.5,-174.24 252.06,-175.5 261.39,-176.74"/>
<polygon fill="midnightblue" stroke="midnightblue" points="261.03,-180.22 271.41,-178.06 261.95,-173.28 261.03,-180.22"/>
</g>
<!-- Node10 -->
<g id="node10" class="node">
<title>Node10</title>
<g id="a_node10"><a xlink:href="namespacenlohmann.html#ad675d1c22f5240b2b3065c241b204477" target="_top" xlink:title="user&#45;defined to_string function for JSON values">
<polygon fill="white" stroke="black" points="275.5,-132.5 275.5,-151.5 389.5,-151.5 389.5,-132.5 275.5,-132.5"/>
<text text-anchor="middle" x="332.5" y="-139.5" font-family="Helvetica,sans-Serif" font-size="10.00">nlohmann::to_string</text>
</a>
</g>
</g>
<!-- Node2&#45;&gt;Node10 -->
<g id="edge10" class="edge">
<title>Node2&#45;&gt;Node10</title>
<path fill="none" stroke="midnightblue" d="M233.2,-154.99C243.82,-153.59 254.77,-152.14 265.34,-150.74"/>
<polygon fill="midnightblue" stroke="midnightblue" points="265.88,-154.2 275.34,-149.42 264.97,-147.26 265.88,-154.2"/>
</g>
<!-- Node11 -->
<g id="node11" class="node">
<title>Node11</title>
<g id="a_node11"><a xlink:href="classnlohmann_1_1basic__json.html#ad14563c53cf7ca9189bc164082367bf3" target="_top" xlink:title="return the type as string">
<polygon fill="white" stroke="black" points="271.5,-83 271.5,-113 393.5,-113 393.5,-83 271.5,-83"/>
<text text-anchor="start" x="279.5" y="-101" font-family="Helvetica,sans-Serif" font-size="10.00">nlohmann::basic_json</text>
<text text-anchor="middle" x="332.5" y="-90" font-family="Helvetica,sans-Serif" font-size="10.00">::type_name</text>
</a>
</g>
</g>
<!-- Node2&#45;&gt;Node11 -->
<g id="edge11" class="edge">
<title>Node2&#45;&gt;Node11</title>
<path fill="none" stroke="midnightblue" d="M189.21,-154.4C213.98,-144.59 253.11,-129.08 284.07,-116.8"/>
<polygon fill="midnightblue" stroke="midnightblue" points="285.38,-120.05 293.39,-113.11 282.8,-113.54 285.38,-120.05"/>
</g>
<!-- Node4 -->
<g id="node4" class="node">
<title>Node4</title>
<g id="a_node4"><a xlink:href="classnlohmann_1_1detail_1_1exception.html#abf41a7e9178356314082284e6cfea278" target="_top" xlink:title=" ">
<polygon fill="white" stroke="black" points="432,-245 432,-275 585,-275 585,-245 432,-245"/>
<text text-anchor="start" x="440" y="-263" font-family="Helvetica,sans-Serif" font-size="10.00">nlohmann::detail::exception</text>
<text text-anchor="middle" x="508.5" y="-252" font-family="Helvetica,sans-Serif" font-size="10.00">::name</text>
</a>
</g>
</g>
<!-- Node3&#45;&gt;Node4 -->
<g id="edge3" class="edge">
<title>Node3&#45;&gt;Node4</title>
<path fill="none" stroke="midnightblue" d="M396.32,-275.34C404.57,-274.2 413.15,-273.01 421.7,-271.83"/>
<polygon fill="midnightblue" stroke="midnightblue" points="422.29,-275.29 431.72,-270.45 421.33,-268.35 422.29,-275.29"/>
</g>
<!-- Node6 -->
<g id="node6" class="node">
<title>Node6</title>
<g id="a_node6"><a xlink:href="classnlohmann_1_1detail_1_1type__error.html#aa01edaa0bf18b853368f0b900e485cd7" target="_top" xlink:title=" ">
<polygon fill="white" stroke="black" points="445,-294 445,-324 572,-324 572,-294 445,-294"/>
<text text-anchor="start" x="453" y="-312" font-family="Helvetica,sans-Serif" font-size="10.00">nlohmann::detail::type</text>
<text text-anchor="middle" x="508.5" y="-301" font-family="Helvetica,sans-Serif" font-size="10.00">_error::type_error</text>
</a>
</g>
</g>
<!-- Node3&#45;&gt;Node6 -->
<g id="edge5" class="edge">
<title>Node3&#45;&gt;Node6</title>
<path fill="none" stroke="midnightblue" d="M396.32,-293.03C408.76,-294.81 421.92,-296.7 434.67,-298.54"/>
<polygon fill="midnightblue" stroke="midnightblue" points="434.38,-302.03 444.77,-299.99 435.37,-295.1 434.38,-302.03"/>
</g>
<!-- Node5 -->
<g id="node5" class="node">
<title>Node5</title>
<g id="a_node5"><a xlink:href="namespacehttplib.html#a498c3a79825ecbcb15c52ec5fcfd5c11" target="_top" xlink:title=" ">
<polygon fill="white" stroke="black" points="621,-250.5 621,-269.5 718,-269.5 718,-250.5 621,-250.5"/>
<text text-anchor="middle" x="669.5" y="-257.5" font-family="Helvetica,sans-Serif" font-size="10.00">httplib::to_string</text>
</a>
</g>
</g>
<!-- Node4&#45;&gt;Node5 -->
<g id="edge4" class="edge">
<title>Node4&#45;&gt;Node5</title>
<path fill="none" stroke="midnightblue" d="M585.27,-260C593.82,-260 602.43,-260 610.7,-260"/>
<polygon fill="midnightblue" stroke="midnightblue" points="610.96,-263.5 620.96,-260 610.96,-256.5 610.96,-263.5"/>
</g>
<!-- Node7&#45;&gt;Node4 -->
<g id="edge7" class="edge">
<title>Node7&#45;&gt;Node4</title>
<path fill="none" stroke="midnightblue" d="M393.38,-243.6C402.57,-244.92 412.22,-246.31 421.84,-247.69"/>
<polygon fill="midnightblue" stroke="midnightblue" points="421.44,-251.17 431.83,-249.13 422.43,-244.24 421.44,-251.17"/>
</g>
<!-- Node8 -->
<g id="node8" class="node">
<title>Node8</title>
<g id="a_node8"><a xlink:href="classnlohmann_1_1detail_1_1out__of__range.html#ab5fe402019dba957558499502f0fd731" target="_top" xlink:title=" ">
<polygon fill="white" stroke="black" points="441.5,-196 441.5,-226 575.5,-226 575.5,-196 441.5,-196"/>
<text text-anchor="start" x="449.5" y="-214" font-family="Helvetica,sans-Serif" font-size="10.00">nlohmann::detail::out</text>
<text text-anchor="middle" x="508.5" y="-203" font-family="Helvetica,sans-Serif" font-size="10.00">_of_range::out_of_range</text>
</a>
</g>
</g>
<!-- Node7&#45;&gt;Node8 -->
<g id="edge8" class="edge">
<title>Node7&#45;&gt;Node8</title>
<path fill="none" stroke="midnightblue" d="M393.38,-226.74C405.56,-225.06 418.53,-223.27 431.18,-221.53"/>
<polygon fill="midnightblue" stroke="midnightblue" points="431.82,-224.97 441.25,-220.14 430.87,-218.04 431.82,-224.97"/>
</g>
<!-- Node14 -->
<g id="node14" class="node">
<title>Node14</title>
<g id="a_node14"><a xlink:href="classnlohmann_1_1basic__json.html#af8f511af124e82e4579f444b4175787c" target="_top" xlink:title="return whether value is an object">
<polygon fill="white" stroke="black" points="271.5,-34 271.5,-64 393.5,-64 393.5,-34 271.5,-34"/>
<text text-anchor="start" x="279.5" y="-52" font-family="Helvetica,sans-Serif" font-size="10.00">nlohmann::basic_json</text>
<text text-anchor="middle" x="332.5" y="-41" font-family="Helvetica,sans-Serif" font-size="10.00">::is_object</text>
</a>
</g>
</g>
<!-- Node13&#45;&gt;Node14 -->
<g id="edge14" class="edge">
<title>Node13&#45;&gt;Node14</title>
<path fill="none" stroke="midnightblue" d="M225.11,-52.19C236.9,-51.84 249.36,-51.47 261.44,-51.1"/>
<polygon fill="midnightblue" stroke="midnightblue" points="261.59,-54.6 271.48,-50.8 261.38,-47.6 261.59,-54.6"/>
</g>
</g>
</svg>
        <g id="navigator" transform="translate(0 0)" fill="#404254">
                <rect fill="#f2f5e9" fill-opacity="0.5" stroke="#606060" stroke-width=".5" x="0" y="0" width="60" height="60"/>
                <use id="zoomplus" xlink:href="#zoomPlus" x="17" y="9" onmousedown="handleZoom(evt,'in')"/>
                <use id="zoomminus" xlink:href="#zoomMin" x="42" y="9" onmousedown="handleZoom(evt,'out')"/>
                <use id="reset" xlink:href="#resetDef" x="30" y="36" onmousedown="handleReset()"/>
                <g id="arrowUp" xlink:href="#dirArrow" transform="translate(30 24)" onmousedown="handlePan(0,-1)">
                  <use xlink:href="#rim" fill="#404040">
                        <set attributeName="fill" to="#808080" begin="arrowUp.mouseover" end="arrowUp.mouseout"/>
                  </use>
                  <path fill="none" stroke="white" stroke-width="1.5" d="M0,-3.0v7 M-2.5,-0.5L0,-3.0L2.5,-0.5"/>
                </g>
                <g id="arrowRight" xlink:href="#dirArrow" transform="rotate(90) translate(36 -43)" onmousedown="handlePan(1,0)">
                  <use xlink:href="#rim" fill="#404040">
                        <set attributeName="fill" to="#808080" begin="arrowRight.mouseover" end="arrowRight.mouseout"/>
                  </use>
                  <path fill="none" stroke="white" stroke-width="1.5" d="M0,-3.0v7 M-2.5,-0.5L0,-3.0L2.5,-0.5"/>
                </g>
                <g id="arrowDown" xlink:href="#dirArrow" transform="rotate(180) translate(-30 -48)" onmousedown="handlePan(0,1)">
                  <use xlink:href="#rim" fill="#404040">
                        <set attributeName="fill" to="#808080" begin="arrowDown.mouseover" end="arrowDown.mouseout"/>
                  </use>
                  <path fill="none" stroke="white" stroke-width="1.5" d="M0,-3.0v7 M-2.5,-0.5L0,-3.0L2.5,-0.5"/>
                </g>
                <g id="arrowLeft" xlink:href="#dirArrow" transform="rotate(270) translate(-36 17)" onmousedown="handlePan(-1,0)">
                  <use xlink:href="#rim" fill="#404040">
                        <set attributeName="fill" to="#808080" begin="arrowLeft.mouseover" end="arrowLeft.mouseout"/>
                  </use>
                  <path fill="none" stroke="white" stroke-width="1.5" d="M0,-3.0v7 M-2.5,-0.5L0,-3.0L2.5,-0.5"/>
                </g>
        </g>
        <svg viewBox="0 0 15 15" width="100%" height="30px" preserveAspectRatio="xMaxYMin meet">
         <g id="arrow_out" transform="scale(0.3 0.3)">
          <a xlink:href="unit-json__pointer_8cpp_a2cdca18b19a9ef7222b082a3723b5454_cgraph_org.svg" target="_base">
           <rect id="button" ry="5" rx="5" y="6" x="6" height="38" width="38"
                fill="#f2f5e9" fill-opacity="0.5" stroke="#606060" stroke-width="1.0"/>
           <path id="arrow"
             d="M 11.500037,31.436501 C 11.940474,20.09759 22.043105,11.32322 32.158766,21.979434 L 37.068811,17.246167 C 37.068811,17.246167 37.088388,32 37.088388,32 L 22.160133,31.978069 C 22.160133,31.978069 26.997745,27.140456 26.997745,27.140456 C 18.528582,18.264221 13.291696,25.230495 11.500037,31.436501 z"
             style="fill:#404040;"/>
          </a>
         </g>
        </svg>
</svg>
