<?xml version="1.0" encoding="UTF-8" standalone="no"?>
<!DOCTYPE svg PUBLIC "-//W3C//DTD SVG 1.1//EN"
 "http://www.w3.org/Graphics/SVG/1.1/DTD/svg11.dtd">
<!-- Generated by graphviz version 2.43.0 (0)
 -->
<!-- Title: SECTION Pages: 1 -->
<svg width="174pt" height="66pt"
 viewBox="0.00 0.00 174.00 66.00" xmlns="http://www.w3.org/2000/svg" xmlns:xlink="http://www.w3.org/1999/xlink">
<g id="graph0" class="graph" transform="scale(1 1) rotate(0) translate(4 62)">
<title>SECTION</title>
<polygon fill="white" stroke="transparent" points="-4,4 -4,-62 170,-62 170,4 -4,4"/>
<!-- Node1 -->
<g id="node1" class="node">
<title>Node1</title>
<g id="a_node1"><a xlink:title=" ">
<polygon fill="#bfbfbf" stroke="black" points="107,-19.5 107,-38.5 166,-38.5 166,-19.5 107,-19.5"/>
<text text-anchor="middle" x="136.5" y="-26.5" font-family="Helvetica,sans-Serif" font-size="10.00">SECTION</text>
</a>
</g>
</g>
<!-- Node2 -->
<g id="node2" class="node">
<title>Node2</title>
<g id="a_node2"><a xlink:href="unit-regression_8cpp.html#a80481571a808a2ffb4ea83bcd270af3a" target="_top" xlink:title=" ">
<polygon fill="white" stroke="black" points="6,-38.5 6,-57.5 65,-57.5 65,-38.5 6,-38.5"/>
<text text-anchor="middle" x="35.5" y="-45.5" font-family="Helvetica,sans-Serif" font-size="10.00">SECTION</text>
</a>
</g>
</g>
<!-- Node1&#45;&gt;Node2 -->
<g id="edge1" class="edge">
<title>Node1&#45;&gt;Node2</title>
<path fill="none" stroke="midnightblue" d="M96.97,-36.39C86.35,-38.43 75.02,-40.61 65.07,-42.52"/>
<polygon fill="midnightblue" stroke="midnightblue" points="97.7,-39.82 106.87,-34.5 96.38,-32.94 97.7,-39.82"/>
</g>
<!-- Node3 -->
<g id="node3" class="node">
<title>Node3</title>
<g id="a_node3"><a xlink:href="unit-regression_8cpp.html#aee0ec80cfa80ab077040f2a145e93c08" target="_top" xlink:title=" ">
<polygon fill="white" stroke="black" points="0,-0.5 0,-19.5 71,-19.5 71,-0.5 0,-0.5"/>
<text text-anchor="middle" x="35.5" y="-7.5" font-family="Helvetica,sans-Serif" font-size="10.00">TEST_CASE</text>
</a>
</g>
</g>
<!-- Node1&#45;&gt;Node3 -->
<g id="edge2" class="edge">
<title>Node1&#45;&gt;Node3</title>
<path fill="none" stroke="midnightblue" d="M96.79,-21.57C88.3,-19.94 79.35,-18.22 71.03,-16.63"/>
<polygon fill="midnightblue" stroke="midnightblue" points="96.38,-25.06 106.87,-23.5 97.7,-18.18 96.38,-25.06"/>
</g>
</g>
</svg>
