<?xml version="1.0" encoding="UTF-8" standalone="no"?>
<!DOCTYPE svg PUBLIC "-//W3C//DTD SVG 1.1//EN"
 "http://www.w3.org/Graphics/SVG/1.1/DTD/svg11.dtd">
<!-- Generated by graphviz version 2.43.0 (0)
 -->
<!-- Title: TEST_CASE Pages: 1 -->
<svg width="899pt" height="372pt"
 viewBox="0.00 0.00 899.00 371.50" xmlns="http://www.w3.org/2000/svg" xmlns:xlink="http://www.w3.org/1999/xlink">
<g id="graph0" class="graph" transform="scale(1 1) rotate(0) translate(4 367.5)">
<title>TEST_CASE</title>
<polygon fill="white" stroke="transparent" points="-4,4 -4,-367.5 895,-367.5 895,4 -4,4"/>
<!-- Node1 -->
<g id="node1" class="node">
<title>Node1</title>
<g id="a_node1"><a xlink:title=" ">
<polygon fill="#bfbfbf" stroke="black" points="0,-177 0,-196 71,-196 71,-177 0,-177"/>
<text text-anchor="middle" x="35.5" y="-184" font-family="Helvetica,sans-Serif" font-size="10.00">TEST_CASE</text>
</a>
</g>
</g>
<!-- Node2 -->
<g id="node2" class="node">
<title>Node2</title>
<g id="a_node2"><a xlink:href="classnlohmann_1_1basic__json.html#a7c43ed2a3004c1fa9543913f37b9fca9" target="_top" xlink:title="applies a JSON Merge Patch">
<polygon fill="white" stroke="black" points="107,-171.5 107,-201.5 229,-201.5 229,-171.5 107,-171.5"/>
<text text-anchor="start" x="115" y="-189.5" font-family="Helvetica,sans-Serif" font-size="10.00">nlohmann::basic_json</text>
<text text-anchor="middle" x="168" y="-178.5" font-family="Helvetica,sans-Serif" font-size="10.00">::merge_patch</text>
</a>
</g>
</g>
<!-- Node1&#45;&gt;Node2 -->
<g id="edge1" class="edge">
<title>Node1&#45;&gt;Node2</title>
<path fill="none" stroke="midnightblue" d="M71.13,-186.5C79.14,-186.5 87.95,-186.5 96.87,-186.5"/>
<polygon fill="midnightblue" stroke="midnightblue" points="96.97,-190 106.97,-186.5 96.97,-183 96.97,-190"/>
</g>
<!-- Node2&#45;&gt;Node2 -->
<g id="edge18" class="edge">
<title>Node2&#45;&gt;Node2</title>
<path fill="none" stroke="midnightblue" d="M145,-201.66C139.45,-211.06 147.12,-220 168,-220 180.73,-220 188.54,-216.68 191.45,-211.96"/>
<polygon fill="midnightblue" stroke="midnightblue" points="194.94,-211.5 191,-201.66 187.94,-211.8 194.94,-211.5"/>
</g>
<!-- Node3 -->
<g id="node3" class="node">
<title>Node3</title>
<g id="a_node3"><a xlink:href="classnlohmann_1_1basic__json.html#a0ff28dac23f2bdecee9564d07f51dcdc" target="_top" xlink:title="returns an iterator to the first element">
<polygon fill="white" stroke="black" points="265,-284.5 265,-314.5 387,-314.5 387,-284.5 265,-284.5"/>
<text text-anchor="start" x="273" y="-302.5" font-family="Helvetica,sans-Serif" font-size="10.00">nlohmann::basic_json</text>
<text text-anchor="middle" x="326" y="-291.5" font-family="Helvetica,sans-Serif" font-size="10.00">::begin</text>
</a>
</g>
</g>
<!-- Node2&#45;&gt;Node3 -->
<g id="edge2" class="edge">
<title>Node2&#45;&gt;Node3</title>
<path fill="none" stroke="midnightblue" d="M183.99,-201.58C202.11,-219.28 234.02,-248.84 265,-269.5 270.34,-273.06 276.16,-276.48 282.01,-279.65"/>
<polygon fill="midnightblue" stroke="midnightblue" points="280.68,-282.9 291.16,-284.42 283.91,-276.7 280.68,-282.9"/>
</g>
<!-- Node4 -->
<g id="node4" class="node">
<title>Node4</title>
<g id="a_node4"><a xlink:href="classnlohmann_1_1basic__json.html#a13e032a02a7fd8a93fdddc2fcbc4763c" target="_top" xlink:title="returns an iterator to one past the last element">
<polygon fill="white" stroke="black" points="423,-344 423,-363 569,-363 569,-344 423,-344"/>
<text text-anchor="middle" x="496" y="-351" font-family="Helvetica,sans-Serif" font-size="10.00">nlohmann::basic_json::end</text>
</a>
</g>
</g>
<!-- Node2&#45;&gt;Node4 -->
<g id="edge3" class="edge">
<title>Node2&#45;&gt;Node4</title>
<path fill="none" stroke="midnightblue" d="M195.76,-201.64C214.71,-212 240.95,-225.6 265,-235.5 317.64,-257.18 342.38,-239.16 387,-274.5 411.38,-293.81 398.13,-315.82 423,-334.5 425.5,-336.38 428.18,-338.07 430.97,-339.6"/>
<polygon fill="midnightblue" stroke="midnightblue" points="429.67,-342.86 440.21,-343.93 432.64,-336.52 429.67,-342.86"/>
</g>
<!-- Node5 -->
<g id="node5" class="node">
<title>Node5</title>
<g id="a_node5"><a xlink:href="classnlohmann_1_1basic__json.html#a068a16e76be178e83da6a192916923ed" target="_top" xlink:title="remove element given an iterator">
<polygon fill="white" stroke="black" points="265,-196.5 265,-226.5 387,-226.5 387,-196.5 265,-196.5"/>
<text text-anchor="start" x="273" y="-214.5" font-family="Helvetica,sans-Serif" font-size="10.00">nlohmann::basic_json</text>
<text text-anchor="middle" x="326" y="-203.5" font-family="Helvetica,sans-Serif" font-size="10.00">::erase</text>
</a>
</g>
</g>
<!-- Node2&#45;&gt;Node5 -->
<g id="edge4" class="edge">
<title>Node2&#45;&gt;Node5</title>
<path fill="none" stroke="midnightblue" d="M229.31,-196.17C237.69,-197.51 246.36,-198.9 254.9,-200.27"/>
<polygon fill="midnightblue" stroke="midnightblue" points="254.42,-203.73 264.85,-201.86 255.53,-196.82 254.42,-203.73"/>
</g>
<!-- Node16 -->
<g id="node16" class="node">
<title>Node16</title>
<g id="a_node16"><a xlink:href="classnlohmann_1_1basic__json.html#af8f511af124e82e4579f444b4175787c" target="_top" xlink:title="return whether value is an object">
<polygon fill="white" stroke="black" points="265,-98.5 265,-128.5 387,-128.5 387,-98.5 265,-98.5"/>
<text text-anchor="start" x="273" y="-116.5" font-family="Helvetica,sans-Serif" font-size="10.00">nlohmann::basic_json</text>
<text text-anchor="middle" x="326" y="-105.5" font-family="Helvetica,sans-Serif" font-size="10.00">::is_object</text>
</a>
</g>
</g>
<!-- Node2&#45;&gt;Node16 -->
<g id="edge17" class="edge">
<title>Node2&#45;&gt;Node16</title>
<path fill="none" stroke="midnightblue" d="M196.81,-171.45C215.81,-161.39 241.66,-148.1 265,-137.5 268.63,-135.85 272.41,-134.2 276.23,-132.57"/>
<polygon fill="midnightblue" stroke="midnightblue" points="277.85,-135.69 285.73,-128.61 275.15,-129.23 277.85,-135.69"/>
</g>
<!-- Node17 -->
<g id="node17" class="node">
<title>Node17</title>
<g id="a_node17"><a xlink:href="classnlohmann_1_1basic__json.html#a31f84ee15c4690ff705bed74736d04c6" target="_top" xlink:title="explicitly create an object from an initializer list">
<polygon fill="white" stroke="black" points="265,-49.5 265,-79.5 387,-79.5 387,-49.5 265,-49.5"/>
<text text-anchor="start" x="273" y="-67.5" font-family="Helvetica,sans-Serif" font-size="10.00">nlohmann::basic_json</text>
<text text-anchor="middle" x="326" y="-56.5" font-family="Helvetica,sans-Serif" font-size="10.00">::object</text>
</a>
</g>
</g>
<!-- Node2&#45;&gt;Node17 -->
<g id="edge19" class="edge">
<title>Node2&#45;&gt;Node17</title>
<path fill="none" stroke="midnightblue" d="M180.48,-171.3C197.09,-150.21 229.73,-112.02 265,-88.5 267.16,-87.06 269.43,-85.68 271.76,-84.36"/>
<polygon fill="midnightblue" stroke="midnightblue" points="273.69,-87.3 280.98,-79.62 270.49,-81.08 273.69,-87.3"/>
</g>
<!-- Node18 -->
<g id="node18" class="node">
<title>Node18</title>
<g id="a_node18"><a xlink:href="classnlohmann_1_1basic__json.html#ac871e3b03fb2eeca9a8de4db2bea760f" target="_top" xlink:title="access specified array element">
<polygon fill="white" stroke="black" points="265,-147.5 265,-177.5 387,-177.5 387,-147.5 265,-147.5"/>
<text text-anchor="start" x="273" y="-165.5" font-family="Helvetica,sans-Serif" font-size="10.00">nlohmann::basic_json</text>
<text text-anchor="middle" x="326" y="-154.5" font-family="Helvetica,sans-Serif" font-size="10.00">::operator[]</text>
</a>
</g>
</g>
<!-- Node2&#45;&gt;Node18 -->
<g id="edge20" class="edge">
<title>Node2&#45;&gt;Node18</title>
<path fill="none" stroke="midnightblue" d="M229.31,-177.22C237.69,-175.93 246.36,-174.6 254.9,-173.28"/>
<polygon fill="midnightblue" stroke="midnightblue" points="255.5,-176.73 264.85,-171.75 254.43,-169.82 255.5,-176.73"/>
</g>
<!-- Node5&#45;&gt;Node4 -->
<g id="edge14" class="edge">
<title>Node5&#45;&gt;Node4</title>
<path fill="none" stroke="midnightblue" d="M367.62,-226.62C374.74,-230.64 381.59,-235.56 387,-241.5 416.83,-274.28 389.96,-304.95 423,-334.5 424.76,-336.08 426.64,-337.52 428.61,-338.85"/>
<polygon fill="midnightblue" stroke="midnightblue" points="427.29,-342.13 437.73,-343.96 430.71,-336.02 427.29,-342.13"/>
</g>
<!-- Node6 -->
<g id="node6" class="node">
<title>Node6</title>
<g id="a_node6"><a xlink:href="classnlohmann_1_1basic__json.html#a4a82d3fb7a111641decf35c2fb707c7f" target="_top" xlink:title="checks the class invariants">
<polygon fill="white" stroke="black" points="435,-98.5 435,-128.5 557,-128.5 557,-98.5 435,-98.5"/>
<text text-anchor="start" x="443" y="-116.5" font-family="Helvetica,sans-Serif" font-size="10.00">nlohmann::basic_json</text>
<text text-anchor="middle" x="496" y="-105.5" font-family="Helvetica,sans-Serif" font-size="10.00">::assert_invariant</text>
</a>
</g>
</g>
<!-- Node5&#45;&gt;Node6 -->
<g id="edge5" class="edge">
<title>Node5&#45;&gt;Node6</title>
<path fill="none" stroke="midnightblue" d="M371.17,-196.4C376.77,-193.55 382.21,-190.26 387,-186.5 408.25,-169.8 401.16,-153.41 423,-137.5 425.05,-136.01 427.2,-134.6 429.42,-133.28"/>
<polygon fill="midnightblue" stroke="midnightblue" points="431.08,-136.36 438.29,-128.59 427.81,-130.17 431.08,-136.36"/>
</g>
<!-- Node8 -->
<g id="node8" class="node">
<title>Node8</title>
<g id="a_node8"><a xlink:href="classnlohmann_1_1detail_1_1invalid__iterator.html#a4e849260a3caa1b288c7e619130c6c09" target="_top" xlink:title=" ">
<polygon fill="white" stroke="black" points="427,-294.5 427,-324.5 565,-324.5 565,-294.5 427,-294.5"/>
<text text-anchor="start" x="435" y="-312.5" font-family="Helvetica,sans-Serif" font-size="10.00">nlohmann::detail::invalid</text>
<text text-anchor="middle" x="496" y="-301.5" font-family="Helvetica,sans-Serif" font-size="10.00">_iterator::create</text>
</a>
</g>
</g>
<!-- Node5&#45;&gt;Node8 -->
<g id="edge7" class="edge">
<title>Node5&#45;&gt;Node8</title>
<path fill="none" stroke="midnightblue" d="M363.03,-226.51C371.3,-230.76 379.78,-235.8 387,-241.5 406.56,-256.95 402.49,-270.34 423,-284.5 425.86,-286.48 428.9,-288.31 432.04,-290.01"/>
<polygon fill="midnightblue" stroke="midnightblue" points="430.6,-293.2 441.12,-294.45 433.68,-286.91 430.6,-293.2"/>
</g>
<!-- Node12 -->
<g id="node12" class="node">
<title>Node12</title>
<g id="a_node12"><a xlink:href="classnlohmann_1_1detail_1_1type__error.html#aecc083aea4b698c33d042670ba50c10f" target="_top" xlink:title=" ">
<polygon fill="white" stroke="black" points="432.5,-196.5 432.5,-226.5 559.5,-226.5 559.5,-196.5 432.5,-196.5"/>
<text text-anchor="start" x="440.5" y="-214.5" font-family="Helvetica,sans-Serif" font-size="10.00">nlohmann::detail::type</text>
<text text-anchor="middle" x="496" y="-203.5" font-family="Helvetica,sans-Serif" font-size="10.00">_error::create</text>
</a>
</g>
</g>
<!-- Node5&#45;&gt;Node12 -->
<g id="edge11" class="edge">
<title>Node5&#45;&gt;Node12</title>
<path fill="none" stroke="midnightblue" d="M387.18,-211.5C398.54,-211.5 410.53,-211.5 422.23,-211.5"/>
<polygon fill="midnightblue" stroke="midnightblue" points="422.41,-215 432.41,-211.5 422.41,-208 422.41,-215"/>
</g>
<!-- Node14 -->
<g id="node14" class="node">
<title>Node14</title>
<g id="a_node14"><a xlink:href="classnlohmann_1_1basic__json.html#a69b596a4a6683b362095c9a139637396" target="_top" xlink:title="return whether value is a string">
<polygon fill="white" stroke="black" points="435,-245.5 435,-275.5 557,-275.5 557,-245.5 435,-245.5"/>
<text text-anchor="start" x="443" y="-263.5" font-family="Helvetica,sans-Serif" font-size="10.00">nlohmann::basic_json</text>
<text text-anchor="middle" x="496" y="-252.5" font-family="Helvetica,sans-Serif" font-size="10.00">::is_string</text>
</a>
</g>
</g>
<!-- Node5&#45;&gt;Node14 -->
<g id="edge15" class="edge">
<title>Node5&#45;&gt;Node14</title>
<path fill="none" stroke="midnightblue" d="M378.78,-226.6C396.1,-231.66 415.59,-237.34 433.58,-242.58"/>
<polygon fill="midnightblue" stroke="midnightblue" points="432.81,-246.01 443.39,-245.45 434.77,-239.29 432.81,-246.01"/>
</g>
<!-- Node15 -->
<g id="node15" class="node">
<title>Node15</title>
<g id="a_node15"><a xlink:href="classnlohmann_1_1basic__json.html#ad14563c53cf7ca9189bc164082367bf3" target="_top" xlink:title="return the type as string">
<polygon fill="white" stroke="black" points="435,-147.5 435,-177.5 557,-177.5 557,-147.5 435,-147.5"/>
<text text-anchor="start" x="443" y="-165.5" font-family="Helvetica,sans-Serif" font-size="10.00">nlohmann::basic_json</text>
<text text-anchor="middle" x="496" y="-154.5" font-family="Helvetica,sans-Serif" font-size="10.00">::type_name</text>
</a>
</g>
</g>
<!-- Node5&#45;&gt;Node15 -->
<g id="edge16" class="edge">
<title>Node5&#45;&gt;Node15</title>
<path fill="none" stroke="midnightblue" d="M378.78,-196.4C396.1,-191.34 415.59,-185.66 433.58,-180.42"/>
<polygon fill="midnightblue" stroke="midnightblue" points="434.77,-183.71 443.39,-177.55 432.81,-176.99 434.77,-183.71"/>
</g>
<!-- Node7 -->
<g id="node7" class="node">
<title>Node7</title>
<g id="a_node7"><a xlink:href="FuzzerTracePC_8cpp.html#a1f10ac78bd11294b612636121065eb5b" target="_top" xlink:title=" ">
<polygon fill="white" stroke="black" points="658,-104 658,-123 705,-123 705,-104 658,-104"/>
<text text-anchor="middle" x="681.5" y="-111" font-family="Helvetica,sans-Serif" font-size="10.00">assert</text>
</a>
</g>
</g>
<!-- Node6&#45;&gt;Node7 -->
<g id="edge6" class="edge">
<title>Node6&#45;&gt;Node7</title>
<path fill="none" stroke="midnightblue" d="M557.08,-113.5C587.27,-113.5 622.66,-113.5 647.78,-113.5"/>
<polygon fill="midnightblue" stroke="midnightblue" points="647.88,-117 657.88,-113.5 647.88,-110 647.88,-117"/>
</g>
<!-- Node9 -->
<g id="node9" class="node">
<title>Node9</title>
<g id="a_node9"><a xlink:href="classnlohmann_1_1detail_1_1invalid__iterator.html#adf4a6697420f3bddb4addfc0b98f6ee2" target="_top" xlink:title=" ">
<polygon fill="white" stroke="black" points="612.5,-294.5 612.5,-324.5 750.5,-324.5 750.5,-294.5 612.5,-294.5"/>
<text text-anchor="start" x="620.5" y="-312.5" font-family="Helvetica,sans-Serif" font-size="10.00">nlohmann::detail::invalid</text>
<text text-anchor="middle" x="681.5" y="-301.5" font-family="Helvetica,sans-Serif" font-size="10.00">_iterator::invalid_iterator</text>
</a>
</g>
</g>
<!-- Node8&#45;&gt;Node9 -->
<g id="edge8" class="edge">
<title>Node8&#45;&gt;Node9</title>
<path fill="none" stroke="midnightblue" d="M565.07,-309.5C577.1,-309.5 589.72,-309.5 602.01,-309.5"/>
<polygon fill="midnightblue" stroke="midnightblue" points="602.24,-313 612.24,-309.5 602.24,-306 602.24,-313"/>
</g>
<!-- Node10 -->
<g id="node10" class="node">
<title>Node10</title>
<g id="a_node10"><a xlink:href="classnlohmann_1_1detail_1_1exception.html#abf41a7e9178356314082284e6cfea278" target="_top" xlink:title=" ">
<polygon fill="white" stroke="black" points="605,-245.5 605,-275.5 758,-275.5 758,-245.5 605,-245.5"/>
<text text-anchor="start" x="613" y="-263.5" font-family="Helvetica,sans-Serif" font-size="10.00">nlohmann::detail::exception</text>
<text text-anchor="middle" x="681.5" y="-252.5" font-family="Helvetica,sans-Serif" font-size="10.00">::name</text>
</a>
</g>
</g>
<!-- Node8&#45;&gt;Node10 -->
<g id="edge9" class="edge">
<title>Node8&#45;&gt;Node10</title>
<path fill="none" stroke="midnightblue" d="M553.3,-294.47C572.68,-289.29 594.55,-283.45 614.61,-278.09"/>
<polygon fill="midnightblue" stroke="midnightblue" points="615.54,-281.47 624.3,-275.51 613.74,-274.7 615.54,-281.47"/>
</g>
<!-- Node11 -->
<g id="node11" class="node">
<title>Node11</title>
<g id="a_node11"><a xlink:href="namespacehttplib.html#a498c3a79825ecbcb15c52ec5fcfd5c11" target="_top" xlink:title=" ">
<polygon fill="white" stroke="black" points="794,-251 794,-270 891,-270 891,-251 794,-251"/>
<text text-anchor="middle" x="842.5" y="-258" font-family="Helvetica,sans-Serif" font-size="10.00">httplib::to_string</text>
</a>
</g>
</g>
<!-- Node10&#45;&gt;Node11 -->
<g id="edge10" class="edge">
<title>Node10&#45;&gt;Node11</title>
<path fill="none" stroke="midnightblue" d="M758.27,-260.5C766.82,-260.5 775.43,-260.5 783.7,-260.5"/>
<polygon fill="midnightblue" stroke="midnightblue" points="783.96,-264 793.96,-260.5 783.96,-257 783.96,-264"/>
</g>
<!-- Node12&#45;&gt;Node10 -->
<g id="edge12" class="edge">
<title>Node12&#45;&gt;Node10</title>
<path fill="none" stroke="midnightblue" d="M553.3,-226.53C572.68,-231.71 594.55,-237.55 614.61,-242.91"/>
<polygon fill="midnightblue" stroke="midnightblue" points="613.74,-246.3 624.3,-245.49 615.54,-239.53 613.74,-246.3"/>
</g>
<!-- Node13 -->
<g id="node13" class="node">
<title>Node13</title>
<g id="a_node13"><a xlink:href="classnlohmann_1_1detail_1_1type__error.html#aa01edaa0bf18b853368f0b900e485cd7" target="_top" xlink:title=" ">
<polygon fill="white" stroke="black" points="618,-196.5 618,-226.5 745,-226.5 745,-196.5 618,-196.5"/>
<text text-anchor="start" x="626" y="-214.5" font-family="Helvetica,sans-Serif" font-size="10.00">nlohmann::detail::type</text>
<text text-anchor="middle" x="681.5" y="-203.5" font-family="Helvetica,sans-Serif" font-size="10.00">_error::type_error</text>
</a>
</g>
</g>
<!-- Node12&#45;&gt;Node13 -->
<g id="edge13" class="edge">
<title>Node12&#45;&gt;Node13</title>
<path fill="none" stroke="midnightblue" d="M559.64,-211.5C575.05,-211.5 591.69,-211.5 607.55,-211.5"/>
<polygon fill="midnightblue" stroke="midnightblue" points="607.83,-215 617.83,-211.5 607.83,-208 607.83,-215"/>
</g>
<!-- Node18&#45;&gt;Node6 -->
<g id="edge21" class="edge">
<title>Node18&#45;&gt;Node6</title>
<path fill="none" stroke="midnightblue" d="M378.78,-147.4C396.1,-142.34 415.59,-136.66 433.58,-131.42"/>
<polygon fill="midnightblue" stroke="midnightblue" points="434.77,-134.71 443.39,-128.55 432.81,-127.99 434.77,-134.71"/>
</g>
<!-- Node18&#45;&gt;Node12 -->
<g id="edge22" class="edge">
<title>Node18&#45;&gt;Node12</title>
<path fill="none" stroke="midnightblue" d="M378.78,-177.6C396.1,-182.66 415.59,-188.34 433.58,-193.58"/>
<polygon fill="midnightblue" stroke="midnightblue" points="432.81,-197.01 443.39,-196.45 434.77,-190.29 432.81,-197.01"/>
</g>
<!-- Node18&#45;&gt;Node15 -->
<g id="edge25" class="edge">
<title>Node18&#45;&gt;Node15</title>
<path fill="none" stroke="midnightblue" d="M387.18,-162.5C399.31,-162.5 412.17,-162.5 424.62,-162.5"/>
<polygon fill="midnightblue" stroke="midnightblue" points="424.96,-166 434.96,-162.5 424.96,-159 424.96,-166"/>
</g>
<!-- Node19 -->
<g id="node19" class="node">
<title>Node19</title>
<g id="a_node19"><a xlink:href="classnlohmann_1_1basic__json.html#aef9ce5dd2381caee1f8ddcdb5bdd9c65" target="_top" xlink:title="return whether value is an array">
<polygon fill="white" stroke="black" points="435,-49.5 435,-79.5 557,-79.5 557,-49.5 435,-49.5"/>
<text text-anchor="start" x="443" y="-67.5" font-family="Helvetica,sans-Serif" font-size="10.00">nlohmann::basic_json</text>
<text text-anchor="middle" x="496" y="-56.5" font-family="Helvetica,sans-Serif" font-size="10.00">::is_array</text>
</a>
</g>
</g>
<!-- Node18&#45;&gt;Node19 -->
<g id="edge23" class="edge">
<title>Node18&#45;&gt;Node19</title>
<path fill="none" stroke="midnightblue" d="M371.17,-147.4C376.77,-144.55 382.21,-141.26 387,-137.5 408.25,-120.8 401.16,-104.41 423,-88.5 425.05,-87.01 427.2,-85.6 429.42,-84.28"/>
<polygon fill="midnightblue" stroke="midnightblue" points="431.08,-87.36 438.29,-79.59 427.81,-81.17 431.08,-87.36"/>
</g>
<!-- Node20 -->
<g id="node20" class="node">
<title>Node20</title>
<g id="a_node20"><a xlink:href="classnlohmann_1_1basic__json.html#a8faa039ca82427ed29c486ffd00600c3" target="_top" xlink:title="return whether value is null">
<polygon fill="white" stroke="black" points="435,-0.5 435,-30.5 557,-30.5 557,-0.5 435,-0.5"/>
<text text-anchor="start" x="443" y="-18.5" font-family="Helvetica,sans-Serif" font-size="10.00">nlohmann::basic_json</text>
<text text-anchor="middle" x="496" y="-7.5" font-family="Helvetica,sans-Serif" font-size="10.00">::is_null</text>
</a>
</g>
</g>
<!-- Node18&#45;&gt;Node20 -->
<g id="edge24" class="edge">
<title>Node18&#45;&gt;Node20</title>
<path fill="none" stroke="midnightblue" d="M374.34,-147.38C378.99,-144.6 383.33,-141.33 387,-137.5 419.1,-104 389.7,-71.81 423,-39.5 424.09,-38.44 425.24,-37.43 426.42,-36.46"/>
<polygon fill="midnightblue" stroke="midnightblue" points="428.53,-39.25 434.76,-30.69 424.54,-33.5 428.53,-39.25"/>
</g>
</g>
</svg>
