<?xml version="1.0" encoding="UTF-8" standalone="no"?>
<!DOCTYPE svg PUBLIC "-//W3C//DTD SVG 1.1//EN"
 "http://www.w3.org/Graphics/SVG/1.1/DTD/svg11.dtd">
<!-- Generated by graphviz version 2.43.0 (0)
 -->
<!-- Title: SECTION Pages: 1 -->
<!--zoomable 419 -->
<svg id="main" version="1.1" xmlns="http://www.w3.org/2000/svg" xmlns:xlink="http://www.w3.org/1999/xlink" xml:space="preserve" onload="init(evt)">
<style type="text/css"><![CDATA[
.edge:hover path { stroke: red; }
.edge:hover polygon { stroke: red; fill: red; }
]]></style>
<script type="text/javascript"><![CDATA[
var edges = document.getElementsByTagName('g');
if (edges && edges.length) {
  for (var i=0;i<edges.length;i++) {
    if (edges[i].id.substr(0,4)=='edge') {
      edges[i].setAttribute('class','edge');
    }
  }
}
]]></script>
        <defs>
                <circle id="rim" cx="0" cy="0" r="7"/>
                <circle id="rim2" cx="0" cy="0" r="3.5"/>
                <g id="zoomPlus">
                        <use xlink:href="#rim" fill="#404040">
                                <set attributeName="fill" to="#808080" begin="zoomplus.mouseover" end="zoomplus.mouseout"/>
                        </use>
                        <path d="M-4,0h8M0,-4v8" fill="none" stroke="white" stroke-width="1.5" pointer-events="none"/>
                </g>
                <g id="zoomMin">
                        <use xlink:href="#rim" fill="#404040">
                                <set attributeName="fill" to="#808080" begin="zoomminus.mouseover" end="zoomminus.mouseout"/>
                        </use>
                        <path d="M-4,0h8" fill="none" stroke="white" stroke-width="1.5" pointer-events="none"/>
                </g>
                <g id="dirArrow">
                        <path fill="none" stroke="white" stroke-width="1.5" d="M0,-3.0v7 M-2.5,-0.5L0,-3.0L2.5,-0.5"/>
                </g>
               <g id="resetDef">
                       <use xlink:href="#rim2" fill="#404040">
                               <set attributeName="fill" to="#808080" begin="reset.mouseover" end="reset.mouseout"/>
                       </use>
               </g>
        </defs>

<script type="text/javascript">
var viewWidth = 1105;
var viewHeight = 419;
var sectionId = 'dynsection-8';
</script>
<script xlink:href="svgpan.js"/>
<svg id="graph" class="graph">
<g id="viewport">
<title>SECTION</title>
<polygon fill="white" stroke="transparent" points="-4,4 -4,-414.5 1101,-414.5 1101,4 -4,4"/>
<!-- Node1 -->
<g id="node1" class="node">
<title>Node1</title>
<g id="a_node1"><a xlink:title=" ">
<polygon fill="#bfbfbf" stroke="black" points="0,-75.5 0,-94.5 59,-94.5 59,-75.5 0,-75.5"/>
<text text-anchor="middle" x="29.5" y="-82.5" font-family="Helvetica,sans-Serif" font-size="10.00">SECTION</text>
</a>
</g>
</g>
<!-- Node2 -->
<g id="node2" class="node">
<title>Node2</title>
<g id="a_node2"><a xlink:href="unit-regression_8cpp.html#a657491c3ed223102a6fecd3a3944fc62" target="_top" xlink:title=" ">
<polygon fill="white" stroke="black" points="131,-119.5 131,-138.5 181,-138.5 181,-119.5 131,-119.5"/>
<text text-anchor="middle" x="156" y="-126.5" font-family="Helvetica,sans-Serif" font-size="10.00">CHECK</text>
</a>
</g>
</g>
<!-- Node1&#45;&gt;Node2 -->
<g id="edge1" class="edge">
<title>Node1&#45;&gt;Node2</title>
<path fill="none" stroke="midnightblue" d="M55.54,-94.55C67.46,-99.03 81.93,-104.39 95,-109 103.48,-111.99 112.68,-115.12 121.27,-117.98"/>
<polygon fill="midnightblue" stroke="midnightblue" points="120.4,-121.38 130.99,-121.21 122.6,-114.74 120.4,-121.38"/>
</g>
<!-- Node3 -->
<g id="node3" class="node">
<title>Node3</title>
<g id="a_node3"><a xlink:href="classnlohmann_1_1basic__json.html#a50ec80b02d0f3f51130d4abb5d1cfdc5" target="_top" xlink:title="serialization">
<polygon fill="white" stroke="black" points="95,-70 95,-100 217,-100 217,-70 95,-70"/>
<text text-anchor="start" x="103" y="-88" font-family="Helvetica,sans-Serif" font-size="10.00">nlohmann::basic_json</text>
<text text-anchor="middle" x="156" y="-77" font-family="Helvetica,sans-Serif" font-size="10.00">::dump</text>
</a>
</g>
</g>
<!-- Node1&#45;&gt;Node3 -->
<g id="edge2" class="edge">
<title>Node1&#45;&gt;Node3</title>
<path fill="none" stroke="midnightblue" d="M59.06,-85C66.83,-85 75.61,-85 84.61,-85"/>
<polygon fill="midnightblue" stroke="midnightblue" points="84.84,-88.5 94.84,-85 84.84,-81.5 84.84,-88.5"/>
</g>
<!-- Node9 -->
<g id="node9" class="node">
<title>Node9</title>
<g id="a_node9"><a xlink:href="namespacehttplib.html#a498c3a79825ecbcb15c52ec5fcfd5c11" target="_top" xlink:title=" ">
<polygon fill="white" stroke="black" points="1000,-28.5 1000,-47.5 1097,-47.5 1097,-28.5 1000,-28.5"/>
<text text-anchor="middle" x="1048.5" y="-35.5" font-family="Helvetica,sans-Serif" font-size="10.00">httplib::to_string</text>
</a>
</g>
</g>
<!-- Node1&#45;&gt;Node9 -->
<g id="edge20" class="edge">
<title>Node1&#45;&gt;Node9</title>
<path fill="none" stroke="midnightblue" d="M49.73,-75.41C96.15,-53.18 218.56,0 327,0 327,0 327,0 701,0 803.03,0 920.95,-16.48 989.59,-27.74"/>
<polygon fill="midnightblue" stroke="midnightblue" points="989.32,-31.24 999.76,-29.42 990.47,-24.33 989.32,-31.24"/>
</g>
<!-- Node4 -->
<g id="node4" class="node">
<title>Node4</title>
<g id="a_node4"><a xlink:href="classnlohmann_1_1detail_1_1serializer.html#a95460ebd1a535a543e5a0ec52e00f48b" target="_top" xlink:title="internal implementation of the serialization function">
<polygon fill="white" stroke="black" points="253,-133 253,-163 403,-163 403,-133 253,-133"/>
<text text-anchor="start" x="261" y="-151" font-family="Helvetica,sans-Serif" font-size="10.00">nlohmann::detail::serializer</text>
<text text-anchor="middle" x="328" y="-140" font-family="Helvetica,sans-Serif" font-size="10.00">::dump</text>
</a>
</g>
</g>
<!-- Node3&#45;&gt;Node4 -->
<g id="edge3" class="edge">
<title>Node3&#45;&gt;Node4</title>
<path fill="none" stroke="midnightblue" d="M197.72,-100.09C221.5,-108.9 251.69,-120.09 276.92,-129.44"/>
<polygon fill="midnightblue" stroke="midnightblue" points="275.73,-132.73 286.32,-132.92 278.16,-126.17 275.73,-132.73"/>
</g>
<!-- Node5 -->
<g id="node5" class="node">
<title>Node5</title>
<g id="a_node5"><a xlink:href="FuzzerTracePC_8cpp.html#a1f10ac78bd11294b612636121065eb5b" target="_top" xlink:title=" ">
<polygon fill="white" stroke="black" points="864,-297.5 864,-316.5 911,-316.5 911,-297.5 864,-297.5"/>
<text text-anchor="middle" x="887.5" y="-304.5" font-family="Helvetica,sans-Serif" font-size="10.00">assert</text>
</a>
</g>
</g>
<!-- Node4&#45;&gt;Node5 -->
<g id="edge4" class="edge">
<title>Node4&#45;&gt;Node5</title>
<path fill="none" stroke="midnightblue" d="M372.84,-163.14C430.36,-182.76 534.63,-217.47 625,-243 706.89,-266.13 804.55,-288.73 854.14,-299.85"/>
<polygon fill="midnightblue" stroke="midnightblue" points="853.45,-303.29 863.97,-302.05 854.98,-296.45 853.45,-303.29"/>
</g>
<!-- Node6 -->
<g id="node6" class="node">
<title>Node6</title>
<g id="a_node6"><a xlink:href="classnlohmann_1_1detail_1_1serializer.html#ac1f8d1165b44149bd8be397dce68ea05" target="_top" xlink:title="dump escaped string">
<polygon fill="white" stroke="black" points="439,-133 439,-163 589,-163 589,-133 439,-133"/>
<text text-anchor="start" x="447" y="-151" font-family="Helvetica,sans-Serif" font-size="10.00">nlohmann::detail::serializer</text>
<text text-anchor="middle" x="514" y="-140" font-family="Helvetica,sans-Serif" font-size="10.00">::dump_escaped</text>
</a>
</g>
</g>
<!-- Node4&#45;&gt;Node6 -->
<g id="edge5" class="edge">
<title>Node4&#45;&gt;Node6</title>
<path fill="none" stroke="midnightblue" d="M403.04,-148C411.51,-148 420.19,-148 428.78,-148"/>
<polygon fill="midnightblue" stroke="midnightblue" points="428.81,-151.5 438.81,-148 428.81,-144.5 428.81,-151.5"/>
</g>
<!-- Node13 -->
<g id="node13" class="node">
<title>Node13</title>
<g id="a_node13"><a xlink:href="classnlohmann_1_1detail_1_1serializer.html#a6d652a3bfa581cf1cd7790d6d11ea52f" target="_top" xlink:title="dump a floating&#45;point number">
<polygon fill="white" stroke="black" points="439,-84 439,-114 589,-114 589,-84 439,-84"/>
<text text-anchor="start" x="447" y="-102" font-family="Helvetica,sans-Serif" font-size="10.00">nlohmann::detail::serializer</text>
<text text-anchor="middle" x="514" y="-91" font-family="Helvetica,sans-Serif" font-size="10.00">::dump_float</text>
</a>
</g>
</g>
<!-- Node4&#45;&gt;Node13 -->
<g id="edge14" class="edge">
<title>Node4&#45;&gt;Node13</title>
<path fill="none" stroke="midnightblue" d="M385.46,-132.97C404.88,-127.79 426.81,-121.95 446.93,-116.59"/>
<polygon fill="midnightblue" stroke="midnightblue" points="447.89,-119.96 456.65,-114.01 446.09,-113.2 447.89,-119.96"/>
</g>
<!-- Node14 -->
<g id="node14" class="node">
<title>Node14</title>
<g id="a_node14"><a xlink:href="classnlohmann_1_1detail_1_1serializer.html#a944f6dea8dbe2961da145d2f62fa2c2f" target="_top" xlink:title="dump an integer">
<polygon fill="white" stroke="black" points="439,-314 439,-344 589,-344 589,-314 439,-314"/>
<text text-anchor="start" x="447" y="-332" font-family="Helvetica,sans-Serif" font-size="10.00">nlohmann::detail::serializer</text>
<text text-anchor="middle" x="514" y="-321" font-family="Helvetica,sans-Serif" font-size="10.00">::dump_integer</text>
</a>
</g>
</g>
<!-- Node4&#45;&gt;Node14 -->
<g id="edge15" class="edge">
<title>Node4&#45;&gt;Node14</title>
<path fill="none" stroke="midnightblue" d="M340.1,-163.39C358.8,-188.74 398.52,-240.14 439,-277 451.48,-288.36 466.52,-299.35 479.77,-308.27"/>
<polygon fill="midnightblue" stroke="midnightblue" points="477.9,-311.23 488.18,-313.82 481.76,-305.39 477.9,-311.23"/>
</g>
<!-- Node6&#45;&gt;Node5 -->
<g id="edge6" class="edge">
<title>Node6&#45;&gt;Node5</title>
<path fill="none" stroke="midnightblue" d="M569.78,-132.98C624.95,-121.03 710.87,-111.29 775,-145 833.06,-175.52 866.78,-251.48 879.98,-287.48"/>
<polygon fill="midnightblue" stroke="midnightblue" points="876.81,-289 883.43,-297.27 883.41,-286.68 876.81,-289"/>
</g>
<!-- Node7 -->
<g id="node7" class="node">
<title>Node7</title>
<g id="a_node7"><a xlink:href="classnlohmann_1_1detail_1_1type__error.html#aecc083aea4b698c33d042670ba50c10f" target="_top" xlink:title=" ">
<polygon fill="white" stroke="black" points="636.5,-67 636.5,-97 763.5,-97 763.5,-67 636.5,-67"/>
<text text-anchor="start" x="644.5" y="-85" font-family="Helvetica,sans-Serif" font-size="10.00">nlohmann::detail::type</text>
<text text-anchor="middle" x="700" y="-74" font-family="Helvetica,sans-Serif" font-size="10.00">_error::create</text>
</a>
</g>
</g>
<!-- Node6&#45;&gt;Node7 -->
<g id="edge7" class="edge">
<title>Node6&#45;&gt;Node7</title>
<path fill="none" stroke="midnightblue" d="M560.47,-132.88C569.92,-129.68 579.8,-126.27 589,-123 609.13,-115.85 631.21,-107.69 650.27,-100.53"/>
<polygon fill="midnightblue" stroke="midnightblue" points="651.52,-103.8 659.65,-97 649.06,-97.25 651.52,-103.8"/>
</g>
<!-- Node6&#45;&gt;Node9 -->
<g id="edge13" class="edge">
<title>Node6&#45;&gt;Node9</title>
<path fill="none" stroke="midnightblue" d="M573.79,-132.86C579.25,-130.09 584.43,-126.84 589,-123 614.59,-101.51 596.66,-74.7 625,-57 684.23,-20.01 888.71,-27.5 989.88,-33.79"/>
<polygon fill="midnightblue" stroke="midnightblue" points="989.72,-37.29 999.93,-34.43 990.17,-30.3 989.72,-37.29"/>
</g>
<!-- Node11 -->
<g id="node11" class="node">
<title>Node11</title>
<g id="a_node11"><a xlink:href="classnlohmann_1_1detail_1_1serializer.html#abdcc4fd1dc5d3afb6c0817e4c89b1242" target="_top" xlink:title="check whether a string is UTF&#45;8 encoded">
<polygon fill="white" stroke="black" points="625,-204 625,-234 775,-234 775,-204 625,-204"/>
<text text-anchor="start" x="633" y="-222" font-family="Helvetica,sans-Serif" font-size="10.00">nlohmann::detail::serializer</text>
<text text-anchor="middle" x="700" y="-211" font-family="Helvetica,sans-Serif" font-size="10.00">::decode</text>
</a>
</g>
</g>
<!-- Node6&#45;&gt;Node11 -->
<g id="edge11" class="edge">
<title>Node6&#45;&gt;Node11</title>
<path fill="none" stroke="midnightblue" d="M549.43,-163.13C570.99,-172.42 599.44,-184.35 625,-194 630.83,-196.2 636.95,-198.42 643.07,-200.57"/>
<polygon fill="midnightblue" stroke="midnightblue" points="642.04,-203.92 652.64,-203.89 644.34,-197.31 642.04,-203.92"/>
</g>
<!-- Node12 -->
<g id="node12" class="node">
<title>Node12</title>
<g id="a_node12"><a xlink:href="classnlohmann_1_1detail_1_1binary__writer.html#ab77aa48692bd4e64e4f051ce6aeb6d2d" target="_top" xlink:title=" ">
<polygon fill="white" stroke="black" points="632,-155 632,-185 768,-185 768,-155 632,-155"/>
<text text-anchor="start" x="640" y="-173" font-family="Helvetica,sans-Serif" font-size="10.00">nlohmann::detail::binary</text>
<text text-anchor="middle" x="700" y="-162" font-family="Helvetica,sans-Serif" font-size="10.00">_writer::to_char_type</text>
</a>
</g>
</g>
<!-- Node6&#45;&gt;Node12 -->
<g id="edge12" class="edge">
<title>Node6&#45;&gt;Node12</title>
<path fill="none" stroke="midnightblue" d="M589.04,-156.85C599.79,-158.14 610.88,-159.46 621.68,-160.76"/>
<polygon fill="midnightblue" stroke="midnightblue" points="621.6,-164.27 631.94,-161.98 622.43,-157.32 621.6,-164.27"/>
</g>
<!-- Node8 -->
<g id="node8" class="node">
<title>Node8</title>
<g id="a_node8"><a xlink:href="classnlohmann_1_1detail_1_1exception.html#abf41a7e9178356314082284e6cfea278" target="_top" xlink:title=" ">
<polygon fill="white" stroke="black" points="811,-67 811,-97 964,-97 964,-67 811,-67"/>
<text text-anchor="start" x="819" y="-85" font-family="Helvetica,sans-Serif" font-size="10.00">nlohmann::detail::exception</text>
<text text-anchor="middle" x="887.5" y="-74" font-family="Helvetica,sans-Serif" font-size="10.00">::name</text>
</a>
</g>
</g>
<!-- Node7&#45;&gt;Node8 -->
<g id="edge8" class="edge">
<title>Node7&#45;&gt;Node8</title>
<path fill="none" stroke="midnightblue" d="M763.54,-82C775.38,-82 787.95,-82 800.36,-82"/>
<polygon fill="midnightblue" stroke="midnightblue" points="800.72,-85.5 810.72,-82 800.72,-78.5 800.72,-85.5"/>
</g>
<!-- Node10 -->
<g id="node10" class="node">
<title>Node10</title>
<g id="a_node10"><a xlink:href="classnlohmann_1_1detail_1_1type__error.html#aa01edaa0bf18b853368f0b900e485cd7" target="_top" xlink:title=" ">
<polygon fill="white" stroke="black" points="824,-116 824,-146 951,-146 951,-116 824,-116"/>
<text text-anchor="start" x="832" y="-134" font-family="Helvetica,sans-Serif" font-size="10.00">nlohmann::detail::type</text>
<text text-anchor="middle" x="887.5" y="-123" font-family="Helvetica,sans-Serif" font-size="10.00">_error::type_error</text>
</a>
</g>
</g>
<!-- Node7&#45;&gt;Node10 -->
<g id="edge10" class="edge">
<title>Node7&#45;&gt;Node10</title>
<path fill="none" stroke="midnightblue" d="M757.92,-97.03C777.5,-102.21 799.61,-108.05 819.9,-113.41"/>
<polygon fill="midnightblue" stroke="midnightblue" points="819.13,-116.82 829.69,-115.99 820.92,-110.06 819.13,-116.82"/>
</g>
<!-- Node8&#45;&gt;Node9 -->
<g id="edge9" class="edge">
<title>Node8&#45;&gt;Node9</title>
<path fill="none" stroke="midnightblue" d="M942.77,-66.98C962.45,-61.54 984.42,-55.46 1003.14,-50.28"/>
<polygon fill="midnightblue" stroke="midnightblue" points="1004.18,-53.62 1012.89,-47.58 1002.32,-46.87 1004.18,-53.62"/>
</g>
<!-- Node14&#45;&gt;Node5 -->
<g id="edge16" class="edge">
<title>Node14&#45;&gt;Node5</title>
<path fill="none" stroke="midnightblue" d="M589.2,-334.63C641.34,-337.43 712.63,-338.91 775,-332 801.89,-329.02 831.78,-322.12 853.84,-316.32"/>
<polygon fill="midnightblue" stroke="midnightblue" points="854.94,-319.65 863.69,-313.67 853.12,-312.89 854.94,-319.65"/>
</g>
<!-- Node15 -->
<g id="node15" class="node">
<title>Node15</title>
<g id="a_node15"><a xlink:href="classnlohmann_1_1detail_1_1serializer.html#a10692e98ea1f5a64de1d0b8e0e724b99" target="_top" xlink:title="count digits">
<polygon fill="white" stroke="black" points="625,-292 625,-322 775,-322 775,-292 625,-292"/>
<text text-anchor="start" x="633" y="-310" font-family="Helvetica,sans-Serif" font-size="10.00">nlohmann::detail::serializer</text>
<text text-anchor="middle" x="700" y="-299" font-family="Helvetica,sans-Serif" font-size="10.00">::count_digits</text>
</a>
</g>
</g>
<!-- Node14&#45;&gt;Node15 -->
<g id="edge17" class="edge">
<title>Node14&#45;&gt;Node15</title>
<path fill="none" stroke="midnightblue" d="M589.04,-320.15C597.51,-319.13 606.19,-318.1 614.78,-317.07"/>
<polygon fill="midnightblue" stroke="midnightblue" points="615.29,-320.53 624.81,-315.87 614.46,-313.58 615.29,-320.53"/>
</g>
<!-- Node16 -->
<g id="node16" class="node">
<title>Node16</title>
<g id="a_node16"><a xlink:href="classnlohmann_1_1detail_1_1serializer.html#a45bcb8ea41e4db5461e979d4b1d5e5e7" target="_top" xlink:title=" ">
<polygon fill="white" stroke="black" points="625,-380 625,-410 775,-410 775,-380 625,-380"/>
<text text-anchor="start" x="633" y="-398" font-family="Helvetica,sans-Serif" font-size="10.00">nlohmann::detail::serializer</text>
<text text-anchor="middle" x="700" y="-387" font-family="Helvetica,sans-Serif" font-size="10.00">::remove_sign</text>
</a>
</g>
</g>
<!-- Node14&#45;&gt;Node16 -->
<g id="edge18" class="edge">
<title>Node14&#45;&gt;Node16</title>
<path fill="none" stroke="midnightblue" d="M557.21,-344.14C583.98,-353.74 618.79,-366.23 647.22,-376.43"/>
<polygon fill="midnightblue" stroke="midnightblue" points="646.39,-379.85 656.98,-379.93 648.75,-373.26 646.39,-379.85"/>
</g>
<!-- Node16&#45;&gt;Node5 -->
<g id="edge19" class="edge">
<title>Node16&#45;&gt;Node5</title>
<path fill="none" stroke="midnightblue" d="M740.09,-379.96C751.44,-375.37 763.8,-370.17 775,-365 804.82,-351.24 838.11,-333.61 860.49,-321.42"/>
<polygon fill="midnightblue" stroke="midnightblue" points="862.28,-324.43 869.37,-316.56 858.92,-318.29 862.28,-324.43"/>
</g>
</g>
</svg>
        <g id="navigator" transform="translate(0 0)" fill="#404254">
                <rect fill="#f2f5e9" fill-opacity="0.5" stroke="#606060" stroke-width=".5" x="0" y="0" width="60" height="60"/>
                <use id="zoomplus" xlink:href="#zoomPlus" x="17" y="9" onmousedown="handleZoom(evt,'in')"/>
                <use id="zoomminus" xlink:href="#zoomMin" x="42" y="9" onmousedown="handleZoom(evt,'out')"/>
                <use id="reset" xlink:href="#resetDef" x="30" y="36" onmousedown="handleReset()"/>
                <g id="arrowUp" xlink:href="#dirArrow" transform="translate(30 24)" onmousedown="handlePan(0,-1)">
                  <use xlink:href="#rim" fill="#404040">
                        <set attributeName="fill" to="#808080" begin="arrowUp.mouseover" end="arrowUp.mouseout"/>
                  </use>
                  <path fill="none" stroke="white" stroke-width="1.5" d="M0,-3.0v7 M-2.5,-0.5L0,-3.0L2.5,-0.5"/>
                </g>
                <g id="arrowRight" xlink:href="#dirArrow" transform="rotate(90) translate(36 -43)" onmousedown="handlePan(1,0)">
                  <use xlink:href="#rim" fill="#404040">
                        <set attributeName="fill" to="#808080" begin="arrowRight.mouseover" end="arrowRight.mouseout"/>
                  </use>
                  <path fill="none" stroke="white" stroke-width="1.5" d="M0,-3.0v7 M-2.5,-0.5L0,-3.0L2.5,-0.5"/>
                </g>
                <g id="arrowDown" xlink:href="#dirArrow" transform="rotate(180) translate(-30 -48)" onmousedown="handlePan(0,1)">
                  <use xlink:href="#rim" fill="#404040">
                        <set attributeName="fill" to="#808080" begin="arrowDown.mouseover" end="arrowDown.mouseout"/>
                  </use>
                  <path fill="none" stroke="white" stroke-width="1.5" d="M0,-3.0v7 M-2.5,-0.5L0,-3.0L2.5,-0.5"/>
                </g>
                <g id="arrowLeft" xlink:href="#dirArrow" transform="rotate(270) translate(-36 17)" onmousedown="handlePan(-1,0)">
                  <use xlink:href="#rim" fill="#404040">
                        <set attributeName="fill" to="#808080" begin="arrowLeft.mouseover" end="arrowLeft.mouseout"/>
                  </use>
                  <path fill="none" stroke="white" stroke-width="1.5" d="M0,-3.0v7 M-2.5,-0.5L0,-3.0L2.5,-0.5"/>
                </g>
        </g>
        <svg viewBox="0 0 15 15" width="100%" height="30px" preserveAspectRatio="xMaxYMin meet">
         <g id="arrow_out" transform="scale(0.3 0.3)">
          <a xlink:href="unit-regression_8cpp_a4de9ed3726a5266e175ff8680cb148eb_cgraph_org.svg" target="_base">
           <rect id="button" ry="5" rx="5" y="6" x="6" height="38" width="38"
                fill="#f2f5e9" fill-opacity="0.5" stroke="#606060" stroke-width="1.0"/>
           <path id="arrow"
             d="M 11.500037,31.436501 C 11.940474,20.09759 22.043105,11.32322 32.158766,21.979434 L 37.068811,17.246167 C 37.068811,17.246167 37.088388,32 37.088388,32 L 22.160133,31.978069 C 22.160133,31.978069 26.997745,27.140456 26.997745,27.140456 C 18.528582,18.264221 13.291696,25.230495 11.500037,31.436501 z"
             style="fill:#404040;"/>
          </a>
         </g>
        </svg>
</svg>
