<?xml version="1.0" encoding="UTF-8" standalone="no"?>
<!DOCTYPE svg PUBLIC "-//W3C//DTD SVG 1.1//EN"
 "http://www.w3.org/Graphics/SVG/1.1/DTD/svg11.dtd">
<!-- Generated by graphviz version 2.43.0 (0)
 -->
<!-- Title: SECTION Pages: 1 -->
<svg width="1105pt" height="351pt"
 viewBox="0.00 0.00 1105.00 350.62" xmlns="http://www.w3.org/2000/svg" xmlns:xlink="http://www.w3.org/1999/xlink">
<g id="graph0" class="graph" transform="scale(1 1) rotate(0) translate(4 346.62)">
<title>SECTION</title>
<polygon fill="white" stroke="transparent" points="-4,4 -4,-346.62 1101,-346.62 1101,4 -4,4"/>
<!-- Node1 -->
<g id="node1" class="node">
<title>Node1</title>
<g id="a_node1"><a xlink:title=" ">
<polygon fill="#bfbfbf" stroke="black" points="0,-189 0,-208 59,-208 59,-189 0,-189"/>
<text text-anchor="middle" x="29.5" y="-196" font-family="Helvetica,sans-Serif" font-size="10.00">SECTION</text>
</a>
</g>
</g>
<!-- Node2 -->
<g id="node2" class="node">
<title>Node2</title>
<g id="a_node2"><a xlink:href="unit-regression_8cpp.html#a657491c3ed223102a6fecd3a3944fc62" target="_top" xlink:title=" ">
<polygon fill="white" stroke="black" points="131,-233 131,-252 181,-252 181,-233 131,-233"/>
<text text-anchor="middle" x="156" y="-240" font-family="Helvetica,sans-Serif" font-size="10.00">CHECK</text>
</a>
</g>
</g>
<!-- Node1&#45;&gt;Node2 -->
<g id="edge1" class="edge">
<title>Node1&#45;&gt;Node2</title>
<path fill="none" stroke="midnightblue" d="M53.96,-208C66.13,-212.83 81.29,-218.68 95,-223.5 103.45,-226.47 112.63,-229.49 121.22,-232.21"/>
<polygon fill="midnightblue" stroke="midnightblue" points="120.35,-235.61 130.94,-235.26 122.45,-228.93 120.35,-235.61"/>
</g>
<!-- Node3 -->
<g id="node3" class="node">
<title>Node3</title>
<g id="a_node3"><a xlink:href="classnlohmann_1_1basic__json.html#a50ec80b02d0f3f51130d4abb5d1cfdc5" target="_top" xlink:title="serialization">
<polygon fill="white" stroke="black" points="95,-183.5 95,-213.5 217,-213.5 217,-183.5 95,-183.5"/>
<text text-anchor="start" x="103" y="-201.5" font-family="Helvetica,sans-Serif" font-size="10.00">nlohmann::basic_json</text>
<text text-anchor="middle" x="156" y="-190.5" font-family="Helvetica,sans-Serif" font-size="10.00">::dump</text>
</a>
</g>
</g>
<!-- Node1&#45;&gt;Node3 -->
<g id="edge2" class="edge">
<title>Node1&#45;&gt;Node3</title>
<path fill="none" stroke="midnightblue" d="M59.06,-198.5C66.83,-198.5 75.61,-198.5 84.61,-198.5"/>
<polygon fill="midnightblue" stroke="midnightblue" points="84.84,-202 94.84,-198.5 84.84,-195 84.84,-202"/>
</g>
<!-- Node17 -->
<g id="node17" class="node">
<title>Node17</title>
<g id="a_node17"><a xlink:href="unit-regression_8cpp.html#a0ad565847df0ef6f5726507ed8a591ff" target="_top" xlink:title=" ">
<polygon fill="white" stroke="black" points="126.5,-145 126.5,-164 185.5,-164 185.5,-145 126.5,-145"/>
<text text-anchor="middle" x="156" y="-152" font-family="Helvetica,sans-Serif" font-size="10.00">SECTION</text>
</a>
</g>
</g>
<!-- Node1&#45;&gt;Node17 -->
<g id="edge20" class="edge">
<title>Node1&#45;&gt;Node17</title>
<path fill="none" stroke="midnightblue" d="M55.54,-188.95C67.46,-184.47 81.93,-179.11 95,-174.5 101.98,-172.04 109.44,-169.49 116.64,-167.07"/>
<polygon fill="midnightblue" stroke="midnightblue" points="117.87,-170.35 126.24,-163.86 115.65,-163.71 117.87,-170.35"/>
</g>
<!-- Node4 -->
<g id="node4" class="node">
<title>Node4</title>
<g id="a_node4"><a xlink:href="classnlohmann_1_1detail_1_1serializer.html#a95460ebd1a535a543e5a0ec52e00f48b" target="_top" xlink:title="internal implementation of the serialization function">
<polygon fill="white" stroke="black" points="253,-183.5 253,-213.5 403,-213.5 403,-183.5 253,-183.5"/>
<text text-anchor="start" x="261" y="-201.5" font-family="Helvetica,sans-Serif" font-size="10.00">nlohmann::detail::serializer</text>
<text text-anchor="middle" x="328" y="-190.5" font-family="Helvetica,sans-Serif" font-size="10.00">::dump</text>
</a>
</g>
</g>
<!-- Node3&#45;&gt;Node4 -->
<g id="edge3" class="edge">
<title>Node3&#45;&gt;Node4</title>
<path fill="none" stroke="midnightblue" d="M217.41,-198.5C225.65,-198.5 234.21,-198.5 242.77,-198.5"/>
<polygon fill="midnightblue" stroke="midnightblue" points="242.79,-202 252.79,-198.5 242.79,-195 242.79,-202"/>
</g>
<!-- Node5 -->
<g id="node5" class="node">
<title>Node5</title>
<g id="a_node5"><a xlink:href="FuzzerTracePC_8cpp.html#a1f10ac78bd11294b612636121065eb5b" target="_top" xlink:title=" ">
<polygon fill="white" stroke="black" points="864,-301 864,-320 911,-320 911,-301 864,-301"/>
<text text-anchor="middle" x="887.5" y="-308" font-family="Helvetica,sans-Serif" font-size="10.00">assert</text>
</a>
</g>
</g>
<!-- Node4&#45;&gt;Node5 -->
<g id="edge4" class="edge">
<title>Node4&#45;&gt;Node5</title>
<path fill="none" stroke="midnightblue" d="M343.11,-213.74C362.68,-233.94 400.07,-269.26 439,-288.5 574.02,-355.23 625.11,-347.15 775,-332.5 801.79,-329.88 831.68,-323.81 853.77,-318.71"/>
<polygon fill="midnightblue" stroke="midnightblue" points="854.71,-322.08 863.63,-316.37 853.09,-315.27 854.71,-322.08"/>
</g>
<!-- Node6 -->
<g id="node6" class="node">
<title>Node6</title>
<g id="a_node6"><a xlink:href="classnlohmann_1_1detail_1_1serializer.html#ac1f8d1165b44149bd8be397dce68ea05" target="_top" xlink:title="dump escaped string">
<polygon fill="white" stroke="black" points="439,-142.5 439,-172.5 589,-172.5 589,-142.5 439,-142.5"/>
<text text-anchor="start" x="447" y="-160.5" font-family="Helvetica,sans-Serif" font-size="10.00">nlohmann::detail::serializer</text>
<text text-anchor="middle" x="514" y="-149.5" font-family="Helvetica,sans-Serif" font-size="10.00">::dump_escaped</text>
</a>
</g>
</g>
<!-- Node4&#45;&gt;Node6 -->
<g id="edge5" class="edge">
<title>Node4&#45;&gt;Node6</title>
<path fill="none" stroke="midnightblue" d="M396.47,-183.47C409.22,-180.62 422.65,-177.63 435.67,-174.73"/>
<polygon fill="midnightblue" stroke="midnightblue" points="436.54,-178.12 445.54,-172.53 435.02,-171.29 436.54,-178.12"/>
</g>
<!-- Node13 -->
<g id="node13" class="node">
<title>Node13</title>
<g id="a_node13"><a xlink:href="classnlohmann_1_1detail_1_1serializer.html#a6d652a3bfa581cf1cd7790d6d11ea52f" target="_top" xlink:title="dump a floating&#45;point number">
<polygon fill="white" stroke="black" points="439,-93.5 439,-123.5 589,-123.5 589,-93.5 439,-93.5"/>
<text text-anchor="start" x="447" y="-111.5" font-family="Helvetica,sans-Serif" font-size="10.00">nlohmann::detail::serializer</text>
<text text-anchor="middle" x="514" y="-100.5" font-family="Helvetica,sans-Serif" font-size="10.00">::dump_float</text>
</a>
</g>
</g>
<!-- Node4&#45;&gt;Node13 -->
<g id="edge14" class="edge">
<title>Node4&#45;&gt;Node13</title>
<path fill="none" stroke="midnightblue" d="M350.94,-183.3C372.58,-168.8 406.97,-147.07 439,-132.5 443.12,-130.62 447.43,-128.83 451.81,-127.12"/>
<polygon fill="midnightblue" stroke="midnightblue" points="453.31,-130.3 461.47,-123.54 450.88,-123.74 453.31,-130.3"/>
</g>
<!-- Node14 -->
<g id="node14" class="node">
<title>Node14</title>
<g id="a_node14"><a xlink:href="classnlohmann_1_1detail_1_1serializer.html#a944f6dea8dbe2961da145d2f62fa2c2f" target="_top" xlink:title="dump an integer">
<polygon fill="white" stroke="black" points="439,-248.5 439,-278.5 589,-278.5 589,-248.5 439,-248.5"/>
<text text-anchor="start" x="447" y="-266.5" font-family="Helvetica,sans-Serif" font-size="10.00">nlohmann::detail::serializer</text>
<text text-anchor="middle" x="514" y="-255.5" font-family="Helvetica,sans-Serif" font-size="10.00">::dump_integer</text>
</a>
</g>
</g>
<!-- Node4&#45;&gt;Node14 -->
<g id="edge15" class="edge">
<title>Node4&#45;&gt;Node14</title>
<path fill="none" stroke="midnightblue" d="M371.68,-213.58C398.17,-222.94 432.42,-235.03 460.56,-244.97"/>
<polygon fill="midnightblue" stroke="midnightblue" points="459.64,-248.36 470.24,-248.39 461.97,-241.76 459.64,-248.36"/>
</g>
<!-- Node6&#45;&gt;Node5 -->
<g id="edge6" class="edge">
<title>Node6&#45;&gt;Node5</title>
<path fill="none" stroke="midnightblue" d="M589.19,-169.94C654.09,-181.56 742.87,-199.48 775,-215.5 814.55,-235.22 851.79,-271.95 871.63,-293.51"/>
<polygon fill="midnightblue" stroke="midnightblue" points="869.05,-295.87 878.35,-300.96 874.25,-291.19 869.05,-295.87"/>
</g>
<!-- Node7 -->
<g id="node7" class="node">
<title>Node7</title>
<g id="a_node7"><a xlink:href="classnlohmann_1_1detail_1_1type__error.html#aecc083aea4b698c33d042670ba50c10f" target="_top" xlink:title=" ">
<polygon fill="white" stroke="black" points="636.5,-98.5 636.5,-128.5 763.5,-128.5 763.5,-98.5 636.5,-98.5"/>
<text text-anchor="start" x="644.5" y="-116.5" font-family="Helvetica,sans-Serif" font-size="10.00">nlohmann::detail::type</text>
<text text-anchor="middle" x="700" y="-105.5" font-family="Helvetica,sans-Serif" font-size="10.00">_error::create</text>
</a>
</g>
</g>
<!-- Node6&#45;&gt;Node7 -->
<g id="edge7" class="edge">
<title>Node6&#45;&gt;Node7</title>
<path fill="none" stroke="midnightblue" d="M577.81,-142.48C593.5,-138.73 610.45,-134.67 626.57,-130.82"/>
<polygon fill="midnightblue" stroke="midnightblue" points="627.56,-134.18 636.48,-128.45 625.94,-127.37 627.56,-134.18"/>
</g>
<!-- Node9 -->
<g id="node9" class="node">
<title>Node9</title>
<g id="a_node9"><a xlink:href="namespacehttplib.html#a498c3a79825ecbcb15c52ec5fcfd5c11" target="_top" xlink:title=" ">
<polygon fill="white" stroke="black" points="1000,-126 1000,-145 1097,-145 1097,-126 1000,-126"/>
<text text-anchor="middle" x="1048.5" y="-133" font-family="Helvetica,sans-Serif" font-size="10.00">httplib::to_string</text>
</a>
</g>
</g>
<!-- Node6&#45;&gt;Node9 -->
<g id="edge13" class="edge">
<title>Node6&#45;&gt;Node9</title>
<path fill="none" stroke="midnightblue" d="M589.04,-154.44C696.16,-150.02 892.16,-141.92 989.49,-137.9"/>
<polygon fill="midnightblue" stroke="midnightblue" points="989.88,-141.38 999.72,-137.47 989.59,-134.39 989.88,-141.38"/>
</g>
<!-- Node11 -->
<g id="node11" class="node">
<title>Node11</title>
<g id="a_node11"><a xlink:href="classnlohmann_1_1detail_1_1serializer.html#abdcc4fd1dc5d3afb6c0817e4c89b1242" target="_top" xlink:title="check whether a string is UTF&#45;8 encoded">
<polygon fill="white" stroke="black" points="625,-49.5 625,-79.5 775,-79.5 775,-49.5 625,-49.5"/>
<text text-anchor="start" x="633" y="-67.5" font-family="Helvetica,sans-Serif" font-size="10.00">nlohmann::detail::serializer</text>
<text text-anchor="middle" x="700" y="-56.5" font-family="Helvetica,sans-Serif" font-size="10.00">::decode</text>
</a>
</g>
</g>
<!-- Node6&#45;&gt;Node11 -->
<g id="edge11" class="edge">
<title>Node6&#45;&gt;Node11</title>
<path fill="none" stroke="midnightblue" d="M570.8,-142.48C577.2,-139.66 583.42,-136.36 589,-132.5 609.78,-118.12 604.14,-102.75 625,-88.5 627.27,-86.95 629.66,-85.49 632.11,-84.12"/>
<polygon fill="midnightblue" stroke="midnightblue" points="633.89,-87.14 641.28,-79.55 630.77,-80.88 633.89,-87.14"/>
</g>
<!-- Node12 -->
<g id="node12" class="node">
<title>Node12</title>
<g id="a_node12"><a xlink:href="classnlohmann_1_1detail_1_1binary__writer.html#ab77aa48692bd4e64e4f051ce6aeb6d2d" target="_top" xlink:title=" ">
<polygon fill="white" stroke="black" points="632,-0.5 632,-30.5 768,-30.5 768,-0.5 632,-0.5"/>
<text text-anchor="start" x="640" y="-18.5" font-family="Helvetica,sans-Serif" font-size="10.00">nlohmann::detail::binary</text>
<text text-anchor="middle" x="700" y="-7.5" font-family="Helvetica,sans-Serif" font-size="10.00">_writer::to_char_type</text>
</a>
</g>
</g>
<!-- Node6&#45;&gt;Node12 -->
<g id="edge12" class="edge">
<title>Node6&#45;&gt;Node12</title>
<path fill="none" stroke="midnightblue" d="M575.42,-142.35C580.36,-139.6 584.98,-136.34 589,-132.5 621.02,-101.85 592.8,-69.96 625,-39.5 626.13,-38.43 627.32,-37.4 628.54,-36.42"/>
<polygon fill="midnightblue" stroke="midnightblue" points="630.83,-39.1 637.16,-30.6 626.92,-33.3 630.83,-39.1"/>
</g>
<!-- Node8 -->
<g id="node8" class="node">
<title>Node8</title>
<g id="a_node8"><a xlink:href="classnlohmann_1_1detail_1_1exception.html#abf41a7e9178356314082284e6cfea278" target="_top" xlink:title=" ">
<polygon fill="white" stroke="black" points="811,-98.5 811,-128.5 964,-128.5 964,-98.5 811,-98.5"/>
<text text-anchor="start" x="819" y="-116.5" font-family="Helvetica,sans-Serif" font-size="10.00">nlohmann::detail::exception</text>
<text text-anchor="middle" x="887.5" y="-105.5" font-family="Helvetica,sans-Serif" font-size="10.00">::name</text>
</a>
</g>
</g>
<!-- Node7&#45;&gt;Node8 -->
<g id="edge8" class="edge">
<title>Node7&#45;&gt;Node8</title>
<path fill="none" stroke="midnightblue" d="M763.54,-113.5C775.38,-113.5 787.95,-113.5 800.36,-113.5"/>
<polygon fill="midnightblue" stroke="midnightblue" points="800.72,-117 810.72,-113.5 800.72,-110 800.72,-117"/>
</g>
<!-- Node10 -->
<g id="node10" class="node">
<title>Node10</title>
<g id="a_node10"><a xlink:href="classnlohmann_1_1detail_1_1type__error.html#aa01edaa0bf18b853368f0b900e485cd7" target="_top" xlink:title=" ">
<polygon fill="white" stroke="black" points="824,-49.5 824,-79.5 951,-79.5 951,-49.5 824,-49.5"/>
<text text-anchor="start" x="832" y="-67.5" font-family="Helvetica,sans-Serif" font-size="10.00">nlohmann::detail::type</text>
<text text-anchor="middle" x="887.5" y="-56.5" font-family="Helvetica,sans-Serif" font-size="10.00">_error::type_error</text>
</a>
</g>
</g>
<!-- Node7&#45;&gt;Node10 -->
<g id="edge10" class="edge">
<title>Node7&#45;&gt;Node10</title>
<path fill="none" stroke="midnightblue" d="M757.92,-98.47C777.5,-93.29 799.61,-87.45 819.9,-82.09"/>
<polygon fill="midnightblue" stroke="midnightblue" points="820.92,-85.44 829.69,-79.51 819.13,-78.68 820.92,-85.44"/>
</g>
<!-- Node8&#45;&gt;Node9 -->
<g id="edge9" class="edge">
<title>Node8&#45;&gt;Node9</title>
<path fill="none" stroke="midnightblue" d="M964.27,-123.98C972.92,-125.18 981.62,-126.38 989.97,-127.54"/>
<polygon fill="midnightblue" stroke="midnightblue" points="989.57,-131.02 999.96,-128.92 990.53,-124.08 989.57,-131.02"/>
</g>
<!-- Node14&#45;&gt;Node5 -->
<g id="edge16" class="edge">
<title>Node14&#45;&gt;Node5</title>
<path fill="none" stroke="midnightblue" d="M540.14,-278.69C561.77,-290.82 594.25,-306.84 625,-313.5 705.61,-330.96 803.5,-322.13 853.55,-315.53"/>
<polygon fill="midnightblue" stroke="midnightblue" points="854.34,-318.95 863.77,-314.12 853.39,-312.02 854.34,-318.95"/>
</g>
<!-- Node15 -->
<g id="node15" class="node">
<title>Node15</title>
<g id="a_node15"><a xlink:href="classnlohmann_1_1detail_1_1serializer.html#a10692e98ea1f5a64de1d0b8e0e724b99" target="_top" xlink:title="count digits">
<polygon fill="white" stroke="black" points="625,-224.5 625,-254.5 775,-254.5 775,-224.5 625,-224.5"/>
<text text-anchor="start" x="633" y="-242.5" font-family="Helvetica,sans-Serif" font-size="10.00">nlohmann::detail::serializer</text>
<text text-anchor="middle" x="700" y="-231.5" font-family="Helvetica,sans-Serif" font-size="10.00">::count_digits</text>
</a>
</g>
</g>
<!-- Node14&#45;&gt;Node15 -->
<g id="edge17" class="edge">
<title>Node14&#45;&gt;Node15</title>
<path fill="none" stroke="midnightblue" d="M589.04,-253.84C597.51,-252.74 606.19,-251.61 614.78,-250.48"/>
<polygon fill="midnightblue" stroke="midnightblue" points="615.34,-253.94 624.81,-249.18 614.44,-247 615.34,-253.94"/>
</g>
<!-- Node16 -->
<g id="node16" class="node">
<title>Node16</title>
<g id="a_node16"><a xlink:href="classnlohmann_1_1detail_1_1serializer.html#a45bcb8ea41e4db5461e979d4b1d5e5e7" target="_top" xlink:title=" ">
<polygon fill="white" stroke="black" points="625,-273.5 625,-303.5 775,-303.5 775,-273.5 625,-273.5"/>
<text text-anchor="start" x="633" y="-291.5" font-family="Helvetica,sans-Serif" font-size="10.00">nlohmann::detail::serializer</text>
<text text-anchor="middle" x="700" y="-280.5" font-family="Helvetica,sans-Serif" font-size="10.00">::remove_sign</text>
</a>
</g>
</g>
<!-- Node14&#45;&gt;Node16 -->
<g id="edge18" class="edge">
<title>Node14&#45;&gt;Node16</title>
<path fill="none" stroke="midnightblue" d="M589.04,-273.56C597.51,-274.71 606.19,-275.89 614.78,-277.06"/>
<polygon fill="midnightblue" stroke="midnightblue" points="614.43,-280.54 624.81,-278.42 615.37,-273.6 614.43,-280.54"/>
</g>
<!-- Node16&#45;&gt;Node5 -->
<g id="edge19" class="edge">
<title>Node16&#45;&gt;Node5</title>
<path fill="none" stroke="midnightblue" d="M775.11,-297.29C802.35,-300.52 831.81,-304.01 853.59,-306.6"/>
<polygon fill="midnightblue" stroke="midnightblue" points="853.28,-310.09 863.63,-307.79 854.11,-303.13 853.28,-310.09"/>
</g>
</g>
</svg>
