<?xml version="1.0" encoding="UTF-8" standalone="no"?>
<!DOCTYPE svg PUBLIC "-//W3C//DTD SVG 1.1//EN"
 "http://www.w3.org/Graphics/SVG/1.1/DTD/svg11.dtd">
<!-- Generated by graphviz version 2.43.0 (0)
 -->
<!-- Title: SECTION Pages: 1 -->
<svg width="249pt" height="214pt"
 viewBox="0.00 0.00 249.00 214.00" xmlns="http://www.w3.org/2000/svg" xmlns:xlink="http://www.w3.org/1999/xlink">
<g id="graph0" class="graph" transform="scale(1 1) rotate(0) translate(4 210)">
<title>SECTION</title>
<polygon fill="white" stroke="transparent" points="-4,4 -4,-210 245,-210 245,4 -4,4"/>
<!-- Node1 -->
<g id="node1" class="node">
<title>Node1</title>
<g id="a_node1"><a xlink:title=" ">
<polygon fill="#bfbfbf" stroke="black" points="0,-99 0,-118 59,-118 59,-99 0,-99"/>
<text text-anchor="middle" x="29.5" y="-106" font-family="Helvetica,sans-Serif" font-size="10.00">SECTION</text>
</a>
</g>
</g>
<!-- Node2 -->
<g id="node2" class="node">
<title>Node2</title>
<g id="a_node2"><a xlink:href="classnlohmann_1_1basic__json.html#a8a7d537fc297bbc5b845f92fe0445e3b" target="_top" xlink:title="explicitly create an array from an initializer list">
<polygon fill="white" stroke="black" points="107,-175.5 107,-205.5 229,-205.5 229,-175.5 107,-175.5"/>
<text text-anchor="start" x="115" y="-193.5" font-family="Helvetica,sans-Serif" font-size="10.00">nlohmann::basic_json</text>
<text text-anchor="middle" x="168" y="-182.5" font-family="Helvetica,sans-Serif" font-size="10.00">::array</text>
</a>
</g>
</g>
<!-- Node1&#45;&gt;Node2 -->
<g id="edge1" class="edge">
<title>Node1&#45;&gt;Node2</title>
<path fill="none" stroke="midnightblue" d="M39.2,-118.26C50.82,-130.76 72.55,-152.38 95,-165.5 98.6,-167.6 102.4,-169.57 106.3,-171.4"/>
<polygon fill="midnightblue" stroke="midnightblue" points="104.98,-174.63 115.54,-175.41 107.77,-168.21 104.98,-174.63"/>
</g>
<!-- Node3 -->
<g id="node3" class="node">
<title>Node3</title>
<g id="a_node3"><a xlink:href="unit-regression_8cpp.html#a657491c3ed223102a6fecd3a3944fc62" target="_top" xlink:title=" ">
<polygon fill="white" stroke="black" points="143,-137 143,-156 193,-156 193,-137 143,-137"/>
<text text-anchor="middle" x="168" y="-144" font-family="Helvetica,sans-Serif" font-size="10.00">CHECK</text>
</a>
</g>
</g>
<!-- Node1&#45;&gt;Node3 -->
<g id="edge2" class="edge">
<title>Node1&#45;&gt;Node3</title>
<path fill="none" stroke="midnightblue" d="M59.03,-117.09C70.22,-120.42 83.19,-124.2 95,-127.5 107.45,-130.98 121.16,-134.64 133.25,-137.81"/>
<polygon fill="midnightblue" stroke="midnightblue" points="132.39,-141.2 142.95,-140.34 134.16,-134.43 132.39,-141.2"/>
</g>
<!-- Node4 -->
<g id="node4" class="node">
<title>Node4</title>
<g id="a_node4"><a xlink:href="classnlohmann_1_1basic__json.html#a13e032a02a7fd8a93fdddc2fcbc4763c" target="_top" xlink:title="returns an iterator to one past the last element">
<polygon fill="white" stroke="black" points="95,-99 95,-118 241,-118 241,-99 95,-99"/>
<text text-anchor="middle" x="168" y="-106" font-family="Helvetica,sans-Serif" font-size="10.00">nlohmann::basic_json::end</text>
</a>
</g>
</g>
<!-- Node1&#45;&gt;Node4 -->
<g id="edge3" class="edge">
<title>Node1&#45;&gt;Node4</title>
<path fill="none" stroke="midnightblue" d="M59.11,-108.5C66.87,-108.5 75.66,-108.5 84.8,-108.5"/>
<polygon fill="midnightblue" stroke="midnightblue" points="84.83,-112 94.83,-108.5 84.83,-105 84.83,-112"/>
</g>
<!-- Node5 -->
<g id="node5" class="node">
<title>Node5</title>
<g id="a_node5"><a xlink:href="classnlohmann_1_1basic__json.html#afe3e137ace692efa08590d8df40f58dd" target="_top" xlink:title="helper to access iterator member functions in range&#45;based for">
<polygon fill="white" stroke="black" points="107,-49.5 107,-79.5 229,-79.5 229,-49.5 107,-49.5"/>
<text text-anchor="start" x="115" y="-67.5" font-family="Helvetica,sans-Serif" font-size="10.00">nlohmann::basic_json</text>
<text text-anchor="middle" x="168" y="-56.5" font-family="Helvetica,sans-Serif" font-size="10.00">::items</text>
</a>
</g>
</g>
<!-- Node1&#45;&gt;Node5 -->
<g id="edge4" class="edge">
<title>Node1&#45;&gt;Node5</title>
<path fill="none" stroke="midnightblue" d="M59.11,-99.28C74.09,-94.45 92.96,-88.37 110.71,-82.64"/>
<polygon fill="midnightblue" stroke="midnightblue" points="111.98,-85.91 120.43,-79.51 109.83,-79.25 111.98,-85.91"/>
</g>
<!-- Node6 -->
<g id="node6" class="node">
<title>Node6</title>
<g id="a_node6"><a xlink:href="classnlohmann_1_1basic__json.html#a25e27ad0c6d53c01871c5485e1f75b96" target="_top" xlink:title="returns the number of elements">
<polygon fill="white" stroke="black" points="107,-0.5 107,-30.5 229,-30.5 229,-0.5 107,-0.5"/>
<text text-anchor="start" x="115" y="-18.5" font-family="Helvetica,sans-Serif" font-size="10.00">nlohmann::basic_json</text>
<text text-anchor="middle" x="168" y="-7.5" font-family="Helvetica,sans-Serif" font-size="10.00">::size</text>
</a>
</g>
</g>
<!-- Node1&#45;&gt;Node6 -->
<g id="edge5" class="edge">
<title>Node1&#45;&gt;Node6</title>
<path fill="none" stroke="midnightblue" d="M37.31,-98.76C48.01,-84.15 70.12,-56.56 95,-40.5 98.13,-38.48 101.44,-36.6 104.86,-34.86"/>
<polygon fill="midnightblue" stroke="midnightblue" points="106.51,-37.95 114.1,-30.56 103.55,-31.61 106.51,-37.95"/>
</g>
</g>
</svg>
