<?xml version="1.0" encoding="UTF-8" standalone="no"?>
<!DOCTYPE svg PUBLIC "-//W3C//DTD SVG 1.1//EN"
 "http://www.w3.org/Graphics/SVG/1.1/DTD/svg11.dtd">
<!-- Generated by graphviz version 2.43.0 (0)
 -->
<!-- Title: mc_orchestrator/json&#45;3.7.3/include/nlohmann/detail/value_t.hpp Pages: 1 -->
<svg width="324pt" height="106pt"
 viewBox="0.00 0.00 324.00 106.00" xmlns="http://www.w3.org/2000/svg" xmlns:xlink="http://www.w3.org/1999/xlink">
<g id="graph0" class="graph" transform="scale(1 1) rotate(0) translate(4 102)">
<title>mc_orchestrator/json&#45;3.7.3/include/nlohmann/detail/value_t.hpp</title>
<polygon fill="white" stroke="transparent" points="-4,4 -4,-102 320,-102 320,4 -4,4"/>
<!-- Node1 -->
<g id="node1" class="node">
<title>Node1</title>
<g id="a_node1"><a xlink:title=" ">
<polygon fill="#bfbfbf" stroke="black" points="92,-56.5 92,-97.5 226,-97.5 226,-56.5 92,-56.5"/>
<text text-anchor="start" x="100" y="-85.5" font-family="Helvetica,sans-Serif" font-size="10.00">mc_orchestrator/json</text>
<text text-anchor="start" x="100" y="-74.5" font-family="Helvetica,sans-Serif" font-size="10.00">&#45;3.7.3/include/nlohmann</text>
<text text-anchor="middle" x="159" y="-63.5" font-family="Helvetica,sans-Serif" font-size="10.00">/detail/value_t.hpp</text>
</a>
</g>
</g>
<!-- Node2 -->
<g id="node2" class="node">
<title>Node2</title>
<g id="a_node2"><a xlink:title=" ">
<polygon fill="white" stroke="#bfbfbf" points="0,-0.5 0,-19.5 42,-19.5 42,-0.5 0,-0.5"/>
<text text-anchor="middle" x="21" y="-7.5" font-family="Helvetica,sans-Serif" font-size="10.00">array</text>
</a>
</g>
</g>
<!-- Node1&#45;&gt;Node2 -->
<g id="edge1" class="edge">
<title>Node1&#45;&gt;Node2</title>
<path fill="none" stroke="midnightblue" d="M117.6,-56.5C95.22,-45.96 68.2,-33.23 48.44,-23.92"/>
<polygon fill="midnightblue" stroke="midnightblue" points="49.91,-20.75 39.37,-19.65 46.93,-27.08 49.91,-20.75"/>
</g>
<!-- Node3 -->
<g id="node3" class="node">
<title>Node3</title>
<g id="a_node3"><a xlink:title=" ">
<polygon fill="white" stroke="#bfbfbf" points="60,-0.5 60,-19.5 114,-19.5 114,-0.5 60,-0.5"/>
<text text-anchor="middle" x="87" y="-7.5" font-family="Helvetica,sans-Serif" font-size="10.00">ciso646</text>
</a>
</g>
</g>
<!-- Node1&#45;&gt;Node3 -->
<g id="edge2" class="edge">
<title>Node1&#45;&gt;Node3</title>
<path fill="none" stroke="midnightblue" d="M137.4,-56.5C126.78,-46.92 114.17,-35.53 104.22,-26.54"/>
<polygon fill="midnightblue" stroke="midnightblue" points="106.35,-23.76 96.58,-19.65 101.66,-28.95 106.35,-23.76"/>
</g>
<!-- Node4 -->
<g id="node4" class="node">
<title>Node4</title>
<g id="a_node4"><a xlink:title=" ">
<polygon fill="white" stroke="#bfbfbf" points="132.5,-0.5 132.5,-19.5 185.5,-19.5 185.5,-0.5 132.5,-0.5"/>
<text text-anchor="middle" x="159" y="-7.5" font-family="Helvetica,sans-Serif" font-size="10.00">cstddef</text>
</a>
</g>
</g>
<!-- Node1&#45;&gt;Node4 -->
<g id="edge3" class="edge">
<title>Node1&#45;&gt;Node4</title>
<path fill="none" stroke="midnightblue" d="M159,-56.5C159,-48.07 159,-38.24 159,-29.87"/>
<polygon fill="midnightblue" stroke="midnightblue" points="162.5,-29.65 159,-19.65 155.5,-29.65 162.5,-29.65"/>
</g>
<!-- Node5 -->
<g id="node5" class="node">
<title>Node5</title>
<g id="a_node5"><a xlink:title=" ">
<polygon fill="white" stroke="#bfbfbf" points="204,-0.5 204,-19.5 254,-19.5 254,-0.5 204,-0.5"/>
<text text-anchor="middle" x="229" y="-7.5" font-family="Helvetica,sans-Serif" font-size="10.00">cstdint</text>
</a>
</g>
</g>
<!-- Node1&#45;&gt;Node5 -->
<g id="edge4" class="edge">
<title>Node1&#45;&gt;Node5</title>
<path fill="none" stroke="midnightblue" d="M180,-56.5C190.32,-46.92 202.59,-35.53 212.26,-26.54"/>
<polygon fill="midnightblue" stroke="midnightblue" points="214.74,-29.02 219.68,-19.65 209.97,-23.89 214.74,-29.02"/>
</g>
<!-- Node6 -->
<g id="node6" class="node">
<title>Node6</title>
<g id="a_node6"><a xlink:title=" ">
<polygon fill="white" stroke="#bfbfbf" points="272,-0.5 272,-19.5 316,-19.5 316,-0.5 272,-0.5"/>
<text text-anchor="middle" x="294" y="-7.5" font-family="Helvetica,sans-Serif" font-size="10.00">string</text>
</a>
</g>
</g>
<!-- Node1&#45;&gt;Node6 -->
<g id="edge5" class="edge">
<title>Node1&#45;&gt;Node6</title>
<path fill="none" stroke="midnightblue" d="M199.5,-56.5C221.3,-46.01 247.58,-33.35 266.89,-24.05"/>
<polygon fill="midnightblue" stroke="midnightblue" points="268.54,-27.14 276.03,-19.65 265.5,-20.84 268.54,-27.14"/>
</g>
</g>
</svg>
